# Blender 4.3.2
# www.blender.org
mtllib fence-damaged.mtl
o fence-damaged
v 0.500000 -0.470000 0.000000
v 0.416667 -0.470000 0.000000
v 0.500000 -0.470000 -0.590000
v 0.416667 -0.470000 -0.518571
v 0.416667 -0.530000 0.000000
v 0.500000 -0.530000 0.000000
v 0.416667 -0.530000 -0.518571
v 0.500000 -0.530000 -0.590000
v -0.416667 -0.470000 0.000000
v -0.500000 -0.470000 0.000000
v -0.416667 -0.470000 -0.518571
v -0.500000 -0.470000 -0.590000
v -0.500000 -0.530000 0.000000
v -0.416667 -0.530000 0.000000
v -0.500000 -0.530000 -0.590000
v -0.416667 -0.530000 -0.518571
v 0.328997 -0.344324 -0.000000
v 0.245664 -0.199986 0.000000
v 0.328997 -0.344324 -0.040000
v 0.245664 -0.199986 -0.040000
v -0.223624 -0.567155 -0.000000
v -0.120099 -0.603610 -0.000000
v -0.223624 -0.567155 -0.040000
v -0.120099 -0.603610 -0.040000
v -0.203432 -0.459272 -0.000000
v -0.203432 -0.459272 -0.040000
v 0.250000 -0.560000 -0.242506
v 0.500000 -0.560000 -0.242506
v 0.250000 -0.560000 -0.347494
v 0.500000 -0.560000 -0.347494
v 0.500000 -0.440000 -0.242506
v 0.250000 -0.440000 -0.242506
v 0.500000 -0.440000 -0.347494
v 0.250000 -0.440000 -0.347494
v 0.500000 -0.470000 -0.347494
v 0.500000 -0.470000 -0.242506
v 0.230000 -0.540000 -0.242506
v 0.230000 -0.540000 -0.347494
v 0.230000 -0.460000 -0.242506
v 0.230000 -0.460000 -0.347494
v 0.500000 -0.530000 -0.347494
v 0.500000 -0.530000 -0.242506
v -0.250000 -0.440000 -0.242506
v -0.500000 -0.440000 -0.242506
v -0.250000 -0.440000 -0.347494
v -0.500000 -0.440000 -0.347494
v -0.250000 -0.560000 -0.347494
v -0.250000 -0.560000 -0.242506
v -0.230000 -0.540000 -0.347494
v -0.230000 -0.540000 -0.242506
v -0.500000 -0.560000 -0.242506
v -0.500000 -0.560000 -0.347494
v -0.500000 -0.530000 -0.242506
v -0.500000 -0.530000 -0.347494
v -0.500000 -0.470000 -0.242506
v -0.500000 -0.470000 -0.347494
v -0.230000 -0.460000 -0.242506
v -0.230000 -0.460000 -0.347494
v -0.250000 -0.485000 0.000000
v -0.416667 -0.485000 0.000000
v -0.250000 -0.485000 -0.568571
v -0.416667 -0.485000 -0.568571
v -0.333333 -0.485000 -0.640000
v -0.416667 -0.515000 0.000000
v -0.250000 -0.515000 0.000000
v -0.416667 -0.515000 -0.568571
v -0.250000 -0.515000 -0.568571
v -0.333333 -0.515000 -0.640000
v 0.416667 -0.485000 0.000000
v 0.250000 -0.485000 0.000000
v 0.416667 -0.485000 -0.518571
v 0.250000 -0.485000 -0.518571
v 0.333333 -0.485000 -0.590000
v 0.250000 -0.515000 0.000000
v 0.416667 -0.515000 0.000000
v 0.250000 -0.515000 -0.518571
v 0.416667 -0.515000 -0.518571
v 0.333333 -0.515000 -0.590000
vn -0.5305 0.4966 -0.6870
vn -0.5481 0.5914 0.5915
vn 0.5774 0.5774 0.5774
vn -0.3693 0.8234 -0.4308
vn -0.0000 1.0000 -0.0000
vn -0.0644 0.9979 -0.0000
vn -0.8766 0.4812 -0.0000
vn 0.6832 -0.0000 0.7303
vn -0.6508 -0.0000 -0.7593
vn -0.0000 -1.0000 -0.0000
vn 0.7071 -0.0000 -0.7071
vn 0.6832 -0.0000 -0.7303
vn -0.0000 -0.0000 -1.0000
vn 1.0000 -0.0000 -0.0000
vn 0.1873 0.9689 -0.1615
vn 0.7071 0.7071 -0.0000
vn -0.9085 -0.0000 0.4179
vn -1.0000 -0.0000 -0.0000
vn -0.9355 -0.0000 0.3533
vn -0.6891 -0.0000 -0.7247
vn -0.3493 0.5490 -0.7594
vn -0.6508 -0.0000 0.7593
vn 0.6124 0.3536 0.7071
vn 0.7872 -0.1899 -0.5868
vn 0.5947 0.3833 -0.7067
vn 0.0169 -0.0292 0.9994
vn 0.7887 -0.2113 0.5774
vn -0.0000 -0.0000 1.0000
vn -0.2837 0.4914 -0.8234
vn -0.5000 0.8660 -0.0000
vn -0.0526 -0.8057 -0.5899
vn 0.5773 -0.5773 0.5774
vn -0.3346 -0.8077 0.4855
vn 0.5774 -0.5774 -0.5774
vn 0.5773 0.5773 -0.5774
vn -0.0378 0.7507 0.6596
vn -0.3346 0.8077 -0.4855
vn 0.4472 -0.0000 0.8944
vn 0.4472 -0.0000 -0.8944
vn -0.8868 0.1147 0.4477
vn -0.8607 -0.3565 -0.3634
vn -0.7483 0.0884 0.6575
vn -0.7483 -0.0884 -0.6575
vn 0.1163 0.7882 -0.6043
vn -0.5773 0.5773 0.5774
vn 0.3389 0.8181 0.4646
vn -0.4472 -0.0000 -0.8944
vn -0.4472 -0.0000 0.8944
vn -0.5774 0.5774 -0.5774
vn -0.5773 -0.5773 -0.5774
vn -0.0061 -0.7512 0.6601
vn -0.5774 -0.5774 0.5773
vn 0.8192 0.4624 -0.3393
vn 0.8392 0.3476 0.4182
vn 0.3976 -0.5580 -0.7284
vn 0.4666 -0.5916 -0.6575
vn 0.7483 0.0881 0.6575
vn -0.0237 0.7069 0.7069
vn -0.0000 0.7071 0.7071
vn -0.7959 0.4822 -0.3661
vn -0.0000 -0.6334 0.7738
vn -0.0000 -0.7071 0.7071
vn -0.3693 0.8234 0.4308
vn 0.0863 0.9912 0.1007
vn -0.0000 0.5859 0.8104
vn -0.9225 -0.0000 -0.3859
vn -0.0623 -0.6187 0.7832
vn -0.0000 -0.5859 0.8104
vn -0.8817 -0.2410 0.4055
vn 0.8817 -0.2410 0.4055
vn -0.0368 -0.9993 -0.0000
vn -0.7071 -0.7071 -0.0000
vn 0.8773 0.2452 0.4127
vn -0.8817 0.2410 0.4055
vn -0.7071 -0.0000 -0.7071
vn -0.7071 -0.0000 0.7071
vn 0.8660 0.5000 -0.0000
vn -0.0809 0.9967 -0.0000
vn -0.0924 0.9957 -0.0000
vn 0.9829 -0.1840 -0.0000
vn 0.5000 -0.8660 -0.0000
vn -0.5932 -0.4113 0.6921
vt 0.093750 0.475000
vt 0.093750 0.275000
vt 0.093750 0.450787
vt 0.031250 0.375000
vt 0.093750 0.363839
vt 0.093750 0.375000
vt 0.093750 0.362893
s 1
usemtl colormap.033
f 3/1/1 2/2/2 1/2/3
f 2/2/2 3/1/1 4/3/4
f 5/2/5 6/2/6 7/3/5
f 8/1/7 7/3/5 6/2/6
f 6/2/8 3/1/1 1/2/3
f 7/3/9 3/1/1 8/1/9
f 3/1/1 7/3/9 4/3/4
f 15/1/10 14/2/10 13/2/10
f 14/2/10 15/1/10 16/3/10
f 13/2/11 10/2/12 14/2/13
f 14/2/14 11/3/15 9/2/16
f 16/3/17 14/2/18 11/3/19
f 11/3/15 15/1/20 12/1/21
f 16/3/17 11/3/19 15/1/22
f 15/1/20 10/2/6 12/1/21
f 13/2/11 15/1/14 10/2/12
f 18/2/23 19/1/24 20/1/25
f 18/2/23 22/2/26 17/2/27
f 22/2/26 18/2/23 25/2/28
f 24/1/13 20/1/25 19/1/24
f 20/1/25 24/1/13 26/1/29
f 25/2/30 20/1/25 26/1/29
f 29/4/31 28/4/32 27/4/33
f 28/4/32 29/4/31 30/4/34
f 33/4/35 32/4/36 31/4/3
f 32/4/36 33/4/35 34/4/37
f 33/4/35 36/4/38 35/4/39
f 36/4/38 33/4/35 31/4/3
f 39/4/40 38/4/41 37/4/42
f 38/4/41 39/4/40 40/4/43
f 41/4/39 28/4/32 30/4/34
f 28/4/32 41/4/39 42/4/38
f 32/4/36 36/4/38 31/4/3
f 36/4/38 32/4/36 42/4/38
f 27/4/33 42/4/38 32/4/36
f 42/4/38 27/4/33 28/4/32
f 27/4/33 32/4/36 39/4/40
f 27/4/33 39/4/40 37/4/42
f 34/4/37 38/4/41 40/4/43
f 32/4/36 40/4/43 39/4/40
f 40/4/43 32/4/36 34/4/37
f 45/4/44 44/4/45 43/4/46
f 44/4/45 56/4/47 55/4/48
f 56/4/47 44/4/45 46/4/49
f 52/4/50 48/4/51 51/4/52
f 58/4/53 43/4/46 57/4/54
f 43/4/46 58/4/53 45/4/44
f 47/4/55 58/4/53 49/4/56
f 58/4/53 47/4/55 45/4/44
f 45/4/44 47/4/55 52/4/50
f 45/4/44 52/4/50 54/4/47
f 56/4/47 45/4/44 54/4/47
f 48/4/51 43/4/46 51/4/52
f 48/4/51 57/4/54 43/4/46
f 57/4/54 48/4/51 50/4/57
f 61/5/5 60/2/58 59/2/59
f 60/2/58 61/5/5 62/5/60
f 66/5/10 65/2/61 64/2/62
f 67/5/63 66/5/64 65/2/5
f 68/6/65 66/5/64 67/5/63
f 60/2/58 65/2/61 59/2/59
f 65/2/61 60/2/58 64/2/62
f 59/2/18 61/5/18 65/2/18
f 63/6/9 66/5/66 62/5/60
f 68/6/65 63/6/67 66/5/64
f 66/5/66 60/2/58 62/5/60
f 64/2/14 66/5/14 60/2/14
f 73/6/68 71/7/69 72/7/70
f 76/7/71 75/2/10 74/2/72
f 75/2/10 76/7/71 77/7/10
f 78/6/65 76/7/73 77/7/74
f 69/2/75 75/2/75 70/2/13
f 69/2/75 71/7/69 75/2/75
f 77/7/74 71/7/69 78/6/65
f 78/6/65 73/6/68 76/7/73
f 72/7/70 76/7/73 73/6/68
f 70/2/18 76/7/71 74/2/72
f 72/7/70 70/2/14 76/7/73
f 2/2/2 6/2/8 1/2/3
f 6/2/8 2/2/2 5/2/76
f 8/1/7 6/2/6 3/1/18
f 2/2/2 7/3/18 5/2/76
f 4/3/14 2/2/14 7/3/14
f 11/3/15 10/2/6 9/2/16
f 10/2/6 11/3/15 12/1/21
f 9/2/13 14/2/13 10/2/12
f 19/1/24 18/2/23 17/2/27
f 21/2/77 22/2/78 23/1/77
f 24/1/79 23/1/77 22/2/78
f 22/2/26 25/2/28 21/2/28
f 21/2/77 23/1/77 25/2/80
f 26/1/80 25/2/80 23/1/77
f 26/1/29 24/1/13 23/1/13
f 22/2/26 19/1/24 17/2/27
f 24/1/79 22/2/78 19/1/30
f 18/2/81 25/2/81 20/1/81
f 29/4/31 41/4/39 30/4/34
f 41/4/39 29/4/31 35/4/39
f 34/4/37 35/4/39 29/4/31
f 35/4/39 34/4/37 33/4/35
f 34/4/37 29/4/31 38/4/41
f 37/4/42 29/4/31 27/4/33
f 29/4/31 37/4/42 38/4/41
f 44/4/45 45/4/44 46/4/49
f 49/4/56 48/4/51 47/4/55
f 48/4/51 49/4/56 50/4/57
f 53/4/48 52/4/50 51/4/52
f 52/4/50 53/4/48 54/4/47
f 48/4/51 52/4/50 47/4/55
f 58/4/53 50/4/57 49/4/56
f 50/4/57 58/4/53 57/4/54
f 45/4/44 56/4/47 46/4/49
f 55/4/48 43/4/46 44/4/45
f 43/4/46 55/4/48 53/4/48
f 51/4/52 43/4/46 53/4/48
f 63/6/67 61/5/82 62/5/10
f 61/5/14 65/2/14 67/5/14
f 67/5/63 61/5/82 68/6/65
f 63/6/67 68/6/65 61/5/82
f 71/7/5 70/2/5 69/2/5
f 70/2/5 71/7/5 72/7/5
f 74/2/13 70/2/13 75/2/75
f 77/7/74 75/2/75 71/7/69
f 73/6/68 78/6/65 71/7/69
