# Blender 4.3.2
# www.blender.org
mtllib conveyor-bars-sides.mtl
o conveyor-bars-sides
v 0.500000 -0.450000 -0.200000
v 0.500000 -0.400000 -0.200000
v -0.500000 -0.450000 -0.200000
v -0.500000 -0.400000 -0.200000
v 0.500000 0.500000 -0.000000
v 0.500000 0.400000 -0.000000
v -0.500000 0.500000 -0.000000
v -0.500000 0.400000 -0.000000
v -0.500000 0.400000 -0.200000
v 0.500000 0.400000 -0.200000
v 0.500000 0.500000 -0.150000
v -0.500000 0.500000 -0.150000
v 0.500000 -0.400000 0.000000
v 0.500000 -0.500000 0.000000
v -0.500000 -0.400000 0.000000
v -0.500000 -0.500000 0.000000
v 0.500000 -0.500000 -0.150000
v -0.500000 -0.500000 -0.150000
v 0.500000 0.450000 -0.200000
v -0.500000 0.450000 -0.200000
v 0.312500 -0.400000 -0.050000
v 0.437500 -0.400000 -0.050000
v 0.250000 -0.400000 -0.112500
v 0.312500 -0.400000 -0.112500
v 0.437500 -0.400000 -0.112500
v 0.500000 -0.400000 -0.112500
v 0.437500 -0.400000 -0.237500
v 0.500000 -0.400000 -0.237500
v 0.312500 -0.400000 -0.237500
v 0.312500 -0.400000 -0.300000
v 0.437500 -0.400000 -0.300000
v 0.250000 -0.400000 -0.237500
v 0.187500 -0.400000 -0.237500
v 0.187500 -0.400000 -0.112500
v 0.187500 -0.400000 -0.050000
v 0.062500 -0.400000 -0.112500
v 0.062500 -0.400000 -0.300000
v 0.187500 -0.400000 -0.300000
v 0.062500 -0.400000 -0.237500
v 0.000000 -0.400000 -0.237500
v 0.000000 -0.400000 -0.112500
v 0.062500 -0.400000 -0.050000
v -0.062500 -0.400000 -0.237500
v -0.062500 -0.400000 -0.112500
v -0.062500 -0.400000 -0.050000
v -0.187500 -0.400000 -0.112500
v -0.187500 -0.400000 -0.300000
v -0.062500 -0.400000 -0.300000
v -0.187500 -0.400000 -0.237500
v -0.250000 -0.400000 -0.237500
v -0.250000 -0.400000 -0.112500
v -0.187500 -0.400000 -0.050000
v -0.312500 -0.400000 -0.237500
v -0.312500 -0.400000 -0.112500
v -0.312500 -0.400000 -0.050000
v -0.437500 -0.400000 -0.112500
v -0.437500 -0.400000 -0.300000
v -0.312500 -0.400000 -0.300000
v -0.437500 -0.400000 -0.237500
v -0.500000 -0.400000 -0.237500
v -0.500000 -0.400000 -0.112500
v -0.437500 -0.400000 -0.050000
v 0.437500 0.400000 -0.300000
v 0.312500 0.400000 -0.300000
v 0.250000 0.400000 -0.237500
v 0.500000 0.400000 -0.237500
v 0.500000 0.400000 -0.112500
v 0.312500 0.400000 -0.050000
v 0.250000 0.400000 -0.112500
v 0.437500 0.400000 -0.050000
v 0.437500 0.400000 -0.112500
v 0.312500 0.400000 -0.112500
v 0.437500 0.400000 -0.237500
v 0.312500 0.400000 -0.237500
v 0.187500 0.400000 -0.237500
v 0.187500 0.400000 -0.300000
v 0.187500 0.400000 -0.112500
v 0.062500 0.400000 -0.237500
v 0.062500 0.400000 -0.050000
v 0.187500 0.400000 -0.050000
v 0.062500 0.400000 -0.112500
v 0.000000 0.400000 -0.112500
v 0.000000 0.400000 -0.237500
v 0.062500 0.400000 -0.300000
v -0.062500 0.400000 -0.237500
v -0.062500 0.400000 -0.300000
v -0.062500 0.400000 -0.112500
v -0.187500 0.400000 -0.237500
v -0.187500 0.400000 -0.050000
v -0.062500 0.400000 -0.050000
v -0.187500 0.400000 -0.112500
v -0.250000 0.400000 -0.112500
v -0.250000 0.400000 -0.237500
v -0.187500 0.400000 -0.300000
v -0.312500 0.400000 -0.237500
v -0.312500 0.400000 -0.300000
v -0.312500 0.400000 -0.112500
v -0.437500 0.400000 -0.237500
v -0.437500 0.400000 -0.050000
v -0.312500 0.400000 -0.050000
v -0.437500 0.400000 -0.112500
v -0.500000 0.400000 -0.112500
v -0.500000 0.400000 -0.237500
v -0.437500 0.400000 -0.300000
vn -0.0000 -0.3827 -0.9239
vn -0.0000 -0.0000 -1.0000
vn -0.0000 -0.0000 1.0000
vn -0.0000 -1.0000 -0.0000
vn -0.0000 0.9239 -0.3827
vn -0.0000 1.0000 -0.0000
vn 1.0000 -0.0000 -0.0000
vn -1.0000 -0.0000 -0.0000
vn -0.0000 0.3827 -0.9239
vn -0.0000 -0.9239 -0.3827
vn -0.3827 -0.0000 -0.9239
vn 0.3827 -0.0000 -0.9239
vn -0.7071 -0.0000 -0.7071
vn 0.9239 -0.0000 -0.3827
vn 0.9239 -0.0000 0.3827
vn -0.7071 -0.0000 0.7071
vn -0.3827 -0.0000 0.9239
vn 0.3827 -0.0000 0.9239
vn 0.7071 -0.0000 0.7071
vn -0.9239 -0.0000 0.3827
vn 0.7071 -0.0000 -0.7071
vn -0.9239 -0.0000 -0.3827
vt 0.343750 0.225000
vt 0.343750 0.025000
vt 0.343750 0.175000
vt 0.218750 0.075000
vt 0.218750 0.025000
vt 0.218750 0.175000
vt 0.218750 0.225000
vt 0.093750 0.025000
vt 0.093750 0.225000
s 1
usemtl colormap.002
f 3/1/1 2/1/2 1/1/1
f 2/1/2 3/1/1 4/1/2
f 7/2/3 6/2/3 5/2/3
f 6/2/3 7/2/3 8/2/3
f 9/1/4 6/2/4 8/2/4
f 6/2/4 9/1/4 10/1/4
f 11/3/5 7/2/6 5/2/6
f 7/2/6 11/3/5 12/3/5
f 15/2/3 14/2/3 13/2/3
f 14/2/3 15/2/3 16/2/3
f 1/1/7 14/2/7 17/3/7
f 14/2/7 1/1/7 13/2/7
f 13/2/7 1/1/7 2/1/7
f 15/2/8 18/3/8 16/2/8
f 18/3/8 15/2/8 3/1/8
f 3/1/8 15/2/8 4/1/8
f 10/1/2 20/1/9 19/1/9
f 20/1/9 10/1/2 9/1/2
f 3/1/1 17/3/10 18/3/10
f 17/3/10 3/1/1 1/1/1
f 19/1/9 12/3/5 11/3/5
f 12/3/5 19/1/9 20/1/9
f 18/3/10 14/2/4 16/2/4
f 14/2/4 18/3/10 17/3/10
f 7/2/8 9/1/8 8/2/8
f 9/1/8 7/2/8 20/1/8
f 20/1/8 7/2/8 12/3/8
f 19/1/7 6/2/7 10/1/7
f 6/2/7 19/1/7 5/2/7
f 5/2/7 19/1/7 11/3/7
f 2/1/6 15/2/6 13/2/6
f 15/2/6 2/1/6 4/1/6
f 23/4/4 22/5/4 21/5/4
f 22/5/4 23/4/4 24/4/4
f 22/5/4 24/4/4 25/4/4
f 25/4/4 26/4/4 22/5/4
f 26/4/4 25/4/4 27/6/4
f 26/4/4 27/6/4 28/6/4
f 24/4/4 23/4/4 29/6/4
f 27/6/4 30/7/4 28/6/4
f 29/6/4 30/7/4 27/6/4
f 28/6/4 30/7/4 31/7/4
f 29/6/4 32/6/4 30/7/4
f 29/6/4 23/4/4 32/6/4
f 23/4/4 33/6/4 32/6/4
f 23/4/4 34/4/4 33/6/4
f 34/4/4 23/4/4 35/5/4
f 35/5/4 36/4/4 34/4/4
f 33/6/4 37/7/4 32/6/4
f 32/6/4 37/7/4 38/7/4
f 39/6/4 37/7/4 33/6/4
f 39/6/4 40/6/4 37/7/4
f 35/5/4 41/4/4 36/4/4
f 36/4/4 41/4/4 39/6/4
f 39/6/4 41/4/4 40/6/4
f 41/4/4 35/5/4 42/5/4
f 41/4/4 43/6/4 40/6/4
f 41/4/4 44/4/4 43/6/4
f 44/4/4 41/4/4 45/5/4
f 45/5/4 46/4/4 44/4/4
f 43/6/4 47/7/4 40/6/4
f 40/6/4 47/7/4 48/7/4
f 49/6/4 47/7/4 43/6/4
f 49/6/4 50/6/4 47/7/4
f 45/5/4 51/4/4 46/4/4
f 46/4/4 51/4/4 49/6/4
f 49/6/4 51/4/4 50/6/4
f 51/4/4 45/5/4 52/5/4
f 51/4/4 53/6/4 50/6/4
f 51/4/4 54/4/4 53/6/4
f 54/4/4 51/4/4 55/5/4
f 55/5/4 56/4/4 54/4/4
f 53/6/4 57/7/4 50/6/4
f 50/6/4 57/7/4 58/7/4
f 59/6/4 57/7/4 53/6/4
f 59/6/4 60/6/4 57/7/4
f 59/6/4 61/4/4 60/6/4
f 56/4/4 61/4/4 59/6/4
f 55/5/4 61/4/4 56/4/4
f 61/4/4 55/5/4 62/5/4
f 30/7/11 63/7/12 31/7/12
f 63/7/12 30/7/11 64/7/11
f 32/6/13 64/7/11 30/7/11
f 64/7/11 32/6/13 65/6/13
f 66/6/14 26/4/15 28/6/14
f 26/4/15 66/6/14 67/4/15
f 63/7/12 28/6/14 31/7/12
f 28/6/14 63/7/12 66/6/14
f 69/4/16 21/5/17 68/5/17
f 21/5/17 69/4/16 23/4/16
f 67/4/6 68/5/6 70/5/6
f 68/5/6 67/4/6 71/4/6
f 72/4/6 68/5/6 71/4/6
f 71/4/6 67/4/6 73/6/6
f 73/6/6 67/4/6 66/6/6
f 68/5/6 72/4/6 69/4/6
f 73/6/6 66/6/6 63/7/6
f 73/6/6 63/7/6 74/6/6
f 69/4/6 72/4/6 74/6/6
f 74/6/6 63/7/6 65/6/6
f 69/4/6 74/6/6 65/6/6
f 65/6/6 63/7/6 64/7/6
f 75/6/6 69/4/6 65/6/6
f 75/6/6 65/6/6 76/7/6
f 77/4/6 69/4/6 75/6/6
f 75/6/6 76/7/6 78/6/6
f 79/5/6 69/4/6 77/4/6
f 69/4/6 79/5/6 80/5/6
f 81/4/6 79/5/6 77/4/6
f 79/5/6 81/4/6 82/4/6
f 82/4/6 81/4/6 78/6/6
f 78/6/6 76/7/6 83/6/6
f 82/4/6 78/6/6 83/6/6
f 83/6/6 76/7/6 84/7/6
f 85/6/6 82/4/6 83/6/6
f 85/6/6 83/6/6 86/7/6
f 87/4/6 82/4/6 85/6/6
f 85/6/6 86/7/6 88/6/6
f 89/5/6 82/4/6 87/4/6
f 82/4/6 89/5/6 90/5/6
f 91/4/6 89/5/6 87/4/6
f 89/5/6 91/4/6 92/4/6
f 92/4/6 91/4/6 88/6/6
f 88/6/6 86/7/6 93/6/6
f 92/4/6 88/6/6 93/6/6
f 93/6/6 86/7/6 94/7/6
f 95/6/6 92/4/6 93/6/6
f 95/6/6 93/6/6 96/7/6
f 97/4/6 92/4/6 95/6/6
f 95/6/6 96/7/6 98/6/6
f 99/5/6 92/4/6 97/4/6
f 92/4/6 99/5/6 100/5/6
f 101/4/6 99/5/6 97/4/6
f 99/5/6 101/4/6 102/4/6
f 102/4/6 101/4/6 98/6/6
f 102/4/6 98/6/6 103/6/6
f 98/6/6 96/7/6 103/6/6
f 103/6/6 96/7/6 104/7/6
f 89/5/17 45/5/18 90/5/18
f 45/5/18 89/5/17 52/5/17
f 90/5/18 41/4/19 82/4/19
f 41/4/19 90/5/18 45/5/18
f 93/6/13 47/7/11 50/6/13
f 47/7/11 93/6/13 94/7/11
f 47/7/11 86/7/12 48/7/12
f 86/7/12 47/7/11 94/7/11
f 99/5/17 61/4/20 62/5/17
f 61/4/20 99/5/17 102/4/20
f 79/5/17 41/4/16 42/5/17
f 41/4/16 79/5/17 82/4/16
f 86/7/12 40/6/21 48/7/12
f 40/6/21 86/7/12 83/6/21
f 96/7/12 50/6/21 58/7/12
f 50/6/21 96/7/12 93/6/21
f 80/5/18 23/4/19 69/4/19
f 23/4/19 80/5/18 35/5/18
f 99/5/17 55/5/18 100/5/18
f 55/5/18 99/5/17 62/5/17
f 67/4/15 22/5/18 26/4/15
f 22/5/18 67/4/15 70/5/18
f 76/7/12 32/6/21 38/7/12
f 32/6/21 76/7/12 65/6/21
f 103/6/22 57/7/11 60/6/22
f 57/7/11 103/6/22 104/7/11
f 37/7/11 76/7/12 38/7/12
f 76/7/12 37/7/11 84/7/11
f 57/7/11 96/7/12 58/7/12
f 96/7/12 57/7/11 104/7/11
f 68/5/17 22/5/18 70/5/18
f 22/5/18 68/5/17 21/5/17
f 92/4/16 52/5/17 89/5/17
f 52/5/17 92/4/16 51/4/16
f 79/5/17 35/5/18 80/5/18
f 35/5/18 79/5/17 42/5/17
f 100/5/18 51/4/19 92/4/19
f 51/4/19 100/5/18 55/5/18
f 83/6/13 37/7/11 40/6/13
f 37/7/11 83/6/13 84/7/11
f 102/4/20 60/6/22 61/4/20
f 60/6/22 102/4/20 103/6/22
f 24/8/4 27/9/4 25/8/4
f 27/9/4 24/8/4 29/9/4
f 36/8/4 33/9/4 34/8/4
f 33/9/4 36/8/4 39/9/4
f 46/8/4 43/9/4 44/8/4
f 43/9/4 46/8/4 49/9/4
f 95/9/6 101/8/6 97/8/6
f 101/8/6 95/9/6 98/9/6
f 85/9/6 91/8/6 87/8/6
f 91/8/6 85/9/6 88/9/6
f 73/9/6 72/8/6 71/8/6
f 72/8/6 73/9/6 74/9/6
f 75/9/6 81/8/6 77/8/6
f 81/8/6 75/9/6 78/9/6
f 56/8/4 53/9/4 54/8/4
f 53/9/4 56/8/4 59/9/4
