# Blender 4.3.2
# www.blender.org
mtllib wall.078.mtl
o wall.763
v 35.500000 -0.000000 0.300000
v 35.500000 0.000000 -0.300000
v 35.500000 0.150000 0.300000
v 34.500000 0.000000 -0.300000
v 34.500000 -0.000000 0.300000
v 34.500000 0.150000 0.300000
v 34.500000 0.200000 0.250000
v 34.500000 0.600000 0.250000
v 35.500000 0.200000 0.250000
v 35.500000 0.600000 0.250000
v 35.500000 1.000000 0.250000
v 35.500000 0.200000 -0.250000
v 35.500000 1.000000 -0.250000
v 34.500000 1.000000 0.250000
v 34.500000 1.000000 -0.250000
v 34.500000 0.200000 -0.250000
v 34.500000 0.150000 -0.300000
v 35.500000 0.150000 -0.300000
vn 0.5773 -0.5774 -0.5774
vn 0.6599 -0.0198 0.7511
vn 0.5774 -0.5773 0.5773
vn -0.5773 -0.5774 -0.5774
vn -0.6576 0.5907 0.4676
vn -0.5773 -0.5774 0.5774
vn -0.8042 0.2275 0.5491
vn -0.7071 -0.0000 0.7071
vn 0.7071 -0.0000 0.7071
vn 0.8042 0.2275 0.5491
vn 0.5774 0.5774 0.5773
vn 0.8042 0.2275 -0.5492
vn 0.5774 0.5773 -0.5774
vn -0.5773 0.5773 0.5774
vn -0.5773 0.5773 -0.5774
vn -0.8042 0.2275 -0.5491
vn -0.6552 0.6129 -0.4417
vn 0.6598 0.5531 -0.5087
vt 0.093750 0.025000
vt 0.093750 0.055000
vt 0.218750 0.025000
vt 0.218750 0.175000
vt 0.093750 0.065000
vt 0.218750 0.225000
vt 0.093750 0.145000
vt 0.218750 0.275000
vt 0.218750 0.475000
vt 0.093750 0.225000
vt 0.218750 0.145000
vt 0.218750 0.065000
vt 0.468750 0.225000
vt 0.468750 0.175000
vt 0.468750 0.025000
s 1
usemtl colormap.005
f 2/1/1 3/2/2 1/1/3
f 1/3/3 4/3/4 2/3/1
f 6/4/5 1/3/3 3/4/2
f 4/3/4 1/3/3 5/3/6
f 1/3/3 6/4/5 5/3/6
f 7/5/7 5/1/6 6/2/5
f 3/4/2 7/6/7 6/4/5
f 4/1/4 7/5/7 8/7/8
f 5/1/6 7/5/7 4/1/4
f 7/8/7 10/9/9 8/9/8
f 7/6/7 3/4/2 9/6/10
f 10/9/9 7/8/7 9/8/10
f 9/5/10 2/1/1 10/7/9
f 10/7/9 2/1/1 11/10/11
f 11/6/11 8/11/8 10/11/9
f 11/10/11 2/1/1 12/5/12
f 13/10/13 11/10/11 12/5/12
f 13/10/13 14/10/14 11/10/11
f 8/11/8 11/6/11 14/6/14
f 14/10/14 13/10/13 15/10/15
f 15/10/15 16/5/16 14/10/14
f 4/1/4 14/10/14 16/5/16
f 4/1/4 8/7/8 14/10/14
f 15/6/15 12/12/12 16/12/16
f 4/1/4 16/5/16 17/2/17
f 12/13/12 17/14/17 16/13/16
f 17/14/17 2/15/1 4/15/4
f 2/15/1 17/14/17 18/14/18
f 17/14/17 12/13/12 18/14/18
f 12/5/12 2/1/1 18/2/18
f 12/12/12 15/6/15 13/6/13
f 3/2/2 2/1/1 9/5/10
