# Blender 4.3.2
# www.blender.org
mtllib toiletSquare.mtl
o toiletSquare
v -0.064379 0.285763 0.000000
v -0.239241 0.285763 0.000000
v -0.073533 0.263664 -0.035720
v -0.230087 0.263664 -0.035720
v -0.052352 0.242483 -0.035720
v -0.030253 0.251637 0.000000
v -0.273367 0.251637 0.000000
v -0.251268 0.242483 -0.035720
v -0.239241 0.003184 0.000000
v -0.064379 0.003184 0.000000
v -0.230087 0.025283 -0.035720
v -0.073533 0.025283 -0.035720
v -0.273367 0.037310 0.000000
v -0.251268 0.046464 -0.035720
v -0.030253 0.037310 0.000000
v -0.052352 0.046464 -0.035720
v -0.094542 0.062893 -0.157715
v -0.209078 0.062893 -0.157715
v -0.066336 0.022711 -0.227715
v -0.237284 0.022711 -0.227715
v -0.086255 0.071181 -0.157715
v -0.053966 0.035081 -0.227715
v -0.053966 0.253866 -0.227715
v -0.086255 0.217766 -0.157715
v -0.094542 0.226054 -0.157715
v -0.209078 0.226054 -0.157715
v -0.217365 0.217766 -0.157715
v -0.217365 0.071181 -0.157715
v -0.249654 0.035081 -0.227715
v -0.237284 0.266235 -0.227715
v -0.066336 0.266235 -0.227715
v -0.249654 0.253866 -0.227715
v -0.031255 0.378247 -0.227715
v -0.082602 0.378247 -0.227715
v -0.008930 0.378247 -0.406315
v -0.221017 0.378247 -0.227715
v -0.272365 0.378247 -0.227715
v -0.294690 0.378247 -0.406315
v -0.073673 0.378247 -0.406315
v -0.229948 0.378247 -0.406315
v -0.221017 0.378247 -0.191995
v -0.082602 0.378247 -0.191995
v -0.221017 0.288947 -0.191995
v -0.221017 0.288947 -0.227715
v -0.221017 0.311272 -0.227715
v -0.082602 0.288947 -0.191995
v -0.082602 0.288947 -0.227715
v -0.082602 0.311272 -0.227715
v -0.272365 0.311272 -0.227715
v -0.294690 0.311272 -0.406315
v -0.031255 0.311272 -0.227715
v -0.066004 0.311272 -0.377054
v -0.066004 0.311272 -0.394914
v -0.048144 0.311272 -0.394914
v -0.048144 0.311272 -0.377054
v -0.008930 0.311272 -0.406315
v -0.000000 0.302342 -0.406315
v 0.000000 0.387177 -0.406315
v -0.073673 0.387177 -0.406315
v -0.229948 0.387177 -0.406315
v -0.303620 0.387177 -0.406315
v -0.303620 0.302342 -0.406315
v -0.000000 0.302342 -0.450965
v 0.000000 0.387177 -0.450965
v -0.056929 0.288947 -0.227715
v -0.031255 0.025674 -0.227715
v -0.056929 0.000000 -0.227715
v -0.246691 0.000000 -0.227715
v -0.272365 0.025674 -0.227715
v -0.272365 0.263273 -0.227715
v -0.031255 0.263273 -0.227715
v -0.246691 0.288947 -0.227715
v -0.303620 0.387177 -0.450965
v -0.073673 0.387177 -0.450965
v -0.229948 0.387177 -0.450965
v -0.303620 0.302342 -0.450965
v -0.061394 0.055374 -0.111625
v -0.061394 0.233573 -0.111625
v -0.242226 0.055374 -0.111625
v -0.242226 0.233573 -0.111625
v -0.222971 0.036118 -0.111625
v -0.246691 0.000000 -0.183065
v -0.056929 0.000000 -0.183065
v -0.222971 0.252828 -0.111625
v -0.080649 0.036118 -0.111625
v -0.080649 0.252828 -0.111625
v -0.246691 0.288947 -0.183065
v -0.056929 0.288947 -0.183065
v -0.272365 0.025674 -0.183065
v -0.272365 0.263273 -0.183065
v -0.031255 0.263273 -0.183065
v -0.031255 0.025674 -0.183065
v -0.021354 0.306807 -0.385984
v -0.021354 0.293412 -0.385984
v -0.048144 0.306807 -0.381519
v -0.048144 0.293412 -0.381519
v -0.021354 0.293412 -0.394914
v -0.021354 0.306807 -0.394914
v -0.048144 0.293412 -0.377054
v -0.066004 0.293412 -0.377054
v -0.048144 0.306807 -0.394914
v -0.066004 0.293412 -0.394914
v -0.066336 0.022711 -0.227715
v -0.237284 0.022711 -0.227715
v -0.053966 0.035081 -0.227715
v -0.249654 0.035081 -0.227715
v -0.249654 0.253866 -0.227715
v -0.053966 0.253866 -0.227715
v -0.237284 0.266235 -0.227715
v -0.066336 0.266235 -0.227715
v -0.227027 0.037323 -0.247715
v -0.076593 0.037323 -0.247715
v -0.237913 0.048208 -0.247715
v -0.065708 0.048208 -0.247715
v -0.237913 0.240739 -0.247715
v -0.065708 0.240739 -0.247715
v -0.227027 0.251624 -0.247715
v -0.076593 0.251624 -0.247715
vn -0.3508 0.8469 0.3997
vn 0.3508 0.8469 0.3996
vn 0.3557 0.8502 -0.3882
vn -0.3557 0.8502 -0.3882
vn 0.8469 0.3508 0.3996
vn 0.8509 0.3596 -0.3830
vn -0.8469 0.3508 0.3996
vn -0.8509 0.3596 -0.3830
vn -0.8509 -0.3596 -0.3830
vn -0.8469 -0.3508 0.3996
vn 0.8469 -0.3508 0.3996
vn 0.8509 -0.3596 -0.3830
vn 0.3508 -0.8469 0.3997
vn 0.3557 -0.8502 -0.3882
vn -0.3417 0.1625 -0.9257
vn -0.1482 0.3336 -0.9310
vn -0.1908 0.5155 -0.8354
vn -0.3417 -0.1625 -0.9257
vn -0.5463 0.1799 -0.8181
vn -0.5463 -0.1799 -0.8180
vn -0.1908 -0.5155 -0.8354
vn 0.1908 -0.5155 -0.8354
vn 0.1908 0.5155 -0.8354
vn 0.5463 -0.1799 -0.8180
vn 0.5463 0.1799 -0.8181
vn 0.1482 0.3336 -0.9310
vn 0.3417 0.1625 -0.9257
vn 0.3417 -0.1624 -0.9257
vn 0.3015 0.9045 0.3015
vn 0.5371 0.5842 0.6085
vn 0.2914 0.2705 0.9176
vn -0.3015 0.9045 0.3015
vn -0.5371 0.5842 0.6085
vn -0.2914 0.2705 0.9176
vn -0.0000 1.0000 -0.0000
vn -0.5773 0.5773 0.5774
vn 0.5773 0.5774 0.5774
vn -0.3015 0.3015 -0.9045
vn -0.7071 -0.7071 -0.0000
vn 0.7071 -0.7071 -0.0000
vn -0.5371 -0.5842 0.6085
vn -0.2914 -0.2704 0.9176
vn -0.3015 -0.9045 0.3015
vn 0.5371 -0.5842 0.6085
vn -0.3015 -0.9045 -0.3015
vn 0.3015 -0.9045 -0.3015
vn 0.3015 -0.9045 0.3015
vn 0.2914 -0.2705 0.9176
vn -0.0000 0.7071 0.7071
vn -0.5773 0.5774 0.5774
vn -0.0000 -0.0000 1.0000
vn -0.5773 -0.5773 0.5774
vn 0.5773 -0.5773 0.5774
vn 0.1482 -0.3336 -0.9310
vn 0.3015 0.3015 -0.9045
vn -0.1482 -0.3336 -0.9310
vn 0.2971 0.7173 -0.6302
vn 0.7173 -0.2971 -0.6302
vn 0.2971 -0.7173 -0.6303
vn -0.2971 -0.7173 -0.6303
vn -0.7173 -0.2971 -0.6303
vn -0.7173 0.2971 -0.6302
vn -0.2971 0.7173 -0.6302
vn 0.5773 0.5773 0.5774
vn 0.5774 0.5773 -0.5774
vn -0.5774 0.5774 -0.5774
vn -0.5773 -0.5774 -0.5774
vn -0.0000 -0.0000 -1.0000
vn 0.5773 -0.5773 -0.5774
vn 0.9212 -0.3432 0.1832
vn -0.9212 -0.3432 0.1832
vn -0.3583 -0.9120 0.1998
vn -0.3557 -0.8502 -0.3882
vn 0.3782 -0.8912 0.2504
vn -0.3508 -0.8469 0.3996
vn -0.3583 0.9120 0.1998
vn -0.9212 0.3432 0.1832
vn 0.3583 -0.9120 0.1998
vn 0.9212 0.3432 0.1832
vn 0.3583 0.9120 0.1998
vn 0.3782 0.8912 0.2504
vn -0.3782 0.8912 0.2504
vn -0.8907 0.3875 0.2378
vn 0.8907 0.3874 0.2378
vn 0.8907 -0.3875 0.2378
vn -0.3782 -0.8912 0.2504
vn -0.8907 -0.3875 0.2378
vn 0.7173 0.2971 -0.6303
vn 0.9217 0.2607 0.2873
vn 0.3558 -0.8846 0.3014
vn 0.6180 -0.5865 0.5235
vn 0.5774 -0.5774 -0.5773
vn 0.5774 0.5773 -0.5773
vn 0.6180 0.5865 0.5235
vn 0.5773 -0.5774 0.5774
vn -0.5774 -0.5773 -0.5774
vn -0.5774 -0.5774 0.5774
vn -0.8624 -0.0000 -0.5063
vn 0.8624 -0.0000 -0.5063
vn -0.5310 0.5310 -0.6603
vn -0.5310 -0.5310 -0.6603
vn -0.0000 -0.8075 -0.5899
vn 0.5310 0.5310 -0.6603
vn -0.0000 0.8075 -0.5899
vn 0.5310 -0.5310 -0.6603
vt -9.418932 -5.919229
vt -2.534612 -5.919229
vt -2.894999 -4.265546
vt -9.058544 -4.265546
vt -7.847485 -3.242576
vt -8.207872 -1.588894
vt -9.387173 -1.588894
vt -9.747560 -3.242576
vt -0.604946 -7.689649
vt 1.295128 -7.689649
vt 0.934741 -6.035966
vt -0.244559 -6.035966
vt 1.829279 -4.008778
vt 1.468892 -5.662461
vt 9.906964 -5.662461
vt 9.546576 -4.008778
vt -9.906964 0.626650
vt -1.468892 0.626650
vt -1.829279 2.280332
vt -9.546576 2.280332
vt -0.196460 0.989580
vt 1.703615 0.989580
vt 1.343228 2.643262
vt 0.163927 2.643262
vt -0.525743 5.967199
vt -1.214464 5.967199
vt -0.881091 2.617629
vt 9.994711 7.250934
vt 1.381145 7.250934
vt 2.802383 4.215978
vt 8.573473 4.215978
vt 3.722145 8.899762
vt 3.395855 8.573473
vt 3.395855 2.802383
vt 3.722145 2.476094
vt 8.231399 8.899762
vt 8.231399 2.476094
vt 8.557688 8.573473
vt 8.557688 2.802383
vt -7.571341 7.421850
vt -7.237968 10.771420
vt -7.926689 10.771420
vt -8.032784 7.421850
vt -0.472604 11.993890
vt -0.011161 11.993890
vt -0.117256 15.343460
vt -3.252067 8.965158
vt -1.230512 8.965158
vt -0.351575 15.996650
vt -8.701476 8.965158
vt -10.723030 8.965158
vt -11.601970 15.996650
vt -2.900492 15.996650
vt -9.053051 15.996650
vt -8.701476 7.558858
vt -3.252067 7.558858
vt 11.375860 8.965158
vt 11.375860 7.558858
vt 14.891600 7.558858
vt 12.254790 8.965158
vt 14.891600 8.965158
vt -3.252067 11.375860
vt -3.252067 14.891600
vt -8.701476 14.891600
vt -8.701476 11.375860
vt -12.254790 8.965158
vt -14.891600 8.965158
vt -14.891600 7.558858
vt 8.701476 8.965158
vt 10.723030 8.965158
vt 11.601970 15.996650
vt 3.252067 8.965158
vt 2.598587 14.844640
vt 1.230512 8.965158
vt 2.598587 15.547790
vt 1.895438 15.547790
vt 1.895438 14.844640
vt 0.351575 15.996650
vt -9.053051 15.243180
vt -11.953540 15.243180
vt -9.053051 14.891600
vt -0.351575 12.254790
vt -11.953540 11.903220
vt -0.000000 11.903220
vt -14.891600 15.829520
vt -14.891600 8.743301
vt -12.254790 8.743301
vt 9.341887 10.481710
vt 8.701476 11.375860
vt 3.252067 11.375860
vt 2.611657 10.481710
vt 2.124657 9.994711
vt 2.241289 11.375860
vt 1.230512 1.010778
vt 2.241289 -0.000000
vt 9.712254 0.000000
vt 2.611657 0.894145
vt 9.341887 0.894145
vt 10.723030 1.010778
vt 10.723030 10.365080
vt 9.828886 1.381145
vt 9.828886 9.994711
vt 9.712254 11.375860
vt -0.000000 15.996650
vt -0.000000 17.754530
vt -11.953540 15.996650
vt -11.953540 17.754530
vt -2.900492 17.754530
vt 12.254790 17.312170
vt 12.254790 10.225960
vt 14.891600 10.225960
vt 14.891600 17.312170
vt 11.953540 11.903220
vt 9.053051 15.243180
vt 2.900492 15.243180
vt 0.000000 15.996650
vt 11.953540 15.996650
vt 11.953540 17.754530
vt 0.000000 17.754530
vt -8.701476 12.254790
vt -10.723030 14.891600
vt 11.903220 17.754530
vt 11.903220 15.996650
vt 15.243180 15.996650
vt -9.546576 1.640218
vt -1.829279 1.640218
vt -2.180065 4.649730
vt 2.180065 3.235848
vt 1.829279 0.226335
vt 9.546576 0.226335
vt 7.212748 3.476510
vt 7.109203 0.446625
vt 8.288504 0.446625
vt 9.712254 8.965158
vt 2.241289 8.965158
vt 2.241289 7.207283
vt -1.191056 1.468892
vt -1.191056 9.906964
vt -2.534612 11.250520
vt -9.418932 11.250520
vt -2.534612 0.125336
vt -9.418932 0.125336
vt -10.762490 9.906964
vt -10.762490 1.468892
vt 0.831197 2.149735
vt -0.240894 2.149735
vt -0.244559 -0.880150
vt 1.239684 4.870661
vt 0.167592 4.870661
vt 0.163927 1.840777
vt -8.207872 0.514001
vt -8.211537 3.543886
vt -9.283628 3.543886
vt -9.387173 0.514001
vt -9.058544 -0.074763
vt -2.894999 -0.074763
vt -3.175160 2.943917
vt -2.241289 7.207283
vt -2.241289 8.965158
vt -0.240894 10.531270
vt 0.831197 10.531270
vt 1.176344 13.800170
vt -0.253111 13.800170
vt -9.283628 6.223894
vt -8.211537 6.223894
vt -8.199321 9.492798
vt -9.628776 9.492798
vt 0.167592 2.124685
vt 1.239684 2.124685
vt 1.584831 5.393589
vt 0.155376 5.393589
vt 3.175160 3.280355
vt 8.778383 3.280355
vt 9.712254 6.431981
vt 2.241289 6.431981
vt -2.180065 3.109586
vt -1.010778 6.162232
vt -10.365080 6.162232
vt 10.365080 10.808580
vt 1.010778 10.808580
vt 2.180065 7.755935
vt -8.778383 8.413028
vt -3.175160 8.413028
vt -2.241289 11.564650
vt -9.712254 11.564650
vt -0.253111 7.207283
vt 1.176344 7.207283
vt 1.176344 8.965158
vt -0.253111 8.965158
vt 0.155376 7.207283
vt 1.584831 7.207283
vt 1.584831 8.965158
vt 0.155376 8.965158
vt -1.010778 7.207283
vt -1.010778 8.965158
vt -10.365080 8.965158
vt -12.079010 0.599695
vt -11.551640 0.599695
vt -11.551640 1.668968
vt -11.551640 15.196220
vt -11.551640 15.547790
vt -12.079010 15.547790
vt -1.895438 15.547790
vt -1.895438 15.020430
vt -0.840713 15.196220
vt -0.840713 15.547790
vt -12.079010 15.020430
vt -12.254790 15.547790
vt -11.551640 14.844640
vt -11.551640 15.020430
vt 1.895438 12.079010
vt 0.840713 12.079010
vt 0.840713 11.551640
vt 11.551640 15.547790
vt 11.551640 14.844640
vt 12.254790 14.844640
vt 12.254790 15.547790
vt 1.895438 15.020430
vt 0.840713 15.196220
vt 2.534612 0.065943
vt 9.418932 0.065943
vt 9.058544 1.719626
vt 2.894999 1.719626
vt 7.109203 -1.803810
vt 6.748816 -3.457493
vt 8.648891 -3.457493
vt 8.288504 -1.803810
vt -8.231399 4.152435
vt -3.722145 4.152435
vt -2.611657 7.330103
vt -9.341887 7.330103
vt -0.419648 2.617629
vt 3.722145 9.815711
vt 8.231399 9.815711
vt 9.341887 12.993380
vt 2.611657 12.993380
vt 8.569688 10.539240
vt 8.463593 7.189672
vt 8.925035 7.189672
vt 9.258409 10.539240
vt -0.805977 15.343460
vt -2.802383 9.222745
vt -1.381145 12.257700
vt -9.994711 12.257700
vt -8.573473 9.222745
vt -11.375860 7.558858
vt -11.375860 8.965158
vt -0.351575 14.891600
vt 0.000000 15.243180
vt -2.900492 15.243180
vt -2.900492 14.891600
vt -11.601970 14.891600
vt -11.601970 12.254790
vt -12.254790 15.829520
vt -1.230512 12.254790
vt -1.230512 14.891600
vt -3.252067 12.254790
vt -11.903220 15.996650
vt -11.903220 17.754530
vt -15.243180 17.754530
vt -15.243180 15.996650
vt 8.701476 12.254790
vt 3.252067 12.254790
vt 2.124657 1.381145
vt 1.230512 10.365080
vt -9.053051 17.754530
vt 0.000000 11.903220
vt 11.953540 15.243180
vt -10.723030 12.254790
vt 15.243180 17.754530
vt -9.195790 4.649730
vt 9.195790 3.235848
vt 8.284839 3.476510
vt 9.712254 7.207283
vt 0.934741 -0.880150
vt 1.343228 1.840777
vt 2.894999 1.532852
vt 9.058544 1.532852
vt 8.778383 4.551533
vt 3.175160 4.551533
vt -8.778383 2.943917
vt -9.712254 7.207283
vt -9.712254 8.965158
vt 6.867600 8.965158
vt 6.867600 7.207283
vt 8.297056 7.207283
vt 8.297056 8.965158
vt -9.195790 3.109586
vt 9.195790 7.755935
vt 8.297056 9.700963
vt 6.867600 9.700963
vt 7.212748 6.432060
vt 8.284839 6.432060
vt -10.365080 7.207283
vt -8.199321 7.207283
vt -8.199321 8.965158
vt -9.628776 8.965158
vt -9.628776 7.207283
vt 1.010778 8.965158
vt 1.010778 7.207283
vt 10.365080 7.207283
vt 10.365080 8.965158
vt -12.079010 1.668968
vt -12.079010 15.196220
vt -1.895438 11.551640
vt -1.895438 12.254790
vt -2.598587 12.254790
vt -2.598587 11.551640
vt -12.254790 14.844640
vt 2.598587 11.551640
vt 2.598587 12.254790
vt 1.895438 12.254790
vt 0.840713 15.547790
vt 9.587564 -3.365115
vt 9.587564 3.365115
vt 9.100565 3.852114
vt 9.100565 -3.852114
vt 0.486999 -3.852114
vt 0.486999 3.852114
vt 0.000000 -3.365115
vt 0.000000 3.365115
vt -9.012311 2.961301
vt -9.012311 -2.961301
vt -8.583752 -3.389861
vt -8.583752 3.389861
vt -1.003813 -3.389861
vt -1.003813 3.389861
vt -0.575254 -2.961301
vt -0.575254 2.961301
vt -8.583752 -1.037143
vt -9.100565 -1.950204
vt -0.486999 -1.950204
vt -1.003813 -1.037143
vt 0.486999 -1.950204
vt 9.100565 -1.950204
vt 8.583752 -1.037143
vt 1.003813 -1.037143
vt -2.500722 -0.522714
vt -3.106797 -0.522714
vt -3.068217 -1.571183
vt -2.379496 -1.571183
vt -4.278710 -4.999180
vt -4.399936 -6.047649
vt -3.711215 -6.047649
vt -3.672636 -4.999180
vt -3.365115 -5.655829
vt 3.365115 -5.655829
vt 2.961301 -4.680678
vt -2.961301 -4.680678
vt 3.068217 -1.571183
vt 3.106797 -0.522714
vt 2.500722 -0.522714
vt 2.379496 -1.571183
vt -2.961301 0.975150
vt -3.365115 0.000000
vt 3.365115 0.000000
vt 2.961301 0.975150
vt 3.711215 -6.047649
vt 4.399936 -6.047649
vt 4.278710 -4.999180
vt 3.672636 -4.999180
s 1
usemtl carpetWhite.004
f 2/1/1 1/2/2 3/3/3
f 3/3/3 4/4/4 2/1/1
f 6/5/5 5/6/6 3/7/3
f 3/7/3 1/8/2 6/5/5
f 7/9/7 2/10/1 4/11/4
f 4/11/4 8/12/8 7/9/7
f 14/13/9 13/14/10 7/15/7
f 7/15/7 8/16/8 14/13/9
f 6/17/5 15/18/11 16/19/12
f 16/19/12 5/20/6 6/17/5
f 15/21/11 10/22/13 12/23/14
f 12/23/14 16/24/12 15/21/11
f 22/25/15 19/26/16 17/27/17
f 23/28/18 22/29/15 21/30/19
f 21/30/19 24/31/20 23/28/18
f 25/32/21 24/33/20 21/34/19
f 21/34/19 17/35/17 25/32/21
f 17/35/17 26/36/22 25/32/21
f 17/35/17 18/37/23 26/36/22
f 18/37/23 27/38/24 26/36/22
f 18/37/23 28/39/25 27/38/24
f 18/40/23 20/41/26 29/42/27
f 29/42/27 28/43/25 18/40/23
f 26/44/22 27/45/24 32/46/28
f 34/47/29 33/48/30 35/49/31
f 35/49/31 36/50/32 34/47/29
f 35/49/31 37/51/33 36/50/32
f 35/49/31 38/52/34 37/51/33
s 0
f 35/49/35 39/53/35 38/52/35
f 39/53/35 40/54/35 38/52/35
s 1
f 34/47/29 36/50/32 41/55/36
f 41/55/36 42/56/37 34/47/29
f 44/57/38 43/58/32 41/59/36
f 41/59/36 45/60/39 44/57/38
f 41/59/36 36/61/32 45/60/39
f 46/62/29 42/63/37 41/64/36
f 41/64/36 43/65/32 46/62/29
f 48/66/40 34/67/29 42/68/37
f 45/69/39 49/70/41 50/71/42
f 50/71/42 48/72/40 45/69/39
f 50/71/42 52/73/43 51/74/44
f 50/71/42 53/75/45 52/73/43
f 50/71/42 54/76/46 53/75/45
f 51/74/44 52/73/43 55/77/47
f 55/77/47 56/78/48 51/74/44
f 55/77/47 54/76/46 56/78/48
f 54/76/46 50/71/42 56/78/48
f 60/79/49 61/80/50 40/81/51
f 56/82/48 62/83/52 57/84/53
f 35/85/31 33/86/30 51/87/44
f 30/88/54 44/89/38 47/90/55
f 31/91/56 30/88/54 47/90/55
f 23/92/18 31/91/56 65/93/57
f 66/94/58 23/92/18 65/93/57
f 67/95/59 68/96/60 19/97/16
f 68/96/60 20/98/26 19/97/16
f 69/99/61 70/100/62 29/101/27
f 32/102/28 70/100/62 72/103/63
f 32/102/28 29/101/27 70/100/62
f 59/53/49 58/104/64 64/105/65
f 64/105/65 61/106/50 60/54/49
f 64/105/65 73/107/66 61/106/50
s 0
f 64/105/35 74/108/35 73/107/35
s 1
f 50/109/42 49/110/41 37/111/33
f 37/111/33 38/112/34 50/109/42
f 76/113/67 75/114/68 74/115/68
f 57/116/53 62/117/52 76/118/67
f 76/118/67 63/119/69 57/116/53
f 45/120/39 36/64/32 37/121/33
f 76/122/67 62/123/52 61/124/50
f 5/125/6 16/126/12 77/127/70
f 79/128/71 14/129/9 8/130/8
f 81/131/72 11/132/73 14/133/9
f 68/134/60 67/135/59 83/136/74
f 15/137/11 6/138/5 1/139/2
f 1/139/2 2/140/1 10/141/13
f 2/140/1 9/142/75 10/141/13
f 2/140/1 7/143/7 9/142/75
f 7/143/7 13/144/10 9/142/75
f 84/145/76 80/146/77 8/147/8
f 85/148/78 77/149/70 16/150/12
f 5/151/6 78/152/79 86/153/80
f 86/153/80 3/154/3 5/151/6
f 4/155/4 3/156/3 86/157/80
f 88/158/81 65/159/57 46/56/29
f 65/159/57 47/47/55 46/56/29
f 80/160/77 84/161/76 87/162/82
f 87/162/82 90/163/83 80/160/77
f 86/164/80 78/165/79 91/166/84
f 91/166/84 88/167/81 86/164/80
f 77/168/70 85/169/78 83/170/74
f 83/170/74 92/171/85 77/168/70
f 85/172/78 81/173/72 82/174/86
f 82/174/86 83/175/74 85/172/78
f 77/176/70 92/177/85 91/178/84
f 90/179/83 89/180/87 79/181/71
f 84/182/76 86/183/80 88/184/81
f 88/184/81 87/185/82 84/182/76
f 90/186/83 87/187/82 72/188/63
f 72/188/63 70/189/62 90/186/83
f 92/190/85 83/191/74 67/192/59
f 67/192/59 66/193/58 92/190/85
f 92/194/85 66/195/58 71/196/88
f 10/220/13 9/221/75 11/222/73
f 11/222/73 12/223/14 10/220/13
f 11/224/73 9/225/75 13/226/10
f 13/226/10 14/227/9 11/224/73
f 18/228/23 17/229/17 19/230/16
f 19/230/16 20/231/26 18/228/23
f 17/27/17 21/232/19 22/25/15
f 25/233/21 26/234/22 30/235/54
f 30/235/54 31/236/56 25/233/21
f 23/237/18 24/238/20 25/239/21
f 25/239/21 31/240/56 23/237/18
f 32/46/28 30/241/54 26/44/22
f 28/242/25 29/243/27 32/244/28
f 32/244/28 27/245/24 28/242/25
f 46/246/29 47/247/55 48/66/40
f 48/66/40 42/68/37 46/246/29
f 50/71/42 51/74/44 48/72/40
f 35/248/31 57/84/53 58/249/64
f 58/249/64 59/250/49 35/248/31
f 59/250/49 39/251/51 35/248/31
f 59/250/49 60/79/49 39/251/51
f 60/79/49 40/81/51 39/251/51
f 61/80/50 38/252/34 40/81/51
f 61/80/50 50/253/42 38/252/34
f 57/84/53 35/248/31 56/82/48
f 56/82/48 50/253/42 62/83/52
f 50/253/42 61/80/50 62/83/52
f 51/87/44 56/254/48 35/85/31
f 51/255/44 33/256/30 34/63/29
f 34/63/29 48/257/40 51/255/44
f 57/258/53 63/259/69 64/260/65
f 64/260/65 58/261/64 57/258/53
f 45/262/39 48/263/40 47/90/55
f 47/90/55 44/89/38 45/262/39
f 31/91/56 47/90/55 65/93/57
f 22/264/15 23/92/18 66/94/58
f 66/94/58 67/95/59 22/264/15
f 67/95/59 19/97/16 22/264/15
f 68/96/60 29/101/27 20/98/26
f 68/96/60 69/99/61 29/101/27
f 65/93/57 71/265/88 66/94/58
f 30/88/54 72/103/63 44/89/38
f 30/88/54 32/102/28 72/103/63
f 64/105/65 60/54/49 59/53/49
s 0
f 74/108/35 75/266/35 73/107/35
s 1
f 74/115/68 64/249/65 63/267/69
f 63/267/69 76/113/67 74/115/68
f 76/113/67 73/268/66 75/114/68
f 37/121/33 49/269/41 45/120/39
f 61/124/50 73/270/66 76/122/67
f 77/127/70 78/271/79 5/125/6
f 8/130/8 80/272/77 79/128/71
f 14/133/9 79/273/71 81/131/72
f 83/136/74 82/274/86 68/134/60
f 1/139/2 10/141/13 15/137/11
f 8/147/8 4/275/4 84/145/76
f 16/150/12 12/276/14 85/148/78
f 12/277/14 11/278/73 81/279/72
f 81/279/72 85/280/78 12/277/14
f 86/157/80 84/281/76 4/155/4
f 46/56/29 87/282/82 88/158/81
f 87/282/82 46/56/29 43/55/32
f 43/55/32 72/283/63 87/282/82
f 43/55/32 44/50/38 72/283/63
f 68/284/60 82/285/86 89/286/87
f 89/286/87 69/287/61 68/284/60
f 91/178/84 78/288/79 77/176/70
f 79/181/71 80/289/77 90/179/83
f 89/290/87 82/291/86 81/292/72
f 81/292/72 79/293/71 89/290/87
f 71/196/88 91/294/84 92/194/85
f 91/295/84 71/296/88 65/297/57
f 65/297/57 88/298/81 91/295/84
f 69/299/61 89/300/87 90/301/83
f 90/301/83 70/302/62 69/299/61
f 104/314/51 103/315/51 105/316/51
f 105/316/51 106/317/51 104/314/51
f 105/316/51 107/318/51 106/317/51
f 105/316/51 108/319/51 107/318/51
f 108/319/51 109/320/51 107/318/51
f 108/319/51 110/321/51 109/320/51
f 112/322/68 111/323/68 113/324/68
f 113/324/68 114/325/68 112/322/68
f 113/324/68 115/326/68 114/325/68
f 115/326/68 116/327/68 114/325/68
f 115/326/68 117/328/68 116/327/68
f 117/328/68 118/329/68 116/327/68
f 113/330/98 106/331/98 107/332/98
f 107/332/98 115/333/98 113/330/98
f 108/334/99 105/335/99 114/336/99
f 114/336/99 116/337/99 108/334/99
f 117/338/100 115/339/100 107/340/100
f 107/340/100 109/341/100 117/338/100
f 111/342/101 104/343/101 106/344/101
f 106/344/101 113/345/101 111/342/101
f 103/346/102 104/347/102 111/348/102
f 111/348/102 112/349/102 103/346/102
f 108/350/103 116/351/103 118/352/103
f 118/352/103 110/353/103 108/350/103
f 117/354/104 109/355/104 110/356/104
f 110/356/104 118/357/104 117/354/104
f 105/358/105 103/359/105 112/360/105
f 112/360/105 114/361/105 105/358/105
usemtl metalLight.002
f 95/197/89 96/198/90 94/199/91
f 94/200/91 97/201/92 98/202/93
f 101/203/55 95/204/89 93/205/94
f 93/205/94 98/206/93 101/203/55
f 95/207/89 101/202/55 54/208/46
f 99/209/95 96/210/90 95/207/89
f 101/211/55 98/212/93 97/213/92
f 102/214/96 100/215/97 52/216/43
f 52/216/43 53/217/45 102/214/96
f 99/77/95 100/73/97 102/75/96
f 102/75/96 96/218/90 99/77/95
f 102/75/96 94/219/91 96/218/90
f 94/199/91 93/303/94 95/197/89
f 98/202/93 93/304/94 94/200/91
f 99/305/95 55/306/47 52/307/43
f 52/307/43 100/308/97 99/305/95
f 95/207/89 54/208/46 55/309/47
f 95/207/89 55/309/47 99/209/95
f 97/213/92 102/310/96 101/211/55
f 102/310/96 53/311/45 101/211/55
f 54/312/46 101/211/55 53/311/45
f 102/75/96 97/313/92 94/219/91
