# Blender 4.3.2
# www.blender.org
mtllib bathtub.mtl
o bathtub
v -1.013828 0.280000 -0.090000
v -1.007419 0.328678 -0.090000
v -1.091268 0.280000 -0.350000
v -1.083728 0.337268 -0.350000
v -0.161370 0.374039 -0.090000
v -0.088376 0.390634 -0.350000
v -0.191259 0.412991 -0.090000
v -0.123540 0.436460 -0.350000
v -1.026460 0.123540 -0.350000
v -0.958741 0.147009 -0.090000
v -1.061624 0.169366 -0.350000
v -0.988630 0.185961 -0.090000
v -1.190000 0.030000 -0.279625
v -1.190000 0.030000 -0.350000
v -1.190000 0.530000 -0.279625
v -1.190000 0.530000 -0.350000
v -1.160000 0.000000 -0.279625
v -0.030000 0.000000 -0.279625
v -1.160000 0.000000 -0.350000
v -0.030000 0.000000 -0.350000
v -0.136172 0.280000 -0.090000
v -0.142581 0.328678 -0.090000
v -0.142581 0.231322 -0.090000
v -0.161370 0.185961 -0.090000
v -0.191259 0.147009 -0.090000
v -0.230211 0.117120 -0.090000
v -0.230211 0.442880 -0.090000
v -0.275572 0.098331 -0.090000
v -0.275572 0.461669 -0.090000
v -0.294250 0.280000 -0.090000
v -0.295272 0.272235 -0.090000
v -0.324250 0.091922 -0.090000
v -0.298269 0.265000 -0.090000
v -0.303037 0.258787 -0.090000
v -0.309250 0.254019 -0.090000
v -0.316485 0.251022 -0.090000
v -0.324250 0.250000 -0.090000
v -0.825750 0.091922 -0.090000
v -0.332015 0.251022 -0.090000
v -0.339250 0.254019 -0.090000
v -0.345463 0.258787 -0.090000
v -0.350231 0.265000 -0.090000
v -0.353228 0.272235 -0.090000
v -0.354250 0.280000 -0.090000
v -0.295272 0.287765 -0.090000
v -0.825750 0.468078 -0.090000
v -0.353228 0.287765 -0.090000
v -0.350231 0.295000 -0.090000
v -0.345463 0.301213 -0.090000
v -0.339250 0.305981 -0.090000
v -0.332015 0.308978 -0.090000
v -0.324250 0.468078 -0.090000
v -0.298269 0.295000 -0.090000
v -0.303037 0.301213 -0.090000
v -0.309250 0.305981 -0.090000
v -0.316485 0.308978 -0.090000
v -0.324250 0.310000 -0.090000
v -0.874428 0.098331 -0.090000
v -0.874428 0.461669 -0.090000
v -0.919789 0.117120 -0.090000
v -0.919789 0.442880 -0.090000
v -0.958741 0.412991 -0.090000
v -0.988630 0.374039 -0.090000
v -1.007419 0.231322 -0.090000
v -0.222732 0.066272 -0.350000
v -0.280000 0.058732 -0.350000
v -0.927268 0.066272 -0.350000
v -0.980634 0.088376 -0.350000
v -0.870000 0.058732 -0.350000
v -1.083728 0.222732 -0.350000
v -1.026460 0.436460 -0.350000
v -0.980634 0.471624 -0.350000
v -0.169366 0.471624 -0.350000
v -0.870000 0.501268 -0.350000
v -0.280000 0.501268 -0.350000
v -0.222732 0.493728 -0.350000
v -1.061624 0.390634 -0.350000
v -0.123540 0.123540 -0.350000
v -0.088376 0.169366 -0.350000
v -0.066272 0.222732 -0.350000
v 0.000000 0.030000 -0.350000
v 0.000000 0.030000 -0.279625
v 0.000000 0.530000 -0.350000
v 0.000000 0.530000 -0.279625
v -1.121268 0.265000 -0.390000
v -1.151268 0.265000 -0.390000
v -1.121268 0.295000 -0.390000
v -1.151268 0.295000 -0.390000
v -0.169366 0.088376 -0.350000
v -0.927268 0.493728 -0.350000
v -0.058732 0.280000 -0.350000
v -0.066272 0.337268 -0.350000
v -0.030000 0.560000 -0.279625
v -1.160000 0.560000 -0.279625
v -0.030000 0.560000 -0.350000
v -1.160000 0.560000 -0.350000
v -0.000257 0.026084 -0.350000
v -0.000257 0.533916 -0.350000
v -0.001022 0.022235 -0.350000
v -0.001022 0.537764 -0.350000
v -0.002284 0.018520 -0.350000
v -0.002284 0.541480 -0.350000
v -0.004019 0.015000 -0.350000
v -0.004019 0.545000 -0.350000
v -0.006199 0.011737 -0.350000
v -0.006199 0.548263 -0.350000
v -0.008787 0.008787 -0.350000
v -0.008787 0.551213 -0.350000
v -0.011737 0.006199 -0.350000
v -0.011737 0.553801 -0.350000
v -0.015000 0.004019 -0.350000
v -0.015000 0.555981 -0.350000
v -0.018520 0.002284 -0.350000
v -0.018520 0.557716 -0.350000
v -0.022235 0.001022 -0.350000
v -0.022235 0.558978 -0.350000
v -0.026084 0.000257 -0.350000
v -0.026084 0.559743 -0.350000
v -1.121268 0.265000 -0.350000
v -1.121268 0.295000 -0.350000
v -1.151268 0.265000 -0.350000
v -1.151268 0.295000 -0.350000
v -1.163916 0.000257 -0.350000
v -1.163916 0.559743 -0.350000
v -1.167765 0.001022 -0.350000
v -1.167765 0.558978 -0.350000
v -1.171481 0.002284 -0.350000
v -1.171481 0.557716 -0.350000
v -1.175000 0.004019 -0.350000
v -1.175000 0.555981 -0.350000
v -1.178263 0.006199 -0.350000
v -1.178263 0.553801 -0.350000
v -1.181213 0.008787 -0.350000
v -1.181213 0.551213 -0.350000
v -1.183801 0.011737 -0.350000
v -1.183801 0.548263 -0.350000
v -1.185981 0.015000 -0.350000
v -1.185981 0.545000 -0.350000
v -1.187716 0.018520 -0.350000
v -1.187716 0.541480 -0.350000
v -1.188978 0.022235 -0.350000
v -1.188978 0.537764 -0.350000
v -1.189743 0.026084 -0.350000
v -1.189743 0.533916 -0.350000
v -0.026084 0.000257 -0.279625
v -0.022235 0.001022 -0.279625
v -0.018520 0.002284 -0.279625
v -0.015000 0.004019 -0.279625
v -0.011737 0.006199 -0.279625
v -0.008787 0.008787 -0.279625
v -0.006199 0.011737 -0.279625
v -0.004019 0.015000 -0.279625
v -0.002284 0.018520 -0.279625
v -0.001022 0.022235 -0.279625
v -0.000257 0.026084 -0.279625
v -0.000257 0.533916 -0.279625
v -0.001022 0.537764 -0.279625
v -0.002284 0.541480 -0.279625
v -0.004019 0.545000 -0.279625
v -0.006199 0.548263 -0.279625
v -0.008787 0.551213 -0.279625
v -0.011737 0.553801 -0.279625
v -0.015000 0.555981 -0.279625
v -0.018520 0.557716 -0.279625
v -0.022235 0.558978 -0.279625
v -0.026084 0.559743 -0.279625
v -1.189743 0.026084 -0.279625
v -1.188978 0.022235 -0.279625
v -1.187716 0.018520 -0.279625
v -1.185981 0.015000 -0.279625
v -1.183801 0.011737 -0.279625
v -1.181213 0.008787 -0.279625
v -1.178263 0.006199 -0.279625
v -1.175000 0.004019 -0.279625
v -1.171481 0.002284 -0.279625
v -1.167765 0.001022 -0.279625
v -1.163916 0.000257 -0.279625
v -1.163916 0.559743 -0.279625
v -1.167765 0.558978 -0.279625
v -1.171481 0.557716 -0.279625
v -1.175000 0.555981 -0.279625
v -1.178263 0.553801 -0.279625
v -1.181213 0.551213 -0.279625
v -1.183801 0.548263 -0.279625
v -1.185981 0.545000 -0.279625
v -1.187716 0.541480 -0.279625
v -1.188978 0.537764 -0.279625
v -1.189743 0.533916 -0.279625
v 0.000000 0.530000 0.000000
v -0.000000 0.030000 0.000000
v -0.000257 0.533916 0.000000
v -0.000257 0.026084 0.000000
v -0.001022 0.537764 0.000000
v -0.001022 0.022235 0.000000
v -0.002284 0.541480 0.000000
v -0.002284 0.018520 0.000000
v -0.004019 0.545000 0.000000
v -0.004019 0.015000 0.000000
v -0.006199 0.548263 0.000000
v -0.006199 0.011737 0.000000
v -0.008787 0.551213 0.000000
v -0.008787 0.008787 0.000000
v -0.011737 0.553801 0.000000
v -0.011737 0.006199 0.000000
v -0.015000 0.555981 0.000000
v -0.015000 0.004019 0.000000
v -0.018520 0.557716 0.000000
v -0.018520 0.002284 0.000000
v -0.022235 0.558978 0.000000
v -0.022235 0.001022 0.000000
v -0.026084 0.559743 0.000000
v -0.026084 0.000257 0.000000
v -0.030000 0.560000 0.000000
v -0.030000 0.000000 0.000000
v -1.160000 0.560000 0.000000
v -1.160000 0.000000 0.000000
v -1.163916 0.559743 0.000000
v -1.163916 0.000257 0.000000
v -1.167765 0.558978 0.000000
v -1.167765 0.001022 0.000000
v -1.171481 0.557716 0.000000
v -1.171481 0.002284 0.000000
v -1.175000 0.555981 0.000000
v -1.175000 0.004019 0.000000
v -1.178263 0.006199 0.000000
v -1.178263 0.553801 0.000000
v -1.181213 0.008787 0.000000
v -1.181213 0.551213 0.000000
v -1.183801 0.011737 0.000000
v -1.183801 0.548263 0.000000
v -1.185981 0.545000 0.000000
v -1.185981 0.015000 0.000000
v -1.187716 0.541480 0.000000
v -1.187716 0.018520 0.000000
v -1.188978 0.537764 0.000000
v -1.188978 0.022235 0.000000
v -1.189743 0.026084 0.000000
v -1.189743 0.533916 0.000000
v -1.190000 0.030000 0.000000
v -1.190000 0.530000 0.000000
v -1.151268 0.235000 -0.370000
v -1.121268 0.235000 -0.370000
v -1.151268 0.235000 -0.390000
v -1.121268 0.235000 -0.390000
v -1.057352 0.295000 -0.419743
v -1.061268 0.295000 -0.420000
v -1.057352 0.265000 -0.419743
v -1.061268 0.265000 -0.420000
v -1.053503 0.295000 -0.418978
v -1.053503 0.265000 -0.418978
v -1.031268 0.265000 -0.390000
v -1.031268 0.295000 -0.390000
v -1.031525 0.265000 -0.393916
v -1.031525 0.295000 -0.393916
v -1.037467 0.265000 -0.408263
v -1.035287 0.265000 -0.405000
v -1.037467 0.295000 -0.408263
v -1.035287 0.295000 -0.405000
v -1.121268 0.325000 -0.370000
v -1.151268 0.325000 -0.370000
v -1.121268 0.325000 -0.390000
v -1.151268 0.325000 -0.390000
v -1.033552 0.265000 -0.401480
v -1.033552 0.295000 -0.401480
v -1.049787 0.295000 -0.417716
v -1.049787 0.265000 -0.417716
v -1.121268 0.295000 -0.420000
v -1.125184 0.295000 -0.419743
v -1.121268 0.265000 -0.420000
v -1.125184 0.265000 -0.419743
v -1.121268 0.265000 -0.370000
v -1.151268 0.265000 -0.370000
v -1.043005 0.295000 -0.413801
v -1.046268 0.295000 -0.415981
v -1.043005 0.265000 -0.413801
v -1.046268 0.265000 -0.415981
v -1.151011 0.265000 -0.393916
v -1.151011 0.295000 -0.393916
v -1.132748 0.295000 -0.417716
v -1.136268 0.295000 -0.415981
v -1.132748 0.265000 -0.417716
v -1.136268 0.265000 -0.415981
v -1.129032 0.295000 -0.418978
v -1.129032 0.265000 -0.418978
v -1.151268 0.295000 -0.370000
v -1.147249 0.265000 -0.405000
v -1.145068 0.265000 -0.408263
v -1.147249 0.295000 -0.405000
v -1.145068 0.295000 -0.408263
v -1.121268 0.295000 -0.370000
v -1.150246 0.265000 -0.397765
v -1.032290 0.265000 -0.397765
v -1.148984 0.265000 -0.401480
v -1.142481 0.265000 -0.411213
v -1.040055 0.265000 -0.411213
v -1.139531 0.265000 -0.413801
v -1.040055 0.295000 -0.411213
v -1.139531 0.295000 -0.413801
v -1.142481 0.295000 -0.411213
v -1.148984 0.295000 -0.401480
v -1.032290 0.295000 -0.397765
v -1.150246 0.295000 -0.397765
vn 0.5686 0.0678 -0.8198
vn 0.5721 -0.2241 -0.7889
vn 0.5784 -0.1211 -0.8067
vn 0.4187 0.4380 -0.7955
vn 0.3656 0.4645 -0.8066
vn 0.5732 0.2921 -0.7656
vn 0.5765 0.2807 -0.7673
vn -0.7292 -0.0239 -0.6839
vn -1.0000 0.0002 -0.0000
vn -1.0000 -0.0000 -0.0046
vn -0.7141 -0.0074 -0.7000
vn -0.0003 -1.0000 -0.0000
vn -0.0327 -0.9989 -0.0330
vn -0.0150 -0.7144 -0.6996
vn 0.0236 -0.7210 -0.6925
vn -0.6542 0.1444 -0.7424
vn -0.5109 0.3538 -0.7834
vn -0.6020 -0.2157 -0.7688
vn -0.4155 0.4946 -0.7634
vn -0.4176 -0.5007 -0.7582
vn -0.5437 -0.3686 -0.7540
vn -0.2859 0.6050 -0.7431
vn -0.2857 -0.5994 -0.7477
vn -0.1498 0.6772 -0.7204
vn -0.0000 -0.0000 -1.0000
vn -0.0318 0.6788 -0.7336
vn 0.0519 0.6729 -0.7379
vn 0.0500 -0.6763 -0.7349
vn -0.0284 -0.6721 -0.7399
vn -0.1657 -0.6805 -0.7138
vn 0.1594 0.6861 -0.7098
vn 0.2044 -0.6681 -0.7154
vn 0.3187 0.6106 -0.7250
vn 0.3648 -0.5798 -0.7285
vn 0.4956 -0.4562 -0.7391
vn 0.5906 -0.3065 -0.7465
vn 0.6020 0.2157 -0.7688
vn -0.1478 0.6632 -0.7337
vn 0.1816 0.6551 -0.7334
vn 0.3539 0.5634 -0.7466
vn 0.0008 0.6428 -0.7660
vn -0.0618 0.6641 -0.7451
vn 0.4295 -0.4873 -0.7603
vn 0.2826 -0.5930 -0.7540
vn 0.0584 -0.6718 -0.7384
vn -0.0558 -0.6653 -0.7445
vn -0.5759 0.2710 -0.7713
vn -0.4109 0.4925 -0.7672
vn -0.5864 0.2129 -0.7815
vn 0.7292 0.0239 -0.6839
vn 1.0000 -0.0003 -0.0000
vn 1.0000 -0.0000 -0.0046
vn -0.0000 -0.0000 1.0000
vn 0.5084 -0.3666 -0.7792
vn -0.2825 0.5933 -0.7538
vn 0.1284 -0.6603 -0.7400
vn -0.5296 -0.2323 -0.8158
vn -0.6297 0.0185 -0.7766
vn -0.2028 -0.6476 -0.7345
vn 0.5294 0.2331 -0.8157
vn 0.5766 0.0286 -0.8165
vn -0.4560 -0.3660 -0.8112
vn 0.7121 -0.0540 -0.7000
vn 0.7172 -0.0553 -0.6947
vn 0.7014 -0.1476 -0.6973
vn 0.7172 0.0553 -0.6947
vn 0.6735 -0.2371 -0.7001
vn 0.6800 0.2381 -0.6934
vn 0.7013 0.1476 -0.6974
vn 0.6026 -0.3950 -0.6934
vn 0.5834 -0.4014 -0.7060
vn 0.6340 0.3222 -0.7030
vn 0.4860 -0.5320 -0.6934
vn 0.4519 -0.5368 -0.7125
vn 0.5243 0.4671 -0.7120
vn 0.3727 -0.5905 -0.7159
vn 0.3968 0.6014 -0.6935
vn 0.4515 0.5368 -0.7128
vn 0.2868 -0.6334 -0.7187
vn 0.1944 -0.6647 -0.7214
vn 0.2283 0.6834 -0.6934
vn 0.2861 0.6334 -0.7190
vn 0.0987 -0.6837 -0.7230
vn 0.0983 0.6837 -0.7231
vn 0.3015 -0.3015 -0.9045
vn 0.3015 0.3015 -0.9045
vn -0.3015 -0.3015 -0.9045
vn -0.0232 0.7086 -0.7053
vn 0.0189 0.7073 -0.7066
vn -0.3803 -0.3543 -0.8543
vn -0.3015 0.3015 -0.9045
vn -0.0978 -0.6837 -0.7231
vn -0.0505 0.7187 -0.6934
vn -0.1940 -0.6647 -0.7215
vn -0.1440 0.7060 -0.6934
vn -0.2861 -0.6334 -0.7190
vn -0.3724 -0.5904 -0.7160
vn -0.2865 0.6333 -0.7189
vn -0.4515 -0.5368 -0.7128
vn -0.3727 0.5905 -0.7158
vn -0.4042 0.5965 -0.6934
vn -0.5240 -0.4672 -0.7121
vn -0.4860 0.5320 -0.6934
vn -0.5832 -0.4014 -0.7062
vn -0.6435 -0.3242 -0.6934
vn -0.6734 -0.2371 -0.7002
vn -0.6340 0.3221 -0.7030
vn -0.6493 0.3124 -0.6935
vn -0.7014 -0.1475 -0.6974
vn -0.6847 0.2245 -0.6934
vn -0.7171 -0.0553 -0.6948
vn 0.0645 -0.9979 -0.0000
vn 0.1942 -0.9810 -0.0000
vn 0.3784 -0.9233 -0.0662
vn 0.4415 -0.8973 -0.0000
vn 0.6586 -0.7525 -0.0000
vn 0.6074 -0.7916 -0.0663
vn 0.8310 -0.5563 -0.0000
vn 0.7938 -0.6045 -0.0662
vn 0.8965 -0.4431 -0.0000
vn 0.9806 -0.1960 -0.0000
vn 0.9648 -0.2547 -0.0662
vn 0.9979 0.0645 -0.0000
vn 0.9810 0.1942 -0.0000
vn 0.8973 0.4415 -0.0000
vn 0.9204 0.3852 -0.0662
vn 0.5964 0.4536 -0.6622
vn 0.7524 0.6587 -0.0000
vn 0.7894 0.6103 -0.0662
vn 0.5563 0.8310 -0.0000
vn 0.6074 0.7916 -0.0663
vn 0.4431 0.8965 -0.0000
vn 0.3223 0.9467 -0.0000
vn 0.0345 0.9989 -0.0329
vn -0.9979 -0.0646 -0.0000
vn -0.9810 -0.1941 -0.0000
vn -0.9472 -0.3207 -0.0000
vn -0.8973 -0.4414 -0.0000
vn -0.8320 -0.5548 -0.0000
vn -0.7525 -0.6586 -0.0000
vn -0.6601 -0.7512 -0.0000
vn -0.5021 -0.8623 -0.0662
vn -0.4431 -0.8964 -0.0000
vn -0.1960 -0.9806 -0.0000
vn -0.2582 -0.9638 -0.0663
vn -0.0645 0.9979 -0.0000
vn -0.0327 0.9989 -0.0331
vn -0.3205 0.9472 -0.0000
vn -0.2582 0.9638 -0.0663
vn -0.4416 0.8972 -0.0000
vn -0.5548 0.8320 -0.0000
vn -0.7029 0.7082 -0.0661
vn -0.5945 0.4562 -0.6621
vn -0.7512 0.6601 -0.0000
vn -0.8310 0.5563 -0.0000
vn -0.7412 0.0976 -0.6641
vn -0.9806 0.1958 -0.0000
vn -0.9647 0.2547 -0.0663
vn 0.7141 -0.0007 0.7000
vn 0.7121 0.0540 0.7000
vn 0.7172 0.0553 0.6947
vn 0.7184 -0.0553 0.6934
vn 0.7014 0.1476 0.6973
vn 0.7052 -0.1480 0.6934
vn 0.6736 0.2371 0.7001
vn 0.6800 -0.2381 0.6934
vn 0.0983 0.6837 0.7231
vn 0.1373 -0.7073 0.6934
vn 0.1940 -0.6647 0.7215
vn 0.0242 0.6967 0.7170
vn 0.0434 -0.7128 0.7000
vn -0.0080 0.7103 0.7038
vn -0.0015 -0.7141 0.7000
vn -0.0983 0.6837 0.7231
vn -0.0504 -0.7187 0.6934
vn -0.1940 0.6647 0.7215
vn -0.1440 -0.7060 0.6934
vn -0.2862 0.6333 0.7190
vn 0.5977 0.5740 0.5597
vn 0.5977 -0.5740 0.5597
vn 0.7496 -0.6558 -0.0895
vn 0.7180 0.6934 -0.0600
vn 0.6015 -0.6934 -0.3967
vn 0.5900 -0.6685 -0.4528
vn 0.6038 0.6566 -0.4521
vn 0.6499 0.6610 -0.3751
vn 0.6479 -0.6935 -0.3151
vn 0.6933 0.6609 -0.2872
vn 0.2244 0.6934 -0.6847
vn 0.2865 0.6631 -0.6916
vn 0.2796 -0.6636 -0.6939
vn 0.1936 -0.6636 -0.7226
vn -0.0553 0.6934 -0.7184
vn -0.0239 0.6835 -0.7295
vn -0.0282 -0.6830 -0.7299
vn -0.0976 -0.6640 -0.7413
vn 0.5773 -0.5773 0.5774
vn 0.9045 -0.3015 0.3015
vn -0.9045 -0.3015 0.3015
vn 0.3950 0.6934 -0.6026
vn 0.4562 0.6622 -0.5945
vn 0.4500 -0.6627 -0.5986
vn 0.3745 -0.6627 -0.6486
vn -0.7204 0.6919 -0.0473
vn -0.7444 0.6605 -0.0980
vn -0.7413 -0.6651 -0.0906
vn -0.3242 0.6934 -0.6435
vn -0.2864 0.6630 -0.6916
vn -0.2930 -0.6635 -0.6884
vn -0.5774 0.5774 0.5774
vn -0.5773 0.5773 0.5774
vn -0.7071 -0.0000 -0.7071
vn -0.5773 0.5773 -0.5774
vn -0.6004 -0.6935 -0.3983
vn -0.6499 -0.6609 -0.3753
vn -0.6457 0.6614 -0.3817
vn -0.5900 0.6685 -0.4528
vn 0.8944 -0.0000 -0.4472
vn 1.0000 -0.0000 -0.0000
vn 0.7071 -0.0000 -0.7071
vn 0.5774 0.5774 -0.5773
vn 0.5773 0.5773 0.5774
vn 0.5774 0.5774 0.5774
vn -0.0000 -0.8944 0.4472
vn -0.7204 -0.6919 -0.0473
vn -0.6647 -0.7219 -0.1926
vn 0.7060 -0.6934 -0.1439
vn -0.4817 -0.7057 -0.5195
vn 0.5429 -0.6935 -0.4737
vn -0.3243 -0.6934 -0.6434
vn -0.1476 -0.6977 -0.7010
vn 0.1325 -0.6934 -0.7082
vn 0.0523 -0.7000 -0.7122
vn -0.4708 -0.6934 -0.5454
vn -0.5269 0.6570 -0.5393
vn -0.6934 -0.6608 -0.2872
vn -0.6900 0.6613 -0.2942
vn -0.7254 0.6604 -0.1944
vn 0.0241 0.6775 -0.7351
vn -0.4050 0.6934 -0.5959
vn 0.6647 0.7209 -0.1962
vn 0.4818 0.7057 -0.5196
vn -0.2245 0.6934 -0.6847
vn 0.0553 0.6947 -0.7172
vn 0.3224 -0.6443 0.6934
vn 0.2873 -0.6935 0.6607
vn 0.4041 -0.5965 0.6934
vn 0.4736 -0.5431 0.6934
vn 0.6490 -0.3738 0.6626
vn 0.5959 0.4050 0.6934
vn 0.6482 0.3752 0.6626
vn 0.5320 0.4860 0.6934
vn 0.3968 0.6014 0.6935
vn 0.4566 0.5951 0.6614
vn 0.3152 0.6479 0.6934
vn 0.2283 0.6834 0.6934
vn 0.1302 0.9893 0.0663
vn -0.7285 -0.1942 0.6570
vn -0.6800 -0.2382 0.6935
vn -0.6435 -0.3242 0.6934
vn -0.5919 -0.4533 0.6665
vn -0.5307 -0.5295 0.6618
vn -0.3786 -0.6537 0.6553
vn -0.3153 -0.6479 0.6934
vn -0.3276 0.6418 0.6934
vn -0.4560 0.5956 0.6613
vn -0.4736 0.5430 0.6934
vn -0.5401 0.4769 0.6934
vn -0.6026 0.3951 0.6934
vn -0.9215 0.3827 0.0662
vn -0.6866 0.2188 0.6934
vn -0.6918 0.2857 0.6631
vn -0.7082 0.1324 0.6934
vn -0.7125 0.0490 0.7000
vn -0.6705 0.0410 -0.7408
vn -0.3356 -0.5759 -0.7454
vn 0.5959 -0.4050 0.6934
vn -0.4041 -0.5965 0.6934
vn -0.7082 -0.1324 0.6935
vn -0.7127 -0.0460 0.7000
vn -0.5774 -0.5773 0.5773
vn -0.5773 -0.5774 -0.5773
vn 0.5773 -0.5773 -0.5774
vn -0.8944 -0.0000 -0.4472
vn -1.0000 -0.0000 -0.0000
vn -0.0000 1.0000 -0.0000
vt -5.321477 25.686359
vt -7.595592 25.686359
vt -7.652426 15.013160
vt -27.569870 10.114660
vt -28.459850 20.695299
vt -30.733959 20.695299
vt -29.502859 10.114660
vt 1.181102 13.779530
vt 1.181102 11.008840
vt 20.866140 11.008840
vt 20.866140 13.779530
vt 45.669289 11.008840
vt 45.669289 13.779530
vt 5.613421 9.107162
vt 6.353147 7.321305
vt 5.613421 12.940080
vt 7.529881 5.787755
vt 7.529881 16.259489
vt 6.353147 14.725940
vt 9.063431 4.611021
vt 9.063431 17.436220
vt 10.849290 3.871295
vt 11.624890 10.717930
vt 11.584650 11.023620
vt 12.765750 3.618988
vt 11.742880 10.433070
vt 11.930580 10.188460
vt 12.175200 10.000760
vt 12.460060 9.882765
vt 32.509838 3.618988
vt 13.071440 9.882765
vt 12.765750 9.842520
vt 13.356300 10.000760
vt 13.600910 10.188460
vt 13.906610 11.329310
vt 13.946850 11.023620
vt 32.509838 18.428261
vt 13.788610 11.614170
vt 13.600910 11.858790
vt 13.356300 12.046490
vt 13.071440 12.164480
vt 11.624890 11.329310
vt 12.765750 18.428261
vt 10.849290 18.175949
vt 11.742880 11.614170
vt 11.930580 11.858790
vt 12.175200 12.046490
vt 12.460060 12.164480
vt 12.765750 12.204720
vt 34.426300 3.871295
vt 34.426300 18.175949
vt 36.212158 4.611021
vt 36.212158 17.436220
vt 37.745708 5.787755
vt 37.745708 16.259489
vt 38.922440 7.321305
vt 38.922440 14.725940
vt 39.662170 9.107162
vt 39.662170 12.940080
vt -12.184160 2.731524
vt -10.251170 2.731524
vt -8.353385 13.080410
vt -35.220230 5.286865
vt -33.287239 5.286865
vt -34.726189 15.709460
vt -37.000309 15.709460
vt -34.260750 13.950060
vt -36.534870 13.950060
vt -34.637081 3.601172
vt -32.509838 3.056523
vt -12.765750 3.056523
vt -11.023620 13.375810
vt -34.251968 13.375810
vt 18.114540 11.500520
vt 20.047529 11.500520
vt 21.600220 22.004391
vt 19.326099 22.004391
vt 12.765750 5.848300
vt 32.509838 5.848300
vt 34.251968 16.167589
vt 11.023620 16.167589
vt 3.171929 11.605150
vt 0.897814 11.605150
vt 0.007834 1.024505
vt 4.332760 1.041278
vt 6.265757 1.041278
vt 7.102999 11.681740
vt -20.866140 13.779530
vt -20.866140 11.008840
vt -1.181102 11.008840
vt -45.325508 10.433070
vt -44.144409 10.433070
vt -44.144409 11.614170
vt -45.325508 11.614170
vt 1.289981 14.764870
vt 3.222978 14.764870
vt 4.060219 25.405340
vt 1.786105 25.405340
vt -4.383492 1.394888
vt -2.450494 1.394888
vt -0.897814 11.898760
vt -3.171929 11.898760
vt 24.850121 9.121623
vt 26.783119 9.121623
vt 28.563190 19.544220
vt 26.289080 19.544220
vt 13.562080 2.300414
vt 13.505240 12.973610
vt 11.231130 12.973610
vt 13.505240 16.297070
vt 11.231130 16.297070
vt 13.128910 5.948180
vt -14.206200 14.198160
vt -14.263030 24.871361
vt -16.537149 24.871361
vt -16.139200 14.198160
vt 13.266000 13.985220
vt 14.103240 3.344761
vt 16.036240 3.344761
vt 15.540110 13.985220
vt 10.627500 12.158610
vt 8.353385 12.158610
vt 8.296551 1.485412
vt 0.000000 20.866140
vt 0.000000 1.181102
vt 0.010104 1.026938
vt 0.040245 0.875411
vt 0.010104 21.020309
vt 0.089906 0.729114
vt 0.089906 21.318130
vt 0.040245 21.171829
vt 0.158238 0.590551
vt 0.244071 0.462093
vt 0.158238 21.456690
vt 0.345937 0.345937
vt 0.462093 0.244071
vt 0.345937 21.701309
vt 0.590551 0.158238
vt 0.590551 21.889009
vt 0.462093 21.803169
vt 0.729114 0.089906
vt 0.875411 0.040245
vt 0.875411 22.007000
vt 0.729114 21.957340
vt 1.026938 0.010104
vt 1.181102 0.000000
vt 1.026938 22.037140
vt 45.669289 0.000000
vt 11.023620 2.312288
vt 34.251968 2.312288
vt 36.506630 2.609120
vt 40.411812 4.863779
vt 38.607639 3.479386
vt 41.796200 6.667955
vt 42.666470 8.768963
vt 42.963299 11.023620
vt 44.144409 10.433070
vt 44.144409 11.614170
vt 45.325508 10.433070
vt 45.669289 22.047251
vt 42.666470 13.278280
vt 1.181102 22.047251
vt 3.479386 15.379290
vt 4.863779 17.183470
vt 2.609120 13.278280
vt 45.325508 11.614170
vt 45.823460 0.010104
vt 45.823460 22.037140
vt 45.974979 0.040245
vt 45.974979 22.007000
vt 46.121281 0.089906
vt 46.259838 0.158238
vt 46.121281 21.957340
vt 46.388302 0.244071
vt 46.259838 21.889009
vt 46.388302 21.803169
vt 46.504459 0.345937
vt 46.504459 21.701309
vt 46.606319 0.462093
vt 46.692162 0.590551
vt 46.760490 0.729114
vt 46.692162 21.456690
vt 46.760490 21.318130
vt 46.810150 0.875411
vt 46.810150 21.171829
vt 46.840290 1.026938
vt 1.024078 11.008840
vt 1.178573 11.008840
vt 1.178573 13.779530
vt 1.024078 13.779530
vt 0.850738 11.008840
vt 1.005234 11.008840
vt 1.005234 13.779530
vt 0.816016 13.779530
vt 0.661521 13.779530
vt 0.661521 11.008840
vt 0.459662 11.008840
vt 0.614158 11.008840
vt 0.614158 13.779530
vt 0.031997 11.008840
vt 0.186493 11.008840
vt 0.186493 13.779530
vt -0.031997 11.008840
vt -0.031997 13.779530
vt -0.186493 13.779530
vt -0.403113 13.779530
vt -0.403113 11.008840
vt -0.248618 11.008840
vt -0.459662 11.008840
vt -0.459662 13.779530
vt -0.614158 13.779530
vt -0.614158 11.008840
vt -0.661521 11.008840
vt -0.661521 13.779530
vt -0.816016 13.779530
vt -1.005234 13.779530
vt -1.005234 11.008840
vt -0.850738 11.008840
vt -1.024078 11.008840
vt -1.024078 13.779530
vt -1.178573 13.779530
vt -20.975960 13.779530
vt -20.975960 11.008840
vt -20.821470 11.008840
vt -20.618380 11.008840
vt -20.618380 13.779530
vt -20.772869 13.779530
vt -20.772869 11.008840
vt -20.061180 11.008840
vt -20.061180 13.779530
vt -20.215679 13.779530
vt -19.313910 13.779530
vt -19.313910 11.008840
vt -19.159410 11.008840
vt -17.928499 11.008840
vt -17.928499 13.779530
vt -18.083000 13.779530
vt -16.544001 13.779530
vt -16.544001 11.008840
vt -16.389500 11.008840
vt -12.651910 11.008840
vt -12.497410 11.008840
vt -12.497410 13.779530
vt -10.365410 11.008840
vt -10.210910 11.008840
vt -10.210910 13.779530
vt -7.902871 11.008840
vt -7.748375 11.008840
vt -7.748375 13.779530
vt -2.466037 13.779530
vt -2.620532 13.779530
vt -2.620532 11.008840
vt 4.088240 13.779530
vt 4.088240 11.008840
vt 4.242736 11.008840
vt 4.242736 13.779530
vt 9.990797 13.779530
vt 9.990797 11.008840
vt 10.145290 11.008840
vt 10.145290 13.779530
vt 15.721090 13.779530
vt 15.721090 11.008840
vt 15.875580 11.008840
vt 15.875580 13.779530
vt 21.181061 13.779530
vt 21.181061 11.008840
vt 21.335560 11.008840
vt 21.335560 13.779530
vt 26.277300 13.779530
vt 26.277300 11.008840
vt 26.431801 11.008840
vt 26.431801 13.779530
vt 30.922609 13.779530
vt 30.922609 11.008840
vt 31.077101 11.008840
vt 31.077101 13.779530
vt 35.037498 11.008840
vt 35.191990 11.008840
vt 35.191990 13.779530
vt 38.706059 13.779530
vt 38.551571 13.779530
vt 38.551571 11.008840
vt 41.404678 11.008840
vt 41.559181 11.008840
vt 41.559181 13.779530
vt 44.944939 11.008840
vt 45.099442 11.008840
vt 45.099442 13.779530
vt 44.944939 13.779530
vt -44.284050 11.008840
vt -44.129551 11.008840
vt -44.129551 13.779530
vt -44.284050 13.779530
vt -36.615669 11.008840
vt -36.461182 11.008840
vt -36.461182 13.779530
vt -36.615669 13.779530
vt -31.807930 11.008840
vt -31.653440 11.008840
vt -31.653440 13.779530
vt -31.807930 13.779530
vt -26.457270 11.008840
vt -26.302771 11.008840
vt -26.302771 13.779530
vt -26.457270 13.779530
vt -20.500740 13.779530
vt -20.655239 13.779530
vt -20.655239 11.008840
vt -14.501110 13.779530
vt -14.501110 11.008840
vt -14.346610 11.008840
vt -14.346610 13.779530
vt -8.100183 13.779530
vt -8.100183 11.008840
vt -7.945688 11.008840
vt 11.478320 13.779530
vt 11.478320 11.008840
vt 11.632820 11.008840
vt 17.757299 13.779530
vt 17.757299 11.008840
vt 17.911800 11.008840
vt -0.000000 1.181102
vt -0.000000 20.866140
vt -0.010104 21.020309
vt -0.010104 1.026938
vt -0.040245 21.171829
vt -0.040245 0.875411
vt -0.089906 21.318130
vt -0.089906 0.729114
vt -1.026938 22.037140
vt -1.026938 0.010104
vt -0.875411 0.040245
vt -1.181102 22.047251
vt -1.181102 0.000000
vt -45.669289 22.047251
vt -45.669289 0.000000
vt -45.823460 22.037140
vt -45.823460 0.010104
vt -45.974979 22.007000
vt -45.974979 0.040245
vt -46.121281 21.957340
vt -11.614170 17.976891
vt -10.433070 17.976891
vt -10.433070 18.131390
vt -11.614170 18.131390
vt -10.433070 35.902359
vt -10.433070 36.056850
vt -11.614170 36.056850
vt -11.614170 35.902359
vt -10.433070 32.173431
vt -10.433070 32.327919
vt -11.614170 32.327919
vt -11.614170 32.173431
vt -11.614170 44.577560
vt -11.614170 44.423069
vt -10.433070 44.423069
vt -10.433070 44.577560
vt 11.614170 -43.122910
vt 11.614170 -42.968418
vt 10.433070 -42.968418
vt 10.433070 -43.122910
vt -44.144409 9.251968
vt -11.614170 43.348289
vt -11.614170 43.193790
vt -10.433070 43.193790
vt -10.433070 43.348289
vt 11.614170 12.357030
vt 11.614170 12.511520
vt 10.433070 12.511520
vt 11.614170 -32.878109
vt 11.614170 -32.723621
vt 10.433070 -32.723621
vt 11.614170 14.566930
vt 12.795280 14.566930
vt 11.614170 15.354330
vt 12.795280 15.354330
vt 10.433070 -11.681410
vt 10.433070 -11.835910
vt 11.614170 -11.835910
vt 11.614170 -11.681410
vt -10.433070 15.354330
vt -11.614170 15.354330
vt -10.433070 14.566930
vt -11.614170 14.566930
vt -11.614170 13.779530
vt -12.795280 15.354330
vt -12.795280 14.566930
vt 44.144409 15.354330
vt 45.325508 15.354330
vt 45.315399 15.508500
vt 40.601101 15.354330
vt 40.611198 15.508500
vt 45.285259 15.660020
vt 40.641338 15.660020
vt 45.081440 16.073339
vt 40.845169 16.073339
vt 40.759331 15.944880
vt 44.979568 16.189501
vt 40.947029 16.189501
vt 44.734951 16.377199
vt 44.596390 16.445530
vt 41.191650 16.377199
vt 41.330212 16.445530
vt 44.450100 16.495190
vt 41.476509 16.495190
vt 44.298569 16.525330
vt 41.628040 16.525330
vt 44.144409 16.535431
vt 41.782200 16.535431
vt -11.614170 39.015671
vt -10.433070 39.015671
vt -10.433070 39.170158
vt 10.433070 -36.788929
vt 10.433070 -36.943432
vt 11.614170 -36.943432
vt 10.433070 -22.988461
vt 10.433070 -23.142960
vt 11.614170 -23.142960
vt 45.325508 12.795280
vt 44.144409 12.795280
vt 10.433070 -5.676443
vt 10.433070 -5.830938
vt 11.614170 -5.830938
vt 11.614170 -5.676443
vt 10.433070 -17.639681
vt 11.614170 -17.639681
vt 11.614170 -17.485180
vt 11.614170 6.369907
vt 11.614170 6.524403
vt 10.433070 6.524403
vt 41.782200 11.614170
vt 41.782200 10.433070
vt 11.614170 -28.251570
vt 11.614170 -28.097071
vt 10.433070 -28.097071
vt -40.601101 15.354330
vt -45.315399 15.508500
vt -45.325508 15.354330
vt -40.641338 15.660020
vt -45.235600 15.806320
vt -45.285259 15.660020
vt -40.691010 15.806320
vt -45.167271 15.944880
vt -40.759331 15.944880
vt -45.081440 16.073339
vt -40.845169 16.073339
vt -40.947029 16.189501
vt -44.979568 16.189501
vt -41.063190 16.291361
vt -44.863411 16.291361
vt -44.734951 16.377199
vt -41.191650 16.377199
vt -44.596390 16.445530
vt -41.330212 16.445530
vt -44.450100 16.495190
vt -41.476509 16.495190
vt -44.298569 16.525330
vt -41.628040 16.525330
vt -41.782200 16.535431
vt -44.144409 16.535431
vt -10.433070 27.892679
vt -10.433070 28.047171
vt -11.614170 28.047171
vt 11.614170 0.272477
vt 11.614170 0.426972
vt 10.433070 0.426972
vt 0.459662 -0.000000
vt 0.614158 -0.000000
vt 0.248618 -0.000000
vt 0.403113 -0.000000
vt 0.403113 11.008840
vt 0.031997 -0.000000
vt 0.186493 -0.000000
vt -0.031997 -0.000000
vt -0.186493 11.008840
vt -0.614158 -0.000000
vt -0.459662 -0.000000
vt -0.850738 -0.000000
vt -18.083000 11.008840
vt -18.083000 -0.000000
vt -17.928499 -0.000000
vt -16.389500 -0.000000
vt -16.544001 -0.000000
vt -12.651910 -0.000000
vt -12.497410 -0.000000
vt -10.365410 -0.000000
vt -10.210910 -0.000000
vt -7.902871 -0.000000
vt -7.748375 -0.000000
vt -5.306438 -0.000000
vt -5.151942 -0.000000
vt -5.151942 11.008840
vt -5.306438 11.008840
vt -2.620532 -0.000000
vt -2.466037 -0.000000
vt -2.466037 11.008840
vt 9.990797 0.000000
vt 15.721090 0.000000
vt 15.875580 0.000000
vt 21.181061 0.000000
vt 21.335560 0.000000
vt 26.277300 0.000000
vt 26.431801 0.000000
vt 30.922609 0.000000
vt 31.077101 0.000000
vt 38.706059 11.008840
vt 38.551571 0.000000
vt 41.404678 0.000000
vt 41.559181 0.000000
vt 44.944939 0.000000
vt 45.726009 11.008840
vt 45.571510 11.008840
vt 45.571510 0.000000
vt -44.284050 0.000000
vt -40.798229 0.000000
vt -40.643742 0.000000
vt -40.643742 11.008840
vt -36.615669 0.000000
vt -36.461182 0.000000
vt -31.807930 0.000000
vt -31.653440 0.000000
vt -26.457270 0.000000
vt -20.655239 0.000000
vt -20.500740 0.000000
vt -20.500740 11.008840
vt -14.501110 0.000000
vt -14.346610 0.000000
vt -8.100183 0.000000
vt -7.945688 0.000000
vt -1.407490 0.000000
vt -1.407490 11.008840
vt -1.561985 11.008840
vt 5.001618 11.008840
vt 5.001618 0.000000
vt 5.156114 0.000000
vt 5.156114 11.008840
vt 11.478320 0.000000
vt 11.632820 0.000000
vt 17.757299 0.000000
vt 17.911800 0.000000
vt 13.788610 10.433070
vt -5.719429 15.013160
vt 14.319330 15.001730
vt 15.550420 4.421086
vt 17.483419 4.421086
vt 16.593439 15.001730
vt 5.361114 11.023620
vt 13.906610 10.717930
vt 39.914471 11.023620
vt -10.627500 13.080410
vt -33.469051 7.577165
vt -31.536051 7.577165
vt -32.747608 18.081030
vt -35.021729 18.081030
vt -32.704090 3.601172
vt -21.658979 12.461390
vt -22.155100 23.101851
vt -24.429220 23.101851
vt -23.591980 12.461390
vt 15.872010 5.318248
vt 17.805000 5.318248
vt 16.593439 15.822110
vt 14.319330 15.822110
vt 15.046070 5.859712
vt 16.979071 5.859712
vt 15.540110 16.282301
vt 13.266000 16.282301
vt 10.078610 13.511240
vt 12.011610 13.511240
vt 13.242710 24.091881
vt 10.968590 24.091881
vt 1.940831 1.024505
vt 4.828884 11.681740
vt -1.181102 13.779530
vt 11.629080 2.300414
vt 15.061900 5.948180
vt -8.541954 2.024954
vt -6.608957 2.024954
vt -4.828884 12.447550
vt -7.102999 12.447550
vt 29.826349 6.817828
vt 31.759340 6.817828
vt 33.657120 17.166719
vt 31.383011 17.166719
vt 10.229550 1.485412
vt -45.669289 11.008840
vt -45.669289 13.779530
vt 0.244071 21.585150
vt 2.312288 11.023620
vt 2.609120 8.768963
vt 3.479386 6.667955
vt 4.863779 4.863779
vt 6.667955 3.479386
vt 8.768963 2.609120
vt 41.796200 15.379290
vt 40.411812 17.183470
vt 38.607639 18.567860
vt 36.506630 19.438120
vt 34.251968 19.734961
vt 11.023620 19.734961
vt 8.768963 19.438120
vt 6.667955 18.567860
vt 46.606319 21.585150
vt 46.840290 21.020309
vt 46.850399 1.181102
vt 46.850399 20.866140
vt 0.850738 13.779530
vt 0.816016 11.008840
vt 0.459662 13.779530
vt 0.248618 11.008840
vt 0.403113 13.779530
vt 0.248618 13.779530
vt 0.031997 13.779530
vt -0.248618 13.779530
vt -0.816016 11.008840
vt -0.850738 13.779530
vt -1.178573 11.008840
vt -20.821470 13.779530
vt -20.215679 11.008840
vt -19.159410 13.779530
vt -16.389500 13.779530
vt -14.723250 11.008840
vt -14.568760 11.008840
vt -14.568760 13.779530
vt -14.723250 13.779530
vt -12.651910 13.779530
vt -10.365410 13.779530
vt -7.902871 13.779530
vt -5.151942 13.779530
vt -5.306438 13.779530
vt 35.037498 13.779530
vt 41.404678 13.779530
vt 43.548031 11.008840
vt 43.702530 11.008840
vt 43.702530 13.779530
vt 43.548031 13.779530
vt 45.726009 13.779530
vt 45.571510 13.779530
vt -40.798229 11.008840
vt -40.643742 13.779530
vt -40.798229 13.779530
vt -7.945688 13.779530
vt -1.561985 13.779530
vt -1.407490 13.779530
vt 5.001618 13.779530
vt 5.156114 13.779530
vt 11.632820 13.779530
vt 17.911800 13.779530
vt -0.158238 21.456690
vt -0.158238 0.590551
vt -0.244071 21.585150
vt -0.244071 0.462093
vt -0.345937 21.701309
vt -0.345937 0.345937
vt -0.462093 21.803169
vt -0.462093 0.244071
vt -0.590551 21.889009
vt -0.590551 0.158238
vt -0.729114 21.957340
vt -0.729114 0.089906
vt -0.875411 22.007000
vt -46.121281 0.089906
vt -46.259838 21.889009
vt -46.259838 0.158238
vt -46.388302 0.244071
vt -46.388302 21.803169
vt -46.504459 0.345937
vt -46.504459 21.701309
vt -46.606319 0.462093
vt -46.606319 21.585150
vt -46.692162 21.456690
vt -46.692162 0.590551
vt -46.760490 21.318130
vt -46.760490 0.729114
vt -46.810150 21.171829
vt -46.810150 0.875411
vt -46.840290 1.026938
vt -46.840290 21.020309
vt -46.850399 1.181102
vt -46.850399 20.866140
vt 44.144409 14.566930
vt 45.325508 14.566930
vt -11.614170 42.774212
vt -11.614170 42.619709
vt -10.433070 42.619709
vt -10.433070 42.774212
vt -11.614170 44.052101
vt -11.614170 43.897598
vt -10.433070 43.897598
vt -10.433070 44.052101
vt -45.325508 14.566930
vt -44.144409 14.566930
vt -44.144409 15.354330
vt -45.325508 9.251968
vt 10.433070 12.357030
vt 10.433070 -32.878109
vt 11.614170 -40.377949
vt 11.614170 -40.223450
vt 10.433070 -40.223450
vt 10.433070 -40.377949
vt 10.433070 14.566930
vt 10.433070 13.779530
vt 11.614170 13.779530
vt 10.433070 15.354330
vt 9.251968 14.566930
vt 9.251968 15.354330
vt -9.251968 14.566930
vt -9.251968 15.354330
vt -10.433070 13.779530
vt 45.235600 15.806320
vt 40.691010 15.806320
vt 45.167271 15.944880
vt 44.863411 16.291361
vt 41.063190 16.291361
vt -11.614170 39.170158
vt -44.144409 12.795280
vt -45.325508 12.795280
vt 11.614170 -36.788929
vt 44.144409 13.779530
vt 45.325508 13.779530
vt 11.614170 -22.988461
vt 44.144409 9.251968
vt 45.325508 9.251968
vt -45.325508 13.779530
vt -44.144409 13.779530
vt -11.614170 41.614578
vt -11.614170 41.460091
vt -10.433070 41.460091
vt -10.433070 41.614578
vt 10.433070 -17.485180
vt -10.433070 23.133360
vt -10.433070 23.287849
vt -11.614170 23.287849
vt -11.614170 23.133360
vt 10.433070 6.369907
vt 10.433070 -28.251570
vt -40.611198 15.508500
vt -11.614170 27.892679
vt 10.433070 0.272477
vt -40.601101 10.433070
vt -40.601101 11.614170
vt -11.614170 44.341610
vt -11.614170 44.187111
vt -10.433070 44.187111
vt -10.433070 44.341610
vt 1.181102 -0.000000
vt 45.669289 -0.000000
vt 1.181102 0.000000
vt 20.866140 0.000000
vt -45.669289 -0.000000
vt -1.181102 0.000000
vt -1.181102 -0.000000
vt -20.866140 -0.000000
vt 1.024078 -0.000000
vt 1.178573 -0.000000
vt 0.850738 -0.000000
vt 1.005234 -0.000000
vt 0.661521 -0.000000
vt 0.816016 -0.000000
vt -0.186493 -0.000000
vt -0.248618 -0.000000
vt -0.403113 -0.000000
vt -0.661521 -0.000000
vt -0.816016 -0.000000
vt -1.005234 -0.000000
vt -1.024078 -0.000000
vt -1.178573 -0.000000
vt -20.821470 -0.000000
vt -20.975960 -0.000000
vt -20.618380 -0.000000
vt -20.772869 -0.000000
vt -20.061180 -0.000000
vt -20.215679 -0.000000
vt -19.159410 -0.000000
vt -19.313910 -0.000000
vt -14.723250 -0.000000
vt -14.568760 -0.000000
vt 4.088240 0.000000
vt 4.242736 0.000000
vt 10.145290 0.000000
vt 35.037498 0.000000
vt 35.191990 0.000000
vt 38.706059 0.000000
vt 43.548031 0.000000
vt 43.702530 0.000000
vt 45.099442 0.000000
vt 45.726009 0.000000
vt -44.129551 0.000000
vt -26.302771 0.000000
vt -1.561985 0.000000
s 1
usemtl carpetWhite.008
f 3/1/1 4/2/2 2/3/3
f 10/4/4 9/5/5 11/6/6
f 11/6/6 12/7/7 10/4/4
f 14/8/8 13/9/9 15/10/10
f 15/10/10 16/11/11 14/8/8
f 18/9/12 17/12/13 19/13/14
f 19/13/14 20/8/15 18/9/12
f 23/14/16 24/15/17 22/16/18
f 25/17/19 7/18/20 5/19/21
f 26/20/22 27/21/23 7/18/20
f 28/22/24 31/23/25 30/24/25
f 32/25/26 33/26/25 31/23/25
f 32/25/26 34/27/25 33/26/25
f 32/25/26 35/28/25 34/27/25
f 32/25/26 36/29/25 35/28/25
f 38/30/27 39/31/25 37/32/25
f 38/30/27 40/33/25 39/31/25
f 38/30/27 41/34/25 40/33/25
f 47/35/25 44/36/25 46/37/28
f 48/38/25 47/35/25 46/37/28
f 49/39/25 48/38/25 46/37/28
f 50/40/25 49/39/25 46/37/28
f 51/41/25 50/40/25 46/37/28
f 45/42/25 52/43/29 29/44/30
f 45/42/25 53/45/25 52/43/29
f 53/45/25 54/46/25 52/43/29
f 54/46/25 55/47/25 52/43/29
f 55/47/25 56/48/25 52/43/29
f 56/48/25 57/49/25 52/43/29
f 57/49/25 51/41/25 52/43/29
f 58/50/31 59/51/32 46/37/28
f 58/50/31 60/52/33 59/51/32
f 60/52/33 61/53/34 59/51/32
f 60/52/33 10/54/4 61/53/34
f 10/54/4 62/55/35 61/53/34
f 10/54/4 12/56/7 62/55/35
f 12/56/7 63/57/36 62/55/35
f 64/58/37 2/59/3 63/57/36
f 32/60/26 28/61/24 65/62/38
f 60/63/33 58/64/31 67/65/39
f 67/65/39 68/66/40 60/63/33
f 69/67/41 67/68/39 58/69/31
f 38/70/27 32/71/26 66/72/42
f 66/72/42 69/73/41 38/70/27
f 61/74/34 62/75/35 71/76/43
f 71/76/43 72/77/44 61/74/34
f 52/78/29 46/79/28 74/80/45
f 74/80/45 75/81/46 52/78/29
f 79/82/47 78/83/48 25/84/19
f 24/85/17 23/86/16 80/87/49
f 83/88/50 84/89/51 82/90/52
f 86/91/53 85/92/53 87/93/53
f 87/93/53 88/94/53 86/91/53
f 63/95/36 2/96/3 4/97/2
f 4/97/2 77/98/54 63/95/36
f 26/99/22 25/100/19 78/101/48
f 78/101/48 89/102/55 26/99/22
f 59/103/32 61/104/34 72/105/44
f 72/105/44 90/106/56 59/103/32
f 22/107/18 92/108/57 91/109/58
f 75/110/46 76/111/59 29/112/30
f 64/113/37 70/114/60 3/115/1
f 3/115/1 1/116/61 64/113/37
f 92/117/57 22/118/18 5/119/21
f 5/119/21 6/120/62 92/117/57
f 91/121/58 80/122/49 23/123/16
f 83/124/50 81/125/63 97/126/64
f 97/126/64 99/127/65 98/128/66
f 101/129/67 102/130/68 100/131/69
f 103/132/70 105/133/71 104/134/72
f 107/135/73 109/136/74 108/137/75
f 111/138/76 112/139/77 110/140/78
f 111/138/76 113/141/79 112/139/77
f 115/142/80 116/143/81 114/144/82
f 115/142/80 117/145/83 116/143/81
f 117/145/83 20/146/15 118/147/84
f 20/146/15 19/148/14 66/149/42
f 19/148/14 69/150/41 66/149/42
f 19/148/14 67/151/39 69/150/41
f 19/148/14 9/152/5 68/153/40
f 19/148/14 11/154/6 9/152/5
f 19/148/14 70/155/60 11/154/6
f 19/148/14 3/156/1 70/155/60
f 19/148/14 119/157/85 3/156/1
f 119/157/85 120/158/86 3/156/1
f 121/159/87 19/148/14 96/160/88
f 4/161/2 3/156/1 96/160/88
f 95/162/89 6/163/62 8/164/90
f 95/162/89 92/165/57 6/163/62
f 120/158/86 122/166/91 96/160/88
f 19/148/14 123/167/92 96/160/88
f 123/167/92 124/168/93 96/160/88
f 123/167/92 125/169/94 124/168/93
f 125/169/94 126/170/95 124/168/93
f 125/169/94 127/171/96 126/170/95
f 127/171/96 129/172/97 128/173/98
f 129/172/97 131/174/99 130/175/100
f 131/174/99 132/176/101 130/175/100
f 131/174/99 133/177/102 132/176/101
f 133/177/102 134/178/103 132/176/101
f 133/177/102 135/179/104 134/178/103
f 137/180/105 139/181/106 138/182/107
f 139/181/106 140/183/108 138/182/107
f 139/181/106 141/184/109 140/183/108
f 141/184/109 142/185/110 140/183/108
f 141/184/109 143/186/111 142/185/110
f 145/187/112 18/188/12 20/189/15
f 20/189/15 117/190/83 145/187/112
f 146/191/113 145/192/112 117/193/83
f 115/194/80 113/195/79 147/196/114
f 148/197/115 147/198/114 113/199/79
f 150/200/116 149/201/117 109/202/74
f 150/203/116 107/204/73 105/205/71
f 103/206/70 152/207/118 151/208/119
f 152/209/118 103/210/70 101/211/67
f 101/211/67 153/212/120 152/209/118
f 153/213/120 101/214/67 99/215/65
f 97/216/64 155/217/121 154/218/122
f 155/219/121 97/220/64 81/221/63
f 98/222/66 156/223/123 84/224/51
f 156/225/123 98/226/66 100/227/69
f 100/227/69 157/228/124 156/225/123
f 157/229/124 100/230/69 102/231/68
f 104/232/72 159/233/125 158/234/126
f 159/235/125 104/236/72 106/237/127
f 108/238/75 161/239/128 160/240/129
f 163/241/130 162/242/131 110/243/78
f 164/244/132 163/245/130 112/246/77
f 165/247/133 164/248/132 114/249/82
f 118/250/84 95/251/89 93/252/134
f 143/253/111 167/254/135 13/255/9
f 13/255/9 14/256/8 143/253/111
f 141/257/109 168/258/136 167/259/135
f 167/259/135 143/260/111 141/257/109
f 139/261/106 169/262/137 168/263/136
f 168/263/136 141/264/109 139/261/106
f 137/265/105 170/266/138 169/267/137
f 169/267/137 139/268/106 137/265/105
f 135/269/104 171/270/139 170/271/138
f 170/271/138 137/272/105 135/269/104
f 133/273/102 172/274/140 171/275/139
f 171/275/139 135/276/104 133/273/102
f 173/277/141 172/278/140 133/279/102
f 131/280/99 129/281/97 174/282/142
f 175/283/143 174/284/142 129/285/97
f 177/286/144 176/287/145 125/288/94
f 125/288/94 123/289/92 177/286/144
f 178/290/146 94/291/147 96/292/88
f 96/292/88 124/293/93 178/290/146
f 180/294/148 179/295/149 126/296/95
f 126/296/95 128/297/98 180/294/148
f 181/298/150 180/299/148 128/300/98
f 128/300/98 130/301/100 181/298/150
f 182/302/151 181/303/150 130/304/100
f 130/304/100 132/305/101 182/302/151
f 132/306/101 134/307/103 183/308/152
f 136/309/153 184/310/154 183/311/152
f 183/311/152 134/312/103 136/309/153
f 138/313/107 185/314/155 184/315/154
f 144/316/156 188/317/157 187/318/158
f 16/319/11 15/320/10 188/321/157
f 2/3/3 1/542/61 3/1/1
f 6/543/62 5/544/21 7/545/20
f 7/545/20 8/546/90 6/543/62
f 22/16/18 21/547/275 23/14/16
f 24/15/17 5/19/21 22/16/18
f 24/15/17 25/17/19 5/19/21
f 25/17/19 26/20/22 7/18/20
f 26/20/22 28/22/24 27/21/23
f 28/22/24 29/44/30 27/21/23
f 28/22/24 30/24/25 29/44/30
f 28/22/24 32/25/26 31/23/25
f 32/25/26 37/32/25 36/29/25
f 32/25/26 38/30/27 37/32/25
f 38/30/27 42/541/25 41/34/25
f 38/30/27 43/548/25 42/541/25
f 38/30/27 44/36/25 43/548/25
f 29/44/30 30/24/25 45/42/25
f 44/36/25 38/30/27 46/37/28
f 51/41/25 46/37/28 52/43/29
f 38/30/27 58/50/31 46/37/28
f 12/56/7 64/58/37 63/57/36
f 64/58/37 1/549/61 2/59/3
f 65/62/38 66/550/42 32/60/26
f 10/551/4 60/552/33 68/553/40
f 68/553/40 9/554/5 10/551/4
f 58/69/31 38/555/27 69/67/41
f 12/556/7 11/557/6 70/558/60
f 70/558/60 64/559/37 12/556/7
f 7/560/20 27/561/23 73/562/276
f 73/562/276 8/563/90 7/560/20
f 27/564/23 29/565/30 76/566/59
f 76/566/59 73/567/276 27/564/23
f 62/568/35 63/569/36 77/570/54
f 77/570/54 71/571/43 62/568/35
f 25/84/19 24/572/17 79/82/47
f 80/87/49 79/573/47 24/85/17
f 82/90/52 81/574/63 83/88/50
f 91/109/58 21/575/275 22/107/18
f 29/112/30 52/576/29 75/110/46
f 28/577/24 26/578/22 89/579/55
f 89/579/55 65/580/38 28/577/24
f 46/581/28 59/582/32 90/583/56
f 90/583/56 74/584/45 46/581/28
f 23/123/16 21/585/275 91/121/58
f 94/586/147 93/90/134 95/574/89
f 95/574/89 96/587/88 94/586/147
f 97/126/64 98/128/66 83/124/50
f 99/127/65 100/131/69 98/128/66
f 99/127/65 101/129/67 100/131/69
f 101/129/67 103/132/70 102/130/68
f 103/132/70 104/134/72 102/130/68
f 105/133/71 106/588/127 104/134/72
f 105/133/71 107/135/73 106/588/127
f 107/135/73 108/137/75 106/588/127
f 109/136/74 110/140/78 108/137/75
f 109/136/74 111/138/76 110/140/78
f 113/141/79 114/144/82 112/139/77
f 113/141/79 115/142/80 114/144/82
f 117/145/83 118/147/84 116/143/81
f 20/146/15 95/162/89 118/147/84
f 20/146/15 91/589/58 95/162/89
f 20/146/15 80/590/49 91/589/58
f 20/146/15 79/591/47 80/590/49
f 20/146/15 78/592/48 79/591/47
f 20/146/15 89/593/55 78/592/48
f 20/146/15 65/594/38 89/593/55
f 20/146/15 66/149/42 65/594/38
f 19/148/14 68/153/40 67/151/39
f 19/148/14 121/159/87 119/157/85
f 3/156/1 120/158/86 96/160/88
f 77/595/54 4/161/2 96/160/88
f 71/596/43 77/595/54 96/160/88
f 72/597/44 71/596/43 96/160/88
f 90/598/56 72/597/44 96/160/88
f 74/599/45 90/598/56 96/160/88
f 75/600/46 74/599/45 96/160/88
f 75/600/46 96/160/88 95/162/89
f 95/162/89 76/601/59 75/600/46
f 95/162/89 73/602/276 76/601/59
f 95/162/89 8/164/90 73/602/276
f 95/162/89 91/589/58 92/165/57
f 122/166/91 121/159/87 96/160/88
f 127/171/96 128/173/98 126/170/95
f 129/172/97 130/175/100 128/173/98
f 135/179/104 136/603/153 134/178/103
f 135/179/104 137/180/105 136/603/153
f 137/180/105 138/182/107 136/603/153
f 143/186/111 144/604/156 142/185/110
f 143/186/111 14/605/8 144/604/156
f 14/605/8 16/606/11 144/604/156
f 117/193/83 115/607/80 146/191/113
f 147/196/114 146/608/113 115/194/80
f 113/199/79 111/609/76 148/197/115
f 149/610/117 148/471/115 111/611/76
f 111/611/76 109/612/74 149/610/117
f 109/202/74 107/613/73 150/200/116
f 105/205/71 151/475/119 150/203/116
f 151/208/119 105/614/71 103/206/70
f 99/215/65 154/615/122 153/213/120
f 154/218/122 99/616/65 97/216/64
f 81/221/63 82/617/52 155/219/121
f 84/224/51 83/618/50 98/222/66
f 102/231/68 158/619/126 157/229/124
f 158/234/126 102/620/68 104/232/72
f 106/237/127 160/479/129 159/235/125
f 160/240/129 106/621/127 108/238/75
f 162/622/131 161/623/128 108/624/75
f 108/624/75 110/625/78 162/622/131
f 110/243/78 112/626/77 163/241/130
f 112/246/77 114/627/82 164/244/132
f 114/249/82 116/628/81 165/247/133
f 166/493/257 165/492/133 116/629/81
f 116/629/81 118/630/84 166/493/257
f 93/252/134 166/496/257 118/250/84
f 133/279/102 131/631/99 173/277/141
f 174/282/142 173/506/141 131/280/99
f 129/285/97 127/632/96 175/283/143
f 176/633/145 175/634/143 127/635/96
f 127/635/96 125/636/94 176/633/145
f 17/512/13 177/511/144 123/637/92
f 123/637/92 19/638/14 17/512/13
f 179/639/149 178/517/146 124/640/93
f 124/640/93 126/641/95 179/639/149
f 183/308/152 182/525/151 132/306/101
f 184/315/154 136/642/153 138/313/107
f 140/643/108 186/532/270 185/531/155
f 185/531/155 138/644/107 140/643/108
f 142/645/110 187/533/158 186/536/270
f 186/536/270 140/646/108 142/645/110
f 187/318/158 142/647/110 144/316/156
f 188/321/157 144/648/156 16/319/11
usemtl metalLight.005
f 190/322/159 189/323/160 191/324/161
f 191/324/161 192/325/162 190/322/159
f 191/324/161 193/326/163 192/325/162
f 193/326/163 194/327/164 192/325/162
f 193/326/163 195/328/165 194/327/164
f 195/328/165 196/329/166 194/327/164
f 211/330/167 212/331/168 210/332/169
f 211/330/167 213/333/170 212/331/168
f 213/333/170 214/334/171 212/331/168
f 213/333/170 215/335/172 214/334/171
f 215/335/172 216/336/173 214/334/171
f 217/337/174 218/338/175 216/336/173
f 217/337/174 219/339/176 218/338/175
f 219/339/176 220/340/177 218/338/175
f 219/339/176 221/341/178 220/340/177
f 252/342/179 251/343/180 253/344/181
f 253/344/181 254/345/182 252/342/179
f 256/346/183 255/347/184 257/348/185
f 257/348/185 258/349/186 256/346/183
f 263/350/187 256/351/183 258/352/186
f 258/352/186 264/353/188 263/350/187
f 249/354/189 265/355/190 266/356/191
f 266/356/191 250/357/192 249/354/189
f 268/358/193 267/359/194 269/360/195
f 269/360/195 270/361/196 268/358/193
f 242/362/197 271/92/198 272/91/199
f 274/363/200 273/364/201 275/365/202
f 275/365/202 276/366/203 274/363/200
f 88/367/204 278/368/205 277/369/206
f 280/370/207 279/371/208 281/372/209
f 285/373/210 260/374/211 88/375/212
f 260/374/211 262/376/213 88/375/212
f 287/377/214 286/378/215 288/379/216
f 288/379/216 289/380/217 287/377/214
f 85/381/218 87/382/219 271/383/198
s 0
f 87/382/219 290/384/219 120/385/219
s 1
f 87/382/220 261/386/221 290/384/222
f 261/386/221 259/387/223 290/384/222
f 85/388/224 86/389/225 277/390/206
f 277/390/206 251/391/180 85/388/224
f 277/390/206 253/392/181 251/391/180
f 277/390/206 291/393/226 253/392/181
f 291/393/226 292/394/227 253/392/181
f 287/395/214 255/396/184 256/397/183
f 294/398/228 295/399/229 255/396/184
f 282/400/230 281/401/209 276/402/203
f 281/401/209 266/403/191 276/402/203
f 281/401/209 284/404/231 266/403/191
f 284/404/231 250/405/192 266/403/191
f 284/404/231 270/406/196 250/405/192
f 270/406/196 247/407/232 250/405/192
f 270/406/196 269/408/195 247/407/232
f 269/408/195 248/409/233 247/407/232
f 257/410/185 255/411/184 295/412/229
f 284/413/231 281/414/209 279/415/208
f 296/416/234 294/417/228 299/418/235
f 262/419/213 261/420/221 87/158/220
f 87/158/220 88/166/212 262/419/213
f 286/421/215 293/422/236 300/423/237
f 300/423/237 288/424/216 286/421/215
f 287/425/214 289/426/217 299/427/235
f 278/428/205 302/429/238 291/430/226
f 267/158/194 246/431/239 248/432/233
f 248/432/233 269/157/195 267/158/194
f 298/433/240 280/434/207 282/435/230
f 252/436/179 278/437/205 88/438/204
f 301/439/241 300/440/237 302/441/238
f 264/442/188 288/443/216 300/440/237
f 264/442/188 258/444/186 288/443/216
f 258/444/186 289/445/217 288/443/216
f 258/444/186 257/446/185 289/445/217
f 257/446/185 297/447/242 299/448/235
f 297/447/242 273/449/201 298/450/240
f 273/449/201 280/451/207 298/450/240
f 274/452/200 279/453/208 280/451/207
f 265/454/190 283/455/243 279/453/208
f 265/454/190 249/456/189 283/455/243
f 249/456/189 268/457/193 283/455/243
f 249/456/189 245/458/244 268/457/193
f 245/458/244 246/459/239 267/460/194
f 292/461/227 263/462/187 264/463/188
f 302/464/238 300/465/237 293/466/236
f 206/467/245 208/468/246 147/198/114
f 204/469/247 206/470/245 148/471/115
f 202/472/248 204/473/247 149/201/117
f 149/201/117 150/200/116 202/472/248
f 202/474/248 150/203/116 151/475/119
f 153/212/120 196/476/166 198/477/249
f 194/478/164 154/218/122 155/217/121
f 160/479/129 199/480/250 197/481/251
f 199/482/250 160/240/129 161/239/128
f 161/239/128 201/483/252 199/482/250
f 205/484/253 203/485/254 162/242/131
f 162/242/131 163/241/130 205/484/253
f 207/486/255 205/487/253 163/245/130
f 209/488/256 207/489/255 164/248/132
f 211/490/167 209/491/256 165/492/133
f 165/492/133 166/493/257 211/490/167
f 213/494/170 211/495/167 166/496/257
f 167/259/135 168/258/136 236/497/258
f 234/498/259 236/499/258 168/263/136
f 232/500/260 234/501/259 169/267/137
f 170/271/138 171/270/139 229/502/261
f 229/502/261 232/503/260 170/271/138
f 171/275/139 172/274/140 227/504/262
f 227/504/262 229/505/261 171/275/139
f 173/506/141 174/282/142 224/507/263
f 222/508/264 224/509/263 174/284/142
f 176/287/145 177/286/144 218/510/175
f 177/511/144 17/512/13 216/513/173
f 94/291/147 178/290/146 217/514/174
f 219/515/176 217/516/174 178/517/146
f 221/518/178 219/519/176 179/295/149
f 179/295/149 180/294/148 221/518/178
f 223/520/265 221/521/178 180/299/148
f 181/303/150 182/302/151 226/522/266
f 228/523/267 226/524/266 182/525/151
f 182/525/151 183/308/152 228/523/267
f 184/310/154 230/526/268 228/527/267
f 228/527/267 183/311/152 184/310/154
f 185/314/155 231/528/269 230/529/268
f 230/529/268 184/315/154 185/314/155
f 231/530/269 185/531/155 186/532/270
f 187/533/158 235/534/271 233/535/272
f 233/535/272 186/536/270 187/533/158
f 188/317/157 238/537/273 235/538/271
f 15/320/10 240/539/274 238/540/273
f 238/540/273 188/321/157 15/320/10
f 195/328/165 197/649/251 196/329/166
f 197/649/251 198/650/249 196/329/166
f 197/649/251 199/651/250 198/650/249
f 199/651/250 200/652/277 198/650/249
f 199/651/250 201/653/252 200/652/277
f 201/653/252 202/654/248 200/652/277
f 201/653/252 203/655/254 202/654/248
f 203/655/254 204/656/247 202/654/248
f 203/655/254 205/657/253 204/656/247
f 205/657/253 206/658/245 204/656/247
f 205/657/253 207/659/255 206/658/245
f 207/659/255 208/660/246 206/658/245
f 207/659/255 209/661/256 208/660/246
f 209/661/256 210/332/169 208/660/246
f 209/661/256 211/330/167 210/332/169
f 215/335/172 217/337/174 216/336/173
f 221/341/178 222/662/264 220/340/177
f 221/341/178 223/663/265 222/662/264
f 223/663/265 224/664/263 222/662/264
f 223/663/265 225/665/278 224/664/263
f 223/663/265 226/666/266 225/665/278
f 226/666/266 227/667/262 225/665/278
f 226/666/266 228/668/267 227/667/262
f 228/668/267 229/669/261 227/667/262
f 228/668/267 230/670/268 229/669/261
f 230/670/268 231/671/269 229/669/261
f 231/671/269 232/672/260 229/669/261
f 231/671/269 233/673/272 232/672/260
f 233/673/272 234/674/259 232/672/260
f 233/673/272 235/675/271 234/674/259
f 235/675/271 236/676/258 234/674/259
f 235/675/271 237/677/279 236/676/258
f 235/675/271 238/678/273 237/677/279
f 238/678/273 239/679/280 237/677/279
f 238/678/273 240/680/274 239/679/280
f 242/681/197 241/682/281 243/389/282
f 243/389/282 244/388/283 242/681/197
f 246/683/239 245/684/244 247/685/232
f 247/685/232 248/686/233 246/683/239
f 245/687/244 249/688/189 250/689/192
f 250/689/192 247/690/232 245/687/244
f 260/691/211 259/692/223 261/693/221
f 261/693/221 262/438/213 260/691/211
f 272/91/199 241/694/281 242/362/197
f 277/369/206 86/695/225 88/367/204
f 281/372/209 282/696/230 280/370/207
f 283/697/243 268/698/193 270/699/196
f 270/699/196 284/700/231 283/697/243
f 272/701/199 121/702/87 122/703/91
f 122/703/91 86/704/284 272/701/199
f 122/703/91 88/375/285 86/704/284
s 0
f 122/703/285 285/373/285 88/375/285
s 1
f 241/705/281 272/701/199 86/704/284
f 86/704/284 243/706/282 241/705/281
f 242/707/197 244/708/283 85/381/218
f 85/381/218 271/383/198 242/707/197
f 271/383/198 87/382/219 120/385/86
f 120/385/86 119/709/85 271/383/198
f 291/393/226 293/710/236 292/394/227
f 293/710/236 263/711/187 292/394/227
f 293/710/236 286/712/215 263/711/187
f 286/712/215 256/397/183 263/711/187
f 286/712/215 287/395/214 256/397/183
f 287/395/214 294/398/228 255/396/184
f 294/398/228 296/713/234 295/399/229
f 296/713/234 275/714/202 295/399/229
f 296/713/234 282/400/230 275/714/202
f 282/400/230 276/402/203 275/714/202
f 295/412/229 297/715/242 257/410/185
f 290/93/222 259/716/223 260/717/211
f 260/717/211 285/94/210 290/93/222
f 279/415/208 283/718/243 284/413/231
f 119/719/85 121/720/87 272/682/199
f 272/682/199 271/681/198 119/719/85
f 299/418/235 298/721/240 296/416/234
f 86/159/284 85/157/218 244/722/283
f 244/722/283 243/723/282 86/159/284
f 122/724/91 120/725/86 290/692/222
f 290/692/222 285/691/210 122/724/91
f 273/726/201 297/727/242 295/728/229
f 295/728/229 275/729/202 273/726/201
f 299/427/235 294/730/228 287/425/214
f 253/731/181 292/732/227 301/733/241
f 301/733/241 254/734/182 253/731/181
f 291/430/226 277/735/206 278/428/205
f 282/435/230 296/736/234 298/433/240
s 0
f 88/438/286 87/693/286 252/436/286
s 1
f 252/436/179 254/737/182 278/437/205
f 254/737/182 302/441/238 278/437/205
f 254/737/182 301/439/241 302/441/238
f 301/439/241 264/442/188 300/440/237
f 257/446/185 299/448/235 289/445/217
f 297/447/242 298/450/240 299/448/235
f 273/449/201 274/452/200 280/451/207
f 274/452/200 265/454/190 279/453/208
f 245/458/244 267/460/194 268/457/193
f 264/463/188 301/738/241 292/461/227
f 293/466/236 291/739/226 302/464/238
f 85/92/224 251/740/180 252/741/179
f 252/741/179 87/93/53 85/92/224
f 265/742/190 274/743/200 276/744/203
f 276/744/203 266/745/191 265/742/190
f 214/746/171 216/747/173 17/12/13
f 17/12/13 18/9/12 214/746/171
f 15/10/10 13/9/9 239/748/280
f 239/748/280 240/749/274 15/10/10
f 94/586/147 215/750/172 213/751/170
f 213/751/170 93/90/134 94/586/147
f 190/752/159 82/90/52 84/89/51
f 84/89/51 189/753/160 190/752/159
f 212/754/168 214/755/171 18/188/12
f 18/188/12 145/187/112 212/754/168
f 210/756/169 212/757/168 145/192/112
f 145/192/112 146/191/113 210/756/169
f 208/758/246 210/759/169 146/608/113
f 146/608/113 147/196/114 208/758/246
f 147/198/114 148/197/115 206/467/245
f 148/471/115 149/610/117 204/469/247
f 151/475/119 200/760/277 202/474/248
f 200/761/277 151/208/119 152/207/118
f 152/207/118 198/762/249 200/761/277
f 198/477/249 152/209/118 153/212/120
f 196/763/166 153/213/120 154/615/122
f 154/615/122 194/764/164 196/763/166
f 155/217/121 192/765/162 194/478/164
f 192/766/162 155/219/121 82/617/52
f 82/617/52 190/767/159 192/766/162
f 189/768/160 84/224/51 156/223/123
f 156/223/123 191/769/161 189/768/160
f 191/770/161 156/225/123 157/228/124
f 157/228/124 193/771/163 191/770/161
f 193/772/163 157/229/124 158/619/126
f 158/619/126 195/773/165 193/772/163
f 195/774/165 158/234/126 159/233/125
f 159/233/125 197/775/251 195/774/165
f 197/481/251 159/235/125 160/479/129
f 203/776/254 201/777/252 161/623/128
f 161/623/128 162/622/131 203/776/254
f 163/245/130 164/244/132 207/486/255
f 164/248/132 165/247/133 209/488/256
f 166/496/257 93/252/134 213/494/170
f 13/255/9 167/254/135 237/778/279
f 237/778/279 239/779/280 13/255/9
f 236/497/258 237/780/279 167/259/135
f 168/263/136 169/262/137 234/498/259
f 169/267/137 170/266/138 232/500/260
f 225/781/278 227/782/262 172/278/140
f 172/278/140 173/277/141 225/781/278
f 224/507/263 225/783/278 173/506/141
f 174/284/142 175/283/143 222/508/264
f 220/784/177 222/785/264 175/634/143
f 175/634/143 176/633/145 220/784/177
f 218/510/175 220/786/177 176/287/145
f 216/513/173 218/787/175 177/511/144
f 217/514/174 215/788/172 94/291/147
f 178/517/146 179/639/149 219/515/176
f 180/299/148 181/298/150 223/520/265
f 226/522/266 223/789/265 181/303/150
f 186/532/270 233/790/272 231/530/269
f 235/538/271 187/318/158 188/317/157
usemtl metalDark.009
f 45/42/25 30/24/25 31/23/25
f 31/23/25 33/26/25 45/42/25
f 33/26/25 53/45/25 45/42/25
f 33/26/25 34/27/25 53/45/25
f 34/27/25 54/46/25 53/45/25
f 34/27/25 35/28/25 54/46/25
f 35/28/25 55/47/25 54/46/25
f 35/28/25 36/29/25 55/47/25
f 36/29/25 56/48/25 55/47/25
f 36/29/25 37/32/25 56/48/25
f 37/32/25 57/49/25 56/48/25
f 37/32/25 39/31/25 57/49/25
f 40/33/25 41/34/25 50/40/25
f 41/34/25 49/39/25 50/40/25
f 41/34/25 42/541/25 49/39/25
f 42/541/25 48/38/25 49/39/25
f 39/31/25 51/41/25 57/49/25
f 39/31/25 40/33/25 51/41/25
f 40/33/25 50/40/25 51/41/25
f 42/541/25 47/35/25 48/38/25
f 42/541/25 43/548/25 47/35/25
f 43/548/25 44/36/25 47/35/25
