# Blender 4.3.2
# www.blender.org
mtllib bathroomCabinetDrawer.mtl
o bathroomCabinetDrawer
v -0.026844 0.400000 -0.210699
v -0.026844 0.150000 -0.210699
v -0.403156 0.400000 -0.210699
v -0.403156 0.150000 -0.210699
v -0.026844 0.150000 -0.237543
v -0.026844 0.400000 -0.237543
v -0.403156 0.150000 -0.237543
v -0.403156 0.400000 -0.237543
v -0.026844 0.150000 -0.363156
v -0.026844 0.400000 -0.363156
v -0.403156 0.400000 -0.085086
v -0.026844 0.400000 -0.085086
v -0.403156 0.150000 -0.085086
v 0.000000 0.150000 -0.058242
v 0.000000 0.450000 -0.058242
v 0.000000 0.150000 -0.390000
v 0.000000 0.450000 -0.390000
v -0.403156 0.400000 -0.363156
v -0.430000 0.450000 -0.058242
v -0.430000 0.450000 -0.390000
v -0.403156 0.150000 -0.363156
v -0.026844 0.150000 -0.085086
v -0.430000 0.150000 -0.390000
v -0.430000 0.150000 -0.058242
v 0.000000 0.150000 -0.460000
v -0.430000 0.150000 -0.460000
v -0.061028 0.193920 -0.400000
v -0.061028 0.376080 -0.400000
v -0.368972 0.193920 -0.400000
v -0.205000 0.314098 -0.400000
v -0.200858 0.317276 -0.400000
v -0.197680 0.321418 -0.400000
v -0.195681 0.326242 -0.400000
v -0.195000 0.331418 -0.400000
v -0.209824 0.312100 -0.400000
v -0.215000 0.311418 -0.400000
v -0.220176 0.312100 -0.400000
v -0.225000 0.314098 -0.400000
v -0.229142 0.317276 -0.400000
v -0.232321 0.321418 -0.400000
v -0.234318 0.326242 -0.400000
v -0.235000 0.331418 -0.400000
v -0.195681 0.336594 -0.400000
v -0.197680 0.341418 -0.400000
v -0.368972 0.376080 -0.400000
v -0.234318 0.336594 -0.400000
v -0.232321 0.341418 -0.400000
v -0.229142 0.345560 -0.400000
v -0.225000 0.348739 -0.400000
v -0.220176 0.350737 -0.400000
v -0.215000 0.351418 -0.400000
v -0.209824 0.350737 -0.400000
v -0.205000 0.348739 -0.400000
v -0.200858 0.345560 -0.400000
v -0.043920 0.193920 -0.460000
v -0.386080 0.193920 -0.460000
v -0.386080 0.376080 -0.460000
v -0.043920 0.376080 -0.460000
v -0.200000 0.386080 -0.460000
v -0.230000 0.386080 -0.460000
v -0.230000 0.416080 -0.460000
v -0.200000 0.416080 -0.460000
v 0.000000 0.450000 -0.460000
v -0.430000 0.450000 -0.460000
v -0.200000 0.386080 -0.500000
v -0.230000 0.386080 -0.500000
v -0.200000 0.416080 -0.500000
v -0.230000 0.416080 -0.500000
v -0.170000 0.416080 -0.480000
v -0.200000 0.416080 -0.480000
v -0.170000 0.416080 -0.500000
v -0.230000 0.416080 -0.480000
v -0.260000 0.416080 -0.480000
v -0.260000 0.416080 -0.500000
v -0.170000 0.386080 -0.480000
v -0.170000 0.386080 -0.500000
v -0.200000 0.318316 -0.528978
v -0.200000 0.322164 -0.529743
v -0.230000 0.318316 -0.528978
v -0.230000 0.322164 -0.529743
v -0.200000 0.386080 -0.480000
v -0.230000 0.298364 -0.511481
v -0.200000 0.298364 -0.511481
v -0.230000 0.300099 -0.515000
v -0.200000 0.300099 -0.515000
v -0.200000 0.307817 -0.523801
v -0.200000 0.311080 -0.525981
v -0.230000 0.307817 -0.523801
v -0.230000 0.311080 -0.525981
v -0.230000 0.296080 -0.500000
v -0.200000 0.296080 -0.500000
v -0.230000 0.296337 -0.503916
v -0.200000 0.296337 -0.503916
v -0.230000 0.302280 -0.518263
v -0.200000 0.302280 -0.518263
v -0.260000 0.386080 -0.480000
v -0.260000 0.386080 -0.500000
v -0.200000 0.326080 -0.530000
v -0.230000 0.326080 -0.530000
v -0.230000 0.297103 -0.507765
v -0.230000 0.304867 -0.521213
v -0.230000 0.314600 -0.527716
v -0.230000 0.386080 -0.530000
v -0.230000 0.389996 -0.529743
v -0.230000 0.393845 -0.528978
v -0.230000 0.397561 -0.527716
v -0.230000 0.401080 -0.525981
v -0.230000 0.404343 -0.523801
v -0.230000 0.407293 -0.521213
v -0.230000 0.409881 -0.518263
v -0.230000 0.412061 -0.515000
v -0.230000 0.413797 -0.511481
v -0.230000 0.415058 -0.507765
v -0.230000 0.415824 -0.503916
v -0.200000 0.304867 -0.521213
v -0.200000 0.397561 -0.527716
v -0.200000 0.401080 -0.525981
v -0.200000 0.413797 -0.511481
v -0.200000 0.412061 -0.515000
v -0.200000 0.297103 -0.507765
v -0.200000 0.314600 -0.527716
v -0.200000 0.386080 -0.530000
v -0.200000 0.389996 -0.529743
v -0.200000 0.393845 -0.528978
v -0.200000 0.404343 -0.523801
v -0.200000 0.407293 -0.521213
v -0.200000 0.409881 -0.518263
v -0.200000 0.415058 -0.507765
v -0.200000 0.415824 -0.503916
v -0.230000 0.386080 -0.480000
v -0.382814 0.170342 -0.210699
v -0.382814 0.170342 -0.100699
v -0.382814 0.379658 -0.210699
v -0.382814 0.379658 -0.100699
v -0.047186 0.379658 -0.100699
v -0.047186 0.379658 -0.210699
v -0.047186 0.170342 -0.100699
v -0.047186 0.170342 -0.210699
v -0.275000 0.150000 -0.137892
v -0.275000 0.150000 -0.157892
v -0.262390 0.150000 -0.157892
v -0.167609 0.150000 -0.157892
v -0.155000 0.150000 -0.157892
v -0.155000 0.150000 -0.137892
v -0.262390 0.150000 -0.137892
v -0.167609 0.150000 -0.137892
v -0.262390 0.142610 -0.137892
v -0.275000 0.130000 -0.137892
v -0.167609 0.142610 -0.137892
v -0.155000 0.130000 -0.137892
v -0.155000 0.130000 -0.157892
v -0.167609 0.142610 -0.157892
v -0.275000 0.130000 -0.157892
v -0.262390 0.142610 -0.157892
v -0.026844 0.150000 -0.363156
v -0.026844 0.400000 -0.363156
v -0.382814 0.170342 -0.363156
v -0.382814 0.170342 -0.253156
v -0.382814 0.379658 -0.363156
v -0.382814 0.379658 -0.253156
v -0.047186 0.379658 -0.253156
v -0.047186 0.379658 -0.363156
v -0.403156 0.150000 -0.363156
v -0.403156 0.400000 -0.363156
v -0.047186 0.170342 -0.253156
v -0.047186 0.170342 -0.363156
v -0.275000 0.150000 -0.290349
v -0.275000 0.150000 -0.310349
v -0.262390 0.150000 -0.310349
v -0.167609 0.150000 -0.310349
v -0.155000 0.150000 -0.310349
v -0.155000 0.150000 -0.290349
v -0.262390 0.150000 -0.290349
v -0.167609 0.150000 -0.290349
v -0.262390 0.142610 -0.290349
v -0.275000 0.130000 -0.290349
v -0.167609 0.142610 -0.290349
v -0.155000 0.130000 -0.290349
v -0.155000 0.130000 -0.310349
v -0.167609 0.142610 -0.310349
v -0.275000 0.130000 -0.310349
v -0.262390 0.142610 -0.310349
vn -0.0000 -0.0000 1.0000
vn -0.7071 -0.7071 -0.0000
vn -0.5774 -0.5774 0.5774
vn -0.3015 -0.9045 0.3015
vn -0.0000 -1.0000 -0.0000
vn 1.0000 -0.0000 -0.0000
vn 0.5774 0.5773 0.5773
vn 0.5773 -0.5774 0.5773
vn 0.7071 -0.7071 -0.0000
vn 0.7071 0.7071 -0.0000
vn 0.5773 -0.5773 0.5774
vn -0.5774 0.5774 0.5773
vn -0.7071 0.7071 -0.0000
vn -1.0000 -0.0000 -0.0000
vn -0.0000 -0.0000 -1.0000
vn -0.5773 -0.5774 0.5773
vn 0.3162 -0.9487 -0.0000
vn -0.3162 -0.9487 -0.0000
vn 0.5773 -0.5773 -0.5774
vn 0.4849 0.5934 -0.6425
vn -0.4849 -0.5934 -0.6425
vn 0.4849 -0.5934 -0.6424
vn 0.2739 -0.2345 -0.9327
vn -0.2740 -0.2345 -0.9327
vn -0.2739 0.2345 -0.9327
vn -0.4849 0.5934 -0.6425
vn -0.3015 0.3015 -0.9045
vn -0.5774 0.5774 -0.5774
vn 0.5774 0.5774 -0.5773
vn -0.5773 -0.5774 -0.5774
vn 0.2740 0.2345 -0.9327
vn 0.0001 -0.0002 -1.0000
vn 0.3015 0.9045 0.3015
vn 0.5773 0.5773 0.5774
vn 0.5774 0.5773 -0.5774
vn -0.3015 0.9045 0.3015
vn -0.0000 0.8944 -0.4472
vn -0.5774 0.5773 0.5774
vn 0.3015 0.3015 -0.9045
vn 0.5774 -0.5773 -0.5774
vn 0.3015 -0.3015 -0.9045
vn 0.6548 -0.6983 -0.2892
vn -0.6934 -0.6444 -0.3223
vn -0.6556 -0.6585 -0.3696
vn 0.6934 -0.6479 -0.3152
vn 0.6935 -0.4028 -0.5974
vn 0.6554 -0.4598 -0.5992
vn -0.6560 -0.4523 -0.6042
vn -0.6556 -0.3776 -0.6540
vn -0.8944 -0.0000 0.4472
vn -0.6934 -0.7075 -0.1365
vn -0.7285 -0.6783 -0.0958
vn -0.6934 -0.6012 -0.3972
vn -0.6934 -0.5486 -0.4671
vn -0.6934 -0.3212 -0.6450
vn -0.6934 -0.2339 -0.6815
vn -0.6934 -0.1427 -0.7062
vn -0.7000 -0.0427 -0.7129
vn -0.6919 0.7205 -0.0472
vn -0.7169 0.0239 -0.6968
vn -0.6934 0.0445 -0.7191
vn -0.6934 0.1480 -0.7052
vn -0.6934 0.2227 -0.6853
vn -0.6934 0.3168 -0.6471
vn -0.6934 0.4815 -0.5360
vn -0.7033 0.4686 -0.5346
vn -0.6935 0.6820 -0.2322
vn -0.6966 0.6796 -0.2299
vn 0.6934 -0.5374 -0.4800
vn 0.6556 -0.5934 -0.4669
vn 0.6569 0.3693 -0.6573
vn 0.3015 -0.9045 0.3015
vn 0.5774 -0.5774 0.5774
vn 0.6570 0.6529 -0.3769
vn -0.6934 0.6467 -0.3177
vn 0.8944 -0.0000 0.4472
vn 0.5740 -0.5977 0.5597
vn 0.7285 -0.6783 -0.0958
vn 0.7276 -0.6592 -0.1898
vn 0.7117 -0.2299 -0.6638
vn 0.7089 -0.1400 -0.6912
vn 0.7062 -0.0474 -0.7064
vn 0.7064 0.0021 -0.7078
vn 0.7062 0.0371 -0.7070
vn 0.6919 0.7205 -0.0472
vn 0.7105 0.1339 -0.6909
vn 0.7108 0.2300 -0.6648
vn 0.7040 0.3044 -0.6416
vn 0.7032 0.4686 -0.5346
vn 0.6469 0.7561 -0.0995
vn -0.6934 0.7198 -0.0326
vn 0.6579 0.7296 -0.1866
vn -0.3015 -0.3015 -0.9045
vn -0.5773 -0.5773 0.5774
vn -0.0000 1.0000 -0.0000
vn -0.5740 -0.5977 0.5598
vn -0.5773 -0.5773 -0.5774
vn -0.6934 0.5408 -0.4761
vn 0.6935 0.6458 -0.3195
vn 0.7027 0.5396 -0.4637
vn 0.6999 0.5942 -0.3964
vn -0.0000 -0.8944 -0.4472
vn 0.0749 -0.9972 -0.0000
vn 0.5462 0.7894 0.2802
vn -0.0000 0.5547 0.8321
vn -0.0000 0.7071 0.7071
vn 0.4851 0.4851 0.7276
vn -0.5547 -0.0000 0.8320
vn -0.6124 -0.0000 0.7906
vn 0.7071 -0.0000 0.7071
vn 0.7600 -0.0000 0.6500
vn -0.0000 -0.9972 0.0742
vn 0.4083 -0.8165 0.4083
vn 0.6024 -0.0000 -0.7982
vn -0.0883 0.3918 -0.9158
vn -0.0000 0.5547 -0.8320
vn -0.3162 -0.0000 -0.9487
vn -0.1034 -0.0000 -0.9946
vn -0.0000 -0.7071 -0.7071
vn -0.0000 -0.9895 -0.1445
vn -0.0000 -0.9779 -0.2092
vn -0.4443 -0.7780 -0.4443
vn 0.3095 -0.9285 -0.2050
vn -0.5690 0.8223 -0.0000
vn 0.7996 0.6006 -0.0000
vn -0.4851 -0.4851 -0.7276
vn -0.7071 -0.0000 -0.7071
vn -0.0000 0.9972 -0.0742
vn -0.0000 0.8944 0.4472
vn -0.0000 0.9972 0.0742
vn -0.4851 -0.4851 0.7276
vn -0.9414 -0.0000 0.3372
vn 0.6403 -0.6403 0.4242
vn 0.8944 -0.0000 -0.4472
vn -0.9415 -0.0000 -0.3371
vt -15.872280 15.748030
vt -15.872280 5.905512
vt -1.056858 5.905512
vt 15.748030 9.352088
vt 15.748030 14.297470
vt 5.905512 14.297470
vt 15.872280 8.295230
vt 1.056858 8.295230
vt 1.056858 3.349844
vt -5.905512 3.349844
vt -5.905512 8.295230
vt -15.748030 8.295230
vt -15.748030 3.349844
vt -17.716539 2.292987
vt -5.905512 2.292987
vt -5.905512 15.354330
vt -17.716539 15.354330
vt 1.056858 9.352088
vt 15.872280 9.352088
vt 15.872280 14.297470
vt 1.056858 14.297470
vt -16.929131 2.292987
vt 0.000000 2.292987
vt 0.000000 15.354330
vt -16.929131 15.354330
vt 5.905512 8.295230
vt 5.905512 3.349844
vt 15.748030 3.349844
vt 15.748030 8.295230
vt 0.000000 17.716539
vt 0.000000 5.905512
vt 16.929131 5.905512
vt 16.929131 17.716539
vt 17.716539 2.292987
vt 17.716539 15.354330
vt 5.905512 15.354330
vt 0.000000 5.905512
vt 0.000000 17.716539
vt -16.929131 17.716539
vt -16.929131 5.905512
vt 15.872280 3.349844
vt -0.000000 2.292987
vt 16.929131 2.292987
vt 16.929131 15.354330
vt -0.000000 15.354330
vt -0.000000 18.110241
vt 14.526470 7.634636
vt 8.070867 12.366050
vt 2.402669 14.806310
vt 7.907790 12.491180
vt 8.260773 12.287390
vt 9.251968 13.047960
vt 9.225139 12.844160
vt 7.703995 13.251750
vt 7.782657 13.441660
vt 14.526470 14.806310
vt 8.070867 13.729870
vt 8.260773 13.808530
vt 7.907790 13.604740
vt 2.402669 15.748030
vt 14.526470 15.748030
vt 15.200010 18.110241
vt 1.729125 18.110241
vt 7.634636 16.941959
vt 7.634636 14.485610
vt 14.806310 14.485610
vt 9.055119 16.381109
vt 15.200010 14.806310
vt 1.729125 7.634636
vt 15.200010 7.634636
vt 0.000000 18.110241
vt -16.929131 18.110241
vt -5.905512 18.110241
vt -17.716539 18.110241
vt 8.464567 12.260560
vt 8.464567 13.835360
vt 8.668362 12.287390
vt 8.668362 13.808530
vt 8.858268 12.366050
vt 8.858268 13.729870
vt 9.021344 12.491180
vt 9.021344 13.604740
vt 9.146477 12.654260
vt 9.146477 13.441660
vt 9.225139 13.251750
vt -7.874016 18.897640
vt -6.692914 18.897640
vt -6.692914 19.685040
vt -9.055119 18.897640
vt -7.874016 19.685040
vt -10.236220 19.685040
vt -10.236220 18.897640
vt -9.055119 18.110241
vt -7.874016 18.110241
vt -15.200010 19.685040
vt -16.381109 19.685040
vt -16.381109 18.897640
vt -16.381109 18.110241
vt -15.200010 18.110241
vt 7.874016 23.255739
vt 9.055119 23.255739
vt 9.055119 23.410240
vt 7.874016 23.410240
vt 7.874016 21.687910
vt 7.874016 21.533421
vt 9.055119 21.533421
vt 9.055119 21.687910
vt 15.200010 19.685040
vt 11.696950 19.990730
vt 11.666810 19.839199
vt 11.746610 20.137030
vt 11.814940 20.275591
vt 11.900770 20.404051
vt 12.002640 20.520201
vt 12.385820 20.776239
vt 12.247250 20.707899
vt 12.532110 20.825899
vt 12.683640 20.856039
vt 12.837800 20.866140
vt 16.381109 19.685040
vt 15.200010 20.866140
vt 15.354170 20.856039
vt 15.505700 20.825899
vt 15.652000 20.776239
vt 15.790560 20.707899
vt 16.035179 20.520201
vt 15.919020 20.622070
vt 16.340870 19.990730
vt 16.291210 20.137030
vt 9.055119 23.341801
vt 7.874016 23.341801
vt 7.874016 23.187300
vt -9.055119 -4.848756
vt -9.055119 -5.003252
vt -7.874016 -5.003252
vt -7.874016 15.200010
vt -6.692914 15.200010
vt -6.692914 16.381109
vt -7.874016 11.009430
vt -9.055119 11.009430
vt -9.055119 10.854940
vt 6.692914 16.381109
vt 6.692914 15.200010
vt 7.874016 15.200010
vt 7.874016 16.381109
vt -11.656700 19.685040
vt -11.666810 19.839199
vt -11.696950 19.990730
vt -11.746610 20.137030
vt -11.814940 20.275591
vt -11.900770 20.404051
vt -12.002640 20.520201
vt -12.118800 20.622070
vt -12.247250 20.707899
vt -12.385820 20.776239
vt -12.532110 20.825899
vt -12.683640 20.856039
vt -12.837800 20.866140
vt -15.200010 20.866140
vt -15.354170 20.856039
vt -15.505700 20.825899
vt -15.652000 20.776239
vt -15.790560 20.707899
vt -15.919020 20.622070
vt 7.874016 22.689690
vt 9.055119 22.689690
vt 9.055119 22.844179
vt 7.874016 22.844179
vt -9.055119 -13.802750
vt -9.055119 -13.957250
vt -7.874016 -13.957250
vt 7.874016 18.561300
vt 7.874016 18.406811
vt 9.055119 18.406811
vt 9.055119 18.561300
vt -7.874016 18.726009
vt -9.055119 18.726009
vt -9.055119 18.571520
vt -9.055119 16.264170
vt -7.874016 16.264170
vt -7.874016 16.418671
vt 7.874016 18.110241
vt 9.055119 18.110241
vt 9.055119 18.897640
vt 6.692914 19.685040
vt 9.055119 19.685040
vt 7.874016 19.685040
vt -10.236220 15.200010
vt -9.055119 15.200010
vt -9.055119 16.381109
vt -10.236220 16.381109
vt -7.874016 11.656700
vt 7.874016 21.734079
vt 9.055119 21.734079
vt 9.055119 21.888580
vt 7.874016 21.888580
vt -1.056858 15.748030
vt 1.056858 15.748030
vt 1.056858 5.905512
vt 15.872280 5.905512
vt 15.872280 15.748030
vt 5.905512 9.352088
vt 5.905512 2.292987
vt -5.905512 9.352088
vt -5.905512 14.297470
vt -15.748030 14.297470
vt -15.748030 9.352088
vt 16.929131 18.110241
vt 2.402669 7.634636
vt 7.782657 12.654260
vt 7.703995 12.844160
vt 7.677166 13.047960
vt -14.526470 15.748030
vt -2.402669 15.748030
vt -1.729125 18.110241
vt -7.634636 19.127661
vt -7.634636 21.584009
vt -14.806310 21.584009
vt -14.806310 19.127661
vt 14.806310 16.941959
vt 1.729125 14.806310
vt 9.055119 15.200010
vt 5.905512 18.110241
vt 17.716539 18.110241
vt -7.874016 16.381109
vt -9.055119 19.685040
vt -15.200010 18.897640
vt 7.874016 16.508739
vt 7.874016 16.354240
vt 9.055119 16.354240
vt 9.055119 16.508739
vt 7.874016 20.405279
vt 9.055119 20.405279
vt 9.055119 20.559771
vt 7.874016 20.559771
vt 7.874016 23.422569
vt 9.055119 23.422569
vt 9.055119 23.577061
vt 7.874016 23.577061
vt 15.200010 18.897640
vt 16.381109 18.897640
vt 7.874016 14.175030
vt 7.874016 14.020530
vt 9.055119 14.020530
vt 9.055119 14.175030
vt 11.656700 19.685040
vt 12.118800 20.622070
vt 16.137039 20.404051
vt 16.222870 20.275591
vt 16.371010 19.839199
vt 9.055119 23.187300
vt -7.874016 -4.848756
vt -7.874016 10.854940
vt -16.035179 20.520201
vt -16.137039 20.404051
vt -16.222870 20.275591
vt -16.291210 20.137030
vt -16.340870 19.990730
vt -16.371010 19.839199
vt -7.874016 -1.779172
vt -7.874016 -1.624676
vt -9.055119 -1.624676
vt -9.055119 -1.779172
vt 7.874016 22.708469
vt 7.874016 22.553970
vt 9.055119 22.553970
vt 9.055119 22.708469
vt -7.874016 -13.802750
vt 16.381109 18.110241
vt 7.874016 20.297600
vt 7.874016 20.143101
vt 9.055119 20.143101
vt 9.055119 20.297600
vt -7.874016 18.571520
vt -9.055119 13.677230
vt -7.874016 13.677230
vt -7.874016 13.831720
vt -9.055119 13.831720
vt -9.055119 16.418671
vt -9.055119 7.845592
vt -7.874016 7.845592
vt -7.874016 8.000087
vt -9.055119 8.000087
vt -9.055119 4.700686
vt -7.874016 4.700686
vt -7.874016 4.855182
vt -9.055119 4.855182
vt 7.874016 18.897640
vt 6.692914 18.897640
vt 10.236220 18.897640
vt 10.236220 19.685040
vt -7.874016 -11.144830
vt -7.874016 -10.990340
vt -9.055119 -10.990340
vt -9.055119 -11.144830
vt -7.874016 1.474028
vt -7.874016 1.628524
vt -9.055119 1.628524
vt -9.055119 1.474028
vt 10.236220 15.200010
vt 10.236220 16.381109
vt 7.874016 12.837800
vt 9.055119 12.837800
vt -9.055119 11.656700
vt -9.055119 -8.143046
vt -7.874016 -8.143046
vt -7.874016 -7.988551
vt -9.055119 -7.988551
vt -9.842520 4.945385
vt -9.842520 0.000000
vt 0.000000 0.000000
vt -9.041656 4.945385
vt -9.041656 0.614677
vt -0.800864 0.614677
vt 0.800864 0.800864
vt 0.000000 9.842520
vt 14.815420 0.000000
vt 0.800864 9.041656
vt 14.014550 9.041656
vt 14.815420 9.842520
vt -14.815420 9.842520
vt -14.815420 0.000000
vt 14.815420 4.945385
vt 9.769914 2.078992
vt 9.769914 2.866394
vt 9.273479 2.866394
vt 5.541941 2.866394
vt 5.045505 2.866394
vt 5.045505 2.078992
vt 0.000000 4.945385
vt 9.273479 2.078992
vt 5.541941 2.078992
vt -0.800864 4.945385
vt 0.800864 0.614677
vt 14.014550 4.945385
vt 14.014550 0.614677
vt 0.800864 4.945385
vt 9.842520 0.000000
vt 9.842520 4.945385
vt -14.815420 4.945385
vt 14.014550 0.800864
vt 9.041656 0.614677
vt 9.041656 4.945385
vt -9.273479 -0.290966
vt -9.769914 0.000000
vt -9.273479 0.000000
vt -5.541941 -0.290966
vt -9.769914 -0.787402
vt -5.541941 0.000000
vt -5.045505 -0.787402
vt -0.000000 2.866394
vt 0.787402 2.078992
vt -0.000000 2.078992
vt 9.769914 -0.787402
vt 9.273479 -0.290966
vt 9.273479 0.000000
vt 9.769914 0.000000
vt 5.045505 0.000000
vt 5.541941 0.000000
vt 5.541941 -0.290966
vt 0.290966 2.078992
vt -0.000000 2.866394
vt 0.290966 2.866394
vt -0.787402 2.866394
vt 0.000000 2.078992
vt -0.787402 2.078992
vt 0.000000 2.866394
vt 0.000000 2.078992
vt -0.290966 2.866394
vt 0.000000 2.866394
vt -5.045505 0.000000
vt 0.787402 2.866394
vt 5.045505 -0.787402
vt -0.000000 2.078992
vt -0.290966 2.078992
vt -9.273479 2.078992
vt -5.541941 2.078992
vt -5.541941 2.866394
vt -9.273479 2.866394
s 1
usemtl wood.023
f 3/1/1 4/2/1 2/3/1
f 6/4/2 10/5/3 9/6/4
f 3/7/5 1/8/5 12/9/5
f 13/10/6 4/11/6 3/12/6
f 3/12/6 11/13/6 13/10/6
f 15/14/7 14/15/8 16/16/9
f 16/16/9 17/17/10 15/14/7
f 6/18/2 8/19/9 18/20/11
f 18/20/11 10/21/3 6/18/2
f 19/22/12 15/23/7 17/24/10
f 17/24/10 20/25/13 19/22/12
f 2/26/14 22/27/14 12/28/14
f 12/28/14 1/29/14 2/26/14
f 17/30/15 16/31/15 23/32/15
f 23/32/15 20/33/15 17/30/15
f 19/34/12 20/35/13 23/36/2
f 14/37/8 15/38/7 19/39/12
f 19/39/12 24/40/16 14/37/8
f 13/41/5 14/42/8 24/43/16
f 24/43/16 23/44/2 13/41/5
f 23/44/2 7/19/17 4/7/5
f 23/44/2 16/45/9 9/21/4
f 22/9/5 16/45/9 14/42/8
f 14/42/8 13/41/5 22/9/5
f 22/9/5 2/8/5 16/45/9
f 2/8/5 5/18/18 16/45/9
f 2/8/5 7/19/17 5/18/18
f 2/3/1 1/197/1 3/1/1
f 6/198/15 5/199/15 7/200/15
f 7/200/15 8/201/15 6/198/15
f 9/6/4 5/202/18 6/4/2
f 12/9/5 11/41/5 3/7/5
f 9/3/4 10/197/3 18/1/11
f 18/1/11 21/2/72 9/3/4
f 12/198/15 22/199/15 13/200/15
f 13/200/15 11/201/15 12/198/15
f 23/36/2 24/203/16 19/34/12
f 7/204/17 21/205/72 18/206/11
f 18/206/11 8/207/9 7/204/17
f 23/44/2 4/7/5 13/41/5
f 7/19/17 2/8/5 4/7/5
f 23/44/2 21/20/72 7/19/17
f 23/44/2 9/21/4 21/20/72
f 5/18/18 9/21/4 16/45/9
f 1/309/6 12/310/6 22/311/6
f 133/312/6 134/313/6 132/314/6
f 138/315/15 1/316/15 2/311/15
f 2/311/15 4/317/15 138/315/15
f 1/316/15 138/315/15 136/318/15
f 133/319/15 4/317/15 3/320/15
f 22/311/1 12/316/1 11/321/1
f 11/321/1 13/322/1 22/311/1
f 13/317/5 4/323/5 139/324/5
f 4/323/5 140/325/5 139/324/5
f 4/323/5 141/326/103 140/325/5
f 4/323/5 142/327/5 141/326/103
f 4/323/5 143/328/5 142/327/5
f 22/311/5 139/324/5 144/329/5
f 144/329/5 143/328/5 2/330/5
f 143/328/5 4/323/5 2/330/5
s 0
f 144/329/5 139/324/5 145/331/5
f 145/331/5 146/332/5 144/329/5
s 1
f 145/331/9 141/326/103 146/332/5
f 141/326/103 142/327/5 146/332/5
f 156/309/6 6/310/6 5/311/6
f 158/314/6 157/333/6 159/312/6
f 158/341/15 160/319/15 161/318/15
f 166/337/14 165/334/14 161/342/14
f 161/342/14 162/343/117 166/337/118
f 166/315/118 156/316/15 155/311/119
f 155/311/119 163/317/120 166/315/118
f 156/316/15 166/315/118 162/318/117
f 162/318/117 164/320/15 156/316/15
f 162/318/117 159/319/15 164/320/15
f 159/319/15 163/317/15 164/320/15
f 8/321/1 7/322/1 5/311/1
f 167/324/5 5/311/5 7/317/5
f 163/323/120 169/326/121 168/325/122
f 163/323/120 170/327/5 169/326/121
f 163/323/120 171/328/123 170/327/5
f 5/311/5 167/324/5 172/329/72
f 172/329/72 155/330/119 5/311/5
f 172/329/72 171/328/123 155/330/119
f 171/328/123 163/323/120 155/330/119
s 0
f 173/331/5 174/332/5 172/329/5
s 1
f 173/331/5 169/326/121 174/332/5
f 169/326/121 170/327/5 174/332/5
usemtl carpetWhite.007
f 25/46/19 16/45/9 23/44/2
f 29/47/20 30/48/15 28/49/21
f 30/48/15 31/50/15 28/49/21
f 29/47/20 35/51/15 30/48/15
f 29/47/20 42/52/15 41/53/15
f 28/49/21 43/54/15 44/55/15
f 42/52/15 29/47/20 45/56/22
f 28/49/21 53/57/15 52/58/15
f 28/49/21 54/59/15 53/57/15
f 28/60/21 45/61/22 57/62/23
f 57/62/23 58/63/24 28/60/21
f 55/64/25 27/65/26 28/66/21
f 61/67/27 57/68/23 64/33/28
f 55/69/25 63/38/29 25/37/19
f 25/37/19 26/32/30 55/69/25
f 57/68/23 26/32/30 64/33/28
f 26/32/30 56/70/31 55/69/25
f 20/25/13 17/24/10 63/71/29
f 63/71/29 64/72/28 20/25/13
f 17/17/10 16/16/9 25/73/19
f 25/73/19 63/74/29 17/17/10
f 23/44/2 26/208/30 25/46/19
f 28/49/21 27/209/26 29/47/20
f 31/50/15 32/210/15 28/49/21
f 32/210/15 33/211/15 28/49/21
f 33/211/15 34/212/15 28/49/21
f 29/47/20 36/75/15 35/51/15
f 29/47/20 37/77/15 36/75/15
f 29/47/20 38/79/15 37/77/15
f 29/47/20 39/81/15 38/79/15
f 29/47/20 40/83/15 39/81/15
f 29/47/20 41/53/15 40/83/15
f 28/49/21 34/212/15 43/54/15
f 46/85/15 42/52/15 45/56/22
f 47/84/15 46/85/15 45/56/22
f 48/82/15 47/84/15 45/56/22
f 49/80/15 48/82/15 45/56/22
f 50/78/15 49/80/15 45/56/22
f 51/76/32 50/78/15 45/56/22
f 52/58/15 51/76/32 45/56/22
f 52/58/15 45/56/22 28/49/21
f 28/49/21 44/55/15 54/59/15
f 29/213/20 27/214/26 55/215/25
f 55/215/25 56/99/31 29/213/20
f 29/216/20 56/217/31 57/218/23
f 57/218/23 45/219/22 29/216/20
f 28/66/21 58/220/24 55/64/25
f 59/144/41 58/221/24 57/68/23
f 57/68/23 60/222/93 59/144/41
f 57/68/23 61/67/27 60/222/93
f 58/221/24 59/144/41 62/145/39
f 63/38/29 58/221/24 62/145/39
f 62/145/39 64/33/28 63/38/29
f 62/145/39 61/67/27 64/33/28
f 63/38/29 55/69/25 58/221/24
f 26/32/30 57/68/23 56/70/31
f 26/223/30 23/36/2 20/35/13
f 20/35/13 64/224/28 26/223/30
f 66/189/1 65/136/1 67/225/1
f 67/225/1 68/190/1 66/189/1
f 22/311/14 1/309/14 2/330/14
f 132/314/14 133/312/14 131/333/14
f 135/334/104 133/335/105 134/336/106
f 133/335/105 135/334/104 136/337/107
f 4/330/6 11/338/6 13/311/6
f 11/338/6 4/330/6 3/339/6
f 11/322/5 1/330/5 12/311/5
f 1/330/5 11/322/5 3/340/5
f 135/318/1 132/341/1 137/315/1
f 132/341/1 135/318/104 134/319/106
f 138/337/6 135/342/6 137/334/6
f 135/342/104 138/337/6 136/343/107
f 4/317/1 138/315/1 131/341/1
f 4/317/1 131/341/1 133/319/1
f 136/318/107 1/316/1 3/320/1
f 136/318/107 3/320/1 133/319/105
f 147/344/15 139/345/15 145/346/15
f 149/347/15 148/348/15 147/344/15
f 146/349/15 150/350/15 149/347/15
f 143/351/14 150/352/14 144/353/14
f 153/354/76 154/355/108 141/356/109
f 153/354/76 141/356/109 140/357/110
f 143/358/1 142/359/110 152/360/111
f 147/361/14 141/362/109 154/363/108
f 139/324/95 13/317/95 22/311/95
f 144/329/95 22/311/95 2/330/95
f 153/364/76 139/365/6 148/366/6
f 139/365/6 153/364/76 140/367/110
f 146/368/6 152/369/111 142/370/110
f 5/311/14 156/309/14 155/330/14
f 159/312/124 158/314/14 160/313/13
f 161/334/95 159/335/124 160/336/13
f 159/335/124 161/334/95 162/337/95
f 163/330/125 8/338/9 7/311/125
f 8/338/9 163/330/125 164/339/9
f 8/322/9 156/330/5 6/311/5
f 156/330/5 8/322/9 164/340/9
f 161/318/1 158/341/1 165/315/1
f 163/317/1 166/315/1 157/341/1
f 163/317/1 157/341/1 159/319/1
f 5/311/15 8/321/15 6/316/15
f 175/344/126 167/345/15 173/346/127
f 175/344/126 176/348/15 167/345/15
f 177/347/15 178/350/37 176/348/128
f 179/373/129 180/360/1 181/354/130
f 181/354/1 182/355/131 169/356/132
f 171/358/1 170/359/110 180/360/133
f 175/361/126 169/362/132 182/363/131
f 169/362/132 175/361/126 173/374/127
f 7/317/125 167/324/95 163/323/125
f 163/323/125 167/324/95 168/325/95
s 0
f 172/329/95 173/331/95 167/324/95
s 1
f 180/369/133 174/368/6 177/375/9
f 174/368/6 180/369/133 170/370/110
f 175/376/126 180/378/133 177/377/9
f 180/378/133 175/376/126 182/379/131
f 178/329/37 181/325/130 176/324/128
f 181/325/130 178/329/37 179/328/129
usemtl metalDark.008
f 35/51/15 52/58/15 53/57/15
f 35/51/15 36/75/15 52/58/15
f 36/75/15 51/76/32 52/58/15
f 36/75/15 37/77/15 51/76/32
f 37/77/15 50/78/15 51/76/32
f 37/77/15 38/79/15 50/78/15
f 38/79/15 49/80/15 50/78/15
f 38/79/15 39/81/15 49/80/15
f 39/81/15 48/82/15 49/80/15
f 40/83/15 47/84/15 48/82/15
f 40/83/15 41/53/15 47/84/15
f 41/53/15 42/52/15 46/85/15
f 43/54/15 34/212/15 33/211/15
f 33/211/15 32/210/15 43/54/15
f 32/210/15 44/55/15 43/54/15
f 32/210/15 31/50/15 44/55/15
f 31/50/15 54/59/15 44/55/15
f 31/50/15 30/48/15 54/59/15
f 30/48/15 53/57/15 54/59/15
f 30/48/15 35/51/15 53/57/15
f 39/81/15 40/83/15 48/82/15
f 41/53/15 46/85/15 47/84/15
usemtl metalLight.004
f 70/86/33 69/87/34 71/88/35
f 71/88/35 72/89/36 70/86/33
f 67/90/37 74/91/28 73/92/38
f 70/86/33 72/89/36 61/93/27
f 61/93/27 62/94/39 70/86/33
f 76/95/40 71/96/35 69/97/34
f 70/97/33 62/98/39 59/99/41
f 83/100/42 82/101/43 84/102/44
f 84/102/44 85/103/45 83/100/42
f 87/104/46 86/105/47 88/106/48
f 88/106/48 89/107/49 87/104/46
f 66/108/50 100/109/51 92/110/52
f 66/108/50 82/111/43 100/109/51
f 66/108/50 84/112/44 82/111/43
f 66/108/50 94/113/53 84/112/44
f 66/108/50 101/114/54 94/113/53
f 66/108/50 102/115/55 89/116/49
f 66/108/50 79/117/56 102/115/55
f 66/108/50 80/118/57 79/117/56
f 66/108/50 99/119/58 80/118/57
f 66/108/50 68/120/59 103/121/60
f 68/120/59 104/122/61 103/121/60
f 68/120/59 105/123/62 104/122/61
f 68/120/59 106/124/63 105/123/62
f 68/120/59 107/125/64 106/124/63
f 68/120/59 109/126/65 108/127/66
f 68/120/59 113/128/67 112/129/68
f 101/130/54 115/131/69 95/132/70
f 106/133/63 107/134/64 117/135/71
f 81/136/72 75/137/73 69/138/34
f 119/139/74 111/140/75 112/141/68
f 71/142/35 76/143/40 65/144/15
f 65/144/15 67/145/37 71/142/35
f 65/95/76 91/146/77 93/147/78
f 93/147/78 120/148/79 65/95/76
f 120/148/79 83/149/42 65/95/76
f 83/149/42 85/150/45 65/95/76
f 85/150/45 95/151/70 65/95/76
f 95/151/70 115/152/69 65/95/76
f 115/152/69 86/153/47 65/95/76
f 86/153/47 87/154/46 65/95/76
f 87/154/46 121/155/80 65/95/76
f 121/155/80 77/156/81 65/95/76
f 77/156/81 78/157/82 65/95/76
f 78/157/82 98/158/83 65/95/76
f 122/159/84 67/96/85 65/95/76
f 122/159/84 123/160/86 67/96/85
f 123/160/86 124/161/87 67/96/85
f 124/161/87 116/162/88 67/96/85
f 116/162/88 117/163/71 67/96/85
f 117/163/71 125/164/89 67/96/85
f 120/165/79 100/166/51 82/167/43
f 82/167/43 83/168/42 120/165/79
f 103/169/60 104/170/61 123/171/86
f 77/172/81 121/173/80 102/174/55
f 102/174/55 79/175/56 77/172/81
f 129/176/90 114/177/91 68/178/59
f 114/179/91 129/180/90 128/181/92
f 59/182/41 60/183/93 130/184/4
s 0
f 76/185/5 66/186/5 65/187/5
s 1
f 96/188/94 130/189/4 72/190/36
f 72/190/36 73/191/38 96/188/94
f 91/192/77 65/136/76 66/189/50
f 93/193/78 92/194/52 100/195/51
f 100/195/51 120/196/79 93/193/78
f 71/88/35 73/92/38 72/89/36
f 71/88/35 67/90/37 73/92/38
s 0
f 67/90/95 68/226/95 74/91/95
s 1
f 69/97/34 75/227/73 76/95/40
f 78/228/82 77/229/81 79/230/56
f 79/230/56 80/231/57 78/228/82
f 59/99/41 81/227/72 70/97/33
f 91/232/77 90/233/96 92/234/52
f 92/234/52 93/235/78 91/232/77
f 85/236/45 84/237/44 94/238/53
f 94/238/53 95/239/70 85/236/45
f 97/108/97 96/240/94 73/241/38
f 73/241/38 74/120/28 97/108/97
f 98/242/83 78/243/82 80/244/57
f 80/244/57 99/245/58 98/242/83
f 92/110/52 90/246/96 66/108/50
f 66/108/50 88/247/48 101/114/54
f 66/108/50 89/116/49 88/247/48
f 66/108/50 103/121/60 99/119/58
f 68/120/59 108/127/66 107/125/64
f 68/120/59 110/248/98 109/126/65
f 68/120/59 111/249/75 110/248/98
f 68/120/59 112/129/68 111/249/75
f 68/120/59 114/250/91 113/128/67
f 95/132/70 94/251/53 101/130/54
f 117/135/71 116/252/88 106/133/63
f 69/138/34 70/225/33 81/136/72
f 112/141/68 118/253/99 119/139/74
f 98/158/83 122/159/84 65/95/76
f 125/164/89 126/254/100 67/96/85
f 126/254/100 127/255/101 67/96/85
f 127/255/101 119/256/74 67/96/85
f 119/256/74 118/257/99 67/96/85
f 118/257/99 128/258/92 67/96/85
f 128/258/92 129/259/90 67/96/85
f 125/260/89 117/261/71 107/262/64
f 107/262/64 108/263/66 125/260/89
f 86/264/47 115/265/69 101/266/54
f 101/266/54 88/267/48 86/264/47
f 123/171/86 122/268/84 103/169/60
f 72/241/36 130/240/4 60/62/93
f 60/62/93 61/269/27 72/241/36
f 121/270/80 87/271/46 89/272/49
f 89/272/49 102/273/55 121/270/80
f 68/178/59 67/274/85 129/176/90
f 113/275/67 128/276/92 118/277/99
f 118/277/99 112/278/68 113/275/67
f 128/181/92 113/279/67 114/179/91
f 111/280/75 119/281/74 127/282/101
f 127/282/101 110/283/98 111/280/75
f 110/284/98 127/285/101 126/286/100
f 126/286/100 109/287/65 110/284/98
f 130/184/4 81/288/72 59/182/41
f 81/288/72 130/184/4 76/185/40
f 76/185/40 75/289/73 81/288/72
f 130/184/4 96/290/94 76/185/40
f 96/290/94 66/186/102 76/185/40
f 96/290/94 97/291/97 66/186/102
f 124/292/87 123/293/86 104/294/61
f 104/294/61 105/295/62 124/292/87
f 126/296/100 125/297/89 108/298/66
f 108/298/66 109/299/65 126/296/100
f 68/67/15 66/222/102 97/300/97
f 97/300/97 74/301/28 68/67/15
f 103/222/60 122/144/84 98/302/83
f 98/302/83 99/303/58 103/222/60
f 66/189/50 90/304/96 91/192/77
f 106/305/63 116/306/88 124/307/87
f 124/307/87 105/308/62 106/305/63
f 147/344/1 139/345/1 148/348/1
f 149/347/1 148/348/112 150/350/113
f 150/350/1 144/371/1 146/349/1
f 150/352/113 151/372/19 143/351/114
f 152/360/115 143/358/114 151/373/19
f 151/373/19 153/354/102 152/360/115
f 153/354/102 154/355/116 152/360/115
f 141/362/103 145/374/9 147/361/6
f 152/369/115 149/375/13 146/368/14
f 147/376/95 149/377/13 152/378/115
f 152/378/115 154/379/116 147/376/95
f 150/329/113 148/324/112 153/325/102
f 153/325/102 151/328/19 150/329/113
f 177/347/1 175/344/1 176/348/1
f 174/349/1 177/347/1 178/350/76
f 178/350/76 172/371/72 174/349/1
f 178/352/76 179/372/134 171/351/123
f 171/351/123 172/353/72 178/352/76
f 180/360/15 171/358/123 179/373/134
f 181/354/15 182/355/15 180/360/15
f 181/354/135 168/357/122 169/356/121
f 181/364/135 176/366/14 167/365/14
f 167/365/14 168/367/122 181/364/135
