# Blender 4.3.2
# www.blender.org
mtllib iron-fence.mtl
o iron-fence.047
v -0.085000 -0.472500 -0.753900
v -0.062500 -0.450000 -0.823900
v -0.085000 -0.427500 -0.753900
v -0.040000 -0.472500 -0.753900
v -0.040000 -0.427500 -0.753900
v -0.077500 -0.465000 -0.713900
v -0.077500 -0.435000 -0.713900
v -0.047500 -0.465000 -0.713900
v -0.047500 -0.435000 -0.713900
v 0.415000 -0.472500 -0.753900
v 0.437500 -0.450000 -0.823900
v 0.415000 -0.427500 -0.753900
v 0.460000 -0.472500 -0.753900
v 0.460000 -0.427500 -0.753900
v 0.422500 -0.465000 -0.713900
v 0.422500 -0.435000 -0.713900
v 0.452500 -0.465000 -0.713900
v 0.452500 -0.435000 -0.713900
v 0.165000 -0.472500 -0.753900
v 0.187500 -0.450000 -0.823900
v 0.165000 -0.427500 -0.753900
v 0.210000 -0.472500 -0.753900
v 0.210000 -0.427500 -0.753900
v 0.172500 -0.465000 -0.713900
v 0.172500 -0.435000 -0.713900
v 0.202500 -0.465000 -0.713900
v 0.202500 -0.435000 -0.713900
v -0.335000 -0.472500 -0.753900
v -0.312500 -0.450000 -0.823900
v -0.335000 -0.427500 -0.753900
v -0.290000 -0.472500 -0.753900
v -0.290000 -0.427500 -0.753900
v -0.327500 -0.465000 -0.713900
v -0.327500 -0.435000 -0.713900
v -0.297500 -0.465000 -0.713900
v -0.297500 -0.435000 -0.713900
v 0.290000 -0.472500 -0.753900
v 0.312500 -0.450000 -0.823900
v 0.290000 -0.427500 -0.753900
v 0.335000 -0.472500 -0.753900
v 0.335000 -0.427500 -0.753900
v 0.297500 -0.465000 -0.713900
v 0.297500 -0.435000 -0.713900
v 0.327500 -0.465000 -0.713900
v 0.327500 -0.435000 -0.713900
v -0.460000 -0.472500 -0.753900
v -0.437500 -0.450000 -0.823900
v -0.460000 -0.427500 -0.753900
v -0.415000 -0.472500 -0.753900
v -0.415000 -0.427500 -0.753900
v -0.452500 -0.465000 -0.713900
v -0.452500 -0.435000 -0.713900
v -0.422500 -0.465000 -0.713900
v -0.422500 -0.435000 -0.713900
v 0.040000 -0.472500 -0.753900
v 0.062500 -0.450000 -0.823900
v 0.040000 -0.427500 -0.753900
v 0.085000 -0.472500 -0.753900
v 0.085000 -0.427500 -0.753900
v 0.047500 -0.465000 -0.713900
v 0.047500 -0.435000 -0.713900
v 0.077500 -0.465000 -0.713900
v 0.077500 -0.435000 -0.713900
v -0.210000 -0.472500 -0.753900
v -0.187500 -0.450000 -0.823900
v -0.210000 -0.427500 -0.753900
v -0.165000 -0.472500 -0.753900
v -0.165000 -0.427500 -0.753900
v -0.202500 -0.465000 -0.713900
v -0.202500 -0.435000 -0.713900
v -0.172500 -0.465000 -0.713900
v -0.172500 -0.435000 -0.713900
v -0.047500 -0.435000 -0.000000
v -0.077500 -0.435000 -0.000000
v -0.047500 -0.465000 -0.000000
v -0.077500 -0.465000 -0.000000
v 0.452500 -0.435000 -0.000000
v 0.422500 -0.435000 -0.000000
v 0.452500 -0.465000 -0.000000
v 0.422500 -0.465000 -0.000000
v 0.202500 -0.435000 -0.000000
v 0.172500 -0.435000 -0.000000
v 0.202500 -0.465000 -0.000000
v 0.172500 -0.465000 -0.000000
v -0.297500 -0.435000 -0.000000
v -0.327500 -0.435000 -0.000000
v -0.297500 -0.465000 -0.000000
v -0.327500 -0.465000 -0.000000
v 0.327500 -0.435000 -0.000000
v 0.297500 -0.435000 -0.000000
v 0.327500 -0.465000 -0.000000
v 0.297500 -0.465000 -0.000000
v -0.422500 -0.435000 -0.000000
v -0.452500 -0.435000 -0.000000
v -0.422500 -0.465000 -0.000000
v -0.452500 -0.465000 -0.000000
v 0.077500 -0.435000 -0.000000
v 0.047500 -0.435000 -0.000000
v 0.077500 -0.465000 -0.000000
v 0.047500 -0.465000 -0.000000
v -0.172500 -0.435000 -0.000000
v -0.202500 -0.435000 -0.000000
v -0.172500 -0.465000 -0.000000
v -0.202500 -0.465000 -0.000000
v 0.500000 -0.457500 -0.623900
v 0.500000 -0.457500 -0.593900
v 0.500000 -0.442500 -0.623900
v 0.500000 -0.442500 -0.593900
v -0.500000 -0.457500 -0.593900
v -0.500000 -0.457500 -0.623900
v -0.500000 -0.442500 -0.593900
v -0.500000 -0.442500 -0.623900
v -0.500000 -0.457500 -0.473900
v -0.500000 -0.457500 -0.503900
v -0.500000 -0.442500 -0.473900
v -0.500000 -0.442500 -0.503900
v 0.500000 -0.457500 -0.503900
v 0.500000 -0.457500 -0.473900
v 0.500000 -0.442500 -0.503900
v 0.500000 -0.442500 -0.473900
v -0.500000 -0.457500 -0.210000
v -0.500000 -0.457500 -0.240000
v -0.500000 -0.442500 -0.210000
v -0.500000 -0.442500 -0.240000
v 0.500000 -0.457500 -0.240000
v 0.500000 -0.457500 -0.210000
v 0.500000 -0.442500 -0.240000
v 0.500000 -0.442500 -0.210000
v -0.500000 -0.457500 -0.090000
v -0.500000 -0.457500 -0.120000
v -0.500000 -0.442500 -0.090000
v -0.500000 -0.442500 -0.120000
v 0.500000 -0.457500 -0.090000
v 0.500000 -0.457500 -0.120000
v 0.500000 -0.442500 -0.120000
v 0.500000 -0.442500 -0.090000
vn -0.6482 0.6482 -0.3995
vn -0.0000 -0.0000 -1.0000
vn -0.8977 -0.4306 -0.0933
vn 0.4311 -0.8975 -0.0932
vn 0.8979 0.4302 -0.0933
vn -0.7004 -0.7004 0.1374
vn -0.7004 0.7004 0.1374
vn 0.7004 -0.7004 0.1374
vn 0.7004 0.7004 0.1374
vn -0.6482 -0.6482 -0.3995
vn -0.7955 0.5652 0.2185
vn -0.5652 -0.7955 0.2185
vn 0.4302 0.8979 -0.0933
vn 0.7956 0.5650 0.2188
vn 0.6484 -0.6484 -0.3989
vn -0.5773 0.5773 0.5774
vn 0.5773 -0.5773 0.5774
vn -0.5774 -0.5774 0.5774
vn 0.5774 0.5774 0.5774
vn -0.5773 0.5774 0.5774
vn -0.5773 -0.5774 -0.5774
vn 0.5773 -0.5774 0.5774
vn 0.5773 0.5774 -0.5774
vn 0.5774 -0.5774 -0.5774
vn -0.5774 0.5774 -0.5774
vt 0.843750 0.208008
vt 0.843750 0.225000
vt 0.843750 0.198298
vt 0.593750 0.275000
vt 0.593750 0.448298
vt 0.531250 0.375000
s 1
usemtl colormap.004
f 3/1/1 2/2/2 1/1/3
f 2/2/2 4/1/4 1/1/3
f 5/1/5 4/1/4 2/2/2
f 2/2/2 3/1/1 5/1/5
f 6/3/6 3/1/1 1/1/3
f 3/1/1 6/3/6 7/3/7
f 5/1/5 8/3/8 4/1/4
f 8/3/8 5/1/5 9/3/9
f 1/1/3 8/3/8 6/3/6
f 8/3/8 1/1/3 4/1/4
f 5/1/5 7/3/7 9/3/9
f 7/3/7 5/1/5 3/1/1
f 12/1/1 11/2/2 10/1/3
f 11/2/2 13/1/4 10/1/3
f 14/1/5 13/1/4 11/2/2
f 11/2/2 12/1/1 14/1/5
f 15/3/6 12/1/1 10/1/3
f 12/1/1 15/3/6 16/3/7
f 17/3/8 14/1/5 18/3/9
f 10/1/3 17/3/8 15/3/6
f 17/3/8 10/1/3 13/1/4
f 14/1/5 16/3/7 18/3/9
f 16/3/7 14/1/5 12/1/1
f 20/2/2 22/1/4 19/1/10
f 23/1/5 22/1/4 20/2/2
f 30/1/11 33/3/6 34/3/7
f 28/1/12 35/3/8 33/3/6
f 34/3/7 32/1/13 30/1/11
f 39/1/1 38/2/2 37/1/3
f 38/2/2 40/1/4 37/1/3
f 41/1/5 40/1/4 38/2/2
f 38/2/2 39/1/1 41/1/5
f 42/3/6 39/1/1 37/1/3
f 39/1/1 42/3/6 43/3/7
f 41/1/5 44/3/8 40/1/4
f 44/3/8 41/1/5 45/3/9
f 44/3/8 37/1/3 40/1/4
f 43/3/7 41/1/5 39/1/1
f 48/1/1 47/2/2 46/1/3
f 47/2/2 49/1/4 46/1/3
f 50/1/5 49/1/4 47/2/2
f 47/2/2 48/1/1 50/1/5
f 51/3/6 48/1/1 46/1/3
f 48/1/1 51/3/6 52/3/7
f 50/1/5 53/3/8 49/1/4
f 53/3/8 50/1/5 54/3/9
f 53/3/8 46/1/3 49/1/4
f 50/1/5 52/3/7 54/3/9
f 52/3/7 50/1/5 48/1/1
f 57/1/1 56/2/2 55/1/3
f 56/2/2 58/1/4 55/1/3
f 59/1/14 62/3/8 58/1/4
f 62/3/8 59/1/14 63/3/9
f 55/1/3 62/3/8 60/3/6
f 62/3/8 55/1/3 58/1/4
f 68/1/5 67/1/15 65/2/2
f 66/1/11 69/3/6 70/3/7
f 68/1/5 71/3/8 67/1/15
f 71/3/8 68/1/5 72/3/9
f 64/1/12 71/3/8 69/3/6
f 68/1/5 70/3/7 72/3/9
f 70/3/7 68/1/5 66/1/11
f 74/4/16 9/5/9 7/5/7
f 6/5/6 75/4/17 76/4/18
f 75/4/17 6/5/6 8/5/8
f 75/4/17 9/5/9 73/4/19
f 18/5/9 78/4/16 77/4/19
f 78/4/16 79/4/17 77/4/19
f 79/4/17 78/4/16 80/4/18
f 79/4/17 18/5/9 77/4/19
f 82/4/16 83/4/17 81/4/19
f 83/4/17 82/4/16 84/4/18
f 83/4/17 24/5/6 26/5/8
f 82/4/16 24/5/6 84/4/18
f 83/4/17 27/5/9 81/4/19
f 36/5/9 86/4/16 85/4/19
f 86/4/16 36/5/9 34/5/7
f 86/4/16 87/4/17 85/4/19
f 87/4/17 86/4/16 88/4/18
f 91/4/17 90/4/16 92/4/18
f 45/5/9 91/4/17 44/5/8
f 51/5/6 95/4/17 96/4/18
f 95/4/17 51/5/6 53/5/8
f 94/4/16 51/5/6 96/4/18
f 51/5/6 94/4/16 52/5/7
f 54/5/9 95/4/17 53/5/8
f 95/4/17 54/5/9 93/4/19
f 98/4/16 99/4/17 97/4/19
f 99/4/17 98/4/16 100/4/18
f 99/4/17 60/5/6 62/5/8
f 98/4/16 60/5/6 100/4/18
f 72/5/9 102/4/16 101/4/19
f 102/4/16 72/5/9 70/5/7
f 102/4/16 103/4/17 101/4/19
f 103/4/17 102/4/16 104/4/18
f 69/5/6 103/4/17 104/4/18
f 102/4/16 69/5/6 104/4/18
f 69/5/6 102/4/16 70/5/7
f 72/5/9 103/4/17 71/5/8
f 111/6/20 110/6/21 109/6/18
f 111/6/20 106/6/22 108/6/19
f 106/6/22 111/6/20 109/6/18
f 110/6/21 107/6/23 105/6/24
f 107/6/23 110/6/21 112/6/25
f 110/6/21 106/6/22 109/6/18
f 106/6/22 110/6/21 105/6/24
f 115/6/20 114/6/21 113/6/18
f 114/6/21 115/6/20 116/6/25
f 119/6/23 118/6/22 117/6/24
f 118/6/22 119/6/23 120/6/19
f 114/6/21 119/6/23 117/6/24
f 119/6/23 114/6/21 116/6/25
f 114/6/21 118/6/22 113/6/18
f 118/6/22 114/6/21 117/6/24
f 118/6/22 115/6/20 113/6/18
f 119/6/23 115/6/20 120/6/19
f 115/6/20 119/6/23 116/6/25
f 123/6/20 122/6/21 121/6/18
f 122/6/21 123/6/20 124/6/25
f 127/6/23 126/6/22 125/6/24
f 126/6/22 127/6/23 128/6/19
f 127/6/23 122/6/21 124/6/25
f 122/6/21 126/6/22 121/6/18
f 126/6/22 122/6/21 125/6/24
f 123/6/20 126/6/22 128/6/19
f 126/6/22 123/6/20 121/6/18
f 127/6/23 123/6/20 128/6/19
f 123/6/20 127/6/23 124/6/25
f 131/6/20 130/6/21 129/6/18
f 133/6/22 130/6/21 134/6/24
f 130/6/21 135/6/23 134/6/24
f 135/6/23 130/6/21 132/6/25
f 131/6/20 133/6/22 136/6/19
f 135/6/23 131/6/20 136/6/19
f 131/6/20 135/6/23 132/6/25
f 135/6/23 133/6/22 134/6/24
f 133/6/22 135/6/23 136/6/19
f 14/1/5 17/3/8 13/1/4
f 21/1/1 20/2/2 19/1/10
f 20/2/2 21/1/1 23/1/5
f 24/3/6 21/1/1 19/1/10
f 21/1/1 24/3/6 25/3/7
f 23/1/5 26/3/8 22/1/4
f 26/3/8 23/1/5 27/3/9
f 19/1/10 26/3/8 24/3/6
f 26/3/8 19/1/10 22/1/4
f 23/1/5 25/3/7 27/3/9
f 25/3/7 23/1/5 21/1/1
f 30/1/11 29/2/2 28/1/12
f 29/2/2 31/1/4 28/1/12
f 32/1/13 31/1/4 29/2/2
f 29/2/2 30/1/11 32/1/13
f 33/3/6 30/1/11 28/1/12
f 32/1/13 35/3/8 31/1/4
f 35/3/8 32/1/13 36/3/9
f 35/3/8 28/1/12 31/1/4
f 32/1/13 34/3/7 36/3/9
f 37/1/3 44/3/8 42/3/6
f 41/1/5 43/3/7 45/3/9
f 46/1/3 53/3/8 51/3/6
f 59/1/14 58/1/4 56/2/2
f 56/2/2 57/1/1 59/1/14
f 60/3/6 57/1/1 55/1/3
f 57/1/1 60/3/6 61/3/7
f 59/1/14 61/3/7 63/3/9
f 61/3/7 59/1/14 57/1/1
f 66/1/11 65/2/2 64/1/12
f 65/2/2 67/1/15 64/1/12
f 65/2/2 66/1/11 68/1/5
f 69/3/6 66/1/11 64/1/12
f 71/3/8 64/1/12 67/1/15
f 9/5/9 74/4/16 73/4/19
f 74/4/16 75/4/17 73/4/19
f 75/4/17 74/4/16 76/4/18
f 74/4/16 6/5/6 76/4/18
f 6/5/6 74/4/16 7/5/7
f 9/5/9 75/4/17 8/5/8
f 78/4/16 18/5/9 16/5/7
f 15/5/6 79/4/17 80/4/18
f 79/4/17 15/5/6 17/5/8
f 78/4/16 15/5/6 80/4/18
f 15/5/6 78/4/16 16/5/7
f 18/5/9 79/4/17 17/5/8
f 27/5/9 82/4/16 81/4/19
f 82/4/16 27/5/9 25/5/7
f 24/5/6 83/4/17 84/4/18
f 24/5/6 82/4/16 25/5/7
f 27/5/9 83/4/17 26/5/8
f 33/5/6 87/4/17 88/4/18
f 87/4/17 33/5/6 35/5/8
f 86/4/16 33/5/6 88/4/18
f 33/5/6 86/4/16 34/5/7
f 36/5/9 87/4/17 35/5/8
f 87/4/17 36/5/9 85/4/19
f 45/5/9 90/4/16 89/4/19
f 90/4/16 45/5/9 43/5/7
f 90/4/16 91/4/17 89/4/19
f 42/5/6 91/4/17 92/4/18
f 91/4/17 42/5/6 44/5/8
f 90/4/16 42/5/6 92/4/18
f 42/5/6 90/4/16 43/5/7
f 91/4/17 45/5/9 89/4/19
f 54/5/9 94/4/16 93/4/19
f 94/4/16 54/5/9 52/5/7
f 94/4/16 95/4/17 93/4/19
f 95/4/17 94/4/16 96/4/18
f 63/5/9 98/4/16 97/4/19
f 98/4/16 63/5/9 61/5/7
f 60/5/6 99/4/17 100/4/18
f 60/5/6 98/4/16 61/5/7
f 63/5/9 99/4/17 62/5/8
f 99/4/17 63/5/9 97/4/19
f 103/4/17 69/5/6 71/5/8
f 103/4/17 72/5/9 101/4/19
f 107/6/23 106/6/22 105/6/24
f 106/6/22 107/6/23 108/6/19
f 110/6/21 111/6/20 112/6/25
f 107/6/23 111/6/20 108/6/19
f 111/6/20 107/6/23 112/6/25
f 115/6/20 118/6/22 120/6/19
f 122/6/21 127/6/23 125/6/24
f 130/6/21 131/6/20 132/6/25
f 130/6/21 133/6/22 129/6/18
f 133/6/22 131/6/20 129/6/18
