# Blender 4.3.2
# www.blender.org
mtllib cake-birthday.mtl
o cake-birthday
v 0.000000 0.310503 -0.008787
v -0.155252 0.268904 -0.008787
v 0.000000 0.319600 -0.030000
v -0.159800 0.276782 -0.030000
v 0.000000 0.319600 -0.060000
v -0.159800 0.276782 -0.060000
v 0.000000 0.288542 0.000000
v -0.000000 0.000000 0.000000
v -0.144271 0.249885 0.000000
v -0.249884 0.144271 0.000000
v -0.000000 0.000000 -0.140000
v 0.000000 0.319600 -0.140000
v -0.000000 0.000000 -0.180000
v 0.000000 0.319600 -0.180000
v -0.268904 0.155252 -0.008787
v -0.000000 0.000000 -0.060000
v -0.276782 0.159800 -0.060000
v -0.276782 0.159800 -0.030000
v -0.159800 0.276782 -0.140000
v -0.276782 0.159800 -0.140000
v -0.159800 0.276782 -0.180000
v -0.276782 0.159800 -0.180000
v 0.000000 0.294682 -0.240000
v -0.024069 0.288232 -0.240000
v 0.000000 0.253679 -0.240000
v -0.073670 0.274942 -0.240000
v -0.013819 0.249977 -0.240000
v -0.039605 0.243067 -0.240000
v -0.147341 0.255202 -0.240000
v -0.063420 0.236686 -0.240000
v -0.126840 0.219693 -0.240000
v -0.201271 0.201271 -0.240000
v -0.219692 0.126840 -0.240000
v -0.229325 0.173218 -0.240000
v -0.237582 0.164961 -0.240000
v -0.255202 0.147341 -0.240000
v -0.000000 0.309247 -0.231232
v -0.147341 0.255202 -0.240000
v -0.154624 0.267816 -0.231232
v -0.073670 0.274942 -0.240000
v -0.024069 0.288233 -0.240000
v -0.000000 0.294682 -0.240000
v -0.255202 0.147341 -0.240000
v -0.267816 0.154624 -0.231232
v -0.237582 0.164961 -0.240000
v -0.229325 0.173219 -0.240000
v -0.201271 0.201272 -0.240000
v -0.237447 0.137090 -0.260000
v 0.000000 0.274180 -0.260000
v -0.137090 0.237447 -0.260000
v -0.000000 0.000000 -0.240000
v -0.096303 0.191723 -0.240000
v -0.103869 0.197529 -0.240000
v -0.113325 0.196284 -0.240000
v -0.095058 0.182267 -0.240000
v -0.100864 0.174701 -0.240000
v -0.110319 0.173456 -0.240000
v -0.119130 0.188718 -0.240000
v -0.117886 0.179262 -0.240000
v -0.159800 0.276782 -0.180000
v -0.276782 0.159800 -0.180000
v -0.159800 0.276782 -0.213217
v -0.276782 0.159800 -0.213217
v -0.000000 0.000000 -0.180000
v -0.000000 0.000000 -0.240000
v -0.219693 0.126840 -0.240000
v -0.000000 0.319600 -0.213217
v -0.000000 0.319600 -0.180000
v -0.000000 0.253679 -0.240000
v -0.048739 0.220243 -0.245000
v -0.053739 0.211583 -0.245000
v -0.031419 0.210243 -0.245000
v -0.036419 0.201583 -0.245000
v -0.101611 0.114373 -0.245000
v -0.111271 0.116961 -0.245000
v -0.106788 0.095054 -0.245000
v -0.116447 0.097643 -0.245000
v -0.033624 0.115387 -0.245000
v -0.052943 0.110210 -0.245000
v -0.031036 0.105728 -0.245000
v -0.050355 0.100551 -0.245000
v -0.016573 0.044852 -0.245000
v -0.033893 0.054852 -0.245000
v -0.021573 0.036192 -0.245000
v -0.038893 0.046192 -0.245000
v -0.150517 0.150663 -0.245000
v -0.159177 0.155663 -0.245000
v -0.160517 0.133342 -0.245000
v -0.169177 0.138342 -0.245000
v -0.077803 0.159845 -0.245000
v -0.097122 0.154668 -0.245000
v -0.075215 0.150186 -0.245000
v -0.094533 0.145009 -0.245000
v -0.276782 0.159800 -0.060000
v -0.000000 0.000000 -0.060000
v -0.276782 0.159800 -0.140000
v -0.000000 0.000000 -0.140000
v -0.000000 0.319600 -0.140000
v -0.000000 0.319600 -0.060000
v -0.159800 0.276782 -0.060000
v -0.159800 0.276782 -0.140000
v -0.103155 0.200196 -0.330000
v -0.114706 0.198675 -0.330000
v -0.093912 0.193104 -0.330000
v -0.092391 0.181553 -0.330000
v -0.121798 0.189432 -0.330000
v -0.099483 0.172310 -0.330000
v -0.120277 0.177882 -0.330000
v -0.111034 0.170789 -0.330000
v -0.103869 0.197529 -0.240000
v -0.096303 0.191723 -0.240000
v -0.113325 0.196284 -0.240000
v -0.119131 0.188718 -0.240000
v -0.095058 0.182268 -0.240000
v -0.117886 0.179262 -0.240000
v -0.100864 0.174701 -0.240000
v -0.110320 0.173457 -0.240000
v -0.106175 0.188924 -0.363774
v -0.104156 0.196460 -0.342516
v -0.108871 0.188569 -0.363774
v -0.112772 0.195326 -0.342516
v -0.110266 0.190986 -0.331887
v -0.113222 0.187134 -0.331887
v -0.118062 0.188431 -0.342516
v -0.110033 0.174525 -0.342516
v -0.108014 0.182061 -0.363774
v -0.116928 0.179816 -0.342516
v -0.110171 0.183717 -0.363774
v -0.100967 0.183851 -0.331887
v -0.101601 0.188664 -0.331887
v -0.096127 0.182554 -0.342516
v -0.097261 0.191170 -0.342516
v -0.105453 0.191620 -0.331887
v -0.112588 0.182321 -0.331887
v -0.104018 0.187269 -0.363774
v -0.103663 0.184573 -0.363774
v -0.110526 0.186412 -0.363774
v -0.105318 0.182416 -0.363774
v -0.101417 0.175659 -0.342516
v -0.103923 0.179999 -0.331887
v -0.108736 0.179366 -0.331887
v -0.219692 -0.126840 -0.240000
v -0.237447 -0.137090 -0.260000
v -0.255202 -0.147341 -0.240000
v -0.219692 0.126840 -0.240000
v -0.255202 0.147341 -0.240000
v -0.237447 0.137090 -0.260000
v -0.294682 0.000000 -0.240000
v -0.274942 -0.073670 -0.240000
v -0.274180 0.000000 -0.260000
v -0.264674 -0.111992 -0.240000
v -0.261651 -0.123272 -0.240000
v -0.223395 0.113021 -0.240000
v -0.230305 0.087234 -0.240000
v -0.236686 0.063420 -0.240000
v -0.253679 0.000000 -0.240000
v -0.261651 0.123272 -0.240000
v -0.274942 0.073670 -0.240000
v -0.268904 -0.155252 -0.008787
v -0.276782 -0.159800 -0.030000
v -0.310503 0.000000 -0.008787
v -0.319600 0.000000 -0.030000
v -0.276782 0.159800 -0.140000
v -0.319600 0.000000 -0.140000
v -0.276782 0.159800 -0.180000
v -0.319600 0.000000 -0.180000
v -0.268904 0.155252 -0.008787
v -0.276782 0.159800 -0.030000
v -0.249884 0.144271 0.000000
v -0.288542 0.000000 0.000000
v -0.319600 0.000000 -0.060000
v -0.276782 -0.159800 -0.060000
v 0.000000 0.000000 -0.140000
v 0.000000 0.000000 -0.180000
v -0.276782 -0.159800 -0.140000
v -0.276782 -0.159800 -0.180000
v 0.000000 0.000000 0.000000
v 0.000000 0.000000 -0.060000
v -0.249884 -0.144271 0.000000
v -0.276782 0.159800 -0.060000
v -0.267816 0.154623 -0.231232
v -0.294682 -0.000000 -0.240000
v -0.309247 -0.000000 -0.231232
v -0.274942 0.073670 -0.240000
v -0.261651 0.123272 -0.240000
v -0.255202 0.147341 -0.240000
v -0.255202 -0.147341 -0.240000
v -0.267816 -0.154624 -0.231232
v -0.261651 -0.123272 -0.240000
v -0.264674 -0.111992 -0.240000
v -0.274942 -0.073671 -0.240000
v 0.000000 0.000000 -0.240000
v -0.214188 0.012461 -0.240000
v -0.222999 0.008811 -0.240000
v -0.226649 0.000000 -0.240000
v -0.205377 0.008811 -0.240000
v -0.201727 0.000000 -0.240000
v -0.205377 -0.008811 -0.240000
v -0.222999 -0.008811 -0.240000
v -0.214188 -0.012461 -0.240000
v -0.319600 -0.000000 -0.180000
v -0.276782 -0.159800 -0.180000
v -0.319600 -0.000000 -0.213217
v -0.276782 -0.159800 -0.213217
v -0.000000 -0.000000 -0.180000
v -0.000000 -0.000000 -0.240000
v -0.219692 -0.126840 -0.240000
v -0.276782 0.159800 -0.213217
v -0.276782 0.159800 -0.180000
v -0.219693 0.126839 -0.240000
v -0.215106 0.067912 -0.245000
v -0.210106 0.059252 -0.245000
v -0.197785 0.077912 -0.245000
v -0.192785 0.069252 -0.245000
v -0.149856 -0.030811 -0.245000
v -0.156927 -0.037882 -0.245000
v -0.135714 -0.044953 -0.245000
v -0.142785 -0.052024 -0.245000
v -0.116740 0.028574 -0.245000
v -0.121917 0.009255 -0.245000
v -0.107081 0.025986 -0.245000
v -0.112257 0.006667 -0.245000
v -0.047130 0.008074 -0.245000
v -0.064450 -0.001926 -0.245000
v -0.042130 -0.000587 -0.245000
v -0.059450 -0.010587 -0.245000
v -0.205736 -0.055020 -0.245000
v -0.214397 -0.060020 -0.245000
v -0.195736 -0.072341 -0.245000
v -0.204397 -0.077341 -0.245000
v -0.177331 0.012543 -0.245000
v -0.182508 -0.006775 -0.245000
v -0.167672 0.009955 -0.245000
v -0.172848 -0.009364 -0.245000
v -0.276782 -0.159800 -0.060000
v -0.000000 -0.000000 -0.060000
v -0.276782 -0.159800 -0.140000
v -0.000000 -0.000000 -0.140000
v -0.276782 0.159800 -0.140000
v -0.276782 0.159800 -0.060000
v -0.319600 -0.000000 -0.060000
v -0.319600 -0.000000 -0.140000
v -0.224952 0.010763 -0.330000
v -0.229410 -0.000001 -0.330000
v -0.214188 0.015221 -0.330000
v -0.203424 0.010763 -0.330000
v -0.224952 -0.010764 -0.330000
v -0.198966 -0.000001 -0.330000
v -0.214188 -0.015223 -0.330000
v -0.203424 -0.010764 -0.330000
v -0.222999 0.008810 -0.240000
v -0.214188 0.012460 -0.240000
v -0.226649 -0.000001 -0.240000
v -0.222999 -0.008812 -0.240000
v -0.205377 0.008810 -0.240000
v -0.214188 -0.012462 -0.240000
v -0.201727 -0.000001 -0.240000
v -0.205377 -0.008812 -0.240000
v -0.216700 0.002511 -0.363774
v -0.222217 0.008028 -0.342516
v -0.217740 -0.000001 -0.363774
v -0.225542 -0.000001 -0.342516
v -0.220531 -0.000001 -0.331887
v -0.218673 -0.004486 -0.331887
v -0.222217 -0.008030 -0.342516
v -0.206159 -0.008030 -0.342516
v -0.211676 -0.002513 -0.363774
v -0.214188 -0.011355 -0.342516
v -0.214188 -0.003553 -0.363774
v -0.209703 0.004485 -0.331887
v -0.214188 0.006342 -0.331887
v -0.206159 0.008028 -0.342516
v -0.214188 0.011354 -0.342516
v -0.218673 0.004485 -0.331887
v -0.214188 -0.006344 -0.331887
v -0.214188 0.003551 -0.363774
v -0.211676 0.002511 -0.363774
v -0.216700 -0.002513 -0.363774
v -0.210636 -0.000001 -0.363774
v -0.202834 -0.000001 -0.342516
v -0.207845 -0.000001 -0.331887
v -0.209703 -0.004486 -0.331887
v -0.276782 -0.159800 -0.030000
v -0.159800 -0.276782 -0.030000
v -0.276782 -0.159800 -0.060000
v -0.159800 -0.276782 -0.060000
v -0.159800 -0.276782 -0.140000
v 0.000000 -0.319600 -0.140000
v -0.159800 -0.276782 -0.180000
v 0.000000 -0.319600 -0.180000
v -0.249884 -0.144271 0.000000
v 0.000000 0.000000 0.000000
v -0.144271 -0.249885 0.000000
v 0.000000 -0.288542 0.000000
v 0.000000 -0.310503 -0.008787
v 0.000000 -0.319600 -0.030000
v -0.155252 -0.268904 -0.008787
v -0.276782 -0.159800 -0.140000
v -0.276782 -0.159800 -0.180000
v 0.000000 0.000000 -0.140000
v 0.000000 0.000000 -0.180000
v -0.268904 -0.155252 -0.008787
v 0.000000 0.000000 -0.060000
v -0.255202 -0.147341 -0.240000
v -0.237582 -0.164961 -0.240000
v -0.219693 -0.126840 -0.240000
v -0.201271 -0.201271 -0.240000
v -0.209577 -0.136955 -0.240000
v -0.190699 -0.155833 -0.240000
v -0.147341 -0.255202 -0.240000
v -0.173266 -0.173266 -0.240000
v -0.126840 -0.219693 -0.240000
v -0.073670 -0.274942 -0.240000
v 0.000000 -0.253679 -0.240000
v -0.035349 -0.285210 -0.240000
v -0.024069 -0.288232 -0.240000
v 0.000000 -0.294682 -0.240000
v 0.000000 -0.319600 -0.060000
v -0.267816 -0.154624 -0.231232
v -0.147341 -0.255202 -0.240000
v -0.154624 -0.267816 -0.231232
v -0.201271 -0.201271 -0.240000
v -0.237582 -0.164961 -0.240000
v -0.255202 -0.147341 -0.240000
v 0.000000 -0.294682 -0.240000
v 0.000000 -0.309247 -0.231232
v -0.024069 -0.288232 -0.240000
v -0.035349 -0.285210 -0.240000
v -0.073670 -0.274942 -0.240000
v 0.000000 -0.274180 -0.260000
v -0.237447 -0.137090 -0.260000
v -0.137090 -0.237447 -0.260000
v 0.000000 0.000000 -0.240000
v -0.117886 -0.179262 -0.240000
v -0.119130 -0.188717 -0.240000
v -0.113325 -0.196284 -0.240000
v -0.110319 -0.173456 -0.240000
v -0.100864 -0.174701 -0.240000
v -0.095058 -0.182267 -0.240000
v -0.103869 -0.197529 -0.240000
v -0.096303 -0.191723 -0.240000
v -0.159800 -0.276782 -0.180000
v 0.000000 -0.319600 -0.180000
v -0.159800 -0.276782 -0.213217
v 0.000000 -0.319600 -0.213217
v 0.000000 0.000000 -0.180000
v 0.000000 0.000000 -0.240000
v 0.000000 -0.253679 -0.240000
v -0.276782 -0.159800 -0.213217
v -0.276782 -0.159800 -0.180000
v -0.219692 -0.126840 -0.240000
v -0.166367 -0.152331 -0.245000
v -0.156366 -0.152331 -0.245000
v -0.166367 -0.132331 -0.245000
v -0.156366 -0.132331 -0.245000
v -0.048244 -0.145184 -0.245000
v -0.045656 -0.154843 -0.245000
v -0.028926 -0.140008 -0.245000
v -0.026338 -0.149667 -0.245000
v -0.083116 -0.086813 -0.245000
v -0.068974 -0.100955 -0.245000
v -0.076045 -0.079742 -0.245000
v -0.061903 -0.093884 -0.245000
v -0.030557 -0.036779 -0.245000
v -0.030557 -0.056779 -0.245000
v -0.020557 -0.036779 -0.245000
v -0.020557 -0.056779 -0.245000
v -0.055219 -0.205683 -0.245000
v -0.055219 -0.215683 -0.245000
v -0.035219 -0.205683 -0.245000
v -0.035219 -0.215683 -0.245000
v -0.099528 -0.147302 -0.245000
v -0.085386 -0.161444 -0.245000
v -0.092457 -0.140231 -0.245000
v -0.078315 -0.154373 -0.245000
v 0.000000 -0.319600 -0.060000
v 0.000000 0.000000 -0.060000
v 0.000000 -0.319600 -0.140000
v 0.000000 0.000000 -0.140000
v -0.276782 -0.159800 -0.140000
v -0.276782 -0.159800 -0.060000
v -0.159800 -0.276782 -0.060000
v -0.159800 -0.276782 -0.140000
v -0.121797 -0.189432 -0.330000
v -0.114705 -0.198675 -0.330000
v -0.120277 -0.177881 -0.330000
v -0.111034 -0.170789 -0.330000
v -0.103154 -0.200196 -0.330000
v -0.099483 -0.172310 -0.330000
v -0.093911 -0.193104 -0.330000
v -0.092391 -0.181553 -0.330000
v -0.119130 -0.188718 -0.240000
v -0.117886 -0.179262 -0.240000
v -0.113325 -0.196284 -0.240000
v -0.103869 -0.197529 -0.240000
v -0.110319 -0.173456 -0.240000
v -0.096303 -0.191723 -0.240000
v -0.100864 -0.174701 -0.240000
v -0.095058 -0.182267 -0.240000
v -0.110525 -0.186412 -0.363774
v -0.118062 -0.188431 -0.342516
v -0.108870 -0.188569 -0.363774
v -0.112771 -0.195326 -0.342516
v -0.110266 -0.190986 -0.331887
v -0.105452 -0.191620 -0.331887
v -0.104155 -0.196460 -0.342516
v -0.096127 -0.182554 -0.342516
v -0.103663 -0.184573 -0.363774
v -0.097261 -0.191170 -0.342516
v -0.104018 -0.187269 -0.363774
v -0.108736 -0.179365 -0.331887
v -0.112587 -0.182321 -0.331887
v -0.110033 -0.174525 -0.342516
v -0.116927 -0.179815 -0.342516
v -0.113221 -0.187134 -0.331887
v -0.101601 -0.188664 -0.331887
v -0.110170 -0.183716 -0.363774
v -0.108014 -0.182061 -0.363774
v -0.106175 -0.188924 -0.363774
v -0.105318 -0.182416 -0.363774
v -0.101417 -0.175659 -0.342516
v -0.103923 -0.179999 -0.331887
v -0.100967 -0.183851 -0.331887
v -0.000000 -0.319600 -0.140000
v 0.159800 -0.276782 -0.140000
v -0.000000 -0.319600 -0.180000
v 0.159800 -0.276782 -0.180000
v 0.276782 -0.159800 -0.140000
v 0.276782 -0.159800 -0.180000
v 0.000000 -0.000000 -0.140000
v 0.000000 -0.000000 -0.180000
v -0.000000 -0.319600 -0.030000
v 0.159800 -0.276782 -0.030000
v -0.000000 -0.319600 -0.060000
v 0.159800 -0.276782 -0.060000
v 0.155252 -0.268904 -0.008787
v 0.024069 -0.288232 -0.240000
v -0.000000 -0.253679 -0.240000
v 0.073670 -0.274942 -0.240000
v 0.013819 -0.249977 -0.240000
v 0.039605 -0.243067 -0.240000
v 0.147341 -0.255202 -0.240000
v 0.063420 -0.236686 -0.240000
v 0.126840 -0.219693 -0.240000
v 0.201271 -0.201271 -0.240000
v 0.219692 -0.126840 -0.240000
v 0.229325 -0.173218 -0.240000
v 0.237582 -0.164961 -0.240000
v 0.255202 -0.147341 -0.240000
v 0.000000 -0.000000 0.000000
v -0.000000 -0.288542 0.000000
v 0.000000 -0.000000 -0.060000
v 0.268904 -0.155252 -0.008787
v 0.276782 -0.159800 -0.030000
v 0.144271 -0.249885 0.000000
v 0.249884 -0.144271 0.000000
v 0.276782 -0.159800 -0.060000
v 0.000000 -0.309247 -0.231232
v 0.147341 -0.255202 -0.240000
v 0.154624 -0.267816 -0.231232
v 0.073670 -0.274942 -0.240000
v 0.024069 -0.288233 -0.240000
v 0.000000 -0.294682 -0.240000
v 0.255202 -0.147341 -0.240000
v 0.267816 -0.154624 -0.231232
v 0.237582 -0.164961 -0.240000
v 0.229325 -0.173219 -0.240000
v 0.201271 -0.201272 -0.240000
v 0.237447 -0.137090 -0.260000
v -0.000000 -0.274180 -0.260000
v 0.137090 -0.237447 -0.260000
v 0.000000 -0.000000 -0.240000
v 0.096303 -0.191723 -0.240000
v 0.103869 -0.197529 -0.240000
v 0.113325 -0.196284 -0.240000
v 0.095058 -0.182267 -0.240000
v 0.100864 -0.174701 -0.240000
v 0.110319 -0.173456 -0.240000
v 0.119130 -0.188717 -0.240000
v 0.117886 -0.179262 -0.240000
v 0.159800 -0.276782 -0.180000
v 0.276782 -0.159800 -0.180000
v 0.159800 -0.276782 -0.213217
v 0.276782 -0.159800 -0.213217
v 0.000000 -0.000000 -0.180000
v 0.000000 -0.000000 -0.240000
v 0.219692 -0.126840 -0.240000
v 0.000000 -0.319600 -0.213217
v 0.000000 -0.319600 -0.180000
v 0.000000 -0.253679 -0.240000
v 0.048739 -0.220243 -0.245000
v 0.053739 -0.211583 -0.245000
v 0.031419 -0.210243 -0.245000
v 0.036419 -0.201583 -0.245000
v 0.101611 -0.114373 -0.245000
v 0.111271 -0.116961 -0.245000
v 0.106788 -0.095054 -0.245000
v 0.116447 -0.097643 -0.245000
v 0.033624 -0.115387 -0.245000
v 0.052943 -0.110210 -0.245000
v 0.031036 -0.105728 -0.245000
v 0.050355 -0.100551 -0.245000
v 0.016573 -0.044852 -0.245000
v 0.033893 -0.054852 -0.245000
v 0.021573 -0.036192 -0.245000
v 0.038893 -0.046192 -0.245000
v 0.150517 -0.150663 -0.245000
v 0.159177 -0.155663 -0.245000
v 0.160517 -0.133342 -0.245000
v 0.169177 -0.138342 -0.245000
v 0.077803 -0.159845 -0.245000
v 0.097122 -0.154668 -0.245000
v 0.075215 -0.150186 -0.245000
v 0.094533 -0.145009 -0.245000
v 0.276782 -0.159800 -0.060000
v 0.000000 -0.000000 -0.060000
v 0.276782 -0.159800 -0.140000
v 0.000000 -0.000000 -0.140000
v 0.000000 -0.319600 -0.140000
v 0.000000 -0.319600 -0.060000
v 0.159800 -0.276782 -0.060000
v 0.159800 -0.276782 -0.140000
v 0.103155 -0.200197 -0.330000
v 0.114705 -0.198676 -0.330000
v 0.093912 -0.193105 -0.330000
v 0.092391 -0.181554 -0.330000
v 0.121798 -0.189433 -0.330000
v 0.099483 -0.172311 -0.330000
v 0.120277 -0.177883 -0.330000
v 0.111034 -0.170790 -0.330000
v 0.103869 -0.197530 -0.240000
v 0.096303 -0.191724 -0.240000
v 0.113325 -0.196285 -0.240000
v 0.119130 -0.188719 -0.240000
v 0.095058 -0.182269 -0.240000
v 0.117886 -0.179263 -0.240000
v 0.100864 -0.174702 -0.240000
v 0.110319 -0.173457 -0.240000
v 0.106175 -0.188925 -0.363774
v 0.104156 -0.196461 -0.342516
v 0.108870 -0.188570 -0.363774
v 0.112772 -0.195327 -0.342516
v 0.110266 -0.190987 -0.331887
v 0.113221 -0.187135 -0.331887
v 0.118062 -0.188432 -0.342516
v 0.110033 -0.174526 -0.342516
v 0.108014 -0.182062 -0.363774
v 0.116927 -0.179816 -0.342516
v 0.110171 -0.183718 -0.363774
v 0.100967 -0.183852 -0.331887
v 0.101601 -0.188665 -0.331887
v 0.096127 -0.182555 -0.342516
v 0.097261 -0.191171 -0.342516
v 0.105453 -0.191621 -0.331887
v 0.112588 -0.182322 -0.331887
v 0.104018 -0.187270 -0.363774
v 0.103663 -0.184574 -0.363774
v 0.110525 -0.186413 -0.363774
v 0.105318 -0.182417 -0.363774
v 0.101417 -0.175660 -0.342516
v 0.103923 -0.180000 -0.331887
v 0.108736 -0.179366 -0.331887
v -0.000000 -0.000000 -0.140000
v -0.000000 -0.000000 -0.180000
v 0.276782 0.159800 -0.140000
v 0.276782 0.159800 -0.180000
v 0.276782 -0.159800 -0.030000
v 0.319600 -0.000000 -0.030000
v 0.276782 -0.159800 -0.060000
v 0.319600 -0.000000 -0.060000
v -0.000000 -0.000000 0.000000
v 0.249884 -0.144271 0.000000
v -0.000000 -0.000000 -0.060000
v 0.268904 -0.155252 -0.008787
v 0.288542 0.000000 0.000000
v 0.249884 0.144271 0.000000
v 0.310503 0.000000 -0.008787
v 0.276782 -0.159800 -0.140000
v 0.319600 -0.000000 -0.140000
v 0.276782 -0.159800 -0.180000
v 0.319600 -0.000000 -0.180000
v 0.268904 0.155252 -0.008787
v 0.276782 0.159800 -0.030000
v 0.255202 -0.147341 -0.240000
v 0.261651 -0.123272 -0.240000
v 0.219692 -0.126840 -0.240000
v 0.274942 -0.073670 -0.240000
v 0.223395 -0.113021 -0.240000
v 0.230305 -0.087234 -0.240000
v 0.294682 0.000000 -0.240000
v 0.236686 -0.063420 -0.240000
v 0.253679 0.000000 -0.240000
v 0.274942 0.073670 -0.240000
v 0.219692 0.126840 -0.240000
v 0.264674 0.111992 -0.240000
v 0.261651 0.123272 -0.240000
v 0.255202 0.147341 -0.240000
v 0.276782 0.159800 -0.060000
v 0.267816 -0.154623 -0.231232
v 0.294682 0.000000 -0.240000
v 0.309247 0.000000 -0.231232
v 0.274942 -0.073670 -0.240000
v 0.261651 -0.123272 -0.240000
v 0.255202 -0.147341 -0.240000
v 0.255202 0.147341 -0.240000
v 0.267816 0.154624 -0.231232
v 0.261651 0.123272 -0.240000
v 0.264674 0.111992 -0.240000
v 0.274942 0.073671 -0.240000
v 0.237447 0.137090 -0.260000
v 0.237447 -0.137090 -0.260000
v 0.274180 0.000000 -0.260000
v -0.000000 -0.000000 -0.240000
v 0.214188 -0.012461 -0.240000
v 0.222999 -0.008811 -0.240000
v 0.226649 0.000000 -0.240000
v 0.205377 -0.008811 -0.240000
v 0.201727 -0.000000 -0.240000
v 0.205377 0.008811 -0.240000
v 0.222999 0.008811 -0.240000
v 0.214188 0.012461 -0.240000
v 0.319600 0.000000 -0.180000
v 0.276782 0.159800 -0.180000
v 0.319600 0.000000 -0.213217
v 0.276782 0.159800 -0.213217
v 0.000000 0.000000 -0.180000
v 0.000000 0.000000 -0.240000
v 0.219692 0.126840 -0.240000
v 0.276782 -0.159800 -0.213217
v 0.276782 -0.159800 -0.180000
v 0.219693 -0.126839 -0.240000
v 0.215106 -0.067912 -0.245000
v 0.210106 -0.059252 -0.245000
v 0.197785 -0.077912 -0.245000
v 0.192785 -0.069252 -0.245000
v 0.149856 0.030811 -0.245000
v 0.156927 0.037882 -0.245000
v 0.135714 0.044953 -0.245000
v 0.142785 0.052024 -0.245000
v 0.116740 -0.028574 -0.245000
v 0.121917 -0.009255 -0.245000
v 0.107081 -0.025986 -0.245000
v 0.112257 -0.006667 -0.245000
v 0.047130 -0.008074 -0.245000
v 0.064450 0.001926 -0.245000
v 0.042130 0.000587 -0.245000
v 0.059450 0.010587 -0.245000
v 0.205736 0.055020 -0.245000
v 0.214397 0.060020 -0.245000
v 0.195736 0.072341 -0.245000
v 0.204397 0.077341 -0.245000
v 0.177331 -0.012543 -0.245000
v 0.182508 0.006775 -0.245000
v 0.167672 -0.009955 -0.245000
v 0.172848 0.009364 -0.245000
v 0.276782 0.159800 -0.060000
v 0.000000 0.000000 -0.060000
v 0.276782 0.159800 -0.140000
v 0.000000 0.000000 -0.140000
v 0.276782 -0.159800 -0.140000
v 0.276782 -0.159800 -0.060000
v 0.319600 0.000000 -0.060000
v 0.319600 0.000000 -0.140000
v 0.224951 -0.010764 -0.330000
v 0.229410 -0.000001 -0.330000
v 0.214188 -0.015223 -0.330000
v 0.203424 -0.010764 -0.330000
v 0.224951 0.010763 -0.330000
v 0.198966 -0.000001 -0.330000
v 0.214188 0.015221 -0.330000
v 0.203424 0.010763 -0.330000
v 0.222999 -0.008812 -0.240000
v 0.214188 -0.012461 -0.240000
v 0.226649 -0.000001 -0.240000
v 0.222999 0.008810 -0.240000
v 0.205377 -0.008812 -0.240000
v 0.214188 0.012460 -0.240000
v 0.201727 -0.000001 -0.240000
v 0.205377 0.008810 -0.240000
v 0.216700 -0.002512 -0.363774
v 0.222217 -0.008029 -0.342516
v 0.217740 -0.000001 -0.363774
v 0.225542 -0.000001 -0.342516
v 0.220531 -0.000001 -0.331887
v 0.218673 0.004485 -0.331887
v 0.222217 0.008028 -0.342516
v 0.206159 0.008028 -0.342516
v 0.211676 0.002511 -0.363774
v 0.214188 0.011354 -0.342516
v 0.214188 0.003552 -0.363774
v 0.209703 -0.004486 -0.331887
v 0.214188 -0.006344 -0.331887
v 0.206159 -0.008029 -0.342516
v 0.214188 -0.011355 -0.342516
v 0.218673 -0.004486 -0.331887
v 0.214188 0.006343 -0.331887
v 0.214188 -0.003553 -0.363774
v 0.211676 -0.002512 -0.363774
v 0.216700 0.002511 -0.363774
v 0.210636 -0.000001 -0.363774
v 0.202833 -0.000001 -0.342516
v 0.207845 -0.000001 -0.331887
v 0.209703 0.004485 -0.331887
v 0.219693 0.126840 -0.240000
v 0.255202 0.147341 -0.240000
v 0.237447 0.137090 -0.260000
v 0.000000 0.253679 -0.240000
v 0.000000 0.274180 -0.260000
v 0.147341 0.255202 -0.240000
v 0.073670 0.274942 -0.240000
v 0.137090 0.237447 -0.260000
v 0.035349 0.285210 -0.240000
v 0.024069 0.288232 -0.240000
v 0.237582 0.164961 -0.240000
v 0.201271 0.201271 -0.240000
v 0.209577 0.136955 -0.240000
v 0.190699 0.155833 -0.240000
v 0.173266 0.173266 -0.240000
v 0.126840 0.219693 -0.240000
v 0.000000 0.000000 0.000000
v 0.000000 0.000000 -0.060000
v 0.000000 0.288542 0.000000
v 0.000000 0.319600 -0.060000
v 0.000000 0.319600 -0.030000
v 0.000000 0.000000 -0.140000
v 0.276782 0.159800 -0.140000
v 0.000000 0.000000 -0.180000
v 0.276782 0.159800 -0.180000
v 0.249884 0.144271 0.000000
v 0.268904 0.155252 -0.008787
v 0.276782 0.159800 -0.030000
v 0.276782 0.159800 -0.060000
v 0.155252 0.268904 -0.008787
v 0.144271 0.249885 0.000000
v 0.159800 0.276782 -0.140000
v 0.000000 0.319600 -0.140000
v 0.159800 0.276782 -0.180000
v 0.000000 0.319600 -0.180000
v 0.159800 0.276782 -0.030000
v 0.159800 0.276782 -0.060000
v 0.267816 0.154624 -0.231232
v 0.147341 0.255202 -0.240000
v 0.154624 0.267816 -0.231232
v 0.201271 0.201271 -0.240000
v 0.237582 0.164961 -0.240000
v 0.255202 0.147341 -0.240000
v 0.000000 0.294682 -0.240000
v -0.000000 0.309247 -0.231232
v 0.024069 0.288232 -0.240000
v 0.035349 0.285210 -0.240000
v 0.073670 0.274942 -0.240000
v 0.000000 0.000000 -0.240000
v 0.117886 0.179262 -0.240000
v 0.119130 0.188717 -0.240000
v 0.113325 0.196284 -0.240000
v 0.110319 0.173456 -0.240000
v 0.100864 0.174701 -0.240000
v 0.095058 0.182267 -0.240000
v 0.103869 0.197529 -0.240000
v 0.096303 0.191723 -0.240000
v 0.159800 0.276782 -0.180000
v 0.000000 0.319600 -0.180000
v 0.159800 0.276782 -0.213217
v 0.000000 0.319600 -0.213217
v 0.000000 -0.000000 -0.180000
v 0.000000 -0.000000 -0.240000
v 0.000000 0.253679 -0.240000
v 0.276782 0.159800 -0.213217
v 0.276782 0.159800 -0.180000
v 0.219692 0.126840 -0.240000
v 0.166367 0.152331 -0.245000
v 0.156366 0.152331 -0.245000
v 0.166367 0.132331 -0.245000
v 0.156366 0.132331 -0.245000
v 0.048244 0.145184 -0.245000
v 0.045656 0.154843 -0.245000
v 0.028926 0.140008 -0.245000
v 0.026338 0.149667 -0.245000
v 0.083116 0.086813 -0.245000
v 0.068974 0.100955 -0.245000
v 0.076045 0.079742 -0.245000
v 0.061903 0.093884 -0.245000
v 0.030557 0.036779 -0.245000
v 0.030557 0.056779 -0.245000
v 0.020557 0.036779 -0.245000
v 0.020557 0.056779 -0.245000
v 0.055219 0.205683 -0.245000
v 0.055219 0.215683 -0.245000
v 0.035219 0.205683 -0.245000
v 0.035219 0.215683 -0.245000
v 0.099528 0.147302 -0.245000
v 0.085386 0.161444 -0.245000
v 0.092457 0.140231 -0.245000
v 0.078315 0.154373 -0.245000
v 0.000000 0.319600 -0.060000
v 0.000000 -0.000000 -0.060000
v 0.000000 0.319600 -0.140000
v 0.000000 -0.000000 -0.140000
v 0.276782 0.159800 -0.140000
v 0.276782 0.159800 -0.060000
v 0.159800 0.276782 -0.060000
v 0.159800 0.276782 -0.140000
v 0.121797 0.189432 -0.330000
v 0.114705 0.198675 -0.330000
v 0.120277 0.177881 -0.330000
v 0.111034 0.170789 -0.330000
v 0.103154 0.200196 -0.330000
v 0.099483 0.172310 -0.330000
v 0.093911 0.193104 -0.330000
v 0.092391 0.181553 -0.330000
v 0.119130 0.188718 -0.240000
v 0.117886 0.179262 -0.240000
v 0.113325 0.196284 -0.240000
v 0.103869 0.197529 -0.240000
v 0.110319 0.173456 -0.240000
v 0.096303 0.191723 -0.240000
v 0.100864 0.174701 -0.240000
v 0.095058 0.182267 -0.240000
v 0.110525 0.186412 -0.363774
v 0.118062 0.188431 -0.342516
v 0.108870 0.188569 -0.363774
v 0.112771 0.195326 -0.342516
v 0.110266 0.190986 -0.331887
v 0.105452 0.191620 -0.331887
v 0.104155 0.196460 -0.342516
v 0.096127 0.182554 -0.342516
v 0.103663 0.184573 -0.363774
v 0.097261 0.191170 -0.342516
v 0.104018 0.187269 -0.363774
v 0.108736 0.179365 -0.331887
v 0.112587 0.182321 -0.331887
v 0.110033 0.174525 -0.342516
v 0.116927 0.179815 -0.342516
v 0.113221 0.187134 -0.331887
v 0.101601 0.188664 -0.331887
v 0.110170 0.183716 -0.363774
v 0.108014 0.182061 -0.363774
v 0.106175 0.188924 -0.363774
v 0.105318 0.182416 -0.363774
v 0.101417 0.175659 -0.342516
v 0.103923 0.179999 -0.331887
v 0.100967 0.183851 -0.331887
vn -0.2391 0.8924 0.3827
vn -0.3641 0.6306 0.6854
vn -0.1915 0.7147 0.6727
vn -0.4595 0.7959 0.3941
vn -0.2588 0.9659 -0.0000
vn -0.5000 0.8660 -0.0000
vn -0.1096 0.1898 0.9757
vn -0.0000 -0.0000 1.0000
vn -0.0586 0.2188 0.9740
vn -0.1602 0.1602 0.9740
vn 0.5000 -0.8660 -0.0000
vn 1.0000 -0.0000 -0.0000
vn -0.5232 0.5232 0.6727
vn -0.5000 -0.8660 -0.0000
vn -0.7071 0.7071 -0.0000
vn -0.0000 -0.0000 -1.0000
vn -0.6533 0.6533 0.3827
vn 0.3740 -0.3740 0.8487
vn 0.3668 -0.6352 0.6797
vn 0.2579 -0.4466 0.8567
vn 0.3667 -0.6352 0.6797
vn 0.1839 -0.6864 -0.7036
vn -0.0575 0.0996 -0.9934
vn -0.0308 0.1149 -0.9929
vn 0.3491 -0.6047 -0.7158
vn -0.1839 0.6864 -0.7036
vn -0.3492 0.6047 -0.7158
vn -0.5025 0.5025 -0.7036
vn -0.0841 0.0841 -0.9929
vn 0.5025 -0.5025 -0.7036
vn -0.4844 0.8390 -0.2478
vn -0.6865 0.6865 -0.2399
vn 0.4999 -0.8661 -0.0001
vn -0.8925 -0.1664 -0.4192
vn -0.6661 -0.5586 -0.4942
vn 0.0062 0.7863 -0.6178
vn -0.2578 0.4466 -0.8568
vn -0.4159 0.4748 -0.7756
vn -0.2578 0.4467 -0.8567
vn -0.1928 0.7197 -0.6670
vn -0.1369 0.5109 -0.8487
vn -0.1929 0.7197 -0.6670
vn -0.2513 0.9377 -0.2399
vn -0.3740 0.3740 -0.8487
vn -0.3667 0.6352 -0.6797
vn 0.8656 0.4998 0.0307
vn 0.2587 0.9655 0.0307
vn -0.4998 0.8656 0.0307
vn 0.9655 -0.2587 0.0307
vn -0.9655 0.2587 0.0307
vn 0.4998 -0.8656 0.0307
vn -0.8656 -0.4998 0.0307
vn -0.2587 -0.9655 0.0307
vn -0.3268 0.5661 -0.7568
vn 0.2586 0.9651 0.0407
vn 0.1692 0.6314 -0.7568
vn -0.4996 0.8653 0.0407
vn -0.8737 0.2341 0.4264
vn -0.4523 0.7833 0.4264
vn -0.9651 0.2586 0.0407
vn -0.8653 -0.4996 0.0407
vn -0.1692 -0.6314 -0.7568
vn -0.2586 -0.9651 0.0407
vn -0.5661 -0.3268 -0.7568
vn 0.9651 -0.2586 0.0407
vn 0.7833 0.4523 0.4264
vn 0.8737 -0.2341 0.4264
vn 0.8653 0.4996 0.0407
vn 0.2341 0.8737 0.4264
vn -0.7833 -0.4523 0.4264
vn 0.5661 0.3268 -0.7568
vn 0.6314 -0.1692 -0.7568
vn -0.6314 0.1692 -0.7568
vn 0.3268 -0.5661 -0.7568
vn 0.4522 -0.7833 0.4264
vn 0.4996 -0.8653 0.0407
vn -0.2341 -0.8737 0.4264
vn 0.5000 0.8660 -0.0000
vn -0.1150 -0.0000 -0.9934
vn -0.6864 -0.1839 -0.7036
vn -0.6983 -0.0000 -0.7158
vn -0.1149 -0.0308 -0.9929
vn 0.6864 -0.1839 -0.7036
vn -0.1149 0.0308 -0.9929
vn 0.6983 -0.0000 -0.7158
vn 0.6864 0.1839 -0.7036
vn -0.6864 0.1839 -0.7036
vn -0.7282 -0.0000 0.6854
vn -0.8924 -0.2391 0.3827
vn -0.7147 -0.1915 0.6727
vn -0.9191 -0.0000 0.3941
vn -0.9659 0.2588 -0.0000
vn -1.0000 -0.0000 -0.0000
vn -0.8924 0.2391 0.3827
vn -0.7147 0.1915 0.6727
vn -0.2188 0.0586 0.9740
vn -0.2192 -0.0000 0.9757
vn -0.9659 -0.2588 -0.0000
vn -0.2188 -0.0586 0.9740
vn 0.7334 -0.0000 0.6797
vn 0.5157 -0.0000 0.8567
vn 0.7197 -0.1928 0.6670
vn 0.5109 -0.1369 0.8487
vn 0.5157 -0.0000 0.8568
vn 0.7197 0.1928 0.6670
vn 0.5109 0.1369 0.8487
vn 0.7335 -0.0000 0.6797
vn 0.7334 0.0001 0.6798
vn -0.9688 -0.0000 -0.2478
vn -0.9377 -0.2513 -0.2399
vn 1.0000 0.0002 0.0001
vn 0.5001 -0.8660 -0.0000
vn 0.4999 -0.8661 -0.0000
vn -0.5109 0.1369 -0.8487
vn -0.7197 0.1928 -0.6670
vn -0.7335 -0.0000 -0.6797
vn -0.7197 -0.1928 -0.6669
vn -0.9377 0.2513 -0.2399
vn -0.7197 0.1928 -0.6669
vn -0.5109 -0.1369 -0.8487
vn -0.7334 -0.0000 -0.6798
vn -0.5157 -0.0000 -0.8567
vn -1.0000 -0.0001 -0.0000
vn -0.0000 0.9995 0.0307
vn -0.7068 0.7068 0.0307
vn -0.9995 -0.0000 0.0307
vn 0.7068 0.7068 0.0307
vn -0.7068 -0.7068 0.0307
vn 0.9995 -0.0000 0.0307
vn -0.0000 -0.9995 0.0307
vn 0.7068 -0.7068 0.0307
vn -0.6537 -0.0000 -0.7568
vn -0.7065 0.7065 0.0407
vn -0.4622 0.4622 -0.7568
vn -0.9992 -0.0000 0.0407
vn -0.6396 -0.6396 0.4264
vn -0.9045 -0.0000 0.4264
vn -0.7065 -0.7065 0.0407
vn -0.0000 -0.9992 0.0407
vn 0.4622 -0.4622 -0.7568
vn 0.7065 -0.7065 0.0407
vn -0.0000 -0.6537 -0.7568
vn 0.7065 0.7065 0.0407
vn -0.0000 0.9045 0.4264
vn 0.6396 0.6396 0.4264
vn -0.0000 0.9992 0.0407
vn -0.6396 0.6396 0.4264
vn -0.0000 -0.9045 0.4264
vn -0.0000 0.6537 -0.7568
vn 0.4622 0.4622 -0.7568
vn -0.4622 -0.4622 -0.7568
vn 0.6537 -0.0000 -0.7568
vn 0.9045 -0.0000 0.4264
vn 0.9992 -0.0000 0.0407
vn 0.6396 -0.6396 0.4264
vn -0.7071 -0.7071 -0.0000
vn -0.2588 -0.9659 -0.0000
vn -0.1096 -0.1898 0.9757
vn -0.1602 -0.1602 0.9740
vn -0.0586 -0.2188 0.9740
vn -0.3641 -0.6306 0.6854
vn -0.2391 -0.8924 0.3827
vn -0.1915 -0.7147 0.6727
vn -0.4595 -0.7959 0.3941
vn -0.6533 -0.6533 0.3827
vn -0.5232 -0.5232 0.6727
vn 0.3667 0.6352 0.6797
vn 0.2579 0.4466 0.8567
vn 0.5268 0.5269 0.6670
vn 0.1928 0.7197 0.6670
vn 0.1369 0.5109 0.8487
vn 0.2578 0.4467 0.8567
vn 0.5025 0.5025 -0.7036
vn -0.0575 -0.0996 -0.9934
vn -0.0841 -0.0841 -0.9929
vn 0.3492 0.6047 -0.7158
vn -0.1839 -0.6864 -0.7036
vn -0.3491 -0.6047 -0.7158
vn -0.0308 -0.1149 -0.9929
vn 0.1839 0.6864 -0.7036
vn -0.5025 -0.5025 -0.7036
vn -0.4844 -0.8390 -0.2478
vn -0.2513 -0.9377 -0.2399
vn -0.2579 -0.4466 -0.8567
vn -0.5268 -0.5268 -0.6670
vn -0.3740 -0.3740 -0.8487
vn -0.5268 -0.5269 -0.6670
vn -0.5269 -0.5268 -0.6670
vn -0.3668 -0.6352 -0.6797
vn -0.1929 -0.7197 -0.6669
vn -0.6865 -0.6865 -0.2399
vn -0.5269 -0.5269 -0.6669
vn -0.5000 -0.8661 -0.0000
vn -0.8656 0.4998 0.0307
vn -0.9655 -0.2587 0.0307
vn -0.4998 -0.8656 0.0307
vn -0.2587 0.9655 0.0307
vn 0.2587 -0.9655 0.0307
vn 0.4998 0.8656 0.0307
vn 0.8656 -0.4998 0.0307
vn 0.9655 0.2587 0.0307
vn -0.3268 -0.5661 -0.7568
vn -0.9651 -0.2586 0.0407
vn -0.6314 -0.1692 -0.7568
vn -0.4996 -0.8653 0.0407
vn 0.2341 -0.8737 0.4264
vn -0.4523 -0.7833 0.4264
vn 0.2586 -0.9651 0.0407
vn 0.8653 -0.4996 0.0407
vn 0.6314 0.1692 -0.7568
vn 0.9651 0.2586 0.0407
vn 0.5661 -0.3268 -0.7568
vn -0.2586 0.9651 0.0407
vn -0.7833 0.4523 0.4264
vn -0.2341 0.8737 0.4264
vn -0.8653 0.4996 0.0407
vn -0.8737 -0.2341 0.4264
vn 0.7833 -0.4523 0.4264
vn -0.5661 0.3268 -0.7568
vn -0.1692 0.6314 -0.7568
vn 0.1692 -0.6314 -0.7568
vn 0.3268 0.5661 -0.7568
vn 0.4523 0.7833 0.4264
vn 0.4996 0.8653 0.0407
vn 0.8737 0.2341 0.4264
vn 0.2588 -0.9659 -0.0000
vn 0.7071 -0.7071 -0.0000
vn 0.2391 -0.8924 0.3827
vn 0.3641 -0.6306 0.6854
vn 0.1915 -0.7147 0.6727
vn 0.4595 -0.7959 0.3941
vn 0.6533 -0.6533 0.3827
vn 0.5232 -0.5232 0.6727
vn 0.1096 -0.1898 0.9757
vn 0.0586 -0.2188 0.9740
vn 0.1602 -0.1602 0.9740
vn -0.3667 0.6352 0.6797
vn -0.2578 0.4467 0.8567
vn -0.1929 0.7197 0.6670
vn -0.1369 0.5109 0.8487
vn -0.5268 0.5268 0.6670
vn -0.3740 0.3740 0.8487
vn -0.3668 0.6352 0.6797
vn -0.2579 0.4466 0.8567
vn 0.0575 -0.0996 -0.9934
vn 0.0841 -0.0841 -0.9929
vn 0.0308 -0.1149 -0.9929
vn 0.4844 -0.8390 -0.2478
vn 0.6865 -0.6865 -0.2399
vn 0.2578 -0.4467 -0.8567
vn 0.1928 -0.7197 -0.6670
vn 0.1369 -0.5109 -0.8487
vn 0.1929 -0.7197 -0.6670
vn 0.3667 -0.6352 -0.6797
vn 0.5269 -0.5269 -0.6669
vn 0.2513 -0.9377 -0.2399
vn 0.1929 -0.7197 -0.6669
vn 0.3740 -0.3740 -0.8487
vn 0.3668 -0.6352 -0.6797
vn 0.9659 -0.2588 -0.0000
vn 0.2192 -0.0000 0.9757
vn 0.2188 -0.0586 0.9740
vn 0.2188 0.0586 0.9740
vn 0.8924 -0.2391 0.3827
vn 0.7282 -0.0000 0.6854
vn 0.7147 -0.1915 0.6727
vn 0.9191 -0.0000 0.3941
vn 0.9659 0.2588 -0.0000
vn 0.8924 0.2391 0.3827
vn 0.7147 0.1915 0.6727
vn -0.7334 -0.0000 0.6797
vn -0.5157 -0.0000 0.8567
vn -0.7197 0.1928 0.6670
vn -0.5109 0.1369 0.8487
vn -0.7197 -0.1928 0.6670
vn -0.5109 -0.1369 0.8487
vn -0.7335 -0.0000 0.6797
vn -0.7334 -0.0001 0.6798
vn -0.7334 -0.0000 0.6798
vn 0.1150 -0.0000 -0.9934
vn 0.1149 0.0308 -0.9929
vn 0.1149 -0.0308 -0.9929
vn 0.9688 -0.0000 -0.2478
vn 0.9377 0.2513 -0.2399
vn -1.0000 -0.0002 0.0001
vn -0.5001 0.8660 -0.0000
vn -0.4999 0.8661 -0.0000
vn 0.5157 -0.0000 -0.8567
vn 0.7197 -0.1928 -0.6670
vn 0.5109 -0.1369 -0.8487
vn 0.7335 -0.0000 -0.6797
vn 0.7197 0.1928 -0.6669
vn 0.9377 -0.2513 -0.2399
vn 0.7197 -0.1928 -0.6669
vn 1.0000 0.0001 -0.0000
vn 0.0575 0.0996 -0.9934
vn 0.3491 0.6047 -0.7158
vn 0.0308 0.1149 -0.9929
vn 0.0841 0.0841 -0.9929
vn -0.3492 -0.6047 -0.7158
vn 0.3641 0.6306 0.6854
vn 0.1602 0.1602 0.9740
vn 0.5232 0.5232 0.6727
vn 0.1096 0.1898 0.9757
vn 0.2588 0.9659 -0.0000
vn 0.2391 0.8924 0.3827
vn 0.1915 0.7147 0.6727
vn 0.4595 0.7959 0.3941
vn 0.7071 0.7071 -0.0000
vn 0.6533 0.6533 0.3827
vn 0.0586 0.2188 0.9740
vn -0.3667 -0.6352 0.6797
vn -0.2579 -0.4466 0.8567
vn -0.5269 -0.5268 0.6670
vn -0.3740 -0.3740 0.8487
vn -0.5268 -0.5269 0.6670
vn -0.5268 -0.5268 0.6670
vn -0.1928 -0.7197 0.6670
vn -0.1369 -0.5109 0.8487
vn -0.2578 -0.4467 0.8567
vn 0.4844 0.8390 -0.2479
vn 0.2513 0.9377 -0.2399
vn -0.0000 -0.0000 -0.0000
vn 0.3740 0.3740 -0.8487
vn 0.5269 0.5268 -0.6670
vn 0.3668 0.6352 -0.6797
vn 0.1929 0.7197 -0.6669
vn 0.6865 0.6865 -0.2399
vn 0.5269 0.5269 -0.6669
vn -0.5000 -0.8660 -0.0001
vn 0.5000 0.8661 -0.0000
vt 0.218750 0.298077
vt 0.218750 0.281759
vt 0.218750 0.321154
vt 0.218750 0.275000
vt 0.218750 0.413462
vt 0.218750 0.382692
vt 0.093750 0.209615
vt 0.218750 0.459615
vt 0.218750 0.475000
vt 0.218750 0.445774
vt 0.343750 0.459615
vt 0.343750 0.475000
vt 0.218750 0.135723
vt 0.218750 0.025000
vt 0.218750 0.225000
vt 0.218750 0.195773
vt 0.906250 0.375000
vt 0.281250 0.625000
vt 0.968750 0.025000
vt 0.968750 0.225000
vt 0.656250 0.375000
s 1
usemtl colormap.019
f 3/1/1 2/2/2 1/2/3
f 2/2/2 3/1/1 4/1/4
f 5/3/5 4/1/6 3/1/5
f 4/1/6 5/3/5 6/3/6
f 9/4/7 8/4/8 7/4/9
f 8/4/8 9/4/7 10/4/10
f 13/5/11 12/6/12 11/6/11
f 12/6/12 13/5/11 14/5/12
f 15/2/13 9/4/7 2/2/2
f 9/4/7 15/2/13 10/4/10
f 10/4/14 16/3/11 8/4/11
f 16/3/11 10/4/14 17/3/14
f 17/3/14 10/4/14 15/2/14
f 17/3/14 15/2/14 18/1/14
f 21/5/6 20/6/15 19/6/6
f 20/6/15 21/5/6 22/5/15
f 16/3/11 7/4/12 8/4/11
f 7/4/12 16/3/11 1/2/12
f 1/2/12 16/3/11 3/1/12
f 3/1/12 16/3/11 5/3/12
f 6/3/6 18/1/15 4/1/6
f 18/1/15 6/3/6 17/3/15
f 14/5/5 19/6/6 12/6/5
f 19/6/6 14/5/5 21/5/6
f 20/6/14 13/5/11 11/6/11
f 13/5/11 20/6/14 22/5/14
f 25/7/16 24/8/16 23/8/16
f 24/8/16 25/7/16 26/8/16
f 26/8/16 25/7/16 27/7/16
f 26/8/16 27/7/16 28/7/16
f 26/8/16 28/7/16 29/8/16
f 29/8/16 28/7/16 30/7/16
f 29/8/16 30/7/16 31/7/16
f 29/8/16 31/7/16 32/8/16
f 32/8/16 31/7/16 33/7/16
f 32/8/16 33/7/16 34/8/16
f 34/8/16 33/7/16 35/8/16
f 35/8/16 33/7/16 36/8/16
f 2/2/2 18/1/17 15/2/13
f 18/1/17 2/2/2 4/1/4
f 2/2/2 7/4/9 1/2/3
f 7/4/9 2/2/2 9/4/7
f 46/9/18 39/10/19 45/9/18
f 47/9/18 39/10/19 46/9/18
f 38/9/20 39/10/21 47/9/18
f 36/11/14 48/12/14 33/11/14
f 49/12/12 23/11/12 25/11/12
f 25/11/22 50/12/23 49/12/24
f 50/12/23 25/11/22 27/11/22
f 50/12/23 27/11/22 28/11/22
f 50/12/23 28/11/22 30/11/22
f 50/12/23 30/11/22 31/11/25
f 49/12/24 24/11/26 23/11/26
f 24/11/26 49/12/24 26/11/26
f 26/11/26 49/12/24 50/12/23
f 26/11/26 50/12/23 29/11/27
f 50/12/23 32/11/28 29/11/27
f 32/11/28 50/12/23 48/12/29
f 32/11/28 48/12/29 34/11/28
f 34/11/28 48/12/29 35/11/28
f 35/11/28 48/12/29 36/11/28
f 31/11/25 48/12/29 50/12/23
f 48/12/29 31/11/25 33/11/30
f 51/7/16 27/7/16 25/7/16
f 27/7/16 51/7/16 28/7/16
f 28/7/16 51/7/16 30/7/16
f 30/7/16 51/7/16 52/7/16
f 30/7/16 52/7/16 31/7/16
f 31/7/16 52/7/16 53/7/16
f 54/7/16 31/7/16 53/7/16
f 52/7/16 51/7/16 55/7/16
f 55/7/16 51/7/16 56/7/16
f 56/7/16 51/7/16 57/7/16
f 31/7/16 54/7/16 33/7/16
f 33/7/16 57/7/16 51/7/16
f 33/7/16 54/7/16 58/7/16
f 33/7/16 59/7/16 57/7/16
f 33/7/16 58/7/16 59/7/16
f 62/13/31 61/14/15 60/14/6
f 61/14/15 62/13/31 63/13/32
f 63/13/14 64/14/11 61/14/14
f 64/14/11 63/13/14 65/15/33
f 65/15/33 63/13/14 44/16/34
f 65/15/33 44/16/34 43/15/35
f 65/15/33 43/15/35 66/15/14
f 37/16/36 38/15/37 39/16/38
f 38/15/39 37/16/40 40/15/41
f 40/15/41 37/16/42 41/15/41
f 41/15/41 37/16/40 42/15/41
f 39/16/38 63/13/32 62/13/31
f 63/13/32 39/16/38 44/16/34
f 67/13/43 39/16/38 62/13/31
f 39/16/38 67/13/43 37/16/36
f 39/16/38 43/15/35 44/16/34
f 43/15/44 39/16/45 45/15/44
f 68/14/12 37/16/12 67/13/12
f 37/16/12 68/14/12 64/14/11
f 37/16/12 64/14/11 42/15/12
f 42/15/12 64/14/11 69/15/12
f 69/15/12 64/14/11 65/15/33
f 67/13/43 60/14/6 68/14/5
f 60/14/6 67/13/43 62/13/31
f 72/17/16 71/17/16 70/17/16
f 71/17/16 72/17/16 73/17/16
f 76/17/16 75/17/16 74/17/16
f 75/17/16 76/17/16 77/17/16
f 80/17/16 79/17/16 78/17/16
f 79/17/16 80/17/16 81/17/16
f 84/18/16 83/18/16 82/18/16
f 83/18/16 84/18/16 85/18/16
f 88/18/16 87/18/16 86/18/16
f 87/18/16 88/18/16 89/18/16
f 92/18/16 91/18/16 90/18/16
f 91/18/16 92/18/16 93/18/16
f 96/19/14 95/20/11 94/20/14
f 95/20/11 96/19/14 97/19/11
f 98/19/12 95/20/11 97/19/11
f 95/20/11 98/19/12 99/20/12
f 100/20/6 96/19/15 94/20/15
f 96/19/15 100/20/6 101/19/6
f 100/20/6 98/19/5 101/19/6
f 98/19/5 100/20/6 99/20/5
f 104/20/16 103/20/16 102/20/16
f 103/20/16 104/20/16 105/20/16
f 103/20/16 105/20/16 106/20/16
f 106/20/16 105/20/16 107/20/16
f 106/20/16 107/20/16 108/20/16
f 108/20/16 107/20/16 109/20/16
f 111/19/46 102/20/47 110/19/47
f 102/20/47 112/19/48 110/19/47
f 102/20/47 111/19/46 104/20/46
f 112/19/48 102/20/47 103/20/48
f 111/19/46 105/20/49 104/20/46
f 103/20/48 113/19/50 112/19/48
f 105/20/49 111/19/46 114/19/49
f 113/19/50 103/20/48 106/20/50
f 114/19/49 107/20/51 105/20/49
f 106/20/50 115/19/52 113/19/50
f 107/20/51 114/19/49 116/19/51
f 115/19/52 106/20/50 108/20/52
f 116/19/51 109/20/53 107/20/51
f 108/20/52 117/19/53 115/19/52
f 117/19/53 108/20/52 109/20/53
f 109/20/53 116/19/51 117/19/53
f 120/21/54 119/21/55 118/21/56
f 119/21/55 120/21/54 121/21/57
f 121/21/57 123/21/58 122/21/59
f 123/21/58 121/21/57 124/21/60
f 127/21/61 126/21/62 125/21/63
f 126/21/62 127/21/61 128/21/64
f 131/21/65 130/21/66 129/21/67
f 130/21/66 131/21/65 132/21/68
f 119/21/55 130/21/66 132/21/68
f 130/21/66 119/21/55 133/21/69
f 124/21/60 134/21/70 123/21/58
f 134/21/70 124/21/60 127/21/61
f 135/21/71 120/21/54 118/21/56
f 120/21/54 135/21/71 136/21/72
f 120/21/54 136/21/72 137/21/73
f 137/21/73 136/21/72 138/21/74
f 137/21/73 138/21/74 128/21/64
f 128/21/64 138/21/74 126/21/62
f 140/21/75 125/21/63 139/21/76
f 125/21/63 140/21/75 141/21/77
f 119/21/55 122/21/59 133/21/69
f 122/21/59 119/21/55 121/21/57
f 138/21/74 131/21/65 139/21/76
f 131/21/65 138/21/74 136/21/72
f 136/21/72 132/21/68 131/21/65
f 132/21/68 136/21/72 135/21/71
f 120/21/54 124/21/60 121/21/57
f 124/21/60 120/21/54 137/21/73
f 125/21/63 138/21/74 139/21/76
f 138/21/74 125/21/63 126/21/62
f 135/21/71 119/21/55 132/21/68
f 119/21/55 135/21/71 118/21/56
f 141/21/77 127/21/61 125/21/63
f 127/21/61 141/21/77 134/21/70
f 137/21/73 127/21/61 124/21/60
f 127/21/61 137/21/73 128/21/64
f 139/21/76 129/21/67 140/21/75
f 129/21/67 139/21/76 131/21/65
f 144/11/11 143/12/11 142/11/11
f 147/12/78 146/11/78 145/11/78
f 150/12/79 149/11/80 148/11/81
f 149/11/80 150/12/79 143/12/82
f 149/11/80 143/12/82 151/11/80
f 151/11/80 143/12/82 152/11/80
f 152/11/80 143/12/82 144/11/80
f 145/11/83 150/12/79 147/12/84
f 150/12/79 145/11/83 153/11/83
f 150/12/79 153/11/83 154/11/83
f 150/12/79 154/11/83 155/11/83
f 150/12/79 155/11/83 156/11/85
f 156/11/85 143/12/82 150/12/79
f 143/12/82 156/11/85 142/11/86
f 147/12/84 157/11/87 146/11/87
f 157/11/87 147/12/84 158/11/87
f 158/11/87 147/12/84 150/12/79
f 158/11/87 150/12/79 148/11/81
f 161/2/88 160/1/89 159/2/90
f 160/1/89 161/2/88 162/1/91
f 165/5/92 164/6/93 163/6/92
f 164/6/93 165/5/92 166/5/93
f 168/1/94 161/2/88 167/2/95
f 161/2/88 168/1/94 162/1/91
f 161/2/88 169/4/96 167/2/95
f 169/4/96 161/2/88 170/4/97
f 171/3/93 160/1/98 162/1/93
f 160/1/98 171/3/93 172/3/98
f 175/6/11 174/5/12 173/6/12
f 174/5/12 175/6/11 176/5/11
f 179/4/11 178/3/12 177/4/12
f 178/3/12 179/4/11 172/3/11
f 172/3/11 179/4/11 159/2/11
f 172/3/11 159/2/11 160/1/11
f 159/2/90 170/4/97 161/2/88
f 170/4/97 159/2/90 179/4/99
f 180/3/92 162/1/93 168/1/92
f 162/1/93 180/3/92 171/3/93
f 166/5/93 175/6/98 164/6/93
f 175/6/98 166/5/93 176/5/98
f 174/5/12 163/6/78 173/6/12
f 163/6/78 174/5/12 165/5/78
f 178/3/12 169/4/78 177/4/12
f 169/4/78 178/3/12 167/2/78
f 167/2/78 178/3/12 168/1/78
f 168/1/78 178/3/12 180/3/78
f 145/7/16 157/8/16 146/8/16
f 157/8/16 145/7/16 158/8/16
f 158/8/16 145/7/16 153/7/16
f 158/8/16 153/7/16 154/7/16
f 158/8/16 154/7/16 148/8/16
f 148/8/16 154/7/16 155/7/16
f 148/8/16 155/7/16 156/7/16
f 148/8/16 156/7/16 149/8/16
f 149/8/16 156/7/16 142/7/16
f 149/8/16 142/7/16 151/8/16
f 151/8/16 142/7/16 152/8/16
f 152/8/16 142/7/16 144/8/16
f 170/4/97 177/4/8 169/4/96
f 177/4/8 170/4/97 179/4/99
f 183/10/100 182/9/101 181/10/102
f 184/9/103 181/10/102 182/9/104
f 185/9/103 181/10/102 184/9/103
f 188/10/105 187/9/106 183/10/107
f 189/9/106 183/10/108 187/9/106
f 190/9/106 183/10/108 189/9/106
f 192/7/16 153/7/16 145/7/16
f 153/7/16 192/7/16 154/7/16
f 154/7/16 192/7/16 155/7/16
f 155/7/16 192/7/16 193/7/16
f 155/7/16 193/7/16 156/7/16
f 156/7/16 193/7/16 194/7/16
f 195/7/16 156/7/16 194/7/16
f 193/7/16 192/7/16 196/7/16
f 196/7/16 192/7/16 197/7/16
f 197/7/16 192/7/16 198/7/16
f 156/7/16 195/7/16 142/7/16
f 142/7/16 198/7/16 192/7/16
f 142/7/16 195/7/16 199/7/16
f 142/7/16 200/7/16 198/7/16
f 142/7/16 199/7/16 200/7/16
f 203/13/109 202/14/98 201/14/93
f 202/14/98 203/13/109 204/13/110
f 204/13/11 205/14/12 202/14/11
f 205/14/12 204/13/11 206/15/111
f 206/15/111 204/13/11 188/16/11
f 206/15/111 188/16/11 187/15/112
f 206/15/111 187/15/112 207/15/113
f 185/15/114 181/16/115 186/15/114
f 183/16/116 204/13/110 203/13/109
f 204/13/110 183/16/116 188/16/117
f 208/13/118 183/16/116 203/13/109
f 183/16/116 208/13/118 181/16/119
f 190/15/120 183/16/116 191/15/120
f 191/15/120 183/16/121 182/15/122
f 209/14/78 181/16/78 208/13/78
f 181/16/78 209/14/78 205/14/12
f 181/16/78 205/14/12 186/15/78
f 186/15/78 205/14/12 210/15/78
f 210/15/78 205/14/12 206/15/111
f 208/13/118 201/14/93 209/14/92
f 201/14/93 208/13/118 203/13/109
f 213/17/16 212/17/16 211/17/16
f 212/17/16 213/17/16 214/17/16
f 217/17/16 216/17/16 215/17/16
f 216/17/16 217/17/16 218/17/16
f 221/17/16 220/17/16 219/17/16
f 220/17/16 221/17/16 222/17/16
f 225/18/16 224/18/16 223/18/16
f 224/18/16 225/18/16 226/18/16
f 229/18/16 228/18/16 227/18/16
f 228/18/16 229/18/16 230/18/16
f 233/18/16 232/18/16 231/18/16
f 232/18/16 233/18/16 234/18/16
f 237/19/11 236/20/12 235/20/11
f 236/20/12 237/19/11 238/19/12
f 239/19/78 236/20/12 238/19/12
f 236/20/12 239/19/78 240/20/78
f 241/20/123 237/19/98 235/20/98
f 237/19/98 241/20/93 242/19/93
f 241/20/93 239/19/92 242/19/93
f 239/19/92 241/20/93 240/20/92
f 245/20/16 244/20/16 243/20/16
f 244/20/16 245/20/16 246/20/16
f 244/20/16 246/20/16 247/20/16
f 247/20/16 246/20/16 248/20/16
f 247/20/16 248/20/16 249/20/16
f 249/20/16 248/20/16 250/20/16
f 252/19/124 243/20/125 251/19/125
f 243/20/125 253/19/126 251/19/125
f 243/20/125 252/19/124 245/20/124
f 253/19/126 243/20/125 244/20/126
f 252/19/124 246/20/127 245/20/124
f 244/20/126 254/19/128 253/19/126
f 246/20/127 252/19/124 255/19/127
f 254/19/128 244/20/126 247/20/128
f 255/19/127 248/20/129 246/20/127
f 247/20/128 256/19/130 254/19/128
f 248/20/129 255/19/127 257/19/129
f 256/19/130 247/20/128 249/20/130
f 257/19/129 250/20/131 248/20/129
f 249/20/130 258/19/131 256/19/130
f 258/19/131 249/20/130 250/20/131
f 250/20/131 257/19/129 258/19/131
f 261/21/132 260/21/133 259/21/134
f 260/21/133 261/21/132 262/21/135
f 262/21/135 264/21/136 263/21/137
f 264/21/136 262/21/135 265/21/138
f 268/21/139 267/21/140 266/21/141
f 267/21/140 268/21/139 269/21/142
f 272/21/143 271/21/144 270/21/145
f 271/21/144 272/21/143 273/21/146
f 260/21/133 271/21/144 273/21/146
f 271/21/144 260/21/133 274/21/147
f 265/21/138 275/21/148 264/21/136
f 275/21/148 265/21/138 268/21/139
f 276/21/149 261/21/132 259/21/134
f 261/21/132 276/21/149 277/21/150
f 261/21/132 277/21/150 278/21/151
f 278/21/151 277/21/150 279/21/152
f 278/21/151 279/21/152 269/21/142
f 269/21/142 279/21/152 267/21/140
f 281/21/153 266/21/141 280/21/154
f 266/21/141 281/21/153 282/21/155
f 260/21/133 263/21/137 274/21/147
f 263/21/137 260/21/133 262/21/135
f 279/21/152 272/21/143 280/21/154
f 272/21/143 279/21/152 277/21/150
f 277/21/150 273/21/146 272/21/143
f 273/21/146 277/21/150 276/21/149
f 261/21/132 265/21/138 262/21/135
f 265/21/138 261/21/132 278/21/151
f 266/21/141 279/21/152 280/21/154
f 279/21/152 266/21/141 267/21/140
f 276/21/149 260/21/133 273/21/146
f 260/21/133 276/21/149 259/21/134
f 282/21/155 268/21/139 266/21/141
f 268/21/139 282/21/155 275/21/148
f 278/21/151 268/21/139 265/21/138
f 268/21/139 278/21/151 269/21/142
f 280/21/154 270/21/145 281/21/153
f 270/21/145 280/21/154 272/21/143
f 285/3/156 284/1/14 283/1/156
f 284/1/14 285/3/156 286/3/14
f 289/5/14 288/6/157 287/6/14
f 288/6/157 289/5/14 290/5/157
f 293/4/158 292/4/8 291/4/159
f 292/4/8 293/4/158 294/4/160
f 297/2/161 296/1/162 295/2/163
f 296/1/162 297/2/161 284/1/164
f 299/5/156 287/6/14 298/6/156
f 287/6/14 299/5/156 289/5/14
f 301/5/78 298/6/6 300/6/78
f 298/6/6 301/5/78 299/5/6
f 283/1/165 297/2/161 302/2/166
f 297/2/161 283/1/165 284/1/164
f 288/6/12 301/5/78 300/6/78
f 301/5/78 288/6/12 290/5/12
f 303/3/78 291/4/6 292/4/78
f 291/4/6 303/3/78 302/2/6
f 302/2/6 303/3/78 283/1/6
f 283/1/6 303/3/78 285/3/6
f 306/7/16 305/8/16 304/8/16
f 305/8/16 306/7/16 307/8/16
f 307/8/16 306/7/16 308/7/16
f 307/8/16 308/7/16 309/7/16
f 307/8/16 309/7/16 310/8/16
f 310/8/16 309/7/16 311/7/16
f 310/8/16 311/7/16 312/7/16
f 310/8/16 312/7/16 313/8/16
f 313/8/16 312/7/16 314/7/16
f 313/8/16 314/7/16 315/8/16
f 315/8/16 314/7/16 316/8/16
f 316/8/16 314/7/16 317/8/16
f 286/3/14 296/1/157 284/1/14
f 296/1/157 286/3/14 318/3/157
f 294/4/12 303/3/78 292/4/78
f 303/3/78 294/4/12 318/3/12
f 318/3/12 294/4/12 295/2/12
f 318/3/12 295/2/12 296/1/12
f 295/2/163 293/4/158 297/2/161
f 293/4/158 295/2/163 294/4/160
f 297/2/161 291/4/159 302/2/166
f 291/4/159 297/2/161 293/4/158
f 321/10/167 320/9/168 319/10/169
f 326/10/170 325/9/171 321/10/167
f 327/9/171 321/10/167 325/9/171
f 328/9/171 321/10/167 327/9/171
f 329/9/171 321/10/167 328/9/171
f 320/9/172 321/10/167 329/9/171
f 317/11/12 330/12/12 314/11/12
f 331/12/6 304/11/6 306/11/6
f 306/11/173 332/12/174 331/12/175
f 332/12/174 306/11/173 308/11/173
f 332/12/174 308/11/173 309/11/173
f 332/12/174 309/11/173 311/11/173
f 332/12/174 311/11/173 312/11/176
f 332/12/174 313/11/177 310/11/178
f 313/11/177 332/12/174 330/12/179
f 313/11/177 330/12/179 315/11/177
f 315/11/177 330/12/179 316/11/177
f 316/11/177 330/12/179 317/11/177
f 312/11/176 330/12/179 332/12/174
f 330/12/179 312/11/176 314/11/180
f 331/12/175 305/11/181 304/11/181
f 305/11/181 331/12/175 307/11/181
f 307/11/181 331/12/175 332/12/174
f 307/11/181 332/12/174 310/11/178
f 333/7/16 308/7/16 306/7/16
f 308/7/16 333/7/16 309/7/16
f 309/7/16 333/7/16 311/7/16
f 311/7/16 333/7/16 334/7/16
f 311/7/16 334/7/16 312/7/16
f 312/7/16 334/7/16 335/7/16
f 336/7/16 312/7/16 335/7/16
f 334/7/16 333/7/16 337/7/16
f 337/7/16 333/7/16 338/7/16
f 338/7/16 333/7/16 339/7/16
f 312/7/16 336/7/16 314/7/16
f 314/7/16 339/7/16 333/7/16
f 314/7/16 336/7/16 340/7/16
f 314/7/16 341/7/16 339/7/16
f 314/7/16 340/7/16 341/7/16
f 344/13/182 343/14/157 342/14/14
f 343/14/157 344/13/182 345/13/183
f 345/13/12 346/14/78 343/14/12
f 346/14/78 345/13/12 347/15/78
f 347/15/78 345/13/12 326/16/12
f 347/15/78 326/16/12 325/15/12
s 0
f 347/15/78 325/15/12 348/15/12
s 1
f 320/15/184 319/16/185 322/15/186
f 322/15/186 319/16/187 323/15/186
f 323/15/186 319/16/188 324/15/186
f 321/16/189 345/13/183 344/13/182
f 345/13/183 321/16/189 326/16/190
f 349/13/191 321/16/189 344/13/182
f 321/16/189 349/13/191 319/16/192
f 350/14/6 319/16/6 349/13/6
f 319/16/6 350/14/6 346/14/78
f 319/16/6 346/14/78 324/15/6
f 324/15/6 346/14/78 351/15/6
f 351/15/6 346/14/78 347/15/78
f 349/13/191 342/14/14 350/14/156
f 342/14/14 349/13/191 344/13/182
f 354/17/16 353/17/16 352/17/16
f 353/17/16 354/17/16 355/17/16
f 358/17/16 357/17/16 356/17/16
f 357/17/16 358/17/16 359/17/16
f 362/17/16 361/17/16 360/17/16
f 361/17/16 362/17/16 363/17/16
f 366/18/16 365/18/16 364/18/16
f 365/18/16 366/18/16 367/18/16
f 370/18/16 369/18/16 368/18/16
f 369/18/16 370/18/16 371/18/16
f 374/18/16 373/18/16 372/18/16
f 373/18/16 374/18/16 375/18/16
f 378/19/12 377/20/78 376/20/12
f 377/20/78 378/19/12 379/19/78
f 380/19/6 377/20/78 379/19/78
f 377/20/78 380/19/6 381/20/6
f 382/20/193 378/19/157 376/20/157
f 378/19/157 382/20/14 383/19/14
f 382/20/14 380/19/156 383/19/14
f 380/19/156 382/20/14 381/20/156
f 386/20/16 385/20/16 384/20/16
f 385/20/16 386/20/16 387/20/16
f 385/20/16 387/20/16 388/20/16
f 388/20/16 387/20/16 389/20/16
f 388/20/16 389/20/16 390/20/16
f 390/20/16 389/20/16 391/20/16
f 393/19/194 384/20/195 392/19/195
f 384/20/195 394/19/196 392/19/195
f 384/20/195 393/19/194 386/20/194
f 394/19/196 384/20/195 385/20/196
f 393/19/194 387/20/197 386/20/194
f 385/20/196 395/19/198 394/19/196
f 387/20/197 393/19/194 396/19/197
f 395/19/198 385/20/196 388/20/198
f 396/19/197 389/20/199 387/20/197
f 388/20/198 397/19/200 395/19/198
f 389/20/199 396/19/197 398/19/199
f 397/19/200 388/20/198 390/20/200
f 398/19/199 391/20/201 389/20/199
f 390/20/200 399/19/201 397/19/200
f 399/19/201 390/20/200 391/20/201
f 391/20/201 398/19/199 399/19/201
f 402/21/202 401/21/203 400/21/204
f 401/21/203 402/21/202 403/21/205
f 403/21/205 405/21/206 404/21/207
f 405/21/206 403/21/205 406/21/208
f 409/21/209 408/21/210 407/21/211
f 408/21/210 409/21/209 410/21/212
f 413/21/213 412/21/214 411/21/215
f 412/21/214 413/21/213 414/21/216
f 401/21/203 412/21/214 414/21/216
f 412/21/214 401/21/203 415/21/217
f 406/21/208 416/21/218 405/21/206
f 416/21/218 406/21/208 409/21/209
f 417/21/219 402/21/202 400/21/204
f 402/21/202 417/21/219 418/21/220
f 402/21/202 418/21/220 419/21/221
f 419/21/221 418/21/220 420/21/222
f 419/21/221 420/21/222 410/21/212
f 410/21/212 420/21/222 408/21/210
f 422/21/223 407/21/211 421/21/224
f 407/21/211 422/21/223 423/21/225
f 401/21/203 404/21/207 415/21/217
f 404/21/207 401/21/203 403/21/205
f 420/21/222 413/21/213 421/21/224
f 413/21/213 420/21/222 418/21/220
f 418/21/220 414/21/216 413/21/213
f 414/21/216 418/21/220 417/21/219
f 402/21/202 406/21/208 403/21/205
f 406/21/208 402/21/202 419/21/221
f 407/21/211 420/21/222 421/21/224
f 420/21/222 407/21/211 408/21/210
f 417/21/219 401/21/203 414/21/216
f 401/21/203 417/21/219 400/21/204
f 423/21/225 409/21/209 407/21/211
f 409/21/209 423/21/225 416/21/218
f 419/21/221 409/21/209 406/21/208
f 409/21/209 419/21/221 410/21/212
f 421/21/224 411/21/215 422/21/223
f 411/21/215 421/21/224 413/21/213
f 426/5/226 425/6/11 424/6/226
f 425/6/11 426/5/226 427/5/11
f 427/5/11 428/6/227 425/6/11
f 428/6/227 427/5/11 429/5/227
f 431/5/6 424/6/93 430/6/6
f 424/6/93 431/5/6 426/5/93
f 428/6/78 431/5/6 430/6/6
f 431/5/6 428/6/78 429/5/78
f 434/3/226 433/1/11 432/1/226
f 433/1/11 434/3/226 435/3/11
f 432/1/228 436/2/229 295/2/230
f 436/2/229 432/1/228 433/1/231
f 438/7/16 437/8/16 317/8/16
f 437/8/16 438/7/16 439/8/16
f 439/8/16 438/7/16 440/7/16
f 439/8/16 440/7/16 441/7/16
f 439/8/16 441/7/16 442/8/16
f 442/8/16 441/7/16 443/7/16
f 442/8/16 443/7/16 444/7/16
f 442/8/16 444/7/16 445/8/16
f 445/8/16 444/7/16 446/7/16
f 445/8/16 446/7/16 447/8/16
f 447/8/16 446/7/16 448/8/16
f 448/8/16 446/7/16 449/8/16
f 452/3/6 451/4/93 450/4/6
f 451/4/93 452/3/6 295/2/93
f 295/2/93 452/3/6 432/1/93
f 432/1/93 452/3/6 434/3/93
f 436/2/229 454/1/232 453/2/233
f 454/1/232 436/2/229 433/1/231
f 455/4/234 450/4/8 451/4/235
f 450/4/8 455/4/234 456/4/236
f 436/2/229 451/4/235 295/2/230
f 451/4/235 436/2/229 455/4/234
f 453/2/233 455/4/234 436/2/229
f 455/4/234 453/2/233 456/4/236
f 435/3/11 454/1/227 433/1/11
f 454/1/227 435/3/11 457/3/227
f 456/4/78 452/3/6 450/4/6
f 452/3/6 456/4/78 457/3/78
f 457/3/78 456/4/78 453/2/78
f 457/3/78 453/2/78 454/1/78
f 460/10/237 459/9/238 458/10/239
f 463/9/240 458/10/239 462/9/240
f 465/10/241 464/9/242 460/10/243
f 466/9/242 460/10/243 464/9/242
f 467/9/242 460/10/243 466/9/242
f 459/9/244 460/10/237 468/9/242
f 449/11/78 469/12/78 446/11/78
f 470/12/93 317/11/93 438/11/93
f 471/12/245 445/11/30 442/11/25
f 445/11/30 471/12/245 469/12/246
f 445/11/30 469/12/246 447/11/30
f 447/11/30 469/12/246 448/11/30
f 448/11/30 469/12/246 449/11/30
f 438/11/26 471/12/245 470/12/247
f 471/12/245 438/11/26 440/11/26
f 471/12/245 440/11/26 441/11/26
f 471/12/245 441/11/26 443/11/26
f 471/12/245 443/11/26 444/11/27
f 470/12/247 437/11/22 317/11/22
f 437/11/22 470/12/247 439/11/22
f 439/11/22 470/12/247 471/12/245
f 439/11/22 471/12/245 442/11/25
f 444/11/27 469/12/246 471/12/245
f 469/12/246 444/11/27 446/11/28
f 472/7/16 440/7/16 438/7/16
f 440/7/16 472/7/16 441/7/16
f 441/7/16 472/7/16 443/7/16
f 443/7/16 472/7/16 473/7/16
f 443/7/16 473/7/16 444/7/16
f 444/7/16 473/7/16 474/7/16
f 475/7/16 444/7/16 474/7/16
f 473/7/16 472/7/16 476/7/16
f 476/7/16 472/7/16 477/7/16
f 477/7/16 472/7/16 478/7/16
f 444/7/16 475/7/16 446/7/16
f 446/7/16 478/7/16 472/7/16
f 446/7/16 475/7/16 479/7/16
f 446/7/16 480/7/16 478/7/16
f 446/7/16 479/7/16 480/7/16
f 483/13/248 482/14/227 481/14/11
f 482/14/227 483/13/248 484/13/249
f 484/13/78 485/14/6 482/14/78
f 485/14/6 484/13/78 486/15/6
f 486/15/6 484/13/78 465/16/78
f 486/15/6 465/16/78 464/15/78
f 486/15/6 464/15/78 487/15/78
f 459/15/250 458/16/251 461/15/252
f 461/15/252 458/16/253 462/15/252
f 460/16/254 484/13/249 483/13/248
f 484/13/249 460/16/254 465/16/255
f 488/13/256 460/16/254 483/13/248
f 460/16/254 488/13/256 458/16/257
f 467/15/258 460/16/259 468/15/258
f 489/14/93 458/16/93 488/13/93
f 458/16/93 489/14/93 485/14/6
f 458/16/93 485/14/6 463/15/93
f 463/15/93 485/14/6 490/15/93
f 490/15/93 485/14/6 486/15/6
f 488/13/256 481/14/11 489/14/226
f 481/14/11 488/13/256 483/13/248
f 493/17/16 492/17/16 491/17/16
f 492/17/16 493/17/16 494/17/16
f 497/17/16 496/17/16 495/17/16
f 496/17/16 497/17/16 498/17/16
f 501/17/16 500/17/16 499/17/16
f 500/17/16 501/17/16 502/17/16
f 505/18/16 504/18/16 503/18/16
f 504/18/16 505/18/16 506/18/16
f 509/18/16 508/18/16 507/18/16
f 508/18/16 509/18/16 510/18/16
f 513/18/16 512/18/16 511/18/16
f 512/18/16 513/18/16 514/18/16
f 517/19/78 516/20/6 515/20/78
f 516/20/6 517/19/78 518/19/6
f 519/19/93 516/20/6 518/19/6
f 516/20/6 519/19/93 520/20/93
f 521/20/11 517/19/227 515/20/227
f 517/19/227 521/20/11 522/19/11
f 521/20/11 519/19/226 522/19/11
f 519/19/226 521/20/11 520/20/226
f 525/20/16 524/20/16 523/20/16
f 524/20/16 525/20/16 526/20/16
f 524/20/16 526/20/16 527/20/16
f 527/20/16 526/20/16 528/20/16
f 527/20/16 528/20/16 529/20/16
f 529/20/16 528/20/16 530/20/16
f 532/19/52 523/20/53 531/19/53
f 523/20/53 533/19/51 531/19/53
f 523/20/53 532/19/52 525/20/52
f 533/19/51 523/20/53 524/20/51
f 532/19/52 526/20/50 525/20/52
f 524/20/51 534/19/49 533/19/51
f 526/20/50 532/19/52 535/19/50
f 534/19/49 524/20/51 527/20/49
f 535/19/50 528/20/48 526/20/50
f 527/20/49 536/19/46 534/19/49
f 528/20/48 535/19/50 537/19/48
f 536/19/46 527/20/49 529/20/46
f 537/19/48 530/20/47 528/20/48
f 529/20/46 538/19/47 536/19/46
f 538/19/47 529/20/46 530/20/47
f 530/20/47 537/19/48 538/19/47
f 541/21/74 540/21/63 539/21/62
f 540/21/63 541/21/74 542/21/76
f 542/21/76 544/21/67 543/21/75
f 544/21/67 542/21/76 545/21/65
f 548/21/68 547/21/56 546/21/55
f 547/21/56 548/21/68 549/21/71
f 552/21/60 551/21/70 550/21/58
f 551/21/70 552/21/60 553/21/61
f 540/21/63 551/21/70 553/21/61
f 551/21/70 540/21/63 554/21/77
f 545/21/65 555/21/66 544/21/67
f 555/21/66 545/21/65 548/21/68
f 556/21/64 541/21/74 539/21/62
f 541/21/74 556/21/64 557/21/73
f 541/21/74 557/21/73 558/21/72
f 558/21/72 557/21/73 559/21/54
f 558/21/72 559/21/54 549/21/71
f 549/21/71 559/21/54 547/21/56
f 561/21/59 546/21/55 560/21/57
f 546/21/55 561/21/59 562/21/69
f 540/21/63 543/21/75 554/21/77
f 543/21/75 540/21/63 542/21/76
f 559/21/54 552/21/60 560/21/57
f 552/21/60 559/21/54 557/21/73
f 557/21/73 553/21/61 552/21/60
f 553/21/61 557/21/73 556/21/64
f 541/21/74 545/21/65 542/21/76
f 545/21/65 541/21/74 558/21/72
f 546/21/55 559/21/54 560/21/57
f 559/21/54 546/21/55 547/21/56
f 556/21/64 540/21/63 553/21/61
f 540/21/63 556/21/64 539/21/62
f 562/21/69 548/21/68 546/21/55
f 548/21/68 562/21/69 555/21/66
f 558/21/72 548/21/68 545/21/65
f 548/21/68 558/21/72 549/21/71
f 560/21/57 550/21/58 561/21/59
f 550/21/58 560/21/57 552/21/60
f 565/6/6 564/5/93 563/6/93
f 564/5/93 565/6/6 566/5/6
f 569/3/260 568/1/12 567/1/260
f 568/1/12 569/3/260 570/3/12
f 573/3/93 572/4/14 571/4/93
f 572/4/14 573/3/93 574/2/14
f 574/2/14 573/3/93 567/1/14
f 567/1/14 573/3/93 569/3/14
f 575/4/261 571/4/8 572/4/262
f 571/4/8 575/4/261 576/4/263
f 567/1/264 577/2/265 574/2/266
f 577/2/265 567/1/264 568/1/267
f 580/5/260 579/6/12 578/6/260
f 579/6/12 580/5/260 581/5/12
f 581/5/12 565/6/268 579/6/12
f 565/6/268 581/5/12 566/5/268
f 577/2/265 583/1/269 582/2/270
f 583/1/269 577/2/265 568/1/267
f 564/5/93 578/6/14 563/6/93
f 578/6/14 564/5/93 580/5/14
f 586/7/16 585/8/16 584/8/16
f 585/8/16 586/7/16 587/8/16
f 587/8/16 586/7/16 588/7/16
f 587/8/16 588/7/16 589/7/16
f 587/8/16 589/7/16 590/8/16
f 590/8/16 589/7/16 591/7/16
f 590/8/16 591/7/16 592/7/16
f 590/8/16 592/7/16 593/8/16
f 593/8/16 592/7/16 594/7/16
f 593/8/16 594/7/16 595/8/16
f 595/8/16 594/7/16 596/8/16
f 596/8/16 594/7/16 597/8/16
f 582/2/270 575/4/261 577/2/265
f 575/4/261 582/2/270 576/4/263
f 570/3/12 583/1/268 568/1/12
f 583/1/268 570/3/12 598/3/268
f 576/4/6 573/3/93 571/4/93
f 573/3/93 576/4/6 598/3/6
f 598/3/6 576/4/6 582/2/6
f 598/3/6 582/2/6 583/1/6
f 577/2/265 572/4/262 574/2/266
f 572/4/262 577/2/265 575/4/261
f 601/10/271 600/9/272 599/10/273
f 603/9/274 599/10/273 602/9/274
f 604/9/274 599/10/273 603/9/274
f 606/10/275 605/9/276 601/10/277
f 607/9/276 601/10/278 605/9/276
f 608/9/276 601/10/279 607/9/276
f 609/9/276 601/10/278 608/9/276
f 600/9/272 601/10/271 609/9/276
f 597/11/6 610/12/6 594/11/6
f 611/12/14 584/11/14 586/11/14
f 612/12/280 593/11/86 590/11/85
f 593/11/86 612/12/280 610/12/281
f 593/11/86 610/12/281 595/11/86
f 595/11/86 610/12/281 596/11/86
f 596/11/86 610/12/281 597/11/86
f 586/11/87 612/12/280 611/12/282
f 612/12/280 586/11/87 588/11/87
f 612/12/280 588/11/87 589/11/87
f 612/12/280 589/11/87 591/11/87
f 612/12/280 591/11/87 592/11/81
f 611/12/282 585/11/83 584/11/83
f 585/11/83 611/12/282 587/11/83
f 587/11/83 611/12/282 612/12/280
f 587/11/83 612/12/280 590/11/85
f 592/11/81 610/12/281 612/12/280
f 610/12/281 592/11/81 594/11/80
f 613/7/16 588/7/16 586/7/16
f 588/7/16 613/7/16 589/7/16
f 589/7/16 613/7/16 591/7/16
f 591/7/16 613/7/16 614/7/16
f 591/7/16 614/7/16 592/7/16
f 592/7/16 614/7/16 615/7/16
f 616/7/16 592/7/16 615/7/16
f 614/7/16 613/7/16 617/7/16
f 617/7/16 613/7/16 618/7/16
f 618/7/16 613/7/16 619/7/16
f 592/7/16 616/7/16 594/7/16
f 594/7/16 619/7/16 613/7/16
f 594/7/16 616/7/16 620/7/16
f 594/7/16 621/7/16 619/7/16
f 594/7/16 620/7/16 621/7/16
f 624/13/283 623/14/268 622/14/12
f 623/14/268 624/13/283 625/13/284
f 625/13/6 626/14/93 623/14/6
f 626/14/93 625/13/6 627/15/285
f 627/15/285 625/13/6 606/16/6
f 627/15/285 606/16/6 605/15/286
f 627/15/285 605/15/286 628/15/287
f 600/15/288 599/16/289 602/15/290
f 601/16/291 625/13/284 624/13/283
f 625/13/284 601/16/291 606/16/292
f 629/13/293 601/16/291 624/13/283
f 601/16/291 629/13/293 599/16/294
f 630/14/14 599/16/14 629/13/14
f 599/16/14 630/14/14 626/14/93
f 599/16/14 626/14/93 604/15/14
f 604/15/14 626/14/93 631/15/14
f 631/15/14 626/14/93 627/15/285
f 629/13/293 622/14/12 630/14/260
f 622/14/12 629/13/293 624/13/283
f 634/17/16 633/17/16 632/17/16
f 633/17/16 634/17/16 635/17/16
f 638/17/16 637/17/16 636/17/16
f 637/17/16 638/17/16 639/17/16
f 642/17/16 641/17/16 640/17/16
f 641/17/16 642/17/16 643/17/16
f 646/18/16 645/18/16 644/18/16
f 645/18/16 646/18/16 647/18/16
f 650/18/16 649/18/16 648/18/16
f 649/18/16 650/18/16 651/18/16
f 654/18/16 653/18/16 652/18/16
f 653/18/16 654/18/16 655/18/16
f 658/19/6 657/20/93 656/20/6
f 657/20/93 658/19/6 659/19/93
f 660/19/14 657/20/93 659/19/93
f 657/20/93 660/19/14 661/20/14
f 662/20/295 658/19/268 656/20/268
f 658/19/268 662/20/12 663/19/12
f 662/20/12 660/19/260 663/19/12
f 660/19/260 662/20/12 661/20/260
f 666/20/16 665/20/16 664/20/16
f 665/20/16 666/20/16 667/20/16
f 665/20/16 667/20/16 668/20/16
f 668/20/16 667/20/16 669/20/16
f 668/20/16 669/20/16 670/20/16
f 670/20/16 669/20/16 671/20/16
f 673/19/130 664/20/131 672/19/131
f 664/20/131 674/19/129 672/19/131
f 664/20/131 673/19/130 666/20/130
f 674/19/129 664/20/131 665/20/129
f 673/19/130 667/20/128 666/20/130
f 665/20/129 675/19/127 674/19/129
f 667/20/128 673/19/130 676/19/128
f 675/19/127 665/20/129 668/20/127
f 676/19/128 669/20/126 667/20/128
f 668/20/127 677/19/124 675/19/127
f 669/20/126 676/19/128 678/19/126
f 677/19/124 668/20/127 670/20/124
f 678/19/126 671/20/125 669/20/126
f 670/20/124 679/19/125 677/19/124
f 679/19/125 670/20/124 671/20/125
f 671/20/125 678/19/126 679/19/125
f 682/21/152 681/21/141 680/21/140
f 681/21/141 682/21/152 683/21/154
f 683/21/154 685/21/145 684/21/153
f 685/21/145 683/21/154 686/21/143
f 689/21/146 688/21/134 687/21/133
f 688/21/134 689/21/146 690/21/149
f 693/21/138 692/21/148 691/21/136
f 692/21/148 693/21/138 694/21/139
f 681/21/141 692/21/148 694/21/139
f 692/21/148 681/21/141 695/21/155
f 686/21/143 696/21/144 685/21/145
f 696/21/144 686/21/143 689/21/146
f 697/21/142 682/21/152 680/21/140
f 682/21/152 697/21/142 698/21/151
f 682/21/152 698/21/151 699/21/150
f 699/21/150 698/21/151 700/21/132
f 699/21/150 700/21/132 690/21/149
f 690/21/149 700/21/132 688/21/134
f 702/21/137 687/21/133 701/21/135
f 687/21/133 702/21/137 703/21/147
f 681/21/141 684/21/153 695/21/155
f 684/21/153 681/21/141 683/21/154
f 700/21/132 693/21/138 701/21/135
f 693/21/138 700/21/132 698/21/151
f 698/21/151 694/21/139 693/21/138
f 694/21/139 698/21/151 697/21/142
f 682/21/152 686/21/143 683/21/154
f 686/21/143 682/21/152 699/21/150
f 687/21/133 700/21/132 701/21/135
f 700/21/132 687/21/133 688/21/134
f 697/21/142 681/21/141 694/21/139
f 681/21/141 697/21/142 680/21/140
f 703/21/147 689/21/146 687/21/133
f 689/21/146 703/21/147 696/21/144
f 699/21/150 689/21/146 686/21/143
f 689/21/146 699/21/150 690/21/149
f 701/21/135 691/21/136 702/21/137
f 691/21/136 701/21/135 693/21/138
f 706/12/11 705/11/11 704/11/11
f 23/11/93 708/12/93 707/11/93
f 711/12/296 710/11/180 709/11/297
f 710/11/180 711/12/296 708/12/298
f 710/11/180 708/12/298 712/11/180
f 712/11/180 708/12/298 713/11/180
f 713/11/180 708/12/298 23/11/180
f 706/12/299 714/11/173 705/11/173
f 714/11/173 706/12/299 715/11/173
f 715/11/173 706/12/299 711/12/296
f 715/11/173 711/12/296 709/11/297
f 704/11/181 711/12/296 706/12/299
f 711/12/296 704/11/181 716/11/181
f 711/12/296 716/11/181 717/11/181
f 711/12/296 717/11/181 718/11/181
f 711/12/296 718/11/181 719/11/300
f 719/11/300 708/12/298 711/12/296
f 708/12/298 719/11/300 707/11/177
f 722/4/93 721/3/14 720/4/14
f 721/3/14 722/4/93 723/3/93
f 723/3/93 722/4/93 1/2/93
f 723/3/93 1/2/93 724/1/93
f 727/5/14 726/6/11 725/6/14
f 726/6/11 727/5/14 728/5/11
f 721/3/14 729/4/11 720/4/14
f 729/4/11 721/3/14 730/2/11
f 730/2/11 721/3/14 731/1/11
f 731/1/11 721/3/14 732/3/11
f 733/2/301 729/4/302 730/2/303
f 729/4/302 733/2/301 734/4/304
f 737/5/78 736/6/305 735/6/78
f 736/6/305 737/5/78 738/5/305
f 704/7/16 714/8/16 705/8/16
f 714/8/16 704/7/16 715/8/16
f 715/8/16 704/7/16 716/7/16
f 715/8/16 716/7/16 717/7/16
f 715/8/16 717/7/16 709/8/16
f 709/8/16 717/7/16 718/7/16
f 709/8/16 718/7/16 719/7/16
f 709/8/16 719/7/16 710/8/16
f 710/8/16 719/7/16 707/7/16
f 710/8/16 707/7/16 712/8/16
f 712/8/16 707/7/16 713/8/16
f 713/8/16 707/7/16 23/8/16
f 733/2/301 724/1/306 1/2/307
f 724/1/306 733/2/301 739/1/308
f 736/6/93 727/5/14 725/6/14
f 727/5/14 736/6/93 738/5/93
f 728/5/309 735/6/78 726/6/309
f 735/6/78 728/5/309 737/5/78
f 732/3/309 739/1/78 731/1/309
f 739/1/78 732/3/309 740/3/78
f 731/1/310 733/2/301 730/2/303
f 733/2/301 731/1/310 739/1/308
f 1/2/307 734/4/304 733/2/301
f 734/4/304 1/2/307 722/4/311
f 740/3/78 724/1/305 739/1/78
f 724/1/305 740/3/78 723/3/305
f 734/4/304 720/4/8 729/4/302
f 720/4/8 734/4/304 722/4/311
f 743/10/312 742/9/313 741/10/314
f 744/9/315 741/10/316 742/9/313
f 745/9/315 741/10/317 744/9/315
f 748/10/318 747/9/319 743/10/312
f 749/9/319 743/10/312 747/9/319
f 750/9/319 743/10/312 749/9/319
f 751/9/319 743/10/312 750/9/319
f 742/9/320 743/10/312 751/9/319
f 752/7/16 716/7/16 704/7/16
f 716/7/16 752/7/16 717/7/16
f 717/7/16 752/7/16 718/7/16
f 718/7/16 752/7/16 753/7/16
f 718/7/16 753/7/16 719/7/16
f 719/7/16 753/7/16 754/7/16
f 755/7/16 719/7/16 754/7/16
f 753/7/16 752/7/16 756/7/16
f 756/7/16 752/7/16 757/7/16
f 757/7/16 752/7/16 758/7/16
f 719/7/16 755/7/16 707/7/16
f 707/7/16 758/7/16 752/7/16
f 707/7/16 755/7/16 759/7/16
f 707/7/16 760/7/16 758/7/16
f 707/7/16 759/7/16 760/7/16
f 763/13/321 762/14/305 761/14/78
f 762/14/305 763/13/321 764/13/322
f 764/13/93 765/14/14 762/14/93
f 765/14/14 764/13/93 766/15/14
f 766/15/14 764/13/93 748/16/93
f 766/15/14 748/16/93 747/15/93
s 0
f 766/15/323 747/15/323 767/15/323
s 1
f 745/15/324 741/16/325 746/15/324
f 743/16/326 764/13/322 763/13/321
f 764/13/322 743/16/326 748/16/327
f 768/13/328 743/16/326 763/13/321
f 743/16/326 768/13/328 741/16/329
f 769/14/11 741/16/11 768/13/11
f 741/16/11 769/14/11 765/14/14
f 741/16/11 765/14/14 746/15/11
f 746/15/11 765/14/14 770/15/11
f 770/15/11 765/14/14 766/15/14
f 768/13/328 761/14/78 769/14/309
f 761/14/78 768/13/328 763/13/321
f 773/17/16 772/17/16 771/17/16
f 772/17/16 773/17/16 774/17/16
f 777/17/16 776/17/16 775/17/16
f 776/17/16 777/17/16 778/17/16
f 781/17/16 780/17/16 779/17/16
f 780/17/16 781/17/16 782/17/16
f 785/18/16 784/18/16 783/18/16
f 784/18/16 785/18/16 786/18/16
f 789/18/16 788/18/16 787/18/16
f 788/18/16 789/18/16 790/18/16
f 793/18/16 792/18/16 791/18/16
f 792/18/16 793/18/16 794/18/16
f 797/19/93 796/20/330 795/20/93
f 796/20/330 797/19/93 798/19/14
f 799/19/11 796/20/330 798/19/14
f 796/20/14 799/19/11 800/20/11
f 801/20/331 797/19/305 795/20/305
f 797/19/305 801/20/78 802/19/78
f 801/20/78 799/19/309 802/19/78
f 799/19/309 801/20/78 800/20/309
f 805/20/16 804/20/16 803/20/16
f 804/20/16 805/20/16 806/20/16
f 804/20/16 806/20/16 807/20/16
f 807/20/16 806/20/16 808/20/16
f 807/20/16 808/20/16 809/20/16
f 809/20/16 808/20/16 810/20/16
f 812/19/200 803/20/201 811/19/201
f 803/20/201 813/19/199 811/19/201
f 803/20/201 812/19/200 805/20/200
f 813/19/199 803/20/201 804/20/199
f 812/19/200 806/20/198 805/20/200
f 804/20/199 814/19/197 813/19/199
f 806/20/198 812/19/200 815/19/198
f 814/19/197 804/20/199 807/20/197
f 815/19/198 808/20/196 806/20/198
f 807/20/197 816/19/194 814/19/197
f 808/20/196 815/19/198 817/19/196
f 816/19/194 807/20/197 809/20/194
f 817/19/196 810/20/195 808/20/196
f 809/20/194 818/19/195 816/19/194
f 818/19/195 809/20/194 810/20/195
f 810/20/195 817/19/196 818/19/195
f 821/21/222 820/21/211 819/21/210
f 820/21/211 821/21/222 822/21/224
f 822/21/224 824/21/215 823/21/223
f 824/21/215 822/21/224 825/21/213
f 828/21/216 827/21/204 826/21/203
f 827/21/204 828/21/216 829/21/219
f 832/21/208 831/21/218 830/21/206
f 831/21/218 832/21/208 833/21/209
f 820/21/211 831/21/218 833/21/209
f 831/21/218 820/21/211 834/21/225
f 825/21/213 835/21/214 824/21/215
f 835/21/214 825/21/213 828/21/216
f 836/21/212 821/21/222 819/21/210
f 821/21/222 836/21/212 837/21/221
f 821/21/222 837/21/221 838/21/220
f 838/21/220 837/21/221 839/21/202
f 838/21/220 839/21/202 829/21/219
f 829/21/219 839/21/202 827/21/204
f 841/21/207 826/21/203 840/21/205
f 826/21/203 841/21/207 842/21/217
f 820/21/211 823/21/223 834/21/225
f 823/21/223 820/21/211 822/21/224
f 839/21/202 832/21/208 840/21/205
f 832/21/208 839/21/202 837/21/221
f 837/21/221 833/21/209 832/21/208
f 833/21/209 837/21/221 836/21/212
f 821/21/222 825/21/213 822/21/224
f 825/21/213 821/21/222 838/21/220
f 826/21/203 839/21/202 840/21/205
f 839/21/202 826/21/203 827/21/204
f 836/21/212 820/21/211 833/21/209
f 820/21/211 836/21/212 819/21/210
f 842/21/217 828/21/216 826/21/203
f 828/21/216 842/21/217 835/21/214
f 838/21/220 828/21/216 825/21/213
f 828/21/216 838/21/220 829/21/219
f 840/21/205 830/21/206 841/21/207
f 830/21/206 840/21/205 832/21/208
