# Blender 4.3.2
# www.blender.org
mtllib character-employee.001.mtl
o character-employee.001
v 0.126121 0.045000 -0.176250
v 0.041021 0.045000 -0.176250
v 0.126121 -0.087819 -0.176250
v 0.041021 -0.087819 -0.176250
v 0.030383 -0.087819 -0.090000
v 0.136759 -0.087819 -0.090000
v 0.030383 0.045000 -0.090000
v 0.136759 0.045000 -0.090000
v -0.136759 -0.087819 -0.090000
v -0.030383 -0.087819 -0.090000
v -0.126121 -0.087819 -0.176250
v -0.041021 -0.087819 -0.176250
v -0.136759 0.045000 -0.090000
v -0.126121 0.045000 -0.176250
v -0.041021 0.045000 -0.176250
v -0.030383 0.045000 -0.090000
v -0.126121 -0.162861 -0.214683
v -0.032793 -0.162861 -0.214683
v -0.126121 -0.114861 -0.368250
v 0.032793 -0.162861 -0.214683
v 0.126121 -0.162861 -0.214683
v 0.126121 -0.114861 -0.368250
v 0.126121 0.105361 -0.214683
v 0.032793 0.105361 -0.214683
v 0.126121 0.080361 -0.368250
v 0.032793 0.080361 -0.368250
v 0.151121 0.055032 -0.368250
v 0.151121 0.080032 -0.214683
v 0.151121 -0.136668 -0.214683
v 0.151121 -0.088668 -0.368250
v -0.032793 0.105361 -0.214683
v -0.126121 0.105361 -0.214683
v -0.151121 0.080032 -0.214683
v -0.151121 -0.136668 -0.214683
v 0.032793 -0.017250 -0.368250
v -0.032793 -0.017250 -0.368250
v -0.032793 0.080361 -0.368250
v -0.126121 0.080361 -0.368250
v -0.151121 -0.088668 -0.368250
v -0.151121 0.055032 -0.368250
v 0.030383 -0.093121 -0.057500
v 0.030383 0.102500 -0.057500
v 0.136759 -0.093121 -0.057500
v 0.136759 0.102500 -0.057500
v -0.136759 -0.093121 -0.057500
v -0.030383 -0.093121 -0.057500
v -0.030383 0.102500 -0.057500
v -0.136759 0.102500 -0.057500
v 0.126121 -0.162861 -0.176250
v 0.151121 -0.137861 -0.214683
v 0.151121 -0.137861 -0.176250
v 0.151121 0.080361 -0.176250
v 0.126121 0.105361 -0.176250
v -0.126121 0.105361 -0.176250
v -0.126121 -0.162861 -0.176250
v -0.151121 0.080361 -0.176250
v -0.151121 -0.137861 -0.176250
v -0.151121 0.080361 -0.214683
v -0.151121 -0.137861 -0.214683
v 0.151121 0.080361 -0.214683
v 0.099897 -0.072750 -0.232250
v 0.099897 -0.072750 -0.343250
v 0.099897 0.038250 -0.232250
v 0.099897 0.038250 -0.343250
v 0.233640 -0.061853 -0.343250
v 0.185678 0.038250 -0.343250
v 0.210897 -0.072750 -0.343250
v 0.290179 -0.034765 -0.207250
v 0.233640 -0.061853 -0.207250
v 0.242217 0.065339 -0.207250
v 0.185678 0.038250 -0.207250
v 0.300981 -0.057310 -0.232250
v 0.300981 -0.057310 -0.343250
v 0.290179 -0.034765 -0.232250
v 0.290179 -0.034765 -0.368250
v 0.242217 0.065339 -0.232250
v 0.290179 -0.034765 -0.343250
v 0.242217 0.065339 -0.368250
v 0.242217 0.065339 -0.343250
v 0.231415 0.087885 -0.232250
v 0.231415 0.087885 -0.343250
v 0.244442 -0.084399 -0.343250
v 0.233640 -0.061853 -0.368250
v 0.174876 0.060796 -0.232250
v 0.244442 -0.084399 -0.232250
v 0.174876 0.060796 -0.343250
v 0.185678 0.038250 -0.368250
v 0.185678 0.038250 -0.232250
v 0.233640 -0.061853 -0.232250
v 0.210897 -0.072750 -0.232250
v -0.210897 -0.072750 -0.232250
v -0.099897 -0.072750 -0.232250
v -0.210897 -0.072750 -0.343250
v -0.099897 -0.072750 -0.343250
v -0.099897 0.038250 -0.343250
v -0.099897 0.038250 -0.232250
v -0.244442 -0.084399 -0.232250
v -0.244442 -0.084399 -0.343250
v -0.300981 -0.057310 -0.232250
v -0.300981 -0.057310 -0.343250
v -0.185678 0.038250 -0.207250
v -0.233640 -0.061853 -0.207250
v -0.242217 0.065339 -0.207250
v -0.290179 -0.034765 -0.207250
v -0.185678 0.038250 -0.343250
v -0.233640 -0.061853 -0.343250
v -0.185678 0.038250 -0.232250
v -0.233640 -0.061853 -0.232250
v -0.185678 0.038250 -0.368250
v -0.242217 0.065339 -0.368250
v -0.233640 -0.061853 -0.368250
v -0.290179 -0.034765 -0.368250
v -0.231415 0.087885 -0.232250
v -0.231415 0.087885 -0.343250
v -0.174876 0.060796 -0.232250
v -0.174876 0.060796 -0.343250
v -0.242217 0.065339 -0.343250
v -0.242217 0.065339 -0.232250
v -0.290179 -0.034765 -0.343250
v -0.290179 -0.034765 -0.232250
v 0.126121 -0.137861 -0.253117
v 0.126121 -0.137861 -0.176250
v 0.126121 0.080361 -0.253117
v 0.126121 0.080361 -0.176250
v -0.126121 -0.137861 -0.176250
v -0.126121 -0.137861 -0.253117
v -0.126121 0.080361 -0.176250
v -0.126121 0.080361 -0.253117
v 0.000000 0.080361 -0.273183
v -0.099897 0.080361 -0.343250
v -0.065586 0.080361 -0.343250
v 0.099897 0.080361 -0.343250
v 0.065586 0.080361 -0.343250
v -0.099897 -0.114861 -0.343250
v 0.099897 -0.114861 -0.343250
v 0.136759 0.102500 0.000000
v 0.136759 -0.102500 0.000000
v 0.030383 0.102500 0.000000
v 0.030383 -0.102500 0.000000
v -0.136759 -0.102500 0.000000
v -0.136759 0.102500 0.000000
v -0.030383 -0.102500 0.000000
v -0.030383 0.102500 0.000000
v 0.121539 0.094629 -0.280608
v 0.062375 0.094629 -0.280608
v 0.121539 0.094629 -0.319041
v 0.062375 0.094629 -0.319041
v 0.390282 0.013197 -0.343250
v 0.390282 0.013197 -0.232250
v 0.342320 0.113300 -0.343250
v 0.342320 0.113300 -0.232250
v -0.342320 0.113300 -0.232250
v -0.342320 0.113300 -0.343250
v -0.390282 0.013197 -0.343250
v -0.390282 0.013197 -0.232250
v 0.000000 0.080361 -0.273183
v -0.065586 0.080361 -0.343250
v 0.065586 0.080361 -0.343250
v 0.160000 -0.027361 -0.507810
v 0.176688 -0.010673 -0.507810
v 0.160000 0.006014 -0.484210
v 0.176688 -0.010673 -0.413411
v 0.160000 -0.027361 -0.413411
v 0.160000 0.006014 -0.437010
v -0.160000 -0.027361 -0.507810
v -0.160000 0.006014 -0.484210
v -0.176688 -0.010673 -0.507810
v -0.160000 0.006014 -0.437010
v -0.160000 -0.027361 -0.413411
v -0.176688 -0.010673 -0.413411
v 0.226751 -0.060737 -0.484210
v 0.226751 -0.060737 -0.437010
v 0.210063 -0.044049 -0.507810
v 0.210063 -0.044049 -0.413411
v 0.176688 -0.077424 -0.507810
v 0.160000 -0.060737 -0.507810
v 0.176688 -0.077424 -0.413411
v 0.160000 -0.060737 -0.413411
v 0.193375 -0.094112 -0.484210
v 0.193375 -0.094112 -0.437010
v -0.160000 -0.060737 -0.507810
v -0.176688 -0.077424 -0.507810
v -0.210063 -0.044049 -0.507810
v -0.226751 -0.060737 -0.437010
v -0.226751 -0.060737 -0.484210
v -0.210063 -0.044049 -0.413411
v -0.193375 -0.094112 -0.437010
v -0.193375 -0.094112 -0.484210
v -0.176688 -0.077424 -0.413411
v -0.160000 -0.060737 -0.413411
v -0.120000 -0.162361 -0.343250
v -0.160000 -0.122361 -0.343250
v 0.120000 -0.162361 -0.343250
v 0.160000 -0.122361 -0.343250
v 0.120000 0.157639 -0.343250
v 0.160000 -0.027361 -0.343250
v 0.160000 0.117639 -0.343250
v -0.120000 0.157639 -0.343250
v -0.160000 -0.027361 -0.343250
v -0.160000 0.117639 -0.343250
v -0.160000 -0.027361 -0.437010
v -0.160000 0.045139 -0.437010
v -0.160000 0.100883 -0.455084
v -0.160000 0.117639 -0.504225
v 0.160000 -0.027361 -0.437010
v 0.160000 0.045139 -0.437010
v 0.160000 0.100883 -0.455084
v 0.160000 0.117639 -0.504225
v -0.120000 0.157639 -0.614450
v -0.160000 0.117639 -0.614450
v 0.120000 0.157639 -0.614450
v 0.160000 0.117639 -0.614450
v 0.120000 0.087639 -0.661325
v 0.090000 0.117639 -0.661325
v 0.120000 -0.092361 -0.661325
v 0.090000 -0.122361 -0.661325
v -0.090000 0.117639 -0.661325
v -0.090000 -0.122361 -0.661325
v -0.120000 0.087639 -0.661325
v -0.120000 -0.092361 -0.661325
v -0.120000 -0.162361 -0.614450
v -0.160000 -0.122361 -0.614450
v 0.160000 -0.122361 -0.614450
v 0.120000 -0.162361 -0.614450
v 0.072090 0.159605 -0.455023
v 0.050970 0.159605 -0.462063
v 0.093210 0.159605 -0.462063
v 0.100250 0.159605 -0.483183
v 0.043930 0.159605 -0.483183
v 0.093210 0.159605 -0.504303
v 0.118034 0.159605 -0.511343
v 0.050970 0.159605 -0.504303
v 0.072090 0.159605 -0.511343
v -0.072090 0.159605 -0.455023
v -0.093210 0.159605 -0.462063
v -0.050970 0.159605 -0.462063
v -0.043930 0.159605 -0.483183
v -0.100250 0.159605 -0.483183
v -0.050970 0.159605 -0.504303
v -0.093210 0.159605 -0.504303
v -0.072090 0.159605 -0.511343
v -0.118034 0.159605 -0.511343
v 0.019554 0.159605 -0.401585
v -0.019554 0.159605 -0.401585
v 0.043131 0.159605 -0.414277
v -0.043131 0.159605 -0.414277
v 0.044856 0.159605 -0.429008
v 0.013393 0.159605 -0.424578
v 0.031236 0.159605 -0.434879
v -0.013393 0.159605 -0.424578
v -0.044856 0.159605 -0.429008
v -0.031236 0.159605 -0.434879
v 0.160000 0.117639 -0.614450
v 0.160000 0.117639 -0.576950
v 0.120000 0.182739 -0.576950
v -0.120000 0.182739 -0.576950
v -0.160000 0.117639 -0.576950
v -0.060000 0.190489 -0.558200
v 0.060000 0.190489 -0.558200
v -0.171615 -0.087690 -0.578009
v -0.156065 -0.057764 -0.611325
v -0.227814 -0.094849 -0.593807
v -0.204489 -0.049960 -0.643781
v -0.237493 -0.125724 -0.642921
v -0.221943 -0.095798 -0.676237
v -0.153951 -0.052205 -0.693755
v -0.188251 -0.097294 -0.709553
v -0.160003 -0.203080 -0.676237
v -0.193695 -0.201584 -0.642921
v -0.144453 -0.173154 -0.709553
v -0.156154 -0.129336 -0.723353
v -0.225792 -0.169542 -0.629121
v -0.210263 -0.160576 -0.573106
v -0.162118 -0.208639 -0.593807
v -0.159915 -0.131508 -0.564209
v -0.127818 -0.163549 -0.578009
v -0.094126 -0.165046 -0.611325
v -0.111580 -0.210883 -0.643781
v -0.088255 -0.165994 -0.693755
v -0.105805 -0.100267 -0.714455
v -0.078576 -0.135120 -0.644641
v -0.090276 -0.091302 -0.658441
v -0.122373 -0.059260 -0.644641
v 0.127818 -0.163549 -0.578009
v 0.094126 -0.165046 -0.611325
v 0.162118 -0.208639 -0.593807
v 0.111580 -0.210883 -0.643781
v 0.156065 -0.057764 -0.611325
v 0.204489 -0.049960 -0.643781
v 0.122373 -0.059260 -0.644641
v 0.153951 -0.052205 -0.693755
v 0.088255 -0.165994 -0.693755
v 0.078576 -0.135120 -0.644641
v 0.105805 -0.100267 -0.714455
v 0.090276 -0.091302 -0.658441
v 0.225792 -0.169542 -0.629121
v 0.237493 -0.125724 -0.642921
v 0.210263 -0.160576 -0.573106
v 0.227814 -0.094849 -0.593807
v 0.193695 -0.201584 -0.642921
v 0.160003 -0.203080 -0.676237
v 0.221943 -0.095798 -0.676237
v 0.188251 -0.097294 -0.709553
v 0.156154 -0.129336 -0.723353
v 0.171615 -0.087690 -0.578009
v 0.159915 -0.131508 -0.564209
v 0.144453 -0.173154 -0.709553
v 0.120000 -0.047361 -0.671325
v 0.120000 0.042639 -0.671325
v -0.120000 -0.047361 -0.671325
v -0.120000 0.042639 -0.671325
v 0.170000 -0.047361 -0.614450
v 0.170000 0.042639 -0.614450
v 0.170000 -0.047361 -0.536950
v 0.170000 -0.024861 -0.514450
v 0.170000 0.020139 -0.514450
v 0.170000 0.042639 -0.536950
v -0.170000 -0.047361 -0.536950
v -0.170000 -0.047361 -0.614450
v -0.170000 -0.024861 -0.514450
v -0.170000 0.042639 -0.614450
v -0.170000 0.020139 -0.514450
v -0.170000 0.042639 -0.536950
vn -0.0000 -0.0000 -1.0000
vn -0.0000 -1.0000 -0.0000
vn -0.9925 -0.0000 -0.1224
vn -0.0000 1.0000 -0.0000
vn 0.9925 -0.0000 -0.1224
vn -0.2899 -0.6204 -0.7288
vn -0.0000 -0.9545 -0.2983
vn -0.3540 -0.8926 -0.2790
vn 0.3540 -0.8926 -0.2790
vn 0.2899 -0.6204 -0.7287
vn 0.2920 0.6680 -0.6844
vn -0.0000 0.9870 -0.1607
vn 0.3682 0.9177 -0.1494
vn -0.0000 0.6478 -0.7618
vn 0.9091 0.4111 -0.0669
vn 0.9370 0.3448 -0.0561
vn 0.8947 -0.4264 -0.1333
vn 0.9473 -0.3057 -0.0955
vn -0.0000 -0.0000 1.0000
vn -0.2920 0.6680 -0.6844
vn -0.3682 0.9177 -0.1494
vn -0.9091 0.4111 -0.0669
vn -0.9370 0.3448 -0.0561
vn -0.9473 -0.3057 -0.0955
vn -0.8947 -0.4264 -0.1333
vn -1.0000 -0.0000 -0.0000
vn -0.0000 -0.9870 -0.1610
vn -0.0000 0.4921 -0.8706
vn 1.0000 -0.0000 -0.0000
vn 0.9239 -0.3827 -0.0000
vn 0.3827 -0.9239 -0.0000
vn 0.3827 0.9239 -0.0000
vn -0.3827 0.9239 -0.0000
vn -0.9239 0.3827 -0.0000
vn -0.9239 -0.3827 -0.0000
vn 0.9239 0.3827 -0.0000
vn -0.3827 -0.9239 -0.0000
vn -0.1654 0.3451 0.9239
vn 0.1654 -0.3451 0.9239
vn 0.9018 0.4321 -0.0000
vn 0.9019 0.4320 -0.0000
vn 0.3992 -0.8332 -0.3827
vn 0.1654 -0.3451 -0.9239
vn -0.3992 0.8332 0.3827
vn 0.3992 -0.8332 0.3827
vn -0.9018 -0.4321 -0.0000
vn -0.1654 0.3451 -0.9239
vn -0.3992 0.8332 -0.3827
vn 0.2215 -0.9752 -0.0000
vn 0.2215 -0.9751 -0.0000
vn 0.4321 -0.9018 -0.0000
vn 0.2216 -0.9751 -0.0000
vn -0.2215 -0.9752 -0.0000
vn -0.3992 -0.8332 0.3827
vn -0.3992 -0.8332 -0.3827
vn 0.1654 0.3451 0.9239
vn -0.1654 -0.3451 0.9239
vn -0.4321 -0.9018 -0.0000
vn -0.2216 -0.9751 -0.0000
vn -0.1654 -0.3451 -0.9239
vn 0.1654 0.3451 -0.9239
vn 0.3992 0.8332 0.3827
vn 0.3992 0.8332 -0.3827
vn 0.9018 -0.4321 -0.0000
vn -0.9018 0.4321 -0.0000
vn 0.9900 -0.0000 -0.1411
vn 0.9916 -0.0000 -0.1294
vn 0.9900 -0.0000 -0.1410
vn -0.0000 -0.9936 -0.1126
vn -0.9916 -0.0000 -0.1294
vn -0.9900 -0.0000 -0.1411
vn -0.9602 -0.0000 -0.2794
vn -0.0000 -0.9690 -0.2473
vn 0.9602 -0.0000 -0.2794
vn -0.7071 0.7071 -0.0000
vn -0.7408 -0.6629 -0.1081
vn -0.6678 -0.7347 -0.1198
vn 0.7408 -0.6629 -0.1081
vn 0.7071 0.7071 -0.0000
vn 0.6678 -0.7347 -0.1198
vn -0.4321 0.9018 -0.0000
vn 0.4321 0.9018 -0.0000
vn -0.5000 0.5000 -0.7071
vn -0.2706 0.2706 -0.9239
vn -0.1538 0.1538 -0.9761
vn -0.5000 0.5000 0.7071
vn -0.1538 0.1538 0.9761
vn -0.2706 0.2706 0.9239
vn 0.2706 0.2706 -0.9239
vn 0.5000 0.5000 -0.7071
vn 0.1538 0.1538 -0.9761
vn 0.2706 0.2706 0.9239
vn 0.1538 0.1538 0.9761
vn 0.5000 0.5000 0.7071
vn 0.2706 -0.2706 -0.9239
vn 0.2706 -0.2706 0.9239
vn -0.7071 -0.7071 -0.0000
vn 0.6533 -0.6533 -0.3827
vn 0.6533 -0.6533 0.3827
vn -0.2706 -0.2706 -0.9239
vn -0.6533 -0.6533 0.3827
vn -0.6533 -0.6533 -0.3827
vn 0.7071 -0.7071 -0.0000
vn -0.2706 -0.2706 0.9239
vn 0.4292 -0.1484 -0.8909
vn 0.1484 0.4292 -0.8909
vn 0.4292 0.1484 -0.8909
vn 0.1484 -0.4292 -0.8909
vn -0.1484 0.4292 -0.8909
vn -0.1484 -0.4292 -0.8909
vn -0.4292 0.1484 -0.8909
vn -0.4292 -0.1484 -0.8909
vn -0.3681 -0.8567 -0.3614
vn -0.8567 -0.3681 -0.3614
vn -0.2874 0.6299 -0.7215
vn -0.8518 0.1939 -0.4867
vn 0.8518 0.1939 -0.4867
vn 0.8567 -0.3681 -0.3614
vn 0.2874 0.6299 -0.7215
vn 0.3681 -0.8567 -0.3614
vn 0.2969 0.8315 -0.4696
vn 0.8520 0.5235 -0.0000
vn 0.8065 0.5749 -0.1378
vn 0.3782 0.7693 -0.5149
vn -0.2969 0.8315 -0.4696
vn -0.3782 0.7693 -0.5149
vn -0.8065 0.5749 -0.1378
vn -0.8520 0.5235 -0.0000
vn -0.0000 0.9242 -0.3820
vn 0.5622 0.3246 -0.7607
vn 0.7510 -0.3829 -0.5379
vn -0.2225 -0.1285 -0.9664
vn -0.1152 -0.5305 -0.8398
vn 0.6588 0.3803 0.6491
vn -0.8615 -0.4974 -0.1018
vn -0.5670 -0.7914 -0.2284
vn -0.5622 -0.3246 0.7607
vn -0.0439 -0.8419 0.5379
vn 0.9854 -0.1252 -0.1155
vn 0.5000 -0.8660 -0.0000
vn 0.7720 -0.5360 0.3418
vn -0.7510 0.3829 0.5379
vn -0.9689 -0.0953 -0.2284
vn -0.2579 -0.8051 -0.5341
vn -0.2916 0.5258 0.7991
vn -0.1310 -0.0756 0.9885
vn 0.0439 0.8419 -0.5379
vn -0.5000 0.8660 -0.0000
vn 0.3842 0.9160 -0.1155
vn -0.0782 0.9365 0.3418
vn 0.8248 0.4762 -0.3049
vn -0.5171 0.1655 -0.8398
vn 0.3095 -0.5154 0.7991
vn -0.8262 0.1793 -0.5341
vn -0.3842 0.9160 -0.1155
vn -0.0439 0.8419 -0.5379
vn -0.8248 0.4762 -0.3049
vn -0.5622 0.3246 -0.7607
vn -0.6588 0.3803 0.6491
vn 0.5622 -0.3246 0.7607
vn 0.1310 -0.0756 0.9885
vn 0.0439 -0.8419 0.5379
vn -0.3095 -0.5154 0.7991
vn 0.1152 -0.5305 -0.8398
vn -0.7510 -0.3829 -0.5379
vn 0.2225 -0.1285 -0.9664
vn -0.5000 -0.8660 -0.0000
vn -0.9854 -0.1252 -0.1155
vn -0.7720 -0.5360 0.3418
vn 0.2579 -0.8051 -0.5341
vn 0.8262 0.1793 -0.5341
vn 0.9689 -0.0953 -0.2284
vn 0.5171 0.1655 -0.8398
vn 0.8615 -0.4974 -0.1018
vn 0.5670 -0.7914 -0.2284
vn 0.5000 0.8660 -0.0000
vn 0.7510 0.3829 0.5379
vn 0.2916 0.5258 0.7991
vn 0.0782 0.9365 0.3418
vn -0.4122 -0.0000 -0.9111
vn 0.4122 -0.0000 -0.9111
vn 0.9357 -0.0000 -0.3528
vn -0.9357 -0.0000 -0.3528
vt 0.218750 0.275000
vt 0.218750 0.475000
vt 0.593750 0.225000
vt 0.593750 0.025000
vt 0.593750 0.162888
vt 0.593750 0.117056
vt 0.593750 0.141088
vt 0.968750 0.225000
vt 0.718750 0.162888
vt 0.718750 0.025000
vt 0.656250 0.125000
vt 0.718750 0.175000
vt 0.718750 0.225000
vt 0.718750 0.075000
vt 0.718750 0.094145
vt 0.718750 0.107473
vt 0.718750 0.143713
vt 0.093750 0.225000
vt 0.093750 0.195526
vt 0.093750 0.025000
vt 0.093750 0.083955
vt 0.093750 0.095319
vt 0.093750 0.126218
vt 0.093750 0.166365
vt 0.093750 0.157989
vt 0.093750 0.191494
vt 0.093750 0.216624
vt 0.093750 0.109509
vt 0.093750 0.094408
vt 0.093750 0.127036
vt 0.093750 0.121765
vt 0.093750 0.134022
vt 0.093750 0.091667
vt 0.093750 0.213818
vt 0.093750 0.187804
vt 0.093750 0.207657
vt 0.093750 0.084212
vt 0.093750 0.042343
vt 0.093750 0.126081
vt 0.093750 0.143424
vt 0.093750 0.106576
vt 0.093750 0.123919
vt 0.093750 0.036182
vt 0.093750 0.062196
vt 0.093750 0.125000
vt 0.093750 0.165788
vt 0.218750 0.402490
vt 0.218750 0.303685
s 1
usemtl colormap.012
f 3/1/1 2/2/1 1/2/1
f 2/2/1 3/1/1 4/2/1
f 4/2/2 6/2/2 5/2/2
f 6/2/2 4/2/2 3/1/2
f 7/2/3 4/2/3 5/2/3
f 4/2/3 7/2/3 2/2/3
f 1/2/4 7/2/4 8/2/4
f 7/2/4 1/2/4 2/2/4
f 3/1/5 8/2/5 6/2/5
f 8/2/5 3/1/5 1/2/5
f 11/2/2 10/2/2 9/2/2
f 10/2/2 11/2/2 12/1/2
f 13/2/3 11/2/3 9/2/3
f 11/2/3 13/2/3 14/2/3
f 12/1/1 14/2/1 15/2/1
f 14/2/1 12/1/1 11/2/1
f 15/2/4 13/2/4 16/2/4
f 13/2/4 15/2/4 14/2/4
f 12/1/5 16/2/5 10/2/5
f 16/2/5 12/1/5 15/2/5
f 19/2/6 18/1/7 17/1/8
f 18/1/7 19/2/6 20/1/7
f 20/1/7 19/2/6 21/1/9
f 21/1/9 19/2/6 22/2/10
f 25/2/11 24/1/12 23/1/13
f 24/1/12 25/2/11 26/2/14
f 25/2/11 28/1/15 27/2/16
f 28/1/15 25/2/11 23/1/13
f 22/2/10 29/1/17 21/1/9
f 29/1/17 22/2/10 30/2/18
f 23/1/19 29/1/19 28/1/19
f 29/1/19 23/1/19 21/1/19
f 21/1/19 23/1/19 24/1/19
f 21/1/19 24/1/19 20/1/19
f 30/2/18 28/1/15 29/1/17
f 28/1/15 30/2/18 27/2/16
f 32/1/19 18/1/19 31/1/19
f 18/1/19 32/1/19 17/1/19
f 17/1/19 32/1/19 33/1/19
f 17/1/19 33/1/19 34/1/19
f 22/2/10 27/2/1 30/2/1
f 27/2/1 22/2/10 25/2/11
f 25/2/11 22/2/10 35/2/1
f 26/2/14 25/2/11 35/2/1
f 35/2/1 22/2/10 19/2/6
f 35/2/1 19/2/6 36/2/1
f 36/2/1 19/2/6 37/2/14
f 37/2/14 19/2/6 38/2/20
f 38/2/20 19/2/6 39/2/1
f 38/2/20 39/2/1 40/2/1
f 31/1/12 38/2/20 32/1/21
f 38/2/20 31/1/12 37/2/14
f 33/1/22 38/2/20 40/2/23
f 38/2/20 33/1/22 32/1/21
f 33/1/22 39/2/24 34/1/25
f 39/2/24 33/1/22 40/2/23
f 34/1/25 19/2/6 17/1/8
f 19/2/6 34/1/25 39/2/24
f 42/3/26 5/3/26 41/3/26
f 5/3/26 42/3/26 7/3/26
f 5/3/27 43/3/27 41/3/27
f 43/3/27 5/3/27 6/3/27
f 8/3/28 42/3/28 44/3/28
f 42/3/28 8/3/28 7/3/28
f 6/3/29 44/3/29 43/3/29
f 44/3/29 6/3/29 8/3/29
f 9/3/27 46/3/27 45/3/27
f 46/3/27 9/3/27 10/3/27
f 16/3/28 48/3/28 47/3/28
f 48/3/28 16/3/28 13/3/28
f 48/3/26 9/3/26 45/3/26
f 9/3/26 48/3/26 13/3/26
f 10/3/29 47/3/29 46/3/29
f 47/3/29 10/3/29 16/3/29
f 50/3/30 49/4/31 21/3/31
f 49/4/31 50/3/30 51/4/30
f 53/4/19 51/4/19 52/4/19
f 51/4/19 53/4/19 49/4/19
f 49/4/19 53/4/19 54/4/19
f 49/4/19 54/4/19 55/4/19
f 55/4/19 54/4/19 56/4/19
f 55/4/19 56/4/19 57/4/19
f 23/3/32 54/4/33 53/4/32
f 54/4/33 23/3/32 32/3/33
f 54/4/33 58/3/34 56/4/34
f 58/3/34 54/4/33 32/3/33
f 56/4/34 59/3/35 57/4/35
f 59/3/35 56/4/34 58/3/34
f 21/3/1 60/3/1 50/3/1
f 60/3/1 21/3/1 23/3/1
f 23/3/1 21/3/1 17/3/1
f 23/3/1 17/3/1 32/3/1
f 32/3/1 17/3/1 59/3/1
f 32/3/1 59/3/1 58/3/1
f 60/3/36 51/4/30 50/3/30
f 51/4/30 60/3/36 52/4/36
f 17/3/37 49/4/31 55/4/37
f 49/4/31 17/3/37 21/3/31
f 57/4/35 17/3/37 55/4/37
f 17/3/37 57/4/35 59/3/35
f 23/3/32 52/4/36 60/3/36
f 52/4/36 23/3/32 53/4/32
f 63/4/26 62/5/26 61/4/26
f 62/5/26 63/4/26 64/5/26
f 67/5/1 66/5/1 65/5/1
f 66/5/1 67/5/1 62/5/1
f 66/5/1 62/5/1 64/5/1
f 70/4/38 69/4/39 68/4/39
f 69/4/39 70/4/38 71/4/38
f 73/5/40 68/4/40 72/4/40
f 68/4/40 73/5/40 74/4/40
f 75/3/40 74/4/40 73/5/40
f 68/4/40 74/4/40 76/4/40
s 0
f 74/4/40 75/3/40 77/5/40
s 1
f 68/4/40 76/4/40 70/4/40
f 77/5/40 75/3/40 78/3/40
s 0
f 70/4/41 76/4/41 79/5/41
s 1
f 77/5/40 78/3/40 79/5/40
f 70/4/40 79/5/40 80/4/40
f 79/5/40 78/3/40 81/5/40
f 80/4/40 79/5/40 81/5/40
f 82/5/42 75/3/43 73/5/42
f 75/3/43 82/5/42 83/3/43
f 80/4/44 71/4/38 70/4/38
f 71/4/38 80/4/44 84/4/44
f 68/4/39 85/4/45 72/4/45
f 85/4/45 68/4/39 69/4/39
f 87/3/46 84/4/46 86/5/46
f 66/5/46 84/4/46 87/3/46
f 83/3/46 66/5/46 87/3/46
f 88/4/46 84/4/46 66/5/46
f 88/4/46 71/4/46 84/4/46
f 89/4/46 71/4/46 88/4/46
f 83/3/46 65/5/46 66/5/46
f 71/4/46 89/4/46 69/4/46
s 0
f 65/5/46 69/4/46 89/4/46
s 1
f 82/5/46 65/5/46 83/3/46
f 82/5/46 69/4/46 65/5/46
f 69/4/46 82/5/46 85/4/46
f 82/5/42 72/4/45 85/4/45
f 72/4/45 82/5/42 73/5/42
f 87/3/47 81/5/48 78/3/47
f 81/5/48 87/3/47 86/5/48
f 88/4/19 90/4/19 89/4/19
f 90/4/19 88/4/19 61/4/19
f 61/4/19 88/4/19 63/4/19
f 83/3/43 78/3/47 75/3/43
f 78/3/47 83/3/43 87/3/47
f 61/4/2 67/5/49 90/4/50
f 67/5/49 61/4/2 62/5/2
f 81/5/48 84/4/44 80/4/44
f 84/4/44 81/5/48 86/5/48
f 66/5/4 63/4/4 88/4/4
f 63/4/4 66/5/4 64/5/4
f 67/5/49 89/4/51 90/4/50
f 89/4/51 67/5/52 65/5/51
f 93/5/53 92/4/2 91/4/53
f 92/4/2 93/5/53 94/5/2
f 95/5/29 92/4/29 94/5/29
f 92/4/29 95/5/29 96/4/29
f 99/4/54 98/5/55 97/4/54
f 98/5/55 99/4/54 100/5/55
f 103/4/56 102/4/57 101/4/56
f 102/4/57 103/4/56 104/4/57
f 93/5/1 95/5/1 94/5/1
f 95/5/1 93/5/1 105/5/1
f 105/5/1 93/5/1 106/5/1
f 107/4/19 92/4/19 96/4/19
f 92/4/19 107/4/19 91/4/19
f 91/4/19 107/4/19 108/4/19
f 106/5/58 91/4/59 108/4/58
f 91/4/53 106/5/58 93/5/53
f 95/5/4 107/4/4 96/4/4
f 107/4/4 95/5/4 105/5/4
f 111/3/60 110/3/61 109/3/61
f 110/3/61 111/3/60 112/3/60
f 115/4/62 114/5/63 113/4/62
f 114/5/63 115/4/62 116/5/63
f 101/4/64 116/5/64 115/4/64
f 107/4/64 116/5/64 101/4/64
f 102/4/64 107/4/64 101/4/64
f 105/5/64 116/5/64 107/4/64
f 105/5/64 109/3/64 116/5/64
f 105/5/64 111/3/64 109/3/64
f 102/4/64 108/4/64 107/4/64
f 106/5/64 111/3/64 105/5/64
s 0
f 102/4/64 106/5/64 108/4/64
s 1
f 111/3/64 106/5/64 98/5/64
f 102/4/64 98/5/64 106/5/64
f 98/5/64 102/4/64 97/4/64
f 104/4/57 97/4/54 102/4/57
f 97/4/54 104/4/57 99/4/54
f 109/3/61 114/5/63 116/5/63
f 114/5/63 109/3/61 110/3/61
f 110/3/65 113/4/65 114/5/65
f 117/5/65 113/4/65 110/3/65
f 112/3/65 117/5/65 110/3/65
f 118/4/65 113/4/65 117/5/65
f 112/3/65 119/5/65 117/5/65
f 118/4/65 103/4/65 113/4/65
s 0
f 112/3/65 120/4/65 119/5/65
s 1
f 120/4/65 103/4/65 118/4/65
f 100/5/65 120/4/65 112/3/65
f 103/4/65 120/4/65 104/4/65
f 100/5/65 104/4/65 120/4/65
f 104/4/65 100/5/65 99/4/65
f 98/5/55 112/3/60 111/3/60
f 112/3/60 98/5/55 100/5/55
f 113/4/62 101/4/56 115/4/62
f 101/4/56 113/4/62 103/4/56
f 123/6/66 122/4/29 121/6/67
f 122/4/29 123/6/68 124/4/29
f 125/4/2 121/6/69 122/4/2
f 121/6/69 125/4/2 126/6/69
f 123/6/4 127/4/4 124/4/4
f 127/4/4 123/6/4 128/6/4
f 123/6/4 129/7/4 128/6/4
f 129/7/4 130/3/4 128/6/4
f 130/3/4 129/7/4 131/3/4
f 129/7/4 123/6/4 132/3/4
f 129/7/4 132/3/4 133/3/4
f 127/4/26 126/6/70 125/4/26
f 126/6/70 127/4/26 128/6/71
f 128/6/71 134/3/72 126/6/70
f 134/3/72 128/6/71 130/3/72
f 134/3/1 132/3/1 135/3/1
f 132/3/1 134/3/1 130/3/1
f 134/3/73 121/6/69 126/6/69
f 121/6/69 134/3/73 135/3/73
f 135/3/74 123/6/66 121/6/67
f 123/6/66 135/3/74 132/3/74
f 138/8/19 137/8/19 136/8/19
f 137/8/19 138/8/19 139/8/19
f 138/8/75 41/8/76 139/8/77
f 41/8/76 138/8/75 42/8/75
f 43/8/78 136/8/79 137/8/80
f 136/8/79 43/8/78 44/8/79
f 41/8/76 137/8/80 139/8/77
f 137/8/80 41/8/76 43/8/78
f 44/8/79 138/8/75 136/8/79
f 138/8/75 44/8/79 42/8/75
f 141/8/75 45/8/76 140/8/77
f 45/8/76 141/8/75 48/8/75
f 45/8/76 142/8/80 140/8/77
f 142/8/80 45/8/76 46/8/78
f 47/8/79 141/8/75 143/8/79
f 141/8/75 47/8/79 48/8/75
f 46/8/78 143/8/79 142/8/80
f 143/8/79 46/8/78 47/8/79
f 141/8/19 142/8/19 143/8/19
f 142/8/19 141/8/19 140/8/19
f 146/3/4 145/4/4 144/4/4
f 145/4/4 146/3/4 147/3/4
f 150/9/40 149/10/40 148/9/40
f 149/10/40 150/9/40 151/10/40
f 151/10/19 74/10/19 149/10/19
f 74/10/19 151/10/19 76/10/19
f 151/10/81 79/9/81 76/10/81
f 79/9/81 151/10/81 150/9/81
f 77/9/1 150/9/1 148/9/1
f 150/9/1 77/9/1 79/9/1
f 77/9/51 149/10/51 74/10/51
f 149/10/51 77/9/51 148/9/51
f 117/9/82 152/10/82 118/10/82
f 152/10/82 117/9/82 153/9/82
f 119/9/1 153/9/1 117/9/1
f 153/9/1 119/9/1 154/9/1
f 152/10/65 154/9/65 155/10/65
f 154/9/65 152/10/65 153/9/65
f 152/10/19 120/10/19 118/10/19
f 120/10/19 152/10/19 155/10/19
f 155/10/58 119/9/58 120/10/58
f 119/9/58 155/10/58 154/9/58
f 158/11/4 157/11/4 156/11/4
f 161/12/83 160/13/84 159/13/85
f 164/14/86 163/10/87 162/10/88
f 167/13/89 166/12/90 165/13/91
f 170/10/92 169/10/93 168/14/94
f 173/13/79 172/14/79 171/12/79
f 172/14/79 173/13/79 174/10/79
f 174/10/79 173/13/79 162/10/79
f 162/10/79 173/13/79 160/13/79
f 162/10/79 160/13/79 164/14/79
f 164/14/79 160/13/79 161/12/79
f 175/13/95 160/13/84 173/13/95
f 160/13/84 175/13/95 159/13/85
f 159/13/85 175/13/95 176/13/1
f 162/10/88 177/10/96 174/10/96
f 177/10/96 162/10/88 163/10/87
f 177/10/96 163/10/87 178/10/19
f 180/14/97 175/13/97 179/12/97
f 175/13/97 180/14/97 177/10/97
f 175/13/97 177/10/97 178/10/97
f 175/13/97 178/10/97 176/13/97
f 179/12/98 172/14/99 180/14/99
f 172/14/99 179/12/98 171/12/98
f 179/12/98 173/13/95 171/12/98
f 173/13/95 179/12/98 175/13/95
f 174/10/96 180/14/99 172/14/99
f 180/14/99 174/10/96 177/10/96
f 182/13/100 165/13/91 181/13/1
f 165/13/91 182/13/100 167/13/89
f 167/13/89 182/13/100 183/13/100
f 186/10/75 185/12/75 184/14/75
f 185/12/75 186/10/75 183/13/75
f 183/13/75 186/10/75 170/10/75
f 183/13/75 170/10/75 167/13/75
f 167/13/75 170/10/75 168/14/75
f 167/13/75 168/14/75 166/12/75
f 184/14/101 188/12/102 187/14/101
f 188/12/102 184/14/101 185/12/102
f 182/13/103 187/14/103 188/12/103
f 187/14/103 182/13/103 189/10/103
f 189/10/103 182/13/103 181/13/103
f 189/10/103 181/13/103 190/10/103
f 188/12/102 183/13/100 182/13/100
f 183/13/100 188/12/102 185/12/102
f 169/10/93 189/10/104 190/10/19
f 189/10/104 169/10/93 170/10/92
f 189/10/104 170/10/92 186/10/104
f 186/10/104 187/14/101 189/10/104
f 187/14/101 186/10/104 184/14/101
f 193/10/19 192/10/19 191/10/19
f 192/10/19 193/10/19 194/10/19
f 194/10/19 195/10/19 192/10/19
f 196/10/19 195/10/19 194/10/19
f 195/10/19 196/10/19 197/10/19
f 192/10/19 195/10/19 198/10/19
f 192/10/19 198/10/19 199/10/19
f 199/10/19 198/10/19 200/10/19
f 199/10/26 202/15/26 201/15/26
f 202/15/26 199/10/26 200/10/26
f 202/15/26 200/10/26 203/16/26
f 203/16/26 200/10/26 204/17/26
f 206/15/29 196/10/29 205/15/29
f 196/10/29 206/15/29 197/10/29
f 197/10/29 206/15/29 207/16/29
f 197/10/29 207/16/29 208/17/29
f 198/10/33 204/17/75 200/10/75
f 204/17/75 198/10/33 209/13/33
f 204/17/75 209/13/33 210/13/75
f 211/13/32 198/10/33 195/10/32
f 198/10/33 211/13/32 209/13/33
s 0
f 212/13/79 197/10/79 208/17/79
s 1
f 197/10/79 212/13/79 211/13/32
f 197/10/79 211/13/32 195/10/32
f 215/18/105 214/18/106 213/18/107
f 214/18/106 215/18/105 216/18/108
f 214/18/106 216/18/108 217/18/109
f 217/18/109 216/18/108 218/18/110
f 217/18/109 218/18/110 219/18/111
f 219/18/111 218/18/110 220/18/112
f 221/19/113 220/18/112 218/18/110
f 220/18/112 221/19/113 222/19/114
f 219/18/111 209/19/115 217/18/109
f 209/19/115 219/18/111 210/19/116
f 215/18/105 212/19/117 223/19/118
f 212/19/117 215/18/105 213/18/107
f 213/18/107 211/19/119 212/19/117
f 211/19/119 213/18/107 214/18/106
f 210/19/116 220/18/112 222/19/114
f 220/18/112 210/19/116 219/18/111
f 211/19/119 217/18/109 209/19/115
f 217/18/109 211/19/119 214/18/106
f 224/19/120 215/18/105 223/19/118
f 215/18/105 224/19/120 216/18/108
f 218/18/110 224/19/120 221/19/113
f 224/19/120 218/18/110 216/18/108
f 224/19/120 194/20/30 193/20/31
f 194/20/30 224/19/120 223/19/118
f 221/19/113 193/20/31 191/20/37
f 193/20/31 221/19/113 224/19/120
f 199/20/26 222/19/114 192/20/35
f 222/19/114 199/20/26 201/21/26
f 201/21/26 210/19/116 222/19/114
f 210/19/116 201/21/26 202/21/26
f 210/19/116 202/21/26 203/22/26
f 210/19/116 203/22/26 204/23/26
f 212/19/117 194/20/30 223/19/118
f 194/20/30 212/19/117 205/21/29
f 196/20/29 194/20/30 205/21/29
f 205/21/29 212/19/117 206/21/29
f 206/21/29 212/19/117 207/22/29
f 207/22/29 212/19/117 208/23/29
f 192/20/35 221/19/113 191/20/37
f 221/19/113 192/20/35 222/19/114
f 227/24/4 226/24/4 225/25/4
f 226/24/4 227/24/4 228/26/4
f 226/24/4 228/26/4 229/26/4
f 229/26/4 228/26/4 230/27/4
f 231/18/4 230/27/4 228/26/4
f 229/26/4 230/27/4 232/27/4
f 230/27/4 231/18/4 233/18/4
f 232/27/4 230/27/4 233/18/4
f 236/24/4 235/24/4 234/25/4
f 235/24/4 236/24/4 237/26/4
f 235/24/4 237/26/4 238/26/4
f 238/26/4 237/26/4 239/27/4
f 238/26/4 239/27/4 240/27/4
f 240/27/4 239/27/4 241/18/4
f 240/27/4 242/18/4 238/26/4
f 242/18/4 240/27/4 241/18/4
f 245/28/4 244/29/4 243/29/4
f 244/29/4 245/28/4 246/28/4
f 246/28/4 245/28/4 247/30/4
f 246/28/4 247/30/4 248/31/4
f 248/31/4 247/30/4 249/32/4
f 250/31/4 246/28/4 248/31/4
f 246/28/4 250/31/4 251/30/4
f 251/30/4 250/31/4 252/32/4
f 255/33/121 254/33/122 253/18/123
f 255/33/121 253/18/123 211/18/124
f 256/33/125 209/18/126 210/18/127
f 256/33/125 210/18/127 257/33/128
f 259/20/129 256/33/125 258/20/129
f 256/33/125 259/20/129 255/33/121
f 255/33/121 209/18/126 256/33/125
f 209/18/126 255/33/121 211/18/124
f 280/34/130 279/35/131 271/18/132
f 270/36/133 271/18/132 279/35/131
f 261/37/134 260/38/134 283/39/134
f 283/39/134 260/38/134 282/40/134
f 260/38/134 275/20/134 282/40/134
f 282/40/134 275/20/134 281/39/134
f 275/20/134 276/38/134 281/39/134
f 277/37/134 281/39/134 276/38/134
f 272/41/135 269/42/136 273/43/137
f 274/44/138 273/43/137 269/42/136
f 279/35/131 281/39/139 278/45/140
f 277/37/141 278/45/140 281/39/139
f 262/44/142 264/42/143 273/43/137
f 272/41/135 273/43/137 264/42/143
f 268/46/144 278/45/140 269/42/136
f 274/44/138 269/42/136 278/45/140
f 260/38/145 262/44/142 275/20/146
f 273/43/137 275/20/146 262/44/142
f 270/36/133 279/35/131 268/46/144
f 278/45/140 268/46/144 279/35/131
f 266/35/147 263/45/148 283/39/149
f 261/37/150 283/39/149 263/45/148
f 283/39/149 282/40/151 266/35/147
f 280/34/130 266/35/147 282/40/151
f 280/34/130 271/18/132 266/35/147
f 267/36/152 266/35/147 271/18/132
f 282/40/151 281/39/139 280/34/130
f 279/35/131 280/34/130 281/39/139
f 278/45/140 277/37/141 274/44/138
f 276/38/153 274/44/138 277/37/141
f 276/38/153 275/20/146 274/44/138
f 273/43/137 274/44/138 275/20/146
f 265/46/154 267/36/152 264/42/143
f 264/42/143 267/36/152 272/41/135
f 267/36/152 271/18/132 272/41/135
f 272/41/135 271/18/132 269/42/136
f 271/18/132 270/36/133 269/42/136
f 268/46/144 269/42/136 270/36/133
f 267/36/152 265/46/154 266/35/147
f 263/45/148 266/35/147 265/46/154
f 265/46/154 264/42/143 263/45/148
f 262/44/142 263/45/148 264/42/143
f 263/45/148 262/44/142 261/37/150
f 260/38/145 261/37/150 262/44/142
f 290/39/155 291/35/156 295/40/157
f 294/34/158 295/40/157 291/35/156
f 288/37/159 290/39/159 305/38/159
f 305/38/159 290/39/159 306/20/159
f 290/39/159 295/40/159 306/20/159
f 306/20/159 295/40/159 284/38/159
f 295/40/159 293/39/159 284/38/159
f 285/37/159 284/38/159 293/39/159
f 298/43/160 306/20/161 286/44/162
f 284/38/163 286/44/162 306/20/161
f 307/36/164 292/35/165 304/18/166
f 294/34/158 304/18/166 292/35/165
f 292/35/165 287/45/167 293/39/168
f 285/37/169 293/39/168 287/45/167
f 307/36/164 301/46/170 292/35/165
f 287/45/167 292/35/165 301/46/170
f 302/46/171 297/42/172 303/36/173
f 303/36/173 297/42/172 304/18/166
f 297/42/172 296/41/174 304/18/166
f 304/18/166 296/41/174 307/36/164
f 296/41/174 300/42/175 307/36/164
f 301/46/170 307/36/164 300/42/175
f 302/46/171 289/45/176 297/42/172
f 299/44/177 297/42/172 289/45/176
f 298/43/160 299/44/177 306/20/161
f 305/38/178 306/20/161 299/44/177
f 289/45/176 288/37/179 299/44/177
f 305/38/178 299/44/177 288/37/179
f 303/36/173 304/18/166 291/35/156
f 294/34/158 291/35/156 304/18/166
f 303/36/173 291/35/156 302/46/171
f 289/45/176 302/46/171 291/35/156
f 301/46/170 300/42/175 287/45/167
f 286/44/162 287/45/167 300/42/175
f 296/41/174 298/43/160 300/42/175
f 286/44/162 300/42/175 298/43/160
f 299/44/177 298/43/160 297/42/172
f 296/41/174 297/42/172 298/43/160
f 295/40/157 294/34/158 293/39/168
f 292/35/165 293/39/168 294/34/158
f 291/35/156 290/39/155 289/45/176
f 288/37/179 289/45/176 290/39/155
f 287/45/167 286/44/162 285/37/169
f 284/38/163 285/37/169 286/44/162
f 310/2/180 309/2/181 308/2/181
f 309/2/181 310/2/180 311/2/180
f 308/2/181 313/47/182 312/47/182
f 313/47/182 308/2/181 309/2/181
f 313/47/182 314/48/29 312/47/182
f 314/48/29 313/47/182 315/1/29
f 315/1/29 313/47/182 316/1/29
f 316/1/29 313/47/182 317/48/29
f 320/1/26 319/47/183 318/48/26
f 319/47/183 320/1/26 321/47/183
f 321/47/183 320/1/26 322/1/26
f 321/47/183 322/1/26 323/48/26
f 321/47/183 310/2/180 319/47/183
f 310/2/180 321/47/183 311/2/180
