# Blender 4.3.2
# www.blender.org
mtllib rugRectangle.mtl
o rugRectangle
v 0.000000 0.920000 0.000000
v 0.000000 0.000000 0.000000
v -1.570000 0.920000 0.000000
v -1.570000 0.000000 0.000000
v 0.000000 0.920000 -0.010000
v -1.570000 0.920000 -0.010000
v -0.113646 0.113646 -0.010000
v 0.000000 0.000000 -0.010000
v -1.570000 0.000000 -0.010000
v -1.456354 0.113646 -0.010000
v -1.456354 0.806355 -0.010000
v -0.113646 0.806355 -0.010000
v -0.163809 0.163809 -0.010000
v -0.163809 0.756191 -0.010000
v -1.406191 0.163809 -0.010000
v -1.406191 0.756191 -0.010000
vn 0.5774 -0.5774 0.5773
vn 0.5774 0.5774 0.5774
vn -0.5774 0.5774 0.5773
vn -0.5774 -0.5774 0.5774
vn 0.5773 0.5773 -0.5774
vn -0.5773 0.5773 -0.5774
vn -0.5773 -0.5773 -0.5774
vn -0.0000 -0.0000 -1.0000
vn 0.5773 -0.5773 -0.5774
vt 0.000000 0.000000
vt 0.000000 36.220470
vt -61.811020 36.220470
vt -61.811020 0.000000
vt 0.000000 0.393701
vt -61.811020 0.393701
vt 61.811020 0.000000
vt 57.336788 31.746241
vt 57.336788 4.474232
vt 4.474232 31.746241
vt 61.811020 36.220470
vt 36.220470 0.000000
vt 36.220470 0.393701
vt 6.449170 29.771299
vt 6.449170 6.449170
vt 55.361851 6.449170
vt 55.361851 29.771299
vt 4.474232 4.474232
vt -36.220470 0.393701
vt -36.220470 0.000000
vt 61.811020 0.393701
s 1
usemtl carpet.003
f 2/1/1 1/2/2 3/3/3
f 3/3/3 4/4/4 2/1/1
f 3/4/3 1/1/2 5/5/5
f 5/5/5 6/6/6 3/4/3
f 9/7/7 11/8/8 10/9/8
f 12/10/8 6/11/6 5/2/5
f 12/10/8 11/8/8 6/11/6
f 9/5/7 4/1/4 3/12/3
f 3/12/3 6/13/6 9/5/7
f 14/14/8 13/15/8 15/16/8
f 15/16/8 16/17/8 14/14/8
f 7/18/8 5/2/5 8/1/9
f 8/1/9 9/7/7 7/18/8
f 9/7/7 10/9/8 7/18/8
f 5/2/5 7/18/8 12/10/8
f 11/8/8 9/7/7 6/11/6
f 2/1/1 8/5/9 5/19/5
f 5/19/5 1/20/2 2/1/1
f 2/1/1 4/7/4 9/21/7
f 9/21/7 8/5/9 2/1/1
usemtl carpetDarker
f 13/15/8 12/10/8 7/18/8
f 7/18/8 10/9/8 13/15/8
f 10/9/8 15/16/8 13/15/8
f 10/9/8 16/17/8 15/16/8
f 12/10/8 13/15/8 14/14/8
f 14/14/8 11/8/8 12/10/8
f 14/14/8 16/17/8 11/8/8
f 16/17/8 10/9/8 11/8/8
