# Blender 4.3.2
# www.blender.org
mtllib pumpkin-carved.mtl
o pumpkin-carved.006
v 0.036764 0.120576 -0.102208
v 0.020476 0.114933 -0.120458
v 0.054554 0.106250 -0.107127
v 0.048917 0.096486 -0.122917
v -0.036479 0.120328 -0.102608
v -0.052725 0.103328 -0.111851
v -0.020191 0.114686 -0.120858
v -0.047859 0.094901 -0.125480
v 0.064667 0.132127 -0.064932
v 0.016167 0.132127 -0.064932
v 0.039389 0.123370 -0.093253
v 0.000000 0.127749 -0.079092
v -0.039389 0.123370 -0.093253
v -0.064667 0.132127 -0.064932
v -0.016167 0.132127 -0.064932
v 0.075000 0.129904 0.000000
v -0.075000 0.129904 0.000000
v 0.089250 0.154586 -0.060000
v -0.089250 0.154586 -0.060000
v 0.178500 0.000000 -0.060000
v 0.150000 0.000000 0.000000
v 0.089250 -0.154586 -0.060000
v 0.071400 -0.123668 -0.160000
v 0.142800 0.000000 -0.160000
v 0.000000 0.146856 -0.085000
v -0.016167 0.151234 -0.070839
v -0.064667 0.151234 -0.070839
v -0.022312 0.131398 -0.135000
v -0.044625 0.139127 -0.110000
v -0.060215 0.104295 -0.141331
v -0.066880 0.115839 -0.122662
v 0.107100 0.061834 -0.160000
v 0.059825 0.000000 -0.160000
v 0.000000 0.123668 -0.160000
v 0.029913 -0.051810 -0.160000
v 0.029913 0.051810 -0.160000
v -0.029913 0.051810 -0.160000
v -0.071400 -0.123668 -0.160000
v -0.107100 0.061834 -0.160000
v -0.029913 -0.051810 -0.160000
v -0.059825 0.000000 -0.160000
v -0.142800 0.000000 -0.160000
v 0.039389 0.142478 -0.099161
v 0.064667 0.151234 -0.070839
v -0.089250 -0.154586 -0.060000
v -0.178500 0.000000 -0.060000
v -0.039389 0.142478 -0.099161
v 0.016167 0.151234 -0.070839
v 0.061272 0.106127 -0.138369
v 0.068995 0.119502 -0.116738
v 0.022312 0.131398 -0.135000
v 0.044625 0.139127 -0.110000
v -0.075000 -0.129904 0.000000
v -0.150000 0.000000 0.000000
v 0.075000 -0.129904 0.000000
v 0.032333 0.151234 -0.070839
v -0.002606 -0.012606 -0.217330
v -0.021672 -0.011672 -0.258280
v -0.002606 0.012606 -0.217330
v -0.021672 0.011672 -0.258280
v 0.022606 0.012606 -0.217330
v 0.001672 0.011672 -0.258280
v -0.027000 -0.027000 -0.160000
v 0.027000 -0.027000 -0.160000
v 0.022606 -0.012606 -0.217330
v 0.027000 0.027000 -0.160000
v -0.027000 0.027000 -0.160000
v 0.001672 -0.011672 -0.258280
vn -0.3220 0.5476 -0.7723
vn 0.9314 0.3505 -0.0979
vn 0.3439 0.0058 -0.9390
vn 0.0396 0.9980 0.0488
vn -0.9368 0.3308 -0.1140
vn 0.3363 0.5973 -0.7281
vn -0.2687 0.0222 -0.9630
vn -0.0671 0.9958 0.0631
vn -0.3275 0.8056 0.4937
vn 0.4293 0.3695 -0.8241
vn -0.7589 0.4211 -0.4968
vn 0.3389 -0.5871 -0.7352
vn 0.8955 -0.4421 0.0519
vn 0.4593 -0.7956 -0.3950
vn -0.0000 0.3159 -0.9488
vn -0.1948 0.5517 -0.8110
vn -0.0934 -0.0499 -0.9944
vn -0.2848 0.8797 -0.3809
vn 0.5863 0.1732 -0.7913
vn 0.6779 -0.0000 -0.7352
vn -0.0000 -0.0000 -1.0000
vn 0.1327 0.3817 -0.9147
vn -0.3389 -0.5871 -0.7352
vn -0.3788 0.2248 -0.8977
vn -0.6779 -0.0000 -0.7352
vn -0.2430 0.9338 0.2625
vn -0.9068 -0.3528 -0.2306
vn -0.8282 -0.5580 0.0519
vn -0.8315 0.3032 -0.4656
vn -0.3699 0.8152 -0.4458
vn 0.0193 0.7127 -0.7012
vn 0.2430 0.9338 0.2625
vn 0.7589 0.4211 -0.4967
vn 0.3275 0.8056 0.4937
vn 0.2144 0.8991 -0.3816
vn 0.3653 0.2354 -0.9006
vn -0.0000 0.7220 -0.6919
vn 0.2657 0.8894 -0.3719
vn -0.2405 0.5269 -0.8152
vn 0.3190 -0.5526 0.7700
vn -0.3190 -0.5526 0.7700
vn -0.0000 0.9554 -0.2953
vn -0.2333 0.9007 -0.3665
vn -0.2144 0.8991 -0.3815
vn 0.0380 0.6321 -0.7740
vn 0.2872 0.8879 -0.3593
vn 0.0411 0.6901 -0.7226
vn -0.0000 -0.2954 -0.9554
vn 0.6381 -0.0000 0.7700
vn -0.5949 0.6985 -0.3977
vn 0.4148 0.5981 -0.6857
vn -0.7019 0.5521 -0.4500
vn -0.4879 -0.8609 0.1441
vn 0.2387 -0.2621 -0.9351
vn -0.2140 -0.1980 -0.9565
vn 0.7426 -0.6624 -0.0984
vn 0.2387 0.2621 -0.9351
vn 0.7426 0.6621 -0.1005
vn -0.2140 0.1980 -0.9565
vn -0.7019 -0.5521 -0.4500
vn 0.4148 -0.5982 -0.6857
vn 0.0340 0.5827 0.8120
vn 0.4197 0.7270 0.5435
vn -0.6381 -0.0000 0.7700
vt 0.718750 0.408909
vt 0.718750 0.425573
vt 0.718750 0.402760
vt 0.718750 0.428646
vt 0.718750 0.426073
vt 0.718750 0.414814
vt 0.718750 0.403260
vt 0.718750 0.431850
vt 0.718750 0.391566
vt 0.718750 0.356165
vt 0.468750 0.225000
vt 0.468750 0.100000
vt 0.468750 0.131250
vt 0.468750 0.106165
vt 0.468750 0.113549
vt 0.468750 0.201664
vt 0.468750 0.164814
vt 0.468750 0.181850
vt 0.468750 0.148951
vt 0.468750 0.141566
vt 0.468750 0.193750
vt 0.468750 0.178328
vt 0.468750 0.123865
vt 0.468750 0.158909
vt 0.468750 0.197961
vt 0.468750 0.178646
vt 0.468750 0.162500
vt 0.468750 0.025000
vt 0.468750 0.170923
vt 0.468750 0.152760
vt 0.593750 0.391667
vt 0.593750 0.475000
vt 0.593750 0.275000
vt 0.718750 0.373865
vt 0.468750 0.153260
vt 0.468750 0.176072
vt 0.468750 0.175572
s 1
usemtl colormap.026
f 3/1/1 2/2/2 1/3/3
f 2/2/2 3/1/1 4/4/4
f 7/5/5 6/6/6 5/7/7
f 6/6/6 7/5/5 8/8/8
f 11/9/9 10/10/10 9/10/11
f 23/11/12 20/12/13 22/12/14
f 25/13/15 15/14/16 26/15/17
f 30/16/18 6/17/6 8/18/8
f 23/11/12 32/11/19 24/11/20
f 32/11/19 23/11/12 33/11/21
f 23/11/12 35/11/21 33/11/21
f 34/11/22 36/11/21 37/11/21
f 35/11/21 23/11/12 38/11/23
f 35/11/21 38/11/23 40/11/21
f 40/11/21 38/11/23 41/11/21
f 39/11/24 41/11/21 38/11/23
f 39/11/24 38/11/23 42/11/25
f 9/14/11 43/19/26 11/20/9
f 46/12/27 38/11/23 45/12/28
f 38/11/23 46/12/27 42/11/25
f 19/12/29 42/11/25 46/12/27
f 34/11/22 30/16/18 28/21/30
f 39/11/24 30/16/18 34/11/22
f 39/11/24 31/22/31 30/16/18
f 47/19/32 14/14/33 13/20/34
f 14/14/33 47/19/32 27/15/35
f 48/15/36 12/23/37 25/13/15
f 3/24/1 49/25/38 4/26/4
f 29/27/39 6/17/6 31/22/31
f 45/12/28 55/28/40 53/28/41
f 55/28/40 45/12/28 22/12/14
f 25/13/15 26/15/17 48/15/36
s 0
f 27/15/42 48/15/42 26/15/42
f 27/15/42 56/15/42 48/15/42
f 27/15/42 44/15/42 56/15/42
s 1
f 18/12/43 44/15/44 19/12/29
f 19/12/29 27/15/35 29/27/39
f 29/27/39 27/15/35 47/19/32
f 29/27/39 47/19/32 52/27/45
f 29/27/39 51/21/46 28/21/30
f 18/12/43 50/29/47 52/27/45
f 3/24/1 52/27/45 50/29/47
f 52/27/45 3/24/1 1/30/3
f 10/14/10 44/15/44 9/14/11
f 56/15/48 10/14/10 48/15/36
f 20/12/13 55/28/40 22/12/14
f 55/28/40 20/12/13 21/28/49
f 38/11/23 22/12/14 45/12/28
f 22/12/14 38/11/23 23/11/12
f 59/31/50 62/32/51 60/32/52
f 57/31/53 64/33/54 63/33/55
f 64/33/54 57/31/53 65/31/56
f 65/31/56 66/33/57 64/33/54
f 66/33/57 65/31/56 61/31/58
f 35/33/21 36/33/21 33/33/21
f 66/33/57 36/33/21 64/33/54
f 64/33/54 40/33/21 63/33/55
f 36/33/21 66/33/57 37/33/21
f 37/33/21 66/33/57 67/33/59
f 37/33/21 67/33/59 40/33/21
f 61/31/58 67/33/59 66/33/57
f 67/33/59 61/31/58 59/31/50
f 67/33/59 57/31/53 63/33/55
f 57/31/53 67/33/59 59/31/50
f 58/32/60 62/32/51 68/32/61
f 62/32/51 58/32/60 60/32/52
f 58/32/60 65/31/56 57/31/53
f 65/31/56 58/32/60 68/32/61
f 68/32/61 61/31/58 65/31/56
f 61/31/58 68/32/61 62/32/51
f 10/10/10 11/9/9 12/34/37
f 13/9/34 12/34/37 11/9/9
f 14/10/33 12/34/37 13/9/34
f 12/34/37 14/10/33 15/10/16
f 18/12/43 17/28/62 16/28/63
f 17/28/62 18/12/43 19/12/29
f 18/12/43 21/28/49 20/12/13
f 21/28/49 18/12/43 16/28/63
f 20/12/13 23/11/12 24/11/20
f 15/14/16 25/13/15 12/23/37
f 14/14/33 26/15/17 15/14/16
f 26/15/17 14/14/33 27/15/35
f 5/35/7 28/21/30 7/36/5
f 28/21/30 5/35/7 29/27/39
f 28/21/30 8/18/8 7/36/5
f 8/18/8 28/21/30 30/16/18
f 6/17/6 30/16/18 31/22/31
f 32/11/19 20/12/13 24/11/20
f 20/12/13 32/11/19 18/12/43
f 32/11/19 33/11/21 34/11/22
f 34/11/22 33/11/21 36/11/21
f 34/11/22 37/11/21 39/11/24
f 39/11/24 37/11/21 41/11/21
f 43/19/26 9/14/11 44/15/44
f 42/11/25 19/12/29 39/11/24
f 19/12/29 31/22/31 39/11/24
f 31/22/31 19/12/29 29/27/39
f 12/23/37 48/15/36 10/14/10
f 49/25/38 3/24/1 50/29/47
f 51/21/46 4/26/4 49/25/38
f 4/26/4 51/21/46 2/37/2
f 6/17/6 29/27/39 5/35/7
f 51/21/46 1/30/3 2/37/2
f 1/30/3 51/21/46 52/27/45
f 53/28/41 46/12/27 45/12/28
f 46/12/27 53/28/41 54/28/64
f 27/15/35 19/12/29 44/15/44
f 44/15/44 18/12/43 52/27/45
f 44/15/44 52/27/45 43/19/26
f 43/19/26 52/27/45 47/19/32
f 29/27/39 52/27/45 51/21/46
f 28/21/30 51/21/46 34/11/22
f 16/28/63 55/28/40 21/28/49
f 55/28/40 16/28/63 17/28/62
f 55/28/40 17/28/62 53/28/41
f 53/28/41 17/28/62 54/28/64
f 50/29/47 18/12/43 32/11/19
f 50/29/47 32/11/19 49/25/38
f 34/11/22 49/25/38 32/11/19
f 49/25/38 34/11/22 51/21/46
f 17/28/62 46/12/27 54/28/64
f 46/12/27 17/28/62 19/12/29
f 44/15/44 10/14/10 56/15/48
f 47/19/32 11/20/9 43/19/26
f 11/20/9 47/19/32 13/20/34
f 59/31/50 58/32/60 57/31/53
f 58/32/60 59/31/50 60/32/52
f 62/32/51 59/31/50 61/31/58
f 36/33/21 35/33/21 64/33/54
f 64/33/54 35/33/21 40/33/21
f 63/33/55 40/33/21 67/33/59
f 37/33/21 40/33/21 41/33/21
