# Blender 4.3.2
# www.blender.org
mtllib conveyor-long-sides.mtl
o conveyor-long-sides
v 1.000000 -0.450000 -0.200000
v 1.000000 -0.400000 -0.200000
v -1.000000 -0.450000 -0.200000
v -1.000000 -0.400000 -0.200000
v 1.000000 0.500000 -0.000000
v 1.000000 0.400000 -0.000000
v -1.000000 0.500000 -0.000000
v -1.000000 0.400000 -0.000000
v -1.000000 0.400000 -0.200000
v 1.000000 0.400000 -0.200000
v 1.000000 0.500000 -0.150000
v -1.000000 0.500000 -0.150000
v 1.000000 -0.400000 0.000000
v 1.000000 -0.500000 0.000000
v -1.000000 -0.400000 0.000000
v -1.000000 -0.500000 0.000000
v 1.000000 -0.500000 -0.150000
v -1.000000 -0.500000 -0.150000
v 1.000000 0.450000 -0.200000
v -1.000000 0.450000 -0.200000
v 0.900000 -0.400000 -0.400000
v 1.000000 -0.400000 -0.300000
v 0.900000 0.400000 -0.400000
v 1.000000 0.400000 -0.300000
v 1.000000 -0.400000 -0.100000
v 1.000000 0.400000 -0.100000
v 0.900000 -0.400000 -0.000000
v 0.900000 0.400000 -0.000000
v -0.900000 0.400000 0.000000
v -1.000000 0.400000 -0.100000
v -0.858579 0.400000 -0.100000
v -0.900000 0.400000 -0.141421
v 0.858579 0.400000 -0.100000
v 0.900000 0.400000 -0.141421
v -1.000000 0.400000 -0.300000
v -0.900000 0.400000 -0.258579
v -0.858579 0.400000 -0.300000
v 0.900000 0.400000 -0.258579
v 0.858579 0.400000 -0.300000
v -0.900000 0.400000 -0.400000
v -0.900000 -0.400000 0.000000
v -1.000000 -0.400000 -0.100000
v -0.858579 -0.400000 -0.100000
v -0.900000 -0.400000 -0.141421
v 0.858579 -0.400000 -0.100000
v 0.900000 -0.400000 -0.141421
v -1.000000 -0.400000 -0.300000
v -0.900000 -0.400000 -0.258579
v -0.858579 -0.400000 -0.300000
v 0.900000 -0.400000 -0.258579
v 0.858579 -0.400000 -0.300000
v -0.900000 -0.400000 -0.400000
v -0.900000 -0.400000 -0.258579
v 0.900000 -0.400000 -0.258579
v -0.900000 0.400000 -0.258579
v 0.900000 0.400000 -0.258579
vn -0.0000 -0.3827 -0.9239
vn -0.0000 -0.0000 -1.0000
vn -0.0000 -0.0000 1.0000
vn -0.0000 -1.0000 -0.0000
vn -0.0000 0.9239 -0.3827
vn -0.0000 1.0000 -0.0000
vn 1.0000 -0.0000 -0.0000
vn -1.0000 -0.0000 -0.0000
vn -0.0000 0.3827 -0.9239
vn -0.0000 -0.9239 -0.3827
vn 0.3827 -0.0000 -0.9239
vn 0.9239 -0.0000 -0.3827
vn 0.9239 -0.0000 0.3827
vn 0.3827 -0.0000 0.9239
vn -0.3827 -0.0000 0.9239
vn -0.3827 -0.0000 -0.9239
vn -0.9239 -0.0000 0.3827
vn -0.9239 -0.0000 -0.3827
vt 0.343750 0.225000
vt 0.343750 0.025000
vt 0.343750 0.175000
vt 0.218750 0.225000
vt 0.218750 0.175000
vt 0.218750 0.075000
vt 0.218750 0.025000
vt 0.218750 0.095711
vt 0.218750 0.154289
vt 0.093750 0.066421
vt 0.093750 0.025000
vt 0.093750 0.183579
vt 0.093750 0.225000
s 1
usemtl colormap.005
f 3/1/1 2/1/2 1/1/1
f 2/1/2 3/1/1 4/1/2
f 7/2/3 6/2/3 5/2/3
f 6/2/3 7/2/3 8/2/3
f 9/1/4 6/2/4 8/2/4
f 6/2/4 9/1/4 10/1/4
f 11/3/5 7/2/6 5/2/6
f 7/2/6 11/3/5 12/3/5
f 15/2/3 14/2/3 13/2/3
f 14/2/3 15/2/3 16/2/3
f 1/1/7 14/2/7 17/3/7
f 14/2/7 1/1/7 13/2/7
f 13/2/7 1/1/7 2/1/7
f 15/2/8 18/3/8 16/2/8
f 18/3/8 15/2/8 3/1/8
f 3/1/8 15/2/8 4/1/8
f 9/1/2 19/1/9 10/1/2
f 19/1/9 9/1/2 20/1/9
f 18/3/10 1/1/1 17/3/10
f 1/1/1 18/3/10 3/1/1
f 20/1/9 11/3/5 19/1/9
f 11/3/5 20/1/9 12/3/5
f 18/3/10 14/2/4 16/2/4
f 14/2/4 18/3/10 17/3/10
f 7/2/8 9/1/8 8/2/8
f 9/1/8 7/2/8 20/1/8
f 20/1/8 7/2/8 12/3/8
f 19/1/7 6/2/7 10/1/7
f 6/2/7 19/1/7 5/2/7
f 5/2/7 19/1/7 11/3/7
f 2/1/6 15/2/6 13/2/6
f 15/2/6 2/1/6 4/1/6
f 23/4/11 22/5/12 21/4/11
f 22/5/12 23/4/11 24/5/12
f 24/5/12 25/6/13 22/5/12
f 25/6/13 24/5/12 26/6/13
f 26/6/13 27/7/14 25/6/13
f 27/7/14 26/6/13 28/7/14
f 28/7/6 30/6/6 29/7/6
f 30/6/6 28/7/6 31/6/6
f 26/6/6 31/6/6 28/7/6
f 30/6/6 31/6/6 32/8/6
s 0
f 31/6/6 26/6/6 33/6/6
s 1
f 33/6/6 26/6/6 34/8/6
f 30/6/6 32/8/6 35/5/6
f 34/8/6 26/6/6 24/5/6
f 35/5/6 32/8/6 36/9/6
f 35/5/6 36/9/6 37/5/6
f 34/8/6 24/5/6 38/9/6
s 0
f 35/5/6 37/5/6 39/5/6
s 1
f 38/9/6 24/5/6 39/5/6
f 35/5/6 39/5/6 40/4/6
f 40/4/6 39/5/6 24/5/6
f 40/4/6 24/5/6 23/4/6
f 29/7/15 27/7/14 28/7/14
f 27/7/14 29/7/15 41/7/15
f 42/6/4 27/7/4 41/7/4
f 27/7/4 42/6/4 43/6/4
f 43/6/4 25/6/4 27/7/4
f 43/6/4 42/6/4 44/8/4
s 0
f 25/6/4 43/6/4 45/6/4
s 1
f 25/6/4 45/6/4 46/8/4
f 44/8/4 42/6/4 47/5/4
f 25/6/4 46/8/4 22/5/4
f 44/8/4 47/5/4 48/9/4
f 48/9/4 47/5/4 49/5/4
f 22/5/4 46/8/4 50/9/4
s 0
f 49/5/4 47/5/4 51/5/4
s 1
f 22/5/4 50/9/4 51/5/4
f 51/5/4 47/5/4 52/4/4
f 51/5/4 52/4/4 22/5/4
f 22/5/4 52/4/4 21/4/4
f 52/4/16 23/4/11 21/4/11
f 23/4/11 52/4/16 40/4/16
f 29/7/15 42/6/17 41/7/15
f 42/6/17 29/7/15 30/6/17
f 35/5/18 52/4/16 47/5/18
f 52/4/16 35/5/18 40/4/16
f 30/6/17 47/5/18 42/6/17
f 47/5/18 30/6/17 35/5/18
f 44/10/4 45/11/4 43/11/4
f 45/11/4 44/10/4 46/10/4
f 46/10/4 44/10/4 53/12/4
f 46/10/4 53/12/4 54/12/4
f 54/12/4 53/12/4 49/13/4
f 54/12/4 49/13/4 51/13/4
f 33/11/6 32/10/6 31/11/6
f 32/10/6 33/11/6 34/10/6
f 32/10/6 34/10/6 55/12/6
f 55/12/6 34/10/6 56/12/6
f 55/12/6 56/12/6 37/13/6
f 37/13/6 56/12/6 39/13/6
