# Blender 4.3.2
# www.blender.org
mtllib freezer.mtl
o freezer
v 0.350000 0.229289 -0.000000
v 0.329289 0.250000 0.000000
v 0.350000 0.229289 -0.100000
v 0.329289 0.250000 -0.100000
v -0.350000 0.229289 -0.000000
v -0.350000 0.229289 -0.100000
v -0.329289 0.250000 0.000000
v -0.329289 0.250000 -0.100000
v 0.350000 -0.229289 -0.000000
v 0.350000 -0.229289 -0.100000
v 0.329289 -0.250000 -0.000000
v 0.329289 -0.250000 -0.100000
v -0.350000 -0.229289 -0.000000
v -0.350000 -0.229289 -0.100000
v -0.329289 -0.250000 -0.000000
v -0.329289 -0.250000 -0.100000
v 0.400000 -0.250000 -0.300000
v 0.400000 0.250000 -0.300000
v 0.350000 -0.300000 -0.300000
v 0.350000 0.300000 -0.300000
v -0.350000 -0.300000 -0.300000
v -0.350000 0.300000 -0.300000
v -0.400000 -0.250000 -0.300000
v -0.400000 0.250000 -0.300000
v 0.400000 -0.250000 -0.100000
v 0.400000 0.250000 -0.100000
v -0.350000 -0.300000 -0.100000
v 0.350000 -0.300000 -0.100000
v -0.400000 -0.250000 -0.100000
v -0.400000 0.250000 -0.100000
v -0.350000 0.300000 -0.100000
v 0.350000 0.300000 -0.100000
v 0.329289 0.250000 -0.300000
v 0.329289 0.250000 -0.350000
v 0.350000 0.229289 -0.300000
v 0.350000 0.229289 -0.350000
v 0.125000 0.075000 -0.337500
v 0.125000 0.075000 -0.325000
v 0.075000 0.075000 -0.350000
v 0.075000 0.075000 -0.325000
v 0.125000 -0.075000 -0.325000
v 0.125000 -0.075000 -0.337500
v 0.075000 -0.075000 -0.325000
v 0.075000 -0.075000 -0.350000
v 0.075000 0.200000 -0.325000
v 0.075000 0.200000 -0.350000
v 0.075000 -0.200000 -0.325000
v 0.075000 -0.200000 -0.350000
v 0.350000 -0.229289 -0.300000
v 0.350000 -0.229289 -0.350000
v 0.329289 -0.250000 -0.300000
v 0.329289 -0.250000 -0.350000
v 0.300000 0.200000 -0.325000
v 0.300000 -0.200000 -0.325000
v 0.300000 0.200000 -0.350000
v 0.300000 -0.200000 -0.350000
v 0.045711 0.250000 -0.350000
v 0.045711 0.250000 -0.300000
v 0.025000 0.229289 -0.300000
v 0.025000 0.229289 -0.350000
v 0.025000 -0.229289 -0.350000
v 0.045711 -0.250000 -0.350000
v 0.045711 -0.250000 -0.300000
v 0.025000 -0.229289 -0.300000
v -0.045711 0.250000 -0.300000
v -0.045711 0.250000 -0.350000
v -0.025000 0.229289 -0.300000
v -0.025000 0.229289 -0.350000
v -0.250000 0.075000 -0.337500
v -0.250000 0.075000 -0.325000
v -0.300000 0.075000 -0.350000
v -0.300000 0.075000 -0.325000
v -0.250000 -0.075000 -0.325000
v -0.250000 -0.075000 -0.337500
v -0.300000 -0.075000 -0.325000
v -0.300000 -0.075000 -0.350000
v -0.300000 0.200000 -0.325000
v -0.300000 0.200000 -0.350000
v -0.300000 -0.200000 -0.325000
v -0.300000 -0.200000 -0.350000
v -0.025000 -0.229289 -0.300000
v -0.025000 -0.229289 -0.350000
v -0.045711 -0.250000 -0.300000
v -0.045711 -0.250000 -0.350000
v -0.075000 0.200000 -0.325000
v -0.075000 -0.200000 -0.325000
v -0.075000 0.200000 -0.350000
v -0.075000 -0.200000 -0.350000
v -0.350000 -0.229289 -0.300000
v -0.329289 -0.250000 -0.300000
v -0.350000 -0.229289 -0.350000
v -0.329289 -0.250000 -0.350000
v -0.329289 0.250000 -0.350000
v -0.350000 0.229289 -0.350000
v -0.350000 0.229289 -0.300000
v -0.329289 0.250000 -0.300000
vn 0.9088 0.4163 -0.0267
vn 0.5098 0.5520 0.6598
vn 0.8808 0.3648 0.3018
vn 0.1689 0.4079 0.8973
vn -0.4506 0.8064 0.3831
vn -0.4303 0.1782 0.8849
vn -0.5343 0.5281 0.6601
vn -0.3499 0.4458 0.8239
vn 0.9731 -0.2299 -0.0173
vn 0.8378 -0.3470 0.4214
vn 0.4350 -0.7999 0.4134
vn 0.3627 -0.4337 0.8248
vn -0.4021 -0.1665 0.9003
vn -0.7483 0.0885 0.6575
vn -0.3667 -0.5103 0.7779
vn -0.0508 -0.5632 0.8248
vn 0.3758 0.4724 -0.7973
vn 0.0302 -0.7509 -0.6598
vn -0.0507 -0.6188 -0.7839
vn -0.0302 0.7509 -0.6598
vn -0.7385 -0.0010 -0.6742
vn -0.5087 0.5532 -0.6597
vn 0.3684 -0.5035 0.7815
vn -0.3306 -0.7981 0.5038
vn -0.7506 0.0394 0.6596
vn -0.4663 -0.5919 0.6575
vn -0.4766 0.5828 0.6582
vn 0.3483 0.5770 0.7387
vn 0.8918 0.3694 0.2613
vn 0.5684 0.4925 -0.6591
vn 0.7936 -0.4690 0.3877
vn 0.8820 -0.3654 -0.2975
vn 0.7422 0.5290 0.4115
vn 0.3666 0.8850 -0.2871
vn 0.5280 0.5344 0.6601
vn 0.3733 0.2536 -0.8924
vn 0.3015 0.3015 -0.9045
vn -0.0426 0.6641 -0.7464
vn 0.5773 0.5774 -0.5774
vn 0.3015 -0.3015 -0.9045
vn 0.7769 -0.1686 -0.6066
vn 0.5774 -0.5774 -0.5773
vn 0.3733 -0.2536 -0.8924
vn 0.7621 -0.0738 0.6433
vn 0.8316 0.3444 -0.4357
vn 0.0351 0.7813 -0.6232
vn 0.0315 0.7508 0.6597
vn -0.5774 0.5774 -0.5773
vn -0.5773 0.4826 0.6586
vn -0.8320 0.3446 -0.4347
vn -0.3015 -0.3015 -0.9045
vn -0.5774 -0.5774 -0.5774
vn 0.6030 -0.2025 -0.7716
vn -0.3015 0.3015 -0.9045
vn -0.7438 -0.1397 -0.6536
vn 0.0049 -0.7419 -0.6705
vn -0.7512 0.0076 0.6601
vn -0.5579 -0.5037 0.6596
vn -0.3596 -0.8683 -0.3417
vn 0.5797 0.4800 -0.6584
vn 0.7138 0.6641 0.2224
vn 0.5774 -0.5773 -0.5774
vn 0.7310 -0.6801 -0.0560
vn -0.5412 -0.7413 0.3971
vn -0.6247 -0.4272 -0.6536
vn 0.0383 0.7507 -0.6596
vn -0.5790 0.4808 -0.6585
vn 0.7365 -0.0969 -0.6695
vn 0.0046 -0.7512 -0.6601
vn 0.6665 -0.1028 0.7384
vn -0.7495 0.0670 0.6586
vn -0.4712 -0.3761 0.7978
vn -0.0000 -0.0000 1.0000
vn 0.5728 -0.7375 0.3577
vn -0.5532 0.5087 0.6597
vt 0.218750 0.091667
vt 0.218750 0.025000
vt 0.218750 0.225000
vt 0.468750 0.033284
vt 0.468750 0.025000
vt 0.468750 0.095000
vt 0.468750 0.155000
vt 0.468750 0.045000
vt 0.468750 0.205000
vt 0.468750 0.216716
vt 0.468750 0.225000
vt 0.593750 0.045000
vt 0.593750 0.205000
vt 0.593750 0.095000
vt 0.593750 0.155000
s 1
usemtl colormap.008
f 3/1/1 2/2/2 1/2/3
f 2/2/2 3/1/1 4/1/4
f 7/2/5 6/1/6 5/2/7
f 6/1/6 7/2/5 8/1/8
f 10/1/9 1/2/3 9/2/10
f 1/2/3 10/1/9 3/1/1
f 11/2/11 10/1/9 9/2/10
f 10/1/9 11/2/11 12/1/12
f 5/2/7 14/1/13 13/2/14
f 14/1/13 5/2/7 6/1/6
f 4/1/4 7/2/5 2/2/2
f 15/2/15 7/2/5 5/2/7
f 15/2/15 5/2/7 13/2/14
f 15/2/15 12/1/12 11/2/11
f 12/1/12 15/2/15 16/1/16
f 13/2/14 16/1/16 15/2/15
f 20/3/17 19/3/18 21/3/19
f 20/3/17 21/3/19 22/3/20
f 22/3/20 21/3/19 23/3/21
f 22/3/20 23/3/21 24/3/22
f 21/2/19 28/3/23 27/3/24
f 28/3/23 21/2/19 19/2/18
f 27/3/24 30/3/25 29/3/26
f 14/3/13 30/3/25 27/3/24
f 27/3/24 16/3/16 14/3/13
f 6/3/6 30/3/25 14/3/13
f 6/3/6 31/3/27 30/3/25
f 8/3/8 31/3/27 6/3/6
f 4/3/4 31/3/27 8/3/8
f 28/3/23 12/3/12 27/3/24
f 4/3/4 32/3/28 31/3/27
f 28/3/23 10/3/9 12/3/12
f 32/3/28 4/3/4 3/3/1
f 30/3/25 22/2/20 24/2/22
f 20/2/17 26/3/29 18/2/30
f 25/3/31 19/2/18 17/2/32
f 30/3/25 23/2/21 29/3/26
f 23/2/21 30/3/25 24/2/22
f 29/3/26 21/2/19 27/3/24
f 21/2/19 29/3/26 23/2/21
f 35/4/33 34/5/34 33/5/35
f 39/6/36 38/6/37 37/6/38
f 38/6/37 39/6/36 40/6/39
f 41/7/40 37/6/38 38/6/37
f 37/6/38 41/7/40 42/7/41
f 40/6/39 46/8/40 45/8/42
f 44/7/43 47/9/39 48/9/37
f 49/10/44 36/4/45 35/4/33
f 57/5/46 33/5/35 34/5/34
f 33/5/35 57/5/46 58/5/47
f 54/9/48 48/9/37 47/9/39
f 57/5/46 59/4/49 58/5/47
f 59/4/49 57/5/46 60/4/50
f 45/8/42 55/8/51 53/8/52
f 55/8/51 45/8/42 46/8/40
f 36/4/45 57/5/46 34/5/34
f 46/8/40 60/4/50 55/8/51
f 55/8/51 50/10/53 56/9/54
f 60/4/50 46/8/40 61/10/55
f 61/10/55 39/6/36 44/7/43
f 61/10/55 50/10/53 52/11/56
f 60/4/50 64/10/57 59/4/49
f 64/10/57 60/4/50 61/10/55
f 59/4/49 33/5/35 58/5/47
f 33/5/35 59/4/49 35/4/33
f 35/4/33 59/4/49 49/10/44
f 49/10/44 59/4/49 64/10/57
f 61/10/55 63/11/58 64/10/57
f 63/11/58 61/10/55 62/11/59
f 67/4/33 66/5/34 65/5/35
f 66/5/34 67/4/33 68/4/60
f 70/6/37 71/6/36 72/6/39
f 73/7/40 69/6/61 70/6/37
f 75/7/62 74/7/63 73/7/40
f 74/7/63 75/7/62 76/7/43
f 76/7/43 69/6/61 74/7/63
f 72/6/39 78/8/40 77/8/42
f 78/8/40 72/6/39 71/6/36
f 90/11/64 91/10/65 92/11/59
f 68/4/60 93/5/66 66/5/34
f 93/5/66 68/4/60 94/4/67
f 87/8/51 68/4/60 82/10/68
f 87/8/51 82/10/68 88/9/54
f 94/4/67 78/8/40 91/10/65
f 91/10/65 78/8/40 71/6/36
f 91/10/65 71/6/36 76/7/43
f 91/10/65 80/9/37 82/10/68
f 91/10/65 84/11/69 92/11/59
f 81/10/70 95/4/71 89/10/72
f 93/5/66 65/5/35 66/5/34
f 95/4/71 93/5/66 94/4/67
f 45/12/42 54/13/48 38/14/37
f 40/14/39 45/12/42 38/14/37
f 86/13/48 77/12/42 85/12/52
f 77/12/42 86/13/48 70/14/37
f 72/14/39 77/12/42 70/14/37
f 70/14/37 86/13/48 73/15/40
f 7/2/5 4/1/4 8/1/8
f 2/2/2 9/2/10 1/2/3
f 9/2/10 2/2/2 11/2/11
f 11/2/11 2/2/2 7/2/5
f 11/2/11 7/2/5 15/2/15
f 16/1/16 13/2/14 14/1/13
f 19/3/18 18/3/30 17/3/32
f 18/3/30 19/3/18 20/3/17
f 17/2/32 26/3/29 25/3/31
f 26/3/29 17/2/32 18/2/30
f 27/3/24 12/3/12 16/3/16
s 0
f 28/3/73 3/3/73 10/3/73
f 28/3/73 32/3/73 3/3/73
s 1
f 25/3/31 32/3/28 28/3/23
f 32/3/28 25/3/31 26/3/29
f 22/2/20 30/3/25 31/3/27
f 20/2/17 31/3/27 32/3/28
f 31/3/27 20/2/17 22/2/20
f 26/3/29 20/2/17 32/3/28
f 19/2/18 25/3/31 28/3/23
f 34/5/34 35/4/33 36/4/45
f 43/7/62 42/7/41 41/7/40
f 42/7/41 43/7/62 44/7/43
f 37/6/38 44/7/43 39/6/36
f 44/7/43 37/6/38 42/7/41
f 46/8/40 40/6/39 39/6/36
f 47/9/39 44/7/43 43/7/62
f 51/11/74 50/10/53 49/10/44
f 50/10/53 51/11/74 52/11/56
f 36/4/45 49/10/44 50/10/53
f 55/8/51 54/9/48 53/8/52
f 54/9/48 55/8/51 56/9/54
f 48/9/37 54/9/48 56/9/54
f 57/5/46 36/4/45 60/4/50
f 60/4/50 36/4/45 55/8/51
f 55/8/51 36/4/45 50/10/53
f 61/10/55 46/8/40 39/6/36
f 56/9/54 50/10/53 48/9/37
f 61/10/55 44/7/43 48/9/37
f 61/10/55 48/9/37 50/10/53
f 61/10/55 52/11/56 62/11/59
f 63/11/58 52/11/56 51/11/74
f 52/11/56 63/11/58 62/11/59
f 49/10/44 64/10/57 63/11/58
f 49/10/44 63/11/58 51/11/74
f 71/6/36 70/6/37 69/6/61
f 69/6/61 73/7/40 74/7/63
f 69/6/61 76/7/43 71/6/36
f 79/9/39 76/7/43 75/7/62
f 76/7/43 79/9/39 80/9/37
f 81/10/70 68/4/60 67/4/33
f 68/4/60 81/10/70 82/10/68
f 83/11/74 82/10/68 81/10/70
f 82/10/68 83/11/74 84/11/69
f 87/8/51 86/9/48 85/8/52
f 86/9/48 87/8/51 88/9/54
f 91/10/65 90/11/64 89/10/72
f 94/4/67 68/4/60 87/8/51
f 78/8/40 94/4/67 87/8/51
f 88/9/54 82/10/68 80/9/37
f 91/10/65 76/7/43 80/9/37
f 91/10/65 82/10/68 84/11/69
f 90/11/64 84/11/69 83/11/74
f 84/11/69 90/11/64 92/11/59
f 94/4/67 89/10/72 95/4/71
f 89/10/72 94/4/67 91/10/65
f 95/4/71 65/5/35 96/5/75
f 65/5/35 95/4/71 67/4/33
f 67/4/33 95/4/71 81/10/70
f 81/10/70 89/10/72 90/11/64
f 81/10/70 90/11/64 83/11/74
f 65/5/35 93/5/66 96/5/75
f 77/8/42 87/8/51 85/8/52
f 87/8/51 77/8/42 78/8/40
f 93/5/66 95/4/71 96/5/75
f 80/9/37 86/9/48 88/9/54
f 86/9/48 80/9/37 79/9/39
f 54/13/48 45/12/42 53/12/52
f 38/14/37 54/13/48 41/15/40
f 41/15/40 54/13/48 43/15/62
f 43/15/62 54/13/48 47/13/39
f 73/15/40 86/13/48 75/15/62
f 75/15/62 86/13/48 79/13/39
