# Blender 4.3.2
# www.blender.org
mtllib wine-white.mtl
o wine-white.001
v 0.078372 0.000000 0.021600
v 0.039186 -0.067872 0.021600
v 0.039186 0.067872 0.021600
v -0.039186 0.067872 0.021600
v -0.039186 -0.067872 0.021600
v -0.078372 0.000000 0.021600
v -0.023488 -0.040683 -0.426053
v 0.023488 -0.040683 -0.426053
v -0.014556 -0.025212 -0.561600
v 0.014556 -0.025212 -0.561600
v 0.023488 0.040683 -0.426053
v -0.023488 0.040683 -0.426053
v 0.014556 0.025212 -0.561600
v -0.014556 0.025212 -0.561600
v 0.046976 0.000000 -0.426053
v 0.029112 0.000000 -0.561600
v -0.046976 0.000000 -0.426053
v -0.029112 0.000000 -0.561600
v -0.050700 0.087815 0.000000
v -0.101400 0.000000 0.000000
v 0.050700 0.087815 0.000000
v 0.101400 0.000000 0.000000
v 0.050700 -0.087815 0.000000
v -0.050700 -0.087815 0.000000
v 0.050700 0.087815 -0.104130
v -0.050700 0.087815 -0.104130
v -0.050700 -0.087815 -0.104130
v -0.101400 0.000000 -0.104130
v 0.101400 0.000000 -0.104130
v 0.050700 -0.087815 -0.104130
v 0.050700 0.087815 -0.270270
v -0.050700 0.087815 -0.270270
v 0.050700 0.087815 -0.312000
v -0.050700 0.087815 -0.312000
v -0.101400 0.000000 -0.270270
v -0.101400 0.000000 -0.312000
v 0.101400 0.000000 -0.312000
v 0.101400 0.000000 -0.270270
v -0.050700 -0.087815 -0.270270
v -0.050700 -0.087815 -0.312000
v 0.050700 -0.087815 -0.270270
v 0.050700 -0.087815 -0.312000
v -0.065658 0.000000 -0.372486
v -0.032829 0.056862 -0.372486
v -0.032829 -0.056862 -0.372486
v 0.032829 0.056862 -0.372486
v 0.032829 -0.056862 -0.372486
v 0.065658 0.000000 -0.372486
v 0.047161 -0.000000 -0.541600
v 0.023581 -0.040843 -0.541600
v 0.023581 0.040843 -0.541600
v -0.023581 0.040843 -0.541600
v -0.023581 -0.040843 -0.541600
v -0.047161 -0.000000 -0.541600
v 0.047161 -0.000000 -0.581600
v 0.023581 0.040843 -0.581600
v 0.023581 -0.040843 -0.581600
v -0.023581 -0.040843 -0.581600
v -0.023581 0.040843 -0.581600
v -0.047161 -0.000000 -0.581600
v 0.033462 0.000000 -0.634000
v 0.016731 0.028979 -0.634000
v 0.016731 -0.028979 -0.634000
v -0.016731 -0.028979 -0.634000
v -0.016731 0.028979 -0.634000
v -0.033462 0.000000 -0.634000
vn 0.2503 -0.1439 0.9574
vn 0.5021 0.0909 0.8600
vn 0.1846 0.4645 0.8661
vn 0.0440 -0.0762 0.9961
vn 0.3179 -0.3911 0.8637
vn 0.2925 0.8207 0.4908
vn 0.0598 0.9602 -0.2728
vn 0.3346 0.5796 -0.7430
vn -0.4273 0.7400 0.5194
vn 0.5644 -0.6631 0.4916
vn 0.8017 -0.5319 -0.2728
vn 0.3400 -0.5889 -0.7332
vn -0.6821 -0.0978 -0.7246
vn -0.4294 -0.7437 0.5124
vn -0.8744 -0.4017 -0.2721
vn -0.8340 -0.5502 -0.0422
vn 0.8318 0.5534 -0.0422
vn -0.7494 0.3253 0.5767
vn -0.1846 0.4645 0.8661
vn -0.5631 -0.0000 0.8264
vn -0.0417 0.8240 0.5650
vn 0.8482 -0.3459 0.4011
vn 0.5631 -0.0000 0.8264
vn 0.0417 -0.8240 0.5650
vn -0.0976 0.9952 -0.0000
vn -0.4095 0.7093 0.5737
vn -0.4435 -0.7681 0.4619
vn -0.8161 -0.5779 -0.0000
vn 0.8161 0.5779 -0.0000
vn 0.7559 -0.6547 -0.0000
vn 0.9337 0.3578 0.0117
vn 0.8121 -0.0000 -0.5836
vn 0.7129 0.6456 -0.2738
vn 0.0233 -0.9997 -0.0000
vn -0.2041 -0.9680 -0.1460
vn 0.4473 -0.7748 0.4468
vn -0.6438 0.3409 -0.6851
vn -0.9941 -0.0000 0.1084
vn -0.7129 0.6456 -0.2738
vn -0.8401 -0.5245 -0.1385
vn 0.0342 0.9898 -0.1385
vn -0.4972 0.8611 0.1063
vn 0.7102 0.5113 -0.4839
vn -0.2878 -0.4986 -0.8177
vn 0.4970 -0.8609 0.1084
vn 0.5013 0.3910 0.7719
vn 0.6568 -0.3570 0.6642
vn 0.5797 0.4791 0.6591
vn 0.7399 0.5196 -0.4273
vn 0.5797 0.4791 -0.6591
vn 0.6200 -0.4189 -0.6634
vn -0.0800 -0.9005 -0.4273
vn -0.4775 -0.8270 0.2969
vn -0.8035 -0.4676 0.3684
vn -0.8035 0.4676 -0.3684
vn -0.4869 0.8433 0.2274
vn -0.6200 0.4189 -0.6634
vn 0.5181 -0.4074 -0.7520
vn 0.6711 0.3703 -0.6423
vn 0.5982 -0.4855 -0.6376
vn -0.2694 -0.4665 -0.8425
vn 0.4095 0.7093 0.5737
vn -0.8121 -0.5836 -0.0000
vn -0.9163 0.4005 -0.0000
vn -0.0596 0.7651 -0.6412
vn -0.5695 0.5243 -0.6331
vt 0.593750 0.275000
vt 0.593750 0.475000
vt 0.593750 0.426728
vt 0.593750 0.312083
vt 0.593750 0.386111
vt 0.593750 0.371250
vt 0.593750 0.407652
vt 0.593750 0.325000
vt 0.593750 0.425000
vt 0.093750 0.475000
vt 0.093750 0.275000
vt 0.468750 0.325000
vt 0.468750 0.425000
s 1
usemtl colormap.025
f 3/1/1 2/1/2 1/1/3
f 2/1/2 3/1/1 4/1/4
f 2/1/2 4/1/4 5/1/5
f 13/2/6 12/3/7 11/3/8
f 12/3/7 13/2/6 14/2/9
f 10/2/10 15/3/11 8/3/12
f 17/3/13 9/2/14 7/3/15
f 9/2/14 17/3/13 18/2/16
f 13/2/6 15/3/11 16/2/17
f 15/3/11 13/2/6 11/3/8
f 19/1/18 6/1/19 4/1/4
f 6/1/19 19/1/18 20/1/20
f 21/1/21 4/1/4 3/1/1
f 1/1/3 23/1/22 22/1/23
f 24/1/24 2/1/2 5/1/5
f 2/1/2 24/1/24 23/1/22
f 19/1/18 25/4/25 26/4/26
f 20/1/20 27/4/27 24/1/24
f 27/4/27 20/1/20 28/4/28
f 25/4/25 22/1/23 29/4/29
f 22/1/23 25/4/25 21/1/21
f 29/4/29 23/1/22 30/4/30
f 23/1/22 29/4/29 22/1/23
f 19/1/18 28/4/28 20/1/20
f 28/4/28 19/1/18 26/4/26
f 33/5/31 38/6/32 37/5/33
f 27/4/27 23/1/22 24/1/24
f 23/1/22 27/4/27 30/4/30
f 41/6/34 39/6/35 42/5/36
f 34/5/37 43/7/38 36/5/39
f 45/7/40 36/5/39 43/7/38
f 46/7/41 34/5/37 33/5/31
f 34/5/37 46/7/41 44/7/42
f 46/7/41 37/5/33 48/7/43
f 45/7/40 42/5/36 40/5/44
f 42/5/36 45/7/40 47/7/45
f 43/7/38 7/3/15 45/7/40
f 7/3/15 43/7/38 17/3/13
f 17/3/13 44/7/42 12/3/7
f 11/3/8 44/7/42 46/7/41
f 44/7/42 11/3/8 12/3/7
f 8/3/12 48/7/43 47/7/45
f 48/7/43 8/3/12 15/3/11
f 11/3/8 48/7/43 15/3/11
f 48/7/43 11/3/8 46/7/41
f 51/8/46 50/8/47 49/8/48
f 56/9/49 49/8/48 55/9/50
f 49/8/48 56/9/49 51/8/46
f 55/9/50 50/8/47 57/9/51
f 50/8/47 55/9/50 49/8/48
f 58/9/52 50/8/47 53/8/53
f 50/8/47 58/9/52 57/9/51
f 54/8/54 58/9/52 53/8/53
f 60/9/55 52/8/56 59/9/57
f 56/9/49 52/8/56 51/8/46
f 52/8/56 56/9/49 59/9/57
f 63/10/58 62/10/59 61/10/60
f 62/10/59 63/10/58 64/10/61
f 62/10/59 16/11/17 61/10/60
f 29/12/29 31/13/62 25/12/25
f 28/12/28 39/13/35 27/12/27
f 39/13/35 28/12/28 35/13/63
f 38/13/32 30/12/30 41/13/34
f 30/12/30 38/13/32 29/12/29
f 26/12/26 35/13/63 28/12/28
f 35/13/63 26/12/26 32/13/64
f 5/1/5 4/1/4 6/1/19
f 9/2/14 8/3/12 7/3/15
f 8/3/12 9/2/14 10/2/10
f 15/3/11 10/2/10 16/2/17
f 12/3/7 18/2/16 17/3/13
f 18/2/16 12/3/7 14/2/9
f 4/1/4 21/1/21 19/1/18
f 23/1/22 1/1/3 2/1/2
f 21/1/21 1/1/3 22/1/23
f 1/1/3 21/1/21 3/1/1
f 6/1/19 24/1/24 5/1/5
f 24/1/24 6/1/19 20/1/20
f 25/4/25 19/1/18 21/1/21
f 33/5/31 32/6/64 31/6/62
f 32/6/64 33/5/31 34/5/37
f 32/6/64 36/5/39 35/6/63
f 36/5/39 32/6/64 34/5/37
f 38/6/32 33/5/31 31/6/62
f 35/6/63 40/5/44 39/6/35
f 40/5/44 35/6/63 36/5/39
f 30/4/30 27/4/27 39/6/35
f 30/4/30 39/6/35 41/6/34
f 42/5/36 39/6/35 40/5/44
f 37/5/33 41/6/34 42/5/36
f 41/6/34 37/5/33 38/6/32
f 43/7/38 34/5/37 44/7/42
f 36/5/39 45/7/40 40/5/44
f 47/7/45 37/5/33 42/5/36
f 37/5/33 47/7/45 48/7/43
f 37/5/33 46/7/41 33/5/31
f 44/7/42 17/3/13 43/7/38
f 7/3/15 47/7/45 45/7/40
f 47/7/45 7/3/15 8/3/12
f 50/8/47 51/8/46 52/8/56
f 50/8/47 52/8/56 53/8/53
f 53/8/53 52/8/56 54/8/54
f 57/9/51 56/9/49 55/9/50
f 56/9/49 57/9/51 58/9/52
f 56/9/49 58/9/52 59/9/57
f 59/9/57 58/9/52 60/9/55
f 58/9/52 54/8/54 60/9/55
f 52/8/56 60/9/55 54/8/54
f 62/10/59 64/10/61 65/10/65
f 65/10/65 64/10/61 66/10/66
f 16/11/17 62/10/59 13/11/6
f 9/11/14 66/10/66 64/10/61
f 66/10/66 9/11/14 18/11/16
f 62/10/59 14/11/9 13/11/6
f 14/11/9 62/10/59 65/10/65
f 14/11/9 66/10/66 18/11/16
f 66/10/66 14/11/9 65/10/65
f 64/10/61 10/11/10 9/11/14
f 10/11/10 64/10/61 63/10/58
f 61/10/60 10/11/10 63/10/58
f 10/11/10 61/10/60 16/11/17
f 31/13/62 26/12/26 25/12/25
f 26/12/26 31/13/62 32/13/64
f 31/13/62 29/12/29 38/13/32
