# Blender 4.3.2
# www.blender.org
mtllib brick-wall.mtl
o brick-wall.049
v 0.500000 -0.352914 -0.110000
v 0.500000 -0.327000 -0.110000
v -0.500000 -0.352914 -0.110000
v -0.500000 -0.327000 -0.110000
v -0.500000 -0.477086 -0.601914
v 0.500000 -0.477086 -0.601914
v -0.500000 -0.477086 -0.701914
v 0.500000 -0.477086 -0.701914
v 0.500000 -0.320000 0.000000
v 0.500000 -0.500000 0.000000
v -0.500000 -0.320000 0.000000
v -0.500000 -0.500000 0.000000
v 0.500000 -0.342914 -0.701914
v -0.500000 -0.342914 -0.701914
v 0.500000 -0.320000 -0.090000
v -0.500000 -0.320000 -0.090000
v 0.500000 -0.493000 -0.110000
v 0.500000 -0.467086 -0.110000
v -0.500000 -0.493000 -0.110000
v -0.500000 -0.467086 -0.110000
v -0.500000 -0.500000 -0.090000
v 0.500000 -0.500000 -0.090000
v 0.500000 -0.467086 -0.601914
v -0.500000 -0.467086 -0.601914
v 0.500000 -0.342914 -0.601914
v 0.500000 -0.352914 -0.601914
v -0.500000 -0.342914 -0.601914
v -0.500000 -0.352914 -0.601914
v -0.500000 -0.477086 -0.601914
v -0.500000 -0.477086 -0.701914
v -0.500000 -0.467086 -0.601914
v -0.500000 -0.342914 -0.701914
v -0.500000 -0.352914 -0.601914
v -0.500000 -0.342914 -0.601914
v -0.500000 -0.320000 0.000000
v -0.500000 -0.493000 -0.110000
v -0.500000 -0.467086 -0.110000
v -0.500000 -0.352914 -0.110000
v -0.500000 -0.327000 -0.110000
v -0.500000 -0.320000 -0.090000
v 0.500000 -0.477086 -0.701914
v 0.500000 -0.477086 -0.601914
v 0.500000 -0.342914 -0.701914
v 0.500000 -0.467086 -0.601914
v 0.500000 -0.352914 -0.601914
v 0.500000 -0.342914 -0.601914
v 0.500000 -0.320000 0.000000
v 0.500000 -0.493000 -0.110000
v 0.500000 -0.467086 -0.110000
v 0.500000 -0.352914 -0.110000
v 0.500000 -0.327000 -0.110000
v 0.500000 -0.320000 -0.090000
v -0.253407 -0.327000 -0.200705
v -0.394347 -0.327000 -0.200705
v -0.253407 -0.327000 -0.270705
v -0.394347 -0.327000 -0.270705
v -0.253407 -0.352914 -0.200705
v -0.394347 -0.352914 -0.200705
v -0.253407 -0.352914 -0.270705
v -0.394347 -0.352914 -0.270705
v -0.153407 -0.327000 -0.300705
v -0.294347 -0.327000 -0.300705
v -0.153407 -0.327000 -0.370705
v -0.294347 -0.327000 -0.370705
v -0.153407 -0.352914 -0.300705
v -0.294347 -0.352914 -0.300705
v -0.153407 -0.352914 -0.370705
v -0.294347 -0.352914 -0.370705
v 0.446593 -0.327000 -0.400705
v 0.305653 -0.327000 -0.400705
v 0.446593 -0.327000 -0.470705
v 0.305653 -0.327000 -0.470705
v 0.446593 -0.352914 -0.400705
v 0.305653 -0.352914 -0.400705
v 0.446593 -0.352914 -0.470705
v 0.305653 -0.352914 -0.470705
v -0.321113 -0.493000 -0.248582
v -0.180174 -0.493000 -0.248582
v -0.321113 -0.493000 -0.318582
v -0.180174 -0.493000 -0.318582
v -0.321113 -0.467086 -0.248582
v -0.180174 -0.467086 -0.248582
v -0.321113 -0.467086 -0.318582
v -0.180174 -0.467086 -0.318582
v -0.221114 -0.493000 -0.448582
v -0.080174 -0.493000 -0.448582
v -0.221114 -0.493000 -0.518582
v -0.080174 -0.493000 -0.518582
v -0.221114 -0.467086 -0.448582
v -0.080174 -0.467086 -0.448582
v -0.221114 -0.467086 -0.518582
v -0.080174 -0.467086 -0.518582
v 0.178887 -0.493000 -0.248582
v 0.319827 -0.493000 -0.248582
v 0.178887 -0.493000 -0.318582
v 0.319827 -0.493000 -0.318582
v 0.178887 -0.467086 -0.248582
v 0.319827 -0.467086 -0.248582
v 0.178887 -0.467086 -0.318582
v 0.319827 -0.467086 -0.318582
vn -0.5774 0.5773 -0.5774
vn -0.0000 0.5786 -0.8156
vn 0.5774 0.5774 -0.5774
vn -0.0000 -0.7071 -0.7071
vn -0.0000 -0.7071 0.7071
vn -0.0000 0.7071 0.7071
vn 0.5774 -0.5774 0.5773
vn -0.5774 -0.5774 0.5774
vn -0.0000 0.7071 -0.7071
vn -0.1707 0.9779 -0.1205
vn 0.1715 0.9631 -0.2072
vn -0.0000 -0.5786 -0.8156
vn 0.5773 -0.5773 -0.5774
vn -0.5773 -0.5774 -0.5774
vn 0.6765 -0.6935 -0.2477
vn -0.6765 -0.6935 -0.2478
vn -0.5774 -0.5773 0.5774
vn 0.5774 -0.5774 0.5774
vn 0.5773 0.5773 0.5774
vn -1.0000 -0.0000 -0.0000
vn 1.0000 -0.0000 -0.0000
vn -0.5773 0.5774 0.5774
vn 0.5773 0.5774 -0.5774
vn 0.7071 -0.0000 0.7071
vn 0.7071 -0.0000 -0.7071
vn 0.5774 0.5774 0.5774
vn -0.7071 -0.0000 -0.7071
vn -0.5774 0.5774 -0.5774
vn -0.7071 -0.0000 0.7071
vn 0.5773 -0.5774 0.5774
vn 0.5774 -0.5774 -0.5774
vt 0.843750 0.056343
vt 0.843750 0.225000
vt 0.843750 0.196507
vt 0.843750 0.025000
vt 0.843750 0.050644
vt 0.343750 0.196507
vt 0.343750 0.056343
vt 0.281250 0.125000
s 1
usemtl colormap.002
f 3/1/1 2/1/2 1/1/3
f 2/1/2 3/1/1 4/1/2
f 7/2/4 6/3/5 5/3/5
f 6/3/5 7/2/4 8/2/4
f 11/4/6 10/4/7 9/4/6
f 10/4/7 11/4/6 12/4/8
f 7/2/4 13/2/9 8/2/4
f 13/2/9 7/2/4 14/2/9
f 2/1/2 16/5/10 15/5/11
f 16/5/10 2/1/2 4/1/2
f 19/1/12 18/1/13 17/1/12
f 18/1/13 19/1/12 20/1/14
f 19/1/12 22/5/15 21/5/16
f 22/5/15 19/1/12 17/1/12
f 24/3/17 6/3/5 23/3/18
f 6/3/5 24/3/17 5/3/5
f 27/3/6 26/3/19 25/3/6
f 13/2/9 27/3/6 25/3/6
f 27/3/6 13/2/9 14/2/9
f 10/4/7 21/5/16 22/5/15
f 11/4/6 15/5/11 16/5/10
f 31/3/20 30/2/20 29/3/20
f 32/2/20 31/3/20 33/3/20
f 32/2/20 33/3/20 34/3/20
f 35/4/20 21/5/16 12/4/8
f 21/5/16 35/4/20 36/1/20
f 36/1/20 35/4/20 37/1/20
f 37/1/20 35/4/20 38/1/20
f 38/1/20 35/4/20 39/1/20
f 39/1/20 35/4/20 40/5/20
f 42/3/21 43/2/21 44/3/21
f 44/3/21 43/2/21 45/3/21
f 45/3/21 43/2/21 46/3/21
f 22/5/15 47/4/21 10/4/7
f 47/4/21 22/5/15 48/1/21
f 47/4/21 48/1/21 49/1/21
f 47/4/21 49/1/21 50/1/21
f 47/4/21 50/1/21 51/1/21
f 47/4/21 51/1/21 52/5/21
f 26/6/19 3/7/1 1/7/3
f 3/7/1 26/6/19 28/6/22
f 18/7/13 24/6/17 23/6/18
f 18/7/13 26/6/19 1/7/3
f 55/8/23 57/8/24 59/8/25
f 57/8/24 55/8/23 53/8/26
f 60/8/27 55/8/23 59/8/25
f 55/8/23 60/8/27 56/8/28
f 54/8/22 60/8/27 58/8/29
f 60/8/27 54/8/22 56/8/28
f 63/8/23 62/8/22 61/8/26
f 62/8/22 63/8/23 64/8/28
f 62/8/22 65/8/24 61/8/26
f 65/8/24 62/8/22 66/8/29
f 63/8/23 65/8/24 67/8/25
f 65/8/24 63/8/23 61/8/26
f 68/8/27 63/8/23 67/8/25
f 63/8/23 68/8/27 64/8/28
f 62/8/22 68/8/27 66/8/29
f 68/8/27 62/8/22 64/8/28
f 71/8/23 70/8/22 69/8/26
f 70/8/22 71/8/23 72/8/28
f 70/8/22 73/8/24 69/8/26
f 73/8/24 70/8/22 74/8/29
f 71/8/23 73/8/24 75/8/25
f 73/8/24 71/8/23 69/8/26
f 76/8/27 71/8/23 75/8/25
f 71/8/23 76/8/27 72/8/28
f 70/8/22 76/8/27 74/8/29
f 76/8/27 70/8/22 72/8/28
f 79/8/14 78/8/30 77/8/8
f 78/8/30 79/8/14 80/8/31
f 78/8/30 81/8/29 77/8/8
f 81/8/29 78/8/30 82/8/24
f 79/8/14 81/8/29 83/8/27
f 81/8/29 79/8/14 77/8/8
f 84/8/25 79/8/14 83/8/27
f 78/8/30 84/8/25 82/8/24
f 84/8/25 78/8/30 80/8/31
f 87/8/14 86/8/30 85/8/8
f 86/8/30 87/8/14 88/8/31
f 87/8/14 89/8/29 91/8/27
f 89/8/29 87/8/14 85/8/8
f 92/8/25 87/8/14 91/8/27
f 87/8/14 92/8/25 88/8/31
f 86/8/30 92/8/25 90/8/24
f 92/8/25 86/8/30 88/8/31
f 95/8/14 94/8/30 93/8/8
f 94/8/30 95/8/14 96/8/31
f 94/8/30 97/8/29 93/8/8
f 95/8/14 97/8/29 99/8/27
f 97/8/29 95/8/14 93/8/8
f 100/8/25 95/8/14 99/8/27
f 95/8/14 100/8/25 96/8/31
f 94/8/30 100/8/25 98/8/24
f 26/3/19 27/3/6 28/3/22
f 21/5/16 10/4/7 12/4/8
f 15/5/11 11/4/6 9/4/6
f 30/2/20 31/3/20 32/2/20
f 43/2/21 42/3/21 41/2/21
f 24/6/17 18/7/13 20/7/14
f 20/7/14 28/6/22 24/6/17
f 28/6/22 20/7/14 3/7/1
f 26/6/19 18/7/13 23/6/18
f 55/8/23 54/8/22 53/8/26
f 54/8/22 55/8/23 56/8/28
f 54/8/22 57/8/24 53/8/26
f 57/8/24 54/8/22 58/8/29
f 79/8/14 84/8/25 80/8/31
f 86/8/30 89/8/29 85/8/8
f 89/8/29 86/8/30 90/8/24
f 97/8/29 94/8/30 98/8/24
f 100/8/25 94/8/30 96/8/31
