# Blender 4.3.2
# www.blender.org
mtllib structure-yellow-short.mtl
o structure-yellow-short
v 0.075000 -0.500000 -0.500000
v 0.075000 -0.350000 -0.500000
v -0.075000 -0.500000 -0.500000
v 0.037500 -0.350000 -0.500000
v -0.037500 -0.350000 -0.500000
v -0.075000 -0.350000 -0.500000
v 0.075000 0.500000 -0.150000
v 0.075000 0.350000 -0.150000
v -0.075000 0.500000 -0.150000
v -0.075000 0.350000 -0.150000
v -0.075000 -0.500000 -0.150000
v -0.075000 -0.350000 -0.150000
v 0.075000 0.350000 -0.500000
v 0.075000 0.500000 -0.500000
v 0.075000 -0.500000 -0.150000
v 0.075000 -0.350000 -0.150000
v -0.075000 0.500000 -0.500000
v -0.075000 0.350000 -0.500000
v -0.037500 0.350000 -0.500000
v 0.037500 0.350000 -0.500000
v 0.037500 -0.350000 -0.400000
v 0.037500 -0.350000 -0.250000
v 0.037500 0.350000 -0.400000
v 0.037500 0.350000 -0.250000
v -0.037500 -0.350000 -0.400000
v -0.037500 0.350000 -0.400000
v -0.037500 0.350000 -0.250000
v -0.037500 -0.350000 -0.250000
v -0.075000 0.350000 -0.075000
v 0.075000 0.350000 -0.075000
v -0.037500 0.387500 -0.150000
v 0.037500 0.387500 -0.150000
v -0.075000 0.350000 0.000000
v -0.075000 0.500000 0.000000
v -0.075000 0.500000 -0.075000
v 0.075000 0.350000 0.000000
v 0.075000 0.500000 -0.075000
v 0.075000 0.500000 0.000000
v 0.037500 0.462500 -0.150000
v -0.037500 0.462500 -0.150000
v -0.075000 -0.500000 -0.075000
v 0.075000 -0.500000 -0.075000
v -0.037500 -0.462500 -0.150000
v 0.037500 -0.462500 -0.150000
v 0.075000 -0.350000 -0.075000
v -0.075000 -0.350000 -0.075000
v 0.037500 -0.387500 -0.150000
v -0.037500 -0.387500 -0.150000
v 0.075000 -0.350000 0.000000
v -0.075000 -0.350000 0.000000
v 0.075000 -0.500000 0.000000
v -0.075000 -0.500000 0.000000
vn -0.2541 -0.2541 -0.9332
vn 0.5773 0.5773 -0.5774
vn -0.1130 -0.7026 -0.7026
vn -0.0000 -0.0000 -1.0000
vn -0.5774 0.5774 -0.5774
vn -0.1269 0.1269 0.9838
vn 0.5773 -0.5773 0.5774
vn -0.2254 0.6889 0.6889
vn -0.5773 0.5773 0.5774
vn 0.6981 0.1587 0.6982
vn 0.5774 0.5774 0.5774
vn 0.1130 -0.7026 0.7026
vn -0.0000 1.0000 -0.0000
vn 0.4911 0.8710 0.0155
vn -0.6982 0.6982 -0.1581
vn -0.5773 -0.5773 -0.5774
vn -0.5774 -0.5774 0.5774
vn 0.5773 -0.5774 -0.5774
vn -0.0000 -1.0000 -0.0000
vn 0.4110 0.8219 -0.3944
vn 0.7071 -0.0000 0.7071
vn 0.3536 -0.8660 -0.3535
vn -0.5290 -0.8123 -0.2456
vn -0.2503 0.8209 -0.5133
vn -0.7071 -0.0000 0.7071
vn -0.5774 -0.5774 -0.5774
vn 0.4138 -0.8465 -0.3350
vn -0.5915 -0.5915 -0.5479
vn -0.8497 0.4061 -0.3363
vn 0.8733 0.4660 -0.1420
vn 0.5774 0.5773 -0.5774
vn -0.4061 0.8497 -0.3363
vn 0.5878 0.5877 -0.5560
vt 0.343750 0.225000
vt 0.343750 0.085000
vt 0.218750 0.475000
vt 0.218750 0.275000
vt 0.093750 0.225000
vt 0.093750 0.125000
vt 0.093750 0.025000
s 1
usemtl colormap.286
f 3/1/1 2/1/2 1/1/3
f 2/1/2 3/1/1 4/1/4
f 4/1/4 3/1/1 5/1/4
f 5/1/4 3/1/1 6/1/5
f 9/2/6 8/2/7 7/2/8
f 12/2/9 15/2/10 16/2/11
f 15/2/10 12/2/9 11/2/12
s 0
f 6/1/13 4/1/13 5/1/13
s 1
f 14/1/14 9/2/6 7/2/8
f 9/2/6 14/1/14 17/1/15
f 18/1/16 8/2/7 10/2/17
f 8/2/7 18/1/16 13/1/18
s 0
f 13/1/19 18/1/19 19/1/19
f 13/1/19 19/1/19 20/1/19
s 1
f 9/2/6 18/1/16 10/2/17
f 18/1/16 9/2/6 17/1/15
f 20/1/4 14/1/14 13/1/18
f 14/1/14 20/1/4 17/1/15
f 17/1/15 20/1/4 19/1/4
f 17/1/15 19/1/4 18/1/16
f 23/3/20 22/4/21 21/3/22
f 22/4/21 23/3/20 24/4/21
f 25/3/23 23/3/20 21/3/22
f 23/3/20 25/3/23 26/3/24
f 22/4/21 27/4/25 28/4/25
f 28/4/25 26/3/24 25/3/23
f 26/3/24 28/4/25 27/4/25
f 31/5/26 30/6/27 29/6/28
f 30/6/27 31/5/26 32/5/18
f 34/7/9 29/6/28 33/7/17
f 29/6/28 34/7/9 35/6/29
f 37/6/30 36/7/7 30/6/27
f 36/7/7 37/6/30 38/7/11
f 37/6/30 34/7/9 38/7/11
f 34/7/9 37/6/30 35/6/29
f 32/5/18 37/6/30 30/6/27
f 37/6/30 32/5/18 39/5/31
f 39/5/31 35/6/29 37/6/30
f 35/6/29 39/5/31 40/5/5
f 35/6/29 31/5/26 29/6/28
f 31/5/26 35/6/29 40/5/5
f 34/7/9 36/7/7 38/7/11
f 36/7/7 34/7/9 33/7/17
f 43/5/26 42/6/27 41/6/28
f 42/6/27 43/5/26 44/5/18
f 47/5/31 46/6/32 45/6/33
f 46/6/32 47/5/31 48/5/5
f 45/6/33 50/7/9 49/7/11
f 50/7/9 45/6/33 46/6/32
f 44/5/18 45/6/33 42/6/27
f 45/6/33 44/5/18 47/5/31
f 43/5/26 46/6/32 48/5/5
f 45/6/33 51/7/7 42/6/27
f 50/7/9 41/6/28 52/7/17
f 41/6/28 50/7/9 46/6/32
f 41/6/28 51/7/7 52/7/17
f 51/7/7 41/6/28 42/6/27
f 50/7/9 51/7/7 49/7/11
f 51/7/7 50/7/9 52/7/17
f 8/2/7 9/2/6 10/2/17
f 12/2/9 3/1/1 11/2/12
f 3/1/1 12/2/9 6/1/5
f 13/1/18 7/2/8 8/2/7
f 7/2/8 13/1/18 14/1/14
f 3/1/1 15/2/10 11/2/12
f 15/2/10 3/1/1 1/1/3
f 2/1/2 12/2/9 16/2/11
f 12/2/9 2/1/2 6/1/5
s 0
f 6/1/13 2/1/13 4/1/13
s 1
f 2/1/2 15/2/10 1/1/3
f 15/2/10 2/1/2 16/2/11
f 27/4/25 22/4/21 24/4/21
f 29/6/28 36/7/7 33/7/17
f 36/7/7 29/6/28 30/6/27
f 46/6/32 43/5/26 41/6/28
f 51/7/7 45/6/33 49/7/11
