# Blender 4.3.2
# www.blender.org
mtllib gravestone-round.mtl
o gravestone-round.005
v -0.086775 -0.074750 -0.561749
v -0.086775 0.074750 -0.561749
v -0.122718 -0.074750 -0.534168
v -0.122718 0.074750 -0.534168
v -0.150299 -0.074750 -0.498225
v -0.150299 0.074750 -0.498225
v -0.173550 -0.074750 -0.411450
v -0.167636 -0.074750 -0.456368
v -0.173550 0.074750 -0.411450
v -0.167636 0.074750 -0.456368
v -0.057685 0.074750 -0.511363
v -0.057685 0.036528 -0.511363
v -0.081578 0.074750 -0.493028
v -0.081578 0.036528 -0.493028
v 0.115867 0.036528 -0.407669
v 0.111438 0.036528 -0.441310
v 0.115867 0.074750 -0.407669
v 0.111438 0.074750 -0.441310
v 0.099913 0.036528 -0.469135
v 0.081578 0.036528 -0.493028
v 0.099913 0.074750 -0.469135
v 0.081578 0.074750 -0.493028
v -0.111438 0.036528 -0.441310
v -0.115867 0.036528 -0.407669
v -0.111438 0.074750 -0.441310
v -0.115867 0.074750 -0.407669
v -0.099913 0.036528 -0.469135
v -0.099913 0.074750 -0.469135
v -0.029860 0.074750 -0.522888
v -0.029860 0.036528 -0.522888
v -0.115867 0.036528 -0.345753
v -0.115867 0.066528 -0.345753
v -0.115867 0.074750 -0.345753
v -0.115867 0.066528 -0.117000
v -0.115867 0.074750 0.000000
v -0.115867 0.074750 -0.078000
v -0.115867 0.016528 0.000000
v -0.115867 0.016528 -0.345753
v 0.057685 0.074750 -0.511363
v 0.057685 0.036528 -0.511363
v 0.000000 0.074750 -0.526819
v 0.000000 0.036528 -0.526819
v -0.173550 0.066528 -0.117000
v -0.173550 0.066528 -0.345753
v 0.115867 0.074750 -0.345753
v 0.115867 0.066528 -0.345753
v 0.115867 0.066528 -0.117000
v 0.115867 0.074750 0.000000
v 0.115867 0.074750 -0.078000
v 0.115867 0.036528 -0.345753
v 0.115867 0.016528 -0.345753
v 0.115867 0.016528 0.000000
v -0.195000 0.074750 0.000000
v -0.195000 0.074750 -0.078000
v 0.029860 0.074750 -0.522888
v 0.029860 0.036528 -0.522888
v 0.195000 0.074750 -0.078000
v 0.173550 0.066528 -0.117000
v 0.195000 -0.074750 -0.411450
v 0.195000 -0.074750 -0.345753
v 0.195000 0.074750 -0.411450
v 0.195000 0.074750 -0.345753
v 0.173550 -0.074750 -0.411450
v 0.173550 0.074750 -0.411450
v -0.195000 -0.074750 -0.345753
v -0.195000 -0.074750 -0.411450
v -0.195000 0.074750 -0.345753
v -0.195000 0.074750 -0.411450
v 0.173550 0.066528 -0.345753
v 0.167636 0.074750 -0.456368
v 0.150299 0.074750 -0.498225
v 0.122718 0.074750 -0.534168
v 0.086775 0.074750 -0.561749
v 0.044918 0.074750 -0.579086
v -0.044918 0.074750 -0.579086
v 0.000000 0.074750 -0.585000
v 0.173550 -0.066527 -0.345753
v -0.173550 -0.066527 -0.345753
v 0.167636 -0.074750 -0.456368
v 0.150299 -0.074750 -0.498225
v 0.122718 -0.074750 -0.534168
v 0.086775 -0.074750 -0.561749
v -0.044918 -0.074750 -0.579086
v 0.044918 -0.074750 -0.579086
v 0.000000 -0.074750 -0.585000
v -0.173550 -0.066527 -0.117000
v 0.173550 -0.066527 -0.117000
v 0.195000 0.074750 0.000000
v -0.195000 -0.074750 0.000000
v -0.195000 -0.074750 -0.078000
v 0.195000 -0.074750 -0.078000
v 0.195000 -0.074750 0.000000
v 0.115867 0.016528 -0.345753
v -0.115867 0.016528 -0.345753
v 0.115867 0.016528 0.000000
v -0.115867 0.016528 0.000000
vn -0.5330 -0.6086 -0.5878
vn -0.3936 0.6167 -0.6818
vn -0.4348 -0.6819 -0.5881
vn -0.4868 0.6810 -0.5470
vn -0.6602 0.6258 -0.4153
vn -0.6846 -0.6125 -0.3953
vn -0.7686 -0.6167 -0.1703
vn -0.3021 0.8888 -0.3445
vn -0.7640 0.6118 -0.2047
vn 0.3228 0.7017 0.6351
vn 0.5311 0.6603 0.5311
vn 0.5123 0.7049 0.4905
vn -0.6796 0.7102 0.1840
vn -0.6903 0.7221 0.0452
vn -0.6710 0.6996 0.2456
vn -0.6323 0.6796 0.3721
vn -0.4842 0.6746 0.5572
vn -0.6357 0.6991 0.3274
vn -0.4210 0.7355 0.5309
vn 0.7092 0.6796 0.1875
vn 0.7197 0.6927 0.0472
vn 0.6815 0.6988 0.2176
vn 0.6903 0.7221 0.0452
vn 0.6383 0.6796 0.3615
vn 0.6007 0.6994 0.3872
vn 0.4097 0.7053 0.5786
vn 0.1674 0.7214 0.6720
vn 0.0934 0.7160 0.6918
vn 0.9045 0.3015 0.3015
vn 0.5774 0.5774 0.5774
vn -0.3073 0.6983 0.6465
vn -0.6321 0.7305 -0.2585
vn -0.3015 0.3015 0.9045
vn -0.9045 0.3015 0.3015
vn -0.7197 0.6927 0.0472
vn -0.7312 0.6785 -0.0707
vn -0.5773 0.5774 0.5773
vn 0.6423 0.7665 0.0002
vn -0.5773 0.5774 0.5774
vn 0.5774 0.5773 0.5773
vn -0.7278 0.6854 0.0209
vn 0.0614 0.7074 0.7041
vn -0.1892 0.7150 0.6730
vn -0.2650 0.7160 0.6458
vn 0.0732 0.6722 0.7367
vn -0.3945 0.6963 0.5996
vn 0.6321 0.7305 -0.2585
vn -0.6105 0.7877 -0.0821
vn 0.6098 0.6440 -0.4619
vn 0.5773 -0.5774 0.5773
vn 0.5773 0.5774 -0.5774
vn 0.5774 0.5774 0.5773
vn 0.5630 -0.5205 -0.6420
vn 0.5774 -0.5774 -0.5774
vn 0.3021 0.8888 -0.3445
vn -0.5773 -0.5774 -0.5774
vn -0.5774 -0.5774 0.5773
vn -0.5773 0.5774 -0.5773
vn -0.5630 -0.5205 -0.6420
vn 0.3015 0.3015 0.9045
vn 0.6787 0.6820 -0.2724
vn 0.5896 0.7325 -0.3404
vn 0.4509 0.7117 -0.5387
vn 0.2888 0.6987 -0.6545
vn 0.3015 -0.3015 0.9045
vn -0.3015 -0.3015 0.9045
vn 0.7240 -0.6820 -0.1036
vn 0.4627 -0.6996 -0.5446
vn 0.4338 -0.6819 -0.5889
vn -0.1109 -0.6927 -0.7127
vn 0.2810 -0.6820 -0.6752
vn 0.1236 -0.6818 -0.7211
vn 0.6321 -0.7305 -0.2585
vn -0.7280 -0.6856 0.0089
vn -0.5773 -0.5773 0.5774
vn 0.7312 0.6785 -0.0707
vn -0.6321 -0.7305 -0.2585
vn 0.6841 -0.6131 -0.3950
vn 0.3162 -0.0000 0.9487
vn -0.3162 -0.0000 0.9487
vn 0.5773 -0.5773 0.5774
vn -0.2062 0.6044 -0.7695
vn -0.0000 0.7071 0.7071
vn -0.0000 1.0000 -0.0000
vn 1.0000 -0.0000 -0.0000
vn -1.0000 -0.0000 -0.0000
vn 0.1109 0.6927 -0.7127
vn -0.1236 0.6818 -0.7211
vn -0.0000 -1.0000 -0.0000
vn 0.5332 -0.8011 -0.2720
vt 0.843750 0.207621
vt 0.843750 0.217051
vt 0.843750 0.195333
vt 0.843750 0.181023
vt 0.843750 0.165667
vt 0.843750 0.199825
vt 0.843750 0.193557
vt 0.843750 0.175875
vt 0.843750 0.164374
vt 0.843750 0.185388
vt 0.843750 0.203765
vt 0.843750 0.143206
vt 0.843750 0.065000
vt 0.843750 0.025000
vt 0.843750 0.051667
vt 0.843750 0.205109
vt 0.843750 0.222978
vt 0.843750 0.225000
vt 0.843750 0.108769
vt 0.843750 0.114051
vt 0.843750 0.118586
vt 0.843750 0.122066
vt 0.843750 0.124254
vt 0.843750 0.125000
vt 0.843750 0.090630
vt 0.843750 0.102383
s 1
usemtl colormap.005
f 3/1/1 2/2/2 1/2/3
f 2/2/2 3/1/1 4/1/4
f 6/3/5 3/1/1 5/3/6
f 3/1/1 6/3/5 4/1/4
f 8/4/7 9/5/8 10/4/9
f 12/6/10 13/7/11 14/7/12
f 10/4/9 5/3/6 8/4/7
f 5/3/6 10/4/9 6/3/5
f 16/8/13 17/9/14 18/8/15
f 21/10/16 20/7/17 19/10/18
f 20/7/17 21/10/16 22/7/19
f 25/8/20 24/9/21 23/8/22
f 24/9/21 25/8/20 26/9/23
f 28/10/24 23/8/22 27/10/25
f 23/8/22 28/10/24 25/8/20
f 11/6/26 30/11/27 29/11/28
f 30/11/27 11/6/26 12/6/10
f 32/12/29 26/9/23 33/12/30
f 18/8/15 19/10/18 16/8/13
f 19/10/18 18/8/15 21/10/16
f 39/6/31 20/7/17 22/7/19
f 43/13/32 32/12/29 44/12/33
f 46/12/34 15/9/35 47/13/36
f 15/9/35 48/14/37 47/13/36
f 50/12/34 48/14/37 15/9/35
f 36/15/38 53/14/39 35/14/40
f 53/14/39 36/15/38 54/15/41
f 41/16/42 56/11/43 55/11/44
f 56/11/43 41/16/42 42/16/45
f 40/6/46 55/11/44 56/11/43
f 58/13/47 49/15/48 57/15/49
f 60/12/50 61/5/51 62/12/52
f 63/5/53 61/5/51 59/5/54
f 61/5/51 63/5/53 64/5/55
f 67/12/37 66/5/56 65/12/57
f 66/5/56 67/12/37 68/5/58
f 66/5/56 9/5/8 7/5/59
f 9/5/8 66/5/56 68/5/58
f 47/13/36 69/12/60 46/12/34
f 17/9/14 64/5/55 18/8/15
f 21/10/16 70/4/61 71/3/62
f 21/10/16 71/3/62 22/7/19
f 22/7/19 71/3/62 39/6/31
f 55/11/44 72/1/63 41/16/42
f 4/1/4 41/16/42 72/1/63
f 4/1/4 73/2/64 2/2/2
f 6/3/5 28/10/24 13/7/11
f 67/12/37 26/9/23 68/5/58
f 69/12/60 45/12/37 46/12/34
f 69/12/60 62/12/52 45/12/37
f 60/12/50 77/12/65 65/12/57
f 65/12/57 78/12/66 67/12/37
f 32/12/29 67/12/37 44/12/33
f 67/12/37 32/12/29 33/12/30
f 60/12/50 66/5/56 59/5/54
f 8/4/7 63/5/53 7/5/59
f 63/5/53 8/4/7 79/4/67
f 81/1/68 1/2/3 82/2/69
f 82/2/69 1/2/3 83/17/70
f 82/2/69 83/17/70 84/17/71
f 84/17/71 83/17/70 85/18/72
f 87/13/73 78/12/66 77/12/65
f 53/14/39 90/15/74 89/14/75
f 54/15/41 34/13/76 43/13/32
f 43/13/32 78/12/66 86/13/77
f 78/12/66 43/13/32 44/12/33
f 86/13/77 54/15/41 43/13/32
f 71/3/62 79/4/67 80/3/78
f 79/4/67 71/3/62 70/4/61
f 53/14/39 37/14/79 35/14/40
f 89/14/75 37/14/79 53/14/39
f 89/14/75 52/14/80 37/14/79
f 92/14/81 48/14/37 52/14/80
f 70/4/61 63/5/53 79/4/67
f 63/5/53 70/4/61 64/5/55
f 1/2/3 75/17/82 83/17/70
f 75/17/82 1/2/3 2/2/2
f 23/19/22 19/20/18 27/20/25
f 27/20/25 20/21/17 14/21/12
f 14/21/12 20/21/17 40/22/46
f 14/21/12 40/22/46 12/22/10
f 12/22/10 40/22/46 56/23/43
f 12/22/10 56/23/43 30/23/27
f 30/23/27 56/23/43 42/24/45
f 31/25/29 93/25/83 50/25/34
f 93/25/83 31/25/29 94/25/83
f 93/25/83 96/14/84 95/14/84
f 96/14/84 93/25/83 94/25/83
f 9/5/8 8/4/7 7/5/59
f 13/7/11 12/6/10 11/6/26
f 17/9/14 16/8/13 15/9/35
f 13/7/11 27/10/25 14/7/12
f 27/10/25 13/7/11 28/10/24
f 26/9/23 31/12/29 24/9/21
f 31/12/29 26/9/23 32/12/29
f 34/13/76 31/12/29 32/12/29
f 35/14/40 31/12/29 34/13/76
f 35/14/40 34/13/76 36/15/38
f 37/14/79 31/12/29 35/14/40
f 31/12/29 37/14/79 38/12/85
f 20/7/17 39/6/31 40/6/46
f 29/11/28 42/16/45 41/16/42
f 42/16/45 29/11/28 30/11/27
f 32/12/29 43/13/32 34/13/76
f 17/9/14 46/12/34 45/12/37
f 15/9/35 46/12/34 17/9/14
f 47/13/36 48/14/37 49/15/48
f 51/12/86 48/14/37 50/12/34
f 48/14/37 51/12/86 52/14/80
f 55/11/44 40/6/46 39/6/31
f 49/15/48 58/13/47 47/13/36
f 61/5/51 60/12/50 59/5/54
f 69/12/60 47/13/36 58/13/47
f 61/5/51 45/12/37 62/12/52
f 45/12/37 61/5/51 17/9/14
f 17/9/14 61/5/51 64/5/55
f 18/8/15 64/5/55 70/4/61
f 18/8/15 70/4/61 21/10/16
f 39/6/31 71/3/62 72/1/63
f 39/6/31 72/1/63 55/11/44
f 4/1/4 29/11/28 41/16/42
f 4/1/4 72/1/63 73/2/64
f 4/1/4 11/6/26 29/11/28
f 2/2/2 73/2/64 74/17/87
f 2/2/2 74/17/87 75/17/82
f 75/17/82 74/17/87 76/18/88
f 6/3/5 11/6/26 4/1/4
f 6/3/5 13/7/11 11/6/26
f 10/4/9 28/10/24 6/3/5
f 10/4/9 25/8/20 28/10/24
f 9/5/8 25/8/20 10/4/9
f 25/8/20 9/5/8 26/9/23
f 68/5/58 26/9/23 9/5/8
f 26/9/23 67/12/37 33/12/30
f 62/12/52 69/12/60 60/12/50
f 77/12/65 60/12/50 69/12/60
f 65/12/57 77/12/65 78/12/66
f 44/12/33 67/12/37 78/12/66
f 66/5/56 60/12/50 65/12/57
s 0
f 59/5/89 66/5/89 7/5/89
f 59/5/89 7/5/89 63/5/89
s 1
f 79/4/67 8/4/7 5/3/6
f 79/4/67 5/3/6 80/3/78
f 80/3/78 5/3/6 3/1/1
f 80/3/78 3/1/1 81/1/68
f 81/1/68 3/1/1 1/2/3
f 78/12/66 87/13/73 86/13/77
f 57/15/49 48/14/37 88/14/30
f 48/14/37 57/15/49 49/15/48
f 90/15/74 53/14/39 54/15/41
f 86/13/77 91/15/90 90/15/74
f 91/15/90 86/13/77 87/13/73
f 34/13/76 54/15/41 36/15/38
f 90/15/74 92/14/81 89/14/75
f 92/14/81 90/15/74 91/15/90
f 69/12/60 87/13/73 77/12/65
f 87/13/73 69/12/60 58/13/47
f 57/15/49 92/14/81 91/15/90
f 92/14/81 57/15/49 88/14/30
f 54/15/41 86/13/77 90/15/74
f 87/13/73 57/15/49 91/15/90
f 57/15/49 87/13/73 58/13/47
f 92/14/81 52/14/80 89/14/75
f 48/14/37 92/14/81 88/14/30
f 72/1/63 80/3/78 81/1/68
f 80/3/78 72/1/63 71/3/62
f 82/2/69 72/1/63 81/1/68
f 72/1/63 82/2/69 73/2/64
f 84/17/71 73/2/64 82/2/69
f 73/2/64 84/17/71 74/17/87
f 85/18/72 74/17/87 84/17/71
f 74/17/87 85/18/72 76/18/88
f 83/17/70 76/18/88 85/18/72
f 76/18/88 83/17/70 75/17/82
f 15/26/35 31/25/29 50/25/34
f 31/25/29 15/26/35 24/26/21
f 24/26/21 15/26/35 16/19/13
f 24/26/21 16/19/13 23/19/22
f 23/19/22 16/19/13 19/20/18
f 27/20/25 19/20/18 20/21/17
