# Blender 4.3.2
# www.blender.org
mtllib televisionVintage.mtl
o televisionVintage
v -0.382885 0.010000 -0.027115
v -0.329089 0.010000 -0.027115
v -0.382885 0.010000 -0.153399
v -0.329089 0.010000 -0.153399
v -0.239227 0.020000 -0.033588
v -0.062747 0.020000 -0.033588
v -0.242908 0.020000 -0.033829
v -0.059066 0.020000 -0.033829
v -0.246526 0.020000 -0.034549
v -0.055448 0.020000 -0.034549
v -0.250019 0.020000 -0.035734
v -0.051955 0.020000 -0.035734
v -0.253327 0.020000 -0.037366
v -0.048647 0.020000 -0.037366
v -0.256395 0.020000 -0.039415
v -0.045580 0.020000 -0.039415
v -0.259168 0.020000 -0.041847
v -0.042806 0.020000 -0.041847
v -0.261600 0.020000 -0.044621
v -0.040374 0.020000 -0.044621
v -0.263649 0.020000 -0.047688
v -0.038325 0.020000 -0.047688
v -0.265281 0.020000 -0.050996
v -0.036693 0.020000 -0.050996
v -0.266466 0.020000 -0.054489
v -0.035508 0.020000 -0.054489
v -0.267186 0.020000 -0.058107
v -0.034788 0.020000 -0.058107
v -0.267427 0.020000 -0.061788
v -0.034547 0.020000 -0.061788
v -0.267427 0.020000 -0.208212
v -0.034547 0.020000 -0.208212
v -0.267186 0.020000 -0.211893
v -0.034788 0.020000 -0.211893
v -0.266466 0.020000 -0.215511
v -0.035508 0.020000 -0.215511
v -0.265281 0.020000 -0.219004
v -0.036693 0.020000 -0.219004
v -0.263649 0.020000 -0.222312
v -0.038325 0.020000 -0.222312
v -0.261600 0.020000 -0.225379
v -0.040374 0.020000 -0.225379
v -0.259168 0.020000 -0.228153
v -0.042806 0.020000 -0.228153
v -0.256395 0.020000 -0.230585
v -0.045580 0.020000 -0.230585
v -0.253327 0.020000 -0.232634
v -0.048647 0.020000 -0.232634
v -0.250019 0.020000 -0.234266
v -0.051955 0.020000 -0.234266
v -0.246526 0.020000 -0.235451
v -0.055448 0.020000 -0.235451
v -0.242908 0.020000 -0.236171
v -0.059066 0.020000 -0.236171
v -0.239227 0.020000 -0.236412
v -0.062747 0.020000 -0.236412
v 0.000000 0.200000 0.000000
v 0.000000 0.000000 0.000000
v -0.410000 0.200000 0.000000
v -0.301974 0.010000 0.000000
v -0.410000 0.010000 0.000000
v -0.301974 0.000000 0.000000
v 0.000000 0.000000 -0.270000
v 0.000000 0.200000 -0.270000
v -0.301974 0.000000 -0.270000
v -0.410000 0.200000 -0.270000
v -0.410000 0.000000 -0.270000
v -0.410000 0.010000 -0.180514
v -0.410000 0.010000 -0.230697
v -0.410000 0.000000 -0.230697
v -0.248776 0.000000 -0.027371
v -0.252624 0.000000 -0.028137
v -0.256340 0.000000 -0.029398
v -0.259860 0.000000 -0.031134
v -0.263123 0.000000 -0.033314
v -0.266073 0.000000 -0.035901
v -0.268660 0.000000 -0.038852
v -0.270841 0.000000 -0.042115
v -0.272576 0.000000 -0.045634
v -0.273838 0.000000 -0.049350
v -0.301974 0.000000 -0.180514
v -0.244860 0.000000 -0.027115
v -0.274603 0.000000 -0.053199
v -0.274860 0.000000 -0.057115
v -0.274860 0.000000 -0.212885
v -0.301974 0.000000 -0.230697
v -0.274603 0.000000 -0.216801
v -0.273838 0.000000 -0.220650
v -0.272576 0.000000 -0.224366
v -0.270841 0.000000 -0.227885
v -0.268660 0.000000 -0.231148
v -0.266073 0.000000 -0.234099
v -0.263123 0.000000 -0.236686
v -0.259860 0.000000 -0.238866
v -0.256340 0.000000 -0.240602
v -0.252624 0.000000 -0.241863
v -0.248776 0.000000 -0.242629
v -0.244860 0.000000 -0.242886
v -0.057115 0.000000 -0.242886
v -0.053199 0.000000 -0.242629
v -0.049350 0.000000 -0.241863
v -0.045634 0.000000 -0.240602
v -0.042115 0.000000 -0.238866
v -0.038852 0.000000 -0.236686
v -0.035901 0.000000 -0.234099
v -0.033314 0.000000 -0.231148
v -0.031134 0.000000 -0.227885
v -0.029398 0.000000 -0.224366
v -0.028137 0.000000 -0.220650
v -0.027371 0.000000 -0.216801
v -0.027115 0.000000 -0.212885
v -0.027115 0.000000 -0.057115
v -0.027371 0.000000 -0.053199
v -0.028137 0.000000 -0.049350
v -0.029398 0.000000 -0.045634
v -0.031134 0.000000 -0.042115
v -0.033314 0.000000 -0.038852
v -0.035901 0.000000 -0.035901
v -0.038852 0.000000 -0.033314
v -0.042115 0.000000 -0.031134
v -0.045634 0.000000 -0.029398
v -0.049350 0.000000 -0.028137
v -0.053199 0.000000 -0.027371
v -0.057115 0.000000 -0.027115
v -0.301974 0.010000 -0.180514
v -0.301974 0.010000 -0.230697
v -0.056384 0.200000 -0.038076
v -0.056384 0.200000 -0.231924
v -0.353616 0.200000 -0.231924
v -0.353616 0.200000 -0.038076
v -0.334296 0.250000 -0.038076
v -0.155762 0.250000 -0.108134
v -0.075704 0.250000 -0.038076
v -0.075704 0.250000 -0.231924
v -0.155762 0.250000 -0.231924
v -0.254238 0.250000 -0.108134
v -0.334296 0.250000 -0.231924
v -0.254238 0.250000 -0.231924
v -0.155762 0.270000 -0.231924
v -0.254238 0.270000 -0.231924
v -0.155762 0.270000 -0.108134
v -0.254238 0.270000 -0.108134
vn -0.0000 -1.0000 -0.0000
vn -0.0163 -0.8049 -0.5931
vn 0.0163 -0.8049 -0.5931
vn 0.0971 -0.8042 -0.5864
vn -0.0971 -0.8044 -0.5861
vn 0.1704 -0.8107 -0.5601
vn -0.1702 -0.8121 -0.5581
vn 0.2391 -0.8158 -0.5266
vn 0.3028 -0.8194 -0.4867
vn -0.2389 -0.8146 -0.5285
vn -0.3020 -0.8228 -0.4815
vn 0.3615 -0.8215 -0.4411
vn -0.3601 -0.8257 -0.4343
vn 0.4147 -0.8221 -0.3901
vn -0.4125 -0.8294 -0.3766
vn 0.4560 -0.8303 -0.3203
vn -0.4623 -0.8207 -0.3359
vn 0.4989 -0.8266 -0.2603
vn -0.4962 -0.8287 -0.2589
vn 0.5351 -0.8218 -0.1956
vn -0.5297 -0.8260 -0.1928
vn 0.5649 -0.8153 -0.1272
vn 0.5761 -0.8172 0.0164
vn -0.5761 -0.8172 0.0164
vn -0.5761 -0.8172 -0.0164
vn 0.5394 -0.8155 0.2101
vn -0.5263 -0.8176 0.2335
vn -0.5649 -0.8153 0.1272
vn 0.5039 -0.8189 0.2748
vn -0.4880 -0.8201 0.2988
vn 0.4554 -0.8178 0.3518
vn 0.3020 -0.8228 0.4815
vn 0.2389 -0.8145 0.5287
vn -0.3028 -0.8193 0.4869
vn -0.1931 -0.8193 0.5398
vn 0.1703 -0.8098 0.5615
vn -0.1218 -0.8128 0.5696
vn 0.0971 -0.8036 0.5872
vn -0.0463 -0.8047 0.5919
vn 0.0163 -0.8049 0.5931
vn -0.0163 -0.8049 0.5931
vn 0.5774 -0.5773 0.5774
vn -0.3015 -0.3015 0.9045
vn -0.5774 -0.5773 0.5774
vn -0.0000 -0.7071 -0.7071
vn -0.5773 0.5774 -0.5773
vn 0.5774 0.5773 -0.5774
vn -0.7071 -0.7071 -0.0000
vn -0.5773 -0.5774 0.5773
vn -0.5774 0.5773 0.5773
vn -0.9045 -0.3015 0.3015
vn -0.5773 -0.5773 -0.5774
vn -0.5774 -0.5774 0.5774
vn 0.1125 -0.8287 -0.5483
vn 0.1875 -0.8345 -0.5181
vn 0.2493 -0.8402 -0.4816
vn 0.3572 -0.8474 -0.3929
vn 0.2352 -0.8660 -0.4412
vn 0.4032 -0.8490 -0.3416
vn 0.4436 -0.8493 -0.2863
vn 0.4444 -0.8670 -0.2254
vn 0.5593 -0.8287 -0.0207
vn 0.5584 -0.8222 -0.1104
vn -0.3015 -0.9045 0.3015
vn 0.3829 -0.8647 0.3252
vn 0.3487 -0.8688 0.3516
vn 0.2851 -0.8525 0.4382
vn 0.0355 -0.8293 0.5577
vn 0.1102 -0.8526 0.5108
vn 0.0218 -0.8172 0.5759
vn -0.0218 -0.8172 0.5759
vn 0.5774 -0.5773 -0.5774
vn -0.2493 -0.8402 0.4816
vn -0.1082 -0.8510 0.5139
vn -0.3573 -0.8474 0.3928
vn -0.2352 -0.8660 0.4412
vn -0.4444 -0.8670 0.2254
vn -0.3937 -0.8725 0.2893
vn -0.5353 -0.8376 -0.1089
vn -0.5593 -0.8287 -0.0207
vn -0.5073 -0.8421 -0.1828
vn -0.4741 -0.8458 -0.2445
vn -0.4353 -0.8482 -0.3018
vn -0.3912 -0.8493 -0.3546
vn -0.2851 -0.8525 -0.4382
vn -0.3957 -0.8509 -0.3455
vn -0.2293 -0.8486 -0.4768
vn -0.1689 -0.8435 -0.5099
vn -0.1042 -0.8371 -0.5371
vn -0.0355 -0.8293 -0.5577
vn -0.0218 -0.8172 -0.5759
vn 0.2849 -0.8231 0.4913
vn 0.3331 -0.8411 0.4262
vn -0.3298 -0.8415 0.4278
vn 0.2505 -0.8371 0.4863
vn 0.4779 -0.8483 0.2281
vn 0.5067 -0.8460 0.1660
vn 0.3739 -0.8443 0.3838
vn -0.0945 -0.8059 0.5845
vn -0.3984 -0.8277 0.3952
vn -0.3826 -0.8431 0.3779
vn -0.5251 -0.8302 0.1869
vn -0.4208 -0.8398 0.3430
vn -0.5536 -0.8290 0.0788
vn -0.5752 -0.8157 0.0619
vn -0.5452 -0.8218 -0.1654
vn -0.5555 -0.8290 -0.0641
vn -0.5593 -0.8287 0.0207
vn -0.5522 -0.8247 0.1224
vn 0.0218 -0.8172 -0.5759
vn 0.5251 -0.8302 -0.1869
vn 0.5761 -0.8172 -0.0164
vn 0.5536 -0.8290 -0.0788
vn 0.5295 -0.8423 0.1006
vn 0.5335 -0.8348 0.1357
vn 0.5299 -0.8303 -0.1724
vn 0.5458 -0.8373 0.0323
vn 0.5555 -0.8290 0.0641
vn 0.2612 0.9412 0.2143
vn 0.5773 0.5774 0.5773
vn -0.2613 0.9412 0.2143
vn 0.3015 0.9045 0.3015
vn -0.4527 0.6602 0.5993
vn 0.4527 0.6603 0.5992
vn 0.4527 0.6603 -0.5993
vn 0.3015 0.3015 -0.9045
vn -0.3015 0.9045 0.3015
vn -0.3015 0.3015 -0.9045
vn -0.4527 0.6603 -0.5993
vn 0.2613 0.9412 -0.2143
vn -0.2612 0.9412 -0.2143
vn 0.5774 0.5774 -0.5773
vn -0.5774 0.5774 -0.5774
vn -0.5773 0.5774 0.5773
vn 0.5774 0.5774 0.5774
vn 0.5593 -0.8287 0.0207
vt 15.074230 6.039328
vt 12.956250 6.039328
vt 12.956250 1.067501
vt 2.470350 1.322348
vt 9.418403 1.322348
vt 9.563318 1.331847
vt 2.325435 1.331847
vt 9.705753 1.360179
vt 2.182999 1.360179
vt 9.843272 1.406860
vt 9.973521 1.471092
vt 2.045480 1.406860
vt 1.915231 1.471092
vt 10.094270 1.551775
vt 1.794481 1.551775
vt 10.203460 1.647529
vt 1.685294 1.647529
vt 10.299210 1.756716
vt 1.589540 1.756716
vt 10.379900 1.877467
vt 1.508857 1.877467
vt 10.444130 2.007716
vt 1.444625 2.007716
vt 10.490810 2.145234
vt 10.528640 8.197336
vt 1.360113 8.197336
vt 1.360113 2.432585
vt 10.444130 8.622206
vt 1.444625 8.622206
vt 1.397944 8.484687
vt 10.379900 8.752455
vt 1.508857 8.752455
vt 10.299210 8.873205
vt 9.973521 9.158830
vt 9.843272 9.223062
vt 1.915231 9.158830
vt 2.045480 9.223062
vt 9.705753 9.269742
vt 2.182999 9.269742
vt 9.563318 9.298075
vt 2.325435 9.298075
vt 9.418403 9.307572
vt 2.470350 9.307572
vt 0.000000 0.000000
vt -11.888750 0.393701
vt -11.888750 0.000000
vt 11.888750 0.000000
vt 16.141729 7.874016
vt 0.000000 7.874016
vt 0.393701 7.106829
vt 0.393701 0.000000
vt 7.874016 0.000000
vt 0.393701 9.082573
vt 7.874016 10.629920
vt 0.000000 10.629920
vt 0.000000 9.082573
vt 9.794314 1.077605
vt 9.945841 1.107746
vt 10.092140 1.157407
vt 10.359160 1.311572
vt 10.230700 1.225739
vt 10.475320 1.413438
vt 10.577180 1.529594
vt 10.663010 1.658052
vt 11.888750 7.106829
vt 10.821250 2.248603
vt 10.811150 2.094439
vt 11.888750 9.082573
vt 11.888750 10.629920
vt 10.577180 9.100327
vt 10.475320 9.216483
vt 10.359160 9.318350
vt 9.794314 9.552316
vt 9.945841 9.522175
vt 9.640149 9.562421
vt 2.248603 9.562421
vt 1.796615 9.472514
vt 1.942911 9.522175
vt 1.529594 9.318350
vt 1.658052 9.404182
vt 1.225739 8.971869
vt 1.311572 9.100327
vt 1.077605 2.094439
vt 1.067501 2.248603
vt 1.107746 1.942911
vt 1.157407 1.796615
vt 1.225739 1.658052
vt 1.311572 1.529594
vt 1.529594 1.311572
vt 1.413438 1.413438
vt 1.658052 1.225739
vt 1.796615 1.157407
vt 1.942911 1.107746
vt 2.094439 1.077605
vt 2.248603 1.067501
vt 16.141729 7.106829
vt 16.141729 9.082573
vt -16.141729 0.393701
vt -16.141729 0.000000
vt 15.074230 1.067501
vt 0.000000 7.106829
vt 16.141729 10.629920
vt 6.356589 0.002409
vt 5.579826 -0.375718
vt 5.654852 -0.500063
vt 1.516845 5.612147
vt 1.402631 5.508110
vt 2.088967 4.985515
vt 2.196329 5.083310
vt 1.030189 7.090585
vt 0.950375 6.958303
vt 1.731926 6.588113
vt 7.764793 -0.916083
vt 7.085310 -1.444920
vt 7.192672 -1.542716
vt 7.879008 -1.020121
vt 9.640149 2.944553
vt 2.248603 2.944553
vt 2.470350 2.116937
vt 5.108156 3.003644
vt 5.067038 3.152567
vt 4.242706 2.889262
vt 4.775959 4.198232
vt 4.745548 4.349705
vt 3.914424 4.109847
vt 3.943010 3.967462
vt 5.481632 1.852591
vt 5.428840 1.997787
vt 4.614542 1.705171
vt 4.664166 1.568687
vt 5.849931 0.927005
vt 5.050513 0.597165
vt 5.112172 0.465678
vt 5.915525 0.787126
vt 2.208439 3.545118
vt 2.057028 3.514400
vt 2.432057 2.741514
vt 0.863778 7.651130
vt 0.798184 7.511250
vt 1.601538 7.189804
vt 1.663197 7.321290
vt 0.545512 8.650620
vt 0.515101 8.499147
vt 1.348050 8.268377
vt 0.628313 8.432223
vt 0.587195 8.283300
vt 1.413993 8.028931
vt 1.452645 8.168919
vt 0.459415 1.558887
vt 0.480011 1.405770
vt 1.315620 1.626712
vt 0.732515 8.098430
vt 0.679723 7.953233
vt 1.497189 7.669329
vt 1.546813 7.805813
vt 1.225158 8.242122
vt 1.228585 8.387307
vt 0.388866 8.580899
vt 1.267016 1.932455
vt 1.256053 2.077267
vt 0.416998 1.880812
vt 0.371856 8.381318
vt 0.371856 2.248603
vt 1.211870 2.432585
vt 1.211870 8.197336
vt 0.480011 8.750675
vt 0.459415 8.597559
vt 1.296260 8.385804
vt 1.315620 8.529734
vt 1.376637 1.313166
vt 1.348050 1.455550
vt 0.515101 1.224781
vt 0.863778 0.090023
vt 1.663197 0.419863
vt 1.601538 0.551350
vt 2.088967 0.088528
vt 1.402631 -0.434067
vt 1.516845 -0.538105
vt 2.196329 -0.009268
vt 1.731926 0.309266
vt 0.950375 -0.060925
vt 1.030189 -0.193207
vt 0.679723 0.550641
vt 0.732515 0.405445
vt 1.546813 0.698061
vt 1.497189 0.834545
vt 1.856889 -0.464339
vt 2.425917 0.179250
vt 2.299637 0.250970
vt 2.432057 0.755205
vt 2.057028 -0.017681
vt 2.208439 -0.048398
vt 2.470350 1.156331
vt 2.248603 0.328715
vt 9.640149 0.328715
vt 6.983352 6.669075
vt 7.079232 6.790218
vt 6.332820 7.225202
vt 5.428840 6.506087
vt 5.481632 6.651283
vt 4.664166 6.935187
vt 4.614542 6.798703
vt 4.745548 5.374224
vt 4.775959 5.525697
vt 3.943010 5.756466
vt 3.914424 5.614081
vt 3.634353 4.963351
vt 3.614993 4.819422
vt 4.450603 4.598480
vt 5.112172 7.275475
vt 5.050513 7.143988
vt 5.849931 6.814148
vt 3.065028 3.044491
vt 3.061601 2.899306
vt 3.901320 2.705714
vt 5.654852 7.397442
vt 5.579826 7.273097
vt 6.356589 6.894970
vt 4.471199 5.404849
vt 4.450603 5.557966
vt 3.614993 5.337024
vt 3.634353 5.193094
vt 4.171898 3.704469
vt 4.183561 3.858524
vt 3.344507 4.054978
vt 5.067038 6.016602
vt 5.108156 6.165525
vt 4.281357 6.419895
vt 7.764793 5.990125
vt 7.879008 6.094163
vt 7.192672 6.616758
vt 4.183561 6.596983
vt 4.171898 6.751039
vt 3.333543 6.545341
vt 3.344507 6.400529
vt -2.219826 1.499043
vt -13.921910 1.499043
vt -16.141729 10.629920
vt -6.132362 4.257243
vt -13.161270 1.499043
vt -2.980462 1.499043
vt -2.980462 9.130877
vt -6.132362 9.130877
vt -10.009370 4.257243
vt -10.009370 9.130877
vt -13.161270 9.130877
vt 2.980462 9.842520
vt 2.219826 7.874016
vt 13.921910 7.874016
vt 6.132362 9.842520
vt 10.009370 9.842520
vt 6.132362 10.629920
vt 10.009370 10.629920
vt -2.980462 9.842520
vt -13.161270 9.842520
vt -13.921910 7.874016
vt -10.255210 9.130877
vt -10.255210 1.499043
vt -8.144865 1.499043
vt -9.842520 4.257243
vt -9.842520 9.130877
vt -10.629920 9.130877
vt -10.629920 4.257243
vt 9.842520 9.130877
vt 9.842520 4.257243
vt 10.629920 4.257243
vt 10.629920 9.130877
vt -6.132362 9.842520
vt -6.132362 10.629920
vt -10.009370 10.629920
vt 1.397944 2.145234
vt 10.519140 2.287670
vt 1.369612 2.287670
vt 10.528640 2.432585
vt 10.519140 8.342252
vt 1.369612 8.342252
vt 10.490810 8.484687
vt 1.589540 8.873205
vt 10.203460 8.982392
vt 1.685294 8.982392
vt 10.094270 9.078146
vt 1.794481 9.078146
vt -16.141729 7.874016
vt 16.141729 0.000000
vt -7.874016 10.629920
vt -7.874016 0.000000
vt 10.731350 1.796615
vt 10.781010 1.942911
vt 9.640149 1.067501
vt 10.821250 8.381318
vt 10.811150 8.535482
vt 10.781010 8.687010
vt 10.731350 8.833306
vt 10.663010 8.971869
vt 10.230700 9.404182
vt 10.092140 9.472514
vt 2.094439 9.552316
vt 1.413438 9.216483
vt 1.157407 8.833306
vt 1.107746 8.687010
vt 1.077605 8.535482
vt 1.067501 8.381318
vt 6.436404 -0.129873
vt 1.856889 4.663552
vt 1.722548 4.587254
vt 2.299637 3.948244
vt 2.425917 4.019964
vt 1.806952 6.712458
vt 9.467958 1.432610
vt 9.102015 0.657881
vt 9.244341 0.629007
vt 9.619370 1.401893
vt 9.418403 2.116937
vt 1.243185 6.414009
vt 1.147305 6.292864
vt 1.893717 5.857881
vt 1.983844 5.971756
vt 4.281357 2.749274
vt 6.983352 -0.673246
vt 6.242693 -1.115498
vt 6.332820 -1.229374
vt 7.079232 -0.794390
vt 8.683451 -0.388579
vt 8.114422 -1.032168
vt 8.240703 -1.103888
vt 8.817791 -0.464877
vt 2.574383 2.770389
vt 1.376637 8.410763
vt 1.296260 1.770642
vt 0.385219 8.426446
vt 0.428662 1.726757
vt 0.428662 8.728750
vt 0.416998 8.574696
vt 1.256053 8.378241
vt 1.267016 8.523052
vt 0.385219 2.183671
vt 0.388866 2.029218
vt 1.228585 2.222810
vt 1.225158 2.367996
vt 0.545512 1.073308
vt 0.798184 0.229902
vt 0.587195 0.885868
vt 0.628313 0.736945
vt 1.452645 1.000250
vt 1.413993 1.140238
vt 1.806952 0.184921
vt 1.893717 0.137947
vt 1.147305 -0.297036
vt 1.243185 -0.418180
vt 1.983844 0.024072
vt 1.722548 -0.388040
vt 2.574383 0.726331
vt 9.418403 1.156331
vt 9.244341 2.867712
vt 9.102015 2.838838
vt 9.467958 2.064109
vt 9.619370 2.094826
vt 6.242693 7.111327
vt 4.471199 4.751596
vt 3.904967 7.749951
vt 3.901320 7.904403
vt 3.061601 7.710812
vt 3.065028 7.565626
vt 5.915525 6.954028
vt 3.904967 2.860166
vt 6.436404 7.027252
vt 3.333543 3.910167
vt 4.242706 6.279907
vt 3.769502 2.248603
vt 3.769502 8.381318
vt 2.929488 8.197336
vt 2.929488 2.432585
vt 7.085310 6.518962
vt 8.240703 5.303102
vt 8.114422 5.231381
vt 8.683451 4.587793
vt 8.817791 4.664091
vt -2.219826 9.130877
vt -13.921910 9.130877
vt 13.161270 9.842520
vt -2.219826 7.874016
vt -8.144865 9.130877
vt 2.326885 9.130877
vt 2.326885 1.499043
vt 4.437234 1.499043
vt 4.437234 9.130877
vt -10.009370 9.842520
s 1
usemtl metal.008
f 3/1/1 4/2/1 2/3/1
f 6/4/2 5/5/3 7/6/4
f 7/6/4 8/7/5 6/4/2
f 7/6/4 9/8/6 8/7/5
f 9/8/6 10/9/7 8/7/5
f 9/8/6 11/10/8 10/9/7
f 11/10/8 13/11/9 12/12/10
f 13/11/9 14/13/11 12/12/10
f 13/11/9 15/14/12 14/13/11
f 15/14/12 16/15/13 14/13/11
f 15/14/12 17/16/14 16/15/13
f 17/16/14 18/17/15 16/15/13
f 17/16/14 19/18/16 18/17/15
f 19/18/16 20/19/17 18/17/15
f 21/20/18 22/21/19 20/19/17
f 21/20/18 23/22/20 22/21/19
f 23/22/20 24/23/21 22/21/19
f 23/22/20 25/24/22 24/23/21
f 31/25/23 32/26/24 30/27/25
f 37/28/26 38/29/27 36/30/28
f 37/28/26 39/31/29 38/29/27
f 39/31/29 40/32/30 38/29/27
f 39/31/29 41/33/31 40/32/30
f 47/34/32 49/35/33 48/36/34
f 49/35/33 50/37/35 48/36/34
f 49/35/33 51/38/36 50/37/35
f 51/38/36 52/39/37 50/37/35
f 51/38/36 53/40/38 52/39/37
f 53/40/38 54/41/39 52/39/37
f 53/40/38 55/42/40 54/41/39
f 55/42/40 56/43/41 54/41/39
f 2/3/1 1/100/1 3/1/1
f 11/10/8 12/12/10 10/9/7
f 19/18/16 21/20/18 20/19/17
f 25/24/22 26/271/106 24/23/21
f 25/24/22 27/272/113 26/271/106
f 27/272/113 28/273/107 26/271/106
f 27/272/113 29/274/112 28/273/107
f 29/274/112 30/27/25 28/273/107
f 29/274/112 31/25/23 30/27/25
f 31/25/23 33/275/118 32/26/24
f 33/275/118 34/276/104 32/26/24
f 33/275/118 35/277/115 34/276/104
f 35/277/115 36/30/28 34/276/104
f 35/277/115 37/28/26 36/30/28
f 41/33/31 42/278/103 40/32/30
f 41/33/31 43/279/98 42/278/103
f 43/279/98 44/280/101 42/278/103
f 43/279/98 45/281/93 44/280/101
f 45/281/93 46/282/94 44/280/101
f 45/281/93 47/34/32 46/282/94
f 47/34/32 48/36/34 46/282/94
usemtl wood.010
f 58/44/42 60/45/43 62/46/44
f 65/47/45 66/48/46 64/49/47
f 68/50/48 61/51/49 59/52/50
f 69/53/51 66/54/46 67/55/52
f 67/55/52 70/56/53 69/53/51
f 58/44/42 57/49/120 59/283/50
f 59/283/50 60/45/43 58/44/42
f 59/283/50 61/98/49 60/45/43
f 64/49/47 63/44/72 65/47/45
f 65/47/45 67/284/52 66/48/46
f 58/44/42 63/55/72 64/285/47
f 64/285/47 57/286/120 58/44/42
f 59/52/50 69/53/51 68/50/48
f 69/53/51 59/52/50 66/54/46
usemtl metalMedium.006
f 71/57/54 58/44/42 62/47/44
f 62/47/44 72/58/55 71/57/54
f 62/47/44 73/59/56 72/58/55
f 62/47/44 75/60/57 74/61/58
f 62/47/44 76/62/59 75/60/57
f 62/47/44 77/63/60 76/62/59
f 62/47/44 78/64/61 77/63/60
f 81/65/48 84/66/62 83/67/63
f 86/68/64 65/69/45 91/70/65
f 65/69/45 92/71/66 91/70/65
f 65/69/45 93/72/67 92/71/66
f 65/69/45 97/73/68 96/74/69
f 65/69/45 98/75/70 97/73/68
f 99/76/71 65/69/45 63/55/72
f 102/77/73 101/78/74 63/55/72
f 104/79/75 103/80/76 63/55/72
f 107/81/77 106/82/78 63/55/72
f 113/83/79 112/84/80 63/55/72
f 113/83/79 63/55/72 58/44/42
f 58/44/42 114/85/81 113/83/79
f 58/44/42 115/86/82 114/85/81
f 58/44/42 116/87/83 115/86/82
f 58/44/42 117/88/84 116/87/83
f 58/44/42 119/89/85 118/90/86
f 58/44/42 120/91/87 119/89/85
f 58/44/42 121/92/88 120/91/87
f 58/44/42 122/93/89 121/92/88
f 58/44/42 123/94/90 122/93/89
f 58/44/42 124/95/91 123/94/90
f 125/65/48 68/96/48 69/97/51
f 86/46/64 126/45/53 69/98/51
f 69/98/51 70/99/53 86/46/64
f 62/47/44 74/61/58 73/59/56
f 62/47/44 79/287/111 78/64/61
f 62/47/44 80/288/116 79/287/111
f 62/47/44 81/65/48 80/288/116
f 71/57/54 82/289/110 58/44/42
f 81/65/48 83/67/63 80/288/116
f 81/65/48 85/290/136 84/66/62
f 81/65/48 86/68/64 85/290/136
f 86/68/64 87/291/117 85/290/136
f 86/68/64 88/292/114 87/291/117
f 86/68/64 89/293/97 88/292/114
f 86/68/64 90/294/96 89/293/97
f 86/68/64 91/70/65 90/294/96
f 65/69/45 94/295/92 93/72/67
f 65/69/45 95/296/95 94/295/92
f 65/69/45 96/74/69 95/296/95
f 65/69/45 99/76/71 98/75/70
f 100/297/99 99/76/71 63/55/72
f 101/78/74 100/297/99 63/55/72
f 103/80/76 102/77/73 63/55/72
f 105/298/100 104/79/75 63/55/72
f 106/82/78 105/298/100 63/55/72
f 108/299/102 107/81/77 63/55/72
f 109/300/109 108/299/102 63/55/72
f 110/301/105 109/300/109 63/55/72
f 111/302/108 110/301/105 63/55/72
f 112/84/80 111/302/108 63/55/72
f 58/44/42 118/90/86 117/88/84
f 58/44/42 82/289/110 124/95/91
f 69/97/51 126/68/53 125/65/48
f 86/56/64 81/101/48 125/50/48
f 125/50/48 126/53/53 86/56/64
usemtl metalDark.003
f 60/47/43 1/100/1 2/3/1
f 2/3/1 125/65/48 60/47/43
f 2/3/1 4/2/1 125/65/48
f 4/2/1 68/96/48 125/65/48
f 81/101/48 62/44/44 60/51/43
f 60/51/43 125/50/48 81/101/48
f 86/68/64 70/97/53 67/102/52
f 94/103/92 47/104/32 45/105/93
f 101/106/74 102/107/73 50/108/35
f 50/108/35 52/109/37 101/106/74
f 103/110/76 104/111/75 46/112/94
f 96/113/69 51/114/36 49/115/33
f 49/115/33 95/116/95 96/113/69
f 98/117/70 99/118/71 56/119/41
f 90/120/96 91/121/65 41/122/31
f 89/123/97 90/124/96 39/125/29
f 39/125/29 37/126/26 89/123/97
f 91/127/65 92/128/66 43/129/98
f 43/129/98 41/130/31 91/127/65
f 93/131/67 45/132/93 43/133/98
f 43/133/98 92/134/66 93/131/67
f 99/135/71 100/136/99 54/137/39
f 104/138/75 105/139/100 44/140/101
f 44/140/101 46/141/94 104/138/75
f 107/142/77 108/143/102 38/144/27
f 106/145/78 107/146/77 40/147/30
f 40/147/30 42/148/103 106/145/78
f 114/149/81 115/150/82 24/151/21
f 105/152/100 106/153/78 42/154/103
f 42/154/103 44/155/101 105/152/100
f 32/156/24 34/157/104 110/158/105
f 26/159/106 28/160/107 113/161/79
f 111/162/108 112/163/80 30/164/25
f 30/164/25 32/165/24 111/162/108
f 108/166/102 109/167/109 36/168/28
f 36/168/28 38/169/27 108/166/102
f 22/170/19 24/171/21 115/172/82
f 119/173/85 16/174/13 18/175/15
f 12/176/10 121/177/88 122/178/89
f 122/178/89 10/179/7 12/176/10
f 16/180/13 119/181/85 120/182/87
f 117/183/84 118/184/86 18/185/15
f 18/185/15 20/186/17 117/183/84
f 123/187/90 8/188/5 10/189/7
f 8/190/5 123/191/90 124/192/91
f 6/193/2 124/194/91 82/195/110
f 73/196/56 74/197/58 13/198/9
f 76/199/59 77/200/60 19/201/16
f 19/201/16 17/202/14 76/199/59
f 78/203/61 79/204/111 23/205/20
f 23/205/20 21/206/18 78/203/61
f 25/207/22 23/208/20 79/209/111
f 17/210/14 15/211/12 75/212/57
f 29/213/112 27/214/113 83/215/63
f 15/216/12 13/217/9 74/218/58
f 88/219/114 89/220/97 37/221/26
f 37/221/26 35/222/115 88/219/114
f 80/223/116 83/224/63 27/225/113
f 77/226/60 78/227/61 21/228/18
f 72/229/55 73/230/56 11/231/8
f 87/232/117 88/233/114 35/234/115
f 35/234/115 33/235/118 87/232/117
f 127/236/119 59/99/50 57/44/120
f 57/44/120 64/55/47 127/236/119
f 59/99/50 127/236/119 130/237/121
f 130/237/121 66/238/46 59/99/50
f 132/239/122 131/240/123 133/241/124
f 134/242/125 135/243/126 132/239/122
f 136/244/127 138/245/128 137/246/129
f 134/247/125 128/248/130 129/249/131
f 129/249/131 135/250/126 134/247/125
f 129/249/131 138/251/128 139/252/132
f 139/252/132 138/251/128 140/253/133
f 133/254/124 131/255/123 130/256/121
f 134/257/125 133/258/124 127/259/119
f 142/244/134 141/239/135 139/243/132
f 139/243/132 140/245/133 142/244/134
f 132/260/122 135/261/126 139/262/132
f 139/262/132 141/263/135 132/260/122
f 138/264/128 136/265/127 142/266/134
f 142/266/134 140/267/133 138/264/128
f 132/268/122 141/269/135 142/270/134
f 1/100/1 60/47/43 61/284/49
f 61/284/49 68/96/48 1/100/1
f 68/96/48 3/1/1 1/100/1
f 68/96/48 4/2/1 3/1/1
f 67/102/52 65/69/45 86/68/64
f 45/105/93 93/303/67 94/103/92
f 100/304/99 101/305/74 52/306/37
f 52/306/37 54/307/39 100/304/99
f 46/112/94 48/308/34 103/110/76
f 98/309/70 55/310/40 53/311/38
f 53/311/38 97/312/68 98/309/70
f 56/119/41 55/313/40 98/117/70
f 102/314/73 103/315/76 48/316/34
f 48/316/34 50/317/35 102/314/73
f 41/122/31 39/318/29 90/120/96
f 95/319/95 49/320/33 47/321/32
f 47/321/32 94/322/92 95/319/95
f 97/323/68 53/324/38 51/325/36
f 51/325/36 96/326/69 97/323/68
f 54/137/39 56/327/41 99/135/71
f 38/144/27 40/328/30 107/142/77
f 24/151/21 26/329/106 114/149/81
f 110/158/105 111/330/108 32/156/24
f 113/161/79 114/331/81 26/159/106
f 109/332/109 110/333/105 34/334/104
f 34/334/104 36/335/28 109/332/109
f 112/336/80 113/337/79 28/338/107
f 28/338/107 30/339/25 112/336/80
f 115/172/82 116/340/83 22/170/19
f 18/175/15 118/341/86 119/173/85
f 116/342/83 117/343/84 20/344/17
f 20/344/17 22/345/19 116/342/83
f 120/182/87 14/346/11 16/180/13
f 14/347/11 120/348/87 121/349/88
f 121/349/88 12/350/10 14/347/11
f 10/189/7 122/351/89 123/187/90
f 124/192/91 6/352/2 8/190/5
f 82/195/110 5/353/3 6/193/2
f 7/354/4 5/355/3 82/356/110
f 82/356/110 71/357/54 7/354/4
f 13/198/9 11/358/8 73/196/56
f 79/209/111 80/359/116 25/207/22
f 85/360/136 87/361/117 33/362/118
f 33/362/118 31/363/23 85/360/136
f 75/212/57 76/364/59 17/210/14
f 83/215/63 84/365/62 29/213/112
f 74/218/58 75/366/57 15/216/12
f 27/225/113 25/367/22 80/223/116
f 21/228/18 19/368/16 77/226/60
f 84/369/62 85/370/136 31/371/23
f 31/371/23 29/372/112 84/369/62
f 11/231/8 9/373/6 72/229/55
f 9/374/6 7/375/4 71/376/54
f 71/376/54 72/377/55 9/374/6
f 64/55/47 128/378/130 127/236/119
f 64/55/47 129/379/131 128/378/130
f 130/237/121 129/379/131 66/238/46
f 129/379/131 64/55/47 66/238/46
f 133/241/124 134/242/125 132/239/122
f 131/240/123 132/239/122 136/244/127
f 136/244/127 137/246/129 131/240/123
f 129/249/131 139/252/132 135/250/126
f 129/249/131 137/380/129 138/251/128
f 130/256/121 127/381/119 133/254/124
f 127/259/119 128/382/130 134/257/125
f 129/383/131 130/384/121 131/385/123
f 131/385/123 137/386/129 129/383/131
f 142/270/134 136/387/127 132/268/122
