# Blender 4.3.2
# www.blender.org
mtllib loungeSofaLong.mtl
o loungeSofaLong
v -0.889829 0.020000 -0.330000
v -0.889829 0.020000 -0.230000
v -0.889829 0.060000 -0.370000
v -0.889829 0.319829 -0.230000
v -0.889829 0.319829 -0.370000
v -0.055086 0.319829 -0.420000
v -0.055086 0.319829 -0.370000
v -0.055086 0.410000 -0.420000
v -0.055086 0.410000 -0.370000
v -0.924914 0.319829 -0.420000
v -0.884914 0.319829 -0.460000
v -0.924914 0.410000 -0.420000
v -0.884914 0.410000 -0.460000
v -0.980000 0.060000 -0.370000
v -0.924914 0.319829 -0.370000
v -0.924914 0.410000 -0.370000
v -0.980000 0.410000 -0.370000
v -0.980000 0.020000 -0.330000
v -0.095086 0.319829 -0.460000
v -0.095086 0.410000 -0.460000
v -0.980000 0.020000 -0.050000
v -0.980000 0.060000 -0.050000
v -0.980000 0.370000 -0.050000
v -0.980000 0.410000 -0.050000
v 0.000000 0.020000 -0.330000
v 0.000000 0.020000 -0.050000
v 0.000000 0.060000 -0.370000
v 0.000000 0.060000 -0.050000
v 0.000000 0.410000 -0.370000
v -0.000000 0.370000 -0.050000
v -0.000000 0.410000 -0.050000
v -0.040000 0.410000 -0.050000
v -0.940000 0.410000 -0.050000
v -0.040000 0.060000 -0.050000
v -0.040000 0.370000 -0.050000
v -0.040000 0.020000 -0.050000
v -0.490000 0.020000 -0.050000
v -0.889829 0.020000 -0.050000
v -0.940000 0.060000 -0.050000
v -0.940000 0.370000 -0.050000
v -0.940000 0.020000 -0.050000
v -0.490000 -0.350000 -0.050000
v -0.530000 -0.350000 -0.050000
v -0.530000 -0.390000 -0.050000
v -0.849828 -0.350000 -0.050000
v -0.889829 -0.350000 -0.050000
v -0.849828 -0.390000 -0.050000
v -0.470000 -0.410000 -0.230000
v -0.470000 0.000000 -0.230000
v -0.909828 -0.410000 -0.230000
v -0.909828 0.020000 -0.230000
v -0.090171 0.319829 -0.230000
v -0.090171 0.020000 -0.230000
v -0.090171 0.000000 -0.230000
v -0.490000 0.020000 -0.144814
v -0.090171 0.020000 -0.144814
v -0.090171 0.020000 -0.330000
v -0.090171 0.060000 -0.370000
v -0.090171 0.319829 -0.370000
v -0.909828 0.020000 -0.140000
v -0.889829 0.020000 -0.140000
v -0.490000 -0.390000 -0.140000
v -0.490000 -0.390000 -0.050000
v -0.490000 0.000000 -0.144814
v -0.889829 -0.390000 -0.050000
v -0.889829 -0.390000 -0.140000
v -0.470000 0.000000 -0.144814
v -0.090171 0.000000 -0.144814
v -0.470000 -0.410000 -0.140000
v -0.470000 -0.390000 -0.140000
v -0.909828 -0.410000 -0.140000
v -0.940000 0.410000 -0.000000
v -0.940000 0.370000 -0.000000
v -0.980000 0.410000 -0.000000
v -0.980000 0.370000 -0.000000
v -0.980000 0.020000 0.000000
v -0.940000 0.020000 0.000000
v -0.040000 0.370000 -0.000000
v -0.000000 0.370000 -0.000000
v -0.000000 0.410000 -0.000000
v 0.000000 0.060000 0.000000
v 0.000000 0.020000 0.000000
v -0.040000 0.060000 0.000000
v -0.040000 0.020000 0.000000
v -0.940000 0.060000 0.000000
v -0.980000 0.060000 0.000000
v -0.040000 0.410000 -0.000000
v -0.530000 -0.390000 0.000000
v -0.490000 -0.390000 0.000000
v -0.490000 -0.350000 0.000000
v -0.530000 -0.350000 0.000000
v -0.889829 -0.390000 0.000000
v -0.849828 -0.390000 0.000000
v -0.849828 -0.350000 0.000000
v -0.889829 -0.350000 0.000000
vn 0.3015 -0.3015 -0.9045
vn 0.6303 -0.7173 -0.2971
vn 0.6303 -0.2971 -0.7173
vn 0.5773 -0.5773 -0.5774
vn 0.3015 -0.9045 -0.3015
vn 0.7173 -0.6303 -0.2971
vn 0.7173 0.6303 -0.2971
vn 0.3015 0.9045 -0.3015
vn -0.2971 -0.6303 -0.7173
vn -0.7173 -0.6303 -0.2971
vn -0.7173 0.6303 -0.2971
vn -0.6303 -0.2971 -0.7173
vn -0.3015 -0.3015 -0.9045
vn -0.9045 -0.3015 0.3015
vn -0.7071 0.7071 -0.0000
vn -0.5774 0.5774 -0.5773
vn 0.5774 0.5773 -0.5773
vn 0.9045 0.3015 0.3015
vn 0.7071 0.7071 -0.0000
vn 0.9045 -0.3015 0.3015
vn -0.3015 0.9045 0.3015
vn 0.3015 0.9045 0.3015
vn -0.0000 1.0000 -0.0000
vn -0.5773 0.5774 -0.5773
vn 0.2971 0.6303 -0.7173
vn -0.2971 0.6303 -0.7173
vn -0.3015 -0.3015 0.9045
vn 0.3015 -0.3015 0.9045
vn -0.3015 -0.9045 0.3015
vn 0.5773 -0.5773 0.5774
vn -0.9045 0.3015 0.3015
vn 0.3015 0.3015 0.9045
vn 0.3015 -0.9045 0.3015
vn 0.5774 -0.5774 -0.5774
vn -0.5773 -0.5773 -0.5774
vn -0.0000 -0.7071 -0.7071
vn 0.7071 -0.7071 -0.0000
vn -0.6303 -0.7173 -0.2971
vn -0.3015 -0.9045 -0.3015
vn 0.2971 -0.6303 -0.7173
vn -0.5773 -0.5774 0.5774
vn 0.3040 -0.2979 0.9049
vn 0.7057 0.0044 0.7085
vn -0.5773 -0.5773 0.5774
vn 0.5774 0.5774 0.5774
vn -0.5773 0.5773 0.5774
vn -0.5774 -0.5774 0.5774
vn -0.7071 -0.7071 -0.0000
vn -0.3015 0.3015 0.9045
vn -0.0000 -0.0000 1.0000
vn -0.0000 -0.0000 -0.0000
vt -0.787402 9.055119
vt -0.787402 12.992130
vt -2.362205 14.566930
vt -12.591680 9.055119
vt -12.591680 14.566930
vt -12.591680 16.535431
vt -16.141729 16.535431
vt -16.141729 14.566930
vt 12.591680 -11.829120
vt 12.591680 -14.056230
vt 16.141729 -14.056230
vt 35.032619 12.591680
vt 35.032619 2.362205
vt 38.582680 2.362205
vt 36.413952 12.591680
vt 14.566930 1.968504
vt 16.141729 1.968504
vt 16.141729 14.566930
vt -2.362205 1.968504
vt -16.141729 1.968504
vt -14.566930 1.968504
vt -1.574803 1.968504
vt -0.000000 1.968504
vt -0.000000 14.566930
vt -37.007870 1.968504
vt -2.168729 14.566930
vt -38.582680 14.566930
vt -38.582680 1.968504
vt -36.413952 14.566930
vt -2.168729 16.535431
vt -36.413952 16.535431
vt -3.743532 18.110241
vt -34.839149 18.110241
vt -1.574803 14.566930
vt -19.291340 0.787402
vt -1.574803 0.787402
vt -37.007870 16.141729
vt -1.574803 16.141729
vt -37.007870 14.566930
vt -38.582680 2.362205
vt -37.007870 2.362205
vt -35.032619 0.787402
vt -37.007870 0.787402
vt -33.457821 -13.779530
vt -20.866140 -15.354330
vt 18.503941 0.000000
vt 18.503941 -16.141729
vt 35.820019 -16.141729
vt 35.032619 0.787402
vt 3.550057 12.591680
vt 3.550057 0.787402
vt 19.291340 5.701352
vt 0.000000 1.968504
vt 1.574803 1.968504
vt 3.550057 5.701352
vt 0.000000 12.992130
vt 3.550057 9.055119
vt 3.550057 12.992130
vt -0.000000 16.141729
vt -0.000000 2.362205
vt 3.550057 2.362205
vt 2.168729 12.591680
vt 2.168729 16.141729
vt 0.000000 9.743597
vt 3.550057 9.743597
vt 3.550057 11.970710
vt 0.000000 11.970710
vt 0.787402 12.992130
vt 0.787402 9.055119
vt 12.591680 9.055119
vt 2.362205 14.566930
vt 12.591680 14.566930
vt -12.591680 13.225840
vt -12.591680 15.452950
vt -16.141729 15.452950
vt 16.141729 16.535431
vt 12.591680 16.535431
vt 38.582680 12.992130
vt 35.820019 5.511811
vt 37.007870 1.968504
vt 35.032619 9.055119
vt 35.820019 9.055119
vt 35.032619 5.511811
vt 35.032619 1.968504
vt -13.779530 1.968504
vt 0.787402 1.968504
vt 0.787402 5.511811
vt 18.503941 5.701352
vt 18.503941 9.055119
vt 0.000000 9.055119
vt 0.000000 5.701352
vt 15.354330 5.511811
vt -16.141729 9.055119
vt -16.141729 5.511811
vt -18.503941 -15.285130
vt -18.503941 0.070375
vt -19.291340 0.070375
vt -35.032619 -15.354330
vt -35.820019 0.787402
vt -35.820019 -16.141729
vt -38.582680 16.141729
vt 37.007870 0.000000
vt 38.582680 0.000000
vt 38.582680 1.968504
vt -16.141729 0.000000
vt -14.566930 0.000000
vt 0.000000 0.000000
vt 1.574803 0.000000
vt 0.000000 0.787402
vt 0.000000 2.362205
vt -1.574803 2.362205
vt -0.787402 0.000000
vt -0.787402 1.968504
vt -2.362205 0.000000
vt -38.582680 0.000000
vt -1.574803 0.000000
vt 0.000000 0.000000
vt 0.787402 0.000000
vt 2.362205 0.000000
vt 2.362205 1.968504
vt -38.582680 0.787402
vt -1.574803 0.000000
vt -0.000000 0.000000
vt 14.566930 0.000000
vt 16.141729 0.000000
vt 1.574803 0.000000
vt 20.866140 1.968504
vt 19.291340 1.968504
vt 19.291340 0.000000
vt 13.779530 1.968504
vt 13.779530 0.000000
vt 15.354330 0.000000
vt -20.866140 -13.779530
vt -19.291340 -15.354330
vt -13.779530 0.000000
vt -15.354330 1.968504
vt 33.457821 0.000000
vt 35.032619 0.000000
vt 33.457821 1.968504
vt -33.457821 -15.354330
vt -35.032619 -13.779530
vt -15.354330 0.000000
vt 16.141729 -11.829120
vt 36.413952 16.141729
vt 38.582680 16.141729
vt 35.032619 9.743597
vt 38.582680 9.743597
vt 38.582680 11.970710
vt 35.032619 11.970710
vt 3.743532 16.141729
vt 3.743532 12.591680
vt 34.839149 12.591680
vt 34.839149 16.141729
vt -0.000000 2.362205
vt -0.000000 14.566930
vt -19.291340 -13.779530
vt 35.820019 0.787402
vt 3.550057 0.000000
vt -16.141729 13.225840
vt 35.032619 14.566930
vt 36.413952 14.566930
vt 36.413952 16.535431
vt 3.550057 14.566930
vt 2.168729 14.566930
vt 2.168729 16.535431
vt 34.839149 18.110241
vt 3.743532 18.110241
vt 35.032619 12.992130
vt 15.354330 1.968504
vt -0.787402 5.701352
vt 19.291340 5.511811
vt -15.354330 5.511811
vt 16.141729 5.511811
vt 16.141729 9.055119
vt 18.503941 5.511811
vt -3.550057 0.000000
vt -3.550057 0.787402
vt -18.503941 0.000000
vt -19.291340 0.000000
vt -19.291340 -15.285130
vt -18.503941 -16.141729
vt -18.503941 -15.354330
vt -38.582680 0.000000
vt -37.007870 0.000000
vt 14.566930 -0.000000
vt 16.141729 -0.000000
vt 37.007870 0.000000
vt 38.582680 0.000000
vt 0.000000 1.968504
vt -37.007870 0.000000
vt -0.000000 14.566930
vt -0.000000 16.141729
vt 20.866140 0.000000
vt -20.866140 0.000000
vt -19.291340 1.968504
vt -20.866140 1.968504
vt -35.032619 0.000000
vt -33.457821 0.000000
vt -33.457821 1.968504
vt -35.032619 1.968504
s 1
usemtl carpet.002
f 2/1/1 1/2/2 3/3/3
f 3/3/3 4/4/4 2/1/1
f 3/3/3 5/5/5 4/4/4
f 7/5/1 6/6/6 8/7/7
f 8/7/7 9/8/8 7/5/1
f 11/9/9 10/10/10 12/11/11
f 5/12/5 3/13/3 14/14/12
f 14/14/12 15/15/13 5/12/5
f 23/16/14 24/17/15 17/18/16
f 27/3/3 29/8/17 28/19/18
f 29/8/17 31/20/19 30/21/20
f 32/22/21 31/23/19 29/24/17
f 29/24/17 33/25/22 32/22/21
f 29/24/17 9/26/8 33/25/22
f 17/27/16 24/28/15 33/25/22
s 0
f 9/26/23 16/29/23 17/27/23
s 1
f 16/29/24 9/26/8 8/30/7
f 8/30/7 12/31/11 16/29/24
f 20/32/25 13/33/26 12/31/11
f 35/34/27 37/35/28 36/36/29
f 33/37/22 37/35/28 35/34/27
f 35/34/27 32/38/21 33/37/22
f 40/39/30 22/40/31 39/41/32
f 38/42/27 39/41/32 41/43/33
f 38/42/27 45/44/32 44/45/29
f 49/46/1 48/47/34 50/48/35
f 50/48/35 2/49/1 49/46/1
f 49/46/1 52/50/35 53/51/36
f 55/52/30 26/53/37 36/54/29
f 55/52/30 56/55/33 26/53/37
f 56/55/33 25/56/2 26/53/37
f 56/55/33 53/57/36 25/56/2
f 53/57/36 57/58/38 25/56/2
f 29/59/17 27/60/3 58/61/12
f 58/61/12 7/62/1 29/59/17
f 29/59/17 7/62/1 9/63/8
f 25/64/2 57/65/38 58/66/12
f 58/66/12 27/67/3 25/64/2
f 57/68/38 53/69/36 52/70/35
f 52/70/35 58/71/12 57/68/38
f 52/70/35 59/72/39 58/71/12
f 6/73/6 19/74/40 20/75/25
f 16/18/24 12/76/11 10/77/10
f 18/78/38 60/79/29 41/80/33
f 18/78/38 2/81/1 51/82/39
f 61/83/41 38/84/27 41/80/33
f 46/85/31 38/86/27 61/87/41
f 68/55/30 67/88/42 49/89/1
f 49/89/1 54/57/34 68/55/30
f 49/90/1 67/91/42 70/92/43
f 50/93/35 71/94/44 60/87/29
f 60/87/29 51/69/39 50/93/35
f 70/95/43 67/96/42 64/97/43
f 66/98/27 61/42/41 60/99/29
f 66/98/27 60/99/29 71/100/44
f 12/11/11 13/143/26 11/9/9
f 14/14/12 16/144/24 15/15/13
f 14/14/12 17/145/16 16/144/24
f 1/146/2 18/147/38 14/148/12
f 14/148/12 3/149/3 1/146/2
f 20/150/25 19/151/40 11/152/9
f 11/152/9 13/153/26 20/150/25
f 18/68/38 21/86/48 22/120/31
f 22/120/31 14/71/12 18/68/38
f 22/120/31 23/16/14 14/71/12
f 23/16/14 17/18/16 14/71/12
f 26/113/37 25/2/2 27/3/3
f 27/3/3 28/19/18 26/113/37
f 29/8/17 30/21/20 28/19/18
f 33/25/22 9/26/8 17/27/16
f 8/30/7 20/32/25 12/31/11
f 34/111/46 28/154/18 30/155/20
f 30/155/20 35/34/27 34/111/46
s 0
f 35/34/50 36/36/50 34/111/50
s 1
f 33/37/22 38/42/27 37/35/28
f 33/37/22 39/41/32 38/42/27
s 0
f 33/37/51 40/39/51 39/41/51
s 1
f 40/39/30 23/27/14 22/40/31
f 42/156/18 37/35/28 38/42/27
f 38/42/27 43/133/49 42/156/18
f 38/42/27 44/45/29 43/133/49
f 38/42/27 46/141/31 45/44/32
f 44/45/29 45/44/32 47/140/33
f 50/48/35 51/157/39 2/49/1
f 49/46/1 2/49/1 4/12/4
f 49/46/1 4/12/4 52/50/35
f 53/51/36 54/158/34 49/46/1
f 36/54/29 37/128/28 55/52/30
f 58/61/12 59/50/39 7/62/1
f 20/75/25 8/159/7 6/73/6
f 5/160/5 15/161/13 10/162/10
f 10/162/10 59/163/39 5/160/5
f 10/162/10 7/164/1 59/163/39
f 10/162/10 6/165/6 7/164/1
f 10/162/10 11/166/9 6/165/6
f 11/166/9 19/167/40 6/165/6
f 5/160/5 59/163/39 52/57/35
f 52/57/35 4/81/4 5/160/5
f 10/77/10 15/72/13 16/18/24
f 41/80/33 21/104/48 18/78/38
f 18/78/38 51/82/39 60/79/29
f 18/78/38 1/168/2 2/81/1
f 41/80/33 60/79/29 61/83/41
f 63/169/37 62/92/42 64/91/43
f 64/91/43 42/130/18 63/169/37
f 64/91/43 37/113/28 42/130/18
f 64/91/43 55/170/30 37/113/28
f 47/139/33 65/84/48 66/83/27
f 66/83/27 44/127/29 47/139/33
f 66/83/27 63/128/37 44/127/29
f 66/83/27 62/171/42 63/128/37
f 66/172/27 65/136/48 46/85/31
f 46/85/31 61/87/41 66/172/27
f 68/91/30 54/90/34 53/1/36
f 53/1/36 56/170/33 68/91/30
f 69/173/30 48/174/34 49/90/1
f 49/90/1 70/92/43 69/173/30
f 69/175/30 71/79/44 50/82/35
f 50/82/35 48/89/34 69/175/30
f 68/176/30 56/177/33 55/35/30
f 55/35/30 67/178/42 68/176/30
f 55/35/30 64/179/43 67/178/42
f 64/97/43 62/180/42 70/95/43
f 62/134/42 66/98/27 71/100/44
f 62/134/42 71/100/44 69/181/30
f 69/181/30 70/182/43 62/134/42
usemtl wood.007
f 73/39/30 72/37/45 74/101/46
f 74/101/46 75/27/47 73/39/30
f 73/102/30 75/103/47 23/104/14
f 23/104/14 40/80/30 73/102/30
f 33/20/22 72/105/45 73/106/30
f 79/107/30 78/108/47 35/54/27
f 82/109/30 81/110/45 83/111/46
f 83/111/46 84/36/47 82/109/30
f 77/112/30 41/113/33 39/19/32
f 39/19/32 85/114/45 77/112/30
f 82/112/30 26/113/37 28/19/18
f 39/25/32 22/28/31 86/115/46
f 83/116/46 81/117/45 28/53/18
f 28/53/18 34/22/46 83/116/46
f 36/86/29 84/118/47 83/119/46
f 83/119/46 34/120/46 36/86/29
f 21/86/48 76/118/47 86/119/46
f 86/119/46 22/120/31 21/86/48
f 77/43/30 85/41/45 86/40/46
f 86/40/46 76/121/47 77/43/30
f 87/122/46 80/123/45 31/23/19
f 35/16/27 78/124/47 87/125/46
f 87/125/46 32/17/21 35/16/27
f 82/117/30 84/126/47 36/54/29
f 36/54/29 26/53/37 82/117/30
f 44/127/29 63/128/37 89/129/30
f 42/130/18 90/131/45 89/132/30
f 91/133/46 88/45/47 89/134/30
f 91/135/46 43/85/49 44/136/29
f 93/137/30 92/138/47 65/84/48
f 65/84/48 47/139/33 93/137/30
f 93/140/30 94/44/45 95/141/46
f 95/141/46 92/98/47 93/140/30
f 65/136/48 92/142/47 95/135/46
f 95/135/46 46/85/31 65/136/48
f 74/183/46 72/184/45 33/25/22
f 33/25/22 24/28/15 74/183/46
f 23/16/14 75/185/47 74/186/46
f 74/186/46 24/17/15 23/16/14
f 73/106/30 40/21/30 33/20/22
f 77/187/30 76/188/47 21/104/48
f 21/104/48 41/80/33 77/187/30
f 35/54/27 30/189/20 79/107/30
f 79/106/30 30/21/20 31/20/19
f 31/20/19 80/105/45 79/106/30
f 28/19/18 81/114/45 82/112/30
f 86/115/46 85/190/45 39/25/32
f 31/23/19 32/22/21 87/122/46
f 79/191/30 80/192/45 87/38/46
f 87/38/46 78/34/47 79/191/30
f 89/129/30 88/193/47 44/127/29
f 89/132/30 63/169/37 42/130/18
f 89/134/30 90/156/45 91/133/46
f 91/194/46 90/179/45 42/195/18
f 42/195/18 43/196/49 91/194/46
f 44/136/29 88/142/47 91/135/46
f 93/132/30 47/169/33 45/130/32
f 45/130/32 94/131/45 93/132/30
f 95/197/46 94/198/45 45/199/32
f 45/199/32 46/200/31 95/197/46
