# Blender 4.3.2
# www.blender.org
mtllib wall.116.mtl
o wall.116
v 7.500000 0.300000 -10.000000
v 7.500000 -0.300000 -10.000000
v 7.500000 0.300000 -10.150000
v 6.500000 -0.300000 -10.000000
v 6.500000 0.300000 -10.000000
v 6.500000 0.300000 -10.150000
v 6.500000 0.250000 -10.200000
v 6.500000 0.250000 -10.600000
v 7.500000 0.250000 -10.200000
v 7.500000 0.250000 -10.600000
v 7.500000 0.250000 -11.000000
v 7.500000 -0.250000 -10.200000
v 7.500000 -0.250000 -11.000000
v 6.500000 0.250000 -11.000000
v 6.500000 -0.250000 -11.000000
v 6.500000 -0.250000 -10.200000
v 6.500000 -0.300000 -10.150000
v 7.500000 -0.300000 -10.150000
vn 0.5774 0.5773 0.5773
vn -0.5773 -0.5774 0.5774
vn 0.5773 -0.5774 0.5774
vn 0.6599 0.7511 0.0199
vn -0.6576 0.4675 -0.5908
vn -0.5773 0.5774 0.5774
vn -0.8042 0.5491 -0.2275
vn -0.7071 0.7071 -0.0000
vn 0.7071 0.7071 -0.0000
vn 0.8042 0.5491 -0.2275
vn 0.5774 0.5773 -0.5774
vn 0.8042 -0.5491 -0.2275
vn 0.5774 -0.5774 -0.5773
vn -0.5773 0.5774 -0.5773
vn -0.5773 -0.5774 -0.5773
vn -0.8042 -0.5491 -0.2275
vn -0.6552 -0.4417 -0.6129
vn 0.6597 -0.5087 -0.5531
vt 0.218750 0.025000
vt 0.093750 0.025000
vt 0.093750 0.055000
vt 0.218750 0.175000
vt 0.218750 0.225000
vt 0.093750 0.065000
vt 0.093750 0.145000
vt 0.218750 0.275000
vt 0.218750 0.475000
vt 0.093750 0.225000
vt 0.218750 0.145000
vt 0.218750 0.065000
vt 0.468750 0.225000
vt 0.468750 0.175000
vt 0.468750 0.025000
s 1
usemtl colormap.023
f 1/1/1 4/1/2 2/1/3
f 2/2/3 3/3/4 1/2/1
f 6/4/5 1/1/1 3/4/4
f 4/1/2 1/1/1 5/1/6
f 1/1/1 6/4/5 5/1/6
f 3/4/4 7/5/7 6/4/5
f 7/6/7 5/2/6 6/3/5
f 5/2/6 7/6/7 4/2/2
f 4/2/2 7/6/7 8/7/8
f 7/8/7 10/9/9 8/9/8
f 7/5/7 3/4/4 9/5/10
f 10/9/9 7/8/7 9/8/10
f 9/6/10 2/2/3 10/7/9
f 10/7/9 2/2/3 11/10/11
f 11/5/11 8/11/8 10/11/9
f 11/10/11 2/2/3 12/6/12
f 13/10/13 11/10/11 12/6/12
f 13/10/13 14/10/14 11/10/11
f 8/11/8 11/5/11 14/5/14
f 15/10/15 16/6/16 14/10/14
f 14/10/14 13/10/13 15/10/15
f 4/2/2 14/10/14 16/6/16
f 4/2/2 8/7/8 14/10/14
f 15/5/15 12/12/12 16/12/16
f 4/2/2 16/6/16 17/3/17
f 12/13/12 17/14/17 16/13/16
f 17/14/17 2/15/3 4/15/2
f 2/15/3 17/14/17 18/14/18
f 17/14/17 12/13/12 18/14/18
f 12/6/12 2/2/3 18/3/18
f 12/12/12 15/5/15 13/5/13
f 3/3/4 2/2/3 9/6/10
