# Blender 4.3.2
# www.blender.org
mtllib washerDryerStacked.mtl
o washerDryerStacked
v -0.390000 0.000000 -0.388997
v -0.390000 0.019195 -0.470000
v -0.390000 0.042511 -0.470000
v 0.000000 0.019195 -0.470000
v 0.000000 0.000000 -0.388997
v 0.000000 0.042511 -0.470000
v -0.373066 0.003905 -0.405475
v -0.373066 0.015291 -0.453522
v -0.249199 0.015291 -0.453522
v -0.232265 0.015291 -0.453522
v -0.016934 0.015291 -0.453522
v -0.016934 0.003905 -0.405475
v -0.249199 0.003905 -0.405475
v -0.232265 0.003905 -0.405475
v -0.195000 0.270000 -0.095775
v -0.161353 0.270000 -0.100204
v -0.228647 0.270000 -0.100204
v -0.130000 0.270000 -0.113192
v -0.260000 0.270000 -0.113192
v -0.103076 0.270000 -0.133851
v -0.286924 0.270000 -0.133851
v -0.082417 0.270000 -0.160775
v -0.307583 0.270000 -0.160775
v -0.069430 0.270000 -0.192128
v -0.320570 0.270000 -0.192128
v -0.065000 0.270000 -0.225775
v -0.325000 0.270000 -0.225775
v -0.320570 0.270000 -0.259421
v -0.069430 0.270000 -0.259421
v -0.082417 0.270000 -0.290775
v -0.307583 0.270000 -0.290775
v -0.103076 0.270000 -0.317699
v -0.286924 0.270000 -0.317699
v -0.130000 0.270000 -0.338358
v -0.260000 0.270000 -0.338358
v -0.228647 0.270000 -0.351345
v -0.161353 0.270000 -0.351345
v -0.195000 0.270000 -0.355775
v -0.286924 0.000000 -0.317699
v -0.307583 0.000000 -0.290775
v -0.260000 0.000000 -0.338358
v -0.228647 0.000000 -0.351345
v -0.195000 0.000000 -0.355775
v -0.161353 0.000000 -0.351345
v -0.130000 0.000000 -0.338358
v -0.103076 0.000000 -0.317699
v -0.082417 0.000000 -0.290775
v -0.069430 0.000000 -0.259421
v -0.065000 0.000000 -0.225775
v -0.069430 0.000000 -0.192128
v -0.082417 0.000000 -0.160775
v -0.103076 0.000000 -0.133851
v -0.130000 0.000000 -0.113192
v -0.161353 0.000000 -0.100204
v -0.195000 0.000000 -0.095775
v -0.228647 0.000000 -0.100204
v -0.260000 0.000000 -0.113192
v -0.286924 0.000000 -0.133851
v -0.307583 0.000000 -0.160775
v -0.320570 0.000000 -0.192128
v -0.325000 0.000000 -0.225775
v -0.320570 0.000000 -0.259421
v 0.000000 0.019195 -0.940000
v 0.000000 0.042511 -0.940000
v -0.390000 0.019195 -0.940000
v -0.390000 0.042511 -0.940000
v -0.390000 0.000000 -0.858997
v -0.286924 0.000000 -0.787699
v -0.307583 0.000000 -0.760775
v -0.286924 0.270000 -0.787699
v -0.307583 0.270000 -0.760775
v -0.228647 0.270000 -0.821345
v -0.228647 0.000000 -0.821345
v -0.260000 0.270000 -0.808358
v -0.260000 0.000000 -0.808358
v -0.195000 0.270000 -0.825775
v -0.195000 0.000000 -0.825775
v -0.161353 0.270000 -0.821345
v -0.161353 0.000000 -0.821345
v -0.130000 0.270000 -0.808358
v -0.130000 0.000000 -0.808358
v -0.082417 0.000000 -0.760775
v -0.103076 0.000000 -0.787699
v -0.082417 0.270000 -0.760775
v -0.103076 0.270000 -0.787699
v -0.065000 0.000000 -0.695775
v -0.069430 0.000000 -0.729421
v -0.065000 0.270000 -0.695775
v -0.069430 0.270000 -0.729421
v -0.195000 0.270000 -0.565775
v -0.161353 0.270000 -0.570204
v -0.228647 0.270000 -0.570204
v -0.130000 0.270000 -0.583192
v -0.260000 0.270000 -0.583192
v -0.286924 0.270000 -0.603851
v -0.103076 0.270000 -0.603851
v -0.307583 0.270000 -0.630775
v -0.082417 0.270000 -0.630775
v -0.069430 0.270000 -0.662128
v -0.320570 0.270000 -0.662128
v -0.325000 0.270000 -0.695775
v -0.320570 0.270000 -0.729421
v -0.069430 0.000000 -0.662128
v -0.082417 0.000000 -0.630775
v -0.103076 0.000000 -0.603851
v 0.000000 0.000000 -0.858997
v -0.130000 0.000000 -0.583192
v -0.161353 0.000000 -0.570204
v -0.307583 0.000000 -0.630775
v -0.286924 0.000000 -0.603851
v -0.320570 0.000000 -0.662128
v -0.320570 0.000000 -0.729421
v -0.325000 0.000000 -0.695775
v -0.228647 0.000000 -0.570204
v -0.260000 0.000000 -0.583192
v -0.195000 0.000000 -0.565775
v -0.373066 0.003905 -0.875475
v -0.373066 0.015291 -0.923522
v -0.249199 0.015291 -0.923522
v -0.066312 0.015291 -0.923522
v -0.016934 0.015291 -0.923522
v -0.016934 0.003905 -0.875475
v -0.249199 0.003905 -0.875475
v -0.066312 0.003905 -0.875475
v -0.243779 0.004323 -0.877238
v -0.238904 0.005011 -0.880142
v -0.234827 0.005934 -0.884040
v -0.231755 0.007046 -0.888730
v -0.229847 0.008288 -0.893973
v -0.229199 0.009598 -0.899498
v -0.229847 0.010907 -0.905024
v -0.231755 0.012149 -0.910267
v -0.234827 0.013261 -0.914957
v -0.238904 0.014184 -0.918854
v -0.243779 0.014873 -0.921759
v -0.092690 0.000000 -0.123545
v -0.092690 0.000000 -0.083545
v -0.022690 0.000000 -0.123545
v 0.000000 0.000000 -0.062553
v -0.390000 0.000000 -0.062553
v -0.022690 0.000000 -0.083545
v -0.390000 0.020000 0.000000
v 0.000000 0.020000 0.000000
v -0.390000 0.020000 -0.062553
v 0.000000 0.020000 -0.062553
v 0.000000 0.350000 0.000000
v -0.390000 0.350000 0.000000
v -0.092690 0.010000 -0.083545
v -0.022690 0.010000 -0.083545
v -0.092690 0.010000 -0.123545
v -0.022690 0.010000 -0.123545
v -0.073318 0.330000 -0.078918
v -0.316682 0.330000 -0.078918
v -0.073318 0.330000 -0.391082
v -0.316682 0.330000 -0.391082
v -0.053509 0.350000 -0.053509
v -0.336491 0.350000 -0.053509
v -0.053509 0.350000 -0.416491
v -0.336491 0.350000 -0.416491
v 0.000000 0.000000 -0.542553
v -0.390000 0.000000 -0.542553
v -0.390000 0.020000 -0.489162
v 0.000000 0.020000 -0.489162
v -0.390000 0.020000 -0.532553
v 0.000000 0.020000 -0.532553
v 0.000000 0.010000 -0.532553
v -0.390000 0.010000 -0.532553
v 0.000000 0.350000 -0.940000
v -0.053509 0.350000 -0.523509
v -0.053509 0.350000 -0.886491
v -0.336491 0.350000 -0.886491
v -0.390000 0.350000 -0.940000
v -0.336491 0.350000 -0.523509
v -0.073318 0.330000 -0.861082
v -0.316682 0.330000 -0.861082
v -0.316682 0.330000 -0.548917
v -0.073318 0.330000 -0.548917
v 0.000000 0.009195 -0.470000
v 0.000000 0.009195 -0.489162
v -0.390000 0.009195 -0.470000
v -0.390000 0.009195 -0.489162
v -0.289919 -0.020000 -0.744390
v -0.325000 -0.020000 -0.744390
v -0.325000 -0.030000 -0.744390
v -0.335000 -0.030000 -0.744390
v -0.325000 0.000000 -0.744390
v -0.335000 0.000000 -0.744390
v -0.065000 -0.020000 -0.825775
v -0.065000 0.000000 -0.825775
v -0.325000 -0.020000 -0.825775
v -0.325000 0.000000 -0.825775
v -0.065000 -0.020000 -0.565775
v -0.065000 0.000000 -0.565775
v -0.325000 0.000000 -0.647160
v -0.287738 0.000000 -0.603037
v -0.325000 0.000000 -0.565775
v -0.102262 0.000000 -0.603037
v -0.287738 0.000000 -0.647160
v -0.287738 0.000000 -0.655996
v -0.335000 0.000000 -0.655996
v -0.335000 0.000000 -0.647160
v -0.325000 0.000000 -0.655996
v -0.287738 0.000000 -0.735554
v -0.325000 0.000000 -0.735554
v -0.102262 0.000000 -0.788513
v -0.287738 0.000000 -0.788513
v -0.335000 0.000000 -0.735554
v -0.287738 0.000000 -0.744390
v -0.325000 -0.021164 -0.655996
v -0.335000 -0.021164 -0.655996
v -0.335000 -0.030000 -0.647160
v -0.335000 -0.021164 -0.735554
v -0.325000 -0.030000 -0.647160
v -0.289919 -0.020000 -0.647160
v -0.325000 -0.020000 -0.565775
v -0.325000 -0.020000 -0.647160
v -0.325000 -0.021164 -0.735554
v -0.115246 0.040000 -0.616020
v -0.274754 0.040000 -0.616020
v -0.115246 0.040000 -0.775529
v -0.274754 0.040000 -0.653966
v -0.274754 0.040000 -0.661565
v -0.274754 0.040000 -0.729985
v -0.274754 0.040000 -0.737584
v -0.274754 0.040000 -0.775529
v -0.172959 0.020000 -0.308034
v -0.195000 0.020000 -0.310936
v -0.172959 -0.030000 -0.308034
v -0.195000 -0.030000 -0.310936
v -0.152419 0.020000 -0.299527
v -0.152419 -0.030000 -0.299527
v -0.277259 -0.040000 -0.203733
v -0.277259 -0.040000 -0.247816
v -0.297259 -0.030000 -0.203733
v -0.297259 -0.030000 -0.247816
v -0.217041 0.020000 -0.308034
v -0.217041 -0.030000 -0.308034
v -0.268752 0.020000 -0.268355
v -0.268752 -0.030000 -0.268355
v -0.255218 0.020000 -0.285993
v -0.255218 -0.030000 -0.285993
v -0.237581 0.020000 -0.299527
v -0.237581 -0.030000 -0.299527
v -0.260000 -0.010000 -0.113192
v -0.228647 -0.010000 -0.100204
v -0.252200 -0.030000 -0.126702
v -0.224609 -0.030000 -0.115273
v -0.130000 -0.010000 -0.338358
v -0.161353 -0.010000 -0.351345
v -0.137800 -0.030000 -0.324848
v -0.165391 -0.030000 -0.336277
v -0.260000 -0.010000 -0.338358
v -0.286924 -0.010000 -0.317699
v -0.252200 -0.030000 -0.324848
v -0.275893 -0.030000 -0.306668
v -0.305502 -0.030000 -0.255384
v -0.294073 -0.030000 -0.282975
v -0.320570 -0.010000 -0.259421
v -0.307583 -0.010000 -0.290775
v -0.195000 -0.010000 -0.355775
v -0.228647 -0.010000 -0.351345
v -0.195000 -0.030000 -0.340175
v -0.224609 -0.030000 -0.336277
v -0.195000 -0.010000 -0.095775
v -0.161353 -0.010000 -0.100204
v -0.195000 -0.030000 -0.111375
v -0.165391 -0.030000 -0.115273
v -0.084498 -0.030000 -0.255384
v -0.069430 -0.010000 -0.259421
v -0.095927 -0.030000 -0.282975
v -0.082417 -0.010000 -0.290775
v -0.286924 -0.010000 -0.133851
v -0.275893 -0.030000 -0.144882
v -0.307583 -0.010000 -0.160775
v -0.294073 -0.030000 -0.168575
v -0.240161 -0.030000 -0.203733
v -0.277259 -0.030000 -0.203733
v -0.240161 -0.040000 -0.203733
v -0.240161 -0.030000 -0.247816
v -0.240161 -0.040000 -0.247816
v -0.103076 -0.010000 -0.133851
v -0.082417 -0.010000 -0.160775
v -0.114107 -0.030000 -0.144882
v -0.095927 -0.030000 -0.168575
v -0.320570 -0.010000 -0.192128
v -0.305502 -0.030000 -0.196166
v -0.255218 0.020000 -0.165557
v -0.237581 0.020000 -0.152023
v -0.255218 -0.030000 -0.165557
v -0.237581 -0.030000 -0.152023
v -0.134782 0.020000 -0.285993
v -0.134782 -0.030000 -0.285993
v -0.172959 0.020000 -0.143515
v -0.152419 0.020000 -0.152023
v -0.172959 -0.030000 -0.143515
v -0.152419 -0.030000 -0.152023
v -0.121248 -0.030000 -0.183194
v -0.121248 0.020000 -0.183194
v -0.112741 -0.030000 -0.203733
v -0.112741 0.020000 -0.203734
v -0.309400 -0.030000 -0.225775
v -0.325000 -0.010000 -0.225775
v -0.112741 -0.030000 -0.247816
v -0.112741 0.020000 -0.247816
v -0.121248 -0.030000 -0.268355
v -0.121248 0.020000 -0.268355
v -0.109839 -0.030000 -0.225775
v -0.109839 0.020000 -0.225775
v -0.069430 -0.010000 -0.192128
v -0.084498 -0.030000 -0.196166
v -0.268752 0.020000 -0.183194
v -0.268752 -0.030000 -0.183194
v -0.277259 0.020000 -0.203734
v -0.134782 -0.030000 -0.165557
v -0.134782 0.020000 -0.165557
v -0.080600 -0.030000 -0.225775
v -0.137800 -0.030000 -0.126702
v -0.195000 -0.030000 -0.140614
v -0.217041 -0.030000 -0.143515
v -0.277259 -0.030000 -0.247816
v -0.114107 -0.030000 -0.306668
v -0.065000 -0.010000 -0.225775
v -0.217041 0.020000 -0.143515
v -0.195000 0.020000 -0.140614
v -0.103076 -0.010000 -0.317699
v -0.130000 -0.010000 -0.113192
v -0.277259 0.020000 -0.247816
v -0.065000 0.020000 -0.225775
v -0.069430 0.020000 -0.192128
v -0.069430 0.020000 -0.259421
v -0.082417 0.020000 -0.290775
v -0.082417 0.020000 -0.160775
v -0.103076 0.020000 -0.317699
v -0.103076 0.020000 -0.133851
v -0.130000 0.020000 -0.338358
v -0.161353 0.020000 -0.351345
v -0.195000 0.020000 -0.355775
v -0.228647 0.020000 -0.351345
v -0.260000 0.020000 -0.338358
v -0.286924 0.020000 -0.317699
v -0.286924 0.020000 -0.133851
v -0.260000 0.020000 -0.113192
v -0.228647 0.020000 -0.100204
v -0.195000 0.020000 -0.095775
v -0.161353 0.020000 -0.100204
v -0.130000 0.020000 -0.113192
v -0.307583 0.020000 -0.290775
v -0.307583 0.020000 -0.160775
v -0.320570 0.020000 -0.259421
v -0.320570 0.020000 -0.192128
v -0.325000 0.020000 -0.225775
vn -0.0000 -0.9731 -0.2306
vn 0.6819 -0.7265 -0.0849
vn -0.6819 -0.7265 -0.0849
vn -0.7541 -0.6391 -0.1514
vn -0.0000 -0.9731 -0.2305
vn -0.2470 -0.6613 -0.7083
vn -0.0642 -0.6539 -0.7539
vn 0.2377 -0.6804 -0.6932
vn -0.4123 -0.6662 -0.6214
vn 0.4099 -0.6736 -0.6150
vn 0.5328 -0.6927 -0.4861
vn -0.6696 -0.6528 -0.3542
vn -0.5623 -0.6568 -0.5024
vn 0.6587 -0.6762 -0.3300
vn -0.7375 -0.6537 -0.1696
vn 0.7295 -0.6663 -0.1548
vn -0.7504 -0.6605 0.0249
vn 0.7539 -0.6555 0.0437
vn 0.7249 -0.6555 0.2117
vn -0.6415 -0.6533 0.4021
vn -0.7299 -0.6688 0.1415
vn 0.6592 -0.6456 0.3855
vn -0.5307 -0.6510 0.5428
vn 0.5623 -0.6568 0.5024
vn -0.3365 -0.6692 0.6625
vn 0.4180 -0.6514 0.6332
vn 0.2364 -0.6596 0.7134
vn -0.1402 -0.6613 0.7369
vn 0.0642 -0.6539 0.7539
vn 0.6618 -0.6753 0.3256
vn 0.4195 -0.7354 0.5322
vn 0.3459 -0.6705 0.6564
vn 0.1645 -0.6721 0.7219
vn -0.0188 -0.6850 0.7283
vn -0.2710 -0.7087 0.6514
vn -0.5476 -0.6567 0.5186
vn -0.6129 -0.6753 0.4103
vn -0.7096 -0.6964 0.1072
vn -0.7124 -0.6974 -0.0783
vn -0.6747 -0.6980 -0.2400
vn -0.5773 -0.6952 -0.4283
vn -0.4430 -0.7225 -0.5309
vn -0.4251 -0.7100 -0.5614
vn -0.1568 -0.6878 -0.7087
vn 0.0317 -0.6883 -0.7248
vn 0.2184 -0.6880 -0.6921
vn 0.4072 -0.6750 -0.6153
vn 0.5476 -0.6567 -0.5186
vn 0.6592 -0.6955 -0.2861
vn 0.7041 -0.6982 -0.1298
vn 0.7124 -0.6974 0.0783
vn 0.6681 -0.6964 0.2620
vn 0.7071 -0.0000 -0.7071
vn 0.5906 -0.5005 -0.6330
vn -0.5906 -0.5005 -0.6330
vn -0.7071 -0.0000 -0.7071
vn 0.1931 -0.7139 0.6731
vn 0.2668 -0.7095 0.6523
vn -0.0318 -0.6881 0.7249
vn -0.3955 -0.6705 0.6277
vn -0.4041 -0.6755 0.6168
vn -0.1545 -0.7168 0.6800
vn -0.0951 -0.7095 0.6983
vn -0.3993 -0.7254 0.5607
vn -0.6592 -0.6955 0.2861
vn -0.6016 -0.7041 0.3771
vn -0.6973 -0.6767 0.2365
vn -0.7132 -0.7007 0.0172
vn -0.6767 -0.7004 0.2269
vn -0.4055 -0.6692 -0.6227
vn 0.5292 -0.6961 -0.4852
vn -0.5560 -0.6747 -0.4854
vn 0.6601 -0.6695 -0.3408
vn -0.6591 -0.6390 -0.3965
vn 0.7331 -0.6612 -0.1595
vn 0.7646 -0.6439 -0.0265
vn 0.4203 -0.6618 0.6208
vn -0.7071 -0.6935 -0.1383
vn -0.5773 -0.6954 -0.4280
vn -0.4196 -0.7354 -0.5321
vn -0.3564 -0.6689 -0.6523
vn -0.1479 -0.6768 -0.7212
vn 0.0954 -0.7096 -0.6981
vn 0.4070 -0.6752 -0.6152
vn -0.0721 -0.7182 -0.6921
vn 0.5340 -0.6555 -0.5340
vn 0.3265 -0.7157 -0.6174
vn 0.3015 -0.9045 0.3015
vn 0.3015 -0.9045 -0.3015
vn 0.5774 -0.5773 0.5774
vn -0.5774 -0.5773 0.5774
vn -0.3015 -0.9045 -0.3015
vn -0.3015 -0.9045 0.3015
vn -0.2614 -0.7471 0.6112
vn 0.5773 -0.5773 0.5774
vn -0.5774 -0.5774 0.5774
vn -0.9045 -0.3015 0.3015
vn 0.9045 -0.3015 0.3015
vn -0.5773 0.5774 0.5774
vn 0.5773 -0.5774 0.5774
vn -0.5773 -0.5774 -0.5774
vn 0.3094 0.9181 -0.2478
vn -0.3094 0.9181 -0.2478
vn -0.3094 0.9181 0.2478
vn 0.3094 0.9181 0.2478
vn 0.0964 0.9901 -0.1025
vn -0.0964 0.9901 -0.1025
vn -0.6303 -0.7173 0.2971
vn 0.5656 -0.7854 -0.2516
vn 0.6291 -0.7700 -0.1060
vn 0.6184 -0.7834 0.0620
vn 0.6303 -0.7173 0.2971
vn 0.6303 -0.2971 0.7173
vn 0.5773 0.5774 0.5773
vn 0.5773 0.5773 -0.5774
vn -0.0964 0.9901 0.1025
vn 0.0964 0.9901 0.1025
vn -0.5773 0.5774 -0.5773
vn 0.9045 -0.3015 -0.3015
vn 1.0000 -0.0000 -0.0000
vn 0.8944 -0.0000 0.4472
vn -0.8944 -0.0000 0.4472
vn -1.0000 -0.0000 -0.0000
vn -0.6303 -0.2971 0.7173
vn 0.5774 -0.5774 -0.5774
vn -0.9045 -0.3015 -0.3015
vn 0.7541 -0.6391 -0.1514
vn 0.4881 -0.7151 0.5004
vn 0.4286 -0.7087 0.5603
vn -0.0000 -0.0000 -1.0000
vn -0.0000 1.0000 -0.0000
vn 0.2741 -0.9617 -0.0000
vn -0.0000 -1.0000 -0.0000
vn -0.0000 -0.0000 1.0000
vn -0.0000 -0.0000 -0.0000
vn -0.9512 0.3087 -0.0000
vn -0.0000 0.3087 -0.9511
vn -0.0000 0.3087 -0.9512
vn 0.9512 0.3087 -0.0000
vn -0.0000 0.3087 0.9512
vn 0.0469 -0.7400 -0.6710
vn 0.2795 -0.4550 -0.8455
vn 0.2809 -0.1346 -0.9503
vn 0.0184 -0.1215 -0.9924
vn 0.5000 -0.0000 -0.8660
vn 0.4999 0.0034 -0.8661
vn -0.1728 -0.7321 -0.6589
vn -0.2298 -0.9732 -0.0000
vn -0.4472 -0.8944 -0.0000
vn -0.4289 -0.8578 -0.2830
vn -0.0651 -0.9539 -0.2931
vn 0.3476 0.1251 0.9293
vn 0.3741 0.0253 0.9271
vn 0.9007 0.0924 0.4246
vn 0.3985 0.8941 0.2042
vn 0.6364 0.7204 0.2757
vn 0.7071 -0.0000 0.7071
vn -0.7071 -0.0034 -0.7072
vn -0.5000 -0.0000 -0.8660
vn -0.5001 0.0034 -0.8660
vn -0.3942 -0.6150 0.6829
vn -0.2041 -0.6150 0.7616
vn 0.4622 0.1404 -0.8756
vn 0.2502 0.9073 -0.3378
vn 0.5574 0.3118 -0.7695
vn -0.2034 0.6375 0.7431
vn -0.2675 0.6897 0.6729
vn -0.3942 0.6150 0.6829
vn -0.2041 0.6150 0.7616
vn 0.6646 0.5013 0.5541
vn 0.1766 0.9583 0.2246
vn 0.3943 0.6150 0.6828
vn 0.3876 0.8004 0.4573
vn -0.6829 -0.6150 -0.3942
vn -0.6908 -0.6963 -0.1949
vn -0.8774 -0.3226 -0.3552
vn 0.7616 0.6150 0.2041
vn 0.6829 0.6150 0.3942
vn -0.2040 -0.6150 -0.7616
vn -0.0000 -0.6150 -0.7885
vn -0.0000 0.6150 0.7885
vn 0.3571 0.2610 0.8969
vn 0.1890 0.5336 0.8243
vn 0.2040 -0.6150 -0.7616
vn -0.2040 0.6150 0.7616
vn 0.0144 -0.9382 0.3457
vn 0.1030 -0.8574 0.5043
vn 0.2040 -0.6150 0.7616
vn -0.2040 0.6150 -0.7616
vn -0.0000 0.6150 -0.7885
vn -0.8827 0.3730 0.2858
vn -0.6870 0.6091 0.3963
vn -0.7616 0.6150 0.2041
vn -0.8797 0.1032 0.4641
vn 0.3343 0.8597 -0.3862
vn 0.6505 0.6836 -0.3310
vn 0.5678 0.3789 -0.7308
vn 0.4048 0.8942 -0.1911
vn 0.7071 -0.7071 -0.0000
vn 0.5774 -0.5774 -0.5773
vn 0.5576 -0.6150 0.5575
vn 0.6168 -0.6963 0.3670
vn 0.7556 -0.3226 0.5702
vn -0.6828 0.6150 -0.3943
vn -0.5576 0.6150 -0.5575
vn 0.7140 0.6836 -0.1514
vn 0.3861 0.9152 -0.1155
vn -0.5000 -0.0000 0.8660
vn -0.7071 -0.0000 0.7071
vn 0.2204 -0.9052 -0.3635
vn 0.5136 -0.5632 -0.6473
vn 0.3744 -0.5081 0.7757
vn 0.1719 -0.6197 0.7658
vn 0.2319 -0.1346 0.9634
vn 0.5000 -0.0000 0.8660
vn 0.3436 -0.9265 0.1535
vn 0.8660 -0.0000 0.5000
vn 0.9659 0.0034 0.2589
vn 0.3862 -0.9127 0.1336
vn -0.7177 -0.6964 -0.0000
vn -0.9154 -0.4020 0.0217
vn 0.9634 0.1346 -0.2319
vn 0.9503 -0.1346 -0.2809
vn 0.8661 0.0034 -0.4999
vn 0.8660 -0.0000 -0.5000
vn 1.0000 -0.0034 -0.0001
vn 0.9265 -0.2513 0.2799
vn 0.6965 -0.6983 0.1651
vn -0.2041 -0.6150 -0.7616
vn -0.3942 -0.6150 -0.6829
vn 0.3654 0.0859 0.9269
vn -0.9677 0.0583 -0.2452
vn -0.9982 -0.0583 -0.0136
vn -0.9659 -0.0000 -0.2588
vn -0.8502 -0.1216 0.5122
vn -0.5536 -0.7644 0.3305
vn -0.2475 -0.9596 0.1342
vn 0.9816 0.1842 -0.0501
vn 0.9429 0.1388 -0.3028
vn -0.6153 0.1644 -0.7710
vn -0.8577 -0.0583 -0.5109
vn -0.7017 -0.1233 -0.7017
vn -0.8660 -0.0000 -0.5000
vn 0.7521 -0.6377 -0.1662
vn 0.4581 -0.8856 0.0763
vn 0.2382 -0.9235 0.3008
vn 0.3028 -0.9353 -0.1832
vn 0.2125 -0.9349 0.2842
vn 0.3656 -0.7553 -0.5439
vn 0.1429 -0.9818 -0.1249
vn 0.4766 -0.7535 -0.4529
vn -0.2127 0.8578 -0.4679
vn -0.1695 0.9012 -0.3989
vn 0.5989 0.6873 -0.4110
vn 0.2970 0.9084 -0.2942
vn -0.3007 0.8943 0.3315
vn -0.7155 -0.0583 0.6962
vn -0.8660 -0.0000 0.5000
vn -0.5042 0.8129 0.2914
vn 0.9122 -0.4097 -0.0096
vn 0.7616 -0.6150 -0.2040
vn -0.0620 -0.4390 0.8963
vn -0.1872 -0.4262 0.8850
vn -0.2809 -0.1346 0.9502
vn -0.0254 -0.1346 0.9906
vn -0.2040 -0.6150 0.7616
vn -0.0000 -0.6150 0.7885
vn 0.1470 0.0859 -0.9854
vn 0.2040 0.6150 -0.7616
vn 0.0185 0.4641 -0.8856
vn 0.6899 -0.6037 -0.3995
vn 0.5576 -0.6150 -0.5575
vn -0.3636 0.3873 -0.8472
vn -0.4537 0.2693 -0.8495
vn -0.5109 -0.0583 -0.8576
vn -0.3593 0.8616 -0.3585
vn -0.7616 -0.6150 0.2040
vn 0.7885 0.6150 -0.0000
vn -0.5576 -0.6150 -0.5575
vn -0.6828 -0.6150 -0.3943
vn 0.7517 0.0998 0.6519
vn -0.2604 -0.7528 0.6045
vn -0.4999 0.0034 0.8661
vn 0.3943 -0.6150 -0.6828
vn -0.6730 0.1404 0.7262
vn -0.5575 0.6150 0.5576
vn -0.5851 0.2027 0.7852
vn 0.5575 -0.6150 0.5576
vn -0.5575 0.6150 -0.5576
vn 0.9881 0.1346 0.0739
vn 0.9182 0.2792 0.2811
vn 0.4873 0.0583 0.8713
vn 0.2923 0.9525 -0.0858
vn 0.4750 0.8725 -0.1146
vn -0.1221 0.6339 0.7637
vn 0.0175 0.9063 0.4223
vn -0.6395 -0.6320 0.4378
vn -0.5101 -0.8436 -0.1676
vn -0.2422 -0.9677 -0.0703
vn -0.7218 -0.1719 0.6704
vn -0.1082 -0.6434 0.7578
vn -0.0821 -0.8912 0.4461
vn 0.4959 -0.1707 0.8515
vn 0.1699 -0.9447 0.2806
vn 0.2669 -0.7066 -0.6554
vn 0.4771 -0.3551 -0.8039
vn -0.4023 -0.6725 -0.6212
vn -0.3033 -0.4314 -0.8497
vn -0.2283 -0.9414 -0.2481
vn 0.8810 -0.2732 -0.3864
vn 0.2523 -0.9676 0.0048
vn 0.5843 -0.7923 -0.1755
vn 0.5713 -0.8191 0.0521
vn -0.2588 -0.0000 -0.9659
vn 0.3071 0.1238 0.9436
vn 0.7110 0.0403 0.7020
vn -0.9572 0.1312 -0.2579
vn -0.8665 0.0175 -0.4989
vn -0.9659 -0.0000 0.2588
vn 0.9659 -0.0000 -0.2588
vn 0.7017 -0.1233 -0.7017
vn -0.2588 -0.0000 0.9659
vn -0.0525 0.1238 -0.9909
vn 0.2588 -0.0000 0.9659
vn 0.7004 -0.1377 0.7004
vn 0.6873 0.1229 0.7159
vn 0.8579 0.1312 0.4969
vn 0.9659 -0.0000 0.2588
vn -0.9925 0.1219 0.0138
vn -0.9925 -0.1219 -0.0138
vn -0.9635 0.0403 0.2647
vn -0.5051 0.0403 0.8621
vn 0.2599 0.0175 -0.9655
vn 0.4989 -0.0175 -0.8665
vn 0.2588 -0.0000 -0.9659
vn -0.1429 0.1298 0.9812
vt 14.687630 15.568840
vt -0.000000 14.902130
vt 15.354330 14.902130
vt 15.354330 18.179560
vt 14.687630 17.512859
vt 9.811005 17.512859
vt 9.144302 17.512859
vt 9.811005 15.568840
vt 0.666703 15.568840
vt 6.352501 3.945057
vt 7.677166 3.770662
vt 9.001830 3.945057
vt 5.118110 4.456358
vt 10.236220 4.456358
vt 11.296220 5.269722
vt 3.244752 6.329717
vt 4.058115 5.269722
vt 12.109580 6.329717
vt 2.733450 7.564108
vt 12.620880 7.564108
vt 2.559055 8.888772
vt 12.795280 8.888772
vt 12.620880 10.213440
vt 3.244752 11.447830
vt 2.733450 10.213440
vt 12.109580 11.447830
vt 4.058115 12.507820
vt 11.296220 12.507820
vt 5.118110 13.321190
vt 10.236220 13.321190
vt 9.001830 13.832490
vt 6.352501 13.832490
vt 7.677166 14.006880
vt 0.000000 1.710328
vt 0.000000 3.046422
vt -10.629920 3.046422
vt -10.629920 1.710328
vt 0.000000 -0.011516
vt -10.629920 -0.011516
vt -10.629920 -1.347611
vt 0.000000 -3.023143
vt -10.629920 -3.023143
vt -10.629920 -4.359238
vt 0.000000 -4.359238
vt 0.000000 -5.783221
vt -10.629920 -5.783221
vt -10.629920 -7.119316
vt 10.629920 12.169890
vt 0.000000 12.169890
vt 0.000000 10.833800
vt 0.000000 11.818130
vt 0.000000 10.482030
vt 10.629920 10.482030
vt 0.000000 9.146751
vt 10.629920 9.146751
vt 0.000000 8.478703
vt 0.000000 7.142609
vt 10.629920 7.142609
vt 10.629920 8.478703
vt 0.000000 5.942278
vt 0.000000 4.606183
vt 10.629920 4.606183
vt 10.629920 5.942278
vt 10.629920 1.710328
vt 10.629920 -3.023143
vt 10.629920 -4.359238
vt 10.629920 -5.783221
vt 0.000000 -7.119316
vt 10.629920 -7.119316
vt -10.629920 8.103656
vt 0.000000 8.103656
vt 0.000000 9.439752
vt -10.629920 9.439752
vt -10.629920 9.826314
vt 0.000000 9.826314
vt 0.000000 11.162410
vt -10.629920 11.162410
vt -10.629920 10.833800
vt 0.000000 11.057450
vt 0.000000 12.393550
vt -10.629920 12.393550
vt -10.629920 11.057450
vt -10.629920 11.818130
vt 0.000000 10.482850
vt -10.629920 10.482850
vt -10.629920 8.478703
vt 0.000000 1.673656
vt 0.000000 0.755720
vt 15.354330 0.755720
vt 15.354330 1.673656
vt 0.755720 37.007870
vt 0.000000 33.818771
vt 1.673656 37.007870
vt -10.629920 -4.704068
vt -0.000000 -4.704068
vt -0.000000 -3.367973
vt 0.000000 16.907459
vt 10.629920 16.907459
vt 10.629920 18.243561
vt 0.000000 18.243561
vt 0.000000 27.073709
vt 0.000000 25.737610
vt 10.629920 25.737610
vt 0.000000 28.828480
vt 0.000000 27.492380
vt 10.629920 27.492380
vt 10.629920 28.828480
vt 0.000000 28.913530
vt 0.000000 27.577440
vt 10.629920 27.577440
vt 6.352501 22.448990
vt 7.677166 22.274599
vt 9.001830 22.448990
vt 5.118110 22.960291
vt 11.296220 23.773661
vt 4.058115 23.773661
vt 12.109580 24.833651
vt 2.733450 26.068041
vt 3.244752 24.833651
vt 12.620880 26.068041
vt 2.559055 27.392710
vt 12.795280 27.392710
vt 12.620880 28.717369
vt 3.244752 29.951771
vt 2.733450 28.717369
vt 12.109580 29.951771
vt 4.058115 31.011761
vt 10.236220 31.825121
vt 9.001830 32.336430
vt 5.118110 31.825121
vt 7.677166 32.510818
vt 6.352501 32.336430
vt 0.000000 22.098280
vt 10.629920 22.098280
vt 10.629920 23.434380
vt 0.000000 23.434380
vt 0.000000 23.037689
vt 0.000000 21.701590
vt 10.629920 21.701590
vt 0.000000 17.726580
vt 0.000000 16.390490
vt 10.629920 16.390490
vt 10.629920 11.252970
vt 0.000000 11.252970
vt 0.000000 9.916873
vt 10.629920 9.916873
vt 10.629920 4.058007
vt 0.000000 4.058007
vt 0.000000 2.721913
vt -10.629920 16.907459
vt -0.000000 16.907459
vt -0.000000 18.243561
vt -10.629920 10.518900
vt -0.000000 10.518900
vt -0.000000 11.855000
vt 15.354330 36.184860
vt 0.666703 35.518162
vt 2.610721 35.518162
vt -0.000000 32.907440
vt 14.687630 33.574139
vt 0.666703 33.574139
vt 2.610721 33.574139
vt 9.811005 33.574139
vt 9.597584 33.645470
vt 9.245152 33.920689
vt 9.124218 34.110458
vt 9.049084 34.322571
vt 9.245152 35.171612
vt 9.405685 35.329300
vt 9.597584 35.446831
vt 9.811005 35.518162
vt 10.629920 -3.367973
vt 0.000000 -3.367973
vt 0.000000 -4.704068
vt 10.629920 -4.704068
vt -0.000000 23.434380
vt -10.629920 23.434380
vt -10.629920 22.098280
vt 3.649227 4.863979
vt 3.649227 3.289176
vt 0.000000 2.462713
vt 15.354330 2.462713
vt 15.354330 15.314830
vt 0.000000 15.314830
vt 0.893322 3.289176
vt 0.893322 4.863979
vt 0.000000 0.000000
vt 15.354330 0.000000
vt 0.000000 0.787402
vt -15.354330 0.787402
vt -15.354330 0.000000
vt -15.354330 13.779530
vt 0.893322 0.393701
vt 0.893322 0.000000
vt 3.649227 0.000000
vt 0.000000 3.289176
vt 0.000000 4.863979
vt -0.393701 4.863979
vt -0.893322 0.000000
vt -0.893322 0.393701
vt -3.649227 0.393701
vt -3.649227 0.000000
vt 0.393701 3.289176
vt 0.393701 4.863979
vt -12.467810 3.106991
vt -2.886518 3.106991
vt -2.886518 15.396950
vt -12.467810 15.396950
vt -13.247690 -6.867407
vt -2.106645 -6.867407
vt -2.886518 -5.594344
vt -12.467810 -5.594344
vt 7.199596 15.396950
vt 7.199596 3.106991
vt 8.307839 2.106645
vt 15.354330 21.360350
vt 15.354330 33.818771
vt 0.000000 21.360350
vt 0.000000 33.818771
vt 0.000000 0.393701
vt -2.106645 2.106645
vt 0.000000 37.007870
vt -2.106645 20.610580
vt -2.106645 16.397289
vt -13.247690 16.397289
vt -2.106645 34.901230
vt -13.247690 2.106645
vt -15.354330 37.007870
vt -13.247690 20.610580
vt 7.199596 33.900879
vt 7.199596 21.610929
vt 8.307839 20.610580
vt 8.307839 34.901230
vt -2.886518 8.945637
vt -12.467810 8.945637
vt -13.247690 7.672573
vt -1.673656 37.007870
vt -0.787402 19.258341
vt -0.787402 20.966650
vt -1.673656 18.503941
vt -13.779530 0.000000
vt -0.787402 0.000000
vt -0.755720 18.503941
vt -0.362020 18.503941
vt 0.000000 13.779530
vt 0.362020 19.258341
vt 0.362020 18.503941
vt 0.755720 18.503941
vt 0.787402 20.966650
vt 1.673656 18.503941
vt 0.787402 2.462713
vt 0.787402 -0.000000
vt 13.779530 -0.000000
vt 0.393701 20.966650
vt 0.000000 21.360350
vt -0.000000 15.314830
vt 0.000000 18.503941
vt 15.354330 18.503941
vt 15.354330 19.258341
vt 0.000000 19.258341
vt 15.354330 0.362020
vt 15.354330 0.787402
vt 15.354330 15.104050
vt 0.000000 15.104050
vt 0.000000 14.547270
vt 9.144302 15.568840
vt 0.666703 17.512859
vt 14.687630 35.518162
vt -0.000000 18.179560
vt 0.000000 -1.347611
vt 10.629920 8.103656
vt 10.629920 9.439752
vt 10.629920 9.826314
vt 10.629920 11.162410
vt 10.629920 10.833800
vt 10.629920 11.057450
vt 10.629920 12.393550
vt 10.629920 11.818130
vt 10.629920 3.046422
vt 10.629920 -0.011516
vt 10.629920 -1.347611
vt -10.629920 12.169890
vt -10.629920 10.482030
vt -10.629920 9.146751
vt -10.629920 7.142609
vt -10.629920 5.942278
vt -10.629920 4.606183
vt -0.000000 16.390490
vt -0.000000 17.726580
vt -10.629920 17.726580
vt -10.629920 16.390490
vt -0.000000 4.058007
vt -10.629920 4.058007
vt -10.629920 2.721913
vt -0.000000 2.721913
vt -10.629920 -3.367973
vt 0.000000 10.518900
vt 10.629920 10.518900
vt 10.629920 11.855000
vt 0.000000 11.855000
vt 10.629920 27.073709
vt 10.629920 28.913530
vt 10.236220 22.960291
vt 11.296220 31.011761
vt 0.000000 26.824341
vt 0.000000 25.488239
vt 10.629920 25.488239
vt 10.629920 26.824341
vt 10.629920 23.037689
vt 10.629920 17.726580
vt -0.000000 33.818771
vt -0.755720 37.007870
vt -0.000000 11.252970
vt -10.629920 11.252970
vt -10.629920 9.916873
vt -0.000000 9.916873
vt 10.629920 2.721913
vt -0.000000 25.737610
vt -0.000000 27.073709
vt -10.629920 27.073709
vt -10.629920 25.737610
vt -0.000000 27.577440
vt -0.000000 28.913530
vt -10.629920 28.913530
vt -10.629920 27.577440
vt -0.000000 25.488239
vt -0.000000 26.824341
vt -10.629920 26.824341
vt -10.629920 25.488239
vt -10.629920 18.243561
vt -10.629920 11.855000
vt -0.000000 21.701590
vt -0.000000 23.037689
vt -10.629920 23.037689
vt -10.629920 21.701590
vt 15.354330 32.907440
vt -0.000000 36.184860
vt 9.405685 33.763000
vt 9.023603 34.546150
vt 9.049084 34.769730
vt 9.124218 34.981838
vt -0.000000 27.492380
vt -0.000000 28.828480
vt -10.629920 28.828480
vt -10.629920 27.492380
vt -0.000000 22.098280
vt 3.649227 0.393701
vt -0.393701 3.289176
vt 8.307839 16.397289
vt -12.467810 20.134331
vt -2.886518 20.134331
vt -2.106645 21.407391
vt -13.247690 21.407391
vt -18.004471 3.106991
vt -18.004471 15.396950
vt -19.112711 16.397289
vt -19.112711 2.106645
vt 15.354330 20.966650
vt 0.000000 20.966650
vt -15.354330 0.393701
vt -13.247690 34.901230
vt -12.467810 34.674301
vt -2.886518 34.674301
vt -2.106645 35.947369
vt -13.247690 35.947369
vt -18.004471 21.610929
vt -18.004471 33.900879
vt -19.112711 34.901230
vt -19.112711 20.610580
vt -12.467810 21.610929
vt -2.886518 21.610929
vt -2.886518 33.900879
vt -12.467810 33.900879
vt -2.106645 7.672573
vt -0.000000 21.360350
vt -0.393701 20.966650
vt -0.787402 2.462713
vt -13.779530 37.007870
vt -0.362020 19.258341
vt 15.354330 13.779530
vt 0.787402 19.258341
vt 13.779530 37.007870
vt 0.000000 2.462713
vt 0.000000 0.362020
vt -15.354330 0.755720
vt -15.354330 0.362020
vt 15.354330 14.547270
vt 10.236220 -0.787402
vt 8.855100 -0.787402
vt 10.236220 -1.181102
vt 10.629920 -1.181102
vt 10.236220 -0.000000
vt 10.629920 -0.000000
vt 0.000000 -0.787402
vt 10.236220 0.000000
vt 0.787402 -5.118110
vt 0.787402 5.118110
vt 0.000000 5.118110
vt 0.000000 -5.118110
vt -8.769199 -3.651089
vt -10.236220 -1.913972
vt -10.236220 -5.118110
vt -1.467021 -3.651089
vt -8.769199 -1.913972
vt -8.769199 -1.566094
vt -10.629920 -1.566094
vt -10.629920 -1.913972
vt -10.236220 -1.566094
vt -8.769199 1.566094
vt -10.236220 1.566094
vt -1.467021 3.651089
vt -8.769199 3.651089
vt -10.629920 1.913972
vt -10.629920 1.566094
vt -10.236220 1.913972
vt -8.769199 1.913972
vt -10.236220 5.118110
vt 10.236220 0.000000
vt 10.236220 -0.833225
vt 10.629920 -0.833225
vt 10.629920 0.000000
vt -0.787402 5.118110
vt -0.787402 1.913972
vt 0.000000 1.913972
vt 0.000000 5.118110
vt -0.833225 -1.566094
vt -1.181102 1.913972
vt -1.181102 -1.913972
vt 0.000000 -1.913972
vt 0.000000 -1.566094
vt -0.833225 1.566094
vt 0.000000 1.913972
vt 0.000000 1.566094
vt 8.731720 -1.913972
vt 10.167860 -1.913972
vt 10.167860 1.913972
vt 8.731720 1.913972
vt -0.787402 -1.913972
vt -0.787402 -5.118110
vt 0.000000 -5.118110
vt 0.000000 -1.913972
vt 10.236220 -1.913972
vt 10.629920 -1.913972
vt 10.629920 1.913972
vt 10.236220 1.913972
vt 0.000000 -1.566094
vt 0.000000 1.566094
vt -10.629920 -0.833225
vt -10.236220 -0.833225
vt -10.236220 0.000000
vt -10.629920 0.000000
vt -10.236220 -1.181102
vt -8.855100 -0.787402
vt -10.236220 -0.787402
vt -10.236220 0.000000
vt -10.629920 -1.181102
vt -10.629920 0.000000
vt 8.855100 1.913972
vt 10.236220 5.118110
vt 8.855100 -1.913972
vt 10.236220 -5.118110
vt -10.236220 0.000000
vt -8.258047 -3.139937
vt -1.978173 -3.139937
vt -1.978173 3.139937
vt -8.258047 -1.646016
vt -8.258047 -1.346841
vt -8.258047 1.346841
vt -8.258047 1.646016
vt -8.258047 3.139937
vt -2.707283 -1.913972
vt -2.707283 -3.651089
vt -1.051601 -3.139937
vt -1.051601 -1.646016
vt -2.707283 -1.566094
vt -1.051601 -1.346841
vt -2.707283 1.566094
vt -1.051601 1.346841
vt -2.707283 1.913972
vt -1.051601 1.646016
vt -2.707283 3.651089
vt -1.051601 3.139937
vt -1.978173 -0.528494
vt -1.467021 1.127187
vt -8.769199 1.127187
vt -8.258047 -0.528494
vt -0.452908 -3.651089
vt -0.452908 3.651089
vt -2.108590 3.139937
vt -2.108590 -3.139937
vt -8.769199 -1.127187
vt -1.467021 -1.127187
vt -1.978173 0.528494
vt -8.258047 0.528494
vt -5.511953 -1.181102
vt -4.636695 -1.181102
vt -4.636695 0.787402
vt -5.511953 0.787402
vt -5.166146 -1.181102
vt -4.290888 -1.181102
vt -4.290888 0.787402
vt -5.166146 0.787402
vt 0.867770 -6.946229
vt -0.867770 -6.946229
vt -0.867770 -7.826571
vt 0.867770 -7.826571
vt -3.553337 0.787402
vt -2.678079 -1.181102
vt -3.553337 -1.181102
vt -2.678079 0.787402
vt -4.498099 -1.181102
vt -3.622841 -1.181102
vt -3.622841 0.787402
vt -4.498099 0.787402
vt 5.316399 -3.306981
vt 4.140635 -3.306981
vt 4.060470 -4.302362
vt 5.396565 -4.302362
vt -5.396565 -1.906017
vt -4.140635 -0.910636
vt -4.060470 -1.906017
vt -5.316399 -0.910636
vt -4.728517 -5.010207
vt -3.472588 -4.014826
vt -3.392422 -5.010207
vt -4.648352 -4.014826
vt -1.370734 -5.001453
vt -2.546498 -5.001453
vt -2.626663 -5.996834
vt -1.290569 -5.996834
vt -5.742372 -3.512864
vt -4.406277 -3.512864
vt -4.486443 -2.517483
vt -5.662206 -2.517483
vt -5.742372 -2.695516
vt -4.406277 -2.695516
vt -4.486443 -1.700134
vt -5.662206 -1.700134
vt 5.662206 -1.700134
vt 4.486443 -1.700134
vt 4.406277 -2.695516
vt 5.742372 -2.695516
vt -1.290569 -0.211545
vt -2.546498 0.783836
vt -1.370734 0.783836
vt -2.626663 -0.211545
vt 2.527826 -4.592779
vt 3.783756 -5.588160
vt 2.447661 -5.588160
vt 3.703590 -4.592779
vt -8.356671 0.787402
vt -6.896112 0.787402
vt -6.896112 1.181102
vt -9.144073 0.787402
vt -8.356671 1.181102
vt -0.867770 1.181102
vt 0.867770 0.787402
vt -0.867770 0.787402
vt 0.867770 1.181102
vt 3.703590 0.375161
vt 2.527826 0.375161
vt 2.447661 -0.620220
vt 3.783756 -0.620220
vt 1.370734 -5.001453
vt 2.626663 -5.996834
vt 1.290569 -5.996834
vt 2.546498 -5.001453
vt 3.622841 -1.181102
vt 4.498099 -1.181102
vt 4.498099 0.787402
vt 3.622841 0.787402
vt 4.290888 -1.181102
vt 5.166146 -1.181102
vt 5.166146 0.787402
vt 4.290888 0.787402
vt 2.396245 -1.181102
vt 2.396245 0.787402
vt 1.520987 0.787402
vt 1.520987 -1.181102
vt -0.080166 -5.212999
vt -1.255929 -5.212999
vt -1.336095 -6.208380
vt -0.000000 -6.208380
vt -1.520987 -1.181102
vt -1.520987 0.787402
vt -2.396245 0.787402
vt -2.396245 -1.181102
vt -0.230419 -1.181102
vt -0.230419 0.787402
vt -1.105676 0.787402
vt -1.105676 -1.181102
vt 1.290569 -0.211545
vt 2.626663 -0.211545
vt 2.546498 0.783836
vt 1.370734 0.783836
vt -4.140635 -3.306981
vt -5.316399 -3.306981
vt -5.396565 -4.302362
vt -4.060470 -4.302362
vt 1.105676 -1.181102
vt 0.230419 0.787402
vt 1.105676 0.787402
vt 0.230419 -1.181102
vt 3.553337 -1.181102
vt 2.678079 0.787402
vt 3.553337 0.787402
vt 2.678079 -1.181102
vt 0.767641 1.165705
vt 0.614173 -0.000000
vt 0.767641 -1.165705
vt 1.217586 -2.251969
vt 1.217586 2.251969
vt 1.933346 -3.184764
vt 1.765305 -0.000000
vt 1.879549 -0.867770
vt 2.214496 -1.676403
vt 2.866142 -3.900524
vt 2.747319 -2.370791
vt 3.952405 -4.350469
vt 5.118110 -4.503937
vt 4.250340 -3.238561
vt 8.302875 -3.184764
vt 8.356671 -0.867770
vt 8.021725 -1.676403
vt 9.144073 0.867770
vt 9.468579 -1.165705
vt 9.468579 1.165705
vt 7.488902 2.370791
vt 8.021725 1.676403
vt 8.302875 3.184764
vt 5.985880 3.238561
vt 6.283815 4.350469
vt 5.118110 4.503937
vt 5.118110 3.352805
vt 4.250340 3.238561
vt 3.952405 4.350469
vt 3.441708 2.903615
vt 2.866142 3.900524
vt 2.747319 2.370791
vt 2.214496 1.676403
vt 1.933346 3.184764
vt 1.879549 0.867770
vt 3.441708 -2.903615
vt 5.118110 -3.352805
vt 6.283815 -4.350469
vt 5.985880 -3.238561
vt 6.794513 -2.903615
vt 7.370079 -3.900524
vt 7.488902 -2.370791
vt 9.018634 -2.251969
vt 9.144073 -0.867770
vt 9.018634 2.251969
vt 8.356671 0.867770
vt 7.370079 3.900524
vt 6.794513 2.903615
vt 9.622047 -0.000000
vt 3.392422 -5.010207
vt 4.648352 -4.014826
vt 4.728517 -5.010207
vt 3.472588 -4.014826
vt -0.080166 0.995381
vt -1.255929 0.995381
vt -1.336095 0.000000
vt 4.636695 -1.181102
vt 5.511953 -1.181102
vt 5.511953 0.787402
vt 4.636695 0.787402
vt 5.662206 -2.517483
vt 4.486443 -2.517483
vt 4.406277 -3.512864
vt 5.742372 -3.512864
vt -2.447661 -0.620220
vt -2.527826 0.375161
vt -3.703590 0.375161
vt -3.783756 -0.620220
vt 4.060470 -1.906017
vt 5.316399 -0.910636
vt 5.396565 -1.906017
vt 4.140635 -0.910636
vt -6.896112 -0.867770
vt -8.356671 0.867770
vt -6.896112 0.867770
vt -8.356671 -0.867770
vt 1.336095 0.000000
vt 1.255929 0.995381
vt 0.080166 0.995381
vt 1.336095 -6.208380
vt 1.255929 -5.212999
vt 0.080166 -5.212999
vt 0.000000 -6.208380
vt -2.527826 -4.592779
vt -3.703590 -4.592779
vt -3.783756 -5.588160
vt -2.447661 -5.588160
vt -3.472588 -0.202791
vt -4.648352 -0.202791
vt -4.728517 -1.198173
vt -3.392422 -1.198173
vt 4.648352 -0.202791
vt 3.472588 -0.202791
vt 3.392422 -1.198173
vt 4.728517 -1.198173
vt 0.867770 -1.181102
vt -0.867770 -1.181102
vt -0.174395 -1.324664
vt -0.174395 1.324664
vt -0.685697 2.559055
vt -1.499060 3.619051
vt -1.765305 -0.000000
vt -1.499060 -3.619051
vt -1.879549 0.867770
vt -2.559055 4.432414
vt -2.214496 1.676403
vt -2.747319 2.370791
vt -3.793446 4.943715
vt -4.250340 3.238561
vt -3.441708 2.903615
vt -6.442775 4.943715
vt -7.677166 4.432414
vt -6.794513 2.903615
vt -7.488902 2.370791
vt -8.021725 1.676403
vt -8.737161 3.619051
vt -8.021725 -1.676403
vt -8.737161 -3.619051
vt -7.677166 -4.432414
vt -7.488902 -2.370791
vt -6.794513 -2.903615
vt -5.118110 -3.352805
vt -5.985880 -3.238561
vt -6.442775 -4.943715
vt -5.118110 -5.118110
vt -4.250340 -3.238561
vt -3.793446 -4.943715
vt -2.747319 -2.370791
vt -3.441708 -2.903615
vt -0.685697 -2.559055
vt -5.118110 5.118110
vt -5.118110 3.352805
vt -5.985880 3.238561
vt -2.559055 -4.432414
vt -2.214496 -1.676403
vt -1.879549 -0.867770
vt -9.550524 2.559055
vt -9.550524 -2.559055
vt -10.061820 1.324664
vt -10.061820 -1.324664
vt -5.742372 -1.181102
vt -4.406277 -1.181102
vt -4.406277 0.000000
vt -5.742372 0.000000
vt -5.396565 -1.181102
vt -4.060470 0.000000
vt -4.060470 -1.181102
vt -5.396565 0.000000
vt -3.392422 0.000000
vt -4.728517 0.000000
vt -4.728517 -1.181102
vt -3.392422 -1.181102
vt -3.783756 0.000000
vt -2.447661 -1.181102
vt -3.783756 -1.181102
vt -2.447661 0.000000
vt -2.626663 0.000000
vt -2.626663 -1.181102
vt -1.290569 -1.181102
vt -1.290569 0.000000
vt -0.000000 -1.181102
vt -0.000000 0.000000
vt -1.336095 0.000000
vt -1.336095 -1.181102
vt 1.336095 -1.181102
vt 1.336095 0.000000
vt 0.000000 0.000000
vt 0.000000 -1.181102
vt 2.626663 -1.181102
vt 2.626663 0.000000
vt 1.290569 0.000000
vt 1.290569 -1.181102
vt 3.783756 -1.181102
vt 3.783756 0.000000
vt 2.447661 0.000000
vt 2.447661 -1.181102
vt 3.392422 -1.181102
vt 4.728517 0.000000
vt 4.728517 -1.181102
vt 3.392422 0.000000
vt 4.060470 -1.181102
vt 5.396565 0.000000
vt 5.396565 -1.181102
vt 4.060470 0.000000
vt 4.406277 -1.181102
vt 5.742372 -1.181102
vt 5.742372 0.000000
vt 4.406277 0.000000
vt 0.000000 -1.181102
s 1
usemtl metalMedium.010
f 7/1/1 5/2/2 1/3/3
f 1/3/3 2/4/4 7/1/1
f 2/4/4 8/5/1 7/1/1
f 2/4/4 9/6/1 8/5/1
f 2/4/4 10/7/1 9/6/1
s 0
f 7/1/5 13/8/5 12/9/5
s 1
f 16/10/6 15/11/7 17/12/8
f 17/12/8 18/13/9 16/10/6
f 17/12/8 19/14/10 18/13/9
f 21/15/11 22/16/12 20/17/13
f 21/15/11 23/18/14 22/16/12
f 23/18/14 24/19/15 22/16/12
f 23/18/14 25/20/16 24/19/15
f 25/20/16 26/21/17 24/19/15
f 25/20/16 27/22/18 26/21/17
f 27/22/18 28/23/19 26/21/17
f 28/23/19 30/24/20 29/25/21
f 28/23/19 31/26/22 30/24/20
f 31/26/22 32/27/23 30/24/20
f 31/26/22 33/28/24 32/27/23
f 33/28/24 34/29/25 32/27/23
f 33/28/24 35/30/26 34/29/25
f 35/30/26 36/31/27 34/29/25
f 36/31/27 37/32/28 34/29/25
f 36/31/27 38/33/29 37/32/28
f 40/34/30 39/35/31 33/36/24
f 33/36/24 31/37/22 40/34/30
f 41/38/32 35/39/26 33/40/24
f 42/41/33 36/42/27 35/43/26
f 35/43/26 41/44/32 42/41/33
f 43/45/34 38/46/29 36/47/27
f 34/48/25 45/49/35 46/50/36
f 47/51/37 48/52/38 29/53/21
f 48/52/38 49/54/39 26/55/17
f 49/56/39 50/57/40 24/58/15
f 24/58/15 26/59/17 49/56/39
f 50/60/40 51/61/41 22/62/12
f 22/62/12 24/63/15 50/60/40
f 51/35/41 52/34/42 20/64/13
f 18/65/9 53/41/43 54/44/44
f 54/44/44 16/66/6 18/65/9
f 16/67/6 54/45/44 55/68/45
f 55/68/45 15/69/7 16/67/6
f 15/70/7 55/71/45 56/72/46
f 56/72/46 17/73/8 15/70/7
f 17/74/8 56/75/46 57/76/47
f 57/76/47 19/77/10 17/74/8
f 19/78/10 57/50/47 58/49/48
f 58/79/48 59/80/49 23/81/14
f 23/81/14 21/82/11 58/79/48
f 59/52/49 60/51/50 25/83/16
f 60/54/50 61/84/51 27/85/18
f 61/57/51 62/56/52 28/86/19
f 64/87/53 63/88/54 65/89/55
f 65/89/55 66/90/56 64/87/53
f 65/91/55 67/92/3 66/93/56
f 72/94/57 73/95/58 77/96/59
f 81/97/60 80/98/61 78/99/62
f 78/99/62 79/100/63 81/97/60
f 83/101/64 82/102/65 84/103/66
f 87/104/67 86/105/39 88/106/68
f 88/106/68 89/107/69 87/104/67
f 82/108/65 87/109/67 89/110/69
f 91/111/6 90/112/7 92/113/8
f 92/113/8 93/114/70 91/111/6
f 95/115/71 96/116/72 93/114/70
f 97/117/73 99/118/15 98/119/74
f 100/120/75 88/121/68 99/118/15
f 101/122/76 102/123/19 88/121/68
f 102/123/19 84/124/66 89/125/69
f 102/123/19 71/126/22 84/124/66
f 71/126/22 85/127/23 84/124/66
f 74/128/77 72/129/57 80/130/61
f 72/129/57 76/131/29 78/132/62
f 83/133/64 85/134/23 80/135/61
f 80/135/61 81/136/60 83/133/64
f 103/137/78 104/138/79 98/139/74
f 104/140/79 105/141/80 96/142/72
f 96/143/72 105/144/80 107/145/81
f 107/145/81 93/146/70 96/143/72
f 93/147/70 107/148/81 108/149/82
f 92/150/8 114/151/83 115/152/84
f 90/153/7 116/154/85 114/155/83
f 65/156/55 121/157/1 120/158/1
f 106/159/2 117/160/1 122/161/1
f 124/162/1 123/163/1 125/164/1
f 127/165/1 128/166/1 120/158/1
f 128/166/1 129/167/1 120/158/1
f 133/168/1 134/169/1 120/158/1
f 134/169/1 135/170/1 120/158/1
f 135/170/1 119/171/1 120/158/1
f 91/172/6 108/173/82 116/174/85
f 116/174/85 90/175/7 91/172/6
f 110/176/86 95/177/71 94/178/87
f 2/248/4 1/256/3 3/250/123
f 5/184/2 4/243/127 6/240/120
f 2/4/4 11/267/1 10/7/1
f 5/2/2 7/1/1 12/9/1
f 12/9/1 4/269/127 5/2/2
f 12/9/1 11/267/1 4/269/127
f 11/267/1 2/4/4 4/269/127
s 0
f 13/8/5 14/266/5 12/9/5
s 1
f 14/266/1 13/8/1 9/6/1
f 9/6/1 10/7/1 14/266/1
f 19/14/10 20/17/13 18/13/9
f 19/14/10 21/15/11 20/17/13
f 28/23/19 29/25/21 26/21/17
f 33/40/24 39/270/31 41/38/32
f 36/47/27 42/68/33 43/45/34
f 44/71/94 37/271/28 38/272/29
f 38/272/29 43/72/34 44/71/94
f 45/75/35 34/273/25 37/274/28
f 37/274/28 44/76/94 45/75/35
f 46/50/36 32/275/23 34/48/25
f 46/80/36 47/79/37 30/276/20
f 30/276/20 32/277/23 46/80/36
f 29/53/21 30/278/20 47/51/37
f 26/55/17 29/53/21 48/52/38
f 20/64/13 22/279/12 51/35/41
f 20/280/13 52/38/42 53/270/43
f 53/270/43 18/281/9 20/280/13
f 58/49/48 21/282/11 19/78/10
f 25/83/16 23/283/14 59/52/49
f 27/85/18 25/284/16 60/54/50
f 28/86/19 27/285/18 61/57/51
f 62/61/52 40/60/30 31/286/22
f 31/286/22 28/287/19 62/61/52
f 69/288/30 68/289/31 70/290/128
f 70/290/128 71/291/22 69/288/30
f 73/292/58 72/293/57 74/294/77
f 74/294/77 75/295/129 73/292/58
f 77/96/59 76/296/29 72/94/57
f 79/297/63 78/298/62 76/299/29
f 76/299/29 77/300/59 79/297/63
f 84/103/66 85/301/23 83/101/64
f 89/110/69 84/302/66 82/108/65
f 92/113/8 94/303/87 93/114/70
f 94/303/87 95/115/71 93/114/70
f 95/115/71 97/117/73 96/116/72
f 97/117/73 98/119/74 96/116/72
f 97/117/73 100/120/75 99/118/15
f 100/120/75 101/122/76 88/121/68
f 102/123/19 89/125/69 88/121/68
f 71/126/22 70/304/128 85/127/23
f 70/304/128 80/130/61 85/127/23
f 70/304/128 74/128/77 80/130/61
f 72/129/57 78/132/62 80/130/61
f 86/305/39 103/306/78 99/307/15
f 99/307/15 88/308/68 86/305/39
f 98/139/74 99/309/15 103/137/78
f 96/142/72 98/310/74 104/140/79
f 106/311/2 63/312/54 64/237/53
f 75/313/129 74/314/77 70/315/128
f 70/315/128 68/316/31 75/313/129
f 108/149/82 91/317/6 93/147/70
f 110/318/86 109/319/109 97/320/73
f 97/320/73 95/321/71 110/318/86
f 109/322/109 111/323/110 100/324/75
f 100/324/75 97/325/73 109/322/109
f 113/326/111 112/327/52 102/328/19
f 102/328/19 101/329/76 113/326/111
f 115/152/84 94/330/87 92/150/8
f 114/155/83 92/331/8 90/153/7
f 112/332/52 69/333/30 71/334/22
f 71/334/22 102/335/19 112/332/52
f 117/160/1 106/159/2 67/336/3
f 67/336/3 65/156/55 117/160/1
f 65/156/55 118/268/1 117/160/1
f 65/156/55 119/171/1 118/268/1
f 65/156/55 120/158/1 119/171/1
f 122/161/1 63/337/54 106/159/2
f 122/161/1 121/157/1 63/337/54
f 121/157/1 65/156/55 63/337/54
s 0
f 117/160/1 123/163/1 122/161/1
f 123/163/5 124/162/5 122/161/5
s 1
f 125/164/1 120/158/1 124/162/1
f 125/164/1 126/338/1 120/158/1
f 126/338/1 127/165/1 120/158/1
f 129/167/1 130/339/1 120/158/1
f 130/339/1 131/340/1 120/158/1
f 131/340/1 132/341/1 120/158/1
f 132/341/1 133/168/1 120/158/1
f 111/342/110 113/343/111 101/344/76
f 101/344/76 100/345/75 111/342/110
f 94/178/87 115/346/84 110/176/86
usemtl metalLight.006
f 54/10/44 136/179/88 137/180/89
f 137/180/89 55/11/45 54/10/44
f 54/10/44 53/13/43 136/179/88
f 55/11/45 137/180/89 139/181/90
f 140/182/91 58/15/48 57/14/47
f 140/182/91 59/18/49 58/15/48
f 140/182/91 60/20/50 59/18/49
f 140/182/91 1/183/3 60/20/50
f 1/183/3 61/22/51 60/20/50
f 1/183/3 62/23/52 61/22/51
f 1/183/3 41/30/32 39/28/31
f 1/183/3 42/31/33 41/30/32
f 1/183/3 43/33/34 42/31/33
f 43/33/34 1/183/3 5/184/2
f 141/185/92 5/184/2 139/181/90
f 139/181/90 137/180/89 141/185/92
f 141/185/92 138/186/93 5/184/2
f 138/186/93 50/19/40 5/184/2
f 44/32/94 43/33/34 5/184/2
f 143/187/95 142/188/96 144/182/97
f 139/187/90 145/189/98 144/190/97
f 144/190/97 140/191/91 139/187/90
f 147/192/99 142/190/96 143/189/95
f 150/179/100 151/186/96 149/185/101
f 149/193/101 141/194/92 137/195/89
f 137/196/89 136/197/88 150/198/100
f 138/199/93 151/200/96 150/201/100
f 150/201/100 136/202/88 138/199/93
f 149/203/101 151/204/96 138/197/93
f 153/205/102 152/206/103 154/207/104
f 154/207/104 155/208/105 153/205/102
f 157/209/106 156/210/107 152/211/103
f 152/211/103 153/212/102 157/209/106
f 154/213/104 152/214/103 156/215/107
f 161/216/108 109/117/109 110/115/86
f 161/216/108 111/120/110 109/117/109
f 161/216/108 67/217/3 111/120/110
f 67/217/3 113/122/111 111/120/110
f 160/218/112 116/112/85 108/111/82
f 79/132/63 77/131/59 106/219/2
f 87/125/67 82/124/65 106/219/2
f 103/118/78 86/121/39 106/219/2
f 103/118/78 106/219/2 160/218/112
f 160/218/112 104/119/79 103/118/78
f 160/218/112 108/111/82 107/114/81
f 166/220/113 165/189/98 164/190/97
f 156/221/107 147/191/99 146/187/114
f 146/187/114 168/222/115 156/221/107
f 168/222/115 169/223/107 158/224/116
f 169/223/107 159/225/117 158/224/116
f 168/222/115 170/226/116 169/223/107
f 147/191/99 156/221/107 157/227/106
f 157/227/106 172/228/118 147/191/99
f 159/225/117 173/229/106 172/228/118
f 159/225/117 169/223/107 173/229/106
f 174/230/104 177/231/103 169/232/107
f 169/232/107 170/233/116 174/230/104
f 177/234/103 176/235/102 173/236/106
f 64/237/53 163/238/119 165/239/98
f 6/240/120 146/241/114 143/242/95
f 139/181/90 5/184/2 6/240/120
f 163/238/119 4/243/121 178/244/100
f 168/245/115 64/87/53 66/90/56
f 181/246/101 180/247/96 2/248/122
f 164/249/97 3/250/123 66/93/56
f 144/251/97 142/252/96 147/253/99
f 167/254/124 66/93/56 67/92/3
f 67/92/3 161/255/108 167/254/124
f 144/251/97 3/250/123 1/256/3
f 178/257/100 180/258/96 181/259/101
f 181/259/101 179/260/125 178/257/100
f 181/261/101 162/262/126 163/189/119
f 161/263/108 160/264/112 166/265/113
f 53/13/43 52/17/42 136/179/88
f 52/17/42 138/186/93 136/179/88
f 56/12/46 55/11/45 139/181/90
f 56/12/46 139/181/90 140/182/91
f 140/182/91 57/14/47 56/12/46
f 1/183/3 40/26/30 62/23/52
f 1/183/3 39/28/31 40/26/30
f 138/186/93 51/16/41 50/19/40
f 138/186/93 52/17/42 51/16/41
f 50/19/40 49/21/39 5/184/2
f 49/21/39 48/25/38 5/184/2
f 48/25/38 47/24/37 5/184/2
f 47/24/37 46/27/36 5/184/2
f 46/27/36 45/29/35 5/184/2
f 45/29/35 44/32/94 5/184/2
f 144/182/97 145/181/98 143/187/95
f 143/189/95 146/245/114 147/192/99
f 149/185/101 148/180/125 150/179/100
f 137/195/89 148/347/125 149/193/101
f 150/198/100 148/348/125 137/196/89
f 138/197/93 141/196/92 149/203/101
f 156/215/107 158/349/116 154/213/104
f 155/350/105 154/351/104 158/352/116
f 158/352/116 159/353/117 155/350/105
f 153/354/102 155/355/105 159/356/117
f 159/356/117 157/357/106 153/354/102
f 116/112/85 160/218/112 161/216/108
f 161/216/108 114/113/83 116/112/85
f 161/216/108 115/303/84 114/113/83
f 161/216/108 110/115/86 115/303/84
f 67/217/3 112/123/52 113/122/111
f 67/217/3 69/126/30 112/123/52
f 67/217/3 68/304/31 69/126/30
f 67/217/3 75/128/129 68/304/31
f 67/217/3 73/129/58 75/128/129
f 67/217/3 77/131/59 73/129/58
f 77/131/59 67/217/3 106/219/2
f 81/130/60 79/132/63 106/219/2
f 83/127/64 81/130/60 106/219/2
f 82/124/65 83/127/64 106/219/2
f 86/121/39 87/125/67 106/219/2
f 160/218/112 105/116/80 104/119/79
f 160/218/112 107/114/81 105/116/80
f 163/260/119 162/259/126 164/358/97
f 164/358/97 165/359/98 163/260/119
f 164/190/97 167/360/124 166/220/113
f 6/87/130 4/88/130 2/89/130
f 2/89/130 3/90/130 6/87/130
f 168/222/115 158/224/116 156/221/107
f 168/222/115 171/361/117 170/226/116
f 157/227/106 159/225/117 172/228/118
f 171/361/117 168/222/115 172/228/118
f 173/229/106 171/361/117 172/228/118
f 175/362/105 174/363/104 170/364/116
f 170/364/116 171/365/117 175/362/105
f 176/366/102 175/367/105 171/368/117
f 171/368/117 173/369/106 176/366/102
f 176/370/102 177/371/103 174/372/104
f 174/372/104 175/373/105 176/370/102
f 173/236/106 169/374/107 177/234/103
f 160/375/112 106/311/2 64/237/53
f 64/237/53 166/376/113 160/375/112
f 64/237/53 165/239/98 166/376/113
f 64/237/53 6/240/120 163/238/119
f 6/240/120 64/237/53 146/241/114
f 6/240/120 143/242/95 145/377/98
f 6/240/120 145/377/98 139/181/90
f 64/237/53 168/378/115 146/241/114
f 163/238/119 6/240/120 4/243/121
f 178/244/100 179/379/125 163/238/119
f 66/90/56 172/380/118 168/245/115
f 2/248/122 162/381/126 181/246/101
f 2/248/122 3/250/123 162/381/126
f 3/250/123 164/249/97 162/381/126
f 147/253/99 66/93/56 3/250/123
f 147/253/99 3/250/123 144/251/97
f 147/253/99 172/382/118 66/93/56
f 167/254/124 164/249/97 66/93/56
f 1/256/3 140/383/91 144/251/97
f 178/384/100 4/88/121 2/385/122
f 2/385/122 180/386/96 178/384/100
f 163/189/119 179/384/125 181/261/101
f 166/265/113 167/387/124 161/263/108
f 183/388/130 182/389/130 184/390/130
f 184/390/130 185/391/130 183/388/130
f 185/391/130 186/392/130 183/388/130
f 185/391/130 187/393/130 186/392/130
f 189/187/130 188/394/130 190/388/130
f 190/388/130 191/395/130 189/187/130
f 192/396/120 188/397/120 189/398/120
f 189/398/120 193/399/120 192/396/120
f 195/400/131 194/401/131 196/402/131
f 196/402/131 197/403/131 195/400/131
f 195/400/131 198/404/131 194/401/131
f 198/404/131 199/405/131 194/401/131
f 194/401/131 199/405/131 200/406/131
f 200/406/131 201/407/131 194/401/131
s 0
f 199/405/131 202/408/131 200/406/131
s 1
f 199/405/131 203/409/131 202/408/131
f 203/409/131 204/410/131 202/408/131
f 197/403/131 196/402/131 193/399/131
f 193/399/131 189/398/131 197/403/131
f 189/398/131 205/411/131 197/403/131
f 189/398/131 206/412/131 205/411/131
f 204/410/131 203/409/131 187/413/131
f 187/413/131 207/414/131 204/410/131
f 203/409/131 186/415/131 187/413/131
f 203/409/131 208/416/131 186/415/131
f 208/416/131 191/417/131 186/415/131
f 208/416/131 206/412/131 191/417/131
f 206/412/131 189/398/131 191/417/131
f 202/418/130 209/419/130 210/420/130
f 210/420/130 200/421/130 202/418/130
f 190/422/123 183/423/123 186/424/123
f 186/424/123 191/425/123 190/422/123
f 210/426/123 185/427/123 211/428/123
f 211/428/123 201/429/123 210/426/123
f 201/429/123 200/430/123 210/426/123
f 185/427/123 210/426/123 212/431/123
f 212/431/123 187/432/123 185/427/123
f 212/431/123 207/433/123 187/432/123
f 214/434/132 213/435/132 184/436/132
f 184/436/132 182/437/132 214/434/132
f 216/438/123 215/439/123 196/440/123
f 196/440/123 194/441/123 216/438/123
f 213/442/133 211/443/133 185/444/133
f 185/444/133 184/445/133 213/442/133
f 212/414/131 210/406/131 209/408/131
f 209/408/131 217/410/131 212/414/131
f 217/431/123 209/426/123 202/446/123
f 202/446/123 204/447/123 217/431/123
f 212/448/134 217/449/134 204/450/134
f 204/450/134 207/451/134 212/448/134
f 213/452/134 214/453/134 216/454/134
s 0
f 216/454/135 194/455/135 213/452/135
s 1
f 194/455/134 211/456/134 213/452/134
f 194/455/134 201/457/134 211/456/134
f 182/458/133 183/445/133 190/459/133
f 182/458/133 190/459/133 188/398/133
f 214/460/133 182/458/133 188/398/133
f 214/460/133 188/398/133 192/399/133
f 216/442/133 214/460/133 192/399/133
f 192/399/133 215/461/133 216/442/133
f 192/394/134 193/187/134 196/462/134
f 196/462/134 215/454/134 192/394/134
f 219/463/131 218/464/131 220/465/131
f 220/465/131 221/466/131 219/463/131
f 220/465/131 222/467/131 221/466/131
f 220/465/131 223/468/131 222/467/131
f 220/465/131 224/469/131 223/468/131
f 220/465/131 225/470/131 224/469/131
f 198/471/136 195/472/136 219/473/136
f 219/473/136 221/474/136 198/471/136
f 199/475/136 198/471/136 221/474/136
f 221/474/136 222/476/136 199/475/136
f 203/477/136 199/475/136 222/476/136
f 222/476/136 223/478/136 203/477/136
f 208/479/136 203/477/136 223/478/136
f 223/478/136 224/480/136 208/479/136
f 206/481/136 208/479/136 224/480/136
f 224/480/136 225/482/136 206/481/136
f 220/483/137 205/484/137 206/485/138
f 206/485/138 225/486/138 220/483/137
f 197/487/139 205/488/139 220/489/139
f 220/489/139 218/490/139 197/487/139
f 195/491/140 197/492/140 218/493/140
f 218/493/140 219/494/140 195/491/140
usemtl metalDark.011
f 12/9/1 14/266/1 10/7/1
f 10/7/1 11/267/1 12/9/1
f 13/8/1 7/1/1 8/5/1
f 8/5/1 9/6/1 13/8/1
f 122/161/1 124/162/1 120/158/1
f 120/158/1 121/157/1 122/161/1
f 118/268/1 128/166/1 127/165/1
f 123/163/1 117/160/1 118/268/1
f 118/268/1 125/164/1 123/163/1
f 118/268/1 126/338/1 125/164/1
f 118/268/1 127/165/1 126/338/1
f 118/268/1 129/167/1 128/166/1
f 118/268/1 130/339/1 129/167/1
f 118/268/1 131/340/1 130/339/1
f 118/268/1 132/341/1 131/340/1
f 118/268/1 133/168/1 132/341/1
f 118/268/1 134/169/1 133/168/1
f 118/268/1 135/170/1 134/169/1
f 118/268/1 119/171/1 135/170/1
usemtl metal.020
f 227/495/141 226/496/142 228/497/143
f 228/497/143 229/498/144 227/495/141
f 226/499/142 230/500/145 231/501/146
f 231/501/146 228/502/143 226/499/142
f 233/503/147 232/504/148 234/505/149
f 234/505/149 235/506/150 233/503/147
f 236/495/151 227/496/141 229/497/144
f 229/497/134 236/495/152 237/498/153
f 239/507/154 240/508/155 238/509/156
f 240/508/155 239/507/154 241/510/157
f 240/511/158 242/512/159 243/513/160
f 243/513/160 241/514/56 240/511/158
f 246/515/161 247/516/162 245/517/162
f 245/517/163 246/515/164 244/518/165
f 249/519/166 250/520/167 248/521/168
f 250/520/167 249/519/166 251/522/169
f 253/523/170 254/524/171 252/525/172
f 254/524/171 253/523/170 255/526/173
f 257/527/174 256/528/175 258/529/176
f 258/529/177 257/527/178 259/530/178
f 261/531/179 260/532/180 262/533/180
f 262/533/181 261/531/182 263/534/183
f 260/535/180 249/536/184 251/537/184
f 251/537/185 260/535/181 262/538/181
f 266/539/186 267/540/187 265/541/188
f 265/541/189 266/539/190 264/542/190
f 269/543/191 270/544/192 268/545/193
f 270/544/192 269/543/191 271/546/194
f 273/547/195 274/548/196 272/549/197
f 274/548/196 273/547/195 275/550/198
f 277/551/130 276/552/130 278/553/130
f 278/553/130 234/554/130 277/551/130
f 278/553/130 232/555/130 234/554/130
f 278/556/199 279/557/53 276/558/120
f 279/557/53 278/556/199 280/559/200
f 283/560/201 284/561/202 282/562/203
f 282/562/204 283/560/205 281/563/205
f 275/564/198 285/565/206 274/566/196
f 285/565/206 275/564/198 286/567/207
f 288/568/208 287/569/209 289/570/209
f 289/570/53 288/568/145 290/571/145
f 230/511/210 291/512/211 292/513/53
f 292/513/209 230/511/208 231/514/208
f 294/572/212 293/573/213 295/574/214
f 295/574/214 296/575/215 294/572/212
f 298/576/216 297/577/217 299/578/218
f 299/578/218 300/579/219 298/576/216
f 256/580/175 301/581/220 302/582/221
f 302/582/221 258/583/176 256/580/175
f 304/584/222 303/585/223 305/586/224
f 305/586/224 306/587/225 304/584/222
f 308/588/226 307/589/120 303/590/223
f 303/590/223 304/591/222 308/588/226
f 309/592/227 282/593/203 284/594/202
f 284/594/202 310/595/228 309/592/227
f 263/596/229 254/597/230 252/598/230
f 252/598/231 263/596/183 261/599/182
f 300/600/232 307/601/233 299/602/234
f 307/601/233 300/600/232 308/603/123
f 312/578/235 311/579/236 313/576/237
f 313/576/238 312/578/225 277/577/239
f 315/604/240 297/605/241 314/606/242
f 297/605/241 315/604/240 298/607/243
f 268/608/244 316/609/245 310/610/228
f 284/611/133 270/612/133 268/608/133
f 283/613/246 307/614/133 270/612/247
f 283/613/246 299/615/133 307/614/133
f 283/613/246 297/616/133 299/615/133
f 283/613/246 317/617/248 297/616/133
f 317/617/248 314/618/133 297/616/133
f 267/619/187 266/620/186 295/621/133
f 273/622/133 277/623/133 312/624/133
f 235/625/133 286/626/133 256/627/133
f 241/628/133 239/629/133 255/630/133
f 237/631/133 263/632/133 262/633/133
f 229/634/133 237/631/133 262/633/133
f 228/635/133 262/633/133 251/636/133
f 231/637/133 228/635/133 251/636/133
f 231/637/133 251/636/133 250/638/133
f 292/639/133 231/637/133 250/638/133
f 305/640/133 250/638/249 321/641/250
f 303/642/133 305/640/133 321/641/250
f 321/641/251 270/612/247 307/614/133
f 310/610/131 268/608/131 284/611/131
f 284/611/131 270/612/131 283/613/131
f 317/617/252 314/618/131 296/643/131
f 317/617/252 296/643/131 267/619/253
f 267/619/253 296/643/131 295/621/131
f 266/620/131 295/621/131 318/644/131
f 266/620/131 318/644/131 247/645/131
f 247/645/131 318/644/131 319/646/131
f 247/645/131 319/646/131 290/647/131
f 247/645/131 290/647/131 246/648/164
f 246/648/164 290/647/131 289/649/131
f 246/648/164 289/649/131 273/622/195
f 273/622/195 289/649/131 312/624/131
f 273/622/195 277/623/131 275/650/198
f 275/650/198 277/623/131 234/651/131
f 275/650/198 234/651/131 286/626/207
f 286/626/207 234/651/131 235/625/131
f 235/625/131 257/652/131 256/627/131
f 320/653/131 257/652/131 235/625/131
f 320/653/131 255/630/131 257/652/131
f 239/629/131 255/630/131 320/653/131
f 241/628/131 254/654/171 255/630/173
f 243/655/131 254/654/171 241/628/131
f 243/655/131 263/632/131 254/654/171
f 237/631/131 263/632/131 243/655/131
f 228/635/131 262/633/131 229/634/131
f 305/640/131 250/638/131 292/639/131
f 307/614/131 321/641/131 303/642/131
f 286/626/131 256/627/131 301/656/131
f 311/604/236 312/606/235 289/605/209
f 289/605/53 311/604/254 287/607/255
f 306/508/256 292/507/257 305/510/258
f 292/507/257 306/508/256 291/509/259
f 244/657/165 273/658/195 272/659/197
f 273/658/195 244/657/165 246/660/164
f 322/187/260 316/661/245 268/662/244
f 268/662/244 269/663/261 322/187/260
f 324/664/262 323/665/263 319/666/264
f 319/666/264 318/667/265 324/664/262
f 247/668/266 266/669/267 264/670/267
f 264/670/268 247/668/269 245/671/270
f 271/672/271 270/673/247 321/674/251
f 321/674/251 325/675/272 271/672/271
f 326/676/273 267/677/253 265/678/274
f 267/677/253 326/676/273 317/679/252
f 278/680/199 233/681/147 280/682/200
f 233/681/147 278/680/199 232/683/148
f 322/187/260 309/684/227 310/685/228
f 310/685/228 316/686/245 322/187/260
f 315/568/240 296/570/275 294/569/276
f 296/570/275 315/568/240 314/571/242
f 320/551/130 279/552/53 280/553/200
f 280/553/200 235/554/150 320/551/130
f 280/553/200 233/555/147 235/554/150
f 302/687/221 301/688/220 286/689/277
f 286/689/207 302/687/278 285/690/206
f 255/691/279 257/692/280 259/693/280
f 259/693/281 255/691/173 253/694/170
f 323/572/263 288/573/282 290/574/283
f 290/574/283 319/575/264 323/572/263
f 293/664/213 324/665/262 318/666/265
f 318/666/265 295/667/214 293/664/213
f 321/695/250 250/696/249 248/697/284
f 248/697/285 321/695/286 325/698/287
f 317/699/248 283/700/246 281/701/288
f 281/701/289 317/699/252 326/702/273
f 320/586/290 238/584/156 327/587/291
f 238/584/156 320/586/290 239/585/154
f 242/499/292 237/501/153 236/500/152
f 237/501/153 242/499/292 243/502/215
f 276/680/131 279/682/131 320/681/131
f 320/681/131 277/683/131 276/680/131
f 277/558/239 327/703/291 313/704/238
f 327/703/291 277/558/239 320/557/290
f 329/705/131 328/187/293 330/706/294
f 330/706/294 331/707/131 329/705/131
f 333/708/131 308/709/131 334/710/131
f 333/708/131 304/711/131 308/709/131
f 333/708/131 335/712/131 304/711/131
f 335/712/131 306/713/256 304/711/131
f 335/712/131 291/714/259 306/713/256
f 336/715/131 226/716/131 230/717/131
f 338/718/131 339/719/131 242/720/131
f 339/719/131 240/721/155 242/720/131
f 339/719/131 238/722/156 240/721/155
f 340/723/131 327/681/291 238/722/156
f 311/724/254 341/725/131 342/726/131
f 287/727/255 311/724/254 342/726/131
f 288/728/131 287/727/255 342/726/131
f 324/729/131 323/730/131 343/731/295
f 324/729/131 343/731/295 344/732/296
f 293/733/131 344/732/131 345/734/131
f 315/735/240 294/736/276 345/734/131
f 331/707/297 329/705/298 332/737/299
f 331/707/297 332/737/299 333/708/300
f 333/708/300 332/737/299 334/710/133
f 335/712/133 291/714/211 336/715/133
f 336/715/133 291/714/211 230/717/210
f 336/715/301 226/716/142 337/738/302
f 337/738/302 226/716/142 227/739/141
f 337/738/302 227/739/141 338/718/133
f 338/718/133 227/739/141 236/740/151
f 338/718/133 236/740/151 242/720/133
f 339/719/303 238/722/133 340/723/304
f 340/723/133 327/681/133 313/683/237
f 313/683/237 341/725/133 340/723/133
f 311/724/236 341/725/133 313/683/237
f 288/728/282 343/731/305 342/726/306
f 323/730/263 343/731/305 288/728/282
f 293/733/213 344/732/133 324/729/262
f 294/736/212 345/734/133 293/733/213
f 315/735/133 346/741/307 345/734/308
f 298/742/216 346/741/307 315/735/133
f 300/743/219 346/741/307 298/742/216
f 300/743/219 334/710/309 346/741/307
f 334/710/309 300/743/219 308/709/133
f 340/723/131 347/744/131 341/725/131
f 347/744/131 348/745/131 341/725/131
f 347/744/133 348/745/310 349/746/311
f 349/746/311 348/745/310 350/747/312
f 349/746/311 350/747/312 351/462/313
f 338/748/314 337/749/130 260/750/130
f 260/750/134 338/748/315 261/751/182
f 339/752/303 261/753/182 338/754/315
f 261/753/182 339/752/303 252/755/231
f 252/756/159 253/757/56 340/758/56
f 340/758/304 252/756/231 339/759/303
f 259/760/281 340/761/316 347/762/217
f 340/761/316 259/760/281 253/763/170
f 258/764/176 349/765/317 347/766/318
f 347/766/318 259/767/243 258/764/176
f 349/768/317 258/769/176 302/770/221
f 302/770/120 349/768/311 351/771/313
f 351/772/123 302/773/123 285/774/319
f 285/774/320 351/772/313 350/775/312
f 350/776/319 285/777/319 274/778/258
f 274/778/225 350/776/312 348/779/310
f 348/780/258 274/781/258 272/782/209
f 272/782/197 348/780/225 341/783/321
f 342/784/306 272/785/197 341/786/321
f 272/785/197 342/784/306 244/787/165
f 343/788/305 244/789/165 342/790/306
f 244/789/165 343/788/305 245/791/163
f 344/792/296 343/793/295 245/794/322
f 245/794/270 344/792/323 264/795/268
f 264/794/134 265/795/324 345/792/324
f 345/792/314 264/794/268 344/793/323
f 346/788/307 265/789/274 345/790/308
f 265/789/274 346/788/307 326/791/273
f 326/785/215 281/787/325 334/784/326
f 334/784/309 326/785/273 346/786/307
f 334/780/326 281/781/325 282/782/203
f 282/782/203 332/783/327 334/780/326
f 332/776/327 282/777/203 309/778/227
f 309/778/234 332/776/299 329/779/298
f 329/772/328 309/773/227 322/187/260
f 269/770/320 330/771/294 328/796/293
f 322/187/329 329/772/234 328/796/330
f 328/796/330 269/770/319 322/187/329
f 330/766/331 271/764/194 269/767/191
f 271/764/194 330/766/331 331/765/297
f 331/761/297 325/760/287 271/763/194
f 325/760/287 331/761/297 333/762/300
f 335/758/332 325/756/287 333/759/300
f 325/756/287 335/758/332 248/757/285
f 336/752/333 335/754/145 248/753/334
f 248/753/334 249/755/335 336/752/333
f 337/748/302 249/750/336 336/749/301
f 249/750/336 337/748/302 260/751/134
usemtl glass.007
f 299/743/131 307/709/131 303/711/131
f 303/711/131 305/713/131 299/743/131
f 305/713/131 297/742/131 299/743/131
f 292/714/131 231/717/131 296/736/131
f 229/739/131 318/729/131 295/733/131
f 229/739/131 237/740/131 318/729/131
f 237/740/131 319/730/131 318/729/131
f 241/721/131 320/681/131 279/682/131
f 290/728/131 279/682/131 276/680/131
f 276/680/131 289/727/131 290/728/131
f 276/680/131 277/683/131 289/727/131
f 277/683/131 312/724/131 289/727/131
f 305/713/133 297/742/133 292/714/133
f 292/714/133 297/742/133 314/735/133
f 292/714/133 314/735/133 296/736/133
f 231/717/133 296/736/133 228/716/133
f 228/716/133 296/736/133 295/733/133
f 228/716/133 295/733/133 229/739/133
f 237/740/133 319/730/133 243/720/133
f 243/720/133 319/730/133 290/728/133
f 243/720/133 290/728/133 279/682/133
f 243/720/133 279/682/133 241/721/133
f 241/721/133 320/681/133 239/722/133
usemtl _defaultMat.005
f 320/501/133 277/502/133 234/499/133
f 234/501/133 235/502/133 320/499/133
