# Blender 4.3.2
# www.blender.org
mtllib character-skeleton.mtl
o character-skeleton.001
v 0.130000 0.055796 -0.068968
v 0.018408 0.055796 -0.068968
v 0.130000 0.065796 -0.128834
v 0.018408 0.065796 -0.128834
v 0.130000 0.100000 -0.000000
v 0.018408 0.100000 -0.000000
v 0.130000 0.100000 -0.068968
v 0.018408 0.100000 -0.068968
v 0.130000 -0.055796 -0.223184
v 0.130000 0.055796 -0.223184
v 0.018408 -0.055796 -0.223184
v 0.018408 0.055796 -0.223184
v 0.018408 -0.075796 -0.000000
v 0.130000 -0.075796 -0.000000
v 0.018408 -0.072706 -0.034484
v 0.130000 -0.072706 -0.034484
v 0.018408 -0.054251 -0.128834
v 0.130000 -0.054251 -0.128834
v -0.018408 0.055796 -0.068968
v -0.130000 0.055796 -0.068968
v -0.018408 0.065796 -0.128834
v -0.130000 0.065796 -0.128834
v -0.018408 0.100000 -0.000000
v -0.130000 0.100000 -0.000000
v -0.018408 0.100000 -0.068968
v -0.130000 0.100000 -0.068968
v -0.018408 -0.055796 -0.223184
v -0.018408 0.055796 -0.223184
v -0.130000 -0.055796 -0.223184
v -0.130000 0.055796 -0.223184
v -0.130000 -0.075796 -0.000000
v -0.018408 -0.075796 -0.000000
v -0.130000 -0.072706 -0.034484
v -0.018408 -0.072706 -0.034484
v -0.130000 -0.054251 -0.128834
v -0.018408 -0.054251 -0.128834
v -0.130000 -0.052500 -0.458184
v -0.130000 -0.052500 -0.483184
v -0.130000 0.052500 -0.458184
v -0.130000 0.052500 -0.483184
v -0.130000 -0.052500 -0.223184
v -0.130000 0.052500 -0.223184
v -0.025000 -0.075000 -0.223184
v -0.025000 0.075000 -0.223184
v -0.025000 -0.100000 -0.223184
v 0.025000 -0.100000 -0.223184
v 0.025000 -0.075000 -0.223184
v 0.025000 0.075000 -0.223184
v 0.130000 -0.052500 -0.223184
v 0.130000 0.052500 -0.223184
v 0.130000 -0.052500 -0.273184
v 0.130000 0.052500 -0.273184
v 0.130000 -0.052500 -0.483184
v 0.130000 -0.052500 -0.458184
v 0.130000 0.052500 -0.483184
v 0.130000 0.052500 -0.458184
v 0.130000 -0.052500 -0.408184
v 0.130000 -0.052500 -0.383184
v 0.130000 0.052500 -0.408184
v 0.130000 0.052500 -0.383184
v 0.130000 -0.052500 -0.333184
v 0.130000 -0.052500 -0.308184
v 0.130000 0.052500 -0.333184
v 0.130000 0.052500 -0.308184
v -0.130000 -0.052500 -0.383184
v -0.130000 -0.052500 -0.408184
v -0.130000 0.052500 -0.383184
v -0.130000 0.052500 -0.408184
v -0.130000 -0.052500 -0.308184
v -0.130000 -0.052500 -0.333184
v -0.130000 0.052500 -0.308184
v -0.130000 0.052500 -0.333184
v -0.130000 -0.052500 -0.273184
v -0.130000 0.052500 -0.273184
v 0.025000 0.100000 -0.248184
v -0.025000 0.100000 -0.248184
v 0.025000 0.100000 -0.483184
v -0.025000 0.100000 -0.483184
v -0.025000 -0.100000 -0.483184
v 0.025000 -0.100000 -0.483184
v 0.025000 0.075000 -0.483184
v 0.025000 0.075000 -0.458184
v 0.025000 0.075000 -0.408184
v 0.025000 0.075000 -0.383184
v 0.025000 -0.075000 -0.408184
v 0.025000 -0.075000 -0.458184
v 0.025000 0.075000 -0.273184
v 0.025000 -0.075000 -0.383184
v 0.025000 -0.075000 -0.483184
v 0.025000 -0.075000 -0.333184
v 0.025000 -0.075000 -0.308184
v 0.025000 0.075000 -0.333184
v 0.025000 -0.075000 -0.273184
v 0.025000 0.075000 -0.308184
v -0.025000 0.075000 -0.273184
v -0.025000 0.075000 -0.308184
v -0.025000 -0.075000 -0.308184
v -0.025000 -0.075000 -0.273184
v -0.025000 0.075000 -0.333184
v -0.025000 -0.075000 -0.483184
v -0.025000 -0.075000 -0.333184
v -0.025000 -0.075000 -0.458184
v -0.025000 -0.075000 -0.383184
v -0.025000 0.075000 -0.383184
v -0.025000 -0.075000 -0.408184
v -0.025000 0.075000 -0.458184
v -0.025000 0.075000 -0.408184
v -0.025000 0.075000 -0.483184
v 0.407056 -0.015770 -0.504776
v 0.378174 0.095822 -0.504776
v 0.262066 -0.053296 -0.504776
v 0.233184 0.058296 -0.504776
v 0.125796 -0.053296 -0.504776
v 0.125796 0.058296 -0.504776
v 0.100000 0.058296 -0.423184
v 0.100000 0.058296 -0.478980
v 0.233184 0.058296 -0.423184
v 0.436318 -0.008196 -0.423184
v 0.436318 -0.008196 -0.474776
v 0.262066 -0.053296 -0.423184
v 0.407436 0.103396 -0.474776
v 0.407436 0.103396 -0.423184
v 0.100000 -0.053296 -0.423184
v 0.100000 -0.053296 -0.478980
v -0.436318 -0.008196 -0.474776
v -0.407436 0.103396 -0.474776
v -0.436318 -0.008196 -0.423184
v -0.407436 0.103396 -0.423184
v -0.100000 -0.053296 -0.423184
v -0.100000 -0.053296 -0.478980
v -0.262066 -0.053296 -0.423184
v -0.262066 -0.053296 -0.504776
v -0.125796 -0.053296 -0.504776
v -0.100000 0.058296 -0.423184
v -0.100000 0.058296 -0.478980
v -0.125796 0.058296 -0.504776
v -0.233184 0.058296 -0.504776
v -0.378174 0.095822 -0.504776
v -0.407056 -0.015770 -0.504776
v -0.233184 0.058296 -0.423184
v 0.100000 0.130000 -0.483184
v 0.100000 -0.130000 -0.483184
v -0.100000 0.130000 -0.483184
v -0.100000 -0.130000 -0.483184
v -0.100000 -0.130000 -0.528326
v 0.100000 -0.130000 -0.528326
v 0.130000 -0.130000 -0.713184
v 0.130000 -0.130000 -0.528326
v -0.130000 -0.130000 -0.528326
v -0.130000 -0.130000 -0.713184
v 0.100000 -0.130000 -0.743184
v -0.100000 -0.130000 -0.743184
v 0.100000 0.130000 -0.743184
v -0.100000 0.130000 -0.743184
v 0.130000 0.130000 -0.713184
v 0.130000 0.130000 -0.528326
v 0.100000 0.130000 -0.528326
v -0.130000 0.130000 -0.528326
v -0.130000 0.130000 -0.713184
v -0.100000 0.130000 -0.528326
v 0.092483 0.130000 -0.565843
v 0.092483 0.130000 -0.625979
v 0.032347 0.130000 -0.625979
v -0.032347 0.130000 -0.565843
v 0.032347 0.130000 -0.565843
v -0.092483 0.130000 -0.565843
v -0.032347 0.130000 -0.595911
v -0.032415 0.130000 -0.595979
v -0.032415 0.130000 -0.625979
v -0.092483 0.130000 -0.625979
v -0.092483 0.130000 -0.565843
v -0.092483 0.130000 -0.625979
v -0.032347 0.130000 -0.565843
v -0.032415 0.130000 -0.595979
v -0.032415 0.130000 -0.625979
v -0.032347 0.130000 -0.595911
v 0.032347 0.130000 -0.565843
v 0.032347 0.130000 -0.625979
v 0.092483 0.130000 -0.565843
v 0.092483 0.130000 -0.625979
vn -0.0000 0.9996 0.0300
vn -0.0000 0.9863 0.1648
vn -0.0000 0.7071 -0.7071
vn -0.0000 1.0000 -0.0000
vn -0.0000 -0.0000 -1.0000
vn -0.0000 -0.9960 -0.0893
vn -0.0000 -0.9814 -0.1920
vn -0.0000 -0.0000 1.0000
vn -1.0000 -0.0000 -0.0000
vn -0.0000 -0.9999 0.0164
vn 1.0000 -0.0000 -0.0000
vn -0.0000 0.9944 -0.1054
vn -0.7777 0.6287 -0.0000
vn -0.7777 -0.6287 -0.0000
vn 0.7777 0.6287 -0.0000
vn 0.7777 -0.6287 -0.0000
vn -0.0000 0.9239 0.3827
vn -0.0000 -1.0000 -0.0000
vn 0.2095 0.9778 -0.0000
vn -0.2095 0.9778 -0.0000
vn 0.7777 0.6286 -0.0000
vn -0.2095 -0.9778 -0.0000
vn -0.7777 -0.6286 -0.0000
vn 0.2095 -0.9778 -0.0000
vn 0.7777 -0.6286 -0.0000
vn -0.0000 0.7071 0.7071
vn 0.3688 0.0954 -0.9246
vn -0.1263 0.9920 -0.0000
vn 0.1263 -0.9920 -0.0000
vn 0.2506 -0.9681 -0.0000
vn 0.8937 0.2313 -0.3844
vn -0.2506 0.9681 -0.0000
vn -0.9239 -0.0000 -0.3827
vn 0.9681 0.2506 -0.0000
vn -0.7071 -0.0000 -0.7071
vn -0.9681 0.2506 -0.0000
vn -0.8937 0.2313 -0.3844
vn -0.1263 -0.9920 -0.0000
vn 0.9239 -0.0000 -0.3827
vn -0.3688 0.0954 -0.9246
vn -0.2506 -0.9681 -0.0000
vn 0.1263 0.9920 -0.0000
vn 0.2506 0.9681 -0.0000
vn 0.7071 -0.0000 -0.7071
vn -0.3827 -0.0000 -0.9239
vn 0.3827 -0.0000 -0.9239
vn 0.0001 1.0000 -0.0000
vt 0.343750 0.275000
vt 0.343750 0.475000
vt 0.343750 0.455769
vt 0.343750 0.313462
vt 0.343750 0.417308
vt 0.343750 0.398077
vt 0.343750 0.359615
vt 0.343750 0.340385
vt 0.343750 0.294231
vt 0.343750 0.383835
vt 0.343750 0.368978
vt 0.343750 0.309725
vt 0.343750 0.451923
vt 0.343750 0.338584
vt 0.343750 0.384842
vt 0.343750 0.361713
vt 0.343750 0.361765
vt 0.531250 0.125000
s 1
usemtl colormap.020
f 3/1/1 2/1/2 1/1/2
f 2/1/2 3/1/1 4/1/1
f 7/1/3 6/1/4 5/1/4
f 6/1/4 7/1/3 8/1/3
f 11/2/5 10/2/5 9/2/5
f 10/2/5 11/2/5 12/2/5
f 15/1/6 14/1/6 13/1/6
f 14/1/6 15/1/6 16/1/6
f 17/1/7 16/1/7 15/1/7
f 16/1/7 17/1/7 18/1/7
f 6/1/8 14/1/8 5/1/8
f 14/1/8 6/1/8 13/1/8
f 6/1/9 15/1/9 13/1/9
f 15/1/9 6/1/9 17/1/9
f 17/1/9 6/1/9 2/1/9
f 2/1/9 6/1/9 8/1/9
f 12/2/9 17/1/9 2/1/9
f 12/2/9 2/1/9 4/1/9
f 17/1/9 12/2/9 11/2/9
f 11/2/10 18/1/10 17/1/10
f 18/1/10 11/2/10 9/2/10
f 10/2/11 18/1/11 9/2/11
f 1/1/11 18/1/11 10/2/11
f 3/1/11 1/1/11 10/2/11
f 5/1/11 18/1/11 1/1/11
f 5/1/11 1/1/11 7/1/11
f 5/1/11 16/1/11 18/1/11
f 16/1/11 5/1/11 14/1/11
f 10/2/12 4/1/1 3/1/1
f 4/1/1 10/2/12 12/2/12
f 2/1/5 7/1/3 1/1/5
f 7/1/3 2/1/5 8/1/3
f 21/1/1 20/1/2 19/1/2
f 20/1/2 21/1/1 22/1/1
f 25/1/3 24/1/4 23/1/4
f 24/1/4 25/1/3 26/1/3
f 29/2/5 28/2/5 27/2/5
f 28/2/5 29/2/5 30/2/5
f 33/1/6 32/1/6 31/1/6
f 32/1/6 33/1/6 34/1/6
f 35/1/7 34/1/7 33/1/7
f 34/1/7 35/1/7 36/1/7
f 24/1/8 32/1/8 23/1/8
f 32/1/8 24/1/8 31/1/8
f 24/1/9 33/1/9 31/1/9
f 33/1/9 24/1/9 35/1/9
f 35/1/9 24/1/9 20/1/9
f 20/1/9 24/1/9 26/1/9
f 30/2/9 35/1/9 20/1/9
f 30/2/9 20/1/9 22/1/9
f 35/1/9 30/2/9 29/2/9
f 29/2/10 36/1/10 35/1/10
f 36/1/10 29/2/10 27/2/10
f 28/2/11 36/1/11 27/2/11
f 19/1/11 36/1/11 28/2/11
f 21/1/11 19/1/11 28/2/11
f 23/1/11 36/1/11 19/1/11
f 23/1/11 19/1/11 25/1/11
f 23/1/11 34/1/11 36/1/11
f 34/1/11 23/1/11 32/1/11
f 28/2/12 22/1/1 21/1/1
f 22/1/1 28/2/12 30/2/12
f 20/1/5 25/1/3 19/1/5
f 25/1/3 20/1/5 26/1/3
f 39/3/13 38/2/14 37/3/14
f 38/2/14 39/3/13 40/2/13
f 43/1/8 42/1/8 41/1/8
f 42/1/8 43/1/8 44/1/8
s 0
f 45/1/8 44/1/8 43/1/8
s 1
f 46/1/8 44/1/8 45/1/8
f 47/1/8 44/1/8 46/1/8
f 47/1/8 48/1/8 44/1/8
f 49/1/8 48/1/8 47/1/8
f 48/1/8 49/1/8 50/1/8
f 52/4/15 49/1/16 51/4/16
f 49/1/16 52/4/15 50/1/15
f 55/2/15 54/3/16 53/2/16
f 54/3/16 55/2/15 56/3/15
f 59/5/15 58/6/16 57/5/16
f 58/6/16 59/5/15 60/6/15
f 63/7/15 62/8/16 61/7/16
f 62/8/16 63/7/15 64/8/15
f 67/6/13 66/5/14 65/6/14
f 66/5/14 67/6/13 68/5/13
f 71/8/13 70/7/14 69/8/14
f 70/7/14 71/8/13 72/7/13
f 42/1/13 73/4/14 41/1/14
f 73/4/14 42/1/13 74/4/13
f 77/2/4 76/9/17 75/9/17
f 76/9/17 77/2/4 78/2/4
f 79/2/18 46/1/18 45/1/18
f 46/1/18 79/2/18 80/2/18
f 77/2/11 82/3/11 81/2/11
f 82/3/11 77/2/11 83/5/11
f 83/5/11 77/2/11 84/6/11
f 85/5/11 82/3/11 83/5/11
f 75/9/11 84/6/11 77/2/11
f 48/1/11 84/6/11 75/9/11
f 82/3/11 85/5/11 86/3/11
s 0
f 87/4/11 84/6/11 48/1/11
f 47/1/11 86/3/11 85/5/11
f 47/1/11 85/5/11 88/6/11
s 1
f 46/1/11 86/3/11 47/1/11
f 46/1/11 89/2/11 86/3/11
f 89/2/11 46/1/11 80/2/11
s 0
f 47/1/11 88/6/11 90/7/11
s 1
f 84/6/11 90/7/11 88/6/11
s 0
f 47/1/11 90/7/11 91/8/11
s 1
f 90/7/11 84/6/11 92/7/11
s 0
f 47/1/11 91/8/11 93/4/11
f 92/7/11 84/6/11 94/8/11
f 94/8/11 84/6/11 87/4/11
s 1
f 94/8/11 93/4/11 91/8/11
f 93/4/11 94/8/11 87/4/11
f 76/9/9 95/4/9 44/1/9
f 95/4/9 76/9/9 96/8/9
f 97/8/9 95/4/9 96/8/9
f 95/4/9 97/8/9 98/4/9
f 96/8/9 76/9/9 99/7/9
s 0
f 100/2/9 98/4/9 97/8/9
f 100/2/9 43/1/9 98/4/9
f 100/2/9 97/8/9 101/7/9
s 1
f 79/2/9 43/1/9 100/2/9
f 43/1/9 79/2/9 45/1/9
s 0
f 100/2/9 101/7/9 102/3/9
s 1
f 103/6/9 101/7/9 99/7/9
s 0
f 101/7/9 103/6/9 102/3/9
s 1
f 103/6/9 99/7/9 104/6/9
f 99/7/9 76/9/9 104/6/9
s 0
f 105/5/9 102/3/9 103/6/9
s 1
f 102/3/9 105/5/9 106/3/9
f 106/3/9 105/5/9 107/5/9
f 104/6/9 76/9/9 107/5/9
f 107/5/9 76/9/9 106/3/9
f 106/3/9 76/9/9 108/2/9
f 108/2/9 76/9/9 78/2/9
f 59/5/15 84/6/19 60/6/15
f 84/6/19 59/5/15 83/5/19
f 70/7/5 99/7/5 101/7/5
f 99/7/5 70/7/5 72/7/5
f 67/6/8 103/6/8 104/6/8
f 103/6/8 67/6/8 65/6/8
f 71/8/8 97/8/8 96/8/8
f 97/8/8 71/8/8 69/8/8
f 99/7/20 71/8/13 96/8/20
f 71/8/13 99/7/20 72/7/13
f 63/7/15 94/8/19 64/8/15
f 94/8/19 63/7/21 92/7/19
f 107/5/20 67/6/13 104/6/20
f 67/6/13 107/5/20 68/5/13
f 108/2/5 38/2/5 40/2/5
f 38/2/5 108/2/5 100/2/5
s 0
f 78/2/5 100/2/5 108/2/5
f 78/2/5 79/2/5 100/2/5
s 1
f 77/2/5 79/2/5 78/2/5
f 81/2/5 79/2/5 77/2/5
f 89/2/5 79/2/5 81/2/5
f 79/2/5 89/2/5 80/2/5
f 55/2/5 89/2/5 81/2/5
f 89/2/5 55/2/5 53/2/5
f 94/8/8 62/8/8 64/8/8
f 62/8/8 94/8/8 91/8/8
f 55/2/15 82/3/19 56/3/15
f 82/3/19 55/2/15 81/2/19
f 66/5/5 107/5/5 105/5/5
f 107/5/5 66/5/5 68/5/5
f 39/3/8 102/3/8 106/3/8
f 102/3/8 39/3/8 37/3/8
f 85/5/5 59/5/5 57/5/5
f 59/5/5 85/5/5 83/5/5
f 82/3/8 54/3/8 56/3/8
f 54/3/8 82/3/8 86/3/8
f 90/7/5 63/7/5 61/7/5
f 63/7/5 90/7/5 92/7/5
f 84/6/8 58/6/8 60/6/8
f 58/6/8 84/6/8 88/6/8
f 108/2/20 39/3/13 106/3/20
f 39/3/13 108/2/20 40/2/13
f 38/2/14 102/3/22 37/3/14
f 102/3/22 38/2/23 100/2/22
f 90/7/24 62/8/25 91/8/24
f 62/8/16 90/7/24 61/7/16
f 89/2/24 54/3/16 86/3/24
f 54/3/16 89/2/24 53/2/16
f 66/5/14 103/6/22 65/6/14
f 103/6/22 66/5/23 105/5/22
f 85/5/24 58/6/25 88/6/24
f 58/6/16 85/5/24 57/5/16
f 70/7/14 97/8/22 69/8/14
f 97/8/22 70/7/23 101/7/22
f 52/4/15 48/1/19 50/1/15
f 48/1/19 52/4/21 87/4/19
f 73/4/5 95/4/5 98/4/5
f 95/4/5 73/4/5 74/4/5
f 95/4/20 42/1/13 44/1/20
f 42/1/13 95/4/20 74/4/13
f 75/9/17 44/1/26 48/1/26
f 44/1/26 75/9/17 76/9/17
f 93/4/5 52/4/5 51/4/5
f 52/4/5 93/4/5 87/4/5
f 93/4/24 49/1/25 47/1/24
f 49/1/16 93/4/24 51/4/16
f 73/4/14 43/1/22 41/1/14
f 43/1/22 73/4/23 98/4/22
f 111/2/5 110/2/27 109/2/27
f 110/2/27 111/2/5 112/2/5
f 112/2/5 111/2/5 113/2/5
f 112/2/5 113/2/5 114/2/5
f 117/1/28 116/10/4 115/1/4
f 116/10/4 117/1/28 112/2/28
f 116/10/4 112/2/28 114/2/4
f 120/1/29 119/11/30 118/1/30
f 119/11/30 120/1/29 111/2/29
f 119/11/30 111/2/29 109/2/30
f 109/2/27 121/11/31 119/11/31
f 121/11/31 109/2/27 110/2/27
f 121/11/32 117/1/28 122/1/32
f 117/1/28 121/11/32 112/2/28
f 112/2/28 121/11/32 110/2/32
f 115/1/9 124/10/33 123/1/9
f 124/10/33 115/1/9 116/10/33
f 121/11/31 118/1/34 119/11/31
f 118/1/34 121/11/31 122/1/34
f 116/10/33 113/2/35 124/10/33
f 113/2/35 116/10/33 114/2/35
f 124/10/18 120/1/29 123/1/18
f 120/1/29 124/10/18 111/2/29
f 111/2/29 124/10/18 113/2/18
f 122/1/8 120/1/8 118/1/8
f 120/1/8 122/1/8 117/1/8
f 120/1/8 117/1/8 123/1/8
f 123/1/8 117/1/8 115/1/8
f 127/1/36 126/11/37 125/11/37
f 126/11/37 127/1/36 128/1/36
f 131/1/38 130/10/18 129/1/18
f 130/10/18 131/1/38 132/2/38
f 130/10/18 132/2/38 133/2/18
f 130/10/39 134/1/11 129/1/11
f 134/1/11 130/10/39 135/10/39
f 132/2/5 136/2/5 133/2/5
f 136/2/5 132/2/5 137/2/5
f 137/2/5 132/2/5 138/2/40
f 138/2/40 132/2/5 139/2/40
f 125/11/41 131/1/38 127/1/41
f 131/1/38 125/11/41 132/2/38
f 132/2/38 125/11/41 139/2/41
f 140/1/8 129/1/8 134/1/8
f 129/1/8 140/1/8 131/1/8
f 131/1/8 140/1/8 128/1/8
f 131/1/8 128/1/8 127/1/8
f 140/1/42 126/11/43 128/1/43
f 126/11/43 140/1/42 137/2/42
f 126/11/43 137/2/42 138/2/43
f 133/2/44 135/10/39 130/10/39
f 135/10/39 133/2/44 136/2/44
f 135/10/4 140/1/42 134/1/4
f 140/1/42 135/10/4 137/2/42
f 137/2/42 135/10/4 136/2/4
f 139/2/40 126/11/37 138/2/40
f 126/11/37 139/2/40 125/11/37
f 143/1/8 142/1/8 141/1/8
f 142/1/8 143/1/8 144/1/8
f 145/12/18 142/1/18 144/1/18
f 142/1/18 145/12/18 146/12/18
f 147/13/18 146/12/18 145/12/18
f 146/12/18 147/13/18 148/12/18
f 147/13/18 145/12/18 149/12/18
f 147/13/18 149/12/18 150/13/18
f 147/13/18 150/13/18 151/2/18
f 151/2/18 150/13/18 152/2/18
f 152/2/45 153/2/46 151/2/46
f 153/2/46 152/2/45 154/2/45
f 155/13/39 148/12/11 147/13/39
f 148/12/11 155/13/39 156/12/11
f 157/12/11 142/1/11 146/12/11
f 142/1/11 157/12/11 141/1/11
f 157/12/8 148/12/8 156/12/8
f 148/12/8 157/12/8 146/12/8
f 158/12/9 150/13/33 149/12/9
f 150/13/33 158/12/9 159/13/33
f 143/1/9 145/12/9 144/1/9
f 145/12/9 143/1/9 160/12/9
f 158/12/8 145/12/8 160/12/8
f 145/12/8 158/12/8 149/12/8
f 151/2/46 155/13/39 147/13/39
f 155/13/39 151/2/46 153/2/46
f 150/13/33 154/2/45 152/2/45
f 154/2/45 150/13/33 159/13/33
f 155/13/4 157/12/4 156/12/4
f 157/12/4 155/13/4 161/14/4
f 157/12/4 161/14/4 160/12/4
f 160/12/4 141/1/4 157/12/4
f 141/1/4 160/12/4 143/1/4
f 160/12/4 161/14/4 158/12/4
f 161/14/4 155/13/4 162/15/4
f 162/15/4 155/13/4 163/15/4
f 158/12/4 161/14/4 164/14/4
s 0
f 165/14/4 164/14/4 161/14/4
s 1
f 166/14/4 158/12/4 164/14/4
f 164/14/4 165/14/4 167/16/4
f 167/16/4 165/14/4 163/15/4
f 167/16/4 163/15/4 168/17/4
f 168/17/4 163/15/4 169/15/4
f 163/15/4 155/13/4 169/15/4
f 158/12/4 166/14/4 159/13/4
f 169/15/4 155/13/4 170/15/4
f 159/13/4 166/14/4 170/15/4
f 159/13/4 170/15/4 155/13/4
f 159/13/4 155/13/4 153/2/4
f 159/13/4 153/2/4 154/2/4
f 173/18/4 172/18/4 171/18/4
f 172/18/4 173/18/4 174/18/47
f 172/18/4 174/18/47 175/18/4
f 174/18/47 173/18/4 176/18/4
f 179/18/4 178/18/4 177/18/4
f 178/18/4 179/18/4 180/18/4
