# Blender 4.3.2
# www.blender.org
mtllib wall.mtl
o wall.014
v 0.000000 0.050000 0.000000
v 0.000000 0.000000 0.000000
v -1.000000 0.050000 0.000000
v -1.000000 0.000000 0.000000
v 0.000000 0.000000 -1.289532
v 0.000000 0.050000 -1.289532
v -1.000000 0.000000 -1.289532
v -1.000000 0.050000 -1.289532
vn 0.5773 -0.5774 0.5773
vn 0.5774 0.5774 0.5774
vn -0.5773 0.5774 0.5773
vn -0.5774 -0.5774 0.5774
vn 0.5773 0.5774 -0.5773
vn 0.5774 -0.5774 -0.5774
vn -0.5773 -0.5774 -0.5773
vn -0.5774 0.5774 -0.5774
vt 0.000000 0.000000
vt 0.000000 1.968504
vt -39.370079 1.968504
vt -39.370079 0.000000
vt 39.370079 0.000000
vt 39.370079 1.968504
vt 0.000000 50.768970
vt -39.370079 50.768970
s 1
usemtl wood.025
f 2/1/1 1/2/2 3/3/3
f 3/3/3 4/4/4 2/1/1
f 6/2/5 5/1/6 7/5/7
f 7/5/7 8/6/8 6/2/5
usemtl _defaultMat.004
f 2/3/1 5/4/6 6/1/5
f 6/3/5 1/4/2 2/1/1
f 7/5/7 4/6/4 3/2/3
f 3/5/3 8/6/8 7/2/7
f 2/7/1 4/8/4 7/4/7
f 7/7/7 5/8/6 2/4/1
usemtl metalDark.010
f 3/4/3 1/1/2 6/7/5
f 6/7/5 8/8/8 3/4/3
