# Blender 4.3.2
# www.blender.org
mtllib debris-wood.mtl
o debris-wood.002
v 0.010554 0.268177 -0.039360
v -0.121802 0.211449 -0.039360
v 0.010554 0.268177 -0.078720
v -0.121802 0.211449 -0.078720
v -0.228001 0.124177 0.000000
v -0.228001 0.124177 -0.039360
v -0.228001 0.268177 0.000000
v -0.228001 0.268177 -0.039360
v -0.233453 -0.040177 0.000000
v -0.233453 -0.040177 -0.039360
v -0.161454 0.084531 0.000000
v -0.161454 0.084531 -0.039360
v 0.227999 0.268177 0.000000
v 0.227999 0.268177 -0.039360
v 0.233453 -0.143469 0.000000
v 0.161454 -0.268177 0.000000
v 0.227999 0.124177 0.000000
v 0.227999 0.124177 -0.039360
v -0.084396 0.124177 -0.039360
v 0.072273 0.124177 -0.039360
v 0.057836 -0.207676 -0.039360
v 0.057836 -0.207676 -0.078720
v -0.036479 0.012376 -0.039360
v 0.233453 -0.143469 -0.039360
v 0.171706 -0.107819 -0.039360
v 0.190192 -0.150949 -0.039360
v 0.190192 -0.150949 -0.078720
v 0.161454 -0.268177 -0.039360
vn 0.3032 0.7581 -0.5773
vn -0.3959 0.1583 -0.9045
vn -0.7581 0.3032 -0.5774
vn -0.2113 0.7887 0.5773
vn -0.7886 -0.2113 -0.5774
vn -0.7887 -0.2113 0.5774
vn -0.2125 0.7889 -0.5766
vn -0.5773 0.5774 0.5773
vn 0.5773 0.5774 -0.5774
vn -0.5774 0.5774 -0.5773
vn 0.2113 -0.7887 0.5773
vn 0.7887 0.2113 0.5774
vn -0.5773 -0.5774 -0.5774
vn 0.5773 -0.5774 0.5773
vn -0.5774 -0.5774 0.5774
vn 0.5774 -0.5774 -0.5774
vn -0.0000 -1.0000 -0.0000
vn -0.3032 -0.7581 -0.5773
vn -0.6416 -0.0953 -0.7611
vn -0.9191 -0.3939 -0.0000
vn 0.5774 0.5774 0.5774
vn 0.7312 -0.3510 -0.5849
vn 0.6511 0.2714 0.7088
vn 0.9191 0.3939 -0.0000
vn 0.3959 -0.1583 -0.9045
vn -0.1584 -0.3959 -0.9045
vn 0.7581 -0.3032 -0.5774
vn 0.2113 -0.7887 -0.5773
vn -0.0000 1.0000 -0.0000
vt 0.093750 0.475000
vt 0.093750 0.375000
vt 0.093750 0.275000
s 1
usemtl colormap.013
f 3/1/1 2/2/2 1/2/1
f 2/2/2 3/1/1 4/1/3
f 11/3/4 10/2/5 9/3/6
f 10/2/5 11/3/4 12/2/7
f 7/3/8 14/2/9 8/2/10
f 11/3/4 16/3/11 15/3/12
f 16/3/11 11/3/4 9/3/6
f 6/2/13 17/3/14 5/3/15
f 17/3/14 6/2/13 18/2/16
s 0
f 18/2/17 6/2/17 19/2/17
s 1
f 22/1/18 23/2/19 4/1/3
f 4/1/3 23/2/19 19/2/20
f 7/3/8 17/3/14 13/3/21
f 17/3/14 7/3/8 5/3/15
f 24/2/22 11/3/4 15/3/12
f 11/3/4 24/2/22 12/2/7
f 12/2/7 25/2/23 23/2/19
f 20/2/24 14/2/9 18/2/16
f 22/1/18 26/2/25 21/2/26
f 26/2/25 22/1/18 27/1/27
f 3/1/1 22/1/18 4/1/3
f 26/2/25 28/2/28 21/2/26
f 28/2/28 26/2/25 24/2/22
f 25/2/23 24/2/22 26/2/25
f 20/2/24 23/2/19 25/2/23
f 23/2/19 20/2/24 19/2/20
f 24/2/22 16/3/11 28/2/28
f 25/2/23 3/1/1 20/2/24
f 20/2/24 3/1/1 1/2/1
f 16/3/11 10/2/5 28/2/28
f 7/3/8 6/2/13 5/3/15
f 6/2/13 7/3/8 8/2/10
f 14/2/9 7/3/8 13/3/21
s 0
f 8/2/29 14/2/29 1/2/29
f 18/2/17 19/2/17 20/2/17
s 1
f 14/2/9 17/3/14 18/2/16
f 17/3/14 14/2/9 13/3/21
f 23/2/19 22/1/18 21/2/26
f 4/1/3 19/2/20 2/2/2
f 12/2/7 24/2/22 25/2/23
f 6/2/13 2/2/2 19/2/20
f 8/2/10 2/2/2 6/2/13
f 2/2/2 8/2/10 1/2/1
f 14/2/9 20/2/24 1/2/1
f 22/1/18 3/1/1 27/1/27
f 23/2/19 10/2/5 12/2/7
f 21/2/26 10/2/5 23/2/19
f 21/2/26 28/2/28 10/2/5
f 16/3/11 24/2/22 15/3/12
f 3/1/1 26/2/25 27/1/27
f 26/2/25 3/1/1 25/2/23
f 10/2/5 16/3/11 9/3/6
