# Blender 4.3.2
# www.blender.org
mtllib hay-bale.mtl
o hay-bale.001
v 0.300000 0.200000 0.000000
v 0.300000 -0.200000 0.000000
v -0.300000 0.200000 0.000000
v -0.300000 -0.200000 0.000000
v 0.250000 -0.150000 -0.350000
v 0.250000 0.150000 -0.350000
v -0.250000 -0.150000 -0.350000
v -0.250000 0.150000 -0.350000
v 0.250000 0.250000 -0.050000
v -0.250000 0.250000 -0.050000
v 0.250000 0.250000 -0.250000
v -0.250000 0.250000 -0.250000
v 0.350000 -0.150000 -0.250000
v 0.350000 -0.150000 -0.050000
v 0.350000 0.150000 -0.250000
v 0.350000 0.150000 -0.050000
v 0.300000 0.200000 -0.300000
v -0.300000 0.200000 -0.300000
v 0.300000 -0.200000 -0.300000
v -0.300000 -0.200000 -0.300000
v -0.350000 -0.150000 -0.050000
v -0.350000 -0.150000 -0.250000
v -0.350000 0.150000 -0.050000
v -0.350000 0.150000 -0.250000
v 0.250000 -0.250000 -0.250000
v -0.250000 -0.250000 -0.250000
v 0.250000 -0.250000 -0.050000
v -0.250000 -0.250000 -0.050000
vn -0.0608 0.2631 0.9628
vn 0.5699 -0.0014 0.8217
vn -0.0930 0.5674 0.8181
vn 0.0928 -0.5675 0.8182
vn 0.1982 -0.0110 -0.9801
vn 0.3005 -0.2971 -0.9063
vn -0.3203 -0.2981 -0.8992
vn -0.3034 0.8798 0.3660
vn -0.6124 0.5000 0.6124
vn 0.4428 0.8520 0.2795
vn 0.1791 0.9674 -0.1791
vn 0.3075 0.9032 -0.2995
vn -0.5419 0.8388 0.0520
vn 0.9018 0.2990 -0.3120
vn 0.5162 0.6056 -0.6056
vn 0.8683 0.2891 0.4031
vn 0.8423 -0.4455 0.3036
vn 0.9645 -0.1867 -0.1867
vn -0.6163 0.6163 -0.4904
vn 0.0775 -0.6306 -0.7722
vn -0.9830 -0.1832 -0.0135
vn -0.9057 -0.3003 0.2992
vn -0.8980 0.3240 0.2977
vn -0.9018 -0.3120 -0.2990
vn -0.3034 -0.8798 -0.3660
vn -0.6124 -0.5000 -0.6124
vn -0.3056 -0.8790 0.3660
vn 0.2894 -0.9086 0.3012
vt 0.343750 0.275000
vt 0.343750 0.475000
vt 0.343750 0.303571
vt 0.343750 0.417857
vt 0.343750 0.446429
s 1
usemtl colormap.023
f 3/1/1 2/1/2 1/1/3
f 2/1/2 3/1/1 4/1/4
f 7/2/5 6/2/6 5/2/7
f 9/3/8 3/1/1 1/1/3
f 3/1/1 9/3/8 10/3/9
f 11/4/10 1/1/3 17/5/11
f 17/5/11 12/4/12 11/4/10
f 18/5/13 10/3/9 12/4/12
f 17/5/11 16/3/14 15/4/15
f 14/3/16 1/1/3 2/1/2
f 1/1/3 14/3/16 16/3/14
f 13/4/17 2/1/2 19/5/18
f 2/1/2 13/4/17 14/3/16
f 6/2/6 18/5/13 17/5/11
f 18/5/13 6/2/6 8/2/19
f 17/5/11 5/2/7 6/2/6
f 20/5/20 5/2/7 19/5/18
f 5/2/7 20/5/20 7/2/5
f 20/5/20 8/2/19 7/2/5
f 8/2/19 20/5/20 18/5/13
f 23/3/21 22/4/22 21/3/23
f 22/4/22 23/3/21 24/4/24
f 24/4/24 3/1/1 18/5/13
f 20/5/20 21/3/23 22/4/22
f 22/4/22 18/5/13 20/5/20
f 18/5/13 22/4/22 24/4/24
f 25/4/25 20/5/20 19/5/18
f 20/5/20 25/4/25 26/4/26
f 27/3/27 4/1/4 28/3/28
f 26/4/26 27/3/27 28/3/28
f 27/3/27 26/4/26 25/4/25
f 6/2/6 7/2/5 8/2/19
f 11/4/10 10/3/9 9/3/8
f 10/3/9 11/4/10 12/4/12
f 15/4/15 14/3/16 13/4/17
f 14/3/16 15/4/15 16/3/14
f 1/1/3 11/4/10 9/3/8
f 12/4/12 17/5/11 18/5/13
f 10/3/9 18/5/13 3/1/1
f 16/3/14 17/5/11 1/1/3
f 17/5/11 13/4/17 19/5/18
f 13/4/17 17/5/11 15/4/15
f 5/2/7 17/5/11 19/5/18
f 3/1/1 24/4/24 23/3/21
f 21/3/23 20/5/20 4/1/4
f 3/1/1 21/3/23 4/1/4
f 21/3/23 3/1/1 23/3/21
f 4/1/4 27/3/27 2/1/2
f 19/5/18 27/3/27 25/4/25
f 27/3/27 19/5/18 2/1/2
f 4/1/4 26/4/26 28/3/28
f 26/4/26 4/1/4 20/5/20
