# Blender 4.3.2
# www.blender.org
mtllib pine.mtl
o pine.004
v 0.106030 0.183649 0.000000
v -0.106030 0.183649 0.000000
v 0.084671 0.146655 -0.190000
v -0.084671 0.146655 -0.190000
v 0.169343 -0.000000 -0.190000
v 0.212060 -0.000000 0.000000
v -0.169343 -0.000000 -0.190000
v -0.212060 -0.000000 0.000000
v 0.106030 -0.183649 0.000000
v -0.106030 -0.183649 0.000000
v -0.084671 -0.146655 -0.190000
v 0.084671 -0.146655 -0.190000
v 0.152561 -0.000000 -0.370500
v 0.076280 0.132122 -0.370500
v 0.076280 -0.132122 -0.370500
v -0.152561 -0.000000 -0.370500
v -0.076280 0.132122 -0.370500
v -0.076280 -0.132122 -0.370500
v 0.413172 -0.238545 -0.755657
v 0.206586 -0.357818 -0.755657
v 0.413172 -0.000000 -0.755657
v 0.413172 0.238545 -0.755657
v -0.000000 -0.477090 -0.755657
v 0.206586 0.357818 -0.755657
v -0.206586 -0.357818 -0.755657
v 0.000000 0.477090 -0.755657
v -0.413172 -0.238545 -0.755657
v -0.206586 0.357818 -0.755657
v -0.413172 0.000000 -0.755657
v -0.413172 0.238545 -0.755657
v 0.374707 0.000000 -1.171790
v 0.281030 -0.162253 -1.171790
v 0.281030 0.162253 -1.171790
v 0.187353 0.324505 -1.171790
v 0.187353 -0.324505 -1.171790
v 0.000000 0.324505 -1.171790
v 0.000000 -0.324505 -1.171790
v -0.187353 0.324505 -1.171790
v -0.187353 -0.324505 -1.171790
v -0.281030 0.162253 -1.171790
v -0.281030 -0.162253 -1.171790
v -0.374707 0.000000 -1.171790
v 0.589000 0.000000 -0.370500
v 0.441750 -0.255044 -0.370500
v 0.441750 0.255044 -0.370500
v 0.294500 0.510089 -0.370500
v 0.294500 -0.510089 -0.370500
v 0.000000 0.510089 -0.370500
v 0.000000 -0.510089 -0.370500
v -0.294500 0.510089 -0.370500
v -0.294500 -0.510089 -0.370500
v -0.441750 0.255044 -0.370500
v -0.441750 -0.255044 -0.370500
v -0.589000 0.000000 -0.370500
v 0.201368 -0.201368 -1.630344
v 0.063831 -0.238221 -1.630344
v 0.238221 -0.063831 -1.630344
v 0.275073 0.073706 -1.630344
v -0.073706 -0.275073 -1.630344
v 0.174390 0.174389 -1.630344
v -0.174389 -0.174390 -1.630344
v 0.073706 0.275073 -1.630344
v -0.275073 -0.073706 -1.630344
v -0.063831 0.238220 -1.630344
v -0.238220 0.063831 -1.630344
v -0.201368 0.201368 -1.630344
v -0.220306 -0.000000 -1.630344
v -0.110153 0.190790 -1.630344
v -0.290425 -0.000000 -1.371230
v -0.145212 0.251515 -1.371230
v 0.145212 -0.251515 -1.371230
v 0.290425 -0.000000 -1.371230
v 0.374707 -0.000000 -1.171790
v -0.374707 -0.000000 -1.171790
v -0.281030 0.162253 -1.171790
v -0.187353 0.324505 -1.171790
v -0.187353 -0.324505 -1.171790
v -0.145212 -0.251515 -1.371230
v 0.145212 0.251515 -1.371230
v 0.281030 0.162253 -1.171790
v -0.000000 -0.324505 -1.171790
v -0.000000 0.324505 -1.171790
v 0.220306 -0.000000 -1.630344
v 0.110153 0.190790 -1.630344
v -0.110153 -0.190790 -1.630344
v 0.110153 -0.190790 -1.630344
v 0.367632 0.212253 -1.121790
v 0.367632 -0.212253 -1.121790
v -0.367632 -0.212253 -1.121790
v -0.000000 0.424505 -1.121790
v -0.367632 0.212253 -1.121790
v -0.000000 -0.424505 -1.121790
v 0.242921 -0.140251 -1.171790
v 0.320239 -0.184890 -0.936647
v 0.242921 0.140251 -1.171790
v 0.320239 0.184890 -0.936647
v -0.000000 -0.369780 -0.936647
v -0.000000 -0.280501 -1.171790
v -0.320239 0.184890 -0.936647
v 0.000000 0.369780 -0.936647
v -0.320239 -0.184890 -0.936647
v -0.413172 0.000000 -0.755657
v -0.242921 0.140251 -1.171790
v 0.000000 0.280501 -1.171790
v -0.000000 -0.477090 -0.755657
v -0.270248 -0.468083 -0.710282
v -0.540496 0.000000 -0.710282
v 0.270248 -0.468083 -0.710282
v -0.242921 -0.140251 -1.171790
v -0.270248 0.468083 -0.710282
v 0.540496 0.000000 -0.710282
v 0.270248 0.468083 -0.710282
v 0.589000 0.000000 -0.370500
v 0.577880 0.333639 -0.291905
v 0.441750 0.255044 -0.370500
v 0.577880 -0.333639 -0.291905
v -0.441750 -0.255044 -0.370500
v -0.577880 -0.333639 -0.291905
v -0.589000 0.000000 -0.370500
v -0.000000 0.667279 -0.291905
v -0.000000 0.510089 -0.370500
v -0.577880 0.333639 -0.291905
v -0.441750 0.255044 -0.370500
v -0.000000 -0.510089 -0.370500
v 0.000000 -0.667279 -0.291905
v -0.456518 0.000000 -0.540686
v -0.228259 0.395356 -0.540686
v -0.228259 -0.395356 -0.540686
v 0.228259 0.395356 -0.540686
v 0.228259 -0.395356 -0.540686
v -0.173149 -0.299903 -0.755657
v 0.173149 -0.299903 -0.755657
v 0.456518 -0.000000 -0.540686
v 0.346298 -0.000000 -0.755657
v 0.173149 0.299903 -0.755657
v -0.346298 -0.000000 -0.755657
v -0.173149 0.299903 -0.755657
v -0.127981 0.127981 -1.772446
v -0.000000 -0.000000 -2.289848
v 0.046844 0.174826 -1.772446
v -0.174826 -0.046844 -1.772446
v -0.046844 -0.174826 -1.772446
v 0.127981 -0.127981 -1.772446
v 0.174826 0.046844 -1.772446
v -0.275073 -0.073706 -1.630344
v -0.238220 0.063831 -1.630344
v -0.201368 0.201368 -1.630344
v 0.201368 -0.201368 -1.630344
v 0.238220 -0.063831 -1.630344
v 0.275073 0.073706 -1.630344
v -0.063831 0.238220 -1.630344
v 0.073706 0.275073 -1.630344
v 0.174389 0.174389 -1.630344
v -0.073706 -0.275073 -1.630344
v 0.063831 -0.238220 -1.630344
v -0.174389 -0.174389 -1.630344
v -0.228130 -0.228130 -1.592344
v 0.228130 0.228130 -1.592344
v 0.311631 -0.083501 -1.592344
v 0.083501 -0.311631 -1.592344
v -0.083501 0.311631 -1.592344
v -0.311631 0.083501 -1.592344
vn 0.0844 0.9625 0.2580
vn -0.0000 0.8138 0.5811
vn 0.4835 0.8375 0.2544
vn -0.4523 0.7834 0.4263
vn 0.9994 -0.0000 -0.0342
vn 0.8079 0.5603 -0.1828
vn -0.8658 0.4661 0.1819
vn -0.9059 -0.0000 0.4236
vn 0.7048 -0.4069 0.5811
vn -0.1422 -0.8056 0.5752
vn -0.0844 -0.9625 0.2580
vn 0.4523 -0.7834 0.4263
vn 0.3723 0.6448 -0.6676
vn -0.3098 0.6816 -0.6629
vn -0.3723 -0.6448 -0.6676
vn -0.7453 -0.0000 -0.6668
vn -0.0000 -0.0000 1.0000
vn 0.4514 -0.5754 -0.6820
vn 0.9640 -0.0000 -0.2660
vn 0.9679 -0.0686 -0.2419
vn -0.7087 0.0526 -0.7035
vn -0.9638 -0.0000 -0.2667
vn -0.9800 -0.0000 -0.1989
vn -0.5269 0.7771 -0.3443
vn -0.6012 0.7732 -0.2017
vn -0.3644 -0.4322 -0.8249
vn -0.4816 -0.8342 -0.2685
vn -0.5601 -0.8122 -0.1630
vn 0.9029 0.2102 -0.3750
vn 0.4817 0.8343 -0.2684
vn 0.4943 0.8560 -0.1513
vn 0.5722 -0.8028 -0.1677
vn 0.4818 -0.8346 -0.2670
vn 0.2119 0.9766 -0.0355
vn 0.4826 0.8360 -0.2612
vn -0.4826 -0.8360 -0.2612
vn -0.4827 0.8359 -0.2612
vn 0.4827 -0.8359 -0.2612
vn 0.9653 -0.0000 -0.2612
vn 0.3873 0.2236 -0.8944
vn -0.7352 -0.4244 0.5286
vn -0.6459 -0.3729 0.6661
vn -0.3873 -0.2236 0.8944
vn -0.7352 0.4244 0.5286
vn -0.3873 0.2236 0.8944
vn -0.6459 0.3729 0.6661
vn -0.3873 -0.2236 -0.8944
vn -0.0000 -0.8489 0.5286
vn -0.0000 -0.4472 0.8944
vn -0.0000 -0.7458 0.6661
vn -0.3873 0.2236 -0.8944
vn 0.7725 -0.3821 -0.5073
vn 0.8096 0.4674 -0.3550
vn 0.8060 0.3690 -0.4628
vn -0.0000 -0.9349 -0.3550
vn -0.0000 -0.8520 -0.5235
vn 0.8096 -0.4674 -0.3550
vn -0.1678 -0.2907 -0.9420
vn -0.4992 -0.3670 -0.7849
vn 0.0675 -0.9272 -0.3684
vn 0.3887 0.6732 0.6291
vn 0.1678 0.2907 0.9420
vn 0.3294 0.5706 0.7523
vn -0.7583 -0.5171 -0.3970
vn -0.8619 -0.4115 -0.2964
vn 0.6860 0.7057 -0.1773
vn -0.0919 0.9494 -0.3002
vn -0.0000 0.9316 -0.3634
vn -0.3357 -0.0000 -0.9420
vn -0.5893 0.2735 -0.7602
vn 0.5169 -0.7670 -0.3803
vn 0.8298 -0.4791 -0.2863
vn 0.1678 -0.2907 -0.9420
vn -0.3887 0.6732 0.6291
vn -0.3294 0.5706 0.7522
vn -0.1678 0.2907 0.9420
vn -0.7725 0.3821 -0.5073
vn -0.8096 -0.4674 -0.3550
vn 0.9112 -0.3188 -0.2610
vn 0.8298 0.4791 -0.2863
vn -0.3294 0.5706 -0.7522
vn -0.1678 0.2907 -0.9420
vn -0.3887 0.6732 -0.6291
vn 0.3887 -0.6732 0.6291
vn 0.3294 -0.5706 0.7522
vn 0.1678 -0.2907 0.9420
vn -0.0000 0.9349 -0.3550
vn -0.3887 -0.6732 0.6291
vn -0.3295 -0.5706 0.7522
vn -0.1678 -0.2907 0.9420
vn 0.4251 0.4384 -0.7919
vn 0.4315 0.7473 -0.5054
vn -0.6365 -0.3675 0.6781
vn -0.5714 -0.3299 0.7514
vn -0.6365 0.3675 0.6781
vn -0.5714 0.3299 0.7514
vn 0.6365 0.3675 0.6781
vn 0.3873 0.2236 0.8944
vn 0.5714 0.3299 0.7514
vn 0.1675 0.7672 -0.6191
vn -0.0000 0.4472 -0.8944
vn 0.6365 -0.3675 0.6781
vn 0.3873 -0.2236 0.8944
vn 0.5714 -0.3299 0.7514
vn -0.0000 -0.4472 -0.8944
vn -0.1671 -0.5874 -0.7919
vn 0.4439 -0.7406 -0.5045
vn -0.6460 0.6271 -0.4353
vn -0.8853 -0.0000 -0.4650
vn -0.8854 -0.0000 -0.4648
vn -0.4859 0.6596 -0.5734
vn -0.6280 -0.1360 -0.7662
vn -0.4412 -0.7642 -0.4705
vn -0.4940 -0.7241 -0.4814
vn 0.3516 0.7847 -0.5106
vn 0.8899 -0.0000 -0.4562
vn 0.4449 0.7706 -0.4562
vn 0.8780 -0.0670 -0.4739
vn 0.8132 0.0947 -0.5742
vn -0.4449 -0.7706 -0.4562
vn 0.4449 -0.7706 -0.4562
vn 0.3875 -0.6712 -0.6319
vn -0.4449 0.7706 -0.4562
vn -0.8899 -0.0000 -0.4562
vn 0.6460 -0.6271 -0.4353
vn 0.2058 0.7679 -0.6066
vn -0.0000 -0.0000 -1.0000
vn -0.5020 0.6955 -0.5142
vn -0.3532 -0.7814 -0.5145
vn -0.7691 -0.2061 -0.6050
vn 0.4983 -0.6840 -0.5327
vn 0.8533 0.0867 -0.5142
vn -0.7956 0.4536 -0.4016
vn -0.8447 -0.2957 -0.4461
vn -0.5836 0.6785 -0.4461
vn 0.6055 -0.6388 -0.4747
vn 0.5639 -0.4067 -0.7187
vn 0.8794 0.1662 -0.4461
vn 0.0363 0.6533 -0.7562
vn 0.1564 0.8826 -0.4433
vn 0.7584 0.5684 -0.3188
vn 0.0049 -0.9158 -0.4016
vn -0.1564 -0.8826 -0.4433
vn -0.5559 -0.6750 -0.4851
vn -0.3162 -0.3162 -0.8944
vn 0.5301 0.5301 0.6618
vn 0.4743 0.4743 0.7417
vn 0.3162 0.3162 0.8944
vn -0.5301 -0.5301 0.6618
vn -0.4742 -0.4743 0.7417
vn -0.3162 -0.3162 0.8944
vn 0.4320 -0.1157 -0.8944
vn -0.1940 0.7241 0.6618
vn -0.1157 0.4320 0.8944
vn -0.1736 0.6478 0.7417
vn 0.1940 -0.7241 0.6618
vn 0.1157 -0.4320 0.8944
vn 0.1736 -0.6479 0.7417
vn 0.7241 -0.1940 0.6618
vn 0.6479 -0.1736 0.7417
vn 0.4320 -0.1157 0.8944
vn 0.7453 -0.0000 -0.6668
vn 0.3098 -0.6816 -0.6629
vn -0.9653 -0.0000 -0.2612
vn -0.2119 -0.9766 -0.0355
vn 0.3873 -0.2236 -0.8944
vn -0.0000 0.8489 0.5286
vn -0.0000 0.7458 0.6661
vn -0.0000 0.4472 0.8944
vn -0.1795 0.9485 -0.2610
vn -0.8298 0.4791 -0.2863
vn -0.8096 0.4674 -0.3550
vn 0.7773 -0.0000 0.6291
vn 0.3357 -0.0000 0.9420
vn 0.6589 -0.0000 0.7522
vn -0.0346 -0.0000 -0.9994
vn 0.3357 -0.0000 -0.9420
vn 0.7773 -0.0000 -0.6291
vn 0.3294 0.5706 -0.7523
vn 0.1678 0.2907 -0.9420
vn 0.3887 0.6732 -0.6291
vn 0.5714 -0.3299 -0.7514
vn 0.6365 -0.3675 -0.6781
vn -0.4439 0.7406 -0.5045
vn -0.0000 0.7350 0.6781
vn -0.0000 0.6598 0.7514
vn -0.1157 0.4320 -0.8944
vt 0.093750 0.377564
vt 0.093750 0.275000
vt 0.093750 0.475000
vt 0.593750 0.275000
vt 0.593750 0.425000
vt 0.593750 0.381507
vt 0.593750 0.325000
vt 0.593750 0.384104
vt 0.593750 0.380814
vt 0.593750 0.403453
s 1
usemtl colormap.025
f 3/1/1 2/2/2 1/2/3
f 2/2/2 3/1/1 4/1/4
f 3/1/1 6/2/5 5/1/6
f 6/2/5 3/1/1 1/2/3
f 8/2/7 4/1/4 7/1/8
f 4/1/4 8/2/7 2/2/2
f 1/2/3 9/2/9 6/2/5
f 9/2/9 1/2/3 10/2/10
f 10/2/10 1/2/3 2/2/2
f 10/2/10 2/2/2 8/2/7
f 11/1/11 9/2/9 10/2/10
f 9/2/9 11/1/11 12/1/12
f 5/1/6 14/3/13 3/1/1
f 17/3/14 7/1/8 4/1/4
f 4/1/4 14/3/13 17/3/14
f 7/1/8 18/3/15 11/1/11
f 18/3/15 7/1/8 16/3/16
f 18/3/15 12/1/12 11/1/11
f 21/4/17 20/4/17 19/4/17
f 20/4/17 21/4/17 22/4/17
f 20/4/17 22/4/17 23/4/17
f 23/4/17 22/4/17 24/4/17
f 23/4/17 24/4/17 25/4/17
f 25/4/17 24/4/17 26/4/17
f 25/4/17 26/4/17 27/4/17
f 27/4/17 26/4/17 28/4/17
f 27/4/17 28/4/17 29/4/17
f 29/4/17 28/4/17 30/4/17
f 33/4/17 32/4/17 31/4/17
f 32/4/17 33/4/17 34/4/17
f 32/4/17 34/4/17 35/4/17
f 35/4/17 34/4/17 36/4/17
f 39/4/17 40/4/17 41/4/17
f 41/4/17 40/4/17 42/4/17
f 45/4/17 44/4/17 43/4/17
f 49/4/17 50/4/17 51/4/17
f 51/4/17 50/4/17 52/4/17
f 51/4/17 52/4/17 53/4/17
f 53/4/17 52/4/17 54/4/17
f 57/4/17 56/4/17 55/4/17
f 56/4/17 57/4/17 58/4/17
f 56/4/17 58/4/17 59/4/17
f 59/4/17 58/4/17 60/4/17
f 59/4/17 60/4/17 61/4/17
f 61/4/17 60/4/17 62/4/17
f 61/4/17 62/4/17 63/4/17
f 63/4/17 62/4/17 64/4/17
f 32/5/18 72/6/19 73/5/20
f 75/5/21 69/6/22 74/5/23
f 69/6/22 75/5/21 70/6/24
f 70/6/24 75/5/21 76/5/25
f 41/5/26 78/6/27 77/5/28
f 78/6/27 41/5/26 69/6/22
f 69/6/22 41/5/26 74/5/23
f 80/5/29 79/6/30 34/5/31
f 35/5/32 78/6/27 71/6/33
f 79/6/30 82/5/34 34/5/31
f 82/5/34 79/6/30 76/5/25
f 76/5/25 79/6/30 70/6/24
f 72/6/19 84/7/35 79/6/30
f 85/7/36 71/6/33 78/6/27
f 84/7/35 70/6/24 79/6/30
f 70/6/24 84/7/35 68/7/37
f 86/7/38 72/6/19 71/6/33
f 72/6/19 86/7/38 83/7/39
f 80/5/29 87/5/40 73/5/20
f 34/5/41 80/5/42 87/5/43
f 35/5/44 88/5/45 32/5/46
f 89/5/47 41/5/26 77/5/28
f 34/5/48 90/5/49 82/5/50
f 75/5/21 91/5/51 76/5/25
f 91/5/51 75/5/21 74/5/23
f 94/8/52 95/7/53 96/8/54
f 98/7/55 94/8/52 97/8/56
f 94/8/52 98/7/55 93/7/57
f 106/5/58 25/5/59 105/5/60
f 27/5/61 106/5/62 25/5/63
f 101/8/64 25/5/59 27/5/65
f 24/5/66 96/8/54 26/5/67
f 26/5/67 96/8/54 100/8/68
f 107/5/69 102/5/70 27/5/65
f 20/5/71 94/8/52 19/5/72
f 20/5/71 108/5/73 105/5/60
f 19/5/74 20/5/75 108/5/76
f 99/8/77 109/7/78 101/8/64
f 94/8/52 21/5/79 19/5/72
f 21/5/79 94/8/52 96/8/54
f 21/5/79 96/8/54 22/5/80
f 28/5/81 110/5/82 26/5/83
f 30/5/84 28/5/85 110/5/86
f 109/7/78 97/8/56 101/8/64
f 97/8/56 109/7/78 98/7/55
f 95/7/53 100/8/68 96/8/54
f 100/8/68 95/7/53 104/7/87
f 26/5/88 24/5/89 112/5/90
f 114/5/40 115/5/91 46/5/92
f 113/5/93 114/5/43 115/5/94
f 113/5/95 44/5/96 116/5/45
f 119/5/97 118/5/98 117/5/99
f 121/5/100 120/5/101 46/5/92
f 50/5/102 122/5/103 123/5/104
f 119/5/102 123/5/104 122/5/103
f 125/5/105 124/5/106 47/5/107
f 123/5/108 126/9/109 119/5/110
f 126/9/109 123/5/108 127/9/111
f 117/5/112 128/9/113 51/5/114
f 128/9/113 117/5/112 126/9/109
f 129/9/115 121/5/100 46/5/92
f 129/9/115 134/7/116 135/7/117
f 129/9/115 113/5/118 133/9/119
f 113/5/118 129/9/115 115/5/91
f 115/5/91 129/9/115 46/5/92
f 126/9/109 131/7/120 128/9/113
f 132/7/121 133/9/119 130/9/122
f 126/9/109 137/7/123 136/7/124
f 128/9/113 124/5/106 51/5/114
f 47/5/107 128/9/113 130/9/122
f 130/9/122 44/5/125 47/5/107
f 44/5/125 133/9/119 113/5/118
f 129/9/115 137/7/123 127/9/111
f 140/10/126 139/7/127 138/10/128
f 139/7/127 142/10/129 141/10/130
f 143/10/131 142/10/129 139/7/127
f 144/10/132 143/10/131 139/7/127
f 139/7/127 140/10/126 144/10/132
f 138/10/128 139/7/127 141/10/130
f 146/5/133 141/10/130 145/5/134
f 141/10/130 146/5/133 138/10/128
f 138/10/128 146/5/133 147/5/135
f 144/10/132 148/5/136 143/10/131
f 148/5/136 144/10/132 149/5/137
f 149/5/137 144/10/132 150/5/138
f 151/5/139 138/10/128 147/5/135
f 138/10/128 151/5/139 140/10/126
f 140/10/126 151/5/139 152/5/140
f 144/10/132 153/5/141 150/5/138
f 153/5/141 144/10/132 152/5/140
f 152/5/140 144/10/132 140/10/126
f 142/10/129 155/5/142 154/5/143
f 155/5/142 142/10/129 143/10/131
f 155/5/142 143/10/131 148/5/136
f 141/10/130 156/5/144 145/5/134
f 156/5/144 141/10/130 154/5/143
f 156/5/144 157/5/145 145/5/134
f 154/5/146 156/5/147 157/5/148
f 152/5/149 153/5/150 158/5/151
f 149/5/137 159/5/152 148/5/136
f 154/5/153 160/5/154 155/5/155
f 152/5/156 161/5/157 151/5/158
f 145/5/159 146/5/160 162/5/161
f 147/5/159 162/5/161 146/5/160
f 8/2/7 11/1/11 10/2/10
f 11/1/11 8/2/7 7/1/8
f 12/1/12 6/2/5 9/2/9
f 6/2/5 12/1/12 5/1/6
f 14/3/13 5/1/6 13/3/162
f 15/3/163 5/1/6 12/1/12
f 5/1/6 15/3/163 13/3/162
f 7/1/8 17/3/14 16/3/16
f 14/3/13 4/1/4 3/1/1
f 12/1/12 18/3/15 15/3/163
f 35/4/17 36/4/17 37/4/17
f 37/4/17 36/4/17 38/4/17
f 37/4/17 38/4/17 39/4/17
f 39/4/17 38/4/17 40/4/17
f 44/4/17 45/4/17 46/4/17
f 44/4/17 46/4/17 47/4/17
f 47/4/17 46/4/17 48/4/17
f 47/4/17 48/4/17 49/4/17
f 49/4/17 48/4/17 50/4/17
f 63/4/17 64/4/17 65/4/17
f 65/4/17 64/4/17 66/4/17
f 69/6/22 68/7/37 67/7/164
f 68/7/37 69/6/22 70/6/24
f 71/6/33 32/5/18 35/5/32
f 32/5/18 71/6/33 72/6/19
f 79/6/30 73/5/20 72/6/19
f 73/5/20 79/6/30 80/5/29
f 78/6/27 81/5/165 77/5/28
f 81/5/165 78/6/27 35/5/32
f 84/7/35 72/6/19 83/7/39
f 69/6/22 85/7/36 78/6/27
f 85/7/36 69/6/22 67/7/164
f 71/6/33 85/7/36 86/7/38
f 88/5/166 32/5/18 73/5/20
f 41/5/26 89/5/47 74/5/23
f 76/5/48 82/5/50 90/5/49
f 35/5/167 81/5/168 92/5/169
f 77/5/167 92/5/169 81/5/168
f 95/7/53 94/8/52 93/7/57
f 28/5/170 99/8/77 30/5/171
f 99/8/77 28/5/170 100/8/68
f 100/8/68 28/5/170 26/5/67
f 102/5/70 101/8/64 27/5/65
f 101/8/64 102/5/70 99/8/77
f 99/8/77 102/5/70 30/5/171
f 99/8/77 104/7/87 103/7/172
f 104/7/87 99/8/77 100/8/68
f 25/5/59 101/8/64 105/5/60
f 105/5/60 101/8/64 97/8/56
f 96/8/54 24/5/66 22/5/80
f 30/5/173 107/5/174 102/5/175
f 97/8/56 20/5/71 105/5/60
f 20/5/71 97/8/56 94/8/52
f 109/7/78 99/8/77 103/7/172
f 21/5/176 111/5/177 19/5/178
f 111/5/177 21/5/176 22/5/178
f 24/5/179 112/5/180 22/5/181
f 44/5/182 116/5/166 47/5/183
f 118/5/47 117/5/112 51/5/114
f 120/5/101 121/5/100 50/5/184
f 51/5/185 125/5/169 124/5/186
f 127/9/111 123/5/108 50/5/184
f 126/9/109 117/5/112 119/5/110
f 121/5/100 129/9/115 50/5/184
f 50/5/184 129/9/115 127/9/111
f 131/7/120 130/9/122 128/9/113
f 130/9/122 131/7/120 132/7/121
f 134/7/116 129/9/115 133/9/119
f 131/7/120 126/9/109 136/7/124
f 133/9/119 132/7/121 134/7/116
f 137/7/123 126/9/109 127/9/111
f 124/5/106 128/9/113 47/5/107
f 44/5/125 130/9/122 133/9/119
f 137/7/123 129/9/115 135/7/117
f 154/5/143 141/10/130 142/10/129
f 150/5/149 158/5/151 153/5/150
f 159/5/152 149/5/137 150/5/138
f 148/5/153 155/5/155 160/5/154
f 161/5/187 151/5/139 147/5/135
