# Blender 4.3.2
# www.blender.org
mtllib gravestone-broken.mtl
o gravestone-broken.002
v 0.195000 0.074750 0.000000
v -0.195000 0.074750 0.000000
v 0.195000 0.074750 -0.078000
v -0.195000 0.074750 -0.078000
v 0.160316 0.174919 -0.040000
v 0.160316 0.174919 0.000000
v 0.115061 0.220174 -0.040000
v 0.115061 0.220174 0.000000
v -0.173550 -0.066527 -0.117000
v -0.173550 -0.066527 -0.358081
v -0.173550 0.066528 -0.117000
v -0.173550 0.066528 -0.358081
v -0.144401 -0.066527 -0.358081
v -0.144401 0.066528 -0.358081
v 0.050008 0.155120 0.000000
v 0.050008 0.155120 -0.040000
v 0.095262 0.109865 0.000000
v 0.095262 0.109865 -0.040000
v 0.179542 0.128782 0.000000
v 0.179542 0.128782 -0.040000
v 0.219383 0.178869 0.000000
v 0.219383 0.178869 -0.040000
v 0.173550 0.066528 -0.117000
v 0.173550 -0.066527 -0.316300
v 0.173550 0.066528 -0.316300
v 0.143550 -0.066527 -0.316300
v 0.143550 0.066528 -0.316300
v 0.291383 0.121598 0.000000
v 0.251542 0.071511 0.000000
v -0.195000 -0.074750 -0.078000
v 0.251542 0.071511 -0.040000
v 0.173550 -0.066527 -0.117000
v 0.195000 -0.074750 -0.078000
v 0.114915 0.066528 -0.261601
v 0.047070 0.066528 -0.226603
v 0.074915 0.066528 -0.261601
v -0.012930 0.066528 -0.226603
v -0.065538 0.066528 -0.249601
v -0.035538 0.066528 -0.249601
v -0.126630 0.066528 -0.329673
v -0.106630 0.066528 -0.329673
v -0.126630 -0.066527 -0.329673
v -0.195000 -0.074750 0.000000
v 0.195000 -0.074750 0.000000
v 0.291383 0.121598 -0.040000
v -0.035538 -0.066527 -0.249601
v -0.012930 -0.066527 -0.226603
v 0.114915 -0.066527 -0.261601
v 0.074915 -0.066527 -0.261601
v -0.106630 -0.066527 -0.329673
v -0.065538 -0.066527 -0.249601
v 0.047070 -0.066527 -0.226603
vn 0.5119 0.8334 -0.2083
vn -0.5774 0.5774 0.5773
vn 0.5774 0.5774 0.5774
vn -0.7278 0.6854 0.0235
vn 0.7071 0.7071 -0.0000
vn -0.6321 0.7305 -0.2585
vn -0.5773 -0.5774 -0.5773
vn -0.6321 -0.7305 -0.2585
vn -0.5773 0.5774 -0.5773
vn 0.4820 0.1024 -0.8701
vn -0.0476 -0.6624 -0.7476
vn -0.6595 0.6594 0.3609
vn -0.8165 -0.0000 -0.5774
vn -0.7482 0.1618 0.6435
vn -0.0000 -0.0000 1.0000
vn 0.9936 0.1132 -0.0000
vn 0.8112 0.0924 0.5774
vn 0.2595 -0.9657 -0.0000
vn 0.6321 0.7305 -0.2585
vn -0.3858 -0.0624 -0.9204
vn 0.5774 0.5774 -0.5773
vn 0.5773 -0.5774 -0.5773
vn 0.1572 0.1977 0.9676
vn 0.4402 0.5534 0.7071
vn 0.6225 0.7826 -0.0000
vn 0.6321 -0.7305 -0.2586
vn 0.7071 -0.7071 -0.0000
vn -0.0224 0.7681 -0.6400
vn -0.6850 0.6651 -0.2973
vn -0.6112 0.6601 -0.4366
vn -0.0031 0.7863 -0.6178
vn 0.2689 0.8807 -0.3900
vn 0.3157 0.8987 -0.3045
vn 0.4474 0.7197 -0.5310
vn -0.1808 0.6554 -0.7333
vn 0.2904 -0.6020 -0.7438
vn 0.0924 -0.8112 0.5774
vn 0.4843 0.2627 -0.8345
vn 0.0151 -0.7259 -0.6876
vn 0.3640 -0.3371 -0.8683
vn -0.2659 -0.2018 -0.9426
vn -0.3667 -0.7223 -0.5863
vn 0.1401 -0.7555 -0.6400
vn 0.5138 -0.1684 -0.8412
vn -0.7826 0.6225 -0.0000
vn -0.1573 -0.1977 0.9676
vn -0.0939 -0.7667 -0.6351
vn 0.5332 -0.8011 -0.2720
vn -0.6188 -0.6473 -0.4450
vn -0.6595 0.6595 -0.3609
vn -0.3548 -0.3548 -0.8650
vn -0.5000 0.5000 0.7071
vn -0.3955 0.3955 0.8290
vn -0.6028 -0.6028 -0.5227
vn -0.7071 -0.7071 -0.0000
vn -0.2369 -0.2369 -0.9422
vn -0.0000 -0.0000 -1.0000
vn -0.7071 0.7071 -0.0000
vn 0.5774 -0.5774 0.5773
vn -0.5774 -0.5774 0.5774
vn 0.7826 -0.6225 -0.0000
vt 0.843750 0.068566
vt 0.843750 0.025000
vt 0.843750 0.047341
vt 0.843750 0.090348
vt 0.843750 0.225000
vt 0.843750 0.201664
vt 0.843750 0.171113
vt 0.843750 0.151565
vt 0.843750 0.164410
vt 0.843750 0.209133
s 1
usemtl colormap.008
f 3/1/1 2/2/2 1/2/3
f 2/2/2 3/1/1 4/1/4
f 7/3/5 6/2/5 5/3/5
f 11/4/6 10/5/7 9/4/8
f 10/5/7 11/4/6 12/5/9
f 10/5/7 14/5/10 13/5/11
f 14/5/10 10/5/7 12/5/9
f 8/2/12 16/3/13 15/2/14
f 17/2/15 8/2/12 15/2/14
f 19/2/16 20/3/17 21/2/18
f 23/4/19 4/1/4 3/1/1
f 26/6/20 25/6/21 24/6/22
f 29/2/15 21/2/23 19/2/15
f 9/4/8 4/1/4 11/4/6
f 31/3/24 20/3/17 29/2/25
f 25/6/21 32/4/26 24/6/22
f 32/4/26 25/6/21 23/4/19
f 18/3/27 6/2/27 17/2/27
f 3/1/1 32/4/26 23/4/19
f 34/7/28 25/6/21 27/6/29
f 36/7/30 35/8/31 34/7/28
f 23/4/19 35/8/31 11/4/6
f 37/8/32 11/4/6 35/8/31
f 38/9/33 11/4/6 37/8/32
f 11/4/6 38/9/33 12/5/9
f 40/10/34 38/9/33 41/10/35
f 42/10/36 14/5/10 40/10/34
f 20/3/17 31/3/24 22/3/37
f 39/9/38 47/8/39 46/9/40
f 47/8/39 39/9/38 37/8/32
f 49/7/41 34/7/28 48/7/42
f 41/10/35 51/9/43 50/10/44
f 51/9/43 41/10/35 38/9/33
f 42/10/36 41/10/35 50/10/44
f 41/10/35 42/10/36 40/10/34
f 35/8/31 47/8/39 37/8/32
f 51/9/43 39/9/38 46/9/40
f 28/2/45 45/3/45 29/2/45
f 22/3/37 45/3/46 21/2/18
f 35/8/31 49/7/41 52/8/47
f 9/4/8 33/1/48 30/1/49
f 33/1/48 9/4/8 32/4/26
f 7/3/50 18/3/51 16/3/13
f 5/3/52 7/3/15 18/3/53
f 42/10/36 10/5/7 13/5/11
f 51/9/43 10/5/7 42/10/36
f 32/4/26 51/9/43 47/8/39
f 46/9/40 47/8/39 51/9/43
f 52/8/47 32/4/26 47/8/39
f 48/7/42 32/4/26 52/8/47
f 32/4/26 48/7/42 24/6/22
f 24/6/22 48/7/42 26/6/20
f 8/2/54 7/3/55 6/2/56
f 16/3/13 8/2/12 7/3/50
f 18/3/51 15/2/14 16/3/13
f 17/2/5 18/3/5 15/2/5
f 6/2/56 17/2/57 8/2/54
f 22/3/37 21/2/18 20/3/17
f 4/1/4 23/4/19 11/4/6
f 25/6/21 26/6/20 27/6/29
f 21/2/23 29/2/15 28/2/24
f 4/1/4 9/4/8 30/1/49
f 19/2/16 29/2/25 20/3/17
f 5/3/52 18/3/53 6/2/58
f 32/4/26 3/1/1 33/1/48
f 34/7/28 23/4/19 25/6/21
f 35/8/31 23/4/19 34/7/28
f 38/9/33 37/8/32 39/9/38
f 12/5/9 38/9/33 40/10/34
f 12/5/9 40/10/34 14/5/10
f 14/5/10 42/10/36 13/5/11
f 30/1/49 44/2/59 43/2/60
f 44/2/59 30/1/49 33/1/48
f 2/2/2 30/1/49 43/2/60
f 30/1/49 2/2/2 4/1/4
f 45/3/46 22/3/37 31/3/24
f 3/1/1 44/2/59 33/1/48
f 44/2/59 3/1/1 1/2/3
f 34/7/28 49/7/41 36/7/30
f 2/2/2 44/2/59 1/2/3
f 44/2/59 2/2/2 43/2/60
f 47/8/39 35/8/31 52/8/47
f 39/9/38 51/9/43 38/9/33
f 45/3/61 29/2/61 31/3/61
f 45/3/25 21/2/23 28/2/24
f 49/7/41 35/8/31 36/7/30
f 34/7/28 26/6/20 48/7/42
f 26/6/20 34/7/28 27/6/29
f 50/10/44 51/9/43 42/10/36
f 51/9/43 9/4/8 10/5/7
f 9/4/8 51/9/43 32/4/26
f 48/7/42 52/8/47 49/7/41
