# Blender 4.3.2
# www.blender.org
mtllib doorwayOpen.mtl
o doorwayOpen
v -0.457650 0.089100 -0.000000
v -0.457650 0.000000 -0.000000
v -0.486000 0.089100 -0.000000
v -0.486000 0.000000 -0.000000
v 0.000000 0.000000 -1.009532
v 0.000000 0.089100 -1.009532
v -0.486000 0.000000 -1.009532
v -0.486000 0.089100 -1.009532
v -0.457650 0.000000 -0.981182
v -0.028350 0.000000 -0.981182
v -0.028350 0.000000 -0.000000
v 0.000000 0.000000 0.000000
v 0.000000 0.089100 -0.000000
v -0.028350 0.089100 -0.000000
v -0.028350 0.089100 -0.981182
v -0.457650 0.089100 -0.981182
vn 0.5774 -0.5774 0.5773
vn 0.5773 0.5774 0.5773
vn -0.5774 0.5774 0.5773
vn -0.5774 -0.5774 0.5774
vn 0.5774 0.5774 -0.5773
vn 0.5773 -0.5774 -0.5773
vn -0.5774 -0.5774 -0.5773
vn -0.5773 0.5774 -0.5773
vn 0.3015 -0.9045 0.3015
vn -0.3015 -0.9045 0.3015
vn -0.5773 -0.5774 0.5773
vn 0.3015 0.9045 0.3015
vn -0.3015 0.9045 0.3015
vn 0.5774 0.5774 0.5774
vt -18.017719 -0.000000
vt -18.017719 3.507874
vt -19.133860 3.507874
vt -19.133860 -0.000000
vt 0.000000 3.507874
vt 0.000000 -0.000000
vt 19.133860 -0.000000
vt 19.133860 3.507874
vt 18.017719 0.000000
vt 19.133860 0.000000
vt 19.133860 39.745350
vt 18.017719 38.629200
vt 1.116142 38.629200
vt 0.000000 39.745350
vt 1.116142 0.000000
vt 0.000000 0.000000
vt -3.507874 39.745350
vt -0.000000 39.745350
vt -0.000000 0.000000
vt 3.507874 -0.000000
vt -18.017719 38.629200
vt -1.116142 38.629200
vt -19.133860 39.745350
vt -0.000000 3.507874
vt -1.116142 3.507874
vt -1.116142 0.000000
vt -1.116142 0.000000
vt -18.017719 0.000000
vt 0.000000 38.629200
vt 0.000000 0.000000
vt 3.507874 0.000000
vt 3.507874 38.629200
vt 0.000000 0.000000
vt 0.000000 38.629200
vt -3.507874 38.629200
vt -3.507874 0.000000
vt -3.507874 0.000000
vt 3.507874 39.745350
vt -1.116142 0.000000
vt 0.000000 0.000000
vt -18.017719 0.000000
vt -19.133860 0.000000
s 1
usemtl wood.018
f 2/1/1 1/2/2 3/3/3
f 3/3/3 4/4/4 2/1/1
f 6/5/5 5/6/6 7/7/7
f 7/7/7 8/8/8 6/5/5
f 2/9/1 4/10/4 7/11/7
f 7/11/7 9/12/9 2/9/1
f 7/11/7 10/13/10 9/12/9
f 10/13/10 7/11/7 5/14/6
f 11/15/11 10/13/10 5/14/6
f 5/14/6 12/16/1 11/15/11
f 12/16/1 5/14/6 6/17/5
f 7/18/7 4/19/4 3/20/3
f 6/14/5 16/21/12 15/22/13
f 16/21/12 6/14/5 8/23/8
f 12/16/1 13/24/14 14/25/3
f 14/25/3 11/26/11 12/16/1
f 10/27/10 15/25/13 16/2/12
f 16/2/12 9/28/9 10/27/10
f 10/29/10 11/30/11 14/31/3
f 14/31/3 15/32/13 10/29/10
f 2/33/1 9/34/9 16/35/12
f 16/35/12 1/36/2 2/33/1
f 6/17/5 13/37/14 12/16/1
f 3/20/3 8/38/8 7/18/7
f 14/39/3 13/40/14 6/14/5
f 6/14/5 15/22/13 14/39/3
f 1/41/2 16/21/12 8/23/8
f 8/23/8 3/42/3 1/41/2
