# Blender 4.3.2
# www.blender.org
mtllib pillowBlue.mtl
o pillowBlue
v -0.200100 0.000000 -0.034834
v -0.200100 0.018957 -0.105584
v -0.200100 0.014478 0.000000
v -0.200100 0.044433 -0.022928
v -0.200100 0.048912 -0.128512
v -0.200100 0.063390 -0.093678
v -0.230000 0.041174 -0.099631
v 0.000000 0.022216 -0.028881
v -0.029900 0.014478 -0.000000
v -0.029900 0.044433 -0.022928
v -0.230000 0.022216 -0.028881
v 0.000000 0.041174 -0.099631
v -0.029900 0.048912 -0.128512
v -0.029900 0.000000 -0.034834
v -0.029900 0.018957 -0.105584
v -0.029900 0.063390 -0.093678
vn -1.0000 -0.0000 -0.0000
vn -0.5206 -0.5190 -0.6780
vn 0.5206 0.5190 0.6780
vn -0.6097 0.7656 0.2051
vn -0.0000 0.9659 0.2588
vn -0.0000 -0.9659 -0.2588
vn 1.0000 -0.0000 -0.0000
vn -0.0000 -0.2588 0.9659
vn -0.5206 0.5190 0.6780
vn 0.6097 -0.7656 -0.2051
vn 0.5206 0.7884 -0.3277
vn -0.0000 0.2588 -0.9659
vn -0.0000 -0.9234 0.3838
vn -0.0000 0.6078 0.7941
vn -0.5206 -0.7884 0.3277
vn -0.6097 -0.7656 -0.2051
vn -0.0000 -0.6078 -0.7941
vn 0.5206 -0.5190 -0.6780
vn -0.0000 0.9234 -0.3838
vn -0.5206 0.7884 -0.3277
vn 0.6097 0.7656 0.2051
vn 0.5206 -0.7884 0.3277
vt 0.746353 4.156845
vt -0.000000 1.371418
vt 0.569984 0.000000
vt 1.749315 0.902691
vt 1.925683 5.059536
vt 2.495667 3.688117
vt 6.925642 0.858137
vt 6.090430 -0.369906
vt 7.540952 -0.688740
vt -1.234750 -0.292399
vt -0.619440 1.254479
vt -2.069963 0.935644
vt -6.538521 2.410458
vt -5.072803 2.171001
vt -4.607854 5.016957
vt -6.073573 5.256414
vt -9.055119 1.324688
vt -7.877953 0.147523
vt -1.177165 0.147523
vt -0.000000 1.324688
vt -9.055119 4.208374
vt 7.877953 4.208374
vt 1.177165 4.208374
vt 1.177165 1.324688
vt -0.569984 0.000000
vt 0.000000 1.371418
vt -0.746353 4.156845
vt -1.749315 0.902691
vt -1.925683 5.059536
vt -2.495667 3.688117
vt 1.177165 0.354949
vt -0.000000 -0.550563
vt 1.177165 -1.456074
vt 7.877953 -1.456074
vt 7.877953 0.354949
vt 9.055119 -0.550563
vt -5.158188 4.055542
vt -4.322976 5.283586
vt -5.773498 5.602420
vt -1.009825 4.099189
vt -0.544877 1.253233
vt 0.920842 1.492689
vt 0.455893 4.338645
vt -2.357466 3.014579
vt -0.893179 3.262638
vt -2.043404 4.466142
vt -1.177165 -1.456074
vt 0.000000 -0.550563
vt -1.177165 0.354949
vt 1.177165 -0.218754
vt 7.877953 -0.218754
vt 7.877953 1.266396
vt -7.877953 0.452614
vt -1.177165 0.452614
vt -1.177165 1.937764
vt 6.888247 1.266536
vt 8.038472 2.470039
vt 6.574185 2.718099
vt 6.162556 0.335464
vt 7.628274 0.096007
vt 8.093223 2.941963
vt 7.877953 3.119242
vt 7.877953 4.604392
vt 1.177165 4.604392
vt -1.148014 3.659201
vt 0.302508 3.978035
vt -0.532704 5.206079
vt -7.877953 3.933024
vt -7.877953 2.447874
vt -1.177165 2.447874
vt -1.177165 3.933024
vt -6.663355 1.627695
vt -5.199069 1.379636
vt -5.513131 2.831198
vt -0.000000 4.208374
vt -7.877953 5.385539
vt -1.177165 5.385539
vt 7.877953 1.324688
vt -7.877953 -1.456074
vt -7.877953 0.354949
vt -9.055119 -0.550563
vt -2.475543 3.859732
vt -2.010595 1.013776
vt -7.877953 4.208374
vt -7.877953 1.324688
vt -1.177165 1.324688
vt -1.177165 4.208374
vt 1.177165 1.266396
vt -7.877953 1.937764
vt 6.627504 3.181420
vt 1.177165 3.119242
vt -0.481937 0.835096
vt 0.668287 -0.368407
vt 0.982350 1.083156
s 1
usemtl carpetBlue
f 2/1/1 1/2/1 3/3/1
f 3/3/1 4/4/1 2/1/1
f 4/4/1 5/5/1 2/1/1
f 4/4/1 6/6/1 5/5/1
f 5/7/2 2/8/2 7/9/2
f 9/10/3 8/11/3 10/12/3
f 11/13/4 4/14/4 6/15/4
f 6/15/4 7/16/4 11/13/4
f 11/17/5 3/18/5 9/19/5
f 9/19/5 8/20/5 11/17/5
f 8/20/5 7/21/5 11/17/5
f 2/22/6 15/23/6 14/24/6
f 9/25/7 14/26/7 15/27/7
f 15/27/7 10/28/7 9/25/7
f 15/27/7 13/29/7 10/28/7
f 13/29/7 16/30/7 10/28/7
f 14/31/8 8/32/8 10/33/8
f 10/33/8 4/34/8 14/31/8
f 4/34/8 1/35/8 14/31/8
f 4/34/8 11/36/8 1/35/8
f 3/37/9 4/38/9 11/39/9
f 12/40/10 8/41/10 14/42/10
f 14/42/10 15/43/10 12/40/10
f 16/44/11 12/45/11 13/46/11
f 16/47/12 12/48/12 15/49/12
f 9/50/13 3/51/13 1/52/13
f 3/53/14 9/54/14 10/55/14
f 3/56/15 11/57/15 1/58/15
f 1/59/16 11/60/16 7/61/16
f 2/62/17 5/63/17 13/64/17
f 12/65/18 15/66/18 13/67/18
f 5/68/19 6/69/19 16/70/19
f 16/70/19 13/71/19 5/68/19
f 7/72/20 6/73/20 5/74/20
f 8/20/5 12/75/5 7/21/5
f 12/75/5 5/76/5 7/21/5
f 12/75/5 13/77/5 5/76/5
f 14/24/6 1/78/6 2/22/6
f 15/49/12 6/79/12 16/47/12
f 15/49/12 2/80/12 6/79/12
f 2/80/12 7/81/12 6/79/12
f 16/82/21 10/83/21 8/41/21
f 8/41/21 12/40/21 16/82/21
f 6/84/5 4/85/5 10/86/5
f 10/86/5 16/87/5 6/84/5
f 1/52/13 14/88/13 9/50/13
f 10/55/14 4/89/14 3/53/14
f 7/61/16 2/90/16 1/59/16
f 13/64/17 15/91/17 2/62/17
f 8/92/22 9/93/22 14/94/22
