# Blender 4.3.2
# www.blender.org
mtllib kitchenStove.mtl
o kitchenStove
v 0.000000 0.420000 -0.450000
v 0.000000 0.450000 -0.450000
v -0.430000 0.420000 -0.450000
v -0.430000 0.450000 -0.450000
v 0.000000 0.450000 -0.390000
v -0.430000 0.450000 -0.390000
v 0.000000 0.420000 -0.420000
v 0.000000 0.020000 -0.390000
v 0.000000 0.000000 -0.390000
v 0.000000 0.000000 -0.420000
v -0.430000 0.000000 -0.390000
v -0.430000 0.000000 -0.420000
v -0.430000 0.020000 -0.390000
v -0.430000 0.420000 -0.420000
v -0.030227 0.050000 -0.420000
v -0.399772 0.050000 -0.420000
v -0.399772 0.407901 -0.420000
v -0.030227 0.407901 -0.420000
v 0.000000 0.450000 0.000000
v 0.000000 0.040000 0.000000
v -0.430000 0.450000 0.000000
v -0.430000 0.040000 0.000000
v 0.000000 0.040000 -0.058242
v 0.000000 0.020000 -0.058242
v -0.430000 0.040000 -0.058242
v -0.430000 0.020000 -0.058242
v -0.403156 0.020000 -0.085086
v -0.403156 0.020000 -0.363156
v -0.026844 0.020000 -0.363156
v -0.026844 0.020000 -0.085086
v -0.026844 0.400000 -0.085086
v -0.403156 0.400000 -0.085086
v -0.026844 0.400000 -0.363156
v -0.403156 0.400000 -0.363156
v -0.369495 0.400000 -0.204121
v -0.403156 0.400000 -0.224121
v -0.369495 0.400000 -0.224121
v -0.060505 0.400000 -0.204121
v -0.026844 0.400000 -0.224121
v -0.060505 0.400000 -0.224121
v -0.253761 0.320642 -0.435000
v -0.266463 0.320642 -0.435000
v -0.275761 0.282537 -0.435000
v -0.282112 0.293537 -0.435000
v -0.319761 0.282537 -0.435000
v -0.313410 0.293537 -0.435000
v -0.329060 0.320642 -0.435000
v -0.341761 0.320642 -0.435000
v -0.275761 0.358747 -0.435000
v -0.282112 0.347747 -0.435000
v -0.319761 0.358747 -0.435000
v -0.313410 0.347747 -0.435000
v -0.253761 0.320642 -0.430000
v -0.275761 0.358747 -0.430000
v -0.264761 0.186759 -0.435000
v -0.264761 0.186759 -0.430000
v -0.281261 0.215337 -0.435000
v -0.281261 0.215337 -0.430000
v -0.142125 0.085750 -0.435000
v -0.147625 0.095276 -0.435000
v -0.147625 0.076224 -0.435000
v -0.158625 0.095276 -0.435000
v -0.158625 0.076224 -0.435000
v -0.164125 0.085750 -0.435000
v -0.319761 0.358747 -0.430000
v -0.095375 0.085750 -0.435000
v -0.089875 0.095276 -0.435000
v -0.098125 0.085750 -0.425000
v -0.091250 0.097658 -0.425000
v -0.077500 0.097658 -0.425000
v -0.078875 0.095276 -0.435000
v -0.341761 0.320642 -0.430000
v -0.073375 0.085750 -0.435000
v -0.078875 0.076224 -0.435000
v -0.089875 0.076224 -0.435000
v -0.205650 0.085750 -0.430000
v -0.210325 0.093847 -0.430000
v -0.210325 0.077653 -0.430000
v -0.219675 0.093847 -0.430000
v -0.219675 0.077653 -0.430000
v -0.224350 0.085750 -0.430000
v -0.160000 0.073842 -0.425000
v -0.166875 0.085750 -0.425000
v -0.319761 0.282537 -0.430000
v -0.265875 0.085750 -0.435000
v -0.271375 0.095276 -0.435000
v -0.271375 0.076224 -0.435000
v -0.282375 0.095276 -0.435000
v -0.282375 0.076224 -0.435000
v -0.287875 0.085750 -0.435000
v -0.334625 0.085750 -0.435000
v -0.340125 0.095276 -0.435000
v -0.340125 0.076224 -0.435000
v -0.351125 0.095276 -0.435000
v -0.351125 0.076224 -0.435000
v -0.356625 0.085750 -0.435000
v -0.070625 0.085750 -0.425000
v -0.263125 0.085750 -0.425000
v -0.270000 0.097658 -0.425000
v -0.091250 0.073842 -0.425000
v -0.338750 0.097658 -0.425000
v -0.352500 0.097658 -0.425000
v -0.077500 0.073842 -0.425000
v -0.146250 0.073842 -0.425000
v -0.139375 0.085750 -0.425000
v -0.292261 0.275700 -0.435000
v -0.303261 0.275700 -0.435000
v -0.292261 0.275700 -0.440000
v -0.303261 0.275700 -0.440000
v -0.226000 0.085750 -0.425000
v -0.220500 0.095276 -0.425000
v -0.303261 0.223450 -0.435000
v -0.292261 0.223450 -0.435000
v -0.303261 0.223450 -0.440000
v -0.292261 0.223450 -0.440000
v -0.303261 0.365584 -0.435000
v -0.292261 0.365584 -0.435000
v -0.303261 0.365584 -0.440000
v -0.292261 0.365584 -0.440000
v -0.275761 0.282537 -0.430000
v -0.160000 0.097658 -0.425000
v -0.223250 0.326142 -0.435000
v -0.223250 0.315142 -0.435000
v -0.250750 0.326142 -0.435000
v -0.250750 0.315142 -0.435000
v -0.146250 0.097658 -0.425000
v -0.057728 0.326142 -0.435000
v -0.057728 0.315193 -0.435000
v -0.085227 0.326142 -0.435000
v -0.085227 0.315193 -0.435000
v -0.126739 0.365584 -0.440000
v -0.126739 0.365584 -0.435000
v -0.126739 0.379334 -0.440000
v -0.126739 0.379334 -0.435000
v -0.154239 0.282537 -0.430000
v -0.154239 0.282537 -0.435000
v -0.176239 0.320642 -0.430000
v -0.176239 0.320642 -0.435000
v -0.088239 0.320642 -0.435000
v -0.088239 0.320642 -0.430000
v -0.110239 0.358747 -0.435000
v -0.110239 0.358747 -0.430000
v -0.261750 0.181259 -0.435000
v -0.261750 0.181259 -0.440000
v -0.261750 0.192259 -0.435000
v -0.261750 0.192259 -0.440000
v -0.179250 0.326142 -0.435000
v -0.179250 0.315142 -0.435000
v -0.206750 0.326142 -0.435000
v -0.206750 0.315142 -0.435000
v -0.154239 0.358747 -0.430000
v -0.154239 0.358747 -0.435000
v -0.352500 0.073842 -0.425000
v -0.359375 0.085750 -0.425000
v -0.283750 0.097658 -0.425000
v -0.209500 0.076224 -0.425000
v -0.204000 0.085750 -0.425000
v -0.338750 0.073842 -0.425000
v -0.277463 0.186759 -0.435000
v -0.281261 0.158180 -0.435000
v -0.287612 0.169180 -0.435000
v -0.314261 0.158180 -0.435000
v -0.307910 0.169180 -0.435000
v -0.318060 0.186759 -0.435000
v -0.330761 0.186759 -0.435000
v -0.287612 0.204337 -0.435000
v -0.314261 0.215337 -0.435000
v -0.307910 0.204337 -0.435000
v -0.281261 0.158180 -0.430000
v -0.314261 0.158180 -0.430000
v -0.330761 0.186759 -0.430000
v -0.209500 0.095276 -0.425000
v -0.270000 0.073842 -0.425000
v -0.165239 0.186759 -0.430000
v -0.165239 0.186759 -0.435000
v -0.148739 0.215337 -0.430000
v -0.148739 0.215337 -0.435000
v -0.314261 0.215337 -0.430000
v -0.099239 0.186759 -0.435000
v -0.099239 0.186759 -0.430000
v -0.115739 0.215337 -0.435000
v -0.115739 0.215337 -0.430000
v -0.283750 0.073842 -0.425000
v -0.331875 0.085750 -0.425000
v -0.220500 0.076224 -0.425000
v -0.115739 0.158180 -0.435000
v -0.115739 0.158180 -0.430000
v -0.168250 0.181259 -0.440000
v -0.168250 0.181259 -0.435000
v -0.168250 0.192259 -0.440000
v -0.168250 0.192259 -0.435000
v -0.096227 0.181259 -0.435000
v -0.096227 0.181259 -0.440000
v -0.096227 0.192259 -0.435000
v -0.096227 0.192259 -0.440000
v -0.057728 0.128067 -0.440000
v -0.057728 0.192259 -0.440000
v -0.057728 0.181259 -0.440000
v -0.057728 0.261950 -0.440000
v -0.057728 0.245450 -0.440000
v -0.126739 0.261950 -0.440000
v -0.126739 0.245450 -0.440000
v -0.126739 0.275700 -0.440000
v -0.137739 0.275700 -0.440000
v -0.137739 0.223450 -0.440000
v -0.126739 0.223450 -0.440000
v -0.137739 0.261950 -0.440000
v -0.137739 0.245450 -0.440000
v -0.206750 0.261950 -0.440000
v -0.206750 0.245450 -0.440000
v -0.206750 0.315142 -0.440000
v -0.223250 0.128067 -0.440000
v -0.206750 0.192259 -0.440000
v -0.206750 0.181259 -0.440000
v -0.206750 0.128067 -0.440000
v -0.383272 0.117067 -0.440000
v -0.137739 0.128067 -0.440000
v -0.126739 0.128067 -0.440000
v -0.046728 0.117067 -0.440000
v -0.137739 0.150067 -0.440000
v -0.126739 0.150067 -0.440000
v -0.292261 0.128067 -0.440000
v -0.303261 0.128067 -0.440000
v -0.303261 0.150067 -0.440000
v -0.292261 0.150067 -0.440000
v -0.372272 0.128067 -0.440000
v -0.372272 0.181259 -0.440000
v -0.372272 0.192259 -0.440000
v -0.372272 0.245450 -0.440000
v -0.372272 0.315142 -0.440000
v -0.383272 0.390334 -0.440000
v -0.057728 0.379334 -0.440000
v -0.046728 0.390334 -0.440000
v -0.137739 0.379334 -0.440000
v -0.137739 0.365584 -0.440000
v -0.206750 0.379334 -0.440000
v -0.223250 0.379334 -0.440000
v -0.206750 0.326142 -0.440000
v -0.179250 0.315142 -0.440000
v -0.179250 0.326142 -0.440000
v -0.223250 0.326142 -0.440000
v -0.223250 0.261950 -0.440000
v -0.223250 0.315142 -0.440000
v -0.250750 0.326142 -0.440000
v -0.250750 0.315142 -0.440000
v -0.223250 0.181259 -0.440000
v -0.223250 0.192259 -0.440000
v -0.223250 0.245450 -0.440000
v -0.292261 0.261950 -0.440000
v -0.292261 0.245450 -0.440000
v -0.303261 0.261950 -0.440000
v -0.303261 0.245450 -0.440000
v -0.372272 0.261950 -0.440000
v -0.344772 0.315142 -0.440000
v -0.372272 0.326142 -0.440000
v -0.344772 0.326142 -0.440000
v -0.372272 0.379334 -0.440000
v -0.303261 0.379334 -0.440000
v -0.292261 0.379334 -0.440000
v -0.057728 0.326142 -0.440000
v -0.057728 0.315193 -0.440000
v -0.085227 0.326142 -0.440000
v -0.085227 0.315193 -0.440000
v -0.333773 0.181259 -0.440000
v -0.333773 0.192259 -0.440000
v -0.110239 0.282537 -0.430000
v -0.110239 0.282537 -0.435000
v -0.290625 0.085750 -0.425000
v -0.148739 0.158180 -0.430000
v -0.148739 0.158180 -0.435000
v -0.111941 0.186759 -0.435000
v -0.122090 0.169180 -0.435000
v -0.142388 0.169180 -0.435000
v -0.152537 0.186759 -0.435000
v -0.122090 0.204337 -0.435000
v -0.142388 0.204337 -0.435000
v -0.372272 0.181259 -0.435000
v -0.333773 0.181259 -0.435000
v -0.372272 0.326142 -0.435000
v -0.372272 0.379334 -0.430000
v -0.372272 0.315142 -0.435000
v -0.372272 0.261950 -0.430000
v -0.292261 0.379334 -0.435000
v -0.303261 0.379334 -0.435000
v -0.292261 0.261950 -0.435000
v -0.223250 0.261950 -0.430000
v -0.303261 0.261950 -0.435000
v -0.057728 0.245450 -0.430000
v -0.137739 0.245450 -0.435000
v -0.206750 0.245450 -0.430000
v -0.126739 0.245450 -0.435000
v -0.292261 0.150067 -0.435000
v -0.292261 0.128067 -0.435000
v -0.303261 0.150067 -0.435000
v -0.303261 0.128067 -0.435000
v -0.333773 0.192259 -0.435000
v -0.372272 0.192259 -0.435000
v -0.372272 0.128067 -0.430000
v -0.223250 0.128067 -0.430000
v -0.303261 0.245450 -0.435000
v -0.126739 0.128067 -0.435000
v -0.126739 0.150067 -0.435000
v -0.206750 0.261950 -0.430000
v -0.126739 0.261950 -0.435000
v -0.057728 0.261950 -0.430000
v -0.137739 0.261950 -0.435000
v -0.137739 0.365584 -0.435000
v -0.057728 0.379334 -0.430000
v -0.137739 0.379334 -0.435000
v -0.206750 0.379334 -0.430000
v -0.372272 0.245450 -0.430000
v -0.206750 0.181259 -0.435000
v -0.292261 0.245450 -0.435000
v -0.223250 0.192259 -0.435000
v -0.223250 0.181259 -0.435000
v -0.147888 0.293537 -0.435000
v -0.116590 0.293537 -0.435000
v -0.147888 0.293537 -0.440000
v -0.116590 0.293537 -0.440000
v -0.126739 0.223450 -0.435000
v -0.137739 0.223450 -0.435000
v -0.344772 0.315142 -0.435000
v -0.137739 0.150067 -0.435000
v -0.126739 0.275700 -0.435000
v -0.137739 0.275700 -0.435000
v -0.223250 0.379334 -0.430000
v -0.206750 0.192259 -0.435000
v -0.344772 0.326142 -0.435000
v -0.137739 0.128067 -0.435000
v -0.223250 0.245450 -0.430000
v -0.100941 0.320642 -0.435000
v -0.163537 0.320642 -0.435000
v -0.116590 0.347747 -0.435000
v -0.147888 0.347747 -0.435000
v -0.057728 0.181259 -0.435000
v -0.057728 0.128067 -0.430000
v -0.057728 0.192259 -0.435000
v -0.206750 0.128067 -0.430000
v -0.266463 0.320642 -0.440000
v -0.282112 0.347747 -0.440000
v -0.122090 0.204337 -0.440000
v -0.142388 0.204337 -0.440000
v -0.041228 0.395834 -0.425000
v -0.388772 0.395834 -0.425000
v -0.282112 0.293537 -0.440000
v -0.313410 0.347747 -0.440000
v -0.313410 0.293537 -0.440000
v -0.329060 0.320642 -0.440000
v -0.388772 0.111567 -0.425000
v -0.041228 0.111567 -0.425000
v -0.142388 0.169180 -0.440000
v -0.122090 0.169180 -0.440000
v -0.287612 0.204337 -0.440000
v -0.307910 0.204337 -0.440000
v -0.318060 0.186759 -0.440000
v -0.100941 0.320642 -0.440000
v -0.116590 0.347747 -0.440000
v -0.147888 0.347747 -0.440000
v -0.163537 0.320642 -0.440000
v -0.111941 0.186759 -0.440000
v -0.152537 0.186759 -0.440000
v -0.307910 0.169180 -0.440000
v -0.287612 0.169180 -0.440000
v -0.277463 0.186759 -0.440000
v -0.369495 0.060000 -0.224121
v -0.403156 0.060000 -0.224121
v -0.403156 0.400000 -0.239543
v -0.354073 0.400000 -0.239543
v -0.075927 0.400000 -0.239543
v -0.026844 0.400000 -0.239543
v -0.075927 0.400000 -0.219543
v -0.354073 0.400000 -0.219543
v -0.354073 0.060000 -0.239543
v -0.403156 0.060000 -0.239543
v -0.354073 0.060000 -0.219543
v -0.075927 0.060000 -0.219543
v -0.075927 0.060000 -0.239543
v -0.026844 0.060000 -0.239543
v -0.026844 0.060000 -0.224121
v -0.060505 0.060000 -0.224121
v -0.060505 0.060000 -0.204121
v -0.369495 0.060000 -0.204121
v -0.388772 0.061000 -0.425000
v -0.041228 0.061000 -0.425000
v -0.067814 0.040000 -0.288498
v -0.067814 0.020000 -0.288498
v -0.357814 0.040000 -0.288498
v -0.357814 0.020000 -0.288498
v -0.067814 0.020000 -0.127360
v -0.067814 0.040000 -0.127360
v -0.357814 0.020000 -0.127360
v -0.357814 0.040000 -0.127360
v -0.357814 0.000000 -0.313156
v -0.067814 0.000000 -0.313156
v -0.357814 0.000000 -0.323156
v -0.067814 0.000000 -0.323156
v -0.067814 0.010000 -0.333156
v -0.067814 0.020000 -0.333156
v -0.357814 0.010000 -0.333156
v -0.357814 0.020000 -0.333156
v -0.403156 0.040000 -0.085086
v -0.026844 0.040000 -0.085086
v -0.026844 0.040000 -0.363156
v -0.403156 0.040000 -0.363156
v -0.026844 0.020000 -0.085086
v -0.403156 0.020000 -0.085086
v -0.403156 0.020000 -0.363156
v -0.357814 0.020000 -0.313156
v -0.026844 0.020000 -0.363156
v -0.067814 0.020000 -0.313156
vn 0.5774 0.5773 -0.5773
vn 0.5774 -0.5774 -0.5774
vn -0.5773 -0.5774 -0.5774
vn -0.5774 0.5774 -0.5774
vn -0.7071 0.7071 -0.0000
vn 0.7071 0.7071 -0.0000
vn 0.9045 -0.3015 -0.3015
vn 0.8944 -0.0000 0.4472
vn 0.5774 -0.5774 0.5774
vn -0.8944 -0.0000 0.4472
vn -0.9045 -0.3015 -0.3015
vn -0.5774 -0.5774 -0.5773
vn -0.0551 -0.0551 -0.9970
vn 0.0551 -0.0551 -0.9970
vn -0.0520 0.0533 -0.9972
vn 0.0520 0.0533 -0.9972
vn -0.5774 -0.5774 0.5774
vn 0.5774 -0.5774 -0.5773
vn 0.5774 -0.5773 0.5774
vn 0.5774 0.5774 0.5774
vn -0.5773 0.5774 0.5774
vn -0.9045 -0.3015 0.3015
vn -0.5773 -0.5774 0.5773
vn 0.5774 -0.5774 0.5773
vn 0.9045 -0.3015 0.3015
vn -0.7071 -0.7071 -0.0000
vn 0.7071 -0.7071 -0.0000
vn -0.0000 -0.0000 -1.0000
vn 0.3015 -0.9045 -0.3015
vn 0.3015 -0.9045 0.3015
vn -0.3015 -0.9045 0.3015
vn -0.3015 -0.9045 -0.3015
vn -0.5773 -0.5774 0.5774
vn 0.5773 -0.5773 0.5774
vn -0.5773 -0.5773 -0.5774
vn 0.5773 -0.5773 -0.5774
vn 0.3962 -0.6862 -0.6100
vn -0.3962 -0.6862 -0.6100
vn 0.2724 -0.4717 -0.8386
vn 0.3962 0.6862 -0.6100
vn 0.7924 -0.0000 -0.6100
vn 0.5447 -0.0000 -0.8386
vn 0.2724 0.4717 -0.8386
vn -0.3962 0.6862 -0.6100
vn -0.5447 -0.0000 -0.8386
vn -0.7924 -0.0000 -0.6100
vn -0.2723 0.4717 -0.8386
vn 0.3528 -0.6110 -0.7087
vn -0.3528 0.6110 -0.7087
vn 0.3527 0.6110 -0.7087
vn -0.3527 -0.6110 -0.7087
vn -0.7055 -0.0000 -0.7087
vn -0.2232 0.3868 -0.8947
vn 0.2233 0.3867 -0.8948
vn 0.3435 -0.5950 -0.7267
vn -0.3435 -0.5950 -0.7267
vn -0.3435 0.5950 -0.7267
vn -0.4465 -0.0000 -0.8948
vn -0.2723 -0.4717 -0.8386
vn 0.7055 -0.0000 -0.7087
vn -0.3527 0.6110 -0.7087
vn 0.4465 -0.0000 -0.8948
vn -0.2232 0.3867 -0.8948
vn 0.2233 -0.3867 -0.8948
vn -0.2142 0.3710 -0.9036
vn -0.6870 -0.0000 -0.7267
vn -0.5774 -0.5774 0.5773
vn -0.5774 -0.5773 -0.5774
vn -0.2233 0.3867 -0.8948
vn -0.2232 -0.3867 -0.8948
vn -0.5773 0.5774 0.5773
vn -0.5773 -0.5774 -0.5773
vn 0.5773 -0.5774 0.5773
vn 0.9045 0.3015 0.3015
vn -0.2724 0.4717 -0.8386
vn 0.6870 -0.0000 -0.7267
vn 0.4284 -0.0000 -0.9036
vn -0.2724 -0.4717 -0.8386
vn 0.2723 -0.4717 -0.8386
vn 0.2232 -0.3867 -0.8948
vn -0.2233 -0.3867 -0.8948
vn -0.2142 -0.3710 -0.9036
vn -0.4284 -0.0000 -0.9036
vn 0.5773 0.5774 -0.5773
vn -0.5774 0.5774 -0.5773
vn -0.0000 -0.0000 -0.0000
vn -0.5773 0.5774 -0.5774
vn 0.3015 -0.3015 -0.9045
vn 0.5773 0.5773 -0.5774
vn 0.5774 0.5774 -0.5773
vn -0.3015 0.3015 -0.9045
vn 0.3015 0.3015 -0.9045
vn -0.4662 -0.4662 -0.7519
vn -0.3015 0.3014 -0.9046
vn -0.4662 0.4662 -0.7519
vn -0.3015 -0.3014 -0.9046
vn -0.3015 -0.3015 -0.9045
vn 0.5773 0.5774 -0.5774
vn 0.3015 0.9045 0.3015
vn -0.3015 0.9045 0.3015
vn -0.5774 0.5773 0.5774
vn -0.5773 0.5773 -0.5774
vn -0.5773 0.5773 0.5774
vn -0.9045 0.3015 0.3015
vn 0.5773 -0.5774 0.5774
vn 0.5774 0.5774 0.5773
vn -0.5774 -0.5774 -0.5774
vn -0.3632 0.3452 -0.8654
vn 0.3632 0.3452 -0.8654
vn 0.4662 0.4662 -0.7519
vn 0.3971 -0.3971 -0.8274
vn -0.3971 -0.3971 -0.8274
vn 0.4662 -0.4662 -0.7519
vn 0.5773 -0.5774 -0.5773
vn -0.5774 -0.5773 -0.5773
vn -0.5774 -0.5773 0.5774
vn -0.1611 -0.1611 -0.9737
vn 0.1611 -0.1611 -0.9737
vn 0.4138 -0.0000 -0.9104
vn 0.2142 -0.3710 -0.9036
vn 0.2233 -0.3866 -0.8948
vn 0.2142 0.3710 -0.9036
vn 0.3435 0.5950 -0.7267
vn -0.0000 -0.0000 1.0000
vn 1.0000 -0.0000 -0.0000
vn -1.0000 -0.0000 -0.0000
vn -0.0000 -1.0000 -0.0000
vn -0.0000 1.0000 -0.0000
vn -0.0000 -0.7071 -0.7071
vt 0.000000 17.716539
vt 0.000000 16.535431
vt 16.929131 16.535431
vt 16.929131 17.716539
vt -16.929131 15.354330
vt 0.000000 15.354330
vt -16.929131 17.716539
vt -16.535431 16.535431
vt -16.535431 17.716539
vt -17.716539 17.716539
vt -17.716539 15.354330
vt -0.787402 15.354330
vt 0.787402 15.354330
vt 16.535431 16.535431
vt 17.716539 15.354330
vt 17.716539 17.716539
vt 16.535431 17.716539
vt 16.929131 0.000000
vt 15.739070 1.968504
vt 1.190059 1.968504
vt 15.739070 16.059080
vt 1.190059 16.059080
vt 16.929131 15.354330
vt -16.929131 0.787402
vt -16.929131 0.000000
vt 0.000000 0.000000
vt 0.000000 1.574803
vt -16.929131 1.574803
vt 0.000000 0.787402
vt 16.929131 2.292987
vt 0.000000 2.292987
vt 1.574803 2.292987
vt 1.574803 0.000000
vt 17.716539 0.000000
vt -0.787402 2.292987
vt -1.574803 2.292987
vt -1.574803 0.000000
vt -17.716539 0.000000
vt 16.929131 0.787402
vt 15.872280 3.349844
vt 15.872280 14.297470
vt 1.056858 14.297470
vt 1.056858 3.349844
vt -1.056858 0.787402
vt -1.056858 15.748030
vt -15.872280 15.748030
vt -15.872280 0.787402
vt 14.547040 8.036257
vt 10.856740 11.123500
vt 12.589030 11.123500
vt 11.106780 11.556570
vt 10.856740 14.123900
vt 9.990601 12.623700
vt 10.490670 12.623700
vt 11.106780 13.690830
vt 12.589030 14.123900
vt 12.955100 12.623700
vt 13.455170 12.623700
vt 12.338990 13.690830
vt -17.660030 17.125980
vt -17.660030 16.929131
vt -15.927740 16.929131
vt -12.878680 17.125980
vt -12.878680 16.929131
vt -11.579460 16.929131
vt 5.812008 3.000934
vt 6.245079 3.751035
vt 5.812008 3.751035
vt 6.245079 3.000934
vt 6.461614 3.375984
vt -3.592520 15.386290
vt -3.051181 15.386290
vt -3.105315 15.791000
vt -3.538386 15.791000
vt 3.105315 3.000934
vt 3.538386 3.751035
vt 3.105315 3.751035
vt 8.280512 3.057191
vt 8.648623 3.057191
vt 8.648623 3.694777
vt 6.208629 15.349940
vt 6.154495 15.754650
vt 5.721425 15.754650
vt 15.927740 17.125980
vt 15.927740 16.929131
vt 17.660030 16.929131
vt 17.660030 17.125980
vt 10.684060 3.751035
vt 10.467520 3.375984
vt 10.684060 3.000934
vt 11.117130 3.000934
vt 11.117130 3.751035
vt 11.333660 3.375984
vt 13.390750 3.000934
vt 13.823820 3.751035
vt 13.390750 3.751035
vt -4.855283 16.443850
vt -4.313944 16.443850
vt -4.368078 16.848560
vt -4.801149 16.848560
vt -8.103314 17.964439
vt -8.157448 18.369150
vt -8.590519 18.369150
vt -8.644652 17.964439
vt -13.877950 15.386290
vt -13.336610 15.386290
vt -13.390750 15.791000
vt -13.823820 15.791000
vt -1.533432 17.225990
vt -0.992094 17.225990
vt -1.046227 17.630699
vt -1.479298 17.630699
vt 0.307119 18.173771
vt -0.125952 18.173771
vt -0.180086 17.769060
vt -1.092060 13.506940
vt -1.124540 13.711680
vt -1.492651 13.711680
vt 11.506350 17.125980
vt 11.939420 17.125980
vt 11.939420 17.322830
vt 11.506350 17.322830
vt -4.204860 16.929131
vt -4.204860 17.125980
vt -5.937143 17.125980
vt 0.125952 14.972510
vt -0.307119 14.972510
vt -0.361253 14.567800
vt 0.180086 14.567800
vt 3.051181 16.950569
vt 3.592520 16.950569
vt 3.538386 17.355280
vt 3.105315 17.355280
vt -9.872047 12.840230
vt -9.872047 12.407160
vt -8.789371 12.407160
vt -3.355413 12.840230
vt -3.355413 12.409160
vt -2.272736 12.409160
vt 10.856740 16.929131
vt 12.589030 16.929131
vt 12.589030 17.125980
vt 10.856740 17.125980
vt 12.669430 17.125980
vt 12.669430 16.929131
vt 14.401710 16.929131
vt 14.401710 17.125980
vt -12.669430 16.929131
vt -12.669430 17.125980
vt -14.401710 17.125980
vt -14.401710 16.929131
vt 7.569239 17.125980
vt 7.569239 17.322830
vt 7.136168 17.322830
vt -7.057086 12.407160
vt -7.057086 12.840230
vt -8.139764 12.840230
vt -8.139764 12.407160
vt 9.195460 16.929131
vt 9.195460 17.125980
vt 7.463177 17.125980
vt 9.510795 14.234070
vt 9.456660 13.829350
vt 9.997999 13.829350
vt 9.943865 14.234070
vt -4.340108 17.125980
vt -6.072392 17.125980
vt -6.072392 16.929131
vt 1.492651 18.668020
vt 1.124540 18.668020
vt 1.092060 18.463289
vt 12.372490 6.227552
vt 12.122460 6.660623
vt 11.323310 6.660623
vt 12.522030 7.352704
vt 13.022100 7.352704
vt 12.372490 8.477855
vt 11.323310 8.044784
vt 12.122460 8.044784
vt -1.155792 17.125980
vt -1.155792 16.929131
vt 0.143420 16.929131
vt 4.414109 16.929131
vt 4.414109 17.125980
vt 3.114897 17.125980
vt -8.321147 16.929131
vt -8.321147 17.125980
vt -9.620359 17.125980
vt 10.629920 16.950569
vt 11.171260 16.950569
vt 11.117130 17.355280
vt 10.684060 17.355280
vt 4.096489 19.694361
vt 3.663418 19.694361
vt 3.609284 19.289640
vt 6.971917 14.639350
vt 6.939436 14.434620
vt 7.372507 14.434620
vt 7.340027 14.639350
vt -3.114897 16.929131
vt -3.114897 17.125980
vt -4.414109 17.125980
vt -7.136168 17.125980
vt -7.136168 17.322830
vt -7.569239 17.322830
vt 2.272736 7.569239
vt 2.272736 5.042009
vt 2.272736 7.136168
vt 3.788484 7.569239
vt 4.989715 9.663398
vt 4.989715 10.854340
vt 4.989715 10.313000
vt 5.422785 10.854340
vt 5.422785 8.797256
vt 5.422785 9.663398
vt 5.422785 10.313000
vt 8.139764 10.313000
vt 8.139764 9.663398
vt 8.139764 12.407160
vt 8.789371 5.042009
vt 8.139764 7.569239
vt 8.139764 7.136168
vt 6.624016 7.569239
vt 6.624016 7.136168
vt 8.139764 5.042009
vt 15.089470 4.608938
vt 5.422785 5.042009
vt 4.989715 5.042009
vt 4.989715 5.908151
vt 5.422785 5.908151
vt 11.506350 5.042009
vt 11.939420 5.042009
vt 14.656400 5.042009
vt 14.656400 7.569239
vt 14.656400 7.136168
vt 14.656400 12.407160
vt 14.656400 9.663398
vt 15.089470 15.367460
vt 4.989715 14.934390
vt 4.989715 14.393050
vt 5.422785 14.934390
vt 5.422785 14.393050
vt 8.139764 14.934390
vt 8.789371 14.934390
vt 8.139764 12.840230
vt 7.057086 12.407160
vt 7.057086 12.840230
vt 8.789371 12.840230
vt 8.789371 10.313000
vt 8.789371 12.407160
vt 9.872047 12.840230
vt 8.789371 7.136168
vt 8.789371 7.569239
vt 8.789371 9.663398
vt 11.506350 9.663398
vt 11.506350 10.313000
vt 11.506350 10.854340
vt 11.939420 10.854340
vt 11.939420 8.797256
vt 11.939420 10.313000
vt 11.939420 9.663398
vt 14.656400 10.313000
vt 13.573720 12.407160
vt 14.656400 12.840230
vt 13.573720 12.840230
vt 14.656400 14.934390
vt 11.506350 14.934390
vt 11.939420 14.934390
vt 11.506350 14.393050
vt 2.272736 12.840230
vt 2.272736 10.313000
vt 2.272736 12.409160
vt 3.355413 12.409160
vt 3.355413 12.840230
vt 2.272736 14.934390
vt 13.140650 7.569239
vt 6.072392 17.125980
vt 4.340108 17.125980
vt 4.340108 16.929131
vt 8.321147 17.125980
vt 8.321147 16.929131
vt 9.620359 16.929131
vt 9.620359 17.125980
vt -2.255938 13.590280
vt -2.310072 13.994990
vt -2.743143 13.994990
vt 4.556643 6.227552
vt 5.855856 6.227552
vt 4.806677 6.660623
vt 5.605823 6.660623
vt 6.505463 7.352704
vt 6.005395 7.352704
vt 4.556643 8.477855
vt 3.907037 7.352704
vt 4.407104 7.352704
vt 4.806677 8.044784
vt 5.855856 8.477855
vt 5.605823 8.044784
vt 11.073280 16.929131
vt 12.372490 16.929131
vt 12.372490 17.125980
vt 11.073280 17.125980
vt -11.506350 14.393050
vt -11.506350 14.934390
vt -11.939420 14.934390
vt -8.789371 16.929131
vt -8.789371 17.322830
vt -11.506350 17.125980
vt -11.506350 17.322830
vt -11.939420 17.125980
vt -14.656400 17.322830
vt -14.656400 16.929131
vt -11.939420 17.322830
vt 8.139764 16.929131
vt 8.139764 17.322830
vt 5.422785 17.125980
vt 5.422785 17.322830
vt 2.272736 16.929131
vt 4.989715 17.125980
vt 2.272736 17.322830
vt 4.989715 17.322830
vt -11.939420 5.908151
vt -11.939420 5.042009
vt -11.506350 5.042009
vt 9.663398 17.125980
vt 9.663398 17.322830
vt 8.797256 17.322830
vt -5.042009 17.125980
vt -5.042009 17.322830
vt -5.908151 17.322830
vt -5.908151 17.125980
vt 5.042009 17.322830
vt 5.042009 17.125980
vt 5.908151 17.125980
vt -2.272736 16.929131
vt -2.272736 17.322830
vt -4.989715 17.125980
vt -7.569239 17.125980
vt -9.663398 17.322830
vt -9.663398 16.929131
vt -5.042009 16.929131
vt -12.840230 17.125980
vt -12.840230 17.322830
vt -14.934390 17.322830
vt -12.407160 17.125980
vt -14.934390 16.929131
vt -10.313000 16.929131
vt -10.313000 17.322830
vt -12.407160 17.322830
vt -11.506350 9.663398
vt -11.939420 9.663398
vt -11.939420 8.797256
vt -5.422785 8.797256
vt -4.989715 8.797256
vt -4.989715 9.663398
vt -5.422785 9.663398
vt -3.355413 17.322830
vt -3.355413 17.125980
vt -5.422785 17.125980
vt -4.989715 17.322830
vt -5.422785 17.322830
vt 8.789371 16.929131
vt 14.656400 16.929131
vt 14.656400 17.322830
vt 8.789371 17.322830
vt -7.463177 16.929131
vt -7.463177 17.125980
vt -9.195460 17.125980
vt -9.195460 16.929131
vt 14.934390 16.929131
vt 12.840230 17.125980
vt 12.409160 17.125980
vt 10.313000 17.322830
vt 12.409160 17.322830
vt 12.407160 17.322830
vt 12.407160 17.125980
vt 12.840230 17.322830
vt 10.313000 16.929131
vt -14.656400 17.125980
vt -13.573720 17.125980
vt -13.573720 17.322830
vt -10.313000 17.125980
vt -10.854340 17.322830
vt 14.393050 17.322830
vt 14.393050 17.125980
vt 14.934390 17.125980
vt 3.974034 12.623700
vt 3.473967 12.623700
vt 4.340108 11.123500
vt 6.072392 11.123500
vt 4.590142 11.556570
vt 4.590142 13.690830
vt 4.340108 14.123900
vt 6.072392 14.123900
vt 5.822358 13.690830
vt 6.438466 12.623700
vt 7.136168 17.125980
vt 5.042009 16.929131
vt 9.663398 16.929131
vt 7.057086 17.125980
vt 8.139764 17.125980
vt 7.057086 17.322830
vt -10.305120 17.125980
vt -8.789371 17.125980
vt -10.305120 17.322830
vt -9.872047 17.322830
vt -9.872047 17.125980
vt -13.140650 17.125980
vt -13.140650 17.322830
vt -16.177780 17.125980
vt -16.177780 17.322830
vt -17.409990 17.322830
vt 8.789371 17.125980
vt 10.305120 17.125980
vt 10.305120 17.322830
vt -5.605823 17.125980
vt -4.806677 17.125980
vt -4.806677 17.322830
vt -5.605823 17.322830
vt -15.306000 10.344680
vt -1.623130 10.344680
vt -1.839665 10.973680
vt -15.089470 10.973680
vt -4.454893 17.125980
vt -4.454893 17.322830
vt -5.687109 17.322830
vt -8.139764 17.322830
vt 1.623130 17.221649
vt 15.306000 17.221649
vt 15.089470 17.850651
vt 1.839665 17.850651
vt 4.806677 17.125980
vt 5.605823 17.125980
vt 5.605823 17.322830
vt -15.584000 16.268311
vt -4.392403 16.268311
vt -4.608938 16.897310
vt -15.367460 16.897310
vt -12.122460 17.125980
vt -11.323310 17.125980
vt -11.323310 17.322830
vt -12.122460 17.322830
vt -7.057086 17.322830
vt -8.139764 17.125980
vt -6.624016 17.125980
vt -6.624016 17.322830
vt 5.822358 11.556570
vt -7.713210 17.125980
vt -7.713210 17.322830
vt -8.945427 17.322830
vt 8.571180 17.322830
vt 8.571180 17.125980
vt 9.370326 17.125980
vt 9.370326 17.322830
vt 10.854340 17.125980
vt 10.854340 17.322830
vt 4.608938 11.069380
vt 4.392403 10.440380
vt 15.584000 10.440380
vt 15.367460 11.069380
vt -14.151680 17.322830
vt -14.151680 17.125980
vt -12.919460 17.125980
vt 8.945427 17.125980
vt 8.945427 17.322830
vt 7.713210 17.322830
vt -4.989715 10.313000
vt -4.989715 10.854340
vt -5.422785 10.854340
vt -5.422785 10.313000
vt 11.323310 17.125980
vt 12.122460 17.125980
vt 12.122460 17.322830
vt 11.323310 17.322830
vt 14.151680 17.125980
vt 14.151680 17.322830
vt 12.919460 17.322830
vt 8.797256 17.125980
vt 2.272736 17.125980
vt 3.788484 17.125980
vt 3.788484 17.322830
vt 17.409990 17.125980
vt 17.409990 17.322830
vt 16.177780 17.322830
vt -12.338990 17.125980
vt -11.106780 17.125980
vt -11.106780 17.322830
vt -12.338990 17.322830
vt -12.628640 17.322830
vt -12.628640 17.125980
vt -11.829500 17.125980
vt 9.872047 17.125980
vt 9.872047 17.322830
vt -3.364930 17.125980
vt -3.364930 17.322830
vt -4.164076 17.322830
vt 3.364930 17.322830
vt 3.364930 17.125980
vt 4.164076 17.125980
vt 4.164076 17.322830
vt -8.797256 17.125980
vt -8.797256 17.322830
vt -9.663398 17.125980
vt -0.106613 17.125980
vt -0.106613 17.322830
vt -0.905759 17.322830
vt -0.905759 17.125980
vt -5.822358 17.125980
vt -4.590142 17.125980
vt -4.590142 17.322830
vt -5.822358 17.322830
vt 11.829500 17.322830
vt 11.829500 17.125980
vt 12.628640 17.125980
vt 11.106780 17.125980
vt 12.338990 17.125980
vt 12.338990 17.322830
vt 11.106780 17.322830
vt 10.923740 7.352704
vt -4.989715 14.393050
vt -4.989715 14.934390
vt -5.422785 14.934390
vt -5.422785 14.393050
vt 14.934390 17.322830
vt -14.547040 2.362205
vt -14.547040 15.748030
vt -15.872280 2.362205
vt 1.056858 9.430826
vt 2.989266 8.643424
vt 13.939870 8.643424
vt 13.939870 9.430826
vt 13.939870 15.748030
vt 13.939870 2.362205
vt 15.872280 2.362205
vt 15.872280 15.748030
vt -2.362205 8.643424
vt -2.362205 9.430826
vt -15.748030 9.430826
vt -15.748030 8.643424
vt 2.989266 15.748030
vt 2.989266 2.362205
vt 2.362205 9.430826
vt 2.362205 8.643424
vt 15.748030 8.643424
vt 1.056858 15.748030
vt 1.056858 2.362205
vt -1.056858 2.362205
vt -2.382099 15.748030
vt -2.382099 2.362205
vt -2.362205 8.036257
vt -2.362205 8.823659
vt -15.748030 8.823659
vt -15.748030 8.036257
vt 15.748030 8.036257
vt 15.748030 8.823659
vt 2.362205 8.823659
vt -15.748030 3.349844
vt -0.787402 3.349844
vt 0.787402 14.297470
vt 0.787402 3.349844
vt 15.748030 3.349844
vt 15.748030 14.297470
vt 15.748030 9.430826
vt 15.584000 -7.010205
vt 4.392403 -7.010205
vt 2.401575 -7.010205
vt 1.968504 -7.485915
vt -15.739070 -8.506286
vt -1.190059 -8.506286
vt -1.623130 -7.992038
vt -15.306000 -7.992038
vt 11.073280 8.477855
vt -16.059080 7.925801
vt -1.968504 7.925801
vt -2.401575 8.401511
vt -4.392403 8.401511
vt -15.584000 8.401511
vt 3.051181 2.907171
vt 2.780512 3.375984
vt 1.623130 4.392403
vt 15.306000 2.401575
vt 3.592520 2.907171
vt 5.757874 2.907171
vt 5.487205 3.375984
vt 3.863189 3.375984
vt 8.248032 3.000934
vt 6.299212 2.907171
vt 6.569882 3.375984
vt 8.681103 3.000934
vt 10.629920 2.907171
vt 8.897637 3.375984
vt 10.359250 3.375984
vt 11.171260 2.907171
vt 11.441930 3.375984
vt 13.336610 2.907171
vt 13.065940 3.375984
vt 6.299212 3.844797
vt 8.248032 3.751035
vt 3.592520 3.844797
vt 5.757874 3.844797
vt 15.306000 4.392403
vt 3.051181 3.844797
vt 8.681103 3.751035
vt 10.629920 3.844797
vt 11.171260 3.844797
vt 2.272736 9.663398
vt 6.938533 12.623700
vt 0.787402 2.292987
vt 1.056858 0.787402
vt 15.872280 0.787402
vt 15.872280 8.823659
vt 14.547040 8.823659
vt 2.382099 8.036257
vt 1.056858 8.823659
vt 2.382099 8.823659
vt 12.338990 11.556570
vt -15.927740 17.125980
vt -11.579460 17.125980
vt 5.595472 3.375984
vt -12.589030 16.929131
vt -10.856740 16.929131
vt -10.856740 17.125980
vt -12.589030 17.125980
vt 1.479298 15.515580
vt 1.046227 15.515580
vt 0.992094 15.110870
vt 1.533432 15.110870
vt 4.204860 17.125980
vt 4.204860 16.929131
vt 5.937143 16.929131
vt 5.937143 17.125980
vt 2.888780 3.375984
vt 3.538386 3.000934
vt 3.754921 3.375984
vt 8.280512 3.694777
vt 8.096457 3.375984
vt 8.832677 3.375984
vt 5.667291 15.349940
vt 13.174210 3.375984
vt 13.823820 3.000934
vt 14.040350 3.375984
vt 4.368078 16.297720
vt 4.313944 15.893010
vt 4.855283 15.893010
vt 4.801149 16.297720
vt 0.361253 17.769060
vt -1.525131 13.506940
vt -5.937143 16.929131
vt -8.789371 12.840230
vt -6.299212 15.386290
vt -5.757874 15.386290
vt -5.812008 15.791000
vt -6.245079 15.791000
vt -2.272736 12.840230
vt -14.393050 17.125980
vt -14.393050 17.322830
vt -14.934390 17.125980
vt 7.463177 16.929131
vt -4.340108 16.929131
vt -11.171260 15.386290
vt -10.629920 15.386290
vt -10.684060 15.791000
vt -11.117130 15.791000
vt 1.525131 18.463289
vt 13.336610 16.950569
vt 13.877950 16.950569
vt 13.823820 17.355280
vt 13.390750 17.355280
vt 10.423670 7.352704
vt 11.073280 6.227552
vt 0.143420 17.125980
vt 11.579460 17.125980
vt 11.579460 16.929131
vt 12.878680 16.929131
vt 12.878680 17.125980
vt -7.372507 17.535610
vt -6.939436 17.535610
vt -6.971917 17.740351
vt -7.340027 17.740351
vt 2.255938 18.746580
vt 2.797276 18.746580
vt 2.743143 19.151291
vt 2.310072 19.151291
vt 3.114897 16.929131
vt -12.372490 16.929131
vt -11.073280 16.929131
vt -11.073280 17.125980
vt -12.372490 17.125980
vt -9.620359 16.929131
vt 5.757874 16.950569
vt 6.299212 16.950569
vt 6.245079 17.355280
vt 5.812008 17.355280
vt -3.663418 13.451930
vt -4.096489 13.451930
vt -4.150623 13.047220
vt -3.609284 13.047220
vt 4.150623 19.289640
vt -9.456660 18.507509
vt -9.510795 18.912220
vt -9.943865 18.912220
vt -9.997999 18.507509
vt -4.414109 16.929131
vt -0.143420 17.125980
vt -0.143420 16.929131
vt 1.155792 16.929131
vt 1.155792 17.125980
vt 3.788484 7.136168
vt 4.989715 8.797256
vt 1.839665 4.608938
vt 11.939420 5.908151
vt 11.506350 5.908151
vt 1.839665 15.367460
vt 9.872047 12.407160
vt 10.305120 7.136168
vt 10.305120 7.569239
vt 11.506350 8.797256
vt 11.939420 14.393050
vt 13.140650 7.136168
vt 6.072392 16.929131
vt 8.157448 14.777130
vt 8.103314 14.372420
vt 8.644652 14.372420
vt 8.590519 14.777130
vt 4.556643 16.929131
vt 5.855856 16.929131
vt 5.855856 17.125980
vt 4.556643 17.125980
vt -2.797276 13.590280
vt 8.248032 16.912790
vt 8.681103 16.912790
vt 8.648623 17.117531
vt 8.280512 17.117531
vt -5.855856 16.929131
vt -4.556643 16.929131
vt -4.556643 17.125980
vt -5.855856 17.125980
vt -5.667291 16.986919
vt -5.721425 17.391630
vt -6.154495 17.391630
vt -6.208629 16.986919
vt -8.681103 15.057440
vt -8.248032 15.057440
vt -8.280512 15.262170
vt -8.648623 15.262170
vt 13.140650 17.125980
vt 14.656400 17.125980
vt 13.140650 17.322830
vt -11.939420 14.393050
vt -11.506350 5.908151
vt -14.656400 7.136168
vt -13.140650 7.136168
vt -13.140650 7.569239
vt -14.656400 7.569239
vt 5.908151 17.322830
vt -8.139764 16.929131
vt 6.624016 17.125980
vt 6.624016 17.322830
vt -11.506350 8.797256
vt -8.789371 7.136168
vt -8.789371 7.569239
vt -10.305120 7.569239
vt -10.305120 7.136168
vt 4.590142 17.125980
vt 5.822358 17.125980
vt 5.822358 17.322830
vt 4.590142 17.322830
vt 13.573720 17.125980
vt 13.573720 17.322830
vt -2.272736 17.125980
vt -6.624016 7.136168
vt -6.624016 7.569239
vt -8.139764 7.569239
vt -8.139764 7.136168
vt -13.573720 12.407160
vt -13.573720 12.840230
vt -14.656400 12.840230
vt -14.656400 12.407160
vt -11.506350 10.313000
vt -11.506350 10.854340
vt -11.939420 10.854340
vt -11.939420 10.313000
vt -10.854340 17.125980
vt -4.989715 5.042009
vt -4.989715 5.908151
vt -5.422785 5.908151
vt -5.422785 5.042009
vt -2.272736 7.136168
vt -2.272736 7.569239
vt -3.788484 7.569239
vt -3.788484 7.136168
vt -17.409990 17.125980
vt -5.687109 17.125980
vt 4.806677 17.322830
vt 4.454893 17.322830
vt 4.454893 17.125980
vt 5.687109 17.125980
vt 5.687109 17.322830
vt -7.057086 17.125980
vt 0.106613 17.322830
vt 0.106613 17.125980
vt 0.905759 17.125980
vt 0.905759 17.322830
vt -8.945427 17.125980
vt 10.313000 17.125980
vt -12.919460 17.322830
vt 7.713210 17.125980
vt 12.919460 17.125980
vt -8.571180 17.125980
vt -8.571180 17.322830
vt -9.370326 17.322830
vt -9.370326 17.125980
vt 16.177780 17.125980
vt -11.829500 17.322830
vt -4.164076 17.125980
vt 3.355413 17.125980
vt 3.355413 17.322830
vt -3.788484 17.125980
vt -3.788484 17.322830
vt 12.628640 17.322830
vt 15.872280 9.430826
vt 2.989266 9.430826
vt 2.362205 8.036257
vt -0.787402 14.297470
vt -15.748030 14.297470
vt 16.059080 -7.485915
vt 1.623130 2.401575
vt 8.031496 3.375984
vt 13.877950 2.907171
vt 14.148620 3.375984
vt 13.336610 3.844797
vt 13.877950 3.844797
vt 1.623130 9.110182
vt 1.190059 8.634471
vt 15.739070 8.634471
vt 15.306000 9.110182
vt -1.612980 -0.393701
vt -1.612980 0.393701
vt -13.030300 0.393701
vt -13.030300 -0.393701
vt 1.612980 0.393701
vt 1.612980 -0.393701
vt 13.030300 -0.393701
vt 13.030300 0.393701
vt 0.393701 1.664347
vt 0.393701 8.008337
vt -0.393701 8.008337
vt -0.393701 1.664347
vt 1.612980 8.979125
vt 13.030300 8.979125
vt 13.030300 9.372826
vt 1.612980 9.372826
vt 1.612980 -0.787402
vt 13.030300 -0.787402
vt -1.612980 1.664347
vt -14.815420 0.000000
vt 0.000000 10.947630
vt -1.612980 8.008337
vt -13.030300 8.008337
vt -13.030300 1.664347
vt -14.815420 10.947630
vt 0.000000 -0.393701
vt 0.000000 0.393701
vt -14.815420 0.393701
vt -14.815420 -0.393701
vt 13.030300 1.664347
vt 14.815420 0.000000
vt 14.815420 10.947630
vt 13.030300 8.008337
vt 1.612980 8.008337
vt 13.030300 9.766526
vt 1.612980 9.766526
vt 1.612980 1.664347
vt -1.612980 -1.181102
vt -13.030300 -1.181102
vt 14.815420 -0.393701
vt 14.815420 0.393701
vt 0.393701 0.000000
vt 0.393701 10.947630
vt -0.393701 10.947630
vt -0.393701 0.000000
vt -1.181102 9.372826
vt -1.181102 8.979125
vt -0.393701 8.979125
vt -0.787402 9.766526
vt -0.393701 9.766526
vt 1.181102 8.979125
vt 1.181102 9.372826
vt 0.787402 9.766526
vt 0.393701 8.979125
vt 0.393701 9.766526
vt 1.612980 5.792423
vt 13.030300 5.792423
vt 13.030300 6.349200
vt 1.612980 6.349200
s 1
usemtl metal.004
f 2/1/1 1/2/2 3/3/3
f 3/3/3 4/4/4 2/1/1
f 6/5/5 5/6/6 2/1/1
f 2/1/1 4/7/4 6/5/5
f 7/8/7 1/9/2 2/10/1
f 7/8/7 2/10/1 5/11/6
f 7/8/7 5/11/6 8/12/8
f 7/8/7 8/12/8 9/6/9
f 13/13/10 14/14/11 12/2/12
f 13/13/10 6/15/5 14/14/11
f 6/15/5 4/16/4 3/17/3
f 12/18/12 16/19/13 15/20/14
f 12/18/12 17/21/15 16/19/13
f 18/22/16 17/21/15 14/3/11
f 17/21/15 12/18/12 14/3/11
f 9/6/9 11/23/17 12/3/12
f 12/3/12 10/2/18 9/6/9
f 13/24/10 11/25/17 9/26/9
f 9/6/9 10/2/18 7/8/7
f 12/2/12 11/6/17 13/13/10
f 6/15/5 3/17/3 14/14/11
f 7/2/7 14/3/11 3/4/3
f 3/4/3 1/1/2 7/2/7
f 15/20/14 7/2/7 10/26/18
f 10/26/18 12/18/12 15/20/14
f 7/2/7 15/20/14 18/22/16
f 18/22/16 14/3/11 7/2/7
f 9/26/9 8/29/8 13/24/10
f 386/837/124 385/838/124 387/839/124
f 387/839/124 388/840/124 386/837/124
f 390/841/28 389/842/28 391/843/28
f 391/843/28 392/844/28 390/841/28
f 391/845/125 388/846/125 387/847/125
f 387/847/125 392/848/125 391/845/125
f 386/847/126 389/848/126 390/845/126
f 390/845/126 385/846/126 386/847/126
f 394/849/127 393/850/127 395/851/127
f 395/851/127 396/852/127 394/849/127
f 398/842/28 397/853/28 399/854/28
f 399/854/28 400/843/28 398/842/28
f 390/855/128 401/856/128 402/26/128
f 402/26/128 403/857/128 390/855/128
f 403/857/128 385/858/128 390/855/128
f 403/857/128 387/859/128 385/858/128
f 401/856/128 390/855/128 392/860/128
f 392/860/128 404/861/128 401/856/128
f 392/860/128 387/859/128 404/861/128
f 387/859/128 403/857/128 404/861/128
f 405/862/124 402/863/124 401/864/124
f 401/864/124 406/865/124 405/862/124
f 391/866/127 405/26/127 406/867/127
f 406/867/127 407/868/127 391/866/127
f 407/868/127 388/869/127 391/866/127
f 407/868/127 408/850/127 388/869/127
f 408/850/127 386/870/127 388/869/127
f 407/868/127 400/871/127 408/850/127
f 407/868/127 398/872/127 400/871/127
f 405/26/127 391/866/127 389/873/127
f 389/873/127 409/857/127 405/26/127
f 389/873/127 386/870/127 409/857/127
f 398/872/127 407/868/127 409/857/127
f 386/870/127 410/849/127 409/857/127
f 386/870/127 408/850/127 410/849/127
f 410/849/127 398/872/127 409/857/127
f 394/874/124 410/837/124 408/840/124
f 408/840/124 393/875/124 394/874/124
f 403/863/28 409/862/28 407/876/28
f 407/876/28 404/877/28 403/863/28
f 405/878/125 409/879/125 403/880/125
f 403/880/125 402/881/125 405/878/125
f 395/882/126 393/883/126 408/884/126
f 408/884/126 399/885/126 395/882/126
f 408/884/126 400/886/126 399/885/126
f 394/887/125 396/888/125 397/889/125
f 397/889/125 410/890/125 394/887/125
f 397/889/125 398/891/125 410/890/125
f 396/892/129 395/893/129 399/894/129
f 399/894/129 397/895/129 396/892/129
f 407/880/126 406/881/126 401/878/126
f 401/878/126 404/879/126 407/880/126
usemtl wood.004
f 20/27/19 19/1/20 21/7/21
f 25/28/22 26/24/23 24/29/24
f 25/30/22 23/31/25 20/26/19
f 25/32/22 22/33/17 21/34/21
f 25/32/22 6/15/5 13/13/26
f 24/35/24 8/12/27 5/11/6
f 5/11/6 23/36/25 24/35/24
f 5/11/6 20/37/19 23/36/25
f 5/11/6 19/38/20 20/37/19
f 5/1/28 8/29/28 13/39/28
f 13/39/28 6/4/28 5/1/28
f 21/25/21 19/26/20 5/6/6
f 5/6/6 6/5/5 21/25/21
f 27/40/29 24/31/24 26/30/23
f 13/23/26 28/41/30 27/40/29
f 13/23/26 29/42/31 28/41/30
f 24/31/24 27/40/29 30/43/32
f 30/43/32 29/42/31 8/6/27
f 29/42/31 13/23/26 8/6/27
f 21/7/21 22/28/17 20/27/19
f 24/29/24 23/27/25 25/28/22
f 20/26/19 22/18/17 25/30/22
f 25/32/22 21/34/21 6/15/5
f 13/13/26 26/608/23 25/32/22
f 26/30/23 13/23/26 27/40/29
f 30/43/32 8/6/27 24/31/24
usemtl metalDark.001
f 29/44/31 33/45/33 34/46/34
f 34/46/34 28/47/30 29/44/31
f 35/48/31 31/43/35 32/40/36
f 43/49/37 45/50/38 44/51/39
f 49/52/40 41/53/41 42/54/42
f 50/55/43 51/56/44 49/52/40
f 47/57/45 48/58/46 51/56/44
f 52/59/47 47/57/45 51/56/44
f 49/60/40 54/61/43 53/62/42
f 57/63/40 58/64/43 56/65/42
f 61/66/48 62/67/49 60/68/50
f 61/66/48 63/69/51 62/67/49
f 63/69/51 64/70/52 62/67/49
f 69/71/53 70/72/54 71/73/50
f 71/73/50 67/74/49 69/71/53
f 74/75/48 67/76/49 71/77/50
f 78/78/55 80/79/56 79/80/57
f 83/81/58 64/82/52 63/83/51
f 45/84/38 84/85/59 72/86/45
f 72/86/45 48/87/46 45/84/38
f 86/88/50 85/89/60 87/90/48
f 87/90/48 89/91/51 88/92/61
f 89/91/51 90/93/52 88/92/61
f 93/94/48 94/95/49 92/96/50
f 70/97/54 97/98/62 73/99/60
f 73/99/60 71/100/50 70/97/54
f 98/101/62 85/102/60 86/103/50
f 86/103/50 99/104/54 98/101/62
f 102/105/63 101/106/54 92/107/50
f 92/107/50 94/108/49 102/105/63
f 97/109/62 103/110/64 74/111/48
f 74/111/48 73/112/60 97/109/62
f 61/113/48 59/114/60 105/115/62
f 111/116/65 79/117/57 81/118/66
f 113/119/34 112/120/67 114/121/68
f 114/121/68 115/122/2 113/119/34
f 118/121/35 119/122/36 117/119/34
f 120/123/39 43/124/37 41/125/41
f 62/126/49 64/127/52 83/128/58
f 83/128/58 121/129/69 62/126/49
f 103/130/64 100/131/70 75/132/51
f 75/132/51 74/133/48 103/130/64
f 124/134/71 125/135/17 123/136/22
f 129/137/71 130/138/17 128/139/22
f 120/140/39 84/141/59 45/142/38
f 45/142/38 43/143/37 120/140/39
f 136/144/38 135/145/59 137/146/45
f 137/146/45 138/147/46 136/144/38
f 140/148/42 139/149/41 141/150/40
f 141/150/40 142/151/43 140/148/42
f 145/152/71 146/153/4 144/154/72
f 148/155/73 147/156/20 149/157/74
f 149/157/74 150/158/25 148/155/73
f 151/159/75 152/160/44 138/161/46
f 95/162/51 153/163/70 154/164/58
f 154/164/58 96/165/52 95/162/51
f 141/166/40 152/167/44 151/168/75
f 78/169/55 76/170/76 157/171/77
f 162/172/38 163/173/78 161/174/79
f 162/172/38 164/175/45 163/173/78
f 162/172/38 165/176/46 164/175/45
f 164/175/45 165/176/46 167/177/44
f 166/178/43 168/179/47 167/177/44
f 168/179/47 164/175/45 167/177/44
f 55/180/41 56/181/42 169/182/39
f 176/183/47 177/184/44 175/185/46
f 180/186/42 179/187/41 181/188/40
f 173/189/80 183/190/81 89/191/51
f 89/191/51 87/192/48 173/189/80
f 93/193/48 91/194/60 184/195/62
f 80/196/56 185/197/82 110/198/83
f 110/198/83 81/199/66 80/196/56
f 187/200/39 186/201/37 179/202/41
f 189/203/73 188/204/2 190/205/84
f 194/152/71 195/153/85 193/154/3
s 0
f 197/206/86 196/207/86 198/208/86
s 1
f 198/208/12 195/209/85 197/206/87
s 0
f 202/210/86 203/211/86 201/212/86
s 1
f 202/210/88 204/213/85 203/211/89
f 205/214/68 204/213/85 202/210/88
s 0
f 205/214/28 208/215/28 207/216/28
s 1
f 208/215/12 209/217/90 207/216/87
f 208/215/12 210/218/88 209/217/90
s 0
f 210/218/28 211/219/28 209/217/28
s 1
f 212/220/91 210/218/88 213/221/92
f 212/220/91 213/221/92 214/222/88
f 214/222/88 213/221/92 190/223/84
f 190/223/84 188/224/2 214/222/88
f 212/220/91 214/222/88 215/225/92
f 216/226/93 212/220/91 215/225/92
f 216/226/93 217/227/94 218/228/92
f 221/229/89 218/228/92 220/230/85
f 216/226/93 222/231/92 212/220/91
f 216/226/93 223/232/91 222/231/92
f 216/226/93 226/233/92 223/232/91
f 216/226/93 228/234/92 227/235/88
f 216/226/93 230/236/28 229/237/88
f 216/226/93 231/238/95 230/236/28
f 133/239/88 131/240/36 234/241/96
f 234/241/96 131/240/36 235/242/35
f 234/241/96 236/243/88 231/238/95
f 236/243/88 211/219/28 237/244/97
s 0
f 211/219/86 236/243/86 238/245/86
s 1
f 239/246/18 211/219/36 238/245/90
f 238/245/90 240/247/98 239/246/18
f 211/219/28 241/248/91 237/244/97
f 211/219/28 242/249/28 241/248/91
s 0
f 241/248/86 242/249/86 243/250/86
s 1
f 243/250/12 244/251/85 241/248/91
f 211/219/28 212/220/91 242/249/28
s 0
f 246/252/28 247/253/28 242/249/28
s 1
f 248/254/12 250/255/88 249/256/90
s 0
f 250/255/28 108/257/28 249/256/28
s 1
f 250/255/88 109/258/85 108/257/89
f 250/255/88 114/259/68 109/258/85
s 0
f 114/259/28 251/260/28 109/258/28
f 251/260/86 114/259/86 252/261/86
s 1
f 252/261/12 253/262/90 251/260/87
s 0
f 229/237/28 230/236/28 253/262/28
s 1
f 254/263/18 230/236/36 255/264/90
f 255/264/90 256/265/98 254/263/18
f 257/266/88 230/236/28 231/238/95
f 259/267/88 258/268/97 231/238/95
f 259/267/88 119/269/36 258/268/97
s 0
f 260/270/86 199/271/86 261/272/86
s 1
f 261/272/12 263/273/3 262/274/85
s 0
f 199/271/28 260/270/28 232/275/28
s 1
f 227/235/88 228/234/92 265/276/84
f 136/277/38 267/278/37 266/279/39
f 270/280/38 269/281/78 174/282/45
f 174/282/45 175/283/46 270/280/38
f 155/284/69 88/285/61 90/286/52
f 186/287/37 270/288/38 272/289/79
f 270/288/38 273/290/78 272/289/79
f 270/288/38 175/291/46 274/292/45
f 181/293/40 179/294/41 271/295/42
f 271/295/42 275/296/43 181/293/40
f 275/296/43 177/297/44 181/293/40
f 274/292/45 175/291/46 177/297/44
f 276/298/47 274/292/45 177/297/44
f 169/299/39 170/300/59 162/301/38
f 162/301/38 160/302/37 169/299/39
f 117/303/34 283/304/30 284/305/31
f 286/306/85 242/307/85 285/308/99
f 242/307/85 249/309/90 285/308/99
f 287/310/100 253/311/90 282/312/84
f 287/310/100 251/313/87 253/311/90
f 290/314/18 210/315/88 289/316/31
f 210/315/88 208/317/12 289/316/31
f 288/318/72 289/316/31 291/319/30
f 291/319/30 200/320/12 288/318/72
f 291/319/30 202/321/88 200/320/12
f 294/322/101 295/323/100 293/324/99
f 293/308/99 298/312/84 299/306/85
f 299/306/85 212/307/91 293/308/99
f 298/312/84 293/308/99 295/310/100
f 295/310/100 223/313/91 226/311/92
f 300/325/31 252/326/12 114/327/68
f 301/328/99 218/329/92 221/330/89
f 221/330/89 302/331/20 301/328/99
f 223/332/91 295/333/100 294/334/101
f 305/335/85 199/336/85 304/337/99
f 132/319/34 307/316/17 235/317/35
f 235/317/35 131/321/36 132/319/34
f 309/316/31 308/318/72 310/314/18
f 310/314/18 236/315/88 309/316/31
f 236/315/88 234/317/96 309/316/31
f 134/319/30 133/321/88 232/320/97
f 297/338/74 228/205/92 229/339/88
f 297/338/74 229/339/88 311/340/18
f 277/203/25 311/340/18 298/341/84
f 298/341/84 226/329/92 227/204/88
f 149/342/74 238/343/90 236/344/88
f 150/345/25 149/342/74 310/346/18
f 303/347/84 209/348/90 211/349/36
f 313/350/30 300/351/31 112/352/67
f 321/353/67 320/354/34 291/355/30
f 291/355/30 289/356/31 321/353/67
f 240/343/98 147/342/20 148/345/73
f 260/336/102 262/357/85 129/358/71
f 323/359/101 302/337/20 221/360/89
f 221/360/89 220/361/85 323/359/101
f 325/359/103 324/337/20 203/360/89
f 284/120/31 326/362/72 280/363/18
f 280/363/18 257/364/88 284/120/31
f 326/362/72 284/120/31 283/119/30
f 283/119/30 237/365/97 326/362/72
f 283/119/30 259/122/88 237/365/97
f 266/366/39 267/367/37 139/368/41
f 139/368/41 140/369/42 266/366/39
f 308/370/72 127/371/104 128/372/22
f 199/373/85 128/372/22 261/374/12
f 263/374/3 130/372/17 129/371/71
f 245/375/3 125/376/17 124/371/71
f 124/371/71 244/377/85 245/375/3
f 320/319/34 321/316/67 205/317/68
f 294/310/101 292/308/20 225/309/89
f 225/309/89 224/313/85 294/310/101
f 278/203/105 264/204/2 265/205/84
f 313/255/28 300/261/28 287/260/28
f 123/376/22 242/373/85 286/378/85
f 326/370/72 241/377/91 122/371/104
f 279/379/74 328/380/20 256/381/98
f 256/381/98 255/311/90 279/379/74
f 285/382/99 249/348/90 108/383/89
f 118/384/35 116/385/17 284/386/31
f 313/119/30 248/365/12 330/362/72
f 331/387/42 139/388/41 267/389/37
f 267/389/37 136/390/38 317/391/39
f 331/387/42 333/392/43 141/393/40
f 333/392/43 152/394/44 141/393/40
f 334/395/47 332/396/45 152/394/44
f 335/397/22 196/332/91 336/398/85
f 288/399/72 197/153/87 337/152/104
f 148/400/73 150/401/25 211/315/36
f 211/315/36 239/402/18 148/400/73
f 293/328/99 222/329/92 225/330/89
f 225/330/89 292/331/20 293/328/99
f 145/403/71 314/404/104 247/307/85
f 247/307/85 146/405/4 145/403/71
f 241/307/91 244/406/85 124/407/71
f 297/379/74 296/408/106 265/409/84
f 265/409/84 228/311/92 297/379/74
f 327/338/74 213/205/92 210/339/88
f 312/203/25 327/338/74 290/340/18
f 330/399/72 247/153/85 314/152/104
f 330/399/72 248/326/12 247/153/85
f 122/248/28 149/245/28 150/219/28
f 150/219/28 123/250/28 122/248/28
f 42/410/42 339/411/41 340/412/40
f 315/413/22 143/414/17 144/415/72
f 144/415/72 246/365/107 315/413/22
f 276/416/47 275/417/43 341/418/40
f 341/418/40 342/419/44 276/416/47
f 344/420/108 343/421/109 233/422/110
f 233/422/110 231/423/95 344/420/108
f 44/424/39 345/425/37 339/426/41
f 196/336/91 218/360/92 301/337/99
f 329/359/100 217/361/94 215/427/92
f 340/55/40 339/54/41 345/51/37
f 350/428/111 349/429/112 216/430/93
f 216/430/93 219/431/113 350/428/111
f 272/432/79 273/433/78 351/434/38
f 343/435/109 350/436/111 219/437/113
f 219/437/113 233/438/110 343/435/109
f 168/439/47 166/440/43 353/441/40
f 353/441/40 354/442/44 168/439/47
f 240/443/98 238/427/90 149/444/74
f 327/444/74 191/445/20 190/446/84
f 190/446/84 213/427/92 327/444/74
f 357/392/40 356/387/41 319/391/37
f 318/447/38 359/396/46 358/395/44
f 317/448/39 319/449/37 356/450/41
f 351/451/38 273/452/78 274/453/45
f 274/453/45 361/454/46 351/451/38
f 325/455/103 204/456/85 207/373/87
f 216/457/93 349/458/112 344/459/108
f 344/459/108 231/460/95 216/457/93
f 357/461/40 333/462/43 331/463/42
f 334/464/47 358/465/44 359/466/46
f 304/467/99 324/468/20 325/469/103
f 325/469/103 306/470/100 304/467/99
f 161/471/79 163/472/78 362/473/38
f 362/473/38 363/474/37 161/471/79
f 332/475/45 359/476/46 318/477/38
f 205/327/68 321/478/67 289/325/31
f 335/479/22 192/480/17 193/481/3
f 47/482/45 348/483/46 347/484/38
f 52/485/47 50/486/43 340/487/40
f 340/487/40 346/488/44 52/485/47
f 353/489/40 166/490/43 159/491/42
f 123/413/22 125/492/17 245/493/3
f 272/494/79 352/495/37 360/496/41
f 361/497/46 274/498/45 276/499/47
f 276/499/47 342/500/44 361/497/46
f 320/501/34 206/502/2 202/339/88
f 202/339/88 291/503/30 320/501/34
f 161/504/79 363/505/37 364/506/41
f 364/506/41 159/507/42 161/504/79
f 334/508/47 333/509/43 357/510/40
f 357/510/40 358/511/44 334/508/47
f 250/339/88 313/503/30 113/501/34
f 362/512/38 163/513/78 164/514/45
f 44/515/39 46/516/78 347/517/38
f 347/517/38 345/518/37 44/515/39
f 353/178/40 364/519/41 363/174/37
f 363/174/37 354/179/44 353/178/40
f 363/174/37 362/173/38 354/179/44
f 362/173/38 355/175/46 354/179/44
f 132/520/34 134/521/30 309/522/31
f 309/522/31 307/523/17 132/520/34
f 309/386/31 234/524/96 235/384/35
f 365/525/31 37/526/17 36/46/34
f 36/46/34 366/527/25 365/525/31
f 34/41/34 33/42/33 370/528/68
f 371/529/35 372/530/2 368/531/29
f 368/532/29 373/533/114 374/534/7
f 374/534/7 367/535/2 368/532/29
f 375/536/29 373/537/114 368/538/29
f 368/538/29 372/539/2 375/536/29
f 371/540/35 376/541/32 375/533/29
f 375/533/29 372/532/2 371/540/35
f 377/542/115 376/543/32 371/544/35
f 370/545/68 378/546/11 377/541/115
f 377/541/115 369/540/32 370/545/68
f 379/547/22 39/45/116 40/548/19
f 40/548/19 380/549/30 379/547/22
f 381/550/105 380/551/30 40/552/19
f 40/552/19 38/553/30 381/550/105
f 381/549/105 38/548/30 35/526/31
f 35/526/31 382/525/23 381/549/105
f 35/554/31 37/555/17 365/556/31
f 366/551/25 32/557/36 27/558/29
f 366/551/25 36/552/34 32/557/36
f 379/556/22 29/559/31 30/560/32
f 30/560/32 31/561/35 379/556/22
f 29/559/31 379/556/22 378/542/11
f 378/542/11 33/562/33 29/559/31
f 378/542/11 370/563/68 33/562/33
f 31/545/35 30/609/32 27/610/29
f 27/610/29 32/535/36 31/545/35
f 32/40/36 36/611/34 35/48/31
f 36/611/34 37/612/17 35/48/31
f 31/43/35 35/48/31 38/613/30
f 38/613/30 39/614/116 31/43/35
f 38/613/30 40/615/19 39/614/116
f 42/54/42 41/53/41 43/49/37
f 43/49/37 44/51/39 42/54/42
f 45/50/38 46/616/78 44/51/39
f 45/50/38 47/57/45 46/616/78
f 45/50/38 48/58/46 47/57/45
f 42/54/42 50/55/43 49/52/40
f 50/55/43 52/59/47 51/56/44
f 53/62/42 41/617/41 49/60/40
f 56/65/42 55/618/41 57/63/40
f 60/68/50 59/619/60 61/66/48
f 65/620/75 54/621/43 49/622/40
f 49/622/40 51/623/44 65/620/75
f 67/624/49 66/625/52 68/626/58
f 68/626/58 69/627/53 67/624/49
f 48/628/46 72/629/45 65/630/75
f 65/630/75 51/631/44 48/628/46
f 71/77/50 73/632/60 74/75/48
f 74/75/48 75/633/51 67/76/49
f 75/633/51 66/634/52 67/76/49
f 77/635/123 76/636/76 78/78/55
f 78/78/55 79/80/57 77/635/123
f 80/79/56 81/637/66 79/80/57
f 63/83/51 82/638/81 83/81/58
f 87/90/48 88/92/61 86/88/50
f 92/96/50 91/639/60 93/94/48
f 93/94/48 95/640/51 94/95/49
f 95/640/51 96/641/52 94/95/49
f 75/642/51 100/643/70 68/644/58
f 68/644/58 66/645/52 75/642/51
f 105/115/62 104/646/64 61/113/48
f 107/310/103 106/308/20 108/309/89
f 108/309/89 109/313/85 107/310/103
f 81/118/66 110/647/83 111/116/65
f 117/119/34 116/120/17 118/121/35
f 41/125/41 53/648/42 120/123/39
f 123/136/22 122/649/104 124/134/71
f 121/650/69 126/651/54 60/652/50
f 60/652/50 62/653/49 121/650/69
f 128/139/22 127/654/104 129/137/71
f 132/655/34 131/656/36 133/344/88
f 133/344/88 134/657/30 132/655/34
f 144/154/72 143/397/17 145/152/71
f 138/161/46 137/658/45 151/159/75
f 151/168/75 142/659/43 141/166/40
f 155/660/69 99/661/54 86/662/50
f 86/662/50 88/663/61 155/660/69
f 157/171/77 156/664/120 78/169/55
f 158/665/121 153/666/70 95/667/51
f 95/667/51 93/668/48 158/665/121
f 159/519/42 55/669/41 160/670/37
f 160/670/37 161/174/79 159/519/42
f 160/670/37 162/172/38 161/174/79
f 57/572/40 55/669/41 159/519/42
f 159/519/42 166/178/43 57/572/40
f 166/178/43 167/177/44 57/572/40
f 169/182/39 160/671/37 55/180/41
f 162/672/38 170/673/59 171/674/45
f 171/674/45 165/675/46 162/672/38
f 172/676/122 157/677/77 76/678/76
f 76/678/76 77/679/123 172/676/122
f 98/680/62 173/681/80 87/682/48
f 87/682/48 85/683/60 98/680/62
f 175/185/46 174/684/45 176/183/47
f 178/685/47 58/686/43 57/687/40
f 57/687/40 167/688/44 178/685/47
f 181/188/40 182/689/43 180/186/42
f 104/690/64 82/691/81 63/692/51
f 63/692/51 61/693/48 104/690/64
f 94/694/49 96/695/52 154/696/58
f 154/696/58 102/697/63 94/694/49
f 184/195/62 158/698/121 93/193/48
f 184/699/62 91/700/60 92/701/50
f 92/701/50 101/702/54 184/699/62
f 179/202/41 180/703/42 187/200/39
f 165/704/46 171/705/45 178/706/47
f 178/706/47 167/707/44 165/704/46
f 190/205/84 191/338/20 189/203/73
f 193/154/3 192/397/17 194/152/71
f 198/208/12 193/708/3 195/209/85
s 0
f 199/271/86 196/207/86 197/206/86
f 199/271/86 197/206/86 200/606/86
s 1
f 200/606/12 201/212/90 199/271/85
f 200/606/12 202/210/88 201/212/90
f 202/210/88 206/709/2 205/214/68
s 0
f 205/214/28 207/216/28 204/213/28
s 1
f 212/220/91 211/219/28 210/218/88
f 216/226/93 215/225/92 217/227/94
f 216/226/93 218/228/92 196/207/91
f 219/710/113 216/226/93 196/207/91
f 196/207/91 199/271/28 219/710/113
f 217/227/94 220/230/85 218/228/92
f 223/232/91 224/711/85 222/231/92
f 225/712/89 222/231/92 224/711/85
f 216/226/93 227/235/88 226/233/92
f 216/226/93 229/237/88 228/234/92
f 219/710/113 199/271/28 232/275/97
f 232/275/97 231/238/95 233/713/110
f 233/713/110 219/710/113 232/275/97
f 232/275/97 133/239/88 231/238/95
f 133/239/88 234/241/96 231/238/95
f 236/243/88 237/244/97 231/238/95
f 243/250/12 245/714/3 244/251/85
s 0
f 212/220/86 246/252/86 242/249/86
s 1
f 247/253/85 246/252/107 144/715/72
f 144/715/72 146/716/4 247/253/85
s 0
f 242/249/86 247/253/86 248/254/86
s 1
f 248/254/12 249/256/90 242/249/85
f 250/255/88 115/717/2 114/259/68
f 252/261/12 229/237/88 253/262/90
s 0
f 230/236/86 257/266/86 255/264/86
s 1
f 258/268/97 257/266/88 231/238/95
f 237/244/97 259/267/88 231/238/95
f 258/268/97 119/269/36 118/718/35
f 261/272/12 262/274/85 260/270/102
f 265/276/84 264/719/2 227/235/88
f 266/279/39 135/720/59 136/277/38
f 89/721/51 183/722/81 268/723/58
f 268/723/58 90/724/52 89/721/51
f 187/725/39 269/726/78 270/727/38
f 270/727/38 186/728/37 187/725/39
f 90/286/52 268/729/58 155/284/69
f 156/730/120 185/731/82 80/732/56
f 80/732/56 78/733/55 156/730/120
f 271/295/42 179/294/41 186/287/37
f 186/287/37 272/289/79 271/295/42
f 270/288/38 274/292/45 273/290/78
f 275/296/43 276/298/47 177/297/44
f 176/734/47 182/735/43 181/736/40
f 181/736/40 177/737/44 176/734/47
f 105/738/62 59/739/60 60/740/50
f 60/740/50 126/741/54 105/738/62
f 111/742/65 172/743/122 77/744/123
f 77/744/123 79/745/57 111/742/65
f 278/746/105 277/747/25 227/364/88
f 227/364/88 264/748/2 278/746/105
f 279/342/74 255/343/90 257/344/88
f 279/342/74 257/344/88 280/346/18
f 281/345/25 279/342/74 280/346/18
f 281/345/25 280/346/18 282/347/84
f 230/349/36 281/345/25 282/347/84
f 282/347/84 253/348/90 230/349/36
f 284/305/31 116/749/17 117/303/34
f 285/308/99 282/312/84 286/306/85
f 282/312/84 285/308/99 287/310/100
f 289/316/31 288/318/72 290/314/18
f 293/324/99 292/750/20 294/322/101
f 277/751/25 278/752/105 296/753/106
f 296/753/106 297/754/74 277/751/25
f 212/307/91 222/309/92 293/308/99
f 295/310/100 226/311/92 298/312/84
f 114/327/68 112/478/67 300/325/31
f 294/334/101 224/755/85 223/332/91
f 304/337/99 303/756/84 305/335/85
f 199/336/85 201/360/90 304/337/99
f 303/756/84 304/337/99 306/359/100
f 306/359/100 209/427/90 303/756/84
f 306/359/100 207/361/87 209/427/90
f 308/318/72 309/316/31 134/319/30
f 134/319/30 232/320/97 308/318/72
f 277/203/25 297/338/74 311/340/18
f 227/204/88 277/203/25 298/341/84
f 149/342/74 236/344/88 310/346/18
f 150/345/25 310/346/18 303/347/84
f 211/349/36 150/345/25 303/347/84
f 189/757/73 312/401/25 214/315/88
f 214/315/88 188/758/2 189/757/73
f 112/352/67 113/759/34 313/350/30
f 315/760/22 314/761/104 145/762/71
f 145/762/71 143/763/17 315/760/22
f 317/764/39 316/765/78 318/766/38
f 318/766/38 319/767/37 317/764/39
f 148/345/73 239/349/18 240/343/98
f 322/768/73 281/747/25 230/364/36
f 230/364/36 254/769/18 322/768/73
f 129/358/71 127/770/104 260/336/102
f 203/360/89 204/361/85 325/359/103
f 257/364/88 258/121/97 284/120/31
f 189/771/73 191/772/20 327/773/74
f 327/773/74 312/774/25 189/771/73
f 128/372/22 199/373/85 305/378/85
f 305/378/85 308/370/72 128/372/22
f 308/370/72 260/377/102 127/371/104
f 308/370/72 232/524/97 260/377/102
f 129/371/71 262/377/85 263/374/3
f 205/317/68 206/321/2 320/319/34
f 265/205/84 296/338/106 278/203/105
f 322/775/73 328/776/20 279/777/74
f 279/777/74 281/778/25 322/775/73
f 287/260/28 285/256/28 313/255/28
f 285/779/99 106/780/20 107/781/103
f 107/781/103 287/782/100 285/779/99
f 286/378/85 326/370/72 123/376/22
f 326/370/72 122/371/104 123/376/22
f 326/370/72 237/524/97 241/377/91
f 242/373/85 123/376/22 243/375/12
f 108/383/89 106/783/20 285/382/99
f 301/784/99 302/785/20 323/786/101
f 323/786/101 329/787/100 301/784/99
f 284/386/31 258/524/97 118/384/35
f 300/120/31 330/362/72 311/363/18
f 311/363/18 229/364/88 300/120/31
f 229/364/88 252/121/12 300/120/31
f 330/362/72 300/120/31 313/119/30
f 313/119/30 250/122/88 248/365/12
f 267/389/37 317/391/39 331/387/42
f 136/390/38 316/447/78 317/391/39
f 136/390/38 332/396/45 316/447/78
f 136/390/38 138/607/46 332/396/45
f 141/393/40 139/388/41 331/387/42
f 332/396/45 138/607/46 152/394/44
f 333/392/43 334/395/47 152/394/44
f 336/398/85 288/399/72 335/397/22
f 288/399/72 337/152/104 335/397/22
f 288/399/72 200/326/12 197/153/87
f 196/332/91 335/397/22 198/154/12
f 322/345/73 254/349/18 256/343/98
f 256/343/98 328/342/20 322/345/73
f 117/655/34 119/656/36 259/344/88
f 259/344/88 283/657/30 117/655/34
f 217/332/94 329/333/100 323/334/101
f 323/334/101 220/755/85 217/332/94
f 327/221/28 312/222/28 315/252/28
f 315/252/28 314/253/28 327/221/28
f 335/788/22 337/789/104 194/790/71
f 194/790/71 192/791/17 335/788/22
f 124/407/71 122/404/104 241/307/91
f 306/216/28 304/212/28 291/210/28
f 291/210/28 289/215/28 306/216/28
f 327/338/74 210/339/88 290/340/18
f 312/203/25 290/340/18 338/341/84
f 214/204/88 312/203/25 338/341/84
f 338/341/84 215/329/92 214/204/88
f 315/397/22 212/332/91 299/398/85
f 299/398/85 330/399/72 315/397/22
f 330/399/72 314/152/104 315/397/22
f 212/332/91 315/397/22 246/154/107
f 340/412/40 50/792/43 42/410/42
f 339/426/41 42/793/42 44/424/39
f 301/337/99 338/756/84 336/335/85
f 336/335/85 196/336/91 301/337/99
f 338/756/84 301/337/99 329/359/100
f 329/359/100 215/427/92 338/756/84
f 345/51/37 346/59/44 340/55/40
f 345/51/37 347/616/38 346/59/44
f 347/616/38 348/57/46 346/59/44
f 351/434/38 352/794/37 272/432/79
f 348/795/46 47/796/45 52/797/47
f 52/797/47 346/798/44 348/795/46
f 149/444/74 147/799/20 240/443/98
f 355/800/46 164/801/45 168/802/47
f 168/802/47 354/803/44 355/800/46
f 319/391/37 318/447/38 357/392/40
f 318/447/38 358/395/44 357/392/40
f 341/296/40 360/295/41 352/289/37
f 352/289/37 342/298/44 341/296/40
f 352/289/37 351/290/38 342/298/44
f 351/290/38 361/292/46 342/298/44
f 356/450/41 331/804/42 317/448/39
f 207/373/87 306/805/100 325/455/103
f 304/382/99 201/348/90 203/383/89
f 203/383/89 324/783/20 304/382/99
f 331/463/42 356/806/41 357/461/40
f 359/466/46 332/807/45 334/464/47
f 318/477/38 316/808/78 332/475/45
f 289/325/31 208/326/12 205/327/68
f 193/481/3 198/320/12 335/479/22
f 271/809/42 360/810/41 341/811/40
f 341/811/40 275/812/43 271/809/42
f 347/484/38 46/813/78 47/482/45
f 159/491/42 364/814/41 353/489/40
f 245/493/3 243/365/12 123/413/22
f 360/496/41 271/815/42 272/494/79
f 128/479/22 130/816/17 263/817/3
f 263/817/3 261/320/12 128/479/22
f 194/818/71 337/770/104 197/336/87
f 197/336/87 195/819/85 194/818/71
f 113/501/34 115/502/2 250/339/88
f 164/514/45 355/820/46 362/512/38
f 251/373/87 287/805/100 107/455/103
f 107/455/103 109/456/85 251/373/87
f 235/384/35 307/385/17 309/386/31
f 368/531/29 367/821/2 34/41/34
f 34/41/34 369/822/32 368/531/29
f 34/41/34 370/528/68 369/822/32
f 368/531/29 369/822/32 371/529/35
f 371/544/35 369/563/32 377/542/115
f 365/556/31 382/823/23 35/554/31
f 365/612/31 366/611/25 374/821/7
f 365/612/31 374/821/7 373/531/114
f 365/612/31 373/531/114 375/530/29
f 382/48/23 365/612/31 375/530/29
f 375/530/29 381/613/105 382/48/23
f 381/613/105 375/530/29 376/529/32
f 376/529/32 380/615/30 381/613/105
f 376/529/32 377/822/115 380/615/30
f 377/822/115 379/614/22 380/615/30
f 377/822/115 378/528/11 379/614/22
f 374/537/7 27/558/29 28/824/30
f 28/824/30 34/825/34 374/537/7
f 34/825/34 367/538/2 374/537/7
f 27/558/29 374/537/7 366/551/25
f 31/561/35 39/555/116 379/556/22
s 0
usemtl carpetWhite.001
f 344/564/86 349/565/86 383/566/86
s 1
f 383/566/117 16/567/13 344/564/108
f 17/568/15 18/569/16 343/570/109
f 343/570/109 344/571/108 17/568/15
f 58/572/43 311/237/18 330/254/72
f 178/177/47 171/176/45 311/237/18
f 18/573/16 15/574/14 384/575/118
s 0
f 384/575/119 350/576/119 343/577/119
s 1
f 103/578/64 97/579/62 350/580/111
f 383/581/117 100/582/70 103/578/64
f 383/581/117 104/583/64 100/582/70
f 104/583/64 105/584/62 68/585/58
f 383/581/117 156/586/120 82/587/81
f 156/586/120 83/588/58 82/587/81
f 383/581/117 185/589/82 156/586/120
f 173/590/80 110/591/83 185/589/82
f 173/590/80 98/592/62 110/591/83
f 383/581/117 183/593/81 173/590/80
f 383/581/117 268/594/58 183/593/81
f 383/581/117 158/595/121 268/594/58
f 158/595/121 184/596/62 268/594/58
f 121/597/69 83/588/58 172/598/122
f 69/599/53 126/600/54 349/601/112
f 70/602/54 69/599/53 349/601/112
f 70/602/54 349/601/112 350/580/111
f 350/580/111 97/579/62 70/602/54
f 69/599/53 68/585/58 126/600/54
f 68/585/58 105/584/62 126/600/54
f 172/598/122 111/603/65 349/601/112
f 111/603/65 99/604/54 349/601/112
f 111/603/65 110/591/83 99/604/54
f 110/591/83 98/592/62 99/604/54
f 99/604/54 155/605/69 349/601/112
f 155/605/69 268/594/58 349/601/112
f 187/287/39 288/606/72 336/207/85
f 336/207/85 338/225/84 187/287/39
f 187/287/39 180/294/42 288/606/72
f 338/225/84 269/288/78 187/287/39
f 182/293/43 290/218/18 288/606/72
f 174/291/45 338/225/84 290/218/18
f 182/293/43 176/297/47 290/218/18
f 140/388/42 308/275/72 305/271/85
f 305/271/85 303/217/84 266/389/39
f 303/217/84 135/390/59 266/389/39
f 137/607/45 303/217/84 310/243/18
f 142/393/43 151/394/75 310/243/18
f 286/249/85 120/49/39 53/53/42
f 286/249/85 282/262/84 120/49/39
f 326/244/72 53/53/42 54/52/43
f 54/52/43 280/266/18 326/244/72
f 72/58/45 282/262/84 280/266/18
f 54/52/43 65/56/75 280/266/18
f 16/567/13 17/826/15 344/564/108
f 169/670/39 330/254/72 299/220/85
f 299/220/85 298/233/84 169/670/39
f 169/670/39 56/669/42 330/254/72
f 298/233/84 170/172/59 169/670/39
f 298/233/84 171/176/45 170/172/59
f 330/254/72 56/669/42 58/572/43
f 171/176/45 298/233/84 311/237/18
f 58/572/43 178/177/47 311/237/18
f 384/575/118 343/577/109 18/573/16
f 103/578/64 350/580/111 384/827/118
f 384/827/118 383/581/117 103/578/64
f 104/583/64 68/585/58 100/582/70
f 383/581/117 82/587/81 104/583/64
f 156/586/120 157/828/77 83/588/58
f 383/581/117 173/590/80 185/589/82
f 383/581/117 153/829/70 158/595/121
f 383/581/117 154/830/58 153/829/70
f 383/581/117 349/601/112 154/830/58
f 83/588/58 157/828/77 172/598/122
f 121/597/69 172/598/122 349/601/112
f 126/600/54 121/597/69 349/601/112
f 268/594/58 101/831/54 349/601/112
f 268/594/58 184/596/62 101/831/54
f 101/831/54 102/832/63 349/601/112
f 102/832/63 154/830/58 349/601/112
f 338/225/84 174/291/45 269/288/78
f 288/606/72 180/294/42 182/293/43
f 176/297/47 174/291/45 290/218/18
f 384/833/118 15/834/14 16/835/13
f 16/835/13 383/836/117 384/833/118
f 305/271/85 266/389/39 140/388/42
f 303/217/84 137/607/45 135/390/59
f 308/275/72 140/388/42 142/393/43
f 142/393/43 310/243/18 308/275/72
f 151/394/75 137/607/45 310/243/18
f 53/53/42 326/244/72 286/249/85
f 282/262/84 84/50/59 120/49/39
f 282/262/84 72/58/45 84/50/59
f 65/56/75 72/58/45 280/266/18
usemtl glass
f 392/860/127 385/858/127 390/855/127
f 385/858/127 392/860/127 387/859/127
