# Blender 4.3.2
# www.blender.org
mtllib kitchenBlender.mtl
o kitchenBlender
v -0.036410 0.009579 0.000000
v -0.067608 0.012532 -0.018459
v -0.085670 0.009579 0.000000
v -0.074176 0.014329 -0.029692
v -0.077788 0.023230 -0.085320
v -0.067608 0.016127 -0.040925
v -0.061040 0.016127 -0.040925
v -0.054472 0.016127 -0.040925
v -0.054472 0.012532 -0.018459
v -0.047904 0.014329 -0.029692
v -0.044292 0.023230 -0.085320
v -0.061040 0.012532 -0.018459
v -0.011781 0.023799 0.000000
v -0.027544 0.032900 -0.085320
v -0.110300 0.023799 0.000000
v -0.094537 0.032900 -0.085320
v -0.110300 0.080679 0.000000
v -0.094537 0.071578 -0.085320
v -0.011781 0.080679 0.000000
v -0.061040 0.109119 0.000000
v -0.027544 0.071578 -0.085320
v -0.061040 0.090917 -0.085320
v -0.095248 0.032489 -0.085320
v -0.061040 0.012739 -0.085320
v -0.100379 0.029526 -0.109020
v -0.061040 0.006814 -0.109020
v -0.021701 0.029526 -0.109020
v -0.026832 0.032489 -0.085320
v -0.021701 0.074951 -0.109020
v -0.026832 0.071989 -0.085320
v -0.061040 0.091739 -0.085320
v -0.095248 0.071989 -0.085320
v -0.061040 0.097664 -0.109020
v -0.100379 0.074951 -0.109020
v -0.101635 0.044655 -0.127506
v -0.101635 0.059823 -0.127506
v -0.102318 0.059823 -0.137574
v -0.105414 0.059823 -0.183166
v -0.106098 0.059823 -0.193234
v -0.106098 0.044655 -0.193234
v -0.106280 0.026119 -0.195920
v -0.106280 0.078358 -0.195920
v -0.102318 0.044655 -0.137574
v -0.105414 0.044655 -0.183166
v -0.061040 0.000000 -0.195920
v -0.061040 0.104478 -0.195920
v -0.061040 0.104478 -0.211720
v -0.106280 0.078358 -0.211720
v -0.015800 0.026119 -0.195920
v -0.061040 0.000000 -0.211720
v -0.015800 0.026119 -0.211720
v -0.106280 0.026119 -0.211720
v -0.015800 0.052239 -0.195920
v -0.015800 0.078358 -0.195920
v -0.015800 0.078358 -0.211720
v -0.027544 0.071578 -0.085320
v -0.061040 0.090917 -0.085320
v -0.094537 0.071578 -0.085320
v -0.094537 0.032900 -0.085320
v -0.027544 0.032900 -0.085320
v -0.044292 0.023230 -0.085320
v -0.077788 0.023230 -0.085320
v 0.000000 0.052239 -0.211720
v -0.125758 0.044655 -0.137574
v -0.135826 0.044655 -0.127506
v -0.135826 0.044655 -0.193234
v -0.125758 0.044655 -0.183166
v -0.125758 0.059823 -0.183166
v -0.125758 0.059823 -0.137574
v -0.135826 0.059823 -0.127506
v -0.135826 0.059823 -0.193234
v -0.023491 0.030560 -0.227520
v -0.023491 0.073918 -0.227520
v -0.061040 0.008881 -0.227520
v -0.061040 0.095597 -0.227520
v -0.098589 0.030560 -0.227520
v -0.098589 0.073918 -0.227520
vn -0.0000 -0.9874 -0.1580
vn 0.2156 -0.7812 0.5858
vn -0.2156 -0.7812 0.5858
vn -0.1749 -0.6746 -0.7171
vn 0.1749 -0.6746 -0.7171
vn 0.7343 -0.4239 0.5302
vn 0.6287 -0.3630 -0.6877
vn 0.7343 0.4240 0.5302
vn -0.0000 0.8479 0.5302
vn 0.6287 0.3630 -0.6877
vn -0.0000 0.7260 -0.6877
vn -0.6287 0.3630 -0.6877
vn -0.7343 0.4239 0.5302
vn -0.6287 -0.3630 -0.6877
vn -0.7343 -0.4239 0.5302
vn -0.0000 -0.9701 0.2425
vn -0.4887 -0.8464 0.2116
vn -0.5456 -0.8269 0.1360
vn -0.2534 -0.9492 0.1864
vn 0.9774 -0.0000 0.2116
vn 0.9896 -0.0000 0.1435
vn 0.8399 0.5185 0.1607
vn 0.7375 0.4258 0.5242
vn 0.4887 -0.8464 0.2116
vn -0.4887 0.8464 -0.2116
vn 0.8402 -0.4851 -0.2425
vn 0.4887 -0.8464 -0.2116
vn 0.8874 -0.4073 -0.2160
vn 0.9774 -0.0000 -0.2116
vn 0.9899 -0.0000 -0.1415
vn 0.4875 0.8444 0.2218
vn 0.1726 0.9767 0.1279
vn -0.9977 -0.0000 0.0677
vn -0.9977 -0.0000 0.0678
vn -0.9670 -0.2434 0.0752
vn -0.7307 -0.0000 -0.6827
vn -0.8073 -0.0000 -0.5901
vn 0.9977 -0.0000 -0.0677
vn 0.7992 0.6006 -0.0215
vn 1.0000 -0.0000 -0.0033
vn -0.1924 0.8232 0.5342
vn 0.8689 -0.4159 0.2684
vn 0.4989 0.8640 -0.0677
vn 0.4992 0.8646 -0.0569
vn -0.5000 0.8660 -0.0000
vn 0.1179 0.9926 0.0303
vn -0.0000 1.0000 -0.0000
vn 0.4989 -0.8640 0.0677
vn 0.2336 -0.9720 0.0266
vn 0.4997 -0.8655 0.0335
vn -0.0000 -1.0000 -0.0000
vn 0.5000 -0.8660 -0.0000
vn -0.4989 0.8640 0.0677
vn 0.4989 -0.8640 -0.0677
vn 0.8942 0.4476 -0.0000
vn 1.0000 -0.0000 -0.0000
vn 0.9977 -0.0000 0.0677
vn -0.9977 -0.0000 -0.0677
vn -0.9988 -0.0000 -0.0480
vn -0.9994 -0.0000 -0.0335
vn -0.5000 -0.8660 -0.0000
vn 0.4997 0.8655 0.0335
vn 0.5000 0.8660 -0.0000
vn -1.0000 -0.0000 -0.0000
vn -0.0000 -0.0000 1.0000
vn -0.0000 -0.0000 -1.0000
vn 0.6501 -0.3933 0.6501
vn 0.6501 0.3933 0.6501
vn 0.0742 -0.9972 -0.0000
vn 0.3162 -0.9487 -0.0000
vn -0.0000 0.5609 0.8279
vn -0.1350 -0.9908 -0.0000
vn -0.7818 -0.0000 0.6235
vn -0.4660 -0.7521 0.4660
vn 0.6667 -0.3334 -0.6667
vn 0.7071 -0.0000 -0.7071
vn -0.0000 0.7082 -0.7060
vn -0.0000 0.4472 -0.8944
vn -0.0000 -0.9437 0.3308
vn -0.0000 -0.6913 -0.7225
vn 0.8991 -0.0000 -0.4377
vn -0.8991 -0.0000 -0.4377
vn -0.4496 0.7787 -0.4377
vn 0.4496 0.7787 -0.4377
vn -0.4496 -0.7787 -0.4377
vn 0.4496 -0.7787 -0.4377
vt 2.661733 0.795543
vt 1.433477 0.059581
vt 3.372829 0.059581
vt 2.920313 1.243417
vt 3.062532 3.461360
vt 2.661733 1.691291
vt 2.144573 0.795543
vt 1.885993 1.243417
vt 1.743773 3.461360
vt 2.403153 0.795543
vt -0.066815 0.189550
vt 1.052870 0.189550
vt 1.052870 3.605452
vt 0.291484 3.605452
vt -0.463802 0.936959
vt -0.463802 3.176329
vt -2.403153 4.296014
vt -3.372829 0.377116
vt -1.433477 0.377116
vt -2.348128 2.958278
vt -3.870899 2.958278
vt -4.229198 -0.457624
vt 1.084394 2.818030
vt 1.084394 1.295258
vt 1.743773 0.914565
vt 2.403153 3.579415
vt 3.062532 0.914565
vt -0.291484 2.521679
vt -1.814255 2.521679
vt -2.172555 -0.894223
vt 2.403153 1.691291
vt 2.144573 1.691291
vt 1.295258 2.626967
vt 0.936959 -0.788935
vt 3.176329 -0.788935
vt 2.818030 2.626967
vt -4.342505 3.176329
vt -4.342505 0.936959
vt -1.989828 -0.457624
vt 3.721912 2.818030
vt 3.721912 1.295258
vt 3.109513 -0.247049
vt 4.229198 -0.247049
vt 3.870899 3.168853
vt 3.109513 3.168853
vt 0.066815 -0.894223
vt -3.176329 0.084262
vt -0.936959 0.084262
vt -1.295258 3.500164
vt -2.818030 3.500164
vt 2.269931 0.122199
vt 4.238435 0.122199
vt 4.386073 1.330667
vt 2.122293 1.330667
vt -1.619094 -0.116338
vt -1.471457 1.092130
vt -3.735236 1.092130
vt -3.587598 -0.116338
vt -0.333415 -0.354875
vt 1.635089 -0.354875
vt 1.782726 0.853593
vt -0.481053 0.853593
vt -1.635089 1.076348
vt 0.481053 2.284815
vt 0.333415 1.076348
vt -1.782726 2.284815
vt 3.735236 2.046278
vt 1.619094 0.837811
vt 1.471457 2.046278
vt 3.587598 0.837811
vt -4.238435 0.599274
vt -2.269931 0.599274
vt -2.122293 1.807741
vt -4.386073 1.807741
vt 3.735236 1.463951
vt 2.981299 2.387333
vt 2.225394 2.387333
vt 2.981299 2.890242
vt 2.981299 5.670466
vt 2.981299 5.167557
vt 1.301673 5.804633
vt 1.471457 1.463951
vt 2.225394 5.670466
vt 3.905020 5.804633
vt 2.225394 2.890242
vt 2.225394 5.167557
vt 2.122293 1.234837
vt 4.386073 1.234837
vt 4.555856 5.575519
vt 1.952510 5.575519
vt -1.952510 5.511811
vt 0.650837 5.511811
vt 0.650837 6.299212
vt -1.952510 6.299212
vt -0.481053 1.082094
vt 1.782726 1.082094
vt 1.952510 5.422776
vt -0.650837 5.422776
vt -0.650837 5.511811
vt 1.952510 5.511811
vt 1.952510 6.299212
vt -0.650837 6.299212
vt -1.782726 1.540323
vt 0.481053 1.540323
vt 0.650837 5.881004
vt -1.952510 5.881004
vt 1.301673 6.299212
vt 3.905020 5.511811
vt 1.301673 5.511811
vt 3.905020 6.299212
vt -2.603346 5.499147
vt -3.735236 1.158466
vt -1.471457 1.158466
vt -1.301673 5.499147
vt -3.905020 5.499147
vt 4.555856 6.299212
vt 4.555856 5.511811
vt -4.386073 1.387580
vt -2.122293 1.387580
vt -1.952510 5.728261
vt -4.555856 5.728261
vt -4.555856 5.511811
vt -4.555856 6.299212
vt -2.603346 5.511811
vt -3.905020 5.511811
vt -3.905020 6.299212
vt -1.301673 5.511811
vt -1.301673 6.299212
vt -0.549790 3.587598
vt -2.254564 4.571850
vt -0.585249 3.567126
vt -3.959339 3.587598
vt -3.923879 3.567126
vt -0.549790 1.619094
vt -0.585249 1.639567
vt -2.254564 4.530906
vt -1.419907 1.157677
vt -2.254564 0.634843
vt -3.089222 1.157677
vt -3.923879 1.639567
vt -3.959339 1.619094
vt -2.635054 4.348281
vt -2.227507 3.311986
vt -1.113753 4.348281
vt -1.819960 6.100317
vt -3.341260 6.100317
vt -2.227507 5.064022
vt 5.479815 2.604116
vt 4.277612 2.102362
vt 5.981569 2.102362
vt 5.981569 5.377953
vt 5.479815 4.876199
vt 4.465968 4.876199
vt 4.311684 2.604116
vt 4.500039 5.377953
vt -4.465968 2.225394
vt -4.465968 2.981299
vt -5.479815 2.981299
vt -5.479815 2.225394
vt -2.225394 2.604116
vt -2.225394 4.876199
vt -2.981299 4.876199
vt -2.981299 2.604116
vt 2.225394 5.377953
vt 2.981299 2.102362
vt 2.225394 2.102362
vt 2.981299 5.377953
vt -5.479815 2.604116
vt -5.981569 5.377953
vt -5.981569 2.102362
vt -4.500039 5.377953
vt -5.479815 4.876199
vt -4.311684 2.604116
vt -4.277612 2.102362
vt -4.465968 4.876199
vt 4.311684 2.981299
vt 4.311684 2.225394
vt 5.479815 2.225394
vt 5.479815 2.981299
vt -4.277612 2.225394
vt -5.981569 2.981299
vt -4.277612 2.981299
vt -5.981569 2.225394
vt 5.981569 2.225394
vt 5.981569 2.981299
vt 4.500039 2.981299
vt 4.500039 2.225394
vt 0.000000 1.301673
vt 0.000000 3.905020
vt -2.254564 5.206693
vt -2.254564 0.000000
vt -4.509129 3.905020
vt -4.509129 1.301673
vt 0.383276 3.683735
vt 0.383276 1.522958
vt 2.254564 0.442569
vt 2.254564 4.764124
vt 4.125853 1.522958
vt 4.125853 3.683735
vt -3.905020 -0.000000
vt -1.301673 -0.000000
vt -1.522958 0.875729
vt -3.683735 0.875729
vt 1.522958 -1.097758
vt 1.301673 -1.973487
vt 3.905020 -1.973487
vt 3.683735 -1.097758
vt -1.952510 -2.466859
vt 0.650837 -2.466859
vt 0.429552 -1.591130
vt -1.731225 -1.591130
vt -4.555856 -1.480115
vt -1.952510 -1.480115
vt -2.173794 -0.604386
vt -4.334572 -0.604386
vt 1.952510 -0.493372
vt 4.555856 -0.493372
vt 4.334572 0.382357
vt 2.173794 0.382357
vt -0.650837 0.493372
vt 1.952510 0.493372
vt 1.731225 1.369101
vt -0.429552 1.369101
s 1
usemtl metalMedium.007
f 2/1/1 1/2/2 3/3/3
f 3/3/3 4/4/1 2/1/1
f 3/3/3 5/5/4 4/4/1
f 5/5/4 6/6/1 4/4/1
f 1/2/2 9/7/1 10/8/1
f 10/8/1 11/9/5 1/2/2
s 0
f 2/1/1 12/10/1 9/7/1
s 1
f 13/11/6 1/12/2 11/13/5
f 11/13/5 14/14/7 13/11/6
f 13/15/6 19/16/8 20/17/9
f 20/17/9 3/18/3 1/19/2
f 21/20/10 22/21/11 20/22/9
f 21/23/10 14/24/7 11/25/5
f 11/25/5 22/26/11 21/23/10
f 11/25/5 5/27/4 22/26/11
f 22/28/11 18/29/12 17/30/13
f 5/5/4 7/31/1 6/6/1
f 5/5/4 8/32/1 7/31/1
f 1/2/2 2/1/1 9/7/1
f 10/8/1 8/32/1 11/9/5
f 8/32/1 5/5/4 11/9/5
f 16/33/14 15/34/15 17/35/13
f 17/35/13 18/36/12 16/33/14
f 20/17/9 1/19/2 13/15/6
f 20/17/9 17/37/13 3/18/3
f 17/37/13 15/38/15 3/18/3
f 20/22/9 19/39/8 21/20/10
f 5/27/4 18/40/12 22/26/11
f 5/27/4 16/41/14 18/40/12
f 3/42/3 15/43/15 16/44/14
f 16/44/14 5/45/4 3/42/3
f 17/30/13 20/46/9 22/28/11
f 19/47/8 13/48/6 14/49/7
f 14/49/7 21/50/10 19/47/8
f 51/188/65 55/189/65 47/190/65
f 47/190/65 50/191/65 51/188/65
f 47/190/65 48/192/65 50/191/65
f 48/192/65 52/193/65 50/191/65
f 73/194/66 72/195/66 74/196/66
f 74/196/66 75/197/66 73/194/66
f 74/196/66 76/198/66 75/197/66
f 76/198/66 77/199/66 75/197/66
f 55/200/81 51/201/81 72/202/81
f 72/202/81 73/203/81 55/200/81
f 76/204/82 52/205/82 48/206/82
f 48/206/82 77/207/82 76/204/82
f 48/208/83 47/209/83 75/210/83
f 75/210/83 77/211/83 48/208/83
f 47/212/84 55/213/84 73/214/84
f 73/214/84 75/215/84 47/212/84
f 50/216/85 52/217/85 76/218/85
f 76/218/85 74/219/85 50/216/85
f 51/220/86 50/221/86 74/222/86
f 74/222/86 72/223/86 51/220/86
usemtl metal.012
f 4/4/1 6/6/1 10/8/1
f 6/6/1 7/31/1 10/8/1
f 7/31/1 8/32/1 10/8/1
f 12/10/1 2/1/1 4/4/1
f 4/4/1 9/7/1 12/10/1
f 4/4/1 10/8/1 9/7/1
usemtl glass.002
f 24/51/16 23/52/17 25/53/18
f 25/53/18 26/54/19 24/51/16
f 28/55/20 27/56/21 29/57/22
f 29/57/22 30/58/23 28/55/20
f 28/59/24 24/60/16 26/61/19
f 26/61/25 28/59/25 27/62/25
f 32/63/26 33/64/27 31/65/27
f 33/64/27 32/63/26 34/66/28
f 34/67/28 23/68/29 25/69/30
f 23/68/29 34/67/28 32/70/26
f 31/71/31 30/72/23 29/73/22
f 29/73/22 33/74/32 31/71/31
f 34/75/33 36/76/33 35/77/33
f 34/75/33 37/78/33 36/76/33
f 34/75/33 39/79/33 38/80/34
f 41/81/35 25/82/18 40/83/33
f 40/83/33 39/79/33 42/84/33
f 39/79/33 34/75/33 42/84/33
f 35/77/34 43/85/33 40/83/33
f 44/86/33 43/85/36 37/78/37
f 35/77/38 34/75/28 25/82/30
f 34/75/38 37/78/38 38/80/38
f 25/82/30 40/83/38 35/77/38
f 40/83/38 41/81/39 42/84/40
f 43/85/38 40/83/41 44/86/42
f 37/78/38 44/86/38 38/80/38
f 26/87/19 25/88/18 41/89/35
f 41/89/39 26/87/43 45/90/44
f 42/91/45 46/92/46 47/93/47
f 47/93/47 48/94/45 42/91/45
f 27/95/48 26/96/48 45/97/49
f 45/97/49 49/98/50 27/95/48
f 49/99/50 45/100/49 50/101/51
f 50/101/51 51/102/52 49/99/50
f 34/103/53 33/104/32 46/105/46
f 46/105/54 34/103/54 42/106/54
f 52/107/55 42/108/40 41/109/39
f 42/108/40 52/107/55 48/110/56
f 53/111/57 29/112/22 27/113/21
f 27/113/58 53/111/59 49/114/60
f 53/111/59 29/112/58 54/115/60
f 52/116/61 50/101/51 45/100/49
f 45/100/44 52/116/55 41/117/39
f 33/118/32 29/119/22 54/120/62
f 54/120/62 46/121/46 33/118/32
f 46/122/46 54/91/62 55/94/63
f 55/94/63 47/123/47 46/122/46
f 53/124/59 54/125/60 55/126/64
f 49/127/60 53/124/59 51/128/64
f 30/129/23 31/130/31 56/131/65
f 31/130/65 32/132/65 58/133/65
f 28/134/65 56/131/65 60/135/65
f 60/135/65 56/131/65 57/136/65
f 60/135/65 61/137/65 24/138/65
f 61/137/65 62/139/65 24/138/65
f 57/136/65 62/139/65 61/137/65
f 59/140/65 32/132/65 23/141/65
f 56/131/66 30/129/66 28/134/66
f 31/130/66 56/131/66 57/136/66
f 31/130/66 57/136/66 58/133/66
f 32/132/66 58/133/66 59/140/66
f 60/135/66 28/134/66 24/138/66
f 57/136/66 60/135/66 61/137/66
f 57/136/66 62/139/66 58/133/66
f 58/133/66 62/139/66 59/140/66
f 62/139/66 24/138/66 23/141/66
f 62/139/66 23/141/66 59/140/66
f 63/142/67 53/143/67 51/144/67
f 63/145/68 55/146/68 53/147/68
f 64/148/69 35/149/51 65/150/51
f 65/150/51 66/151/51 64/148/69
f 66/151/51 67/152/70 64/148/69
f 66/151/51 44/153/51 67/152/70
f 35/149/47 43/154/47 64/148/47
f 66/151/71 44/153/42 40/155/41
f 44/156/65 38/157/65 68/158/65
f 68/158/66 44/156/66 67/159/66
f 64/160/69 67/161/70 68/162/56
f 68/162/72 64/160/73 69/163/74
f 66/164/56 70/165/75 65/166/76
f 70/165/75 66/164/56 71/167/56
f 69/168/47 71/169/47 70/170/47
f 39/171/77 71/169/78 68/172/47
f 69/168/74 37/173/79 36/174/80
f 70/170/75 69/168/74 36/174/80
f 69/168/74 71/169/51 68/172/72
f 68/172/51 39/171/51 38/175/51
f 37/176/37 43/177/36 64/178/66
f 64/178/73 37/176/79 69/179/74
f 35/180/66 70/181/75 36/182/80
f 70/181/75 35/180/66 65/183/76
f 66/184/66 71/185/78 39/186/77
f 39/186/65 66/184/71 40/187/41
