# Blender 4.3.2
# www.blender.org
mtllib shower.mtl
o shower
v 0.026606 -0.000000 -0.122892
v 0.280896 -0.000000 -0.122892
v 0.026606 0.026606 -0.122892
v 0.535186 0.026606 -0.122892
v 0.535186 -0.000000 -0.122892
v 0.000000 0.026606 -0.122892
v 0.053212 0.053212 -0.122892
v 0.000000 0.535186 -0.122892
v 0.053212 0.385553 -0.122892
v 0.176239 0.508580 -0.122892
v 0.508580 0.508580 -0.122892
v 0.508580 0.053212 -0.122892
v 0.561792 0.535186 -0.122892
v 0.561792 0.026606 -0.122892
v 0.026606 0.535186 -0.122892
v 0.535186 0.535186 -0.122892
v 0.026606 0.548489 -0.122892
v 0.535186 0.548489 -0.122892
v 0.492642 0.492642 -0.079002
v 0.492642 0.069150 -0.079002
v 0.000000 0.000000 -0.000000
v 0.000000 0.561792 0.000000
v 0.000000 0.561792 -1.094033
v 0.000000 0.535186 -1.058921
v 0.000000 0.026606 -1.058921
v 0.000000 0.000000 -1.094033
v 0.561792 0.561792 0.000000
v 0.561792 -0.000000 0.000000
v 0.561792 -0.000000 -1.094033
v 0.561792 0.026606 -1.058921
v 0.561792 0.535186 -1.058921
v 0.561792 0.561792 -1.094033
v 0.026606 -0.000000 -1.058921
v 0.280896 -0.000000 -1.058921
v 0.535186 -0.000000 -1.058921
v 0.183565 0.492642 -0.079002
v 0.069150 0.378227 -0.079002
v 0.343416 0.176838 -0.079002
v 0.069150 0.069150 -0.079002
v 0.369750 0.161634 -0.079002
v 0.343416 0.207246 -0.079002
v 0.369750 0.222449 -0.079002
v 0.396084 0.176838 -0.079002
v 0.396084 0.192042 -0.079002
v 0.396084 0.207246 -0.079002
v 0.535186 0.548489 -1.058921
v 0.535186 0.535186 -1.058921
v 0.535186 0.026606 -1.058921
v 0.535186 0.535186 -1.094033
v 0.535186 0.026606 -1.094033
v 0.026606 0.535186 -1.058921
v 0.026606 0.535186 -1.094033
v 0.026606 0.026606 -1.058921
v 0.026606 0.026606 -1.094033
v 0.026606 0.548489 -1.058921
v 0.265030 0.548489 -0.466960
v 0.264119 0.548489 -0.539137
v 0.248703 0.548489 -0.466960
v 0.264119 0.548489 -0.908921
v 0.264119 0.548489 -0.894646
v 0.264119 0.548489 -0.553412
v 0.297673 0.548489 -0.539137
v 0.265030 0.548489 -0.445190
v 0.297673 0.548489 -0.908921
v 0.297673 0.548489 -0.894646
v 0.297673 0.548489 -0.553412
v 0.297684 0.548489 -0.466960
v 0.314011 0.548489 -0.466960
v 0.314011 0.548489 -0.445190
v 0.248703 0.548489 -0.445190
v 0.297684 0.548489 -0.445190
v 0.216049 0.491432 -0.437027
v 0.216049 0.524086 -0.437027
v 0.346666 0.491432 -0.437027
v 0.346666 0.524086 -0.437027
v 0.346666 0.496861 -0.442456
v 0.346666 0.491432 -0.475123
v 0.346666 0.496861 -0.469694
v 0.346666 0.518657 -0.469694
v 0.346666 0.518657 -0.442456
v 0.346666 0.524086 -0.475123
v 0.265030 0.524086 -0.445190
v 0.265030 0.524086 -0.466960
v 0.216049 0.491432 -0.475123
v 0.314011 0.524086 -0.466960
v 0.297684 0.524086 -0.466960
v 0.248703 0.524086 -0.466960
v 0.352108 0.496861 -0.469694
v 0.352108 0.518657 -0.469694
v 0.297684 0.524086 -0.445190
v 0.314011 0.524086 -0.445190
v 0.248703 0.524086 -0.445190
v 0.216049 0.524086 -0.475123
v 0.352108 0.524086 -0.437027
v 0.352108 0.524086 -0.475123
v 0.365714 0.524086 -0.437027
v 0.365714 0.524086 -0.475123
v 0.216049 0.518657 -0.442456
v 0.216049 0.518657 -0.469694
v 0.216049 0.496861 -0.469694
v 0.216049 0.496861 -0.442456
v 0.210606 0.496861 -0.442456
v 0.210606 0.518657 -0.442456
v 0.352108 0.491432 -0.437027
v 0.352108 0.518657 -0.442456
v 0.352108 0.496861 -0.442456
v 0.352108 0.491432 -0.475123
v 0.365714 0.491432 -0.437027
v 0.365714 0.491432 -0.475123
v 0.197001 0.524086 -0.437027
v 0.197001 0.491432 -0.437027
v 0.197001 0.524086 -0.475123
v 0.197001 0.491432 -0.475123
v 0.297673 0.464072 -0.539137
v 0.297673 0.464072 -0.553412
v 0.264119 0.464072 -0.553412
v 0.264119 0.464072 -0.539137
v 0.256062 0.359268 -0.858745
v 0.256062 0.361046 -0.861824
v 0.305730 0.359268 -0.858745
v 0.305730 0.361046 -0.861824
v 0.210606 0.491432 -0.437027
v 0.210606 0.524086 -0.437027
v 0.270580 0.477485 -0.539137
v 0.270580 0.477485 -0.515551
v 0.277034 0.471031 -0.539137
v 0.277034 0.471031 -0.515551
v 0.284758 0.471031 -0.894646
v 0.284758 0.471031 -0.855795
v 0.291212 0.477485 -0.894646
v 0.291212 0.477485 -0.852069
v 0.270580 0.477485 -0.908921
v 0.277034 0.471031 -0.908921
v 0.270580 0.477485 -0.928117
v 0.277034 0.471031 -0.928117
v 0.284758 0.471031 -0.515551
v 0.291212 0.477485 -0.515551
v 0.284758 0.471031 -0.539137
v 0.291212 0.477485 -0.539137
v 0.270580 0.486798 -0.908921
v 0.270580 0.486798 -0.928117
v 0.264898 0.406847 -0.855905
v 0.296894 0.406847 -0.855905
v 0.264898 0.403292 -0.849748
v 0.296894 0.403292 -0.849748
v 0.264898 0.500791 -0.801667
v 0.264898 0.516789 -0.829376
v 0.264898 0.407439 -0.892509
v 0.264898 0.374084 -0.866611
v 0.264898 0.385668 -0.886676
v 0.264119 0.464072 -0.894646
v 0.297673 0.464072 -0.894646
v 0.291212 0.486798 -0.894646
v 0.284758 0.493252 -0.894646
v 0.270580 0.477485 -0.894646
v 0.277034 0.471031 -0.894646
v 0.270580 0.486798 -0.894646
v 0.277034 0.493252 -0.894646
v 0.284758 0.471031 -0.908921
v 0.264119 0.464072 -0.908921
v 0.277034 0.493252 -0.908921
v 0.284758 0.493252 -0.908921
v 0.297673 0.464072 -0.908921
v 0.291212 0.477485 -0.908921
v 0.291212 0.486798 -0.908921
v 0.210606 0.491432 -0.475123
v 0.210606 0.524086 -0.475123
v 0.296894 0.516789 -0.829376
v 0.296894 0.500791 -0.801667
v 0.296894 0.385668 -0.886676
v 0.296894 0.407439 -0.892509
v 0.256062 0.405665 -0.836063
v 0.256062 0.403887 -0.832984
v 0.305731 0.405665 -0.836063
v 0.305731 0.403887 -0.832984
v 0.210606 0.496861 -0.469694
v 0.210606 0.518657 -0.469694
v 0.296894 0.374084 -0.866611
v 0.244620 0.349360 -0.864465
v 0.317172 0.349360 -0.864465
v 0.246993 0.358578 -0.875564
v 0.314799 0.358578 -0.875564
v 0.270580 0.486798 -0.846692
v 0.277034 0.493252 -0.842966
v 0.284758 0.471031 -0.818849
v 0.284758 0.471031 -0.553412
v 0.291212 0.477485 -0.815123
v 0.291212 0.477485 -0.553412
v 0.291212 0.486798 -0.809746
v 0.284758 0.493252 -0.806020
v 0.277034 0.471031 -0.818849
v 0.270580 0.477485 -0.815123
v 0.270580 0.486798 -0.809746
v 0.277034 0.493252 -0.806020
v 0.291212 0.477485 -0.928117
v 0.291212 0.486798 -0.928117
v 0.244620 0.413796 -0.827263
v 0.246993 0.418798 -0.840796
v 0.317172 0.413796 -0.827263
v 0.314799 0.418798 -0.840796
v 0.277034 0.471031 -0.553412
v 0.270580 0.477485 -0.553412
v 0.270580 0.486798 -0.553412
v 0.277034 0.493252 -0.553412
v 0.284758 0.493252 -0.553412
v 0.291212 0.486798 -0.553412
v 0.284758 0.493252 -0.842966
v 0.291212 0.486798 -0.846692
v 0.270580 0.486798 -0.515551
v 0.270580 0.486798 -0.539137
v 0.277034 0.493252 -0.515551
v 0.277034 0.493252 -0.539137
v 0.291212 0.486798 -0.515551
v 0.291212 0.486798 -0.539137
v 0.284758 0.471031 -0.928117
v 0.284758 0.493252 -0.539137
v 0.284758 0.493252 -0.928117
v 0.284758 0.493252 -0.515551
v 0.270580 0.477485 -0.852069
v 0.277034 0.471031 -0.855795
v 0.277034 0.493252 -0.928117
v 0.280896 -0.000000 -1.058921
v 0.535186 -0.000000 -1.058921
v 0.026606 -0.000000 -1.058921
v 0.236345 -0.000000 -0.636199
v 0.256344 -0.000000 -0.636199
v 0.256344 -0.000000 -0.527658
v 0.236345 -0.000000 -0.527658
v 0.251994 -0.020000 -0.534696
v 0.251994 -0.020000 -0.629160
v 0.240694 -0.020000 -0.534696
v 0.240694 -0.020000 -0.629160
vn -0.0000 -0.0000 -1.0000
vn 0.3015 -0.9045 -0.3015
vn 0.3015 0.3015 -0.9045
vn -0.3015 0.3015 -0.9045
vn -0.3015 -0.9045 -0.3015
vn -0.0000 0.7071 -0.7071
vn 0.2012 0.2013 -0.9586
vn 0.4151 -0.1734 -0.8931
vn 0.1734 -0.4151 -0.8931
vn -0.2012 -0.2012 -0.9586
vn -0.2013 0.2013 -0.9586
vn -0.5773 -0.5774 -0.5774
vn 0.5774 -0.5774 -0.5774
vn 0.5774 -0.5773 -0.5774
vn -0.5773 -0.5774 -0.5773
vn -0.4673 0.4673 -0.7505
vn -0.4673 -0.4673 -0.7505
vn -0.5773 0.5774 0.5774
vn -0.5774 0.5773 -0.5774
vn -1.0000 -0.0000 -0.0000
vn -0.5773 -0.5773 0.5774
vn -0.5773 -0.5773 -0.5774
vn 1.0000 -0.0000 -0.0000
vn 0.5773 0.5773 0.5774
vn 0.5774 -0.5773 0.5774
vn 0.5773 -0.5773 -0.5774
vn 0.5774 0.5773 -0.5774
vn 0.3015 -0.9045 0.3015
vn -0.3015 -0.9045 0.3015
vn -0.0000 -0.7071 0.7071
vn -0.0000 -1.0000 -0.0000
vn 0.5946 -0.2435 -0.7663
vn 0.2435 -0.5946 -0.7663
vn 0.4673 0.4673 -0.7505
vn -0.5774 -0.5773 0.5774
vn -0.5774 -0.5774 0.5774
vn -0.5774 0.5774 0.5773
vn -0.3015 -0.3015 -0.9045
vn 0.5773 -0.5774 0.5774
vn 0.3015 -0.3015 -0.9045
vn -0.0000 0.7071 0.7071
vn -0.0000 -0.9684 0.2493
vn -0.0000 -0.9790 -0.2038
vn -0.1672 -0.9353 -0.3118
vn 0.3036 -0.9109 0.2794
vn 0.3162 -0.9487 -0.0000
vn -0.3162 -0.9487 -0.0000
vn 0.1672 -0.9353 0.3118
vn 0.9487 -0.0000 0.3162
vn 0.5097 0.8604 -0.0000
vn 0.7196 0.6944 -0.0000
vn -0.4207 -0.0000 0.9072
vn -0.9362 -0.0000 0.3515
vn -0.7735 -0.6338 -0.0000
vn -0.5774 -0.5773 -0.5773
vn -0.0000 -0.7570 -0.6534
vn -0.9362 -0.0000 -0.3515
vn 0.3102 -0.9307 -0.1938
vn -0.0000 1.0000 -0.0000
vn -0.0000 0.9881 0.1541
vn -0.0000 0.0633 0.9980
vn 0.4328 -0.9015 -0.0000
vn -0.0000 -0.6158 -0.7879
vn 0.6250 -0.6249 -0.4678
vn -0.7276 -0.0000 -0.6860
vn -0.9487 0.3162 -0.0000
vn -0.1043 0.9946 -0.0000
vn -0.0000 0.6583 -0.7528
vn -0.8320 0.5547 -0.0000
vn -0.6410 0.7676 -0.0000
vn -0.1243 -0.0000 0.9922
vn -0.9487 -0.0000 0.3162
vn -0.7071 -0.0000 0.7071
vn -0.0000 -0.0000 1.0000
vn 0.6189 -0.4837 0.6189
vn 0.7071 -0.0000 0.7071
vn 0.9615 -0.0000 0.2748
vn 0.6649 0.4057 0.6271
vn 0.6911 0.6259 0.3614
vn -0.0000 0.8660 0.5000
vn -0.0000 0.7222 0.6917
vn -0.0000 0.7222 -0.6917
vn 0.2274 0.5491 -0.8042
vn 0.7071 0.7071 -0.0000
vn 0.6142 0.7892 -0.0000
vn 0.7071 -0.7071 -0.0000
vn 0.5482 -0.5482 0.6316
vn 0.2284 -0.2284 0.9464
vn 0.3827 0.9239 -0.0000
vn 0.5603 -0.5603 0.6101
vn 0.2971 -0.7173 0.6303
vn 0.6142 -0.7892 -0.0000
vn -0.8077 -0.0000 -0.5896
vn -0.5547 -0.0000 -0.8320
vn -0.0000 -0.7482 0.6635
vn -0.9486 -0.2668 -0.1702
vn -0.4851 -0.7839 0.3876
vn 0.8320 0.1436 0.5358
vn 0.6466 0.5636 0.5141
vn 0.7084 0.4835 0.5141
vn 0.3090 0.2588 0.9152
vn -0.0000 0.6574 0.7535
vn -0.0000 0.7914 0.6112
vn 0.2368 -0.2368 -0.9422
vn -0.0000 -0.7071 -0.7071
vn 0.2626 -0.2626 0.9285
vn 0.1712 -0.5087 0.8437
vn -0.2275 -0.5491 0.8042
vn -0.2626 -0.2626 0.9285
vn -0.6329 0.6705 0.3871
vn -0.8944 0.3873 0.2236
vn -0.0000 -0.8660 -0.5000
vn -0.8922 -0.4217 -0.1618
vn -0.6991 -0.5302 -0.4798
vn -0.0000 -0.2588 -0.9659
vn -0.0000 0.2588 0.9659
vn -0.9164 -0.4002 -0.0000
vn -0.3333 -0.6667 0.6667
vn -0.0000 -0.7693 -0.6389
vn -0.6979 0.7162 -0.0000
vn -0.6490 0.7431 -0.1630
vn -0.1861 0.8348 -0.5182
vn -0.7071 0.7071 -0.0000
vn -0.0000 -0.5000 0.8660
vn -0.3128 0.4749 -0.8226
vn -0.0000 0.5000 -0.8660
vn -0.7618 0.1469 -0.6310
vn -0.0000 -0.4699 0.8827
vn -0.0000 0.9680 -0.2509
vn -0.2233 -0.5462 -0.8073
vn -0.0000 -0.9785 -0.2063
vn -0.5684 -0.5504 -0.6116
vn 0.3641 -0.0000 -0.9314
vn 0.6677 0.6677 0.3290
vn 0.8793 -0.0000 0.4763
vn -0.0000 0.9539 0.3001
vn -0.7071 -0.7071 -0.0000
vn -0.6882 0.4789 0.5450
vn -0.4698 -0.4414 0.7645
vn -0.5678 0.1913 0.8007
vn -0.6114 -0.0871 -0.7865
vn -0.8833 -0.3659 -0.2931
vn -0.9996 -0.0149 0.0258
vn -0.3199 -0.1688 0.9323
vn -0.8320 0.4804 0.2774
vn -0.4243 -0.9055 -0.0000
vn -0.7182 -0.6959 -0.0000
vn -0.6974 -0.7166 -0.0000
vn 0.7220 -0.6919 -0.0000
vn 0.8833 -0.3659 0.2931
vn -0.6397 0.3434 0.6876
vn -0.2507 -0.4840 0.8384
vn -0.5039 -0.0000 0.8638
vn -0.9895 -0.0000 0.1446
vn -0.3496 -0.0000 0.9369
vn -0.2910 -0.0000 0.9567
vn -0.0000 -0.5716 -0.8205
vn -0.0000 -0.7914 -0.6112
vn -0.3478 -0.3478 -0.8706
vn -0.6407 0.2385 -0.7298
vn -0.9239 -0.3827 -0.0000
vn -0.3664 0.1626 -0.9162
vn 0.6662 0.7457 -0.0000
vn 0.9983 -0.0000 -0.0577
vn -0.5328 0.6298 -0.5652
vn -0.9974 0.0727 -0.0000
vn 0.1174 -0.5971 0.7936
vn 0.9864 -0.0823 0.1426
vn 0.8480 -0.2650 0.4590
vn -0.9997 -0.0230 -0.0000
vn 0.3922 -0.3922 -0.8321
vn 0.4820 -0.4820 -0.7316
vn -0.3827 -0.9239 -0.0000
vn 0.2880 0.5030 -0.8149
vn 0.9978 0.0331 -0.0573
vn 0.5773 -0.5774 0.5773
vn -0.0000 0.9881 -0.1541
vn -0.0000 0.1778 -0.9841
vn 0.1243 -0.0000 0.9922
vn -0.4472 -0.0000 0.8944
vn -0.1468 -0.0000 0.9892
vn 0.9770 0.2133 -0.0000
vn 0.5774 0.5774 -0.5774
vn 0.8935 -0.0000 0.4491
vn 0.3334 0.6667 0.6667
vn 0.9698 -0.0000 -0.2437
vn -0.0000 0.8005 0.5993
vn 0.5560 0.5560 -0.6178
vn -0.9956 0.0937 -0.0000
vn -0.7826 0.6225 -0.0000
vn 0.3855 0.3855 0.8384
vn 0.4201 -0.4201 -0.8044
vn 0.9947 -0.0000 -0.1033
vn 0.7276 -0.4851 -0.4851
vn -0.0000 0.7693 0.6389
vn -0.6900 0.7098 0.1414
vn -0.0000 0.9380 0.3467
vn -0.0000 -0.9380 -0.3467
vn -0.0000 -0.9992 0.0391
vn 0.9864 0.0823 -0.1426
vn 0.9993 0.0185 -0.0321
vn 0.2507 -0.4840 0.8384
vn -0.0000 -0.7194 -0.6946
vn 0.2125 0.9772 -0.0000
vn 0.2125 0.9772 0.0001
vn 0.2125 0.9772 -0.0001
vn 0.2125 -0.9772 -0.0000
vn 0.3319 -0.0000 0.9433
vn 0.3320 -0.0000 0.9433
vn 0.3320 -0.0000 -0.9433
vn 0.3319 -0.0000 -0.9433
vt 0.000000 25.196850
vt 0.000000 2.386594
vt 2.386594 2.386594
vt 2.386594 48.007111
vt -0.000000 48.007111
vt 2.386594 -0.000000
vt 4.773188 4.773188
vt 48.007111 -0.000000
vt 34.584782 4.773188
vt 45.620510 15.808920
vt 45.620510 45.620510
vt 4.773188 45.620510
vt 48.007111 50.393700
vt 2.386594 50.393700
vt 48.007111 2.386594
vt 48.007111 48.007111
vt 49.200409 2.386594
vt 49.200409 48.007111
vt 6.202845 21.744471
vt 44.190861 21.744471
vt 45.620510 25.933020
vt 50.393700 0.000000
vt 50.393700 98.136650
vt 48.007111 11.023620
vt 48.007111 94.987053
vt 2.386594 94.987053
vt 0.000000 0.000000
vt 2.386594 11.023620
vt 0.000000 98.136650
vt -2.386594 11.023620
vt -50.393700 0.000000
vt 0.000000 0.000000
vt 0.000000 98.136650
vt -2.386594 94.987053
vt -48.007111 94.987053
vt -50.393700 98.136650
vt -25.196850 94.987053
vt -48.007111 11.023620
vt -25.196850 11.023620
vt 50.393700 -0.000000
vt 0.000000 98.136650
vt -28.376530 13.516210
vt -27.830280 17.720659
vt -43.437168 17.720659
vt -42.890930 13.516210
vt 6.202845 6.202845
vt 33.927620 6.202845
vt 15.862650 30.805031
vt 18.590290 30.805031
vt 19.954109 33.167229
vt 44.190861 44.190861
vt 17.226471 35.529442
vt 18.590290 35.529442
vt 44.190861 16.466080
vt -33.927620 4.543845
vt -6.202845 4.543845
vt -4.773188 8.732394
vt -34.584782 8.732394
vt 45.620510 8.732394
vt 4.773188 8.732394
vt 6.202845 4.543845
vt 44.190861 4.543845
vt 49.200409 11.023620
vt 49.200409 94.987053
vt 48.007111 98.136650
vt 2.386594 98.136650
vt 0.000000 11.023620
vt -50.393700 94.987053
vt -48.007111 98.136650
vt -2.386594 98.136650
vt -0.000000 11.023620
vt -0.000000 94.987053
vt -0.000000 94.987053
vt -0.000000 11.023620
vt 50.393700 11.023620
vt 50.393700 94.987053
vt -0.000000 94.987053
vt -0.000000 11.023620
vt -0.000000 25.196850
vt 0.000000 48.007111
vt -2.386594 48.007111
vt -2.386594 2.386594
vt -0.000000 2.386594
vt -2.386594 50.393700
vt -48.007111 50.393700
vt -48.007111 48.007111
vt -48.007111 2.386594
vt -48.007111 -0.000000
vt -2.386594 0.000000
vt 50.393700 50.393700
vt -0.000000 50.393700
vt -23.691919 48.361481
vt -23.773640 41.887100
vt -22.309071 41.887100
vt -26.701780 48.361481
vt -23.773640 39.934349
vt -26.701780 80.251244
vt -26.701780 81.531792
vt -23.691919 49.642021
vt -23.691919 80.251244
vt -26.701780 49.642021
vt -26.702770 41.887100
vt -22.309071 39.934349
vt -26.702770 39.934349
vt -28.167339 39.934349
vt -44.082291 42.619389
vt -44.569309 42.132370
vt -44.569309 39.689079
vt -46.524410 42.132370
vt -46.524410 39.689079
vt -47.011429 42.619389
vt -47.011429 39.202061
vt -49.200409 39.934349
vt -47.011429 39.934349
vt -47.011429 41.887100
vt -49.200409 41.887100
vt -19.379940 39.202061
vt -19.379940 42.619389
vt -31.096479 42.619389
vt 47.011429 26.702770
vt 49.200409 26.702770
vt 49.200409 28.167339
vt 46.524410 31.584660
vt 44.569309 31.584660
vt 44.569309 31.096479
vt 28.167339 39.934349
vt 28.167339 41.887100
vt 26.702770 41.887100
vt 31.096479 39.202061
vt 22.309071 41.887100
vt 22.309071 39.934349
vt 23.773640 39.934349
vt 19.379940 39.202061
vt 19.379940 42.619389
vt 31.096479 42.619389
vt 26.702770 39.934349
vt 23.773640 41.887100
vt 31.584660 42.619389
vt 32.805141 39.202061
vt 31.584660 39.202061
vt 47.011429 42.619389
vt 46.524410 42.132370
vt 46.524410 39.689079
vt 44.569309 42.132370
vt 44.082291 42.619389
vt 47.011429 39.202061
vt -44.569309 18.891750
vt -46.524410 19.379940
vt -44.569309 19.379940
vt -46.524410 18.891750
vt 44.082291 39.202061
vt 44.569309 39.689079
vt 31.096479 42.132370
vt 31.584660 39.689079
vt 31.096479 39.689079
vt 47.011429 39.934349
vt 49.200409 39.934349
vt 49.200409 41.887100
vt -31.096479 39.689079
vt -31.584660 42.132370
vt -31.096479 42.132370
vt -47.011429 31.584660
vt -44.082291 31.584660
vt -44.082291 32.805141
vt -47.011429 32.805141
vt -49.200409 48.361481
vt -41.628090 48.361481
vt -41.628090 49.642021
vt 22.969151 83.143089
vt 22.969151 82.824203
vt 27.424549 82.824203
vt -47.011429 18.891750
vt -47.011429 17.671280
vt -44.082291 17.671280
vt -44.082291 18.891750
vt 12.304990 48.361481
vt 13.123690 46.245850
vt 12.304990 46.245850
vt -47.938721 76.766251
vt -47.938721 80.251244
vt -48.757420 80.251244
vt 12.304990 81.531792
vt 13.123690 83.253723
vt 13.123690 81.531792
vt 12.304990 83.253723
vt -48.757420 46.245850
vt -47.938721 46.245850
vt -47.938721 48.361481
vt -48.757420 48.361481
vt 42.831181 81.531792
vt 43.666599 81.531792
vt 43.666599 83.253723
vt 42.831181 83.253723
vt 23.761810 84.099777
vt 26.631889 84.737579
vt 26.631889 84.099777
vt 46.356831 74.396477
vt 36.494900 76.776192
vt 36.548000 80.059608
vt 33.555962 77.736526
vt 34.595081 79.536331
vt -41.628090 26.701780
vt -42.831181 26.122219
vt -42.252270 25.543310
vt -49.200409 26.701780
vt -43.666599 26.122219
vt -44.245510 24.850389
vt -44.245510 25.543310
vt -49.200409 23.691919
vt -41.628090 23.691919
vt -42.831181 24.271481
vt -42.252270 24.850389
vt -43.666599 24.271481
vt 41.628090 23.691919
vt 42.831181 24.271481
vt 42.252270 24.850389
vt 49.200409 23.691919
vt 41.628090 26.701780
vt 42.252270 25.543310
vt 43.666599 24.271481
vt 44.245510 24.850389
vt 44.245510 25.543310
vt 49.200409 26.701780
vt 42.831181 26.122219
vt 43.666599 26.122219
vt 26.631889 87.607658
vt 23.761810 87.607658
vt 23.761810 84.737579
vt -26.631889 56.023609
vt -26.631889 54.001789
vt -23.761810 54.001789
vt -23.761810 56.023609
vt -27.424549 83.143089
vt -22.969151 82.824203
vt -27.424549 82.824203
vt -44.082291 39.202061
vt -28.450850 79.674881
vt -21.942850 79.674881
vt -22.155729 80.969017
vt -47.938721 49.642021
vt -48.757420 73.117943
vt -47.938721 73.452171
vt -48.757420 49.642021
vt -36.388821 74.996277
vt -32.227001 77.030884
vt -36.229370 74.720100
vt -26.122219 -0.533924
vt -23.761810 6.782585
vt -26.631889 6.782585
vt -26.631889 -2.947956
vt -25.543310 -2.167050
vt -26.122219 -1.498581
vt -25.543310 0.134545
vt -24.850389 0.134545
vt -24.271481 -0.533924
vt -23.761810 -2.947956
vt -24.271481 -1.498581
vt -43.666599 81.531792
vt -42.831181 81.531792
vt -42.831181 83.253723
vt -43.666599 83.253723
vt -25.543310 48.361481
vt -25.543310 46.245850
vt -24.850389 46.245850
vt -24.850389 48.361481
vt -47.011429 22.309071
vt -49.200409 23.773640
vt -47.011429 23.773640
vt -13.224450 80.251244
vt -12.405750 75.949677
vt -13.224450 75.615463
vt -28.863850 72.338760
vt -35.088699 70.193619
vt -29.705549 73.344566
vt 48.858181 46.245850
vt 48.039478 48.361481
vt 48.858181 48.361481
vt -42.831181 48.361481
vt -43.666599 46.245850
vt -43.666599 48.361481
vt -36.494900 76.776192
vt -36.548000 80.059608
vt -33.555962 77.736526
vt -34.595081 79.536331
vt -24.850389 81.531792
vt -25.543310 83.253723
vt -24.850389 83.253723
vt -13.224450 72.301369
vt -12.405750 49.642021
vt -13.224450 49.642021
vt -12.405750 72.635597
vt -23.691919 81.531792
vt 48.039478 72.635597
vt 48.858181 49.642021
vt 48.039478 49.642021
vt -22.969151 10.606040
vt -21.942850 4.958187
vt -21.942850 11.632350
vt -27.424549 10.606040
vt -28.450850 11.632350
vt 25.543310 75.615463
vt 25.543310 80.251244
vt 24.850389 80.251244
vt -18.891750 42.619389
vt -17.671280 39.202061
vt -18.891750 39.202061
vt -12.405750 46.245850
vt -13.224450 48.361481
vt -12.405750 48.361481
vt 13.123690 76.432007
vt 13.123690 80.251244
vt 12.304990 80.251244
vt 12.304990 76.766251
vt 49.200409 49.642021
vt 41.628090 48.361481
vt 41.628090 49.642021
vt 18.891750 42.132370
vt 18.891750 39.689079
vt 19.379940 39.689079
vt -43.666599 49.642021
vt -42.831181 49.642021
vt -42.831181 73.117943
vt -43.666599 72.635597
vt 42.831181 76.432007
vt 43.666599 75.949677
vt 43.666599 80.251244
vt 42.831181 80.251244
vt 49.200409 81.531792
vt 41.628090 80.251244
vt 41.628090 81.531792
vt -47.011429 26.702770
vt -47.011429 28.167339
vt -49.200409 28.167339
vt -49.200409 26.702770
vt 32.227001 77.030884
vt 36.229370 74.720100
vt 36.388821 74.996277
vt 32.386452 77.307053
vt 39.279148 77.352676
vt 33.054291 79.497818
vt 33.896000 80.503632
vt 24.850389 1.791586
vt 25.543310 1.791586
vt 23.761810 8.378308
vt 23.761810 -2.947956
vt 24.271481 1.123117
vt 24.271481 0.158460
vt 26.631889 8.378308
vt 26.122219 1.123117
vt 25.543310 -0.510010
vt 26.631889 -2.947956
vt 43.666599 72.635597
vt 42.831181 73.117943
vt 42.831181 49.642021
vt 43.666599 49.642021
vt 43.666599 48.361481
vt 42.831181 48.361481
vt 42.831181 46.245850
vt 43.666599 46.245850
vt -49.200409 80.251244
vt -41.628090 81.531792
vt -41.628090 80.251244
vt 12.304990 49.642021
vt 13.123690 49.642021
vt 13.123690 73.117943
vt 12.304990 73.452171
vt 24.850389 83.253723
vt 25.543310 81.531792
vt 24.850389 81.531792
vt 25.543310 83.253723
vt 23.761810 9.807949
vt 28.237970 11.414030
vt 22.155729 11.414030
vt 26.631889 9.807949
vt 28.237970 5.176501
vt -43.666599 80.251244
vt -43.666599 75.949677
vt -42.831181 76.432007
vt 24.850389 72.301369
vt 24.850389 49.642021
vt 25.543310 49.642021
vt 48.039478 83.253723
vt 48.858181 81.531792
vt 48.039478 81.531792
vt -24.850389 73.452171
vt -25.543310 49.642021
vt -25.543310 73.452171
vt -25.543310 80.251244
vt -24.850389 76.766251
vt -25.543310 76.766251
vt 15.862650 35.529442
vt 14.498830 33.167229
vt 4.773188 25.933020
vt 0.000000 -0.000000
vt -16.466080 21.744471
vt -15.808920 25.933020
vt -45.620510 25.933020
vt -44.190861 21.744471
vt 0.000000 -0.000000
vt 0.000000 50.393700
vt -50.393700 50.393700
vt -50.393700 -0.000000
vt 6.202845 44.190861
vt 0.000000 94.987053
vt -50.393700 11.023620
vt -49.200409 11.023620
vt -49.200409 94.987053
vt -49.200409 48.007111
vt -49.200409 2.386594
vt 0.000000 0.000000
vt -28.167339 41.887100
vt -44.082291 31.096479
vt -47.011429 31.096479
vt -47.011429 19.379940
vt -44.082291 19.379940
vt -31.096479 39.202061
vt 47.011429 28.167339
vt 47.011429 22.309071
vt 49.200409 22.309071
vt 49.200409 23.773640
vt 47.011429 23.773640
vt 46.524410 31.096479
vt 32.805141 42.619389
vt 47.011429 31.584660
vt 47.011429 32.805141
vt 44.082291 32.805141
vt 44.082291 31.584660
vt 31.584660 42.132370
vt 47.011429 41.887100
vt -31.584660 39.689079
vt -31.584660 39.202061
vt -32.805141 42.619389
vt -31.584660 42.619389
vt -32.805141 39.202061
vt -44.569309 31.096479
vt -44.569309 31.584660
vt -46.524410 31.584660
vt -46.524410 31.096479
vt -49.200409 49.642021
vt 27.424549 83.143089
vt 13.123690 48.361481
vt -48.757420 76.432007
vt 44.921791 71.910919
vt 36.175999 76.223839
vt 47.011429 18.891750
vt 44.082291 17.671280
vt 44.082291 18.891750
vt 47.011429 17.671280
vt -22.969151 83.143089
vt -23.761810 84.099777
vt -26.631889 86.178017
vt -23.761810 86.178017
vt -26.631889 84.099777
vt -28.237970 80.969017
vt 48.039478 80.251244
vt 48.039478 75.949677
vt 48.858181 75.615463
vt 48.858181 80.251244
vt -32.386452 77.307053
vt -24.850389 -2.167050
vt 22.155729 83.767754
vt 21.942850 82.473610
vt 28.450850 82.473610
vt 28.237970 83.767754
vt -49.200409 22.309071
vt -12.405750 80.251244
vt -34.623821 68.967247
vt 48.039478 46.245850
vt 44.082291 31.096479
vt 44.082291 19.379940
vt 47.011429 19.379940
vt 47.011429 31.096479
vt -42.831181 46.245850
vt -36.175999 76.223839
vt -46.356831 74.396477
vt -44.921791 71.910919
vt -25.543310 81.531792
vt 48.858181 72.301369
vt 17.671280 42.619389
vt 17.671280 39.202061
vt 18.891750 39.202061
vt 18.891750 42.619389
vt -28.450850 4.958187
vt -22.969151 5.984494
vt -27.424549 5.984494
vt -13.224450 83.253723
vt -12.405750 81.531792
vt -13.224450 81.531792
vt -12.405750 83.253723
vt 24.850389 75.615463
vt -17.671280 42.619389
vt -13.224450 46.245850
vt -18.891750 39.689079
vt -18.891750 42.132370
vt -19.379940 42.132370
vt -19.379940 39.689079
vt 49.200409 48.361481
vt 19.379940 42.132370
vt 49.200409 80.251244
vt 38.814270 76.126297
vt 44.569309 19.379940
vt 44.569309 18.891750
vt 46.524410 18.891750
vt 46.524410 19.379940
vt 26.122219 0.158460
vt 24.850389 -0.510010
vt 24.850389 48.361481
vt 24.850389 46.245850
vt 25.543310 46.245850
vt 25.543310 48.361481
vt -49.200409 81.531792
vt 26.631889 6.782585
vt 22.155729 5.176501
vt 23.761810 6.782585
vt -42.831181 80.251244
vt -47.938721 81.531792
vt -47.938721 83.253723
vt -48.757420 83.253723
vt -48.757420 81.531792
vt 25.543310 72.301369
vt 48.858181 83.253723
vt -24.850389 49.642021
vt -24.850389 80.251244
vt 0.000000 36.851551
vt -10.011420 36.851551
vt -10.011420 0.000000
vt -8.257423 20.208929
vt -9.044826 20.208929
vt -9.044826 15.935670
vt -8.257423 15.935670
vt -1.922306 20.208929
vt -1.922306 15.935670
vt -1.116495 16.212770
vt -1.116495 19.931829
vt -2.560770 16.212770
vt -1.754959 15.935670
vt -1.754959 20.208929
vt -2.560770 19.931829
vt -8.428683 16.212770
vt -8.428683 19.931829
vt -8.873566 19.931829
vt -8.873566 16.212770
vt -8.257423 5.290090
vt -8.428683 6.124828
vt -8.873566 6.124828
vt -9.044826 5.290090
vt -8.873566 5.873929
vt -8.428683 5.873929
vt -8.257423 6.708667
vt -9.044826 6.708667
s 1
usemtl carpetWhite.006
f 2/1/1 1/2/2 3/3/3
f 2/1/1 3/3/3 4/4/4
f 4/4/4 5/5/5 2/1/1
f 3/3/3 6/6/6 4/4/4
f 6/6/6 7/7/7 4/4/4
f 6/6/6 8/8/1 7/7/7
f 8/8/1 9/9/8 7/7/7
f 8/8/1 10/10/9 9/9/8
f 8/8/1 11/11/10 10/10/9
f 4/4/4 7/7/7 12/12/11
f 4/4/4 12/12/11 13/13/1
f 12/12/11 11/11/10 13/13/1
f 13/13/1 14/14/6 4/4/4
s 0
f 8/8/1 15/15/1 13/13/1
f 15/15/1 16/16/1 13/13/1
s 1
f 16/16/12 15/15/13 17/17/14
f 17/17/14 18/18/15 16/16/12
f 20/19/16 19/20/17 11/21/10
f 22/22/18 23/23/19 8/24/20
f 23/23/19 24/25/20 8/24/20
f 23/23/19 25/26/20 24/25/20
f 21/27/21 8/24/20 6/28/20
f 6/28/20 26/29/22 21/27/21
f 6/28/20 25/26/20 26/29/22
f 25/26/20 23/23/19 26/29/22
f 14/30/23 27/31/24 28/32/25
f 28/32/25 29/33/26 14/30/23
f 29/33/26 30/34/23 14/30/23
f 31/35/23 29/33/26 32/36/27
f 33/34/28 21/27/21 26/29/22
f 26/29/22 29/36/26 33/34/28
f 29/36/26 35/35/29 34/37/30
f 29/36/26 5/38/5 35/35/29
f 1/30/2 28/31/25 21/27/21
f 5/38/5 29/36/26 28/31/25
f 1/30/2 2/39/31 28/31/25
f 27/40/24 32/23/27 23/41/19
f 37/42/32 9/43/8 10/44/9
f 10/44/9 36/45/33 37/42/32
f 39/46/34 37/47/32 38/48/1
f 37/47/32 41/49/1 38/48/1
f 37/47/32 42/50/1 41/49/1
f 42/50/1 37/47/32 19/51/17
f 44/52/1 45/53/1 19/51/17
f 37/47/32 36/54/33 19/51/17
f 37/55/32 39/56/34 7/57/7
f 7/57/7 9/58/8 37/55/32
f 12/59/11 7/60/7 39/61/34
f 39/61/34 20/62/16 12/59/11
f 16/24/12 18/63/15 46/64/35
f 46/64/35 47/25/36 16/24/12
f 48/26/37 47/25/36 49/65/38
f 49/65/38 50/66/4 48/26/37
f 5/67/5 4/28/4 48/26/37
f 16/38/12 47/35/36 31/68/30
f 49/69/38 47/35/36 51/34/39
f 51/34/39 52/70/40 49/69/38
f 8/71/31 24/72/30 51/34/39
f 25/73/41 6/74/6 3/28/3
f 3/28/3 53/26/24 25/73/41
f 54/66/3 53/26/24 48/25/37
f 14/75/6 30/76/41 48/25/37
f 54/70/3 52/69/40 51/35/39
f 33/77/28 53/34/24 3/30/3
f 3/30/3 1/78/2 33/77/28
f 34/79/30 35/80/29 48/81/37
f 48/81/37 53/82/24 34/79/30
f 33/83/28 34/79/30 53/82/24
f 48/81/37 30/84/41 31/85/30
f 31/85/30 47/86/36 48/81/37
f 51/87/39 24/88/30 25/89/41
f 50/4/4 32/90/27 29/91/26
f 50/4/4 49/16/38 32/90/27
f 49/16/38 23/22/19 32/90/27
f 57/92/42 56/93/43 58/94/44
f 57/92/42 62/95/45 56/93/43
f 62/95/45 63/96/31 56/93/43
f 46/35/35 65/97/31 64/98/31
f 61/99/31 60/100/31 65/97/31
f 65/97/31 66/101/46 61/99/31
f 46/35/35 67/102/5 62/95/45
f 70/103/47 18/38/15 17/30/14
f 63/96/31 62/95/45 71/104/29
f 62/95/45 67/102/5 71/104/29
f 71/104/29 69/105/48 18/38/15
f 77/106/23 78/107/23 76/108/23
f 77/106/23 79/109/23 78/107/23
f 80/110/49 81/111/50 75/112/51
f 80/110/49 79/109/23 81/111/50
f 63/113/23 82/114/23 83/115/23
f 83/115/52 63/113/20 56/116/53
f 72/117/54 84/118/55 77/119/56
f 86/120/57 67/121/5 68/122/58
f 89/123/1 88/124/1 78/125/1
f 91/126/59 85/127/59 86/128/59
f 75/129/51 85/127/59 91/126/59
f 87/130/59 92/131/59 82/132/59
f 73/133/60 75/129/61 92/131/59
f 92/131/59 93/134/59 73/133/60
f 87/130/59 81/135/59 93/134/59
f 85/127/59 75/129/51 81/135/50
f 86/128/31 91/126/31 90/136/31
f 75/129/31 82/132/31 90/136/31
f 83/137/31 86/128/31 90/136/31
f 83/137/31 81/135/31 86/128/31
f 86/128/31 81/135/31 85/127/31
f 95/138/62 96/139/63 94/140/64
f 93/141/65 99/142/66 98/143/67
f 93/141/65 100/144/20 99/142/66
f 100/144/20 93/141/65 84/145/55
f 73/146/23 98/143/23 93/141/23
f 102/147/68 98/148/1 101/149/6
f 98/148/1 102/147/68 103/150/1
f 95/141/20 89/142/69 105/143/70
f 104/151/20 105/143/71 106/152/72
f 106/152/72 107/145/20 104/151/20
f 106/152/72 88/144/20 107/145/20
f 94/146/64 105/143/23 95/141/62
f 79/153/31 105/154/31 80/155/31
f 90/156/73 71/157/29 67/158/5
f 76/159/59 88/160/59 78/161/59
f 94/162/74 104/163/74 108/164/74
f 108/164/1 94/162/64 96/165/63
f 112/141/75 111/151/23 113/145/76
f 62/166/45 114/167/77 115/168/23
f 119/169/78 118/170/79 120/171/80
f 123/172/81 110/173/41 111/174/74
f 111/174/82 123/172/1 122/175/6
f 126/176/83 125/177/84 127/178/85
f 129/179/86 128/180/87 130/181/88
f 133/182/89 134/183/84 132/184/84
f 134/183/84 133/182/89 135/185/89
f 137/186/90 136/187/91 138/188/92
f 138/188/92 139/189/86 137/186/90
f 132/190/20 140/191/20 141/192/93
f 141/192/93 134/193/94 132/190/20
f 69/113/20 85/115/20 91/114/20
f 144/194/95 143/195/96 145/196/97
f 147/197/23 142/198/23 148/199/98
f 148/199/98 149/200/99 150/201/100
f 152/202/74 130/203/88 128/204/87
f 152/202/74 65/205/74 130/203/88
f 65/205/74 153/206/101 130/203/88
f 158/207/102 154/208/103 60/209/74
f 128/204/1 152/202/1 151/210/1
f 65/205/1 154/208/1 60/209/1
f 155/211/1 151/210/1 60/209/1
f 151/210/1 155/211/1 156/212/1
f 155/211/1 60/209/1 157/213/104
f 160/214/105 132/215/1 133/216/1
f 160/214/105 59/217/1 132/215/1
f 163/218/105 160/214/105 159/219/1
f 59/217/74 132/215/74 140/220/106
f 59/217/74 140/220/106 161/221/107
f 59/217/74 161/221/107 162/222/108
f 162/222/108 64/223/74 59/217/74
f 164/224/74 64/223/74 165/225/109
f 165/225/109 64/223/74 162/222/108
f 168/226/80 147/227/110 146/228/111
f 146/228/112 168/226/113 169/195/114
f 171/229/115 170/230/115 150/231/115
f 150/231/100 171/229/116 148/232/98
f 174/233/80 173/234/80 175/235/80
f 102/108/23 123/112/23 122/236/23
f 123/112/23 102/108/23 103/110/23
f 166/106/20 102/108/20 176/107/20
f 103/110/20 123/112/117 167/111/118
f 103/110/20 167/111/118 177/109/20
f 180/237/119 179/238/119 181/239/119
f 186/240/120 187/241/121 185/242/122
f 187/241/121 186/240/120 188/243/123
f 172/244/20 118/245/20 173/246/20
f 187/247/124 142/248/124 143/249/124
f 169/250/124 190/251/124 189/252/124
f 142/248/124 185/253/124 191/254/124
f 142/248/124 191/254/124 192/255/124
f 143/249/96 187/247/125 169/250/114
f 187/247/121 142/248/126 185/253/122
f 169/250/114 187/247/125 189/252/127
f 192/255/126 142/248/126 146/256/126
f 192/255/126 146/256/126 193/257/126
f 165/258/23 164/259/23 195/260/23
f 195/260/23 196/261/23 165/258/23
f 138/262/92 136/263/91 127/264/128
f 127/264/85 138/262/129 126/265/83
f 92/266/1 63/267/1 82/268/1
f 201/216/130 186/219/131 116/214/1
f 116/214/1 202/215/132 201/216/130
f 115/218/1 186/219/1 188/224/1
f 206/225/133 205/222/1 66/223/1
f 116/214/134 202/215/74 61/217/135
f 61/217/74 204/221/106 205/222/74
f 115/218/136 186/219/74 116/214/134
f 154/269/137 208/270/137 207/271/137
f 180/272/138 200/273/139 182/274/140
f 211/275/86 210/276/86 212/277/86
f 139/278/20 213/279/141 214/280/142
f 143/281/96 171/282/143 178/283/144
f 178/283/144 171/282/143 170/284/145
f 133/285/89 215/286/59 135/287/89
f 190/288/146 206/289/147 205/290/148
f 206/289/147 190/288/146 189/291/127
f 151/100/31 160/292/105 163/98/105
f 193/293/149 204/294/106 203/295/150
f 118/296/124 197/297/151 179/298/152
f 120/299/126 180/300/126 118/296/126
f 179/298/126 118/296/126 180/300/126
f 138/204/74 117/210/74 114/202/74
f 62/205/45 214/206/74 139/203/74
f 62/205/45 57/209/42 216/208/74
f 124/211/153 57/209/154 117/210/155
f 124/211/153 210/213/156 57/209/154
f 210/213/156 212/207/74 57/209/154
f 117/210/1 126/212/83 138/204/129
f 212/207/157 57/209/1 216/208/158
f 207/301/59 154/302/103 158/303/102
f 166/304/59 111/305/82 122/306/6
f 213/307/141 216/308/159 214/309/142
f 219/310/160 155/311/161 156/312/137
f 156/312/137 220/313/162 219/310/160
f 61/314/135 117/315/163 116/316/134
f 177/317/59 103/318/59 98/319/67
f 206/320/133 188/321/164 187/322/23
f 187/322/125 206/320/147 189/323/127
f 219/324/160 183/325/165 157/326/166
f 157/326/166 155/327/161 219/324/160
f 59/328/23 151/329/23 160/330/23
f 90/331/73 91/332/74 69/333/48
f 69/333/48 71/334/29 90/331/73
f 120/335/20 175/336/20 174/337/20
f 174/337/23 120/335/23 121/338/23
f 198/339/167 179/340/168 181/341/169
f 220/342/162 129/343/126 148/344/126
f 148/344/126 147/345/126 219/346/160
f 147/345/126 183/347/165 219/346/160
f 171/348/126 148/344/126 131/349/126
f 147/345/124 207/350/124 168/351/124
f 131/349/124 171/348/143 168/351/113
f 193/352/20 192/353/170 202/354/132
f 202/354/23 193/352/149 203/355/150
f 210/356/156 124/357/153 125/358/20
f 125/358/23 210/356/23 209/359/23
f 215/219/171 135/216/1 134/215/94
f 134/215/94 195/224/172 215/219/171
f 134/215/94 141/220/93 195/224/172
f 125/211/74 127/212/128 136/204/91
f 136/204/91 137/203/90 125/211/74
f 213/206/141 209/213/1 211/207/1
f 213/206/141 211/207/1 218/208/1
f 65/360/20 163/361/20 152/362/20
f 201/363/130 202/364/132 192/365/170
f 192/365/84 201/363/84 191/366/84
f 221/367/31 162/368/108 161/369/107
f 162/368/108 221/367/31 217/370/173
f 149/371/126 182/372/126 181/373/126
f 178/374/144 182/372/140 200/375/139
f 153/376/101 208/377/174 131/378/175
f 194/379/59 204/380/59 205/381/59
f 141/382/86 161/383/107 140/384/106
f 191/385/59 186/386/120 185/387/122
f 128/388/59 220/389/59 129/390/59
f 11/11/10 8/8/1 13/13/1
f 11/21/10 12/393/11 20/19/16
f 8/24/20 21/27/21 22/22/18
f 29/33/26 31/35/23 30/34/23
f 27/31/24 14/30/23 13/38/23
f 13/38/23 32/36/27 27/31/24
f 13/38/23 31/35/23 32/36/27
f 29/36/26 34/37/30 33/34/28
f 21/27/21 33/34/28 1/30/2
f 2/39/31 5/38/5 28/31/25
f 23/41/19 22/394/18 27/40/24
f 36/395/33 10/396/9 11/397/10
f 11/397/10 19/398/17 36/395/33
f 21/399/21 28/400/25 27/401/24
f 27/401/24 22/402/18 21/399/21
f 38/48/1 20/403/16 39/46/34
f 38/48/1 40/392/1 20/403/16
f 20/403/16 40/392/1 43/391/1
f 43/391/1 19/51/17 20/403/16
f 43/391/1 44/52/1 19/51/17
f 45/53/1 42/50/1 19/51/17
f 48/26/37 35/404/29 5/67/5
f 31/68/30 13/405/31 16/38/12
f 51/34/39 15/30/13 8/71/31
f 48/25/37 50/65/4 54/66/3
f 48/25/37 4/24/4 14/75/6
f 51/35/39 53/34/24 54/70/3
f 17/406/14 15/38/13 51/35/39
f 51/35/39 55/407/176 17/406/14
f 51/87/39 47/86/36 46/408/35
f 46/408/35 55/409/176 51/87/39
f 25/89/41 53/82/24 51/87/39
f 54/3/3 26/410/22 23/22/19
f 23/22/19 52/15/40 54/3/3
f 23/22/19 49/16/38 52/15/40
f 26/410/22 54/3/3 50/4/4
f 29/91/26 26/410/22 50/4/4
f 58/94/44 59/292/31 57/92/42
s 0
f 59/292/31 60/100/31 57/92/31
f 60/100/31 61/99/31 57/92/31
s 1
f 59/292/31 58/94/44 17/30/14
f 59/292/31 17/30/14 55/34/176
f 55/34/176 46/35/35 59/292/31
f 46/35/35 64/98/31 59/292/31
f 46/35/35 66/101/46 65/97/31
f 46/35/35 62/95/45 66/101/46
f 46/35/35 68/411/58 67/102/5
f 46/35/35 69/105/48 68/411/58
f 17/30/14 58/94/44 70/103/47
f 70/103/47 63/96/31 18/38/15
f 69/105/48 46/35/35 18/38/15
f 63/96/31 71/104/29 18/38/15
f 74/412/74 75/413/61 73/414/60
f 73/414/1 74/412/177 72/415/178
f 74/236/23 77/106/23 76/108/23
f 75/112/51 76/108/179 80/110/49
f 76/108/20 74/236/20 75/112/20
f 79/109/20 81/111/180 77/106/181
f 77/119/59 72/117/178 74/416/177
f 68/122/74 86/120/74 85/417/74
f 87/418/1 58/419/44 56/420/43
f 56/420/53 87/418/74 83/421/52
f 78/125/74 89/123/74 79/422/74
f 75/129/61 82/132/59 92/131/59
f 82/132/59 83/137/59 87/130/59
f 75/129/31 90/136/31 91/126/31
f 90/136/31 82/132/31 83/137/31
f 93/134/31 87/130/31 92/131/31
f 87/130/31 81/135/31 83/137/31
f 96/139/182 97/423/183 95/138/82
f 98/143/20 72/151/54 73/146/20
f 72/151/54 98/143/20 101/152/20
f 101/152/20 84/145/55 72/151/54
f 101/152/20 100/144/20 84/145/55
f 105/143/23 94/146/64 104/151/23
f 95/141/184 89/142/23 88/144/23
f 88/144/23 107/145/185 95/141/184
f 96/112/182 108/236/23 109/106/186
f 109/106/186 97/111/183 96/112/182
f 95/424/82 97/425/183 109/426/186
f 109/426/187 95/424/184 107/427/185
f 105/154/70 89/428/69 79/153/59
f 67/158/5 86/429/57 90/156/73
f 88/160/59 76/159/59 106/430/59
f 104/431/59 109/432/187 107/433/185
f 109/432/187 104/431/59 108/434/59
f 76/435/179 106/436/72 105/437/71
f 105/437/71 80/438/49 76/435/179
f 111/151/23 112/141/75 110/146/23
f 115/168/23 66/439/46 62/166/45
f 117/92/163 115/101/136 116/99/134
f 115/101/136 117/92/163 114/95/59
f 120/171/80 121/440/116 119/169/78
f 125/177/84 126/176/83 124/441/188
f 130/181/189 129/179/123 131/442/190
f 85/115/23 68/116/58 69/113/48
f 143/195/96 144/194/95 142/228/112
f 142/198/20 146/443/111 147/197/110
f 144/444/20 142/198/20 149/200/20
f 148/199/98 142/198/23 149/200/99
f 65/205/74 154/208/191 153/206/101
f 151/210/74 128/204/74 156/212/74
f 157/213/104 60/209/1 158/207/192
f 133/216/1 159/219/1 160/214/105
f 163/218/105 159/219/1 164/224/1
f 164/224/1 64/223/1 163/218/105
f 167/445/118 113/446/76 166/447/74
f 113/446/76 167/445/118 112/448/75
f 173/234/112 172/449/112 174/233/112
f 122/236/23 166/106/23 102/108/23
f 166/106/23 177/109/193 176/107/194
f 177/109/193 166/106/23 167/111/23
f 149/450/99 170/451/145 150/452/100
f 170/451/145 149/450/99 178/453/144
f 181/239/195 180/237/138 182/454/140
f 157/455/166 183/456/165 184/457/123
f 184/457/86 157/455/104 158/458/192
f 118/245/79 119/459/78 172/244/23
f 190/251/124 169/250/124 146/256/124
f 193/257/124 194/460/124 146/256/124
f 194/460/124 190/251/124 146/256/124
f 198/461/196 197/462/151 199/463/197
f 199/463/198 198/461/167 200/464/199
f 63/267/1 92/266/1 70/465/1
f 61/217/1 203/220/1 202/215/1
f 188/224/164 206/225/133 66/223/1
f 61/217/74 203/220/150 204/221/106
f 188/224/74 115/218/74 66/223/74
f 205/222/74 66/223/74 61/217/74
f 208/270/174 153/466/101 154/269/191
f 200/273/200 199/467/201 180/272/202
f 210/276/123 209/468/123 211/275/123
f 77/469/56 84/470/55 93/471/65
f 93/471/74 77/469/181 81/472/180
f 213/279/141 139/278/20 137/473/93
f 143/281/96 178/283/144 145/474/97
f 143/281/96 168/475/113 171/282/143
f 168/475/113 143/281/96 169/476/114
f 92/156/20 70/157/47 58/158/44
f 58/158/23 92/156/23 87/429/23
f 215/286/59 133/285/89 159/477/59
f 163/98/105 152/97/31 151/100/31
f 204/294/106 193/293/149 194/478/86
f 112/479/59 110/480/41 123/481/81
f 123/481/117 112/479/75 167/482/118
f 180/300/202 199/483/201 120/299/124
f 118/296/124 173/484/124 197/297/151
f 173/484/124 175/485/124 197/297/151
f 199/483/126 120/299/126 175/485/126
f 175/485/126 197/297/126 199/483/126
f 114/202/77 62/205/45 139/203/74
f 114/202/1 138/204/1 139/203/1
f 62/205/1 214/206/142 216/208/159
f 117/210/1 124/211/188 126/212/83
f 217/486/173 165/487/109 162/488/108
f 165/487/109 217/486/173 196/489/137
f 158/303/102 184/490/59 207/301/59
f 119/296/78 121/299/116 174/485/124
f 174/485/126 119/296/126 172/484/126
f 111/305/31 113/491/31 166/304/31
f 216/308/84 218/492/84 213/307/84
f 102/493/31 176/494/194 100/495/203
f 100/495/59 102/493/68 101/496/6
f 117/315/155 57/497/154 61/314/20
f 98/319/67 99/498/66 177/317/59
f 151/329/20 60/499/20 59/328/20
f 179/340/152 197/500/151 198/339/196
f 100/501/203 176/502/194 177/503/193
f 177/503/74 100/501/74 99/504/74
f 148/344/126 219/346/160 220/342/162
f 148/344/126 129/343/126 131/349/126
f 131/349/175 208/505/174 168/351/126
f 208/505/174 207/350/126 168/351/126
f 147/345/124 183/347/124 184/506/124
f 147/345/124 184/506/124 207/350/124
f 221/221/1 217/222/1 196/225/1
f 141/220/74 195/224/74 196/225/74
f 141/220/74 196/225/74 221/221/74
f 212/507/59 211/508/59 218/509/59
f 218/509/31 212/507/157 216/510/158
f 137/203/90 209/213/74 125/211/74
f 137/203/93 209/213/1 213/206/141
f 163/361/20 65/360/20 64/511/20
f 178/374/126 145/512/126 200/375/126
f 181/373/169 149/371/124 198/513/167
f 198/513/167 149/371/124 144/514/95
f 198/513/167 144/514/95 200/375/199
f 182/372/140 178/374/144 149/371/99
f 145/512/97 200/375/199 144/514/95
f 131/378/190 153/376/20 130/515/189
f 159/516/86 215/517/171 195/518/172
f 195/518/123 159/516/123 164/519/123
f 205/381/148 194/379/31 190/520/146
f 161/383/123 221/521/123 141/382/123
f 186/386/131 201/522/130 191/385/31
f 220/389/59 128/388/59 156/523/59
usemtl metalDark.007
f 43/391/1 40/392/1 38/48/1
f 38/48/1 41/49/1 43/391/1
f 41/49/1 44/52/1 43/391/1
f 41/49/1 45/53/1 44/52/1
f 41/49/1 42/50/1 45/53/1
usemtl glass.005
f 6/28/23 24/25/23 8/24/23
f 14/28/20 13/24/20 31/25/20
f 24/25/20 25/26/20 6/28/20
f 31/25/20 30/26/20 14/28/20
f 2/410/23 222/524/23 223/525/23
f 223/525/23 5/526/23 2/410/23
f 1/410/23 224/524/23 222/525/23
f 222/525/23 225/527/23 1/410/23
f 222/525/23 226/528/23 225/527/23
f 222/525/23 227/529/23 226/528/23
f 1/410/23 225/527/23 228/530/23
f 228/530/23 2/526/23 1/410/23
f 228/530/23 227/529/23 2/526/23
f 227/529/23 222/525/23 2/526/23
usemtl metal.018
f 226/531/204 227/532/205 229/533/204
f 229/533/204 230/534/206 226/531/204
f 231/535/207 228/536/207 225/537/207
f 225/537/207 232/538/207 231/535/207
f 231/539/23 232/540/23 230/541/23
f 230/541/23 229/542/23 231/539/23
f 228/543/208 231/544/208 229/545/209
f 229/545/209 227/546/208 228/543/208
f 230/547/210 232/548/211 225/549/211
f 225/549/211 226/550/210 230/547/210
