# Blender 4.3.2
# www.blender.org
mtllib floor.016.mtl
o floor.016
v -0.000000 0.000000 0.000000
v 0.500000 0.000000 0.000000
v -0.000000 0.000000 -0.025000
v 0.500000 0.000000 -0.025000
v -0.500000 -0.500000 0.000000
v -0.000000 -0.500000 0.000000
v -0.500000 -0.500000 -0.025000
v -0.000000 -0.500000 -0.025000
v -0.500000 0.000000 -0.025000
v 0.500000 0.500000 -0.025000
v -0.000000 0.500000 -0.025000
v -0.500000 0.000000 0.000000
v 0.500000 0.500000 0.000000
v -0.000000 0.500000 0.000000
v -0.500000 0.500000 0.000000
v 0.500000 -0.500000 0.000000
vn -0.0000 -1.0000 -0.0000
vn -0.0000 -0.0000 -1.0000
vn -1.0000 -0.0000 -0.0000
vn 1.0000 -0.0000 -0.0000
vn -0.0000 1.0000 -0.0000
vt 0.593750 0.225000
vt 0.593750 0.025000
s 1
usemtl colormap.016
f 3/1/1 2/2/1 1/2/1
f 2/2/1 3/1/1 4/1/1
f 7/1/1 6/2/1 5/2/1
f 6/2/1 7/1/1 8/1/1
f 7/1/2 3/1/2 8/1/2
f 3/1/2 7/1/2 9/1/2
f 3/1/2 10/1/2 4/1/2
f 10/1/2 3/1/2 11/1/2
f 12/2/3 7/1/3 5/2/3
f 7/1/3 12/2/3 9/1/3
f 3/1/4 6/2/4 8/1/4
f 10/1/4 2/2/4 4/1/4
f 2/2/4 10/1/4 13/2/4
f 3/1/5 12/2/5 1/2/5
f 14/2/5 10/1/5 11/1/5
f 3/1/3 14/2/3 11/1/3
f 14/2/2 12/2/2 15/2/2
f 6/2/2 2/2/2 16/2/2
f 6/2/4 3/1/4 1/2/4
f 12/2/5 3/1/5 9/1/5
f 10/1/5 14/2/5 13/2/5
f 14/2/3 3/1/3 1/2/3
f 12/2/2 14/2/2 1/2/2
f 2/2/2 6/2/2 1/2/2
