# Blender 4.3.2
# www.blender.org
mtllib wall.072.mtl
o wall.142
v 29.500000 -0.000000 0.300000
v 29.500000 0.000000 -0.300000
v 29.500000 0.150000 0.300000
v 28.500000 0.000000 -0.300000
v 28.500000 -0.000000 0.300000
v 28.500000 0.150000 0.300000
v 28.500000 0.200000 0.250000
v 28.500000 0.600000 0.250000
v 29.500000 0.200000 0.250000
v 29.500000 0.600000 0.250000
v 29.500000 1.000000 0.250000
v 29.500000 0.200000 -0.250000
v 29.500000 1.000000 -0.250000
v 28.500000 1.000000 0.250000
v 28.500000 1.000000 -0.250000
v 28.500000 0.200000 -0.250000
v 28.500000 0.150000 -0.300000
v 29.500000 0.150000 -0.300000
v 30.500000 -0.000000 0.300000
v 30.500000 0.000000 -0.300000
v 30.500000 0.150000 0.300000
v 29.500000 0.000000 -0.300000
v 29.500000 -0.000000 0.300000
v 29.500000 0.150000 0.300000
v 29.500000 0.200000 0.250000
v 29.500000 0.600000 0.250000
v 30.500000 0.200000 0.250000
v 30.500000 0.600000 0.250000
v 30.500000 1.000000 0.250000
v 30.500000 0.200000 -0.250000
v 30.500000 1.000000 -0.250000
v 29.500000 1.000000 0.250000
v 29.500000 1.000000 -0.250000
v 29.500000 0.200000 -0.250000
v 29.500000 0.150000 -0.300000
v 30.500000 0.150000 -0.300000
v 31.500000 -0.000000 0.300000
v 31.500000 0.000000 -0.300000
v 31.500000 0.150000 0.300000
v 30.500000 0.000000 -0.300000
v 30.500000 -0.000000 0.300000
v 30.500000 0.150000 0.300000
v 30.500000 0.200000 0.250000
v 30.500000 0.600000 0.250000
v 31.500000 0.200000 0.250000
v 31.500000 0.600000 0.250000
v 31.500000 1.000000 0.250000
v 31.500000 0.200000 -0.250000
v 31.500000 1.000000 -0.250000
v 30.500000 1.000000 0.250000
v 30.500000 1.000000 -0.250000
v 30.500000 0.200000 -0.250000
v 30.500000 0.150000 -0.300000
v 31.500000 0.150000 -0.300000
v 32.500000 -0.000000 0.300000
v 32.500000 0.000000 -0.300000
v 32.500000 0.150000 0.300000
v 31.500000 0.000000 -0.300000
v 31.500000 -0.000000 0.300000
v 31.500000 0.150000 0.300000
v 31.500000 0.200000 0.250000
v 31.500000 0.600000 0.250000
v 32.500000 0.200000 0.250000
v 32.500000 0.600000 0.250000
v 32.500000 1.000000 0.250000
v 32.500000 0.200000 -0.250000
v 32.500000 1.000000 -0.250000
v 31.500000 1.000000 0.250000
v 31.500000 1.000000 -0.250000
v 31.500000 0.200000 -0.250000
v 31.500000 0.150000 -0.300000
v 32.500000 0.150000 -0.300000
v 33.500000 -0.000000 0.300000
v 33.500000 0.000000 -0.300000
v 33.500000 0.150000 0.300000
v 32.500000 0.000000 -0.300000
v 32.500000 -0.000000 0.300000
v 32.500000 0.150000 0.300000
v 32.500000 0.200000 0.250000
v 32.500000 0.600000 0.250000
v 33.500000 0.200000 0.250000
v 33.500000 0.600000 0.250000
v 33.500000 1.000000 0.250000
v 33.500000 0.200000 -0.250000
v 33.500000 1.000000 -0.250000
v 32.500000 1.000000 0.250000
v 32.500000 1.000000 -0.250000
v 32.500000 0.200000 -0.250000
v 32.500000 0.150000 -0.300000
v 33.500000 0.150000 -0.300000
v 34.500000 -0.000000 0.300000
v 34.500000 0.000000 -0.300000
v 34.500000 0.150000 0.300000
v 33.500000 0.000000 -0.300000
v 33.500000 -0.000000 0.300000
v 33.500000 0.150000 0.300000
v 33.500000 0.200000 0.250000
v 33.500000 0.600000 0.250000
v 34.500000 0.200000 0.250000
v 34.500000 0.600000 0.250000
v 34.500000 1.000000 0.250000
v 34.500000 0.200000 -0.250000
v 34.500000 1.000000 -0.250000
v 33.500000 1.000000 0.250000
v 33.500000 1.000000 -0.250000
v 33.500000 0.200000 -0.250000
v 33.500000 0.150000 -0.300000
v 34.500000 0.150000 -0.300000
v 35.500000 -0.000000 0.300000
v 35.500000 0.000000 -0.300000
v 35.500000 0.150000 0.300000
v 34.500000 0.000000 -0.300000
v 34.500000 -0.000000 0.300000
v 34.500000 0.150000 0.300000
v 34.500000 0.200000 0.250000
v 34.500000 0.600000 0.250000
v 35.500000 0.200000 0.250000
v 35.500000 0.600000 0.250000
v 35.500000 1.000000 0.250000
v 35.500000 0.200000 -0.250000
v 35.500000 1.000000 -0.250000
v 34.500000 1.000000 0.250000
v 34.500000 1.000000 -0.250000
v 34.500000 0.200000 -0.250000
v 34.500000 0.150000 -0.300000
v 35.500000 0.150000 -0.300000
v 36.500000 -0.000000 0.300000
v 36.500000 0.000000 -0.300000
v 36.500000 0.150000 0.300000
v 35.500000 0.000000 -0.300000
v 35.500000 -0.000000 0.300000
v 35.500000 0.150000 0.300000
v 35.500000 0.200000 0.250000
v 35.500000 0.600000 0.250000
v 36.500000 0.200000 0.250000
v 36.500000 0.600000 0.250000
v 36.500000 1.000000 0.250000
v 36.500000 0.200000 -0.250000
v 36.500000 1.000000 -0.250000
v 35.500000 1.000000 0.250000
v 35.500000 1.000000 -0.250000
v 35.500000 0.200000 -0.250000
v 35.500000 0.150000 -0.300000
v 36.500000 0.150000 -0.300000
v 37.500000 -0.000000 0.300000
v 37.500000 0.000000 -0.300000
v 37.500000 0.150000 0.300000
v 36.500000 0.000000 -0.300000
v 36.500000 -0.000000 0.300000
v 36.500000 0.150000 0.300000
v 36.500000 0.200000 0.250000
v 36.500000 0.600000 0.250000
v 37.500000 0.200000 0.250000
v 37.500000 0.600000 0.250000
v 37.500000 1.000000 0.250000
v 37.500000 0.200000 -0.250000
v 37.500000 1.000000 -0.250000
v 36.500000 1.000000 0.250000
v 36.500000 1.000000 -0.250000
v 36.500000 0.200000 -0.250000
v 36.500000 0.150000 -0.300000
v 37.500000 0.150000 -0.300000
v 38.500000 -0.000000 0.300000
v 38.500000 0.000000 -0.300000
v 38.500000 0.150000 0.300000
v 37.500000 0.000000 -0.300000
v 37.500000 -0.000000 0.300000
v 37.500000 0.150000 0.300000
v 37.500000 0.200000 0.250000
v 37.500000 0.600000 0.250000
v 38.500000 0.200000 0.250000
v 38.500000 0.600000 0.250000
v 38.500000 1.000000 0.250000
v 38.500000 0.200000 -0.250000
v 38.500000 1.000000 -0.250000
v 37.500000 1.000000 0.250000
v 37.500000 1.000000 -0.250000
v 37.500000 0.200000 -0.250000
v 37.500000 0.150000 -0.300000
v 38.500000 0.150000 -0.300000
v 39.500000 -0.000000 0.300000
v 39.500000 0.000000 -0.300000
v 39.500000 0.150000 0.300000
v 38.500000 0.000000 -0.300000
v 38.500000 -0.000000 0.300000
v 38.500000 0.150000 0.300000
v 38.500000 0.200000 0.250000
v 38.500000 0.600000 0.250000
v 39.500000 0.200000 0.250000
v 39.500000 0.600000 0.250000
v 39.500000 1.000000 0.250000
v 39.500000 0.200000 -0.250000
v 39.500000 1.000000 -0.250000
v 38.500000 1.000000 0.250000
v 38.500000 1.000000 -0.250000
v 38.500000 0.200000 -0.250000
v 38.500000 0.150000 -0.300000
v 39.500000 0.150000 -0.300000
v 40.500000 -0.000000 0.300000
v 40.500000 0.000000 -0.300000
v 40.500000 0.150000 0.300000
v 39.500000 0.000000 -0.300000
v 39.500000 -0.000000 0.300000
v 39.500000 0.150000 0.300000
v 39.500000 0.200000 0.250000
v 39.500000 0.600000 0.250000
v 40.500000 0.200000 0.250000
v 40.500000 0.600000 0.250000
v 40.500000 1.000000 0.250000
v 40.500000 0.200000 -0.250000
v 40.500000 1.000000 -0.250000
v 39.500000 1.000000 0.250000
v 39.500000 1.000000 -0.250000
v 39.500000 0.200000 -0.250000
v 39.500000 0.150000 -0.300000
v 40.500000 0.150000 -0.300000
vn 0.5774 -0.5774 0.5773
vn -0.5773 -0.5774 -0.5774
vn 0.5773 -0.5774 -0.5774
vn 0.6599 -0.0199 0.7511
vn -0.6576 0.5908 0.4675
vn -0.5773 -0.5774 0.5774
vn -0.8042 0.2275 0.5491
vn -0.7071 -0.0000 0.7071
vn 0.7071 -0.0000 0.7071
vn 0.8042 0.2275 0.5491
vn 0.5774 0.5774 0.5773
vn 0.8042 0.2275 -0.5492
vn 0.5774 0.5773 -0.5774
vn -0.5773 0.5773 0.5774
vn -0.5773 0.5773 -0.5774
vn -0.8042 0.2275 -0.5491
vn -0.6552 0.6129 -0.4417
vn 0.6597 0.5531 -0.5087
vn 0.6599 -0.0198 0.7511
vn 0.6598 0.5531 -0.5087
vn -0.6575 0.5908 0.4676
vn 0.5774 -0.5773 0.5773
vn 0.6597 0.5531 -0.5088
vt 0.218750 0.025000
vt 0.093750 0.025000
vt 0.093750 0.055000
vt 0.218750 0.175000
vt 0.218750 0.225000
vt 0.093750 0.065000
vt 0.093750 0.145000
vt 0.218750 0.275000
vt 0.218750 0.475000
vt 0.093750 0.225000
vt 0.218750 0.145000
vt 0.218750 0.065000
vt 0.468750 0.225000
vt 0.468750 0.175000
vt 0.468750 0.025000
s 1
usemtl colormap.005
f 1/1/1 4/1/2 2/1/3
f 2/2/3 3/3/4 1/2/1
f 6/4/5 1/1/1 3/4/4
f 4/1/2 1/1/1 5/1/6
f 1/1/1 6/4/5 5/1/6
f 3/4/4 7/5/7 6/4/5
f 7/6/7 5/2/6 6/3/5
f 5/2/6 7/6/7 4/2/2
f 4/2/2 7/6/7 8/7/8
f 7/8/7 10/9/9 8/9/8
f 7/5/7 3/4/4 9/5/10
f 10/9/9 7/8/7 9/8/10
f 9/6/10 2/2/3 10/7/9
f 10/7/9 2/2/3 11/10/11
f 11/5/11 8/11/8 10/11/9
f 11/10/11 2/2/3 12/6/12
f 13/10/13 11/10/11 12/6/12
f 13/10/13 14/10/14 11/10/11
f 8/11/8 11/5/11 14/5/14
f 15/10/15 16/6/16 14/10/14
f 14/10/14 13/10/13 15/10/15
f 4/2/2 14/10/14 16/6/16
f 4/2/2 8/7/8 14/10/14
f 15/5/15 12/12/12 16/12/16
f 4/2/2 16/6/16 17/3/17
f 12/13/12 17/14/17 16/13/16
f 17/14/17 2/15/3 4/15/2
f 2/15/3 17/14/17 18/14/18
f 17/14/17 12/13/12 18/14/18
f 12/6/12 2/2/3 18/3/18
f 12/12/12 15/5/15 13/5/13
f 3/3/4 2/2/3 9/6/10
f 19/1/1 22/1/2 20/1/3
f 20/2/3 21/3/19 19/2/1
f 24/4/5 19/1/1 21/4/19
f 22/1/2 19/1/1 23/1/6
f 19/1/1 24/4/5 23/1/6
f 21/4/19 25/5/7 24/4/5
f 25/6/7 23/2/6 24/3/5
f 23/2/6 25/6/7 22/2/2
f 22/2/2 25/6/7 26/7/8
f 25/8/7 28/9/9 26/9/8
f 25/5/7 21/4/19 27/5/10
f 28/9/9 25/8/7 27/8/10
f 27/6/10 20/2/3 28/7/9
f 28/7/9 20/2/3 29/10/11
f 29/5/11 26/11/8 28/11/9
f 29/10/11 20/2/3 30/6/12
f 31/10/13 29/10/11 30/6/12
f 31/10/13 32/10/14 29/10/11
f 26/11/8 29/5/11 32/5/14
f 33/10/15 34/6/16 32/10/14
f 32/10/14 31/10/13 33/10/15
f 22/2/2 32/10/14 34/6/16
f 22/2/2 26/7/8 32/10/14
f 33/5/15 30/12/12 34/12/16
f 22/2/2 34/6/16 35/3/17
f 30/13/12 35/14/17 34/13/16
f 35/14/17 20/15/3 22/15/2
f 20/15/3 35/14/17 36/14/20
f 35/14/17 30/13/12 36/14/20
f 30/6/12 20/2/3 36/3/20
f 30/12/12 33/5/15 31/5/13
f 21/3/19 20/2/3 27/6/10
f 37/1/1 40/1/2 38/1/3
f 38/2/3 39/3/4 37/2/1
f 42/4/21 37/1/1 39/4/4
f 40/1/2 37/1/1 41/1/6
f 37/1/1 42/4/21 41/1/6
f 39/4/4 43/5/7 42/4/21
f 43/6/7 41/2/6 42/3/21
f 41/2/6 43/6/7 40/2/2
f 40/2/2 43/6/7 44/7/8
f 43/8/7 46/9/9 44/9/8
f 43/5/7 39/4/4 45/5/10
f 46/9/9 43/8/7 45/8/10
f 45/6/10 38/2/3 46/7/9
f 46/7/9 38/2/3 47/10/11
f 47/5/11 44/11/8 46/11/9
f 47/10/11 38/2/3 48/6/12
f 49/10/13 47/10/11 48/6/12
f 49/10/13 50/10/14 47/10/11
f 44/11/8 47/5/11 50/5/14
f 51/10/15 52/6/16 50/10/14
f 50/10/14 49/10/13 51/10/15
f 40/2/2 50/10/14 52/6/16
f 40/2/2 44/7/8 50/10/14
f 51/5/15 48/12/12 52/12/16
f 40/2/2 52/6/16 53/3/17
f 48/13/12 53/14/17 52/13/16
f 53/14/17 38/15/3 40/15/2
f 38/15/3 53/14/17 54/14/18
f 53/14/17 48/13/12 54/14/18
f 48/6/12 38/2/3 54/3/18
f 48/12/12 51/5/15 49/5/13
f 39/3/4 38/2/3 45/6/10
f 55/1/22 58/1/2 56/1/3
f 56/2/3 57/3/4 55/2/22
f 60/4/5 55/1/22 57/4/4
f 58/1/2 55/1/22 59/1/6
f 55/1/22 60/4/5 59/1/6
f 57/4/4 61/5/7 60/4/5
f 61/6/7 59/2/6 60/3/5
f 59/2/6 61/6/7 58/2/2
f 58/2/2 61/6/7 62/7/8
f 61/8/7 64/9/9 62/9/8
f 61/5/7 57/4/4 63/5/10
f 64/9/9 61/8/7 63/8/10
f 63/6/10 56/2/3 64/7/9
f 64/7/9 56/2/3 65/10/11
f 65/5/11 62/11/8 64/11/9
f 65/10/11 56/2/3 66/6/12
f 67/10/13 65/10/11 66/6/12
f 67/10/13 68/10/14 65/10/11
f 62/11/8 65/5/11 68/5/14
f 69/10/15 70/6/16 68/10/14
f 68/10/14 67/10/13 69/10/15
f 58/2/2 68/10/14 70/6/16
f 58/2/2 62/7/8 68/10/14
f 69/5/15 66/12/12 70/12/16
f 58/2/2 70/6/16 71/3/17
f 66/13/12 71/14/17 70/13/16
f 71/14/17 56/15/3 58/15/2
f 56/15/3 71/14/17 72/14/18
f 71/14/17 66/13/12 72/14/18
f 66/6/12 56/2/3 72/3/18
f 66/12/12 69/5/15 67/5/13
f 57/3/4 56/2/3 63/6/10
f 73/1/22 76/1/2 74/1/3
f 74/2/3 75/3/4 73/2/22
f 78/4/5 73/1/22 75/4/4
f 76/1/2 73/1/22 77/1/6
f 73/1/22 78/4/5 77/1/6
f 75/4/4 79/5/7 78/4/5
f 79/6/7 77/2/6 78/3/5
f 77/2/6 79/6/7 76/2/2
f 76/2/2 79/6/7 80/7/8
f 79/8/7 82/9/9 80/9/8
f 79/5/7 75/4/4 81/5/10
f 82/9/9 79/8/7 81/8/10
f 81/6/10 74/2/3 82/7/9
f 82/7/9 74/2/3 83/10/11
f 83/5/11 80/11/8 82/11/9
f 83/10/11 74/2/3 84/6/12
f 85/10/13 83/10/11 84/6/12
f 85/10/13 86/10/14 83/10/11
f 80/11/8 83/5/11 86/5/14
f 87/10/15 88/6/16 86/10/14
f 86/10/14 85/10/13 87/10/15
f 76/2/2 86/10/14 88/6/16
f 76/2/2 80/7/8 86/10/14
f 87/5/15 84/12/12 88/12/16
f 76/2/2 88/6/16 89/3/17
f 84/13/12 89/14/17 88/13/16
f 89/14/17 74/15/3 76/15/2
f 74/15/3 89/14/17 90/14/23
f 89/14/17 84/13/12 90/14/23
f 84/6/12 74/2/3 90/3/23
f 84/12/12 87/5/15 85/5/13
f 75/3/4 74/2/3 81/6/10
f 91/1/22 94/1/2 92/1/3
f 92/2/3 93/3/4 91/2/22
f 96/4/5 91/1/22 93/4/4
f 94/1/2 91/1/22 95/1/6
f 91/1/22 96/4/5 95/1/6
f 93/4/4 97/5/7 96/4/5
f 97/6/7 95/2/6 96/3/5
f 95/2/6 97/6/7 94/2/2
f 94/2/2 97/6/7 98/7/8
f 97/8/7 100/9/9 98/9/8
f 97/5/7 93/4/4 99/5/10
f 100/9/9 97/8/7 99/8/10
f 99/6/10 92/2/3 100/7/9
f 100/7/9 92/2/3 101/10/11
f 101/5/11 98/11/8 100/11/9
f 101/10/11 92/2/3 102/6/12
f 103/10/13 101/10/11 102/6/12
f 103/10/13 104/10/14 101/10/11
f 98/11/8 101/5/11 104/5/14
f 105/10/15 106/6/16 104/10/14
f 104/10/14 103/10/13 105/10/15
f 94/2/2 104/10/14 106/6/16
f 94/2/2 98/7/8 104/10/14
f 105/5/15 102/12/12 106/12/16
f 94/2/2 106/6/16 107/3/17
f 102/13/12 107/14/17 106/13/16
f 107/14/17 92/15/3 94/15/2
f 92/15/3 107/14/17 108/14/18
f 107/14/17 102/13/12 108/14/18
f 102/6/12 92/2/3 108/3/18
f 102/12/12 105/5/15 103/5/13
f 93/3/4 92/2/3 99/6/10
f 109/1/22 112/1/2 110/1/3
f 110/2/3 111/3/4 109/2/22
f 114/4/5 109/1/22 111/4/4
f 112/1/2 109/1/22 113/1/6
f 109/1/22 114/4/5 113/1/6
f 111/4/4 115/5/7 114/4/5
f 115/6/7 113/2/6 114/3/5
f 113/2/6 115/6/7 112/2/2
f 112/2/2 115/6/7 116/7/8
f 115/8/7 118/9/9 116/9/8
f 115/5/7 111/4/4 117/5/10
f 118/9/9 115/8/7 117/8/10
f 117/6/10 110/2/3 118/7/9
f 118/7/9 110/2/3 119/10/11
f 119/5/11 116/11/8 118/11/9
f 119/10/11 110/2/3 120/6/12
f 121/10/13 119/10/11 120/6/12
f 121/10/13 122/10/14 119/10/11
f 116/11/8 119/5/11 122/5/14
f 123/10/15 124/6/16 122/10/14
f 122/10/14 121/10/13 123/10/15
f 112/2/2 122/10/14 124/6/16
f 112/2/2 116/7/8 122/10/14
f 123/5/15 120/12/12 124/12/16
f 112/2/2 124/6/16 125/3/17
f 120/13/12 125/14/17 124/13/16
f 125/14/17 110/15/3 112/15/2
f 110/15/3 125/14/17 126/14/20
f 125/14/17 120/13/12 126/14/20
f 120/6/12 110/2/3 126/3/20
f 120/12/12 123/5/15 121/5/13
f 111/3/4 110/2/3 117/6/10
f 127/1/1 130/1/2 128/1/3
f 128/2/3 129/3/4 127/2/1
f 132/4/21 127/1/1 129/4/4
f 130/1/2 127/1/1 131/1/6
f 127/1/1 132/4/21 131/1/6
f 129/4/4 133/5/7 132/4/21
f 133/6/7 131/2/6 132/3/21
f 131/2/6 133/6/7 130/2/2
f 130/2/2 133/6/7 134/7/8
f 133/8/7 136/9/9 134/9/8
f 133/5/7 129/4/4 135/5/10
f 136/9/9 133/8/7 135/8/10
f 135/6/10 128/2/3 136/7/9
f 136/7/9 128/2/3 137/10/11
f 137/5/11 134/11/8 136/11/9
f 137/10/11 128/2/3 138/6/12
f 139/10/13 137/10/11 138/6/12
f 139/10/13 140/10/14 137/10/11
f 134/11/8 137/5/11 140/5/14
f 141/10/15 142/6/16 140/10/14
f 140/10/14 139/10/13 141/10/15
f 130/2/2 140/10/14 142/6/16
f 130/2/2 134/7/8 140/10/14
f 141/5/15 138/12/12 142/12/16
f 130/2/2 142/6/16 143/3/17
f 138/13/12 143/14/17 142/13/16
f 143/14/17 128/15/3 130/15/2
f 128/15/3 143/14/17 144/14/18
f 143/14/17 138/13/12 144/14/18
f 138/6/12 128/2/3 144/3/18
f 138/12/12 141/5/15 139/5/13
f 129/3/4 128/2/3 135/6/10
f 145/1/22 148/1/2 146/1/3
f 146/2/3 147/3/4 145/2/22
f 150/4/5 145/1/22 147/4/4
f 148/1/2 145/1/22 149/1/6
f 145/1/22 150/4/5 149/1/6
f 147/4/4 151/5/7 150/4/5
f 151/6/7 149/2/6 150/3/5
f 149/2/6 151/6/7 148/2/2
f 148/2/2 151/6/7 152/7/8
f 151/8/7 154/9/9 152/9/8
f 151/5/7 147/4/4 153/5/10
f 154/9/9 151/8/7 153/8/10
f 153/6/10 146/2/3 154/7/9
f 154/7/9 146/2/3 155/10/11
f 155/5/11 152/11/8 154/11/9
f 155/10/11 146/2/3 156/6/12
f 157/10/13 155/10/11 156/6/12
f 157/10/13 158/10/14 155/10/11
f 152/11/8 155/5/11 158/5/14
f 159/10/15 160/6/16 158/10/14
f 158/10/14 157/10/13 159/10/15
f 148/2/2 158/10/14 160/6/16
f 148/2/2 152/7/8 158/10/14
f 159/5/15 156/12/12 160/12/16
f 148/2/2 160/6/16 161/3/17
f 156/13/12 161/14/17 160/13/16
f 161/14/17 146/15/3 148/15/2
f 146/15/3 161/14/17 162/14/18
f 161/14/17 156/13/12 162/14/18
f 156/6/12 146/2/3 162/3/18
f 156/12/12 159/5/15 157/5/13
f 147/3/4 146/2/3 153/6/10
f 163/1/22 166/1/2 164/1/3
f 164/2/3 165/3/4 163/2/22
f 168/4/5 163/1/22 165/4/4
f 166/1/2 163/1/22 167/1/6
f 163/1/22 168/4/5 167/1/6
f 165/4/4 169/5/7 168/4/5
f 169/6/7 167/2/6 168/3/5
f 167/2/6 169/6/7 166/2/2
f 166/2/2 169/6/7 170/7/8
f 169/8/7 172/9/9 170/9/8
f 169/5/7 165/4/4 171/5/10
f 172/9/9 169/8/7 171/8/10
f 171/6/10 164/2/3 172/7/9
f 172/7/9 164/2/3 173/10/11
f 173/5/11 170/11/8 172/11/9
f 173/10/11 164/2/3 174/6/12
f 175/10/13 173/10/11 174/6/12
f 175/10/13 176/10/14 173/10/11
f 170/11/8 173/5/11 176/5/14
f 177/10/15 178/6/16 176/10/14
f 176/10/14 175/10/13 177/10/15
f 166/2/2 176/10/14 178/6/16
f 166/2/2 170/7/8 176/10/14
f 177/5/15 174/12/12 178/12/16
f 166/2/2 178/6/16 179/3/17
f 174/13/12 179/14/17 178/13/16
f 179/14/17 164/15/3 166/15/2
f 164/15/3 179/14/17 180/14/23
f 179/14/17 174/13/12 180/14/23
f 174/6/12 164/2/3 180/3/23
f 174/12/12 177/5/15 175/5/13
f 165/3/4 164/2/3 171/6/10
f 181/1/22 184/1/2 182/1/3
f 182/2/3 183/3/4 181/2/22
f 186/4/5 181/1/22 183/4/4
f 184/1/2 181/1/22 185/1/6
f 181/1/22 186/4/5 185/1/6
f 183/4/4 187/5/7 186/4/5
f 187/6/7 185/2/6 186/3/5
f 185/2/6 187/6/7 184/2/2
f 184/2/2 187/6/7 188/7/8
f 187/8/7 190/9/9 188/9/8
f 187/5/7 183/4/4 189/5/10
f 190/9/9 187/8/7 189/8/10
f 189/6/10 182/2/3 190/7/9
f 190/7/9 182/2/3 191/10/11
f 191/5/11 188/11/8 190/11/9
f 191/10/11 182/2/3 192/6/12
f 193/10/13 191/10/11 192/6/12
f 193/10/13 194/10/14 191/10/11
f 188/11/8 191/5/11 194/5/14
f 195/10/15 196/6/16 194/10/14
f 194/10/14 193/10/13 195/10/15
f 184/2/2 194/10/14 196/6/16
f 184/2/2 188/7/8 194/10/14
f 195/5/15 192/12/12 196/12/16
f 184/2/2 196/6/16 197/3/17
f 192/13/12 197/14/17 196/13/16
f 197/14/17 182/15/3 184/15/2
f 182/15/3 197/14/17 198/14/18
f 197/14/17 192/13/12 198/14/18
f 192/6/12 182/2/3 198/3/18
f 192/12/12 195/5/15 193/5/13
f 183/3/4 182/2/3 189/6/10
f 199/1/1 202/1/2 200/1/3
f 200/2/3 201/3/4 199/2/1
f 204/4/5 199/1/1 201/4/4
f 202/1/2 199/1/1 203/1/6
f 199/1/1 204/4/5 203/1/6
f 201/4/4 205/5/7 204/4/5
f 205/6/7 203/2/6 204/3/5
f 203/2/6 205/6/7 202/2/2
f 202/2/2 205/6/7 206/7/8
f 205/8/7 208/9/9 206/9/8
f 205/5/7 201/4/4 207/5/10
f 208/9/9 205/8/7 207/8/10
f 207/6/10 200/2/3 208/7/9
f 208/7/9 200/2/3 209/10/11
f 209/5/11 206/11/8 208/11/9
f 209/10/11 200/2/3 210/6/12
f 211/10/13 209/10/11 210/6/12
f 211/10/13 212/10/14 209/10/11
f 206/11/8 209/5/11 212/5/14
f 213/10/15 214/6/16 212/10/14
f 212/10/14 211/10/13 213/10/15
f 202/2/2 212/10/14 214/6/16
f 202/2/2 206/7/8 212/10/14
f 213/5/15 210/12/12 214/12/16
f 202/2/2 214/6/16 215/3/17
f 210/13/12 215/14/17 214/13/16
f 215/14/17 200/15/3 202/15/2
f 200/15/3 215/14/17 216/14/23
f 215/14/17 210/13/12 216/14/23
f 210/6/12 200/2/3 216/3/23
f 210/12/12 213/5/15 211/5/13
f 201/3/4 200/2/3 207/6/10
