# Blender 4.3.2
# www.blender.org
mtllib wall-corner.mtl
o wall-corner.001
v 0.300000 0.500000 -0.000000
v -0.300000 0.500000 -0.000000
v 0.300000 0.500000 -0.150000
v -0.300000 0.500000 -0.150000
v 0.250000 0.500000 -0.200000
v -0.250000 0.500000 -0.200000
v 0.250000 0.500000 -1.000000
v -0.250000 0.500000 -0.600000
v -0.250000 0.500000 -1.000000
v -0.500000 -0.300000 -0.000000
v -0.500000 -0.300000 -0.150000
v -0.500000 0.300000 -0.000000
v -0.500000 -0.250000 -0.200000
v -0.500000 0.250000 -0.200000
v -0.500000 0.300000 -0.150000
v -0.500000 0.250000 -0.600000
v -0.500000 0.250000 -1.000000
v -0.500000 -0.250000 -1.000000
v 0.250000 -0.050000 -1.000000
v 0.191421 -0.191421 -1.000000
v 0.050000 -0.250000 -1.000000
v -0.250000 0.250000 -1.000000
v 0.191421 -0.191421 -0.200000
v 0.250000 -0.050000 -0.200000
v 0.300000 -0.059946 -0.000000
v 0.229690 -0.229690 -0.000000
v 0.059946 -0.300000 -0.000000
v -0.300000 0.300000 -0.000000
v 0.050000 -0.250000 -0.200000
v -0.250000 0.250000 -0.600000
v -0.300000 0.300000 -0.150000
v -0.250000 0.250000 -0.200000
v 0.300000 -0.059946 -0.150000
v 0.059946 -0.300000 -0.150000
v 0.229690 -0.229690 -0.150000
vn 0.5142 0.8107 -0.2800
vn -0.5774 0.5773 0.5773
vn 0.5773 0.5774 0.5774
vn -0.7509 0.6598 -0.0305
vn 0.5491 0.8042 -0.2275
vn -0.5491 0.8042 -0.2274
vn 0.5774 0.5773 -0.5773
vn -0.7071 0.7071 -0.0000
vn -0.5774 0.5774 -0.5773
vn -0.5773 0.5774 0.5774
vn -0.6599 -0.7510 0.0214
vn -0.5774 -0.5774 0.5773
vn -0.8042 -0.5491 -0.2275
vn -0.8042 0.5491 -0.2274
vn -0.6597 0.5087 -0.5532
vn -0.5774 -0.5774 -0.5773
vn 0.0678 -0.6617 -0.7467
vn -0.3015 0.3015 -0.9045
vn 0.8126 -0.2010 -0.5471
vn 0.5024 -0.5024 -0.7037
vn 0.7017 -0.2685 -0.6599
vn 0.6563 -0.3703 0.6573
vn 0.7392 0.0382 0.6724
vn 0.2847 -0.6828 0.6729
vn -0.3015 0.3015 0.9045
vn 0.1942 -0.8195 -0.5391
vn 0.8240 -0.1639 -0.5423
vn -0.6790 0.6790 -0.2790
vn -0.6507 0.6507 -0.3914
vn 0.1934 -0.9724 0.1308
vn 0.0473 -0.9258 -0.3751
vn 0.6880 -0.6317 -0.3573
vt 0.093750 0.055000
vt 0.093750 0.025000
vt 0.093750 0.065000
vt 0.093750 0.225000
vt 0.093750 0.145000
vt 0.218750 0.225000
vt 0.218750 0.065000
vt 0.218750 0.025000
vt 0.218750 0.145000
vt 0.218750 0.175000
vt 0.468750 0.175000
vt 0.468750 0.225000
vt 0.468750 0.025000
vt 0.218750 0.475000
vt 0.218750 0.275000
s 1
usemtl colormap.017
f 3/1/1 2/2/2 1/2/3
f 2/2/2 3/1/1 4/1/4
f 4/1/4 3/1/1 5/3/5
f 4/1/4 5/3/5 6/3/6
f 6/3/6 5/3/5 7/4/7
f 6/3/6 7/4/7 8/5/8
f 8/5/8 7/4/7 9/4/9
f 12/2/10 11/1/11 10/2/12
f 11/1/11 12/2/10 13/3/13
f 13/3/13 12/2/10 14/3/14
f 14/3/14 12/2/10 15/1/15
f 13/3/13 14/3/14 16/5/8
f 17/4/9 13/3/13 16/5/8
f 13/3/13 17/4/9 18/4/16
f 9/4/9 21/4/17 22/4/18
f 22/4/18 21/4/17 18/4/16
f 22/4/18 18/4/16 17/4/9
f 19/6/19 23/7/20 20/6/21
f 1/8/3 26/8/22 25/8/23
f 26/8/22 1/8/3 2/8/2
f 26/8/22 2/8/2 27/8/24
f 27/8/24 2/8/2 28/8/25
f 29/7/26 20/6/21 23/7/20
f 7/6/7 24/7/27 19/6/19
f 24/7/27 7/6/7 5/7/5
f 8/9/8 22/6/18 30/9/8
f 28/8/25 4/10/4 31/10/28
f 4/10/4 28/8/25 2/8/2
f 14/6/14 31/10/28 32/6/29
f 31/10/28 14/6/14 15/10/15
f 31/10/28 6/6/6 32/6/29
f 3/11/1 24/12/27 5/12/5
f 11/11/11 27/13/24 10/13/12
f 27/13/24 11/11/11 34/11/30
f 34/11/30 13/12/13 29/12/26
f 34/11/30 23/12/20 35/11/31
f 35/11/31 24/12/27 33/11/32
f 24/12/27 35/11/31 23/12/20
f 33/11/32 1/13/3 25/13/23
f 27/13/24 35/11/31 26/13/22
f 35/11/31 27/13/24 34/11/30
f 35/11/31 25/13/23 26/13/22
f 30/14/8 14/15/14 32/15/29
f 14/15/14 30/14/8 16/14/8
f 6/15/6 30/14/8 32/15/29
f 30/14/8 6/15/6 8/14/8
f 19/4/19 9/4/9 7/4/7
f 9/4/9 19/4/19 20/4/21
f 9/4/9 20/4/21 21/4/17
f 23/7/20 19/6/19 24/7/27
f 28/8/25 10/8/12 27/8/24
f 10/8/12 28/8/25 12/8/10
f 20/6/21 29/7/26 21/6/17
f 13/7/13 21/6/17 29/7/26
f 21/6/17 13/7/13 18/6/16
f 22/6/18 8/9/8 9/6/9
f 30/9/8 17/6/9 16/9/8
f 17/6/9 30/9/8 22/6/18
f 31/10/28 12/8/10 28/8/25
f 12/8/10 31/10/28 15/10/15
f 6/6/6 31/10/28 4/10/4
f 24/12/27 3/11/1 33/11/32
f 13/12/13 34/11/30 11/11/11
f 23/12/20 34/11/30 29/12/26
f 1/13/3 33/11/32 3/11/1
f 25/13/23 35/11/31 33/11/32
