# Blender 4.3.2
# www.blender.org
mtllib shovel.mtl
o shovel.001
v -0.070400 -0.160000 0.000000
v -0.070400 -0.160000 -0.032000
v -0.048000 -0.137600 0.000000
v -0.048000 -0.137600 -0.032000
v -0.033129 -0.174871 0.000000
v 0.033129 -0.174871 0.000000
v -0.033129 -0.174871 -0.032000
v 0.033129 -0.174871 -0.032000
v 0.048000 -0.137600 0.000000
v 0.025600 -0.137600 0.000000
v 0.048000 -0.137600 -0.032000
v 0.025600 -0.137600 -0.032000
v -0.070400 -0.240000 0.000000
v -0.070400 -0.240000 -0.032000
v -0.033129 -0.202729 -0.032000
v -0.033129 -0.202729 0.000000
v 0.070400 -0.240000 0.000000
v 0.070400 -0.240000 -0.032000
v 0.070400 -0.160000 -0.032000
v 0.070400 -0.160000 0.000000
v 0.033129 -0.202729 0.000000
v 0.033129 -0.202729 -0.032000
v -0.025600 -0.137600 0.000000
v -0.025600 -0.137600 -0.032000
v -0.025600 0.093501 0.000000
v -0.025600 0.093501 -0.032000
v 0.025600 0.093501 -0.032000
v 0.025600 0.093501 0.000000
v -0.096000 0.294000 0.000000
v -0.092729 0.318847 0.000000
v -0.096000 0.162800 0.000000
v -0.083138 0.342000 0.000000
v -0.067882 0.361882 0.000000
v -0.048000 0.377138 0.000000
v -0.025600 0.162800 0.000000
v -0.024847 0.386729 0.000000
v -0.025600 0.093501 0.000000
v 0.000000 0.390000 0.000000
v 0.024847 0.386729 0.000000
v 0.025600 0.093501 0.000000
v 0.025600 0.162800 0.000000
v 0.048000 0.377138 0.000000
v 0.067882 0.361882 0.000000
v 0.083138 0.342000 0.000000
v 0.092729 0.318847 0.000000
v 0.096000 0.162800 0.000000
v 0.096000 0.294000 0.000000
v -0.083138 0.342000 -0.019200
v -0.067882 0.361882 -0.019200
v 0.025600 0.162800 -0.019200
v 0.096000 0.162800 -0.019200
v 0.025600 0.162800 -0.032000
v 0.025600 0.204894 -0.019200
v 0.025600 0.093501 -0.032000
v -0.025600 0.162800 -0.019200
v -0.025600 0.204894 -0.019200
v -0.096000 0.162800 -0.019200
v -0.048000 0.377138 -0.019200
v -0.092729 0.318847 -0.019200
v -0.096000 0.294000 -0.019200
v -0.024847 0.386729 -0.019200
v 0.000000 0.390000 -0.019200
v 0.024847 0.386729 -0.019200
v 0.048000 0.377138 -0.019200
v 0.067882 0.361882 -0.019200
v 0.083138 0.342000 -0.019200
v 0.092729 0.318847 -0.019200
v 0.096000 0.294000 -0.019200
v -0.025600 0.093501 -0.032000
v -0.025600 0.162800 -0.032000
vn -0.5376 0.6803 0.4982
vn -0.8844 0.3663 -0.2894
vn -0.4744 0.5848 0.6581
vn -0.4675 0.5908 -0.6576
vn 0.3015 -0.3015 -0.9045
vn -0.3015 -0.3015 0.9045
vn 0.3015 -0.3015 0.9045
vn -0.3015 -0.3015 -0.9045
vn 0.1242 0.8926 -0.4334
vn 0.3015 0.3015 0.9045
vn 0.3360 0.8112 0.4786
vn 0.3015 0.3015 -0.9045
vn -0.5774 -0.5774 -0.5773
vn -0.5774 -0.5774 0.5773
vn 0.5773 -0.5773 0.5774
vn 0.5773 -0.5773 -0.5774
vn 0.8134 0.0043 -0.5817
vn 0.7484 -0.0865 0.6576
vn -0.3015 0.3015 -0.9045
vn -0.3015 0.3015 0.9045
vn -0.7071 -0.0000 0.7071
vn -0.7071 -0.0000 -0.7071
vn 0.7071 -0.0000 -0.7071
vn 0.7071 -0.0000 0.7071
vn -0.7249 0.0967 0.6820
vn -0.7205 -0.0097 0.6934
vn -0.2062 0.6458 0.7352
vn 0.1156 0.7223 0.6819
vn -0.0127 0.6625 0.7490
vn 0.2758 0.6773 0.6820
vn 0.7188 0.1110 0.6863
vn 0.5774 -0.5773 0.5774
vn 0.7127 0.1062 0.6934
vn -0.6085 0.4689 0.6401
vn -0.6895 0.3981 -0.6051
vn -0.5800 0.4455 0.6820
vn -0.5704 0.4579 -0.6819
vn 0.5774 -0.5774 -0.5773
vn 0.5774 -0.5774 -0.5774
vn 0.0473 0.0732 -0.9962
vn 0.7423 0.1192 -0.6594
vn 1.0000 -0.0000 -0.0000
vn -0.5774 -0.5773 -0.5774
vn -0.0473 0.0732 -0.9962
vn -0.5774 -0.5774 -0.5774
vn -0.3796 0.5691 -0.7294
vn -0.6761 0.2788 -0.6820
vn 0.2064 0.6456 -0.7353
vn 0.5318 0.4230 -0.7337
vn 0.4371 0.5864 -0.6820
vn 0.7090 0.0039 -0.7052
vn 0.7253 0.0937 -0.6820
vn 0.7023 0.3027 -0.6443
vn 0.6767 0.2773 0.6820
vn 0.5568 0.5568 0.6164
vn -0.0000 0.7991 -0.6012
vn -0.7595 0.0498 -0.6486
vn -0.2845 0.7106 -0.6435
vn -0.2904 0.6713 0.6820
vn -0.7560 0.1214 -0.6433
vn -1.0000 -0.0000 -0.0000
vt 0.093750 0.275000
vt 0.093750 0.475000
vt 0.843750 0.025000
vt 0.843750 0.145000
vt 0.843750 0.225000
s 1
usemtl colormap.028
f 3/1/1 2/2/2 1/1/3
f 2/2/2 3/1/1 4/2/4
f 7/2/5 6/1/6 5/1/7
f 6/1/6 7/2/5 8/2/8
f 11/2/9 10/1/10 9/1/11
f 10/1/10 11/2/9 12/2/12
f 1/1/3 14/2/13 13/1/14
f 14/2/13 1/1/3 2/2/2
f 16/1/10 7/2/5 5/1/7
f 14/2/13 17/1/15 13/1/14
f 17/1/15 14/2/13 18/2/16
f 19/2/17 17/1/15 18/2/16
f 17/1/15 19/2/17 20/1/18
f 22/2/19 16/1/10 21/1/20
f 16/1/10 22/2/19 15/2/12
f 25/1/21 24/2/19 23/1/20
f 24/2/19 25/1/21 26/2/22
f 22/2/19 14/2/13 15/2/12
f 22/2/19 18/2/16 14/2/13
f 18/2/16 22/2/19 19/2/17
f 19/2/17 22/2/19 11/2/9
f 8/2/8 11/2/9 22/2/19
f 11/2/9 8/2/8 12/2/12
f 12/2/12 7/2/5 27/2/23
f 27/2/23 7/2/5 24/2/19
f 23/1/20 10/1/10 25/1/21
f 5/1/7 10/1/10 23/1/20
f 6/1/6 10/1/10 5/1/7
f 13/1/14 21/1/20 16/1/10
f 13/1/14 3/1/1 1/1/3
f 17/1/15 21/1/20 13/1/14
f 9/1/11 17/1/15 20/1/18
f 6/1/6 22/2/19 21/1/20
f 22/2/19 6/1/6 8/2/8
f 20/1/18 11/2/9 9/1/11
f 24/2/19 3/1/1 23/1/20
f 3/1/1 24/2/19 4/2/4
f 27/2/23 10/1/10 12/2/12
f 10/1/10 27/2/23 28/1/24
f 31/3/14 30/3/25 29/3/26
f 37/3/21 36/3/27 35/3/6
f 37/3/21 39/3/28 38/3/29
f 40/3/24 39/3/28 37/3/21
f 41/3/7 39/3/28 40/3/24
f 41/3/7 42/3/30 39/3/28
f 45/3/31 46/3/32 47/3/33
f 33/3/34 48/4/35 32/3/36
f 48/4/35 33/3/34 49/4/37
f 46/3/32 50/4/38 51/4/39
f 53/4/40 50/4/38 52/5/41
s 0
f 41/3/42 52/5/42 50/4/42
s 1
f 52/5/41 40/3/24 54/5/23
f 57/4/43 56/4/44 55/4/45
f 56/4/44 57/4/43 58/4/46
f 58/4/46 57/4/43 49/4/37
f 49/4/37 57/4/43 48/4/35
f 48/4/35 57/4/43 59/4/47
f 63/4/48 53/4/40 56/4/44
f 65/4/49 50/4/38 64/4/50
f 68/4/51 50/4/38 67/4/52
f 50/4/38 68/4/51 51/4/39
f 32/3/36 59/4/47 30/3/25
f 59/4/47 32/3/36 48/4/35
f 66/4/53 45/3/31 67/4/52
f 45/3/31 66/4/53 44/3/54
f 67/4/52 47/3/33 68/4/51
f 65/4/49 42/3/30 43/3/55
f 38/3/29 63/4/48 62/4/56
f 30/3/25 60/4/57 29/3/26
f 60/4/57 30/3/25 59/4/47
f 61/4/58 34/3/59 36/3/27
f 34/3/59 61/4/58 58/4/46
f 62/4/56 36/3/27 38/3/29
f 36/3/27 62/4/56 61/4/58
f 52/5/41 69/5/22 70/5/60
f 69/5/22 35/3/6 70/5/60
f 70/5/60 55/4/45 56/4/44
f 58/4/46 33/3/34 34/3/59
f 33/3/34 58/4/46 49/4/37
f 65/4/49 44/3/54 66/4/53
f 57/4/43 35/3/6 31/3/14
f 70/5/60 53/4/40 52/5/41
f 53/4/40 70/5/60 56/4/44
f 29/3/26 57/4/43 31/3/14
f 57/4/43 29/3/26 60/4/57
f 64/4/50 39/3/28 42/3/30
f 39/3/28 64/4/50 63/4/48
f 7/2/5 16/1/10 15/2/12
f 4/2/4 14/2/13 2/2/2
f 7/2/5 14/2/13 4/2/4
f 24/2/19 7/2/5 4/2/4
f 15/2/12 14/2/13 7/2/5
f 12/2/12 8/2/8 7/2/5
f 26/2/22 27/2/23 24/2/19
f 25/1/21 10/1/10 28/1/24
f 5/1/7 23/1/20 3/1/1
f 10/1/10 6/1/6 9/1/11
f 5/1/7 3/1/1 16/1/10
f 21/1/20 9/1/11 6/1/6
f 13/1/14 16/1/10 3/1/1
f 17/1/15 9/1/11 21/1/20
f 11/2/9 20/1/18 19/2/17
f 31/3/14 32/3/36 30/3/25
f 31/3/14 33/3/34 32/3/36
f 31/3/14 34/3/59 33/3/34
f 35/3/6 34/3/59 31/3/14
f 34/3/59 35/3/6 36/3/27
f 37/3/21 38/3/29 36/3/27
f 41/3/7 43/3/55 42/3/30
f 41/3/7 44/3/54 43/3/55
f 41/3/7 45/3/31 44/3/54
f 46/3/32 45/3/31 41/3/7
f 50/4/38 46/3/32 41/3/7
f 40/3/24 52/5/41 41/3/7
f 59/4/47 57/4/43 60/4/57
f 61/4/58 56/4/44 58/4/46
f 62/4/56 56/4/44 61/4/58
f 63/4/48 56/4/44 62/4/56
f 64/4/50 53/4/40 63/4/48
f 64/4/50 50/4/38 53/4/40
f 66/4/53 50/4/38 65/4/49
f 67/4/52 50/4/38 66/4/53
f 47/3/33 67/4/52 45/3/31
f 42/3/30 65/4/49 64/4/50
f 63/4/48 38/3/29 39/3/28
f 68/4/51 46/3/32 51/4/39
f 46/3/32 68/4/51 47/3/33
f 69/5/22 52/5/41 54/5/23
f 35/3/6 69/5/22 37/3/21
s 0
f 70/5/61 35/3/61 55/4/61
s 1
f 44/3/54 65/4/49 43/3/55
f 35/3/6 57/4/43 55/4/45
