# Blender 4.3.2
# www.blender.org
mtllib wall-window.mtl
o wall-window.001
v -0.500000 -0.300000 0.000000
v -0.500000 -0.300000 -0.150000
v -0.500000 0.300000 -0.000000
v -0.500000 -0.250000 -0.200000
v -0.500000 0.250000 -0.200000
v -0.500000 0.300000 -0.150000
v -0.500000 0.250000 -1.000000
v -0.500000 0.250000 -0.600000
v -0.500000 -0.250000 -1.000000
v 0.500000 -0.250000 -1.000000
v 0.500000 -0.250000 -0.200000
v 0.500000 0.250000 -1.000000
v 0.500000 0.250000 -0.200000
v 0.500000 0.250000 -0.600000
v 0.500000 0.300000 -0.000000
v 0.500000 0.300000 -0.150000
v 0.500000 -0.300000 0.000000
v 0.500000 -0.300000 -0.150000
v 0.400000 -0.250000 -0.900000
v 0.400000 0.250000 -0.900000
v 0.400000 -0.250000 -0.200000
v 0.400000 0.250000 -0.200000
v 0.400000 0.250000 -0.600000
v -0.400000 -0.250000 -0.900000
v -0.400000 -0.250000 -0.200000
v -0.400000 0.250000 -0.900000
v -0.400000 0.250000 -0.200000
v -0.400000 0.250000 -0.600000
v 0.400000 -0.300000 -0.000000
v 0.400000 0.300000 -0.000000
v -0.400000 -0.300000 -0.000000
v -0.400000 0.300000 -0.000000
v 0.400000 -0.300000 -0.150000
v 0.400000 0.300000 -0.150000
v -0.400000 0.300000 -0.150000
v -0.400000 -0.300000 -0.150000
v 0.400000 0.150000 -0.000000
v 0.400000 -0.150000 0.000000
v -0.400000 0.150000 -0.000000
v -0.400000 -0.150000 -0.000000
v -0.300000 -0.150000 -0.800000
v -0.300000 -0.150000 -0.100000
v -0.300000 0.150000 -0.800000
v -0.300000 0.150000 -0.100000
v 0.300000 -0.150000 -0.800000
v 0.300000 0.150000 -0.800000
v 0.300000 -0.150000 -0.100000
v 0.300000 0.150000 -0.100000
v 0.400000 -0.150000 -0.900000
v -0.400000 -0.150000 -0.900000
v 0.400000 0.150000 -0.900000
v -0.400000 0.150000 -0.900000
v 0.437500 -0.175000 -0.100000
v 0.362500 -0.175000 -0.100000
v 0.437500 -0.175000 -0.200000
v 0.362500 -0.175000 -0.200000
v 0.362500 0.175000 -0.100000
v 0.437500 0.175000 -0.100000
v 0.362500 0.175000 -0.200000
v 0.437500 0.175000 -0.200000
v -0.437500 -0.175000 -0.700000
v -0.362500 -0.175000 -0.700000
v -0.437500 -0.175000 -0.800000
v -0.362500 -0.175000 -0.800000
v -0.362500 0.175000 -0.700000
v -0.437500 0.175000 -0.700000
v -0.362500 0.175000 -0.800000
v -0.437500 0.175000 -0.800000
v -0.437500 -0.175000 -0.100000
v -0.362500 -0.175000 -0.100000
v -0.437500 -0.175000 -0.200000
v -0.362500 -0.175000 -0.200000
v -0.362500 0.175000 -0.100000
v -0.437500 0.175000 -0.100000
v -0.362500 0.175000 -0.200000
v -0.437500 0.175000 -0.200000
v 0.437500 -0.175000 -0.700000
v 0.362500 -0.175000 -0.700000
v 0.437500 -0.175000 -0.800000
v 0.362500 -0.175000 -0.800000
v 0.362500 0.175000 -0.700000
v 0.437500 0.175000 -0.700000
v 0.362500 0.175000 -0.800000
v 0.437500 0.175000 -0.800000
v 0.300000 0.000000 -0.100000
v -0.300000 0.000000 -0.100000
v 0.300000 -0.000000 -0.800000
v -0.300000 0.000000 -0.800000
vn -0.5773 0.5774 0.5774
vn -0.6589 -0.7499 0.0588
vn -0.5774 -0.5774 0.5773
vn -0.8042 -0.5491 -0.2275
vn -0.8042 0.5491 -0.2275
vn -0.6597 0.5087 -0.5532
vn -0.5773 0.5774 -0.5773
vn -1.0000 -0.0000 -0.0000
vn -0.5773 -0.5774 -0.5773
vn 1.0000 -0.0000 -0.0000
vn 0.5773 0.5774 0.5774
vn 0.8042 -0.5491 -0.2275
vn 0.8042 0.5491 -0.2275
vn 0.6575 0.7483 0.0884
vn 0.5773 -0.5774 -0.5773
vn 0.5774 0.5773 -0.5774
vn -0.3015 0.9045 0.3015
vn 0.3015 0.9045 0.3015
vn 0.3015 -0.9045 0.3015
vn -0.3015 -0.9045 0.3015
vn -0.5773 -0.5774 0.5773
vn 0.5773 -0.5774 0.5773
vn -0.0000 1.0000 -0.0000
vn -0.6596 -0.7507 -0.0378
vn -0.6578 0.4707 -0.5880
vn 0.4841 0.8728 0.0626
vn 0.6596 -0.5576 -0.5041
vn -0.0000 0.7071 0.7071
vn -0.0000 -0.7071 0.7071
vn 0.2820 0.6475 0.7080
vn 0.2263 -0.6649 -0.7118
vn 0.1248 -0.8079 0.5760
vn 0.1249 0.8080 -0.5758
vn -0.2679 -0.7445 -0.6115
vn -0.5476 0.5631 0.6189
vn -0.2651 -0.6138 0.7436
vn -0.2763 0.7408 -0.6123
vn -0.0000 -1.0000 -0.0000
vn 0.2576 -0.8927 -0.3698
vn 0.5773 -0.5774 0.5774
vn 0.5774 -0.5774 0.5774
vn 0.5773 0.5774 0.5773
vn 0.1486 -0.6993 0.6992
vn -0.7026 -0.1130 0.7026
vn -0.8239 -0.1263 -0.5524
vn -0.7026 -0.7026 0.1130
vn 0.5774 0.5774 -0.5774
vn -0.5773 0.5774 0.5773
vn -0.1486 0.6993 -0.6992
vn -0.5774 0.5774 -0.5774
vn 0.6993 0.1485 0.6993
vn -0.1130 0.7026 0.7026
vn -0.5774 -0.5774 0.5774
vn -0.1486 -0.6993 0.6992
vn 0.7026 -0.7026 0.1130
vn 0.2599 0.9653 -0.0248
vn 0.7026 0.7026 -0.1130
vn -0.7026 0.1130 -0.7026
vt 0.093750 0.025000
vt 0.093750 0.055000
vt 0.093750 0.065000
vt 0.093750 0.225000
vt 0.093750 0.145000
vt 0.093750 0.205000
vt 0.218750 0.025000
vt 0.218750 0.065000
vt 0.218750 0.225000
vt 0.218750 0.205000
vt 0.218750 0.145000
vt 0.218750 0.175000
vt 0.218750 0.047222
vt 0.218750 0.202778
vt 0.468750 0.225000
vt 0.468750 0.175000
vt 0.468750 0.025000
vt 0.218750 0.475000
vt 0.218750 0.275000
vt 11.811020 27.559059
vt -11.811020 0.000000
vt 11.811020 -0.000000
vt -11.811020 27.559059
s 1
usemtl colormap.019
f 3/1/1 2/2/2 1/1/3
f 2/2/2 3/1/1 4/3/4
f 4/3/4 3/1/1 5/3/5
f 5/3/5 3/1/1 6/2/6
f 4/3/4 5/3/5 7/4/7
s 0
f 7/4/8 5/3/8 8/5/8
s 1
f 7/4/7 9/4/9 4/3/4
s 0
f 13/3/10 12/4/10 14/5/10
s 1
f 15/1/11 11/3/12 13/3/13
f 15/1/11 13/3/13 16/2/14
f 10/4/15 7/4/7 12/4/16
f 20/6/17 21/3/4 22/3/5
s 0
f 20/6/8 22/3/8 23/5/8
s 1
f 26/6/18 25/3/12 24/6/19
f 25/3/12 26/6/18 27/3/13
s 0
f 27/3/10 26/6/10 28/5/10
s 1
f 20/6/17 24/6/19 19/6/20
f 24/6/19 20/6/17 26/6/18
f 29/7/21 15/7/11 30/7/1
f 32/7/11 1/7/3 31/7/22
f 1/7/3 32/7/11 3/7/1
f 25/8/12 9/9/9 24/10/19
f 24/10/19 9/9/9 19/10/20
f 11/8/12 19/10/20 10/9/15
f 19/10/20 11/8/12 21/8/4
f 12/9/16 23/11/23 14/11/23
f 23/11/23 12/9/16 20/10/17
f 20/10/17 12/9/16 26/10/18
f 8/11/23 26/10/18 7/9/7
f 26/10/18 8/11/23 28/11/23
f 30/7/1 33/12/24 29/7/21
f 33/12/24 30/7/1 21/9/4
f 21/9/4 30/7/1 22/9/5
f 22/9/5 30/7/1 34/12/25
f 35/12/26 3/7/1 32/7/11
f 32/7/11 36/12/27 25/9/12
f 32/7/11 25/9/12 27/9/13
f 32/7/11 27/9/13 35/12/26
f 15/7/11 34/12/25 30/7/1
f 5/9/5 35/12/26 27/9/13
f 22/9/5 16/12/14 13/9/13
f 39/9/28 38/9/29 37/9/28
f 38/9/29 39/9/28 40/9/29
f 43/13/30 42/14/31 41/13/32
f 42/14/31 43/13/30 44/14/33
f 47/14/34 46/13/35 45/13/36
f 46/13/35 47/14/34 48/14/37
f 43/13/30 45/13/36 46/13/35
f 42/14/31 48/14/37 47/14/34
f 48/14/37 42/14/31 44/14/33
f 49/7/38 47/14/34 45/13/36
f 41/13/32 50/7/38 49/7/38
f 47/14/34 38/9/29 40/9/29
f 42/14/31 50/7/38 41/13/32
f 40/9/29 42/14/31 47/14/34
f 42/14/31 40/9/29 50/7/38
f 48/14/37 51/7/23 46/13/35
f 46/13/35 51/7/23 43/13/30
f 52/7/23 43/13/30 51/7/23
f 37/9/28 48/14/37 39/9/28
f 52/7/23 44/14/33 43/13/30
f 39/9/28 44/14/33 52/7/23
f 44/14/33 39/9/28 48/14/37
f 21/15/4 18/16/39 33/16/24
f 31/17/22 2/16/2 36/16/27
f 29/17/21 18/16/39 17/17/40
f 53/17/41 58/17/42 54/17/43
f 57/17/44 54/17/43 58/17/42
f 57/17/44 59/15/45 54/17/43
f 56/15/46 54/17/43 59/15/45
f 60/15/47 55/15/15 59/15/45
f 53/17/41 55/15/15 58/17/42
f 56/15/46 55/15/15 54/17/43
f 53/17/41 54/17/43 55/15/15
f 66/17/48 67/15/49 68/15/50
f 63/15/9 66/17/48 68/15/50
f 67/15/49 63/15/9 68/15/50
f 66/17/48 62/17/51 65/17/52
f 62/17/51 66/17/48 61/17/53
f 71/15/9 70/17/54 69/17/53
f 70/17/54 71/15/9 72/15/55
f 75/15/56 74/17/48 73/17/57
f 71/15/9 75/15/56 72/15/55
f 74/17/48 70/17/54 73/17/57
f 77/17/41 82/17/42 78/17/43
f 81/17/44 78/17/43 82/17/42
f 81/17/44 83/15/45 78/17/43
f 84/15/47 79/15/15 83/15/45
f 80/15/58 83/15/45 79/15/15
f 77/17/41 79/15/15 82/17/42
f 84/15/47 83/15/45 82/17/42
f 12/4/16 11/3/12 10/4/15
f 13/3/13 11/3/12 12/4/16
f 17/1/40 11/3/12 15/1/11
f 11/3/12 17/1/40 18/2/39
f 7/4/7 10/4/15 9/4/9
f 21/3/4 20/6/17 19/6/20
f 15/7/11 29/7/21 17/7/40
f 9/9/9 25/8/12 4/8/4
f 10/9/15 19/10/20 9/9/9
f 7/9/7 26/10/18 12/9/16
f 3/7/1 35/12/26 6/12/6
f 36/12/27 32/7/11 31/7/22
f 34/12/25 15/7/11 16/12/14
f 35/12/26 5/9/5 6/12/6
f 16/12/14 22/9/5 34/12/25
f 45/13/36 43/13/30 41/13/32
f 49/7/38 45/13/36 41/13/32
f 38/9/29 47/14/34 49/7/38
f 48/14/37 37/9/28 51/7/23
f 18/16/39 21/15/4 11/15/12
f 2/16/2 25/15/12 36/16/27
f 25/15/12 2/16/2 4/15/4
f 2/16/2 31/17/22 1/17/3
f 18/16/39 29/17/21 33/16/24
f 56/15/46 59/15/45 55/15/15
f 60/15/47 58/17/42 55/15/15
f 60/15/47 59/15/45 58/17/42
f 57/17/44 58/17/42 59/15/45
f 63/15/9 62/17/51 61/17/53
f 62/17/51 63/15/9 64/15/55
f 67/15/49 66/17/48 65/17/52
f 66/17/48 63/15/9 61/17/53
f 63/15/9 67/15/49 64/15/55
f 67/15/49 62/17/51 64/15/55
f 62/17/51 67/15/49 65/17/52
f 74/17/48 75/15/56 76/15/50
f 74/17/48 71/15/9 69/17/53
f 71/15/9 74/17/48 76/15/50
f 75/15/56 71/15/9 76/15/50
f 75/15/56 70/17/54 72/15/55
f 70/17/54 75/15/56 73/17/57
f 70/17/54 74/17/48 69/17/53
f 80/15/58 78/17/43 83/15/45
f 84/15/47 82/17/42 79/15/15
f 81/17/44 82/17/42 83/15/45
f 80/15/58 79/15/15 78/17/43
f 77/17/41 78/17/43 79/15/15
f 14/18/23 22/19/5 13/19/13
f 22/19/5 14/18/23 23/18/23
f 28/18/23 5/19/5 27/19/13
f 5/19/5 28/18/23 8/18/23
usemtl glass
f 87/20/23 86/21/23 85/22/23
f 86/21/23 87/20/23 88/23/23
