# Blender 4.3.2
# www.blender.org
mtllib urn.mtl
o urn.003
v -0.071400 -0.071400 -0.140000
v 0.071400 -0.071400 -0.140000
v -0.087108 -0.087108 -0.270000
v 0.087108 -0.087108 -0.270000
v -0.087108 0.087108 -0.270000
v -0.071400 0.071400 -0.140000
v 0.087108 0.087108 -0.270000
v 0.071400 0.071400 -0.140000
v 0.075000 0.075000 0.000000
v 0.075000 -0.075000 0.000000
v -0.075000 0.075000 0.000000
v -0.075000 -0.075000 0.000000
v -0.041954 -0.041954 -0.110000
v 0.041954 -0.041954 -0.110000
v 0.087108 -0.087108 -0.310000
v 0.087108 0.087108 -0.310000
v -0.041954 0.041954 -0.110000
v -0.087108 0.087108 -0.310000
v 0.075000 -0.075000 -0.040000
v 0.075000 0.075000 -0.040000
v 0.041954 0.041954 -0.110000
v -0.075000 -0.075000 -0.040000
v -0.061400 -0.061400 -0.060000
v -0.075000 0.075000 -0.040000
v -0.061400 0.061400 -0.060000
v 0.061400 -0.061400 -0.060000
v 0.061400 0.061400 -0.060000
v -0.087108 -0.087108 -0.310000
v 0.036080 0.036080 -0.060000
v -0.036080 0.036080 -0.060000
v -0.036080 -0.036080 -0.060000
v 0.036080 -0.036080 -0.060000
v -0.068247 -0.068247 -0.310000
v 0.068247 -0.068247 -0.310000
v -0.068247 0.068247 -0.310000
v 0.068247 0.068247 -0.310000
v 0.068247 -0.068247 -0.170000
v 0.068247 0.068247 -0.170000
v -0.068247 -0.068247 -0.170000
v -0.068247 0.068247 -0.170000
v 0.087108 -0.087108 -0.330000
v 0.087108 0.087108 -0.330000
v 0.071429 -0.071429 -0.340000
v 0.071429 0.071429 -0.340000
v -0.071429 -0.071429 -0.340000
v -0.071429 0.071429 -0.340000
v -0.087108 -0.087108 -0.330000
v -0.087108 0.087108 -0.330000
v -0.040170 -0.040170 -0.340000
v 0.040170 -0.040170 -0.340000
v -0.040170 0.040170 -0.340000
v 0.040170 0.040170 -0.340000
v 0.013665 -0.013665 -0.390000
v 0.013665 0.013665 -0.390000
v -0.013665 -0.013665 -0.390000
v -0.013665 0.013665 -0.390000
v 0.020395 0.020395 -0.370000
v -0.020395 0.020395 -0.370000
v 0.020395 -0.020395 -0.370000
v -0.020395 -0.020395 -0.370000
v -0.017139 -0.017139 -0.340000
v -0.017139 0.017139 -0.340000
v 0.017139 -0.017139 -0.340000
v 0.017139 0.017139 -0.340000
vn -0.6665 -0.7314 0.1445
vn 0.2588 -0.7762 0.5749
vn -0.7068 -0.7068 0.0286
vn 0.6979 -0.6979 0.1609
vn -0.7590 0.6452 0.0878
vn -0.7068 0.7068 0.0286
vn 0.7317 0.6659 0.1454
vn 0.7898 0.1843 0.5850
vn -0.5773 0.5773 0.5774
vn 0.5773 -0.5773 0.5774
vn 0.5774 0.5774 0.5774
vn -0.5774 -0.5774 0.5774
vn 0.5522 -0.5522 0.6247
vn -0.5522 -0.5522 0.6247
vn 0.7071 0.7071 -0.0000
vn 0.7071 -0.7071 -0.0000
vn -0.5522 0.5522 0.6247
vn -0.7071 0.7071 -0.0000
vn 0.8984 0.3329 -0.2864
vn 0.8579 -0.2996 -0.4175
vn 0.5522 0.5522 0.6247
vn -0.8107 0.2932 -0.5067
vn -0.3737 -0.3737 -0.8490
vn -0.8478 -0.3330 -0.4126
vn 0.3737 -0.3737 -0.8490
vn 0.3737 0.3737 -0.8490
vn -0.7071 -0.7071 -0.0000
vn 0.3401 -0.3401 -0.8767
vn -0.3401 -0.3401 -0.8767
vn 0.3401 0.3401 -0.8767
vn -0.3737 0.3737 -0.8490
vn -0.3015 0.3015 -0.9045
vn -0.0000 -0.0000 -1.0000
vn 0.3015 -0.3015 -0.9045
vn -0.3015 -0.3015 -0.9045
vn -0.5774 -0.5774 -0.5774
vn -0.5774 0.5774 -0.5774
vn 0.5774 0.5774 -0.5774
vn 0.3015 0.3015 -0.9045
vn -0.3401 0.3401 -0.8767
vn 0.5774 -0.5774 -0.5774
vn -0.0000 -0.0000 1.0000
vn 0.5377 -0.0000 -0.8431
vn 0.9409 -0.0000 -0.3386
vn 0.9409 -0.0000 -0.3387
vn -0.9409 -0.0000 -0.3386
vn -0.5377 -0.0000 -0.8431
vn -0.9409 -0.0000 -0.3387
vn -0.0000 -0.9409 -0.3386
vn -0.0000 -0.5377 -0.8431
vn -0.0000 -0.9409 -0.3387
vn -0.0000 0.5377 -0.8431
vn -0.0000 0.9409 -0.3386
vn -0.0000 -1.0000 -0.0000
vn -1.0000 -0.0000 -0.0000
vn -0.0000 1.0000 -0.0000
vn 1.0000 -0.0000 -0.0000
vn -0.0000 0.9478 -0.3189
vn -0.0000 0.9958 -0.0919
vn 0.9478 -0.0000 -0.3189
vn 0.9958 -0.0000 -0.0919
vn -0.0000 -0.9478 -0.3189
vn -0.0000 -0.9958 -0.0919
vn -0.9958 -0.0000 -0.0919
vn -0.9478 -0.0000 -0.3189
vn -0.9942 -0.0000 0.1079
vn -0.0000 -0.9942 0.1079
vn -0.0000 0.9942 0.1079
vn 0.9942 -0.0000 0.1079
vt 0.593750 0.449194
vt 0.593750 0.365323
vt 0.593750 0.275000
vt 0.593750 0.345968
vt 0.593750 0.475000
vt 0.593750 0.300806
vt 0.593750 0.313710
vt 0.843750 0.134677
vt 0.843750 0.225000
vt 0.593750 0.325000
vt 0.593750 0.425000
vt 0.593750 0.391667
vt 0.843750 0.145000
vt 0.843750 0.025000
s 1
usemtl colormap.030
f 3/1/1 2/2/2 1/2/3
f 2/2/2 3/1/1 4/1/4
f 1/2/3 5/1/5 3/1/1
f 5/1/5 1/2/3 6/2/6
f 7/1/7 2/2/2 4/1/4
f 2/2/2 7/1/7 8/2/8
f 11/3/9 10/3/10 9/3/11
f 10/3/10 11/3/9 12/3/12
f 1/2/3 14/4/13 13/4/14
f 14/4/13 1/2/3 2/2/2
f 16/5/15 4/1/4 15/5/16
f 4/1/4 16/5/15 7/1/7
f 13/4/14 6/2/6 1/2/3
f 6/2/6 13/4/14 17/4/17
f 16/5/15 5/1/5 7/1/7
f 5/1/5 16/5/15 18/5/18
f 20/6/19 10/3/10 19/6/20
f 8/2/8 14/4/13 2/2/2
f 14/4/13 8/2/8 21/4/21
f 24/6/22 23/7/23 22/6/24
f 26/7/25 20/6/19 19/6/20
f 20/6/19 26/7/25 27/7/26
f 20/6/19 11/3/9 9/3/11
f 22/6/24 11/3/9 24/6/22
f 27/7/26 24/6/22 20/6/19
f 8/2/8 17/4/17 21/4/21
f 17/4/17 8/2/8 6/2/6
f 23/7/23 19/6/20 22/6/24
f 19/6/20 23/7/23 26/7/25
f 22/6/24 10/3/10 12/3/12
f 10/3/10 22/6/24 19/6/20
f 5/1/5 28/5/27 3/1/1
f 28/5/27 5/1/5 18/5/18
f 28/5/27 4/1/4 3/1/1
f 32/7/28 13/4/14 14/4/13
f 26/7/25 32/7/28 27/7/26
f 32/7/28 26/7/25 23/7/23
f 32/7/28 23/7/23 31/7/29
f 27/7/26 29/7/30 25/7/31
f 34/5/32 15/5/33 28/5/33
f 18/5/33 35/5/34 28/5/33
f 15/5/33 34/5/32 16/5/33
f 18/5/33 36/5/35 35/5/34
f 38/8/36 34/9/32 37/8/37
f 34/9/32 38/8/36 36/9/35
f 34/9/32 39/8/38 37/8/37
f 39/8/38 34/9/32 33/9/39
f 10/3/10 20/6/19 9/3/11
f 7/1/7 6/2/6 8/2/8
f 6/2/6 7/1/7 5/1/5
f 23/7/23 24/6/22 25/7/31
f 11/3/9 20/6/19 24/6/22
f 11/3/9 22/6/24 12/3/12
f 24/6/22 27/7/26 25/7/31
f 4/1/4 28/5/27 15/5/16
f 21/4/21 30/7/40 29/7/30
f 30/7/40 21/4/21 17/4/17
f 13/4/14 32/7/28 31/7/29
f 31/7/29 17/4/17 13/4/14
f 17/4/17 31/7/29 30/7/40
f 21/4/21 32/7/28 14/4/13
f 32/7/28 21/4/21 29/7/30
f 29/7/30 27/7/26 32/7/28
f 31/7/29 23/7/23 30/7/40
f 25/7/31 29/7/30 30/7/40
f 25/7/31 30/7/40 23/7/23
f 34/5/32 28/5/33 33/5/39
f 33/5/39 28/5/33 35/5/34
f 16/5/33 36/5/35 18/5/33
f 36/5/35 16/5/33 34/5/32
f 35/9/34 39/8/38 33/9/39
f 39/8/38 35/9/34 40/8/41
f 35/9/34 38/8/36 40/8/41
f 38/8/36 35/9/34 36/9/35
f 39/8/38 38/8/36 37/8/37
f 38/8/36 39/8/38 40/8/41
f 18/10/42 15/10/42 16/10/42
f 15/10/42 18/10/42 28/10/42
f 43/11/43 42/12/44 41/12/45
f 42/12/44 43/11/43 44/11/43
f 47/12/46 46/11/47 45/11/47
f 46/11/47 47/12/46 48/12/48
f 47/12/49 43/11/50 41/12/51
f 43/11/50 47/12/49 45/11/50
f 44/11/52 48/12/53 42/12/53
f 48/12/53 44/11/52 46/11/52
f 47/12/49 15/10/54 28/10/54
f 15/10/54 47/12/49 41/12/51
f 18/10/55 47/12/46 28/10/55
f 47/12/46 18/10/55 48/12/48
f 42/12/53 18/10/56 16/10/56
f 18/10/56 42/12/53 48/12/53
f 42/12/44 15/10/57 41/12/45
f 15/10/57 42/12/44 16/10/57
f 50/11/33 45/11/33 49/11/33
f 49/11/33 45/11/33 51/11/33
f 50/11/33 43/11/33 45/11/33
f 46/11/33 51/11/33 45/11/33
f 43/11/33 50/11/33 44/11/33
f 46/11/33 52/11/33 51/11/33
f 44/11/33 52/11/33 46/11/33
f 52/11/33 44/11/33 50/11/33
f 55/9/33 54/9/33 53/9/33
f 54/9/33 55/9/33 56/9/33
f 54/9/58 58/13/59 57/13/59
f 58/13/59 54/9/58 56/9/58
f 53/9/60 57/13/61 59/13/61
f 57/13/61 53/9/60 54/9/60
f 55/9/62 59/13/63 60/13/63
f 59/13/63 55/9/62 53/9/62
f 58/13/64 55/9/65 60/13/64
f 55/9/65 58/13/64 56/9/65
f 61/14/66 58/13/64 60/13/64
f 58/13/64 61/14/66 62/14/66
f 60/13/63 63/14/67 61/14/67
f 63/14/67 60/13/63 59/13/63
f 57/13/59 62/14/68 64/14/68
f 62/14/68 57/13/59 58/13/59
f 57/13/61 63/14/69 59/13/61
f 63/14/69 57/13/61 64/14/69
f 63/14/33 49/14/33 61/14/33
f 61/14/33 49/14/33 62/14/33
f 63/14/33 50/14/33 49/14/33
f 51/14/33 62/14/33 49/14/33
f 50/14/33 63/14/33 52/14/33
f 51/14/33 64/14/33 62/14/33
f 52/14/33 64/14/33 51/14/33
f 64/14/33 52/14/33 63/14/33
