# Blender 4.3.2
# www.blender.org
mtllib crypt-large.mtl
o crypt-large
v 0.550000 1.025000 0.000000
v 0.550000 0.900000 0.000000
v 0.525000 1.050000 0.000000
v 0.475000 0.900000 0.000000
v 0.400000 1.050000 0.000000
v 0.475000 -0.900000 0.000000
v 0.400000 -1.050000 0.000000
v 0.400000 0.975000 0.000000
v 0.525000 -1.050000 0.000000
v 0.550000 -1.025000 0.000000
v 0.550000 -0.900000 0.000000
v 0.400000 -0.975000 0.000000
v 0.350000 0.850000 0.000000
v 0.300000 0.975000 0.000000
v 0.300000 0.850000 0.000000
v 0.350000 -0.850000 0.000000
v -0.400000 -0.975000 0.000000
v -0.350000 -0.850000 0.000000
v -0.400000 0.975000 0.000000
v -0.350000 0.850000 0.000000
v -0.300000 0.850000 0.000000
v -0.300000 0.975000 0.000000
v -0.475000 0.900000 0.000000
v -0.400000 -1.050000 0.000000
v -0.475000 -0.900000 0.000000
v -0.525000 -1.050000 0.000000
v -0.550000 -0.900000 0.000000
v -0.550000 -1.025000 0.000000
v -0.525000 1.050000 0.000000
v -0.400000 1.050000 0.000000
v -0.550000 0.900000 0.000000
v -0.550000 1.025000 0.000000
v 0.500000 -1.000000 -1.000000
v 0.500000 -1.000000 -0.400000
v 0.500000 -0.900000 -1.000000
v 0.500000 -0.900000 -0.400000
v 0.500000 1.000000 -0.400000
v 0.400000 1.000000 -0.400000
v 0.500000 1.000000 -1.000000
v 0.400000 1.000000 -1.000000
v -0.500000 0.900000 -0.400000
v -0.500000 0.900000 -1.000000
v -0.500000 1.000000 -0.400000
v -0.500000 1.000000 -1.000000
v -0.500000 -1.000000 -0.400000
v -0.400000 -1.000000 -0.400000
v -0.500000 -1.000000 -1.000000
v -0.400000 -1.000000 -1.000000
v -0.400000 1.000000 -0.400000
v -0.400000 1.000000 -1.000000
v 0.400000 0.975000 -0.200000
v 0.400000 1.050000 -0.400000
v 0.400000 0.950000 -1.000000
v 0.400000 0.950000 -0.200000
v -0.400000 0.950000 -1.000000
v -0.400000 0.950000 -0.200000
v -0.400000 0.975000 -0.200000
v -0.400000 1.050000 -0.400000
v 0.550000 -0.900000 -0.400000
v 0.475000 -0.900000 -0.200000
v 0.450000 -0.900000 -0.200000
v 0.450000 -0.900000 -1.000000
v 0.450000 0.900000 -0.200000
v 0.475000 0.900000 -0.200000
v 0.450000 0.900000 -1.000000
v 0.500000 0.900000 -0.400000
v 0.500000 0.900000 -1.000000
v 0.550000 0.900000 -0.400000
v 0.400000 -1.000000 -0.400000
v 0.400000 -1.000000 -1.000000
v -0.400000 -0.950000 -1.000000
v -0.400000 -0.975000 -0.200000
v -0.400000 -0.950000 -0.200000
v -0.400000 -1.050000 -0.400000
v 0.400000 -1.050000 -0.400000
v 0.400000 -0.975000 -0.200000
v 0.400000 -0.950000 -1.000000
v 0.400000 -0.950000 -0.200000
v -0.500000 -0.900000 -0.400000
v -0.500000 -0.900000 -1.000000
v -0.450000 -0.900000 -0.200000
v -0.475000 -0.900000 -0.200000
v -0.450000 -0.900000 -1.000000
v -0.550000 -0.900000 -0.400000
v -0.550000 0.900000 -0.400000
v -0.475000 0.900000 -0.200000
v -0.450000 0.900000 -0.200000
v -0.450000 0.900000 -1.000000
v 0.300000 0.975000 -0.200000
v 0.300000 0.950000 -0.200000
v 0.550000 1.025000 -0.400000
v 0.525000 1.050000 -0.400000
v -0.550000 1.025000 -0.400000
v -0.525000 1.050000 -0.400000
v -0.525000 -1.050000 -0.400000
v 0.525000 -1.050000 -0.400000
v 0.550000 -1.025000 -0.400000
v -0.550000 -1.025000 -0.400000
v 0.350000 -0.850000 -1.000000
v 0.350000 0.850000 -1.000000
v -0.350000 -0.850000 -1.000000
v -0.350000 0.850000 -1.000000
v -0.300000 0.850000 -0.200000
v -0.300000 0.850000 -0.900000
v 0.300000 0.850000 -0.900000
v 0.300000 0.850000 -0.200000
v -0.300000 0.950000 -0.200000
v -0.300000 0.975000 -0.200000
v 0.300000 0.950000 -0.900000
v -0.300000 0.950000 -0.900000
v 0.475914 0.550083 -0.412257
v 0.475914 0.691023 -0.412257
v 0.475914 0.550083 -0.482257
v 0.475914 0.691023 -0.482257
v 0.450000 0.550083 -0.412257
v 0.450000 0.691023 -0.412257
v 0.450000 0.550083 -0.482257
v 0.450000 0.691023 -0.482257
v 0.475914 0.450083 -0.512257
v 0.475914 0.591023 -0.512257
v 0.475914 0.450083 -0.582257
v 0.475914 0.591023 -0.582257
v 0.450000 0.450083 -0.512257
v 0.450000 0.591023 -0.512257
v 0.450000 0.450083 -0.582257
v 0.450000 0.591023 -0.582257
v 0.475914 -0.449917 -0.812257
v 0.475914 -0.308977 -0.812257
v 0.475914 -0.449917 -0.882257
v 0.475914 -0.308977 -0.882257
v 0.450000 -0.449917 -0.812257
v 0.450000 -0.308977 -0.812257
v 0.450000 -0.449917 -0.882257
v 0.450000 -0.308977 -0.882257
v 0.475914 -0.349917 -0.412257
v 0.475914 -0.208977 -0.412257
v 0.475914 -0.349917 -0.482257
v 0.475914 -0.208977 -0.482257
v 0.450000 -0.349917 -0.412257
v 0.450000 -0.208977 -0.412257
v 0.450000 -0.349917 -0.482257
v 0.450000 -0.208977 -0.482257
v 0.475914 -0.649917 -0.312257
v 0.475914 -0.508977 -0.312257
v 0.475914 -0.649917 -0.382257
v 0.475914 -0.508977 -0.382257
v 0.450000 -0.649917 -0.312257
v 0.450000 -0.508977 -0.312257
v 0.450000 -0.649917 -0.382257
v 0.450000 -0.508977 -0.382257
v -0.475914 0.694941 -0.611076
v -0.475914 0.554001 -0.611076
v -0.475914 0.694941 -0.681076
v -0.475914 0.554001 -0.681076
v -0.450000 0.694941 -0.611076
v -0.450000 0.554001 -0.611076
v -0.450000 0.694941 -0.681076
v -0.450000 0.554001 -0.681076
v -0.475914 -0.505059 -0.511076
v -0.475914 -0.645999 -0.511076
v -0.475914 -0.505059 -0.581076
v -0.475914 -0.645999 -0.581076
v -0.450000 -0.505059 -0.511076
v -0.450000 -0.645999 -0.511076
v -0.450000 -0.505059 -0.581076
v -0.450000 -0.645999 -0.581076
v -0.475914 0.394941 -0.711076
v -0.475914 0.254001 -0.711076
v -0.475914 0.394941 -0.781076
v -0.475914 0.254001 -0.781076
v -0.450000 0.394941 -0.711076
v -0.450000 0.254001 -0.711076
v -0.450000 0.394941 -0.781076
v -0.450000 0.254001 -0.781076
v -0.475914 -0.605059 -0.411076
v -0.475914 -0.745999 -0.411076
v -0.475914 -0.605059 -0.481076
v -0.475914 -0.745999 -0.481076
v -0.450000 -0.605059 -0.411076
v -0.450000 -0.745999 -0.411076
v -0.450000 -0.605059 -0.481076
v -0.450000 -0.745999 -0.481076
v 0.051365 -0.975914 -0.402698
v 0.192305 -0.975914 -0.402698
v 0.051365 -0.975914 -0.472698
v 0.192305 -0.975914 -0.472698
v 0.051365 -0.950000 -0.402698
v 0.192305 -0.950000 -0.402698
v 0.051365 -0.950000 -0.472698
v 0.192305 -0.950000 -0.472698
vn 0.5773 -0.5773 0.5774
vn 0.2613 0.5683 0.7802
vn 0.3015 -0.3015 0.9045
vn -0.5773 0.5774 0.5774
vn 0.3015 0.3015 0.9045
vn -0.5774 -0.5774 0.5773
vn -0.0000 -0.0000 1.0000
vn 0.6420 0.0222 0.7664
vn 0.5465 -0.5156 0.6599
vn -0.3015 -0.3015 0.9045
vn -0.5774 0.5774 0.5773
vn -0.5773 -0.5774 0.5773
vn -0.3015 0.3015 0.9045
vn 0.5773 -0.5774 0.5774
vn 0.5774 0.5773 0.5773
vn 0.5774 -0.5773 0.5773
vn -0.0867 -0.7484 0.6576
vn -0.5773 0.5773 0.5774
vn -0.4681 -0.5903 0.6576
vn -0.2574 0.5533 0.7923
vn -0.7455 -0.1225 0.6551
vn 0.5773 0.5773 -0.5774
vn 0.3015 -0.3015 -0.9045
vn 0.5774 -0.5774 -0.5774
vn 0.3015 0.9045 -0.3015
vn 0.5774 0.5774 -0.5773
vn -0.9045 0.3015 -0.3015
vn 0.3015 0.3015 -0.9045
vn -0.3015 0.3015 -0.9045
vn -0.5773 -0.5774 -0.5774
vn -0.3015 -0.9045 -0.3015
vn -0.5774 0.5774 -0.5773
vn -0.5773 -0.5773 -0.5774
vn 0.9045 -0.3015 -0.3015
vn -0.3015 -0.3015 -0.9045
vn 0.9045 0.3015 -0.3015
vn -0.9131 0.4066 -0.0318
vn 0.9481 -0.0343 -0.3160
vn 0.5774 0.5773 -0.5773
vn 0.5774 0.5773 -0.5774
vn 0.5774 0.5774 0.5774
vn 0.3161 0.9483 0.0292
vn 0.3015 -0.9045 -0.3015
vn 0.5774 -0.5773 -0.5774
vn 0.2975 -0.7902 -0.5358
vn -0.5774 -0.5773 -0.5773
vn -0.9045 -0.3015 -0.3015
vn 0.7727 -0.2474 -0.5845
vn -0.5774 -0.5773 -0.5774
vn -0.7934 -0.2732 -0.5439
vn -0.5774 -0.5774 -0.5773
vn -0.5773 -0.5774 -0.5773
vn -0.3015 0.9045 -0.3015
vn -0.2640 0.8149 -0.5160
vn -0.5774 0.5774 -0.5774
vn -0.5774 0.5773 -0.5774
vn -0.3159 -0.9476 0.0472
vn -0.7026 0.7026 0.1130
vn 0.8621 0.3571 -0.3595
vn 0.7484 -0.0864 0.6576
vn 0.5414 0.5208 -0.6600
vn -0.0303 0.7509 -0.6598
vn 0.3105 -0.5383 -0.7835
vn 0.7508 0.0315 -0.6597
vn -0.8683 0.3596 -0.3417
vn -0.8849 -0.3666 -0.2874
vn -0.0657 -0.7008 -0.7104
vn -0.0000 -0.0000 -0.0000
vn 0.7071 -0.7071 -0.0000
vn -0.3015 -0.9045 0.3015
vn -0.7071 -0.7071 -0.0000
vn 0.6769 -0.2893 -0.6769
vn -0.3015 0.9045 0.3015
vn 0.3015 0.9045 0.3015
vn 0.3015 -0.9045 0.3015
vn 0.5774 0.5773 0.5774
vn 0.5774 -0.5774 0.5774
vn 0.5774 0.5774 -0.5774
vn -0.0000 -0.7071 0.7071
vn -0.0000 0.7071 0.7071
vn -0.0000 0.7071 -0.7071
vn -0.0000 -0.7071 -0.7071
vn -0.5774 -0.5773 0.5774
vn -0.5774 0.5774 0.5774
vn -0.5774 -0.5774 -0.5774
vn -0.5774 -0.5774 0.5774
vn -0.7071 -0.0000 0.7071
vn 0.7071 -0.0000 0.7071
vn -0.7071 -0.0000 -0.7071
vn 0.7071 -0.0000 -0.7071
vn -0.0000 -0.0000 -1.0000
vt 0.968750 0.025000
vt 0.843750 0.225000
vt 0.843750 0.105000
vt 0.843750 0.065000
vt 0.843750 0.025000
vt 0.843750 0.205000
vt 0.093750 0.065000
vt 0.093750 0.225000
vt 0.093750 0.205000
vt 0.031250 0.125000
s 1
usemtl colormap.015
f 2/1/1 3/1/2 4/1/3
f 4/1/3 3/1/2 5/1/4
f 4/1/3 5/1/4 6/1/5
f 7/1/6 6/1/5 5/1/4
s 0
f 7/1/7 5/1/7 8/1/7
s 1
f 10/1/8 6/1/5 9/1/9
s 0
f 7/1/7 8/1/7 12/1/7
s 1
f 13/1/10 14/1/11 15/1/12
f 16/1/13 12/1/6 13/1/10
f 12/1/6 16/1/13 17/1/3
f 17/1/3 18/1/5 19/1/5
f 20/1/3 19/1/5 18/1/5
f 21/1/14 19/1/5 20/1/3
f 19/1/5 21/1/14 22/1/15
f 24/1/16 25/1/13 26/1/17
f 26/1/17 25/1/13 27/1/18
f 26/1/17 27/1/18 28/1/19
f 19/1/5 29/1/20 23/1/10
f 31/1/6 29/1/20 32/1/21
f 35/2/22 34/3/23 33/2/24
f 34/3/23 35/2/22 36/3/25
f 39/2/26 38/3/27 37/3/28
f 43/3/29 42/2/30 41/3/31
f 42/2/30 43/3/29 44/2/32
f 47/2/33 46/3/34 45/3/35
f 50/2/26 43/3/29 49/3/36
f 51/4/37 5/5/4 38/3/27
f 38/3/27 5/5/4 52/3/32
f 40/2/32 51/4/37 38/3/27
f 53/2/32 51/4/37 40/2/32
f 56/4/26 50/2/26 57/4/38
f 57/4/38 50/2/26 19/5/5
f 19/5/5 50/2/26 49/3/36
f 30/5/15 49/3/36 58/3/39
f 59/3/40 6/5/5 11/5/41
f 6/5/5 59/3/40 60/4/42
f 61/4/22 59/3/40 36/3/25
f 61/4/22 36/3/25 62/2/28
f 66/3/43 65/2/23 67/2/24
f 68/3/44 64/4/45 66/3/43
f 2/5/1 64/4/45 68/3/44
f 64/4/45 2/5/1 4/5/3
f 70/2/46 34/3/23 69/3/47
f 34/3/23 70/2/46 33/2/24
f 72/4/48 71/2/23 73/4/24
f 17/5/3 46/3/34 72/4/48
f 12/5/6 75/3/49 7/5/6
f 75/3/49 12/5/6 69/3/47
f 69/3/47 12/5/6 70/2/46
f 70/2/46 12/5/6 76/4/50
f 70/2/46 76/4/50 77/2/51
f 77/2/51 76/4/50 78/4/52
f 79/3/53 47/2/33 45/3/35
f 82/4/54 83/2/29 79/3/53
f 79/3/53 83/2/29 80/2/55
f 84/3/56 82/4/54 79/3/53
f 82/4/54 27/5/18 25/5/13
f 85/3/46 23/5/10 31/5/6
f 23/5/10 85/3/46 86/4/57
f 64/4/45 6/5/5 60/4/42
f 6/5/5 64/4/45 4/5/3
f 72/4/48 12/5/6 17/5/3
f 12/5/6 72/4/48 76/4/50
f 72/4/48 78/4/52 76/4/50
f 86/4/57 25/5/13 23/5/10
f 14/5/11 51/4/37 89/4/58
f 66/3/43 39/2/26 37/3/28
f 2/5/1 91/3/59 1/5/60
f 91/3/59 66/3/43 92/3/61
f 92/3/61 37/3/28 52/3/32
f 52/3/32 37/3/28 38/3/27
f 92/3/61 5/5/4 3/5/2
f 58/3/39 43/3/29 94/3/62
f 43/3/29 58/3/39 49/3/36
f 59/3/40 96/3/63 36/3/25
f 59/3/40 10/5/8 97/3/64
f 10/5/8 59/3/40 11/5/41
f 10/5/8 96/3/63 97/3/64
f 92/3/61 1/5/60 91/3/59
f 94/3/62 32/5/21 29/5/20
f 32/5/21 94/3/62 93/3/65
f 27/5/18 98/3/66 28/5/19
f 95/3/67 46/3/34 74/3/24
f 46/3/34 95/3/67 45/3/35
f 45/3/35 95/3/67 79/3/53
f 79/3/53 95/3/67 84/3/56
f 95/3/67 28/5/19 98/3/66
f 35/2/22 70/2/46 62/2/28
f 40/2/32 65/2/23 70/2/46
s 0
f 40/2/68 77/2/68 53/2/68
s 1
f 99/2/29 77/2/51 71/2/23
f 99/2/29 71/2/23 101/2/28
f 55/2/28 100/2/35 102/2/23
f 55/2/28 102/2/23 71/2/23
f 55/2/28 83/2/29 50/2/26
f 71/2/23 47/2/33 83/2/29
f 83/2/29 47/2/33 80/2/55
f 50/2/26 88/2/35 44/2/32
f 102/2/23 18/5/5 101/2/28
f 18/5/5 102/2/23 20/5/3
f 21/5/14 102/2/23 103/4/69
f 100/2/35 105/6/70 102/2/23
f 100/2/35 106/4/71 105/6/70
f 15/5/12 100/2/35 13/5/10
f 99/2/29 18/5/5 16/5/13
f 56/4/26 108/4/72 107/4/36
f 108/4/72 56/4/26 57/4/38
f 108/4/72 19/5/5 22/5/15
f 19/5/5 108/4/72 57/4/38
f 14/5/11 106/7/71 15/5/12
f 106/7/71 14/5/11 90/7/27
f 90/7/27 14/5/11 89/4/58
f 71/8/23 78/7/52 73/7/24
f 83/8/29 87/7/33 88/8/35
f 53/8/32 90/7/27 54/7/55
f 109/9/73 53/8/32 110/9/74
f 55/8/28 110/9/74 53/8/32
f 65/8/23 61/7/22 62/8/28
f 110/9/74 103/7/69 104/9/75
f 103/7/69 110/9/74 107/7/36
f 110/9/74 105/9/70 109/9/73
f 105/9/70 110/9/74 104/9/75
f 90/7/27 105/9/70 106/7/71
f 113/10/44 112/10/76 111/10/77
f 112/10/76 113/10/44 114/10/78
f 112/10/76 115/10/79 111/10/77
f 115/10/79 112/10/76 116/10/80
f 115/10/79 113/10/44 111/10/77
f 112/10/76 118/10/81 116/10/80
f 118/10/81 112/10/76 114/10/78
f 120/10/76 123/10/79 119/10/77
f 123/10/79 120/10/76 124/10/80
f 121/10/44 123/10/79 125/10/82
f 123/10/79 121/10/44 119/10/77
f 126/10/81 121/10/44 125/10/82
f 121/10/44 126/10/81 122/10/78
f 120/10/76 126/10/81 124/10/80
f 126/10/81 120/10/76 122/10/78
f 129/10/44 128/10/76 127/10/77
f 128/10/76 129/10/44 130/10/78
f 128/10/76 131/10/79 127/10/77
f 131/10/79 128/10/76 132/10/80
f 129/10/44 131/10/79 133/10/82
f 131/10/79 129/10/44 127/10/77
f 134/10/81 129/10/44 133/10/82
f 129/10/44 134/10/81 130/10/78
f 128/10/76 134/10/81 132/10/80
f 134/10/81 128/10/76 130/10/78
f 137/10/44 136/10/76 135/10/77
f 136/10/76 137/10/44 138/10/78
f 136/10/76 139/10/79 135/10/77
f 139/10/79 136/10/76 140/10/80
f 137/10/44 139/10/79 141/10/82
f 139/10/79 137/10/44 135/10/77
f 142/10/81 137/10/44 141/10/82
f 137/10/44 142/10/81 138/10/78
f 136/10/76 142/10/81 140/10/80
f 142/10/81 136/10/76 138/10/78
f 145/10/44 144/10/76 143/10/77
f 144/10/76 145/10/44 146/10/78
f 144/10/76 147/10/79 143/10/77
f 147/10/79 144/10/76 148/10/80
f 147/10/79 145/10/44 143/10/77
f 145/10/44 150/10/81 146/10/78
f 144/10/76 150/10/81 148/10/80
f 150/10/81 144/10/76 146/10/78
f 153/10/56 152/10/83 151/10/84
f 152/10/83 153/10/56 154/10/85
f 152/10/83 155/10/80 151/10/84
f 155/10/80 152/10/83 156/10/79
f 153/10/56 155/10/80 157/10/81
f 158/10/82 153/10/56 157/10/81
f 153/10/56 158/10/82 154/10/85
f 152/10/83 158/10/82 156/10/79
f 161/10/56 160/10/83 159/10/84
f 160/10/83 161/10/56 162/10/85
f 160/10/83 163/10/80 159/10/84
f 163/10/80 160/10/83 164/10/79
f 161/10/56 163/10/80 165/10/81
f 163/10/80 161/10/56 159/10/84
f 166/10/82 161/10/56 165/10/81
f 161/10/56 166/10/82 162/10/85
f 160/10/83 166/10/82 164/10/79
f 166/10/82 160/10/83 162/10/85
f 168/10/83 169/10/56 170/10/85
f 169/10/56 171/10/80 173/10/81
f 171/10/80 169/10/56 167/10/84
f 174/10/82 169/10/56 173/10/81
f 169/10/56 174/10/82 170/10/85
f 168/10/83 174/10/82 172/10/79
f 174/10/82 168/10/83 170/10/85
f 177/10/56 176/10/83 175/10/84
f 176/10/83 179/10/80 175/10/84
f 179/10/80 176/10/83 180/10/79
f 177/10/56 179/10/80 181/10/81
f 179/10/80 177/10/56 175/10/84
f 182/10/82 177/10/56 181/10/81
f 177/10/56 182/10/82 178/10/85
f 176/10/83 182/10/82 180/10/79
f 182/10/82 176/10/83 178/10/85
f 185/10/30 184/10/14 183/10/86
f 184/10/14 185/10/30 186/10/24
f 184/10/14 187/10/87 183/10/86
f 187/10/87 184/10/14 188/10/88
f 185/10/30 187/10/87 189/10/89
f 187/10/87 185/10/30 183/10/86
f 190/10/90 185/10/30 189/10/89
f 185/10/30 190/10/90 186/10/24
f 184/10/14 190/10/90 188/10/88
f 190/10/90 184/10/14 186/10/24
f 3/1/2 2/1/1 1/1/60
f 9/1/9 6/1/5 7/1/6
f 6/1/5 10/1/8 11/1/41
f 8/1/11 13/1/10 12/1/6
f 13/1/10 8/1/11 14/1/11
f 17/1/3 16/1/13 18/1/5
f 19/1/5 23/1/10 17/1/3
f 17/1/3 23/1/10 24/1/16
f 25/1/13 24/1/16 23/1/10
f 29/1/20 19/1/5 30/1/15
f 23/1/10 29/1/20 31/1/6
f 38/3/27 39/2/26 40/2/32
f 46/3/34 47/2/33 48/2/24
f 43/3/29 50/2/26 44/2/32
f 5/5/4 51/4/37 8/5/11
f 51/4/37 53/2/32 54/4/55
f 50/2/26 56/4/26 55/2/28
f 19/5/5 49/3/36 30/5/15
f 60/4/42 59/3/40 61/4/22
f 62/2/28 36/3/25 35/2/22
f 65/2/23 64/4/45 63/4/24
f 64/4/45 65/2/23 66/3/43
f 71/2/23 46/3/34 48/2/24
f 46/3/34 71/2/23 72/4/48
f 24/5/16 46/3/34 17/5/3
f 46/3/34 24/5/16 74/3/24
f 47/2/33 79/3/53 80/2/55
f 83/2/29 82/4/54 81/4/55
f 27/5/18 82/4/54 84/3/56
f 86/4/57 85/3/46 87/4/33
f 87/4/33 85/3/46 41/3/31
f 87/4/33 41/3/31 88/2/35
f 88/2/35 41/3/31 42/2/30
f 61/4/22 64/4/45 60/4/42
f 64/4/45 61/4/22 63/4/24
f 78/4/52 72/4/48 73/4/24
f 25/5/13 86/4/57 82/4/54
f 82/4/54 87/4/33 81/4/55
f 87/4/33 82/4/54 86/4/57
f 51/4/37 14/5/11 8/5/11
f 90/4/27 51/4/37 54/4/55
f 51/4/37 90/4/27 89/4/58
f 39/2/26 66/3/43 67/2/24
f 91/3/59 2/5/1 68/3/44
f 66/3/43 91/3/59 68/3/44
f 92/3/61 66/3/43 37/3/28
f 5/5/4 92/3/61 52/3/32
f 32/5/21 85/3/46 31/5/6
f 85/3/46 32/5/21 93/3/65
f 58/3/39 29/5/20 30/5/15
f 29/5/20 58/3/39 94/3/62
f 85/3/46 43/3/29 41/3/31
f 43/3/29 85/3/46 94/3/62
f 94/3/62 85/3/46 93/3/65
f 95/3/67 24/5/16 26/5/17
f 24/5/16 95/3/67 74/3/24
f 75/3/49 9/5/9 7/5/6
f 9/5/9 75/3/49 96/3/63
f 34/3/23 75/3/49 69/3/47
f 75/3/49 34/3/23 96/3/63
f 36/3/25 96/3/63 34/3/23
f 96/3/63 59/3/40 97/3/64
f 96/3/63 10/5/8 9/5/9
f 1/5/60 92/3/61 3/5/2
f 98/3/66 27/5/18 84/3/56
f 84/3/56 95/3/67 98/3/66
f 28/5/19 95/3/67 26/5/17
f 70/2/46 35/2/22 33/2/24
f 62/2/28 70/2/46 65/2/23
s 0
f 40/2/91 70/2/91 77/2/91
s 1
f 39/2/26 65/2/23 40/2/32
f 65/2/23 39/2/26 67/2/24
f 77/2/51 99/2/29 53/2/32
f 100/2/35 53/2/32 99/2/29
f 53/2/32 100/2/35 55/2/28
f 101/2/28 71/2/23 102/2/23
f 71/2/23 83/2/29 55/2/28
f 47/2/33 71/2/23 48/2/24
f 88/2/35 50/2/26 83/2/29
f 44/2/32 88/2/35 42/2/30
f 102/2/23 21/5/14 20/5/3
f 103/4/69 102/2/23 104/6/75
f 104/6/75 102/2/23 105/6/70
f 100/2/35 15/5/12 106/4/71
f 13/5/10 99/2/29 16/5/13
f 99/2/29 13/5/10 100/2/35
f 18/5/5 99/2/29 101/2/28
f 107/7/36 21/5/14 103/7/69
f 21/5/14 107/7/36 22/5/15
f 22/5/15 107/7/36 108/4/72
f 78/7/52 71/8/23 77/8/51
f 87/7/33 83/8/29 81/7/55
f 90/7/27 53/8/32 109/9/73
f 56/7/26 110/9/74 55/8/28
f 110/9/74 56/7/26 107/7/36
f 61/7/22 65/8/23 63/7/24
f 105/9/70 90/7/27 109/9/73
f 113/10/44 115/10/79 117/10/82
f 118/10/81 113/10/44 117/10/82
f 113/10/44 118/10/81 114/10/78
f 121/10/44 120/10/76 119/10/77
f 120/10/76 121/10/44 122/10/78
f 145/10/44 147/10/79 149/10/82
f 150/10/81 145/10/44 149/10/82
f 155/10/80 153/10/56 151/10/84
f 158/10/82 152/10/83 154/10/85
f 169/10/56 168/10/83 167/10/84
f 168/10/83 171/10/80 167/10/84
f 171/10/80 168/10/83 172/10/79
f 176/10/83 177/10/56 178/10/85
