# Blender 4.3.2
# www.blender.org
mtllib bench.mtl
o bench.001
v 0.327750 -0.131169 -0.390761
v -0.327750 -0.131169 -0.390761
v 0.327750 -0.140239 -0.446428
v -0.327750 -0.140239 -0.446428
v 0.327750 -0.144773 -0.474261
v -0.327750 -0.144773 -0.474261
v 0.327750 -0.153843 -0.529928
v -0.327750 -0.153843 -0.529928
v 0.327750 -0.145388 -0.359872
v 0.327750 -0.126635 -0.362927
v -0.327750 -0.145388 -0.359872
v -0.327750 -0.126635 -0.362927
v -0.327750 -0.136318 -0.304205
v 0.327750 -0.136318 -0.304205
v -0.327750 -0.149922 -0.387705
v 0.327750 -0.149922 -0.387705
v -0.327750 -0.158992 -0.443373
v 0.327750 -0.158992 -0.443373
v 0.327750 -0.163526 -0.471206
v -0.327750 -0.163526 -0.471206
v 0.327750 -0.117565 -0.307260
v -0.327750 -0.117565 -0.307260
v 0.327750 -0.172596 -0.526873
v -0.327750 -0.172596 -0.526873
v -0.327750 -0.087583 -0.189669
v 0.327750 -0.087583 -0.189669
v -0.327750 -0.087583 -0.208669
v 0.327750 -0.087583 -0.208669
v 0.327750 -0.031488 -0.189669
v -0.327750 -0.031488 -0.189669
v 0.327750 -0.031488 -0.208669
v -0.327750 -0.031488 -0.208669
v 0.327750 0.136799 -0.189669
v -0.327750 0.136799 -0.189669
v 0.327750 0.136799 -0.208669
v -0.327750 0.136799 -0.208669
v 0.327750 0.052656 -0.189669
v 0.327750 -0.003440 -0.189669
v -0.327750 0.052656 -0.189669
v -0.327750 -0.003440 -0.189669
v 0.327750 0.052656 -0.208669
v -0.327750 0.052656 -0.208669
v 0.327750 0.080703 -0.208669
v -0.327750 0.080703 -0.208669
v 0.327750 -0.003440 -0.208669
v -0.327750 -0.003440 -0.208669
v -0.327750 0.080703 -0.189669
v 0.327750 0.080703 -0.189669
v 0.327750 0.136799 -0.208669
v 0.384750 0.136799 -0.208669
v 0.327750 0.136799 -0.275169
v 0.384750 0.136799 -0.275169
v 0.384750 -0.087583 -0.208669
v 0.327750 -0.087583 -0.208669
v 0.384750 -0.098418 -0.275169
v 0.327750 -0.098418 -0.275169
v 0.384750 -0.106746 -0.326288
v 0.327750 -0.106746 -0.326288
v 0.384750 -0.143023 -0.548955
v 0.327750 -0.143023 -0.548955
v 0.384750 -0.155428 -0.548955
v 0.327750 -0.155428 -0.548955
v 0.384750 0.136799 -0.326288
v 0.327750 0.136799 -0.326288
v 0.327750 0.136799 0.000000
v 0.327750 0.136799 -0.157552
v 0.327750 0.187917 0.000000
v 0.327750 -0.087583 -0.157552
v 0.327750 -0.087583 0.000000
v 0.327750 0.162358 -0.319439
v 0.327750 0.181068 -0.300729
v 0.327750 0.187917 -0.275169
v 0.327750 -0.138701 -0.208669
v 0.327750 -0.138701 0.000000
v 0.327750 -0.173397 -0.543619
v 0.327750 -0.183312 -0.533531
v 0.327750 -0.187917 -0.510746
v 0.384750 -0.087583 0.000000
v 0.384750 -0.138701 0.000000
v 0.384750 0.187917 0.000000
v 0.384750 0.187917 -0.275169
v 0.384750 -0.087583 -0.157552
v 0.384750 0.136799 0.000000
v 0.384750 -0.138701 -0.208669
v 0.384750 0.136799 -0.157552
v 0.384750 -0.187917 -0.510746
v 0.384750 0.181068 -0.300729
v 0.384750 0.162358 -0.319439
v 0.384750 -0.173397 -0.543619
v 0.384750 -0.183312 -0.533531
v -0.384750 0.136799 -0.208669
v -0.327750 0.136799 -0.208669
v -0.384750 0.136799 -0.275169
v -0.327750 0.136799 -0.275169
v -0.327750 -0.087583 -0.208669
v -0.384750 -0.087583 -0.208669
v -0.327750 -0.098418 -0.275169
v -0.384750 -0.098418 -0.275169
v -0.327750 -0.106746 -0.326288
v -0.384750 -0.106746 -0.326288
v -0.327750 -0.143023 -0.548955
v -0.384750 -0.143023 -0.548955
v -0.327750 -0.155428 -0.548955
v -0.384750 -0.155428 -0.548955
v -0.327750 0.136799 -0.326288
v -0.384750 0.136799 -0.326288
v -0.384750 0.136799 0.000000
v -0.384750 0.136799 -0.157552
v -0.384750 0.187917 0.000000
v -0.384750 -0.087583 -0.157552
v -0.384750 -0.087583 0.000000
v -0.384750 0.162358 -0.319439
v -0.384750 0.181068 -0.300729
v -0.384750 0.187917 -0.275169
v -0.384750 -0.138701 -0.208669
v -0.384750 -0.138701 0.000000
v -0.384750 -0.173397 -0.543619
v -0.384750 -0.183312 -0.533531
v -0.384750 -0.187917 -0.510746
v -0.327750 -0.087583 0.000000
v -0.327750 -0.138701 0.000000
v -0.327750 0.187917 0.000000
v -0.327750 0.187917 -0.275169
v -0.327750 -0.087583 -0.157552
v -0.327750 0.136799 0.000000
v -0.327750 -0.138701 -0.208669
v -0.327750 0.136799 -0.157552
v -0.327750 -0.187917 -0.510746
v -0.327750 0.181068 -0.300729
v -0.327750 0.162358 -0.319439
v -0.327750 -0.173397 -0.543619
v -0.327750 -0.183312 -0.533531
vn -0.0000 0.5842 -0.8116
vn -0.0000 0.8116 0.5842
vn -0.0000 -0.8116 -0.5842
vn -0.0000 -0.5842 0.8116
vn -0.0000 -0.7071 -0.7071
vn -0.0000 -0.7071 0.7071
vn -0.0000 0.7071 0.7071
vn -0.0000 0.7071 -0.7071
vn -0.9045 -0.3015 0.3015
vn 0.9045 -0.3015 -0.3015
vn -0.9045 -0.3015 -0.3015
vn 0.9045 -0.3015 0.3015
vn 0.9228 0.2935 0.2496
vn -0.8851 0.3015 -0.3546
vn 0.8851 0.3015 -0.3546
vn -0.9228 0.2935 0.2496
vn 0.5863 0.5247 -0.6172
vn -0.6799 0.0083 -0.7332
vn -0.5863 0.5247 -0.6172
vn 0.6819 0.0149 -0.7313
vn -0.6228 0.1021 -0.7757
vn -0.5773 0.5773 0.5774
vn -0.5774 -0.5774 0.5774
vn -0.6659 0.2213 -0.7125
vn -0.6661 0.5244 -0.5303
vn -0.6818 0.6989 -0.2162
vn -0.7281 -0.6806 0.0809
vn -0.7770 -0.4300 -0.4597
vn -0.7039 -0.6962 -0.1408
vn -0.6746 -0.7234 0.1468
vn 0.5774 -0.5773 0.5774
vn 0.5774 0.5773 0.5773
vn 0.6688 0.7432 0.0191
vn 0.5774 0.5773 0.5774
vn -0.5774 0.5774 0.5774
vn 0.7243 -0.6844 0.0843
vn 0.6661 0.7215 -0.1890
vn 0.7228 0.4339 -0.5378
vn 1.0000 -0.0000 -0.0000
vn 0.6799 0.0082 -0.7332
vn 0.6667 -0.2375 -0.7065
vn 0.6641 -0.5286 -0.5288
vn -0.6899 0.0229 -0.7236
vn -0.7311 0.4408 -0.5208
vn -0.6641 -0.7341 -0.1417
vn 0.6744 -0.7215 0.1569
vn 0.6819 0.7312 0.0204
vn 0.6653 0.4918 -0.5617
vn -0.5829 0.8056 -0.1061
vn -1.0000 -0.0000 -0.0000
vt 0.093750 0.401015
vt 0.093750 0.351692
vt 0.093750 0.475000
vt 0.093750 0.425676
vt 0.093750 0.324323
vt 0.093750 0.327031
vt 0.093750 0.275000
vt 0.093750 0.398308
vt 0.093750 0.348985
vt 0.093750 0.422969
vt 0.093750 0.277707
vt 0.093750 0.472293
vt 0.843750 0.125252
vt 0.843750 0.101024
vt 0.843750 0.225000
vt 0.843750 0.143876
vt 0.843750 0.025000
vt 0.843750 0.082401
vt 0.843750 0.141381
vt 0.843750 0.134564
vt 0.843750 0.223056
vt 0.843750 0.219381
vt 0.843750 0.211079
s 1
usemtl colormap.032
f 3/1/1 2/2/2 1/2/2
f 2/2/2 3/1/1 4/1/1
f 7/3/1 6/4/2 5/4/2
f 6/4/2 7/3/1 8/3/1
f 11/5/3 10/6/1 9/5/3
f 10/6/1 11/5/3 12/6/1
f 11/5/3 14/7/4 13/7/4
f 14/7/4 11/5/3 9/5/3
f 17/8/3 16/9/4 15/9/4
f 16/9/4 17/8/3 18/8/3
f 6/4/2 19/10/4 5/4/2
f 22/11/2 14/7/4 21/11/2
f 14/7/4 22/11/2 13/7/4
f 17/8/3 3/1/1 18/8/3
f 3/1/1 17/8/3 4/1/1
f 24/12/3 7/3/1 23/12/3
f 24/12/3 19/10/4 20/10/4
f 19/10/4 24/12/3 23/12/3
f 10/6/1 22/11/2 21/11/2
f 22/11/2 10/6/1 12/6/1
f 27/3/5 26/7/6 25/7/6
f 30/7/7 31/3/8 32/3/8
f 26/7/6 30/7/7 25/7/6
f 27/3/5 31/3/8 28/3/5
f 34/7/7 35/3/8 36/3/8
f 39/7/7 38/7/6 37/7/7
f 38/7/6 39/7/7 40/7/6
f 41/3/8 39/7/7 37/7/7
f 39/7/7 41/3/8 42/3/8
f 44/3/5 35/3/8 43/3/5
f 35/3/8 44/3/5 36/3/8
f 46/3/5 41/3/8 45/3/5
f 48/7/6 44/3/5 43/3/5
f 34/7/7 48/7/6 33/7/7
f 48/7/6 34/7/7 47/7/6
f 51/13/9 50/14/10 49/14/11
f 50/14/10 51/13/9 52/13/12
f 55/13/13 54/14/14 53/14/15
f 54/14/14 55/13/13 56/13/16
f 59/15/17 58/16/14 57/16/15
f 59/15/17 62/15/18 60/15/19
f 58/16/14 63/16/20 57/16/15
f 63/16/20 58/16/14 64/16/21
f 67/17/22 66/18/9 65/17/23
f 49/14/11 67/17/22 51/13/9
f 56/13/16 69/17/22 54/14/14
f 64/16/21 67/17/22 70/19/24
f 70/19/24 67/17/22 71/20/25
f 71/20/25 67/17/22 72/13/26
f 56/13/16 64/16/21 58/16/14
f 58/16/14 69/17/22 56/13/16
f 73/14/27 69/17/22 58/16/14
f 69/17/22 73/14/27 74/17/23
f 62/15/18 73/14/27 60/15/19
f 75/21/28 73/14/27 62/15/18
f 76/22/29 73/14/27 75/21/28
f 73/14/27 76/22/29 77/23/30
f 54/14/14 50/14/10 53/14/15
f 50/14/10 54/14/14 49/14/11
f 69/17/22 79/17/31 78/17/32
f 79/17/31 69/17/22 74/17/23
f 81/13/33 67/17/22 80/17/32
f 67/17/22 81/13/33 72/13/26
f 82/18/34 69/17/22 78/17/32
f 69/17/22 82/18/34 68/18/35
f 83/17/31 67/17/22 65/17/23
f 73/14/27 79/17/31 74/17/23
f 79/17/31 73/14/27 84/14/36
f 66/18/9 83/17/31 65/17/23
f 77/23/30 84/14/36 73/14/27
f 80/17/32 87/20/37 81/13/33
f 83/17/31 88/19/38 80/17/32
f 52/13/12 63/16/20 88/19/38
s 0
f 78/17/39 53/14/39 82/18/39
s 1
f 55/13/13 63/16/20 52/13/12
f 79/17/31 57/16/15 78/17/32
f 84/14/36 61/15/40 59/15/17
f 84/14/36 89/21/41 61/15/40
f 84/14/36 90/22/42 89/21/41
f 64/16/21 88/19/38 63/16/20
f 88/19/38 64/16/21 70/19/24
f 87/20/37 72/13/26 81/13/33
f 72/13/26 87/20/37 71/20/25
f 75/21/28 90/22/42 76/22/29
f 90/22/42 75/21/28 89/21/41
f 101/15/17 104/15/18 102/15/19
f 100/16/14 105/16/20 99/16/15
f 96/14/14 110/18/35 108/18/9
f 106/16/43 98/13/16 93/13/9
f 93/13/9 109/17/22 106/16/43
f 112/19/44 109/17/22 113/20/25
f 98/13/16 106/16/43 100/16/14
f 115/14/27 111/17/22 100/16/14
f 104/15/18 115/14/27 102/15/19
f 117/21/28 115/14/27 104/15/18
f 115/14/27 118/22/45 119/23/30
f 109/17/22 125/17/31 122/17/32
f 125/17/31 109/17/22 107/17/23
f 121/17/31 115/14/27 126/14/36
f 124/18/34 108/18/9 110/18/35
f 119/23/30 126/14/36 115/14/27
f 126/14/36 119/23/30 128/23/46
f 122/17/32 129/20/37 123/13/47
f 122/17/32 130/19/48 129/20/37
f 125/17/31 130/19/48 122/17/32
f 92/14/10 130/19/48 127/18/12
f 124/18/34 92/14/10 127/18/12
f 94/13/12 130/19/48 92/14/10
f 92/14/10 124/18/34 95/14/15
f 94/13/12 105/16/20 130/19/48
s 0
f 120/17/39 95/14/39 124/18/39
s 1
f 97/13/13 105/16/20 94/13/12
f 120/17/32 97/13/13 95/14/15
f 105/16/20 97/13/13 99/16/15
f 126/14/36 99/16/15 121/17/31
f 126/14/36 101/15/17 99/16/15
f 126/14/36 103/15/40 101/15/17
f 126/14/36 131/21/41 103/15/40
f 126/14/36 132/22/42 131/21/41
f 132/22/42 126/14/36 128/23/46
f 93/13/9 97/13/13 94/13/12
f 106/16/43 130/19/48 105/16/20
f 130/19/48 106/16/43 112/19/44
f 129/20/37 114/13/49 123/13/47
f 117/21/28 103/15/40 131/21/41
f 103/15/40 117/21/28 104/15/18
f 118/22/45 128/23/46 119/23/30
f 19/10/4 6/4/2 20/10/4
f 7/3/1 24/12/3 8/3/1
f 2/2/2 16/9/4 1/2/2
f 16/9/4 2/2/2 15/9/4
f 26/7/6 27/3/5 28/3/5
f 31/3/8 30/7/7 29/7/7
f 30/7/7 26/7/6 29/7/7
f 31/3/8 27/3/5 32/3/8
f 35/3/8 34/7/7 33/7/7
f 41/3/8 46/3/5 42/3/8
f 44/3/5 48/7/6 47/7/6
f 46/3/5 38/7/6 40/7/6
f 38/7/6 46/3/5 45/3/5
f 58/16/14 59/15/17 60/15/19
f 62/15/18 59/15/17 61/15/40
f 66/18/9 67/17/22 49/14/11
f 54/14/14 66/18/9 49/14/11
f 54/14/14 68/18/35 66/18/9
s 0
f 54/14/50 69/17/50 68/18/50
s 1
f 64/16/21 56/13/16 51/13/9
f 51/13/9 67/17/22 64/16/21
f 60/15/19 73/14/27 58/16/14
f 67/17/22 83/17/31 80/17/32
f 83/17/31 66/18/9 85/18/12
f 66/18/9 82/18/34 85/18/12
f 82/18/34 66/18/9 68/18/35
f 84/14/36 77/23/30 86/23/46
f 80/17/32 88/19/38 87/20/37
f 85/18/12 88/19/38 83/17/31
f 50/14/10 88/19/38 85/18/12
f 82/18/34 50/14/10 85/18/12
f 52/13/12 88/19/38 50/14/10
f 50/14/10 82/18/34 53/14/15
f 78/17/32 55/13/13 53/14/15
f 63/16/20 55/13/13 57/16/15
f 78/17/32 57/16/15 55/13/13
f 84/14/36 57/16/15 79/17/31
f 84/14/36 59/15/17 57/16/15
f 90/22/42 84/14/36 86/23/46
f 51/13/9 55/13/13 52/13/12
f 55/13/13 51/13/9 56/13/16
f 88/19/38 71/20/25 87/20/37
f 71/20/25 88/19/38 70/19/24
f 75/21/28 61/15/40 89/21/41
f 61/15/40 75/21/28 62/15/18
f 76/22/29 86/23/46 77/23/30
f 86/23/46 76/22/29 90/22/42
f 93/13/9 92/14/10 91/14/11
f 92/14/10 93/13/9 94/13/12
f 97/13/13 96/14/14 95/14/15
f 96/14/14 97/13/13 98/13/16
f 101/15/17 100/16/14 99/16/15
f 100/16/14 101/15/17 102/15/19
f 104/15/18 101/15/17 103/15/40
f 105/16/20 100/16/14 106/16/43
f 109/17/22 108/18/9 107/17/23
f 108/18/9 109/17/22 91/14/11
f 96/14/14 108/18/9 91/14/11
s 0
f 96/14/50 111/17/50 110/18/50
s 1
f 91/14/11 109/17/22 93/13/9
f 98/13/16 111/17/22 96/14/14
f 106/16/43 109/17/22 112/19/44
f 113/20/25 109/17/22 114/13/49
f 100/16/14 111/17/22 98/13/16
f 111/17/22 115/14/27 116/17/23
f 102/15/19 115/14/27 100/16/14
f 118/22/45 115/14/27 117/21/28
f 96/14/14 92/14/10 95/14/15
f 92/14/10 96/14/14 91/14/11
f 111/17/22 121/17/31 120/17/32
f 121/17/31 111/17/22 116/17/23
f 123/13/47 109/17/22 122/17/32
f 109/17/22 123/13/47 114/13/49
f 124/18/34 111/17/22 120/17/32
f 111/17/22 124/18/34 110/18/35
f 115/14/27 121/17/31 116/17/23
f 108/18/9 125/17/31 107/17/23
f 125/17/31 108/18/9 127/18/12
f 108/18/9 124/18/34 127/18/12
f 127/18/12 130/19/48 125/17/31
f 120/17/32 99/16/15 97/13/13
f 121/17/31 99/16/15 120/17/32
f 97/13/13 93/13/9 98/13/16
f 130/19/48 113/20/25 129/20/37
f 113/20/25 130/19/48 112/19/44
f 114/13/49 129/20/37 113/20/25
f 117/21/28 132/22/42 118/22/45
f 132/22/42 117/21/28 131/21/41
f 128/23/46 118/22/45 132/22/42
