# Blender 4.3.2
# www.blender.org
mtllib tableRound.mtl
o tableRound
v -0.000000 0.600000 -0.045161
v -0.306410 0.440000 -0.045161
v -0.346410 0.800000 -0.045161
v -0.386410 0.440000 -0.045161
v -0.692820 0.600000 -0.045161
v -0.386410 0.360000 -0.045161
v -0.306410 0.360000 -0.045161
v -0.346410 0.000000 -0.045161
v 0.000000 0.200000 -0.045161
v 0.000000 0.400000 -0.045161
v -0.692820 0.200000 -0.045161
v -0.692820 0.400000 -0.045161
v 0.000000 0.200000 -0.096734
v -0.000000 0.600000 -0.096734
v -0.346410 0.000000 -0.096734
v -0.346410 0.800000 -0.096734
v -0.692820 0.200000 -0.096734
v -0.692820 0.600000 -0.096734
v -0.386410 0.360000 0.200000
v -0.306410 0.360000 0.200000
v -0.306410 0.440000 0.200000
v -0.386410 0.440000 0.200000
v -0.406410 0.340000 0.220000
v -0.286410 0.340000 0.220000
v -0.406410 0.340000 0.200000
v -0.286410 0.340000 0.200000
v -0.286410 0.460000 0.200000
v -0.286410 0.460000 0.220000
v -0.406410 0.460000 0.220000
v -0.406410 0.460000 0.200000
v -0.246410 0.300000 0.220000
v -0.246410 0.300000 0.250000
v -0.246410 0.500000 0.220000
v -0.246410 0.500000 0.250000
v -0.446410 0.500000 0.250000
v -0.446410 0.500000 0.220000
v -0.446410 0.300000 0.250000
v -0.446410 0.300000 0.220000
v -0.236410 0.510000 0.270000
v -0.236410 0.290000 0.270000
v -0.456410 0.510000 0.270000
v -0.456410 0.290000 0.270000
vn 0.3015 0.3015 0.9045
vn 0.6863 0.3962 0.6100
vn -0.0000 0.7924 0.6100
vn -0.3015 0.3015 0.9045
vn 0.3015 -0.3015 0.9045
vn -0.0000 -0.7924 0.6100
vn -0.3015 -0.3015 0.9045
vn 0.6862 -0.3962 0.6100
vn -0.0000 -0.0000 1.0000
vn -0.6862 -0.3962 0.6100
vn -0.0000 -0.7924 -0.6100
vn -0.0000 0.7924 -0.6100
vn 0.6862 0.3962 -0.6100
vn -0.6862 -0.3962 -0.6100
vn -0.6862 0.3962 -0.6100
vn -0.6862 0.3962 0.6100
vn -1.0000 -0.0000 -0.0000
vn 0.6862 -0.3962 -0.6100
vn 1.0000 -0.0000 -0.0000
vn 0.3015 -0.3015 -0.9045
vn -0.3015 -0.3015 -0.9045
vn 0.3015 0.3015 -0.9045
vn -0.3015 0.3015 -0.9045
vn -0.5774 -0.5774 -0.5773
vn 0.5773 -0.5773 -0.5774
vn 0.5773 0.5773 -0.5774
vn -0.5773 0.5773 -0.5774
vn 0.6619 -0.6619 -0.3517
vn 0.6619 0.6619 -0.3517
vn -0.6619 0.6619 -0.3517
vn 0.6626 -0.6626 0.3491
vn 0.6626 0.6626 0.3491
vn -0.6626 0.6626 0.3491
vn -0.6619 -0.6619 -0.3517
vn -0.6626 -0.6626 0.3491
vt -12.063390 17.322830
vt -0.000000 23.622049
vt -13.638200 31.496059
vt -15.213000 17.322830
vt -12.063390 14.173230
vt -13.638200 0.000000
vt -15.213000 14.173230
vt 0.000000 7.874016
vt 0.000000 15.748030
vt -27.276390 7.874016
vt 13.638200 0.000000
vt 13.638200 31.496059
vt 0.000000 23.622049
vt 27.276390 7.874016
vt 27.276390 23.622049
vt -11.811020 1.777978
vt 3.937008 1.777978
vt 3.937008 3.808424
vt -11.811020 3.808424
vt 7.874016 3.808424
vt 7.874016 1.777978
vt 15.748030 1.777978
vt 11.811020 1.777978
vt 27.559059 1.777978
vt 27.559059 3.808424
vt 11.811020 3.808424
vt -3.937008 1.777978
vt -3.937008 3.808424
vt -7.874016 1.777978
vt -7.874016 3.808424
vt -23.622049 3.808424
vt -23.622049 1.777978
vt -15.748030 1.777978
vt -27.559059 1.777978
vt -27.559059 3.808424
vt 12.063390 -7.874016
vt 15.213000 -7.874016
vt 15.213000 1.777978
vt -14.173230 -7.874016
vt -14.173230 1.777978
vt -17.322830 1.777978
vt -17.322830 -7.874016
vt -12.063390 1.777978
vt -15.213000 1.777978
vt -15.213000 -7.874016
vt 11.275990 -8.661417
vt 16.000401 -8.661417
vt 16.000401 -7.874016
vt 11.275990 -7.874016
vt -13.385830 -8.661417
vt -13.385830 -7.874016
vt -18.110241 -7.874016
vt -18.110241 -8.661417
vt 18.110241 -8.661417
vt 18.110241 -7.874016
vt 13.385830 -7.874016
vt 11.275990 13.385830
vt 16.000401 13.385830
vt 12.063390 14.173230
vt 15.213000 14.173230
vt 11.275990 18.110241
vt 12.063390 17.322830
vt 16.000401 18.110241
vt 15.213000 17.322830
vt -11.811020 -9.842520
vt -11.811020 -8.661417
vt -19.685040 -8.661417
vt -19.685040 -9.842520
vt 19.685040 -9.842520
vt 19.685040 -8.661417
vt 11.811020 -8.661417
vt 9.701187 11.811020
vt 17.575199 11.811020
vt 17.575199 19.685040
vt 9.701187 19.685040
vt -9.307487 11.417320
vt -9.307487 20.078739
vt -17.968901 20.078739
vt -9.701187 -17.606831
vt -17.575199 -17.606831
vt -17.968901 -18.487181
vt 20.078739 -17.543631
vt 19.685040 -16.663290
vt 11.811020 -16.663290
vt 17.575199 -3.521367
vt 9.701187 -3.521367
vt 9.307487 -4.401709
vt -20.078739 -5.345256
vt -11.417320 -5.345256
vt -11.811020 -4.464914
vt -19.685040 -4.464914
vt -11.275990 -7.874016
vt -16.000401 -7.874016
vt -16.000401 -8.661417
vt -27.276390 23.622049
vt -27.276390 15.748030
vt 23.622049 3.808424
vt 23.622049 1.777978
vt 12.063390 1.777978
vt -12.063390 -7.874016
vt 14.173230 1.777978
vt 14.173230 -7.874016
vt 17.322830 -7.874016
vt 17.322830 1.777978
vt 13.385830 -8.661417
vt -17.575199 -9.842520
vt -9.701187 -9.842520
vt -9.701187 -8.661417
vt -17.575199 -8.661417
vt 9.701187 -9.842520
vt 17.575199 -9.842520
vt 17.575199 -8.661417
vt 9.701187 -8.661417
vt 11.811020 -9.842520
vt -17.968901 11.417320
vt -9.307487 -18.487181
vt 11.417320 -17.543631
vt 17.968901 -4.401709
vt -11.275990 -8.661417
s 1
usemtl wood.013
f 2/1/1 1/2/2 3/3/3
f 3/3/3 4/4/4 2/1/1
f 1/2/2 2/1/1 7/5/5
f 1/2/2 7/5/5 8/6/6
f 7/5/5 6/7/7 8/6/6
f 1/2/2 8/6/6 9/8/8
s 0
f 9/8/9 10/9/9 1/2/9
s 1
f 6/7/7 11/10/10 8/6/6
f 15/11/11 16/12/12 14/13/13
f 15/11/11 17/14/14 16/12/12
f 17/14/14 18/15/15 16/12/12
f 5/16/16 3/17/3 16/18/12
f 16/18/12 18/19/15 5/16/16
f 17/20/14 11/21/10 12/22/17
f 8/23/6 11/24/10 17/25/14
f 17/25/14 15/26/11 8/23/6
f 9/27/8 8/23/6 15/26/11
f 15/26/11 13/28/18 9/27/8
f 9/29/8 13/30/18 14/31/13
f 14/31/13 1/32/2 10/33/19
f 3/34/3 1/16/2 14/19/13
f 14/19/13 16/35/12 3/34/3
f 20/36/20 19/37/21 6/38/7
f 20/39/20 7/40/5 2/41/1
f 2/41/1 21/42/22 20/39/20
f 2/43/1 4/44/4 22/45/23
f 24/46/20 23/47/21 25/48/24
f 25/48/24 26/49/25 24/46/20
f 24/50/20 26/51/25 27/52/26
f 27/52/26 28/53/22 24/50/20
f 29/54/23 30/55/27 25/56/24
f 26/57/25 25/58/24 20/59/20
f 25/58/24 19/60/21 20/59/20
f 27/61/26 20/59/20 21/62/22
f 21/62/22 30/63/27 27/61/26
f 21/62/22 22/64/23 30/63/27
f 22/64/23 25/58/24 30/63/27
f 32/65/28 31/66/25 33/67/26
f 33/67/26 34/68/29 32/65/28
f 35/69/30 36/70/27 38/71/24
f 31/72/25 38/73/24 24/57/20
f 38/73/24 23/58/21 24/57/20
f 38/73/24 29/63/23 23/58/21
f 28/61/22 36/74/27 33/75/26
f 28/61/22 29/63/23 36/74/27
f 29/63/23 38/73/24 36/74/27
f 40/76/31 39/77/32 41/78/33
f 34/79/29 35/80/30 41/81/33
f 41/82/33 35/83/30 37/84/34
f 37/85/34 32/86/28 40/87/31
f 39/88/32 40/89/31 32/90/28
f 32/90/28 34/91/29 39/88/32
f 27/92/26 30/93/27 29/94/23
f 3/3/3 5/95/16 4/4/4
f 5/95/16 6/7/7 4/4/4
f 6/7/7 5/95/16 11/10/10
s 0
f 5/95/9 12/96/9 11/10/9
s 1
f 14/13/13 13/8/18 15/11/11
f 12/22/17 18/97/15 17/20/14
f 12/22/17 5/98/16 18/97/15
f 14/31/13 10/33/19 9/29/8
f 6/38/7 7/99/5 20/36/20
f 22/45/23 21/100/22 2/43/1
f 6/101/7 19/102/21 22/103/23
f 22/103/23 4/104/4 6/101/7
f 25/56/24 23/105/21 29/54/23
f 20/59/20 27/61/26 26/57/25
f 25/58/24 22/64/23 19/60/21
f 35/106/30 34/107/29 33/108/26
f 33/108/26 36/109/27 35/106/30
f 32/110/28 37/111/34 38/112/24
f 38/112/24 31/113/25 32/110/28
f 38/71/24 37/114/34 35/69/30
f 24/57/20 33/75/26 31/72/25
f 33/75/26 24/57/20 28/61/22
f 41/78/33 42/115/35 40/76/31
f 41/81/33 39/116/32 34/79/29
f 37/84/34 42/117/35 41/82/33
f 40/87/31 42/118/35 37/85/34
f 29/94/23 28/119/22 27/92/26
