# Blender 4.3.2
# www.blender.org
mtllib character-employee.002.mtl
o character-employee
v 0.745124 0.176250 -3.342631
v 0.660024 0.176250 -3.342631
v 0.745124 0.176250 -3.475450
v 0.660024 0.176250 -3.475450
v 0.649387 0.090000 -3.475450
v 0.755762 0.090000 -3.475450
v 0.649387 0.090000 -3.342631
v 0.755762 0.090000 -3.342631
v 0.482245 0.090000 -3.475450
v 0.588620 0.090000 -3.475450
v 0.492882 0.176250 -3.475450
v 0.577982 0.176250 -3.475450
v 0.482245 0.090000 -3.342631
v 0.492882 0.176250 -3.342631
v 0.577982 0.176250 -3.342631
v 0.588620 0.090000 -3.342631
v 0.492882 0.214683 -3.550492
v 0.586210 0.214683 -3.550492
v 0.492882 0.368250 -3.502492
v 0.651796 0.214683 -3.550492
v 0.745124 0.214683 -3.550492
v 0.745124 0.368250 -3.502492
v 0.745124 0.214683 -3.282270
v 0.651796 0.214683 -3.282270
v 0.745124 0.368250 -3.307270
v 0.651796 0.368250 -3.307270
v 0.770124 0.368250 -3.332599
v 0.770124 0.214683 -3.307599
v 0.770124 0.214683 -3.524299
v 0.770124 0.368250 -3.476299
v 0.586210 0.214683 -3.282270
v 0.492882 0.214683 -3.282270
v 0.467882 0.214683 -3.307599
v 0.467882 0.214683 -3.524299
v 0.651796 0.368250 -3.404881
v 0.586210 0.368250 -3.404881
v 0.586210 0.368250 -3.307270
v 0.492882 0.368250 -3.307270
v 0.467882 0.368250 -3.476299
v 0.467882 0.368250 -3.332599
v 0.649387 0.057500 -3.480752
v 0.649387 0.057500 -3.285131
v 0.755762 0.057500 -3.480752
v 0.755762 0.057500 -3.285131
v 0.482245 0.057500 -3.480752
v 0.588620 0.057500 -3.480752
v 0.588620 0.057500 -3.285131
v 0.482245 0.057500 -3.285131
v 0.745124 0.176250 -3.550492
v 0.770124 0.214683 -3.525492
v 0.770124 0.176250 -3.525492
v 0.770124 0.176250 -3.307270
v 0.745124 0.176250 -3.282270
v 0.492882 0.176250 -3.282270
v 0.492882 0.176250 -3.550492
v 0.467882 0.176250 -3.307270
v 0.467882 0.176250 -3.525492
v 0.467882 0.214683 -3.307270
v 0.467882 0.214683 -3.525492
v 0.770124 0.214683 -3.307270
v 0.718900 0.232250 -3.460381
v 0.718900 0.343250 -3.460381
v 0.718900 0.232250 -3.349381
v 0.718900 0.343250 -3.349381
v 0.852643 0.343250 -3.449484
v 0.804681 0.343250 -3.349381
v 0.829900 0.343250 -3.460381
v 0.909182 0.207250 -3.422395
v 0.852643 0.207250 -3.449484
v 0.861220 0.207250 -3.322292
v 0.804681 0.207250 -3.349381
v 0.919984 0.232250 -3.444941
v 0.919984 0.343250 -3.444941
v 0.909182 0.232250 -3.422395
v 0.909182 0.368250 -3.422395
v 0.861220 0.232250 -3.322292
v 0.909182 0.343250 -3.422395
v 0.861220 0.368250 -3.322292
v 0.861220 0.343250 -3.322292
v 0.850418 0.232250 -3.299746
v 0.850418 0.343250 -3.299746
v 0.863445 0.343250 -3.472030
v 0.852643 0.368250 -3.449484
v 0.793879 0.232250 -3.326835
v 0.863445 0.232250 -3.472030
v 0.793879 0.343250 -3.326835
v 0.804681 0.368250 -3.349381
v 0.804681 0.232250 -3.349381
v 0.852643 0.232250 -3.449484
v 0.829900 0.232250 -3.460381
v 0.408107 0.232250 -3.460381
v 0.519107 0.232250 -3.460381
v 0.408107 0.343250 -3.460381
v 0.519107 0.343250 -3.460381
v 0.519107 0.343250 -3.349381
v 0.519107 0.232250 -3.349381
v 0.374562 0.232250 -3.472030
v 0.374562 0.343250 -3.472030
v 0.318023 0.232250 -3.444941
v 0.318023 0.343250 -3.444941
v 0.433325 0.207250 -3.349381
v 0.385364 0.207250 -3.449484
v 0.376786 0.207250 -3.322292
v 0.328825 0.207250 -3.422395
v 0.433325 0.343250 -3.349381
v 0.385364 0.343250 -3.449484
v 0.433325 0.232250 -3.349381
v 0.385364 0.232250 -3.449484
v 0.433325 0.368250 -3.349381
v 0.376786 0.368250 -3.322292
v 0.385364 0.368250 -3.449484
v 0.328825 0.368250 -3.422395
v 0.387588 0.232250 -3.299746
v 0.387588 0.343250 -3.299746
v 0.444127 0.232250 -3.326835
v 0.444127 0.343250 -3.326835
v 0.376786 0.343250 -3.322292
v 0.376786 0.232250 -3.322292
v 0.328825 0.343250 -3.422395
v 0.328825 0.232250 -3.422395
v 0.745124 0.253117 -3.525492
v 0.745124 0.176250 -3.525492
v 0.745124 0.253117 -3.307270
v 0.745124 0.176250 -3.307270
v 0.492882 0.176250 -3.525492
v 0.492882 0.253117 -3.525492
v 0.492882 0.176250 -3.307270
v 0.492882 0.253117 -3.307270
v 0.619003 0.273183 -3.307270
v 0.519106 0.343250 -3.307270
v 0.553417 0.343250 -3.307270
v 0.718900 0.343250 -3.307270
v 0.684590 0.343250 -3.307270
v 0.519106 0.343250 -3.502492
v 0.718900 0.343250 -3.502492
v 0.755762 0.000000 -3.285131
v 0.755762 -0.000000 -3.490131
v 0.649387 0.000000 -3.285131
v 0.649387 -0.000000 -3.490131
v 0.482245 -0.000000 -3.490131
v 0.482245 0.000000 -3.285131
v 0.588620 -0.000000 -3.490131
v 0.588620 0.000000 -3.285131
v 0.740542 0.280608 -3.293002
v 0.681378 0.280608 -3.293002
v 0.740542 0.319041 -3.293002
v 0.681378 0.319041 -3.293002
v 1.009285 0.343250 -3.374434
v 1.009285 0.232250 -3.374434
v 0.961324 0.343250 -3.274331
v 0.961324 0.232250 -3.274331
v 0.276683 0.232250 -3.274331
v 0.276683 0.343250 -3.274331
v 0.228721 0.343250 -3.374434
v 0.228721 0.232250 -3.374434
v 0.619003 0.273183 -3.307270
v 0.553417 0.343250 -3.307270
v 0.684590 0.343250 -3.307270
v 0.779003 0.507810 -3.414992
v 0.795691 0.507810 -3.398304
v 0.779003 0.484210 -3.381617
v 0.795691 0.413411 -3.398304
v 0.779003 0.413411 -3.414992
v 0.779003 0.437010 -3.381617
v 0.459003 0.507810 -3.414992
v 0.459003 0.484210 -3.381617
v 0.442316 0.507810 -3.398304
v 0.459003 0.437010 -3.381617
v 0.459003 0.413411 -3.414992
v 0.442316 0.413411 -3.398304
v 0.845754 0.484210 -3.448368
v 0.845754 0.437010 -3.448368
v 0.829066 0.507810 -3.431680
v 0.829066 0.413411 -3.431680
v 0.795691 0.507810 -3.465055
v 0.779003 0.507810 -3.448368
v 0.795691 0.413411 -3.465055
v 0.779003 0.413411 -3.448368
v 0.812379 0.484210 -3.481743
v 0.812379 0.437010 -3.481743
v 0.459003 0.507810 -3.448368
v 0.442316 0.507810 -3.465055
v 0.408940 0.507810 -3.431680
v 0.392252 0.437010 -3.448368
v 0.392252 0.484210 -3.448368
v 0.408940 0.413411 -3.431680
v 0.425628 0.437010 -3.481743
v 0.425628 0.484210 -3.481743
v 0.442316 0.413411 -3.465055
v 0.459003 0.413411 -3.448368
v 0.499003 0.343250 -3.549992
v 0.459003 0.343250 -3.509992
v 0.739003 0.343250 -3.549992
v 0.779003 0.343250 -3.509992
v 0.739003 0.343250 -3.229992
v 0.779003 0.343250 -3.414992
v 0.779003 0.343250 -3.269992
v 0.499003 0.343250 -3.229992
v 0.459003 0.343250 -3.414992
v 0.459003 0.343250 -3.269992
v 0.459003 0.437010 -3.414992
v 0.459003 0.437010 -3.342492
v 0.459003 0.455084 -3.286748
v 0.459003 0.504225 -3.269992
v 0.779003 0.437010 -3.414992
v 0.779003 0.437010 -3.342492
v 0.779003 0.455084 -3.286748
v 0.779003 0.504225 -3.269992
v 0.499003 0.614450 -3.229992
v 0.459003 0.614450 -3.269992
v 0.739003 0.614450 -3.229992
v 0.779003 0.614450 -3.269992
v 0.739003 0.661325 -3.299992
v 0.709003 0.661325 -3.269992
v 0.739003 0.661325 -3.479992
v 0.709003 0.661325 -3.509992
v 0.529003 0.661325 -3.269992
v 0.529003 0.661325 -3.509992
v 0.499003 0.661325 -3.299992
v 0.499003 0.661325 -3.479992
v 0.499003 0.614450 -3.549992
v 0.459003 0.614450 -3.509992
v 0.779003 0.614450 -3.509992
v 0.739003 0.614450 -3.549992
v 0.691093 0.455023 -3.228026
v 0.669973 0.462063 -3.228026
v 0.712213 0.462063 -3.228026
v 0.719253 0.483183 -3.228026
v 0.662933 0.483183 -3.228026
v 0.712213 0.504303 -3.228026
v 0.737037 0.511343 -3.228026
v 0.669973 0.504303 -3.228026
v 0.691093 0.511343 -3.228026
v 0.546913 0.455023 -3.228026
v 0.525793 0.462063 -3.228026
v 0.568033 0.462063 -3.228026
v 0.575073 0.483183 -3.228026
v 0.518753 0.483183 -3.228026
v 0.568033 0.504303 -3.228026
v 0.525793 0.504303 -3.228026
v 0.546913 0.511343 -3.228026
v 0.500970 0.511343 -3.228026
v 0.638558 0.401585 -3.228026
v 0.599449 0.401585 -3.228026
v 0.662134 0.414277 -3.228026
v 0.575873 0.414277 -3.228026
v 0.663859 0.429008 -3.228026
v 0.632397 0.424578 -3.228026
v 0.650239 0.434879 -3.228026
v 0.605610 0.424578 -3.228026
v 0.574148 0.429008 -3.228026
v 0.587767 0.434879 -3.228026
v 0.779003 0.614450 -3.269992
v 0.779003 0.576950 -3.269992
v 0.739003 0.576950 -3.204892
v 0.499003 0.576950 -3.204892
v 0.459003 0.576950 -3.269992
v 0.559003 0.558200 -3.197142
v 0.679003 0.558200 -3.197142
v 0.447388 0.578009 -3.475321
v 0.462938 0.611325 -3.445395
v 0.391189 0.593807 -3.482481
v 0.414514 0.643781 -3.437592
v 0.381510 0.642921 -3.513355
v 0.397061 0.676237 -3.483429
v 0.465052 0.693755 -3.439836
v 0.430752 0.709553 -3.484925
v 0.459000 0.676237 -3.590711
v 0.425308 0.642921 -3.589215
v 0.474550 0.709553 -3.560785
v 0.462850 0.723353 -3.516967
v 0.393211 0.629121 -3.557173
v 0.408740 0.573106 -3.548207
v 0.456886 0.593807 -3.596270
v 0.459088 0.564209 -3.519139
v 0.491185 0.578009 -3.551180
v 0.524877 0.611325 -3.552677
v 0.507423 0.643781 -3.598514
v 0.530749 0.693755 -3.553625
v 0.513198 0.714455 -3.487898
v 0.540427 0.644641 -3.522751
v 0.528727 0.658441 -3.478933
v 0.496630 0.644641 -3.446891
v 0.746821 0.578009 -3.551180
v 0.713129 0.611325 -3.552677
v 0.781121 0.593807 -3.596270
v 0.730583 0.643781 -3.598514
v 0.775068 0.611325 -3.445395
v 0.823492 0.643781 -3.437592
v 0.741377 0.644641 -3.446891
v 0.772954 0.693755 -3.439836
v 0.707258 0.693755 -3.553625
v 0.697579 0.644641 -3.522751
v 0.724809 0.714455 -3.487898
v 0.709279 0.658441 -3.478933
v 0.844796 0.629121 -3.557173
v 0.856496 0.642921 -3.513355
v 0.829267 0.573106 -3.548207
v 0.846817 0.593807 -3.482481
v 0.812698 0.642921 -3.589215
v 0.779007 0.676237 -3.590711
v 0.840946 0.676237 -3.483429
v 0.807254 0.709553 -3.484925
v 0.775157 0.723353 -3.516967
v 0.790619 0.578009 -3.475321
v 0.778918 0.564209 -3.519139
v 0.763456 0.709553 -3.560785
v 0.739003 0.671325 -3.434992
v 0.739003 0.671325 -3.344992
v 0.499003 0.671325 -3.434992
v 0.499003 0.671325 -3.344992
v 0.789003 0.614450 -3.434992
v 0.789003 0.614450 -3.344992
v 0.789003 0.536950 -3.434992
v 0.789003 0.514450 -3.412492
v 0.789003 0.514450 -3.367492
v 0.789003 0.536950 -3.344992
v 0.449003 0.536950 -3.434992
v 0.449003 0.614450 -3.434992
v 0.449003 0.514450 -3.412492
v 0.449003 0.614450 -3.344992
v 0.449003 0.514450 -3.367492
v 0.449003 0.536950 -3.344992
vn -0.0000 1.0000 -0.0000
vn -0.0000 -0.0000 -1.0000
vn -0.9925 0.1224 -0.0000
vn -0.0000 -0.0000 1.0000
vn 0.9925 0.1224 -0.0000
vn -0.2899 0.7288 -0.6204
vn -0.0000 0.2983 -0.9545
vn -0.3540 0.2790 -0.8926
vn 0.3540 0.2790 -0.8926
vn 0.2899 0.7287 -0.6204
vn 0.2920 0.6844 0.6680
vn -0.0000 0.1607 0.9870
vn 0.3682 0.1494 0.9177
vn -0.0000 0.7618 0.6478
vn 0.9091 0.0669 0.4111
vn 0.9370 0.0561 0.3448
vn 0.8947 0.1333 -0.4264
vn 0.9473 0.0955 -0.3057
vn -0.0000 -1.0000 -0.0000
vn -0.2920 0.6844 0.6680
vn -0.3682 0.1494 0.9177
vn -0.9091 0.0669 0.4111
vn -0.9370 0.0561 0.3448
vn -0.9473 0.0955 -0.3057
vn -0.8947 0.1333 -0.4264
vn -1.0000 -0.0000 -0.0000
vn -0.0000 0.1610 -0.9870
vn -0.0000 0.8706 0.4921
vn 1.0000 -0.0000 -0.0000
vn 0.9239 -0.0000 -0.3827
vn 0.3827 -0.0000 -0.9239
vn 0.3827 -0.0000 0.9239
vn -0.3827 -0.0000 0.9239
vn -0.9239 -0.0000 0.3827
vn -0.9239 -0.0000 -0.3827
vn 0.9239 -0.0000 0.3827
vn -0.3827 -0.0000 -0.9239
vn -0.1654 -0.9239 0.3451
vn 0.1654 -0.9239 -0.3451
vn 0.9018 -0.0000 0.4321
vn 0.4321 -0.0000 -0.9018
vn -0.0000 -0.0000 -0.0000
vn 0.3992 0.3827 -0.8332
vn 0.1654 0.9239 -0.3451
vn -0.3992 -0.3827 0.8332
vn 0.3992 -0.3827 -0.8332
vn -0.9018 -0.0000 -0.4321
vn -0.4321 -0.0000 0.9018
vn -0.1654 0.9239 0.3451
vn -0.3992 0.3827 0.8332
vn 0.2215 -0.0000 -0.9752
vn 0.2215 -0.0000 -0.9751
vn 0.2216 -0.0000 -0.9751
vn -0.2215 -0.0000 -0.9752
vn -0.3992 -0.3827 -0.8332
vn -0.3992 0.3827 -0.8332
vn 0.1654 -0.9239 0.3451
vn -0.1654 -0.9239 -0.3451
vn 0.1653 -0.9239 0.3451
vn -0.4321 -0.0000 -0.9018
vn -0.2216 -0.0000 -0.9751
vn -0.1654 0.9239 -0.3451
vn 0.1654 0.9239 0.3451
vn 0.3992 -0.3827 0.8332
vn 0.3992 0.3827 0.8332
vn 0.9018 -0.0000 -0.4321
vn -0.9018 -0.0000 0.4321
vn 0.9900 0.1411 -0.0000
vn 0.9916 0.1294 -0.0000
vn 0.9900 0.1410 -0.0000
vn -0.0000 0.1126 -0.9936
vn -0.9916 0.1294 -0.0000
vn -0.9900 0.1411 -0.0000
vn -0.9602 0.2794 -0.0000
vn -0.0000 0.2473 -0.9690
vn 0.9602 0.2794 -0.0000
vn -0.7071 -0.0000 0.7071
vn -0.7408 0.1081 -0.6629
vn -0.6678 0.1198 -0.7347
vn 0.7408 0.1081 -0.6629
vn 0.7071 -0.0000 0.7071
vn 0.6678 0.1198 -0.7347
vn 0.4321 -0.0000 0.9018
vn -0.5000 0.7071 0.5000
vn -0.2706 0.9239 0.2706
vn -0.1538 0.9761 0.1538
vn -0.5000 -0.7071 0.5000
vn -0.1538 -0.9761 0.1538
vn -0.2706 -0.9239 0.2706
vn 0.2706 0.9239 0.2706
vn 0.5000 0.7071 0.5000
vn 0.1538 0.9761 0.1538
vn 0.2706 -0.9239 0.2706
vn 0.1538 -0.9761 0.1538
vn 0.5000 -0.7071 0.5000
vn 0.2706 0.9239 -0.2706
vn 0.2706 -0.9239 -0.2706
vn -0.7071 -0.0000 -0.7071
vn 0.6533 0.3827 -0.6533
vn 0.6533 -0.3827 -0.6533
vn -0.2706 0.9239 -0.2706
vn -0.6533 -0.3827 -0.6533
vn -0.6533 0.3827 -0.6533
vn 0.7071 -0.0000 -0.7071
vn -0.2706 -0.9239 -0.2706
vn 0.4292 0.8909 -0.1485
vn 0.1484 0.8909 0.4292
vn 0.4292 0.8909 0.1484
vn 0.1484 0.8909 -0.4292
vn -0.1484 0.8909 0.4292
vn -0.1484 0.8909 -0.4292
vn -0.4292 0.8909 0.1484
vn -0.4292 0.8909 -0.1484
vn -0.3681 0.3614 -0.8567
vn -0.8567 0.3614 -0.3681
vn -0.2874 0.7215 0.6299
vn -0.8518 0.4867 0.1939
vn 0.8518 0.4867 0.1939
vn 0.8567 0.3614 -0.3681
vn 0.2874 0.7215 0.6299
vn 0.3681 0.3614 -0.8567
vn -0.0000 0.0001 1.0000
vn -0.0000 -0.0002 1.0000
vn 0.2969 0.4696 0.8315
vn 0.8520 -0.0000 0.5235
vn 0.8065 0.1378 0.5749
vn 0.3782 0.5149 0.7693
vn -0.2969 0.4696 0.8315
vn -0.3782 0.5149 0.7693
vn -0.8065 0.1378 0.5749
vn -0.8520 -0.0000 0.5235
vn -0.0000 0.3820 0.9242
vn 0.5622 0.7607 0.3246
vn 0.7510 0.5379 -0.3829
vn -0.2225 0.9664 -0.1285
vn -0.1152 0.8398 -0.5305
vn 0.6588 -0.6491 0.3803
vn -0.8615 0.1018 -0.4974
vn -0.5670 0.2284 -0.7914
vn -0.5622 -0.7607 -0.3246
vn -0.0439 -0.5379 -0.8419
vn 0.9854 0.1155 -0.1252
vn 0.5000 -0.0000 -0.8660
vn 0.7720 -0.3418 -0.5360
vn -0.7510 -0.5379 0.3829
vn -0.9689 0.2284 -0.0953
vn -0.2579 0.5341 -0.8051
vn -0.2916 -0.7991 0.5258
vn -0.1310 -0.9885 -0.0756
vn 0.0439 0.5379 0.8419
vn -0.5000 -0.0000 0.8660
vn 0.3842 0.1155 0.9160
vn -0.0782 -0.3418 0.9365
vn 0.8248 0.3049 0.4762
vn -0.5171 0.8398 0.1655
vn 0.3095 -0.7991 -0.5154
vn -0.8262 0.5341 0.1793
vn -0.3842 0.1155 0.9160
vn -0.0439 0.5379 0.8419
vn -0.8248 0.3049 0.4762
vn -0.5622 0.7607 0.3246
vn -0.6588 -0.6491 0.3803
vn 0.5622 -0.7607 -0.3246
vn 0.1310 -0.9885 -0.0756
vn 0.0439 -0.5379 -0.8419
vn -0.3095 -0.7991 -0.5154
vn 0.1152 0.8398 -0.5305
vn -0.7510 0.5379 -0.3829
vn 0.2225 0.9664 -0.1285
vn -0.5000 -0.0000 -0.8660
vn -0.9854 0.1155 -0.1252
vn -0.7720 -0.3418 -0.5360
vn 0.2579 0.5341 -0.8051
vn 0.8262 0.5341 0.1793
vn 0.9689 0.2284 -0.0953
vn 0.5171 0.8398 0.1655
vn 0.8615 0.1018 -0.4974
vn 0.5670 0.2284 -0.7914
vn 0.5000 -0.0000 0.8660
vn 0.7510 -0.5379 0.3829
vn 0.2916 -0.7991 0.5258
vn 0.0782 -0.3418 0.9365
vn -0.4122 0.9111 -0.0000
vn 0.4122 0.9111 -0.0000
vn 0.9357 0.3528 -0.0000
vn -0.9357 0.3528 -0.0000
vt 0.218750 0.275000
vt 0.218750 0.475000
vt 0.593750 0.225000
vt 0.593750 0.025000
vt 0.593750 0.162888
vt 0.593750 0.117056
vt 0.593750 0.141088
vt 0.968750 0.225000
vt 0.718750 0.162888
vt 0.718750 0.025000
vt 0.656250 0.125000
vt 0.718750 0.175000
vt 0.718750 0.225000
vt 0.718750 0.075000
vt 0.718750 0.094145
vt 0.718750 0.107473
vt 0.718750 0.143713
vt 0.093750 0.225000
vt 0.093750 0.195526
vt 0.093750 0.025000
vt 0.093750 0.083955
vt 0.093750 0.095319
vt 0.093750 0.126218
vt 0.093750 0.166365
vt 0.093750 0.157989
vt 0.093750 0.191494
vt 0.093750 0.216624
vt 0.093750 0.109509
vt 0.093750 0.094408
vt 0.093750 0.127036
vt 0.093750 0.121765
vt 0.093750 0.134022
vt 0.093750 0.091667
vt 0.093750 0.213818
vt 0.093750 0.187804
vt 0.093750 0.207657
vt 0.093750 0.084212
vt 0.093750 0.042343
vt 0.093750 0.126081
vt 0.093750 0.143424
vt 0.093750 0.106576
vt 0.093750 0.123919
vt 0.093750 0.036182
vt 0.093750 0.062196
vt 0.093750 0.125000
vt 0.093750 0.165788
vt 0.218750 0.402490
vt 0.218750 0.303685
s 1
usemtl colormap.353
f 3/1/1 2/2/1 1/2/1
f 2/2/1 3/1/1 4/2/1
f 4/2/2 6/2/2 5/2/2
f 6/2/2 4/2/2 3/1/2
f 7/2/3 4/2/3 5/2/3
f 4/2/3 7/2/3 2/2/3
f 1/2/4 7/2/4 8/2/4
f 7/2/4 1/2/4 2/2/4
f 3/1/5 8/2/5 6/2/5
f 8/2/5 3/1/5 1/2/5
f 11/2/2 10/2/2 9/2/2
f 10/2/2 11/2/2 12/1/2
f 13/2/3 11/2/3 9/2/3
f 11/2/3 13/2/3 14/2/3
f 12/1/1 14/2/1 15/2/1
f 14/2/1 12/1/1 11/2/1
f 15/2/4 13/2/4 16/2/4
f 13/2/4 15/2/4 14/2/4
f 12/1/5 16/2/5 10/2/5
f 16/2/5 12/1/5 15/2/5
f 19/2/6 18/1/7 17/1/8
f 18/1/7 19/2/6 20/1/7
f 20/1/7 19/2/6 21/1/9
f 21/1/9 19/2/6 22/2/10
f 25/2/11 24/1/12 23/1/13
f 24/1/12 25/2/11 26/2/14
f 25/2/11 28/1/15 27/2/16
f 28/1/15 25/2/11 23/1/13
f 22/2/10 29/1/17 21/1/9
f 29/1/17 22/2/10 30/2/18
f 23/1/19 29/1/19 28/1/19
f 29/1/19 23/1/19 21/1/19
f 21/1/19 23/1/19 24/1/19
f 21/1/19 24/1/19 20/1/19
f 30/2/18 28/1/15 29/1/17
f 28/1/15 30/2/18 27/2/16
f 32/1/19 18/1/19 31/1/19
f 18/1/19 32/1/19 17/1/19
f 17/1/19 32/1/19 33/1/19
f 17/1/19 33/1/19 34/1/19
f 22/2/10 27/2/1 30/2/1
f 27/2/1 22/2/10 25/2/11
f 25/2/11 22/2/10 35/2/1
f 26/2/14 25/2/11 35/2/1
f 35/2/1 22/2/10 19/2/6
f 35/2/1 19/2/6 36/2/1
f 36/2/1 19/2/6 37/2/14
f 37/2/14 19/2/6 38/2/20
f 38/2/20 19/2/6 39/2/1
f 38/2/20 39/2/1 40/2/1
f 31/1/12 38/2/20 32/1/21
f 38/2/20 31/1/12 37/2/14
f 33/1/22 38/2/20 40/2/23
f 38/2/20 33/1/22 32/1/21
f 33/1/22 39/2/24 34/1/25
f 39/2/24 33/1/22 40/2/23
f 34/1/25 19/2/6 17/1/8
f 19/2/6 34/1/25 39/2/24
f 42/3/26 5/3/26 41/3/26
f 5/3/26 42/3/26 7/3/26
f 5/3/27 43/3/27 41/3/27
f 43/3/27 5/3/27 6/3/27
f 8/3/28 42/3/28 44/3/28
f 42/3/28 8/3/28 7/3/28
f 6/3/29 44/3/29 43/3/29
f 44/3/29 6/3/29 8/3/29
f 9/3/27 46/3/27 45/3/27
f 46/3/27 9/3/27 10/3/27
f 16/3/28 48/3/28 47/3/28
f 48/3/28 16/3/28 13/3/28
f 48/3/26 9/3/26 45/3/26
f 9/3/26 48/3/26 13/3/26
f 10/3/29 47/3/29 46/3/29
f 47/3/29 10/3/29 16/3/29
f 50/3/30 49/4/31 21/3/31
f 49/4/31 50/3/30 51/4/30
f 53/4/19 51/4/19 52/4/19
f 51/4/19 53/4/19 49/4/19
f 49/4/19 53/4/19 54/4/19
f 49/4/19 54/4/19 55/4/19
f 55/4/19 54/4/19 56/4/19
f 55/4/19 56/4/19 57/4/19
f 23/3/32 54/4/33 53/4/32
f 54/4/33 23/3/32 32/3/33
f 54/4/33 58/3/34 56/4/34
f 58/3/34 54/4/33 32/3/33
f 56/4/34 59/3/35 57/4/35
f 59/3/35 56/4/34 58/3/34
f 21/3/1 60/3/1 50/3/1
f 60/3/1 21/3/1 23/3/1
f 23/3/1 21/3/1 17/3/1
f 23/3/1 17/3/1 32/3/1
f 32/3/1 17/3/1 59/3/1
f 32/3/1 59/3/1 58/3/1
f 60/3/36 51/4/30 50/3/30
f 51/4/30 60/3/36 52/4/36
f 17/3/37 49/4/31 55/4/37
f 49/4/31 17/3/37 21/3/31
f 57/4/35 17/3/37 55/4/37
f 17/3/37 57/4/35 59/3/35
f 23/3/32 52/4/36 60/3/36
f 52/4/36 23/3/32 53/4/32
f 63/4/26 62/5/26 61/4/26
f 62/5/26 63/4/26 64/5/26
f 67/5/1 66/5/1 65/5/1
f 66/5/1 67/5/1 62/5/1
f 66/5/1 62/5/1 64/5/1
f 70/4/38 69/4/39 68/4/39
f 69/4/39 70/4/38 71/4/38
f 73/5/40 68/4/40 72/4/40
f 68/4/40 73/5/40 74/4/40
f 75/3/40 74/4/40 73/5/40
f 68/4/40 74/4/40 76/4/40
s 0
f 74/4/41 75/3/41 77/5/41
s 1
f 68/4/40 76/4/40 70/4/40
f 77/5/40 75/3/40 78/3/40
s 0
f 70/4/42 76/4/42 79/5/42
s 1
f 77/5/40 78/3/40 79/5/40
f 70/4/40 79/5/40 80/4/40
f 79/5/40 78/3/40 81/5/40
f 80/4/40 79/5/40 81/5/40
f 82/5/43 75/3/44 73/5/43
f 75/3/44 82/5/43 83/3/44
f 80/4/45 71/4/38 70/4/38
f 71/4/38 80/4/45 84/4/45
f 68/4/39 85/4/46 72/4/46
f 85/4/46 68/4/39 69/4/39
f 87/3/47 84/4/47 86/5/47
f 66/5/47 84/4/47 87/3/47
f 83/3/47 66/5/47 87/3/47
f 88/4/47 84/4/47 66/5/47
f 88/4/47 71/4/47 84/4/47
f 89/4/47 71/4/47 88/4/47
f 83/3/47 65/5/47 66/5/47
f 71/4/47 89/4/47 69/4/47
s 0
f 65/5/48 69/4/48 89/4/48
s 1
f 82/5/47 65/5/47 83/3/47
f 82/5/47 69/4/47 65/5/47
f 69/4/47 82/5/47 85/4/47
f 82/5/43 72/4/46 85/4/46
f 72/4/46 82/5/43 73/5/43
f 87/3/49 81/5/50 78/3/49
f 81/5/50 87/3/49 86/5/50
f 88/4/19 90/4/19 89/4/19
f 90/4/19 88/4/19 61/4/19
f 61/4/19 88/4/19 63/4/19
f 83/3/44 78/3/49 75/3/44
f 78/3/49 83/3/44 87/3/49
f 61/4/2 67/5/51 90/4/52
f 67/5/51 61/4/2 62/5/2
f 81/5/50 84/4/45 80/4/45
f 84/4/45 81/5/50 86/5/50
f 66/5/4 63/4/4 88/4/4
f 63/4/4 66/5/4 64/5/4
f 67/5/51 89/4/41 90/4/52
f 89/4/41 67/5/53 65/5/41
f 93/5/54 92/4/2 91/4/54
f 92/4/2 93/5/54 94/5/2
f 95/5/29 92/4/29 94/5/29
f 92/4/29 95/5/29 96/4/29
f 99/4/55 98/5/56 97/4/55
f 98/5/56 99/4/55 100/5/56
f 103/4/57 102/4/58 101/4/59
f 102/4/58 103/4/57 104/4/58
f 93/5/1 95/5/1 94/5/1
f 95/5/1 93/5/1 105/5/1
f 105/5/1 93/5/1 106/5/1
f 107/4/19 92/4/19 96/4/19
f 92/4/19 107/4/19 91/4/19
f 91/4/19 107/4/19 108/4/19
f 106/5/60 91/4/61 108/4/60
f 91/4/54 106/5/60 93/5/54
f 95/5/4 107/4/4 96/4/4
f 107/4/4 95/5/4 105/5/4
f 111/3/62 110/3/63 109/3/63
f 110/3/63 111/3/62 112/3/62
f 115/4/64 114/5/65 113/4/64
f 114/5/65 115/4/64 116/5/65
f 101/4/66 116/5/66 115/4/66
f 107/4/66 116/5/66 101/4/66
f 102/4/66 107/4/66 101/4/66
f 105/5/66 116/5/66 107/4/66
f 105/5/66 109/3/66 116/5/66
f 105/5/66 111/3/66 109/3/66
f 102/4/66 108/4/66 107/4/66
f 106/5/66 111/3/66 105/5/66
s 0
f 102/4/66 106/5/66 108/4/66
s 1
f 111/3/66 106/5/66 98/5/66
f 102/4/66 98/5/66 106/5/66
f 98/5/66 102/4/66 97/4/66
f 104/4/58 97/4/55 102/4/58
f 97/4/55 104/4/58 99/4/55
f 109/3/63 114/5/65 116/5/65
f 114/5/65 109/3/63 110/3/63
f 110/3/67 113/4/67 114/5/67
f 117/5/67 113/4/67 110/3/67
f 112/3/67 117/5/67 110/3/67
f 118/4/67 113/4/67 117/5/67
f 112/3/67 119/5/67 117/5/67
f 118/4/67 103/4/67 113/4/67
s 0
f 112/3/60 120/4/60 119/5/60
s 1
f 120/4/67 103/4/67 118/4/67
f 100/5/67 120/4/67 112/3/67
f 103/4/67 120/4/67 104/4/67
f 100/5/67 104/4/67 120/4/67
f 104/4/67 100/5/67 99/4/67
f 98/5/56 112/3/62 111/3/62
f 112/3/62 98/5/56 100/5/56
f 113/4/64 101/4/59 115/4/64
f 101/4/59 113/4/64 103/4/57
f 123/6/68 122/4/29 121/6/69
f 122/4/29 123/6/70 124/4/29
f 125/4/2 121/6/71 122/4/2
f 121/6/71 125/4/2 126/6/71
f 123/6/4 127/4/4 124/4/4
f 127/4/4 123/6/4 128/6/4
f 123/6/4 129/7/4 128/6/4
f 129/7/4 130/3/4 128/6/4
f 130/3/4 129/7/4 131/3/4
f 129/7/4 123/6/4 132/3/4
f 129/7/4 132/3/4 133/3/4
f 127/4/26 126/6/72 125/4/26
f 126/6/72 127/4/26 128/6/73
f 128/6/73 134/3/74 126/6/72
f 134/3/74 128/6/73 130/3/74
f 134/3/1 132/3/1 135/3/1
f 132/3/1 134/3/1 130/3/1
f 134/3/75 121/6/71 126/6/71
f 121/6/71 134/3/75 135/3/75
f 135/3/76 123/6/68 121/6/69
f 123/6/68 135/3/76 132/3/76
f 138/8/19 137/8/19 136/8/19
f 137/8/19 138/8/19 139/8/19
f 138/8/77 41/8/78 139/8/79
f 41/8/78 138/8/77 42/8/77
f 43/8/80 136/8/81 137/8/82
f 136/8/81 43/8/80 44/8/81
f 41/8/78 137/8/82 139/8/79
f 137/8/82 41/8/78 43/8/80
f 44/8/81 138/8/77 136/8/81
f 138/8/77 44/8/81 42/8/77
f 141/8/77 45/8/78 140/8/79
f 45/8/78 141/8/77 48/8/77
f 45/8/78 142/8/82 140/8/79
f 142/8/82 45/8/78 46/8/80
f 47/8/81 141/8/77 143/8/81
f 141/8/77 47/8/81 48/8/77
f 46/8/80 143/8/81 142/8/82
f 143/8/81 46/8/80 47/8/81
f 141/8/19 142/8/19 143/8/19
f 142/8/19 141/8/19 140/8/19
f 146/3/4 145/4/4 144/4/4
f 145/4/4 146/3/4 147/3/4
f 150/9/40 149/10/40 148/9/40
f 149/10/40 150/9/40 151/10/40
f 151/10/19 74/10/19 149/10/19
f 74/10/19 151/10/19 76/10/19
f 151/10/48 79/9/48 76/10/48
f 79/9/48 151/10/48 150/9/48
f 77/9/1 150/9/1 148/9/1
f 150/9/1 77/9/1 79/9/1
f 77/9/41 149/10/41 74/10/41
f 149/10/41 77/9/41 148/9/41
f 117/9/83 152/10/83 118/10/83
f 152/10/83 117/9/83 153/9/83
f 119/9/1 153/9/1 117/9/1
f 153/9/1 119/9/1 154/9/1
f 152/10/67 154/9/67 155/10/67
f 154/9/67 152/10/67 153/9/67
f 152/10/19 120/10/19 118/10/19
f 120/10/19 152/10/19 155/10/19
f 155/10/60 119/9/60 120/10/60
f 119/9/60 155/10/60 154/9/60
f 158/11/4 157/11/4 156/11/4
f 161/12/84 160/13/85 159/13/86
f 164/14/87 163/10/88 162/10/89
f 167/13/90 166/12/91 165/13/92
f 170/10/93 169/10/94 168/14/95
f 173/13/81 172/14/81 171/12/81
f 172/14/81 173/13/81 174/10/81
f 174/10/81 173/13/81 162/10/81
f 162/10/81 173/13/81 160/13/81
f 162/10/81 160/13/81 164/14/81
f 164/14/81 160/13/81 161/12/81
f 175/13/96 160/13/85 173/13/96
f 160/13/85 175/13/96 159/13/86
f 159/13/86 175/13/96 176/13/1
f 162/10/89 177/10/97 174/10/97
f 177/10/97 162/10/89 163/10/88
f 177/10/97 163/10/88 178/10/19
f 180/14/98 175/13/98 179/12/98
f 175/13/98 180/14/98 177/10/98
f 175/13/98 177/10/98 178/10/98
f 175/13/98 178/10/98 176/13/98
f 179/12/99 172/14/100 180/14/100
f 172/14/100 179/12/99 171/12/99
f 179/12/99 173/13/96 171/12/99
f 173/13/96 179/12/99 175/13/96
f 174/10/97 180/14/100 172/14/100
f 180/14/100 174/10/97 177/10/97
f 182/13/101 165/13/92 181/13/1
f 165/13/92 182/13/101 167/13/90
f 167/13/90 182/13/101 183/13/101
f 186/10/77 185/12/77 184/14/77
f 185/12/77 186/10/77 183/13/77
f 183/13/77 186/10/77 170/10/77
f 183/13/77 170/10/77 167/13/77
f 167/13/77 170/10/77 168/14/77
f 167/13/77 168/14/77 166/12/77
f 184/14/102 188/12/103 187/14/102
f 188/12/103 184/14/102 185/12/103
f 182/13/104 187/14/104 188/12/104
f 187/14/104 182/13/104 189/10/104
f 189/10/104 182/13/104 181/13/104
f 189/10/104 181/13/104 190/10/104
f 188/12/103 183/13/101 182/13/101
f 183/13/101 188/12/103 185/12/103
f 169/10/94 189/10/105 190/10/19
f 189/10/105 169/10/94 170/10/93
f 189/10/105 170/10/93 186/10/105
f 186/10/105 187/14/102 189/10/105
f 187/14/102 186/10/105 184/14/102
f 193/10/19 192/10/19 191/10/19
f 192/10/19 193/10/19 194/10/19
f 194/10/19 195/10/19 192/10/19
f 196/10/19 195/10/19 194/10/19
f 195/10/19 196/10/19 197/10/19
f 192/10/19 195/10/19 198/10/19
f 192/10/19 198/10/19 199/10/19
f 199/10/19 198/10/19 200/10/19
f 199/10/26 202/15/26 201/15/26
f 202/15/26 199/10/26 200/10/26
f 202/15/26 200/10/26 203/16/26
f 203/16/26 200/10/26 204/17/26
f 206/15/29 196/10/29 205/15/29
f 196/10/29 206/15/29 197/10/29
f 197/10/29 206/15/29 207/16/29
f 197/10/29 207/16/29 208/17/29
f 198/10/33 204/17/77 200/10/77
f 204/17/77 198/10/33 209/13/33
f 204/17/77 209/13/33 210/13/77
f 211/13/32 198/10/33 195/10/32
f 198/10/33 211/13/32 209/13/33
s 0
f 212/13/42 197/10/42 208/17/42
s 1
f 197/10/81 212/13/81 211/13/32
f 197/10/81 211/13/32 195/10/32
f 215/18/106 214/18/107 213/18/108
f 214/18/107 215/18/106 216/18/109
f 214/18/107 216/18/109 217/18/110
f 217/18/110 216/18/109 218/18/111
f 217/18/110 218/18/111 219/18/112
f 219/18/112 218/18/111 220/18/113
f 221/19/114 220/18/113 218/18/111
f 220/18/113 221/19/114 222/19/115
f 219/18/112 209/19/116 217/18/110
f 209/19/116 219/18/112 210/19/117
f 215/18/106 212/19/118 223/19/119
f 212/19/118 215/18/106 213/18/108
f 213/18/108 211/19/120 212/19/118
f 211/19/120 213/18/108 214/18/107
f 210/19/117 220/18/113 222/19/115
f 220/18/113 210/19/117 219/18/112
f 211/19/120 217/18/110 209/19/116
f 217/18/110 211/19/120 214/18/107
f 224/19/121 215/18/106 223/19/119
f 215/18/106 224/19/121 216/18/109
f 218/18/111 224/19/121 221/19/114
f 224/19/121 218/18/111 216/18/109
f 224/19/121 194/20/30 193/20/31
f 194/20/30 224/19/121 223/19/119
f 221/19/114 193/20/31 191/20/37
f 193/20/31 221/19/114 224/19/121
f 199/20/26 222/19/115 192/20/35
f 222/19/115 199/20/26 201/21/26
f 201/21/26 210/19/117 222/19/115
f 210/19/117 201/21/26 202/21/26
f 210/19/117 202/21/26 203/22/26
f 210/19/117 203/22/26 204/23/26
f 212/19/118 194/20/30 223/19/119
f 194/20/30 212/19/118 205/21/29
f 196/20/29 194/20/30 205/21/29
f 205/21/29 212/19/118 206/21/29
f 206/21/29 212/19/118 207/22/29
f 207/22/29 212/19/118 208/23/29
f 192/20/35 221/19/114 191/20/37
f 221/19/114 192/20/35 222/19/115
f 227/24/4 226/24/4 225/25/122
f 226/24/4 227/24/4 228/26/4
f 226/24/4 228/26/4 229/26/4
f 229/26/4 228/26/4 230/27/4
f 231/18/4 230/27/4 228/26/4
f 229/26/4 230/27/4 232/27/4
f 230/27/4 231/18/4 233/18/4
f 232/27/4 230/27/4 233/18/4
f 236/24/4 235/24/4 234/25/122
f 235/24/4 236/24/4 237/26/4
f 235/24/4 237/26/4 238/26/4
f 238/26/4 237/26/4 239/27/4
f 238/26/4 239/27/4 240/27/4
f 240/27/4 239/27/4 241/18/4
f 240/27/4 242/18/4 238/26/4
f 242/18/4 240/27/4 241/18/4
f 245/28/4 244/29/4 243/29/4
f 244/29/4 245/28/4 246/28/4
f 246/28/4 245/28/4 247/30/4
f 246/28/4 247/30/4 248/31/123
f 248/31/123 247/30/4 249/32/4
f 250/31/4 246/28/4 248/31/123
f 246/28/4 250/31/4 251/30/4
f 251/30/4 250/31/4 252/32/4
f 255/33/124 254/33/125 253/18/126
f 255/33/124 253/18/126 211/18/127
f 256/33/128 209/18/129 210/18/130
f 256/33/128 210/18/130 257/33/131
f 259/20/132 256/33/128 258/20/132
f 256/33/128 259/20/132 255/33/124
f 255/33/124 209/18/129 256/33/128
f 209/18/129 255/33/124 211/18/127
f 280/34/133 279/35/134 271/18/135
f 270/36/136 271/18/135 279/35/134
f 261/37/137 260/38/137 283/39/137
f 283/39/137 260/38/137 282/40/137
f 260/38/137 275/20/137 282/40/137
f 282/40/137 275/20/137 281/39/137
f 275/20/137 276/38/137 281/39/137
f 277/37/137 281/39/137 276/38/137
f 272/41/138 269/42/139 273/43/140
f 274/44/141 273/43/140 269/42/139
f 279/35/134 281/39/142 278/45/143
f 277/37/144 278/45/143 281/39/142
f 262/44/145 264/42/146 273/43/140
f 272/41/138 273/43/140 264/42/146
f 268/46/147 278/45/143 269/42/139
f 274/44/141 269/42/139 278/45/143
f 260/38/148 262/44/145 275/20/149
f 273/43/140 275/20/149 262/44/145
f 270/36/136 279/35/134 268/46/147
f 278/45/143 268/46/147 279/35/134
f 266/35/150 263/45/151 283/39/152
f 261/37/153 283/39/152 263/45/151
f 283/39/152 282/40/154 266/35/150
f 280/34/133 266/35/150 282/40/154
f 280/34/133 271/18/135 266/35/150
f 267/36/155 266/35/150 271/18/135
f 282/40/154 281/39/142 280/34/133
f 279/35/134 280/34/133 281/39/142
f 278/45/143 277/37/144 274/44/141
f 276/38/156 274/44/141 277/37/144
f 276/38/156 275/20/149 274/44/141
f 273/43/140 274/44/141 275/20/149
f 265/46/157 267/36/155 264/42/146
f 264/42/146 267/36/155 272/41/138
f 267/36/155 271/18/135 272/41/138
f 272/41/138 271/18/135 269/42/139
f 271/18/135 270/36/136 269/42/139
f 268/46/147 269/42/139 270/36/136
f 267/36/155 265/46/157 266/35/150
f 263/45/151 266/35/150 265/46/157
f 265/46/157 264/42/146 263/45/151
f 262/44/145 263/45/151 264/42/146
f 263/45/151 262/44/145 261/37/153
f 260/38/148 261/37/153 262/44/145
f 290/39/158 291/35/159 295/40/160
f 294/34/161 295/40/160 291/35/159
f 288/37/162 290/39/162 305/38/162
f 305/38/162 290/39/162 306/20/162
f 290/39/162 295/40/162 306/20/162
f 306/20/162 295/40/162 284/38/162
f 295/40/162 293/39/162 284/38/162
f 285/37/162 284/38/162 293/39/162
f 298/43/163 306/20/164 286/44/165
f 284/38/166 286/44/165 306/20/164
f 307/36/167 292/35/168 304/18/169
f 294/34/161 304/18/169 292/35/168
f 292/35/168 287/45/170 293/39/171
f 285/37/172 293/39/171 287/45/170
f 307/36/167 301/46/173 292/35/168
f 287/45/170 292/35/168 301/46/173
f 302/46/174 297/42/175 303/36/176
f 303/36/176 297/42/175 304/18/169
f 297/42/175 296/41/177 304/18/169
f 304/18/169 296/41/177 307/36/167
f 296/41/177 300/42/178 307/36/167
f 301/46/173 307/36/167 300/42/178
f 302/46/174 289/45/179 297/42/175
f 299/44/180 297/42/175 289/45/179
f 298/43/163 299/44/180 306/20/164
f 305/38/181 306/20/164 299/44/180
f 289/45/179 288/37/182 299/44/180
f 305/38/181 299/44/180 288/37/182
f 303/36/176 304/18/169 291/35/159
f 294/34/161 291/35/159 304/18/169
f 303/36/176 291/35/159 302/46/174
f 289/45/179 302/46/174 291/35/159
f 301/46/173 300/42/178 287/45/170
f 286/44/165 287/45/170 300/42/178
f 296/41/177 298/43/163 300/42/178
f 286/44/165 300/42/178 298/43/163
f 299/44/180 298/43/163 297/42/175
f 296/41/177 297/42/175 298/43/163
f 295/40/160 294/34/161 293/39/171
f 292/35/168 293/39/171 294/34/161
f 291/35/159 290/39/158 289/45/179
f 288/37/182 289/45/179 290/39/158
f 287/45/170 286/44/165 285/37/172
f 284/38/166 285/37/172 286/44/165
f 310/2/183 309/2/184 308/2/184
f 309/2/184 310/2/183 311/2/183
f 308/2/184 313/47/185 312/47/185
f 313/47/185 308/2/184 309/2/184
f 313/47/185 314/48/29 312/47/185
f 314/48/29 313/47/185 315/1/29
f 315/1/29 313/47/185 316/1/29
f 316/1/29 313/47/185 317/48/29
f 320/1/26 319/47/186 318/48/26
f 319/47/186 320/1/26 321/47/186
f 321/47/186 320/1/26 322/1/26
f 321/47/186 322/1/26 323/48/26
f 321/47/186 310/2/183 319/47/186
f 310/2/183 321/47/186 311/2/183
