# Blender 4.3.2
# www.blender.org
mtllib bottle-musterd.mtl
o bottle-musterd
v -0.072053 -0.041600 -0.020800
v -0.072053 -0.041600 -0.280800
v -0.072053 0.041600 -0.020800
v -0.072053 0.041600 -0.280800
v 0.000000 0.083200 -0.020800
v 0.000000 0.083200 -0.280800
v 0.059536 0.034373 0.000000
v 0.000000 0.068747 0.000000
v 0.059536 0.034373 -0.020800
v 0.000000 0.068747 -0.020800
v 0.072053 -0.041600 -0.280800
v 0.072053 -0.041600 -0.020800
v 0.072053 0.041600 -0.280800
v 0.072053 0.041600 -0.020800
v -0.059536 0.034373 0.000000
v -0.059536 0.034373 -0.020800
v 0.006989 -0.006989 -0.393120
v 0.006989 0.006989 -0.393120
v -0.006989 -0.006989 -0.393120
v -0.006989 0.006989 -0.393120
v -0.059536 -0.034373 0.000000
v -0.059536 -0.034373 -0.020800
v 0.059536 -0.034373 0.000000
v 0.000000 -0.068747 0.000000
v 0.000000 -0.068747 -0.020800
v 0.059536 -0.034373 -0.020800
v 0.000000 -0.083200 -0.020800
v 0.000000 -0.083200 -0.280800
v 0.064127 -0.037024 -0.297440
v 0.064127 0.037024 -0.297440
v 0.000000 -0.074048 -0.297440
v 0.049236 0.028427 -0.297440
v 0.000000 0.056853 -0.297440
v 0.049236 0.028427 -0.324480
v 0.000000 0.056853 -0.324480
v -0.049236 -0.028427 -0.297440
v 0.000000 -0.056853 -0.297440
v -0.049236 -0.028427 -0.324480
v 0.000000 -0.056853 -0.324480
v -0.049236 0.028427 -0.297440
v -0.049236 0.028427 -0.324480
v 0.000000 0.074048 -0.297440
v -0.064127 -0.037024 -0.297440
v 0.049236 -0.028427 -0.324480
v 0.049236 -0.028427 -0.297440
v -0.064127 0.037024 -0.297440
v 0.012480 -0.012480 -0.324480
v -0.012480 -0.012480 -0.324480
v 0.012480 0.012480 -0.324480
v -0.012480 0.012480 -0.324480
vn -0.8826 0.3565 0.3064
vn -0.7999 -0.4618 0.3833
vn -0.7466 -0.0462 0.6636
vn -0.9582 -0.1120 -0.2633
vn -0.1659 0.9193 0.3569
vn -0.0000 0.9577 0.2877
vn 0.2546 0.3832 0.8879
vn 0.3371 0.6677 0.6638
vn 0.8491 0.4902 0.1968
vn -0.0000 0.3304 0.9439
vn 0.8782 0.3145 0.3602
vn 0.8422 -0.4862 0.2332
vn 0.9584 0.1104 -0.2634
vn 0.8287 0.4784 0.2906
vn -0.3142 0.6797 0.6629
vn -0.3024 0.1746 0.9371
vn -0.5553 -0.5553 -0.6191
vn 0.5553 0.5553 -0.6191
vn 0.5553 -0.5553 -0.6191
vn -0.4592 -0.0289 0.8879
vn 0.5919 0.0214 0.8057
vn 0.3371 -0.6677 0.6638
vn -0.0000 -0.2974 0.9548
vn 0.4883 -0.0883 0.8682
vn -0.1131 -0.9276 0.3561
vn -0.0000 -0.9249 0.3803
vn 0.2864 -0.5378 -0.7929
vn 0.7364 -0.4252 -0.5262
vn 0.4736 0.6924 -0.5443
vn 0.2390 0.4281 -0.8716
vn 0.3289 0.1899 -0.9251
vn -0.0000 0.9592 -0.2828
vn -0.1831 -0.4094 -0.8938
vn -0.3597 -0.6552 -0.6643
vn -0.0000 -0.9437 -0.3309
vn -0.4449 0.0385 -0.8948
vn -0.4895 -0.0565 -0.8702
vn 0.3226 0.5170 -0.7929
vn -0.3225 -0.5170 -0.7929
vn 0.4449 -0.0385 -0.8948
vn -0.5578 0.0145 -0.8298
vn 0.3294 -0.6717 -0.6635
vn 0.2764 -0.2764 -0.9204
vn -0.2764 -0.2764 -0.9204
vn -0.8286 0.4784 -0.2909
vn -0.2764 0.2764 -0.9204
vn -0.5553 0.5553 -0.6191
vn -0.2035 0.4757 -0.8557
vn -0.7464 0.0506 0.6635
vn 0.2764 0.2764 -0.9204
vt 0.718750 0.285582
vt 0.718750 0.417857
vt 0.718750 0.275000
vt 0.718750 0.475000
vt 0.718750 0.426323
vt 0.718750 0.440079
s 1
usemtl colormap.937
f 3/1/1 2/2/2 1/1/3
f 2/2/2 3/1/1 4/2/4
f 6/2/5 3/1/1 5/1/6
f 3/1/1 6/2/5 4/2/4
f 9/1/7 8/3/8 7/3/9
f 8/3/8 9/1/7 10/1/10
f 13/2/11 12/1/12 11/2/13
f 13/2/11 5/1/6 14/1/14
f 5/1/6 13/2/11 6/2/5
f 10/1/10 15/3/15 8/3/8
f 15/3/15 10/1/10 16/1/16
f 19/4/17 18/4/18 17/4/19
f 22/1/20 15/3/15 16/1/16
f 23/3/21 8/3/8 24/3/22
f 24/3/22 8/3/8 15/3/15
f 24/3/22 22/1/20 25/1/23
f 9/1/7 23/3/21 26/1/24
f 23/3/21 9/1/7 7/3/9
f 23/3/21 25/1/23 26/1/24
f 27/1/25 2/2/2 28/2/26
f 31/5/27 11/2/13 28/2/26
f 11/2/13 31/5/27 29/5/28
f 34/6/29 33/5/30 32/5/31
f 33/5/30 34/6/29 35/6/32
f 37/5/33 38/6/34 39/6/35
f 40/5/36 38/6/34 36/5/37
f 30/5/38 6/2/5 13/2/11
f 43/5/39 28/2/26 2/2/2
f 45/5/40 34/6/29 32/5/31
f 43/5/39 4/2/4 46/5/41
f 39/6/35 34/6/29 44/6/42
f 34/6/29 39/6/35 47/6/43
f 48/6/44 39/6/35 38/6/34
f 40/5/36 35/6/32 41/6/45
f 50/6/46 18/4/18 20/4/47
f 47/6/43 19/4/17 17/4/19
f 50/6/46 19/4/17 48/6/44
f 27/1/25 22/1/20 1/1/3
f 1/1/3 22/1/20 3/1/1
f 27/1/25 25/1/23 22/1/20
f 16/1/16 3/1/1 22/1/20
f 27/1/25 26/1/24 25/1/23
f 10/1/10 3/1/1 16/1/16
f 12/1/12 26/1/24 27/1/25
f 9/1/7 5/1/6 10/1/10
f 42/5/48 40/5/36 46/5/41
f 46/5/41 40/5/36 43/5/39
f 36/5/37 43/5/39 40/5/36
f 42/5/48 32/5/31 33/5/30
f 37/5/33 31/5/27 43/5/39
f 32/5/31 30/5/38 45/5/40
f 45/5/40 31/5/27 37/5/33
f 12/1/12 13/2/11 14/1/14
f 18/4/18 19/4/17 20/4/47
f 15/3/15 22/1/20 21/3/49
f 8/3/8 23/3/21 7/3/9
f 24/3/22 15/3/15 21/3/49
f 22/1/20 24/3/22 21/3/49
f 25/1/23 23/3/21 24/3/22
f 2/2/2 27/1/25 1/1/3
f 28/2/26 12/1/12 27/1/25
f 12/1/12 28/2/26 11/2/13
f 29/5/28 13/2/11 11/2/13
f 13/2/11 29/5/28 30/5/38
f 38/6/34 37/5/33 36/5/37
f 38/6/34 40/5/36 41/6/45
f 6/2/5 30/5/38 42/5/48
f 28/2/26 43/5/39 31/5/27
f 34/6/29 45/5/40 44/6/42
f 4/2/4 43/5/39 2/2/2
f 47/6/43 39/6/35 48/6/44
f 49/6/50 34/6/29 47/6/43
f 34/6/29 49/6/50 35/6/32
f 48/6/44 38/6/34 50/6/46
f 35/6/32 49/6/50 50/6/46
f 41/6/45 50/6/46 38/6/34
f 35/6/32 50/6/46 41/6/45
f 39/6/35 45/5/40 37/5/33
f 45/5/40 39/6/35 44/6/42
f 35/6/32 40/5/36 33/5/30
f 42/5/48 4/2/4 6/2/5
f 4/2/4 42/5/48 46/5/41
f 17/4/19 49/6/50 47/6/43
f 49/6/50 17/4/19 18/4/18
f 18/4/18 50/6/46 49/6/50
f 19/4/17 47/6/43 48/6/44
f 19/4/17 50/6/46 20/4/47
f 10/1/10 5/1/6 3/1/1
f 26/1/24 12/1/12 9/1/7
f 14/1/14 9/1/7 12/1/12
f 9/1/7 14/1/14 5/1/6
f 42/5/48 33/5/30 40/5/36
f 37/5/33 43/5/39 36/5/37
f 30/5/38 32/5/31 42/5/48
f 29/5/28 45/5/40 30/5/38
f 45/5/40 29/5/28 31/5/27
