# Blender 4.3.2
# www.blender.org
mtllib display-bread.mtl
o display-bread.007
v 0.250000 -0.200000 -0.450000
v 0.250000 -0.250000 -0.450000
v -0.250000 -0.200000 -0.450000
v -0.250000 -0.250000 -0.450000
v 0.250000 -0.250000 0.000000
v -0.250000 -0.250000 0.000000
v 0.250000 -0.200000 0.000000
v -0.250000 -0.200000 0.000000
v 0.250000 -0.197014 -0.299254
v 0.250000 -0.100000 -0.275000
v -0.250000 -0.197014 -0.299254
v -0.250000 0.200000 -0.200000
v -0.250000 -0.100000 -0.275000
v 0.250000 0.200000 -0.200000
v 0.250000 0.200000 0.000000
v -0.250000 0.200000 0.000000
v 0.250000 0.200000 -0.100000
v -0.250000 0.200000 -0.100000
v 0.250000 0.200000 -0.250000
v 0.250000 0.250000 -0.250000
v -0.250000 0.200000 -0.250000
v -0.250000 0.250000 -0.250000
v 0.250000 0.250000 -0.100000
v -0.250000 0.250000 -0.100000
v -0.250000 -0.300000 0.000000
v -0.350000 0.200000 0.000000
v -0.350000 -0.300000 0.000000
v -0.350000 -0.300000 -0.500000
v -0.250000 -0.300000 -0.500000
v -0.350000 0.200000 -0.100000
v -0.250000 0.300000 -0.100000
v -0.350000 0.300000 -0.100000
v -0.250000 0.300000 -0.248461
v -0.250000 0.250000 -0.312500
v -0.250000 -0.100000 -0.400000
v -0.250000 -0.150000 -0.500000
v -0.250000 -0.100000 -0.450000
v -0.350000 -0.100000 -0.400000
v -0.350000 -0.150000 -0.500000
v -0.350000 -0.100000 -0.450000
v -0.350000 0.250000 -0.312500
v -0.350000 0.300000 -0.248461
v 0.350000 0.200000 0.000000
v 0.350000 -0.300000 0.000000
v 0.250000 -0.300000 0.000000
v 0.250000 -0.300000 -0.500000
v 0.350000 -0.300000 -0.500000
v 0.350000 0.200000 -0.100000
v 0.350000 0.300000 -0.100000
v 0.250000 0.300000 -0.100000
v 0.350000 0.300000 -0.248461
v 0.350000 0.250000 -0.312500
v 0.350000 -0.100000 -0.400000
v 0.350000 -0.150000 -0.500000
v 0.350000 -0.100000 -0.450000
v 0.250000 -0.100000 -0.400000
v 0.250000 -0.150000 -0.500000
v 0.250000 -0.100000 -0.450000
v 0.250000 0.250000 -0.312500
v 0.250000 0.300000 -0.248461
v 0.058195 0.127250 -0.328735
v 0.058195 -0.072844 -0.328735
v 0.048498 0.127250 -0.335329
v 0.048498 -0.072844 -0.335329
v 0.048498 0.127250 -0.410048
v 0.048498 -0.072844 -0.410048
v 0.088717 0.127250 -0.437397
v 0.088717 -0.072844 -0.437397
v 0.229121 -0.072844 -0.251846
v 0.229121 0.127250 -0.251846
v 0.229121 -0.072844 -0.328735
v 0.229121 0.127250 -0.328735
v 0.198598 0.127250 -0.437397
v 0.143658 0.127250 -0.447408
v 0.198598 -0.072844 -0.437397
v 0.143658 -0.072844 -0.447408
v 0.058195 -0.072844 -0.251846
v 0.058195 0.127250 -0.251846
v 0.238818 -0.072844 -0.335329
v 0.238818 0.127250 -0.335329
v 0.253539 -0.072844 -0.372689
v 0.253539 0.127250 -0.372689
v 0.082790 0.127250 -0.227250
v 0.204525 0.127250 -0.227250
v 0.082790 -0.072844 -0.227250
v 0.204525 -0.072844 -0.227250
v 0.238818 0.127250 -0.410048
v 0.238818 -0.072844 -0.410048
v 0.033777 -0.072844 -0.372689
v 0.033777 0.127250 -0.372689
v 0.221917 -0.072844 -0.234454
v 0.221917 0.127250 -0.234454
v 0.065399 -0.072844 -0.234454
v 0.065399 0.127250 -0.234454
v 0.097530 -0.095594 -0.415879
v 0.143658 -0.095594 -0.424283
v 0.067092 -0.095594 -0.350197
v 0.058229 -0.095594 -0.372689
v 0.220224 -0.095594 -0.350197
v 0.206371 -0.095594 -0.340777
v 0.229086 -0.095594 -0.372689
v 0.067092 -0.095594 -0.395181
v 0.220224 -0.095594 -0.395181
v 0.206371 -0.095594 -0.256371
v 0.189786 -0.095594 -0.415879
v 0.080945 -0.095594 -0.256371
v 0.080945 -0.095594 -0.340777
v 0.087316 -0.095594 -0.250000
v 0.082811 -0.095594 -0.251866
v 0.200000 -0.095594 -0.250000
v 0.204505 -0.095594 -0.251866
v 0.082811 0.150000 -0.251866
v 0.087316 0.150000 -0.250000
v 0.229086 0.150000 -0.372689
v 0.220224 0.150000 -0.395181
v 0.204505 0.150000 -0.251866
v 0.206371 0.150000 -0.256371
v 0.097530 0.150000 -0.415879
v 0.067092 0.150000 -0.395181
v 0.143658 0.150000 -0.424283
v 0.189785 0.150000 -0.415879
v 0.067092 0.150000 -0.350197
v 0.080945 0.150000 -0.340777
v 0.200000 0.150000 -0.250000
v 0.206371 0.150000 -0.340777
v 0.220224 0.150000 -0.350197
v 0.058229 0.150000 -0.372689
v 0.080945 0.150000 -0.256371
v -0.229121 0.127250 -0.328735
v -0.229121 -0.072844 -0.328735
v -0.238818 0.127250 -0.335329
v -0.238818 -0.072844 -0.335329
v -0.238818 0.127250 -0.410048
v -0.238818 -0.072844 -0.410048
v -0.198598 0.127250 -0.437397
v -0.198598 -0.072844 -0.437397
v -0.058195 -0.072844 -0.251846
v -0.058195 0.127250 -0.251846
v -0.058195 -0.072844 -0.328735
v -0.058195 0.127250 -0.328735
v -0.088717 0.127250 -0.437397
v -0.143658 0.127250 -0.447408
v -0.088717 -0.072844 -0.437397
v -0.143658 -0.072844 -0.447408
v -0.229121 -0.072844 -0.251846
v -0.229121 0.127250 -0.251846
v -0.048498 -0.072844 -0.335329
v -0.048498 0.127250 -0.335329
v -0.033777 -0.072844 -0.372689
v -0.033777 0.127250 -0.372689
v -0.082790 0.127250 -0.227250
v -0.082790 -0.072844 -0.227250
v -0.204525 0.127250 -0.227250
v -0.204525 -0.072844 -0.227250
v -0.048498 0.127250 -0.410048
v -0.048498 -0.072844 -0.410048
v -0.253539 -0.072844 -0.372689
v -0.253539 0.127250 -0.372689
v -0.065399 -0.072844 -0.234454
v -0.065399 0.127250 -0.234454
v -0.221917 -0.072844 -0.234454
v -0.221917 0.127250 -0.234454
v -0.189785 -0.095594 -0.415879
v -0.143658 -0.095594 -0.424283
v -0.220224 -0.095594 -0.350197
v -0.229086 -0.095594 -0.372689
v -0.080945 -0.095594 -0.340777
v -0.067092 -0.095594 -0.350197
v -0.058229 -0.095594 -0.372689
v -0.220224 -0.095594 -0.395181
v -0.067092 -0.095594 -0.395181
v -0.080945 -0.095594 -0.256371
v -0.097530 -0.095594 -0.415879
v -0.206371 -0.095594 -0.256371
v -0.206371 -0.095594 -0.340777
v -0.200000 -0.095594 -0.250000
v -0.204505 -0.095594 -0.251866
v -0.087316 -0.095594 -0.250000
v -0.082811 -0.095594 -0.251866
v -0.204505 0.150000 -0.251866
v -0.200000 0.150000 -0.250000
v -0.058229 0.150000 -0.372689
v -0.067092 0.150000 -0.395181
v -0.082811 0.150000 -0.251866
v -0.080945 0.150000 -0.256371
v -0.189786 0.150000 -0.415879
v -0.220224 0.150000 -0.395181
v -0.143658 0.150000 -0.424283
v -0.097530 0.150000 -0.415879
v -0.220224 0.150000 -0.350197
v -0.206371 0.150000 -0.340777
v -0.087316 0.150000 -0.250000
v -0.067092 0.150000 -0.350197
v -0.080945 0.150000 -0.340777
v -0.229086 0.150000 -0.372689
v -0.206371 0.150000 -0.256371
vn -0.0000 -0.0000 1.0000
vn -0.0000 0.7071 0.7071
vn -0.0000 1.0000 -0.0000
vn -0.1262 -0.9151 -0.3829
vn -0.0000 0.2425 -0.9701
vn -0.9208 0.3899 -0.0000
vn -0.0000 -0.7071 -0.7071
vn -0.0000 0.7071 -0.7071
vn -0.0000 -1.0000 -0.0000
vn -0.5774 0.5774 0.5773
vn 0.5773 -0.5774 0.5774
vn 0.5774 0.5773 0.5773
vn 0.9045 0.3015 0.3015
vn -0.9045 0.3015 0.3015
vn -0.5773 0.5774 0.5774
vn 0.5773 0.5774 0.5774
vn 0.6616 0.5914 -0.4609
vn 0.6602 0.7481 0.0672
vn 0.8746 0.3821 -0.2984
vn 0.6596 0.5056 -0.5561
vn 0.6549 0.7454 0.1245
vn -0.5773 -0.5773 -0.5774
vn -0.5774 -0.5774 0.5774
vn -0.8746 0.3821 -0.2983
vn -0.6600 -0.0111 -0.7512
vn -0.6597 0.5087 -0.5532
vn -0.6597 0.2556 -0.7067
vn -0.6599 0.5454 -0.5167
vn 0.5774 -0.5774 -0.5774
vn 0.8095 0.2627 -0.5250
vn -0.7143 0.4966 -0.4932
vn -0.7010 0.5052 -0.5034
vn 0.2526 0.8939 -0.3703
vn -0.7681 0.1813 0.6142
vn -0.8612 -0.2248 0.4558
vn -0.8612 0.2248 0.4558
vn -0.7681 -0.1813 0.6142
vn -0.3727 0.1807 -0.9102
vn -0.7681 -0.1813 -0.6142
vn -0.7681 0.1813 -0.6142
vn -0.3727 -0.1807 -0.9102
vn 0.8612 -0.2249 0.4559
vn 0.9646 0.1807 0.1919
vn 0.9646 -0.1807 0.1919
vn 0.8612 0.2249 0.4558
vn 0.3727 -0.1807 -0.9102
vn -0.0000 0.1807 -0.9835
vn 0.3728 0.1807 -0.9102
vn -0.0000 -0.1807 -0.9835
vn -0.9646 0.1807 0.1919
vn -0.9646 -0.1807 0.1919
vn 0.9832 -0.1827 -0.0000
vn 0.7681 0.1813 0.6142
vn 0.7681 -0.1812 0.6141
vn 0.9832 0.1827 -0.0000
vn -0.1919 -0.1807 0.9646
vn 0.1919 0.1807 0.9646
vn -0.1919 0.1807 0.9646
vn 0.1919 -0.1807 0.9646
vn 0.7681 -0.1813 -0.6141
vn 0.7681 0.1813 -0.6142
vn -0.9832 0.1827 -0.0000
vn -0.9832 -0.1827 -0.0000
vn 0.6951 0.1831 0.6951
vn 0.6952 -0.1832 0.6951
vn -0.6952 0.1832 0.6951
vn -0.6951 -0.1832 0.6951
vn -0.3496 -0.3862 -0.8536
vn -0.0000 -0.3844 -0.9232
vn -0.7179 -0.3940 0.5740
vn -0.9152 -0.4030 -0.0000
vn 0.7178 -0.3940 0.5740
vn 0.8019 -0.4205 0.4244
vn 0.9152 -0.4030 -0.0000
vn -0.7178 -0.3940 -0.5740
vn 0.7179 -0.3940 -0.5740
vn 0.9050 -0.3854 0.1800
vn 0.3496 -0.3862 -0.8536
vn -0.9050 -0.3854 0.1801
vn -0.8019 -0.4205 0.4245
vn -0.1800 -0.3854 0.9050
vn -0.6464 -0.4053 0.6464
vn 0.1800 -0.3854 0.9050
vn 0.6464 -0.4053 0.6464
vn -0.1801 0.3854 0.9050
vn -0.6464 0.4053 0.6464
vn 0.7178 0.3940 -0.5740
vn 0.9152 0.4030 -0.0000
vn 0.6464 0.4053 0.6464
vn 0.9050 0.3854 0.1800
vn -0.7179 0.3940 -0.5740
vn -0.3496 0.3862 -0.8536
vn -0.0000 0.3844 -0.9232
vn 0.3496 0.3862 -0.8536
vn -0.8019 0.4205 0.4244
vn -0.7178 0.3940 0.5740
vn 0.1800 0.3854 0.9050
vn 0.7179 0.3940 0.5740
vn 0.8019 0.4205 0.4245
vn -0.9152 0.4030 -0.0000
vn -0.9050 0.3854 0.1800
vn -0.8612 -0.2249 0.4558
vn 0.8612 -0.2248 0.4559
vn 0.8612 0.2248 0.4558
vn 0.7681 -0.1813 0.6141
vn -0.9050 -0.3854 0.1800
vn 0.1801 -0.3854 0.9050
vn -0.1800 0.3854 0.9050
vt 0.593750 0.225000
vt 0.593750 0.025000
vt 0.718750 0.225000
vt 0.718750 0.025000
vt 0.718750 0.176128
vt 0.718750 0.105000
vt 0.218750 0.025000
vt 0.218750 0.065000
vt 0.218750 0.150000
vt 0.218750 0.124385
vt 0.218750 0.185000
vt 0.218750 0.225000
vt 0.218750 0.205000
vt 0.468750 0.150000
vt 0.468750 0.185000
vt 0.468750 0.205000
vt 0.468750 0.065000
vt 0.468750 0.124385
vt 0.468750 0.225000
vt 0.718750 0.123183
vt 0.718750 0.117193
vt 0.718750 0.215906
vt 0.718750 0.191061
vt 0.718750 0.047344
vt 0.718750 0.157122
vt 0.718750 0.031544
vt 0.718750 0.196358
vt 0.718750 0.203993
vt 0.718750 0.136690
vt 0.718750 0.128132
vt 0.718750 0.177555
vt 0.718750 0.051455
vt 0.718750 0.045667
vt 0.718750 0.047362
vt 0.968750 0.047362
vt 0.968750 0.128132
vt 0.968750 0.051455
vt 0.968750 0.196358
vt 0.968750 0.045667
vt 0.968750 0.177555
vt 0.968750 0.136690
vt 0.968750 0.157122
vt 0.968750 0.203993
s 1
usemtl colormap.010
f 3/1/1 2/1/2 1/1/1
f 2/1/2 3/1/1 4/1/2
f 2/1/2 6/2/3 5/2/3
f 6/2/3 2/1/2 4/1/2
f 1/3/3 8/4/3 7/4/3
f 8/4/3 1/3/3 3/3/3
f 11/3/4 10/5/5 9/3/5
f 10/5/5 11/3/4 12/4/6
f 12/4/6 14/4/5 10/5/5
f 17/6/3 16/4/2 15/4/2
f 16/4/2 17/6/3 18/6/3
f 21/3/7 20/3/8 19/3/7
f 20/3/8 21/3/7 22/3/8
f 24/6/2 17/6/1 23/6/2
f 17/6/1 24/6/2 18/6/1
f 21/3/7 17/6/9 18/6/9
f 17/6/9 21/3/7 19/3/7
f 20/3/8 24/6/2 23/6/2
f 24/6/2 20/3/8 22/3/8
f 16/4/2 5/4/1 15/4/2
f 26/7/10 25/7/11 16/7/12
f 18/8/13 26/7/10 16/7/12
f 26/7/10 18/8/13 30/8/14
f 32/8/15 18/8/13 31/8/16
f 31/8/16 34/9/17 33/10/18
f 34/9/17 18/8/13 35/11/19
f 25/7/11 35/11/19 16/7/12
f 35/11/19 36/12/20 37/13/21
f 26/7/10 28/12/22 27/7/23
f 28/12/22 26/7/10 38/11/24
f 28/12/22 38/11/24 39/12/25
f 40/13/26 39/12/25 38/11/24
f 38/11/24 26/7/10 30/8/14
f 38/11/24 30/8/14 41/9/27
f 41/9/27 30/8/14 32/8/15
f 41/9/27 32/8/15 42/10/28
f 46/12/22 44/7/11 45/7/23
f 44/7/11 46/12/22 47/12/29
f 48/8/13 15/7/10 43/7/12
f 15/7/10 48/8/13 17/8/14
f 50/8/15 48/8/13 49/8/16
f 48/8/13 50/8/15 17/8/14
f 49/8/16 52/9/17 51/10/18
f 48/8/13 52/9/17 49/8/16
f 52/9/17 48/8/13 53/11/19
f 54/12/30 44/7/11 47/12/29
f 58/13/26 57/12/31 56/11/24
f 59/9/32 50/8/15 60/10/28
f 34/14/17 38/15/24 41/14/27
f 37/16/21 38/15/24 35/15/19
f 32/17/15 33/18/18 42/18/28
f 28/19/22 36/19/20 29/19/29
f 34/14/17 42/18/28 33/18/18
f 42/18/28 34/14/17 41/14/27
f 37/16/21 39/19/25 40/16/26
f 56/15/24 52/14/17 53/15/19
f 52/14/17 56/15/24 59/14/32
f 56/15/24 55/16/33 58/16/26
f 50/17/15 51/18/18 60/18/28
f 46/19/22 54/19/30 47/19/29
f 52/14/17 60/18/28 51/18/18
f 60/18/28 52/14/17 59/14/32
f 57/19/31 55/16/33 54/19/30
f 55/16/33 57/19/31 58/16/26
f 12/4/6 11/3/4 13/5/5
f 5/4/1 16/4/2 6/4/1
f 25/7/11 26/7/10 27/7/23
f 28/12/22 25/7/11 27/7/23
f 25/7/11 28/12/22 29/12/29
f 18/8/13 32/8/15 30/8/14
f 18/8/13 34/9/17 31/8/16
f 16/7/12 35/11/19 18/8/13
f 25/7/11 36/12/20 35/11/19
f 36/12/20 25/7/11 29/12/29
f 15/7/10 44/7/11 43/7/12
f 44/7/11 15/7/10 45/7/23
f 43/7/12 53/11/19 48/8/13
f 44/7/11 53/11/19 43/7/12
f 44/7/11 54/12/30 53/11/19
f 53/11/19 54/12/30 55/13/33
f 15/7/10 46/12/22 45/7/23
f 46/12/22 15/7/10 56/11/24
f 46/12/22 56/11/24 57/12/31
f 56/11/24 15/7/10 17/8/14
f 56/11/24 17/8/14 59/9/32
f 59/9/32 17/8/14 50/8/15
f 38/15/24 34/14/17 35/15/19
f 38/15/24 37/16/21 40/16/26
f 33/18/18 32/17/15 31/17/16
f 36/19/20 28/19/22 39/19/25
f 39/19/25 37/16/21 36/19/20
f 55/16/33 56/15/24 53/15/19
f 51/18/18 50/17/15 49/17/16
f 54/19/30 46/19/22 57/19/31
f 63/20/34 62/21/35 61/21/36
f 62/21/35 63/20/34 64/20/37
f 67/22/38 66/23/39 65/23/40
f 66/23/39 67/22/38 68/22/41
f 71/21/42 70/24/43 69/24/44
f 70/24/43 71/21/42 72/21/45
f 75/22/46 74/3/47 73/22/48
f 74/3/47 75/22/46 76/3/49
f 78/24/50 62/21/35 77/24/51
f 62/21/35 78/24/50 61/21/36
f 81/25/52 80/20/53 79/20/54
f 80/20/53 81/25/52 82/25/55
f 85/4/56 84/4/57 83/4/58
f 84/4/57 85/4/56 86/4/59
f 74/3/47 68/22/41 67/22/38
f 68/22/41 74/3/47 76/3/49
f 88/23/60 73/22/48 87/23/61
f 73/22/48 88/23/60 75/22/46
f 88/23/60 82/25/55 81/25/52
f 82/25/55 88/23/60 87/23/61
f 71/21/42 80/20/53 72/21/45
f 80/20/53 71/21/42 79/20/54
f 90/25/62 66/23/39 89/25/63
f 66/23/39 90/25/62 65/23/40
f 63/20/34 89/25/63 64/20/37
f 89/25/63 63/20/34 90/25/62
f 69/24/44 92/26/64 91/26/65
f 92/26/64 69/24/44 70/24/43
f 86/4/59 92/26/64 84/4/57
f 92/26/64 86/4/59 91/26/65
f 94/26/66 77/24/51 93/26/67
f 77/24/51 94/26/66 78/24/50
f 94/26/66 85/4/56 83/4/58
f 85/4/56 94/26/66 93/26/67
f 76/3/49 95/27/68 68/22/41
f 95/27/68 76/3/49 96/28/69
f 89/25/63 97/29/70 64/20/37
f 97/29/70 89/25/63 98/25/71
f 71/21/42 99/29/72 79/20/54
f 99/29/72 71/21/42 100/30/73
f 99/29/72 81/25/52 79/20/54
f 81/25/52 99/29/72 101/25/74
f 68/22/41 102/31/75 66/23/39
f 102/31/75 68/22/41 95/27/68
f 89/25/63 102/31/75 98/25/71
f 102/31/75 89/25/63 66/23/39
f 103/31/76 81/25/52 101/25/74
f 81/25/52 103/31/76 88/23/60
f 104/32/77 71/21/42 69/24/44
f 71/21/42 104/32/77 100/30/73
f 105/27/78 76/3/49 75/22/46
f 76/3/49 105/27/78 96/28/69
f 62/21/35 106/32/79 77/24/51
f 106/32/79 62/21/35 107/30/80
f 93/26/67 108/33/81 85/4/56
f 108/33/81 93/26/67 109/34/82
f 64/20/37 107/30/80 62/21/35
f 107/30/80 64/20/37 97/29/70
f 77/24/51 109/34/82 93/26/67
f 109/34/82 77/24/51 106/32/79
f 103/31/76 75/22/46 88/23/60
f 75/22/46 103/31/76 105/27/78
f 85/4/56 110/33/83 86/4/59
f 110/33/83 85/4/56 108/33/81
f 111/34/84 69/24/44 91/26/65
f 69/24/44 111/34/84 104/32/77
f 110/33/83 91/26/65 86/4/59
f 91/26/65 110/33/83 111/34/84
f 94/26/66 113/33/85 112/34/86
f 113/33/85 94/26/66 83/4/58
f 82/25/55 115/31/87 114/25/88
f 115/31/87 82/25/55 87/23/61
f 70/24/43 116/34/89 92/26/64
f 116/34/89 70/24/43 117/32/90
f 67/22/38 119/31/91 118/27/92
f 119/31/91 67/22/38 65/23/40
f 74/3/47 118/27/92 120/28/93
f 118/27/92 74/3/47 67/22/38
f 121/27/94 74/3/47 120/28/93
f 74/3/47 121/27/94 73/22/48
f 63/20/34 123/30/95 122/29/96
f 123/30/95 63/20/34 61/21/36
f 83/4/58 124/33/97 113/33/85
f 124/33/97 83/4/58 84/4/57
f 72/21/45 126/29/98 125/30/99
f 126/29/98 72/21/45 80/20/53
f 122/29/96 90/25/62 63/20/34
f 90/25/62 122/29/96 127/25/100
f 84/4/57 116/34/89 124/33/97
f 116/34/89 84/4/57 92/26/64
f 82/25/55 126/29/98 80/20/53
f 126/29/98 82/25/55 114/25/88
f 115/31/87 73/22/48 121/27/94
f 73/22/48 115/31/87 87/23/61
f 112/34/86 78/24/50 94/26/66
f 78/24/50 112/34/86 128/32/101
f 128/32/101 61/21/36 78/24/50
f 61/21/36 128/32/101 123/30/95
f 72/21/45 117/32/90 70/24/43
f 117/32/90 72/21/45 125/30/99
f 119/31/91 90/25/62 127/25/100
f 90/25/62 119/31/91 65/23/40
f 111/35/9 100/36/9 104/37/9
f 105/38/9 100/36/9 111/35/9
f 105/38/9 111/35/9 110/39/9
f 105/38/9 110/39/9 108/39/9
f 103/40/9 100/36/9 105/38/9
f 103/40/9 99/41/9 100/36/9
f 99/41/9 103/40/9 101/42/9
f 105/38/9 108/39/9 96/43/9
f 96/43/9 108/39/9 95/38/9
f 95/38/9 108/39/9 107/36/9
f 107/36/9 108/39/9 109/35/9
f 107/36/9 109/35/9 106/37/9
f 95/38/9 107/36/9 102/40/9
f 102/40/9 107/36/9 97/41/9
f 102/40/9 97/41/9 98/42/9
f 115/40/3 126/41/3 114/42/3
f 126/41/3 115/40/3 121/38/3
f 126/41/3 121/38/3 125/36/3
f 125/36/3 121/38/3 117/37/3
f 117/37/3 121/38/3 116/35/3
f 116/35/3 121/38/3 124/39/3
f 124/39/3 121/38/3 113/39/3
f 113/39/3 121/38/3 120/43/3
f 113/39/3 120/43/3 118/38/3
f 113/39/3 118/38/3 123/36/3
f 113/39/3 123/36/3 112/35/3
f 128/37/3 112/35/3 123/36/3
f 123/36/3 118/38/3 119/40/3
f 123/36/3 119/40/3 122/41/3
f 122/41/3 119/40/3 127/42/3
f 131/20/34 130/21/102 129/21/36
f 130/21/102 131/20/34 132/20/37
f 135/22/38 134/23/39 133/23/40
f 134/23/39 135/22/38 136/22/41
f 139/21/103 138/24/43 137/24/44
f 138/24/43 139/21/103 140/21/104
f 143/22/46 142/3/47 141/22/48
f 142/3/47 143/22/46 144/3/49
f 146/24/50 130/21/102 145/24/51
f 130/21/102 146/24/50 129/21/36
f 149/25/52 148/20/53 147/20/105
f 148/20/53 149/25/52 150/25/55
f 153/4/58 152/4/59 151/4/57
f 152/4/59 153/4/58 154/4/56
f 142/3/47 136/22/41 135/22/38
f 136/22/41 142/3/47 144/3/49
f 156/23/60 141/22/48 155/23/61
f 141/22/48 156/23/60 143/22/46
f 156/23/60 150/25/55 149/25/52
f 150/25/55 156/23/60 155/23/61
f 139/21/103 148/20/53 140/21/104
f 148/20/53 139/21/103 147/20/105
f 158/25/62 134/23/39 157/25/63
f 134/23/39 158/25/62 133/23/40
f 131/20/34 157/25/63 132/20/37
f 157/25/63 131/20/34 158/25/62
f 137/24/44 160/26/64 159/26/65
f 160/26/64 137/24/44 138/24/43
f 152/4/59 160/26/64 151/4/57
f 160/26/64 152/4/59 159/26/65
f 162/26/66 145/24/51 161/26/67
f 145/24/51 162/26/66 146/24/50
f 162/26/66 154/4/56 153/4/58
f 154/4/56 162/26/66 161/26/67
f 144/3/49 163/27/68 136/22/41
f 163/27/68 144/3/49 164/28/69
f 157/25/63 165/29/70 132/20/37
f 165/29/70 157/25/63 166/25/71
f 167/30/73 147/20/105 139/21/103
f 147/20/105 167/30/73 168/29/72
f 168/29/72 149/25/52 147/20/105
f 149/25/52 168/29/72 169/25/74
f 136/22/41 170/31/75 134/23/39
f 170/31/75 136/22/41 163/27/68
f 157/25/63 170/31/75 166/25/71
f 170/31/75 157/25/63 134/23/39
f 171/31/76 149/25/52 169/25/74
f 149/25/52 171/31/76 156/23/60
f 172/32/77 139/21/103 137/24/44
f 139/21/103 172/32/77 167/30/73
f 173/27/78 144/3/49 143/22/46
f 144/3/49 173/27/78 164/28/69
f 130/21/102 174/32/106 145/24/51
f 174/32/106 130/21/102 175/30/80
f 161/26/67 176/33/81 154/4/56
f 176/33/81 161/26/67 177/34/82
f 165/29/70 130/21/102 132/20/37
f 130/21/102 165/29/70 175/30/80
f 145/24/51 177/34/82 161/26/67
f 177/34/82 145/24/51 174/32/106
f 171/31/76 143/22/46 156/23/60
f 143/22/46 171/31/76 173/27/78
f 176/33/81 152/4/59 154/4/56
f 152/4/59 176/33/81 178/33/107
f 179/34/84 137/24/44 159/26/65
f 137/24/44 179/34/84 172/32/77
f 178/33/107 159/26/65 152/4/59
f 159/26/65 178/33/107 179/34/84
f 162/26/66 181/33/108 180/34/86
f 181/33/108 162/26/66 153/4/58
f 150/25/55 183/31/87 182/25/88
f 183/31/87 150/25/55 155/23/61
f 138/24/43 184/34/89 160/26/64
f 184/34/89 138/24/43 185/32/90
f 135/22/38 187/31/91 186/27/92
f 187/31/91 135/22/38 133/23/40
f 142/3/47 186/27/92 188/28/93
f 186/27/92 142/3/47 135/22/38
f 189/27/94 142/3/47 188/28/93
f 142/3/47 189/27/94 141/22/48
f 131/20/34 191/30/95 190/29/96
f 191/30/95 131/20/34 129/21/36
f 181/33/108 151/4/57 192/33/97
f 151/4/57 181/33/108 153/4/58
f 194/30/99 148/20/53 193/29/98
f 148/20/53 194/30/99 140/21/104
f 190/29/96 158/25/62 131/20/34
f 158/25/62 190/29/96 195/25/100
f 151/4/57 184/34/89 192/33/97
f 184/34/89 151/4/57 160/26/64
f 150/25/55 193/29/98 148/20/53
f 193/29/98 150/25/55 182/25/88
f 183/31/87 141/22/48 189/27/94
f 141/22/48 183/31/87 155/23/61
f 180/34/86 146/24/50 162/26/66
f 146/24/50 180/34/86 196/32/101
f 196/32/101 129/21/36 146/24/50
f 129/21/36 196/32/101 191/30/95
f 140/21/104 185/32/90 138/24/43
f 185/32/90 140/21/104 194/30/99
f 187/31/91 158/25/62 195/25/100
f 158/25/62 187/31/91 133/23/40
f 179/35/9 167/36/9 172/37/9
f 173/38/9 167/36/9 179/35/9
f 173/38/9 179/35/9 178/39/9
f 173/38/9 178/39/9 176/39/9
f 171/40/9 167/36/9 173/38/9
f 171/40/9 168/41/9 167/36/9
f 168/41/9 171/40/9 169/42/9
f 173/38/9 176/39/9 164/43/9
f 164/43/9 176/39/9 163/38/9
f 163/38/9 176/39/9 175/36/9
f 175/36/9 176/39/9 177/35/9
f 175/36/9 177/35/9 174/37/9
f 163/38/9 175/36/9 170/40/9
f 170/40/9 175/36/9 165/41/9
f 170/40/9 165/41/9 166/42/9
f 183/40/3 193/41/3 182/42/3
f 193/41/3 183/40/3 189/38/3
f 193/41/3 189/38/3 194/36/3
f 194/36/3 189/38/3 185/37/3
f 185/37/3 189/38/3 184/35/3
f 184/35/3 189/38/3 192/39/3
f 192/39/3 189/38/3 181/39/3
f 181/39/3 189/38/3 188/43/3
f 181/39/3 188/43/3 186/38/3
f 181/39/3 186/38/3 191/36/3
f 181/39/3 191/36/3 180/35/3
f 196/37/3 180/35/3 191/36/3
f 191/36/3 186/38/3 187/40/3
f 191/36/3 187/40/3 190/41/3
f 190/41/3 187/40/3 195/42/3
