# Blender 4.3.2
# www.blender.org
mtllib tableCoffee.mtl
o tableCoffee
v -0.160000 -0.060000 -0.070000
v -0.200000 -0.060000 -0.070000
v -0.160000 -0.060000 -0.180000
v -0.200000 -0.060000 -0.180000
v 0.420996 -0.060000 -0.070000
v -0.160000 -0.060000 -0.050000
v 0.420996 -0.060000 -0.050000
v -0.160000 -0.060000 -0.000000
v -0.200000 -0.060000 -0.000000
v -0.200000 -0.060000 -0.050000
v 0.460996 -0.060000 -0.050000
v 0.420996 -0.060000 -0.000000
v 0.460996 -0.060000 -0.000000
v 0.460996 -0.060000 -0.070000
v 0.460996 -0.060000 -0.180000
v 0.420996 -0.060000 -0.180000
v -0.160000 0.260000 -0.050000
v -0.200000 0.260000 -0.050000
v 0.420996 0.260000 -0.050000
v 0.420996 0.300000 -0.050000
v -0.160000 0.300000 -0.050000
v 0.420996 -0.100000 -0.050000
v -0.160000 -0.100000 -0.050000
v 0.460996 0.260000 -0.050000
v 0.420996 0.260000 0.000000
v 0.460996 0.260000 0.000000
v -0.160000 0.260000 -0.070000
v 0.420996 0.260000 -0.070000
v 0.460996 0.260000 -0.070000
v 0.420996 0.260000 -0.180000
v 0.460996 0.260000 -0.180000
v -0.160000 0.260000 0.000000
v -0.200000 0.260000 0.000000
v -0.200000 0.260000 -0.070000
v -0.200000 0.260000 -0.180000
v -0.160000 0.260000 -0.180000
v -0.160000 -0.100000 0.000000
v -0.200000 -0.100000 0.000000
v 0.460996 -0.100000 -0.230000
v 0.460996 0.300000 -0.230000
v -0.200000 -0.100000 -0.230000
v -0.200000 0.300000 -0.230000
v -0.200000 0.300000 0.000000
v 0.460996 -0.100000 0.000000
v 0.460996 0.300000 0.000000
v -0.160000 -0.100000 -0.180000
v -0.160000 0.300000 -0.180000
v 0.420996 -0.100000 -0.180000
v 0.420996 0.300000 -0.180000
v -0.160000 -0.100000 -0.070000
v 0.420996 -0.100000 -0.070000
v 0.420996 -0.100000 0.000000
v 0.420996 0.300000 0.000000
v 0.420996 0.300000 -0.070000
v -0.160000 0.300000 -0.070000
v -0.160000 0.300000 0.000000
vn -0.5774 0.5773 -0.5774
vn 0.5773 0.5773 -0.5774
vn 0.5773 0.5773 0.5774
vn -0.9045 0.3015 0.3015
vn -0.5773 0.5773 -0.5774
vn 0.5774 0.5774 0.5773
vn -0.5773 0.5774 0.5774
vn 0.5774 0.5774 0.5774
vn -0.5773 0.5773 0.5774
vn 0.5773 0.5774 0.5773
vn 0.5774 0.5774 -0.5774
vn 0.9045 0.3015 0.3015
vn -0.3015 0.3015 0.9045
vn 0.5774 -0.5773 0.5773
vn -0.9045 -0.3015 0.3015
vn -0.5774 0.5773 0.5773
vn -0.5774 -0.5774 0.5773
vn -0.3015 0.9045 0.3015
vn 0.3015 0.9045 0.3015
vn -0.3015 -0.9045 0.3015
vn 0.3015 -0.9045 0.3015
vn 0.9045 -0.3015 0.3015
vn 0.5773 -0.5774 0.5774
vn -0.5774 -0.5774 0.5774
vn 0.5773 -0.5773 -0.5774
vn -0.5774 -0.5773 -0.5773
vn 0.5774 -0.5774 0.5774
vn 0.5774 -0.5773 0.5774
vn -0.5774 -0.5773 -0.5774
vn 0.5774 -0.5773 -0.5773
vn 1.0000 -0.0000 -0.0000
vn 0.5774 -0.5773 -0.5774
vn -0.0000 -0.0000 1.0000
vn -0.3015 -0.3015 0.9045
vn -0.5774 0.5773 0.5774
vn -0.3015 0.9045 -0.3015
vn 0.3015 -0.9045 -0.3015
vn 0.5774 0.5773 0.5773
vn 0.3015 0.9045 -0.3015
vn -0.3015 -0.9045 -0.3015
vn -1.0000 -0.0000 -0.0000
vt -7.874016 2.755906
vt -6.299212 2.755906
vt -6.299212 7.086614
vt -7.874016 7.086614
vt 16.574650 2.755906
vt -6.299212 1.968504
vt -7.874016 0.000000
vt -6.299212 0.000000
vt 16.574650 0.000000
vt 18.149450 0.000000
vt 18.149450 1.968504
vt 18.149450 2.755906
vt 18.149450 7.086614
vt 16.574650 7.086614
vt -6.299212 -2.362205
vt -6.299212 10.236220
vt -7.874016 10.236220
vt -7.874016 -2.362205
vt 16.574650 10.236220
vt 16.574650 11.811020
vt -6.299212 11.811020
vt 16.574650 -3.937008
vt 16.574650 -2.362205
vt -6.299212 -3.937008
vt 18.149450 -2.362205
vt 18.149450 10.236220
vt -18.149450 0.000000
vt -16.574650 0.000000
vt -16.574650 1.968504
vt -18.149450 1.968504
vt 6.299212 1.968504
vt 6.299212 2.755906
vt -16.574650 2.755906
vt 7.874016 1.968504
vt 6.299212 0.000000
vt 7.874016 0.000000
vt 7.874016 7.086614
vt 6.299212 7.086614
vt -3.937008 9.055119
vt -3.937008 0.000000
vt -2.362205 0.000000
vt -2.362205 7.086614
vt 11.811020 9.055119
vt 3.937008 9.055119
vt -11.811020 9.055119
vt 2.362205 7.086614
vt -10.236220 1.968504
vt -10.236220 7.086614
vt -10.236220 -0.000000
vt 2.362205 0.000000
vt 3.937008 -0.000000
vt 2.362205 2.755906
vt 2.362205 1.968504
vt -10.236220 2.755906
vt 6.299212 0.000000
vt 7.874016 0.000000
vt 7.874016 9.055119
vt 18.149450 -3.937008
vt -2.362205 1.968504
vt 10.236220 1.968504
vt 10.236220 2.755906
vt 10.236220 -0.000000
vt 11.811020 -0.000000
vt 11.811020 1.968504
vt 10.236220 7.086614
vt 11.811020 2.755906
vt -3.937008 1.968504
vt -3.937008 -0.000000
vt -2.362205 -0.000000
vt 3.937008 2.755906
vt 3.937008 7.086614
vt -11.811020 7.086614
vt -11.811020 0.000000
vt -10.236220 -0.000000
vt -7.874016 11.811020
vt 6.299212 10.236220
vt 6.299212 -2.362205
vt 7.874016 -2.362205
vt 6.299212 11.811020
vt -16.574650 11.811020
vt -16.574650 -3.937008
vt 6.299212 -3.937008
vt 16.574650 0.000000
vt 18.149450 0.000000
vt 18.149450 9.055119
vt 16.574650 1.968504
vt -7.874016 9.055119
vt -7.874016 0.000000
vt -7.874016 1.968504
vt -18.149450 2.755906
vt -16.574650 7.086614
vt -18.149450 7.086614
vt 7.874016 2.755906
vt -7.874016 -3.937008
vt -18.149450 11.811020
vt -18.149450 -3.937008
vt 7.874016 -3.937008
vt 7.874016 11.811020
vt -2.362205 2.755906
vt 11.811020 0.000000
vt 10.236220 -0.000000
vt -11.811020 -0.000000
vt -18.149450 9.055119
vt 18.149450 11.811020
vt 11.811020 7.086614
vt -3.937008 7.086614
vt -3.937008 2.755906
vt 3.937008 0.000000
vt 3.937008 1.968504
vt 2.362205 0.000000
vt -11.811020 2.755906
vt -11.811020 1.968504
vt 7.874016 10.236220
vt -16.574650 10.236220
vt -16.574650 -2.362205
vt -18.149450 10.236220
vt -18.149450 -2.362205
vt -6.299212 0.000000
s 1
usemtl wood.009
f 2/1/1 1/2/2 3/3/3
f 3/3/3 4/4/4 2/1/1
f 5/5/5 1/2/2 6/6/6
f 9/7/7 8/8/8 6/6/6
f 12/9/9 13/10/8 11/11/10
f 5/5/5 14/12/11 15/13/12
f 15/13/12 16/14/13 5/5/5
f 6/15/6 17/16/14 18/17/15
f 18/17/15 10/18/16 6/15/6
f 17/16/14 19/19/17 20/20/18
f 20/20/18 21/21/19 17/16/14
f 22/22/20 7/23/16 6/15/6
f 6/15/6 23/24/21 22/22/20
f 19/19/17 7/23/16 11/25/10
f 11/25/10 24/26/22 19/19/17
f 26/27/23 25/28/24 19/29/17
f 19/29/17 24/30/22 26/27/23
f 19/29/17 17/31/14 27/32/25
f 27/32/25 28/33/26 19/29/17
f 18/34/15 17/31/14 32/35/23
f 32/35/23 33/36/24 18/34/15
f 35/37/15 36/38/27 27/32/25
f 37/24/28 8/15/8 9/18/7
f 41/39/29 38/40/24 9/41/7
f 4/42/4 42/43/5 41/39/29
f 39/44/30 40/45/2 15/46/12
f 40/45/2 24/47/22 31/48/22
f 40/45/2 26/49/23 24/47/22
f 13/50/8 44/51/23 15/46/12
s 0
f 15/46/31 14/52/31 13/50/31
f 14/52/31 11/53/31 13/50/31
s 1
f 14/52/11 29/54/32 11/53/10
s 0
f 29/54/31 31/48/31 24/47/31
s 1
f 3/15/3 36/16/27 35/17/15
f 35/17/15 4/18/4 3/15/3
s 0
f 36/16/33 3/15/33 46/24/33
f 47/21/33 36/16/33 46/24/33
s 1
f 47/21/19 48/22/20 16/23/13
f 47/21/19 16/23/13 30/19/34
f 30/19/34 49/20/18 47/21/19
f 15/25/12 31/26/22 30/19/34
f 37/55/28 38/56/24 41/57/29
f 41/57/29 23/31/21 37/55/28
f 53/20/35 25/19/24 26/26/23
f 44/58/23 13/25/8 12/23/9
f 12/23/9 52/22/24 44/58/23
f 7/59/16 19/60/17 28/61/26
f 19/60/17 25/62/24 53/63/35
f 53/63/35 20/64/18 19/60/17
f 30/65/34 28/61/26 54/66/36
f 22/67/20 52/68/24 12/69/9
f 6/53/6 1/52/2 27/54/25
f 3/46/3 1/52/2 50/70/37
f 50/70/37 46/71/21 3/46/3
f 27/54/25 36/48/27 47/72/19
f 56/73/38 32/74/23 17/47/14
f 32/16/23 56/21/38 43/75/9
f 27/76/25 1/77/2 2/78/1
f 27/76/25 55/79/39 54/80/36
f 51/81/40 50/82/37 1/77/2
f 53/83/35 45/84/8 40/85/2
f 40/85/2 20/86/18 53/83/35
f 54/5/36 21/6/19 20/86/18
f 40/85/2 49/14/18 54/5/36
f 40/85/2 47/3/19 49/14/18
f 21/6/19 54/5/36 55/2/39
f 21/6/19 55/2/39 42/87/5
f 55/2/39 47/3/19 42/87/5
f 47/3/19 40/85/2 42/87/5
f 21/6/19 42/87/5 43/88/9
f 6/6/6 7/86/16 5/5/5
f 6/6/6 10/89/16 9/7/7
f 11/11/10 7/86/16 12/9/9
f 29/90/32 28/33/26 30/91/34
f 30/91/34 31/92/22 29/90/32
f 27/32/25 34/93/26 35/37/15
f 9/18/7 38/94/24 37/24/28
f 40/95/2 39/96/30 41/97/29
f 41/97/29 42/98/5 40/95/2
s 0
f 2/99/41 4/42/41 9/41/41
f 9/41/41 10/59/41 2/99/41
s 1
f 10/59/16 34/61/26 2/99/1
f 10/59/16 18/60/15 34/61/26
s 0
f 18/60/41 35/65/41 34/61/41
s 1
f 9/41/7 4/42/4 41/39/29
f 4/42/4 35/65/15 42/43/5
f 35/65/15 18/60/15 42/43/5
f 18/60/15 43/100/9 42/43/5
f 18/60/15 33/101/24 43/100/9
f 15/46/12 44/51/23 39/44/30
f 40/45/2 31/48/22 15/46/12
f 40/45/2 45/102/8 26/49/23
f 29/54/32 24/47/22 11/53/10
f 47/21/19 46/24/21 48/22/20
f 30/19/34 16/23/13 15/25/12
f 41/57/29 50/32/37 23/31/21
f 50/32/37 22/29/20 23/31/21
f 41/57/29 46/38/21 50/32/37
f 41/57/29 48/91/20 46/38/21
f 22/29/20 50/32/37 51/33/40
f 22/29/20 51/33/40 39/103/30
f 51/33/40 48/91/20 39/103/30
f 48/91/20 41/57/29 39/103/30
f 22/29/20 39/103/30 44/27/23
f 44/27/23 52/28/24 22/29/20
f 26/26/23 45/104/8 53/20/35
f 28/61/26 5/99/5 7/59/16
f 54/66/36 49/105/18 30/65/34
f 48/106/20 51/107/40 5/99/5
f 5/99/5 16/42/13 48/106/20
f 12/69/9 7/59/16 22/67/20
f 27/54/25 17/47/14 6/53/6
f 37/108/28 23/109/21 6/53/6
f 6/53/6 8/110/8 37/108/28
f 47/72/19 55/111/39 27/54/25
f 17/47/14 21/112/19 56/73/38
f 43/75/9 33/17/24 32/16/23
f 2/78/1 34/113/26 27/76/25
f 54/80/36 28/114/26 27/76/25
f 1/77/2 5/115/5 51/81/40
f 5/115/5 28/114/26 29/116/32
f 29/116/32 14/117/11 5/115/5
f 40/85/2 54/5/36 20/86/18
f 43/88/9 56/118/38 21/6/19
