# Blender 4.3.2
# www.blender.org
mtllib crypt-large-roof.mtl
o crypt-large-roof
v 0.500000 1.050000 0.000000
v -0.500000 1.050000 0.000000
v 0.500000 1.050000 -0.100000
v -0.500000 1.050000 -0.100000
v -0.550000 1.000000 0.000000
v -0.550000 1.000000 -0.100000
v 0.550000 1.000000 0.000000
v 0.550000 1.000000 -0.100000
v -0.500000 -1.050000 0.000000
v -0.500000 -1.050000 -0.100000
v -0.550000 -1.000000 0.000000
v -0.550000 -1.000000 -0.100000
v 0.500000 -1.050000 -0.100000
v 0.500000 -1.050000 0.000000
v 0.550000 -1.000000 -0.100000
v 0.550000 -1.000000 0.000000
v 0.450000 -0.950000 -0.100000
v 0.450000 0.950000 -0.100000
v 0.283333 -0.950000 -0.100000
v 0.283333 -0.900000 -0.100000
v 0.283333 0.950000 -0.100000
v -0.283333 -0.950000 -0.100000
v -0.283333 -0.900000 -0.100000
v -0.450000 -0.950000 -0.100000
v -0.450000 0.950000 -0.100000
v -0.283333 0.950000 -0.100000
v -0.283333 0.900000 -0.100000
v 0.283333 0.900000 -0.100000
v -0.016667 -0.900000 -0.300000
v 0.016667 -0.900000 -0.300000
v 0.016667 0.900000 -0.300000
v -0.016667 0.900000 -0.300000
v 0.050000 -0.950000 -0.400000
v 0.050000 0.950000 -0.400000
v -0.050000 -0.950000 -0.400000
v -0.050000 0.950000 -0.400000
v 0.016667 0.950000 -0.300000
v -0.016667 0.950000 -0.300000
v -0.016667 -0.950000 -0.300000
v 0.016667 -0.950000 -0.300000
v -0.258876 0.466610 -0.243343
v -0.198876 0.491610 -0.288343
v -0.268936 0.572021 -0.235798
v -0.278876 0.391611 -0.228343
v -0.188936 0.572021 -0.295798
v -0.118876 0.491610 -0.348343
v -0.328936 0.597021 -0.190798
v -0.188936 0.772021 -0.295798
v -0.118876 0.291611 -0.348343
v -0.268936 0.772021 -0.235798
v -0.328936 0.747021 -0.190798
v -0.348936 0.672021 -0.175798
v -0.302200 -0.530409 -0.210850
v -0.258876 0.316610 -0.243343
v -0.322201 -0.605409 -0.195850
v -0.242200 -0.505409 -0.255850
v -0.198876 0.291611 -0.288343
v -0.162200 -0.505409 -0.315850
v -0.302200 -0.680409 -0.210850
v -0.242200 -0.705409 -0.255850
v -0.162200 -0.705409 -0.315850
v 0.294636 0.656073 -0.216523
v 0.354636 0.631073 -0.171523
v 0.214636 0.656073 -0.276523
v 0.374636 0.556073 -0.156523
v 0.137786 -0.173156 -0.334160
v 0.214636 0.456073 -0.276523
v 0.217786 -0.173156 -0.274160
v 0.277786 -0.198156 -0.229160
v 0.294636 0.456073 -0.216523
v 0.137786 -0.373156 -0.334160
v 0.217786 -0.373156 -0.274160
v 0.277786 -0.348156 -0.229160
v 0.297786 -0.273156 -0.214160
v 0.354636 0.481073 -0.171523
v -0.228876 0.291611 -0.328343
v -0.118876 0.291611 -0.348343
v -0.198876 0.491610 -0.288343
v -0.228876 0.491610 -0.328343
v -0.118876 0.491610 -0.348343
v -0.288876 0.316610 -0.283343
v -0.308876 0.391611 -0.268343
v -0.288876 0.466610 -0.283343
v -0.258876 0.466610 -0.243343
v -0.298936 0.572021 -0.275798
v -0.188936 0.572021 -0.295798
v -0.268936 0.772021 -0.235798
v -0.298936 0.772021 -0.275798
v -0.188936 0.772021 -0.295798
v -0.358936 0.597021 -0.230798
v -0.378936 0.672021 -0.215798
v -0.358936 0.747021 -0.230798
v -0.328936 0.597021 -0.190798
v -0.272200 -0.705409 -0.295850
v -0.162200 -0.705409 -0.315850
v -0.242200 -0.505409 -0.255850
v -0.272200 -0.505409 -0.295850
v -0.162200 -0.505409 -0.315850
v -0.332200 -0.680409 -0.250850
v -0.352201 -0.605409 -0.235850
v -0.332200 -0.530409 -0.250850
v -0.322201 -0.605409 -0.195850
v -0.302200 -0.680409 -0.210850
v -0.302200 -0.530409 -0.210850
v 0.247786 -0.173156 -0.314160
v 0.217786 -0.173156 -0.274160
v 0.137786 -0.173156 -0.334160
v 0.247786 -0.373156 -0.314160
v 0.307786 -0.198156 -0.269160
v 0.327786 -0.273156 -0.254160
v 0.307786 -0.348156 -0.269160
v 0.277786 -0.198156 -0.229160
v 0.277786 -0.348156 -0.229160
v 0.324636 0.656074 -0.256523
v 0.294636 0.656074 -0.216523
v 0.214636 0.656074 -0.276523
v 0.294636 0.456073 -0.216523
v 0.324636 0.456073 -0.256523
v 0.214636 0.456073 -0.276523
v 0.384636 0.631073 -0.211523
v 0.404636 0.556073 -0.196523
v 0.384636 0.481073 -0.211523
v 0.374636 0.556073 -0.156523
v 0.354636 0.631073 -0.171523
v 0.354636 0.481073 -0.171523
vn 0.0706 0.7613 -0.6445
vn -0.0358 0.7507 0.6596
vn 0.3510 0.8473 0.3986
vn -0.3321 0.8018 -0.4968
vn -0.5062 0.5556 0.6597
vn -0.8683 0.3596 -0.3417
vn 0.7151 0.5584 -0.4205
vn 0.8683 0.3596 0.3417
vn -0.7073 -0.5948 0.3821
vn -0.3350 -0.8089 -0.4832
vn -0.4676 -0.5907 0.6576
vn 0.7512 -0.0079 0.6600
vn 0.5356 -0.5268 0.6600
vn -0.8552 -0.3542 -0.3785
vn 0.3530 -0.5785 -0.7354
vn 0.4666 -0.5916 -0.6575
vn 0.1551 -0.1059 -0.9822
vn -0.2158 -0.5720 -0.7913
vn 0.1551 0.1059 -0.9822
vn -0.7962 -0.5437 -0.2654
vn -0.2158 0.5720 -0.7913
vn 0.7962 -0.5437 -0.2654
vn 0.2158 -0.5720 -0.7913
vn -0.1551 0.1059 -0.9822
vn 0.2158 0.5720 -0.7913
vn 0.2424 -0.6424 0.7271
vn -0.2424 -0.6424 0.7271
vn -0.2424 0.6424 0.7271
vn 0.7962 0.5437 -0.2654
vn -0.7962 0.5437 -0.2654
vn 0.2424 0.6424 0.7271
vn -0.2424 -0.6424 -0.7271
vn 0.2424 0.6424 -0.7271
vn 0.2423 -0.6424 -0.7271
vn -0.2424 0.6424 -0.7271
vn -0.1956 0.7857 0.5869
vn 0.1956 0.7857 0.5869
vn -0.1551 -0.1059 -0.9822
vn 0.1956 -0.7857 0.5869
vn -0.1956 -0.7857 0.5869
vn -0.6000 -0.0000 -0.8000
vn -0.9497 0.1253 -0.2869
vn -0.6795 0.4826 -0.5526
vn -0.9461 -0.1426 -0.2906
vn -0.7225 -0.5938 -0.3541
vn -0.4937 -0.6612 -0.5649
vn 0.6000 -0.0000 -0.8000
vn 0.5976 -0.6361 -0.4881
vn 0.5034 -0.0751 -0.8608
vn -0.1716 -0.2831 -0.9436
vn -0.1473 -0.7250 -0.6728
vn -0.1716 0.2831 -0.9436
vn -0.2301 0.8766 -0.4226
vn -0.0116 0.9749 0.2225
vn -0.9646 0.2424 -0.1042
vn -0.4736 0.7493 -0.4629
vn -0.1647 0.6010 0.7821
vn -0.1572 -0.5976 0.7862
vn -0.9646 -0.2424 -0.1042
vn -0.7387 -0.6632 0.1203
vn -0.5450 -0.7268 -0.4179
vn -0.4383 0.8669 -0.2376
vn -0.6309 0.6292 -0.4539
vn -0.0237 -0.9726 0.2315
vn -0.6576 0.6973 0.2853
vn -0.5310 -0.0320 0.8468
vn -0.9808 -0.0000 0.1952
vn 0.1716 0.2831 -0.9436
vn 0.0237 0.9726 0.2315
vn 0.1473 0.7250 -0.6728
vn 0.2301 -0.8766 -0.4226
vn 0.1573 0.5975 0.7863
vn 0.9646 0.2424 -0.1042
vn 0.7387 0.6632 0.1203
vn 0.9019 0.2970 -0.3136
vn 0.4771 -0.4571 -0.7506
vn 0.9601 -0.2086 -0.1862
vn 0.1716 -0.2831 -0.9436
vn 0.1572 0.5976 0.7862
vn 0.5310 0.0320 0.8468
vn 0.0116 -0.9749 0.2225
vn 0.6576 -0.6973 0.2853
vn 0.1647 -0.6010 0.7821
vn -0.9019 -0.2970 -0.3136
vn -0.1573 -0.5975 0.7863
vn 0.4736 -0.7493 -0.4629
vt 0.093750 0.100000
vt 0.093750 0.075000
vt 0.093750 0.150000
vt 0.843750 0.175000
vt 0.843750 0.100000
vt 0.843750 0.150000
vt 0.843750 0.133949
vt 0.843750 0.147086
vt 0.843750 0.135836
vt 0.843750 0.132086
vt 0.843750 0.148950
vt 0.843750 0.162086
vt 0.843750 0.122699
vt 0.843750 0.118949
vt 0.843750 0.127712
vt 0.843750 0.123962
vt 0.843750 0.138962
vt 0.843750 0.153962
vt 0.843750 0.129131
vt 0.843750 0.144131
vt 0.843750 0.117881
vt 0.843750 0.114131
vt 0.843750 0.158540
vt 0.843750 0.143540
vt 0.843750 0.132290
vt 0.843750 0.128540
vt 0.781250 0.125000
s 1
usemtl colormap.016
f 3/1/1 2/2/2 1/2/3
f 2/2/2 3/1/1 4/1/4
f 4/1/4 5/2/5 2/2/2
f 5/2/5 4/1/4 6/1/6
f 8/1/7 1/2/3 7/2/8
f 1/2/3 8/1/7 3/1/1
f 11/2/9 10/1/10 9/2/11
f 1/2/3 16/2/12 7/2/8
f 16/2/12 1/2/3 14/2/13
f 14/2/13 1/2/3 2/2/2
f 16/2/12 8/1/7 7/2/8
f 5/2/5 12/1/14 11/2/9
f 12/1/14 5/2/5 6/1/6
f 13/1/15 8/1/7 15/1/16
f 17/1/17 10/1/10 19/1/18
f 3/1/1 18/1/19 4/1/4
f 19/1/18 10/1/10 20/1/20
f 4/1/4 18/1/19 21/1/21
f 23/1/22 20/1/20 22/1/23
f 4/1/4 25/1/24 10/1/10
f 4/1/4 10/1/10 12/1/14
f 4/1/4 26/1/25 25/1/24
f 4/1/4 21/1/21 26/1/25
f 20/1/20 29/3/26 30/3/27
f 31/3/28 27/1/29 28/1/30
f 27/1/29 31/3/28 32/3/31
f 35/4/32 34/4/33 33/4/34
f 34/4/33 35/4/32 36/4/35
f 34/4/33 21/5/21 18/5/19
f 21/5/21 34/4/33 37/6/36
f 37/6/36 34/4/33 38/6/37
f 36/4/35 38/6/37 34/4/33
f 25/5/24 38/6/37 36/4/35
f 38/6/37 25/5/24 26/5/25
f 35/4/32 22/5/23 24/5/38
f 22/5/23 35/4/32 39/6/39
f 39/6/39 35/4/32 40/6/40
f 33/4/34 40/6/40 35/4/32
f 17/5/17 40/6/40 33/4/34
f 40/6/40 17/5/17 19/5/18
f 19/5/18 30/6/27 40/6/40
f 23/5/22 39/6/39 29/6/26
f 39/6/39 23/5/22 22/5/23
f 32/6/31 26/5/25 27/5/29
f 28/5/30 37/6/36 31/6/28
f 38/6/37 31/6/28 37/6/36
f 31/6/28 38/6/37 32/6/31
f 43/7/41 42/8/41 41/9/41
f 43/7/41 41/9/41 44/10/42
f 45/11/41 42/8/41 43/7/41
f 42/8/41 45/11/41 46/12/41
f 48/11/41 46/12/41 45/11/41
f 48/11/41 36/4/35 46/12/41
f 46/12/41 36/4/35 49/12/41
f 25/5/24 51/13/43 52/14/44
f 25/5/24 52/14/44 24/5/38
f 47/13/41 24/5/38 52/14/44
f 47/13/41 44/10/42 53/15/41
f 54/9/45 53/15/41 44/10/42
f 47/13/41 53/15/41 55/16/41
f 54/9/45 56/17/41 53/15/41
f 57/8/46 56/17/41 54/9/45
f 57/8/46 58/18/41 56/17/41
f 36/4/35 61/18/41 49/12/41
f 61/18/41 35/4/32 24/5/38
f 34/4/33 62/19/47 64/20/47
f 63/21/47 18/5/19 65/22/47
f 34/4/33 64/20/47 66/23/47
f 67/20/47 66/23/47 64/20/47
f 67/20/47 68/24/47 66/23/47
f 67/20/47 69/25/47 68/24/47
f 70/19/47 69/25/47 67/20/47
f 72/24/48 33/4/34 71/23/49
f 73/25/47 17/5/17 33/4/34
f 70/19/47 74/26/47 69/25/47
f 17/5/17 74/26/47 18/5/19
f 18/5/19 74/26/47 65/22/47
f 74/26/47 70/19/47 75/21/47
f 65/22/47 74/26/47 75/21/47
f 77/27/50 57/27/46 76/27/51
f 80/27/52 79/27/53 78/27/54
f 79/27/53 82/27/55 83/27/56
f 77/27/50 79/27/53 80/27/52
f 78/27/54 83/27/56 84/27/57
f 83/27/56 44/27/42 84/27/57
f 44/27/42 83/27/56 82/27/55
f 93/27/58 91/27/59 90/27/60
f 85/27/61 93/27/58 90/27/60
f 92/27/62 87/27/54 88/27/63
f 52/27/44 92/27/62 91/27/59
f 95/27/50 60/27/64 94/27/51
f 96/27/54 101/27/65 104/27/57
f 101/27/65 96/27/54 97/27/63
f 102/27/66 101/27/65 100/27/67
f 107/27/68 106/27/69 105/27/70
f 71/27/49 108/27/71 72/27/48
f 108/27/71 107/27/68 105/27/70
f 112/27/72 110/27/73 109/27/74
f 112/27/72 105/27/70 106/27/69
f 116/27/68 115/27/69 114/27/70
f 120/27/75 118/27/76 114/27/70
f 118/27/76 120/27/75 121/27/77
f 118/27/76 116/27/68 114/27/70
f 116/27/68 118/27/76 119/27/78
f 121/27/77 124/27/79 123/27/80
f 124/27/79 121/27/77 120/27/75
f 114/27/70 124/27/79 120/27/75
f 124/27/79 114/27/70 115/27/69
f 117/27/81 122/27/82 125/27/83
f 122/27/82 117/27/81 118/27/76
f 122/27/82 123/27/80 125/27/83
f 123/27/80 122/27/82 121/27/77
f 10/1/10 11/2/9 12/1/14
f 15/1/16 14/2/13 13/1/15
f 14/2/13 15/1/16 16/2/12
f 10/1/10 14/2/13 9/2/11
f 14/2/13 10/1/10 13/1/15
f 14/2/13 2/2/2 9/2/11
f 9/2/11 2/2/2 5/2/5
f 9/2/11 5/2/5 11/2/9
f 8/1/7 16/2/12 15/1/16
f 8/1/7 13/1/15 3/1/1
f 3/1/1 13/1/15 17/1/17
f 17/1/17 13/1/15 10/1/10
f 18/1/19 3/1/1 17/1/17
f 20/1/20 10/1/10 22/1/23
f 22/1/23 10/1/10 24/1/38
f 24/1/38 10/1/10 25/1/24
f 4/1/4 12/1/14 6/1/6
f 26/1/25 21/1/21 27/1/29
f 27/1/29 21/1/21 28/1/30
f 29/3/26 20/1/20 23/1/22
f 30/6/27 19/5/18 20/5/20
f 29/6/26 40/6/40 30/6/27
f 40/6/40 29/6/26 39/6/39
f 26/5/25 32/6/31 38/6/37
f 37/6/36 28/5/30 21/5/21
f 43/7/41 44/10/42 47/13/41
f 36/4/35 48/11/41 25/5/24
f 25/5/24 48/11/41 50/7/41
f 25/5/24 50/7/41 51/13/43
f 55/16/41 24/5/38 47/13/41
f 49/12/41 58/18/41 57/8/46
f 59/15/41 24/5/38 55/16/41
f 60/17/41 24/5/38 59/15/41
f 58/18/41 49/12/41 61/18/41
f 61/18/41 24/5/38 60/17/41
f 35/4/32 61/18/41 36/4/35
f 34/4/33 63/21/47 62/19/47
f 18/5/19 63/21/47 34/4/33
f 34/4/33 66/23/47 33/4/34
f 71/23/49 33/4/34 66/23/47
f 73/25/47 33/4/34 72/24/48
f 74/26/47 17/5/17 73/25/47
f 81/27/84 79/27/53 76/27/51
f 79/27/53 81/27/84 82/27/55
f 79/27/53 77/27/50 76/27/51
f 82/27/55 54/27/45 44/27/42
f 54/27/45 82/27/55 81/27/84
f 76/27/51 54/27/45 81/27/84
f 54/27/45 76/27/51 57/27/46
f 83/27/56 78/27/54 79/27/53
f 86/27/50 43/27/64 85/27/61
f 89/27/52 88/27/63 87/27/54
f 90/27/60 88/27/63 85/27/61
f 88/27/63 90/27/60 91/27/59
f 88/27/63 91/27/59 92/27/62
f 88/27/63 86/27/50 85/27/61
f 86/27/50 88/27/63 89/27/52
f 91/27/59 93/27/58 52/27/44
f 93/27/58 85/27/61 43/27/64
f 87/27/54 92/27/62 51/27/43
f 92/27/62 52/27/44 51/27/43
f 98/27/52 97/27/63 96/27/54
f 99/27/84 97/27/63 94/27/51
f 97/27/63 99/27/84 100/27/67
f 97/27/63 100/27/67 101/27/65
f 97/27/63 95/27/50 94/27/51
f 95/27/50 97/27/63 98/27/52
f 100/27/67 103/27/85 102/27/66
f 103/27/85 100/27/67 99/27/84
f 94/27/51 103/27/85 99/27/84
f 103/27/85 94/27/51 60/27/64
f 101/27/65 102/27/66 104/27/57
f 109/27/74 108/27/71 105/27/70
f 108/27/71 109/27/74 110/27/73
f 108/27/71 110/27/73 111/27/86
f 107/27/68 108/27/71 71/27/49
f 110/27/73 112/27/72 74/27/80
f 105/27/70 112/27/72 109/27/74
f 72/27/48 111/27/86 113/27/83
f 111/27/86 72/27/48 108/27/71
f 111/27/86 74/27/80 113/27/83
f 74/27/80 111/27/86 110/27/73
f 119/27/78 118/27/76 117/27/81
f 118/27/76 121/27/77 122/27/82
