# Blender 4.3.2
# www.blender.org
mtllib conveyor-bars-stripe.mtl
o conveyor-bars-stripe.012
v -0.062500 -0.500000 -0.250000
v -0.062500 -0.300000 -0.250000
v -0.187500 -0.500000 -0.250000
v -0.187500 -0.300000 -0.250000
v 0.000000 -0.300000 -0.062500
v 0.000000 -0.500000 -0.062500
v -0.062500 -0.300000 0.000000
v -0.062500 -0.500000 0.000000
v -0.062500 0.500000 0.000000
v -0.187500 0.500000 0.000000
v 0.000000 0.500000 -0.062500
v -0.062500 0.500000 -0.062500
v -0.250000 0.500000 -0.062500
v -0.187500 0.500000 -0.062500
v -0.062500 0.500000 -0.187500
v -0.187500 0.500000 -0.187500
v -0.062500 0.500000 -0.250000
v -0.250000 0.500000 -0.187500
v -0.187500 0.500000 -0.250000
v 0.000000 0.500000 -0.187500
v -0.312500 0.500000 -0.187500
v -0.312500 0.500000 -0.250000
v -0.437500 0.500000 -0.187500
v -0.437500 0.500000 -0.250000
v -0.500000 0.500000 -0.187500
v -0.500000 0.500000 -0.062500
v -0.437500 0.500000 -0.062500
v -0.312500 0.500000 -0.062500
v -0.437500 0.500000 0.000000
v -0.312500 0.500000 0.000000
v 0.062500 0.500000 -0.187500
v 0.062500 0.500000 -0.250000
v 0.187500 0.500000 -0.250000
v 0.062500 0.500000 -0.062500
v 0.187500 0.500000 -0.187500
v 0.187500 0.500000 -0.062500
v 0.250000 0.500000 -0.062500
v 0.062500 0.500000 0.000000
v 0.187500 0.500000 0.000000
v 0.250000 0.500000 -0.187500
v 0.312500 0.500000 -0.187500
v 0.312500 0.500000 -0.062500
v 0.437500 0.500000 -0.062500
v 0.312500 0.500000 0.000000
v 0.437500 0.500000 -0.250000
v 0.312500 0.500000 -0.250000
v 0.437500 0.500000 -0.187500
v 0.500000 0.500000 -0.187500
v 0.500000 0.500000 -0.062500
v 0.437500 0.500000 0.000000
v 0.000000 0.300000 -0.187500
v -0.062500 0.300000 -0.250000
v 0.062500 0.300000 0.000000
v 0.000000 0.300000 -0.062500
v -0.437500 0.300000 0.000000
v -0.500000 0.300000 -0.062500
v -0.250000 0.300000 -0.187500
v -0.187500 0.300000 -0.250000
v 0.500000 -0.300000 -0.062500
v 0.500000 -0.500000 -0.062500
v 0.437500 -0.300000 0.000000
v 0.437500 -0.500000 0.000000
v -0.312500 0.300000 -0.250000
v 0.250000 -0.300000 -0.062500
v 0.250000 -0.500000 -0.062500
v 0.187500 -0.300000 0.000000
v 0.187500 -0.500000 0.000000
v -0.312500 -0.300000 0.000000
v -0.312500 -0.500000 0.000000
v -0.437500 -0.300000 0.000000
v -0.437500 -0.500000 0.000000
v -0.187500 -0.300000 0.000000
v -0.187500 -0.500000 0.000000
v -0.187500 0.300000 0.000000
v -0.250000 0.300000 -0.062500
v 0.062500 -0.300000 0.000000
v 0.062500 -0.500000 0.000000
v -0.250000 -0.300000 -0.062500
v -0.250000 -0.500000 -0.062500
v 0.062500 0.300000 -0.250000
v -0.500000 0.300000 -0.187500
v 0.250000 0.300000 -0.187500
v 0.187500 0.300000 -0.250000
v -0.437500 0.300000 -0.250000
v 0.187500 -0.500000 -0.250000
v 0.187500 -0.300000 -0.250000
v 0.062500 -0.500000 -0.250000
v 0.062500 -0.300000 -0.250000
v -0.312500 -0.500000 -0.250000
v -0.312500 -0.300000 -0.250000
v -0.437500 -0.500000 -0.250000
v -0.437500 -0.300000 -0.250000
v 0.312500 -0.300000 0.000000
v 0.312500 -0.500000 0.000000
v 0.437500 -0.500000 -0.250000
v 0.437500 -0.300000 -0.250000
v 0.312500 -0.500000 -0.250000
v 0.312500 -0.300000 -0.250000
v 0.312500 0.300000 -0.250000
v 0.500000 0.300000 -0.187500
v 0.500000 0.300000 -0.062500
v 0.437500 0.300000 -0.250000
v 0.312500 0.300000 0.000000
v 0.250000 0.300000 -0.062500
v -0.500000 -0.500000 -0.062500
v -0.312500 -0.500000 -0.062500
v -0.437500 -0.500000 -0.062500
v -0.437500 -0.500000 -0.187500
v -0.500000 -0.500000 -0.187500
v -0.312500 -0.500000 -0.187500
v -0.250000 -0.500000 -0.187500
v -0.187500 -0.500000 -0.187500
v -0.187500 -0.500000 -0.062500
v -0.062500 -0.500000 -0.187500
v -0.062500 -0.500000 -0.062500
v 0.000000 -0.500000 -0.187500
v 0.062500 -0.500000 -0.187500
v 0.062500 -0.500000 -0.062500
v 0.187500 -0.500000 -0.187500
v 0.187500 -0.500000 -0.062500
v 0.250000 -0.500000 -0.187500
v 0.312500 -0.500000 -0.187500
v 0.312500 -0.500000 -0.062500
v 0.437500 -0.500000 -0.187500
v 0.437500 -0.500000 -0.062500
v 0.500000 -0.500000 -0.187500
v -0.500000 -0.300000 -0.187500
v -0.250000 -0.300000 -0.187500
v -0.500000 -0.300000 -0.062500
v 0.000000 -0.300000 -0.187500
v 0.500000 -0.300000 -0.187500
v 0.250000 -0.300000 -0.187500
v -0.312500 0.300000 0.000000
v 0.437500 0.300000 0.000000
v 0.187500 0.300000 0.000000
v -0.062500 0.300000 0.000000
v -0.312500 0.300000 0.000000
v -0.312500 -0.300000 0.000000
v -0.437500 0.300000 0.000000
v -0.437500 -0.300000 0.000000
v -0.062500 0.300000 0.000000
v -0.062500 -0.300000 0.000000
v -0.187500 0.300000 0.000000
v -0.187500 -0.300000 0.000000
v 0.437500 0.300000 0.000000
v 0.437500 -0.300000 0.000000
v 0.062500 0.300000 0.000000
v 0.062500 -0.300000 0.000000
v 0.187500 0.300000 0.000000
v 0.187500 -0.300000 0.000000
v 0.312500 0.300000 0.000000
v 0.312500 -0.300000 0.000000
vn 0.1516 -0.3659 -0.9182
vn -0.3567 -0.3625 -0.8611
vn 0.0383 -0.0000 -0.9993
vn 0.2695 0.4287 0.8623
vn -0.0000 -0.9045 0.4264
vn -0.0000 -0.0000 1.0000
vn 0.5062 -0.6597 0.5555
vn -0.0000 0.9045 0.4264
vn 0.0039 0.6601 0.7512
vn 0.5920 0.6574 0.4661
vn -0.0000 1.0000 -0.0000
vn 0.0869 0.7176 -0.6910
vn -0.0000 0.9045 -0.4264
vn 0.3676 0.7799 -0.5066
vn -0.3785 0.8029 -0.4606
vn -0.5128 0.7766 -0.3661
vn -0.4666 0.8000 0.3771
vn -0.0556 0.7273 0.6841
vn -0.5449 0.6600 -0.5172
vn 0.0329 0.6597 -0.7508
vn -0.0385 0.6596 0.7507
vn 0.0720 0.6583 -0.7493
vn -0.5920 0.6574 -0.4661
vn -0.0459 0.7054 0.7073
vn 0.5832 0.7348 0.3464
vn -0.7400 -0.0000 -0.6726
vn -0.0000 -0.0000 -1.0000
vn 0.8611 -0.3625 0.3567
vn 0.6732 -0.0000 0.7394
vn -0.3373 0.4348 0.8350
vn -0.9989 -0.0000 0.0477
vn -0.6732 -0.0000 0.7394
vn 0.3470 0.4215 -0.8378
vn -0.7372 -0.0000 -0.6757
vn -0.1870 -0.4838 -0.8549
vn 0.3468 -0.4225 -0.8374
vn -0.0891 -0.6574 -0.7482
vn 0.1681 -0.4576 0.8731
vn -0.4094 0.4333 0.8029
vn 0.0891 -0.6574 0.7482
vn -0.3442 -0.4370 -0.8310
vn 0.0424 -0.0000 -0.9991
vn 0.9144 0.3872 -0.1186
vn 0.6673 -0.0000 0.7448
vn 0.8394 0.4177 -0.3477
vn 0.4942 0.3902 -0.7768
vn -0.5809 -0.7363 0.3471
vn 0.0349 -0.6597 0.7508
vn -0.5920 -0.6574 0.4661
vn -0.0000 -1.0000 -0.0000
vn -0.4238 -0.8193 -0.3862
vn -0.0000 -0.9045 -0.4264
vn 0.5449 -0.6600 -0.5172
vn -0.5532 -0.6597 0.5087
vn -0.3589 -0.7614 -0.5399
vn 0.0424 -0.7061 0.7068
vn 0.5920 -0.6574 -0.4661
vn 0.5552 -0.7523 -0.3546
vn -0.4942 -0.3902 -0.7768
vn -0.6795 -0.0000 -0.7336
vn -0.6673 -0.0000 0.7448
vn 0.9989 -0.0000 0.0477
vn 0.0315 0.6597 -0.7508
vn -0.1516 0.3659 -0.9182
vn 0.4094 -0.4333 0.8029
vn 0.5364 0.3302 0.7767
vn -0.0424 -0.0000 -0.9991
vn -0.2695 -0.4287 0.8623
vn -0.3433 -0.4423 0.8286
vn -0.2530 -0.4189 0.8721
vn -0.4337 0.4212 0.7966
vn 0.4337 -0.4212 0.7966
vn 0.2530 0.4189 0.8721
vn 0.7365 -0.0000 -0.6765
vn -0.3433 0.4247 0.8377
vn -0.3432 -0.4423 0.8286
vt 0.218750 0.225000
vt 0.218750 0.025000
vt 0.218750 0.075000
vt 0.218750 0.175000
vt 0.093750 0.025000
vt 0.093750 0.225000
vt 0.343750 0.025000
vt 0.343750 0.075000
vt 0.343750 0.225000
vt 0.343750 0.175000
s 1
usemtl colormap.003
f 2/1/1 3/1/2 4/1/3
f 7/2/4 6/3/5 5/3/6
f 6/3/5 7/2/4 8/2/7
f 11/3/8 10/2/9 9/2/10
s 0
f 13/3/11 12/3/11 14/3/11
s 1
f 15/4/11 17/1/12 16/4/11
f 16/4/11 17/1/12 18/4/13
f 13/3/8 16/4/11 18/4/13
f 15/4/11 20/4/13 17/1/12
f 21/4/11 18/4/13 22/1/14
f 24/1/15 23/4/11 22/1/14
f 25/4/16 23/4/11 24/1/15
f 26/3/17 23/4/11 25/4/16
f 28/3/11 13/3/8 21/4/11
f 28/3/11 26/3/17 29/2/18
f 29/2/18 13/3/8 28/3/11
f 13/3/8 29/2/18 30/2/10
f 11/3/8 31/4/11 20/4/13
f 20/4/13 31/4/11 32/1/19
f 32/1/19 31/4/11 33/1/20
f 11/3/8 34/3/11 31/4/11
f 35/4/11 33/1/20 31/4/11
s 0
f 11/3/11 36/3/11 34/3/11
s 1
f 37/3/8 38/2/21 39/2/10
f 35/4/11 40/4/13 33/1/20
f 35/4/11 37/3/8 40/4/13
f 37/3/8 41/4/11 40/4/13
s 0
f 37/3/11 43/3/11 42/3/11
s 1
f 40/4/13 45/1/22 46/1/23
f 47/4/11 45/1/22 41/4/11
f 44/2/24 49/3/25 43/3/11
f 18/4/13 58/1/26 57/4/27
f 61/2/4 60/3/28 59/3/29
f 72/2/30 8/2/7 7/2/4
f 32/1/19 51/4/27 20/4/13
f 26/3/17 81/4/31 56/3/32
f 81/4/31 26/3/17 25/4/16
f 40/4/13 83/1/33 33/1/20
f 81/4/31 24/1/15 84/1/34
f 24/1/15 81/4/31 25/4/16
f 91/1/35 90/1/36 89/1/37
f 62/2/38 93/2/39 94/2/40
f 96/1/1 97/1/41 98/1/42
f 46/1/23 82/4/27 40/4/13
f 48/4/43 101/3/44 100/4/45
f 101/3/44 48/4/43 49/3/25
f 102/1/46 48/4/43 100/4/45
f 48/4/43 102/1/46 45/1/22
f 105/3/47 69/2/48 71/2/49
f 108/4/50 105/3/47 109/4/51
f 111/4/52 91/1/35 89/1/37
s 0
f 115/3/50 79/3/50 113/3/50
s 1
f 6/3/5 115/3/50 114/4/50
f 116/4/52 114/4/50 1/1/53
f 79/3/5 8/2/7 73/2/54
f 117/4/50 6/3/5 116/4/52
f 117/4/50 116/4/52 87/1/55
f 118/3/50 6/3/5 117/4/50
s 0
f 120/3/50 6/3/50 118/3/50
s 1
f 67/2/56 6/3/5 120/3/50
f 120/3/50 65/3/5 67/2/56
f 6/3/5 67/2/56 77/2/49
f 121/4/52 87/1/55 85/1/57
f 122/4/50 65/3/5 121/4/52
f 123/3/50 65/3/5 122/4/50
f 124/4/50 97/1/41 126/4/58
f 126/4/58 97/1/41 95/1/57
f 60/3/28 125/3/50 124/4/50
f 125/3/50 60/3/28 62/2/38
f 65/3/5 62/2/38 94/2/40
f 92/1/59 109/4/51 127/4/60
f 89/1/37 128/4/27 111/4/52
f 128/4/27 89/1/37 90/1/36
f 129/3/61 71/2/49 70/2/39
f 1/1/53 130/4/27 116/4/52
f 60/3/28 131/4/62 59/3/29
f 131/4/62 95/1/57 96/1/1
f 64/3/6 94/2/40 93/2/39
f 94/2/40 64/3/6 65/3/5
f 128/4/27 3/1/2 111/4/52
f 3/1/2 128/4/27 4/1/3
f 79/3/5 72/2/30 78/3/6
f 98/1/42 121/4/52 132/4/27
f 88/1/59 116/4/52 130/4/27
f 17/1/12 58/1/26 19/1/63
f 80/1/64 33/1/20 83/1/33
f 39/2/10 104/3/6 37/3/8
f 104/3/6 39/2/10 135/2/65
f 50/2/66 101/3/44 49/3/25
f 101/3/44 50/2/66 134/2/65
f 84/1/34 22/1/14 63/1/67
f 22/1/14 84/1/34 24/1/15
f 38/2/21 135/2/65 39/2/10
f 135/2/65 38/2/21 53/2/68
f 30/2/10 75/3/6 13/3/8
f 75/3/6 30/2/10 133/2/65
f 10/2/9 136/2/65 9/2/10
f 136/2/65 10/2/9 74/2/69
f 113/5/50 114/6/50 115/5/50
f 114/6/50 113/5/50 112/6/50
f 123/5/50 124/6/50 125/5/50
f 124/6/50 123/5/50 122/6/50
f 42/5/11 47/6/11 41/6/11
f 15/6/11 14/5/11 12/5/11
f 14/5/11 15/6/11 16/6/11
f 27/5/11 21/6/11 23/6/11
f 34/5/11 35/6/11 31/6/11
f 118/5/50 119/6/50 120/5/50
f 148/7/70 54/8/6 5/8/6
f 84/9/34 127/10/60 81/10/31
f 59/8/29 100/10/45 101/8/44
f 130/10/27 80/9/64 88/9/59
f 80/9/64 130/10/27 51/10/27
f 147/7/71 150/7/72 149/7/73
f 150/7/72 147/7/71 148/7/70
f 56/8/32 127/10/60 129/8/61
f 127/10/60 56/8/32 81/10/31
f 92/9/59 63/9/67 90/9/36
f 63/9/67 92/9/59 84/9/34
f 57/10/27 4/9/3 128/10/27
f 4/9/3 57/10/27 58/9/26
f 104/8/6 152/7/70 151/7/71
f 152/7/70 104/8/6 64/8/6
f 2/9/1 51/10/27 130/10/27
f 51/10/27 2/9/1 52/9/74
f 96/9/1 100/10/45 131/10/62
f 100/10/45 96/9/1 102/9/46
f 4/9/3 52/9/74 2/9/1
f 52/9/74 4/9/3 58/9/26
f 151/7/71 146/7/72 145/7/73
f 146/7/72 151/7/71 152/7/70
f 141/7/73 5/8/6 54/8/6
f 5/8/6 141/7/73 142/7/72
f 3/1/2 2/1/1 1/1/53
f 10/2/9 11/3/8 12/3/11
f 12/3/11 13/3/8 10/2/9
f 12/3/11 11/3/8 15/4/11
f 13/3/8 14/3/11 16/4/11
f 18/4/13 17/1/12 19/1/63
f 15/4/11 11/3/8 20/4/13
f 21/4/11 13/3/8 18/4/13
f 21/4/11 22/1/14 23/4/11
f 26/3/17 27/3/11 23/4/11
s 0
f 26/3/11 28/3/11 27/3/11
s 1
f 36/3/11 37/3/8 35/4/11
f 36/3/11 11/3/8 38/2/21
f 38/2/21 37/3/8 36/3/11
f 37/3/8 42/3/11 41/4/11
f 43/3/11 37/3/8 44/2/24
f 41/4/11 45/1/22 40/4/13
f 47/4/11 48/4/43 45/1/22
f 47/4/11 49/3/25 48/4/43
f 43/3/11 49/3/25 47/4/11
f 49/3/25 44/2/24 50/2/66
f 52/1/74 20/4/13 51/4/27
f 20/4/13 52/1/74 17/1/12
f 11/3/8 53/2/68 38/2/21
f 53/2/68 11/3/8 54/3/6
f 26/3/17 55/2/68 29/2/18
f 55/2/68 26/3/17 56/3/32
f 58/1/26 18/4/13 19/1/63
f 60/3/28 61/2/4 62/2/38
f 63/1/67 18/4/13 57/4/27
f 18/4/13 63/1/67 22/1/14
f 66/2/4 65/3/5 64/3/6
f 65/3/5 66/2/4 67/2/56
f 70/2/39 69/2/48 68/2/4
f 69/2/48 70/2/39 71/2/49
f 8/2/7 72/2/30 73/2/54
f 10/2/9 75/3/6 74/2/69
f 75/3/6 10/2/9 13/3/8
f 76/2/39 67/2/56 66/2/4
f 67/2/56 76/2/39 77/2/49
f 68/2/4 79/3/5 78/3/6
f 79/3/5 68/2/4 69/2/48
f 51/4/27 32/1/19 80/1/64
f 83/1/33 40/4/13 82/4/27
f 87/1/55 86/1/36 85/1/57
f 86/1/36 87/1/55 88/1/59
f 90/1/36 91/1/35 92/1/59
f 93/2/39 62/2/38 61/2/4
f 97/1/41 96/1/1 95/1/57
f 82/4/27 46/1/23 99/1/34
f 37/3/8 103/2/68 44/2/24
f 103/2/68 37/3/8 104/3/6
f 69/2/48 105/3/47 106/3/50
f 106/3/50 79/3/5 69/2/48
s 0
f 106/3/50 105/3/50 107/3/50
s 1
f 107/3/50 105/3/47 108/4/50
f 108/4/50 109/4/51 91/1/35
f 108/4/50 91/1/35 110/4/50
f 79/3/5 106/3/50 110/4/50
f 110/4/50 91/1/35 111/4/52
f 79/3/5 110/4/50 111/4/52
f 112/4/50 79/3/5 111/4/52
f 112/4/50 111/4/52 3/1/2
f 113/3/50 79/3/5 112/4/50
f 112/4/50 3/1/2 114/4/50
f 1/1/53 114/4/50 3/1/2
f 6/3/5 114/4/50 116/4/52
f 8/2/7 79/3/5 115/3/50
f 115/3/50 6/3/5 8/2/7
f 117/4/50 87/1/55 119/4/50
f 65/3/5 120/3/50 119/4/50
f 119/4/50 87/1/55 121/4/52
f 65/3/5 119/4/50 121/4/52
f 122/4/50 121/4/52 97/1/41
f 122/4/50 97/1/41 124/4/50
s 0
f 125/3/50 65/3/50 123/3/50
s 1
f 60/3/28 124/4/50 126/4/58
f 62/2/38 65/3/5 125/3/50
f 109/4/51 92/1/59 91/1/35
f 71/2/49 129/3/61 105/3/47
f 130/4/27 1/1/53 2/1/1
f 131/4/62 60/3/28 126/4/58
f 95/1/57 131/4/62 126/4/58
f 5/3/6 77/2/49 76/2/39
f 77/2/49 5/3/6 6/3/5
f 72/2/30 79/3/5 73/2/54
f 129/3/61 109/4/51 105/3/47
f 109/4/51 129/3/61 127/4/60
f 121/4/52 98/1/42 97/1/41
f 116/4/52 88/1/59 87/1/55
f 85/1/57 132/4/27 121/4/52
f 132/4/27 85/1/57 86/1/36
f 58/1/26 17/1/12 52/1/74
f 29/2/18 133/2/65 30/2/10
f 133/2/65 29/2/18 55/2/68
f 33/1/20 80/1/64 32/1/19
f 44/2/24 134/2/65 50/2/66
f 134/2/65 44/2/24 103/2/68
f 99/1/34 45/1/22 102/1/46
f 45/1/22 99/1/34 46/1/23
f 9/2/10 54/3/6 11/3/8
f 54/3/6 9/2/10 136/2/65
f 47/6/11 42/5/11 43/5/11
f 107/5/50 110/6/50 106/5/50
f 110/6/50 107/5/50 108/6/50
f 21/6/11 27/5/11 28/5/11
f 35/6/11 34/5/11 36/5/11
f 119/6/50 118/5/50 117/6/50
f 132/10/27 99/9/34 98/9/42
f 99/9/34 132/10/27 82/10/27
f 90/9/36 57/10/27 128/10/27
f 57/10/27 90/9/36 63/9/67
f 139/7/71 138/7/72 137/7/73
f 138/7/72 139/7/71 140/7/70
f 143/7/75 142/7/72 141/7/73
f 142/7/72 143/7/75 144/7/76
f 98/9/42 102/9/46 96/9/1
f 102/9/46 98/9/42 99/9/34
f 145/7/73 59/8/29 101/8/44
f 59/8/29 145/7/73 146/7/72
f 54/8/6 148/7/70 147/7/71
f 127/10/60 84/9/34 92/9/59
f 100/10/45 59/8/29 131/10/62
f 137/7/73 78/8/6 75/8/6
f 78/8/6 137/7/73 138/7/72
f 143/7/75 78/8/6 144/7/76
f 78/8/6 143/7/75 75/8/6
f 88/9/59 83/9/33 86/9/36
f 83/9/33 88/9/59 80/9/64
f 86/9/36 82/10/27 132/10/27
f 82/10/27 86/9/36 83/9/33
f 149/7/73 64/8/6 104/8/6
f 64/8/6 149/7/73 150/7/72
f 56/8/32 140/7/70 139/7/71
f 140/7/70 56/8/32 129/8/61
