# Blender 4.3.2
# www.blender.org
mtllib robot-arm-b.mtl
o robot-arm-b.005
v 0.500000 0.000000 0.000000
v 0.353553 -0.353553 0.000000
v 0.353553 0.353553 0.000000
v 0.000000 0.500000 0.000000
v 0.000000 -0.500000 0.000000
v -0.353553 0.353553 0.000000
v -0.353553 -0.353553 0.000000
v -0.500000 0.000000 0.000000
v 0.400000 0.000000 -0.300000
v 0.282843 0.282843 -0.300000
v 0.282843 -0.282843 -0.300000
v 0.000000 -0.400000 -0.300000
v 0.000000 0.400000 -0.300000
v -0.282843 -0.282843 -0.300000
v -0.282843 0.282843 -0.300000
v -0.400000 0.000000 -0.300000
v -0.100000 0.200000 -0.500000
v -0.200000 0.200000 -0.500000
v -0.100000 0.141421 -0.641421
v -0.200000 0.141421 -0.641421
v -0.100000 0.000000 -0.700000
v -0.200000 0.000000 -0.700000
v -0.100000 -0.141421 -0.641421
v -0.200000 -0.141421 -0.641421
v -0.200000 -0.200000 -0.500000
v -0.100000 -0.200000 -0.500000
v 0.100000 -0.200000 -0.500000
v 0.200000 -0.200000 -0.500000
v 0.100000 -0.141421 -0.641421
v 0.200000 -0.141421 -0.641421
v 0.200000 0.000000 -0.700000
v 0.100000 0.000000 -0.700000
v 0.200000 0.141421 -0.641421
v 0.100000 0.141421 -0.641421
v 0.200000 0.200000 -0.500000
v 0.100000 0.200000 -0.500000
v 0.100000 0.200000 -0.400000
v 0.200000 0.200000 -0.300000
v -0.200000 0.200000 -0.300000
v -0.100000 0.200000 -0.400000
v 0.200000 -0.200000 -0.300000
v -0.200000 -0.200000 -0.300000
v -0.100000 -0.200000 -0.400000
v 0.100000 -0.200000 -0.400000
v 0.100000 -0.200000 -0.800000
v 0.100000 -0.200000 -0.600000
v 0.100000 0.200000 -0.800000
v 0.100000 -0.141421 -0.458579
v 0.100000 0.000000 -0.400000
v 0.100000 0.141421 -0.458579
v 0.100000 0.200000 -0.600000
v -0.100000 -0.200000 -0.800000
v -0.100000 0.200000 -0.800000
v -0.100000 -0.200000 -0.600000
v -0.100000 -0.141421 -0.458579
v -0.100000 0.000000 -0.400000
v -0.100000 0.141421 -0.458579
v -0.100000 0.200000 -0.600000
v -0.100000 -0.141421 -0.458579
v 0.100000 -0.141421 -0.458579
v 0.100000 -0.000000 -0.400000
v -0.100000 -0.000000 -0.400000
v 0.100000 0.141421 -0.458579
v -0.100000 0.141421 -0.458579
v -0.200000 -0.150000 -1.100000
v -0.200000 0.150000 -1.100000
v -0.200000 -0.150000 -0.800000
v -0.200000 0.150000 -0.800000
v -0.150000 -0.200000 -1.100000
v -0.150000 -0.200000 -0.800000
v 0.150000 0.200000 -0.800000
v 0.150000 0.200000 -1.100000
v -0.150000 0.200000 -0.800000
v -0.150000 0.200000 -1.100000
v 0.150000 -0.200000 -0.800000
v 0.200000 -0.150000 -0.800000
v 0.150000 -0.200000 -1.100000
v 0.200000 -0.150000 -1.100000
v 0.200000 0.150000 -0.800000
v 0.200000 0.150000 -1.100000
v 0.150000 -0.000000 -1.200000
v 0.150000 -0.000000 -1.100000
v 0.106066 0.106066 -1.200000
v 0.106066 0.106066 -1.100000
v 0.000000 0.150000 -1.100000
v 0.000000 0.150000 -1.200000
v -0.106066 0.106066 -1.100000
v -0.106066 0.106066 -1.200000
v -0.150000 -0.000000 -1.100000
v -0.150000 -0.000000 -1.200000
v -0.106066 -0.106066 -1.100000
v -0.106066 -0.106066 -1.200000
v 0.000000 -0.150000 -1.100000
v 0.000000 -0.150000 -1.200000
v 0.106066 -0.106066 -1.100000
v 0.106066 -0.106066 -1.200000
v -0.100000 0.200000 -1.400000
v -0.200000 0.200000 -1.400000
v -0.100000 0.141421 -1.541421
v -0.200000 0.141421 -1.541421
v -0.100000 -0.000000 -1.600000
v -0.200000 -0.000000 -1.600000
v -0.100000 -0.141421 -1.541421
v -0.200000 -0.141421 -1.541421
v -0.200000 -0.200000 -1.400000
v -0.100000 -0.200000 -1.400000
v 0.100000 -0.200000 -1.400000
v 0.200000 -0.200000 -1.400000
v 0.100000 -0.141421 -1.541421
v 0.200000 -0.141421 -1.541421
v 0.200000 -0.000000 -1.600000
v 0.100000 -0.000000 -1.600000
v 0.200000 0.141421 -1.541421
v 0.100000 0.141421 -1.541421
v 0.200000 0.200000 -1.400000
v 0.100000 0.200000 -1.400000
v 0.200000 0.150000 -1.200000
v 0.200000 -0.150000 -1.200000
v -0.200000 0.150000 -1.200000
v -0.200000 -0.150000 -1.200000
v -0.100000 -0.200000 -1.300000
v -0.200000 -0.200000 -1.250000
v 0.200000 -0.200000 -1.250000
v 0.100000 -0.200000 -1.300000
v 0.100000 0.200000 -1.300000
v 0.200000 0.200000 -1.250000
v -0.200000 0.200000 -1.250000
v -0.100000 0.200000 -1.300000
v 0.200000 -0.150000 -2.000000
v 0.200000 0.150000 -2.000000
v 0.150000 -0.200000 -2.000000
v 0.150000 0.200000 -2.000000
v -0.150000 -0.200000 -2.000000
v -0.150000 0.200000 -2.000000
v -0.200000 -0.150000 -2.000000
v -0.200000 0.150000 -2.000000
v 0.200000 0.150000 -1.700000
v 0.200000 -0.150000 -1.700000
v 0.150000 0.200000 -1.700000
v 0.150000 -0.200000 -1.700000
v 0.100000 0.200000 -1.700000
v 0.100000 -0.200000 -1.700000
v -0.100000 0.200000 -1.700000
v -0.100000 -0.200000 -1.700000
v -0.150000 0.200000 -1.700000
v -0.150000 -0.200000 -1.700000
v -0.200000 0.150000 -1.700000
v -0.200000 -0.150000 -1.700000
v 0.100000 -0.200000 -1.500000
v 0.100000 -0.141421 -1.358579
v 0.100000 0.000000 -1.300000
v 0.100000 0.141421 -1.358579
v 0.100000 0.200000 -1.500000
v -0.100000 -0.200000 -1.500000
v -0.100000 -0.141421 -1.358579
v -0.100000 0.000000 -1.300000
v -0.100000 0.141421 -1.358579
v -0.100000 0.200000 -1.500000
v 0.100000 -0.000000 -1.300000
v -0.100000 -0.000000 -1.300000
v 0.150000 -0.000000 -2.100000
v 0.150000 -0.000000 -2.000000
v 0.106066 0.106066 -2.100000
v 0.106066 0.106066 -2.000000
v 0.000000 0.150000 -2.000000
v 0.000000 0.150000 -2.100000
v -0.106066 0.106066 -2.000000
v -0.106066 0.106066 -2.100000
v -0.150000 -0.000000 -2.000000
v -0.150000 -0.000000 -2.100000
v -0.106066 -0.106066 -2.000000
v -0.106066 -0.106066 -2.100000
v 0.000000 -0.150000 -2.000000
v 0.000000 -0.150000 -2.100000
v 0.106066 -0.106066 -2.000000
v 0.106066 -0.106066 -2.100000
v -0.100000 0.200000 -2.300000
v -0.200000 0.200000 -2.300000
v -0.100000 0.141421 -2.441422
v -0.200000 0.141421 -2.441422
v -0.100000 -0.000000 -2.500000
v -0.200000 -0.000000 -2.500000
v -0.100000 -0.141421 -2.441422
v -0.200000 -0.141421 -2.441422
v -0.200000 -0.200000 -2.300000
v -0.100000 -0.200000 -2.300000
v 0.100000 -0.200000 -2.300000
v 0.200000 -0.200000 -2.300000
v 0.100000 -0.141421 -2.441422
v 0.200000 -0.141421 -2.441422
v 0.200000 -0.000000 -2.500000
v 0.100000 -0.000000 -2.500000
v 0.200000 0.141421 -2.441422
v 0.100000 0.141421 -2.441422
v 0.200000 0.200000 -2.300000
v 0.100000 0.200000 -2.300000
v 0.200000 0.150000 -2.100000
v 0.200000 -0.150000 -2.100000
v -0.200000 0.150000 -2.100000
v -0.200000 -0.150000 -2.100000
v -0.100000 -0.200000 -2.200000
v -0.200000 -0.200000 -2.150000
v 0.200000 -0.200000 -2.150000
v 0.100000 -0.200000 -2.200000
v 0.100000 0.200000 -2.200000
v 0.200000 0.200000 -2.150000
v -0.200000 0.200000 -2.150000
v -0.100000 0.200000 -2.200000
v 0.100000 -0.000000 -2.200000
v 0.100000 -0.141421 -2.258579
v -0.100000 -0.000000 -2.200000
v -0.100000 -0.141421 -2.258579
v -0.100000 -0.200000 -2.400000
v 0.100000 -0.200000 -2.400000
v -0.100000 -0.200000 -2.600000
v 0.100000 -0.200000 -2.600000
v 0.100000 0.141421 -2.258579
v -0.100000 0.141421 -2.258579
v 0.100000 0.200000 -2.400000
v -0.100000 0.200000 -2.400000
v 0.100000 0.200000 -2.600000
v -0.100000 0.200000 -2.600000
v -0.144338 -0.000000 -2.700000
v -0.072169 0.125000 -2.700000
v -0.144338 -0.000000 -3.000000
v -0.072169 0.125000 -3.000000
v 0.072169 -0.125000 -3.000000
v -0.072169 -0.125000 -3.000000
v 0.108253 -0.187500 -3.000000
v -0.108253 -0.187500 -3.000000
v 0.144338 -0.250000 -2.700000
v 0.072169 -0.125000 -2.700000
v -0.072169 -0.125000 -2.700000
v -0.144338 -0.250000 -2.700000
v 0.108253 0.187500 -3.000000
v 0.072169 0.125000 -3.000000
v 0.216506 0.000000 -3.000000
v 0.144338 0.000000 -3.000000
v 0.144338 0.250000 -2.700000
v 0.072169 0.125000 -2.700000
v 0.288675 0.000000 -2.700000
v 0.144338 0.000000 -2.700000
v -0.144338 0.250000 -2.700000
v -0.108253 0.187500 -3.000000
v -0.216506 -0.000000 -3.000000
v -0.288675 -0.000000 -2.700000
v -0.144338 0.250000 -2.600000
v -0.288675 -0.000000 -2.600000
v 0.288675 0.000000 -2.600000
v 0.144338 0.250000 -2.600000
v 0.144338 -0.250000 -2.600000
v -0.144338 -0.250000 -2.600000
vn 0.7075 0.3927 0.5875
vn 0.7505 -0.3880 0.5350
vn 0.7451 0.3989 0.5345
vn 0.1705 0.7250 0.6673
vn 0.2635 -0.8025 0.5353
vn -0.6329 0.3631 0.6838
vn -0.3995 -0.7448 0.5345
vn 0.5221 -0.2036 -0.8283
vn 0.5954 0.2234 -0.7717
vn 0.5687 -0.2864 -0.7711
vn -0.2234 -0.5954 -0.7717
vn -0.0000 -0.8277 -0.5612
vn -0.2335 0.5913 -0.7719
vn -0.5795 0.5795 -0.5730
vn -0.8824 -0.0000 -0.4705
vn -0.7601 0.3679 0.5357
vn -0.0000 0.7071 -0.7071
vn -0.0000 0.9808 -0.1951
vn -0.0000 -0.0000 -1.0000
vn -0.0000 -0.7071 -0.7071
vn -0.0000 -0.9808 -0.1951
vn -0.0000 1.0000 -0.0000
vn 1.0000 -0.0000 -0.0000
vn -1.0000 -0.0000 -0.0000
vn -0.0000 -1.0000 -0.0000
vn -0.0000 -0.9808 0.1951
vn -0.0000 -0.7071 0.7071
vn -0.0000 -0.0000 1.0000
vn -0.0000 0.7071 0.7071
vn -0.0000 0.9808 0.1951
vn -0.9239 -0.3827 -0.0000
vn -0.9239 0.3827 -0.0000
vn -0.7071 -0.7071 -0.0000
vn -0.7071 0.7071 -0.0000
vn 0.7071 -0.7071 -0.0000
vn 0.9239 -0.3827 -0.0000
vn 0.9239 0.3827 -0.0000
vn 0.7071 0.7071 -0.0000
vn -0.0000 0.3827 0.9239
vn -0.0000 -0.3827 0.9239
vn -0.0000 -0.9239 0.3827
vn -0.0000 0.9239 0.3827
vn 0.5000 -0.8660 -0.0000
vn 0.8660 0.5000 -0.0000
vn 0.5000 0.8660 -0.0000
vn -0.5000 0.8660 -0.0000
vn -0.8660 0.5000 -0.0000
vn -0.5000 -0.8660 -0.0000
vn -0.8478 0.4895 -0.2040
vn 0.8478 0.4895 -0.2040
vn -0.0000 -0.9790 -0.2040
vt 0.343750 0.025000
vt 0.343750 0.225000
vt 0.343750 0.195711
vt 0.343750 0.125000
vt 0.343750 0.075000
vt 0.218750 0.195711
vt 0.218750 0.075000
vt 0.218750 0.125000
vt 0.218750 0.225000
vt 0.343750 0.105000
vt 0.343750 0.054289
vt 0.218750 0.355000
vt 0.218750 0.475000
vt 0.218750 0.105000
vt 0.093750 0.225000
vt 0.093750 0.025000
vt 0.343750 0.050000
vt 0.218750 0.025000
s 1
usemtl colormap.008
f 3/1/1 2/1/2 1/1/3
f 2/1/2 3/1/1 4/1/4
f 2/1/2 4/1/4 5/1/5
f 5/1/5 4/1/4 6/1/6
f 5/1/5 6/1/6 7/1/7
f 11/2/8 10/2/9 9/2/10
f 5/1/5 14/2/11 12/2/12
f 11/2/8 1/1/3 2/1/2
f 6/1/6 13/2/13 15/2/14
f 6/1/6 16/2/15 8/1/16
f 16/2/15 6/1/6 15/2/14
f 8/1/16 14/2/11 7/1/7
f 10/2/9 1/1/3 9/2/10
f 7/1/7 6/1/6 8/1/16
f 10/2/9 11/2/8 12/2/12
f 10/2/9 12/2/12 13/2/13
f 13/2/13 12/2/12 14/2/11
f 13/2/13 14/2/11 15/2/14
f 15/2/14 14/2/11 16/2/15
f 14/2/11 5/1/5 7/1/7
f 12/2/12 2/1/2 5/1/5
f 2/1/2 12/2/12 11/2/8
f 1/1/3 11/2/8 9/2/10
f 10/2/9 4/1/4 3/1/1
f 4/1/4 10/2/9 13/2/13
f 13/2/13 6/1/6 4/1/4
f 14/2/11 8/1/16 16/2/15
f 1/1/3 10/2/9 3/1/1
f 19/3/17 18/4/18 17/4/18
f 18/4/18 19/3/17 20/3/17
f 22/2/19 19/3/17 21/2/19
f 19/3/17 22/2/19 20/3/17
f 24/3/20 21/2/19 23/3/20
f 21/2/19 24/3/20 22/2/19
f 24/3/20 26/4/21 25/4/21
f 26/4/21 24/3/20 23/3/20
f 29/3/20 28/4/21 27/4/21
f 28/4/21 29/3/20 30/3/20
f 29/3/20 31/2/19 30/3/20
f 31/2/19 29/3/20 32/2/19
f 32/2/19 33/3/17 31/2/19
f 33/3/17 32/2/19 34/3/17
f 33/3/17 36/4/18 35/4/18
f 36/4/18 33/3/17 34/3/17
f 37/5/22 35/4/18 36/4/18
f 37/5/22 38/1/22 35/4/18
f 38/1/22 37/5/22 39/1/22
f 40/5/22 39/1/22 37/5/22
f 39/1/22 40/5/22 18/4/18
f 18/4/18 40/5/22 17/4/18
f 30/3/23 41/1/23 28/4/23
f 41/1/23 30/3/23 38/1/23
f 38/1/23 30/3/23 31/2/23
f 38/1/23 31/2/23 33/3/23
f 38/1/23 33/3/23 35/4/23
f 39/1/24 25/4/24 42/1/24
f 25/4/24 39/1/24 24/3/24
f 24/3/24 39/1/24 22/2/24
f 22/2/24 39/1/24 20/3/24
f 20/3/24 39/1/24 18/4/24
f 43/5/25 25/4/21 26/4/21
f 43/5/25 42/1/25 25/4/21
f 42/1/25 43/5/25 41/1/25
f 44/5/25 41/1/25 43/5/25
f 41/1/25 44/5/25 28/4/21
f 28/4/21 44/5/25 27/4/21
f 23/6/23 43/7/23 26/8/23
f 43/7/23 23/6/23 40/7/23
f 40/7/23 23/6/23 21/9/23
f 40/7/23 21/9/23 19/6/23
f 40/7/23 19/6/23 17/8/23
f 37/7/24 27/8/24 44/7/24
f 27/8/24 37/7/24 29/6/24
f 29/6/24 37/7/24 32/9/24
f 32/9/24 37/7/24 34/6/24
f 34/6/24 37/7/24 36/8/24
f 43/7/19 37/7/19 44/7/19
f 37/7/19 43/7/19 40/7/19
f 47/10/23 46/1/23 45/10/23
f 46/1/23 47/10/23 48/1/23
f 48/1/23 47/10/23 49/1/23
f 49/1/23 47/10/23 50/1/23
f 50/1/23 47/10/23 51/1/23
f 54/1/24 53/10/24 52/10/24
f 53/10/24 54/1/24 55/1/24
f 53/10/24 55/1/24 56/1/24
f 53/10/24 56/1/24 57/1/24
f 53/10/24 57/1/24 58/1/24
f 54/4/26 60/11/27 59/11/27
f 60/11/27 54/4/26 46/4/26
f 62/1/28 60/11/27 61/1/28
f 60/11/27 62/1/28 59/11/27
f 64/11/29 61/1/28 63/11/29
f 61/1/28 64/11/29 62/1/28
f 52/2/25 46/4/26 54/4/26
f 46/4/26 52/2/25 45/2/25
f 51/4/30 64/11/29 63/11/29
f 64/11/29 51/4/30 58/4/30
f 47/2/22 58/4/30 51/4/30
f 58/4/30 47/2/22 53/2/22
f 67/12/31 66/13/32 65/13/31
f 66/13/32 67/12/31 68/12/32
f 70/12/33 65/13/31 69/13/33
f 65/13/31 70/12/33 67/12/31
f 72/13/22 47/12/22 71/12/22
f 47/12/22 72/13/22 53/12/22
f 53/12/22 72/13/22 73/12/22
f 73/12/22 72/13/22 74/13/22
f 68/12/32 74/13/34 66/13/32
f 74/13/34 68/12/32 73/12/34
f 77/13/35 76/12/36 75/12/35
f 76/12/36 77/13/35 78/13/36
f 80/13/37 71/12/38 79/12/37
f 71/12/38 80/13/37 72/13/38
f 80/13/37 76/12/36 78/13/36
f 76/12/36 80/13/37 79/12/37
f 69/13/25 52/12/25 70/12/25
f 52/12/25 69/13/25 45/12/25
f 45/12/25 69/13/25 75/12/25
f 75/12/25 69/13/25 77/13/25
f 77/9/19 80/9/19 78/9/19
f 80/9/19 77/9/19 72/9/19
f 72/9/19 77/9/19 69/9/19
f 72/9/19 69/9/19 74/9/19
f 74/9/19 69/9/19 65/9/19
f 74/9/19 65/9/19 66/9/19
f 73/14/28 52/14/28 53/14/28
f 52/14/28 73/14/28 70/14/28
f 70/14/28 73/14/28 68/14/28
f 70/14/28 68/14/28 67/14/28
f 71/14/28 76/14/28 79/14/28
f 76/14/28 71/14/28 75/14/28
f 75/14/28 71/14/28 47/14/28
f 75/14/28 47/14/28 45/14/28
f 83/15/38 82/16/23 81/15/23
f 82/16/23 83/15/38 84/16/38
f 83/15/38 85/16/22 84/16/38
f 85/16/22 83/15/38 86/15/22
f 86/15/22 87/16/34 85/16/22
f 87/16/34 86/15/22 88/15/34
f 87/16/34 90/15/24 89/16/24
f 90/15/24 87/16/34 88/15/34
f 89/16/24 92/15/33 91/16/33
f 92/15/33 89/16/24 90/15/24
f 92/15/33 93/16/25 91/16/33
f 93/16/25 92/15/33 94/15/25
f 94/15/25 95/16/35 93/16/25
f 95/16/35 94/15/25 96/15/35
f 81/15/23 95/16/35 96/15/35
f 95/16/35 81/15/23 82/16/23
f 99/3/17 98/4/18 97/4/18
f 98/4/18 99/3/17 100/3/17
f 102/2/19 99/3/17 101/2/19
f 99/3/17 102/2/19 100/3/17
f 104/3/20 101/2/19 103/3/20
f 101/2/19 104/3/20 102/2/19
f 104/3/20 106/4/21 105/4/21
f 106/4/21 104/3/20 103/3/20
f 109/3/20 108/4/21 107/4/21
f 108/4/21 109/3/20 110/3/20
f 109/3/20 111/2/19 110/3/20
f 111/2/19 109/3/20 112/2/19
f 112/2/19 113/3/17 111/2/19
f 113/3/17 112/2/19 114/3/17
f 113/3/17 116/4/18 115/4/18
f 116/4/18 113/3/17 114/3/17
f 119/1/39 118/1/40 117/1/39
f 118/1/40 119/1/39 120/1/40
f 121/5/25 105/4/21 106/4/21
f 121/5/25 122/17/41 105/4/21
f 122/17/41 121/5/25 123/17/41
f 124/5/25 123/17/41 121/5/25
f 123/17/41 124/5/25 108/4/21
f 108/4/21 124/5/25 107/4/21
f 120/1/40 123/17/41 118/1/40
f 123/17/41 120/1/40 122/17/41
f 125/5/22 115/4/18 116/4/18
f 125/5/22 126/17/42 115/4/18
f 126/17/42 125/5/22 127/17/42
f 128/5/22 127/17/42 125/5/22
f 127/17/42 128/5/22 98/4/18
f 98/4/18 128/5/22 97/4/18
f 127/17/42 117/1/39 126/17/42
f 117/1/39 127/17/42 119/1/39
f 110/3/23 123/17/23 108/4/23
f 123/17/23 110/3/23 118/1/23
f 118/1/23 110/3/23 117/1/23
f 117/1/23 110/3/23 111/2/23
f 117/1/23 111/2/23 113/3/23
f 117/1/23 113/3/23 115/4/23
f 117/1/23 115/4/23 126/17/23
f 120/1/24 105/4/24 122/17/24
f 105/4/24 120/1/24 104/3/24
f 104/3/24 120/1/24 119/1/24
f 104/3/24 119/1/24 102/2/24
f 102/2/24 119/1/24 100/3/24
f 100/3/24 119/1/24 98/4/24
f 98/4/24 119/1/24 127/17/24
f 103/6/23 121/7/23 106/8/23
f 121/7/23 103/6/23 128/7/23
f 128/7/23 103/6/23 101/9/23
f 128/7/23 101/9/23 99/6/23
f 128/7/23 99/6/23 97/8/23
f 125/7/24 107/8/24 124/7/24
f 107/8/24 125/7/24 109/6/24
f 109/6/24 125/7/24 112/9/24
f 112/9/24 125/7/24 114/6/24
f 114/6/24 125/7/24 116/8/24
f 121/7/19 125/7/19 124/7/19
f 125/7/19 121/7/19 128/7/19
f 131/9/19 130/9/19 129/9/19
f 130/9/19 131/9/19 132/9/19
f 132/9/19 131/9/19 133/9/19
f 132/9/19 133/9/19 134/9/19
f 134/9/19 133/9/19 135/9/19
f 134/9/19 135/9/19 136/9/19
f 139/14/28 138/14/28 137/14/28
f 138/14/28 139/14/28 140/14/28
f 140/14/28 139/14/28 141/14/28
f 140/14/28 141/14/28 142/14/28
f 145/14/28 144/14/28 143/14/28
f 144/14/28 145/14/28 146/14/28
f 146/14/28 145/14/28 147/14/28
f 146/14/28 147/14/28 148/14/28
f 141/10/23 149/1/23 142/10/23
f 149/1/23 141/10/23 150/1/23
f 150/1/23 141/10/23 151/1/23
f 151/1/23 141/10/23 152/1/23
f 152/1/23 141/10/23 153/1/23
f 154/1/24 143/10/24 144/10/24
f 143/10/24 154/1/24 155/1/24
f 143/10/24 155/1/24 156/1/24
f 143/10/24 156/1/24 157/1/24
f 143/10/24 157/1/24 158/1/24
f 153/4/30 157/11/29 152/11/29
f 157/11/29 153/4/30 158/4/30
f 160/1/28 150/11/27 159/1/28
f 150/11/27 160/1/28 155/11/27
f 141/2/22 158/4/30 153/4/30
f 158/4/30 141/2/22 143/2/22
f 157/11/29 159/1/28 152/11/29
f 159/1/28 157/11/29 160/1/28
f 154/4/26 150/11/27 155/11/27
f 150/11/27 154/4/26 149/4/26
f 144/2/25 149/4/26 154/4/26
f 149/4/26 144/2/25 142/2/25
f 146/12/33 135/13/31 133/13/33
f 135/13/31 146/12/33 148/12/31
f 145/12/34 136/13/32 147/12/32
f 136/13/32 145/12/34 134/13/34
f 132/13/22 141/12/22 139/12/22
f 141/12/22 132/13/22 143/12/22
f 143/12/22 132/13/22 145/12/22
f 145/12/22 132/13/22 134/13/22
f 130/13/37 138/12/36 129/13/36
f 138/12/36 130/13/37 137/12/37
f 131/13/35 138/12/36 140/12/35
f 138/12/36 131/13/35 129/13/36
f 148/12/31 136/13/32 135/13/31
f 136/13/32 148/12/31 147/12/32
f 130/13/37 139/12/38 137/12/37
f 139/12/38 130/13/37 132/13/38
f 133/13/25 144/12/25 146/12/25
f 144/12/25 133/13/25 142/12/25
f 142/12/25 133/13/25 140/12/25
f 140/12/25 133/13/25 131/13/25
f 163/15/38 162/16/23 161/15/23
f 162/16/23 163/15/38 164/16/38
f 163/15/38 165/16/22 164/16/38
f 165/16/22 163/15/38 166/15/22
f 166/15/22 167/16/34 165/16/22
f 167/16/34 166/15/22 168/15/34
f 167/16/34 170/15/24 169/16/24
f 170/15/24 167/16/34 168/15/34
f 169/16/24 172/15/33 171/16/33
f 172/15/33 169/16/24 170/15/24
f 172/15/33 173/16/25 171/16/33
f 173/16/25 172/15/33 174/15/25
f 174/15/25 175/16/35 173/16/25
f 175/16/35 174/15/25 176/15/35
f 161/15/23 175/16/35 176/15/35
f 175/16/35 161/15/23 162/16/23
f 179/3/17 178/4/18 177/4/18
f 178/4/18 179/3/17 180/3/17
f 182/2/19 179/3/17 181/2/19
f 179/3/17 182/2/19 180/3/17
f 184/3/20 181/2/19 183/3/20
f 181/2/19 184/3/20 182/2/19
f 184/3/20 186/4/21 185/4/21
f 186/4/21 184/3/20 183/3/20
f 189/3/20 188/4/21 187/4/21
f 188/4/21 189/3/20 190/3/20
f 189/3/20 191/2/19 190/3/20
f 191/2/19 189/3/20 192/2/19
f 192/2/19 193/3/17 191/2/19
f 193/3/17 192/2/19 194/3/17
f 193/3/17 196/4/18 195/4/18
f 196/4/18 193/3/17 194/3/17
f 199/1/39 198/1/40 197/1/39
f 198/1/40 199/1/39 200/1/40
f 201/5/25 185/4/21 186/4/21
f 201/5/25 202/17/41 185/4/21
f 202/17/41 201/5/25 203/17/41
f 204/5/25 203/17/41 201/5/25
f 203/17/41 204/5/25 188/4/21
f 188/4/21 204/5/25 187/4/21
f 202/17/41 198/1/40 200/1/40
f 198/1/40 202/17/41 203/17/41
f 205/5/22 195/4/18 196/4/18
f 205/5/22 206/17/42 195/4/18
f 206/17/42 205/5/22 207/17/42
f 208/5/22 207/17/42 205/5/22
f 207/17/42 208/5/22 178/4/18
f 178/4/18 208/5/22 177/4/18
f 206/17/42 199/1/39 197/1/39
f 199/1/39 206/17/42 207/17/42
f 200/1/24 185/4/24 202/17/24
f 185/4/24 200/1/24 184/3/24
f 184/3/24 200/1/24 199/1/24
f 184/3/24 199/1/24 182/2/24
f 182/2/24 199/1/24 180/3/24
f 180/3/24 199/1/24 178/4/24
f 178/4/24 199/1/24 207/17/24
f 190/3/23 203/17/23 188/4/23
f 203/17/23 190/3/23 198/1/23
f 198/1/23 190/3/23 197/1/23
f 197/1/23 190/3/23 191/2/23
f 197/1/23 191/2/23 193/3/23
f 197/1/23 193/3/23 195/4/23
f 197/1/23 195/4/23 206/17/23
f 183/6/23 201/7/23 186/8/23
f 201/7/23 183/6/23 208/7/23
f 208/7/23 183/6/23 181/9/23
f 208/7/23 181/9/23 179/6/23
f 208/7/23 179/6/23 177/8/23
f 205/7/24 187/8/24 204/7/24
f 187/8/24 205/7/24 189/6/24
f 189/6/24 205/7/24 192/9/24
f 192/9/24 205/7/24 194/6/24
f 194/6/24 205/7/24 196/8/24
f 201/7/19 205/7/19 204/7/19
f 205/7/19 201/7/19 208/7/19
f 211/1/28 210/11/27 209/1/28
f 210/11/27 211/1/28 212/11/27
f 215/2/25 214/4/26 213/4/26
f 214/4/26 215/2/25 216/2/25
f 218/11/29 209/1/28 217/11/29
f 209/1/28 218/11/29 211/1/28
f 219/4/30 218/11/29 217/11/29
f 218/11/29 219/4/30 220/4/30
f 221/2/22 220/4/30 219/4/30
f 220/4/30 221/2/22 222/2/22
f 213/4/26 210/11/27 212/11/27
f 210/11/27 213/4/26 214/4/26
f 221/2/23 214/4/23 216/2/23
f 214/4/23 221/2/23 210/11/23
f 210/11/23 221/2/23 209/1/23
f 209/1/23 221/2/23 217/11/23
f 217/11/23 221/2/23 219/4/23
f 213/4/24 222/2/24 215/2/24
f 222/2/24 213/4/24 212/11/24
f 222/2/24 212/11/24 211/1/24
f 222/2/24 211/1/24 218/11/24
f 222/2/24 218/11/24 220/4/24
f 225/2/43 224/5/23 223/5/43
f 224/5/23 225/2/43 226/2/23
f 229/2/19 228/2/19 227/2/19
f 228/2/19 229/2/19 230/2/19
f 229/2/44 232/5/45 231/5/44
f 232/5/45 229/2/44 227/2/45
f 228/2/46 234/5/47 233/5/46
f 234/5/47 228/2/46 230/2/47
f 228/2/46 232/5/45 227/2/45
f 232/5/45 228/2/46 233/5/46
f 237/2/19 236/2/19 235/2/19
f 236/2/19 237/2/19 238/2/19
f 235/2/47 240/5/24 239/5/47
f 240/5/24 235/2/47 236/2/24
f 242/5/48 237/2/25 241/5/25
f 237/2/25 242/5/48 238/2/48
f 236/2/24 242/5/48 240/5/24
f 242/5/48 236/2/24 238/2/48
f 226/2/23 243/5/44 224/5/23
f 243/5/44 226/2/23 244/2/44
f 226/2/19 245/2/19 244/2/19
f 245/2/19 226/2/19 225/2/19
f 246/5/25 225/2/43 223/5/43
f 225/2/43 246/5/25 245/2/25
f 244/2/49 246/5/49 243/5/49
f 246/5/49 244/2/49 245/2/49
f 237/2/50 239/5/50 241/5/50
f 239/5/50 237/2/50 235/2/50
f 234/5/51 229/2/51 231/5/51
f 229/2/51 234/5/51 230/2/51
f 243/7/46 248/18/24 247/18/46
f 248/18/24 243/7/46 246/7/24
f 241/7/23 250/18/45 249/18/23
f 250/18/45 241/7/23 239/7/45
f 252/18/48 231/7/43 251/18/43
f 231/7/43 252/18/48 234/7/48
f 231/7/43 249/18/23 251/18/43
f 249/18/23 231/7/43 241/7/23
f 246/7/24 252/18/48 248/18/24
f 252/18/48 246/7/24 234/7/48
f 243/7/46 250/18/45 239/7/45
f 250/18/45 243/7/46 247/18/46
f 248/18/28 250/18/28 247/18/28
f 250/18/28 248/18/28 249/18/28
f 249/18/28 248/18/28 252/18/28
f 249/18/28 252/18/28 251/18/28
f 231/7/19 242/7/19 241/7/19
f 242/7/19 231/7/19 232/7/19
f 233/7/19 242/7/19 232/7/19
f 246/7/19 242/7/19 233/7/19
f 246/7/19 233/7/19 234/7/19
s 0
f 223/7/19 242/7/19 246/7/19
s 1
f 223/7/19 240/7/19 242/7/19
f 224/7/19 240/7/19 223/7/19
f 224/7/19 239/7/19 240/7/19
f 239/7/19 224/7/19 243/7/19
