# Blender 4.3.2
# www.blender.org
mtllib bag.mtl
o bag.007
v 0.037819 0.141515 -0.589300
v 0.062379 0.152088 -0.550250
v 0.052019 0.195379 -0.599759
v -0.062379 0.152088 -0.550250
v -0.037819 0.141515 -0.589300
v -0.059119 0.195379 -0.599759
v 0.059119 -0.195379 -0.599759
v 0.062379 -0.152088 -0.550250
v 0.037819 -0.141515 -0.589300
v -0.062379 -0.152088 -0.550250
v -0.052019 -0.195379 -0.599759
v -0.037819 -0.141515 -0.589300
v 0.102347 0.191487 0.000000
v -0.102347 0.191487 0.000000
v 0.110050 0.205900 -0.078100
v -0.110050 0.205900 -0.078100
v -0.110050 -0.205900 -0.078100
v -0.102347 -0.191487 0.000000
v 0.110050 -0.205900 -0.078100
v 0.102347 -0.191487 0.000000
v 0.086939 -0.162661 -0.511200
v 0.086939 0.162661 -0.511200
v -0.086939 -0.162661 -0.511200
v -0.086939 0.162661 -0.511200
vn 0.5631 0.7032 -0.4341
vn -0.5067 0.5402 0.6719
vn 0.2734 -0.1447 -0.9509
vn -0.6189 0.6660 -0.4165
vn -0.2207 -0.4247 -0.8780
vn 0.4514 0.6068 0.6542
vn 0.4385 0.3198 -0.8399
vn 0.4460 -0.6826 -0.5788
vn 0.6189 -0.6660 -0.4164
vn -0.6245 -0.0383 -0.7801
vn -0.5482 -0.8083 0.2148
vn -0.5559 -0.5136 -0.6536
vn 0.5967 0.7943 0.1139
vn -0.5539 0.5208 0.6496
vn 0.5539 0.5208 0.6496
vn -0.6882 0.7031 0.1787
vn -0.5539 -0.5208 0.6496
vn 0.5539 -0.5208 0.6496
vn 0.7913 -0.6095 0.0485
vn -0.5746 -0.8170 0.0482
vn 0.8161 -0.5616 -0.1363
vn 0.6981 0.6481 -0.3044
vn -0.7020 0.6408 -0.3106
vn -0.8075 -0.4709 -0.3552
vn -0.0000 -0.1029 0.9947
vn -0.0000 -0.1906 0.9817
vn -0.0000 -0.1059 0.9944
vt 0.343750 0.475000
vt 0.343750 0.458490
vt 0.343750 0.471512
vt 0.343750 0.301044
vt 0.343750 0.275000
vt 0.343750 0.445468
s 1
usemtl colormap.032
f 3/1/1 2/2/2 1/3/3
f 6/1/4 5/3/5 4/2/6
f 9/3/7 8/2/8 7/1/9
f 12/3/10 11/1/11 10/2/12
f 15/4/13 14/5/14 13/5/15
f 14/5/14 15/4/13 16/4/16
f 16/4/16 18/5/17 14/5/14
f 15/4/13 20/5/18 19/4/19
f 20/5/18 15/4/13 13/5/15
f 20/5/18 17/4/20 19/4/19
f 21/6/21 15/4/13 19/4/19
f 15/4/13 21/6/21 22/6/22
f 24/6/23 10/2/12 23/6/24
f 12/3/10 1/3/3 9/3/7
f 1/3/3 12/3/10 5/3/5
f 19/4/19 23/6/24 21/6/21
f 16/4/16 23/6/24 17/4/20
f 23/6/24 16/4/16 24/6/23
f 10/2/12 21/6/21 23/6/24
f 2/2/2 24/6/23 22/6/22
f 24/6/23 2/2/2 4/2/6
f 6/1/4 1/3/3 5/3/5
f 3/1/1 4/2/6 2/2/2
f 8/2/8 11/1/11 7/1/9
f 11/1/11 9/3/7 7/1/9
f 18/5/17 16/4/16 17/4/20
f 17/4/20 20/5/18 18/5/17
f 10/2/12 24/6/23 12/3/10
f 12/3/10 24/6/23 5/3/5
f 5/3/5 24/6/23 4/2/6
f 8/2/8 22/6/22 21/6/21
f 22/6/22 8/2/8 9/3/7
f 22/6/22 9/3/7 1/3/3
f 22/6/22 1/3/3 2/2/2
f 14/5/14 20/5/18 13/5/15
f 20/5/18 14/5/14 18/5/17
f 23/6/24 19/4/19 17/4/20
f 22/6/22 16/4/16 15/4/13
f 16/4/16 22/6/22 24/6/23
f 21/6/21 10/2/12 8/2/8
f 1/3/3 6/1/4 3/1/1
f 4/2/6 3/1/1 6/1/4
f 11/1/11 8/2/8 10/2/12
f 12/3/25 11/1/26 9/3/27
