# Blender 4.3.2
# www.blender.org
mtllib trashcan.mtl
o trashcan
v -0.051923 0.089934 0.000000
v -0.103847 0.000000 -0.000000
v -0.051923 0.089934 -0.341056
v -0.103847 0.000000 -0.368184
v -0.051923 0.089934 -0.368184
v -0.051923 -0.089934 -0.000000
v -0.051923 -0.089934 -0.032554
v -0.051923 -0.089934 -0.368184
v 0.051923 -0.089934 -0.368184
v 0.051923 -0.089934 -0.032554
v 0.103847 -0.000000 0.000000
v 0.103847 -0.000000 -0.368184
v 0.051923 -0.089934 -0.000000
v 0.051923 0.089934 0.000000
v 0.051923 0.089934 -0.341056
v 0.051923 0.089934 -0.368184
v -0.046498 -0.122488 -0.000000
v 0.046498 -0.122488 -0.000000
v -0.051923 0.089934 -0.395312
v 0.051923 0.089934 -0.395312
v 0.103847 -0.000000 -0.395312
v 0.051923 -0.089934 -0.395312
v -0.051923 -0.089934 -0.395312
v -0.103847 0.000000 -0.395312
v 0.035308 -0.061155 -0.427866
v 0.070616 -0.000000 -0.427866
v -0.035308 -0.061155 -0.427866
v -0.070616 0.000000 -0.427866
v 0.035308 0.061155 -0.427866
v -0.035308 0.061155 -0.427866
v -0.046498 -0.122488 -0.027128
v 0.046498 -0.122488 -0.027128
v -0.044654 0.111636 -0.342955
v -0.044654 0.111636 -0.366285
v 0.044654 0.111636 -0.342955
v 0.044654 0.111636 -0.366285
vn -0.7924 -0.0000 0.6100
vn -0.3962 0.6862 0.6100
vn -0.7250 0.6533 0.2183
vn -1.0000 -0.0000 -0.0000
vn -0.7250 0.6533 -0.2183
vn -0.6231 -0.2235 0.7495
vn -0.7286 -0.6391 -0.2462
vn -0.5000 -0.8660 -0.0000
vn 0.5000 -0.8660 -0.0000
vn 0.7286 -0.6391 -0.2462
vn 1.0000 -0.0000 -0.0000
vn 0.7924 -0.0000 0.6100
vn 0.6231 -0.2235 0.7495
vn 0.3962 0.6862 0.6100
vn 0.7250 0.6533 0.2183
vn 0.7250 0.6533 -0.2183
vn -0.5235 -0.6180 0.5865
vn 0.5235 -0.6180 0.5865
vn 0.4685 0.8115 -0.3492
vn -0.4685 0.8115 -0.3492
vn 0.9370 -0.0000 -0.3492
vn 0.4685 -0.8115 -0.3492
vn -0.4685 -0.8115 -0.3492
vn -0.9370 -0.0000 -0.3492
vn 0.4746 -0.0000 -0.8802
vn 0.2373 -0.4110 -0.8802
vn -0.2373 -0.4110 -0.8802
vn -0.4746 -0.0000 -0.8802
vn 0.2373 0.4110 -0.8802
vn -0.2373 0.4110 -0.8802
vn -0.5295 -0.6628 -0.5295
vn 0.5295 -0.6628 -0.5295
vn -0.4701 0.6778 -0.5653
vn -0.4701 0.6778 0.5653
vn 0.4701 0.6778 0.5653
vn 0.4701 0.6778 -0.5653
vt -4.330709 0.000000
vt 4.330709 -0.000000
vt 4.330709 28.446011
vt -4.330709 30.708660
vt 4.330709 30.708660
vt -4.330709 0.000000
vt 4.330709 0.000000
vt -4.330709 2.715178
vt 4.330709 2.715178
vt -4.330709 -0.000000
vt -4.330709 -0.000000
vt 4.330709 -0.000000
vt -4.330709 28.446011
vt 7.501008 -4.330709
vt 10.216190 -3.878179
vt 10.216190 3.878179
vt 7.501008 4.330709
vt -0.000000 -8.661417
vt 4.330709 -0.000000
vt 4.330709 32.971310
vt -4.330709 32.971310
vt -0.000000 5.889764
vt -5.100685 2.944882
vt -5.100685 -2.944882
vt -0.000000 -5.889764
vt 5.100685 2.944882
vt -4.330709 19.734310
vt 4.330709 19.734310
vt 2.944882 23.358360
vt -6.686984 2.715178
vt -9.439614 2.262648
vt -9.439614 0.000000
vt 6.686984 0.000000
vt 9.439614 0.000000
vt 9.439614 2.262648
vt -3.878179 -9.705206
vt 3.878179 -9.705206
vt 4.330709 -6.952576
vt -4.330709 -6.952576
vt 3.878179 0.000000
vt 3.878179 2.262648
vt -3.878179 2.262648
vt -3.724409 30.550280
vt -3.724409 28.604401
vt 3.724409 28.604401
vt 5.737160 30.708660
vt 5.737160 28.446011
vt 7.646120 28.604401
vt -4.330709 9.952008
vt 4.330709 9.952008
vt 3.724409 11.769040
vt 3.724409 -6.612711
vt 4.330709 -4.795676
vt -4.330709 -4.795676
vt 0.000000 8.661417
vt -7.501008 4.330709
vt -7.501008 -4.330709
vt 5.100685 -2.944882
vt -2.944882 23.358360
vt -6.686984 0.000000
vt 6.686984 2.715178
vt -3.878179 0.000000
vt 3.724409 30.550280
vt 7.646120 30.550280
vt -3.724409 11.769040
vt -7.646120 28.604401
vt -5.737160 28.446011
vt -5.737160 30.708660
vt -7.646120 30.550280
vt -3.724409 -6.612711
s 1
usemtl metal.016
f 2/1/1 1/2/2 3/3/3
f 3/3/3 4/4/4 2/1/1
f 3/3/3 5/5/5 4/4/4
f 6/6/6 2/7/1 4/5/4
f 4/5/4 7/8/7 6/6/6
f 4/5/4 8/4/8 7/8/7
f 7/9/7 8/5/8 9/4/9
f 9/4/9 10/8/10 7/9/7
f 12/4/11 11/10/12 13/7/13
f 13/7/13 10/9/10 12/4/11
f 10/9/10 9/5/9 12/4/11
f 14/11/14 11/12/12 12/5/11
f 12/5/11 15/13/15 14/11/14
f 12/5/11 16/4/16 15/13/15
f 6/14/6 17/15/17 18/16/18
f 18/16/18 13/17/13 6/14/6
f 13/17/13 2/18/1 6/14/6
f 14/19/14 15/3/15 3/13/3
f 13/17/13 11/55/12 2/18/1
f 11/55/12 14/56/14 2/18/1
f 14/56/14 1/57/2 2/18/1
f 3/13/3 1/10/2 14/19/14
usemtl metalDark.004
f 16/5/16 20/20/19 19/21/20
f 16/4/16 12/5/11 21/20/21
f 21/20/21 20/21/19 16/4/16
f 12/4/11 9/5/9 22/20/22
f 22/20/22 21/21/21 12/4/11
f 8/5/8 23/20/23 22/21/22
f 22/21/22 9/4/9 8/5/8
f 8/4/8 4/5/4 24/20/24
f 24/20/24 23/21/23 8/4/8
f 26/22/25 25/23/26 27/24/27
f 27/24/27 28/25/28 26/22/25
f 28/25/28 29/26/29 26/22/25
f 24/27/24 19/28/20 30/29/30
f 7/30/7 31/31/31 17/32/17
f 13/33/13 18/34/18 32/35/32
f 32/36/32 31/37/31 7/38/7
f 7/38/7 10/39/10 32/36/32
f 17/40/17 31/41/31 32/42/32
f 34/43/33 33/44/34 35/45/35
f 5/46/5 3/47/3 33/48/34
f 3/49/3 15/50/15 35/51/35
f 36/52/36 16/53/16 5/54/5
f 19/21/20 5/4/5 16/5/16
f 4/4/4 5/5/5 19/20/20
f 19/20/20 24/21/24 4/4/4
f 28/25/28 30/58/30 29/26/29
f 22/27/22 23/28/23 27/29/27
f 27/29/27 25/59/26 22/27/22
f 27/59/27 23/27/23 24/28/24
f 24/28/24 28/29/28 27/59/27
f 30/29/30 28/59/28 24/27/24
f 30/59/30 19/27/20 20/28/19
f 20/28/19 29/29/29 30/59/30
f 21/28/21 26/29/25 29/59/29
f 29/59/29 20/27/19 21/28/21
f 21/27/21 22/28/22 25/29/26
f 25/29/26 26/59/25 21/27/21
f 17/32/17 6/60/6 7/30/7
f 32/35/32 10/61/10 13/33/13
f 32/42/32 18/62/18 17/40/17
f 35/45/35 36/63/36 34/43/33
f 33/48/34 34/64/33 5/46/5
f 35/51/35 33/65/34 3/49/3
f 35/66/35 15/67/15 16/68/16
f 16/68/16 36/69/36 35/66/35
f 5/54/5 34/70/33 36/52/36
