# Blender 4.3.2
# www.blender.org
mtllib shopping-cart.004.mtl
o shopping-cart.003
v 0.075000 0.125000 -0.072000
v 0.075000 -0.175000 -0.072000
v -0.075000 0.125000 -0.072000
v -0.075000 -0.175000 -0.072000
v -0.075000 -0.175000 -0.122000
v -0.075000 -0.125000 -0.122000
v -0.075000 0.125000 -0.122000
v -0.075000 -0.150000 -0.222000
v -0.075000 -0.125000 -0.222000
v 0.075000 -0.175000 -0.122000
v 0.075000 -0.150000 -0.222000
v 0.075000 -0.125000 -0.122000
v 0.075000 -0.125000 -0.222000
v 0.075000 0.125000 -0.122000
v 0.125000 0.068120 -0.056880
v 0.125000 0.084780 -0.016660
v 0.125000 0.084780 -0.097100
v 0.125000 0.098944 -0.102967
v 0.125000 0.125000 -0.000000
v 0.125000 0.125000 -0.113760
v 0.125000 0.151056 -0.102967
v 0.125000 0.165220 -0.016660
v 0.125000 0.165220 -0.097100
v 0.125000 0.181880 -0.056880
v 0.100000 -0.075000 -0.172000
v 0.100000 0.165054 -0.172000
v -0.100000 -0.075000 -0.172000
v 0.090054 0.175000 -0.172000
v -0.090054 0.175000 -0.172000
v -0.100000 0.165054 -0.172000
v 0.125000 -0.175000 -0.056880
v 0.125000 -0.158340 -0.016660
v 0.125000 -0.158340 -0.097100
v 0.125000 -0.144176 -0.102967
v 0.125000 -0.118120 -0.000000
v 0.125000 -0.118120 -0.113760
v 0.125000 -0.092064 -0.102967
v 0.125000 -0.077900 -0.016660
v 0.125000 -0.077900 -0.097100
v 0.125000 -0.061240 -0.056880
v -0.125000 -0.175000 -0.056880
v -0.125000 -0.158340 -0.097100
v -0.125000 -0.158340 -0.016660
v -0.125000 -0.118120 -0.000000
v -0.125000 -0.118120 -0.113760
v -0.125000 -0.077900 -0.016660
v -0.125000 -0.077900 -0.097100
v -0.125000 -0.061240 -0.056880
v -0.125000 0.068120 -0.056880
v -0.125000 0.084780 -0.097100
v -0.125000 0.084780 -0.016660
v -0.125000 0.125000 -0.000000
v -0.125000 0.125000 -0.113760
v -0.125000 0.165220 -0.016660
v -0.125000 0.165220 -0.097100
v -0.125000 0.181880 -0.056880
v 0.100000 0.225000 -0.222000
v 0.050000 0.225000 -0.222000
v 0.100000 0.225000 -0.297000
v 0.050000 0.225000 -0.297000
v 0.150000 0.175000 -0.222000
v 0.150000 0.175000 -0.297000
v 0.150000 0.125000 -0.222000
v 0.150000 0.125000 -0.297000
v 0.100000 0.125000 -0.222000
v 0.100000 0.125000 -0.297000
v 0.100000 0.165054 -0.297000
v 0.100000 0.165054 -0.222000
v 0.050000 0.175000 -0.297000
v 0.050000 0.175000 -0.222000
v 0.090054 0.175000 -0.222000
v 0.090054 0.175000 -0.297000
v 0.135355 0.210355 -0.222000
v 0.135355 0.210355 -0.297000
v -0.150000 0.175000 -0.222000
v -0.150000 0.125000 -0.222000
v -0.150000 0.175000 -0.297000
v -0.150000 0.125000 -0.297000
v -0.100000 0.225000 -0.222000
v -0.100000 0.225000 -0.297000
v -0.050000 0.225000 -0.222000
v -0.050000 0.225000 -0.297000
v -0.050000 0.175000 -0.222000
v -0.050000 0.175000 -0.297000
v -0.090054 0.175000 -0.297000
v -0.090054 0.175000 -0.222000
v -0.100000 0.125000 -0.297000
v -0.100000 0.125000 -0.222000
v -0.100000 0.165054 -0.222000
v -0.100000 0.165054 -0.297000
v -0.135355 0.210355 -0.222000
v -0.135355 0.210355 -0.297000
v 0.150000 -0.125000 -0.222000
v 0.150000 -0.025000 -0.222000
v 0.150000 -0.125000 -0.297000
v 0.150000 -0.025000 -0.297000
v 0.050000 -0.125000 -0.222000
v 0.050000 -0.125000 -0.297000
v 0.050000 -0.075000 -0.222000
v 0.050000 -0.075000 -0.297000
v 0.100000 -0.075000 -0.297000
v 0.100000 -0.075000 -0.222000
v 0.100000 -0.025000 -0.297000
v 0.100000 -0.025000 -0.222000
v -0.150000 -0.125000 -0.222000
v -0.050000 -0.125000 -0.222000
v -0.150000 -0.125000 -0.297000
v -0.050000 -0.125000 -0.297000
v -0.150000 -0.025000 -0.222000
v -0.150000 -0.025000 -0.297000
v -0.050000 -0.075000 -0.297000
v -0.050000 -0.075000 -0.222000
v -0.100000 -0.075000 -0.222000
v -0.100000 -0.075000 -0.297000
v -0.100000 -0.025000 -0.222000
v -0.100000 -0.025000 -0.297000
v -0.150000 -0.125000 -0.172000
v -0.150000 -0.125000 -0.222000
v -0.150000 0.175000 -0.172000
v -0.150000 0.175000 -0.222000
v 0.150000 -0.125000 -0.172000
v 0.150000 -0.125000 -0.222000
v 0.150000 0.175000 -0.222000
v 0.150000 0.175000 -0.172000
v 0.100000 0.225000 -0.172000
v -0.100000 0.225000 -0.172000
v 0.100000 0.225000 -0.222000
v -0.100000 0.225000 -0.222000
v 0.135355 0.210355 -0.172000
v 0.135355 0.210355 -0.222000
v -0.135355 0.210355 -0.172000
v -0.135355 0.210355 -0.222000
v 0.090054 0.175000 -0.172000
v -0.090054 0.175000 -0.172000
v -0.100000 0.165054 -0.222000
v -0.090054 0.175000 -0.222000
v -0.100000 -0.075000 -0.222000
v 0.090054 0.175000 -0.222000
v 0.100000 -0.075000 -0.222000
v 0.100000 0.165054 -0.222000
v -0.150000 -0.125000 -0.347000
v -0.150000 0.175000 -0.347000
v 0.150000 -0.125000 -0.347000
v 0.150000 0.175000 -0.347000
v 0.100000 0.225000 -0.297000
v -0.100000 0.225000 -0.297000
v 0.100000 0.225000 -0.347000
v -0.100000 0.225000 -0.347000
v 0.135355 0.210355 -0.347000
v -0.135355 0.210355 -0.347000
v 0.100000 -0.075000 -0.297000
v 0.100000 0.165054 -0.297000
v -0.100000 0.165054 -0.297000
v -0.100000 -0.075000 -0.297000
v -0.100000 0.165054 -0.347000
v -0.090054 0.175000 -0.347000
v -0.100000 -0.075000 -0.347000
v 0.090054 0.175000 -0.347000
v 0.100000 -0.075000 -0.347000
v 0.100000 0.165054 -0.347000
v 0.075000 0.068120 -0.056880
v 0.075000 0.084780 -0.097100
v 0.075000 0.084780 -0.016660
v 0.075000 0.125000 -0.000000
v 0.075000 0.125000 -0.113760
v 0.075000 0.165220 -0.016660
v 0.075000 0.165220 -0.097100
v 0.075000 0.181880 -0.056880
v 0.075000 -0.175000 -0.056880
v 0.075000 -0.158340 -0.097100
v 0.075000 -0.158340 -0.016660
v 0.075000 -0.118120 -0.000000
v 0.075000 -0.118120 -0.113760
v 0.075000 -0.077900 -0.016660
v 0.075000 -0.077900 -0.097100
v 0.075000 -0.061240 -0.056880
v -0.075000 -0.158340 -0.016660
v -0.075000 -0.175000 -0.056880
v -0.075000 -0.118120 0.000000
v -0.075000 -0.077900 -0.016660
v -0.075000 -0.061240 -0.056880
v -0.075000 -0.077900 -0.097100
v -0.075000 -0.118120 -0.113760
v -0.075000 -0.092064 -0.102967
v -0.075000 -0.158340 -0.097100
v -0.075000 -0.144176 -0.102967
v -0.075000 0.084780 -0.016660
v -0.075000 0.068120 -0.056880
v -0.075000 0.125000 0.000000
v -0.075000 0.165220 -0.016660
v -0.075000 0.181880 -0.056880
v -0.075000 0.165220 -0.097100
v -0.075000 0.125000 -0.113760
v -0.075000 0.151056 -0.102967
v -0.075000 0.084780 -0.097100
v -0.075000 0.098944 -0.102967
v 0.100000 -0.240974 -0.390560
v 0.100000 -0.192678 -0.377619
v -0.100000 -0.240974 -0.390560
v -0.100000 -0.192678 -0.377619
v 0.100000 -0.205619 -0.329322
v -0.100000 -0.205619 -0.329322
v 0.100000 -0.253915 -0.342263
v -0.100000 -0.253915 -0.342263
v -0.150000 -0.253915 -0.342263
v -0.150000 -0.240974 -0.390560
v -0.150000 -0.157322 -0.316381
v -0.150000 -0.144381 -0.364678
v 0.150000 -0.253915 -0.342263
v 0.100000 -0.240974 -0.390560
v 0.150000 -0.240974 -0.390560
v -0.100000 -0.240974 -0.390560
v -0.100000 -0.144381 -0.364678
v -0.100000 -0.157322 -0.316381
v 0.100000 -0.157322 -0.316381
v 0.100000 -0.144381 -0.364678
v 0.150000 -0.144381 -0.364678
v 0.150000 -0.157322 -0.316381
v -0.135355 -0.123172 -0.307231
v -0.135355 -0.110231 -0.355527
v -0.100000 -0.109026 -0.303440
v -0.100000 -0.096085 -0.351737
v 0.135355 -0.110231 -0.355527
v 0.135355 -0.123172 -0.307231
v 0.100000 -0.109026 -0.303440
v 0.100000 -0.096085 -0.351737
vn -0.5774 0.5773 0.5774
vn 0.5774 -0.5773 0.5773
vn 0.5773 0.5774 0.5774
vn -0.5774 -0.5774 0.5774
vn -0.6806 -0.7271 -0.0895
vn -0.9045 0.3015 -0.3015
vn -0.5774 0.5774 -0.5774
vn -0.6766 -0.7335 -0.0650
vn 0.6806 -0.7272 -0.0895
vn 0.6903 -0.6501 -0.3175
vn 0.9045 0.3015 -0.3015
vn 0.5773 0.5774 -0.5773
vn 0.5774 0.5773 -0.5774
vn 0.7166 -0.6242 0.3112
vn 0.6600 -0.2764 -0.6985
vn 0.7071 -0.2706 -0.6533
vn 0.6588 -0.2289 0.7167
vn 0.6599 0.3069 -0.6858
vn 0.7071 0.2706 -0.6533
vn 0.6572 0.3726 0.6552
vn 0.7347 0.6400 -0.2248
vn 0.6575 0.6579 0.3671
vn -0.0000 -0.0000 -1.0000
vn -0.0000 -0.0000 1.0000
vn 0.6600 -0.2765 -0.6985
vn -0.7272 -0.6335 0.2644
vn -0.6600 -0.6969 -0.2804
vn -0.6575 -0.6579 0.3671
vn -0.7821 -0.1484 0.6052
vn -0.6600 -0.3004 -0.6886
vn -0.7976 0.5279 0.2919
vn -0.6593 0.3306 -0.6753
vn -0.6575 0.6579 -0.3671
vn -0.8006 0.1705 -0.5745
vn -0.7262 0.6326 0.2691
vn 0.2230 0.9524 -0.2078
vn -0.7071 0.7071 -0.0000
vn 0.1545 0.9662 0.2065
vn 0.7071 -0.7071 -0.0000
vn 0.9524 0.2230 -0.2078
vn 0.9662 0.1545 0.2065
vn -0.7071 -0.7071 -0.0000
vn 0.6369 0.6369 -0.4344
vn 0.6342 0.6342 0.4423
vn -0.9524 0.2230 -0.2078
vn -0.9662 0.1545 0.2065
vn 0.7071 0.7071 -0.0000
vn -0.2230 0.9524 -0.2078
vn -0.1545 0.9662 0.2065
vn -0.6369 0.6369 -0.4344
vn -0.6342 0.6342 0.4423
vn 0.9591 -0.1488 0.2408
vn 0.0520 -0.9986 0.0107
vn 0.7911 -0.5602 -0.2454
vn 0.3624 -0.8748 0.3214
vn -0.7541 -0.0296 0.6560
vn -0.5774 -0.5774 -0.5773
vn -0.5774 -0.5774 0.5773
vn 0.1649 0.6357 -0.7541
vn -0.1604 0.6608 0.7333
vn 0.1653 0.6332 0.7561
vn -0.1578 0.7933 -0.5881
vn 0.4247 0.8040 -0.4161
vn 0.6289 0.6289 0.4573
vn -0.8023 0.4260 0.4182
vn -0.8403 0.1672 -0.5156
vn -0.6749 0.3314 -0.6593
vn 0.8403 0.1672 0.5156
vn 0.6853 0.2786 -0.6729
vn 0.5773 -0.5773 0.5774
vn 0.0012 -0.6615 0.7499
vn -0.9574 -0.0999 0.2710
vn 0.2215 -0.3458 0.9118
vn -0.0000 -0.0000 -0.0000
vn -0.3015 0.3015 -0.9045
vn 0.3015 0.3015 -0.9045
vn 0.5773 -0.5773 -0.5774
vn 0.5019 -0.5650 -0.6549
vn -0.3957 -0.5168 -0.7591
vn -0.7650 -0.6204 -0.1728
vn 0.7650 -0.6204 0.1728
vn 0.6654 -0.0678 -0.7434
vn -0.6712 0.3116 0.6726
vn -0.7391 -0.0406 -0.6723
vn -0.7132 0.2384 0.6591
vn -0.2400 0.7005 -0.6721
vn -0.6433 0.6433 -0.4152
vn 0.8040 0.4247 -0.4161
vn 0.6673 0.3204 0.6723
vn 0.6547 0.3736 0.6571
vn -0.3015 0.3015 0.9045
vn -0.4706 -0.4830 0.7384
vn 0.3015 0.3015 0.9045
vn 0.4801 -0.4193 -0.7705
vn -0.0514 -0.6740 -0.7369
vn -0.2770 -0.3949 -0.8760
vn -0.4616 -0.7797 0.4230
vn 0.6575 -0.6579 0.3671
vn -0.2885 -0.9575 -0.0000
vn -0.4861 -0.2209 0.8455
vn -0.4646 0.7767 0.4253
vn -0.6575 0.6579 0.3671
vn -0.6593 0.6753 -0.3306
vn -0.4121 0.1960 -0.8898
vn -0.3812 -0.5682 -0.7292
vn -0.6600 0.2810 0.6967
vn -0.4603 0.2539 -0.8507
vn 0.6599 -0.3070 -0.6858
vn 0.4052 -0.6465 0.6465
vn 0.3514 -0.0000 -0.9362
vn 0.4616 -0.7797 -0.4230
vn 0.7828 -0.0881 0.6160
vn 0.6591 0.7132 -0.2384
vn 0.6591 0.2384 -0.7132
vn 0.3600 -0.6597 -0.6597
vn 0.2885 -0.9575 -0.0000
vn 0.8288 0.4846 -0.2797
vn -0.8288 0.2797 0.4846
vn 0.8660 0.2500 0.4330
vn 0.8235 -0.1118 -0.5561
vn -0.8235 -0.3748 0.4258
vn -0.8235 -0.4258 -0.3748
vn -0.7824 -0.1833 0.5952
vn -0.5773 -0.4083 -0.7071
vn -0.5774 -0.7071 0.4082
vn -0.7391 0.1348 -0.6599
vn 0.3015 -0.0571 -0.9518
vn 0.7508 -0.6563 0.0750
vn 0.5774 -0.4082 -0.7071
vn -0.8442 -0.5131 0.1550
vn -0.6925 -0.5098 -0.5103
vn -0.8702 -0.4025 0.2842
vn -0.8431 -0.4040 -0.3550
vn 0.7747 0.1726 -0.6083
vn 0.5773 -0.7071 0.4082
vn -0.8016 0.3035 0.5151
vn -0.6743 0.4920 -0.5507
vn 0.7708 0.1407 0.6213
vn 0.6707 0.7298 -0.1325
vn 0.6550 0.1902 0.7313
vn 0.5757 0.3345 0.7461
vn 0.1873 0.9819 -0.0268
vn -0.0365 0.8792 -0.4751
vn -0.3243 0.2404 0.9149
vn 0.9949 -0.0946 0.0352
vn 0.6575 -0.6579 -0.3671
vn -0.9986 -0.0520 0.0107
vn -0.8749 -0.3624 0.3214
vn -0.5602 -0.7911 -0.2454
vn -0.1488 -0.9591 0.2408
vn -0.8660 0.4330 -0.2500
vn 0.8235 -0.5562 0.1116
vt 0.468750 0.025000
vt 0.468750 0.091667
vt 0.468750 0.225000
vt 0.468750 0.054289
vt 0.468750 0.195711
vt 0.468750 0.206025
vt 0.468750 0.125000
vt 0.406250 0.125000
vt 0.468750 0.075000
vt 0.468750 0.175000
vt 0.093750 0.054289
vt 0.093750 0.125000
vt 0.093750 0.025000
vt 0.093750 0.195711
vt 0.093750 0.225000
vt 0.093750 0.206025
vt 0.593750 0.475000
vt 0.593750 0.275000
vt 0.218750 0.025000
vt 0.218750 0.225000
s 1
usemtl colormap.325
f 3/1/1 2/1/2 1/1/3
f 2/1/2 3/1/1 4/1/4
f 3/1/1 5/2/5 4/1/4
f 5/2/5 3/1/1 6/2/6
f 6/2/6 3/1/1 7/2/7
f 5/2/5 6/2/6 8/3/8
f 9/3/7 8/3/8 6/2/6
f 5/2/5 2/1/2 4/1/4
f 2/1/2 5/2/5 10/2/9
f 11/3/10 2/1/2 10/2/9
f 12/2/11 11/3/10 13/3/12
f 2/1/2 12/2/11 1/1/3
f 3/1/1 14/2/13 7/2/7
f 13/3/12 6/2/6 12/2/11
f 6/2/6 13/3/12 9/3/7
f 8/3/8 10/2/9 5/2/5
f 10/2/9 8/3/8 11/3/10
f 8/3/8 13/3/12 11/3/10
f 13/3/12 8/3/8 9/3/7
f 6/2/6 14/2/13 12/2/11
f 14/2/13 6/2/6 7/2/7
f 16/4/14 17/5/15 18/6/16
f 16/4/14 18/6/16 19/1/17
f 19/1/17 20/3/18 21/6/19
f 19/1/17 21/6/19 22/4/20
f 22/4/20 21/6/19 23/5/21
f 22/4/20 23/5/21 24/7/22
f 28/1/23 27/1/23 29/1/23
f 29/1/23 27/1/23 30/1/23
f 28/1/24 27/1/24 26/1/24
f 32/4/14 33/5/25 34/6/16
f 32/4/14 34/6/16 35/1/17
f 35/1/17 37/6/19 38/4/20
f 38/4/20 37/6/19 39/5/21
f 38/4/20 39/5/21 40/7/22
f 43/4/26 42/5/27 41/7/28
f 42/5/27 43/4/26 44/1/29
f 42/5/27 44/1/29 45/3/30
f 45/3/30 44/1/29 46/4/31
f 45/3/30 46/4/31 47/5/32
f 47/5/32 46/4/31 48/7/33
f 51/4/26 50/5/27 49/7/28
f 53/3/34 54/4/35 55/5/32
f 59/8/36 58/8/37 57/8/38
f 58/8/37 59/8/36 60/8/37
f 63/8/39 62/8/40 61/8/41
f 62/8/40 63/8/39 64/8/39
f 66/8/42 63/8/39 65/8/42
f 63/8/39 66/8/42 64/8/39
f 74/8/43 61/8/41 62/8/40
f 74/8/43 57/8/38 73/8/44
f 57/8/38 74/8/43 59/8/36
f 77/8/45 76/8/42 75/8/46
f 81/8/47 80/8/48 79/8/49
f 92/8/50 79/8/49 80/8/48
f 92/8/50 75/8/46 91/8/51
f 75/8/46 92/8/50 77/8/45
f 90/8/52 86/8/53 89/8/54
f 86/8/53 90/8/52 85/8/55
f 95/8/39 94/8/47 93/8/39
f 95/8/39 97/8/42 98/8/42
f 100/8/37 97/8/42 99/8/37
f 97/8/42 100/8/37 98/8/42
f 100/8/37 102/8/37 101/8/37
f 102/8/37 100/8/37 99/8/37
f 94/8/47 103/8/37 104/8/37
f 103/8/37 102/8/37 104/8/37
f 102/8/37 103/8/37 101/8/37
f 111/8/47 106/8/39 108/8/39
f 106/8/39 111/8/47 112/8/47
f 111/8/47 113/8/47 112/8/47
f 113/8/47 111/8/47 114/8/47
f 116/8/47 109/8/37 115/8/47
f 113/8/47 116/8/47 115/8/47
f 119/9/56 118/10/57 117/9/58
f 127/10/59 126/9/60 125/9/61
f 126/9/60 127/10/59 128/10/62
f 130/10/63 125/9/61 129/9/64
f 131/9/65 120/10/66 119/9/56
f 120/10/66 131/9/65 132/10/67
f 128/10/62 131/9/65 126/9/60
f 131/9/65 128/10/62 132/10/67
f 130/10/63 124/9/68 123/10/69
f 124/9/68 130/10/63 129/9/64
f 129/9/64 121/9/70 124/9/68
f 121/9/70 25/9/24 117/9/58
f 125/9/61 133/9/71 26/9/72
f 133/9/71 125/9/61 126/9/60
f 133/9/71 126/9/60 134/9/73
s 0
f 30/9/74 126/9/74 27/9/74
s 1
f 117/9/58 131/9/65 119/9/56
f 128/10/62 118/10/57 132/10/67
f 139/10/75 118/10/57 137/10/76
f 139/10/75 122/10/77 118/10/57
f 139/10/75 127/10/59 130/10/63
f 136/10/78 133/9/71 134/9/73
f 133/9/71 136/10/78 138/10/79
f 140/10/80 133/9/71 138/10/79
f 139/10/75 26/9/72 140/10/80
f 139/10/75 27/9/47 25/9/37
f 27/9/47 139/10/75 137/10/76
f 136/10/78 30/9/81 135/10/82
f 141/10/57 77/9/83 142/10/84
f 92/9/85 148/10/86 150/10/87
f 149/10/88 62/9/89 144/10/69
f 95/9/70 74/9/90 151/9/91
f 95/9/70 151/9/91 107/9/58
f 72/9/92 146/9/60 85/9/73
f 85/9/73 146/9/60 153/9/81
f 107/9/58 151/9/91 154/9/93
f 107/9/58 154/9/93 146/9/60
f 107/9/58 146/9/60 92/9/85
f 107/9/58 92/9/85 77/9/83
f 150/10/87 141/10/57 142/10/84
f 148/10/86 141/10/57 150/10/87
f 155/10/94 141/10/57 148/10/86
f 148/10/86 156/10/95 155/10/94
f 157/10/76 141/10/57 155/10/94
f 148/10/86 158/10/96 156/10/95
f 159/10/75 141/10/57 157/10/76
f 159/10/75 143/10/77 141/10/57
f 144/10/69 159/10/75 149/10/88
f 160/10/80 72/9/92 158/10/96
f 153/9/81 156/10/95 85/9/73
f 163/11/97 15/12/98 16/11/14
f 15/12/98 163/11/97 161/12/99
f 164/13/100 16/11/14 19/13/17
f 16/11/14 164/13/100 163/11/97
f 166/11/101 24/12/22 168/12/102
f 23/14/21 168/12/102 24/12/22
f 168/12/102 23/14/21 167/14/103
f 165/15/104 21/16/19 20/15/18
f 21/16/19 165/15/104 23/14/21
f 23/14/21 165/15/104 167/14/103
f 162/14/105 18/16/16 17/14/15
f 18/16/16 162/14/105 20/15/18
f 20/15/18 162/14/105 165/15/104
f 171/11/26 170/14/27 169/12/28
f 170/14/27 171/11/26 172/13/29
f 172/13/29 32/11/14 35/13/17
f 35/13/17 174/11/106 172/13/29
f 174/11/106 40/12/22 176/12/102
f 39/14/21 176/12/102 40/12/22
f 176/12/102 39/14/21 175/14/103
f 37/16/19 173/15/107 39/14/21
f 39/14/21 173/15/107 175/14/103
f 170/14/27 34/16/16 33/14/25
f 34/16/16 170/14/27 36/15/108
f 36/15/108 170/14/27 173/15/107
f 43/11/26 178/12/98 177/11/109
f 45/15/30 184/16/19 183/15/110
f 185/14/111 41/12/28 42/14/27
f 179/13/112 186/16/16 183/15/110
f 179/13/112 183/15/110 184/16/19
f 179/13/112 184/16/19 180/11/20
f 180/11/20 182/14/113 181/12/22
f 194/16/19 53/15/34 192/14/114
f 192/14/114 53/15/34 55/14/32
f 50/14/27 196/16/16 195/14/115
f 196/16/16 50/14/27 193/15/108
f 49/12/28 195/14/115 188/12/116
f 195/14/115 49/12/28 50/14/27
f 187/11/14 195/14/115 196/16/16
f 187/11/14 196/16/16 189/13/17
f 189/13/17 194/16/19 190/11/20
f 190/11/20 194/16/19 192/14/114
f 190/11/20 192/14/114 191/12/22
f 198/17/117 202/18/118 201/18/119
f 197/17/120 204/18/121 199/17/122
f 207/19/123 206/20/124 205/19/125
f 206/20/124 207/19/123 208/20/126
f 213/20/127 204/19/128 212/20/129
f 215/19/130 210/20/131 203/19/132
f 210/20/131 215/19/130 216/20/133
f 206/20/124 204/19/128 205/19/125
f 217/20/134 209/19/135 211/20/129
f 219/19/136 208/20/126 207/19/123
f 208/20/126 219/19/136 220/20/137
f 218/19/138 223/20/139 224/19/140
f 223/20/139 225/19/141 224/19/140
f 225/19/141 223/20/139 226/20/142
f 222/20/143 216/20/133 213/20/127
f 226/20/142 216/20/133 222/20/143
f 226/20/142 210/20/131 216/20/133
f 223/20/139 210/20/131 226/20/142
f 217/20/134 210/20/131 223/20/139
f 210/20/131 217/20/134 211/20/129
f 204/19/128 221/19/144 205/19/125
f 221/19/144 215/19/130 225/19/141
f 203/19/132 225/19/141 215/19/130
f 203/19/132 224/19/140 225/19/141
f 209/19/135 224/19/140 203/19/132
f 224/19/140 209/19/135 218/19/138
f 226/20/142 221/19/144 225/19/141
f 213/20/127 215/19/130 214/19/145
f 215/19/130 213/20/127 216/20/133
f 2/1/2 11/3/10 12/2/11
f 1/1/3 12/2/11 14/2/13
f 14/2/13 3/1/1 1/1/3
f 17/5/15 16/4/14 15/7/98
f 19/1/17 18/6/16 20/3/18
f 27/1/23 26/1/23 25/1/23
f 33/5/25 32/4/14 31/7/146
f 35/1/17 34/6/16 36/3/108
f 35/1/17 36/3/108 37/6/19
f 50/5/27 51/4/26 52/1/29
f 50/5/27 52/1/29 53/3/34
f 53/3/34 52/1/29 54/4/35
f 55/5/32 54/4/35 56/7/33
f 66/8/42 68/8/147 67/8/148
f 68/8/147 66/8/42 65/8/42
f 69/8/42 58/8/37 60/8/37
f 58/8/37 69/8/42 70/8/42
f 69/8/42 71/8/149 70/8/42
f 71/8/149 69/8/42 72/8/150
f 61/8/41 74/8/43 73/8/44
f 72/8/150 68/8/147 71/8/149
f 68/8/147 72/8/150 67/8/148
f 76/8/42 77/8/45 78/8/42
f 80/8/48 81/8/47 82/8/47
f 84/8/39 81/8/47 83/8/39
f 81/8/47 84/8/39 82/8/47
f 84/8/39 86/8/53 85/8/55
f 86/8/53 84/8/39 83/8/39
f 87/8/39 76/8/42 78/8/42
f 76/8/42 87/8/39 88/8/39
f 87/8/39 89/8/54 88/8/39
f 89/8/54 87/8/39 90/8/52
f 79/8/49 92/8/50 91/8/51
f 94/8/47 95/8/39 96/8/47
f 97/8/42 95/8/39 93/8/39
f 103/8/37 94/8/47 96/8/47
f 107/8/42 106/8/39 105/8/42
f 106/8/39 107/8/42 108/8/39
f 109/8/37 107/8/42 105/8/42
f 107/8/42 109/8/37 110/8/37
f 109/8/37 116/8/47 110/8/37
f 116/8/47 113/8/47 114/8/47
f 118/10/57 119/9/56 120/10/66
f 118/10/57 121/9/70 117/9/58
f 121/9/70 118/10/57 122/10/77
f 123/10/69 121/9/70 122/10/77
f 121/9/70 123/10/69 124/9/68
f 125/9/61 130/10/63 127/10/59
f 121/9/70 129/9/64 25/9/24
f 25/9/24 129/9/64 125/9/61
s 0
f 25/9/24 125/9/24 26/9/24
s 1
f 134/9/73 126/9/60 30/9/81
f 117/9/58 25/9/24 27/9/24
f 117/9/58 27/9/24 126/9/60
f 117/9/58 126/9/60 131/9/65
f 132/10/67 118/10/57 120/10/66
f 135/10/82 118/10/57 128/10/62
f 128/10/62 136/10/78 135/10/82
f 137/10/76 118/10/57 135/10/82
f 128/10/62 138/10/79 136/10/78
f 127/10/59 138/10/79 128/10/62
f 127/10/59 140/10/80 138/10/79
s 0
f 127/10/74 139/10/74 140/10/74
s 1
f 122/10/77 139/10/75 123/10/69
f 123/10/69 139/10/75 130/10/63
f 133/9/71 140/10/80 26/9/72
f 26/9/72 139/10/75 25/9/37
f 135/10/82 27/9/47 137/10/76
f 27/9/47 135/10/82 30/9/81
f 30/9/81 136/10/78 134/9/73
f 77/9/83 141/10/57 107/9/58
f 141/10/57 95/9/70 107/9/58
f 95/9/70 141/10/57 143/10/77
f 144/10/69 95/9/70 143/10/77
f 95/9/70 144/10/69 62/9/89
f 147/10/59 146/9/60 145/9/61
f 146/9/60 147/10/59 148/10/86
f 149/10/88 145/9/61 74/9/90
f 145/9/61 149/10/88 147/10/59
f 92/9/85 142/10/84 77/9/83
f 142/10/84 92/9/85 150/10/87
f 148/10/86 92/9/85 146/9/60
f 62/9/89 149/10/88 74/9/90
f 74/9/90 95/9/70 62/9/89
f 151/9/91 74/9/90 145/9/61
s 0
f 151/9/24 145/9/24 152/9/24
s 1
f 145/9/61 72/9/92 152/9/72
f 72/9/92 145/9/61 146/9/60
s 0
f 153/9/74 146/9/74 154/9/74
s 1
f 147/10/59 158/10/96 148/10/86
f 147/10/59 160/10/80 158/10/96
s 0
f 147/10/74 159/10/74 160/10/74
s 1
f 159/10/75 147/10/59 149/10/88
f 143/10/77 159/10/75 144/10/69
f 156/10/95 72/9/92 85/9/73
f 72/9/92 156/10/95 158/10/96
f 72/9/92 160/10/80 152/9/72
f 152/9/72 159/10/75 151/9/91
f 159/10/75 152/9/72 160/10/80
f 159/10/75 154/9/93 151/9/91
f 154/9/93 159/10/75 157/10/76
f 155/10/94 154/9/93 157/10/76
f 154/9/93 155/10/94 153/9/81
f 156/10/95 153/9/81 155/10/94
f 163/11/97 162/14/105 161/12/99
f 162/14/105 163/11/97 164/13/100
f 162/14/105 164/13/100 165/15/104
f 165/15/104 164/13/100 166/11/101
f 165/15/104 166/11/101 167/14/103
f 167/14/103 166/11/101 168/12/102
f 166/11/101 19/13/17 22/11/20
f 19/13/17 166/11/101 164/13/100
f 24/12/22 166/11/101 22/11/20
f 161/12/99 17/14/15 15/12/98
f 17/14/15 161/12/99 162/14/105
f 170/14/27 172/13/29 173/15/107
f 173/15/107 172/13/29 174/11/106
f 173/15/107 174/11/106 175/14/103
f 175/14/103 174/11/106 176/12/102
f 171/11/26 31/12/146 32/11/14
f 31/12/146 171/11/26 169/12/28
f 32/11/14 172/13/29 171/11/26
f 174/11/106 35/13/17 38/11/20
f 40/12/22 174/11/106 38/11/20
f 173/15/107 37/16/19 36/15/108
f 169/12/28 33/14/25 31/12/146
f 33/14/25 169/12/28 170/14/27
f 178/12/98 43/11/26 41/12/28
f 44/13/29 177/11/109 179/13/112
f 177/11/109 44/13/29 43/11/26
f 46/11/31 179/13/112 180/11/20
f 179/13/112 46/11/31 44/13/29
f 181/12/22 46/11/31 180/11/20
f 46/11/31 181/12/22 48/12/33
f 182/14/113 48/12/33 181/12/22
f 48/12/33 182/14/113 47/14/32
f 184/16/19 45/15/30 182/14/113
f 182/14/113 45/15/30 47/14/32
f 42/14/27 186/16/16 185/14/111
f 186/16/16 42/14/27 183/15/110
f 183/15/110 42/14/27 45/15/30
f 41/12/28 185/14/111 178/12/98
f 185/14/111 177/11/109 178/12/98
f 177/11/109 185/14/111 186/16/16
f 177/11/109 186/16/16 179/13/112
f 180/11/20 184/16/19 182/14/113
f 51/11/26 188/12/116 187/11/14
f 188/12/116 51/11/26 49/12/28
f 52/13/29 187/11/14 189/13/17
f 187/11/14 52/13/29 51/11/26
f 54/11/35 189/13/17 190/11/20
f 189/13/17 54/11/35 52/13/29
f 191/12/22 54/11/35 190/11/20
f 54/11/35 191/12/22 56/12/33
f 192/14/114 56/12/33 191/12/22
f 56/12/33 192/14/114 55/14/32
f 53/15/34 194/16/19 193/15/108
f 193/15/108 50/14/27 53/15/34
f 195/14/115 187/11/14 188/12/116
f 189/13/17 196/16/16 193/15/108
f 189/13/17 193/15/108 194/16/19
f 199/17/122 198/17/117 197/17/120
f 198/17/117 199/17/122 200/17/151
f 202/18/118 198/17/117 200/17/151
f 202/18/118 203/18/152 201/18/119
f 203/18/152 202/18/118 204/18/121
f 204/18/121 197/17/120 203/18/152
f 210/20/131 209/19/135 203/19/132
f 209/19/135 210/20/131 211/20/129
f 204/19/128 213/20/127 214/19/145
f 204/19/128 206/20/124 212/20/129
f 209/19/135 217/20/134 218/19/138
f 222/20/143 219/19/136 221/19/144
f 219/19/136 222/20/143 220/20/137
f 223/20/139 218/19/138 217/20/134
f 206/20/124 213/20/127 212/20/129
f 213/20/127 206/20/124 222/20/143
f 222/20/143 206/20/124 220/20/137
f 220/20/137 206/20/124 208/20/126
f 205/19/125 219/19/136 207/19/123
f 205/19/125 221/19/144 219/19/136
f 214/19/145 221/19/144 204/19/128
f 215/19/130 221/19/144 214/19/145
f 221/19/144 226/20/142 222/20/143
