# Blender 4.3.2
# www.blender.org
mtllib kitchenCabinet.mtl
o kitchenCabinet.003
v 0.000000 0.420000 -0.450000
v 0.000000 0.450000 -0.450000
v -0.430000 0.420000 -0.450000
v -0.430000 0.450000 -0.450000
v 0.000000 0.450000 -0.390000
v -0.430000 0.450000 -0.390000
v 0.000000 0.020000 -0.390000
v 0.000000 0.000000 -0.390000
v -0.430000 0.020000 -0.390000
v -0.430000 0.000000 -0.390000
v 0.000000 0.420000 -0.420000
v 0.000000 0.000000 -0.420000
v -0.430000 0.000000 -0.420000
v -0.430000 0.420000 -0.420000
v 0.000000 0.450000 0.000000
v 0.000000 0.040000 0.000000
v -0.430000 0.450000 0.000000
v -0.430000 0.040000 0.000000
v -0.026844 0.040000 -0.237543
v -0.026844 0.400000 -0.237543
v -0.403156 0.040000 -0.237543
v -0.403156 0.400000 -0.237543
v -0.026844 0.020000 -0.085086
v -0.026844 0.400000 -0.085086
v -0.403156 0.020000 -0.085086
v -0.403156 0.400000 -0.085086
v -0.403156 0.400000 -0.363156
v -0.026844 0.400000 -0.363156
v -0.026844 0.020000 -0.363156
v -0.403156 0.020000 -0.363156
v 0.000000 0.040000 -0.058242
v 0.000000 0.020000 -0.058242
v -0.430000 0.040000 -0.058242
v -0.430000 0.020000 -0.058242
v -0.403156 0.040000 -0.210699
v -0.403156 0.400000 -0.210699
v -0.026844 0.400000 -0.210699
v -0.026844 0.040000 -0.210699
v -0.026844 0.040000 -0.085086
v -0.403156 0.040000 -0.085086
v -0.026844 0.040000 -0.363156
v -0.403156 0.040000 -0.363156
v -0.026844 0.020000 -0.085086
v -0.403156 0.020000 -0.085086
v -0.026844 0.020000 -0.363156
v -0.403156 0.020000 -0.363156
v -0.047186 0.020000 -0.105428
v -0.357814 0.020000 -0.302814
v -0.382814 0.020000 -0.105428
v -0.382814 0.020000 -0.342814
v -0.357814 0.020000 -0.322814
v -0.277814 0.020000 -0.322814
v -0.277814 0.020000 -0.302814
v -0.047186 0.020000 -0.342814
v -0.357814 0.000000 -0.302814
v -0.277814 0.000000 -0.302814
v -0.357814 0.000000 -0.312814
v -0.277814 0.000000 -0.312814
v -0.357814 0.010000 -0.322814
v -0.277814 0.010000 -0.322814
vn 0.5774 0.5773 -0.5773
vn 0.5774 -0.5774 -0.5774
vn -0.5773 -0.5774 -0.5774
vn -0.5774 0.5774 -0.5774
vn -0.7071 0.7071 -0.0000
vn 0.7071 0.7071 -0.0000
vn -0.8944 -0.0000 0.4472
vn -0.5774 -0.5774 0.5774
vn 0.5774 -0.5774 0.5774
vn 0.9045 -0.3015 -0.3015
vn 0.8944 -0.0000 0.4472
vn -0.5773 -0.5773 -0.5774
vn -0.9045 -0.3015 -0.3015
vn 0.5774 -0.5773 0.5774
vn 0.5774 0.5774 0.5774
vn -0.5773 0.5774 0.5774
vn -0.3015 -0.9045 -0.3015
vn 0.3015 -0.9045 -0.3015
vn 0.5773 -0.5773 0.5774
vn -0.5773 -0.5774 0.5774
vn 0.3015 -0.9045 0.3015
vn -0.3015 -0.9045 0.3015
vn 0.5774 -0.5774 0.5773
vn 0.9045 -0.3015 0.3015
vn -0.9045 -0.3015 0.3015
vn -0.5773 -0.5774 0.5773
vn 0.5773 -0.5774 -0.5774
vn -0.7071 -0.7071 -0.0000
vn -0.0000 -0.0000 -1.0000
vn 0.7071 -0.7071 -0.0000
vn -0.0000 1.0000 -0.0000
vn -0.0000 -0.0000 1.0000
vn -1.0000 -0.0000 -0.0000
vn 1.0000 -0.0000 -0.0000
vn -0.0000 -1.0000 -0.0000
vn -0.0000 -0.7071 -0.7071
vt 0.000000 17.716539
vt 0.000000 16.535431
vt 16.929131 16.535431
vt 16.929131 17.716539
vt -16.929131 15.354330
vt 0.000000 15.354330
vt -16.929131 17.716539
vt -16.929131 0.787402
vt -16.929131 0.000000
vt 0.000000 0.000000
vt -16.535431 16.535431
vt -17.716539 17.716539
vt -17.716539 15.354330
vt -0.787402 15.354330
vt 0.787402 15.354330
vt 16.535431 16.535431
vt 17.716539 15.354330
vt 16.535431 17.716539
vt 16.929131 15.354330
vt 16.929131 0.000000
vt 0.000000 1.574803
vt 1.056858 15.748030
vt 1.056858 1.574803
vt 15.872280 1.574803
vt 15.872280 15.748030
vt 1.056858 0.787402
vt 15.872280 0.787402
vt 15.872280 14.297470
vt 1.056858 14.297470
vt 1.056858 9.352088
vt -15.872280 15.748030
vt -15.872280 0.787402
vt -1.056858 0.787402
vt 0.000000 0.787402
vt -16.929131 1.574803
vt -1.574803 9.352088
vt -0.787402 3.349844
vt -0.787402 14.297470
vt -15.748030 14.297470
vt -1.574803 8.295230
vt -15.748030 8.295230
vt -15.748030 3.349844
vt 16.929131 2.292987
vt 0.787402 2.292987
vt 1.574803 2.292987
vt 1.056858 3.349844
vt 15.872280 3.349844
vt 15.872280 8.295230
vt 16.929131 0.787402
vt -1.056858 1.574803
vt -1.056858 15.748030
vt -15.872280 1.574803
vt 15.872280 9.352088
vt 1.056858 8.295230
vt 1.574803 8.295230
vt 0.787402 14.297470
vt 0.787402 3.349844
vt 0.000000 2.292987
vt -16.535431 17.716539
vt 17.716539 17.716539
vt -15.748030 9.352088
vt 1.574803 0.000000
vt 17.716539 0.000000
vt -0.787402 2.292987
vt -1.574803 2.292987
vt -1.574803 0.000000
vt -17.716539 0.000000
vt 15.748030 3.349844
vt 15.748030 8.295230
vt 1.574803 9.352088
vt 15.748030 14.297470
vt 15.748030 9.352088
vt -14.815420 0.000000
vt 0.000000 10.947630
vt -14.815420 10.947630
vt 0.000000 -0.393701
vt 0.000000 0.393701
vt -14.815420 0.393701
vt -14.815420 -0.393701
vt 14.815420 -0.393701
vt 14.815420 0.393701
vt -0.393701 10.947630
vt -0.393701 0.000000
vt 0.393701 0.000000
vt 0.393701 10.947630
vt 13.030300 8.571962
vt 0.800864 0.800864
vt 14.014550 0.800864
vt 14.014550 10.146770
vt 13.030300 9.359364
vt 9.880697 9.359364
vt 9.880697 8.571962
vt 0.800864 10.146770
vt 14.815420 0.000000
vt 14.815420 10.947630
vt 13.030300 8.965663
vt 9.880697 8.965663
vt -9.880697 -1.181102
vt -9.880697 -0.393701
vt -13.030300 -0.393701
vt -13.030300 -1.181102
vt -1.181102 8.965663
vt -1.181102 8.571962
vt -0.393701 8.571962
vt -0.787402 9.359364
vt -0.393701 9.359364
vt 9.880697 -0.393701
vt 9.880697 -0.787402
vt 13.030300 -0.787402
vt 13.030300 -0.393701
vt 1.181102 8.571962
vt 1.181102 8.965663
vt 0.787402 9.359364
vt 0.393701 8.571962
vt 0.393701 9.359364
vt 9.880697 5.504516
vt 13.030300 5.504516
vt 13.030300 6.061293
vt 9.880697 6.061293
s 1
usemtl metal.001
f 2/1/1 1/2/2 3/3/3
f 3/3/3 4/4/4 2/1/1
f 6/5/5 5/6/6 2/1/1
f 2/1/1 4/7/4 6/5/5
f 9/8/7 10/9/8 8/10/9
f 11/11/10 2/12/1 5/13/6
f 11/11/10 5/13/6 7/14/11
f 11/11/10 7/14/11 8/6/9
f 8/6/9 12/2/2 11/11/10
f 13/2/12 10/6/8 9/15/7
f 9/15/7 14/16/13 13/2/12
f 9/15/7 6/17/5 14/16/13
f 6/17/5 3/18/3 14/16/13
f 8/6/9 10/19/8 13/3/12
f 13/3/12 12/2/2 8/6/9
f 11/2/10 14/3/13 3/4/3
f 3/4/3 1/1/2 11/2/10
f 11/2/10 12/10/2 13/20/12
f 13/20/12 14/3/13 11/2/10
f 8/10/9 7/34/11 9/8/7
f 11/11/10 1/59/2 2/12/1
f 6/17/5 4/60/4 3/18/3
f 56/92/35 55/86/35 57/96/35
f 57/96/35 58/97/35 56/92/35
f 56/98/32 53/99/32 48/100/32
f 48/100/32 55/101/32 56/98/32
f 57/102/33 55/103/33 48/104/33
f 48/104/33 59/105/33 57/102/33
f 48/104/33 51/106/33 59/105/33
f 52/107/29 60/108/29 59/109/29
f 59/109/29 51/110/29 52/107/29
f 56/111/34 58/112/34 60/113/34
f 60/113/34 53/114/34 56/111/34
f 60/113/34 52/115/34 53/114/34
f 58/116/36 57/117/36 59/118/36
f 59/118/36 60/119/36 58/116/36
usemtl wood.002
f 16/21/14 15/1/15 17/7/16
f 20/22/12 19/23/13 21/24/10
f 21/24/10 22/25/2 20/22/12
f 24/22/12 23/26/17 25/27/18
f 27/28/19 28/29/20 20/30/12
f 27/31/19 30/32/21 29/33/22
f 32/34/23 31/21/24 33/35/25
f 33/35/25 34/8/26 32/34/23
f 21/36/10 25/37/18 30/38/21
f 30/38/21 27/39/19 21/36/10
f 25/37/18 21/36/10 35/40/24
f 35/40/24 36/41/19 26/42/27
f 16/10/14 18/20/8 33/43/25
f 9/15/28 34/44/26 33/45/25
f 24/46/12 26/47/27 36/48/19
f 5/1/29 7/34/29 9/49/29
f 9/49/29 6/4/29 5/1/29
f 17/9/16 15/10/15 5/6/6
f 5/6/6 6/5/5 17/9/16
f 38/50/25 37/51/8 36/31/19
f 36/31/19 35/52/24 38/50/25
f 21/53/10 19/30/13 38/54/25
f 38/55/25 29/56/22 23/57/17
f 32/58/23 25/47/18 23/46/17
f 23/46/17 7/6/30 32/58/23
f 29/29/22 9/19/28 7/6/30
f 17/7/16 18/35/8 16/21/14
f 25/27/18 26/25/27 24/22/12
f 20/30/12 22/53/2 27/28/19
f 29/33/22 28/51/20 27/31/19
f 27/39/19 22/61/2 21/36/10
f 35/40/24 26/42/27 25/37/18
f 33/43/25 31/58/24 16/10/14
f 33/45/25 18/62/8 17/63/16
f 33/45/25 17/63/16 6/17/5
f 33/45/25 6/17/5 9/15/28
f 32/64/23 7/14/30 5/13/6
f 5/13/6 31/65/24 32/64/23
f 5/13/6 16/66/14 31/65/24
f 5/13/6 15/67/15 16/66/14
f 36/48/19 37/54/8 24/46/12
f 38/54/25 35/48/24 21/53/10
f 23/57/17 24/68/12 38/55/25
f 24/68/12 37/69/8 38/55/25
f 29/56/22 38/55/25 19/70/13
f 19/70/13 28/71/20 29/56/22
f 19/70/13 20/72/12 28/71/20
f 25/47/18 32/58/23 34/43/26
f 34/43/26 9/19/28 25/47/18
f 9/19/28 30/28/21 25/47/18
f 9/19/28 29/29/22 30/28/21
f 23/46/17 29/29/22 7/6/30
f 40/73/31 39/10/31 41/74/31
f 41/74/31 42/75/31 40/73/31
f 43/76/32 39/77/32 40/78/32
f 40/78/32 44/79/32 43/76/32
f 41/77/29 45/76/29 46/80/29
f 46/80/29 42/81/29 41/77/29
f 46/82/33 44/83/33 40/84/33
f 40/84/33 42/85/33 46/82/33
f 43/84/34 45/85/34 41/82/34
f 41/82/34 39/83/34 43/84/34
f 48/86/35 47/87/35 49/88/35
f 49/88/35 50/89/35 48/86/35
f 50/89/35 51/90/35 48/86/35
f 50/89/35 52/91/35 51/90/35
f 47/87/35 48/86/35 53/92/35
f 53/92/35 54/93/35 47/87/35
f 53/92/35 52/91/35 54/93/35
f 52/91/35 50/89/35 54/93/35
usemtl woodDark.001
f 49/88/35 43/10/35 44/94/35
f 44/94/35 46/95/35 49/88/35
f 46/95/35 50/89/35 49/88/35
f 46/95/35 54/93/35 50/89/35
f 43/10/35 49/88/35 47/87/35
f 47/87/35 45/74/35 43/10/35
f 47/87/35 54/93/35 45/74/35
f 54/93/35 46/95/35 45/74/35
