# Blender 4.3.2
# www.blender.org
mtllib can.mtl
o can.015
v -0.130655 0.000000 -0.010000
v -0.130655 0.000000 0.000000
v -0.092387 0.092387 -0.010000
v -0.092387 0.092387 0.000000
v 0.000000 0.130655 0.000000
v 0.000000 0.130655 -0.010000
v 0.130655 0.000000 0.000000
v 0.130655 0.000000 -0.010000
v 0.092387 0.092387 0.000000
v 0.092387 0.092387 -0.010000
v -0.092387 -0.092387 -0.010000
v -0.092387 -0.092387 0.000000
v 0.092387 -0.092387 0.000000
v 0.092387 -0.092387 -0.010000
v 0.150000 0.000000 -0.320000
v 0.150000 0.000000 -0.280000
v 0.106066 0.106066 -0.320000
v 0.106066 0.106066 -0.280000
v -0.106066 -0.106066 -0.280000
v 0.000000 -0.150000 -0.280000
v -0.106066 -0.106066 -0.320000
v 0.000000 -0.150000 -0.320000
v 0.000000 0.150000 -0.280000
v -0.106066 0.106066 -0.280000
v 0.000000 0.150000 -0.320000
v -0.106066 0.106066 -0.320000
v 0.106066 -0.106066 -0.320000
v 0.106066 -0.106066 -0.280000
v 0.000000 -0.150000 0.000000
v 0.106066 -0.106066 0.000000
v 0.000000 -0.150000 -0.040000
v 0.106066 -0.106066 -0.040000
v -0.106066 -0.106066 0.000000
v -0.106066 -0.106066 -0.040000
v -0.150000 0.000000 0.000000
v -0.150000 0.000000 -0.040000
v -0.150000 0.000000 -0.280000
v -0.150000 0.000000 -0.320000
v 0.000000 0.150000 0.000000
v -0.106066 0.106066 0.000000
v 0.000000 0.150000 -0.040000
v -0.106066 0.106066 -0.040000
v 0.106066 0.106066 0.000000
v 0.106066 0.106066 -0.040000
v 0.150000 0.000000 -0.040000
v 0.150000 0.000000 0.000000
v -0.000000 -0.130655 -0.010000
v -0.000000 -0.130655 0.000000
v 0.080587 -0.080587 -0.300000
v -0.000000 -0.113967 -0.300000
v 0.080587 -0.080587 -0.320000
v -0.000000 -0.113967 -0.320000
v -0.080587 -0.080587 -0.300000
v -0.080587 -0.080587 -0.320000
v -0.113967 0.000000 -0.320000
v -0.113967 0.000000 -0.300000
v -0.080587 0.080587 -0.320000
v -0.080587 0.080587 -0.300000
v 0.000000 0.113967 -0.300000
v 0.000000 0.113967 -0.320000
v 0.080587 0.080587 -0.300000
v 0.080587 0.080587 -0.320000
v 0.113967 0.000000 -0.300000
v 0.113967 0.000000 -0.320000
v 0.067102 0.000000 -0.300000
v 0.047448 0.047448 -0.300000
v 0.047448 -0.047448 -0.300000
v -0.000000 -0.067102 -0.300000
v 0.000000 0.067102 -0.300000
v -0.047448 0.047448 -0.300000
v -0.047448 -0.047448 -0.300000
v -0.067102 0.000000 -0.300000
v -0.062556 0.062556 -0.300000
v 0.000000 0.088467 -0.300000
v -0.088467 0.000000 -0.300000
v 0.062556 0.062556 -0.300000
v -0.062556 -0.062556 -0.300000
v 0.088467 0.000000 -0.300000
v 0.062556 -0.062556 -0.300000
v -0.000000 -0.088467 -0.300000
vn 0.4469 -0.6619 0.6018
vn 0.7280 0.0033 0.6856
vn 0.7882 0.2100 0.5785
vn 0.5146 -0.5127 0.6873
vn -0.0049 -0.7839 0.6209
vn -0.1496 -0.7332 0.6634
vn -0.3029 -0.6131 0.7296
vn -0.6225 0.0070 0.7826
vn -0.6326 0.1678 0.7561
vn -0.4677 -0.5467 0.6946
vn 0.5630 0.5630 0.6051
vn 0.4599 0.5090 0.7276
vn 0.9014 0.4051 -0.1528
vn 0.6563 0.6563 -0.3724
vn 0.9407 0.3393 -0.0000
vn -0.3502 -0.7174 -0.6022
vn -0.4329 -0.9014 -0.0000
vn -0.6400 -0.6400 -0.4252
vn -0.0000 -0.9137 -0.4065
vn 0.4329 0.9014 -0.0000
vn 0.4051 -0.9014 0.1528
vn 0.2907 -0.6927 0.6601
vn -0.0000 -0.9127 0.4085
vn 0.6400 -0.6400 0.4252
vn -0.3433 -0.9263 0.1555
vn -0.6175 -0.6175 0.4873
vn -0.9014 -0.4051 -0.1528
vn 0.3233 -0.9463 -0.0000
vn -0.3213 0.7365 0.5952
vn -0.4329 0.9014 -0.0000
vn -0.6400 0.6400 0.4252
vn -0.9014 0.4051 0.1528
vn -0.7441 0.3107 -0.5914
vn -0.6348 0.6348 -0.4405
vn -0.6566 0.3698 -0.6574
vn 0.9014 -0.4051 0.1528
vn 0.6884 -0.3008 0.6600
vn -0.1041 0.7794 0.6178
vn -0.6850 0.4226 0.5935
vn 0.0470 0.7471 0.6631
vn -0.5628 0.3265 0.7594
vn 0.3132 -0.6216 -0.7180
vn 0.6684 0.0090 -0.7437
vn 0.6308 0.1729 -0.7565
vn 0.4767 -0.5624 -0.6756
vn -0.0202 -0.7853 -0.6188
vn -0.6628 -0.4565 -0.5935
vn 0.1099 -0.7252 -0.6797
vn -0.5641 -0.3255 -0.7588
vn -0.6479 0.1643 -0.7438
vn -0.3132 0.6216 -0.7180
vn -0.6684 -0.0090 -0.7437
vn -0.0000 -0.0000 -1.0000
vn 0.2472 0.5710 -0.7828
vn -0.1057 0.7318 -0.6733
vn 0.3698 -0.6566 -0.6574
vn 0.2164 0.7211 -0.6582
vn 0.6884 -0.3007 -0.6600
vn -0.6884 -0.3007 0.6600
vn 0.4565 0.6628 -0.5935
vn 0.0848 0.8178 -0.5692
vn 0.9463 0.3233 -0.0000
vn -0.0000 0.8962 0.4436
vn 0.6295 0.6295 0.4555
vn -0.6012 0.4625 -0.6516
vt 0.843750 0.031250
vt 0.843750 0.025000
vt 0.843750 0.200000
vt 0.843750 0.225000
vt 0.843750 0.050000
vt 0.843750 0.212500
vt 0.843750 0.075000
vt 0.968750 0.425000
vt 0.968750 0.325000
s 1
usemtl colormap.023
f 3/1/1 2/2/2 1/1/3
f 2/2/2 3/1/1 4/2/4
f 3/1/1 5/2/5 4/2/4
f 5/2/5 3/1/1 6/1/6
f 9/2/7 8/1/8 7/2/9
f 8/1/8 9/2/7 10/1/10
f 1/1/3 12/2/11 11/1/12
f 6/1/6 9/2/7 5/2/5
f 9/2/7 6/1/6 10/1/10
f 16/3/13 17/4/14 18/3/15
f 21/4/16 20/3/17 19/3/18
f 20/3/17 21/4/16 22/4/19
f 17/4/14 23/3/20 18/3/15
f 31/5/21 30/2/22 29/2/23
f 30/2/22 31/5/21 32/5/24
f 34/5/25 29/2/23 33/2/26
f 29/2/23 34/5/25 31/5/21
f 37/3/27 21/4/16 19/3/18
f 22/4/19 28/3/28 20/3/17
f 40/2/29 41/5/30 42/5/31
f 36/5/32 40/2/29 42/5/31
f 38/4/33 24/3/34 26/4/35
f 45/5/36 30/2/22 32/5/24
f 30/2/22 45/5/36 46/2/37
f 47/1/38 3/1/1 11/1/12
f 12/2/11 47/1/38 11/1/12
f 14/1/39 48/2/40 13/2/41
f 48/2/40 14/1/39 47/1/38
f 57/4/42 56/6/43 55/4/44
f 56/6/43 57/4/42 58/6/45
f 60/4/46 61/6/47 59/6/48
f 61/6/47 60/4/46 62/4/49
f 64/4/50 61/6/47 62/4/49
f 51/4/51 63/6/52 64/4/50
f 70/6/53 68/6/53 71/6/53
f 70/6/53 71/6/53 72/6/53
f 55/4/44 21/4/16 38/4/33
f 54/4/54 21/4/16 55/4/44
f 26/4/35 57/4/42 55/4/44
f 52/4/55 21/4/16 54/4/54
f 52/4/55 22/4/19 21/4/16
f 51/4/51 22/4/19 52/4/55
f 51/4/51 27/4/56 22/4/19
f 17/4/14 62/4/49 25/4/57
f 64/4/50 27/4/56 51/4/51
f 17/4/14 64/4/50 62/4/49
f 27/4/56 64/4/50 15/4/58
f 33/2/26 2/2/2 35/2/59
f 2/2/2 40/2/29 35/2/59
f 4/2/4 40/2/29 2/2/2
f 30/2/22 7/2/9 13/2/41
f 59/6/48 76/6/53 74/6/53
f 75/6/53 53/6/60 56/6/43
f 61/6/47 78/6/53 76/6/53
f 79/6/53 50/6/61 80/6/53
f 74/7/53 69/7/53 73/7/53
f 73/7/53 72/7/53 75/7/53
f 74/7/53 66/7/53 69/7/53
f 72/7/53 77/7/53 75/7/53
f 68/7/53 77/7/53 71/7/53
f 65/7/53 79/7/53 67/7/53
f 65/7/53 76/7/53 78/7/53
f 23/8/20 42/9/31 41/9/30
f 42/9/31 23/8/20 24/8/34
f 20/8/17 32/9/24 31/9/21
f 32/9/24 20/8/17 28/8/28
f 36/9/32 19/8/18 34/9/25
f 45/9/36 18/8/15 44/9/62
f 42/9/31 37/8/27 36/9/32
f 12/2/11 1/1/3 2/2/2
f 7/2/9 14/1/39 13/2/41
f 14/1/39 7/2/9 8/1/8
f 17/4/14 16/3/13 15/4/58
f 25/4/57 24/3/34 23/3/20
f 24/3/34 25/4/57 26/4/35
f 23/3/20 17/4/14 25/4/57
f 15/4/58 28/3/28 27/4/56
f 28/3/28 15/4/58 16/3/13
f 35/2/59 34/5/25 33/2/26
f 34/5/25 35/2/59 36/5/32
f 21/4/16 37/3/27 38/4/33
f 28/3/28 22/4/19 27/4/56
f 41/5/30 40/2/29 39/2/63
f 44/5/62 39/2/63 43/2/64
f 39/2/63 44/5/62 41/5/30
f 44/5/62 46/2/37 45/5/36
f 46/2/37 44/5/62 43/2/64
f 40/2/29 36/5/32 35/2/59
f 24/3/34 38/4/33 37/3/27
f 10/1/10 14/1/39 8/1/8
f 14/1/39 10/1/10 47/1/38
f 47/1/38 10/1/10 6/1/6
f 47/1/38 6/1/6 3/1/1
f 11/1/12 3/1/1 1/1/3
f 47/1/38 12/2/11 48/2/40
f 51/4/51 50/6/61 49/6/65
f 50/6/61 51/4/51 52/4/55
f 52/4/55 53/6/60 50/6/61
f 53/6/60 52/4/55 54/4/54
f 55/4/44 53/6/60 54/4/54
f 53/6/60 55/4/44 56/6/43
f 57/4/42 59/6/48 58/6/45
f 59/6/48 57/4/42 60/4/46
f 61/6/47 64/4/50 63/6/52
f 63/6/52 51/4/51 49/6/65
f 67/6/53 66/6/53 65/6/53
f 66/6/53 67/6/53 68/6/53
f 66/6/53 68/6/53 69/6/53
f 69/6/53 68/6/53 70/6/53
f 26/4/35 55/4/44 38/4/33
f 25/4/57 57/4/42 26/4/35
f 25/4/57 60/4/46 57/4/42
f 25/4/57 62/4/49 60/4/46
f 64/4/50 17/4/14 15/4/58
f 33/2/26 48/2/40 12/2/11
f 33/2/26 12/2/11 2/2/2
f 29/2/23 48/2/40 33/2/26
f 29/2/23 13/2/41 48/2/40
f 30/2/22 13/2/41 29/2/23
f 7/2/9 30/2/22 46/2/37
f 43/2/64 7/2/9 46/2/37
f 7/2/9 43/2/64 9/2/7
f 4/2/4 39/2/63 40/2/29
f 9/2/7 43/2/64 39/2/63
f 5/2/5 39/2/63 4/2/4
f 9/2/7 39/2/63 5/2/5
f 58/6/45 74/6/53 73/6/53
f 58/6/45 73/6/53 75/6/53
f 59/6/48 74/6/53 58/6/45
f 58/6/45 75/6/53 56/6/43
f 61/6/47 76/6/53 59/6/48
f 77/6/53 53/6/60 75/6/53
f 78/6/53 61/6/47 63/6/52
f 49/6/65 78/6/53 63/6/52
f 78/6/53 49/6/65 79/6/53
f 77/6/53 50/6/61 53/6/60
f 79/6/53 49/6/65 50/6/61
f 80/6/53 50/6/61 77/6/53
f 73/7/53 69/7/53 70/7/53
f 73/7/53 70/7/53 72/7/53
f 76/7/53 66/7/53 74/7/53
f 71/7/53 77/7/53 72/7/53
f 68/7/53 80/7/53 77/7/53
f 67/7/53 80/7/53 68/7/53
f 67/7/53 79/7/53 80/7/53
f 76/7/53 65/7/53 66/7/53
f 79/7/53 65/7/53 78/7/53
f 16/8/13 32/9/24 28/8/28
f 32/9/24 16/8/13 45/9/36
f 18/8/15 41/9/30 44/9/62
f 41/9/30 18/8/15 23/8/20
f 19/8/18 31/9/21 34/9/25
f 31/9/21 19/8/18 20/8/17
f 19/8/18 36/9/32 37/8/27
f 18/8/15 45/9/36 16/8/13
f 37/8/27 42/9/31 24/8/34
