# Blender 4.3.2
# www.blender.org
mtllib pillar-obelisk.mtl
o pillar-obelisk
v -0.103100 -0.103100 -1.045600
v -0.054928 -0.151272 -0.975600
v -0.054928 -0.054928 -0.975600
v -0.151272 -0.151272 -0.975600
v -0.151272 -0.054928 -0.975600
v -0.017078 -0.189122 -0.174000
v -0.017078 -0.189122 -0.087000
v -0.017078 -0.017078 -0.174000
v -0.017078 -0.017078 -0.087000
v -0.206200 -0.206200 -0.174000
v 0.000000 -0.206200 -0.174000
v -0.206200 -0.206200 -0.226200
v 0.000000 -0.206200 -0.226200
v -0.189122 -0.189122 -0.226200
v -0.017078 -0.189122 -0.226200
v 0.000000 0.000000 0.000000
v -0.206200 0.000000 0.000000
v -0.189122 -0.017078 -0.087000
v -0.017078 -0.017078 -0.226200
v 0.000000 -0.206200 0.000000
v -0.206200 -0.206200 0.000000
v -0.189122 -0.189122 -0.087000
v -0.189122 -0.017078 -0.174000
v -0.189122 -0.189122 -0.174000
v 0.000000 0.000000 -0.226200
v 0.000000 0.000000 -0.174000
v -0.206200 0.000000 -0.174000
v -0.206200 0.000000 -0.226200
v -0.189122 -0.017078 -0.226200
vn 0.8185 0.3606 -0.4473
vn 0.5316 -0.5316 -0.6594
vn -0.0000 -0.0000 -1.0000
vn -0.5373 -0.5373 -0.6500
vn -0.3430 0.8243 -0.4505
vn 0.3015 0.3015 0.9045
vn 0.6941 -0.6691 -0.2656
vn 0.3015 -0.3015 0.9045
vn 0.6803 0.6849 -0.2610
vn 0.5773 -0.5773 0.5774
vn -0.5773 -0.5773 -0.5774
vn 0.5773 -0.5773 -0.5774
vn 0.2855 -0.2855 -0.9149
vn -0.2855 -0.2855 -0.9149
vn 0.2855 0.2855 -0.9149
vn -0.6997 -0.7141 -0.0230
vn 0.6216 -0.6216 0.4768
vn -0.6216 -0.6216 0.4767
vn -0.7813 0.6158 -0.1016
vn -0.3015 -0.3015 0.9045
vn -0.3015 0.3015 0.9045
vn 0.5773 0.5773 -0.5774
vn 0.5773 0.5773 0.5774
vn -0.5773 0.5773 0.5774
vn -0.5773 0.5773 -0.5774
vn -0.5773 -0.5773 0.5774
vn -0.2855 0.2855 -0.9149
vn 0.6216 0.6216 0.4767
vn -0.6216 0.6216 0.4768
vt 0.843750 0.211611
vt 0.843750 0.225000
vt 0.843750 0.058282
vt 0.843750 0.041641
vt 0.843750 0.068267
vt 0.843750 0.025000
s 1
usemtl colormap.035
f 3/1/1 2/1/2 1/2/3
f 1/2/3 2/1/2 4/1/4
f 1/2/3 5/1/5 3/1/1
f 5/1/5 1/2/3 4/1/4
f 8/3/6 7/4/7 6/3/8
f 7/4/7 8/3/6 9/4/9
f 11/3/10 12/5/11 13/5/12
f 4/1/4 15/5/13 14/5/14
f 15/5/13 4/1/4 2/1/2
f 2/1/2 19/5/15 15/5/13
f 22/4/16 20/6/17 21/6/18
f 18/4/19 24/3/20 22/4/16
f 24/3/20 18/4/19 23/3/21
f 25/5/22 11/3/10 13/5/12
f 11/3/10 25/5/22 26/3/23
f 27/3/24 25/5/22 28/5/25
f 27/3/24 12/5/11 10/3/26
f 12/5/11 27/3/24 28/5/25
f 3/1/1 29/5/27 19/5/15
f 16/6/28 7/4/7 9/4/9
f 13/5/12 15/5/13 25/5/22
f 15/5/13 13/5/12 12/5/11
f 19/5/15 25/5/22 15/5/13
f 14/5/14 12/5/11 29/5/27
f 8/3/6 27/3/24 23/3/21
f 23/3/21 27/3/24 24/3/20
f 8/3/6 26/3/23 27/3/24
f 10/3/26 24/3/20 27/3/24
f 26/3/23 8/3/6 11/3/10
f 10/3/26 6/3/8 24/3/20
f 11/3/10 6/3/8 10/3/26
f 6/3/8 11/3/10 8/3/6
f 12/5/11 11/3/10 10/3/26
f 9/4/9 17/6/29 16/6/28
f 17/6/29 9/4/9 18/4/19
f 19/5/15 2/1/2 3/1/1
f 17/6/29 20/6/17 16/6/28
f 20/6/17 17/6/29 21/6/18
f 17/6/29 22/4/16 21/6/18
f 22/4/16 17/6/29 18/4/19
f 20/6/17 22/4/16 7/4/7
f 8/3/6 18/4/19 9/4/9
f 18/4/19 8/3/6 23/3/21
f 24/3/20 7/4/7 22/4/16
f 7/4/7 24/3/20 6/3/8
f 25/5/22 27/3/24 26/3/23
f 29/5/27 3/1/1 5/1/5
f 29/5/27 4/1/4 14/5/14
f 4/1/4 29/5/27 5/1/5
f 7/4/7 16/6/28 20/6/17
f 15/5/13 12/5/11 14/5/14
f 25/5/22 19/5/15 28/5/25
f 28/5/25 19/5/15 29/5/27
f 28/5/25 29/5/27 12/5/11
