# Blender 4.3.2
# www.blender.org
mtllib banana.mtl
o banana
v 0.012652 0.314936 -0.195800
v -0.012652 0.314936 -0.195800
v 0.009372 0.237536 -0.159954
v -0.009372 0.237536 -0.159954
v -0.018744 0.237536 -0.143537
v -0.025305 0.314936 -0.173637
v 0.018744 0.237536 -0.143537
v 0.009372 0.237536 -0.127119
v 0.025305 0.314936 -0.173637
v 0.012652 0.314936 -0.151473
v -0.012652 0.314936 -0.151473
v -0.009372 0.237536 -0.127119
v -0.011925 -0.314936 -0.147827
v -0.023850 -0.314936 -0.168482
v -0.013271 -0.292036 -0.126897
v -0.026541 -0.292036 -0.149882
v 0.023850 -0.314936 -0.168482
v 0.026541 -0.292036 -0.149882
v 0.011925 -0.314936 -0.189138
v 0.013271 -0.292036 -0.172868
v -0.011925 -0.314936 -0.189138
v -0.013271 -0.292036 -0.172868
v 0.013271 -0.292036 -0.126897
v 0.011925 -0.314936 -0.147827
v -0.068800 -0.027247 -0.059583
v -0.034400 -0.027247 -0.119165
v -0.060544 0.070489 -0.066137
v -0.030272 0.070489 -0.119165
v 0.030272 0.070489 -0.119165
v 0.034400 -0.027247 -0.119165
v 0.060544 0.070489 -0.066137
v 0.068800 -0.027247 -0.059583
v 0.030272 0.070489 -0.013108
v 0.034400 -0.027247 -0.000000
v -0.030272 0.070489 -0.013108
v -0.034400 -0.027247 0.000000
v 0.032336 -0.130447 -0.124190
v 0.064672 -0.130447 -0.068183
v 0.021796 0.179685 -0.143017
v 0.043592 0.179685 -0.104837
v 0.032336 -0.130447 -0.012175
v -0.032336 -0.130447 -0.124190
v 0.021796 0.179685 -0.066656
v -0.021796 0.179685 -0.066656
v -0.021796 0.179685 -0.143017
v -0.043592 0.179685 -0.104837
v -0.023282 -0.234181 -0.062257
v 0.023282 -0.234181 -0.062257
v -0.032336 -0.130447 -0.012175
v 0.023282 -0.234181 -0.142908
v -0.023282 -0.234181 -0.142908
v -0.046564 -0.234181 -0.102582
v -0.064672 -0.130447 -0.068183
v 0.046564 -0.234181 -0.102582
vn 0.2759 0.2220 -0.9352
vn -0.0038 0.4975 -0.8674
vn 0.5694 -0.0713 -0.8189
vn -0.3959 0.2564 -0.8818
vn -0.9882 0.1522 -0.0170
vn -0.7411 0.6266 -0.2410
vn 0.1132 0.8530 0.5095
vn 0.1109 0.7546 0.6468
vn 0.5793 0.7153 -0.3909
vn 0.7826 0.1423 -0.6061
vn -0.4718 -0.8615 0.1878
vn -0.6581 -0.6942 0.2913
vn -0.3689 -0.6142 0.6976
vn -0.5539 -0.6856 -0.4724
vn 0.3688 -0.6164 0.6957
vn -0.0807 -0.7423 0.6652
vn 0.8509 -0.4383 0.2897
vn 0.7223 -0.2366 0.6498
vn -0.0647 0.0528 -0.9965
vn -0.1779 -0.4231 -0.8884
vn -0.6017 0.0072 -0.7987
vn -0.8788 -0.4024 -0.2565
vn -0.9117 0.0310 -0.4096
vn -0.8017 0.5974 -0.0195
vn -0.4281 -0.6191 -0.6583
vn 0.8788 -0.4024 -0.2565
vn 0.3941 0.5918 -0.7032
vn 0.9168 -0.0684 -0.3934
vn 0.7277 -0.2733 0.6291
vn 0.8017 0.5974 -0.0195
vn 0.9173 0.0136 0.3979
vn 0.8108 -0.1363 -0.5692
vn 0.4235 0.6296 -0.6514
vn 0.6600 -0.5876 -0.4682
vn 0.9179 -0.3401 0.2045
vn -0.4248 0.6260 -0.6539
vn 0.4394 0.0142 0.8982
vn -0.4196 0.0833 0.9039
vn 0.1194 0.6044 0.7877
vn 0.4208 0.0905 0.9026
vn 0.1357 0.0134 0.9907
vn -0.2084 0.3738 -0.9038
vn -0.6059 0.7250 -0.3275
vn -0.2202 0.7872 0.5760
vn -0.1350 -0.6093 0.7814
vn -0.3444 -0.8991 0.2702
vn 0.1490 0.2714 0.9509
vn 0.1407 -0.2908 0.9464
vn -0.1858 -0.2544 -0.9491
vn -0.0490 0.4862 -0.8725
vn -0.7163 -0.3167 -0.6218
vn -0.8108 -0.1363 -0.5692
vn 0.9081 0.3617 0.2108
vn 0.6510 0.6238 -0.4326
vt 0.218750 0.438385
vt 0.218750 0.475000
vt 0.218750 0.452361
vt 0.218750 0.421615
vt 0.218750 0.429722
vt 0.218750 0.404619
vt 0.218750 0.447096
vt 0.218750 0.425998
vt 0.218750 0.428097
vt 0.218750 0.451576
vt 0.218750 0.468194
vt 0.718750 0.342555
vt 0.718750 0.396721
vt 0.718750 0.335860
vt 0.718750 0.288389
vt 0.718750 0.275000
vt 0.718750 0.344645
vt 0.718750 0.401854
vt 0.718750 0.421085
vt 0.718750 0.382085
vt 0.718750 0.343086
vt 0.718750 0.404846
vt 0.718750 0.421615
vt 0.718750 0.438385
vt 0.718750 0.404619
vt 0.718750 0.338592
vt 0.718750 0.287436
vt 0.718750 0.420973
vt 0.718750 0.451576
vt 0.718750 0.379783
vt 0.718750 0.428097
vt 0.218750 0.404846
s 1
usemtl colormap.939
f 3/1/1 2/2/2 1/2/3
f 2/2/2 3/1/1 4/1/4
f 6/3/5 4/1/4 5/4/6
f 4/1/4 6/3/5 2/2/2
f 10/5/7 6/3/5 11/5/8
f 6/3/5 9/3/9 2/2/2
f 2/2/2 9/3/9 1/2/3
f 1/2/3 7/4/10 3/1/1
f 7/4/10 1/2/3 9/3/9
f 15/6/11 14/7/12 13/8/13
f 14/7/12 15/6/11 16/9/14
f 15/6/11 24/8/15 23/6/16
f 17/7/17 23/6/16 24/8/15
f 23/6/16 17/7/17 18/9/18
f 22/10/19 19/11/20 21/11/21
f 24/8/15 14/7/12 17/7/17
f 17/7/17 14/7/12 21/11/21
f 17/7/17 21/11/21 19/11/20
f 27/12/22 26/13/23 25/14/24
f 27/12/22 28/13/25 26/13/23
f 31/12/26 30/13/27 29/13/28
f 31/12/26 33/15/29 32/14/30
f 33/15/29 34/16/31 32/14/30
f 31/12/26 32/14/30 30/13/27
f 30/13/27 38/17/32 37/18/33
f 38/17/32 30/13/27 32/14/30
f 39/19/34 31/12/26 29/13/28
f 31/12/26 39/19/34 40/20/35
f 34/16/31 38/17/32 32/14/30
f 26/13/23 37/18/33 42/18/36
f 31/12/26 43/21/37 33/15/29
f 43/21/37 12/22/38 44/21/39
f 7/23/10 43/21/37 40/20/35
f 43/21/37 7/23/10 8/22/40
f 33/15/29 36/16/41 34/16/31
f 45/19/42 3/24/1 39/19/34
f 5/23/6 45/19/42 46/20/43
f 28/13/25 39/19/34 29/13/28
f 39/19/34 28/13/25 45/19/42
f 35/15/44 43/21/37 44/21/39
f 29/13/28 26/13/23 28/13/25
f 27/12/22 45/19/42 28/13/25
f 45/19/42 27/12/22 46/20/43
f 44/21/39 27/12/22 35/15/44
f 27/12/22 44/21/39 46/20/43
f 39/19/34 7/23/10 40/20/35
f 44/21/39 5/23/6 46/20/43
f 5/23/6 44/21/39 12/22/38
f 15/25/11 48/26/45 47/26/46
f 41/27/47 36/16/41 49/27/48
f 51/28/49 20/29/50 22/29/19
f 22/29/19 52/30/51 51/28/49
f 51/28/49 53/17/52 42/18/36
f 48/26/45 49/27/48 47/26/46
f 36/16/41 53/17/52 49/27/48
f 53/17/52 36/16/41 25/14/24
f 38/17/32 48/26/45 54/30/53
f 48/26/45 38/17/32 41/27/47
f 50/28/54 38/17/32 54/30/53
f 38/17/32 50/28/54 37/18/33
f 53/17/52 26/13/23 42/18/36
f 26/13/23 53/17/52 25/14/24
f 18/31/18 48/26/45 23/25/16
f 48/26/45 18/31/18 54/30/53
f 9/3/9 8/32/40 7/4/10
f 8/32/40 9/3/9 10/5/7
f 6/3/5 10/5/7 9/3/9
f 11/5/8 8/32/40 10/5/7
f 8/32/40 11/5/8 12/32/38
f 12/32/38 6/3/5 5/4/6
f 6/3/5 12/32/38 11/5/8
f 19/11/20 18/9/18 17/7/17
f 18/9/18 19/11/20 20/10/50
f 16/9/14 21/11/21 14/7/12
f 21/11/21 16/9/14 22/10/19
f 24/8/15 15/6/11 13/8/13
f 19/11/20 22/10/19 20/10/50
f 14/7/12 24/8/15 13/8/13
f 27/12/22 25/14/24 35/15/44
f 35/15/44 25/14/24 36/16/41
f 38/17/32 34/16/31 41/27/47
f 37/18/33 26/13/23 30/13/27
f 43/21/37 31/12/26 40/20/35
f 12/22/38 43/21/37 8/22/40
f 36/16/41 33/15/29 35/15/44
f 3/24/1 45/19/42 4/24/4
f 45/19/42 5/23/6 4/24/4
f 43/21/37 35/15/44 33/15/29
f 26/13/23 29/13/28 30/13/27
f 7/23/10 39/19/34 3/24/1
f 48/26/45 15/25/11 23/25/16
f 36/16/41 41/27/47 34/16/31
f 20/29/50 51/28/49 50/28/54
f 50/28/54 42/18/36 37/18/33
f 42/18/36 50/28/54 51/28/49
f 47/26/46 53/17/52 52/30/51
f 53/17/52 47/26/46 49/27/48
f 52/30/51 22/29/19 16/31/14
f 53/17/52 51/28/49 52/30/51
f 49/27/48 48/26/45 41/27/47
f 47/26/46 16/31/14 15/25/11
f 16/31/14 47/26/46 52/30/51
f 50/28/54 18/31/18 20/29/50
f 18/31/18 50/28/54 54/30/53
