# Blender 4.3.2
# www.blender.org
mtllib gravestone-flat.mtl
o gravestone-flat
v 0.224200 0.540800 -0.136000
v -0.224200 0.540800 -0.136000
v 0.212990 0.516860 -0.168000
v -0.212990 0.516860 -0.168000
v -0.236000 -0.566000 0.000000
v -0.236000 -0.566000 -0.064000
v -0.236000 0.566000 0.000000
v -0.236000 0.566000 -0.064000
v 0.224200 0.540800 -0.096000
v -0.224200 0.540800 -0.096000
v -0.224200 -0.540800 -0.096000
v -0.224200 -0.540800 -0.136000
v 0.236000 -0.566000 0.000000
v 0.236000 -0.566000 -0.064000
v 0.224200 -0.540800 -0.136000
v 0.212990 -0.516860 -0.168000
v 0.000000 -0.516860 -0.370000
v 0.000000 0.516860 -0.370000
v -0.212990 -0.516860 -0.272000
v -0.212990 0.516860 -0.272000
v 0.212990 0.516860 -0.272000
v 0.236000 0.566000 -0.064000
v 0.224200 -0.540800 -0.096000
v -0.212990 -0.516860 -0.168000
v 0.212990 -0.516860 -0.272000
v 0.236000 0.566000 0.000000
vn 0.7149 0.5996 -0.3596
vn -0.6581 0.6944 -0.2909
vn 0.6581 0.6944 -0.2909
vn -0.7149 0.5996 -0.3596
vn -0.5774 0.5774 0.5773
vn -0.6874 -0.7255 0.0319
vn -0.5774 -0.5774 0.5774
vn -0.8401 0.3824 -0.3847
vn -0.7132 0.5928 -0.3741
vn -0.7132 -0.5927 -0.3741
vn -0.6581 -0.6944 -0.2909
vn 0.5774 -0.5774 0.5773
vn 0.6859 -0.7239 0.0748
vn 0.7149 -0.5996 -0.3596
vn -0.0000 0.6240 -0.7814
vn -0.6714 -0.6035 -0.4301
vn -0.6714 0.6035 -0.4301
vn 0.6714 0.6035 -0.4301
vn -0.7149 -0.5996 -0.3596
vn 0.6714 -0.6035 -0.4301
vn -0.0000 -0.6240 -0.7814
vn 0.7132 -0.5928 -0.3741
vn 0.6581 -0.6944 -0.2909
vn 0.5774 0.5774 0.5774
vn 0.3740 0.8716 -0.3169
vn 0.7132 0.5927 -0.3741
vt 0.843750 0.115811
vt 0.843750 0.098514
vt 0.843750 0.025000
vt 0.843750 0.059595
vt 0.843750 0.076892
vt 0.843750 0.225000
vt 0.843750 0.172027
s 1
usemtl colormap.038
f 3/1/1 2/2/2 1/2/3
f 2/2/2 3/1/1 4/1/4
f 7/3/5 6/4/6 5/3/7
f 6/4/6 7/3/5 8/4/8
f 10/5/9 1/2/3 2/2/2
f 8/4/8 11/5/10 6/4/6
f 12/2/11 10/5/9 2/2/2
f 6/4/6 13/3/12 5/3/7
f 13/3/12 6/4/6 14/4/13
f 1/2/3 16/1/14 3/1/1
f 18/6/15 19/7/16 20/7/17
f 21/7/18 4/1/4 3/1/1
f 4/1/4 21/7/18 20/7/17
f 19/7/16 16/1/14 24/1/19
f 16/1/14 19/7/16 25/7/20
f 25/7/20 19/7/16 17/6/21
f 11/5/10 14/4/13 6/4/6
f 14/4/13 11/5/10 23/5/22
f 24/1/19 15/2/23 12/2/11
f 7/3/5 13/3/12 26/3/24
f 23/5/22 12/2/11 15/2/23
f 21/7/18 16/1/14 25/7/20
f 16/1/14 21/7/18 3/1/1
f 22/4/25 7/3/5 26/3/24
f 7/3/5 22/4/25 8/4/8
f 22/4/25 13/3/12 14/4/13
f 13/3/12 22/4/25 26/3/24
f 1/2/3 10/5/9 9/5/26
f 11/5/10 8/4/8 10/5/9
f 10/5/9 12/2/11 11/5/10
f 16/1/14 1/2/3 15/2/23
f 19/7/16 18/6/15 17/6/21
f 20/7/17 21/7/18 18/6/15
f 23/5/22 22/4/25 14/4/13
f 22/4/25 23/5/22 9/5/26
f 9/5/26 8/4/8 22/4/25
f 8/4/8 9/5/26 10/5/9
f 1/2/3 23/5/22 15/2/23
f 23/5/22 1/2/3 9/5/26
f 4/1/4 19/7/16 24/1/19
f 19/7/16 4/1/4 20/7/17
f 17/6/21 21/7/18 25/7/20
f 21/7/18 17/6/21 18/6/15
f 2/2/2 24/1/19 12/2/11
f 24/1/19 2/2/2 4/1/4
f 15/2/23 24/1/19 16/1/14
f 13/3/12 7/3/5 5/3/7
f 12/2/11 23/5/22 11/5/10
