# Blender 4.3.2
# www.blender.org
mtllib grave.mtl
o grave.011
v -0.119475 0.376561 -0.038088
v -0.114025 0.367130 -0.038088
v -0.116147 0.382321 -0.028765
v -0.143275 -0.379553 0.000000
v -0.096617 -0.284665 -0.095220
v -0.143275 0.261689 0.000000
v -0.096617 0.284665 -0.095220
v -0.124611 0.285217 -0.038088
v -0.124611 0.341598 -0.038088
v -0.126864 0.520797 -0.021710
v -0.111362 0.520797 0.000000
v -0.141909 0.546830 -0.021710
v -0.134158 0.560241 0.000000
v -0.179749 0.560241 0.000000
v -0.171999 0.546830 -0.021710
v -0.088612 -0.511391 0.000000
v -0.055620 -0.383543 -0.095220
v -0.210889 0.175308 -0.021710
v -0.225934 0.201341 -0.021710
v -0.225934 0.149275 -0.021710
v -0.256024 0.149275 -0.021710
v -0.256024 0.201341 -0.021710
v -0.271069 0.175308 -0.021710
v -0.225855 0.330889 0.000000
v -0.198660 0.330889 -0.038088
v -0.185863 0.400090 0.000000
v -0.172265 0.376561 -0.038088
v -0.202545 0.520797 0.000000
v -0.187044 0.520797 -0.021710
v 0.235574 -0.292691 0.000000
v 0.229988 -0.292691 0.000000
v 0.221977 -0.316219 -0.038088
v 0.211325 -0.316219 -0.038088
v -0.134158 0.481352 0.000000
v -0.179749 0.481352 0.000000
v 0.175325 -0.511391 0.000000
v 0.208618 -0.431092 0.000000
v 0.142333 -0.383543 -0.095220
v 0.183973 -0.407564 -0.038088
v 0.211325 -0.341598 -0.038088
v 0.183330 -0.284665 -0.095220
v 0.235574 -0.431092 0.000000
v 0.275566 -0.361892 0.000000
v 0.221977 -0.407564 -0.038088
v 0.248372 -0.361892 -0.038088
v -0.195388 0.175308 0.000000
v -0.218183 0.135864 0.000000
v -0.218183 0.214752 0.000000
v -0.263775 0.214752 0.000000
v -0.263775 0.135864 0.000000
v -0.286570 0.175308 0.000000
v -0.171999 0.494763 -0.021710
v -0.141909 0.494763 -0.021710
v 0.229988 0.379553 0.000000
v 0.183330 0.284665 -0.095220
v -0.055620 0.383543 -0.095220
v -0.134760 0.400090 0.000000
v -0.088612 0.511391 0.000000
v 0.043357 -0.566000 0.000000
v 0.043357 -0.424500 -0.095220
v 0.218183 -0.540870 0.000000
v 0.263774 -0.540870 0.000000
v 0.225934 -0.527459 -0.021710
v 0.256024 -0.527459 -0.021710
v 0.286570 -0.501425 0.000000
v 0.263774 -0.461981 0.000000
v 0.218183 -0.461981 0.000000
v 0.195387 -0.501425 0.000000
v 0.210888 -0.501425 -0.021710
v 0.225934 -0.475392 -0.021710
v 0.271069 -0.501425 -0.021710
v -0.185863 0.261689 0.000000
v 0.043357 0.566000 0.000000
v 0.175325 0.511391 0.000000
v 0.043357 0.424500 -0.095220
v -0.172265 0.285217 -0.038088
v 0.142333 0.383543 -0.095220
v 0.256024 -0.475392 -0.021710
vn -0.5846 0.3635 -0.7253
vn -0.5824 0.3646 -0.7266
vn 0.7365 0.4256 -0.5258
vn -0.4829 -0.2194 0.8478
vn -0.5348 -0.0591 -0.8429
vn -0.8791 -0.2412 0.4110
vn -0.5348 0.0591 -0.8429
vn -0.8980 -0.0000 -0.4400
vn -0.7766 0.2131 -0.5929
vn 0.7364 0.4256 -0.5258
vn 0.9285 -0.0000 0.3714
vn 0.8138 -0.0000 -0.5811
vn 0.8580 0.4958 -0.1344
vn -0.0000 0.8508 -0.5255
vn -0.0000 0.2590 -0.9659
vn -0.0000 0.5283 -0.8491
vn -0.0000 -0.7697 -0.6384
vn -0.0000 -0.3722 -0.9282
vn -0.0000 -0.8508 0.5255
vn -0.0000 -0.5283 -0.8491
vn -0.3541 -0.3348 -0.8732
vn -0.0000 0.4586 -0.8886
vn -0.3971 -0.2295 -0.8886
vn -0.5610 -0.0000 0.8278
vn -0.4315 -0.5895 0.6829
vn -0.6282 0.3630 0.6882
vn -0.5251 0.3035 0.7951
vn -0.5609 -0.0000 -0.8279
vn -0.9284 -0.0000 0.3715
vn -0.4716 0.2725 -0.8387
vn -0.7985 0.4615 0.3866
vn -0.7364 0.4256 -0.5258
vn -0.7680 0.1620 0.6196
vn 0.6938 0.4752 -0.5412
vn 0.4988 0.3976 0.7701
vn 0.4641 0.8040 0.3717
vn 0.4584 -0.7942 -0.3988
vn -0.4584 -0.7943 -0.3988
vn -0.0000 -0.0000 -1.0000
vn 0.7365 -0.4256 -0.5258
vn 0.5114 -0.0000 0.8593
vn 0.5251 -0.3035 0.7951
vn -0.0000 -0.0000 1.0000
vn -0.5251 -0.3035 0.7951
vn -0.4476 -0.2587 0.8560
vn -0.4476 0.2587 0.8560
vn -0.0000 -0.5788 0.8155
vn -0.0000 -0.4157 0.9095
vn -0.2358 -0.5359 -0.8107
vn 0.4670 0.1396 0.8732
vn 0.7365 0.4256 0.5258
vn 0.4476 0.2586 0.8560
vn 0.3069 -0.5320 -0.7892
vn 0.5348 -0.0591 -0.8429
vn 0.8980 -0.0000 -0.4400
vn 0.7766 -0.2131 -0.5929
vn -0.5379 0.1810 -0.8233
vn -0.3728 0.1546 0.9149
vn -0.7236 0.6722 0.1569
vn -0.8580 -0.4958 -0.1344
vn -0.2361 -0.1365 -0.9621
vn -0.4584 -0.7943 0.3988
vn -0.0000 0.7697 -0.6384
vn -0.0000 0.9449 -0.3274
vn -0.7365 0.4256 0.5258
vn -0.0815 -0.9151 0.3949
vn -0.4632 -0.8386 0.2866
vn 0.3728 -0.1546 0.9150
vn 0.7087 0.6318 0.3140
vn 0.7351 -0.6108 0.2941
vn -0.4080 -0.4556 -0.7912
vn -0.4641 -0.8040 0.3717
vn -0.4069 -0.7050 0.5808
vn -0.8138 -0.0000 0.5811
vn -0.0000 -0.8508 0.5256
vn -0.0000 -0.8507 0.5256
vn -0.0000 -0.7013 0.7129
vn -0.0000 -0.4586 0.8886
vn -0.0000 0.4157 0.9095
vn -0.0000 0.5199 0.8543
vn 0.1867 0.9711 0.1489
vn 0.1758 0.3456 -0.9218
vn -0.0000 0.4514 -0.8923
vn -0.7364 0.4256 0.5258
vn -0.4069 0.7051 -0.5808
vn -0.3706 0.6425 -0.6707
vn -0.0000 -0.8508 -0.5255
vn -0.0000 0.8508 0.5255
vn 0.4476 0.2587 -0.8560
vn 0.3971 0.2295 -0.8886
vn 0.1598 -0.3524 -0.9221
vn 0.0171 -0.2302 -0.9730
vn 0.7365 -0.4256 0.5258
vn 0.7364 -0.4256 0.5258
vn -0.6282 -0.3630 -0.6882
vn -0.4670 -0.1396 -0.8732
vn -0.0000 0.5283 0.8491
vn -0.0000 0.5282 0.8491
vn 0.8791 0.2412 0.4110
vn 0.5348 0.0591 -0.8429
vn -0.3921 -0.3969 -0.8299
vn 0.6282 -0.3630 0.6882
vn 0.7093 -0.2941 -0.6406
vn -0.8139 -0.0000 0.5811
vn -0.4067 -0.7052 0.5808
vt 0.093750 0.335418
vt 0.093750 0.355000
vt 0.093750 0.275000
vt 0.093750 0.475000
vt 0.093750 0.320600
s 1
usemtl colormap.010
f 3/1/1 2/2/2 1/2/3
f 6/3/4 5/4/5 4/3/6
f 5/4/5 6/3/4 7/4/7
f 7/4/7 6/3/4 8/2/8
f 7/4/7 8/2/8 9/2/9
f 12/5/10 11/3/11 10/5/12
f 11/3/11 12/5/10 13/3/13
f 14/3/14 12/5/15 15/5/16
f 13/3/17 14/3/18 12/5/19
f 19/5/15 20/5/20 21/5/21
f 19/5/15 21/5/21 22/5/22
f 22/5/22 21/5/21 23/5/23
f 18/5/24 19/5/25 20/5/26
f 26/3/27 25/2/28 24/3/29
f 25/2/28 26/3/27 27/2/30
f 14/3/31 29/5/32 28/3/33
f 32/2/34 31/3/35 30/3/36
f 13/3/13 34/3/37 11/3/11
f 35/3/38 14/3/31 28/3/33
f 14/3/18 13/3/17 34/3/39
f 44/2/40 43/3/41 42/3/42
f 47/3/43 49/3/43 50/3/44
f 32/2/39 44/2/39 39/2/39
f 45/2/24 32/2/45 44/2/46
f 40/2/43 39/2/43 32/2/47
f 40/2/43 32/2/47 33/2/48
f 28/3/33 52/5/49 35/3/38
f 29/5/50 28/3/51 52/5/52
f 53/5/53 11/3/11 34/3/37
f 41/4/54 33/2/55 40/2/56
f 33/2/55 41/4/54 31/3/35
f 52/5/49 34/3/37 35/3/38
f 12/5/15 53/5/53 52/5/49
f 12/5/15 52/5/49 15/5/16
f 10/5/43 12/5/43 53/5/43
f 56/4/57 9/2/9 2/2/2
f 56/4/57 2/2/2 3/1/1
f 56/4/57 3/1/1 57/3/58
f 56/4/57 57/3/58 58/3/59
f 62/3/43 66/3/43 67/3/43
f 61/3/60 67/3/43 68/3/44
f 65/3/61 62/3/39 66/3/62
f 61/3/63 67/3/39 62/3/64
f 64/5/40 65/3/40 62/3/40
f 71/5/65 64/5/65 65/3/65
f 59/3/66 58/3/59 16/3/67
f 37/3/68 74/3/69 36/3/70
f 42/3/42 30/3/36 31/3/35
f 24/3/29 76/2/71 72/3/72
f 48/3/73 19/5/25 46/3/74
f 51/3/44 21/5/21 50/3/44
f 21/5/21 51/3/44 23/5/23
f 57/3/19 26/3/75 3/1/76
f 27/2/77 3/1/76 26/3/75
f 1/2/78 3/1/76 27/2/77
f 27/2/30 9/2/39 76/2/71
f 27/2/30 76/2/71 25/2/28
f 8/2/79 9/2/43 76/2/80
f 27/2/77 9/2/43 1/2/78
f 2/2/43 1/2/78 9/2/43
f 73/3/81 77/4/82 75/4/83
f 47/3/84 46/3/74 20/5/26
f 67/3/85 78/5/14 70/5/86
f 47/3/87 21/5/21 20/5/20
f 50/3/88 47/3/88 21/5/88
f 78/5/89 65/3/3 71/5/90
f 77/4/82 38/4/91 60/4/92
f 56/4/57 5/4/5 7/4/7
f 51/3/93 23/5/93 49/3/94
f 22/5/94 49/3/94 23/5/93
f 64/5/39 78/5/89 71/5/90
f 70/5/86 63/5/95 69/5/96
f 63/5/97 64/5/98 78/5/43
f 70/5/43 63/5/97 78/5/43
f 77/4/82 54/3/99 55/4/100
f 54/3/99 77/4/82 74/3/69
f 76/2/71 6/3/4 72/3/72
f 8/2/79 76/2/80 6/3/88
f 4/3/6 17/4/101 16/3/67
f 17/4/101 4/3/6 5/4/5
f 15/5/102 14/3/93 29/5/50
f 33/2/48 32/2/47 31/3/19
f 35/3/39 14/3/18 34/3/39
f 38/4/91 37/3/68 36/3/70
f 37/3/68 38/4/91 39/2/103
f 39/2/103 38/4/91 40/2/56
f 40/2/56 38/4/91 41/4/54
f 45/2/24 44/2/46 43/3/104
f 37/3/88 42/3/88 39/2/88
f 44/2/88 39/2/88 42/3/88
f 48/3/43 47/3/43 46/3/43
f 47/3/43 48/3/43 49/3/43
f 50/3/44 49/3/43 51/3/44
f 11/3/11 53/5/53 10/5/12
f 43/3/41 32/2/34 30/3/36
f 45/2/24 43/3/104 32/2/45
f 31/3/35 41/4/54 54/3/99
f 54/3/99 41/4/54 55/4/100
f 34/3/37 52/5/49 53/5/53
f 29/5/50 52/5/52 15/5/102
f 9/2/9 56/4/57 7/4/7
f 59/3/66 38/4/91 36/3/70
f 38/4/91 59/3/66 60/4/92
f 16/3/67 60/4/92 59/3/66
f 60/4/92 16/3/67 17/4/101
f 61/3/63 62/3/64 63/5/97
f 64/5/98 63/5/97 62/3/64
f 69/5/96 67/3/85 70/5/86
f 68/3/94 69/5/94 67/3/94
f 72/3/72 26/3/27 24/3/29
f 6/3/4 26/3/27 72/3/72
f 26/3/27 6/3/4 57/3/58
f 4/3/6 57/3/58 6/3/4
f 16/3/67 57/3/58 4/3/6
f 16/3/67 58/3/59 57/3/58
f 59/3/66 73/3/81 58/3/59
f 36/3/70 73/3/81 59/3/66
f 36/3/70 74/3/69 73/3/81
f 31/3/35 74/3/69 37/3/68
f 74/3/69 31/3/35 54/3/99
f 42/3/42 31/3/35 37/3/68
f 30/3/36 42/3/42 43/3/41
f 56/4/57 73/3/81 75/4/83
f 73/3/81 56/4/57 58/3/59
f 76/2/71 24/3/29 25/2/28
f 18/5/24 46/3/74 19/5/25
f 68/3/44 63/5/95 61/3/60
f 63/5/95 68/3/44 69/5/96
f 77/4/82 73/3/81 74/3/69
f 18/5/24 20/5/26 46/3/74
f 66/3/62 67/3/19 78/5/105
f 66/3/62 78/5/105 65/3/61
f 38/4/91 55/4/100 41/4/54
f 55/4/100 38/4/91 77/4/82
f 77/4/82 60/4/92 75/4/83
f 75/4/83 60/4/92 17/4/101
f 75/4/83 17/4/101 56/4/57
f 56/4/57 17/4/101 5/4/5
f 49/3/14 19/5/15 22/5/22
f 48/3/73 49/3/19 19/5/25
