# Blender 4.3.2
# www.blender.org
mtllib box-large.001.mtl
o box-large.001
v 0.500000 0.062500 -0.500000
v 0.500000 0.062500 -0.250000
v 0.500000 0.500000 -0.500000
v 0.500000 0.500000 0.000000
v 0.500000 -0.062500 -0.250000
v 0.500000 -0.500000 0.000000
v 0.500000 -0.062500 -0.500000
v 0.500000 -0.500000 -0.500000
v -0.500000 0.500000 -0.500000
v -0.500000 0.500000 0.000000
v -0.500000 0.062500 -0.500000
v -0.500000 0.062500 -0.250000
v -0.500000 -0.062500 -0.250000
v -0.500000 -0.500000 0.000000
v -0.500000 -0.500000 -0.500000
v -0.500000 -0.062500 -0.500000
vn 0.5774 0.5773 -0.5773
vn 1.0000 -0.0000 -0.0000
vn 0.7071 -0.0000 -0.7071
vn 0.5773 0.5774 0.5774
vn 0.5773 -0.5773 0.5774
vn 0.5774 -0.5774 -0.5774
vn -0.7071 -0.0000 -0.7071
vn -0.5773 0.5773 0.5774
vn -0.5774 0.5774 -0.5774
vn -1.0000 -0.0000 -0.0000
vn -0.5773 -0.5774 0.5774
vn -0.5774 -0.5773 -0.5773
vt 0.593750 0.225000
vt 0.593750 0.125000
vt 0.593750 0.025000
vt 0.843750 0.025000
vt 0.843750 0.225000
s 1
usemtl colormap.404
f 3/1/1 2/2/2 1/1/3
f 4/3/4 2/2/2 3/1/1
f 4/3/4 5/2/2 2/2/2
f 6/3/5 5/2/2 4/3/4
f 6/3/5 7/1/3 5/2/2
f 7/1/3 6/3/5 8/1/6
f 11/1/7 10/3/8 9/1/9
f 13/2/10 10/3/8 12/2/10
f 13/2/10 14/3/11 10/3/8
f 14/3/11 13/2/10 15/1/12
f 16/1/7 15/1/12 13/2/10
f 15/1/12 6/3/5 14/3/11
f 6/3/5 15/1/12 8/1/6
f 3/1/1 10/3/8 4/3/4
f 7/1/3 15/1/12 16/1/7
f 12/4/10 16/5/7 13/4/10
f 16/5/7 12/4/10 11/5/7
f 12/2/10 10/3/8 11/1/7
f 10/3/8 3/1/1 9/1/9
f 10/3/8 6/3/5 4/3/4
f 6/3/5 10/3/8 14/3/11
f 15/1/12 7/1/3 8/1/6
f 11/1/7 3/1/1 1/1/3
f 3/1/1 11/1/7 9/1/9
f 1/5/3 5/4/2 7/5/3
f 5/4/2 1/5/3 2/4/2
f 16/5/7 1/5/3 7/5/3
f 1/5/3 16/5/7 11/5/7
