# Blender 4.3.2
# www.blender.org
mtllib cover-bar.mtl
o cover-bar.005
v -0.050000 0.600000 -0.500000
v 0.050000 0.600000 -0.500000
v -0.050000 0.600000 -0.900000
v 0.050000 0.600000 -0.900000
v -0.050000 0.650000 -0.500000
v -0.050000 0.650000 -0.900000
v 0.050000 0.650000 -0.500000
v 0.050000 0.650000 -0.900000
v -0.050000 -0.650000 -0.500000
v -0.050000 -0.650000 -0.900000
v -0.050000 -0.600000 -0.500000
v -0.050000 -0.600000 -0.900000
v -0.400000 0.600000 -0.500000
v -0.400000 0.700000 -0.500000
v 0.400000 0.700000 -0.500000
v 0.400000 0.600000 -0.500000
v 0.050000 -0.650000 -0.500000
v 0.050000 -0.650000 -0.900000
v -0.400000 -0.600000 -0.500000
v -0.400000 -0.700000 -0.500000
v 0.400000 -0.700000 -0.500000
v 0.400000 -0.600000 -0.500000
v 0.050000 -0.600000 -0.500000
v 0.050000 -0.600000 -0.900000
v -0.400000 -0.700000 -0.900000
v -0.400000 -0.500000 -0.900000
v -0.400000 -0.600000 -0.400000
v -0.400000 -0.500000 -0.400000
v 0.400000 0.500000 -0.400000
v 0.400000 0.500000 -0.900000
v 0.400000 0.600000 -0.400000
v 0.400000 0.700000 -0.900000
v 0.400000 -0.600000 -0.400000
v 0.500000 0.500000 -1.000000
v 0.500000 -0.500000 -1.000000
v -0.500000 0.500000 -1.000000
v -0.500000 -0.500000 -1.000000
v 0.400000 -0.500000 -0.400000
v 0.400000 -0.500000 -0.900000
v 0.400000 -0.700000 -0.900000
v -0.400000 0.500000 -0.900000
v -0.400000 0.500000 -0.400000
v -0.400000 0.700000 -0.900000
v -0.400000 0.600000 -0.400000
v -0.500000 0.500000 -0.000000
v 0.500000 0.500000 -0.000000
v 0.500000 -0.500000 0.000000
v -0.500000 -0.500000 -0.000000
v 0.500000 -0.650000 -1.150000
v 0.500000 -0.500000 -1.200000
v -0.500000 -0.650000 -1.150000
v -0.500000 -0.500000 -1.200000
v 0.500000 0.650000 -1.150000
v -0.500000 0.650000 -1.150000
v 0.500000 0.500000 -1.200000
v -0.500000 0.500000 -1.200000
v -0.500000 -0.700000 -1.000000
v 0.500000 -0.700000 -1.000000
v 0.500000 0.700000 -1.000000
v -0.500000 0.700000 -1.000000
v 0.500000 -0.600000 -0.000000
v -0.500000 -0.600000 -0.000000
v -0.500000 -0.700000 -0.200000
v 0.500000 -0.700000 -0.200000
v -0.500000 -0.700000 -0.400000
v 0.500000 -0.700000 -0.400000
v 0.500000 0.700000 -0.200000
v -0.500000 0.700000 -0.200000
v 0.500000 0.700000 -0.400000
v -0.500000 0.700000 -0.400000
v 0.500000 0.600000 -0.000000
v -0.500000 0.600000 -0.000000
vn -0.3015 -0.3015 0.9045
vn 0.4186 -0.6965 -0.5828
vn -0.8152 -0.4873 -0.3129
vn 0.3015 -0.3015 0.9045
vn -0.3015 0.3015 -0.9045
vn -0.3015 0.3015 0.9045
vn 0.3015 0.3015 0.9045
vn 0.3015 0.3015 -0.9045
vn -0.3519 0.7927 -0.4978
vn -0.3015 -0.3015 -0.9045
vn 0.9913 -0.0930 -0.0930
vn 0.3015 0.9045 -0.3015
vn -0.3015 0.9045 -0.3015
vn -0.3015 -0.9045 -0.3015
vn 0.3015 -0.3015 -0.9045
vn -0.9860 0.1177 -0.1177
vn 0.8152 0.4873 -0.3129
vn 0.3015 0.9045 0.3015
vn 0.3015 -0.9045 -0.3015
vn 0.3015 -0.9045 0.3015
vn 0.9889 0.1049 -0.1049
vn 0.5773 0.5774 -0.5774
vn -0.5773 -0.5774 -0.5774
vn -0.3015 -0.9045 0.3015
vn -0.9865 -0.1157 -0.1157
vn -0.3015 0.9045 0.3015
vn -0.5774 0.5774 -0.5774
vn -0.0000 0.7071 -0.7071
vn -0.0000 0.8944 -0.4472
vn -0.0000 0.8945 -0.4471
vn -0.9045 -0.3015 0.3015
vn 0.9045 0.3015 0.3015
vn 0.9045 -0.3015 0.3015
vn -0.9045 0.3015 0.3015
vn 0.5773 -0.5773 -0.5774
vn -0.0000 -0.7071 -0.7071
vn -0.0000 -0.8945 -0.4471
vn -0.5774 -0.5773 0.5774
vn 0.5774 -0.5773 0.5774
vn 0.5774 0.5773 0.5774
vn -0.5774 0.5773 0.5774
vn -0.3060 -0.6247 -0.7184
vn 0.6727 -0.1185 -0.7303
vn 0.4458 -0.6330 -0.6330
vn 0.6728 -0.7303 -0.1185
vn -0.6728 -0.7303 -0.1185
vn 0.3868 0.6870 -0.6152
vn -0.6728 0.7303 -0.1185
vn 0.6728 0.7303 -0.1185
vn -0.6604 0.6964 -0.2810
vn -0.6727 0.1185 -0.7303
vn 0.6728 0.1185 -0.7303
vn 0.6664 -0.0387 0.7446
vn -0.6689 -0.7433 0.0021
vn -0.6570 -0.5799 0.4817
vn 0.6689 0.7433 0.0021
vn -0.2550 0.5083 0.8225
vn 0.6617 0.6057 0.4420
vn -0.6689 0.7433 0.0022
vn 0.6736 -0.7391 -0.0011
vn 0.7071 -0.7071 -0.0000
vn -0.6728 -0.1185 -0.7303
vn -0.0000 1.0000 -0.0000
vn -0.0000 -1.0000 -0.0000
vn 1.0000 -0.0000 -0.0000
vn -1.0000 -0.0000 -0.0000
vt 0.093750 0.175000
vt 0.093750 0.108333
vt 0.093750 0.091667
vt 0.093750 0.191667
vt 0.093750 0.025000
vt 0.218750 0.216667
vt 0.218750 0.225000
vt 0.218750 0.191667
vt 0.218750 0.025000
vt 0.218750 0.058333
vt 0.343750 0.191667
vt 0.343750 0.225000
vt 0.343750 0.025000
vt 0.343750 0.058333
vt 0.343750 0.216667
vt 0.343750 0.091667
vt 0.218750 0.091667
s 1
usemtl colormap.007
f 3/1/1 2/2/2 1/2/3
f 2/2/2 3/1/1 4/1/4
f 5/2/5 3/1/1 1/2/3
f 3/1/1 5/2/5 6/1/6
f 8/1/7 5/2/5 7/2/8
f 5/2/5 8/1/7 6/1/6
f 8/1/7 2/2/2 4/1/4
f 2/2/2 8/1/7 7/2/8
f 11/2/9 10/1/1 9/2/10
f 10/1/1 11/2/9 12/1/6
f 13/2/11 5/2/5 1/2/3
f 5/2/5 13/2/11 14/2/12
f 14/2/12 7/2/8 5/2/5
f 15/2/13 7/2/8 14/2/12
f 21/2/14 17/2/15 22/2/16
f 23/2/17 22/2/16 17/2/15
f 24/1/7 17/2/15 18/1/4
f 17/2/15 24/1/7 23/2/17
f 26/1/18 20/2/19 25/1/20
f 20/2/19 26/1/18 19/2/21
f 19/2/21 26/1/18 27/3/22
f 27/3/22 26/1/18 28/3/12
f 31/3/23 30/1/24 29/3/14
f 30/1/24 31/3/23 16/2/25
f 30/1/24 16/2/25 32/1/26
f 22/2/16 27/3/22 33/3/27
f 27/3/22 22/2/16 19/2/21
s 0
f 19/2/28 22/2/28 23/2/29
f 19/2/28 23/2/30 11/2/30
s 1
f 36/4/31 35/4/32 34/4/33
f 35/4/32 36/4/31 37/4/34
f 38/3/13 22/2/16 33/3/27
f 39/1/26 22/2/16 38/3/13
f 40/1/24 22/2/16 39/1/26
f 13/2/11 43/1/18 14/2/12
f 44/3/35 42/3/19 13/2/11
f 27/3/22 38/3/13 33/3/27
f 38/3/13 27/3/22 28/3/12
f 44/3/35 29/3/14 42/3/19
f 24/1/7 11/2/9 23/2/17
f 11/2/9 24/1/7 12/1/6
f 13/2/11 31/3/23 44/3/35
f 31/3/23 13/2/11 16/2/25
s 0
f 16/2/36 1/2/37 2/2/37
s 1
f 42/3/19 36/4/31 41/1/20
f 41/1/20 36/4/31 30/1/24
f 34/4/33 30/1/24 36/4/31
f 45/5/38 42/3/19 46/5/39
f 46/5/39 29/3/14 34/4/33
f 38/3/13 35/4/32 39/1/26
f 38/3/13 47/5/40 35/4/32
f 37/4/34 26/1/18 35/4/32
f 48/5/41 28/3/12 37/4/34
f 8/1/7 43/1/18 6/1/6
f 6/1/6 43/1/18 3/1/1
f 8/1/7 32/1/26 43/1/18
f 41/1/20 3/1/1 43/1/18
f 32/1/26 8/1/7 30/1/24
f 41/1/20 4/1/4 3/1/1
f 30/1/24 4/1/4 41/1/20
f 4/1/4 30/1/24 8/1/7
f 24/1/7 26/1/18 12/1/6
f 12/1/6 26/1/18 10/1/1
f 24/1/7 39/1/26 26/1/18
f 25/1/20 10/1/1 26/1/18
f 39/1/26 24/1/7 40/1/24
f 25/1/20 18/1/4 10/1/1
f 40/1/24 18/1/4 25/1/20
f 18/1/4 40/1/24 24/1/7
f 51/6/42 50/7/43 49/6/44
f 51/6/42 58/8/45 57/8/46
f 58/8/45 51/6/42 49/6/44
f 53/6/47 60/8/48 59/8/49
f 60/8/48 53/6/47 54/6/50
f 50/7/43 56/7/51 55/7/52
f 48/9/41 61/9/53 47/9/40
f 63/10/54 61/9/53 62/9/55
f 67/10/56 72/9/57 71/9/58
f 72/9/57 67/10/56 68/10/59
f 72/9/57 46/9/39 71/9/58
f 46/9/39 72/9/57 45/9/38
f 35/11/32 55/12/52 34/11/33
f 55/12/52 35/11/32 50/12/43
f 61/13/53 50/12/43 35/11/32
f 61/13/53 35/11/32 47/13/40
f 64/14/60 49/15/44 61/13/53
f 49/15/44 66/16/61 58/11/45
f 51/15/42 62/13/55 52/12/62
f 51/15/42 63/14/54 62/13/55
f 57/11/46 63/14/54 51/15/42
f 36/11/31 72/13/57 56/12/51
f 72/13/57 36/11/31 45/13/38
f 54/15/50 72/13/57 68/14/59
f 54/15/50 68/14/59 60/11/48
f 15/14/13 59/12/49 32/11/26
f 32/11/26 59/12/49 43/11/18
f 15/14/13 69/13/63 59/12/49
f 60/12/48 43/11/18 59/12/49
f 20/14/19 57/12/46 25/11/20
f 20/14/19 65/13/64 57/12/46
f 65/13/64 20/14/19 66/13/61
f 58/12/45 21/14/14 40/11/24
f 66/13/61 21/14/14 58/12/45
f 7/2/8 15/2/13 16/2/25
f 7/2/8 16/2/25 2/2/2
f 10/1/1 17/2/15 9/2/10
f 17/2/15 10/1/1 18/1/4
f 11/2/9 20/2/19 19/2/21
f 9/2/10 20/2/19 11/2/9
f 17/2/15 20/2/19 9/2/10
f 17/2/15 21/2/14 20/2/19
f 32/1/26 16/2/25 15/2/13
f 22/2/16 40/1/24 21/2/14
f 43/1/18 42/3/19 41/1/20
f 42/3/19 43/1/18 13/2/11
f 29/3/14 44/3/35 31/3/23
s 0
f 16/2/36 13/2/36 1/2/37
s 1
f 42/3/19 45/5/38 36/4/31
f 34/4/33 29/3/14 30/1/24
f 29/3/14 46/5/39 42/3/19
f 39/1/26 35/4/32 26/1/18
f 47/5/40 38/3/13 48/5/41
f 37/4/34 28/3/12 26/1/18
f 28/3/12 48/5/41 38/3/13
f 50/7/43 51/6/42 52/7/62
f 55/7/52 54/6/50 53/6/47
f 54/6/50 55/7/52 56/7/51
f 56/7/51 50/7/43 52/7/62
f 61/9/53 48/9/41 62/9/55
f 61/9/53 63/10/54 64/10/60
f 65/17/64 64/10/60 63/10/54
f 64/10/60 65/17/64 66/17/61
f 69/17/63 68/10/59 67/10/56
f 68/10/59 69/17/63 70/17/63
s 0
f 67/14/65 59/11/65 69/16/65
s 1
f 67/14/56 53/15/47 59/11/49
f 71/13/58 53/15/47 67/14/56
f 34/11/33 53/15/47 71/13/58
f 71/13/58 46/13/39 34/11/33
f 34/11/33 55/12/52 53/15/47
f 61/13/53 49/15/44 50/12/43
f 66/16/61 49/15/44 64/14/60
f 48/13/41 37/11/34 62/13/55
f 52/12/62 62/13/55 37/11/34
f 52/12/62 37/11/34 36/11/31
s 0
f 63/14/66 57/11/66 65/16/66
s 1
f 52/12/62 36/11/31 56/12/51
f 56/12/51 72/13/57 54/15/50
s 0
f 60/11/66 68/14/66 70/16/66
s 1
f 69/13/63 15/14/13 70/13/63
f 60/12/48 14/14/12 43/11/18
f 70/13/63 14/14/12 60/12/48
f 14/14/12 70/13/63 15/14/13
f 25/11/20 57/12/46 40/11/24
f 58/12/45 40/11/24 57/12/46
f 21/14/14 66/13/61 20/14/19
