# Blender 4.3.2
# www.blender.org
mtllib wine-red.mtl
o wine-red.023
v 0.047699 -0.082616 0.000000
v -0.047699 -0.082616 0.000000
v 0.026146 -0.045287 -0.018325
v -0.026146 -0.045287 -0.018325
v 0.037477 0.000000 -0.528192
v 0.042021 0.000000 -0.458136
v 0.018739 0.032456 -0.528192
v 0.021011 0.036392 -0.458136
v 0.021011 -0.036392 -0.458136
v 0.018739 -0.032456 -0.528192
v -0.021011 0.036392 -0.458136
v -0.018739 0.032456 -0.528192
v -0.042021 0.000000 -0.458136
v -0.037477 0.000000 -0.528192
v 0.047699 0.082616 0.000000
v 0.026146 0.045287 -0.018325
v -0.047699 0.082616 0.000000
v -0.026146 0.045287 -0.018325
v 0.095397 0.000000 0.000000
v 0.052293 0.000000 -0.018325
v -0.052293 0.000000 -0.018325
v -0.095397 0.000000 0.000000
v -0.021011 -0.036392 -0.458136
v -0.018739 -0.032456 -0.528192
v -0.047699 -0.082616 -0.334009
v 0.047699 -0.082616 -0.334009
v 0.095397 -0.000000 -0.317474
v 0.059623 0.061962 -0.317474
v 0.095397 0.000000 -0.334009
v 0.047699 0.082616 -0.334009
v 0.059623 0.061962 -0.122317
v 0.095397 -0.000000 -0.122317
v -0.047699 0.082616 -0.334009
v 0.059623 -0.061962 -0.317474
v 0.059623 -0.061962 -0.122317
v -0.095397 0.000000 -0.334009
v -0.036152 -0.062616 -0.392089
v 0.036152 -0.062616 -0.392089
v -0.036152 0.062616 -0.392089
v 0.036152 0.062616 -0.392089
v -0.072303 0.000000 -0.392089
v 0.072303 0.000000 -0.392089
v 0.014241 -0.024667 -0.606466
v 0.028483 0.000000 -0.606466
v -0.014241 -0.024667 -0.606466
v -0.019226 -0.033300 -0.628867
v 0.019226 -0.033300 -0.628867
v -0.019226 -0.033300 -0.651267
v 0.019226 -0.033300 -0.651267
v -0.028483 0.000000 -0.606466
v -0.014241 0.024667 -0.606466
v 0.038452 0.000000 -0.651267
v 0.038452 0.000000 -0.628867
v 0.019226 0.033300 -0.651267
v 0.019226 0.033300 -0.628867
v -0.038452 0.000000 -0.628867
v -0.019226 0.033300 -0.651267
v -0.038452 0.000000 -0.651267
v 0.014241 0.024667 -0.606466
v -0.019226 0.033300 -0.628867
v 0.029028 0.000000 -0.698880
v 0.014514 0.025139 -0.698880
v 0.014514 -0.025139 -0.698880
v -0.014514 -0.025139 -0.698880
v -0.014514 0.025139 -0.698880
v -0.029028 0.000000 -0.698880
v -0.023794 0.000000 -0.651267
v -0.011897 0.020606 -0.651267
v 0.023794 0.000000 -0.651267
v 0.011897 0.020606 -0.651267
v 0.011897 -0.020606 -0.651267
v -0.011897 -0.020606 -0.651267
v 0.059623 -0.061962 -0.317474
v 0.059623 -0.061962 -0.122317
v 0.059623 0.061962 -0.317474
v 0.059623 0.061962 -0.122317
vn -0.0667 0.1553 0.9856
vn 0.1154 -0.6357 0.7632
vn 0.0774 -0.1341 0.9879
vn 0.2165 0.1754 0.9604
vn 0.6642 0.6087 0.4339
vn 0.6631 -0.0000 -0.7486
vn 0.8178 0.5663 -0.1020
vn 0.8664 0.4025 -0.2956
vn 0.6638 -0.6122 0.4297
vn 0.3304 -0.5723 -0.7505
vn 0.0791 0.9520 -0.2957
vn -0.4354 0.7541 0.4917
vn -0.8680 -0.0000 0.4965
vn -0.7832 0.5470 -0.2957
vn -0.2322 -0.1652 0.9585
vn -0.1051 0.1820 0.9777
vn 0.1544 -0.1522 0.9762
vn 0.5248 0.1069 0.8445
vn -0.1059 -0.0000 0.9944
vn 0.3994 0.5411 0.7401
vn 0.3323 0.1378 0.9330
vn -0.1779 -0.0000 0.9840
vn 0.8660 0.5000 -0.0000
vn 0.4942 0.7322 0.4686
vn -0.4418 0.7652 0.4683
vn 0.8660 -0.5000 -0.0000
vn 0.8732 -0.0000 0.4873
vn 0.8021 -0.0000 0.5971
vn 0.9178 -0.3421 -0.2016
vn 0.8021 -0.0001 -0.5971
vn -0.8840 -0.0000 0.4674
vn -0.4432 -0.7677 0.4629
vn -0.0085 -0.9964 -0.0845
vn -0.9846 -0.0000 0.1746
vn -0.8219 0.3647 -0.4377
vn 0.8545 0.5116 -0.0897
vn 0.7324 0.5212 -0.4381
vn 0.8527 -0.5142 -0.0919
vn -0.1114 -0.9805 0.1620
vn 0.5486 -0.5099 0.6626
vn 0.7079 -0.0000 0.7063
vn -0.0127 -0.8149 0.5795
vn -0.4527 -0.7842 -0.4244
vn 0.3317 -0.5745 0.7482
vn -0.0336 -0.8664 -0.4983
vn 0.4775 -0.8270 -0.2969
vn -0.7263 0.2155 0.6527
vn -0.8991 0.3946 0.1896
vn 0.7335 0.4623 -0.4983
vn 0.9045 -0.0000 -0.4264
vn 0.5820 0.4758 -0.6595
vn 0.8952 0.3859 0.2229
vn -0.7027 -0.4038 0.5858
vn -0.0528 0.7464 -0.6634
vn -0.5820 0.4758 -0.6595
vn -0.9040 -0.4151 -0.1019
vn -0.9040 0.3652 0.2223
vn -0.0808 0.9784 0.1901
vn 0.5487 0.3514 -0.7586
vn 0.0657 -0.7799 -0.6225
vn -0.2782 -0.4819 -0.8309
vn -0.0657 0.7799 -0.6225
vn -0.5847 0.5288 -0.6152
vn -0.3709 0.6425 0.6706
vn -0.7347 -0.0000 0.6783
vn 0.7400 -0.0911 0.6664
vn 0.6138 0.4893 -0.6195
vn 0.3674 0.6363 0.6783
vn 0.3709 -0.6425 0.6706
vn 0.8108 0.1151 -0.5739
vn 0.8108 -0.1151 0.5739
vn -0.2911 -0.6864 0.6664
vt 0.218750 0.031939
vt 0.218750 0.025000
vt 0.218750 0.225000
vt 0.218750 0.198473
vt 0.218750 0.145212
vt 0.218750 0.151473
vt 0.218750 0.071315
vt 0.218750 0.173465
vt 0.968750 0.402199
vt 0.968750 0.275000
vt 0.968750 0.438599
vt 0.968750 0.475000
vt 0.093750 0.475000
vt 0.093750 0.275000
vt 0.468750 0.325000
vt 0.468750 0.425000
s 1
usemtl colormap.024
f 3/1/1 2/2/2 1/2/3
f 2/2/2 3/1/1 4/1/4
f 7/3/5 6/4/6 5/3/7
f 6/4/6 7/3/5 8/4/8
f 10/3/9 6/4/6 9/4/10
f 6/4/6 10/3/9 5/3/7
f 7/3/5 11/4/11 8/4/8
f 11/4/11 7/3/5 12/3/12
f 11/4/11 14/3/13 13/4/14
f 14/3/13 11/4/11 12/3/12
f 16/1/15 17/2/16 18/1/17
f 15/2/18 20/1/19 19/2/20
f 20/1/19 15/2/18 16/1/15
f 17/2/16 21/1/21 18/1/17
f 21/1/21 17/2/16 22/2/22
f 16/1/15 3/1/1 20/1/19
f 3/1/1 16/1/15 18/1/17
f 3/1/1 18/1/17 4/1/4
f 28/5/23 30/6/24 31/7/23
f 15/2/18 31/7/23 30/6/24
f 17/2/16 30/6/24 33/6/25
f 34/5/26 29/6/27 27/5/28
f 34/5/26 26/6/29 29/6/27
f 26/6/29 34/5/26 1/2/3
f 35/7/26 1/2/3 34/5/26
f 1/2/3 35/7/26 19/2/20
f 19/2/20 35/7/26 32/7/30
f 17/2/16 36/6/31 22/2/22
f 36/6/31 17/2/16 33/6/25
f 22/2/22 25/6/32 2/2/2
f 25/6/32 22/2/22 36/6/31
f 37/8/33 26/6/29 25/6/32
f 33/6/25 41/8/34 36/6/31
f 41/8/34 33/6/25 39/8/35
f 40/8/36 29/6/27 42/8/37
f 38/8/38 29/6/27 26/6/29
f 36/6/31 37/8/33 25/6/32
f 37/8/33 36/6/31 41/8/34
f 42/8/37 8/4/8 40/8/36
f 42/8/37 9/4/10 6/4/6
f 23/4/39 38/8/38 37/8/33
f 38/8/38 23/4/39 9/4/10
f 41/8/34 23/4/39 37/8/33
f 23/4/39 41/8/34 13/4/14
f 39/8/35 13/4/14 41/8/34
f 13/4/14 39/8/35 11/4/11
f 43/9/40 5/10/7 10/10/9
f 5/10/7 43/9/40 44/9/41
f 46/11/42 43/9/40 45/9/43
f 43/9/40 46/11/42 47/11/44
f 48/12/45 47/11/44 46/11/42
f 47/11/44 48/12/45 49/12/46
f 50/9/47 12/10/12 51/9/48
f 54/12/49 53/11/50 52/12/51
f 53/11/50 54/12/49 55/11/52
f 56/11/53 45/9/43 50/9/47
f 49/12/46 54/12/49 52/12/51
f 54/12/49 49/12/46 48/12/45
f 54/12/49 48/12/45 57/12/54
f 57/12/54 48/12/45 58/12/55
f 55/11/52 44/9/41 53/11/50
f 14/10/13 45/9/43 24/10/56
f 48/12/45 56/11/53 58/12/55
f 51/9/48 56/11/53 50/9/47
f 56/11/53 51/9/48 60/11/57
f 12/10/12 59/9/58 51/9/48
f 59/9/58 5/10/7 44/9/41
f 45/9/43 10/10/9 24/10/56
f 10/10/9 45/9/43 43/9/40
f 62/13/59 63/13/60 64/13/61
f 62/13/59 64/13/61 65/13/62
f 65/13/62 64/13/61 66/13/63
f 68/14/64 66/13/63 67/14/65
f 66/13/63 68/14/64 65/13/62
f 62/13/59 69/14/66 61/13/67
f 69/14/66 62/13/59 70/14/68
f 61/13/67 71/14/69 63/13/60
f 71/14/69 61/13/67 69/14/66
f 62/13/59 68/14/64 70/14/68
f 68/14/64 62/13/59 65/13/62
f 71/14/69 64/13/61 63/13/60
f 74/15/26 27/16/70 32/15/71
f 75/16/23 32/15/71 27/16/70
f 32/15/71 75/16/23 76/15/23
f 17/2/16 16/1/15 15/2/18
f 20/1/19 1/2/3 19/2/20
f 1/2/3 20/1/19 3/1/1
f 4/1/4 18/1/17 21/1/21
f 13/4/14 24/3/56 23/4/39
f 24/3/56 13/4/14 14/3/13
f 24/3/56 9/4/10 23/4/39
f 9/4/10 24/3/56 10/3/9
f 21/1/21 2/2/2 4/1/4
f 2/2/2 21/1/21 22/2/22
f 25/6/32 1/2/3 2/2/2
f 1/2/3 25/6/32 26/6/29
f 29/6/27 28/5/23 27/5/28
f 28/5/23 29/6/27 30/6/24
f 19/2/20 31/7/23 15/2/18
f 31/7/23 19/2/20 32/7/30
f 30/6/24 17/2/16 15/2/18
f 26/6/29 37/8/33 38/8/38
f 30/6/24 39/8/35 33/6/25
f 39/8/35 30/6/24 40/8/36
f 29/6/27 40/8/36 30/6/24
f 29/6/27 38/8/38 42/8/37
f 8/4/8 42/8/37 6/4/6
f 9/4/10 42/8/37 38/8/38
f 8/4/8 39/8/35 40/8/36
f 39/8/35 8/4/8 11/4/11
f 12/10/12 50/9/47 14/10/13
f 45/9/43 56/11/53 46/11/42
f 44/9/41 55/11/52 59/9/58
f 45/9/43 14/10/13 50/9/47
f 56/11/53 48/12/45 46/11/42
f 52/12/51 47/11/44 49/12/46
f 47/11/44 52/12/51 53/11/50
f 53/11/50 43/9/40 47/11/44
f 43/9/40 53/11/50 44/9/41
f 59/9/58 12/10/12 7/10/5
f 60/11/57 58/12/55 56/11/53
f 58/12/55 60/11/57 57/12/54
f 54/12/49 60/11/57 55/11/52
f 60/11/57 54/12/49 57/12/54
f 55/11/52 51/9/48 59/9/58
f 51/9/48 55/11/52 60/11/57
f 5/10/7 59/9/58 7/10/5
f 63/13/60 62/13/59 61/13/67
f 72/14/72 66/13/63 64/13/61
f 66/13/63 72/14/72 67/14/65
f 64/13/61 71/14/69 72/14/72
f 27/16/70 74/15/26 73/16/26
