# Blender 4.3.2
# www.blender.org
mtllib lampRoundFloor.mtl
o lampRoundFloor
v 0.000000 0.120000 0.000000
v 0.000000 0.000000 0.000000
v -0.120000 0.120000 0.000000
v -0.120000 0.000000 0.000000
v -0.012000 0.108000 -0.020000
v -0.052741 0.052741 -0.020000
v -0.012000 0.012000 -0.020000
v -0.108000 0.012000 -0.020000
v -0.067259 0.052741 -0.020000
v -0.067259 0.067259 -0.020000
v -0.052741 0.067259 -0.020000
v -0.108000 0.108000 -0.020000
v -0.050927 0.050927 -0.760750
v -0.050927 0.069073 -0.760750
v -0.069073 0.050927 -0.760750
v -0.069073 0.069073 -0.760750
v -0.098799 0.082401 -0.681500
v -0.060000 0.104802 -0.681500
v -0.098799 0.082401 -0.860000
v -0.060000 0.104802 -0.860000
v -0.021201 0.037599 -0.681500
v -0.021201 0.037599 -0.860000
v -0.021201 0.082401 -0.681500
v -0.021201 0.082401 -0.860000
v -0.098799 0.037599 -0.860000
v -0.098799 0.037599 -0.681500
v -0.060000 0.015198 -0.681500
v -0.060000 0.015198 -0.860000
v 0.016020 0.103890 -0.681500
v -0.060000 0.147780 -0.681500
v -0.136020 0.103890 -0.681500
v 0.016020 0.016110 -0.681500
v -0.060000 -0.027780 -0.681500
v -0.136020 0.016110 -0.681500
v -0.006026 0.091162 -0.860000
v -0.006026 0.028838 -0.860000
v -0.060000 -0.002324 -0.860000
v -0.113974 0.028838 -0.860000
v -0.060000 0.122324 -0.860000
v -0.113974 0.091162 -0.860000
vn 0.6707 -0.6707 0.3166
vn 0.6707 0.6707 0.3166
vn -0.6707 0.6707 0.3166
vn -0.6707 -0.6707 0.3166
vn 0.3023 -0.3023 -0.9040
vn 0.3956 0.3956 -0.8289
vn 0.3956 -0.3956 -0.8289
vn -0.3956 -0.3956 -0.8289
vn -0.3023 -0.3023 -0.9040
vn -0.3023 0.3023 -0.9040
vn 0.3023 0.3023 -0.9040
vn -0.3956 0.3956 -0.8289
vn 0.5780 0.5780 -0.5761
vn 0.5780 -0.5780 -0.5761
vn -0.5780 -0.5780 -0.5761
vn -0.5780 0.5780 -0.5761
vn -0.0000 -0.5447 0.8386
vn 0.4717 -0.2724 0.8386
vn 0.4717 -0.2723 -0.8386
vn -0.0000 -0.5447 -0.8386
vn -0.4717 -0.2723 0.8386
vn -0.4717 -0.2724 -0.8386
vn -0.4717 0.2723 -0.8386
vn 0.4717 0.2723 0.8386
vn -0.0000 0.5447 0.8386
vn -0.4717 0.2724 0.8386
vn -0.0000 0.5447 -0.8386
vn 0.7196 0.4155 0.5564
vn -0.0000 0.8309 0.5564
vn -0.7196 0.4155 0.5564
vn -0.0000 -0.8309 0.5564
vn 0.7196 -0.4154 0.5564
vn -0.7196 -0.4155 0.5564
vn -0.0000 -0.7489 -0.6627
vn -0.6486 -0.3744 -0.6627
vn 0.4717 0.2724 -0.8386
vn 0.6486 0.3744 -0.6627
vn -0.0000 0.7489 -0.6627
vn -0.6486 0.3744 -0.6627
vn 0.6486 -0.3744 -0.6627
vt 0.000000 0.000000
vt 0.000000 4.724410
vt -4.724410 4.724410
vt -4.724410 0.000000
vt 2.076436 2.076436
vt 0.472441 4.251968
vt 0.472441 0.472441
vt 4.251968 0.472441
vt 2.647973 2.076436
vt 2.647973 2.647973
vt 2.076436 2.647973
vt 4.251968 4.251968
vt 2.004994 2.719415
vt 2.004994 2.004994
vt 2.719415 2.004994
vt 2.719415 2.719415
vt 0.472441 -1.512429
vt -0.000000 -2.430689
vt 4.724410 -2.430689
vt -2.647973 0.793886
vt -2.076436 0.793886
vt -2.004994 29.957359
vt -2.719415 29.957359
vt -2.076436 0.782313
vt -2.004994 29.945789
vt -2.719415 29.945789
vt -2.647973 0.782313
vt 2.719415 29.945789
vt 2.004994 29.945789
vt 2.076436 0.782313
vt -0.472441 -1.512429
vt -4.251968 -1.512429
vt -4.724410 -2.430689
vt 2.719415 29.957359
vt 2.004994 29.957359
vt 2.076436 0.793886
vt 2.647973 0.793886
vt -4.724410 0.000000
vt -0.472441 0.918260
vt -4.251968 0.918260
vt -0.017296 26.830709
vt 1.746549 26.830709
vt 1.746549 33.858269
vt -0.017296 33.858269
vt 3.244127 26.830709
vt 3.244127 33.858269
vt 1.480282 33.858269
vt -3.244127 33.858269
vt -3.244127 26.830709
vt -1.480282 26.830709
vt -1.746549 26.830709
vt 0.017296 26.830709
vt 0.017296 33.858269
vt -1.746549 33.858269
vt -0.834670 3.244127
vt 0.630697 4.090158
vt -2.362205 5.818110
vt -5.355107 4.090158
vt -2.362205 4.126050
vt -3.889739 3.244127
vt -3.889739 1.480282
vt -0.834670 1.480282
vt -2.362205 -1.093701
vt 0.630697 0.634252
vt -2.362205 0.598360
vt -5.355107 0.634252
vt 2.362205 -0.091488
vt 2.362205 0.598360
vt 0.834670 1.480282
vt 4.487165 1.135358
vt 3.889739 1.480282
vt 3.889739 3.244127
vt 0.237244 3.589051
vt 0.834670 3.244127
vt 2.362205 4.815897
vt 2.362205 4.126050
vt 4.487165 3.589051
vt 2.091473 33.738010
vt -0.362220 33.738010
vt -0.863326 26.657061
vt -4.090158 26.551081
vt -0.634252 26.551081
vt -1.135358 33.632030
vt -3.589051 33.632030
vt 4.090158 25.971991
vt 3.589051 33.052940
vt 1.135358 33.052940
vt -2.592580 25.866011
vt 0.863326 25.866011
vt 0.362220 32.946960
vt -2.091473 32.946960
vt 1.498879 26.367519
vt 4.954784 26.367519
vt 4.453678 33.448471
vt -4.954784 26.155560
vt -1.498879 26.155560
vt -1.999985 33.236511
vt -4.453678 33.236511
vt 4.251968 -1.512429
vt 4.724410 0.000000
vt 4.251968 0.918260
vt 0.472441 0.918260
vt 2.647973 0.782313
vt 0.000000 -2.430689
vt 1.480282 26.830709
vt -1.480282 33.858269
vt 2.344909 26.830709
vt 4.108754 26.830709
vt 4.108754 33.858269
vt 2.344909 33.858269
vt -4.108754 26.830709
vt -2.344909 26.830709
vt -2.344909 33.858269
vt -4.108754 33.858269
vt 0.237244 1.135358
vt 2.592580 26.657061
vt 0.634252 25.971991
vt 1.999985 33.448471
s 1
usemtl metal.006
f 2/1/1 1/2/2 3/3/3
f 3/3/3 4/4/4 2/1/1
f 6/5/5 5/6/6 7/7/7
f 7/7/7 8/8/8 6/5/5
f 8/8/8 9/9/9 6/5/5
f 8/8/8 10/10/10 9/9/9
f 5/6/6 6/5/5 11/11/11
f 11/11/11 12/12/12 5/6/6
f 11/11/11 10/10/10 12/12/12
f 10/10/10 8/8/8 12/12/12
f 14/13/13 13/14/14 15/15/15
f 15/15/15 16/16/16 14/13/13
f 8/17/8 4/18/4 3/19/3
f 10/20/10 11/21/11 14/22/13
f 14/22/13 16/23/16 10/20/10
f 6/24/5 13/25/14 14/26/13
f 14/26/13 11/27/11 6/24/5
f 15/28/15 13/29/14 6/30/5
f 5/31/6 12/32/12 3/33/3
f 16/34/16 15/35/15 9/36/9
f 9/36/9 10/37/10 16/34/16
f 1/38/2 2/1/1 7/39/7
f 7/39/7 5/40/6 1/38/2
f 3/19/3 12/99/12 8/17/8
f 2/1/1 4/100/4 8/101/8
f 8/101/8 7/102/7 2/1/1
f 6/30/5 9/103/9 15/28/15
f 3/33/3 1/104/2 5/31/6
usemtl lamp
f 18/41/17 17/42/18 19/43/19
f 19/43/19 20/44/20 18/41/17
f 23/45/21 24/46/22 22/47/23
f 19/48/19 17/49/18 26/50/24
f 27/51/25 21/52/26 22/53/23
f 22/53/23 28/54/27 27/51/25
f 23/55/21 29/56/28 30/57/29
f 30/57/29 31/58/30 18/59/17
f 31/58/30 17/60/18 18/59/17
f 31/58/30 26/61/24 17/60/18
f 21/62/26 33/63/31 32/64/32
f 21/62/26 27/65/25 33/63/31
f 27/65/25 34/66/33 33/63/31
f 27/65/25 26/61/24 34/66/33
f 37/67/34 28/68/27 22/69/23
f 38/70/35 25/71/36 28/68/27
f 38/70/35 19/72/19 25/71/36
f 35/73/37 22/69/23 24/74/22
f 24/74/22 39/75/38 35/73/37
f 24/74/22 20/76/20 39/75/38
f 20/76/20 19/72/19 39/75/38
f 19/72/19 40/77/39 39/75/38
f 19/72/19 38/70/35 40/77/39
f 37/78/34 36/79/40 32/80/32
f 29/81/28 32/82/32 36/83/40
f 36/83/40 35/84/37 29/81/28
f 31/85/30 40/86/39 38/87/35
f 31/88/30 30/89/29 39/90/38
f 39/90/38 40/91/39 31/88/30
f 33/92/31 34/93/33 38/94/35
f 30/95/29 29/96/28 35/97/37
f 35/97/37 39/98/38 30/95/29
f 22/47/23 21/105/26 23/45/21
f 26/50/24 25/106/36 19/48/19
f 23/107/21 18/108/17 20/109/20
f 20/109/20 24/110/22 23/107/21
f 26/111/24 27/112/25 28/113/27
f 28/113/27 25/114/36 26/111/24
f 30/57/29 18/59/17 23/55/21
f 29/56/28 23/55/21 21/62/26
f 32/64/32 29/56/28 21/62/26
f 26/61/24 31/58/30 34/66/33
f 22/69/23 35/73/37 36/115/40
f 36/115/40 37/67/34 22/69/23
f 37/67/34 38/70/35 28/68/27
f 32/80/32 33/116/31 37/78/34
f 38/87/35 34/117/33 31/85/30
f 38/94/35 37/118/34 33/92/31
