# Blender 4.3.2
# www.blender.org
mtllib conveyor-bars-stripe-fence.mtl
o conveyor-bars-stripe-fence.046
v 0.502796 -0.450000 -0.550000
v 0.502796 -0.500000 -0.550000
v -0.497204 -0.450000 -0.550000
v 0.075000 -0.500000 -0.550000
v -0.075000 -0.500000 -0.550000
v -0.497204 -0.500000 -0.550000
v 0.502796 -0.500000 -0.750000
v 0.502796 -0.450000 -0.750000
v 0.075000 -0.500000 -0.750000
v -0.497204 -0.450000 -0.750000
v -0.075000 -0.500000 -0.750000
v -0.497204 -0.500000 -0.750000
v 0.497204 0.500000 -0.550000
v 0.075000 0.500000 -0.550000
v 0.497204 0.500000 -0.750000
v 0.075000 0.500000 -0.750000
v -0.502796 0.450000 -0.550000
v 0.497204 0.450000 -0.550000
v -0.502796 0.450000 -0.750000
v 0.497204 0.450000 -0.750000
v -0.075000 0.500000 -0.750000
v -0.502796 0.500000 -0.750000
v -0.075000 0.500000 -0.550000
v -0.502796 0.500000 -0.550000
v 0.125000 -0.450000 -0.100000
v 0.125000 -0.550000 -0.100000
v -0.125000 -0.450000 -0.100000
v -0.125000 -0.550000 -0.100000
v 0.125000 -0.600000 -0.300000
v 0.125000 -0.600000 -0.150000
v 0.125000 -0.450000 -0.300000
v -0.125000 -0.450000 -0.300000
v -0.125000 -0.600000 -0.150000
v -0.125000 -0.600000 -0.300000
v 0.125000 0.600000 -0.150000
v -0.125000 0.600000 -0.150000
v 0.125000 0.600000 -0.300000
v -0.125000 0.600000 -0.300000
v -0.125000 0.450000 -0.100000
v -0.125000 0.450000 -0.300000
v -0.125000 0.550000 -0.100000
v 0.125000 0.450000 -0.100000
v 0.125000 0.450000 -0.300000
v 0.125000 0.550000 -0.100000
v -0.075000 0.500000 -0.300000
v 0.075000 0.500000 -0.300000
v -0.075000 0.550000 -0.300000
v 0.075000 0.550000 -0.300000
v -0.075000 -0.550000 -0.300000
v 0.075000 -0.550000 -0.300000
v -0.075000 -0.500000 -0.300000
v 0.075000 -0.500000 -0.300000
v -0.075000 -0.550000 -0.800000
v 0.075000 -0.550000 -0.800000
v -0.075000 -0.500000 -0.800000
v 0.075000 -0.500000 -0.800000
v -0.075000 0.500000 -0.800000
v -0.075000 0.550000 -0.800000
v 0.075000 0.500000 -0.800000
v 0.075000 0.550000 -0.800000
v -0.500000 -0.500000 -0.300000
v 0.500000 -0.500000 -0.300000
v -0.500000 -0.500000 -0.400000
v 0.500000 -0.500000 -0.400000
v 0.500000 -0.400000 -0.400000
v -0.500000 -0.400000 -0.400000
v 0.500000 -0.400000 0.000000
v 0.500000 -0.500000 0.000000
v -0.500000 -0.400000 0.000000
v -0.500000 -0.500000 0.000000
v -0.500000 -0.500000 -0.100000
v 0.500000 -0.500000 -0.100000
v 0.500000 -0.450000 -0.275000
v 0.500000 -0.450000 -0.125000
v -0.500000 -0.450000 -0.275000
v -0.500000 -0.450000 -0.125000
v 0.500000 0.500000 -0.300000
v -0.500000 0.500000 -0.300000
v 0.500000 0.500000 -0.400000
v -0.500000 0.500000 -0.400000
v 0.500000 0.500000 -0.000000
v 0.500000 0.400000 -0.000000
v -0.500000 0.500000 -0.000000
v -0.500000 0.400000 -0.000000
v 0.500000 0.400000 -0.400000
v -0.500000 0.400000 -0.400000
v 0.500000 0.500000 -0.100000
v -0.500000 0.500000 -0.100000
v 0.500000 0.450000 -0.125000
v -0.500000 0.450000 -0.125000
v 0.500000 0.450000 -0.275000
v -0.500000 0.450000 -0.275000
v -0.062500 -0.400000 -0.350000
v -0.062500 -0.200000 -0.350000
v -0.187500 -0.400000 -0.350000
v -0.187500 -0.200000 -0.350000
v 0.000000 -0.200000 -0.162500
v 0.000000 -0.400000 -0.162500
v -0.062500 -0.200000 -0.100000
v -0.062500 -0.400000 -0.100000
v -0.062500 0.400000 -0.100000
v -0.187500 0.400000 -0.100000
v 0.000000 0.400000 -0.162500
v -0.062500 0.400000 -0.162500
v -0.187500 0.400000 -0.162500
v -0.250000 0.400000 -0.162500
v -0.062500 0.400000 -0.287500
v -0.187500 0.400000 -0.287500
v -0.062500 0.400000 -0.350000
v -0.250000 0.400000 -0.287500
v -0.187500 0.400000 -0.350000
v 0.000000 0.400000 -0.287500
v -0.312500 0.400000 -0.287500
v -0.312500 0.400000 -0.350000
v -0.312500 0.400000 -0.162500
v -0.437500 0.400000 -0.287500
v -0.437500 0.400000 -0.100000
v -0.312500 0.400000 -0.100000
v -0.437500 0.400000 -0.162500
v -0.500000 0.400000 -0.162500
v -0.500000 0.400000 -0.287500
v -0.437500 0.400000 -0.350000
v 0.062500 0.400000 -0.287500
v 0.062500 0.400000 -0.162500
v 0.062500 0.400000 -0.100000
v 0.187500 0.400000 -0.162500
v 0.187500 0.400000 -0.350000
v 0.062500 0.400000 -0.350000
v 0.187500 0.400000 -0.287500
v 0.250000 0.400000 -0.287500
v 0.250000 0.400000 -0.162500
v 0.187500 0.400000 -0.100000
v 0.312500 0.400000 -0.287500
v 0.312500 0.400000 -0.162500
v 0.312500 0.400000 -0.100000
v 0.437500 0.400000 -0.162500
v 0.437500 0.400000 -0.350000
v 0.312500 0.400000 -0.350000
v 0.437500 0.400000 -0.287500
v 0.500000 0.400000 -0.287500
v 0.500000 0.400000 -0.162500
v 0.437500 0.400000 -0.100000
v 0.000000 0.200000 -0.287500
v -0.062500 0.200000 -0.350000
v 0.062500 0.200000 -0.100000
v 0.000000 0.200000 -0.162500
v -0.437500 0.200000 -0.100000
v -0.500000 0.200000 -0.162500
v -0.250000 0.200000 -0.287500
v -0.187500 0.200000 -0.350000
v 0.500000 -0.200000 -0.162500
v 0.500000 -0.400000 -0.162500
v 0.437500 -0.200000 -0.100000
v 0.437500 -0.400000 -0.100000
v -0.312500 0.200000 -0.350000
v 0.250000 -0.200000 -0.162500
v 0.250000 -0.400000 -0.162500
v 0.187500 -0.200000 -0.100000
v 0.187500 -0.400000 -0.100000
v -0.312500 -0.200000 -0.100000
v -0.312500 -0.400000 -0.100000
v -0.437500 -0.200000 -0.100000
v -0.437500 -0.400000 -0.100000
v -0.187500 -0.200000 -0.100000
v -0.187500 -0.400000 -0.100000
v -0.187500 0.200000 -0.100000
v -0.250000 0.200000 -0.162500
v 0.062500 -0.200000 -0.100000
v 0.062500 -0.400000 -0.100000
v -0.250000 -0.200000 -0.162500
v -0.250000 -0.400000 -0.162500
v 0.062500 0.200000 -0.350000
v -0.500000 0.200000 -0.287500
v 0.250000 0.200000 -0.287500
v 0.187500 0.200000 -0.350000
v -0.437500 0.200000 -0.350000
v 0.187500 -0.400000 -0.350000
v 0.187500 -0.200000 -0.350000
v 0.062500 -0.400000 -0.350000
v 0.062500 -0.200000 -0.350000
v -0.312500 -0.400000 -0.350000
v -0.312500 -0.200000 -0.350000
v -0.437500 -0.400000 -0.350000
v -0.437500 -0.200000 -0.350000
v 0.312500 -0.200000 -0.100000
v 0.312500 -0.400000 -0.100000
v 0.437500 -0.400000 -0.350000
v 0.437500 -0.200000 -0.350000
v 0.312500 -0.400000 -0.350000
v 0.312500 -0.200000 -0.350000
v 0.312500 0.200000 -0.350000
v 0.500000 0.200000 -0.287500
v 0.500000 0.200000 -0.162500
v 0.437500 0.200000 -0.350000
v 0.312500 0.200000 -0.100000
v 0.250000 0.200000 -0.162500
v -0.500000 -0.400000 -0.162500
v -0.437500 -0.400000 -0.162500
v -0.312500 -0.400000 -0.162500
v -0.437500 -0.400000 -0.287500
v -0.500000 -0.400000 -0.287500
v -0.312500 -0.400000 -0.287500
v -0.250000 -0.400000 -0.287500
v -0.187500 -0.400000 -0.287500
v -0.187500 -0.400000 -0.162500
v -0.062500 -0.400000 -0.287500
v -0.062500 -0.400000 -0.162500
v 0.000000 -0.400000 -0.287500
v 0.062500 -0.400000 -0.287500
v 0.062500 -0.400000 -0.162500
v 0.187500 -0.400000 -0.287500
v 0.187500 -0.400000 -0.162500
v 0.250000 -0.400000 -0.287500
v 0.312500 -0.400000 -0.287500
v 0.312500 -0.400000 -0.162500
v 0.437500 -0.400000 -0.287500
v 0.437500 -0.400000 -0.162500
v 0.500000 -0.400000 -0.287500
v -0.500000 -0.200000 -0.287500
v -0.250000 -0.200000 -0.287500
v -0.500000 -0.200000 -0.162500
v 0.000000 -0.200000 -0.287500
v 0.500000 -0.200000 -0.287500
v 0.250000 -0.200000 -0.287500
v -0.312500 0.200000 -0.100000
v 0.437500 0.200000 -0.100000
v 0.187500 0.200000 -0.100000
v -0.062500 0.200000 -0.100000
vn -0.0000 0.7071 0.7071
vn -0.0000 -0.7071 0.7071
vn -0.0000 -0.4472 0.8944
vn -0.0000 -0.4472 -0.8944
vn -0.0000 0.7071 -0.7071
vn -0.0000 -0.7071 -0.7071
vn 1.0000 -0.0000 -0.0000
vn -1.0000 -0.0000 -0.0000
vn -0.0000 0.4472 0.8944
vn -0.0000 0.4472 -0.8944
vn -0.0000 -0.0000 1.0000
vn -0.0000 -0.3827 0.9239
vn -0.0000 1.0000 -0.0000
vn -0.0000 -0.9239 0.3827
vn -0.0000 -1.0000 -0.0000
vn -0.0000 0.9239 0.3827
vn -0.0000 0.3827 0.9239
vn -0.0000 -0.0000 -1.0000
vn -0.0000 -0.8507 0.5257
vn -0.0000 -0.8507 -0.5257
vn -0.0000 0.8507 0.5257
vn -0.0000 0.8506 -0.5257
vn -0.0000 0.8507 -0.5257
vn -0.3827 -0.0000 -0.9239
vn 0.3827 -0.0000 -0.9239
vn 0.3827 -0.0000 0.9239
vn 0.7071 -0.0000 0.7071
vn 0.7071 -0.0000 -0.7071
vn -0.7071 -0.0000 0.7071
vn -0.3827 -0.0000 0.9239
vn -0.9239 -0.0000 0.3827
vn -0.7071 -0.0000 -0.7071
vn 0.9239 -0.0000 0.3827
vn -0.9239 -0.0000 -0.3827
vn 0.9239 -0.0000 -0.3827
vt 0.218750 0.403571
vt 0.218750 0.460714
vt 0.343750 0.025000
vt 0.343750 0.082143
vt 0.343750 0.039286
vt 0.218750 0.225000
vt 0.218750 0.082143
vt 0.218750 0.153571
vt 0.218750 0.210714
vt 0.343750 0.225000
vt 0.343750 0.175000
vt 0.343750 0.075000
vt 0.343750 0.162500
vt 0.343750 0.087500
vt 0.218750 0.162500
vt 0.218750 0.087500
vt 0.218750 0.025000
vt 0.218750 0.075000
vt 0.218750 0.175000
vt 0.093750 0.225000
vt 0.093750 0.025000
s 1
usemtl colormap.004
f 3/1/1 2/1/2 1/1/1
f 2/1/2 3/1/1 4/1/3
f 4/1/3 3/1/1 5/1/3
f 5/1/3 3/1/1 6/1/2
f 9/2/4 8/2/5 7/2/6
f 8/2/5 9/2/4 10/2/5
f 10/2/5 9/2/4 11/2/4
f 10/2/5 11/2/4 12/2/6
f 8/2/7 2/1/7 7/2/7
f 2/1/7 8/2/7 1/1/7
f 8/2/5 3/1/1 1/1/1
f 3/1/1 8/2/5 10/2/5
f 3/1/8 12/2/8 6/1/8
f 12/2/8 3/1/8 10/2/8
f 9/2/4 2/1/2 4/1/3
f 2/1/2 9/2/4 7/2/6
f 12/2/6 5/1/3 6/1/2
f 5/1/3 12/2/6 11/2/4
f 15/2/5 14/1/9 13/1/1
f 14/1/9 15/2/5 16/2/10
f 19/2/6 18/1/2 17/1/2
f 18/1/2 19/2/6 20/2/6
f 15/2/7 18/1/7 20/2/7
f 18/1/7 15/2/7 13/1/7
f 19/2/6 15/2/5 20/2/6
f 15/2/5 19/2/6 16/2/10
f 16/2/10 19/2/6 21/2/10
f 21/2/10 19/2/6 22/2/5
f 21/2/10 24/1/1 23/1/9
f 24/1/1 21/2/10 22/2/5
f 13/1/1 17/1/2 18/1/2
f 17/1/2 13/1/1 14/1/9
f 17/1/2 14/1/9 23/1/9
f 17/1/2 23/1/9 24/1/1
f 24/1/8 19/2/8 17/1/8
f 19/2/8 24/1/8 22/2/8
f 27/3/11 26/3/12 25/3/11
f 26/3/12 27/3/11 28/3/12
f 31/4/7 30/5/7 29/4/7
f 30/5/7 31/4/7 26/3/7
f 26/3/7 31/4/7 25/3/7
f 31/4/13 27/3/13 25/3/13
f 27/3/13 31/4/13 32/4/13
f 28/3/12 30/5/14 26/3/12
f 30/5/14 28/3/12 33/5/14
f 28/3/8 34/4/8 33/5/8
f 34/4/8 28/3/8 32/4/8
f 32/4/8 28/3/8 27/3/8
f 34/4/15 30/5/14 33/5/14
f 30/5/14 34/4/15 29/4/15
f 37/4/13 36/5/16 35/5/16
f 36/5/16 37/4/13 38/4/13
f 41/3/8 40/4/8 39/3/8
f 40/4/8 41/3/8 38/4/8
f 38/4/8 41/3/8 36/5/8
f 40/4/15 42/3/15 39/3/15
f 42/3/15 40/4/15 43/4/15
f 35/5/16 41/3/17 44/3/17
f 41/3/17 35/5/16 36/5/16
f 37/4/7 42/3/7 43/4/7
f 42/3/7 37/4/7 44/3/7
f 44/3/7 37/4/7 35/5/7
f 44/3/17 39/3/11 42/3/11
f 39/3/11 44/3/17 41/3/17
f 46/4/18 40/4/18 45/4/18
f 45/4/18 40/4/18 47/4/18
f 46/4/18 43/4/18 40/4/18
f 38/4/18 47/4/18 40/4/18
f 43/4/18 46/4/18 37/4/18
f 38/4/18 48/4/18 47/4/18
f 37/4/18 48/4/18 38/4/18
f 48/4/18 37/4/18 46/4/18
f 50/4/18 34/4/18 49/4/18
f 49/4/18 34/4/18 51/4/18
f 50/4/18 29/4/18 34/4/18
f 32/4/18 51/4/18 34/4/18
f 29/4/18 50/4/18 31/4/18
f 32/4/18 52/4/18 51/4/18
f 31/4/18 52/4/18 32/4/18
f 52/4/18 31/4/18 50/4/18
f 53/6/15 50/7/15 49/7/15
f 50/7/15 53/6/15 54/6/15
f 51/7/8 53/6/8 49/7/8
f 53/6/8 51/7/8 5/8/8
f 11/9/8 53/6/8 5/8/8
f 53/6/8 11/9/8 55/6/8
f 53/6/18 56/6/18 54/6/18
f 56/6/18 53/6/18 55/6/18
f 56/6/13 11/9/13 9/9/13
f 11/9/13 56/6/13 55/6/13
f 56/6/7 50/7/7 54/6/7
f 50/7/7 56/6/7 9/9/7
f 4/8/7 50/7/7 9/9/7
f 50/7/7 4/8/7 52/7/7
f 4/8/13 51/7/13 52/7/13
f 51/7/13 4/8/13 5/8/13
f 23/8/15 46/7/15 45/7/15
f 46/7/15 23/8/15 14/8/15
f 47/7/8 23/8/8 45/7/8
f 23/8/8 47/7/8 21/9/8
f 21/9/8 47/7/8 57/6/8
f 57/6/8 47/7/8 58/6/8
f 57/6/15 16/9/15 21/9/15
f 16/9/15 57/6/15 59/6/15
f 60/6/7 16/9/7 59/6/7
f 16/9/7 60/6/7 14/8/7
f 14/8/7 60/6/7 46/7/7
f 46/7/7 60/6/7 48/7/7
f 60/6/13 47/7/13 48/7/13
f 47/7/13 60/6/13 58/6/13
f 57/6/18 60/6/18 59/6/18
f 60/6/18 57/6/18 58/6/18
f 63/10/15 62/11/19 61/11/19
f 62/11/19 63/10/15 64/10/15
f 63/10/18 65/10/18 64/10/18
f 65/10/18 63/10/18 66/10/18
f 69/3/11 68/3/11 67/3/11
f 68/3/11 69/3/11 70/3/11
f 65/10/13 69/3/13 67/3/13
f 69/3/13 65/10/13 66/10/13
f 71/12/20 68/3/15 70/3/15
f 68/3/15 71/12/20 72/12/20
f 65/10/7 62/11/7 64/10/7
f 62/11/7 65/10/7 73/13/7
f 73/13/7 65/10/7 74/14/7
f 67/3/7 74/14/7 65/10/7
f 68/3/7 74/14/7 67/3/7
f 74/14/7 68/3/7 72/12/7
f 75/13/3 62/11/19 73/13/3
f 62/11/19 75/13/3 61/11/19
f 69/3/8 71/12/8 70/3/8
f 71/12/8 69/3/8 76/14/8
f 76/14/8 69/3/8 75/13/8
f 66/10/8 75/13/8 69/3/8
f 63/10/8 75/13/8 66/10/8
f 75/13/8 63/10/8 61/11/8
f 71/12/20 74/14/4 72/12/20
f 74/14/4 71/12/20 76/14/4
f 79/10/13 78/11/21 77/11/21
f 78/11/21 79/10/13 80/10/13
f 83/3/11 82/3/11 81/3/11
f 82/3/11 83/3/11 84/3/11
f 85/10/18 80/10/18 79/10/18
f 80/10/18 85/10/18 86/10/18
f 89/14/10 88/12/22 87/12/23
f 88/12/22 89/14/10 90/14/10
f 91/13/7 79/10/7 77/11/7
f 91/13/7 85/10/7 79/10/7
f 85/10/7 91/13/7 82/3/7
f 89/14/7 82/3/7 91/13/7
f 82/3/7 89/14/7 81/3/7
f 81/3/7 89/14/7 87/12/7
f 86/10/15 82/3/15 84/3/15
f 82/3/15 86/10/15 85/10/15
f 90/14/8 83/3/8 88/12/8
f 90/14/8 84/3/8 83/3/8
f 84/3/8 90/14/8 86/10/8
f 92/13/8 86/10/8 90/14/8
f 86/10/8 92/13/8 80/10/8
f 80/10/8 92/13/8 78/11/8
f 78/11/21 91/13/9 77/11/21
f 91/13/9 78/11/21 92/13/9
f 87/12/23 83/3/13 81/3/13
f 83/3/13 87/12/23 88/12/22
f 75/15/15 74/16/15 76/16/15
f 74/16/15 75/15/15 73/15/15
f 91/15/13 90/16/13 89/16/13
f 90/16/13 91/15/13 92/15/13
f 95/6/24 94/6/25 93/6/25
f 94/6/25 95/6/24 96/6/24
f 99/17/26 98/18/27 97/18/27
f 98/18/27 99/17/26 100/17/26
f 103/18/13 102/17/13 101/17/13
f 102/17/13 103/18/13 104/18/13
f 105/18/13 102/17/13 104/18/13
f 102/17/13 105/18/13 106/18/13
f 104/18/13 103/18/13 107/19/13
f 106/18/13 105/18/13 108/19/13
f 107/19/13 109/6/13 108/19/13
f 108/19/13 109/6/13 110/19/13
f 106/18/13 108/19/13 110/19/13
f 110/19/13 109/6/13 111/6/13
f 107/19/13 112/19/13 109/6/13
f 107/19/13 103/18/13 112/19/13
f 113/19/13 106/18/13 110/19/13
f 113/19/13 110/19/13 114/6/13
f 115/18/13 106/18/13 113/19/13
f 113/19/13 114/6/13 116/19/13
f 117/17/13 106/18/13 115/18/13
f 106/18/13 117/17/13 118/17/13
f 119/18/13 117/17/13 115/18/13
f 117/17/13 119/18/13 120/18/13
f 120/18/13 119/18/13 116/19/13
f 120/18/13 116/19/13 121/19/13
f 116/19/13 114/6/13 121/19/13
f 121/19/13 114/6/13 122/6/13
f 103/18/13 123/19/13 112/19/13
f 103/18/13 124/18/13 123/19/13
f 125/17/13 124/18/13 103/18/13
f 124/18/13 125/17/13 126/18/13
f 123/19/13 127/6/13 112/19/13
f 112/19/13 127/6/13 128/6/13
f 129/19/13 127/6/13 123/19/13
f 129/19/13 130/19/13 127/6/13
f 125/17/13 131/18/13 126/18/13
f 126/18/13 131/18/13 129/19/13
f 129/19/13 131/18/13 130/19/13
f 131/18/13 125/17/13 132/17/13
f 131/18/13 133/19/13 130/19/13
f 131/18/13 134/18/13 133/19/13
f 135/17/13 134/18/13 131/18/13
f 134/18/13 135/17/13 136/18/13
f 133/19/13 137/6/13 130/19/13
f 130/19/13 137/6/13 138/6/13
f 139/19/13 137/6/13 133/19/13
f 139/19/13 140/19/13 137/6/13
f 139/19/13 141/18/13 140/19/13
f 136/18/13 141/18/13 139/19/13
f 135/17/13 141/18/13 136/18/13
f 141/18/13 135/17/13 142/17/13
f 144/6/25 112/19/28 143/19/28
f 112/19/28 144/6/25 109/6/25
f 103/18/29 145/17/30 125/17/30
f 145/17/30 103/18/29 146/18/29
f 120/18/31 147/17/30 117/17/30
f 147/17/30 120/18/31 148/18/31
f 110/19/32 150/6/24 149/19/32
f 150/6/24 110/19/32 111/6/24
f 153/17/26 152/18/33 151/18/33
f 152/18/33 153/17/26 154/17/26
f 155/6/25 110/19/28 149/19/28
f 110/19/28 155/6/25 114/6/25
f 158/17/26 157/18/27 156/18/27
f 157/18/27 158/17/26 159/17/26
f 162/17/30 161/17/26 160/17/26
f 161/17/26 162/17/30 163/17/30
f 164/17/30 100/17/26 99/17/26
f 100/17/26 164/17/30 165/17/30
f 102/17/30 167/18/29 166/17/30
f 167/18/29 102/17/30 106/18/29
f 168/17/30 159/17/26 158/17/26
f 159/17/26 168/17/30 169/17/30
f 160/17/26 171/18/27 170/18/27
f 171/18/27 160/17/26 161/17/26
f 143/19/32 128/6/24 172/6/24
f 128/6/24 143/19/32 112/19/32
f 120/18/31 173/19/34 148/18/31
f 173/19/34 120/18/31 121/19/34
f 175/6/25 130/19/28 174/19/28
f 130/19/28 175/6/25 127/6/25
f 173/19/34 122/6/24 176/6/24
f 122/6/24 173/19/34 121/19/34
f 179/6/24 178/6/25 177/6/25
f 178/6/25 179/6/24 180/6/24
f 183/6/24 182/6/25 181/6/25
f 182/6/25 183/6/24 184/6/24
f 185/17/30 154/17/26 153/17/26
f 154/17/26 185/17/30 186/17/30
f 189/6/24 188/6/25 187/6/25
f 188/6/25 189/6/24 190/6/24
f 174/19/32 138/6/24 191/6/24
f 138/6/24 174/19/32 130/19/32
f 140/19/35 193/18/33 192/19/35
f 193/18/33 140/19/35 141/18/33
f 194/6/25 140/19/35 192/19/35
f 140/19/35 194/6/25 137/6/25
f 131/18/29 195/17/30 135/17/30
f 195/17/30 131/18/29 196/18/29
f 197/18/15 161/17/15 163/17/15
f 161/17/15 197/18/15 198/18/15
f 161/17/15 198/18/15 199/18/15
f 198/18/15 197/18/15 200/19/15
f 200/19/15 197/18/15 201/19/15
f 199/18/15 171/18/15 161/17/15
f 200/19/15 201/19/15 183/6/15
f 200/19/15 183/6/15 202/19/15
f 171/18/15 199/18/15 202/19/15
f 202/19/15 183/6/15 203/19/15
f 171/18/15 202/19/15 203/19/15
f 203/19/15 183/6/15 181/6/15
f 204/19/15 171/18/15 203/19/15
f 204/19/15 203/19/15 95/6/15
f 205/18/15 171/18/15 204/19/15
f 204/19/15 95/6/15 206/19/15
f 100/17/15 171/18/15 205/18/15
f 171/18/15 100/17/15 165/17/15
f 100/17/15 205/18/15 207/18/15
f 207/18/15 98/18/15 100/17/15
f 98/18/15 207/18/15 206/19/15
f 206/19/15 95/6/15 208/19/15
f 98/18/15 206/19/15 208/19/15
f 208/19/15 95/6/15 93/6/15
f 209/19/15 98/18/15 208/19/15
f 209/19/15 208/19/15 179/6/15
f 210/18/15 98/18/15 209/19/15
f 209/19/15 179/6/15 211/19/15
f 159/17/15 98/18/15 210/18/15
f 98/18/15 159/17/15 169/17/15
f 159/17/15 210/18/15 212/18/15
f 212/18/15 157/18/15 159/17/15
f 157/18/15 212/18/15 211/19/15
f 211/19/15 179/6/15 213/19/15
f 157/18/15 211/19/15 213/19/15
f 213/19/15 179/6/15 177/6/15
f 214/19/15 157/18/15 213/19/15
f 214/19/15 213/19/15 189/6/15
f 215/18/15 157/18/15 214/19/15
f 214/19/15 189/6/15 216/19/15
f 154/17/15 157/18/15 215/18/15
f 157/18/15 154/17/15 186/17/15
f 154/17/15 215/18/15 217/18/15
f 217/18/15 152/18/15 154/17/15
f 152/18/15 217/18/15 216/19/15
f 152/18/15 216/19/15 218/19/15
f 216/19/15 189/6/15 218/19/15
f 218/19/15 189/6/15 187/6/15
f 201/19/34 184/6/24 183/6/24
f 184/6/24 201/19/34 219/19/34
f 181/6/25 220/19/28 203/19/28
f 220/19/28 181/6/25 182/6/25
f 221/18/31 163/17/30 162/17/30
f 163/17/30 221/18/31 197/18/31
f 93/6/25 222/19/28 208/19/28
f 222/19/28 93/6/25 94/6/25
f 223/19/35 152/18/33 218/19/35
f 152/18/33 223/19/35 151/18/33
f 187/6/25 223/19/35 218/19/35
f 223/19/35 187/6/25 188/6/25
f 156/18/29 186/17/30 185/17/30
f 186/17/30 156/18/29 157/18/29
f 97/18/29 169/17/30 168/17/30
f 169/17/30 97/18/29 98/18/29
f 220/19/32 95/6/24 203/19/32
f 95/6/24 220/19/32 96/6/24
f 164/17/30 171/18/29 165/17/30
f 171/18/29 164/17/30 170/18/29
f 221/18/31 201/19/34 197/18/31
f 201/19/34 221/18/31 219/19/34
f 213/19/32 190/6/24 189/6/24
f 190/6/24 213/19/32 224/19/32
f 208/19/32 180/6/24 179/6/24
f 180/6/24 208/19/32 222/19/32
f 177/6/25 224/19/28 213/19/28
f 224/19/28 177/6/25 178/6/25
f 150/6/24 109/6/25 144/6/25
f 109/6/25 150/6/24 111/6/24
f 117/17/30 225/17/26 118/17/26
f 225/17/26 117/17/30 147/17/30
f 172/6/24 127/6/25 175/6/25
f 127/6/25 172/6/24 128/6/24
f 135/17/30 226/17/26 142/17/26
f 226/17/26 135/17/30 195/17/30
f 132/17/26 196/18/27 131/18/27
f 196/18/27 132/17/26 227/17/26
f 142/17/26 193/18/33 141/18/33
f 193/18/33 142/17/26 226/17/26
f 191/6/24 137/6/25 194/6/25
f 137/6/25 191/6/24 138/6/24
f 176/6/24 114/6/25 155/6/25
f 114/6/25 176/6/24 122/6/24
f 125/17/30 227/17/26 132/17/26
f 227/17/26 125/17/30 145/17/30
f 118/17/26 167/18/27 106/18/27
f 167/18/27 118/17/26 225/17/26
f 102/17/30 228/17/26 101/17/26
f 228/17/26 102/17/30 166/17/30
f 101/17/26 146/18/27 103/18/27
f 146/18/27 101/17/26 228/17/26
f 148/12/31 162/3/30 147/3/30
f 162/3/30 148/12/31 221/12/31
f 228/3/26 97/12/27 146/12/27
f 97/12/27 228/3/26 99/3/26
f 94/10/25 143/11/28 222/11/28
f 143/11/28 94/10/25 144/10/25
f 225/3/26 170/12/27 167/12/27
f 170/12/27 225/3/26 160/3/26
f 96/10/24 144/10/25 94/10/25
f 144/10/25 96/10/24 150/10/24
f 180/10/24 175/10/25 178/10/25
f 175/10/25 180/10/24 172/10/24
f 166/3/30 170/12/29 164/3/30
f 170/12/29 166/3/30 167/12/29
f 188/10/25 192/11/35 223/11/35
f 192/11/35 188/10/25 194/10/25
f 149/11/32 96/10/24 220/11/32
f 96/10/24 149/11/32 150/10/24
f 224/11/32 191/10/24 190/10/24
f 191/10/24 224/11/32 174/11/32
f 182/10/25 149/11/28 220/11/28
f 149/11/28 182/10/25 155/10/25
f 148/12/31 219/11/34 221/12/31
f 219/11/34 148/12/31 173/11/34
f 166/3/30 99/3/26 228/3/26
f 99/3/26 166/3/30 164/3/30
f 195/3/30 153/3/26 226/3/26
f 153/3/26 195/3/30 185/3/30
f 226/3/26 151/12/33 193/12/33
f 151/12/33 226/3/26 153/3/26
f 145/3/30 158/3/26 227/3/26
f 158/3/26 145/3/30 168/3/30
f 196/12/29 185/3/30 195/3/30
f 185/3/30 196/12/29 156/12/29
f 219/11/34 176/10/24 184/10/24
f 176/10/24 219/11/34 173/11/34
f 147/3/30 160/3/26 225/3/26
f 160/3/26 147/3/30 162/3/30
f 184/10/24 155/10/25 182/10/25
f 155/10/25 184/10/24 176/10/24
f 190/10/24 194/10/25 188/10/25
f 194/10/25 190/10/24 191/10/24
f 192/11/35 151/12/33 223/11/35
f 151/12/33 192/11/35 193/12/33
f 146/12/29 168/3/30 145/3/30
f 168/3/30 146/12/29 97/12/29
f 227/3/26 156/12/27 196/12/27
f 156/12/27 227/3/26 158/3/26
f 178/10/25 174/11/28 224/11/28
f 174/11/28 178/10/25 175/10/25
f 222/11/32 172/10/24 180/10/24
f 172/10/24 222/11/32 143/11/32
f 139/20/13 134/21/13 136/21/13
f 134/21/13 139/20/13 133/20/13
f 113/20/13 119/21/13 115/21/13
f 119/21/13 113/20/13 116/20/13
f 129/20/13 124/21/13 126/21/13
f 124/21/13 129/20/13 123/20/13
f 107/20/13 105/21/13 104/21/13
f 105/21/13 107/20/13 108/20/13
f 205/21/15 206/20/15 207/21/15
f 206/20/15 205/21/15 204/20/15
f 215/21/15 216/20/15 217/21/15
f 216/20/15 215/21/15 214/20/15
f 210/21/15 211/20/15 212/21/15
f 211/20/15 210/21/15 209/20/15
f 198/21/15 202/20/15 199/21/15
f 202/20/15 198/21/15 200/20/15
