# Blender 4.3.2
# www.blender.org
mtllib floorFull.mtl
o floorFull
v 0.000000 0.000000 -0.050000
v 0.000000 0.000000 0.000000
v 0.000000 1.000000 -0.050000
v 0.000000 1.000000 0.000000
v -1.000000 0.000000 -0.050000
v -1.000000 1.000000 -0.050000
v -1.000000 1.000000 0.000000
v -1.000000 0.000000 0.000000
vn 0.5773 -0.5773 0.5774
vn 0.5774 -0.5774 -0.5774
vn 0.5773 0.5773 -0.5774
vn 0.5774 0.5774 0.5774
vn -0.5773 -0.5773 -0.5774
vn -0.5774 0.5774 -0.5774
vn -0.5773 0.5773 0.5774
vn -0.5774 -0.5774 0.5774
vt 0.000000 0.000000
vt 0.000000 1.968504
vt -39.370079 1.968504
vt -39.370079 0.000000
vt 0.000000 39.370079
vt 39.370079 0.000000
vt 39.370079 39.370079
vt -39.370079 39.370079
vt 39.370079 1.968504
s 1
usemtl wood
f 2/1/1 1/2/2 3/3/3
f 3/3/3 4/4/4 2/1/1
f 3/5/3 1/1/2 5/6/5
f 5/6/5 6/7/6 3/5/3
f 2/1/1 4/5/4 7/8/7
f 7/8/7 8/4/8 2/1/1
f 7/4/7 4/1/4 3/2/3
f 3/2/3 6/3/6 7/4/7
f 2/1/1 8/6/8 5/9/5
f 5/9/5 1/2/2 2/1/1
f 5/2/5 8/1/8 7/6/7
f 7/6/7 6/9/6 5/2/5
