# Blender 4.3.2
# www.blender.org
mtllib paprika.mtl
o paprika.007
v -0.021736 0.021736 -0.147099
v 0.000000 0.046611 -0.161689
v -0.046611 0.046611 -0.161689
v 0.021736 0.021736 -0.147099
v 0.046611 0.046611 -0.161689
v 0.046611 -0.046611 -0.161689
v 0.046611 -0.000000 -0.161689
v 0.021736 -0.021736 -0.147099
v -0.046611 0.000000 -0.161689
v -0.021736 -0.021736 -0.147099
v -0.046611 -0.046611 -0.161689
v -0.000000 -0.046611 -0.161689
v 0.070792 -0.028862 -0.045143
v 0.083666 -0.028862 -0.107124
v 0.044548 -0.044548 -0.054214
v 0.049365 -0.049365 -0.118980
v -0.053134 0.024244 -0.000000
v -0.070792 0.028862 -0.045143
v -0.035052 0.035052 -0.006250
v -0.044548 0.044548 -0.054214
v -0.070792 -0.028862 -0.045143
v -0.053134 -0.024244 -0.000000
v -0.024244 0.084032 -0.148754
v -0.049365 0.049365 -0.118980
v -0.028862 0.083666 -0.107124
v 0.053134 0.024244 0.000000
v 0.053134 -0.024244 0.000000
v 0.035052 0.035052 -0.006250
v 0.035052 -0.035052 -0.006250
v 0.012573 -0.012573 -0.014020
v 0.012573 0.012573 -0.014020
v -0.083666 0.028862 -0.107124
v 0.024244 0.053134 -0.000000
v 0.044548 0.044548 -0.054214
v 0.028862 0.070792 -0.045143
v 0.028862 0.083666 -0.107124
v 0.024244 0.084032 -0.148754
v -0.024244 0.053134 -0.000000
v -0.028862 0.070792 -0.045143
v -0.084032 0.024244 -0.148754
v 0.070792 0.028862 -0.045143
v 0.083666 0.028862 -0.107124
v 0.049365 0.049365 -0.118980
v 0.024244 -0.084032 -0.148754
v 0.028862 -0.083666 -0.107124
v 0.084032 0.024244 -0.148754
v -0.044548 -0.044548 -0.054214
v -0.083666 -0.028862 -0.107124
v -0.049365 -0.049365 -0.118980
v 0.024244 -0.053134 -0.000000
v -0.024244 -0.053134 -0.000000
v -0.012573 -0.012573 -0.014020
v -0.035052 -0.035052 -0.006250
v -0.028862 -0.083666 -0.107124
v -0.028862 -0.070792 -0.045143
v -0.012573 0.012573 -0.014020
v -0.084032 -0.024244 -0.148754
v -0.024244 -0.084032 -0.148754
v 0.084032 -0.024244 -0.148754
v 0.028862 -0.070792 -0.045143
v -0.021736 -0.021736 -0.147099
v -0.021736 0.021736 -0.147099
v 0.021736 0.021736 -0.147099
v 0.000000 0.046611 -0.161689
v 0.012824 -0.012824 -0.162774
v 0.007181 -0.007181 -0.199349
v -0.012824 -0.012824 -0.162774
v -0.007181 -0.007181 -0.199349
v 0.012824 0.012824 -0.162774
v -0.012824 0.012824 -0.162774
v 0.007181 0.007181 -0.199349
v -0.007181 0.007181 -0.199349
vn 0.3368 0.3822 -0.8605
vn -0.0000 0.0198 -0.9998
vn 0.4574 -0.4574 -0.7626
vn -0.1185 -0.1185 -0.9859
vn -0.4574 -0.4574 -0.7626
vn 0.0346 0.0971 -0.9947
vn -0.0987 -0.0000 -0.9951
vn -0.1384 0.1384 -0.9807
vn -0.3781 0.3637 -0.8513
vn -0.0198 -0.0000 -0.9998
vn 0.4574 0.4574 -0.7626
vn -0.0000 0.0987 -0.9951
vn 0.7338 -0.6702 0.1116
vn 0.6285 -0.4295 0.6485
vn 0.3678 -0.9233 0.1104
vn 0.7679 -0.6403 0.0166
vn -0.3798 0.5692 0.7292
vn -0.4802 0.3339 0.8111
vn -0.7451 0.6382 0.1936
vn -0.6508 0.7566 -0.0638
vn -0.7337 -0.0302 -0.6788
vn -0.3669 0.7618 -0.5338
vn 0.3891 0.1734 0.9047
vn 0.4589 0.0397 0.8876
vn 0.0683 0.6444 0.7617
vn 0.3192 -0.2081 0.9246
vn 0.0159 -0.0159 0.9997
vn 0.0626 -0.2121 0.9752
vn 0.6657 0.7043 0.2465
vn 0.6382 0.0792 0.7658
vn 0.3737 0.4826 0.7921
vn -0.3740 0.9269 0.0314
vn 0.3668 0.7616 -0.5342
vn 0.0455 0.4587 0.8874
vn -0.7794 0.4608 0.4245
vn -0.4185 0.9012 -0.1124
vn -0.9236 0.3672 0.1102
vn 0.3666 -0.7614 -0.5346
vn 0.7325 0.0166 -0.6806
vn 0.2713 0.9624 -0.0151
vn 0.7661 0.6425 0.0157
vn 0.7587 0.3645 -0.5399
vn -0.5061 -0.6472 0.5701
vn -0.7451 -0.6382 0.1936
vn -0.8275 -0.4329 -0.3576
vn 0.6607 -0.0385 0.7497
vn -0.3566 -0.0677 0.9318
vn -0.0214 -0.0214 0.9995
vn -0.2308 -0.4476 0.8640
vn -0.3077 -0.9505 -0.0436
vn -0.7679 -0.6403 0.0166
vn -0.6957 -0.5650 -0.4436
vn -0.4640 -0.7912 0.3984
vn 0.3178 -0.1198 0.9405
vn 0.3843 0.5696 0.7265
vn 0.3077 -0.9505 -0.0436
vn -0.4589 0.0350 0.8878
vn -0.0112 -0.6748 0.7379
vn 0.9236 -0.3672 0.1102
vn -0.4314 -0.8260 -0.3629
vn 0.1790 0.1790 -0.9674
vn -0.5030 -0.5744 -0.6458
vn 0.5333 -0.5333 -0.6567
vn 0.4436 -0.7101 -0.5468
vn -0.1790 0.1790 -0.9674
vn 0.4435 0.7101 -0.5469
vn -0.6777 0.6777 -0.2855
vn -0.1790 -0.1790 -0.9674
vn -0.5333 -0.5332 -0.6567
vn -0.5333 0.5333 -0.6567
vn 0.5332 0.5333 -0.6567
vn 0.5059 -0.0000 -0.8626
vn -0.0000 -0.5059 -0.8626
vt 0.968750 0.475000
vt 0.968750 0.456953
vt 0.968750 0.342060
vt 0.968750 0.407506
vt 0.968750 0.330840
vt 0.968750 0.422172
vt 0.968750 0.282731
vt 0.968750 0.459000
vt 0.968750 0.275000
vt 0.968750 0.292342
vt 0.593750 0.275000
vt 0.593750 0.330845
vt 0.593750 0.335000
vt 0.593750 0.475000
s 1
usemtl colormap.036
f 3/1/1 2/1/2 1/2/3
f 2/1/2 5/1/4 4/2/5
f 8/2/6 7/1/7 6/1/8
f 4/2/5 5/1/4 7/1/7
f 11/1/9 9/1/10 10/2/11
f 11/1/9 10/2/11 12/1/12
f 12/1/12 8/2/6 6/1/8
f 15/3/13 14/4/14 13/5/15
f 14/4/14 15/3/13 16/6/16
f 18/5/17 19/7/18 20/3/19
f 24/6/20 23/8/21 3/1/1
f 23/8/21 24/6/20 25/4/22
f 28/7/23 27/9/24 26/9/25
f 27/9/24 28/7/23 29/7/26
f 29/7/26 28/7/23 30/10/27
f 30/10/27 28/7/23 31/10/28
f 34/3/29 33/9/30 28/7/23
f 33/9/30 34/3/29 35/5/31
f 37/8/32 25/4/22 36/4/33
f 25/4/22 37/8/32 23/8/21
f 35/5/31 38/9/34 33/9/30
f 24/6/20 40/8/35 32/4/36
f 40/8/35 24/6/20 3/1/1
f 20/3/19 38/9/34 39/5/37
f 6/1/8 45/4/38 44/8/39
f 45/4/38 6/1/8 16/6/16
f 46/8/40 43/6/41 42/4/42
f 43/6/41 46/8/40 5/1/4
f 48/4/43 47/3/44 21/5/45
f 29/7/26 13/5/15 27/9/24
f 13/5/15 29/7/26 15/3/13
f 30/10/27 50/9/46 29/7/26
f 51/9/47 52/10/48 53/7/49
f 37/8/32 43/6/41 5/1/4
f 43/6/41 37/8/32 36/4/33
f 57/8/50 49/6/51 48/4/43
f 49/6/51 57/8/50 11/1/9
f 53/7/49 21/5/45 47/3/44
f 54/4/52 11/1/9 58/8/53
f 11/1/9 54/4/52 49/6/51
f 31/10/28 38/9/34 56/10/54
f 41/5/55 28/7/23 26/9/25
f 28/7/23 41/5/55 34/3/29
f 36/4/33 39/5/37 35/5/31
f 59/8/56 16/6/16 6/1/8
f 39/5/37 24/6/20 20/3/19
f 24/6/20 39/5/37 25/4/22
f 52/10/48 19/7/18 53/7/49
f 53/7/49 17/9/57 22/9/58
f 9/1/10 40/8/35 3/1/1
f 6/1/8 46/8/40 59/8/56
f 58/8/53 45/4/38 54/4/52
f 45/4/38 58/8/53 44/8/39
f 41/5/55 27/9/24 13/5/15
f 15/3/13 50/9/46 60/5/59
f 54/4/52 60/5/59 55/5/60
f 59/8/56 42/4/42 14/4/14
f 42/4/42 59/8/56 46/8/40
f 16/6/16 60/5/59 45/4/38
f 60/5/59 16/6/16 15/3/13
f 43/6/41 35/5/31 34/3/29
f 55/5/60 50/9/46 51/9/47
f 50/9/46 55/5/60 60/5/59
f 63/11/61 7/12/7 8/11/6
f 67/13/62 66/14/63 65/13/64
f 62/11/65 69/13/66 70/13/67
f 65/13/64 61/11/68 67/13/62
f 66/14/63 69/13/66 65/13/64
f 70/13/67 68/14/69 67/13/62
f 68/14/69 70/13/67 72/14/70
f 68/14/69 71/14/71 66/14/63
f 71/14/71 68/14/69 72/14/70
f 65/13/64 63/11/61 8/11/6
f 63/11/61 65/13/64 69/13/66
f 71/14/71 70/13/67 69/13/66
f 62/11/65 67/13/62 61/11/68
f 67/13/62 62/11/65 70/13/67
f 9/1/10 3/1/1 1/2/3
f 19/7/18 18/5/17 17/9/57
f 22/9/58 18/5/17 21/5/45
f 18/5/17 22/9/58 17/9/57
f 20/3/19 32/4/36 18/5/17
f 32/4/36 20/3/19 24/6/20
f 38/9/34 35/5/31 39/5/37
f 42/4/42 34/3/29 41/5/55
f 34/3/29 42/4/42 43/6/41
f 38/9/34 20/3/19 19/7/18
f 47/3/44 48/4/43 49/6/51
f 50/9/46 30/10/27 51/9/47
f 51/9/47 30/10/27 52/10/48
f 55/5/60 49/6/51 54/4/52
f 49/6/51 55/5/60 47/3/44
f 51/9/47 47/3/44 55/5/60
f 47/3/44 51/9/47 53/7/49
f 56/10/54 30/10/27 31/10/28
f 30/10/27 56/10/54 52/10/48
f 32/4/36 57/8/50 48/4/43
f 57/8/50 32/4/36 40/8/35
f 21/5/45 53/7/49 22/9/58
f 33/9/30 31/10/28 28/7/23
f 31/10/28 33/9/30 38/9/34
f 56/10/54 38/9/34 19/7/18
f 18/5/17 48/4/43 21/5/45
f 48/4/43 18/5/17 32/4/36
f 39/5/37 36/4/33 25/4/22
f 16/6/16 59/8/56 14/4/14
f 19/7/18 52/10/48 56/10/54
f 53/7/49 19/7/18 17/9/57
f 40/8/35 9/1/10 11/1/9
f 40/8/35 11/1/9 57/8/50
f 2/1/2 37/8/32 5/1/4
f 37/8/32 2/1/2 23/8/21
f 23/8/21 2/1/2 3/1/1
f 46/8/40 6/1/8 7/1/7
f 46/8/40 7/1/7 5/1/4
f 27/9/24 41/5/55 26/9/25
f 50/9/46 15/3/13 29/7/26
f 60/5/59 54/4/52 45/4/38
f 35/5/31 43/6/41 36/4/33
f 44/8/39 12/1/12 6/1/8
f 12/1/12 44/8/39 58/8/53
f 12/1/12 58/8/53 11/1/9
f 42/4/42 13/5/15 14/4/14
f 13/5/15 42/4/42 41/5/55
f 61/11/68 8/11/6 12/12/12
f 9/12/72 62/11/65 61/11/68
f 62/11/65 64/12/73 63/11/61
f 66/14/63 67/13/62 68/14/69
f 69/13/66 62/11/65 63/11/61
f 61/11/68 65/13/64 8/11/6
f 69/13/66 66/14/63 71/14/71
f 70/13/67 71/14/71 72/14/70
