# Blender 4.3.2
# www.blender.org
mtllib conveyor.mtl
o conveyor.002
v -0.400000 0.500000 0.000000
v -0.500000 0.500000 -0.100000
v 0.400000 0.500000 -0.000000
v -0.358579 0.500000 -0.100000
v 0.500000 0.500000 -0.100000
v -0.400000 0.500000 -0.141421
v 0.358579 0.500000 -0.100000
v 0.400000 0.500000 -0.141421
v -0.500000 0.500000 -0.300000
v 0.500000 0.500000 -0.300000
v -0.400000 0.500000 -0.258579
v -0.358579 0.500000 -0.300000
v 0.400000 0.500000 -0.258579
v 0.358579 0.500000 -0.300000
v -0.400000 0.500000 -0.400000
v 0.400000 0.500000 -0.400000
v 0.400000 -0.500000 -0.400000
v 0.500000 -0.500000 -0.300000
v -0.400000 -0.500000 0.000000
v 0.400000 -0.500000 -0.000000
v -0.500000 -0.500000 -0.100000
v -0.358579 -0.500000 -0.100000
v 0.500000 -0.500000 -0.100000
v -0.400000 -0.500000 -0.141421
v 0.358579 -0.500000 -0.100000
v 0.400000 -0.500000 -0.141421
v -0.500000 -0.500000 -0.300000
v -0.400000 -0.500000 -0.258579
v -0.358579 -0.500000 -0.300000
v 0.400000 -0.500000 -0.258579
v 0.358579 -0.500000 -0.300000
v -0.400000 -0.500000 -0.400000
v -0.358579 -0.400000 -0.100000
v 0.358579 -0.400000 -0.100000
v -0.400000 -0.400000 -0.141421
v 0.400000 -0.400000 -0.141421
v -0.400000 -0.400000 -0.258579
v 0.400000 -0.400000 -0.258579
v -0.358579 -0.400000 -0.300000
v 0.358579 -0.400000 -0.300000
v -0.358579 0.400000 -0.100000
v -0.400000 0.400000 -0.141421
v 0.358579 0.400000 -0.100000
v 0.400000 0.400000 -0.141421
v -0.400000 0.400000 -0.258579
v 0.400000 0.400000 -0.258579
v -0.358579 0.400000 -0.300000
v 0.358579 0.400000 -0.300000
vn 0.1037 0.6681 0.7368
vn -0.5760 0.6587 0.4841
vn 0.1224 0.6551 0.7456
vn 0.2731 0.6975 -0.6625
vn 0.4997 0.7835 0.3694
vn 0.4884 0.8725 -0.0122
vn -0.0000 1.0000 -0.0000
vn -0.5330 0.7653 -0.3608
vn -0.3628 0.8659 -0.3443
vn 0.6809 0.7232 -0.1155
vn 0.3397 0.8484 0.4059
vn -0.4245 0.7245 0.5430
vn -0.4555 0.6565 -0.6013
vn -0.1224 0.6551 -0.7456
vn 0.5954 -0.6571 -0.4623
vn 0.3596 -0.3417 -0.8683
vn 0.0059 -0.6771 0.7358
vn -0.5342 -0.7647 0.3605
vn 0.4516 -0.7368 -0.5031
vn -0.0000 -1.0000 -0.0000
vn 0.4994 -0.7836 0.3694
vn -0.4754 -0.0282 -0.8793
vn -0.4884 -0.8725 -0.0122
vn 0.3628 -0.8659 -0.3443
vn -0.5328 -0.7654 -0.3608
vn -0.2818 -0.9500 0.1347
vn -0.4163 -0.7542 0.5078
vn -0.0059 -0.6771 -0.7358
vn -0.3596 -0.3417 0.8683
vn 0.7624 -0.6198 -0.1857
vn -0.4671 -0.5836 -0.6642
vn 0.4470 -0.5143 -0.7319
vn -0.7947 -0.5397 -0.2778
vn 0.7493 -0.5449 0.3763
vn 0.2479 -0.7619 0.5984
vn 0.4754 -0.0282 0.8793
vn -0.1946 -0.7647 0.6143
vn -0.6595 -0.6510 0.3758
vn 0.5422 -0.6843 0.4875
vn 0.0792 0.3072 0.9483
vn 0.7105 0.6781 0.1883
vn 0.1601 0.6236 0.7652
vn 0.6320 0.7178 -0.2922
vn 0.1113 0.5735 -0.8116
vn -0.0792 0.3072 -0.9483
vn -0.2940 0.7325 -0.6140
vn -0.6369 0.7170 -0.2833
vn -0.6763 0.6024 0.4240
vn -0.3454 0.9119 0.2214
vn -0.4946 0.5664 0.6592
vt 0.093750 0.025000
vt 0.093750 0.075000
vt 0.093750 0.095711
vt 0.093750 0.175000
vt 0.093750 0.154289
vt 0.093750 0.225000
vt 0.218750 0.095711
vt 0.218750 0.075000
vt 0.218750 0.154289
vt 0.218750 0.175000
s 1
usemtl colormap.019
f 3/1/1 2/2/2 1/1/3
f 2/2/2 3/1/1 4/2/4
f 5/2/5 4/2/4 3/1/1
f 2/2/2 4/2/4 6/3/6
s 0
f 4/2/7 5/2/7 7/2/7
s 1
f 2/2/2 6/3/6 9/4/8
f 8/3/9 5/2/5 10/4/10
f 9/4/8 6/3/6 11/5/11
f 9/4/8 14/4/12 15/6/13
f 15/6/13 14/4/12 10/4/10
f 15/6/13 10/4/10 16/6/14
f 16/6/14 18/4/15 17/6/16
f 18/4/15 16/6/14 10/4/10
f 20/1/17 21/2/18 22/2/19
s 0
f 23/2/20 22/2/20 25/2/20
s 1
f 23/2/21 25/2/22 26/3/23
f 24/3/24 21/2/18 27/4/25
f 23/2/21 26/3/23 18/4/15
f 18/4/15 26/3/23 30/5/26
f 18/4/15 30/5/26 31/4/27
f 31/4/27 32/6/28 18/4/15
f 18/4/15 32/6/28 17/6/16
f 1/1/3 21/2/18 19/1/29
f 21/2/18 1/1/3 2/2/2
f 9/4/8 32/6/28 27/4/25
f 1/1/3 20/1/17 3/1/1
f 20/1/17 1/1/3 19/1/29
f 2/2/2 27/4/25 21/2/18
f 27/4/25 2/2/2 9/4/8
f 35/7/30 34/8/31 33/8/32
f 34/8/31 35/7/30 36/7/33
f 36/7/33 35/7/30 37/9/34
f 31/10/27 39/10/35 29/10/36
f 30/9/26 40/10/37 31/10/27
f 36/7/33 30/9/26 26/7/23
f 30/9/26 36/7/33 38/9/38
f 34/8/31 26/7/23 25/8/22
f 22/8/19 34/8/31 25/8/22
f 34/8/31 22/8/19 33/8/32
f 35/7/30 22/8/19 24/7/24
f 37/9/34 24/7/24 28/9/39
f 12/10/40 45/9/41 47/10/42
f 45/9/41 12/10/40 11/9/11
f 42/7/43 11/9/11 6/7/6
f 6/7/6 41/8/44 42/7/43
f 41/8/44 6/7/6 4/8/4
f 41/8/44 7/8/45 43/8/46
f 44/7/47 7/8/45 8/7/9
f 8/7/9 46/9/48 44/7/47
f 7/2/45 5/2/5 8/3/9
f 9/4/8 11/5/11 12/4/40
f 8/3/9 10/4/10 13/5/49
s 0
f 9/4/7 12/4/7 14/4/7
s 1
f 13/5/49 10/4/10 14/4/12
f 21/2/18 20/1/17 19/1/29
f 22/2/19 23/2/21 20/1/17
f 22/2/19 21/2/18 24/3/24
f 24/3/24 27/4/25 28/5/39
f 28/5/39 27/4/25 29/4/36
s 0
f 29/4/20 27/4/20 31/4/20
s 1
f 31/4/27 27/4/25 32/6/28
f 32/6/28 9/4/8 15/6/13
f 5/2/5 20/1/17 23/2/21
f 20/1/17 5/2/5 3/1/1
f 10/4/10 23/2/21 18/4/15
f 23/2/21 10/4/10 5/2/5
f 32/6/28 16/6/14 17/6/16
f 16/6/14 32/6/28 15/6/13
f 36/7/33 37/9/34 38/9/38
f 38/9/38 37/9/34 39/10/35
f 38/9/38 39/10/35 40/10/37
f 39/10/35 28/9/39 29/10/36
f 28/9/39 39/10/35 37/9/34
f 39/10/35 31/10/27 40/10/37
f 40/10/37 30/9/26 38/9/38
f 26/7/23 34/8/31 36/7/33
f 22/8/19 35/7/30 33/8/32
f 24/7/24 37/9/34 35/7/30
f 43/8/46 42/7/43 41/8/44
f 42/7/43 43/8/46 44/7/47
f 42/7/43 44/7/47 45/9/41
f 45/9/41 44/7/47 46/9/48
f 45/9/41 46/9/48 47/10/42
f 47/10/42 46/9/48 48/10/50
f 14/10/12 46/9/48 13/9/49
f 46/9/48 14/10/12 48/10/50
f 12/10/40 48/10/50 14/10/12
f 48/10/50 12/10/40 47/10/42
f 11/9/11 42/7/43 45/9/41
f 7/8/45 41/8/44 4/8/4
f 7/8/45 44/7/47 43/8/46
f 46/9/48 8/7/9 13/9/49
