# Blender 4.3.2
# www.blender.org
mtllib scanner-high.mtl
o scanner-high.001
v 0.150000 0.800000 -0.000000
v 0.150000 0.700000 -0.000000
v -0.150000 0.800000 -0.000000
v -0.150000 0.700000 -0.000000
v -0.350000 0.600000 0.000000
v -0.350000 0.700000 0.000000
v 0.350000 0.700000 -0.000000
v 0.350000 0.600000 -0.000000
v 0.350000 -0.600000 -0.000000
v 0.350000 -0.700000 -0.000000
v -0.350000 -0.600000 -0.000000
v 0.150000 -0.700000 -0.000000
v -0.150000 -0.700000 -0.000000
v -0.350000 -0.700000 -0.000000
v -0.150000 -0.800000 -0.000000
v 0.150000 -0.800000 -0.000000
v 0.150000 -0.676537 -1.184776
v -0.150000 -0.676537 -1.184776
v 0.150000 -0.741421 -1.141421
v -0.150000 -0.741421 -1.141421
v -0.150000 -0.800000 -1.000000
v 0.150000 -0.800000 -1.000000
v -0.150000 -0.784776 -1.076537
v 0.150000 -0.784776 -1.076537
v 0.150000 -0.600000 -1.200000
v -0.150000 -0.600000 -1.200000
v 0.150000 0.700000 -0.300000
v 0.150000 0.741421 -1.141421
v 0.150000 0.784776 -1.076537
v 0.150000 0.800000 -1.000000
v 0.150000 0.676537 -1.184776
v 0.150000 0.600000 -0.300000
v 0.150000 0.600000 -1.000000
v 0.150000 0.600000 -1.200000
v 0.150000 -0.600000 -1.000000
v 0.150000 -0.600000 -0.300000
v 0.150000 -0.700000 -0.300000
v -0.150000 0.600000 -1.200000
v -0.150000 -0.700000 -0.300000
v -0.150000 -0.600000 -0.300000
v -0.150000 -0.600000 -1.000000
v -0.150000 0.600000 -1.000000
v -0.150000 0.676537 -1.184776
v -0.150000 0.700000 -0.300000
v -0.150000 0.600000 -0.300000
v -0.150000 0.741421 -1.141421
v -0.150000 0.784776 -1.076537
v -0.150000 0.800000 -1.000000
v -0.350000 0.600000 -0.200000
v 0.350000 0.600000 -0.200000
v 0.350000 -0.600000 -0.200000
v -0.350000 -0.600000 -0.200000
v -0.350000 0.700000 -0.200000
v 0.350000 0.700000 -0.200000
v 0.350000 -0.700000 -0.200000
v -0.350000 -0.700000 -0.200000
vn -0.5773 0.5774 0.5774
vn 0.3015 0.3015 0.9045
vn 0.5773 0.5774 0.5774
vn -0.3015 0.3015 0.9045
vn -0.5774 -0.5774 0.5773
vn 0.5773 0.5774 0.5773
vn 0.5773 -0.5773 0.5774
vn -0.5774 0.5774 0.5773
vn 0.5773 -0.5774 0.5774
vn 0.5774 0.5774 0.5774
vn 0.3015 -0.3015 0.9045
vn -0.3015 -0.3015 0.9045
vn -0.5773 -0.5774 0.5773
vn 0.5774 -0.5773 0.5774
vn 0.5535 -0.5523 -0.6234
vn -0.5750 -0.3131 -0.7559
vn 0.6726 -0.3857 -0.6316
vn -0.6722 -0.4486 -0.5890
vn 0.6193 -0.7776 -0.1085
vn -0.5293 -0.7838 -0.3247
vn 0.6720 -0.7146 -0.1943
vn -0.6222 -0.0767 -0.7791
vn 0.6874 -0.1328 -0.7140
vn -0.6766 -0.7363 -0.0043
vn 0.9495 0.1941 -0.2464
vn 0.7007 0.5613 -0.4405
vn 0.6729 0.7260 -0.1419
vn 0.6872 0.7260 0.0262
vn 0.9045 -0.3015 0.3015
vn 0.7392 0.3029 -0.6015
vn 0.4529 -0.8465 -0.2799
vn 0.6875 0.1410 -0.7124
vn 0.9045 0.3015 0.3015
vn 0.4529 0.8465 -0.2799
vn 0.9495 -0.1941 -0.2464
vn -0.9495 -0.1941 -0.2464
vn -0.4529 0.8465 -0.2799
vn -0.9045 -0.3015 0.3015
vn -0.9495 0.1941 -0.2464
vn -0.7589 0.2492 -0.6017
vn -0.6873 0.1194 -0.7165
vn -0.3646 -0.8341 -0.4139
vn 0.7442 -0.6660 -0.0502
vn -0.4529 -0.8465 -0.2799
vn -0.8356 0.1872 -0.5164
vn 0.7389 0.6613 0.1296
vn 0.8430 0.5323 -0.0768
vn 0.8472 -0.0904 -0.5236
vn -0.7389 -0.6613 0.1296
vn -0.8200 0.2661 -0.5068
vn -0.9045 0.3015 0.3015
vn -0.6729 0.4084 -0.6168
vn -0.6729 0.6137 -0.4130
vn -0.6874 0.7110 -0.1480
vt 0.218750 0.025000
vt 0.218750 0.215237
vt 0.218750 0.222463
vt 0.218750 0.191667
vt 0.218750 0.204423
vt 0.218750 0.225000
vt 0.218750 0.075000
vt 0.343750 0.058333
vt 0.343750 0.025000
vt 0.343750 0.075000
vt 0.343750 0.191667
s 1
usemtl colormap.009
f 3/1/1 2/1/2 1/1/3
f 4/1/4 2/1/2 3/1/1
f 5/1/5 2/1/2 4/1/4
f 5/1/5 4/1/4 6/1/1
f 5/1/5 7/1/6 2/1/2
f 7/1/6 5/1/5 8/1/7
f 11/1/8 10/1/9 9/1/10
f 10/1/9 11/1/8 12/1/11
f 12/1/11 11/1/8 13/1/12
f 13/1/12 11/1/8 14/1/13
f 12/1/11 15/1/5 16/1/14
f 19/2/15 18/3/16 17/3/17
f 18/3/16 19/2/15 20/2/18
f 22/4/19 23/5/20 24/5/21
f 17/3/17 26/6/22 25/6/23
f 26/6/22 17/3/17 18/3/16
f 21/4/24 16/1/14 15/1/5
f 16/1/14 21/4/24 22/4/19
f 1/1/3 27/7/25 28/2/26
f 1/1/3 29/5/27 30/4/28
f 33/4/29 31/3/30 32/7/31
f 33/4/29 34/6/32 31/3/30
f 34/6/32 35/4/33 25/6/23
f 35/4/33 17/3/17 25/6/23
f 36/7/34 17/3/17 35/4/33
f 37/7/35 17/3/17 36/7/34
f 12/1/11 24/5/21 19/2/15
f 26/6/22 34/6/32 25/6/23
f 23/5/20 13/1/12 20/2/18
f 20/2/18 13/1/12 39/7/36
f 20/2/18 39/7/36 18/3/16
f 18/3/16 39/7/36 40/7/37
f 42/4/38 44/7/39 43/3/40
f 43/3/40 34/6/32 38/6/41
f 49/8/42 8/9/7 5/9/5
f 8/9/7 49/8/42 50/8/43
f 50/8/43 45/10/44 32/10/31
f 32/10/31 42/11/38 33/11/29
f 40/10/37 36/10/34 35/11/33
f 49/8/42 6/9/1 53/8/45
f 4/9/4 53/8/45 6/9/1
f 8/9/7 54/8/46 7/9/6
f 27/10/25 7/9/6 54/8/46
f 50/8/43 27/10/25 54/8/46
f 27/10/25 50/8/43 32/10/31
f 51/8/47 10/9/9 55/8/48
f 10/9/9 37/10/35 55/8/48
f 11/9/8 56/8/49 14/9/13
f 56/8/49 11/9/8 52/8/50
f 14/9/13 39/10/36 13/9/12
f 39/10/36 14/9/13 56/8/49
f 33/11/29 41/11/51 35/11/33
f 41/11/51 33/11/29 42/11/38
f 15/1/5 12/1/11 13/1/12
f 23/5/20 22/4/19 21/4/24
f 23/5/20 19/2/15 24/5/21
f 19/2/15 23/5/20 20/2/18
f 27/7/25 1/1/3 2/1/2
f 1/1/3 28/2/26 29/5/27
f 27/7/25 31/3/30 28/2/26
f 32/7/31 31/3/30 27/7/25
f 35/4/33 34/6/32 33/4/29
f 17/3/17 37/7/35 19/2/15
f 12/1/11 19/2/15 37/7/35
f 16/1/14 24/5/21 12/1/11
f 24/5/21 16/1/14 22/4/19
f 34/6/32 26/6/22 38/6/41
f 13/1/12 21/4/24 15/1/5
f 21/4/24 13/1/12 23/5/20
f 18/3/16 40/7/37 41/4/51
f 18/3/16 41/4/51 26/6/22
f 41/4/51 38/6/41 26/6/22
f 38/6/41 41/4/51 42/4/38
f 38/6/41 42/4/38 43/3/40
f 44/7/39 42/4/38 45/7/44
f 43/3/40 44/7/39 46/2/52
f 44/7/39 3/1/1 46/2/52
f 3/1/1 44/7/39 4/1/4
f 46/2/52 3/1/1 47/5/53
f 47/5/53 3/1/1 48/4/54
f 34/6/32 43/3/40 31/3/30
f 30/4/28 47/5/53 48/4/54
f 47/5/53 30/4/28 29/5/27
f 31/3/30 46/2/52 28/2/26
f 46/2/52 31/3/30 43/3/40
f 29/5/27 46/2/52 47/5/53
f 46/2/52 29/5/27 28/2/26
f 30/4/28 3/1/1 1/1/3
f 3/1/1 30/4/28 48/4/54
f 50/8/43 49/8/42 45/10/44
f 32/10/31 45/10/44 42/11/38
f 51/8/47 11/9/8 9/9/10
f 11/9/8 51/8/47 52/8/50
f 52/8/50 51/8/47 36/10/34
f 52/8/50 36/10/34 40/10/37
f 40/10/37 35/11/33 41/11/51
f 6/9/1 49/8/42 5/9/5
f 53/8/45 4/9/4 44/10/39
f 45/10/44 53/8/45 44/10/39
f 53/8/45 45/10/44 49/8/42
f 54/8/46 8/9/7 50/8/43
f 7/9/6 27/10/25 2/9/2
f 10/9/9 51/8/47 9/9/10
f 37/10/35 10/9/9 12/9/11
f 55/8/48 36/10/34 51/8/47
f 36/10/34 55/8/48 37/10/35
f 39/10/36 52/8/50 40/10/37
f 52/8/50 39/10/36 56/8/49
