# Blender 4.3.2
# www.blender.org
mtllib radio.mtl
o radio
v -0.154597 0.061952 -0.187500
v -0.259597 0.061952 -0.187500
v -0.154597 0.039452 -0.187500
v -0.259597 0.039452 -0.187500
v -0.259597 0.039452 -0.180000
v -0.259597 0.061952 -0.180000
v -0.315000 0.037500 -0.115691
v -0.315000 0.037500 -0.228191
v -0.315000 0.060000 -0.115691
v -0.315000 0.060000 -0.228191
v -0.154597 0.039452 -0.180000
v -0.154597 0.061952 -0.180000
v 0.000000 0.060000 -0.228191
v -0.000000 0.037500 -0.228191
v -0.287796 0.000000 -0.012082
v -0.027204 0.000000 -0.012082
v -0.289131 0.000000 -0.012170
v -0.025869 0.000000 -0.012170
v -0.290055 0.000000 -0.012354
v -0.024945 0.000000 -0.012354
v -0.290947 0.000000 -0.012656
v -0.024053 0.000000 -0.012656
v -0.023209 0.000000 -0.013073
v -0.291791 0.000000 -0.013073
v -0.292575 0.000000 -0.013596
v -0.022425 0.000000 -0.013596
v -0.293283 0.000000 -0.014217
v -0.021717 0.000000 -0.014217
v -0.021096 0.000000 -0.014925
v -0.293904 0.000000 -0.014925
v -0.294427 0.000000 -0.015709
v -0.020573 0.000000 -0.015709
v -0.294844 0.000000 -0.016553
v -0.020156 0.000000 -0.016553
v -0.295146 0.000000 -0.017445
v -0.019854 0.000000 -0.017445
v -0.019670 0.000000 -0.018369
v -0.295330 0.000000 -0.018369
v -0.019582 0.000000 -0.019704
v -0.295418 0.000000 -0.019704
v -0.285826 0.000000 -0.090000
v -0.295418 0.000000 -0.160296
v -0.029174 0.000000 -0.090000
v -0.285826 0.000000 -0.158326
v -0.019582 0.000000 -0.160296
v -0.029174 0.000000 -0.158326
v -0.295330 0.000000 -0.161631
v -0.019670 0.000000 -0.161631
v -0.295146 0.000000 -0.162555
v -0.019854 0.000000 -0.162555
v -0.294844 0.000000 -0.163447
v -0.020156 0.000000 -0.163447
v -0.020573 0.000000 -0.164291
v -0.294427 0.000000 -0.164291
v -0.021096 0.000000 -0.165075
v -0.293904 0.000000 -0.165075
v -0.293283 0.000000 -0.165783
v -0.021717 0.000000 -0.165783
v -0.292575 0.000000 -0.166404
v -0.022425 0.000000 -0.166404
v -0.291791 0.000000 -0.166927
v -0.023209 0.000000 -0.166927
v -0.290947 0.000000 -0.167344
v -0.024053 0.000000 -0.167344
v -0.290055 0.000000 -0.167646
v -0.024945 0.000000 -0.167646
v -0.025869 0.000000 -0.167830
v -0.289131 0.000000 -0.167830
v -0.287796 0.000000 -0.167918
v -0.027204 0.000000 -0.167918
v -0.007500 0.037500 -0.160691
v -0.007500 0.037500 -0.217621
v -0.007500 0.060000 -0.160691
v -0.007500 0.060000 -0.217621
v -0.307500 0.060000 -0.217621
v -0.307500 0.037500 -0.217621
v -0.307500 0.037500 -0.160691
v -0.307500 0.060000 -0.160691
v -0.307500 0.037500 -0.115691
v -0.000000 0.037500 -0.115691
v -0.007500 0.037500 -0.115691
v 0.000000 0.060000 -0.115691
v -0.007500 0.060000 -0.115691
v -0.307500 0.060000 -0.115691
v -0.058064 0.000000 -0.109261
v -0.045074 0.000000 -0.116761
v -0.071055 0.000000 -0.116761
v -0.045074 0.000000 -0.131761
v -0.071055 0.000000 -0.131761
v -0.058064 0.000000 -0.139261
v -0.253065 0.000000 -0.109261
v -0.240074 0.000000 -0.116761
v -0.266055 0.000000 -0.116761
v -0.240074 0.000000 -0.131761
v -0.266055 0.000000 -0.131761
v -0.253065 0.000000 -0.139261
v -0.013155 0.097500 -0.174345
v -0.015054 0.097500 -0.176010
v -0.013155 0.000000 -0.174345
v -0.015054 0.000000 -0.176010
v -0.011490 0.000000 -0.172446
v -0.011490 0.097500 -0.172446
v -0.295580 0.097500 -0.178530
v -0.297846 0.097500 -0.177413
v -0.295580 0.000000 -0.178530
v -0.297846 0.000000 -0.177413
v -0.288191 0.097500 -0.180000
v -0.290711 0.097500 -0.179835
v -0.288191 0.000000 -0.180000
v -0.290711 0.000000 -0.179835
v -0.293189 0.097500 -0.179342
v -0.293189 0.000000 -0.179342
v -0.024289 0.097500 -0.000165
v -0.024289 0.000000 -0.000165
v -0.026809 0.097500 0.000000
v -0.026809 0.000000 0.000000
v -0.293189 0.097500 -0.000658
v -0.293189 0.000000 -0.000658
v -0.295580 0.097500 -0.001470
v -0.295580 0.000000 -0.001470
v -0.297846 0.097500 -0.002587
v -0.297846 0.000000 -0.002587
v -0.013155 0.097500 -0.005655
v -0.013155 0.000000 -0.005655
v -0.015054 0.097500 -0.003990
v -0.015054 0.000000 -0.003990
v -0.288191 0.097500 0.000000
v -0.290711 0.097500 -0.000165
v -0.021811 0.097500 -0.000658
v -0.019420 0.097500 -0.001470
v -0.017154 0.097500 -0.002587
v -0.299946 0.097500 -0.003990
v -0.301845 0.097500 -0.005655
v -0.011490 0.097500 -0.007554
v -0.303510 0.097500 -0.007554
v -0.010087 0.097500 -0.009654
v -0.304913 0.097500 -0.009654
v -0.008970 0.097500 -0.011920
v -0.306030 0.097500 -0.011920
v -0.008158 0.097500 -0.014311
v -0.306842 0.097500 -0.014311
v -0.007665 0.097500 -0.016789
v -0.307335 0.097500 -0.016789
v -0.007500 0.097500 -0.019309
v -0.307500 0.097500 -0.019309
v -0.007500 0.097500 -0.160691
v -0.307500 0.097500 -0.160691
v -0.007665 0.097500 -0.163211
v -0.307335 0.097500 -0.163211
v -0.008158 0.097500 -0.165689
v -0.306842 0.097500 -0.165689
v -0.008970 0.097500 -0.168080
v -0.306030 0.097500 -0.168080
v -0.010087 0.097500 -0.170346
v -0.304913 0.097500 -0.170346
v -0.303510 0.097500 -0.172446
v -0.301845 0.097500 -0.174345
v -0.299946 0.097500 -0.176010
v -0.017154 0.097500 -0.177413
v -0.019420 0.097500 -0.178530
v -0.021811 0.097500 -0.179342
v -0.024289 0.097500 -0.179835
v -0.026809 0.097500 -0.180000
v -0.299946 0.000000 -0.176010
v -0.304913 0.000000 -0.170346
v -0.303510 0.000000 -0.172446
v -0.307500 0.000000 -0.019309
v -0.307500 0.000000 -0.160691
v -0.307335 0.000000 -0.163211
v -0.306842 0.000000 -0.165689
v -0.288191 0.000000 0.000000
v -0.290711 0.000000 -0.000165
v -0.021811 0.000000 -0.000658
v -0.019420 0.000000 -0.001470
v -0.017154 0.000000 -0.002587
v -0.299946 0.000000 -0.003990
v -0.301845 0.000000 -0.005655
v -0.303510 0.000000 -0.007554
v -0.011490 0.000000 -0.007554
v -0.304913 0.000000 -0.009654
v -0.010087 0.000000 -0.009654
v -0.306030 0.000000 -0.011920
v -0.008970 0.000000 -0.011920
v -0.306842 0.000000 -0.014311
v -0.307335 0.000000 -0.016789
v -0.306030 0.000000 -0.168080
v -0.008970 0.000000 -0.168080
v -0.008158 0.000000 -0.165689
v -0.007665 0.000000 -0.163211
v -0.007500 0.000000 -0.160691
v -0.007500 0.000000 -0.019309
v -0.007665 0.000000 -0.016789
v -0.008158 0.000000 -0.014311
v -0.010087 0.000000 -0.170346
v -0.301845 0.000000 -0.174345
v -0.017154 0.000000 -0.177413
v -0.019420 0.000000 -0.178530
v -0.021811 0.000000 -0.179342
v -0.024289 0.000000 -0.179835
v -0.026809 0.000000 -0.180000
v -0.266055 0.015000 -0.116761
v -0.266055 0.015000 -0.131761
v -0.058064 0.015000 -0.139261
v -0.071055 0.015000 -0.131761
v -0.045074 0.015000 -0.116761
v -0.058064 0.015000 -0.109261
v -0.240074 0.015000 -0.131761
v -0.253065 0.015000 -0.139261
v -0.045074 0.015000 -0.131761
v -0.071055 0.015000 -0.116761
v -0.240074 0.015000 -0.116761
v -0.253065 0.015000 -0.109261
v -0.029174 0.015000 -0.158326
v -0.285826 0.015000 -0.158326
v -0.285826 0.015000 -0.090000
v -0.029174 0.015000 -0.090000
vn -0.5774 0.5774 -0.5773
vn 0.5773 0.5774 -0.5774
vn 0.5774 -0.5774 -0.5773
vn -0.5773 -0.5774 -0.5774
vn -0.3015 -0.3015 -0.9045
vn -0.3015 0.3015 -0.9045
vn -0.5774 -0.5774 0.5774
vn -0.5774 0.5774 0.5773
vn 0.3015 -0.3015 -0.9045
vn 0.3015 0.3015 -0.9045
vn -0.0000 -1.0000 -0.0000
vn 0.3015 -0.9045 0.3015
vn 0.3015 -0.9045 -0.3015
vn -0.3015 -0.9045 -0.3015
vn -0.3015 -0.9045 0.3015
vn 0.7056 -0.7071 -0.0462
vn 0.7056 0.7071 -0.0462
vn -0.3015 0.9045 0.3015
vn 0.3015 0.9045 0.3015
vn -0.7056 0.7071 -0.0462
vn -0.7056 -0.7071 -0.0462
vn -0.9045 -0.3015 0.3015
vn 0.5773 -0.5773 -0.5774
vn 0.5774 -0.5774 0.5773
vn 0.9045 -0.3015 0.3015
vn 0.5774 0.5774 0.5774
vn 0.9045 0.3015 0.3015
vn -0.5773 0.5773 -0.5774
vn -0.6862 -0.6100 0.3962
vn 0.6862 -0.6100 -0.3962
vn 0.6863 -0.6100 0.3962
vn -0.6863 -0.6100 -0.3962
vn -0.0000 -0.6100 -0.7924
vn -0.0000 -0.6100 0.7924
vn 0.4708 0.6934 -0.5455
vn 0.5301 0.6617 -0.5301
vn 0.5291 -0.6618 -0.5312
vn 0.5448 -0.6934 -0.4716
vn 0.5951 0.6614 -0.4566
vn -0.3243 0.6934 -0.6434
vn -0.2865 0.6631 -0.6916
vn -0.2878 -0.6631 -0.6910
vn -0.3745 -0.6626 -0.6486
vn -0.0553 0.6934 -0.7184
vn -0.0234 0.6998 -0.7139
vn -0.0234 -0.6998 -0.7139
vn -0.0976 -0.6640 -0.7413
vn -0.1480 0.6934 -0.7052
vn -0.1936 -0.6635 -0.7226
vn 0.0976 -0.6640 0.7413
vn 0.0553 0.6934 0.7184
vn 0.0234 0.6998 0.7139
vn 0.0234 -0.6998 0.7139
vn -0.1936 -0.6636 0.7226
vn -0.2245 0.6934 0.6847
vn -0.2851 0.6631 0.6921
vn -0.2865 -0.6631 0.6916
vn -0.3732 0.6626 0.6493
vn -0.3243 -0.6934 0.6434
vn 0.4562 0.6622 0.5945
vn 0.4708 -0.6934 0.5455
vn 0.5322 -0.6564 0.5347
vn 0.1476 0.6973 0.7014
vn -0.0553 0.6947 0.7172
vn 0.2371 0.7001 0.6736
vn 0.3222 0.7030 0.6341
vn -0.4050 0.6934 0.5959
vn 0.4817 0.7056 0.5197
vn -0.4736 0.6934 0.5430
vn 0.5368 0.7126 0.4517
vn -0.5447 0.6934 0.4716
vn 0.5905 0.7157 0.3730
vn 0.6334 0.7187 0.2868
vn -0.5904 0.7159 0.3727
vn -0.6479 0.6934 0.3153
vn 0.6647 0.7214 0.1944
vn -0.6834 0.6934 0.2283
vn 0.6837 0.7230 0.0988
vn -0.7073 0.6934 0.1373
vn 0.7139 0.6998 0.0234
vn -0.7139 0.6998 0.0234
vn 0.7140 0.6998 -0.0234
vn -0.7139 0.6998 -0.0234
vn 0.6746 0.7316 -0.0988
vn 0.6594 0.7261 -0.1951
vn -0.6746 0.7315 -0.0994
vn -0.7041 0.6934 -0.1533
vn 0.6407 0.7134 -0.2839
vn 0.6014 0.6934 -0.3968
vn -0.5905 0.7159 -0.3727
vn -0.5965 0.6934 -0.4041
vn -0.5383 0.6934 -0.4789
vn 0.3222 0.7030 -0.6340
vn -0.4014 0.7060 -0.5834
vn 0.2371 0.7002 -0.6734
vn 0.1476 0.6974 -0.7013
vn 0.0553 0.6947 -0.7171
vn 0.0234 0.6998 -0.7139
vn -0.5965 -0.6934 -0.4041
vn -0.6498 -0.6610 -0.3752
vn -0.7139 -0.6998 -0.0234
vn -0.7139 -0.6998 0.0234
vn -0.7053 -0.6934 -0.1472
vn -0.7409 -0.6645 -0.0975
vn -0.0234 -0.6998 0.7139
vn -0.0553 -0.6947 0.7172
vn 0.1480 -0.6934 0.7052
vn 0.3243 -0.6934 0.6434
vn 0.2371 -0.7002 0.6734
vn -0.4014 -0.7060 0.5835
vn -0.4817 -0.7056 0.5197
vn -0.5368 -0.7125 0.4519
vn -0.5905 -0.7159 0.3727
vn 0.6014 -0.6934 0.3968
vn 0.5368 -0.7128 0.4514
vn -0.7022 -0.6933 0.1623
vn -0.6915 -0.7149 0.1036
vn -0.6552 -0.7031 -0.2764
vn 0.6467 -0.7101 -0.2784
vn 0.6782 -0.7095 -0.1915
vn 0.6878 -0.7192 -0.0988
vn 0.7139 -0.6998 -0.0234
vn 0.7139 -0.6998 0.0234
vn 0.6911 -0.7161 0.0982
vn 0.6786 -0.7088 0.1927
vn 0.6443 -0.6934 -0.3224
vn -0.4734 -0.7095 -0.5221
vn -0.4014 -0.7061 -0.5833
vn 0.4708 -0.6934 -0.5455
vn 0.3950 -0.6934 -0.6026
vn 0.3125 -0.6934 -0.6493
vn 0.2244 -0.6934 -0.6847
vn 0.0553 -0.6947 -0.7172
vn 0.0234 -0.6998 -0.7139
vn -0.6873 -0.6682 0.2847
vn -0.4717 -0.8386 -0.2724
vn -0.0000 -0.8386 -0.5447
vn 0.4717 -0.8386 0.2724
vn -0.0000 -0.8386 0.5447
vn 0.4717 -0.8386 -0.2723
vn 0.4717 -0.8386 -0.2724
vn 0.6778 -0.6934 0.2447
vn -0.6985 0.6554 -0.2874
vn -0.4717 -0.8386 0.2724
vn -0.0234 0.6998 0.7139
vn -0.4718 -0.8386 0.2724
vn 0.5774 -0.5773 -0.5774
vn 0.5774 -0.5773 0.5774
vn -0.5774 -0.5773 0.5774
vn -0.9045 0.3015 0.3015
vt 10.220370 2.439066
vt 6.086512 2.439066
vt 6.086512 1.553239
vt 10.220370 1.553239
vt 1.553239 7.381890
vt 1.553239 7.086614
vt 2.439066 7.086614
vt 2.439066 7.381890
vt 1.476378 8.983901
vt 1.476378 4.554768
vt 2.362205 4.554768
vt -1.553239 7.086614
vt -1.553239 7.381890
vt -2.439066 7.381890
vt -2.439066 7.086614
vt 11.454590 0.498280
vt 0.913722 0.514681
vt 0.946981 0.498280
vt 11.487850 0.514681
vt 11.518690 0.535283
vt 0.882889 0.535283
vt 11.546570 0.559733
vt 0.830559 0.587614
vt 0.855009 0.559733
vt 11.571020 0.587614
vt 11.591620 0.618447
vt 11.627170 0.723190
vt 0.770955 0.775765
vt 0.774401 0.723190
vt 11.630620 6.310849
vt 11.253000 6.233313
vt 11.253000 3.543307
vt 1.148577 3.543307
vt 1.148577 6.233313
vt 0.770955 6.310849
vt 11.627170 6.363424
vt 11.619940 6.399795
vt 0.774401 6.363424
vt 0.781636 6.399795
vt 11.608020 6.434909
vt 0.793555 6.434909
vt 11.591620 6.468167
vt 0.809957 6.468167
vt 0.830559 6.499001
vt 11.571020 6.499001
vt 11.546570 6.526881
vt 0.855009 6.526881
vt 11.518690 6.551331
vt 11.487850 6.571933
vt 0.882889 6.551331
vt 11.454590 6.588334
vt 0.913722 6.571933
vt 11.419480 6.600254
vt 0.946981 6.588334
vt 0.982095 6.600254
vt 1.018465 6.607489
vt 11.383110 6.607489
vt 11.330530 6.610934
vt 1.476378 8.567748
vt 1.476378 6.326421
vt 2.362205 6.326421
vt 2.362205 8.567748
vt -2.362205 8.567748
vt -2.362205 6.326421
vt -1.476378 6.326421
vt 12.106300 4.554768
vt 12.401580 4.554768
vt 12.401580 8.983901
vt 12.106300 6.326421
vt 12.106300 8.567748
vt 0.295276 6.326421
vt 0.000000 8.983901
vt 0.000000 4.554768
vt 0.295276 4.554768
vt -1.476378 4.554768
vt -1.476378 8.983901
vt -2.362205 8.983901
vt -2.362205 4.554768
vt -0.295276 4.554768
vt -0.000000 4.554768
vt -0.000000 8.983901
vt -0.295276 6.326421
vt -0.295276 8.567748
vt -12.106300 6.326421
vt -12.106300 8.567748
vt -12.401580 8.983901
vt -12.401580 4.554768
vt 6.086512 7.086614
vt 10.220370 7.086614
vt 10.220370 7.381890
vt 6.086512 7.381890
vt 2.797434 4.596879
vt 1.774569 5.187430
vt 1.774569 4.596879
vt 2.797434 5.187430
vt 2.286001 5.482706
vt 9.451735 4.596879
vt 9.963167 4.301603
vt 10.474600 4.596879
vt 10.474600 5.187430
vt 9.451735 5.187430
vt 9.963167 5.482706
vt -3.838583 5.014562
vt -3.838583 4.915123
vt 0.000000 4.915123
vt 0.000000 5.402655
vt 0.000000 5.502093
vt -3.838583 5.502093
vt -3.838583 5.402655
vt 3.838583 -7.427628
vt 3.838583 -7.328190
vt -0.000000 -7.328190
vt -0.000000 -7.427628
vt 3.838583 -10.957760
vt 3.838583 -10.858330
vt -0.000000 -10.858330
vt -0.000000 -10.957760
vt 3.838583 -9.943589
vt 3.838583 -9.844151
vt -0.000000 -9.844151
vt -0.000000 -9.943589
vt 0.000000 -0.953771
vt -3.838583 -0.953771
vt -3.838583 -1.053209
vt 0.000000 -1.053209
vt -0.000000 -8.660689
vt -0.000000 -8.760127
vt 3.838583 -8.760127
vt -0.000000 10.938610
vt 3.838583 10.938610
vt 3.838583 11.038040
vt -0.000000 10.462520
vt 3.838583 10.462520
vt 3.838583 10.561960
vt -0.000000 10.561960
vt -3.838583 -0.342032
vt 0.000000 -0.342032
vt 0.000000 -0.242594
vt -0.956244 0.006504
vt -0.858716 0.025903
vt -11.445330 0.006504
vt -0.764555 0.057866
vt -11.542860 0.025903
vt -11.637020 0.057866
vt -0.675372 0.101847
vt -0.592692 0.157091
vt -11.726200 0.101847
vt -11.808880 0.157091
vt -0.517931 0.222655
vt -11.883640 0.222655
vt -0.452367 0.297417
vt -11.949210 0.297417
vt -0.397122 0.380096
vt -0.353142 0.469280
vt -12.004450 0.380096
vt -12.048430 0.469280
vt -0.321178 0.563441
vt -12.080400 0.563441
vt -0.301779 0.660968
vt -12.099800 0.660968
vt -0.295276 0.760193
vt -12.106300 0.760193
vt -0.301779 6.425646
vt -0.321178 6.523174
vt -12.099800 6.425646
vt -12.080400 6.523174
vt -0.353142 6.617334
vt -0.397122 6.706518
vt -0.452367 6.789197
vt -12.004450 6.706518
vt -11.949210 6.789197
vt -0.517931 6.863959
vt -11.883640 6.863959
vt -0.592692 6.929523
vt -0.675372 6.984767
vt -11.726200 6.984767
vt -11.808880 6.929523
vt -0.764555 7.028748
vt -0.858716 7.060711
vt -11.637020 7.028748
vt -0.956244 7.080111
vt -11.542860 7.060711
vt -1.055469 7.086614
vt -11.346110 7.086614
vt -11.445330 7.080111
vt 3.838583 -5.968890
vt 3.838583 -5.869452
vt -0.000000 -5.869452
vt -0.000000 -0.993613
vt -0.000000 -1.093051
vt 3.838583 -1.093051
vt 3.838583 -0.993613
vt -0.000000 6.326421
vt -0.000000 0.760193
vt 3.838583 0.760193
vt 3.838583 6.326421
vt -0.000000 4.041064
vt -0.000000 3.941626
vt 3.838583 3.941626
vt 1.055469 0.000000
vt 11.346110 0.000000
vt 11.445330 0.006504
vt 0.956244 0.006504
vt 11.542860 0.025903
vt 0.858716 0.025903
vt 11.726200 0.101847
vt 0.675372 0.101847
vt 0.764555 0.057866
vt 11.808880 0.157091
vt 11.883640 0.222655
vt 0.592692 0.157091
vt 11.949210 0.297417
vt 0.517931 0.222655
vt 12.004450 0.380096
vt 0.397122 0.380096
vt 0.452367 0.297417
vt 12.080400 0.563441
vt 12.099800 0.660968
vt 11.619940 0.686820
vt 11.608020 0.651705
vt 12.099800 6.425646
vt 12.080400 6.523174
vt 12.048430 6.617334
vt 0.353142 6.617334
vt 0.321178 6.523174
vt 0.301779 6.425646
vt 0.295276 0.760193
vt 0.781636 0.686820
vt 0.793555 0.651705
vt 0.301779 0.660968
vt 0.809957 0.618447
vt 0.321178 0.563441
vt 12.004450 6.706518
vt 0.397122 6.706518
vt 11.949210 6.789197
vt 0.452367 6.789197
vt 11.883640 6.863959
vt 0.517931 6.863959
vt 11.808880 6.929523
vt 0.592692 6.929523
vt 11.726200 6.984767
vt 0.675372 6.984767
vt 11.637020 7.028748
vt 0.764555 7.028748
vt 11.542860 7.060711
vt 0.858716 7.060711
vt 11.445330 7.080111
vt 11.346110 7.086614
vt 0.956244 7.080111
vt 1.055469 7.086614
vt 0.000000 -0.837163
vt -3.838583 -0.837163
vt -3.838583 -0.936601
vt 0.000000 -0.936601
vt -0.000000 1.476378
vt 0.000000 2.362205
vt -0.295276 2.362205
vt -0.000000 4.416655
vt -0.000000 4.317217
vt 3.838583 4.317217
vt 3.838583 4.416655
vt 0.590551 0.171066
vt 0.590551 0.761617
vt -0.000000 0.761617
vt -0.000000 0.171066
vt 0.000000 5.796895
vt 0.000000 5.896333
vt -3.838583 5.896333
vt -3.838583 5.796895
vt -0.000000 -2.674833
vt -0.000000 -2.774271
vt 3.838583 -2.774271
vt 3.838583 -2.674833
vt 0.000000 0.761617
vt -0.590551 0.761617
vt -0.590551 0.171066
vt 0.000000 0.171066
vt 0.000000 -0.405531
vt -3.838583 -0.405531
vt -3.838583 -0.504969
vt 0.000000 -0.504969
vt -0.590551 11.369710
vt -0.590551 10.779160
vt 0.000000 10.779160
vt 0.000000 11.369710
vt 3.838583 5.650332
vt 3.838583 5.749770
vt -0.000000 5.749770
vt -0.000000 11.226680
vt 3.838583 11.226680
vt 3.838583 11.326120
vt 0.000000 4.596879
vt 0.000000 5.187430
vt -0.590551 5.187430
vt -0.590551 4.596879
vt -0.000000 8.981965
vt 3.838583 8.981965
vt 3.838583 9.081404
vt -0.000000 1.550355
vt -0.000000 1.450917
vt 3.838583 1.450917
vt -3.838583 0.095409
vt -3.838583 -0.004029
vt 0.000000 -0.004029
vt 0.000000 -0.174094
vt 0.000000 -0.074656
vt -3.838583 -0.074656
vt -3.838583 -0.174094
vt 0.000000 0.330861
vt 0.000000 0.430299
vt -3.838583 0.430299
vt 0.000000 6.332188
vt 0.000000 6.431626
vt -3.838583 6.431626
vt -0.000000 2.293874
vt 3.838583 2.293874
vt 3.838583 2.393312
vt 0.000000 0.489955
vt 0.000000 0.589393
vt -3.838583 0.589393
vt -3.838583 0.489955
vt -3.838583 6.326421
vt -3.838583 0.760193
vt 0.000000 0.760193
vt 0.000000 6.326421
vt 0.000000 0.165256
vt 0.000000 0.264694
vt -3.838583 0.264694
vt -0.000000 4.130537
vt 0.590551 4.130537
vt 0.590551 4.721088
vt -0.000000 4.721088
vt -0.590551 4.721088
vt -0.590551 4.130537
vt 0.000000 4.130537
vt 0.000000 4.721088
vt -1.055469 0.000000
vt -1.055469 3.838583
vt -11.346110 3.838583
vt -11.346110 0.000000
vt -0.000000 3.008821
vt -0.000000 2.909383
vt 3.838583 2.909383
vt 3.838583 3.008821
vt -0.000000 5.187430
vt -0.000000 4.596879
vt 0.590551 4.596879
vt 0.590551 5.187430
vt -3.838583 4.442080
vt -3.838583 4.342642
vt 0.000000 4.342642
vt 0.000000 4.442080
vt -0.000000 6.985355
vt -0.000000 6.885917
vt 3.838583 6.885917
vt 3.838583 6.985355
vt -0.000000 9.806564
vt 3.838583 9.806564
vt 3.838583 9.906002
vt 0.000000 -0.705380
vt -3.838583 -0.705380
vt -3.838583 -0.804818
vt 0.000000 -0.804818
vt -0.590551 -6.477554
vt 0.000000 -6.477554
vt 0.000000 -5.887003
vt 0.000000 6.361053
vt 0.000000 6.460492
vt -3.838583 6.460492
vt -3.838583 6.361053
vt 0.000000 4.596879
vt 0.000000 5.187430
vt -0.000000 10.779160
vt 0.590551 10.779160
vt 0.590551 11.369710
vt -0.000000 5.620524
vt -0.000000 5.521086
vt 1.476378 5.521086
vt 3.838583 5.620524
vt 2.362205 5.521086
vt 3.838583 5.521086
vt -3.838583 -0.660115
vt 0.000000 -0.660115
vt 0.000000 -0.560677
vt 0.000000 6.091097
vt 0.000000 6.190536
vt -3.838583 6.190536
vt -3.838583 6.091097
vt -0.000000 8.102270
vt -0.000000 8.002832
vt 3.838583 8.002832
vt 3.838583 8.102270
vt -3.838583 2.319131
vt -3.838583 2.219693
vt 0.000000 2.219693
vt 0.000000 2.319131
vt -3.838583 3.794445
vt -3.838583 3.695007
vt 0.000000 3.695007
vt 0.000000 3.794445
vt -3.838583 1.516695
vt -3.838583 1.417257
vt 0.000000 1.417257
vt -3.838583 3.082736
vt -3.838583 2.983297
vt 0.000000 2.983297
vt 0.000000 3.082736
vt 2.286001 4.301603
vt 1.148577 0.000000
vt 11.253000 0.000000
vt 11.253000 0.590551
vt -0.000000 6.233313
vt -0.000000 3.543307
vt 0.590551 3.543307
vt 0.590551 6.233313
vt 0.000000 3.543307
vt 0.000000 6.233313
vt -0.590551 6.233313
vt -0.590551 3.543307
vt 2.362205 8.983901
vt 12.401580 2.362205
vt 0.000000 1.476378
vt 12.401580 1.476378
vt 1.071041 0.475680
vt 11.330530 0.475680
vt 11.383110 0.479126
vt 1.018465 0.479126
vt 11.419480 0.486360
vt 0.982095 0.486360
vt 11.630620 0.775765
vt 1.071041 6.610934
vt -0.295276 1.476378
vt -12.106300 2.362205
vt -12.106300 1.476378
vt -1.476378 8.567748
vt 0.295276 8.567748
vt -12.106300 4.554768
vt -10.220370 7.086614
vt -6.086512 7.086614
vt -6.086512 7.381890
vt -10.220370 7.381890
vt 0.000000 5.014562
vt 3.838583 -8.660689
vt -0.000000 11.038040
vt -3.838583 -0.242594
vt -11.346110 0.000000
vt -1.055469 0.000000
vt -12.048430 6.617334
vt -0.000000 -5.968890
vt 3.838583 4.041064
vt 11.637020 0.057866
vt 12.048430 0.469280
vt 0.353142 0.469280
vt 12.106300 0.760193
vt 0.000000 0.639815
vt 0.000000 0.739253
vt -3.838583 0.739253
vt -3.838583 0.639815
vt -0.000000 5.187430
vt -0.000000 4.596879
vt -12.401580 2.362205
vt -12.401580 1.476378
vt -0.000000 0.705459
vt -0.000000 0.606021
vt 3.838583 0.606021
vt 3.838583 0.705459
vt -3.838583 6.280229
vt 0.000000 6.280229
vt 0.000000 6.379667
vt -3.838583 6.379667
vt 3.838583 -4.408874
vt 3.838583 -4.309436
vt -0.000000 -4.309436
vt -0.000000 -4.408874
vt -0.000000 5.650332
vt -0.000000 11.326120
vt -0.000000 9.081404
vt 3.838583 1.550355
vt 0.000000 0.095409
vt -3.838583 0.330861
vt -1.476378 6.332188
vt -2.362205 6.332188
vt -3.838583 6.332188
vt -0.000000 2.393312
vt -3.838583 0.165256
vt 1.055469 0.000000
vt 11.346110 0.000000
vt 11.346110 3.838583
vt 1.055469 3.838583
vt -0.000000 11.321810
vt 3.838583 11.321810
vt 3.838583 11.421250
vt -0.000000 11.421250
vt -0.000000 9.906002
vt -0.590551 -5.887003
vt 0.590551 -6.477554
vt 0.590551 -5.887003
vt -0.000000 -5.887003
vt -0.000000 -6.477554
vt -0.000000 11.369710
vt -3.838583 -0.560677
vt 0.000000 1.516695
vt -1.148577 0.000000
vt -1.148577 0.590551
vt -11.253000 0.590551
vt -11.253000 0.000000
vt 1.148577 0.590551
s 1
usemtl metalMedium.008
f 2/1/1 1/2/2 3/3/3
f 3/3/3 4/4/4 2/1/1
f 4/5/4 5/6/5 6/7/6
f 6/7/6 2/8/1 4/5/4
f 8/9/4 7/10/7 9/11/8
f 11/12/9 3/13/3 1/14/2
f 1/14/2 12/15/10 11/12/9
f 21/16/11 23/17/11 22/18/11
f 24/19/11 25/20/11 23/17/11
f 25/20/11 26/21/11 23/17/11
f 25/20/11 27/22/11 26/21/11
f 27/22/11 29/23/11 28/24/11
f 27/22/11 30/25/11 29/23/11
f 30/25/11 31/26/11 29/23/11
f 38/27/11 39/28/11 37/29/11
f 42/30/11 44/31/12 41/32/13
f 43/33/14 46/34/15 45/35/11
f 47/36/11 49/37/11 48/38/11
f 49/37/11 50/39/11 48/38/11
f 49/37/11 51/40/11 50/39/11
f 51/40/11 52/41/11 50/39/11
f 51/40/11 54/42/11 53/43/11
f 54/42/11 55/44/11 53/43/11
f 54/42/11 56/45/11 55/44/11
f 56/45/11 57/46/11 55/44/11
f 57/46/11 58/47/11 55/44/11
f 57/46/11 59/48/11 58/47/11
f 59/48/11 61/49/11 60/50/11
f 61/49/11 63/51/11 62/52/11
f 63/51/11 65/53/11 64/54/11
f 65/53/11 66/55/11 64/54/11
f 65/53/11 67/56/11 66/55/11
f 68/57/11 69/58/11 67/56/11
f 72/59/15 71/60/16 73/61/17
f 73/61/17 74/62/18 72/59/15
f 75/63/19 78/64/20 77/65/21
f 79/66/22 7/67/7 8/68/4
f 8/68/4 77/69/21 79/66/22
f 8/68/4 76/70/12 77/69/21
f 71/71/16 14/72/23 80/73/24
f 80/73/24 81/74/25 71/71/16
f 80/75/24 14/76/23 13/77/2
f 13/77/2 82/78/26 80/75/24
f 83/79/27 82/80/26 13/81/2
f 13/81/2 73/82/17 83/79/27
f 13/81/2 74/83/18 73/82/17
f 78/84/20 75/85/19 10/86/28
f 78/84/20 10/86/28 9/87/8
f 11/88/9 5/89/5 4/90/4
f 4/90/4 3/91/3 11/88/9
f 9/11/8 10/420/28 8/9/4
f 10/421/28 13/256/2 14/422/23
f 14/422/23 8/423/4 10/421/28
f 16/424/11 15/425/11 17/426/11
f 17/426/11 18/427/11 16/424/11
f 17/426/11 19/428/11 18/427/11
f 19/428/11 20/429/11 18/427/11
f 19/428/11 21/16/11 20/429/11
f 21/16/11 22/18/11 20/429/11
f 21/16/11 24/19/11 23/17/11
f 27/22/11 28/24/11 26/21/11
f 31/26/11 32/231/11 29/23/11
f 31/26/11 33/220/11 32/231/11
f 33/220/11 34/229/11 32/231/11
f 33/220/11 35/219/11 34/229/11
f 35/219/11 36/228/11 34/229/11
f 35/219/11 37/29/11 36/228/11
f 35/219/11 38/27/11 37/29/11
f 38/27/11 40/430/11 39/28/11
f 40/430/11 41/32/13 39/28/11
f 40/430/11 42/30/11 41/32/13
f 41/32/13 43/33/14 39/28/11
f 45/35/11 39/28/11 43/33/14
f 44/31/12 42/30/11 45/35/11
f 46/34/15 44/31/12 45/35/11
f 42/30/11 47/36/11 45/35/11
f 47/36/11 48/38/11 45/35/11
f 51/40/11 53/43/11 52/41/11
f 59/48/11 60/50/11 58/47/11
f 61/49/11 62/52/11 60/50/11
f 63/51/11 64/54/11 62/52/11
f 65/53/11 68/57/11 67/56/11
f 69/58/11 70/431/11 67/56/11
f 72/432/15 74/257/18 75/433/19
f 75/433/19 76/434/12 72/432/15
f 77/65/21 76/435/12 75/63/19
f 8/68/4 72/436/15 76/70/12
f 72/436/15 8/68/4 14/72/23
f 71/71/16 72/436/15 14/72/23
f 13/81/2 75/85/19 74/83/18
f 75/85/19 13/81/2 10/86/28
f 9/87/8 84/437/150 78/84/20
f 6/438/6 12/439/10 1/440/2
f 1/440/2 2/441/1 6/438/6
usemtl wood.022
f 87/92/29 88/93/30 86/94/31
f 89/95/32 90/96/33 88/93/30
f 92/97/31 91/98/34 93/99/29
f 93/99/29 95/100/32 94/101/30
f 95/100/32 96/102/33 94/101/30
f 98/103/35 97/104/36 99/105/37
f 101/106/38 99/107/37 97/108/36
f 97/108/36 102/109/39 101/106/38
f 104/110/40 103/111/41 105/112/42
f 105/112/42 106/113/43 104/110/40
f 108/114/44 107/115/45 109/116/46
f 109/116/46 110/117/47 108/114/44
f 111/118/48 108/119/44 110/120/47
f 110/120/47 112/121/49 111/118/48
f 114/122/50 113/123/51 115/124/52
f 115/124/52 116/125/53 114/122/50
f 112/126/49 105/127/42 103/128/41
f 118/129/54 117/130/55 119/131/56
f 120/132/57 119/133/56 121/134/58
f 121/134/58 122/135/59 120/132/57
f 125/136/60 126/137/61 124/138/62
f 113/139/51 129/140/63 128/141/64
f 129/140/63 130/142/65 117/143/55
f 130/142/65 119/144/56 117/143/55
f 130/142/65 131/145/66 119/144/56
f 131/145/66 125/146/60 121/147/58
f 125/146/60 132/148/67 121/147/58
f 125/146/60 123/149/68 132/148/67
f 123/149/68 133/150/69 132/148/67
f 134/151/70 135/152/71 133/150/69
f 134/151/70 136/153/72 135/152/71
f 136/153/72 138/154/73 137/155/74
f 138/154/73 139/156/75 137/155/74
f 140/157/76 141/158/77 139/156/75
f 140/157/76 142/159/78 141/158/77
f 142/159/78 143/160/79 141/158/77
f 142/159/78 144/161/80 143/160/79
f 144/161/80 145/162/81 143/160/79
f 146/82/82 147/84/83 145/162/81
f 146/82/82 148/163/84 147/84/83
f 148/163/84 150/164/85 149/165/86
f 150/164/85 151/166/87 149/165/86
f 150/164/85 152/167/88 151/166/87
f 154/168/89 102/169/39 155/170/90
f 102/169/39 156/171/91 155/170/90
f 102/169/39 97/172/36 156/171/91
f 97/172/36 157/173/92 156/171/91
f 97/172/36 98/174/35 157/173/92
f 159/175/93 104/176/40 158/177/94
f 159/175/93 160/178/95 104/176/40
f 160/178/95 161/179/96 103/180/41
f 161/179/96 162/181/97 111/182/48
f 163/183/98 107/184/45 108/185/44
f 158/186/94 104/187/40 106/188/43
f 166/189/99 165/190/100 155/191/90
f 155/191/90 156/192/91 166/189/99
f 168/193/101 167/194/102 145/195/81
f 145/195/81 147/196/83 78/61/20
f 168/193/101 79/10/22 77/60/21
f 170/197/103 169/198/104 149/199/86
f 116/200/53 171/201/105 172/202/106
f 172/202/106 114/203/50 116/200/53
f 172/202/106 118/204/54 114/203/50
f 118/204/54 173/205/107 114/203/50
f 122/206/59 175/207/108 174/208/109
f 122/206/59 176/209/110 175/207/108
f 176/209/110 177/210/111 126/211/61
f 177/210/111 178/212/112 124/213/62
f 180/214/113 181/215/114 179/216/115
f 184/217/116 185/218/117 30/25/11
f 185/218/117 31/26/11 30/25/11
f 185/218/117 35/219/11 33/220/11
f 168/69/101 47/36/11 42/30/11
f 168/69/101 169/221/104 47/36/11
f 169/221/104 49/37/11 47/36/11
f 169/221/104 51/40/11 49/37/11
f 169/221/104 170/222/103 51/40/11
f 170/222/103 54/42/11 51/40/11
f 170/222/103 56/45/11 54/42/11
f 170/222/103 57/46/11 56/45/11
f 170/222/103 186/223/118 57/46/11
f 186/223/118 59/48/11 57/46/11
f 186/223/118 61/49/11 59/48/11
f 186/223/118 63/51/11 61/49/11
f 186/223/118 68/57/11 65/53/11
f 186/223/118 69/58/11 68/57/11
f 60/50/11 62/52/11 187/224/119
f 58/47/11 60/50/11 187/224/119
f 58/47/11 187/224/119 188/225/120
f 53/43/11 55/44/11 188/225/120
f 52/41/11 188/225/120 189/226/121
f 48/38/11 50/39/11 189/226/121
f 39/28/11 45/35/11 190/71/122
f 37/29/11 39/28/11 191/227/123
f 36/228/11 37/29/11 191/227/123
f 34/229/11 36/228/11 192/230/124
f 32/231/11 34/229/11 192/230/124
f 29/23/11 32/231/11 192/230/124
f 26/21/11 28/24/11 193/232/125
f 186/223/118 165/233/100 187/224/119
f 165/233/100 194/234/126 187/224/119
f 165/233/100 166/235/99 194/234/126
f 166/235/99 101/236/38 194/234/126
f 166/235/99 195/237/127 101/236/38
f 195/237/127 99/238/37 101/236/38
f 164/239/128 100/240/129 99/238/37
f 164/239/128 106/241/43 100/240/129
f 106/241/43 196/242/130 100/240/129
f 106/241/43 105/243/42 196/242/130
f 105/243/42 197/244/131 196/242/130
f 112/245/49 198/246/132 197/244/131
f 110/247/47 109/248/46 199/249/133
f 109/248/46 200/250/134 199/249/133
f 173/251/107 129/252/63 113/253/51
f 113/253/51 114/254/50 173/251/107
f 80/255/24 82/256/26 83/257/27
f 184/258/116 182/259/135 139/260/75
f 139/260/75 141/261/77 184/258/116
f 204/262/136 203/263/137 90/264/33
f 90/264/33 89/265/32 204/262/136
f 194/266/126 101/267/38 102/268/39
f 102/268/39 154/269/89 194/266/126
f 195/270/127 166/271/99 156/272/91
f 156/272/91 157/273/92 195/270/127
f 86/274/31 205/275/138 206/276/139
f 206/276/139 85/277/34 86/274/31
f 126/278/61 125/279/60 131/280/66
f 131/280/66 175/281/108 126/278/61
f 208/282/137 207/283/140 94/284/30
f 94/284/30 96/285/33 208/282/137
f 137/286/74 139/287/75 182/288/135
f 172/289/106 128/290/64 117/291/55
f 86/292/31 88/293/30 209/294/141
f 209/294/141 205/295/138 86/292/31
f 176/296/110 132/297/67 133/298/69
f 167/299/102 185/300/117 143/301/79
f 136/302/72 134/303/70 179/304/115
f 124/305/62 179/306/115 134/307/70
f 134/307/70 123/308/68 124/305/62
f 183/309/142 193/310/125 140/311/76
f 190/312/122 189/313/121 148/314/84
f 170/315/103 151/316/87 153/317/143
f 193/318/125 192/319/124 142/320/78
f 142/320/78 140/321/76 193/318/125
f 83/78/27 73/64/17 146/322/82
f 83/78/27 146/322/82 144/323/80
f 81/75/25 83/78/27 144/323/80
f 81/75/25 144/323/80 191/324/123
f 71/65/16 81/75/25 191/324/123
f 191/324/123 190/325/122 71/65/16
f 181/326/114 183/327/142 138/328/73
f 85/329/34 206/330/139 210/331/144
f 210/331/144 87/332/29 85/329/34
f 203/333/137 209/334/141 88/335/30
f 88/335/30 90/336/33 203/333/137
f 116/337/53 115/338/52 127/339/145
f 127/339/145 171/340/105 116/337/53
f 185/341/117 184/342/116 141/343/77
f 141/343/77 143/344/79 185/341/117
f 89/345/32 87/346/29 210/347/144
f 210/347/144 204/348/136 89/345/32
f 159/349/93 98/350/35 100/351/129
f 100/351/129 196/352/130 159/349/93
f 180/353/113 178/354/112 135/355/71
f 135/355/71 137/356/74 180/353/113
f 122/357/59 121/358/58 132/359/67
f 174/360/109 130/361/65 129/362/63
f 129/362/63 173/363/107 174/360/109
f 212/364/139 91/365/34 92/366/31
f 189/367/121 188/368/120 150/369/85
f 150/369/85 148/370/84 189/367/121
f 92/371/31 94/372/30 207/294/140
f 207/294/140 211/295/138 92/371/31
f 91/373/34 212/374/139 201/375/146
f 169/376/104 168/377/101 77/378/21
f 77/378/21 149/379/86 169/376/104
f 77/378/21 78/380/20 149/379/86
f 78/380/20 147/381/83 149/379/86
f 130/382/65 174/383/109 175/384/108
f 187/385/119 194/386/126 154/387/89
f 154/387/89 152/388/88 187/385/119
f 178/389/112 177/390/111 133/391/69
f 133/391/69 135/392/71 178/389/112
f 162/393/97 161/394/96 198/395/132
f 198/395/132 199/396/133 162/393/97
f 160/397/95 159/398/93 196/399/130
f 196/399/130 197/400/131 160/397/95
f 163/401/98 162/402/97 199/403/133
f 161/404/96 160/405/95 197/406/131
f 197/406/131 198/407/132 161/404/96
f 86/94/31 85/408/34 87/92/29
f 87/92/29 89/95/32 88/93/30
f 93/99/29 94/101/30 92/97/31
f 99/105/37 100/442/129 98/103/35
f 103/128/41 111/443/48 112/126/49
f 119/131/56 120/444/57 118/129/54
f 124/138/62 123/445/68 125/136/60
f 127/446/145 115/447/52 113/139/51
f 113/139/51 128/141/64 127/446/145
f 129/140/63 117/143/55 128/141/64
f 131/145/66 121/147/58 119/144/56
f 123/149/68 134/151/70 133/150/69
f 136/153/72 137/155/74 135/152/71
f 138/154/73 140/157/76 139/156/75
f 144/161/80 146/82/82 145/162/81
f 148/163/84 149/165/86 147/84/83
f 152/167/88 153/448/143 151/166/87
f 152/167/88 154/168/89 153/448/143
f 154/168/89 155/170/90 153/448/143
f 98/174/35 158/177/94 157/173/92
f 98/174/35 159/175/93 158/177/94
f 160/178/95 103/180/41 104/176/40
f 161/179/96 111/182/48 103/180/41
f 162/181/97 108/185/44 111/182/48
f 162/181/97 163/183/98 108/185/44
f 106/188/43 164/449/128 158/186/94
f 145/195/81 79/10/22 168/193/101
f 145/195/81 84/11/150 79/10/22
f 145/195/81 78/61/20 84/11/150
f 149/199/86 151/450/87 170/197/103
f 118/204/54 120/451/57 173/205/107
f 120/451/57 174/208/109 173/205/107
f 120/451/57 122/206/59 174/208/109
f 176/209/110 126/211/61 175/207/108
f 177/210/111 124/213/62 126/211/61
f 178/212/112 179/216/115 124/213/62
f 178/212/112 180/214/113 179/216/115
f 180/214/113 182/452/135 181/215/114
f 182/452/135 183/453/142 181/215/114
f 182/452/135 15/425/11 183/453/142
f 182/452/135 17/426/11 15/425/11
f 182/452/135 184/217/116 17/426/11
f 184/217/116 19/428/11 17/426/11
f 184/217/116 21/16/11 19/428/11
f 184/217/116 24/19/11 21/16/11
f 184/217/116 25/20/11 24/19/11
f 184/217/116 27/22/11 25/20/11
f 184/217/116 30/25/11 27/22/11
f 185/218/117 33/220/11 31/26/11
f 185/218/117 167/454/102 35/219/11
f 167/454/102 38/27/11 35/219/11
f 167/454/102 40/430/11 38/27/11
f 167/454/102 168/69/101 40/430/11
f 168/69/101 42/30/11 40/430/11
f 186/223/118 65/53/11 63/51/11
f 186/223/118 70/431/11 69/58/11
f 70/431/11 186/223/118 187/224/119
f 67/56/11 70/431/11 187/224/119
f 66/55/11 67/56/11 187/224/119
f 64/54/11 66/55/11 187/224/119
f 62/52/11 64/54/11 187/224/119
f 55/44/11 58/47/11 188/225/120
f 52/41/11 53/43/11 188/225/120
f 50/39/11 52/41/11 189/226/121
f 48/38/11 189/226/121 190/71/122
f 45/35/11 48/38/11 190/71/122
f 39/28/11 190/71/122 191/227/123
f 36/228/11 191/227/123 192/230/124
f 29/23/11 192/230/124 193/232/125
f 28/24/11 29/23/11 193/232/125
f 23/17/11 26/21/11 193/232/125
f 22/18/11 23/17/11 193/232/125
f 20/429/11 22/18/11 193/232/125
f 18/427/11 20/429/11 193/232/125
f 18/427/11 193/232/125 183/453/142
f 183/453/142 16/424/11 18/427/11
f 183/453/142 15/425/11 16/424/11
f 195/237/127 164/239/128 99/238/37
f 105/243/42 112/245/49 197/244/131
f 112/245/49 110/247/47 198/246/132
f 110/247/47 199/249/133 198/246/132
f 83/257/27 81/432/25 80/255/24
f 192/455/124 191/456/123 144/457/80
f 144/457/80 142/458/78 192/455/124
f 95/459/32 93/460/29 201/347/146
f 201/347/146 202/348/136 95/459/32
f 79/434/22 84/433/150 9/461/8
f 9/461/8 7/462/7 79/434/22
f 165/463/100 186/464/118 153/465/143
f 153/465/143 155/466/90 165/463/100
f 150/467/85 188/468/120 187/469/119
f 187/469/119 152/470/88 150/467/85
f 157/471/92 158/472/94 164/473/128
f 164/473/128 195/474/127 157/471/92
f 182/288/135 180/475/113 137/286/74
f 117/291/55 118/476/54 172/289/106
f 133/298/69 177/477/111 176/296/110
f 143/301/79 145/478/81 167/299/102
f 179/304/115 181/479/114 136/302/72
f 140/311/76 138/480/73 183/309/142
f 148/314/84 71/481/16 190/312/122
f 148/314/84 73/482/17 71/481/16
f 148/314/84 146/483/82 73/482/17
f 153/317/143 186/484/118 170/315/103
f 138/328/73 136/485/72 181/326/114
f 11/3/9 12/2/10 200/486/134
f 200/486/134 109/487/46 11/3/9
f 109/487/46 5/4/5 11/3/9
f 109/487/46 107/488/45 5/4/5
f 12/2/10 107/488/45 163/489/98
f 163/489/98 200/486/134 12/2/10
f 12/2/10 6/1/6 107/488/45
f 6/1/6 5/4/5 107/488/45
f 171/490/105 127/491/145 128/492/64
f 128/492/64 172/493/106 171/490/105
f 132/359/67 176/494/110 122/357/59
f 92/366/31 211/495/138 212/364/139
f 202/496/136 208/497/137 96/498/33
f 96/498/33 95/499/32 202/496/136
f 201/375/146 93/500/29 91/373/34
f 175/384/108 131/501/66 130/382/65
f 199/403/133 200/502/134 163/401/98
usemtl metal.015
f 201/99/146 212/98/139 215/32/147
f 215/32/147 214/31/148 201/99/146
f 214/31/148 202/100/136 201/99/146
f 215/32/147 212/98/139 206/408/139
f 216/33/4 215/32/147 206/408/139
f 216/33/4 206/408/139 205/94/138
f 205/94/138 209/93/141 213/34/149
f 209/93/141 203/96/137 213/34/149
f 206/408/139 212/98/139 211/97/138
f 211/97/138 210/92/144 206/408/139
f 207/101/140 204/95/136 210/92/144
f 207/101/140 208/102/137 204/95/136
f 208/102/137 203/96/137 204/95/136
f 43/409/14 41/410/13 215/411/147
f 46/412/15 43/413/14 216/414/4
f 216/414/4 213/415/149 46/412/15
f 41/416/13 44/417/12 214/418/148
f 214/418/148 215/419/147 41/416/13
f 46/503/15 213/504/149 214/505/148
f 214/505/148 44/506/12 46/503/15
f 214/31/148 208/102/137 202/100/136
f 214/31/148 203/96/137 208/102/137
f 214/31/148 213/34/149 203/96/137
f 205/94/138 213/34/149 216/33/4
f 211/97/138 207/101/140 210/92/144
f 215/411/147 216/507/4 43/409/14
