# Blender 4.3.2
# www.blender.org
mtllib hoodModern.mtl
o hoodModern
v 0.000000 0.284900 0.030000
v 0.000000 0.000000 0.000000
v -0.430000 0.284900 0.030000
v -0.430000 0.000000 0.000000
v -0.430000 0.000000 -0.060000
v 0.000000 0.000000 -0.060000
v 0.000000 0.284900 -0.060000
v -0.430000 0.284900 -0.060000
v -0.120000 0.200000 -0.369532
v -0.120000 0.284900 -0.369532
v -0.310000 0.200000 -0.369532
v -0.310000 0.284900 -0.369532
v -0.120000 0.284900 -0.060000
v -0.310000 0.284900 -0.060000
v -0.310000 0.160000 -0.060000
v -0.120000 0.160000 -0.060000
vn 0.5831 -0.6038 0.5436
vn 0.5720 0.5488 0.6096
vn -0.5720 0.5488 0.6096
vn -0.5831 -0.6038 0.5436
vn -0.5773 -0.5774 -0.5773
vn 0.5773 -0.5773 -0.5774
vn 0.5773 0.5773 -0.5774
vn -0.5774 0.5774 -0.5774
vn 0.5774 0.5774 -0.5773
vn 0.5844 -0.5358 -0.6095
vn -0.5844 -0.5358 -0.6094
vn -0.5773 0.5774 -0.5773
vn 0.5773 0.5774 -0.5774
vn 0.2695 -0.2910 -0.9180
vn -0.0000 1.0000 -0.0000
vn -0.2695 -0.2910 -0.9180
vt 0.000000 0.000000
vt 0.000000 -11.278550
vt 16.929131 -11.278550
vt 16.929131 0.000000
vt 16.929131 0.000000
vt 16.929131 2.362205
vt -0.000000 2.362205
vt -0.000000 2.362205
vt -11.216540 2.362205
vt -11.216540 -1.181102
vt 0.000000 2.362205
vt 11.216540 -1.181102
vt 11.216540 2.362205
vt 4.724410 11.216540
vt 4.724410 7.874016
vt 12.204720 7.874016
vt 12.204720 11.216540
vt -12.204720 2.362205
vt -4.724410 2.362205
vt -4.724410 14.548490
vt -12.204720 14.548490
vt 12.204720 15.437660
vt 4.724410 15.437660
vt 4.724410 3.150043
vt 4.724410 6.299212
vt -0.000000 11.216540
vt -0.000000 0.000000
vt -6.299212 2.362205
vt -7.874016 14.548490
vt -11.216540 14.548490
vt 12.204720 3.150043
vt 12.204720 6.299212
vt 16.929131 11.216540
vt 7.874016 14.548490
vt 6.299212 2.362205
vt 11.216540 14.548490
s 1
usemtl metalMedium
f 2/1/1 1/2/2 3/3/3
f 3/3/3 4/4/4 2/1/1
f 2/1/1 4/5/4 5/6/5
f 5/6/5 6/7/6 2/1/1
f 2/1/1 6/8/6 7/9/7
f 7/9/7 1/10/2 2/1/1
f 5/11/5 4/1/4 3/12/3
f 3/12/3 8/13/8 5/11/5
f 10/14/9 9/15/10 11/16/11
f 11/16/11 12/17/8 10/14/9
f 14/18/12 13/19/13 10/20/9
f 10/20/9 12/21/8 14/18/12
f 11/22/11 9/23/10 16/24/14
f 16/25/14 7/26/7 6/27/6
f 13/9/13 16/28/14 9/29/10
f 9/29/10 10/30/9 13/9/13
f 16/24/14 15/31/16 11/22/11
f 6/27/6 5/5/5 16/25/14
f 5/5/5 15/32/16 16/25/14
f 5/5/5 14/17/12 15/32/16
f 5/5/5 8/33/8 14/17/12
f 7/26/7 16/25/14 13/14/13
f 11/34/11 15/35/16 14/13/12
f 14/13/12 12/36/8 11/34/11
usemtl _defaultMat
f 7/12/7 8/13/8 3/11/3
s 0
f 7/12/15 13/13/15 8/11/15
f 13/12/15 14/13/15 8/11/15
s 1
f 3/12/3 1/13/2 7/11/7
