# Blender 4.3.2
# www.blender.org
mtllib gravestone-flat-open.mtl
o gravestone-flat-open.001
v 0.182730 -0.486600 -0.123933
v 0.182730 0.486600 -0.123933
v -0.182730 -0.486600 -0.123933
v -0.182730 0.486600 -0.123933
v 0.182730 -0.486600 -0.253933
v 0.182730 0.486600 -0.253933
v 0.212990 0.516860 -0.168000
v -0.212990 0.516860 -0.168000
v 0.212990 0.516860 -0.253933
v -0.212990 0.516860 -0.253933
v -0.182730 -0.486600 -0.253933
v -0.182730 0.486600 -0.253933
v -0.212990 -0.516860 -0.168000
v -0.212990 -0.516860 -0.253933
v 0.212990 -0.516860 -0.168000
v 0.212990 -0.516860 -0.253933
v -0.236000 -0.566000 -0.064000
v 0.236000 -0.566000 -0.064000
v -0.224200 -0.540800 -0.096000
v 0.224200 -0.540800 -0.096000
v 0.224200 -0.540800 -0.136000
v 0.224200 0.540800 -0.136000
v 0.224200 0.540800 -0.096000
v 0.236000 0.566000 -0.064000
v -0.236000 0.566000 -0.064000
v -0.224200 0.540800 -0.096000
v 0.236000 -0.566000 0.000000
v 0.236000 0.566000 0.000000
v -0.224200 0.540800 -0.136000
v -0.236000 -0.566000 0.000000
v -0.236000 0.566000 0.000000
v -0.224200 -0.540800 -0.136000
v 0.212990 0.516860 -0.272000
v -0.212990 0.516860 -0.272000
v 0.000000 0.516860 -0.370000
v -0.212990 -0.516860 -0.272000
v 0.212990 -0.516860 -0.272000
v 0.000000 -0.516860 -0.370000
vn 0.5774 0.5773 -0.5773
vn -0.5774 -0.5773 -0.5773
vn -0.5774 0.5774 -0.5774
vn 0.5774 -0.5774 -0.5774
vn -0.3015 0.3015 -0.9045
vn -0.3015 -0.3015 -0.9045
vn -0.7149 0.5996 -0.3596
vn 0.7071 0.7071 -0.0000
vn -0.7071 0.7071 -0.0000
vn 0.3015 0.3015 -0.9045
vn 0.3015 -0.3015 -0.9045
vn -0.7071 -0.7071 -0.0000
vn -0.7149 -0.5996 -0.3596
vn 0.7149 -0.5996 -0.3596
vn 0.7071 -0.7071 -0.0000
vn 0.7149 0.5996 -0.3596
vn -0.0000 -0.0000 -1.0000
vn 0.8364 0.4163 -0.3566
vn 0.5774 -0.5774 0.5773
vn 0.8427 -0.3755 -0.3858
vn 0.5774 0.5774 0.5774
vn -0.7132 0.5928 -0.3741
vn 0.6581 0.6944 -0.2909
vn -0.6581 0.6944 -0.2909
vn -0.8367 -0.4155 -0.3567
vn -0.5774 0.5774 0.5773
vn -0.8401 0.3824 -0.3847
vn -0.6581 -0.6944 -0.2909
vn -0.7132 -0.5927 -0.3741
vn -0.5774 -0.5774 0.5774
vn 0.7132 -0.5928 -0.3741
vn 0.6581 -0.6944 -0.2909
vn 0.7132 0.5927 -0.3741
vn -0.8310 0.1609 -0.5324
vn 0.8311 0.1609 -0.5324
vn -0.0000 0.6240 -0.7814
vn -0.0000 -1.0000 -0.0000
vn 0.8310 -0.1609 -0.5324
vn -0.8311 -0.1609 -0.5324
vn -0.0000 -0.6240 -0.7814
vn -0.0000 1.0000 -0.0000
vn 1.0000 -0.0000 -0.0000
vn -0.0000 -0.0000 1.0000
vn -1.0000 -0.0000 -0.0000
vt 0.093750 0.122611
vt 0.093750 0.225000
vt 0.093750 0.157318
vt 0.843750 0.075407
vt 0.843750 0.025000
vt 0.843750 0.100611
vt 0.843750 0.132115
vt 0.843750 0.157318
vt 0.843750 0.056132
vt 0.843750 0.225000
s 1
usemtl colormap.007
f 3/1/1 2/1/2 1/1/3
f 2/1/2 3/1/1 4/1/4
f 2/1/2 5/2/5 1/1/3
f 5/2/5 2/1/2 6/2/6
f 8/3/7 9/2/8 10/2/9
f 5/2/5 3/1/1 1/1/3
f 3/1/1 5/2/5 11/2/10
f 12/2/11 2/1/2 4/1/4
f 2/1/2 12/2/11 6/2/6
f 12/2/11 3/1/1 11/2/10
f 3/1/1 12/2/11 4/1/4
f 8/3/7 14/2/12 13/3/13
f 14/2/12 8/3/7 10/2/9
f 14/2/12 15/3/14 13/3/13
f 15/3/14 14/2/12 16/2/15
f 15/3/14 9/2/8 7/3/16
f 5/2/5 14/2/17 11/2/10
f 11/2/10 14/2/17 12/2/11
f 16/2/17 5/2/5 9/2/17
f 10/2/17 6/2/6 12/2/11
f 9/2/17 6/2/6 10/2/17
f 24/4/18 27/5/19 18/4/20
f 27/5/19 24/4/18 28/5/21
f 26/6/22 22/7/23 29/7/24
f 17/4/25 31/5/26 25/4/27
f 26/6/22 32/7/28 19/6/29
f 7/8/16 29/7/24 22/7/23
f 29/7/24 7/8/16 8/8/7
f 29/7/24 13/8/13 32/7/28
f 17/4/25 27/5/19 30/5/30
f 27/5/19 17/4/25 18/4/20
f 9/2/8 8/3/7 7/3/16
f 9/2/8 15/3/14 16/2/15
f 5/2/5 16/2/17 14/2/17
f 10/2/17 12/2/11 14/2/17
f 6/2/6 9/2/17 5/2/5
f 19/6/29 18/4/20 17/4/25
f 18/4/20 19/6/29 20/6/31
f 22/7/23 20/6/31 21/7/32
f 20/6/31 22/7/23 23/6/33
f 20/6/31 24/4/18 18/4/20
f 24/4/18 20/6/31 23/6/33
f 23/6/33 25/4/27 24/4/18
f 25/4/27 23/6/33 26/6/22
f 25/4/27 19/6/29 17/4/25
f 19/6/29 25/4/27 26/6/22
f 15/8/14 22/7/23 21/7/32
f 22/7/23 15/8/14 7/8/16
f 22/7/23 26/6/22 23/6/33
f 31/5/26 17/4/25 30/5/30
f 31/5/26 27/5/19 28/5/21
f 27/5/19 31/5/26 30/5/30
f 32/7/28 20/6/31 19/6/29
f 20/6/31 32/7/28 21/7/32
f 32/7/28 26/6/22 29/7/24
f 13/8/13 21/7/32 32/7/28
f 21/7/32 13/8/13 15/8/14
f 13/8/13 29/7/24 8/8/7
f 24/4/18 31/5/26 28/5/21
f 31/5/26 24/4/18 25/4/27
f 34/9/34 33/9/35 35/10/36
f 9/5/37 10/5/37 33/9/37
f 34/9/37 33/9/37 10/5/37
f 37/9/38 36/9/39 38/10/40
f 14/5/41 16/5/41 36/9/41
f 37/9/41 36/9/41 16/5/41
f 33/9/35 16/5/42 37/9/38
f 16/5/42 33/9/35 9/5/42
f 16/5/43 10/5/43 14/5/43
f 9/5/17 16/5/17 10/5/17
f 10/5/44 36/9/39 14/5/44
f 36/9/39 10/5/44 34/9/34
f 36/9/39 35/10/36 38/10/40
f 35/10/36 36/9/39 34/9/34
f 38/10/40 33/9/35 37/9/38
f 33/9/35 38/10/40 35/10/36
