# Blender 4.3.2
# www.blender.org
mtllib floor.156.mtl
o floor.153
v -0.000000 0.000000 0.000000
v 0.500000 0.000000 0.000000
v -0.000000 0.000000 -0.025000
v 0.500000 0.000000 -0.025000
v -0.500000 -0.500000 0.000000
v -0.000000 -0.500000 0.000000
v -0.500000 -0.500000 -0.025000
v -0.000000 -0.500000 -0.025000
v -0.500000 0.000000 -0.025000
v 0.500000 0.500000 -0.025000
v -0.000000 0.500000 -0.025000
v -0.500000 0.000000 0.000000
v 0.500000 0.500000 0.000000
v -0.000000 0.500000 0.000000
v -0.500000 0.500000 0.000000
v 0.500000 -0.500000 0.000000
vn -0.5773 -0.5773 -0.5774
vn 0.5773 -0.5773 -0.5774
vn 0.5774 -0.5774 -0.5774
vn -0.7071 -0.7071 -0.0000
vn 0.5773 0.5773 -0.5774
vn -0.5774 0.5774 -0.5774
vn -0.5773 0.5773 -0.5774
vn 0.7071 0.7071 -0.0000
vn -0.0000 -0.0000 -1.0000
vt 0.593750 0.225000
vt 0.593750 0.025000
s 1
usemtl colormap.168
f 3/1/1 2/2/2 1/2/3
f 2/2/2 3/1/1 4/1/3
f 7/1/1 6/2/2 5/2/4
f 6/2/2 7/1/1 8/1/3
f 7/1/1 3/1/5 8/1/3
f 3/1/5 7/1/1 9/1/6
f 3/1/1 10/1/5 4/1/3
f 10/1/5 3/1/1 11/1/6
f 12/2/7 7/1/1 5/2/4
f 7/1/1 12/2/7 9/1/6
f 3/1/5 6/2/2 8/1/3
f 10/1/5 2/2/2 4/1/3
f 2/2/2 10/1/5 13/2/8
f 3/1/5 12/2/7 1/2/6
f 14/2/7 10/1/5 11/1/6
f 3/1/1 14/2/7 11/1/6
f 14/2/7 12/2/7 15/2/9
f 6/2/2 2/2/2 16/2/9
f 6/2/2 3/1/5 1/2/3
f 12/2/7 3/1/5 9/1/6
f 10/1/5 14/2/7 13/2/8
f 14/2/7 3/1/1 1/2/6
f 12/2/7 14/2/7 1/2/6
f 2/2/2 6/2/2 1/2/3
