# Blender 4.3.2
# www.blender.org
mtllib donut.mtl
o donut.004
v 0.041438 -0.023924 -0.070592
v 0.000000 -0.047849 -0.070592
v 0.051557 -0.029767 -0.088892
v 0.000000 -0.059533 -0.088892
v 0.051557 -0.029767 0.000000
v 0.041438 -0.023924 -0.018300
v 0.051557 0.029767 0.000000
v 0.041438 0.023924 -0.018300
v 0.000000 -0.047849 -0.018300
v -0.041438 -0.023924 -0.018300
v -0.041438 -0.023924 -0.070592
v -0.041438 0.023924 -0.070592
v -0.041438 0.023924 -0.018300
v -0.051557 0.029767 0.000000
v 0.000000 0.059533 0.000000
v 0.000000 0.047849 -0.018300
v 0.000000 -0.059533 0.000000
v -0.051557 -0.029767 0.000000
v 0.051557 0.029767 -0.088892
v 0.041438 0.023924 -0.070592
v 0.000000 0.047849 -0.070592
v 0.000000 -0.114101 -0.088892
v -0.098814 -0.057050 -0.088892
v 0.000000 -0.131150 -0.075099
v -0.113579 -0.065575 -0.075099
v -0.051557 0.029767 -0.088892
v 0.000000 0.059533 -0.088892
v -0.051557 -0.029767 -0.088892
v 0.000000 -0.114101 0.000000
v 0.000000 -0.131150 -0.013794
v -0.098814 -0.057050 0.000000
v -0.113579 -0.065575 -0.013794
v -0.098814 0.057050 0.000000
v -0.113579 0.065575 -0.013794
v 0.113579 -0.065575 -0.075099
v 0.098814 -0.057050 -0.088892
v 0.113579 0.065575 -0.013794
v 0.098814 0.057050 0.000000
v 0.000000 0.131150 -0.013794
v 0.000000 0.114101 0.000000
v -0.098814 0.057050 -0.088892
v -0.113579 0.065575 -0.075099
v 0.000000 0.114101 -0.088892
v 0.000000 0.131150 -0.075099
v 0.113579 0.065575 -0.075099
v 0.098814 0.057050 -0.088892
v 0.113579 -0.065575 -0.013794
v 0.098814 -0.057050 0.000000
v 0.122529 0.070742 -0.044446
v 0.000000 0.141485 -0.044446
v 0.000000 -0.141485 -0.044446
v 0.122529 -0.070742 -0.044446
v -0.122529 -0.070742 -0.044446
v -0.122529 0.070742 -0.044446
vn -0.4781 0.1047 -0.8721
vn 0.4756 0.8591 -0.1891
vn -0.5873 0.3391 -0.7350
vn -0.0000 0.5572 -0.8304
vn -0.3342 -0.3921 0.8571
vn -0.6121 0.3534 0.7074
vn -0.2788 0.3588 0.8908
vn -0.4807 -0.8583 0.1795
vn 0.9824 0.0095 0.1865
vn -0.0000 0.9818 -0.1901
vn 0.8550 0.4936 0.1594
vn 0.6686 -0.7324 0.1289
vn 0.5157 -0.8348 0.1926
vn -0.2125 -0.4383 0.8733
vn 0.5203 -0.3004 0.7994
vn -0.0000 -0.6845 0.7291
vn 0.4858 0.0351 0.8733
vn -0.0000 0.5572 0.8304
vn -0.2733 -0.4032 -0.8733
vn -0.6003 -0.3466 -0.7207
vn 0.2836 -0.9534 0.1025
vn 0.0357 -0.5175 -0.8549
vn -0.5697 -0.5864 -0.5759
vn -0.3012 -0.1739 -0.9376
vn 0.4836 -0.0368 -0.8745
vn -0.0000 -0.6008 -0.7994
vn 0.0302 -0.5142 0.8571
vn -0.0000 -0.3622 0.9321
vn -0.4346 -0.1639 0.8856
vn -0.2143 -0.7898 0.5748
vn -0.7259 -0.1953 0.6595
vn -0.7054 0.4072 0.5802
vn 0.6991 -0.4036 -0.5902
vn 0.2143 -0.7898 -0.5748
vn 0.4345 -0.1639 -0.8856
vn -0.0257 0.5115 0.8589
vn -0.0000 0.3622 0.9321
vn 0.4346 0.1639 0.8856
vn 0.0257 0.5115 -0.8589
vn -0.0000 0.3622 -0.9321
vn -0.4382 0.1612 -0.8843
vn -0.2316 0.7832 -0.5770
vn 0.7259 -0.1953 -0.6595
vn 0.7031 0.4059 -0.5838
vn 0.7230 0.2064 0.6593
vn 0.7031 -0.4059 0.5838
vn 0.6701 -0.7199 0.1809
vn 0.2954 -0.9384 -0.1794
vn -0.9692 -0.2463 -0.0000
vn -0.6279 -0.3625 0.6887
vn 0.9571 -0.2254 0.1818
vn -0.0000 0.7199 -0.6941
vn 0.0835 0.0482 -0.9953
vn 0.2316 0.7832 0.5770
vt 0.343750 0.475000
vt 0.343750 0.433827
vt 0.343750 0.275000
vt 0.343750 0.316173
vt 0.343750 0.443965
vt 0.343750 0.306035
vt 0.343750 0.375000
s 1
usemtl colormap.035
f 3/1/1 2/2/2 1/2/3
f 2/2/2 3/1/1 4/1/4
f 7/3/5 6/4/6 5/3/7
f 6/4/6 7/3/5 8/4/8
f 2/2/2 10/4/9 9/4/10
f 10/4/9 2/2/2 11/2/11
f 12/2/12 10/4/9 11/2/11
f 10/4/9 12/2/12 13/4/13
f 13/4/13 15/3/14 14/3/15
f 15/3/14 13/4/13 16/4/16
f 9/4/10 18/3/17 17/3/18
f 18/3/17 9/4/10 10/4/9
f 1/2/3 19/1/19 3/1/1
f 19/1/19 1/2/3 20/2/20
f 21/2/21 8/4/8 16/4/16
f 8/4/8 21/2/21 20/2/20
f 9/4/10 1/2/3 2/2/2
f 23/1/22 24/5/23 25/5/24
f 21/2/21 26/1/25 27/1/26
f 27/1/26 20/2/20 21/2/21
f 20/2/20 27/1/26 19/1/19
f 11/2/11 26/1/25 12/2/12
f 17/3/18 6/4/6 9/4/10
f 16/4/16 12/2/12 21/2/21
f 8/4/8 1/2/3 6/4/6
f 1/2/3 8/4/8 20/2/20
f 4/1/4 11/2/11 2/2/2
f 16/4/16 7/3/5 15/3/14
f 7/3/5 16/4/16 8/4/8
f 31/3/27 30/6/28 29/3/29
f 30/6/28 31/3/27 32/6/30
f 34/6/31 31/3/27 33/3/32
f 31/3/27 34/6/31 32/6/30
f 24/5/23 36/1/33 35/5/34
f 36/1/33 24/5/23 22/1/35
f 38/3/36 39/6/37 40/3/38
f 41/1/39 44/5/40 43/1/41
f 44/5/40 41/1/39 42/5/42
f 45/5/43 36/1/33 46/1/44
f 46/1/44 44/5/40 45/5/43
f 44/5/40 46/1/44 43/1/41
f 47/6/45 38/3/36 48/3/46
f 48/3/46 30/6/28 47/6/45
f 30/6/28 48/3/46 29/3/29
f 51/7/47 47/6/45 30/6/28
f 52/7/48 24/5/23 35/5/34
f 32/6/30 54/7/49 53/7/50
f 25/5/24 54/7/49 42/5/42
f 25/5/24 51/7/47 53/7/50
f 49/7/51 47/6/45 52/7/48
f 44/5/40 54/7/49 50/7/52
f 54/7/49 44/5/40 42/5/42
f 43/1/41 19/1/19 27/1/26
f 46/1/44 19/1/19 43/1/41
f 43/1/41 26/1/25 41/1/39
f 19/1/19 46/1/44 3/1/1
f 3/1/1 36/1/33 22/1/35
f 41/1/39 26/1/25 23/1/22
f 4/1/4 22/1/35 23/1/22
f 28/1/53 23/1/22 26/1/25
f 4/1/4 23/1/22 28/1/53
f 15/3/14 33/3/32 14/3/15
f 29/3/29 5/3/7 17/3/18
f 48/3/46 5/3/7 29/3/29
f 5/3/7 48/3/46 7/3/5
f 38/3/36 7/3/5 48/3/46
f 1/2/3 9/4/10 6/4/6
f 24/5/23 23/1/22 22/1/35
f 26/1/25 21/2/21 12/2/12
f 26/1/25 11/2/11 28/1/53
f 6/4/6 17/3/18 5/3/7
f 10/4/9 14/3/15 18/3/17
f 14/3/15 10/4/9 13/4/13
f 12/2/12 16/4/16 13/4/13
f 11/2/11 4/1/4 28/1/53
f 39/6/37 38/3/36 37/6/54
f 25/5/24 41/1/39 23/1/22
f 41/1/39 25/5/24 42/5/42
f 39/6/37 33/3/32 40/3/38
f 33/3/32 39/6/37 34/6/31
f 36/1/33 45/5/43 35/5/34
f 38/3/36 47/6/45 37/6/54
f 49/7/51 39/6/37 37/6/54
f 39/6/37 49/7/51 50/7/52
f 45/5/43 50/7/52 49/7/51
f 50/7/52 45/5/43 44/5/40
f 47/6/45 51/7/47 52/7/48
f 24/5/23 52/7/48 51/7/47
f 54/7/49 32/6/30 34/6/31
f 54/7/49 25/5/24 53/7/50
f 53/7/50 30/6/28 32/6/30
f 30/6/28 53/7/50 51/7/47
f 51/7/47 25/5/24 24/5/23
f 35/5/34 49/7/51 52/7/48
f 49/7/51 35/5/34 45/5/43
f 47/6/45 49/7/51 37/6/54
f 50/7/52 34/6/31 39/6/37
f 34/6/31 50/7/52 54/7/49
f 43/1/41 27/1/26 26/1/25
f 36/1/33 3/1/1 46/1/44
f 3/1/1 22/1/35 4/1/4
f 14/3/15 33/3/32 18/3/17
f 15/3/14 40/3/38 33/3/32
f 31/3/27 18/3/17 33/3/32
f 31/3/27 17/3/18 18/3/17
f 29/3/29 17/3/18 31/3/27
f 7/3/5 40/3/38 15/3/14
f 7/3/5 38/3/36 40/3/38
