# Blender 4.3.2
# www.blender.org
mtllib wall-door-rotate.mtl
o wall-door-rotate
v 0.400000 -0.300000 -0.150000
v 0.500000 -0.300000 -0.150000
v 0.400000 -0.250000 -0.200000
v 0.500000 -0.250000 -0.200000
v -0.400000 -0.300000 -0.150000
v -0.400000 -0.250000 -0.200000
v -0.500000 -0.300000 -0.150000
v -0.500000 -0.250000 -0.200000
v -0.500000 -0.300000 0.000000
v -0.400000 -0.300000 -0.000000
v 0.500000 -0.300000 0.000000
v 0.400000 -0.300000 -0.000000
v 0.400000 0.300000 -0.000000
v 0.400000 0.250000 -0.200000
v 0.400000 0.300000 -0.150000
v -0.400000 0.300000 -0.000000
v -0.500000 0.300000 -0.000000
v -0.400000 0.300000 -0.150000
v -0.500000 0.300000 -0.150000
v -0.400000 0.250000 -0.200000
v 0.500000 0.300000 -0.000000
v 0.500000 0.300000 -0.150000
v -0.500000 0.250000 -0.200000
v 0.500000 0.250000 -0.200000
v -0.500000 0.250000 -1.000000
v -0.500000 0.250000 -0.600000
v -0.500000 -0.250000 -1.000000
v 0.500000 -0.250000 -1.000000
v 0.500000 0.250000 -1.000000
v 0.500000 0.250000 -0.600000
v 0.400000 -0.250000 -0.900000
v 0.400000 0.250000 -0.900000
v 0.400000 0.250000 -0.600000
v -0.400000 -0.250000 -0.900000
v -0.400000 -0.250000 -0.200000
v -0.400000 0.250000 -0.900000
v -0.400000 0.250000 -0.200000
v -0.400000 0.250000 -0.600000
v -0.400000 -0.300000 -0.000000
v -0.400000 0.300000 -0.000000
v 0.000000 0.150000 -0.000000
v 0.000000 0.050000 -0.000000
v -0.400000 0.150000 -0.000000
v -0.400000 0.050000 -0.000000
v 0.000000 0.050000 -0.900000
v 0.000000 0.150000 -0.900000
v -0.400000 0.050000 -0.900000
v -0.400000 0.150000 -0.900000
v -0.050000 0.150000 -0.800000
v -0.050000 0.050000 -0.800000
v -0.300000 0.150000 -0.800000
v -0.300000 0.050000 -0.800000
v -0.300000 0.050000 -0.100000
v -0.300000 0.150000 -0.100000
v -0.050000 0.050000 -0.100000
v -0.050000 0.150000 -0.100000
v -0.425000 0.025000 -0.700000
v -0.350000 0.025000 -0.700000
v -0.425000 0.025000 -0.800000
v -0.350000 0.025000 -0.800000
v -0.350000 0.175000 -0.700000
v -0.425000 0.175000 -0.700000
v -0.350000 0.175000 -0.800000
v -0.425000 0.175000 -0.800000
v -0.425000 0.025000 -0.100000
v -0.350000 0.025000 -0.100000
v -0.425000 0.025000 -0.200000
v -0.350000 0.025000 -0.200000
v -0.350000 0.175000 -0.100000
v -0.425000 0.175000 -0.100000
v -0.350000 0.175000 -0.200000
v -0.425000 0.175000 -0.200000
v -0.100000 0.150000 -0.236759
v -0.050000 0.150000 -0.236759
v -0.100000 0.150000 -0.436759
v -0.050000 0.150000 -0.436759
v -0.050000 0.200000 -0.236759
v -0.100000 0.200000 -0.236759
v -0.050000 0.200000 -0.436759
v -0.100000 0.200000 -0.436759
v -0.050000 0.185355 -0.201403
v -0.050000 0.150000 -0.186759
v -0.100000 0.185355 -0.201403
v -0.100000 0.150000 -0.186759
v -0.050000 0.185355 -0.472114
v -0.100000 0.185355 -0.472114
v -0.050000 0.150000 -0.486759
v -0.100000 0.150000 -0.486759
v -0.050000 0.050000 -0.186759
v -0.100000 0.050000 -0.186759
v -0.050000 0.050000 -0.236759
v -0.100000 0.050000 -0.236759
v -0.100000 0.000000 -0.236759
v -0.050000 0.000000 -0.236759
v -0.100000 0.000000 -0.436759
v -0.050000 0.000000 -0.436759
v -0.050000 0.014645 -0.201403
v -0.100000 0.014645 -0.201403
v -0.100000 0.050000 -0.436759
v -0.100000 0.050000 -0.486759
v -0.100000 0.014645 -0.472114
v -0.050000 0.014645 -0.472114
v -0.050000 0.050000 -0.436759
v -0.050000 0.050000 -0.486759
v -0.300000 0.050000 -0.100000
v -0.050000 0.050000 -0.100000
v -0.300000 0.050000 -0.800000
v -0.050000 0.050000 -0.800000
v -0.050000 0.100000 -0.100000
v -0.300000 0.100000 -0.100000
v -0.050000 0.100000 -0.800000
v -0.300000 0.100000 -0.800000
v 0.400000 0.050000 -0.900000
v 0.400000 0.150000 -0.900000
v 0.050000 0.050000 -0.800000
v 0.050000 0.150000 -0.800000
v 0.050000 0.050000 -0.100000
v 0.050000 0.150000 -0.100000
v 0.300000 0.150000 -0.800000
v 0.300000 0.050000 -0.800000
v 0.300000 0.050000 -0.100000
v 0.300000 0.150000 -0.100000
v 0.400000 0.150000 -0.000000
v 0.400000 0.050000 -0.000000
v 0.425000 0.025000 -0.100000
v 0.350000 0.025000 -0.100000
v 0.425000 0.025000 -0.200000
v 0.350000 0.025000 -0.200000
v 0.350000 0.175000 -0.100000
v 0.425000 0.175000 -0.100000
v 0.350000 0.175000 -0.200000
v 0.425000 0.175000 -0.200000
v 0.050000 0.150000 -0.236759
v 0.100000 0.150000 -0.236759
v 0.050000 0.150000 -0.436759
v 0.100000 0.150000 -0.436759
v 0.100000 0.200000 -0.236759
v 0.050000 0.200000 -0.236759
v 0.100000 0.200000 -0.436759
v 0.050000 0.200000 -0.436759
v 0.100000 0.185355 -0.201403
v 0.100000 0.150000 -0.186759
v 0.050000 0.185355 -0.201403
v 0.050000 0.150000 -0.186759
v 0.100000 0.185355 -0.472114
v 0.050000 0.185355 -0.472114
v 0.100000 0.150000 -0.486759
v 0.050000 0.150000 -0.486759
v 0.100000 0.050000 -0.186759
v 0.050000 0.050000 -0.186759
v 0.100000 0.050000 -0.236759
v 0.050000 0.050000 -0.236759
v 0.050000 0.000000 -0.236759
v 0.100000 0.000000 -0.236759
v 0.050000 0.000000 -0.436759
v 0.100000 0.000000 -0.436759
v 0.100000 0.014645 -0.201403
v 0.050000 0.014645 -0.201403
v 0.050000 0.050000 -0.436759
v 0.050000 0.050000 -0.486759
v 0.050000 0.014645 -0.472114
v 0.100000 0.014645 -0.472114
v 0.100000 0.050000 -0.436759
v 0.100000 0.050000 -0.486759
v 0.425000 0.025000 -0.700000
v 0.350000 0.025000 -0.700000
v 0.425000 0.025000 -0.800000
v 0.350000 0.025000 -0.800000
v 0.350000 0.175000 -0.700000
v 0.425000 0.175000 -0.700000
v 0.350000 0.175000 -0.800000
v 0.425000 0.175000 -0.800000
v 0.300000 0.050000 -0.100000
v 0.050000 0.050000 -0.100000
v 0.300000 0.050000 -0.800000
v 0.050000 0.050000 -0.800000
v 0.050000 0.100000 -0.100000
v 0.300000 0.100000 -0.100000
v 0.050000 0.100000 -0.800000
v 0.300000 0.100000 -0.800000
vn -0.7516 -0.6095 -0.2524
vn 0.2576 -0.8927 -0.3698
vn -0.6596 -0.5576 -0.5041
vn 0.1831 -0.9083 -0.3762
vn -0.5773 -0.5774 0.5773
vn 0.1096 -0.7028 0.7028
vn -0.5773 0.5774 0.5774
vn -0.8042 0.5491 -0.2275
vn -0.6578 0.4707 -0.5880
vn -0.7071 0.7071 -0.0000
vn 0.2576 0.8927 -0.3698
vn -0.6597 0.7508 0.0315
vn 0.8055 -0.5218 -0.2810
vn 0.7071 0.7071 -0.0000
vn 0.7071 -0.7071 -0.0000
vn 0.8320 -0.3922 -0.3922
vn 0.8321 0.3922 -0.3922
vn 0.1096 0.7029 0.7028
vn 0.2876 0.8848 -0.3665
vn -0.9285 0.2626 -0.2626
vn -0.4035 -0.7119 -0.5748
vn -0.9063 -0.2989 -0.2989
vn -0.7071 -0.7071 -0.0000
vn 0.1831 0.9083 -0.3762
vn -1.0000 -0.0000 -0.0000
vn 1.0000 -0.0000 -0.0000
vn -0.0000 -0.0000 -1.0000
vn -0.0000 -0.0000 1.0000
vn -0.0000 -1.0000 -0.0000
vn -0.0000 1.0000 -0.0000
vn 0.8944 -0.0001 0.4472
vn -0.8944 -0.0000 0.4473
vn -0.8944 -0.0000 0.4472
vn 0.8944 -0.0000 0.4473
vn 0.8944 0.0001 -0.4472
vn 0.8944 -0.0000 -0.4473
vn -0.8944 -0.0000 -0.4473
vn -0.8944 -0.0000 -0.4472
vn -0.0000 0.9808 -0.1951
vn -0.0000 0.9808 0.1951
vn -0.0000 0.7071 0.7071
vn -0.0000 0.1951 0.9808
vn -0.0000 0.7071 -0.7071
vn -0.0000 0.1951 -0.9808
vn -0.0000 -0.1951 0.9808
vn -0.0000 -0.9808 -0.1951
vn -0.0000 -0.9808 0.1951
vn -0.0000 -0.7071 0.7071
vn -0.0000 -0.7071 -0.7071
vn -0.0000 -0.1951 -0.9808
vn 0.8944 -0.0000 -0.4472
vn 0.8944 -0.0000 0.4472
vt 0.468750 0.225000
vt 0.468750 0.175000
vt 0.468750 0.025000
vt 0.218750 0.025000
vt 0.218750 0.175000
vt 0.218750 0.225000
vt 0.093750 0.025000
vt 0.093750 0.055000
vt 0.093750 0.065000
vt 0.093750 0.225000
vt 0.093750 0.145000
vt 0.093750 0.205000
vt 0.218750 0.065000
vt 0.218750 0.205000
vt 0.218750 0.145000
vt 0.218750 0.475000
vt 0.218750 0.275000
vt 0.218750 0.202778
vt 0.218750 0.047222
vt 0.468750 0.191667
vt 0.468750 0.058333
vt 0.468750 0.034763
vt 0.468750 0.215237
vt 0.218750 0.375000
s 1
usemtl colormap.013
f 3/1/1 2/2/2 1/2/3
f 2/2/2 3/1/1 4/1/4
f 12/3/5 2/2/2 11/3/6
f 2/2/2 12/3/5 1/2/3
f 13/4/7 1/5/3 12/4/5
f 14/6/8 13/4/7 15/5/9
f 17/4/10 18/5/11 19/5/12
f 5/5/13 16/4/14 10/4/15
f 16/4/14 5/5/13 6/6/16
f 16/4/14 6/6/16 20/6/17
f 16/4/14 20/6/17 18/5/11
f 21/4/18 15/5/9 13/4/7
f 15/5/9 21/4/18 22/5/19
f 23/6/20 18/5/11 20/6/17
f 18/5/11 23/6/20 19/5/12
f 22/5/19 14/6/8 15/5/9
f 7/2/21 6/1/16 5/2/13
f 6/1/16 7/2/21 8/1/22
f 7/2/21 10/3/15 9/3/23
f 10/3/15 7/2/21 5/2/13
f 1/5/3 13/4/7 3/6/1
f 3/6/1 13/4/7 14/6/8
f 18/5/11 17/4/10 16/4/14
f 14/6/8 22/5/19 24/6/24
f 17/7/10 7/8/21 9/7/23
f 7/8/21 17/7/10 8/9/22
f 8/9/22 17/7/10 23/9/20
f 23/9/20 17/7/10 19/8/12
f 8/9/22 23/9/20 25/10/25
s 0
f 25/10/25 23/9/25 26/11/25
s 1
f 25/10/25 27/10/25 8/9/25
f 29/10/26 4/9/26 28/10/26
f 30/11/26 4/9/26 29/10/26
f 24/9/26 4/9/26 30/11/26
f 21/7/26 4/9/26 24/9/26
f 21/7/18 24/9/24 22/8/19
f 11/7/26 4/9/26 21/7/26
f 4/9/4 11/7/6 2/8/2
f 28/10/27 25/10/27 29/10/27
f 25/10/27 28/10/27 27/10/27
f 3/9/25 32/12/25 31/12/25
f 32/12/25 3/9/1 14/9/8
s 0
f 32/12/25 14/9/25 33/11/25
s 1
f 36/12/26 35/9/26 34/12/26
f 35/9/26 36/12/26 37/9/26
s 0
f 37/9/26 36/12/26 38/11/26
s 1
f 32/12/28 34/12/28 31/12/28
f 34/12/28 32/12/28 36/12/28
f 21/4/18 12/4/5 11/4/6
f 12/4/5 21/4/18 13/4/7
f 40/4/28 9/4/28 39/4/28
f 9/4/28 40/4/28 17/4/28
f 27/6/29 35/13/29 8/13/29
f 35/13/29 27/6/29 34/14/29
f 34/14/29 27/6/29 31/14/29
f 28/6/29 31/14/29 27/6/29
f 4/13/4 31/14/29 28/6/29
f 31/14/29 4/13/4 3/13/1
f 29/6/30 33/15/30 30/15/30
f 33/15/30 29/6/30 32/14/30
f 32/14/30 29/6/30 36/14/30
f 25/6/30 36/14/30 29/6/30
f 26/15/30 36/14/30 25/6/30
f 36/14/30 26/15/30 38/15/30
f 38/16/30 23/17/30 37/17/30
f 23/17/30 38/16/30 26/16/30
f 30/16/30 14/17/8 24/17/24
f 14/17/8 30/16/30 33/16/30
f 43/4/28 42/4/28 41/4/28
f 42/4/28 43/4/28 44/4/28
f 47/6/27 46/6/27 45/6/27
f 46/6/27 47/6/27 48/6/27
f 44/4/25 48/6/25 47/6/25
f 48/6/25 44/4/25 43/4/25
f 46/6/26 42/4/26 45/6/26
f 42/4/26 46/6/26 41/4/26
f 51/18/31 50/18/32 49/18/33
f 50/18/32 51/18/31 52/18/34
f 51/18/31 53/19/35 52/18/34
f 53/19/35 51/18/31 54/19/36
f 53/19/35 56/19/37 55/19/38
f 56/19/37 53/19/35 54/19/36
f 55/19/38 49/18/33 50/18/32
f 49/18/33 55/19/38 56/19/37
f 53/19/29 47/6/29 52/18/29
f 52/18/29 47/6/29 50/18/29
f 53/19/29 44/4/29 47/6/29
f 45/6/29 50/18/29 47/6/29
f 44/4/29 53/19/29 42/4/29
f 45/6/29 55/19/29 50/18/29
f 42/4/29 55/19/29 45/6/29
f 55/19/29 42/4/29 53/19/29
f 41/4/30 56/19/30 43/4/30
f 56/19/30 41/4/30 46/6/30
f 54/19/30 43/4/30 56/19/30
f 56/19/30 46/6/30 49/18/30
f 43/4/30 54/19/30 48/6/30
f 49/18/30 46/6/30 51/18/30
f 48/6/30 54/19/30 51/18/30
f 48/6/30 51/18/30 46/6/30
f 59/1/29 58/3/15 57/3/29
f 58/3/15 59/1/29 60/1/15
f 63/1/14 62/3/30 61/3/14
f 62/3/30 63/1/14 64/1/30
f 62/3/25 59/1/25 57/3/25
f 59/1/25 62/3/25 64/1/25
f 59/1/27 63/1/27 60/1/27
f 63/1/27 59/1/27 64/1/27
f 63/1/14 58/3/15 60/1/15
f 58/3/15 63/1/14 61/3/14
f 62/3/28 58/3/28 61/3/28
f 58/3/28 62/3/28 57/3/28
f 67/1/29 66/3/15 65/3/29
f 66/3/15 67/1/29 68/1/15
f 71/1/14 70/3/30 69/3/14
f 70/3/30 71/1/14 72/1/30
f 70/3/25 67/1/25 65/3/25
f 67/1/25 70/3/25 72/1/25
f 67/1/27 71/1/27 68/1/27
f 71/1/27 67/1/27 72/1/27
f 71/1/14 66/3/15 68/1/15
f 66/3/15 71/1/14 69/3/14
f 70/3/28 66/3/28 69/3/28
f 66/3/28 70/3/28 65/3/28
f 75/20/29 74/21/29 73/21/29
f 74/21/29 75/20/29 76/20/29
f 79/20/39 78/21/40 77/21/40
f 78/21/40 79/20/39 80/20/39
f 83/22/41 82/3/42 81/22/41
f 82/3/42 83/22/41 84/3/42
f 85/23/43 80/20/39 79/20/39
f 80/20/39 85/23/43 86/23/43
f 77/21/40 83/22/41 81/22/41
f 83/22/41 77/21/40 78/21/40
f 88/1/44 85/23/43 87/1/44
f 85/23/43 88/1/44 86/23/43
f 84/3/42 89/3/45 82/3/42
f 89/3/45 84/3/42 90/3/45
f 92/21/27 74/21/27 91/21/27
f 74/21/27 92/21/27 73/21/27
f 95/20/46 94/21/47 93/21/47
f 94/21/47 95/20/46 96/20/46
f 90/3/45 97/22/48 89/3/45
f 97/22/48 90/3/45 98/22/48
f 93/21/47 97/22/48 98/22/48
f 97/22/48 93/21/47 94/21/47
f 86/23/25 78/21/25 80/20/25
f 86/23/25 83/22/25 78/21/25
f 88/1/25 83/22/25 86/23/25
f 75/20/25 83/22/25 88/1/25
f 73/21/25 83/22/25 75/20/25
f 73/21/25 84/3/25 83/22/25
f 92/21/25 84/3/25 73/21/25
f 88/1/25 99/20/25 75/20/25
f 84/3/25 92/21/25 90/3/25
s 0
f 99/20/25 90/3/25 92/21/25
s 1
f 100/1/25 99/20/25 88/1/25
s 0
f 100/1/25 90/3/25 99/20/25
s 1
f 100/1/25 98/22/25 90/3/25
f 101/23/25 98/22/25 100/1/25
f 95/20/25 98/22/25 101/23/25
f 98/22/25 95/20/25 93/21/25
f 101/23/49 96/20/46 95/20/46
f 96/20/46 101/23/49 102/23/49
f 103/20/30 92/21/30 91/21/30
f 92/21/30 103/20/30 99/20/30
f 77/21/26 85/23/26 79/20/26
f 81/22/26 85/23/26 77/21/26
f 81/22/26 87/1/26 85/23/26
f 82/3/26 87/1/26 81/22/26
s 0
f 74/21/26 87/1/26 82/3/26
s 1
f 89/3/26 74/21/26 82/3/26
s 0
f 76/20/26 87/1/26 74/21/26
s 1
f 89/3/26 91/21/26 74/21/26
f 103/20/26 87/1/26 76/20/26
s 0
f 89/3/26 103/20/26 91/21/26
s 1
f 87/1/26 103/20/26 104/1/26
s 0
f 89/3/26 104/1/26 103/20/26
s 1
f 97/22/26 104/1/26 89/3/26
f 97/22/26 102/23/26 104/1/26
f 94/21/26 102/23/26 97/22/26
f 102/23/26 94/21/26 96/20/26
f 101/23/49 104/1/50 102/23/49
f 104/1/50 101/23/49 100/1/50
f 100/1/50 87/1/44 104/1/50
f 87/1/44 100/1/50 88/1/44
f 75/20/28 103/20/28 76/20/28
f 103/20/28 75/20/28 99/20/28
f 107/16/29 106/24/29 105/24/29
f 106/24/29 107/16/29 108/16/29
f 111/16/30 110/24/30 109/24/30
f 110/24/30 111/16/30 112/16/30
f 118/19/30 123/4/30 122/19/30
f 114/6/30 122/19/30 123/4/30
f 119/18/30 122/19/30 114/6/30
f 123/4/30 118/19/30 41/4/30
f 46/6/30 119/18/30 114/6/30
f 46/6/30 41/4/30 118/19/30
f 119/18/30 46/6/30 116/18/30
f 116/18/30 46/6/30 118/19/30
f 121/19/29 42/4/29 117/19/29
f 45/6/29 117/19/29 42/4/29
f 115/18/29 117/19/29 45/6/29
f 42/4/29 121/19/29 124/4/29
f 113/6/29 115/18/29 45/6/29
f 113/6/29 124/4/29 121/19/29
f 115/18/29 113/6/29 120/18/29
f 120/18/29 113/6/29 121/19/29
f 123/4/26 124/4/26 114/6/26
f 113/6/26 114/6/26 124/4/26
f 124/4/28 123/4/28 42/4/28
f 41/4/28 42/4/28 123/4/28
f 122/19/37 121/19/38 118/19/36
f 117/19/51 118/19/36 121/19/38
f 122/19/37 119/18/33 121/19/38
f 120/18/32 121/19/38 119/18/33
f 120/18/32 119/18/33 115/18/34
f 116/18/52 115/18/34 119/18/33
f 118/19/36 117/19/51 116/18/52
f 115/18/34 116/18/52 117/19/51
f 114/6/27 113/6/27 46/6/27
f 45/6/27 46/6/27 113/6/27
f 125/3/28 130/3/28 126/3/28
f 129/3/28 126/3/28 130/3/28
f 129/3/10 131/1/10 126/3/23
f 128/1/23 126/3/23 131/1/10
f 132/1/27 127/1/27 131/1/27
f 128/1/27 131/1/27 127/1/27
f 132/1/26 130/3/26 127/1/26
f 125/3/26 127/1/26 130/3/26
f 132/1/30 131/1/10 130/3/30
f 129/3/10 130/3/30 131/1/10
f 128/1/23 127/1/29 126/3/23
f 125/3/29 126/3/23 127/1/29
f 135/20/29 134/21/29 133/21/29
f 134/21/29 135/20/29 136/20/29
f 139/20/39 138/21/40 137/21/40
f 138/21/40 139/20/39 140/20/39
f 143/22/41 142/3/42 141/22/41
f 142/3/42 143/22/41 144/3/42
f 145/23/43 140/20/39 139/20/39
f 140/20/39 145/23/43 146/23/43
f 137/21/40 143/22/41 141/22/41
f 143/22/41 137/21/40 138/21/40
f 148/1/44 145/23/43 147/1/44
f 145/23/43 148/1/44 146/23/43
f 144/3/42 149/3/45 142/3/42
f 149/3/45 144/3/42 150/3/45
f 152/21/27 134/21/27 151/21/27
f 134/21/27 152/21/27 133/21/27
f 155/20/46 154/21/47 153/21/47
f 154/21/47 155/20/46 156/20/46
f 150/3/45 157/22/48 149/3/45
f 157/22/48 150/3/45 158/22/48
f 153/21/47 157/22/48 158/22/48
f 157/22/48 153/21/47 154/21/47
f 146/23/25 138/21/25 140/20/25
f 146/23/25 143/22/25 138/21/25
f 148/1/25 143/22/25 146/23/25
f 135/20/25 143/22/25 148/1/25
f 133/21/25 143/22/25 135/20/25
f 133/21/25 144/3/25 143/22/25
f 152/21/25 144/3/25 133/21/25
f 148/1/25 159/20/25 135/20/25
f 144/3/25 152/21/25 150/3/25
s 0
f 159/20/25 150/3/25 152/21/25
s 1
f 160/1/25 159/20/25 148/1/25
s 0
f 160/1/25 150/3/25 159/20/25
s 1
f 160/1/25 158/22/25 150/3/25
f 161/23/25 158/22/25 160/1/25
f 155/20/25 158/22/25 161/23/25
f 158/22/25 155/20/25 153/21/25
f 161/23/49 156/20/46 155/20/46
f 156/20/46 161/23/49 162/23/49
f 163/20/30 152/21/30 151/21/30
f 152/21/30 163/20/30 159/20/30
f 137/21/26 145/23/26 139/20/26
f 141/22/26 145/23/26 137/21/26
f 141/22/26 147/1/26 145/23/26
f 142/3/26 147/1/26 141/22/26
s 0
f 134/21/26 147/1/26 142/3/26
s 1
f 149/3/26 134/21/26 142/3/26
s 0
f 136/20/26 147/1/26 134/21/26
s 1
f 149/3/26 151/21/26 134/21/26
f 163/20/26 147/1/26 136/20/26
s 0
f 149/3/26 163/20/26 151/21/26
s 1
f 147/1/26 163/20/26 164/1/26
s 0
f 149/3/26 164/1/26 163/20/26
s 1
f 157/22/26 164/1/26 149/3/26
f 157/22/26 162/23/26 164/1/26
f 154/21/26 162/23/26 157/22/26
f 162/23/26 154/21/26 156/20/26
f 161/23/49 164/1/50 162/23/49
f 164/1/50 161/23/49 160/1/50
f 160/1/50 147/1/44 164/1/50
f 147/1/44 160/1/50 148/1/44
f 135/20/28 163/20/28 136/20/28
f 163/20/28 135/20/28 159/20/28
f 165/3/28 170/3/28 166/3/28
f 169/3/28 166/3/28 170/3/28
f 169/3/10 171/1/10 166/3/23
f 168/1/23 166/3/23 171/1/10
f 172/1/27 167/1/27 171/1/27
f 168/1/27 171/1/27 167/1/27
f 172/1/26 170/3/26 167/1/26
f 165/3/26 167/1/26 170/3/26
f 172/1/30 171/1/10 170/3/30
f 169/3/10 170/3/30 171/1/10
f 168/1/23 167/1/29 166/3/23
f 165/3/29 166/3/23 167/1/29
f 176/16/29 175/16/29 174/24/29
f 173/24/29 174/24/29 175/16/29
f 180/16/30 179/16/30 178/24/30
f 177/24/30 178/24/30 179/16/30
