# Blender 4.3.2
# www.blender.org
mtllib fence.mtl
o fence.001
v 0.037500 0.075000 0.000000
v -0.037500 0.075000 0.000000
v 0.037500 0.075000 -0.051000
v -0.037500 0.075000 -0.051000
v 0.075000 -0.037500 -0.051000
v 0.075000 -0.037500 0.000000
v 0.075000 0.037500 -0.051000
v 0.075000 0.037500 0.000000
v -0.037500 -0.075000 0.000000
v 0.037500 -0.075000 0.000000
v -0.037500 -0.075000 -0.051000
v 0.037500 -0.075000 -0.051000
v -0.075000 -0.037500 0.000000
v -0.075000 -0.037500 -0.051000
v -0.075000 0.037500 0.000000
v -0.075000 0.037500 -0.051000
v 0.025000 0.050000 -0.179000
v -0.025000 0.050000 -0.179000
v 0.025000 0.050000 -0.229000
v -0.025000 0.050000 -0.229000
v 0.050000 -0.025000 -0.229000
v 0.050000 -0.025000 -0.179000
v 0.050000 0.025000 -0.229000
v 0.050000 0.025000 -0.179000
v -0.025000 -0.050000 -0.179000
v 0.025000 -0.050000 -0.179000
v -0.025000 -0.050000 -0.229000
v 0.025000 -0.050000 -0.229000
v -0.050000 -0.025000 -0.179000
v -0.050000 -0.025000 -0.229000
v -0.050000 0.025000 -0.179000
v -0.050000 0.025000 -0.229000
v 0.025000 -0.025000 -0.379000
v 0.025000 0.025000 -0.379000
v -0.025000 -0.025000 -0.379000
v -0.025000 0.025000 -0.379000
v -0.025000 -0.025000 -0.051000
v -0.025000 0.025000 -0.051000
v 0.025000 -0.025000 -0.051000
v 0.025000 0.025000 -0.051000
v -0.050000 0.025000 -0.179000
v -0.050000 -0.025000 -0.179000
v -0.500000 0.025000 -0.179000
v -0.500000 -0.025000 -0.179000
v -0.050000 -0.025000 -0.229000
v -0.050000 0.025000 -0.229000
v -0.500000 -0.025000 -0.229000
v -0.500000 0.025000 -0.229000
vn 0.0687 0.8353 -0.5454
vn -0.0301 0.7509 0.6598
vn 0.3503 0.8457 0.4026
vn -0.3503 0.8457 -0.4026
vn 0.8583 0.0012 -0.5132
vn 0.8734 -0.3618 0.3260
vn 0.7508 0.0315 -0.6597
vn 0.7508 -0.0315 0.6597
vn -0.0687 -0.8353 -0.5454
vn 0.0301 -0.7509 0.6598
vn -0.3503 -0.8457 0.4026
vn 0.3503 -0.8457 -0.4026
vn -0.8583 0.0012 0.5132
vn -0.8734 -0.3618 -0.3260
vn -0.7508 0.0315 0.6597
vn -0.7508 -0.0315 -0.6597
vn 0.1031 0.8587 -0.5019
vn -0.0286 0.7509 0.6598
vn 0.3505 0.8461 0.4017
vn -0.3505 0.8461 -0.4017
vn -0.8885 -0.0441 -0.4568
vn -0.8744 0.3622 0.3229
vn 0.5097 -0.7222 -0.4676
vn 0.4941 -0.5668 0.6592
vn 0.3511 -0.8478 0.3975
vn 0.8683 -0.3596 -0.3417
vn -0.5075 -0.5543 0.6597
vn -0.8683 -0.3596 0.3417
vn -0.3511 -0.8478 -0.3975
vn 0.7502 -0.0514 -0.6592
vn -0.5773 -0.5773 -0.5774
vn 0.5773 0.5773 -0.5774
vn 0.5774 -0.5774 -0.5774
vn -0.5774 0.5774 -0.5774
vn -0.7071 0.7071 -0.0000
vn -0.7071 -0.7071 -0.0000
vn 0.7071 -0.7071 -0.0000
vn 0.7071 0.7071 -0.0000
vn -0.5774 0.5773 0.5773
vn -0.0000 -0.7071 0.7071
vn -0.0000 0.7071 0.7071
vn -0.5773 -0.5774 0.5773
vn -0.0000 0.7071 -0.7071
vn -0.5774 -0.5773 -0.5773
vn -0.0000 -0.7071 -0.7071
vt 0.218750 0.225000
vt 0.218750 0.025000
vt 0.218750 0.175000
vt 0.218750 0.108991
vt 0.468750 0.025000
vt 0.468750 0.225000
vt 0.468750 0.075000
vt 0.468750 0.075000
vt 0.468750 0.175000
s 1
usemtl colormap.006
f 3/1/1 2/2/2 1/2/3
f 2/2/2 3/1/1 4/1/4
f 7/1/5 6/2/6 5/1/7
f 6/2/6 7/1/5 8/2/8
f 11/1/9 10/2/10 9/2/11
f 10/2/10 11/1/9 12/1/12
f 15/2/13 14/1/14 13/2/15
f 14/1/14 15/2/13 16/1/16
f 15/2/13 4/1/4 16/1/16
f 7/1/5 1/2/3 8/2/8
f 1/2/3 7/1/5 3/1/1
f 12/1/12 6/2/6 10/2/10
f 14/1/14 9/2/11 13/2/15
f 9/2/11 14/1/14 11/1/9
f 3/1/1 11/1/9 4/1/4
f 4/1/4 11/1/9 14/1/14
f 4/1/4 14/1/14 16/1/16
f 1/2/3 6/2/6 8/2/8
f 6/2/6 1/2/3 10/2/10
f 10/2/10 1/2/3 2/2/2
f 10/2/10 2/2/2 9/2/11
f 9/2/11 2/2/2 15/2/13
f 9/2/11 15/2/13 13/2/15
f 19/3/17 18/4/18 17/4/19
f 18/4/18 19/3/17 20/3/20
f 30/3/21 31/4/22 32/3/16
f 20/3/20 31/4/22 18/4/18
f 28/3/23 22/4/24 26/4/25
f 22/4/24 28/3/23 21/3/26
f 30/3/21 25/4/27 29/4/28
f 25/4/27 30/3/21 27/3/29
f 28/3/23 23/3/30 21/3/26
f 23/3/30 28/3/23 19/3/17
f 19/3/17 28/3/23 27/3/29
f 19/3/17 27/3/29 20/3/20
f 20/3/20 30/3/21 32/3/16
f 26/4/25 17/4/19 18/4/18
f 26/4/25 18/4/18 25/4/27
f 25/4/27 18/4/18 31/4/22
f 25/4/27 31/4/22 29/4/28
f 35/5/31 34/5/32 33/5/33
f 34/5/32 35/5/31 36/5/34
f 38/6/35 35/5/31 37/6/36
f 34/5/32 39/6/37 33/5/33
f 39/6/37 34/5/32 40/6/38
f 34/5/32 38/6/35 40/6/38
f 38/6/35 34/5/32 36/5/34
f 43/7/39 42/8/40 41/8/41
f 42/8/40 43/7/39 44/7/42
f 46/9/43 47/9/44 48/9/34
f 46/9/43 43/7/39 41/8/41
f 43/7/39 46/9/43 48/9/34
f 44/7/42 45/9/45 42/8/40
f 45/9/45 44/7/42 47/9/44
f 43/7/39 47/9/44 44/7/42
f 47/9/44 43/7/39 48/9/34
f 4/1/4 15/2/13 2/2/2
f 6/2/6 12/1/12 5/1/7
f 12/1/12 7/1/5 5/1/7
f 7/1/5 12/1/12 3/1/1
f 3/1/1 12/1/12 11/1/9
f 23/3/30 22/4/24 21/3/26
f 22/4/24 23/3/30 24/4/8
f 27/3/29 26/4/25 25/4/27
f 26/4/25 27/3/29 28/3/23
f 31/4/22 30/3/21 29/4/28
f 31/4/22 20/3/20 32/3/16
f 23/3/30 17/4/19 24/4/8
f 17/4/19 23/3/30 19/3/17
f 20/3/20 27/3/29 30/3/21
f 17/4/19 22/4/24 24/4/8
f 22/4/24 17/4/19 26/4/25
f 35/5/31 38/6/35 36/5/34
f 35/5/31 39/6/37 37/6/36
f 39/6/37 35/5/31 33/5/33
f 47/9/44 46/9/43 45/9/45
