# Blender 4.3.2
# www.blender.org
mtllib bench-damaged.mtl
o bench-damaged
v 0.143097 -0.162747 -0.338409
v -0.126697 -0.074564 -0.174534
v 0.113823 -0.162720 -0.386618
v -0.155971 -0.074538 -0.222743
v 0.099187 -0.162707 -0.410722
v -0.095065 -0.099216 -0.292732
v 0.069913 -0.162680 -0.458931
v -0.124339 -0.099189 -0.340941
v 0.153360 -0.181060 -0.311659
v 0.157734 -0.162760 -0.314305
v -0.008517 -0.128151 -0.213334
v -0.004143 -0.109851 -0.215980
v 0.020757 -0.128177 -0.165124
v 0.182634 -0.181086 -0.263449
v -0.131071 -0.092864 -0.171888
v 0.138723 -0.181046 -0.335763
v -0.160345 -0.092838 -0.220097
v 0.109449 -0.181020 -0.383972
v 0.094813 -0.181006 -0.408076
v -0.099439 -0.117515 -0.290086
v 0.187008 -0.162787 -0.266095
v 0.025131 -0.109877 -0.167770
v 0.065539 -0.180980 -0.456285
v -0.128713 -0.117489 -0.338295
v 0.025582 -0.078482 -0.026604
v 0.252209 -0.152555 -0.164258
v 0.016552 -0.075530 -0.043058
v 0.243179 -0.149603 -0.180713
v 0.269636 -0.099235 -0.164258
v 0.043009 -0.025162 -0.026604
v 0.260606 -0.096284 -0.180713
v 0.033979 -0.022210 -0.043058
v 0.321919 0.060724 -0.164258
v 0.176230 0.108343 -0.075766
v 0.312889 0.063676 -0.180713
v 0.167200 0.111294 -0.092221
v 0.295778 -0.019255 -0.164258
v 0.278350 -0.072575 -0.164258
v -0.006392 0.079509 0.019281
v -0.023819 0.026189 0.019281
v 0.286748 -0.016304 -0.180713
v -0.015422 0.082460 0.002827
v 0.295462 0.010356 -0.180713
v 0.149773 0.057974 -0.092221
v 0.269320 -0.069624 -0.180713
v -0.032849 0.029140 0.002827
v 0.158803 0.055023 -0.075766
v 0.304491 0.007404 -0.164258
v -0.399422 -0.023471 -0.164258
v -0.196538 -0.077834 -0.042991
v -0.390246 -0.025930 -0.180713
v -0.187362 -0.080293 -0.059446
v -0.182019 -0.023650 -0.042991
v -0.384904 0.030713 -0.164258
v -0.172843 -0.026108 -0.059446
v -0.375728 0.028254 -0.180713
v -0.067180 0.119802 -0.000384
v -0.341348 0.193266 -0.164258
v -0.058004 0.117344 -0.016838
v -0.332172 0.190807 -0.180713
v -0.247975 0.081135 -0.095431
v -0.262494 0.026951 -0.095431
v -0.363126 0.111989 -0.164258
v -0.377645 0.057805 -0.164258
v -0.238799 0.078676 -0.111886
v -0.353950 0.109531 -0.180713
v -0.072522 0.063160 -0.016838
v -0.346690 0.136623 -0.180713
v -0.253318 0.024492 -0.111886
v -0.368468 0.055346 -0.180713
v -0.355867 0.139081 -0.164258
v -0.081698 0.065618 -0.000384
v -0.171016 -0.129796 -0.253194
v -0.313584 -0.091595 -0.338409
v -0.146479 -0.145760 -0.301403
v -0.289046 -0.107560 -0.386618
v -0.079376 -0.168435 -0.292732
v -0.276777 -0.115541 -0.410722
v -0.054838 -0.184399 -0.340941
v -0.252239 -0.131506 -0.458931
v -0.058013 -0.174795 -0.147784
v -0.051684 -0.157076 -0.150430
v -0.332182 -0.101332 -0.311659
v -0.325853 -0.083613 -0.314305
v -0.356719 -0.085367 -0.263449
v -0.082551 -0.158831 -0.099574
v -0.319913 -0.109314 -0.335763
v -0.177345 -0.147515 -0.250548
v -0.295375 -0.125278 -0.383972
v -0.152808 -0.163479 -0.298757
v -0.085705 -0.186153 -0.290086
v -0.283106 -0.133260 -0.408076
v -0.076222 -0.141112 -0.102220
v -0.350390 -0.067649 -0.266095
v -0.061167 -0.202118 -0.338295
v -0.258569 -0.149224 -0.456285
v 0.312889 0.063676 -0.180713
v 0.359810 0.048340 -0.209213
v 0.281285 0.074006 -0.238304
v 0.328205 0.058670 -0.266804
v 0.290100 -0.164939 -0.209213
v 0.243179 -0.149603 -0.180713
v 0.255129 -0.164908 -0.266804
v 0.208208 -0.149572 -0.238304
v 0.228247 -0.164883 -0.311074
v 0.181326 -0.149547 -0.282574
v 0.111152 -0.164777 -0.503909
v 0.064232 -0.149441 -0.475409
v 0.107298 -0.176568 -0.503909
v 0.060378 -0.161232 -0.475409
v 0.303911 0.066610 -0.311074
v 0.256990 0.081946 -0.282574
v 0.412061 0.031261 0.000000
v 0.337183 0.055735 -0.136444
v 0.427942 0.079849 0.000000
v 0.267473 -0.157544 -0.136444
v 0.342351 -0.182018 0.000000
v 0.268185 0.105177 -0.276643
v 0.282890 0.120054 -0.260439
v 0.297166 0.122594 -0.238304
v 0.227298 -0.198191 -0.180713
v 0.326470 -0.230606 0.000000
v 0.057331 -0.179140 -0.470787
v 0.059045 -0.190132 -0.462052
v 0.068444 -0.198048 -0.442319
v 0.389271 -0.197354 -0.028500
v 0.373390 -0.245942 -0.028500
v 0.474863 0.064513 -0.028500
v 0.344086 0.107258 -0.266804
v 0.314394 -0.172880 -0.164944
v 0.458982 0.015925 -0.028500
v 0.274218 -0.213528 -0.209213
v 0.384104 0.040399 -0.164944
v 0.115364 -0.213384 -0.470819
v 0.329811 0.104718 -0.288939
v 0.315106 0.089840 -0.305143
v 0.104252 -0.194476 -0.499287
v 0.105966 -0.205468 -0.490552
v -0.379853 0.203583 -0.209213
v -0.332172 0.190807 -0.180713
v -0.347736 0.194977 -0.266804
v -0.300055 0.182201 -0.238304
v -0.390246 -0.025930 -0.180713
v -0.437928 -0.013154 -0.209213
v -0.360933 -0.045001 -0.238304
v -0.408615 -0.032225 -0.266804
v -0.338400 -0.059660 -0.282574
v -0.386082 -0.046884 -0.311074
v -0.240250 -0.123517 -0.475409
v -0.287931 -0.110741 -0.503909
v -0.243461 -0.135499 -0.475409
v -0.291142 -0.122723 -0.503909
v -0.275366 0.175586 -0.282574
v -0.323048 0.188362 -0.311074
v -0.480633 0.230587 -0.028500
v -0.404541 0.210198 -0.164944
v -0.467402 0.279963 -0.028500
v -0.462615 -0.006539 -0.164944
v -0.538707 0.013850 -0.028500
v -0.319740 0.213936 -0.305143
v -0.323934 0.234430 -0.288939
v -0.334506 0.244353 -0.266804
v -0.451158 -0.062529 -0.209213
v -0.551937 -0.035526 -0.028500
v -0.298370 -0.139389 -0.499287
v -0.305808 -0.147661 -0.490552
v -0.318004 -0.149160 -0.470819
v -0.491026 0.001074 -0.000000
v -0.504256 -0.048302 -0.000000
v -0.419721 0.267186 -0.000000
v -0.286824 0.231577 -0.238304
v -0.414934 -0.019315 -0.136444
v -0.432951 0.217811 -0.000000
v -0.403476 -0.075306 -0.180713
v -0.356860 0.197422 -0.136444
v -0.270323 -0.161936 -0.442319
v -0.276253 0.221654 -0.260439
v -0.272059 0.201160 -0.276643
v -0.250688 -0.152165 -0.470787
v -0.258126 -0.160437 -0.462052
vn -0.0427 0.7111 0.7018
vn -0.2042 0.6814 -0.7029
vn -0.6420 0.7117 -0.2852
vn -0.2042 0.6813 -0.7029
vn 0.5298 0.6807 0.5059
vn -0.9078 -0.4004 -0.1244
vn -0.5298 -0.6807 -0.5059
vn 0.2042 -0.6813 0.7029
vn -0.3085 -0.4010 0.8626
vn 0.2042 -0.6814 0.7029
vn -0.9290 -0.3038 -0.2113
vn 0.1164 -0.7820 0.6124
vn -0.3802 -0.4831 0.7887
vn -0.5557 -0.5623 -0.6124
vn -0.1164 0.7820 -0.6124
vn -0.0215 0.6144 0.7887
vn 0.5557 0.5623 0.6124
vn -0.5703 0.7938 -0.2113
vn -0.0215 0.6145 0.7887
vn 0.9112 0.3536 -0.2113
vn -0.1585 0.7745 0.6124
vn 0.3536 0.5030 0.7887
vn 0.5245 0.5915 -0.6124
vn 0.0547 -0.6124 0.7887
vn -0.5245 -0.5915 0.6124
vn 0.1585 -0.7745 -0.6124
vn 0.6124 -0.7618 -0.2113
vn -0.0721 0.8595 0.5060
vn 0.9265 0.2456 -0.2852
vn 0.5432 0.4593 -0.7029
vn 0.0721 -0.8595 -0.5059
vn 0.0394 -0.5044 0.8626
vn 0.5418 -0.8312 -0.1244
vn 0.0721 -0.8595 -0.5060
vn -0.5432 -0.4593 0.7029
vn 0.4241 0.5724 0.7018
vn -0.0721 0.8595 0.5059
vn -0.6950 -0.0901 0.7134
vn 0.5076 -0.4831 -0.7134
vn -0.9816 0.0036 0.1912
vn 0.7942 -0.5768 -0.1912
vn 0.9694 -0.0080 -0.2453
vn -0.7761 0.6306 0.0079
vn 0.5253 0.2754 -0.8051
vn -0.8034 0.5798 0.1354
vn 0.2184 -0.0557 -0.9743
vn 0.6537 0.1036 -0.7496
vn -0.8496 0.3851 -0.3604
vn -0.6950 -0.0900 0.7134
vn -0.7513 0.2007 0.6287
vn -0.5498 0.4885 0.6775
vn 0.3739 0.4352 0.8190
vn -0.6129 0.7524 -0.2413
vn -0.7988 -0.4572 0.3910
vn -0.9629 0.1989 -0.1823
vn -0.8420 -0.4971 0.2093
vn -0.7103 -0.5289 0.4644
vn 0.5703 -0.7938 0.2113
vn 0.7905 0.5235 -0.3179
vn 0.9290 0.3038 0.2113
vn -0.3208 0.8739 0.3651
vn 0.8164 -0.5762 0.0378
vn 0.8933 0.4493 0.0089
vn 0.3882 -0.8700 -0.3039
vn 0.4055 -0.8916 -0.2014
vn 0.4780 0.2757 -0.8340
vn 0.1393 -0.2954 -0.9452
vn 0.2800 -0.2073 -0.9373
vn 0.1311 -0.5990 -0.7899
vn -0.6453 0.6610 -0.3830
vn -0.3747 0.9175 -0.1336
vn 0.4592 0.4016 -0.7923
vn -0.8906 -0.2490 -0.3804
vn -0.9803 -0.0495 -0.1912
vn 0.8242 -0.5330 0.1912
vn -0.6891 -0.1275 -0.7134
vn 0.5330 -0.4550 0.7134
vn -0.4911 0.4437 -0.7496
vn 0.9243 0.2956 -0.2413
vn -0.0566 0.5584 -0.8276
vn -0.1286 -0.0518 -0.9903
vn 0.8482 -0.3477 -0.3996
vn 0.9237 -0.2308 -0.3056
vn -0.1199 0.1378 -0.9832
vn -0.6124 0.7618 0.2114
vn -0.9112 -0.3536 0.2113
vn -0.6369 -0.0907 -0.7656
vn -0.4551 0.6672 0.5897
vn -0.4104 0.1939 0.8910
vn -0.8165 0.5227 -0.2453
vn -0.2460 0.5222 -0.8166
vn -0.1654 0.5872 -0.7923
vn -0.7984 -0.4994 -0.3364
vn -0.6771 -0.5786 -0.4547
vn -0.8224 -0.5286 -0.2102
vn 0.9523 0.2769 0.1282
vn 0.0547 -0.6123 0.7887
vn 0.7426 0.5704 0.3510
vn -0.3946 0.8626 -0.3167
vn 0.3207 -0.4272 0.8454
vn 0.5278 0.5955 0.6056
vn 0.9551 0.2532 -0.1538
vn 0.8486 0.4958 0.1846
vn 0.7274 0.1090 0.6775
vn 0.4164 -0.8231 0.3860
vn 0.8374 -0.4703 -0.2785
vn -0.1861 -0.4817 -0.8564
vn 0.3846 -0.9140 -0.1291
vn 0.2329 -0.9394 0.2517
vn 0.3524 0.4369 -0.8276
vn 0.9897 0.0470 0.1354
vt 0.093750 0.351692
vt 0.093750 0.401015
vt 0.093750 0.475000
vt 0.093750 0.425676
vt 0.093750 0.324323
vt 0.093750 0.327031
vt 0.093750 0.275000
vt 0.093750 0.398308
vt 0.093750 0.348985
vt 0.093750 0.422969
vt 0.093750 0.277707
vt 0.093750 0.472293
vt 0.843750 0.125252
vt 0.843750 0.101024
vt 0.843750 0.143876
vt 0.843750 0.025000
vt 0.843750 0.082401
vt 0.843750 0.225000
vt 0.843750 0.219381
vt 0.843750 0.211079
vt 0.843750 0.141381
vt 0.843750 0.223056
vt 0.843750 0.134564
s 1
usemtl colormap.031
f 2/1/1 3/2/2 4/2/3
f 7/3/4 6/4/1 5/4/5
f 6/4/1 7/3/4 8/3/3
f 11/5/6 10/6/4 9/5/7
f 10/6/4 11/5/6 12/6/3
f 11/5/6 14/7/8 13/7/9
f 14/7/8 11/5/6 9/5/7
f 17/8/6 16/9/10 15/9/9
f 6/4/1 19/10/8 5/4/5
f 19/10/8 6/4/1 20/10/9
f 22/11/1 14/7/8 21/11/5
f 24/12/6 7/3/4 23/12/7
f 7/3/4 24/12/6 8/3/3
f 16/9/10 2/1/1 15/9/9
f 24/12/6 19/10/8 20/10/9
f 19/10/8 24/12/6 23/12/7
f 22/11/1 10/6/4 12/6/3
f 27/3/11 26/7/12 25/7/13
f 26/7/12 27/3/11 28/3/14
f 31/3/15 30/7/16 29/7/17
f 30/7/16 31/3/15 32/3/18
f 30/7/16 26/7/12 29/7/17
f 26/7/12 30/7/16 25/7/13
f 27/3/11 31/3/15 28/3/14
f 31/3/15 27/3/11 32/3/18
f 35/3/15 34/7/19 33/7/17
f 39/7/16 38/7/12 37/7/17
f 41/3/15 39/7/16 37/7/17
f 39/7/16 41/3/15 42/3/18
f 44/3/11 35/3/15 43/3/14
f 46/3/11 41/3/15 45/3/14
f 41/3/15 46/3/11 42/3/18
f 44/3/11 48/7/12 47/7/13
f 48/7/12 44/3/11 43/3/14
f 48/7/12 34/7/19 47/7/13
f 34/7/19 44/3/11 47/7/13
f 44/3/11 34/7/19 36/3/18
f 55/3/20 54/7/21 53/7/22
f 54/7/21 55/3/20 56/3/23
f 50/7/24 54/7/21 49/7/25
f 51/3/26 55/3/20 52/3/27
f 55/3/20 51/3/26 56/3/23
f 59/3/20 58/7/21 57/7/22
f 62/7/24 63/7/21 64/7/25
f 63/7/21 65/3/20 66/3/23
f 70/3/26 65/3/20 69/3/27
f 65/3/20 70/3/26 66/3/23
f 68/3/26 72/7/24 71/7/25
f 62/7/24 70/3/26 69/3/27
f 50/7/24 55/3/20 53/7/22
f 78/4/28 79/3/29 80/3/30
f 82/6/29 83/5/31 84/6/30
f 86/7/32 83/5/31 81/5/33
f 89/8/34 88/9/32 87/9/35
f 78/4/28 91/10/32 77/4/36
f 91/10/32 78/4/28 92/10/35
f 86/7/32 94/11/37 85/7/35
f 89/8/34 75/2/29 90/8/33
f 75/2/29 89/8/34 76/2/30
f 88/9/32 74/1/28 87/9/35
f 91/10/32 96/12/34 95/12/33
f 75/2/29 88/9/32 90/8/33
f 88/9/32 75/2/29 73/1/36
f 79/3/29 91/10/32 95/12/33
f 91/10/32 79/3/29 77/4/36
f 86/7/32 82/6/29 93/11/36
f 99/13/38 98/14/39 97/14/40
f 98/14/39 99/13/38 100/13/41
f 103/13/42 102/14/43 101/14/44
f 106/15/45 111/15/46 105/15/47
f 111/15/46 106/15/45 112/15/48
f 115/16/16 114/17/49 113/16/13
f 102/14/43 116/17/50 114/17/49
f 97/14/40 115/16/16 99/13/38
f 99/13/38 115/16/16 112/15/48
f 104/13/51 112/15/48 106/15/45
f 106/15/45 117/16/52 104/13/51
f 108/18/53 121/14/54 106/15/45
f 110/18/55 121/14/54 108/18/53
f 121/14/54 124/19/56 125/20/57
f 127/16/58 117/16/52 122/16/13
f 129/13/59 115/16/16 128/16/60
f 115/16/16 129/13/59 120/13/61
f 130/17/62 117/16/52 126/16/63
f 117/16/52 130/17/62 116/17/50
f 131/16/58 114/17/49 133/17/41
f 114/17/49 130/17/62 133/17/41
f 130/17/62 114/17/49 116/17/50
f 125/20/57 132/14/64 121/14/54
f 132/14/64 125/20/57 134/20/65
f 133/17/41 136/21/66 131/16/58
f 98/14/39 130/17/62 101/14/44
f 100/13/41 111/15/46 136/21/66
f 127/16/58 105/15/47 126/16/63
f 132/14/64 137/22/67 109/18/68
f 132/14/64 138/19/69 137/22/67
f 138/19/69 132/14/64 134/20/65
f 136/21/66 112/15/48 118/21/70
f 136/21/66 119/23/71 135/23/72
f 119/23/71 136/21/66 118/21/70
f 135/23/72 120/13/61 129/13/59
f 120/13/61 135/23/72 119/23/71
f 123/22/73 138/19/69 124/19/56
f 138/19/69 123/22/73 137/22/67
f 109/18/68 123/22/73 110/18/55
f 124/19/56 134/20/65 125/20/57
f 134/20/65 124/19/56 138/19/69
f 141/13/74 140/14/75 139/14/76
f 140/14/75 141/13/74 142/13/77
f 148/15/78 149/18/79 150/18/80
f 152/18/81 149/18/79 151/18/82
f 149/18/79 152/18/81 150/18/80
f 153/15/83 148/15/78 154/15/84
f 157/16/85 156/17/74 155/16/86
f 144/14/87 156/17/74 139/14/76
f 144/14/87 159/16/88 158/17/89
f 139/14/76 157/16/85 141/13/74
f 146/13/90 159/16/88 144/14/87
f 160/21/91 157/16/85 161/23/92
f 148/15/78 159/16/88 146/13/90
f 163/14/93 166/19/94 167/20/95
f 144/14/87 140/14/75 143/14/96
f 140/14/75 144/14/87 139/14/76
f 169/16/97 159/16/88 164/16/86
f 171/13/98 157/16/85 170/16/22
f 157/16/85 171/13/98 162/13/99
f 172/17/100 159/16/88 168/16/101
f 159/16/88 172/17/100 158/17/89
f 157/16/85 173/16/97 170/16/22
f 173/16/97 157/16/85 155/16/86
f 173/16/97 156/17/74 175/17/77
f 156/17/74 172/17/100 175/17/77
f 170/16/22 178/21/102 177/23/103
f 173/16/97 178/21/102 170/16/22
f 175/17/77 178/21/102 173/16/97
f 145/13/104 153/15/83 142/13/77
f 168/16/101 145/13/104 143/14/96
f 174/14/105 151/18/82 149/18/79
f 174/14/105 179/22/106 151/18/82
f 154/15/84 178/21/102 153/15/83
f 178/21/102 154/15/84 160/21/91
f 178/21/102 161/23/92 177/23/103
f 161/23/92 178/21/102 160/21/91
f 177/23/103 162/13/99 171/13/98
f 162/13/99 177/23/103 161/23/92
f 165/22/107 180/19/108 166/19/94
f 180/19/108 165/22/107 179/22/106
f 165/22/107 151/18/82 179/22/106
f 151/18/82 165/22/107 152/18/81
f 166/19/94 176/20/109 167/20/95
f 176/20/109 166/19/94 180/19/108
f 3/2/2 2/1/1 1/1/5
f 16/9/10 17/8/6 18/8/7
f 14/7/8 22/11/1 13/7/9
f 17/8/6 3/2/2 18/8/7
f 3/2/2 17/8/6 4/2/3
f 2/1/1 16/9/10 1/1/5
f 10/6/4 22/11/1 21/11/5
f 15/9/9 4/2/3 17/8/6
f 4/2/3 15/9/9 2/1/1
f 20/10/9 8/3/3 24/12/6
f 8/3/3 20/10/9 6/4/1
f 13/7/9 12/6/3 11/5/6
f 12/6/3 13/7/9 22/11/1
f 34/7/19 35/3/15 36/3/18
f 38/7/12 39/7/16 40/7/13
f 35/3/15 44/3/11 36/3/18
f 46/3/11 38/7/12 40/7/13
f 38/7/12 46/3/11 45/3/14
f 34/7/19 48/7/12 33/7/17
f 39/7/16 46/3/11 40/7/13
f 46/3/11 39/7/16 42/3/18
f 30/7/16 27/3/11 25/7/13
f 27/3/11 30/7/16 32/3/18
f 51/3/26 50/7/24 49/7/25
f 50/7/24 51/3/26 52/3/27
f 54/7/21 50/7/24 53/7/22
f 58/7/21 59/3/20 60/3/23
f 63/7/21 62/7/24 61/7/22
f 65/3/20 63/7/21 61/7/22
f 68/3/26 59/3/20 67/3/27
f 59/3/20 68/3/26 60/3/23
f 72/7/24 68/3/26 67/3/27
f 70/3/26 62/7/24 64/7/25
f 58/7/21 72/7/24 57/7/22
f 72/7/24 58/7/21 71/7/25
f 65/3/20 62/7/24 69/3/27
f 62/7/24 65/3/20 61/7/22
f 59/3/20 72/7/24 67/3/27
f 72/7/24 59/3/20 57/7/22
f 55/3/20 50/7/24 52/3/27
f 75/2/29 74/1/28 73/1/36
f 74/1/28 75/2/29 76/2/30
f 79/3/29 78/4/28 77/4/36
f 83/5/31 82/6/29 81/5/33
f 83/5/31 86/7/32 85/7/35
f 88/9/32 89/8/34 90/8/33
f 94/11/37 86/7/32 93/11/36
f 96/12/34 79/3/29 95/12/33
f 79/3/29 96/12/34 80/3/30
f 74/1/28 88/9/32 73/1/36
f 96/12/34 91/10/32 92/10/35
f 82/6/29 94/11/37 93/11/36
f 94/11/37 82/6/29 84/6/30
f 82/6/29 86/7/32 81/5/33
f 102/14/43 103/13/42 104/13/51
f 107/18/110 106/15/45 105/15/47
f 106/15/45 107/18/110 108/18/53
f 110/18/55 107/18/110 109/18/68
f 107/18/110 110/18/55 108/18/53
f 114/17/49 115/16/16 97/14/40
f 102/14/43 114/17/49 97/14/40
f 102/14/43 117/16/52 116/17/50
f 104/13/51 117/16/52 102/14/43
f 112/15/48 104/13/51 99/13/38
f 112/15/48 115/16/16 118/21/70
f 118/21/70 115/16/16 119/23/71
f 119/23/71 115/16/16 120/13/61
f 121/14/54 117/16/52 106/15/45
f 117/16/52 121/14/54 122/16/13
f 123/22/73 121/14/54 110/18/55
f 124/19/56 121/14/54 123/22/73
f 102/14/43 98/14/39 101/14/44
f 98/14/39 102/14/43 97/14/40
f 117/16/52 127/16/58 126/16/63
f 115/16/16 131/16/58 128/16/60
f 131/16/58 115/16/16 113/16/13
f 121/14/54 127/16/58 122/16/13
f 127/16/58 121/14/54 132/14/64
f 114/17/49 131/16/58 113/16/13
f 128/16/60 135/23/72 129/13/59
f 128/16/60 136/21/66 135/23/72
f 131/16/58 136/21/66 128/16/60
f 98/14/39 136/21/66 133/17/41
f 130/17/62 98/14/39 133/17/41
f 100/13/41 136/21/66 98/14/39
f 126/16/63 101/14/44 130/17/62
f 103/13/42 111/15/46 100/13/41
f 126/16/63 103/13/42 101/14/44
f 111/15/46 103/13/42 105/15/47
f 126/16/63 105/15/47 103/13/42
f 132/14/64 105/15/47 127/16/58
f 132/14/64 107/18/110 105/15/47
f 132/14/64 109/18/68 107/18/110
f 99/13/38 103/13/42 100/13/41
f 103/13/42 99/13/38 104/13/51
f 112/15/48 136/21/66 111/15/46
f 123/22/73 109/18/68 137/22/67
f 145/13/104 144/14/87 143/14/96
f 144/14/87 145/13/104 146/13/90
f 149/18/79 148/15/78 147/15/111
f 148/15/78 153/15/83 147/15/111
f 156/17/74 157/16/85 139/14/76
f 144/14/87 158/17/89 156/17/74
f 154/15/84 146/13/90 141/13/74
f 141/13/74 157/16/85 154/15/84
f 154/15/84 157/16/85 160/21/91
f 161/23/92 157/16/85 162/13/99
f 146/13/90 154/15/84 148/15/78
f 163/14/93 159/16/88 148/15/78
f 159/16/88 163/14/93 164/16/86
f 150/18/80 163/14/93 148/15/78
f 152/18/81 163/14/93 150/18/80
f 165/22/107 163/14/93 152/18/81
f 166/19/94 163/14/93 165/22/107
f 159/16/88 169/16/97 168/16/101
f 163/14/93 169/16/97 164/16/86
f 169/16/97 163/14/93 174/14/105
f 156/17/74 173/16/97 155/16/86
f 172/17/100 156/17/74 158/17/89
f 167/20/95 174/14/105 163/14/93
f 174/14/105 167/20/95 176/20/109
f 170/16/22 177/23/103 171/13/98
f 140/14/75 178/21/102 175/17/77
f 172/17/100 140/14/75 175/17/77
f 142/13/77 178/21/102 140/14/75
f 140/14/75 172/17/100 143/14/96
f 142/13/77 153/15/83 178/21/102
f 168/16/101 143/14/96 172/17/100
f 153/15/83 145/13/104 147/15/111
f 168/16/101 147/15/111 145/13/104
f 169/16/97 147/15/111 168/16/101
f 174/14/105 147/15/111 169/16/97
f 174/14/105 149/18/79 147/15/111
f 174/14/105 180/19/108 179/22/106
f 180/19/108 174/14/105 176/20/109
f 141/13/74 145/13/104 142/13/77
f 145/13/104 141/13/74 146/13/90
