# Blender 4.3.2
# www.blender.org
mtllib shelf-boxes.002.mtl
o shelf-boxes.001
v -0.350000 0.050000 -0.800000
v -0.400000 0.050000 -0.750000
v -0.350000 -0.050000 -0.800000
v -0.400000 -0.050000 -0.750000
v 0.400000 -0.050000 -0.750000
v 0.400000 -0.050000 0.000000
v 0.400000 0.050000 -0.750000
v 0.400000 0.050000 -0.000000
v 0.350000 -0.050000 -0.800000
v 0.350000 0.050000 -0.800000
v -0.400000 -0.050000 -0.000000
v -0.400000 0.050000 -0.000000
v 0.400000 0.350000 -0.000000
v 0.300000 0.350000 -0.000000
v 0.400000 0.350000 -0.050000
v 0.300000 0.350000 -0.050000
v 0.400000 0.050000 -0.100000
v 0.300000 0.050000 -0.100000
v 0.300000 0.050000 -0.000000
v 0.400000 0.050000 -0.000000
v 0.350000 0.320711 -0.550000
v -0.350000 0.320711 -0.550000
v 0.350000 0.285355 -0.585355
v -0.350000 0.285355 -0.585355
v 0.350000 0.050000 -0.500000
v 0.350000 0.050000 -0.550000
v -0.350000 0.050000 -0.500000
v -0.350000 0.050000 -0.550000
v 0.350000 0.250000 -0.550000
v -0.350000 0.250000 -0.550000
v 0.350000 0.285355 -0.514645
v 0.350000 0.250000 -0.500000
v -0.350000 0.285355 -0.514645
v -0.350000 0.250000 -0.500000
v -0.300000 0.350000 -0.000000
v -0.400000 0.350000 -0.000000
v -0.300000 0.350000 -0.050000
v -0.400000 0.350000 -0.050000
v -0.300000 0.050000 -0.100000
v -0.400000 0.050000 -0.100000
v -0.300000 0.050000 -0.000000
v 0.400000 -0.350000 0.000000
v 0.300000 -0.350000 0.000000
v 0.400000 -0.350000 -0.050000
v 0.300000 -0.350000 -0.050000
v 0.400000 -0.050000 -0.100000
v 0.300000 -0.050000 -0.100000
v 0.300000 -0.050000 0.000000
v 0.400000 -0.050000 0.000000
v -0.300000 -0.350000 -0.000000
v -0.400000 -0.350000 -0.000000
v -0.300000 -0.350000 -0.050000
v -0.400000 -0.350000 -0.050000
v -0.300000 -0.050000 -0.100000
v -0.400000 -0.050000 -0.100000
v -0.400000 -0.050000 -0.000000
v -0.300000 -0.050000 -0.000000
v 0.350000 0.320711 -0.175000
v -0.350000 0.320711 -0.175000
v 0.350000 0.285355 -0.210355
v -0.350000 0.285355 -0.210355
v 0.350000 0.050000 -0.125000
v 0.350000 0.050000 -0.175000
v -0.350000 0.050000 -0.125000
v -0.350000 0.050000 -0.175000
v 0.350000 0.250000 -0.175000
v -0.350000 0.250000 -0.175000
v 0.350000 0.285355 -0.139645
v 0.350000 0.250000 -0.125000
v -0.350000 0.285355 -0.139645
v -0.350000 0.250000 -0.125000
v 0.350000 -0.320711 -0.175000
v -0.350000 -0.320711 -0.175000
v 0.350000 -0.285355 -0.210355
v -0.350000 -0.285355 -0.210355
v 0.350000 -0.050000 -0.125000
v 0.350000 -0.050000 -0.175000
v -0.350000 -0.050000 -0.125000
v -0.350000 -0.050000 -0.175000
v 0.350000 -0.250000 -0.175000
v -0.350000 -0.250000 -0.175000
v 0.350000 -0.285355 -0.139645
v 0.350000 -0.250000 -0.125000
v -0.350000 -0.285355 -0.139645
v -0.350000 -0.250000 -0.125000
v 0.350000 -0.320711 -0.550000
v -0.350000 -0.320711 -0.550000
v 0.350000 -0.285355 -0.585355
v -0.350000 -0.285355 -0.585355
v 0.350000 -0.050000 -0.500000
v 0.350000 -0.050000 -0.550000
v -0.350000 -0.050000 -0.500000
v -0.350000 -0.050000 -0.550000
v 0.350000 -0.250000 -0.550000
v -0.350000 -0.250000 -0.550000
v 0.350000 -0.285355 -0.514645
v 0.350000 -0.250000 -0.500000
v -0.350000 -0.285355 -0.514645
v -0.350000 -0.250000 -0.500000
v 0.203939 0.188583 -0.392325
v 0.126970 0.226969 -0.372246
v 0.203939 0.226969 -0.434255
v 0.280908 0.226969 -0.372246
v 0.126970 0.073031 -0.372246
v 0.203939 0.111416 -0.392325
v 0.203939 0.073031 -0.434255
v 0.280908 0.073031 -0.372246
v 0.280908 0.226969 -0.175000
v 0.280908 0.073031 -0.175000
v 0.126970 0.226969 -0.175000
v 0.126970 0.073031 -0.175000
v 0.203939 0.073031 -0.447824
v 0.203939 0.086599 -0.461393
v 0.203939 0.213401 -0.461393
v 0.203939 0.226969 -0.447824
v -0.000000 0.188583 -0.392325
v -0.076969 0.226969 -0.372246
v -0.000000 0.226969 -0.434255
v 0.076969 0.226969 -0.372246
v -0.076970 0.073031 -0.372246
v -0.000000 0.111416 -0.392325
v -0.000000 0.073031 -0.434255
v 0.076969 0.073031 -0.372246
v 0.076969 0.226969 -0.175000
v 0.076969 0.073031 -0.175000
v -0.076969 0.226969 -0.175000
v -0.076970 0.073031 -0.175000
v -0.000000 0.073031 -0.447824
v -0.000000 0.086599 -0.461393
v -0.000000 0.213401 -0.461393
v -0.000000 0.226969 -0.447824
v -0.203939 0.188583 -0.392325
v -0.280908 0.226969 -0.372246
v -0.203939 0.226969 -0.434255
v -0.126970 0.226969 -0.372246
v -0.280908 0.073031 -0.372246
v -0.203939 0.111416 -0.392325
v -0.203939 0.073031 -0.434255
v -0.126970 0.073031 -0.372246
v -0.126970 0.226969 -0.175000
v -0.126970 0.073031 -0.175000
v -0.280908 0.226969 -0.175000
v -0.280908 0.073031 -0.175000
v -0.203939 0.073031 -0.447824
v -0.203939 0.086599 -0.461393
v -0.203939 0.213401 -0.461393
v -0.203939 0.226969 -0.447824
v 0.203939 -0.188583 -0.392325
v 0.126970 -0.226969 -0.372246
v 0.203939 -0.226969 -0.434255
v 0.280908 -0.226969 -0.372246
v 0.126970 -0.073031 -0.372246
v 0.203939 -0.111416 -0.392325
v 0.203939 -0.073031 -0.434255
v 0.280908 -0.073031 -0.372246
v 0.280908 -0.226969 -0.175000
v 0.280908 -0.073031 -0.175000
v 0.126970 -0.226969 -0.175000
v 0.126970 -0.073031 -0.175000
v 0.203939 -0.073031 -0.447824
v 0.203939 -0.086599 -0.461393
v 0.203939 -0.213401 -0.461393
v 0.203939 -0.226969 -0.447824
v -0.000000 -0.188583 -0.392325
v -0.076969 -0.226969 -0.372246
v -0.000000 -0.226969 -0.434255
v 0.076969 -0.226969 -0.372246
v -0.076970 -0.073031 -0.372246
v -0.000000 -0.111416 -0.392325
v -0.000000 -0.073031 -0.434255
v 0.076969 -0.073031 -0.372246
v 0.076969 -0.226969 -0.175000
v 0.076969 -0.073031 -0.175000
v -0.076969 -0.226969 -0.175000
v -0.076970 -0.073031 -0.175000
v -0.000000 -0.073031 -0.447824
v -0.000000 -0.086599 -0.461393
v -0.000000 -0.213401 -0.461393
v -0.000000 -0.226969 -0.447824
v -0.203939 -0.188583 -0.392325
v -0.280908 -0.226969 -0.372246
v -0.203939 -0.226969 -0.434255
v -0.126970 -0.226969 -0.372246
v -0.280908 -0.073031 -0.372246
v -0.203939 -0.111416 -0.392325
v -0.203939 -0.073031 -0.434255
v -0.126970 -0.073031 -0.372246
v -0.126970 -0.226969 -0.175000
v -0.126970 -0.073031 -0.175000
v -0.280908 -0.226969 -0.175000
v -0.280908 -0.073031 -0.175000
v -0.203939 -0.073031 -0.447824
v -0.203939 -0.086599 -0.461393
v -0.203939 -0.213401 -0.461393
v -0.203939 -0.226969 -0.447824
v -0.051000 0.200000 -0.550000
v -0.051000 0.100000 -0.550000
v -0.300000 0.200000 -0.550000
v -0.300000 0.100000 -0.550000
v -0.051000 0.100000 -0.850000
v -0.051000 0.200000 -0.850000
v -0.300000 0.100000 -0.850000
v -0.300000 0.200000 -0.850000
v -0.300000 0.100000 -0.588917
v -0.300000 0.200000 -0.588917
v -0.051000 0.100000 -0.811083
v -0.051000 0.200000 -0.811083
v -0.051000 0.100000 -0.668504
v -0.300000 0.200000 -0.731496
v -0.051000 0.200000 -0.668504
v -0.300000 0.100000 -0.731496
v -0.051000 0.200000 -0.668504
v -0.051000 0.200000 -0.811083
v -0.051000 0.100000 -0.668504
v -0.051000 0.100000 -0.811083
v 0.300000 0.200000 -0.550000
v 0.300000 0.100000 -0.550000
v 0.051000 0.200000 -0.550000
v 0.051000 0.100000 -0.550000
v 0.300000 0.100000 -0.850000
v 0.300000 0.200000 -0.850000
v 0.051000 0.100000 -0.850000
v 0.051000 0.200000 -0.850000
v 0.051000 0.100000 -0.588917
v 0.051000 0.200000 -0.588917
v 0.300000 0.100000 -0.811083
v 0.300000 0.200000 -0.811083
v 0.300000 0.100000 -0.668504
v 0.051000 0.200000 -0.731496
v 0.300000 0.200000 -0.668504
v 0.051000 0.100000 -0.731496
v 0.051000 0.200000 -0.588917
v 0.051000 0.200000 -0.731496
v 0.300000 0.200000 -0.811083
v 0.051000 0.100000 -0.588917
v 0.051000 0.100000 -0.731496
v 0.300000 0.100000 -0.811083
v -0.051000 -0.200000 -0.550000
v -0.051000 -0.100000 -0.550000
v -0.300000 -0.200000 -0.550000
v -0.300000 -0.100000 -0.550000
v -0.051000 -0.100000 -0.850000
v -0.051000 -0.200000 -0.850000
v -0.300000 -0.100000 -0.850000
v -0.300000 -0.200000 -0.850000
v -0.300000 -0.100000 -0.588917
v -0.300000 -0.200000 -0.588917
v -0.051000 -0.100000 -0.811083
v -0.051000 -0.200000 -0.811083
v -0.051000 -0.100000 -0.668504
v -0.300000 -0.200000 -0.731496
v -0.051000 -0.200000 -0.668504
v -0.300000 -0.100000 -0.731496
v -0.051000 -0.200000 -0.668504
v -0.051000 -0.200000 -0.811083
v -0.051000 -0.100000 -0.668504
v -0.051000 -0.100000 -0.811083
v 0.300000 -0.200000 -0.550000
v 0.300000 -0.100000 -0.550000
v 0.051000 -0.200000 -0.550000
v 0.051000 -0.100000 -0.550000
v 0.300000 -0.100000 -0.850000
v 0.300000 -0.200000 -0.850000
v 0.051000 -0.100000 -0.850000
v 0.051000 -0.200000 -0.850000
v 0.051000 -0.100000 -0.588917
v 0.051000 -0.200000 -0.588917
v 0.300000 -0.100000 -0.811083
v 0.300000 -0.200000 -0.811083
v 0.300000 -0.100000 -0.668504
v 0.051000 -0.200000 -0.731496
v 0.300000 -0.200000 -0.668504
v 0.051000 -0.100000 -0.731496
v 0.051000 -0.200000 -0.588917
v 0.051000 -0.200000 -0.731496
v 0.300000 -0.200000 -0.811083
v 0.051000 -0.100000 -0.588917
v 0.051000 -0.100000 -0.731496
v 0.300000 -0.100000 -0.811083
vn -0.7187 0.4420 -0.5367
vn -0.5916 -0.6575 -0.4666
vn -0.8246 -0.4509 -0.3416
vn 0.0071 -0.6344 -0.7729
vn 0.0714 0.6584 -0.7493
vn 0.3562 0.3658 -0.8598
vn 0.6129 0.7827 -0.1085
vn -0.5773 0.5774 0.5773
vn 0.5774 0.5774 0.5774
vn -0.5773 -0.5774 0.5773
vn 0.7509 -0.6598 -0.0292
vn 0.5773 -0.5773 0.5774
vn -0.6668 0.1225 -0.7351
vn -0.5773 0.5773 0.5774
vn -0.6857 0.0306 -0.7273
vn 0.8127 0.0006 -0.5827
vn 0.7071 -0.0000 0.7071
vn 0.6669 0.1225 -0.7351
vn 0.5774 0.5774 0.5773
vn -0.7071 -0.0000 0.7071
vn 0.5773 -0.0000 -0.8165
vn -0.5773 0.8165 -0.0000
vn 0.5774 0.8165 -0.0000
vn 0.5774 -0.5774 -0.5773
vn 0.5773 -0.5774 0.5773
vn -0.5773 -0.5774 -0.5774
vn 0.8042 -0.2275 -0.5491
vn -0.5774 -0.0000 -0.8165
vn -0.8042 -0.2275 -0.5491
vn 0.6728 0.0141 0.7397
vn 0.6729 0.2756 0.6865
vn -0.5713 0.1137 0.8128
vn -0.7540 0.3330 0.5662
vn -0.0460 0.7622 -0.6457
vn -0.6857 0.7224 0.0893
vn -0.5773 -0.5773 0.5774
vn 0.5774 -0.5774 0.5773
vn 0.8127 -0.0006 -0.5827
vn 0.6669 -0.1225 -0.7351
vn -0.6857 -0.7224 0.0893
vn -0.6668 -0.1225 -0.7351
vn -0.5773 0.5774 -0.5774
vn 0.5774 0.5774 -0.5773
vn -0.8042 0.2275 -0.5491
vn -0.6728 -0.5130 0.5330
vn -0.5773 -0.8165 -0.0000
vn 0.5432 -0.4665 0.6981
vn -0.7518 -0.1644 0.6385
vn 0.6728 -0.0141 0.7397
vn 0.5773 0.5774 0.5773
vn 0.8042 0.2275 -0.5491
vn 0.5774 -0.8165 -0.0000
vn -0.5646 -0.1610 0.8095
vn 0.4779 0.6479 0.5932
vn -0.0000 0.4635 -0.8861
vn -0.4779 0.6479 0.5932
vn 0.4779 -0.6479 0.5932
vn -0.4779 -0.6479 0.5932
vn -0.0000 -0.4635 -0.8861
vn -0.0000 -0.0000 1.0000
vn -0.6274 -0.0000 -0.7787
vn 0.6274 -0.0000 -0.7787
vn -1.0000 -0.0000 -0.0000
vn 1.0000 -0.0000 -0.0000
vn -0.0000 -1.0000 -0.0000
vn -0.0000 1.0000 -0.0000
vn -0.0000 -0.0000 -1.0000
vt 0.218750 0.212500
vt 0.218750 0.225000
vt 0.468750 0.212500
vt 0.468750 0.025000
vt 0.468750 0.225000
vt 0.468750 0.125000
vt 0.468750 0.142157
vt 0.468750 0.025000
vt 0.468750 0.059315
vt 0.468750 0.059315
vt 0.218750 0.025000
vt 0.593750 0.206049
vt 0.593750 0.162745
vt 0.593750 0.176767
vt 0.593750 0.025000
vt 0.843750 0.275000
vt 0.843750 0.412745
vt 0.593750 0.215524
vt 0.593750 0.225000
vt 0.593750 0.050945
vt 0.593750 0.199055
vt 0.593750 0.104003
vt 0.593750 0.145997
vt 0.343750 0.346647
vt 0.343750 0.403353
vt 0.343750 0.275000
vt 0.343750 0.475000
s 1
usemtl colormap.317
f 2/1/1 3/2/2 4/1/3
f 9/2/4 1/2/5 10/2/6
f 1/2/5 9/2/4 3/2/2
f 7/3/7 12/4/8 8/4/9
f 11/4/10 5/3/11 6/4/12
f 5/3/11 11/4/10 4/3/3
f 5/3/11 4/3/3 9/5/4
f 12/4/8 6/4/12 8/4/9
f 18/5/13 14/4/14 16/6/15
f 15/6/16 20/4/17 17/5/18
f 20/4/17 15/6/16 13/4/19
f 13/4/19 19/4/20 20/4/17
f 19/4/20 13/4/19 14/4/14
f 23/5/21 22/7/22 21/7/23
f 27/8/10 26/7/24 25/4/25
f 26/7/24 27/8/10 28/7/26
f 29/7/27 24/5/28 23/5/21
f 24/5/28 29/7/27 30/7/29
f 29/7/27 25/4/25 26/7/24
f 25/4/25 29/7/27 32/4/30
f 32/4/30 29/7/27 23/5/21
f 32/4/30 23/5/21 31/9/31
f 31/9/31 23/5/21 21/7/23
f 34/8/32 25/4/25 32/4/30
f 34/8/32 28/7/26 27/8/10
f 28/7/26 34/8/32 30/7/29
f 30/7/29 34/8/32 33/10/33
f 30/7/29 33/10/33 24/5/28
f 24/5/28 33/10/33 22/7/22
f 31/9/31 22/7/22 33/10/33
f 36/4/14 37/6/34 38/6/35
f 40/5/13 37/6/34 39/5/18
f 41/4/17 37/6/34 35/4/19
f 35/4/19 12/4/20 41/4/17
f 12/4/20 35/4/19 36/4/14
f 43/4/36 42/4/37 48/4/20
f 49/4/17 48/4/20 42/4/37
f 42/4/37 44/6/38 49/4/17
f 46/5/39 49/4/17 44/6/38
f 45/6/40 43/4/36 47/5/41
f 48/4/20 47/5/41 43/4/36
f 45/6/40 47/5/41 44/6/38
f 46/5/39 44/6/38 47/5/41
f 42/4/37 43/4/36 44/6/38
f 57/4/17 56/4/20 50/4/37
f 50/4/37 52/6/38 57/4/17
f 54/5/39 57/4/17 52/6/38
f 53/6/40 51/4/36 55/5/41
f 56/4/20 55/5/41 51/4/36
f 54/5/39 52/6/38 55/5/41
f 50/4/37 51/4/36 52/6/38
f 60/5/21 59/7/22 58/7/23
f 59/7/22 60/5/21 61/5/28
f 64/8/10 63/7/24 62/4/25
f 63/7/24 64/8/10 65/7/26
f 66/7/27 61/5/28 60/5/21
f 62/4/25 66/7/27 69/4/30
f 69/4/30 66/7/27 60/5/21
f 69/4/30 60/5/21 68/9/31
f 68/9/31 60/5/21 58/7/23
f 71/8/32 62/4/25 69/4/30
f 62/4/25 71/8/32 64/8/10
f 71/8/32 65/7/26 64/8/10
f 67/7/29 71/8/32 70/10/33
f 67/7/29 70/10/33 61/5/28
f 61/5/28 70/10/33 59/7/22
f 59/7/22 68/9/31 58/7/23
f 68/9/31 59/7/22 70/10/33
f 63/7/24 67/7/29 66/7/27
f 79/7/42 77/7/43 81/7/44
f 84/10/45 73/7/46 82/9/47
f 75/5/28 84/10/45 81/7/44
f 84/10/45 85/8/48 81/7/44
f 78/8/8 79/7/42 85/8/48
f 83/4/49 76/4/50 85/8/48
f 82/9/47 74/5/21 83/4/49
f 74/5/21 80/7/51 83/4/49
f 83/4/49 80/7/51 76/4/50
f 77/7/43 76/4/50 80/7/51
f 81/7/44 80/7/51 75/5/28
f 74/5/21 75/5/28 80/7/51
f 79/7/42 78/8/8 77/7/43
f 76/4/50 77/7/43 78/8/8
f 75/5/28 74/5/21 73/7/46
f 72/7/52 73/7/46 74/5/21
f 93/7/42 91/7/43 95/7/44
f 94/7/51 95/7/44 91/7/43
f 98/10/45 87/7/46 96/9/47
f 89/5/28 98/10/45 95/7/44
f 97/4/49 90/4/50 99/8/53
f 86/7/52 88/5/21 96/9/47
f 96/9/47 88/5/21 97/4/49
f 91/7/43 90/4/50 94/7/51
f 95/7/44 94/7/51 89/5/28
f 88/5/21 89/5/28 94/7/51
f 90/4/50 91/7/43 92/8/8
f 89/5/28 88/5/21 87/7/46
f 3/2/2 2/1/1 1/2/5
f 7/1/7 6/11/12 5/1/11
f 6/11/12 7/1/7 8/11/9
f 10/2/6 5/1/11 9/2/4
f 5/1/11 10/2/6 7/1/7
f 11/11/10 2/1/1 4/1/3
f 2/1/1 11/11/10 12/11/8
f 12/4/8 7/3/7 2/3/1
f 2/3/1 7/3/7 10/5/6
f 2/3/1 10/5/6 1/5/5
f 9/5/4 4/3/3 3/5/2
f 6/4/12 12/4/8 11/4/10
f 15/6/16 14/4/14 13/4/19
f 14/4/14 15/6/16 16/6/15
f 18/5/13 15/6/16 17/5/18
f 15/6/16 18/5/13 16/6/15
f 14/4/14 18/5/13 19/4/20
f 22/7/22 23/5/21 24/5/28
f 33/10/33 32/4/30 31/9/31
f 32/4/30 33/10/33 34/8/32
f 25/4/25 34/8/32 27/8/10
f 22/7/22 31/9/31 21/7/23
f 26/7/24 30/7/29 29/7/27
f 30/7/29 26/7/24 28/7/26
f 37/6/34 36/4/14 35/4/19
f 37/6/34 40/5/13 38/6/35
f 36/4/14 40/5/13 12/4/20
f 40/5/13 36/4/14 38/6/35
f 37/6/34 41/4/17 39/5/18
f 45/6/40 44/6/38 43/4/36
f 51/4/36 50/4/37 56/4/20
f 53/6/40 55/5/41 52/6/38
f 53/6/40 52/6/38 51/4/36
f 61/5/28 66/7/27 67/7/29
f 70/10/33 69/4/30 68/9/31
f 69/4/30 70/10/33 71/8/32
f 66/7/27 62/4/25 63/7/24
f 65/7/26 71/8/32 67/7/29
f 67/7/29 63/7/24 65/7/26
f 80/7/51 81/7/44 77/7/43
f 72/7/52 82/9/47 73/7/46
f 73/7/46 84/10/45 75/5/28
f 81/7/44 85/8/48 79/7/42
f 78/8/8 85/8/48 76/4/50
f 72/7/52 74/5/21 82/9/47
f 85/8/48 84/10/45 83/4/49
f 82/9/47 83/4/49 84/10/45
f 86/7/52 96/9/47 87/7/46
f 87/7/46 98/10/45 89/5/28
f 98/10/45 99/8/53 95/7/44
f 95/7/44 99/8/53 93/7/42
f 92/8/8 93/7/42 99/8/53
f 92/8/8 99/8/53 90/4/50
f 88/5/21 94/7/51 97/4/49
f 97/4/49 94/7/51 90/4/50
f 99/8/53 98/10/45 97/4/49
f 96/9/47 97/4/49 98/10/45
f 93/7/42 92/8/8 91/7/43
f 86/7/52 87/7/46 88/5/21
f 102/12/54 101/13/54 100/14/54
f 101/13/55 103/13/55 100/14/55
f 102/12/56 100/14/56 103/13/56
f 106/12/57 105/14/57 104/13/57
f 106/12/58 107/13/58 105/14/58
f 104/13/59 105/14/59 107/13/59
f 110/15/60 109/15/60 108/15/60
f 109/15/60 110/15/60 111/15/60
f 106/12/61 101/13/61 102/12/61
f 101/13/61 106/12/61 104/13/61
f 107/13/62 102/12/62 103/13/62
f 102/12/62 107/13/62 106/12/62
f 110/16/63 104/17/63 111/16/63
f 104/17/63 110/16/63 101/17/63
f 103/17/64 109/16/64 107/17/64
f 109/16/64 103/17/64 108/16/64
f 104/17/65 109/16/65 111/16/65
f 109/16/65 104/17/65 107/17/65
f 103/17/66 110/16/66 108/16/66
f 110/16/66 103/17/66 101/17/66
f 102/12/63 112/18/63 106/12/63
f 112/18/63 102/12/63 113/19/63
f 113/19/63 102/12/63 114/19/63
f 114/19/63 102/12/63 115/18/63
f 118/12/54 117/13/54 116/14/54
f 117/13/55 119/13/55 116/14/55
f 118/12/56 116/14/56 119/13/56
f 122/12/57 121/14/57 120/13/57
f 122/12/58 123/13/58 121/14/58
f 120/13/59 121/14/59 123/13/59
f 126/15/60 125/15/60 124/15/60
f 125/15/60 126/15/60 127/15/60
f 122/12/61 117/13/61 118/12/61
f 117/13/61 122/12/61 120/13/61
f 123/13/62 118/12/62 119/13/62
f 118/12/62 123/13/62 122/12/62
f 126/16/63 120/17/63 127/16/63
f 120/17/63 126/16/63 117/17/63
f 119/17/64 125/16/64 123/17/64
f 125/16/64 119/17/64 124/16/64
f 120/17/65 125/16/65 127/16/65
f 125/16/65 120/17/65 123/17/65
f 119/17/66 126/16/66 124/16/66
f 126/16/66 119/17/66 117/17/66
f 118/12/63 128/18/63 122/12/63
f 128/18/63 118/12/63 129/19/63
f 129/19/63 118/12/63 130/19/63
f 131/18/64 118/12/64 130/19/64
f 134/12/54 133/13/54 132/14/54
f 133/13/55 135/13/55 132/14/55
f 134/12/56 132/14/56 135/13/56
f 138/12/57 137/14/57 136/13/57
f 138/12/58 139/13/58 137/14/58
f 136/13/59 137/14/59 139/13/59
f 142/15/60 141/15/60 140/15/60
f 141/15/60 142/15/60 143/15/60
f 138/12/61 133/13/61 134/12/61
f 133/13/61 138/12/61 136/13/61
f 139/13/62 134/12/62 135/13/62
f 134/12/62 139/13/62 138/12/62
f 142/16/63 136/17/63 143/16/63
f 136/17/63 142/16/63 133/17/63
f 135/17/64 141/16/64 139/17/64
f 141/16/64 135/17/64 140/16/64
f 136/17/65 141/16/65 143/16/65
f 141/16/65 136/17/65 139/17/65
f 135/17/66 142/16/66 140/16/66
f 142/16/66 135/17/66 133/17/66
f 134/12/63 144/18/63 138/12/63
f 145/19/63 134/12/63 146/19/63
f 146/19/63 134/12/63 147/18/63
f 145/19/64 134/12/64 144/18/64
f 148/14/57 149/13/57 150/12/57
f 148/14/59 151/13/59 149/13/59
f 151/13/58 148/14/58 150/12/58
f 152/13/54 153/14/54 154/12/54
f 153/14/56 155/13/56 154/12/56
f 155/13/55 153/14/55 152/13/55
f 156/15/60 157/15/60 158/15/60
f 159/15/60 158/15/60 157/15/60
f 150/12/61 149/13/61 154/12/61
f 152/13/61 154/12/61 149/13/61
f 151/13/62 150/12/62 155/13/62
f 154/12/62 155/13/62 150/12/62
f 159/16/63 152/17/63 158/16/63
f 149/17/63 158/16/63 152/17/63
f 155/17/64 157/16/64 151/17/64
f 156/16/64 151/17/64 157/16/64
f 159/16/66 157/16/66 152/17/66
f 155/17/66 152/17/66 157/16/66
f 156/16/65 158/16/65 151/17/65
f 149/17/65 151/17/65 158/16/65
f 154/12/63 160/18/63 150/12/63
f 161/19/63 150/12/63 160/18/63
f 162/19/63 150/12/63 161/19/63
f 163/18/63 150/12/63 162/19/63
f 164/14/57 165/13/57 166/12/57
f 164/14/59 167/13/59 165/13/59
f 167/13/58 164/14/58 166/12/58
f 168/13/54 169/14/54 170/12/54
f 169/14/56 171/13/56 170/12/56
f 171/13/55 169/14/55 168/13/55
f 172/15/60 173/15/60 174/15/60
f 175/15/60 174/15/60 173/15/60
f 166/12/61 165/13/61 170/12/61
f 168/13/61 170/12/61 165/13/61
f 167/13/62 166/12/62 171/13/62
f 170/12/62 171/13/62 166/12/62
f 175/16/63 168/17/63 174/16/63
f 165/17/63 174/16/63 168/17/63
f 171/17/64 173/16/64 167/17/64
f 172/16/64 167/17/64 173/16/64
f 175/16/66 173/16/66 168/17/66
f 171/17/66 168/17/66 173/16/66
f 172/16/65 174/16/65 167/17/65
f 165/17/65 167/17/65 174/16/65
f 178/19/63 166/12/63 177/19/63
f 179/18/63 166/12/63 178/19/63
f 166/12/64 176/18/64 170/12/64
f 176/18/64 166/12/64 177/19/64
f 180/14/57 181/13/57 182/12/57
f 180/14/59 183/13/59 181/13/59
f 183/13/58 180/14/58 182/12/58
f 184/13/54 185/14/54 186/12/54
f 185/14/56 187/13/56 186/12/56
f 187/13/55 185/14/55 184/13/55
f 188/15/60 189/15/60 190/15/60
f 191/15/60 190/15/60 189/15/60
f 182/12/61 181/13/61 186/12/61
f 184/13/61 186/12/61 181/13/61
f 183/13/62 182/12/62 187/13/62
f 186/12/62 187/13/62 182/12/62
f 191/16/63 184/17/63 190/16/63
f 181/17/63 190/16/63 184/17/63
f 187/17/64 189/16/64 183/17/64
f 188/16/64 183/17/64 189/16/64
f 191/16/66 189/16/66 184/17/66
f 187/17/66 184/17/66 189/16/66
f 188/16/65 190/16/65 183/17/65
f 181/17/65 183/17/65 190/16/65
f 195/18/63 182/12/63 194/19/63
f 182/12/64 192/18/64 186/12/64
f 192/18/64 182/12/64 193/19/64
f 193/19/64 182/12/64 194/19/64
f 198/15/60 197/15/60 196/15/60
f 197/15/60 198/15/60 199/15/60
f 202/19/67 201/19/67 200/19/67
f 201/19/67 202/19/67 203/19/67
f 198/15/63 204/20/63 199/15/63
f 204/20/63 198/15/63 205/20/63
f 201/19/64 206/21/64 200/19/64
f 206/21/64 201/19/64 207/21/64
f 204/20/65 197/15/65 199/15/65
f 197/15/65 204/20/65 208/22/65
f 207/21/66 203/19/66 209/23/66
f 203/19/66 207/21/66 201/19/66
f 210/22/66 198/15/66 196/15/66
f 198/15/66 210/22/66 205/20/66
f 210/22/64 197/15/64 208/22/64
f 197/15/64 210/22/64 196/15/64
f 209/23/63 202/19/63 211/23/63
f 202/19/63 209/23/63 203/19/63
f 202/19/65 206/21/65 211/23/65
f 206/21/65 202/19/65 200/19/65
f 212/24/66 209/25/66 205/26/66
f 209/25/66 212/24/66 213/27/66
f 205/26/63 211/25/63 204/26/63
f 211/25/63 205/26/63 209/25/63
f 211/25/65 214/24/65 204/26/65
f 214/24/65 211/25/65 215/27/65
f 213/27/64 214/24/64 215/27/64
f 214/24/64 213/27/64 212/24/64
f 218/15/60 217/15/60 216/15/60
f 217/15/60 218/15/60 219/15/60
f 222/19/67 221/19/67 220/19/67
f 221/19/67 222/19/67 223/19/67
f 218/15/63 224/20/63 219/15/63
f 224/20/63 218/15/63 225/20/63
f 221/19/64 226/21/64 220/19/64
f 226/21/64 221/19/64 227/21/64
f 224/20/65 217/15/65 219/15/65
f 217/15/65 224/20/65 228/22/65
f 227/21/66 223/19/66 229/23/66
f 223/19/66 227/21/66 221/19/66
f 230/22/66 218/15/66 216/15/66
f 218/15/66 230/22/66 225/20/66
f 230/22/64 217/15/64 228/22/64
f 217/15/64 230/22/64 216/15/64
f 229/23/63 222/19/63 231/23/63
f 222/19/63 229/23/63 223/19/63
f 222/19/65 226/21/65 231/23/65
f 226/21/65 222/19/65 220/19/65
f 230/24/66 233/25/66 232/26/66
f 233/25/66 230/24/66 234/27/66
f 232/26/63 236/25/63 235/26/63
f 236/25/63 232/26/63 233/25/63
f 236/25/65 228/24/65 235/26/65
f 228/24/65 236/25/65 237/27/65
f 234/27/64 228/24/64 237/27/64
f 228/24/64 234/27/64 230/24/64
f 242/19/66 244/19/66 248/21/66
f 253/23/66 248/21/66 244/19/66
f 245/19/63 251/23/63 244/19/63
f 253/23/63 244/19/63 251/23/63
f 238/15/64 252/22/64 239/15/64
f 250/22/64 239/15/64 252/22/64
f 247/20/65 252/22/65 240/15/65
f 238/15/65 240/15/65 252/22/65
f 243/19/65 249/21/65 245/19/65
f 251/23/65 245/19/65 249/21/65
f 250/22/66 246/20/66 239/15/66
f 241/15/66 239/15/66 246/20/66
f 249/21/64 243/19/64 248/21/64
f 242/19/64 248/21/64 243/19/64
f 247/20/63 240/15/63 246/20/63
f 241/15/63 246/20/63 240/15/63
f 245/19/67 244/19/67 243/19/67
f 242/19/67 243/19/67 244/19/67
f 241/15/60 240/15/60 239/15/60
f 238/15/60 239/15/60 240/15/60
f 254/24/64 255/27/64 256/24/64
f 257/27/64 256/24/64 255/27/64
f 257/27/66 253/25/66 256/24/66
f 246/26/66 256/24/66 253/25/66
f 251/25/63 247/26/63 253/25/63
f 246/26/63 253/25/63 247/26/63
f 255/27/65 254/24/65 251/25/65
f 247/26/65 251/25/65 254/24/65
f 262/19/66 264/19/66 268/21/66
f 273/23/66 268/21/66 264/19/66
f 265/19/63 271/23/63 264/19/63
f 273/23/63 264/19/63 271/23/63
f 258/15/64 272/22/64 259/15/64
f 270/22/64 259/15/64 272/22/64
f 267/20/65 272/22/65 260/15/65
f 258/15/65 260/15/65 272/22/65
f 263/19/65 269/21/65 265/19/65
f 271/23/65 265/19/65 269/21/65
f 270/22/66 266/20/66 259/15/66
f 261/15/66 259/15/66 266/20/66
f 269/21/64 263/19/64 268/21/64
f 262/19/64 268/21/64 263/19/64
f 267/20/63 260/15/63 266/20/63
f 261/15/63 266/20/63 260/15/63
f 265/19/67 264/19/67 263/19/67
f 262/19/67 263/19/67 264/19/67
f 261/15/60 260/15/60 259/15/60
f 258/15/60 259/15/60 260/15/60
f 272/24/64 276/27/64 270/24/64
f 279/27/64 270/24/64 276/27/64
f 279/27/66 278/25/66 270/24/66
f 277/26/66 270/24/66 278/25/66
f 275/25/63 274/26/63 278/25/63
f 277/26/63 278/25/63 274/26/63
f 276/27/65 272/24/65 275/25/65
f 274/26/65 275/25/65 272/24/65
