# Blender 4.3.2
# www.blender.org
mtllib plantSmall1.mtl
o plantSmall1
v -0.009059 0.033807 0.000000
v 0.024749 0.024749 0.000000
v -0.033807 0.009059 0.000000
v 0.033807 -0.009059 0.000000
v -0.024749 -0.024749 0.000000
v 0.009059 -0.033807 0.000000
v -0.012682 0.047330 -0.065000
v -0.009590 0.035792 -0.065000
v 0.034648 0.034648 -0.065000
v 0.026202 0.026202 -0.065000
v 0.047330 -0.012682 -0.065000
v 0.035792 -0.009590 -0.065000
v 0.009590 -0.035792 -0.065000
v 0.012682 -0.047330 -0.065000
v -0.047330 0.012682 -0.065000
v -0.035792 0.009590 -0.065000
v -0.034648 -0.034648 -0.065000
v -0.026202 -0.026202 -0.065000
v 0.026202 0.026202 -0.025000
v 0.012500 0.012500 -0.025000
v 0.035792 -0.009590 -0.025000
v 0.012500 -0.012500 -0.025000
v 0.009590 -0.035792 -0.025000
v -0.012500 -0.012500 -0.025000
v -0.026202 -0.026202 -0.025000
v -0.012500 0.012500 -0.025000
v -0.035792 0.009590 -0.025000
v -0.009590 0.035792 -0.025000
v -0.009625 0.009625 -0.070000
v -0.009625 -0.009625 -0.070000
v 0.009625 0.009625 -0.070000
v 0.009625 -0.009625 -0.070000
v 0.021912 0.022183 -0.090000
v -0.022183 0.022183 -0.090000
v 0.011505 0.011777 -0.110000
v -0.011777 0.011777 -0.110000
v 0.021912 -0.021912 -0.090000
v 0.011505 -0.011505 -0.110000
v -0.022183 -0.021912 -0.090000
v -0.011777 -0.011505 -0.110000
v 0.018036 0.018307 -0.110000
v -0.018307 0.018307 -0.110000
v -0.018307 -0.018036 -0.110000
v 0.018036 -0.018036 -0.110000
v 0.024575 -0.024575 -0.070000
v 0.013873 -0.013873 -0.090000
v -0.024846 -0.024575 -0.070000
v -0.014145 -0.013873 -0.090000
v -0.000136 0.000136 -0.140000
v -0.014145 0.014145 -0.090000
v 0.013873 0.014145 -0.090000
v -0.024846 0.024846 -0.070000
v 0.024575 0.024846 -0.070000
vn 0.5129 0.5129 0.6884
vn -0.1877 0.7006 0.6885
vn -0.7006 0.1877 0.6884
vn 0.7006 -0.1877 0.6884
vn -0.5129 -0.5129 0.6884
vn 0.1877 -0.7006 0.6884
vn 0.5999 0.5999 -0.5294
vn -0.3852 -0.3852 -0.8386
vn 0.1410 -0.5261 -0.8386
vn 0.8194 -0.2196 -0.5294
vn -0.8195 0.2196 -0.5294
vn -0.2196 0.8195 -0.5294
vn 0.5262 -0.1410 -0.8386
vn -0.1410 0.5261 -0.8386
vn 0.2196 -0.8195 -0.5294
vn -0.5999 -0.5999 -0.5294
vn -0.7654 0.2051 -0.6100
vn 0.2813 -0.2813 -0.9174
vn 0.2813 0.2814 -0.9174
vn -0.2051 0.7654 -0.6100
vn -0.2813 -0.2813 -0.9174
vn 0.5603 0.5603 -0.6100
vn -0.5603 -0.5603 -0.6100
vn -0.2814 0.2813 -0.9174
vn 0.7654 -0.2051 -0.6100
vn 0.2051 -0.7654 -0.6100
vn -0.5261 0.1410 -0.8386
vn 0.3852 0.3852 -0.8386
vn -0.3223 0.3223 0.8901
vn -0.3223 -0.3223 0.8901
vn 0.3223 0.3223 0.8901
vn 0.3223 -0.3223 0.8901
vn -0.6644 0.6644 0.3422
vn 0.6645 0.6644 0.3421
vn 0.4665 0.4665 0.7515
vn -0.4665 0.4665 0.7515
vn 0.6644 -0.6644 0.3421
vn 0.4665 -0.4665 0.7515
vn 0.6711 0.6711 0.3149
vn -0.6711 0.6711 0.3149
vn -0.6711 -0.6711 0.3149
vn -0.4665 -0.4665 0.7515
vn 0.6711 -0.6711 0.3148
vn 0.4705 -0.4705 0.7465
vn 0.6657 -0.6657 0.3371
vn -0.6657 -0.6657 0.3371
vn -0.4705 0.4705 0.7465
vn 0.4705 0.4705 0.7465
vn -0.6645 -0.6645 0.3420
vn -0.6657 0.6657 0.3372
vn 0.6657 0.6657 0.3371
vn -0.0000 -0.0000 -1.0000
vn -0.4705 -0.4705 0.7465
vt 1.948720 -1.948720
vt 2.662000 0.713281
vt 0.713281 2.662000
vt -0.713281 -2.662000
vt -1.948720 1.948720
vt -2.662000 -0.713281
vt -2.728207 -2.728207
vt -2.063112 -2.063112
vt -2.818263 0.755151
vt 0.998593 -3.726800
vt -0.998593 3.726800
vt -3.726800 0.998593
vt -0.755151 2.818263
vt 2.818263 -0.755151
vt 3.726800 -0.998593
vt 2.728207 2.728207
vt 0.755151 -2.818263
vt 0.984252 -0.984252
vt -0.984252 -0.984252
vt 0.984252 0.984252
vt 2.063112 2.063112
vt -0.984252 0.984252
vt -1.929134 5.644022
vt -1.377953 0.437636
vt 1.377953 0.437636
vt -1.458840 1.968504
vt 1.458840 1.968504
vt 1.458840 5.118110
vt -1.458840 5.118110
vt 1.929134 5.644022
vt -0.984252 1.901744
vt 0.984252 1.901744
vt 0.757874 5.452275
vt -0.757874 5.452275
vt -1.746686 5.480322
vt 1.725334 5.480322
vt 0.905937 7.255545
vt -0.927289 7.255545
vt -1.746686 5.490178
vt 1.725334 5.490178
vt 0.905937 7.265400
vt 0.927289 0.927289
vt 1.441479 -1.420127
vt 1.441479 1.441479
vt 0.927289 -0.905937
vt -1.420127 1.441479
vt -0.905937 0.927289
vt -1.420127 -1.420127
vt -0.905937 -0.905937
vt -1.092399 5.733019
vt -1.935025 3.946955
vt 1.956377 3.946955
vt 1.746686 -1.725334
vt 1.113751 1.113751
vt 1.113751 -1.092399
vt -1.092399 -1.092399
vt -1.725334 -1.725334
vt -1.725334 1.746686
vt -1.956377 3.936882
vt 1.935025 3.936882
vt 1.092399 5.722946
vt -1.113751 5.722946
vt -1.725334 5.480322
vt 1.746686 5.480322
vt 0.927289 7.255545
vt -1.935025 -1.935025
vt 1.956377 -1.935025
vt 0.757874 -0.757874
vt -0.757874 0.757874
vt -1.935025 1.956377
vt -0.757874 -0.757874
vt 0.010676 9.434388
vt -1.420127 6.672648
vt 1.441479 6.672648
vt -1.956377 3.946955
vt 1.935025 3.946955
vt 1.092399 5.733019
vt -1.113751 5.733019
vt -0.905937 7.265400
vt -1.725334 5.490178
vt 1.746686 5.490178
vt 0.927289 7.265400
vt -0.927289 7.265400
vt 1.113751 5.733019
vt -1.441479 6.672648
vt 1.420127 6.672648
vt -0.010676 9.434388
vt -1.420127 6.661586
vt 1.441479 6.661586
vt 0.010676 9.423326
vt 1.746686 1.746686
vt -1.092399 1.113751
vt -1.935025 3.936882
vt 1.956377 3.936882
vt 1.113751 5.722946
vt -1.092399 5.722946
vt -0.905937 7.255545
vt 0.757874 0.757874
vt 1.956377 1.956377
vt 1.420127 6.661586
vt -0.010676 9.423326
vt -1.441479 6.661586
s 1
usemtl wood.014
f 2/1/1 1/2/2 3/3/3
f 3/3/3 4/4/4 2/1/1
f 3/3/3 5/5/5 4/4/4
f 5/5/5 6/6/6 4/4/4
f 9/7/7 10/8/8 8/9/9
f 9/7/7 11/10/10 10/8/8
f 15/11/11 7/12/12 8/9/9
f 8/9/9 16/13/13 15/11/11
f 13/14/14 14/15/15 17/16/16
f 21/17/17 22/18/18 20/19/19
f 21/17/17 23/14/20 22/18/18
f 23/14/20 24/20/21 22/18/18
f 23/14/20 25/21/22 24/20/21
f 19/8/23 20/19/19 26/22/24
f 19/8/23 26/22/24 27/13/25
f 26/22/24 24/20/21 27/13/25
f 24/20/21 25/21/22 27/13/25
f 27/13/25 28/9/26 19/8/23
f 7/23/12 1/24/2 2/25/1
f 21/26/17 19/27/23 10/28/8
f 28/26/26 27/27/25 16/28/13
f 10/29/8 19/26/23 28/27/26
f 23/26/20 21/27/17 12/28/27
f 12/28/27 13/29/14 23/26/20
f 27/26/25 25/27/22 18/28/28
f 18/28/28 16/29/13 27/26/25
f 6/24/6 5/25/5 17/30/16
f 23/27/20 13/28/14 18/29/28
f 18/29/28 25/26/22 23/27/20
f 4/24/4 6/25/6 14/30/15
f 24/31/21 26/32/24 29/33/29
f 29/33/29 30/34/30 24/31/21
f 26/31/24 20/32/19 31/33/31
f 31/33/31 29/34/29 26/31/24
f 20/31/19 22/32/18 32/33/32
f 32/33/32 31/34/31 20/31/19
f 32/34/32 22/31/18 24/32/21
f 8/9/9 7/12/12 9/7/7
f 11/10/10 12/17/27 10/8/8
f 11/10/10 13/14/14 12/17/27
f 11/10/10 14/15/15 13/14/14
f 16/13/13 17/16/16 15/11/11
f 16/13/13 18/21/28 17/16/16
f 18/21/28 13/14/14 17/16/16
f 20/19/19 19/8/23 21/17/17
f 2/24/1 4/25/4 11/30/10
f 11/30/10 9/23/7 2/24/1
f 2/25/1 9/30/7 7/23/12
f 10/28/8 12/29/27 21/26/17
f 16/28/13 8/29/9 28/26/26
f 28/27/26 8/28/9 10/29/8
f 5/24/5 3/25/3 15/30/11
f 15/30/11 17/23/16 5/24/5
f 17/30/16 14/23/15 6/24/6
f 3/24/3 1/25/2 7/30/12
f 7/30/12 15/23/11 3/24/3
f 14/30/15 11/23/10 4/24/4
f 24/32/21 30/33/30 32/34/32
usemtl plant
f 34/35/33 33/36/34 35/37/35
f 35/37/35 36/38/36 34/35/33
f 33/39/34 37/40/37 38/41/38
f 36/42/36 41/43/39 42/44/40
f 36/42/36 35/45/35 41/43/39
f 43/46/41 40/47/42 36/42/36
f 44/48/43 41/43/39 35/45/35
f 38/49/38 40/47/42 44/48/43
f 46/50/44 45/51/45 47/52/46
f 33/53/34 50/54/47 51/55/48
f 51/55/48 46/56/44 37/57/37
f 46/56/44 39/58/49 37/57/37
f 52/59/50 53/60/51 51/61/48
f 51/61/48 50/62/47 52/59/50
f 39/63/49 34/64/33 36/65/36
f 45/66/45 53/67/51 31/68/31
f 30/69/30 47/70/46 45/66/45
f 31/68/31 32/71/32 45/66/45
f 32/71/32 30/69/30 45/66/45
f 49/72/52 44/73/43 43/74/41
f 53/75/51 45/76/45 46/77/44
f 46/77/44 51/78/48 53/75/51
f 38/79/38 37/80/37 39/81/49
f 39/81/49 40/82/42 38/79/38
f 38/41/38 35/83/35 33/39/34
f 42/44/40 43/46/41 36/42/36
f 40/47/42 43/46/41 44/48/43
f 35/45/35 38/49/38 44/48/43
f 47/52/46 48/84/53 46/50/44
f 41/85/39 44/86/43 49/87/52
f 43/88/41 42/89/40 49/90/52
f 50/54/47 33/53/34 34/91/33
f 34/91/33 39/58/49 50/54/47
f 39/58/49 48/92/53 50/54/47
f 39/58/49 46/56/44 48/92/53
f 51/55/48 37/57/37 33/53/34
f 47/93/46 52/94/50 50/95/47
f 50/95/47 48/96/53 47/93/46
f 36/65/36 40/97/42 39/63/49
f 29/98/29 53/67/51 52/99/50
f 52/99/50 47/70/46 29/98/29
f 29/98/29 31/68/31 53/67/51
f 47/70/46 30/69/30 29/98/29
f 41/100/39 49/101/52 42/102/40
