# Blender 4.3.2
# www.blender.org
mtllib loungeChairRelax.mtl
o loungeChairRelax
v -0.339829 0.205193 -0.100000
v -0.339829 0.224693 -0.100000
v -0.369829 0.205193 -0.100000
v -0.369829 0.224693 -0.100000
v -0.339829 0.224693 -0.050000
v -0.339829 0.114693 -0.069335
v -0.369829 0.224693 -0.050000
v -0.369829 0.114693 -0.069335
v -0.369829 0.206797 -0.094015
v -0.120171 0.205193 -0.100000
v -0.120171 0.206797 -0.094015
v -0.120171 0.224693 -0.100000
v -0.120171 0.224693 -0.050000
v -0.120171 0.114693 -0.069335
v -0.150171 0.114693 -0.069335
v -0.150171 0.206797 -0.094015
v -0.150171 0.224693 -0.050000
v -0.150171 0.224693 -0.100000
v -0.150171 0.205193 -0.100000
v -0.339829 0.206797 -0.094015
v -0.090171 0.206797 -0.094015
v -0.090171 0.193185 -0.144816
v -0.399829 0.193185 -0.144816
v -0.399829 0.206797 -0.094015
v -0.399829 0.013612 -0.042251
v -0.090171 0.013612 -0.042251
v -0.399829 0.000000 -0.093052
v -0.090171 0.000000 -0.093052
v -0.399829 0.524521 -0.370000
v -0.434914 0.524521 -0.370000
v -0.399829 0.264693 -0.370000
v -0.490000 0.264693 -0.370000
v -0.434914 0.614693 -0.370000
v -0.490000 0.614693 -0.370000
v -0.490000 0.224693 -0.330000
v -0.399829 0.224693 -0.330000
v -0.490000 0.224693 -0.050000
v -0.490000 0.264693 -0.050000
v -0.490000 0.574693 -0.050000
v -0.490000 0.614693 -0.050000
v -0.000000 0.614693 -0.050000
v -0.040000 0.614693 -0.050000
v 0.000000 0.614693 -0.370000
v -0.450000 0.614693 -0.050000
v -0.055086 0.614693 -0.370000
v -0.450000 0.224693 -0.050000
v -0.399829 0.224693 -0.144814
v -0.399829 0.224693 -0.230000
v -0.090171 0.224693 -0.144814
v 0.000000 0.224693 -0.050000
v -0.040000 0.224693 -0.050000
v 0.000000 0.224693 -0.330000
v -0.090171 0.224693 -0.230000
v -0.090171 0.224693 -0.330000
v 0.000000 0.264693 -0.050000
v -0.040000 0.264693 -0.050000
v -0.000000 0.574693 -0.050000
v -0.040000 0.574693 -0.050000
v -0.450000 0.264693 -0.050000
v -0.450000 0.574693 -0.050000
v -0.090171 0.204693 -0.230000
v -0.399829 0.204693 -0.230000
v -0.399829 0.524521 -0.230000
v -0.090171 0.524521 -0.230000
v 0.000000 0.264693 -0.370000
v -0.090171 0.264693 -0.370000
v -0.055086 0.524521 -0.370000
v -0.090171 0.524521 -0.370000
v -0.399829 0.204693 -0.144814
v -0.090171 0.204693 -0.144814
v -0.434914 0.584521 -0.590000
v -0.394914 0.584521 -0.630000
v -0.434914 0.674693 -0.590000
v -0.394914 0.674693 -0.630000
v -0.095086 0.584521 -0.630000
v -0.095086 0.674693 -0.630000
v -0.055086 0.584521 -0.590000
v -0.055086 0.674693 -0.590000
v -0.490000 0.574693 -0.000000
v -0.490000 0.614693 -0.000000
v -0.450000 0.574693 -0.000000
v -0.040000 0.574693 -0.000000
v -0.000000 0.574693 -0.000000
v -0.450000 0.224693 0.000000
v -0.450000 0.264693 0.000000
v -0.000000 0.614693 -0.000000
v -0.450000 0.614693 -0.000000
v 0.000000 0.264693 0.000000
v 0.000000 0.224693 0.000000
v -0.040000 0.264693 0.000000
v -0.040000 0.224693 0.000000
v -0.490000 0.224693 0.000000
v -0.490000 0.264693 0.000000
v -0.040000 0.614693 -0.000000
vn 0.3015 -0.9045 -0.3015
vn 0.2381 0.8280 -0.5076
vn -0.2381 0.8280 -0.5076
vn -0.3015 -0.9045 -0.3015
vn 0.0704 0.1532 0.9857
vn 0.2672 -0.3525 0.8969
vn -0.2672 -0.3525 0.8969
vn -0.0704 0.1532 0.9857
vn -0.9045 0.3693 0.2132
vn 0.9045 0.3693 0.2132
vn 0.5773 0.4082 -0.7071
vn -0.5774 0.7071 0.4082
vn -0.5773 -0.4083 0.7071
vn 0.5773 -0.4083 0.7071
vn 0.5774 0.7071 0.4083
vn -0.5774 -0.7071 -0.4083
vn 0.5774 -0.7071 -0.4082
vn -0.5773 0.4083 -0.7071
vn -0.6303 -0.2971 -0.7173
vn -0.5774 0.5774 -0.5773
vn -0.6938 0.5723 -0.4371
vn 0.6303 -0.7173 -0.2971
vn -0.6303 -0.7173 -0.2971
vn 0.6303 -0.2971 -0.7173
vn -0.7071 -0.7071 -0.0000
vn -0.9045 0.3015 0.3015
vn -0.9045 -0.3015 0.3015
vn -0.7071 0.7071 -0.0000
vn -0.0000 1.0000 -0.0000
vn 0.3015 -0.9045 0.3015
vn -0.3015 -0.9045 0.3015
vn -0.0000 -0.0000 -0.0000
vn -0.0000 -0.7071 -0.7071
vn -0.0000 -0.0000 1.0000
vn 0.3015 0.9045 0.3015
vn -0.3015 -0.3015 0.9045
vn 0.3015 0.3015 0.9045
vn 0.5773 -0.5773 0.5774
vn -0.0000 -0.0000 -1.0000
vn -0.5773 -0.5773 -0.5774
vn 0.5773 -0.5773 -0.5774
vn -0.2897 -0.8488 -0.4422
vn 0.2371 -0.2754 -0.9316
vn 0.2897 -0.8488 -0.4422
vn 0.9045 0.3015 0.3015
vn 0.7071 -0.7071 -0.0000
vn 0.5774 0.5774 -0.5773
vn -0.5774 -0.5774 0.5774
vn 0.5774 -0.5774 -0.5774
vn 0.7300 -0.5698 -0.3774
vn 0.2971 -0.6303 -0.7173
vn 0.2971 0.6303 -0.7173
vn 0.7087 0.6752 -0.2046
vn -0.7087 0.6752 -0.2046
vn -0.7300 -0.5698 -0.3774
vn 0.3575 0.9063 -0.2253
vn -0.5773 0.5773 0.5774
vn 0.9045 -0.3015 0.3015
vn 0.7071 0.7071 -0.0000
vn 0.5774 0.5774 0.5774
vn -0.2371 -0.2754 -0.9316
vn -0.3015 0.9045 0.3015
vn -0.2971 -0.6303 -0.7173
vn -0.2971 0.6303 -0.7173
vt 13.379080 8.846169
vt 13.379080 8.078482
vt 14.560180 8.078482
vt 14.560180 8.846169
vt 13.379080 -3.974700
vt 13.379080 -8.371803
vt 14.560180 -8.371803
vt 14.560180 -3.974700
vt 8.141622 3.701367
vt 4.515460 2.729740
vt 8.846169 1.968504
vt 8.846169 3.937008
vt 8.078482 3.937008
vt -8.141622 3.701367
vt -8.078482 3.937008
vt -8.846169 3.937008
vt -8.846169 1.968504
vt 5.912261 -8.371803
vt 5.912261 -3.974700
vt 4.731159 -3.974700
vt 4.731159 8.846169
vt 4.731159 8.078482
vt 5.912261 8.078482
vt 5.912261 8.846169
vt -3.550057 3.538624
vt -13.379080 1.711993
vt -5.912261 1.711993
vt -15.741280 1.468039
vt -14.560180 1.468039
vt -14.560180 1.711993
vt -13.379080 1.468039
vt -5.912261 1.468039
vt -4.731159 5.068109
vt -15.741280 0.948171
vt -3.550057 0.948171
vt -4.731159 8.822187
vt -3.550057 8.822187
vt -13.379080 5.068109
vt -14.560180 5.068109
vt -15.741280 8.822187
vt -14.560180 8.822187
vt 15.741280 3.538624
vt 3.550057 3.538624
vt 3.550057 1.468039
vt 7.605715 5.701398
vt 0.000000 3.663453
vt 0.535907 1.663422
vt 19.291340 10.420970
vt 19.291340 24.200500
vt 17.122610 24.200500
vt 15.741280 15.442010
vt 19.291340 15.442010
vt 19.291340 17.669121
vt 15.741280 17.669121
vt 8.846169 12.992130
vt 10.420970 1.968504
vt 10.420970 14.566930
vt 22.625700 1.968504
vt 24.200500 1.968504
vt 24.200500 14.566930
vt -2.168729 14.566930
vt -17.122610 14.566930
vt -19.291340 14.566930
vt 17.716539 1.968504
vt 19.291340 1.968504
vt 19.291340 12.992130
vt 14.560180 1.968504
vt 15.741280 5.701352
vt 5.912261 3.937008
vt 13.379080 3.937008
vt 4.731159 3.937008
vt 15.741280 9.055119
vt 15.741280 12.992130
vt 3.550057 9.055119
vt 3.550057 12.992130
vt 0.000000 12.992130
vt 5.912261 1.968504
vt -1.574803 22.625700
vt -1.574803 8.846169
vt -1.574803 10.420970
vt -17.716539 24.200500
vt -4.731159 8.846169
vt -5.912261 8.846169
vt -14.560180 8.846169
vt -13.379080 8.846169
vt -17.716539 10.420970
vt -17.716539 22.625700
vt -19.291340 10.420970
vt -19.291340 22.625700
vt -17.716539 8.846169
vt 15.741280 8.058767
vt 15.741280 8.846169
vt 15.741280 20.650440
vt 3.550057 20.650440
vt 3.550057 8.846169
vt 3.550057 10.420970
vt 2.168729 20.650440
vt -10.420970 14.566930
vt -20.650440 9.055119
vt -8.846169 9.055119
vt -20.650440 14.566930
vt -10.420970 1.968504
vt -24.200500 14.566930
vt 3.550057 5.701352
vt 0.000000 15.442010
vt 3.550057 15.442010
vt 3.550057 17.669121
vt 0.000000 17.669121
vt 8.846169 9.055119
vt 20.650440 9.055119
vt 15.741280 0.948171
vt 15.741280 8.822187
vt 3.550057 8.822187
vt -3.550057 8.058767
vt -3.550057 8.846169
vt -15.741280 8.846169
vt -7.605715 5.701398
vt -0.535907 1.663422
vt -8.058767 5.701352
vt -8.058767 9.055119
vt -23.012650 17.958441
vt -23.012650 20.185551
vt -26.562700 20.185551
vt -26.562700 17.958441
vt -2.168729 29.398979
vt -17.122610 29.398979
vt -17.122610 20.421221
vt 17.122610 28.464899
vt 3.550057 19.487141
vt 15.741280 19.487141
vt 2.168729 19.487141
vt 2.168729 28.464899
vt -23.012650 23.228350
vt -26.562700 23.228350
vt -17.122610 23.228350
vt -2.168729 23.228350
vt -3.743532 24.803150
vt 15.741280 14.566930
vt 3.550057 14.566930
vt 26.562700 23.228350
vt 23.012650 23.228350
vt 22.625700 -0.000000
vt 24.200500 -0.000000
vt 17.716539 0.000000
vt 19.291340 0.000000
vt -8.846169 0.000000
vt -22.625700 0.000000
vt -22.625700 1.968504
vt -24.200500 1.968504
vt -24.200500 0.000000
vt 0.000000 8.846169
vt 0.000000 10.420970
vt 17.716539 0.000000
vt 19.291340 0.000000
vt -19.291340 24.200500
vt -17.716539 1.968504
vt -19.291340 1.968504
vt -19.291340 0.000000
vt -10.420970 0.000000
vt -19.291340 0.000000
vt -17.716539 0.000000
vt -1.574803 0.000000
vt 0.000000 0.000000
vt 0.000000 1.968504
vt -1.574803 1.968504
vt 10.420970 0.000000
vt -1.574803 0.000000
vt -0.000000 0.000000
vt -0.000000 1.968504
vt 22.625700 0.000000
vt 24.200500 0.000000
vt 1.574803 1.968504
vt -4.515460 2.729740
vt 4.731159 -8.371803
vt -4.731159 1.711993
vt -4.731159 1.468039
vt -3.550057 1.468039
vt -15.741280 3.538624
vt -5.912261 5.068109
vt -5.912261 8.822187
vt -13.379080 8.822187
vt 15.741280 1.468039
vt 17.122610 20.650440
vt 15.741280 10.420970
vt -0.000000 14.566930
vt 14.560180 3.937008
vt 4.731159 1.968504
vt 13.379080 1.968504
vt -0.000000 10.420970
vt -0.000000 22.625700
vt -1.574803 24.200500
vt 3.550057 8.058767
vt -0.000000 24.200500
vt -0.000000 10.420970
vt 2.168729 24.200500
vt -8.846169 12.992130
vt 20.650440 14.566930
vt 3.550057 0.948171
vt -15.741280 8.058767
vt -8.846169 5.701352
vt 8.058767 9.055119
vt 8.058767 5.701352
vt 8.846169 5.701352
vt 23.012650 6.544516
vt 23.012650 4.317408
vt 26.562700 4.317408
vt 26.562700 6.544516
vt 3.743532 26.562700
vt 3.743532 23.012650
vt 15.547810 23.012650
vt 15.547810 26.562700
vt -2.168729 20.421221
vt 17.122610 19.487141
vt -15.547810 24.803150
vt 2.168729 23.228350
vt 17.122610 23.228350
vt 15.547810 24.803150
vt 3.743532 24.803150
vt 0.000000 0.000000
vt 1.574803 0.000000
vt 0.000000 1.968504
vt -17.716539 0.000000
vt -19.291340 8.846169
vt 8.846169 0.000000
vt -0.000000 24.200500
vt 1.574803 0.000000
s 1
usemtl metal.007
f 2/1/1 1/2/2 3/3/3
f 3/3/3 4/4/4 2/1/1
f 6/5/5 5/6/6 7/7/7
f 7/7/7 8/8/8 6/5/5
f 9/9/9 8/10/8 7/11/7
f 9/9/9 7/11/7 4/12/4
f 4/12/4 3/13/3 9/9/9
f 11/14/10 10/15/2 12/16/1
f 11/14/10 12/16/1 13/17/6
f 17/18/7 15/19/8 14/20/5
f 12/21/1 10/22/2 19/23/3
f 19/23/3 18/24/4 12/21/1
f 13/17/6 14/173/5 11/14/10
f 16/9/9 15/10/8 17/11/7
f 16/9/9 17/11/7 18/12/4
f 18/12/4 19/13/3 16/9/9
f 20/14/10 1/15/2 2/16/1
f 20/14/10 2/16/1 5/17/6
f 5/17/6 6/173/5 20/14/10
f 14/20/5 13/174/6 17/18/7
usemtl carpet
f 22/25/11 1/26/2 19/27/3
f 24/28/12 9/29/9 3/30/3
f 20/31/10 16/32/9 19/27/3
f 14/33/5 25/34/13 26/35/14
f 11/36/10 14/33/5 26/35/14
f 26/35/14 21/37/15 11/36/10
f 6/38/5 8/39/8 25/34/13
f 8/39/8 24/40/12 25/34/13
f 8/39/8 9/41/9 24/40/12
f 27/42/16 28/43/17 26/44/14
f 23/45/18 27/46/16 25/47/13
f 32/48/19 34/49/20 33/50/21
f 36/51/22 35/52/23 32/53/19
f 32/53/19 31/54/24 36/51/22
f 35/55/23 37/11/25 38/56/26
f 38/56/26 32/57/19 35/55/23
f 38/56/26 39/58/27 32/57/19
f 39/58/27 40/59/28 34/60/20
s 0
f 45/61/29 33/62/29 34/63/29
s 1
f 46/64/30 37/65/25 35/66/23
f 35/66/23 7/67/7 46/64/30
f 35/66/23 47/68/31 7/67/7
f 47/68/31 18/69/4 2/70/1
f 47/68/31 12/71/1 18/69/4
f 35/66/23 48/72/32 47/68/31
f 35/66/23 36/73/22 48/72/32
f 53/74/33 54/75/23 52/76/22
f 2/70/1 18/69/4 17/77/7
s 0
f 58/78/34 51/79/34 56/80/34
s 1
f 44/81/35 13/82/6 58/78/36
f 44/81/35 17/83/7 13/82/6
f 44/81/35 7/84/7 5/85/6
f 44/81/35 59/86/37 7/84/7
s 0
f 44/81/34 60/87/34 59/86/34
s 1
f 60/87/38 38/88/26 59/86/37
f 60/87/38 39/89/27 38/88/26
f 7/84/7 59/86/37 46/90/30
s 0
f 62/91/39 48/92/39 63/93/39
s 1
f 64/94/40 53/95/33 63/93/41
f 66/96/19 68/94/42 67/97/43
f 31/98/24 63/99/41 48/100/32
f 31/98/24 29/101/44 63/99/41
f 65/98/24 55/102/45 50/17/46
f 65/98/24 43/103/47 55/102/45
f 70/104/38 69/68/48 62/72/40
f 52/105/22 54/106/23 66/107/19
f 66/107/19 65/108/24 52/105/22
f 54/55/23 53/109/33 64/110/40
f 64/110/40 66/57/19 54/55/23
f 27/111/16 23/112/18 22/113/11
f 70/114/38 49/115/30 47/116/31
f 22/117/11 21/14/15 26/118/14
f 70/119/38 61/120/49 53/100/33
f 77/121/50 75/122/51 76/123/52
f 76/123/52 78/124/53 77/121/50
f 78/125/53 73/126/54 33/127/21
f 71/128/55 68/129/42 29/130/44
f 71/128/55 67/131/43 68/129/42
f 71/128/55 77/132/50 67/131/43
f 45/103/56 67/101/43 77/133/50
f 77/133/50 78/134/53 45/103/56
f 73/135/54 78/136/53 76/137/52
f 64/74/40 63/72/41 29/138/44
f 29/138/44 68/139/42 64/74/40
f 33/60/21 73/140/54 71/141/55
f 10/175/2 11/176/10 21/177/15
f 21/177/15 22/25/11 10/175/2
f 22/25/11 19/27/3 10/175/2
f 22/25/11 3/30/3 1/26/2
f 3/30/3 22/25/11 23/178/18
f 3/30/3 23/178/18 24/28/12
f 19/27/3 1/26/2 20/31/10
f 15/179/8 16/180/9 20/181/10
f 15/179/8 20/181/10 6/38/5
f 15/179/8 6/38/5 25/34/13
f 14/33/5 15/179/8 25/34/13
f 26/44/14 25/182/13 27/42/16
f 25/47/13 24/9/12 23/45/18
f 30/183/61 29/93/44 31/184/24
f 31/184/24 32/48/19 30/183/61
f 32/48/19 33/50/21 30/183/61
f 39/58/27 34/60/20 32/57/19
f 42/165/62 41/169/59 43/185/47
f 43/185/47 44/156/35 42/165/62
f 43/185/47 45/61/56 44/156/35
f 44/156/35 45/61/56 34/63/20
f 34/63/20 40/157/28 44/156/35
f 47/68/31 4/186/4 7/67/7
f 47/68/31 2/70/1 4/186/4
f 12/71/1 47/68/31 49/104/30
f 12/71/1 49/104/30 50/164/46
f 12/71/1 50/164/46 51/172/31
f 51/172/31 13/187/6 12/71/1
f 49/104/30 52/76/22 50/164/46
f 49/104/30 53/74/33 52/76/22
f 17/77/7 5/188/6 2/70/1
f 56/80/57 55/189/45 57/190/58
f 57/190/58 58/78/36 56/80/57
f 58/78/36 13/82/6 51/79/31
f 58/78/36 42/191/62 44/81/35
f 44/81/35 5/85/6 17/83/7
f 53/95/33 61/192/49 62/91/40
f 62/91/40 63/93/41 53/95/33
f 43/193/47 65/194/24 66/96/19
f 66/96/19 67/97/43 43/193/47
f 43/193/47 67/97/43 45/195/56
f 48/100/32 36/196/22 31/98/24
f 50/17/46 52/196/22 65/98/24
f 43/103/47 57/148/58 55/102/45
f 43/103/47 41/149/59 57/148/58
f 62/72/40 61/74/49 70/104/38
f 64/110/40 68/197/42 66/57/19
f 22/113/11 28/198/17 27/111/16
f 47/116/31 69/199/48 70/114/38
f 26/118/14 28/46/17 22/117/11
f 53/100/33 49/200/30 70/119/38
f 62/201/40 69/202/48 47/203/31
f 47/203/31 48/109/32 62/201/40
f 72/204/63 71/205/55 73/206/54
f 73/206/54 74/207/64 72/204/63
f 76/208/52 75/209/51 72/210/63
f 72/210/63 74/211/64 76/208/52
f 33/127/21 45/212/56 78/125/53
f 29/130/44 30/213/61 71/128/55
f 76/137/52 74/214/64 73/135/54
f 71/141/55 30/197/61 33/60/21
f 77/215/50 71/216/55 72/217/63
f 72/217/63 75/218/51 77/215/50
usemtl wood.005
f 39/58/27 79/142/48 80/143/57
f 80/143/57 40/59/28 39/58/27
f 81/144/38 79/145/48 39/65/27
f 39/65/27 60/64/38 81/144/38
f 84/146/38 46/17/30 59/102/37
f 83/147/38 57/148/58 41/149/59
f 41/149/59 86/150/60 83/147/38
f 89/151/38 88/152/60 90/80/57
f 84/153/38 92/154/48 37/65/25
f 37/65/25 46/64/30 84/153/38
f 80/155/57 79/89/48 81/87/38
f 44/156/35 40/157/28 80/158/57
f 55/102/45 88/159/60 89/146/38
f 93/160/57 85/161/60 59/156/37
f 59/156/37 38/157/26 93/160/57
f 90/162/57 88/163/60 55/164/45
f 55/164/45 56/165/57 90/162/57
f 90/166/57 56/56/57 51/11/31
f 94/167/57 86/168/60 41/169/59
f 58/58/36 82/170/48 94/171/57
f 51/172/31 50/164/46 89/163/38
f 83/219/38 82/220/48 58/172/36
f 58/172/36 57/221/58 83/219/38
f 59/102/37 85/159/60 84/146/38
f 81/147/38 60/148/38 44/149/35
f 44/149/35 87/150/60 81/147/38
f 90/80/57 91/79/48 89/151/38
f 81/87/38 87/81/60 80/155/57
f 80/158/57 87/222/60 44/156/35
f 89/146/38 50/17/46 55/102/45
f 84/90/38 85/86/60 93/88/57
f 93/88/57 92/223/48 84/90/38
f 51/11/31 91/224/48 90/166/57
f 83/190/38 86/225/60 94/191/57
f 94/191/57 82/78/48 83/190/38
f 37/11/25 92/224/48 93/166/57
f 93/166/57 38/56/26 37/11/25
f 41/169/59 42/165/62 94/167/57
f 94/171/57 42/59/62 58/58/36
f 89/163/38 91/226/48 51/172/31
