# Blender 4.3.2
# www.blender.org
mtllib freezers-standing.mtl
o freezers-standing
v 0.450000 -0.500000 -0.900000
v 0.450000 -0.100000 -0.900000
v -0.450000 -0.500000 -0.900000
v -0.450000 -0.100000 -0.900000
v 0.500000 -0.500000 -0.850000
v 0.500000 -0.500000 -0.150000
v 0.500000 -0.100000 -0.850000
v 0.500000 -0.100000 -0.150000
v -0.500000 -0.500000 -0.150000
v -0.500000 -0.500000 -0.850000
v -0.500000 -0.100000 -0.150000
v -0.500000 -0.100000 -0.850000
v 0.450000 -0.100000 -0.100000
v 0.450000 -0.500000 -0.100000
v -0.450000 -0.100000 -0.100000
v -0.450000 -0.500000 -0.100000
v -0.450000 -0.500000 0.000000
v 0.450000 -0.500000 0.000000
v 0.450000 -0.100000 0.000000
v -0.450000 -0.100000 0.000000
v 0.450000 -0.100000 -0.829289
v 0.450000 0.000000 -0.829289
v 0.429289 -0.100000 -0.850000
v 0.429289 0.000000 -0.850000
v 0.400000 -0.050000 -0.200000
v 0.400000 -0.050000 -0.800000
v 0.400000 0.000000 -0.200000
v 0.400000 0.000000 -0.800000
v 0.429289 -0.100000 -0.150000
v 0.429289 0.000000 -0.150000
v 0.450000 -0.100000 -0.170711
v 0.450000 0.000000 -0.170711
v 0.075000 -0.050000 -0.575000
v 0.075000 0.000000 -0.575000
v 0.075000 -0.050000 -0.800000
v 0.075000 0.000000 -0.800000
v 0.045711 0.000000 -0.150000
v 0.045711 -0.100000 -0.150000
v 0.025000 -0.100000 -0.170711
v 0.025000 0.000000 -0.170711
v 0.045711 -0.100000 -0.850000
v 0.045711 0.000000 -0.850000
v 0.025000 -0.100000 -0.829289
v 0.025000 0.000000 -0.829289
v 0.075000 -0.050000 -0.200000
v 0.075000 0.000000 -0.200000
v 0.075000 0.000000 -0.425000
v 0.125000 -0.025000 -0.425000
v 0.125000 -0.050000 -0.425000
v 0.075000 -0.050000 -0.425000
v 0.125000 -0.050000 -0.575000
v 0.125000 -0.025000 -0.575000
v -0.025000 -0.100000 -0.829289
v -0.025000 0.000000 -0.829289
v -0.045711 -0.100000 -0.850000
v -0.045711 0.000000 -0.850000
v -0.075000 -0.050000 -0.200000
v -0.075000 -0.050000 -0.800000
v -0.075000 0.000000 -0.200000
v -0.075000 0.000000 -0.800000
v -0.045711 -0.100000 -0.150000
v -0.045711 0.000000 -0.150000
v -0.025000 -0.100000 -0.170711
v -0.025000 0.000000 -0.170711
v -0.400000 -0.050000 -0.575000
v -0.400000 0.000000 -0.575000
v -0.400000 -0.050000 -0.800000
v -0.400000 0.000000 -0.800000
v -0.429289 0.000000 -0.150000
v -0.429289 -0.100000 -0.150000
v -0.450000 -0.100000 -0.170711
v -0.450000 0.000000 -0.170711
v -0.429289 -0.100000 -0.850000
v -0.429289 0.000000 -0.850000
v -0.450000 -0.100000 -0.829289
v -0.450000 0.000000 -0.829289
v -0.400000 -0.050000 -0.200000
v -0.400000 0.000000 -0.200000
v -0.400000 0.000000 -0.425000
v -0.350000 -0.025000 -0.425000
v -0.350000 -0.050000 -0.425000
v -0.400000 -0.050000 -0.425000
v -0.350000 -0.050000 -0.575000
v -0.350000 -0.025000 -0.575000
vn -0.0195 -0.5762 -0.8171
vn 0.3553 0.3717 -0.8577
vn -0.0875 -0.6575 -0.7483
vn 0.0875 0.6575 -0.7483
vn 0.8356 0.5489 -0.0217
vn 0.7512 -0.6601 -0.0102
vn 0.8247 -0.4508 -0.3416
vn 0.8247 0.4508 0.3416
vn -0.8356 0.5489 0.0217
vn -0.7512 -0.6601 0.0102
vn -0.8247 -0.4508 0.3416
vn -0.8247 0.4508 -0.3416
vn 0.5491 0.8042 0.2275
vn 0.5491 -0.8042 0.2275
vn -0.5491 -0.8042 0.2275
vn -0.5491 0.8042 0.2275
vn 0.5773 -0.5774 0.5773
vn -0.5774 -0.5774 0.5774
vn -0.5773 0.5774 0.5773
vn 0.5774 0.5774 0.5774
vn -0.5774 0.5773 0.5774
vn -0.3015 0.9045 -0.3015
vn -0.3015 0.9045 0.3015
vn 0.8089 -0.3695 0.4573
vn 0.3665 0.2875 0.8849
vn 0.5287 -0.6601 0.5336
vn 0.5773 0.5774 0.5774
vn 0.4370 0.8739 -0.2128
vn 0.5774 0.5774 -0.5773
vn 0.3015 0.9045 0.3015
vn 0.0319 0.6049 0.7957
vn 0.0315 -0.6597 0.7508
vn -0.5776 -0.6586 0.4824
vn 0.0098 0.6120 -0.7908
vn -0.3691 -0.2644 -0.8910
vn 0.0315 0.6597 -0.7508
vn -0.7731 0.5063 -0.3821
vn -0.8445 -0.4056 -0.3498
vn -0.7676 0.6370 0.0709
vn 0.5774 0.5773 -0.5774
vn -0.5774 0.5774 -0.5774
vn 0.3015 0.9045 -0.3015
vn 0.5385 0.7557 0.3727
vn 0.7401 0.6655 -0.0970
vn 0.4370 0.8739 0.2128
vn 0.7506 -0.6596 -0.0392
vn 0.5350 -0.6601 -0.5273
vn 0.7328 -0.1816 0.6558
vn 0.8205 0.5071 -0.2637
vn 0.7850 0.4697 -0.4039
vn 0.3561 -0.3661 -0.8597
vn 0.5287 0.6601 -0.5336
vn 0.5794 0.6585 0.4804
vn 0.7711 -0.6353 -0.0410
vn 0.1037 -0.5900 -0.8007
vn -0.8329 -0.4328 0.3450
vn 0.4078 0.3168 -0.8563
vn 0.6936 0.7159 0.0798
vt 0.218750 0.225000
vt 0.218750 0.213889
vt 0.218750 0.058333
vt 0.218750 0.047222
vt 0.218750 0.025000
vt 0.093750 0.047222
vt 0.093750 0.025000
vt 0.468750 0.210714
vt 0.468750 0.039286
vt 0.468750 0.030917
vt 0.468750 0.025000
vt 0.468750 0.146429
vt 0.468750 0.225000
vt 0.468750 0.219083
vt 0.468750 0.103571
vt 0.593750 0.210714
vt 0.593750 0.039286
vt 0.593750 0.103571
vt 0.593750 0.146429
s 1
usemtl colormap.010
f 3/1/1 2/1/2 1/1/3
f 2/1/2 3/1/1 4/1/4
f 7/2/5 6/3/6 5/2/7
f 6/3/6 7/2/5 8/3/8
f 11/3/9 10/2/10 9/3/11
f 10/2/10 11/3/9 12/2/12
f 7/2/5 1/1/3 2/1/2
f 13/4/13 6/3/6 8/3/8
f 6/3/6 13/4/13 14/4/14
f 11/3/9 16/4/15 15/4/16
f 16/4/15 11/3/9 9/3/11
f 4/1/4 10/2/10 12/2/12
f 16/4/15 18/5/17 17/5/18
f 18/5/17 16/4/15 14/4/14
f 14/4/14 16/4/15 9/3/11
f 14/4/14 9/3/11 6/3/6
f 6/3/6 9/3/11 10/2/10
f 5/2/7 10/2/10 3/1/1
f 5/2/7 3/1/1 1/1/3
f 8/3/8 15/6/16 13/6/13
f 11/3/9 8/3/8 7/2/5
f 11/3/9 7/2/5 12/2/12
f 20/7/19 18/7/17 19/7/20
f 18/7/17 20/7/19 17/7/18
f 13/6/13 20/7/19 19/7/20
f 20/7/19 13/6/13 15/6/16
f 18/7/17 13/6/13 19/7/20
f 26/8/21 27/9/22 28/8/23
f 31/10/24 30/11/25 29/11/26
f 35/8/27 34/12/28 33/12/29
f 34/12/28 35/8/27 36/8/30
f 37/11/31 29/11/26 30/11/25
f 29/11/26 37/11/31 38/11/32
f 37/11/31 39/10/33 38/11/32
f 24/13/34 41/13/35 42/13/36
f 44/14/37 41/13/35 43/14/38
f 41/13/35 44/14/37 42/13/36
f 40/10/39 43/14/38 39/10/33
f 45/9/40 27/9/22 25/9/41
f 27/9/22 45/9/40 46/9/42
f 32/10/43 37/11/31 30/11/25
f 37/11/31 32/10/43 40/10/39
f 40/10/39 32/10/43 27/9/22
f 27/9/22 32/10/43 22/14/44
f 46/9/42 40/10/39 27/9/22
f 27/9/22 22/14/44 28/8/23
f 40/10/39 46/9/42 44/14/37
f 44/14/37 46/9/42 47/15/45
f 28/8/23 22/14/44 36/8/30
f 44/14/37 36/8/30 22/14/44
f 44/14/37 22/14/44 24/13/34
f 44/14/37 24/13/34 42/13/36
f 39/10/33 29/11/26 38/11/32
f 31/10/24 39/10/33 21/14/46
f 21/14/46 39/10/33 43/14/38
f 21/14/46 43/14/38 23/13/47
f 23/13/47 43/14/38 41/13/35
f 49/15/30 47/15/45 50/15/27
f 51/12/42 48/15/48 49/15/30
f 48/15/48 51/12/42 52/12/49
f 52/12/49 33/12/29 34/12/28
f 50/15/27 46/9/42 45/9/40
f 46/9/42 50/15/27 47/15/45
f 54/14/50 55/13/51 56/13/52
f 58/8/21 59/9/22 60/8/23
f 63/10/24 62/11/25 61/11/26
f 62/11/25 63/10/24 64/10/53
f 53/14/54 64/10/53 63/10/24
f 64/10/53 53/14/54 54/14/50
f 67/8/27 66/12/28 65/12/29
f 66/12/28 67/8/27 68/8/30
f 69/11/31 61/11/26 62/11/25
f 61/11/26 69/11/31 70/11/32
f 73/13/55 56/13/52 55/13/51
f 56/13/52 73/13/55 74/13/36
f 76/14/37 73/13/55 75/14/38
f 72/10/39 75/14/38 71/10/56
f 75/14/38 72/10/39 76/14/37
f 59/9/22 77/9/40 78/9/42
f 69/11/31 64/10/53 72/10/39
f 72/10/39 64/10/53 59/9/22
f 76/14/37 68/8/30 54/14/50
f 76/14/37 54/14/50 56/13/52
f 71/10/56 61/11/26 70/11/32
f 61/11/26 71/10/56 63/10/24
f 63/10/24 71/10/56 53/14/54
f 53/14/54 71/10/56 75/14/38
f 53/14/54 75/14/38 55/13/51
f 55/13/51 75/14/38 73/13/55
f 81/15/30 79/15/45 82/15/27
f 84/12/57 65/12/29 66/12/28
f 82/15/27 78/9/42 77/9/40
f 80/15/58 66/12/28 79/15/45
f 26/16/21 45/17/40 25/17/41
f 45/17/40 26/16/21 49/18/30
f 51/19/42 26/16/21 33/19/29
f 33/19/29 26/16/21 35/16/27
f 58/16/21 77/17/40 57/17/41
f 77/17/40 58/16/21 81/18/30
f 82/18/27 77/17/40 81/18/30
f 83/19/42 58/16/21 65/19/29
f 65/19/29 58/16/21 67/16/27
f 1/1/3 7/2/5 5/2/7
f 10/2/10 4/1/4 3/1/1
f 6/3/6 10/2/10 5/2/7
f 15/6/16 8/3/8 11/3/9
f 12/2/12 7/2/5 2/1/2
f 12/2/12 2/1/2 4/1/4
f 13/6/13 18/7/17 14/6/14
f 20/7/19 16/6/15 17/7/18
f 16/6/15 20/7/19 15/6/16
f 23/13/47 22/14/44 21/14/46
f 22/14/44 23/13/47 24/13/34
f 27/9/22 26/8/21 25/9/41
f 30/11/25 31/10/24 32/10/43
f 21/14/46 32/10/43 31/10/24
f 32/10/43 21/14/46 22/14/44
f 39/10/33 37/11/31 40/10/39
f 41/13/35 24/13/34 23/13/47
f 43/14/38 40/10/39 44/14/37
f 44/14/37 47/15/45 34/12/28
f 44/14/37 34/12/28 36/8/30
f 29/11/26 39/10/33 31/10/24
f 36/8/30 26/8/21 28/8/23
f 26/8/21 36/8/30 35/8/27
f 47/15/45 49/15/30 48/15/48
f 33/12/29 52/12/49 51/12/42
f 48/15/48 34/12/28 47/15/45
f 34/12/28 48/15/48 52/12/49
f 55/13/51 54/14/50 53/14/54
f 59/9/22 58/8/21 57/9/41
f 69/11/31 71/10/56 70/11/32
f 71/10/56 69/11/31 72/10/39
f 73/13/55 76/14/37 74/13/36
f 77/9/40 59/9/22 57/9/41
f 64/10/53 69/11/31 62/11/25
f 59/9/22 64/10/53 54/14/50
f 78/9/42 72/10/39 59/9/22
f 59/9/22 54/14/50 60/8/23
f 72/10/39 78/9/42 76/14/37
f 76/14/37 78/9/42 79/15/45
f 76/14/37 79/15/45 66/12/28
f 60/8/23 54/14/50 68/8/30
f 76/14/37 66/12/28 68/8/30
f 76/14/37 56/13/52 74/13/36
f 68/8/30 58/8/21 60/8/23
f 58/8/21 68/8/30 67/8/27
f 79/15/45 81/15/30 80/15/58
f 83/12/42 80/15/58 81/15/30
f 80/15/58 83/12/42 84/12/57
f 65/12/29 84/12/57 83/12/42
f 78/9/42 82/15/27 79/15/45
f 66/12/28 80/15/58 84/12/57
f 50/18/27 45/17/40 49/18/30
f 49/18/30 26/16/21 51/19/42
f 81/18/30 58/16/21 83/19/42
