# Blender 4.3.2
# www.blender.org
mtllib fence-door-rotate.mtl
o fence-door-rotate.005
v 0.350000 0.050000 -0.179000
v 0.300000 0.050000 -0.179000
v 0.350000 0.050000 -0.229000
v 0.300000 0.050000 -0.229000
v 0.375000 -0.025000 -0.229000
v 0.375000 -0.025000 -0.179000
v 0.375000 0.025000 -0.229000
v 0.375000 0.025000 -0.179000
v 0.300000 -0.050000 -0.179000
v 0.350000 -0.050000 -0.179000
v 0.300000 -0.050000 -0.229000
v 0.350000 -0.050000 -0.229000
v 0.275000 -0.025000 -0.179000
v 0.275000 -0.025000 -0.229000
v 0.275000 0.025000 -0.179000
v 0.275000 0.025000 -0.229000
v -0.287500 0.075000 0.000000
v -0.362500 0.075000 0.000000
v -0.287500 0.075000 -0.051000
v -0.362500 0.075000 -0.051000
v -0.250000 -0.037500 -0.051000
v -0.250000 -0.037500 0.000000
v -0.250000 0.037500 -0.051000
v -0.250000 0.037500 0.000000
v -0.362500 -0.075000 0.000000
v -0.287500 -0.075000 0.000000
v -0.362500 -0.075000 -0.051000
v -0.287500 -0.075000 -0.051000
v -0.400000 -0.037500 0.000000
v -0.400000 -0.037500 -0.051000
v -0.400000 0.037500 0.000000
v -0.400000 0.037500 -0.051000
v 0.362500 0.075000 0.000000
v 0.287500 0.075000 0.000000
v 0.362500 0.075000 -0.051000
v 0.287500 0.075000 -0.051000
v 0.400000 -0.037500 -0.051000
v 0.400000 -0.037500 0.000000
v 0.400000 0.037500 -0.051000
v 0.400000 0.037500 0.000000
v 0.287500 -0.075000 0.000000
v 0.362500 -0.075000 0.000000
v 0.287500 -0.075000 -0.051000
v 0.362500 -0.075000 -0.051000
v 0.250000 -0.037500 0.000000
v 0.250000 -0.037500 -0.051000
v 0.250000 0.037500 0.000000
v 0.250000 0.037500 -0.051000
v -0.300000 0.050000 -0.179000
v -0.350000 0.050000 -0.179000
v -0.300000 0.050000 -0.229000
v -0.350000 0.050000 -0.229000
v -0.275000 -0.025000 -0.229000
v -0.275000 -0.025000 -0.179000
v -0.275000 0.025000 -0.229000
v -0.275000 0.025000 -0.179000
v -0.350000 -0.050000 -0.179000
v -0.300000 -0.050000 -0.179000
v -0.350000 -0.050000 -0.229000
v -0.300000 -0.050000 -0.229000
v -0.375000 -0.025000 -0.179000
v -0.375000 -0.025000 -0.229000
v -0.375000 0.025000 -0.179000
v -0.375000 0.025000 -0.229000
v 0.350000 -0.025000 -0.379000
v 0.350000 0.025000 -0.379000
v 0.300000 -0.025000 -0.379000
v 0.300000 0.025000 -0.379000
v 0.300000 -0.025000 -0.051000
v 0.300000 0.025000 -0.051000
v 0.350000 -0.025000 -0.051000
v 0.350000 0.025000 -0.051000
v -0.300000 -0.025000 -0.379000
v -0.300000 0.025000 -0.379000
v -0.350000 -0.025000 -0.379000
v -0.350000 0.025000 -0.379000
v -0.350000 -0.025000 -0.051000
v -0.350000 0.025000 -0.051000
v -0.300000 -0.025000 -0.051000
v -0.300000 0.025000 -0.051000
v -0.500000 0.025000 -0.179000
v -0.500000 -0.025000 -0.179000
v -0.500000 -0.025000 -0.229000
v -0.500000 0.025000 -0.229000
v 0.500000 0.025000 -0.179000
v 0.500000 -0.025000 -0.179000
v 0.375000 0.025000 -0.179000
v 0.375000 -0.025000 -0.179000
v 0.500000 -0.025000 -0.229000
v 0.500000 0.025000 -0.229000
v -0.075000 -0.025000 -0.129000
v -0.075000 0.025000 -0.129000
v -0.250000 -0.025000 -0.129000
v -0.250000 0.025000 -0.129000
v -0.075000 0.025000 -0.329000
v -0.075000 -0.025000 -0.329000
v -0.250000 0.025000 -0.329000
v -0.250000 -0.025000 -0.329000
v -0.039645 0.025000 -0.093645
v -0.039645 -0.025000 -0.093645
v -0.075000 0.025000 -0.079000
v -0.075000 -0.025000 -0.079000
v -0.025000 -0.025000 -0.129000
v -0.025000 0.025000 -0.129000
v -0.250000 0.025000 -0.079000
v -0.250000 -0.025000 -0.079000
v -0.285355 0.025000 -0.093645
v -0.285355 -0.025000 -0.093645
v -0.300000 -0.025000 -0.129000
v -0.300000 0.025000 -0.129000
v -0.075000 -0.025000 -0.379000
v -0.075000 0.025000 -0.379000
v -0.250000 -0.025000 -0.379000
v -0.250000 0.025000 -0.379000
v -0.039645 -0.025000 -0.364355
v -0.039645 0.025000 -0.364355
v -0.285355 -0.025000 -0.364355
v -0.285355 0.025000 -0.364355
v -0.300000 -0.025000 -0.329000
v -0.300000 0.025000 -0.329000
v -0.025000 -0.025000 -0.329000
v -0.025000 0.025000 -0.329000
v -0.075000 -0.000000 -0.179000
v -0.250000 -0.000000 -0.179000
v -0.075000 -0.000000 -0.279000
v -0.250000 -0.000000 -0.279000
v 0.075000 -0.025000 -0.129000
v 0.075000 0.025000 -0.129000
v 0.250000 -0.025000 -0.129000
v 0.250000 0.025000 -0.129000
v 0.075000 0.025000 -0.329000
v 0.075000 -0.025000 -0.329000
v 0.250000 0.025000 -0.329000
v 0.250000 -0.025000 -0.329000
v 0.039645 0.025000 -0.093645
v 0.039645 -0.025000 -0.093645
v 0.075000 0.025000 -0.079000
v 0.075000 -0.025000 -0.079000
v 0.025000 -0.025000 -0.129000
v 0.025000 0.025000 -0.129000
v 0.250000 0.025000 -0.079000
v 0.250000 -0.025000 -0.079000
v 0.285355 0.025000 -0.093645
v 0.285355 -0.025000 -0.093645
v 0.300000 -0.025000 -0.129000
v 0.300000 0.025000 -0.129000
v 0.075000 -0.025000 -0.379000
v 0.075000 0.025000 -0.379000
v 0.250000 -0.025000 -0.379000
v 0.250000 0.025000 -0.379000
v 0.039645 -0.025000 -0.364355
v 0.039645 0.025000 -0.364355
v 0.285355 -0.025000 -0.364355
v 0.285355 0.025000 -0.364355
v 0.300000 -0.025000 -0.329000
v 0.300000 0.025000 -0.329000
v 0.025000 -0.025000 -0.329000
v 0.025000 0.025000 -0.329000
v 0.075000 -0.000000 -0.179000
v 0.250000 -0.000000 -0.179000
v 0.075000 -0.000000 -0.279000
v 0.250000 -0.000000 -0.279000
vn 0.1031 0.8587 -0.5019
vn -0.0286 0.7509 0.6598
vn 0.3505 0.8461 0.4017
vn -0.3505 0.8461 -0.4017
vn 0.7502 -0.0514 -0.6592
vn 0.8744 -0.3622 0.3229
vn 0.7508 0.0315 -0.6597
vn 0.7508 -0.0315 0.6597
vn -0.1031 -0.8587 -0.5019
vn 0.0286 -0.7509 0.6598
vn -0.3505 -0.8461 0.4017
vn 0.3505 -0.8461 -0.4017
vn -0.8885 0.0441 0.4568
vn -0.8744 -0.3622 -0.3229
vn -0.7508 0.0315 0.6597
vn -0.7508 -0.0315 -0.6597
vn 0.0687 0.8353 -0.5454
vn -0.0301 0.7509 0.6598
vn 0.3503 0.8457 0.4026
vn -0.3503 0.8457 -0.4026
vn 0.8583 0.0012 -0.5132
vn 0.8734 -0.3618 0.3260
vn -0.0687 -0.8353 -0.5454
vn 0.0301 -0.7509 0.6598
vn -0.3503 -0.8457 0.4026
vn 0.3503 -0.8457 -0.4026
vn -0.8583 0.0012 0.5132
vn -0.8734 -0.3618 -0.3260
vn -0.5068 0.5550 -0.6597
vn 0.5068 0.5550 0.6597
vn 0.8683 0.3596 0.3417
vn -0.1941 0.5473 0.8141
vn 0.8885 0.0441 -0.4568
vn -0.9239 0.3802 0.0428
vn -0.9239 -0.3802 -0.0428
vn -0.9239 -0.3827 -0.0000
vn -0.9239 0.3827 -0.0000
vn -0.5696 -0.2030 -0.7965
vn -0.5826 -0.4516 0.6757
vn -0.5826 0.4516 -0.6757
vn -0.5696 0.2030 0.7965
vn -0.7071 0.7071 -0.0000
vn -0.5773 -0.5773 -0.5774
vn -0.7071 -0.7071 -0.0000
vn 0.7071 -0.7071 -0.0000
vn 0.5774 -0.5774 -0.5774
vn 0.5773 0.5773 -0.5774
vn 0.7071 0.7071 -0.0000
vn -0.5774 0.5774 -0.5774
vn -0.5774 0.5773 0.5773
vn -0.0000 -0.7071 0.7071
vn -0.0000 0.7071 0.7071
vn -0.5774 -0.5773 -0.5773
vn -0.0000 0.7071 -0.7071
vn -0.0000 -0.7071 -0.7071
vn -0.5774 -0.5773 0.5774
vn 0.5774 -0.5773 0.5773
vn 0.5774 0.5773 -0.5773
vn 0.5774 -0.5773 -0.5774
vn 0.5774 0.5774 0.5774
vn -0.0000 -0.0000 -1.0000
vn -0.0000 -0.0000 1.0000
vn 0.1951 -0.0000 0.9808
vn 0.7071 -0.0000 0.7071
vn 0.9808 -0.0000 0.1951
vn -0.1951 -0.0000 0.9808
vn -0.7071 -0.0000 0.7071
vn -0.9808 -0.0000 0.1951
vn 1.0000 -0.0000 -0.0000
vn -0.1951 -0.0000 -0.9808
vn 0.1951 -0.0000 -0.9808
vn 0.7071 -0.0000 -0.7071
vn -0.7071 -0.0000 -0.7071
vn -0.9808 -0.0000 -0.1951
vn 0.9808 -0.0000 -0.1951
vn -1.0000 -0.0000 -0.0000
vn -0.0000 -1.0000 -0.0000
vn -0.0000 1.0000 -0.0000
vt 0.218750 0.225000
vt 0.218750 0.092981
vt 0.218750 0.025000
vt 0.218750 0.175000
vt 0.218750 0.108991
vt 0.468750 0.225000
vt 0.468750 0.025000
vt 0.468750 0.075000
vt 0.468750 0.075000
vt 0.468750 0.175000
vt 0.468750 0.141667
vt 0.468750 0.208333
vt 0.468750 0.125000
vt 0.468750 0.129882
vt 0.468750 0.129882
vt 0.468750 0.220118
vt 0.218750 0.275000
vt 0.218750 0.475000
s 1
usemtl colormap.004
f 3/1/1 2/2/2 1/2/3
f 2/2/2 3/1/1 4/1/4
f 7/1/5 6/2/6 5/1/7
f 6/2/6 7/1/5 8/2/8
f 11/1/9 10/2/10 9/2/11
f 10/2/10 11/1/9 12/1/12
f 15/2/13 14/1/14 13/2/15
f 14/1/14 15/2/13 16/1/16
f 15/2/13 4/1/4 16/1/16
f 12/1/12 6/2/6 10/2/10
f 10/2/10 1/2/3 2/2/2
f 10/2/10 2/2/2 9/2/11
f 9/2/11 2/2/2 15/2/13
f 9/2/11 15/2/13 13/2/15
f 19/1/17 18/3/18 17/3/19
f 18/3/18 19/1/17 20/1/20
f 23/1/21 22/3/22 21/1/7
f 22/3/22 23/1/21 24/3/8
f 27/1/23 26/3/24 25/3/25
f 26/3/24 27/1/23 28/1/26
f 31/3/27 30/1/28 29/3/15
f 30/1/28 31/3/27 32/1/16
f 31/3/27 20/1/20 32/1/16
f 28/1/26 22/3/22 26/3/24
f 30/1/28 25/3/25 29/3/15
f 25/3/25 30/1/28 27/1/23
f 28/1/26 23/1/21 21/1/7
f 23/1/21 28/1/26 19/1/17
f 19/1/17 28/1/26 27/1/23
f 19/1/17 27/1/23 20/1/20
f 20/1/20 30/1/28 32/1/16
f 26/3/24 18/3/18 25/3/25
f 25/3/25 31/3/27 29/3/15
f 39/1/21 38/3/22 37/1/7
f 43/1/23 42/3/24 41/3/25
f 42/3/24 43/1/23 44/1/26
f 47/3/27 46/1/28 45/3/15
f 46/1/28 47/3/27 48/1/16
f 47/3/27 36/1/29 48/1/16
f 39/1/21 33/3/30 40/3/31
f 44/1/26 38/3/22 42/3/24
f 46/1/28 41/3/25 45/3/15
f 41/3/25 46/1/28 43/1/23
f 42/3/24 33/3/30 34/3/32
f 41/3/25 47/3/27 45/3/15
f 51/4/1 50/5/2 49/5/3
f 50/5/2 51/4/1 52/4/4
f 55/4/33 54/5/6 53/4/7
f 54/5/6 55/4/33 56/5/8
f 59/4/9 58/5/10 57/5/11
f 58/5/10 59/4/9 60/4/12
f 63/5/34 62/4/35 61/5/36
f 62/4/35 63/5/34 64/4/37
f 55/4/33 49/5/3 56/5/8
f 49/5/3 55/4/33 51/4/1
f 60/4/12 54/5/6 58/5/10
f 62/4/38 57/5/11 61/5/39
f 57/5/11 62/4/38 59/4/9
f 60/4/12 55/4/33 53/4/7
f 55/4/33 60/4/12 51/4/1
f 51/4/1 60/4/12 59/4/9
f 51/4/1 59/4/9 52/4/4
f 52/4/4 59/4/9 62/4/38
f 52/4/4 62/4/38 64/4/40
f 49/5/3 54/5/6 56/5/8
f 54/5/6 49/5/3 58/5/10
f 57/5/11 63/5/41 61/5/39
f 70/6/42 67/7/43 69/6/44
f 67/7/43 71/6/45 69/6/44
f 71/6/45 67/7/43 65/7/46
f 71/6/45 66/7/47 72/6/48
f 66/7/47 70/6/42 72/6/48
f 70/6/42 66/7/47 68/7/49
f 75/7/43 74/7/47 73/7/46
f 74/7/47 75/7/43 76/7/49
f 78/6/42 75/7/43 77/6/44
f 75/7/43 78/6/42 76/7/49
f 75/7/43 79/6/45 77/6/44
f 79/6/45 75/7/43 73/7/46
f 74/7/47 79/6/45 73/7/46
f 79/6/45 74/7/47 80/6/48
f 74/7/47 78/6/42 80/6/48
f 78/6/42 74/7/47 76/7/49
f 81/8/50 61/9/51 63/9/52
f 83/10/53 64/10/54 62/10/55
f 64/10/54 83/10/53 84/10/49
f 81/8/50 64/10/54 84/10/49
f 62/10/55 82/8/56 83/10/53
f 86/9/57 87/8/52 88/8/51
f 5/10/55 90/10/58 89/10/59
f 90/10/58 5/10/55 7/10/54
f 90/10/58 87/8/52 85/9/60
f 87/8/52 90/10/58 7/10/54
f 88/8/51 89/10/59 86/9/57
f 89/10/59 88/8/51 5/10/55
f 90/10/58 86/9/57 89/10/59
f 86/9/57 90/10/58 85/9/60
f 4/1/4 15/2/13 2/2/2
f 7/1/5 1/2/3 8/2/8
f 1/2/3 7/1/5 3/1/1
f 6/2/6 12/1/12 5/1/7
f 14/1/14 9/2/11 13/2/15
f 9/2/11 14/1/14 11/1/9
f 12/1/12 7/1/5 5/1/7
f 7/1/5 12/1/12 3/1/1
f 3/1/1 12/1/12 11/1/9
f 3/1/1 11/1/9 4/1/4
f 4/1/4 11/1/9 14/1/14
f 4/1/4 14/1/14 16/1/16
f 1/2/3 6/2/6 8/2/8
f 6/2/6 1/2/3 10/2/10
f 20/1/20 31/3/27 18/3/18
f 23/1/21 17/3/19 24/3/8
f 17/3/19 23/1/21 19/1/17
f 22/3/22 28/1/26 21/1/7
f 20/1/20 27/1/23 30/1/28
f 17/3/19 22/3/22 24/3/8
f 22/3/22 17/3/19 26/3/24
f 26/3/24 17/3/19 18/3/18
f 25/3/25 18/3/18 31/3/27
f 35/1/17 34/3/32 33/3/30
f 34/3/32 35/1/17 36/1/29
f 38/3/22 39/1/21 40/3/31
f 36/1/29 47/3/27 34/3/32
f 33/3/30 39/1/21 35/1/17
f 38/3/22 44/1/26 37/1/7
f 44/1/26 39/1/21 37/1/7
f 39/1/21 44/1/26 35/1/17
f 35/1/17 44/1/26 43/1/23
f 35/1/17 43/1/23 36/1/29
f 36/1/29 43/1/23 46/1/28
f 36/1/29 46/1/28 48/1/16
f 33/3/30 38/3/22 40/3/31
f 38/3/22 33/3/30 42/3/24
f 42/3/24 34/3/32 41/3/25
f 41/3/25 34/3/32 47/3/27
f 52/4/4 63/5/41 50/5/2
f 63/5/41 52/4/4 64/4/40
f 54/5/6 60/4/12 53/4/7
f 58/5/10 49/5/3 50/5/2
f 58/5/10 50/5/2 57/5/11
f 57/5/11 50/5/2 63/5/41
f 67/7/43 66/7/47 65/7/46
f 66/7/47 67/7/43 68/7/49
f 67/7/43 70/6/42 68/7/49
f 66/7/47 71/6/45 65/7/46
f 61/9/51 81/8/50 82/8/56
f 64/10/54 81/8/50 63/9/52
f 82/8/56 62/10/55 61/9/51
f 81/8/50 83/10/53 82/8/56
f 83/10/53 81/8/50 84/10/49
f 87/8/52 86/9/57 85/9/60
f 93/11/61 92/11/61 91/11/61
f 92/11/61 93/11/61 94/11/61
f 97/12/62 96/12/62 95/12/62
f 96/12/62 97/12/62 98/12/62
f 101/13/63 100/14/64 99/14/64
f 100/14/64 101/13/63 102/13/63
f 104/11/65 100/14/64 103/11/65
f 100/14/64 104/11/65 99/14/64
f 105/13/66 102/13/63 101/13/63
f 102/13/63 105/13/66 106/13/66
f 107/15/67 106/13/66 105/13/66
f 106/13/66 107/15/67 108/15/67
f 107/15/67 109/11/68 108/15/67
f 109/11/68 107/15/67 110/11/68
f 97/12/69 93/11/69 98/12/69
f 93/11/69 97/12/69 94/11/69
f 113/6/70 112/6/71 111/6/71
f 112/6/71 113/6/70 114/6/70
f 111/6/71 116/16/72 115/16/72
f 116/16/72 111/6/71 112/6/71
f 117/16/73 114/6/70 113/6/70
f 114/6/70 117/16/73 118/16/73
f 120/12/74 117/16/73 119/12/74
f 117/16/73 120/12/74 118/16/73
f 116/16/72 121/12/75 115/16/72
f 121/12/75 116/16/72 122/12/75
f 92/11/76 96/12/76 91/11/76
f 96/12/76 92/11/76 95/12/76
f 110/11/68 119/12/74 109/11/68
f 119/12/74 110/11/68 120/12/74
f 111/6/77 117/16/77 113/6/77
f 115/16/77 117/16/77 111/6/77
f 98/12/77 117/16/77 115/16/77
f 98/12/77 119/12/77 117/16/77
f 98/12/77 109/11/77 119/12/77
f 93/11/77 109/11/77 98/12/77
f 115/16/77 96/12/77 98/12/77
f 121/12/77 96/12/77 115/16/77
f 93/11/77 108/15/77 109/11/77
f 103/11/77 96/12/77 121/12/77
f 103/11/77 91/11/77 96/12/77
f 108/15/77 93/11/77 91/11/77
f 103/11/77 108/15/77 91/11/77
f 100/14/77 108/15/77 103/11/77
f 100/14/77 106/13/77 108/15/77
f 106/13/77 100/14/77 102/13/77
f 99/14/78 105/13/78 101/13/78
f 105/13/78 99/14/78 107/15/78
f 107/15/78 99/14/78 104/11/78
f 107/15/78 104/11/78 92/11/78
f 94/11/78 107/15/78 92/11/78
f 107/15/78 94/11/78 110/11/78
f 92/11/78 104/11/78 95/12/78
f 95/12/78 104/11/78 122/12/78
f 110/11/78 94/11/78 97/12/78
f 95/12/78 122/12/78 116/16/78
f 95/12/78 116/16/78 97/12/78
f 110/11/78 97/12/78 120/12/78
f 120/12/78 97/12/78 118/16/78
f 118/16/78 97/12/78 116/16/78
f 118/16/78 116/16/78 112/6/78
f 118/16/78 112/6/78 114/6/78
f 122/12/75 103/11/65 121/12/75
f 103/11/65 122/12/75 104/11/65
f 125/17/78 124/18/78 123/18/78
f 124/18/78 125/17/78 126/17/78
f 140/11/68 158/12/74 139/11/68
f 157/12/74 139/11/68 158/12/74
f 150/6/78 148/6/78 154/16/78
f 148/6/78 152/16/78 154/16/78
f 152/16/78 133/12/78 154/16/78
f 154/16/78 133/12/78 156/12/78
f 156/12/78 133/12/78 146/11/78
f 133/12/78 152/16/78 131/12/78
f 152/16/78 158/12/78 131/12/78
f 133/12/78 130/11/78 146/11/78
f 158/12/78 140/11/78 131/12/78
f 131/12/78 140/11/78 128/11/78
f 146/11/78 130/11/78 143/15/78
f 128/11/78 143/15/78 130/11/78
f 128/11/78 140/11/78 143/15/78
f 140/11/78 135/14/78 143/15/78
f 143/15/78 135/14/78 141/13/78
f 137/13/78 141/13/78 135/14/78
f 138/13/77 136/14/77 142/13/77
f 144/15/77 142/13/77 136/14/77
f 139/11/77 144/15/77 136/14/77
f 127/11/77 144/15/77 139/11/77
f 127/11/77 129/11/77 144/15/77
f 132/12/77 127/11/77 139/11/77
f 157/12/77 132/12/77 139/11/77
f 145/11/77 144/15/77 129/11/77
f 151/16/77 132/12/77 157/12/77
f 134/12/77 132/12/77 151/16/77
f 134/12/77 145/11/77 129/11/77
f 155/12/77 145/11/77 134/12/77
f 153/16/77 155/12/77 134/12/77
f 151/16/77 153/16/77 134/12/77
f 147/6/77 153/16/77 151/16/77
f 149/6/77 153/16/77 147/6/77
f 156/12/75 146/11/65 155/12/75
f 145/11/65 155/12/75 146/11/65
f 131/12/69 128/11/69 132/12/69
f 127/11/69 132/12/69 128/11/69
f 158/12/74 152/16/73 157/12/74
f 151/16/73 157/12/74 152/16/73
f 154/16/72 156/12/75 153/16/72
f 155/12/75 153/16/72 156/12/75
f 154/16/72 153/16/72 150/6/71
f 149/6/71 150/6/71 153/16/72
f 148/6/70 147/6/70 152/16/73
f 151/16/73 152/16/73 147/6/70
f 150/6/71 149/6/71 148/6/70
f 147/6/70 148/6/70 149/6/71
f 130/11/76 133/12/76 129/11/76
f 134/12/76 129/11/76 133/12/76
f 146/11/65 143/15/64 145/11/65
f 144/15/64 145/11/65 143/15/64
f 144/15/64 143/15/64 142/13/63
f 141/13/63 142/13/63 143/15/64
f 142/13/63 141/13/63 138/13/66
f 137/13/66 138/13/66 141/13/63
f 135/14/67 140/11/68 136/14/67
f 139/11/68 136/14/67 140/11/68
f 138/13/66 137/13/66 136/14/67
f 135/14/67 136/14/67 137/13/66
f 134/12/62 133/12/62 132/12/62
f 131/12/62 132/12/62 133/12/62
f 130/11/61 129/11/61 128/11/61
f 127/11/61 128/11/61 129/11/61
f 160/18/77 161/17/77 162/17/77
f 161/17/77 160/18/77 159/18/77
