# Blender 4.3.2
# www.blender.org
mtllib speaker.mtl
o speaker.001
v -0.148000 0.148000 -0.000000
v -0.044135 0.148000 -0.044135
v 0.000000 0.148000 -0.000000
v 0.000000 0.148000 -0.636400
v -0.044135 0.148000 -0.181478
v -0.103865 0.148000 -0.181478
v -0.103865 0.148000 -0.044135
v -0.148000 0.148000 -0.636400
v -0.148000 0.000000 -0.000000
v -0.148000 0.000000 -0.238420
v -0.148000 0.014800 -0.238420
v -0.148000 0.014800 -0.636400
v 0.000000 0.014800 -0.636400
v 0.000000 0.014800 -0.238420
v 0.000000 0.000000 -0.000000
v 0.000000 0.000000 -0.238420
v -0.051800 0.014800 -0.369344
v -0.062508 0.014800 -0.373780
v -0.062900 0.044400 -0.350118
v -0.068254 0.044400 -0.352336
v -0.029600 0.014800 -0.330893
v -0.031113 0.014800 -0.342384
v -0.051800 0.044400 -0.330893
v -0.052556 0.044400 -0.336638
v -0.035548 0.014800 -0.308693
v -0.031113 0.014800 -0.319401
v -0.054774 0.044400 -0.319793
v -0.052556 0.044400 -0.325147
v -0.085100 0.044400 -0.311667
v -0.089698 0.044400 -0.315195
v -0.096200 0.014800 -0.292441
v -0.105396 0.014800 -0.299497
v -0.035548 0.014800 -0.353093
v -0.042604 0.014800 -0.362288
v -0.054774 0.044400 -0.341992
v -0.058302 0.044400 -0.346590
v -0.079746 0.044400 -0.309449
v -0.085492 0.014800 -0.288005
v -0.118400 0.014800 -0.330893
v -0.116887 0.014800 -0.319401
v -0.096200 0.044400 -0.330893
v -0.095444 0.044400 -0.325147
v -0.112452 0.014800 -0.308693
v -0.093226 0.044400 -0.319793
v -0.074000 0.014800 -0.286492
v -0.116887 0.014800 -0.342384
v -0.112452 0.014800 -0.353093
v -0.105396 0.014800 -0.362288
v -0.124035 0.014800 -0.493831
v -0.096200 0.014800 -0.369344
v -0.085492 0.014800 -0.373780
v -0.118860 0.014800 -0.481338
v -0.074000 0.014800 -0.375293
v -0.110628 0.014800 -0.470610
v -0.099900 0.014800 -0.462378
v -0.087407 0.014800 -0.457203
v -0.074000 0.014800 -0.455438
v -0.125800 0.014800 -0.507238
v -0.124035 0.014800 -0.520645
v -0.118860 0.014800 -0.533138
v -0.110628 0.014800 -0.543866
v -0.099900 0.014800 -0.552098
v -0.087407 0.014800 -0.557273
v -0.074000 0.014800 -0.559038
v -0.060593 0.014800 -0.457203
v -0.048100 0.014800 -0.462378
v -0.037372 0.014800 -0.470610
v -0.029140 0.014800 -0.481338
v -0.060593 0.014800 -0.557273
v -0.048100 0.014800 -0.552098
v -0.037372 0.014800 -0.543866
v -0.029140 0.014800 -0.533138
v -0.023965 0.014800 -0.520645
v -0.022200 0.014800 -0.507238
v -0.023965 0.014800 -0.493831
v -0.042604 0.014800 -0.299497
v -0.051800 0.014800 -0.292441
v -0.062508 0.014800 -0.288005
v -0.074000 0.044400 -0.474086
v -0.065420 0.044400 -0.475215
v -0.082580 0.044400 -0.475215
v -0.090576 0.044400 -0.478527
v -0.057424 0.044400 -0.478527
v -0.097442 0.044400 -0.483796
v -0.050558 0.044400 -0.483796
v -0.102711 0.044400 -0.490662
v -0.045290 0.044400 -0.490662
v -0.106022 0.044400 -0.498657
v -0.041978 0.044400 -0.498657
v -0.040848 0.044400 -0.507238
v -0.107152 0.044400 -0.507238
v -0.106022 0.044400 -0.515818
v -0.041978 0.044400 -0.515818
v -0.102711 0.044400 -0.523814
v -0.045290 0.044400 -0.523814
v -0.097442 0.044400 -0.530680
v -0.050558 0.044400 -0.530680
v -0.090576 0.044400 -0.535948
v -0.057424 0.044400 -0.535948
v -0.065420 0.044400 -0.539260
v -0.082580 0.044400 -0.539260
v -0.074000 0.044400 -0.540390
v -0.074000 0.044400 -0.308693
v -0.068254 0.044400 -0.309449
v -0.062900 0.044400 -0.311667
v -0.058302 0.044400 -0.315195
v -0.095444 0.044400 -0.336638
v -0.093226 0.044400 -0.341992
v -0.089698 0.044400 -0.346590
v -0.085100 0.044400 -0.350118
v -0.079746 0.044400 -0.352336
v -0.074000 0.044400 -0.353093
v -0.044135 0.133200 -0.044135
v -0.103865 0.133200 -0.044135
v -0.044135 0.133200 -0.181478
v -0.103865 0.133200 -0.181478
vn -0.3015 0.9045 -0.3015
vn -0.5773 0.5773 0.5774
vn 0.5773 0.5774 0.5773
vn 0.5773 0.5773 -0.5774
vn -0.3015 0.9045 0.3015
vn 0.3015 0.9045 0.3015
vn 0.3015 0.9045 -0.3015
vn -0.5773 0.5774 -0.5773
vn -0.5773 -0.5773 -0.5774
vn -0.9045 -0.3015 -0.3015
vn 0.9045 -0.3015 -0.3015
vn 0.5773 -0.5773 0.5774
vn 0.5774 -0.5774 -0.5774
vn -0.5774 -0.5774 0.5774
vn -0.0499 -0.9043 0.4239
vn -0.2409 -0.8763 0.4172
vn -0.2022 -0.8972 0.3926
vn -0.3904 -0.9034 0.1776
vn -0.4686 -0.8834 -0.0000
vn -0.4473 -0.8943 0.0128
vn -0.4277 -0.8919 0.1467
vn -0.4271 -0.9033 -0.0407
vn -0.4169 -0.8765 -0.2407
vn -0.3933 -0.8947 -0.2119
vn -0.4471 -0.8913 -0.0752
vn 0.3448 -0.8887 -0.3021
vn 0.1960 -0.8927 -0.4057
vn 0.2257 -0.8831 -0.4113
vn 0.3407 -0.8763 -0.3407
vn -0.2557 -0.9044 0.3414
vn -0.4162 -0.8769 0.2403
vn -0.3734 -0.8964 0.2389
vn -0.2955 -0.8924 0.3410
vn 0.0779 -0.8785 -0.4714
vn 0.1128 -0.8732 -0.4742
vn 0.3903 -0.9033 -0.1783
vn 0.4686 -0.8834 -0.0000
vn 0.4401 -0.8974 -0.0313
vn 0.4312 -0.8914 -0.1394
vn 0.4169 -0.8765 -0.2407
vn 0.3649 -0.8976 -0.2473
vn 0.3904 -0.9034 0.1776
vn 0.4486 -0.8907 -0.0740
vn 0.0499 -0.9043 0.4239
vn 0.1969 -0.9355 0.2934
vn 0.4154 -0.8938 -0.1690
vn -0.0365 -0.9067 0.4201
vn 0.3769 -0.8859 -0.2705
vn 0.2536 -0.9122 -0.3218
vn 0.4577 -0.8860 0.0743
vn 0.4226 -0.8859 0.1914
vn 0.2789 -0.8874 0.3672
vn 0.3777 -0.9133 0.1525
vn 0.1617 -0.8856 0.4354
vn 0.0340 -0.8843 0.4657
vn -0.0642 -0.8872 0.4569
vn 0.0777 -0.8856 -0.4579
vn -0.1343 -0.9211 -0.3655
vn -0.2536 -0.9122 -0.3218
vn -0.2803 -0.8876 -0.3656
vn -0.4154 -0.8938 -0.1690
vn 0.5774 -0.5773 -0.5774
vn -0.4348 -0.8857 0.1627
vn -0.2973 -0.9215 0.2500
vn -0.4577 -0.8860 -0.0744
vn -0.4256 -0.9039 0.0423
vn -0.4284 -0.8892 -0.1607
vn -0.1488 -0.9031 -0.4028
vn -0.2647 -0.9318 -0.2486
vn -0.0400 -0.9032 -0.4274
vn 0.0711 -0.9033 -0.4231
vn 0.5531 -0.8328 -0.0225
vn 0.5151 -0.8408 0.1665
vn -0.5356 -0.8442 -0.0239
vn 0.4650 -0.8371 0.2880
vn -0.5197 -0.8487 0.0985
vn -0.4579 -0.8392 0.2934
vn 0.4082 -0.8383 0.3613
vn -0.3665 -0.8387 0.4029
vn 0.2928 -0.8440 0.4495
vn -0.2571 -0.8316 0.4923
vn -0.1151 -0.8377 0.5339
vn 0.1326 -0.8330 0.5372
vn 0.0127 -0.8217 0.5697
vn -0.1677 -0.8717 -0.4605
vn -0.0601 -0.8644 -0.4992
vn -0.3799 -0.8749 -0.3003
vn -0.2781 -0.8635 -0.4207
vn 0.4798 -0.8634 0.1559
vn 0.2795 -0.8654 0.4158
vn 0.1655 -0.8671 0.4698
vn -0.1114 -0.8550 0.5065
vn -0.0368 -0.8542 0.5187
vn -0.2447 -0.8805 -0.4059
vn -0.0864 -0.8596 -0.5036
vn -0.3306 -0.8545 -0.4006
vn -0.4387 -0.8724 -0.2156
vn -0.4833 -0.8715 -0.0828
vn 0.2726 -0.8735 -0.4034
vn 0.0854 -0.8574 -0.5074
vn 0.1132 -0.8506 -0.5135
vn -0.0202 -0.8902 -0.4551
vn 0.4381 -0.8728 -0.2154
vn 0.3203 -0.8729 -0.3681
vn 0.4163 -0.8769 0.2403
vn 0.3937 -0.8962 0.2043
vn 0.3194 -0.9000 0.2966
vn 0.3248 -0.8883 0.3248
vn 0.5774 0.5773 -0.5773
vn -0.5774 0.5774 -0.5774
vn -0.5774 0.5773 0.5773
vn 0.5774 0.5774 0.5774
vn -0.1933 -0.8856 0.4223
vn -0.2962 -0.8856 0.3577
vn 0.5152 -0.8508 -0.1035
vt -1.737586 1.737586
vt -5.826772 0.000000
vt 0.000000 0.000000
vt 0.000000 25.055120
vt -1.737586 7.144814
vt -4.089186 7.144814
vt -4.089186 1.737586
vt -5.826772 25.055120
vt 5.826772 0.000000
vt 0.582677 25.055120
vt 0.582677 9.386627
vt 5.826772 25.055120
vt 5.826772 0.582677
vt 5.826772 5.826772
vt -0.000000 5.826772
vt -0.582677 9.386627
vt -0.000000 0.000000
vt -0.000000 9.386627
vt -0.000000 0.000000
vt 5.826772 9.386627
vt -0.000000 9.386627
vt 2.454816 10.326300
vt 2.079955 10.066080
vt 3.001792 8.938177
vt 1.201092 13.471570
vt 1.165354 13.016640
vt 2.622047 13.016640
vt 2.639916 13.244100
vt 1.221936 11.786390
vt 1.331428 11.343390
vt 2.713851 11.802580
vt 2.659105 12.024080
vt 1.625156 11.854830
vt 1.485093 11.674720
vt 2.561454 10.693190
vt 2.841580 11.053410
vt 1.572185 12.848770
vt 1.382215 12.433870
vt 2.750103 11.933030
vt 2.845088 12.140480
vt 2.179122 10.523400
vt 1.991692 10.393290
vt 2.726099 9.135273
vt 3.100960 9.395492
vt 2.294971 12.927900
vt 2.330709 13.382830
vt 0.874016 13.382830
vt 0.856147 13.155360
vt 2.412456 11.962160
vt 2.602426 12.377060
vt 1.234538 12.877900
vt 1.139553 12.670440
vt 3.787402 11.513430
vt 4.149431 11.791220
vt 4.427226 12.153250
vt 4.601855 12.574840
vt 4.661417 13.027270
vt 3.365810 11.338800
vt 4.601855 13.479690
vt 4.883266 19.442169
vt 3.365810 14.715730
vt 3.787402 14.541110
vt 4.679532 18.950310
vt 2.913386 14.775300
vt 4.355438 18.527941
vt 3.933071 18.203850
vt 4.952756 19.969990
vt 4.883266 20.497820
vt 4.355438 21.412050
vt 4.679532 20.989679
vt 3.933071 21.736139
vt 3.441214 21.939871
vt 2.913386 22.009359
vt 2.913386 17.930620
vt 2.385558 18.000111
vt 1.893701 18.203850
vt 1.471333 18.527941
vt 1.147240 18.950310
vt -0.000000 25.055120
vt 1.147240 20.989679
vt 1.471333 21.412050
vt 0.874016 19.969990
vt 0.943506 20.497820
vt 0.943506 19.442169
vt 1.677341 14.263310
vt 1.165354 13.027270
vt 1.224917 12.574840
vt 1.399546 12.153250
vt 2.039370 11.513430
vt 1.677341 11.791220
vt 2.460962 11.338800
vt 2.913386 11.279230
vt 2.039370 14.541110
vt 2.460962 14.715730
vt -0.000000 0.582677
vt -0.000000 0.000000
vt 5.826772 0.000000
vt 4.218583 19.969990
vt 4.174109 20.307800
vt 1.608189 19.969990
vt 4.043719 20.622589
vt 1.652663 20.307800
vt 1.783052 20.622589
vt 3.836299 20.892910
vt 1.990472 20.892910
vt 3.565984 21.100330
vt 2.260787 21.100330
vt 2.575576 21.230721
vt 3.251196 21.230721
vt 2.913386 21.275190
vt 2.687174 12.183030
vt 2.913386 12.153250
vt 3.139598 12.183030
vt 3.350394 12.270350
vt 3.531408 12.409240
vt 2.295363 12.409240
vt 2.476378 12.270350
vt 3.757620 12.801050
vt 2.069151 12.801050
vt 2.156466 12.590260
vt 2.039370 13.027270
vt 3.787402 13.027270
vt 3.757620 13.253480
vt 3.350394 13.784190
vt 2.476378 13.784190
vt 2.295363 13.645290
vt 3.139598 13.871500
vt 2.687174 13.871500
vt 2.913386 13.901280
vt 1.125261 20.055870
vt 1.011153 19.535860
vt 2.373761 19.334970
vt 2.446791 19.667780
vt 2.336220 19.894730
vt 2.359926 20.234619
vt 0.995922 20.425819
vt 2.840954 11.947250
vt 1.919138 10.923870
vt 2.338539 10.595940
vt 3.109370 11.737380
vt 0.000000 0.000000
vt 0.000000 5.826772
vt -5.826772 5.826772
vt -5.826772 0.000000
vt 2.604741 16.062670
vt 2.476432 16.378309
vt 1.167491 15.949670
vt 2.446791 18.109900
vt 2.373761 18.442711
vt 1.011153 18.241819
vt 2.127463 14.332510
vt 1.859046 14.122640
vt 2.629878 12.981200
vt 3.049278 13.309120
vt 2.494217 12.041420
vt 2.732595 10.684870
vt 3.249262 10.813270
vt 2.824884 12.123600
vt 2.768771 8.093871
vt 2.567289 6.651179
vt 2.790095 6.602021
vt 3.214382 7.995554
vt 1.127971 18.742100
vt 0.999662 18.426460
vt 2.236430 17.820271
vt 2.878683 11.121350
vt 2.454305 9.811022
vt 2.970972 9.682624
vt 3.209349 11.039180
vt 1.527243 16.734131
vt 1.333662 16.453739
vt 2.409919 15.594250
vt 2.431424 11.615260
vt 2.321933 12.058260
vt 0.939510 11.599070
vt 2.436912 15.891000
vt 2.236430 16.384190
vt 0.999662 15.778000
vt 2.409919 13.951420
vt 1.333662 13.091920
vt 1.527243 12.811530
vt 2.712390 13.513310
vt 2.330709 12.528390
vt 2.294971 12.983320
vt 0.856147 12.755850
vt 0.874016 12.528390
vt 3.001792 8.546620
vt 2.079955 7.418715
vt 2.454816 7.158496
vt 3.189223 8.416511
vt 3.249262 10.802440
vt 2.732595 10.930840
vt 2.494217 9.574288
vt 2.147007 19.348949
vt 2.109967 19.880039
vt 0.745963 19.688850
vt 2.179122 6.961401
vt 3.100960 8.089306
vt 2.726099 8.349524
vt 2.948929 7.403515
vt 3.171735 7.452673
vt 2.970253 8.895365
vt 2.659105 12.771510
vt 2.713851 12.993000
vt 1.331428 13.452200
vt 2.561454 9.399098
vt 1.485093 8.417568
vt 1.625156 8.237453
vt 2.567289 9.133254
vt 2.768771 7.690563
vt 3.214382 7.788880
vt 1.947105 11.748990
vt 1.666979 11.388760
vt 2.883402 10.587340
vt 3.023465 10.767460
vt 2.602426 10.357040
vt 2.412456 10.771950
vt 1.139553 10.063660
vt 1.234538 9.856209
vt -4.089186 5.826772
vt -4.089186 5.244094
vt -1.737586 5.244094
vt -5.244094 1.737586
vt -5.244094 7.144814
vt -5.826772 7.144814
vt -5.826772 1.737586
vt 1.737586 5.826772
vt 1.737586 5.244094
vt 4.089186 5.244094
vt 4.089186 5.826772
vt 5.826772 1.737586
vt 5.826772 7.144814
vt 5.244094 7.144814
vt 0.000000 9.386627
vt 0.000000 0.000000
vt -0.582677 25.055120
vt 3.189223 9.068287
vt 2.321933 12.737330
vt 2.431424 13.180320
vt 0.994256 13.418020
vt 0.939510 13.196520
vt 4.427226 13.901280
vt 4.149431 14.263310
vt 3.441214 18.000111
vt 2.385558 21.939871
vt 1.893701 21.736139
vt 1.399546 13.901280
vt 1.224917 13.479690
vt 2.575576 18.709270
vt 2.913386 18.664801
vt 3.251196 18.709270
vt 3.565984 18.839661
vt 2.260787 18.839661
vt 3.836299 19.047079
vt 1.990472 19.047079
vt 4.043719 19.317390
vt 1.783052 19.317390
vt 4.174109 19.632179
vt 1.652663 19.632179
vt 3.670306 12.590260
vt 2.069151 13.253480
vt 3.670306 13.464270
vt 2.156466 13.464270
vt 3.531408 13.645290
vt 1.367973 18.747980
vt 1.167491 18.254789
vt 2.476432 17.826151
vt 2.604741 18.141790
vt 2.629878 11.832870
vt 1.859046 10.691440
vt 2.127463 10.481560
vt 3.049278 11.504950
vt 2.970972 11.933090
vt 2.454305 11.804690
vt 2.878683 10.494360
vt 3.209349 10.576540
vt 2.338539 14.218130
vt 1.919138 13.890210
vt 2.840954 12.866820
vt 3.109370 13.076690
vt 0.958881 19.894730
vt 0.958881 19.799761
vt 0.995922 19.268669
vt 2.359926 19.459860
vt 2.336220 19.799761
vt 1.367973 15.456480
vt 1.125261 17.721809
vt 2.645506 13.997620
vt 1.460359 13.295840
vt 1.762830 12.857730
vt 2.839088 13.717230
vt 1.762830 16.687929
vt 1.460359 16.249821
vt 2.645506 15.548050
vt 2.839088 15.828440
vt 2.436912 18.313459
vt 1.382215 10.300240
vt 1.572185 9.885334
vt 2.845088 10.593620
vt 2.750103 10.801070
vt 2.109967 19.814440
vt 2.147007 20.345539
vt 0.769669 20.345539
vt 0.745963 20.005640
vt 2.712390 16.032360
vt 0.994256 11.377570
vt 2.883402 9.504941
vt 1.666979 8.703525
vt 1.947105 8.343296
vt 3.023465 9.324826
vt 1.127971 15.462360
vt 2.138218 19.288549
vt 2.252326 19.808559
vt 0.889717 20.009451
vt 0.816688 19.676649
vt 2.824884 9.492113
vt 0.769669 19.348949
vt 2.252326 17.969120
vt 2.138218 18.489130
vt 0.816688 18.101030
vt 0.889717 17.768230
vt 1.991692 7.091510
vt 2.948929 8.380919
vt 2.524642 6.987386
vt 2.970253 6.889069
vt 3.171735 8.331760
vt 2.524642 8.797048
vt 1.221936 13.009200
vt 2.841580 9.038870
vt 2.790095 9.182413
vt 1.165354 12.894580
vt 1.201092 12.439650
vt 2.639916 12.667110
vt 2.622047 12.894580
vt -1.737586 5.826772
vt 5.244094 1.737586
s 1
usemtl wood.008
f 2/1/1 1/2/2 3/3/3
f 3/3/3 4/4/4 2/1/1
f 4/4/4 5/5/5 2/1/1
f 4/4/4 6/6/6 5/5/5
f 7/7/7 8/8/8 1/2/2
f 7/7/7 6/6/6 8/8/8
f 6/6/6 4/4/4 8/8/8
f 1/9/2 12/10/9 11/11/10
f 1/9/2 8/12/8 12/10/9
f 12/13/9 8/14/8 4/15/4
f 14/16/11 3/2/3 15/17/12
f 15/17/12 16/18/13 14/16/11
f 15/19/12 9/9/14 10/20/9
f 10/20/9 16/21/13 15/19/12
f 1/2/2 2/1/1 7/7/7
f 10/234/9 9/235/14 1/9/2
f 1/9/2 11/11/10 10/234/9
f 4/15/4 13/95/62 12/13/9
f 14/16/11 13/236/62 4/8/4
f 14/16/11 4/8/4 3/2/3
usemtl metalMedium.005
f 18/22/15 17/23/16 19/24/17
f 22/25/18 21/26/19 23/27/20
f 23/27/20 24/28/21 22/25/18
f 26/29/22 25/30/23 27/31/24
f 27/31/24 28/32/25 26/29/22
f 30/33/26 29/34/27 31/35/28
f 31/35/28 32/36/29 30/33/26
f 34/37/30 33/38/31 35/39/32
f 35/39/32 36/40/33 34/37/30
f 29/41/27 37/42/34 38/43/35
f 38/43/35 31/44/28 29/41/27
f 40/45/36 39/46/37 41/47/38
f 41/47/38 42/48/39 40/45/36
f 32/49/29 43/50/40 44/51/41
f 44/51/41 30/52/26 32/49/29
f 31/53/28 14/21/11 11/20/10
f 11/20/10 32/54/29 31/53/28
f 11/20/10 43/55/40 32/54/29
f 11/20/10 40/56/36 43/55/40
f 11/20/10 39/57/37 40/56/36
f 11/20/10 12/12/9 39/57/37
f 31/53/28 38/58/35 14/21/11
f 12/12/9 46/59/42 39/57/37
f 49/60/43 51/61/44 50/62/45
f 52/63/46 53/64/47 51/61/44
f 54/65/48 55/66/49 53/64/47
f 12/12/9 58/67/50 49/60/43
f 12/12/9 59/68/51 58/67/50
f 12/12/9 61/69/52 60/70/53
f 12/12/9 62/71/54 61/69/52
f 12/12/9 63/72/55 62/71/54
f 12/12/9 64/73/56 63/72/55
f 53/64/47 57/74/57 65/75/58
f 53/64/47 65/75/58 66/76/59
f 53/64/47 67/77/60 68/78/61
f 64/73/56 12/12/9 13/79/62
f 72/80/63 71/81/64 13/79/62
f 74/82/65 73/83/66 13/79/62
f 75/84/67 74/82/65 13/79/62
f 34/85/30 75/84/67 13/79/62
f 21/86/19 13/79/62 14/21/11
f 14/21/11 26/87/22 21/86/19
f 14/21/11 25/88/23 26/87/22
f 14/21/11 77/89/68 76/90/69
f 14/21/11 78/91/70 77/89/68
f 14/21/11 45/92/71 78/91/70
f 17/93/16 18/94/15 75/84/67
f 18/94/15 53/64/47 68/78/61
f 14/95/11 16/96/13 10/97/9
f 10/97/9 11/13/10 14/95/11
f 91/98/72 92/99/73 90/100/74
f 92/99/73 94/101/75 93/102/76
f 94/101/75 95/103/77 93/102/76
f 94/101/75 96/104/78 95/103/77
f 96/104/78 97/105/79 95/103/77
f 96/104/78 98/106/80 97/105/79
f 98/106/80 99/107/81 97/105/79
f 98/106/80 100/108/82 99/107/81
f 98/106/80 101/109/83 100/108/82
f 101/109/83 102/110/84 100/108/82
f 104/111/85 103/112/86 37/113/34
f 37/113/34 29/114/27 104/111/85
f 30/115/26 106/116/87 105/117/88
f 42/118/39 28/119/25 27/120/24
f 42/118/39 23/121/20 28/119/25
f 42/118/39 41/122/38 23/121/20
f 41/122/38 107/123/89 23/121/20
f 110/124/90 19/125/17 36/126/33
f 110/124/90 111/127/91 19/125/17
f 111/127/91 20/128/92 19/125/17
f 111/127/91 112/129/93 20/128/92
f 72/130/63 73/131/66 93/132/76
f 93/132/76 95/133/77 72/130/63
f 90/134/74 93/135/76 73/136/66
f 83/137/94 66/138/59 65/139/58
f 65/139/58 80/140/95 83/137/94
f 15/141/12 3/142/3 1/143/2
f 1/143/2 9/144/14 15/141/12
f 85/145/96 87/146/97 68/147/61
f 87/148/97 89/149/98 75/150/67
f 82/151/99 81/152/100 56/153/101
f 56/153/101 55/154/49 82/151/99
f 79/155/102 57/156/57 56/157/101
f 56/157/101 81/158/100 79/155/102
f 53/159/47 112/160/93 111/161/91
f 111/161/91 51/162/44 53/159/47
f 86/163/103 84/164/104 54/165/48
f 80/166/95 65/167/58 57/168/57
f 57/168/57 79/169/102 80/166/95
f 84/170/104 82/171/99 55/172/49
f 46/173/42 47/174/105 108/175/106
f 60/176/53 61/177/52 96/178/78
f 62/179/54 98/180/80 96/181/78
f 96/181/78 61/182/52 62/179/54
f 39/183/37 46/184/42 107/185/89
f 107/185/89 41/186/38 39/183/37
f 105/187/88 77/188/68 78/189/70
f 78/189/70 104/190/85 105/187/88
f 63/191/55 64/192/56 102/193/84
f 58/194/50 59/195/51 92/196/73
f 110/197/90 50/198/45 51/199/44
f 20/200/92 112/201/93 53/202/47
f 24/203/21 35/204/32 33/205/31
f 50/206/45 110/207/90 109/208/107
f 103/209/86 45/210/71 38/211/35
f 17/212/16 34/213/30 36/214/33
f 36/214/33 19/215/17 17/212/16
f 47/216/105 48/217/108 109/218/107
f 109/218/107 108/219/106 47/216/105
f 114/7/109 113/1/110 115/5/111
f 6/220/6 116/221/112 115/222/111
f 114/223/109 116/224/112 6/225/6
f 6/225/6 7/226/7 114/223/109
f 2/227/1 113/228/110 114/229/109
f 114/229/109 7/230/7 2/227/1
f 2/231/1 5/232/5 115/233/111
f 19/24/17 20/237/92 18/22/15
f 43/238/40 40/239/36 42/240/39
f 42/240/39 44/241/41 43/238/40
f 38/58/35 45/92/71 14/21/11
f 12/12/9 47/242/105 46/59/42
f 12/12/9 48/243/108 47/242/105
f 12/12/9 49/60/43 48/243/108
f 49/60/43 50/62/45 48/243/108
f 49/60/43 52/63/46 51/61/44
f 52/63/46 54/65/48 53/64/47
f 55/66/49 56/244/101 53/64/47
f 56/244/101 57/74/57 53/64/47
f 12/12/9 60/70/53 59/68/51
f 53/64/47 66/76/59 67/77/60
f 69/245/113 64/73/56 13/79/62
f 70/246/114 69/245/113 13/79/62
f 71/81/64 70/246/114 13/79/62
f 73/83/66 72/80/63 13/79/62
f 33/247/31 34/85/30 13/79/62
f 22/248/18 33/247/31 13/79/62
f 21/86/19 22/248/18 13/79/62
f 14/21/11 76/90/69 25/88/23
f 34/85/30 17/93/16 75/84/67
f 18/94/15 68/78/61 75/84/67
f 80/249/95 79/250/102 81/251/100
f 81/251/100 82/252/99 80/249/95
f 82/252/99 83/253/94 80/249/95
f 82/252/99 84/254/104 83/253/94
f 84/254/104 85/255/96 83/253/94
f 84/254/104 86/256/103 85/255/96
f 86/256/103 87/257/97 85/255/96
f 86/256/103 88/258/115 87/257/97
f 88/258/115 89/259/98 87/257/97
f 88/258/115 90/100/74 89/259/98
f 88/258/115 91/98/72 90/100/74
f 92/99/73 93/102/76 90/100/74
f 29/114/27 105/117/88 104/111/85
f 29/114/27 30/115/26 105/117/88
f 30/115/26 27/120/24 106/116/87
f 30/115/26 44/260/41 27/120/24
f 44/260/41 42/118/39 27/120/24
f 107/123/89 24/261/21 23/121/20
f 107/123/89 108/262/106 24/261/21
f 108/262/106 35/263/32 24/261/21
f 108/262/106 109/264/107 35/263/32
f 109/264/107 36/126/33 35/263/32
f 109/264/107 110/124/90 36/126/33
f 71/265/64 72/266/63 95/267/77
f 95/267/77 97/268/79 71/265/64
f 63/269/55 101/270/83 98/271/80
f 98/271/80 62/272/54 63/269/55
f 64/273/56 69/274/113 100/275/82
f 100/275/82 102/276/84 64/273/56
f 69/277/113 70/278/114 99/279/81
f 99/279/81 100/280/82 69/277/113
f 73/136/66 74/281/65 90/134/74
f 74/282/65 75/283/67 89/284/98
f 89/284/98 90/285/74 74/282/65
f 68/147/61 67/286/60 85/145/96
f 75/150/67 68/287/61 87/148/97
f 85/288/96 67/289/60 66/290/59
f 66/290/59 83/291/94 85/288/96
f 70/292/114 71/293/64 97/294/79
f 97/294/79 99/295/81 70/292/114
f 54/165/48 52/296/46 86/163/103
f 25/297/23 76/298/69 106/299/87
f 106/299/87 27/300/24 25/297/23
f 49/301/43 58/302/50 91/303/72
f 91/303/72 88/304/115 49/301/43
f 55/172/49 54/305/48 84/170/104
f 108/175/106 107/306/89 46/173/42
f 106/307/87 76/308/69 77/309/68
f 77/309/68 105/310/88 106/307/87
f 96/178/78 94/311/75 60/176/53
f 52/312/46 49/313/43 88/314/115
f 88/314/115 86/315/103 52/312/46
f 102/193/84 101/316/83 63/191/55
f 92/196/73 91/317/72 58/194/50
f 59/318/51 60/319/53 94/320/75
f 94/320/75 92/321/73 59/318/51
f 51/199/44 111/322/91 110/197/90
f 104/323/85 78/324/70 45/325/71
f 45/325/71 103/326/86 104/323/85
f 53/202/47 18/327/15 20/200/92
f 33/205/31 22/328/18 24/203/21
f 109/208/107 48/329/108 50/206/45
f 38/211/35 37/330/34 103/209/86
f 21/331/19 26/332/22 28/333/25
f 28/333/25 23/334/20 21/331/19
f 115/5/111 116/6/112 114/7/109
f 115/222/111 5/335/5 6/220/6
f 115/233/111 113/336/110 2/231/1
