# Blender 4.3.2
# www.blender.org
mtllib structure-doorway.mtl
o structure-doorway
v 0.400000 0.300000 -1.700000
v 0.400000 0.600000 -1.700000
v -0.400000 0.300000 -1.700000
v -0.400000 0.600000 -1.700000
v -0.400000 1.500000 -1.700000
v 0.400000 1.500000 -1.700000
v 0.400000 1.500000 -1.600000
v 0.400000 0.300000 -1.600000
v -0.400000 1.500000 -1.600000
v -0.400000 0.300000 -1.600000
v -0.400000 0.300000 -0.000000
v -0.400000 0.700000 -0.000000
v -0.400000 1.500000 -0.000000
v -0.500000 0.300000 -0.000000
v -0.500000 0.300000 -1.600000
v -0.500000 0.700000 -0.000000
v -0.500000 0.600000 -1.600000
v -0.500000 1.500000 -1.600000
v -0.500000 1.500000 -0.000000
v 0.500000 0.500000 -3.000000
v 0.500000 1.500000 -3.000000
v -0.500000 0.500000 -3.000000
v -0.500000 1.500000 -3.000000
v 0.500000 0.300000 -1.600000
v 0.500000 0.300000 -0.000000
v 0.500000 0.600000 -1.600000
v 0.500000 0.700000 -0.000000
v 0.500000 1.500000 -1.600000
v 0.500000 1.500000 -0.000000
v 0.400000 0.300000 -0.000000
v 0.400000 0.700000 -0.000000
v 0.400000 1.500000 -0.000000
v -0.500000 0.600000 -2.700000
v 0.500000 0.600000 -2.700000
v -0.500000 0.600000 -2.800000
v 0.500000 0.600000 -2.800000
v 0.500000 0.500000 -2.800000
v -0.500000 0.500000 -2.800000
v -0.400000 0.600000 -1.700000
v -0.500000 0.600000 -2.700000
v 0.400000 0.600000 -1.700000
v 0.500000 0.600000 -2.700000
v -0.400000 0.700000 -0.000000
v -0.400000 0.300000 -0.000000
v -0.400000 1.500000 -0.000000
v -0.500000 -0.500000 -0.000000
v -0.500000 0.300000 -0.000000
v 0.400000 0.700000 -0.000000
v 0.400000 0.300000 -0.000000
v 0.500000 -0.500000 -0.000000
vn -0.2971 -0.6303 -0.7173
vn 0.3827 -0.0000 -0.9239
vn 0.2971 -0.6303 -0.7173
vn -0.3827 -0.0000 -0.9239
vn -0.2971 0.6303 -0.7173
vn 0.2971 0.6303 -0.7173
vn -0.5773 -0.5774 0.5774
vn 0.3015 0.9045 0.3015
vn 0.3015 -0.9045 0.3015
vn 0.7071 -0.7071 -0.0000
vn 0.8944 -0.0000 0.4472
vn 0.5773 0.5774 0.5773
vn -0.8944 -0.0000 0.4472
vn -0.7173 -0.6303 -0.2971
vn -0.7071 -0.7071 -0.0000
vn -0.9239 -0.0000 -0.3827
vn -0.0000 -0.0000 -1.0000
vn -0.0000 -0.7071 -0.7071
vn 0.9239 -0.0000 -0.3827
vn 0.7173 0.6303 -0.2971
vn 0.5774 0.5774 0.5774
vn 0.7173 -0.6303 -0.2971
vn -0.7173 0.6303 -0.2971
vn -0.0000 -0.7071 0.7071
vn -0.5773 0.5774 0.5773
vn -0.5773 0.5774 0.5774
vn -0.0000 1.0000 -0.0000
vn -0.5773 0.5773 0.5774
vn -0.0000 -1.0000 -0.0000
vt 0.218750 0.138333
vt 0.218750 0.131667
vt 0.218750 0.025000
vt 0.218750 0.225000
vt 0.218750 0.211667
vt 0.343750 0.225000
vt 0.343750 0.043182
vt 0.343750 0.025000
vt 0.281250 0.125000
vt 0.218750 0.205000
s 1
usemtl colormap.013
f 3/1/1 2/1/2 1/1/3
f 2/1/2 3/1/1 4/1/4
f 5/1/5 2/1/2 4/1/4
f 2/1/2 5/1/5 6/1/6
f 8/2/7 9/2/8 10/2/9
f 9/2/8 11/3/10 10/2/9
f 11/3/10 9/2/8 12/3/11
f 12/3/11 9/2/8 13/3/12
f 16/3/13 15/2/14 14/3/15
f 15/2/14 16/3/13 17/2/16
f 21/4/17 22/4/18 23/4/17
f 25/3/10 26/2/19 27/3/11
f 27/3/11 26/2/19 28/2/20
f 27/3/11 28/2/20 29/3/21
f 31/3/13 8/2/7 30/3/15
f 2/1/2 24/2/22 1/1/3
f 24/2/22 2/1/2 26/2/19
f 2/1/2 28/2/20 26/2/19
f 28/2/20 2/1/2 6/1/6
f 15/2/14 11/3/10 14/3/15
f 10/2/9 15/2/14 3/1/1
f 1/1/3 10/2/9 3/1/1
f 24/2/22 10/2/9 1/1/3
f 4/1/4 18/2/23 5/1/5
f 37/5/24 35/5/24 38/5/24
f 22/4/18 37/5/24 38/5/24
f 37/5/24 22/4/18 20/4/18
f 28/2/20 32/3/25 29/3/21
f 32/3/25 28/2/20 7/2/26
s 0
f 7/2/27 28/2/27 9/2/27
s 1
f 18/2/23 9/2/8 5/1/5
f 18/2/23 13/3/12 9/2/8
f 13/3/12 18/2/23 19/3/28
f 19/3/28 12/3/11 13/3/12
f 12/3/11 19/3/28 16/3/13
f 32/3/25 27/3/11 29/3/21
f 27/3/11 32/3/25 31/3/13
f 40/6/29 39/7/29 17/8/29
f 39/7/29 40/6/29 41/7/29
f 42/6/29 41/7/29 40/6/29
f 41/7/29 42/6/29 26/8/29
f 44/9/17 45/9/17 32/9/17
f 32/9/17 46/9/17 44/9/17
f 44/9/17 46/9/17 47/9/17
f 48/9/17 46/9/17 32/9/17
f 25/9/17 46/9/17 49/9/17
f 46/9/17 25/9/17 50/9/17
f 9/2/8 8/2/7 7/2/26
f 17/2/16 16/3/13 18/2/23
f 18/2/23 16/3/13 19/3/28
f 22/4/18 21/4/17 20/4/18
f 26/2/19 25/3/10 24/2/22
f 8/2/7 31/3/13 7/2/26
f 7/2/26 31/3/13 32/3/25
f 11/3/10 15/2/14 10/2/9
s 0
f 24/2/29 8/2/29 10/2/29
s 1
f 24/2/22 30/3/15 8/2/7
f 30/3/15 24/2/22 25/3/10
f 35/5/24 34/10/29 33/10/29
f 34/10/29 35/5/24 36/5/24
f 17/2/16 3/1/1 15/2/14
f 3/1/1 17/2/16 4/1/4
f 18/2/23 4/1/4 17/2/16
f 35/5/24 37/5/24 36/5/24
f 9/2/8 28/2/20 6/1/6
f 5/1/5 9/2/8 6/1/6
s 0
f 45/9/17 44/9/17 43/9/17
s 1
f 49/9/17 46/9/17 48/9/17
