# Blender 4.3.2
# www.blender.org
mtllib chair.mtl
o chair.003
v -0.030000 0.110000 -0.050000
v -0.170000 0.110000 -0.050000
v -0.030000 0.110000 -0.070000
v -0.170000 0.110000 -0.070000
v -0.160000 0.040000 0.000000
v -0.160000 0.000000 0.000000
v -0.200000 0.040000 0.000000
v -0.200000 0.000000 0.000000
v -0.040000 0.160000 -0.430000
v -0.040000 0.170000 -0.295000
v -0.040000 0.160000 -0.240000
v -0.040000 0.200000 -0.240000
v -0.040000 0.190000 -0.295000
v -0.040000 0.190000 -0.335000
v -0.040000 0.170000 -0.335000
v -0.040000 0.200000 -0.430000
v -0.170000 0.090000 -0.050000
v -0.030000 0.090000 -0.050000
v -0.170000 0.090000 -0.070000
v -0.030000 0.090000 -0.070000
v 0.000000 0.000000 -0.240000
v 0.000000 0.160000 -0.240000
v -0.200000 0.000000 -0.240000
v -0.160000 0.160000 -0.240000
v -0.200000 0.160000 -0.240000
v -0.160000 0.200000 -0.240000
v -0.160000 0.190000 -0.295000
v -0.160000 0.190000 -0.335000
v -0.200000 0.160000 0.000000
v -0.200000 0.160000 -0.190000
v -0.200000 0.200000 0.000000
v -0.200000 0.160000 -0.470000
v -0.200000 0.200000 -0.470000
v -0.200000 0.040000 -0.190000
v -0.160000 0.160000 -0.190000
v -0.160000 0.040000 -0.190000
v -0.160000 0.000000 -0.190000
v -0.160000 0.200000 -0.190000
v -0.040000 0.000000 -0.190000
v -0.040000 0.040000 -0.190000
v -0.040000 0.160000 -0.190000
v -0.040000 0.200000 -0.190000
v 0.000000 0.040000 -0.190000
v 0.000000 0.160000 -0.190000
v -0.160000 0.170000 -0.335000
v 0.000000 0.200000 0.000000
v -0.040000 0.200000 0.000000
v 0.000000 0.200000 -0.470000
v -0.160000 0.200000 -0.430000
v -0.160000 0.200000 0.000000
v 0.000000 0.000000 0.000000
v -0.040000 0.000000 0.000000
v -0.160000 0.170000 -0.295000
v 0.000000 0.160000 -0.470000
v 0.000000 0.160000 0.000000
v -0.040000 0.160000 0.000000
v -0.160000 0.160000 -0.430000
v 0.000000 0.040000 0.000000
v -0.040000 0.040000 0.000000
v -0.160000 0.160000 0.000000
v -0.190000 0.040000 -0.050000
v -0.190000 0.040000 -0.070000
v -0.190000 0.160000 -0.050000
v -0.190000 0.160000 -0.070000
v -0.170000 0.160000 -0.070000
v -0.170000 0.160000 -0.050000
v -0.010000 0.040000 -0.050000
v -0.010000 0.040000 -0.070000
v -0.030000 0.040000 -0.070000
v -0.030000 0.040000 -0.050000
v -0.160000 0.040000 -0.050000
v -0.170000 0.040000 -0.070000
v -0.170000 0.040000 -0.050000
v -0.030000 0.160000 -0.070000
v -0.030000 0.160000 -0.050000
v -0.010000 0.160000 -0.070000
v -0.010000 0.160000 -0.050000
vn 0.3015 0.3015 0.9045
vn -0.5773 0.5774 0.5774
vn -0.5774 0.5773 -0.5773
vn 0.3015 0.3015 -0.9045
vn 0.5773 -0.5773 0.5774
vn 0.5774 0.5774 0.5774
vn -0.5773 0.5773 0.5774
vn -0.5774 -0.5774 0.5774
vn -0.3015 -0.3015 -0.9045
vn -0.3015 0.9045 -0.3015
vn -0.9045 -0.3015 0.3015
vn -0.9045 0.3015 0.3015
vn -0.9045 0.3015 -0.3015
vn -0.3015 -0.9045 0.3015
vn -0.9045 -0.3015 -0.3015
vn -0.3015 0.9045 0.3015
vn -0.5774 -0.5773 -0.5773
vn 0.3015 -0.3015 -0.9045
vn 0.3015 0.9045 -0.3015
vn 0.9045 0.3015 0.3015
vn 0.9045 0.3015 -0.3015
vn -0.0000 0.7071 0.7071
vn 0.5773 -0.5774 0.5773
vn 0.3015 0.9045 0.3015
vn 0.3015 -0.9045 0.3015
vn -0.3015 0.3015 0.9045
vn -0.3015 -0.3015 0.9045
vn 0.9045 -0.3015 -0.3015
vn 0.5774 0.5773 -0.5774
vn -0.5773 0.5774 -0.5773
vn 0.5774 -0.5774 -0.5773
vn 0.9045 -0.3015 0.3015
vn 0.5773 -0.5774 -0.5773
vn 0.5774 -0.5773 0.5774
vn 0.5774 0.5773 0.5774
vn -0.5774 -0.5773 0.5774
vn 0.3015 -0.9045 -0.3015
vn 0.5773 0.5774 0.5774
vn 0.3015 -0.3015 0.9045
vn -0.0000 1.0000 -0.0000
vn -0.5773 -0.5774 0.5774
vn -0.5774 -0.5774 -0.5774
vn -0.3015 -0.9045 -0.3015
vn -0.0000 -0.0000 1.0000
vn 1.0000 -0.0000 -0.0000
vn -0.0000 -0.0000 -0.0000
vn -0.0000 -0.0000 -1.0000
vt -6.692914 1.968504
vt -1.181102 1.968504
vt -1.181102 2.755906
vt -6.692914 2.755906
vt -6.299212 0.000000
vt -6.299212 1.574803
vt -7.874016 1.574803
vt -7.874016 0.000000
vt 6.299212 9.448819
vt 7.874016 9.448819
vt 6.692914 11.614170
vt 7.480315 11.614170
vt 7.480315 13.188980
vt 6.299212 16.929131
vt 6.692914 13.188980
vt 7.874016 16.929131
vt 7.874016 0.000000
vt 6.299212 6.299212
vt 1.574803 7.874016
vt 7.874016 6.299212
vt 6.299212 7.874016
vt -6.299212 11.614170
vt -1.574803 11.614170
vt -1.574803 13.188980
vt -6.299212 13.188980
vt 7.874016 -0.000000
vt 6.299212 7.480315
vt 6.299212 18.503941
vt 1.574803 7.480315
vt -6.299212 6.299212
vt -7.874016 6.299212
vt -6.299212 7.874016
vt -1.574803 0.000000
vt -1.574803 1.574803
vt -1.574803 6.299212
vt -1.574803 7.874016
vt 0.000000 1.574803
vt 1.574803 6.692914
vt 6.299212 6.692914
vt 0.000000 18.503941
vt -1.574803 7.480315
vt -1.574803 -0.000000
vt -6.299212 7.480315
vt -6.299212 9.448819
vt -7.874016 18.503941
vt -6.299212 16.929131
vt -7.874016 -0.000000
vt -6.299212 -0.000000
vt 6.299212 0.000000
vt 0.000000 9.448819
vt 0.000000 0.000000
vt -6.299212 6.692914
vt -1.574803 6.692914
vt 0.000000 7.874016
vt 0.000000 6.299212
vt 7.874016 7.874016
vt 0.000000 6.299212
vt 0.000000 7.874016
vt 7.874016 18.503941
vt -7.874016 16.929131
vt -7.480315 13.188980
vt -6.692914 13.188980
vt -7.480315 11.614170
vt -6.692914 11.614170
vt -7.874016 9.448819
vt -7.874016 7.480315
vt -7.874016 7.874016
vt -6.299212 18.503941
vt 1.574803 2.755906
vt 1.574803 1.968504
vt 6.299212 1.968504
vt 7.480315 1.968504
vt 6.692914 1.968504
vt 6.692914 2.755906
vt 0.000000 7.480315
vt -0.393701 2.755906
vt -0.393701 1.968504
vt 1.574803 0.000000
vt -1.574803 1.968504
vt -1.574803 2.755906
vt -3.543307 2.755906
vt -3.543307 1.968504
vt -6.299212 1.968504
vt -7.480315 2.755906
vt -7.480315 1.968504
vt -4.330709 1.968504
vt -4.330709 2.755906
vt -6.299212 2.755906
vt 3.543307 1.968504
vt 3.543307 2.755906
vt 4.330709 1.968504
vt 6.299212 2.755906
vt -0.000000 0.000000
vt 1.181102 1.968504
vt 0.393701 1.968504
vt -0.000000 7.480315
vt 0.393701 2.755906
vt -1.181102 6.299212
vt -1.181102 4.330709
vt -1.181102 1.574803
vt -1.181102 3.543307
vt -6.692914 4.330709
vt -6.692914 3.543307
vt -7.480315 6.299212
vt -7.480315 1.574803
vt -6.692914 1.574803
vt 0.393701 6.299212
vt 0.393701 1.574803
vt 1.181102 1.574803
vt 6.692914 3.543307
vt 6.692914 1.574803
vt 7.480315 1.574803
vt 1.181102 2.755906
vt 1.574803 6.299212
vt 6.299212 -0.000000
vt -0.000000 9.448819
vt 1.574803 -0.000000
vt -0.000000 -0.000000
vt 0.000000 -0.000000
vt -1.574803 9.448819
vt -1.574803 16.929131
vt 1.574803 13.188980
vt 1.574803 11.614170
vt 6.299212 11.614170
vt 6.299212 13.188980
vt 1.574803 16.929131
vt 0.000000 18.503941
vt 1.574803 9.448819
vt 7.874016 7.480315
vt 7.480315 2.755906
vt 4.330709 2.755906
vt 1.574803 0.000000
vt -0.393701 1.574803
vt -0.393701 6.299212
vt -6.692914 6.299212
vt 1.181102 6.299212
vt 1.181102 3.543307
vt 1.181102 4.330709
vt 6.692914 4.330709
vt 7.480315 6.299212
vt 6.692914 6.299212
s 1
usemtl wood.015
f 2/1/1 1/2/2 3/3/3
f 3/3/3 4/4/4 2/1/1
f 6/5/5 5/6/6 7/7/7
f 7/7/7 8/8/8 6/5/5
f 11/9/9 12/10/10 10/11/11
f 12/10/10 13/12/12 10/11/11
f 12/10/10 14/13/13 13/12/12
f 9/14/14 10/11/11 15/15/15
f 15/15/15 16/16/16 9/14/14
f 14/13/13 12/10/10 16/16/16
f 23/17/17 24/18/18 12/19/10
f 23/17/17 25/20/15 24/18/18
f 12/19/10 24/18/18 26/21/19
f 27/22/20 13/23/12 14/24/13
f 14/24/13 28/25/21 27/22/20
f 31/26/7 25/9/15 30/27/11
f 31/26/7 32/28/17 25/9/15
f 34/29/12 30/27/11 25/9/15
f 36/6/22 35/30/23 30/31/11
f 30/31/11 34/7/12 36/6/22
f 38/32/24 37/5/25 39/33/14
f 38/32/24 39/33/14 40/34/26
f 38/32/24 40/34/26 41/35/27
f 41/35/27 42/36/16 38/32/24
f 41/35/27 40/34/26 43/37/20
f 14/29/13 15/38/15 45/39/28
f 45/39/28 28/27/21 14/29/13
f 48/40/29 42/41/16 47/42/2
f 38/43/24 26/44/19 33/45/30
f 26/44/19 49/46/24 33/45/30
f 31/47/7 50/48/6 38/43/24
f 23/10/17 37/27/25 6/49/5
f 23/10/17 39/29/14 37/27/25
f 39/29/14 23/10/17 21/50/31
f 39/29/14 21/50/31 51/51/5
f 27/43/20 53/52/32 10/53/11
f 48/54/29 54/55/33 32/20/17
f 32/20/17 33/56/30 48/54/29
f 55/57/34 46/58/6 47/36/2
f 24/9/18 25/10/15 32/59/17
f 51/51/5 58/37/35 59/34/7
f 59/34/7 52/33/8 51/51/5
f 49/60/24 28/61/21 45/62/28
f 49/60/24 27/63/20 28/61/21
f 24/44/18 45/62/28 53/64/32
f 53/64/32 27/63/20 26/65/19
f 27/63/20 49/60/24 26/65/19
f 60/5/5 35/43/23 38/66/24
f 31/67/7 29/31/36 60/30/5
f 22/44/28 54/68/33 48/45/29
f 48/45/29 46/8/6 55/5/34
f 43/41/20 51/51/5 21/50/31
f 51/51/5 43/41/20 58/33/35
f 62/69/10 61/70/16 63/71/14
f 63/72/14 60/49/5 29/17/36
f 66/73/25 65/74/37 35/27/23
f 43/75/20 68/76/19 67/77/24
f 43/75/20 69/3/10 68/76/19
f 59/33/7 67/77/24 70/2/16
f 70/2/16 40/41/26 59/33/7
f 69/3/10 43/75/20 40/41/26
f 39/75/14 52/51/8 59/78/7
f 59/78/7 40/29/26 39/75/14
f 41/27/27 56/49/36 47/17/2
f 73/79/38 72/80/19 19/81/18
f 19/81/18 17/82/39 73/79/38
f 73/1/38 71/83/40 36/43/22
f 36/43/22 72/4/19 73/1/38
f 36/43/22 62/84/10 72/4/19
f 71/83/40 61/85/16 7/8/7
f 7/8/7 5/5/6 71/83/40
f 61/85/16 34/66/12 7/8/7
f 61/85/16 62/84/10 34/66/12
f 62/84/10 36/43/22 34/66/12
f 2/86/1 4/87/4 65/88/37
f 69/69/10 70/70/16 18/89/41
f 18/89/41 20/90/42 69/69/10
f 1/91/2 75/71/14 74/92/43
f 55/93/34 75/94/14 77/95/25
f 77/95/25 44/96/32 55/93/34
f 77/95/25 76/97/37 44/96/32
s 0
f 75/98/44 1/99/44 70/100/44
f 1/99/44 18/101/44 70/100/44
s 1
f 2/102/1 17/103/39 18/101/41
f 63/104/14 17/103/39 2/102/1
f 61/105/16 73/106/38 17/103/39
f 67/79/24 68/80/19 76/88/37
f 76/88/37 77/83/25 67/79/24
f 76/107/37 68/108/19 69/109/10
f 19/110/18 72/111/19 62/112/10
f 10/11/11 9/14/14 11/9/9
f 15/15/15 14/13/13 16/16/16
f 18/94/41 17/73/39 19/74/18
f 19/74/18 20/113/42 18/94/41
f 22/57/28 21/51/31 23/17/17
f 23/17/17 11/114/9 22/57/28
f 23/17/17 12/19/10 11/114/9
f 30/27/11 29/115/36 31/26/7
f 31/26/7 33/59/30 32/28/17
f 34/29/12 25/9/15 23/116/17
f 7/117/7 34/29/12 23/116/17
f 23/116/17 8/118/8 7/117/7
s 0
f 35/30/44 36/6/44 37/5/44
f 38/32/44 35/30/44 37/5/44
s 1
f 43/37/20 44/57/32 41/35/27
f 47/42/2 46/119/6 48/40/29
f 48/40/29 12/120/10 42/41/16
f 12/120/10 38/43/24 42/41/16
f 48/40/29 16/121/16 12/120/10
f 48/40/29 49/46/24 16/121/16
f 38/43/24 12/120/10 26/44/19
f 49/46/24 48/40/29 33/45/30
f 38/43/24 33/45/30 31/47/7
f 6/49/5 8/17/8 23/10/17
f 51/51/5 52/78/8 39/29/14
f 15/122/15 10/123/11 53/124/32
f 53/124/32 45/125/28 15/122/15
f 10/53/11 13/41/12 27/43/20
f 47/36/2 56/35/36 55/57/34
f 32/59/17 57/14/25 24/9/18
f 32/59/17 9/126/14 57/14/25
f 32/59/17 54/127/33 9/126/14
f 9/126/14 54/127/33 22/50/28
f 22/50/28 11/128/9 9/126/14
f 9/35/14 16/36/16 49/32/24
f 49/32/24 57/30/25 9/35/14
f 45/62/28 24/44/18 57/46/25
f 57/46/25 49/60/24 45/62/28
f 53/64/32 26/65/19 24/44/18
f 38/66/24 50/8/6 60/5/5
f 60/30/5 50/32/6 31/67/7
f 48/45/29 44/43/32 22/44/28
f 48/45/29 55/5/34 44/43/32
f 22/44/28 44/43/32 43/41/20
f 21/50/31 22/44/28 43/41/20
f 63/71/14 64/92/43 62/69/10
f 29/17/36 30/129/11 63/72/14
f 30/129/11 64/130/43 63/72/14
f 30/129/11 65/74/37 64/130/43
f 60/49/5 63/72/14 66/73/25
f 66/73/25 35/27/23 60/49/5
f 65/74/37 30/129/11 35/27/23
f 67/77/24 59/33/7 58/51/35
f 58/51/35 43/75/20 67/77/24
f 70/2/16 69/3/10 40/41/26
f 47/17/2 42/129/16 41/27/27
f 6/51/5 37/75/25 36/41/45
f 36/41/45 5/33/6 6/51/5
s 0
f 36/41/45 71/79/45 5/33/45
f 71/83/40 73/1/40 61/85/40
s 1
f 65/88/37 66/83/25 2/86/1
f 74/92/43 3/131/3 1/91/2
f 75/94/14 55/93/34 56/132/36
f 56/132/36 41/29/27 75/94/14
f 41/29/27 74/113/43 75/94/14
f 41/29/27 76/97/37 74/113/43
f 76/97/37 41/29/27 44/96/32
f 67/133/24 77/134/25 75/98/14
f 75/98/14 70/100/16 67/133/24
f 18/101/41 1/99/2 2/102/1
f 2/102/1 66/135/25 63/104/14
f 17/103/39 63/104/14 61/105/16
f 69/109/10 74/136/43 76/107/37
s 0
f 69/109/46 20/137/46 74/136/46
f 20/137/47 3/138/47 74/136/47
s 1
f 3/138/3 20/137/42 19/110/18
f 19/110/18 4/139/4 3/138/3
f 62/112/10 4/139/4 19/110/18
f 4/139/4 62/112/10 64/140/43
f 64/140/43 65/141/37 4/139/4
