# Blender 4.3.2
# www.blender.org
mtllib kitchenMicrowave.mtl
o kitchenMicrowave
v -0.216264 0.000000 -0.160027
v -0.216264 0.000000 -0.019973
v -0.216264 0.160000 -0.160027
v -0.216264 0.160000 -0.019973
v -0.019973 0.160000 -0.160027
v -0.019973 0.000000 -0.160027
v -0.019973 0.160000 -0.019973
v -0.066157 0.050000 -0.019973
v -0.019973 0.000000 -0.019973
v -0.075692 0.037574 -0.019973
v -0.088118 0.028038 -0.019973
v -0.102589 0.022044 -0.019973
v -0.060163 0.064471 -0.019973
v -0.058118 0.080000 -0.019973
v -0.118118 0.020000 -0.019973
v -0.133647 0.022044 -0.019973
v -0.148118 0.028038 -0.019973
v -0.160545 0.037574 -0.019973
v -0.170080 0.050000 -0.019973
v -0.176074 0.064471 -0.019973
v -0.178118 0.080000 -0.019973
v -0.060163 0.095529 -0.019973
v -0.176074 0.095529 -0.019973
v -0.170080 0.110000 -0.019973
v -0.160545 0.122426 -0.019973
v -0.148118 0.131961 -0.019973
v -0.133647 0.137956 -0.019973
v -0.118118 0.140000 -0.019973
v -0.102589 0.137956 -0.019973
v -0.088118 0.131961 -0.019973
v -0.075692 0.122426 -0.019973
v -0.066157 0.110000 -0.019973
v -0.290000 0.010000 0.000000
v -0.236236 0.010000 0.000000
v -0.290000 0.010000 -0.143693
v -0.236236 0.010000 -0.143693
v -0.290000 0.200000 0.000000
v -0.026088 0.200000 -0.026088
v 0.000000 0.200000 0.000000
v 0.000000 0.200000 -0.180000
v -0.026088 0.200000 -0.153912
v -0.263912 0.200000 -0.153912
v -0.263912 0.200000 -0.026088
v -0.290000 0.200000 -0.180000
v -0.036790 0.220000 -0.148160
v -0.036790 0.220000 -0.031840
v -0.253210 0.220000 -0.031840
v -0.253210 0.220000 -0.148160
v -0.236236 0.000000 0.000000
v -0.236236 0.000000 -0.180000
v -0.236236 0.010000 -0.180000
v 0.000000 0.000000 0.000000
v 0.000000 0.000000 -0.180000
v -0.290000 0.010000 -0.180000
v -0.019973 -0.010000 -0.160028
v -0.019973 -0.010000 -0.019973
v -0.019973 0.010000 -0.160028
v -0.019973 0.010000 -0.019973
v -0.216264 -0.010000 -0.160028
v -0.216264 0.010000 -0.160028
v -0.216264 0.010000 -0.019973
v -0.216264 -0.010000 -0.019973
v -0.216264 -0.010000 -0.054147
v -0.216264 0.000000 -0.054147
v -0.216264 0.000000 -0.125853
v -0.216264 -0.010000 -0.125853
v -0.037060 0.010000 -0.037060
v -0.037060 0.010000 -0.142940
v -0.199177 0.010000 -0.142940
v -0.199177 0.010000 -0.037060
v -0.037060 -0.010000 -0.142940
v -0.199177 -0.010000 -0.142940
v -0.037060 -0.010000 -0.037060
v -0.199177 -0.010000 -0.037060
v -0.199177 -0.010000 -0.125853
v -0.199177 -0.010000 -0.054147
vn 0.3015 -0.9045 -0.3015
vn 0.3015 -0.9045 0.3015
vn 0.5774 -0.5773 0.5774
vn 0.5774 -0.5774 -0.5773
vn -0.3015 -0.9045 0.3015
vn -0.5774 -0.5774 0.5774
vn -0.5774 -0.5774 -0.5773
vn -0.3015 -0.9045 -0.3015
vn -0.0000 -0.0000 -1.0000
vn -0.3015 -0.3015 0.9045
vn -0.7071 -0.7071 -0.0000
vn -0.0000 -1.0000 -0.0000
vn 0.1992 0.9633 0.1799
vn -0.5774 0.5774 0.5773
vn 0.5773 0.5774 0.5773
vn 0.5774 0.5773 -0.5774
vn 0.1992 0.9633 -0.1799
vn -0.1992 0.9633 -0.1799
vn -0.1992 0.9633 0.1799
vn -0.5774 0.5774 -0.5773
vn 0.4087 0.7629 0.5009
vn 0.4086 0.7629 -0.5009
vn -0.4087 0.7629 -0.5009
vn -0.4086 0.7629 0.5009
vn -0.5773 -0.5773 -0.5774
vn -0.5773 -0.5774 0.5773
vn -0.3015 -0.3015 -0.9045
vn -1.0000 -0.0000 -0.0000
vn 0.5774 -0.5774 0.5773
vn -0.5774 -0.5773 -0.5773
vn 0.5773 -0.5774 -0.5773
vn 1.0000 -0.0000 -0.0000
vn -0.0000 -0.0000 1.0000
vn -0.0000 1.0000 -0.0000
vt 0.000000 0.786321
vt 0.000000 6.300293
vt -6.299212 6.300293
vt -6.299212 0.786321
vt -0.786321 0.000000
vt -0.786321 6.299212
vt -8.514323 6.299212
vt -8.514323 0.000000
vt 0.786321 0.786321
vt 8.514323 0.786321
vt 8.514323 6.300293
vt 0.786321 6.300293
vt 0.786321 0.000000
vt 2.979991 1.479275
vt 2.604593 1.968504
vt 3.469220 1.103877
vt 8.514323 0.000000
vt 4.038939 0.867892
vt 2.368607 2.538223
vt 0.786321 6.299212
vt 6.696051 1.968504
vt 6.320653 1.479275
vt 6.932036 2.538223
vt 7.012527 3.149606
vt 2.288117 3.149606
vt 2.368607 3.760990
vt 6.932036 3.760990
vt 8.514323 6.299212
vt 6.320653 4.819937
vt 6.696051 4.330709
vt 5.831424 5.195335
vt 5.261705 5.431321
vt 4.650322 5.511811
vt 4.038939 5.431321
vt 2.979991 4.819937
vt 3.469220 5.195335
vt 9.300644 0.000000
vt 11.417320 0.000000
vt 11.417320 5.657205
vt 9.300644 5.657205
vt 6.299212 0.786321
vt 6.299212 6.300293
vt -1.027103 1.027103
vt -11.417320 0.000000
vt 0.000000 0.000000
vt 0.000000 7.086614
vt -1.027103 6.059511
vt -10.390220 6.059511
vt -10.390220 1.027103
vt -11.417320 7.086614
vt -10.390220 7.851159
vt -1.027103 7.851159
vt -1.448443 8.670479
vt -1.448443 -6.711752
vt -1.027103 -5.892432
vt -10.390220 -5.892432
vt -9.968880 -6.711752
vt -9.968880 1.253561
vt -1.448443 1.253561
vt -1.448443 5.833053
vt -9.968880 5.833053
vt 0.393701 0.000000
vt 0.393701 7.086614
vt 0.393701 5.657205
vt 0.000000 7.874016
vt -11.417320 7.874016
vt -9.300644 0.393701
vt -9.300644 0.000000
vt 9.300644 0.393701
vt 11.417320 0.393701
vt 11.417320 7.874016
vt -7.874016 7.086614
vt 7.874016 0.000000
vt 7.874016 7.086614
vt 9.300644 7.086614
vt 2.604593 4.330709
vt 4.650322 0.787402
vt 5.261705 0.867892
vt 5.831424 1.103877
vt -7.427145 1.027103
vt -7.427145 6.059511
vt -8.320189 5.833053
vt -8.320189 1.253561
vt -9.968880 8.670479
vt 2.040429 6.059511
vt 2.040429 1.027103
vt 2.933474 1.253561
vt 2.933474 5.833053
vt -11.417320 0.393701
vt -7.874016 0.000000
vt 11.417320 7.086614
vt 0.393701 5.513973
vt -0.393701 5.513973
vt -0.393701 0.000000
vt 0.000000 0.393701
vt 0.000000 -0.393701
vt 7.728003 -0.393701
vt 7.728003 0.393701
vt -7.728003 0.393701
vt -7.728003 -0.393701
vt -0.393701 1.345454
vt -0.000000 1.345454
vt -0.000000 4.168519
vt -0.393701 4.168519
vt -0.672727 0.672727
vt -7.728003 0.000000
vt 0.000000 5.513973
vt -0.672727 4.841246
vt -7.055275 4.841246
vt -7.055275 0.672727
vt -7.728003 5.513973
vt -0.672727 -0.393701
vt -0.672727 0.393701
vt -7.055275 0.393701
vt -7.055275 -0.393701
vt -0.393701 4.841246
vt -0.393701 0.672727
vt 0.393701 0.672727
vt 0.393701 4.841246
vt 0.672727 0.393701
vt 0.672727 -0.393701
vt 7.055275 -0.393701
vt 7.055275 0.393701
vt 0.393701 4.168519
vt 0.393701 1.345454
vt 7.055275 0.672727
vt 7.728003 0.000000
vt 7.728003 1.345454
vt 7.055275 1.345454
vt 0.672727 0.672727
vt 0.672727 4.841246
vt 7.728003 5.513973
vt 7.055275 4.841246
vt 7.055275 4.168519
vt 7.728003 4.168519
s 1
usemtl metalMedium.003
f 2/1/1 1/2/2 3/3/3
f 3/3/3 4/4/4 2/1/1
f 6/5/5 5/6/6 3/7/3
f 3/7/3 1/8/2 6/5/5
f 7/9/7 4/10/4 3/11/3
f 3/11/3 5/12/6 7/9/7
f 9/13/8 10/14/9 8/15/9
f 9/13/8 11/16/9 10/14/9
f 9/13/8 2/17/1 12/18/9
f 8/15/9 13/19/9 7/20/7
f 2/17/1 19/21/9 18/22/9
f 2/17/1 20/23/9 19/21/9
f 2/17/1 21/24/9 20/23/9
f 7/20/7 14/25/9 22/26/9
f 23/27/9 21/24/9 4/28/4
f 25/29/9 24/30/9 4/28/4
f 26/31/9 25/29/9 4/28/4
f 27/32/9 26/31/9 4/28/4
f 28/33/9 27/32/9 4/28/4
f 29/34/9 28/33/9 4/28/4
f 29/34/9 4/28/4 7/20/7
f 7/20/7 31/35/9 30/36/9
f 34/37/10 33/38/6 35/39/11
f 35/39/11 36/40/12 34/37/10
f 7/41/7 5/42/6 6/2/5
f 38/43/13 37/44/14 39/45/15
f 39/45/15 40/46/16 38/43/13
f 40/46/16 41/47/17 38/43/13
f 40/46/16 42/48/18 41/47/17
f 37/44/14 38/43/13 43/49/19
f 43/49/19 44/50/20 37/44/14
f 43/49/19 42/48/18 44/50/20
f 42/48/18 40/46/16 44/50/20
f 43/51/19 38/52/13 46/53/21
f 45/54/22 41/55/17 42/56/18
f 42/56/18 48/57/23 45/54/22
f 47/58/24 46/59/21 45/60/22
f 45/60/22 48/61/23 47/58/24
f 50/46/25 49/45/26 34/62/10
f 34/62/10 51/63/27 50/46/25
s 0
f 34/62/28 36/64/28 51/63/28
s 1
f 8/15/9 7/20/7 9/13/8
f 9/13/8 12/18/9 11/16/9
f 13/19/9 14/25/9 7/20/7
f 2/17/1 15/77/9 12/18/9
f 2/17/1 16/78/9 15/77/9
f 2/17/1 17/79/9 16/78/9
f 2/17/1 18/22/9 17/79/9
f 21/24/9 2/17/1 4/28/4
f 24/30/9 23/27/9 4/28/4
f 7/20/7 30/36/9 29/34/9
f 7/20/7 32/76/9 31/35/9
f 7/20/7 22/26/9 32/76/9
f 6/2/5 9/1/8 7/41/7
f 38/80/13 41/81/17 45/82/22
f 45/82/22 46/83/21 38/80/13
f 46/53/21 47/84/24 43/51/19
f 42/85/18 43/86/19 47/87/24
f 47/87/24 48/88/23 42/85/18
f 76/129/12 63/128/12 66/135/12
f 66/135/12 75/134/12 76/129/12
f 66/104/28 63/101/28 64/102/28
f 64/102/28 65/103/28 66/104/28
usemtl carpetWhite.002
f 52/45/29 39/65/15 37/66/14
f 52/45/29 34/67/10 49/68/26
f 51/69/27 54/70/30 44/71/20
f 52/45/29 53/46/31 40/72/16
f 37/73/14 44/74/20 54/63/30
f 2/10/1 52/45/29 49/37/26
f 49/37/26 50/75/25 2/10/1
f 9/9/8 53/46/31 52/45/29
f 6/12/5 50/75/25 53/46/31
f 37/66/14 34/67/10 52/45/29
f 37/66/14 33/89/6 34/67/10
f 40/65/16 53/45/31 50/37/25
f 50/37/25 51/69/27 40/65/16
f 51/69/27 44/71/20 40/65/16
f 40/72/16 39/90/15 52/45/29
f 35/64/11 33/62/6 37/73/14
f 37/73/14 54/63/30 35/64/11
f 50/75/25 1/11/2 2/10/1
f 50/75/25 6/12/5 1/11/2
f 52/45/29 2/10/1 9/9/8
f 9/9/8 6/12/5 53/46/31
f 56/62/32 55/92/32 57/93/32
f 57/93/32 58/94/32 56/62/32
f 57/95/9 55/96/9 59/97/9
f 59/97/9 60/98/9 57/95/9
f 56/96/33 58/95/33 61/99/33
f 61/99/33 62/100/33 56/96/33
f 63/101/28 62/94/28 61/62/28
f 61/62/28 64/102/28 63/101/28
f 61/62/28 65/103/28 64/102/28
f 65/103/28 61/62/28 60/92/28
f 65/103/28 60/92/28 59/93/28
f 59/93/28 66/104/28 65/103/28
f 67/105/34 61/106/34 58/45/34
f 58/45/34 57/107/34 67/105/34
f 57/107/34 68/108/34 67/105/34
f 57/107/34 69/109/34 68/108/34
f 61/106/34 67/105/34 70/110/34
f 70/110/34 60/111/34 61/106/34
f 70/110/34 69/109/34 60/111/34
f 69/109/34 57/107/34 60/111/34
f 71/112/33 68/113/33 69/114/33
f 69/114/33 72/115/33 71/112/33
f 71/116/28 73/117/28 67/118/28
f 67/118/28 68/119/28 71/116/28
f 67/120/9 73/121/9 74/122/9
f 74/122/9 70/123/9 67/120/9
f 75/124/32 72/119/32 69/116/32
f 69/116/32 76/125/32 75/124/32
f 69/116/32 74/118/32 76/125/32
f 69/116/32 70/117/32 74/118/32
f 74/126/12 56/45/12 62/127/12
f 62/127/12 63/128/12 74/126/12
f 63/128/12 76/129/12 74/126/12
f 56/45/12 74/126/12 73/130/12
f 73/130/12 55/107/12 56/45/12
f 73/130/12 71/131/12 55/107/12
f 71/131/12 59/132/12 55/107/12
f 59/132/12 71/131/12 72/133/12
f 59/132/12 72/133/12 75/134/12
f 75/134/12 66/135/12 59/132/12
usemtl metalDark.002
f 13/19/9 8/15/9 22/26/9
f 8/15/9 32/76/9 22/26/9
f 8/15/9 31/35/9 32/76/9
f 11/16/9 12/18/9 30/36/9
f 12/18/9 29/34/9 30/36/9
f 12/18/9 15/77/9 29/34/9
f 15/77/9 28/33/9 29/34/9
f 16/78/9 27/32/9 28/33/9
f 17/79/9 26/31/9 27/32/9
f 19/21/9 23/27/9 24/30/9
f 19/21/9 20/23/9 23/27/9
f 36/40/12 35/39/11 54/91/30
f 54/91/30 51/75/27 36/40/12
f 22/26/9 14/25/9 13/19/9
f 8/15/9 10/14/9 31/35/9
f 10/14/9 11/16/9 31/35/9
f 11/16/9 30/36/9 31/35/9
f 15/77/9 16/78/9 28/33/9
f 16/78/9 17/79/9 27/32/9
f 17/79/9 18/22/9 26/31/9
f 18/22/9 25/29/9 26/31/9
f 18/22/9 19/21/9 25/29/9
f 19/21/9 24/30/9 25/29/9
f 20/23/9 21/24/9 23/27/9
usemtl glass.001
f 73/130/12 74/126/12 76/129/12
f 76/129/12 71/131/12 73/130/12
f 76/129/12 75/134/12 71/131/12
f 75/134/12 72/133/12 71/131/12
