# Blender 4.3.2
# www.blender.org
mtllib structure-yellow-tall.mtl
o structure-yellow-tall.003
v 0.075000 -0.500000 -2.000000
v 0.075000 -0.350000 -2.000000
v -0.075000 -0.500000 -2.000000
v 0.037500 -0.350000 -2.000000
v -0.037500 -0.350000 -2.000000
v -0.075000 -0.350000 -2.000000
v 0.075000 0.500000 -0.150000
v 0.075000 0.350000 -0.150000
v -0.075000 0.500000 -0.150000
v -0.075000 0.350000 -0.150000
v -0.075000 -0.500000 -0.150000
v -0.075000 -0.350000 -0.150000
v 0.075000 0.350000 -2.000000
v 0.075000 0.500000 -2.000000
v 0.075000 -0.500000 -0.150000
v 0.075000 -0.350000 -0.150000
v -0.075000 0.500000 -2.000000
v -0.075000 0.350000 -2.000000
v -0.037500 0.350000 -2.000000
v 0.037500 0.350000 -2.000000
v -0.075000 0.350000 -0.075000
v 0.075000 0.350000 -0.075000
v -0.037500 0.387500 -0.150000
v 0.037500 0.387500 -0.150000
v -0.075000 0.350000 0.000000
v -0.075000 0.500000 0.000000
v -0.075000 0.500000 -0.075000
v 0.075000 0.350000 0.000000
v 0.075000 0.500000 -0.075000
v 0.075000 0.500000 0.000000
v 0.037500 0.462500 -0.150000
v -0.037500 0.462500 -0.150000
v -0.075000 -0.500000 -0.075000
v 0.075000 -0.500000 -0.075000
v -0.037500 -0.462500 -0.150000
v 0.037500 -0.462500 -0.150000
v 0.075000 -0.350000 -0.075000
v -0.075000 -0.350000 -0.075000
v 0.037500 -0.387500 -0.150000
v -0.037500 -0.387500 -0.150000
v 0.075000 -0.350000 0.000000
v -0.075000 -0.350000 0.000000
v 0.075000 -0.500000 0.000000
v -0.075000 -0.500000 0.000000
v 0.037500 -0.350000 -1.600000
v 0.037500 -0.350000 -1.450000
v 0.037500 0.350000 -1.600000
v 0.037500 0.350000 -1.450000
v -0.037500 -0.350000 -1.600000
v -0.037500 0.350000 -1.600000
v -0.037500 0.350000 -1.450000
v -0.037500 -0.350000 -1.450000
v 0.037500 -0.350000 -0.700000
v 0.037500 -0.350000 -0.550000
v 0.037500 0.350000 -0.700000
v 0.037500 0.350000 -0.550000
v -0.037500 -0.350000 -0.700000
v -0.037500 0.350000 -0.700000
v -0.037500 0.350000 -0.550000
v -0.037500 -0.350000 -0.550000
vn -0.2619 -0.2619 -0.9289
vn 0.5773 0.5773 -0.5774
vn -0.1130 -0.7026 -0.7026
vn -0.0000 -0.0000 -1.0000
vn -0.5774 0.5774 -0.5774
vn -0.1415 0.1415 0.9798
vn 0.5773 -0.5773 0.5774
vn -0.2081 0.6916 0.6916
vn -0.5773 0.5773 0.5774
vn 0.5774 -0.5773 -0.5773
vn 0.7061 0.7061 0.0534
vn -0.1379 -0.7003 0.7004
vn -0.7026 -0.7026 -0.1130
vn 0.5774 0.5774 0.5774
vn -0.6982 0.6982 -0.1581
vn -0.0000 -1.0000 -0.0000
vn -0.5774 -0.5774 -0.5773
vn -0.5774 -0.5774 0.5774
vn -0.5774 -0.5774 -0.5774
vn 0.4138 -0.8465 -0.3350
vn -0.5915 -0.5915 -0.5479
vn 0.5773 -0.5774 -0.5774
vn -0.8497 0.4061 -0.3363
vn 0.8733 0.4660 -0.1420
vn 0.4881 -0.6967 -0.5256
vn 0.5774 0.5773 -0.5774
vn -0.4061 0.8497 -0.3363
vn 0.5878 0.5877 -0.5560
vn -0.4734 -0.8686 -0.1462
vn 0.4110 0.8219 -0.3944
vn 0.7071 -0.0000 0.7071
vn 0.3536 -0.8660 -0.3535
vn -0.5290 -0.8123 -0.2456
vn -0.2503 0.8209 -0.5133
vn -0.7071 -0.0000 0.7071
vn -0.0000 1.0000 -0.0000
vt 0.343750 0.225000
vt 0.343750 0.040000
vt 0.093750 0.225000
vt 0.093750 0.125000
vt 0.093750 0.025000
vt 0.218750 0.475000
vt 0.218750 0.275000
s 1
usemtl colormap.017
f 3/1/1 2/1/2 1/1/3
f 2/1/2 3/1/1 4/1/4
f 4/1/4 3/1/1 5/1/4
f 5/1/4 3/1/1 6/1/5
f 9/2/6 8/2/7 7/2/8
f 3/1/1 12/2/9 6/1/5
f 13/1/10 7/2/8 8/2/7
f 7/2/8 13/1/10 14/1/11
f 3/1/1 15/2/12 11/2/13
f 15/2/12 3/1/1 1/1/3
f 12/2/9 15/2/12 16/2/14
f 15/2/12 12/2/9 11/2/13
f 2/1/2 12/2/9 16/2/14
f 9/2/6 14/1/11 17/1/15
s 0
f 13/1/16 18/1/16 19/1/16
f 13/1/16 19/1/16 20/1/16
s 1
f 9/2/6 18/1/17 10/2/18
f 18/1/17 9/2/6 17/1/15
f 20/1/4 14/1/11 13/1/10
f 14/1/11 20/1/4 17/1/15
f 17/1/15 20/1/4 19/1/4
f 17/1/15 19/1/4 18/1/17
f 23/3/19 22/4/20 21/4/21
f 22/4/20 23/3/19 24/3/22
f 21/4/21 26/5/9 27/4/23
f 29/4/24 28/5/7 22/4/20
f 28/5/7 26/5/9 25/5/18
f 34/4/25 35/3/19 36/3/22
f 39/3/26 38/4/27 37/4/28
f 38/4/27 39/3/26 40/3/5
f 37/4/28 42/5/9 41/5/14
f 42/5/9 37/4/28 38/4/27
f 36/3/22 37/4/28 34/4/25
f 37/4/28 36/3/22 39/3/26
f 33/4/29 43/5/7 44/5/18
f 43/5/7 33/4/29 34/4/25
f 42/5/9 43/5/7 41/5/14
f 43/5/7 42/5/9 44/5/18
f 47/6/30 46/7/31 45/6/32
f 49/6/33 47/6/30 45/6/32
f 47/6/30 49/6/33 50/6/34
f 51/7/35 46/7/31 48/7/31
f 46/7/31 51/7/35 52/7/35
f 52/7/35 50/6/34 49/6/33
f 50/6/34 52/7/35 51/7/35
f 55/6/30 54/7/31 53/6/32
f 54/7/31 55/6/30 56/7/31
f 57/6/33 55/6/30 53/6/32
f 55/6/30 57/6/33 58/6/34
f 59/7/35 54/7/31 56/7/31
f 54/7/31 59/7/35 60/7/35
f 60/7/35 58/6/34 57/6/33
f 58/6/34 60/7/35 59/7/35
f 8/2/7 9/2/6 10/2/18
f 12/2/9 3/1/1 11/2/13
f 12/2/9 2/1/2 6/1/5
s 0
f 6/1/36 2/1/36 4/1/36
f 6/1/36 4/1/36 5/1/36
s 1
f 14/1/11 9/2/6 7/2/8
f 18/1/17 8/2/7 10/2/18
f 8/2/7 18/1/17 13/1/10
f 2/1/2 15/2/12 1/1/3
f 15/2/12 2/1/2 16/2/14
f 26/5/9 21/4/21 25/5/18
f 28/5/7 29/4/24 30/5/14
f 29/4/24 26/5/9 30/5/14
f 26/5/9 29/4/24 27/4/23
f 24/3/22 29/4/24 22/4/20
f 29/4/24 24/3/22 31/3/26
f 31/3/26 27/4/23 29/4/24
f 27/4/23 31/3/26 32/3/5
f 21/4/21 28/5/7 25/5/18
f 28/5/7 21/4/21 22/4/20
f 27/4/23 23/3/19 21/4/21
f 23/3/19 27/4/23 32/3/5
f 26/5/9 28/5/7 30/5/14
f 35/3/19 34/4/25 33/4/29
f 38/4/27 35/3/19 33/4/29
f 35/3/19 38/4/27 40/3/5
f 37/4/28 43/5/7 34/4/25
f 43/5/7 37/4/28 41/5/14
f 42/5/9 33/4/29 44/5/18
f 33/4/29 42/5/9 38/4/27
f 46/7/31 47/6/30 48/7/31
