# Blender 4.3.2
# www.blender.org
mtllib bottle-oil.mtl
o bottle-oil.006
v -0.035000 -0.035000 -0.450000
v -0.029050 -0.029050 -0.480000
v -0.035000 0.035000 -0.450000
v -0.029050 0.029050 -0.480000
v 0.035000 -0.035000 -0.450000
v 0.029050 -0.029050 -0.480000
v 0.035000 0.035000 -0.450000
v 0.029050 0.029050 -0.480000
v 0.070000 -0.070000 -0.420000
v -0.070000 -0.070000 -0.420000
v -0.070000 -0.070000 -0.030000
v 0.070000 -0.070000 -0.030000
v 0.070000 0.070000 -0.030000
v -0.070000 0.070000 -0.030000
v 0.070000 0.070000 -0.420000
v -0.070000 0.070000 -0.420000
v 0.057400 0.057400 -0.000000
v 0.057400 -0.057400 -0.000000
v -0.057400 0.057400 -0.000000
v -0.057400 -0.057400 -0.000000
v 0.070000 -0.043663 -0.392237
v 0.070000 -0.043663 -0.127763
v 0.070000 0.043663 -0.392237
v 0.070000 0.043663 -0.127763
v 0.039050 -0.029050 -0.510000
v 0.039050 -0.029050 -0.480000
v 0.039050 0.029050 -0.510000
v 0.039050 0.029050 -0.480000
v -0.029050 -0.039050 -0.480000
v 0.029050 -0.039050 -0.480000
v -0.029050 -0.039050 -0.510000
v 0.029050 -0.039050 -0.510000
v 0.029050 0.039050 -0.480000
v -0.029050 0.039050 -0.480000
v 0.029050 0.039050 -0.510000
v -0.029050 0.039050 -0.510000
v -0.039050 -0.029050 -0.480000
v -0.039050 -0.029050 -0.510000
v -0.039050 0.029050 -0.480000
v -0.039050 0.029050 -0.510000
v 0.026642 -0.026642 -0.578800
v 0.021485 -0.021485 -0.561600
v 0.026642 0.026642 -0.578800
v 0.021485 0.021485 -0.561600
v -0.026642 -0.026642 -0.578800
v -0.026642 0.026642 -0.578800
v -0.021485 -0.021485 -0.561600
v -0.021485 0.021485 -0.561600
v -0.024983 -0.024983 -0.510000
v -0.024983 0.024983 -0.510000
v 0.026642 -0.026642 -0.621800
v 0.026642 0.026642 -0.621800
v -0.026642 0.026642 -0.621800
v -0.026642 -0.026642 -0.621800
v 0.024983 -0.024983 -0.510000
v 0.024983 0.024983 -0.510000
vn -0.4729 0.1609 -0.8663
vn -0.6808 -0.6808 -0.2701
vn -0.5729 -0.1771 -0.8003
vn -0.6808 0.6808 -0.2701
vn 0.1602 -0.5745 -0.8027
vn 0.6808 -0.6808 -0.2701
vn 0.4752 0.1739 -0.8625
vn 0.6808 0.6808 -0.2701
vn -0.6434 -0.6434 -0.4148
vn 0.6434 -0.6434 -0.4148
vn 0.4922 -0.8223 0.2856
vn -0.7067 -0.7067 -0.0358
vn 0.6434 0.6434 -0.4148
vn -0.4756 0.8309 0.2886
vn 0.7067 0.7067 -0.0322
vn -0.6434 0.6434 -0.4148
vn -0.4494 0.4494 0.7721
vn 0.4494 -0.4494 0.7721
vn 0.4494 0.4494 0.7721
vn -0.4494 -0.4494 0.7721
vn 1.0000 -0.0000 -0.0000
vn 0.8364 -0.0158 -0.5479
vn 0.8587 -0.3557 0.3690
vn 0.7482 0.0891 -0.6574
vn 0.7508 -0.0315 0.6597
vn -0.0159 -0.8288 -0.5593
vn -0.0103 -0.7511 0.6601
vn -0.3414 -0.8243 0.4516
vn 0.3414 -0.8243 -0.4516
vn 0.0547 0.8182 -0.5723
vn -0.0320 0.7508 0.6598
vn 0.3508 0.8470 0.3994
vn -0.3508 0.8470 -0.3994
vn -0.8270 -0.0233 -0.5618
vn -0.8724 0.3614 0.3291
vn -0.7508 -0.0315 -0.6597
vn -0.7685 -0.5448 0.3356
vn 0.7772 0.5515 0.3028
vn 0.7189 -0.6934 -0.0486
vn 0.8101 -0.5459 0.2140
vn 0.7588 0.6508 -0.0260
vn -0.8300 -0.5528 0.0739
vn -0.8131 0.5410 0.2148
vn -0.6558 -0.6558 0.3740
vn -0.8341 0.5319 0.1464
vn 0.5773 0.5773 -0.5774
vn -0.5773 -0.5773 -0.5774
vn 0.5774 -0.5774 -0.5774
vn 0.7039 0.7039 -0.0954
vn 0.7039 -0.7039 -0.0954
vn -0.7039 0.7039 -0.0954
vn -0.7039 -0.7039 -0.0954
vn -0.5774 0.5774 -0.5774
vt 0.593750 0.462500
vt 0.593750 0.475000
vt 0.593750 0.450000
vt 0.593750 0.287500
vt 0.593750 0.275000
vt 0.593750 0.438432
vt 0.593750 0.328234
vt 0.593750 0.425000
vt 0.593750 0.325000
vt 0.468750 0.325000
vt 0.093750 0.386538
vt 0.093750 0.371154
vt 0.093750 0.425000
vt 0.093750 0.325000
s 1
usemtl colormap.022
f 3/1/1 2/2/2 1/1/3
f 2/2/2 3/1/1 4/2/4
f 2/2/2 5/1/5 1/1/3
f 5/1/5 2/2/2 6/2/6
f 7/1/7 6/2/6 8/2/8
f 3/1/1 8/2/8 4/2/4
f 10/3/9 5/1/5 9/3/10
f 10/3/9 12/4/11 11/4/12
f 12/4/11 10/3/9 9/3/10
f 15/3/13 14/4/14 13/4/15
f 14/4/14 15/3/13 16/3/16
f 14/4/14 10/3/9 11/4/12
f 10/3/9 14/4/14 16/3/16
f 7/1/7 16/3/16 15/3/13
f 10/3/9 3/1/1 1/1/3
f 3/1/1 10/3/9 16/3/16
f 19/5/17 18/5/18 17/5/19
f 18/5/18 19/5/17 20/5/20
f 11/4/12 18/5/18 20/5/20
f 18/5/18 11/4/12 12/4/11
f 13/4/15 19/5/17 17/5/19
f 14/4/14 20/5/20 19/5/17
f 21/6/21 15/3/13 23/6/21
f 13/4/15 24/7/21 15/3/13
f 27/8/22 26/9/23 25/8/24
f 26/9/23 27/8/22 28/9/25
f 31/8/26 30/9/27 29/9/28
f 30/9/27 31/8/26 32/8/29
f 35/8/30 34/9/31 33/9/32
f 34/9/31 35/8/30 36/8/33
f 38/8/34 39/9/35 40/8/36
f 36/8/33 39/9/35 34/9/31
f 37/9/37 31/8/26 29/9/28
f 31/8/26 37/9/37 38/8/34
f 25/8/24 30/9/27 32/8/29
f 30/9/27 25/8/24 26/9/23
f 33/9/32 27/8/22 35/8/30
f 33/9/32 26/9/23 28/9/25
f 26/9/23 33/9/32 30/9/27
f 30/9/27 33/9/32 34/9/31
f 30/9/27 34/9/31 29/9/28
f 29/9/28 39/9/35 37/9/37
f 35/8/30 32/8/29 31/8/26
f 35/8/30 31/8/26 36/8/33
f 36/8/33 38/8/34 40/8/36
f 22/10/21 23/10/21 24/10/21
f 23/10/21 22/10/21 21/10/21
f 43/11/38 42/12/39 41/11/40
f 42/12/39 43/11/38 44/12/41
f 47/12/42 46/11/43 45/11/44
f 46/11/43 47/12/42 48/12/45
f 41/11/40 52/13/46 43/11/38
f 45/11/44 42/12/39 47/12/42
f 42/12/39 45/11/44 41/11/40
f 54/13/47 41/11/40 45/11/44
f 41/11/40 54/13/47 51/13/48
f 42/12/39 56/14/49 55/14/50
f 56/14/49 42/12/39 44/12/41
f 43/11/38 48/12/45 44/12/41
f 48/12/45 43/11/38 46/11/43
f 44/12/41 50/14/51 56/14/49
f 50/14/51 44/12/41 48/12/45
f 47/12/42 55/14/50 49/14/52
f 55/14/50 47/12/42 42/12/39
f 46/11/43 54/13/47 45/11/44
f 54/13/47 46/11/43 53/13/53
f 54/13/47 52/13/46 51/13/48
f 52/13/46 54/13/47 53/13/53
f 6/2/6 7/1/7 5/1/5
f 8/2/8 3/1/1 7/1/7
f 5/1/5 10/3/9 1/1/3
f 16/3/16 7/1/7 3/1/1
f 5/1/5 15/3/13 9/3/10
f 15/3/13 5/1/5 7/1/7
f 19/5/17 13/4/15 14/4/14
f 20/5/20 14/4/14 11/4/12
f 13/4/15 18/5/18 12/4/11
f 18/5/18 13/4/15 17/5/19
f 9/3/10 21/6/21 12/4/11
f 21/6/21 9/3/10 15/3/13
f 22/7/21 12/4/11 21/6/21
f 12/4/11 22/7/21 13/4/15
f 23/6/21 15/3/13 24/7/21
f 13/4/15 22/7/21 24/7/21
f 39/9/35 38/8/34 37/9/37
f 39/9/35 36/8/33 40/8/36
f 27/8/22 33/9/32 28/9/25
f 29/9/28 34/9/31 39/9/35
f 32/8/29 27/8/22 25/8/24
f 27/8/22 32/8/29 35/8/30
f 36/8/33 31/8/26 38/8/34
f 50/14/51 47/12/42 49/14/52
f 47/12/42 50/14/51 48/12/45
f 52/13/46 41/11/40 51/13/48
f 52/13/46 46/11/43 43/11/38
f 46/11/43 52/13/46 53/13/53
