# Blender 4.3.2
# www.blender.org
mtllib kitchenCoffeeMachine.001.mtl
o kitchenCoffeeMachine
v 0.000000 0.082073 0.000000
v -0.047385 0.000000 0.000000
v -0.047385 0.164146 0.000000
v -0.142155 0.164146 0.000000
v -0.142155 0.000000 0.000000
v -0.189540 0.082073 0.000000
v -0.142155 0.228467 0.000000
v -0.047385 0.228467 0.000000
v -0.006766 0.082073 -0.011700
v -0.050768 0.158287 -0.011700
v -0.050768 0.005860 -0.011700
v -0.138772 0.005860 -0.011700
v -0.138772 0.158287 -0.011700
v -0.182774 0.082073 -0.011700
v -0.135995 0.010670 -0.035100
v -0.177220 0.082073 -0.035100
v -0.135995 0.153477 -0.035100
v -0.053545 0.010670 -0.035100
v -0.012320 0.082073 -0.035100
v -0.053545 0.153477 -0.035100
v -0.142155 0.164146 -0.020013
v -0.142155 0.164146 -0.045622
v -0.142155 0.181667 -0.058500
v -0.142155 0.164146 -0.125706
v -0.142155 0.228467 -0.058500
v -0.142155 0.181667 -0.177489
v -0.142155 0.070517 -0.177489
v -0.142155 0.058846 -0.141080
v -0.142155 0.058846 -0.125706
v -0.142155 0.047146 -0.156453
v -0.142155 0.047146 -0.141080
v -0.047385 0.164146 -0.045622
v -0.047385 0.164146 -0.125706
v -0.047385 0.164146 -0.020013
v -0.047385 0.228467 -0.058500
v -0.047385 0.181667 -0.058500
v -0.047385 0.058846 -0.125706
v -0.047385 0.047146 -0.156453
v -0.047385 0.047146 -0.141080
v -0.047385 0.070517 -0.177489
v -0.047385 0.058846 -0.141080
v -0.047385 0.181667 -0.177489
v -0.062385 0.181667 -0.177489
v -0.127155 0.181667 -0.177489
v -0.047385 0.240167 -0.058500
v -0.142155 0.240167 -0.058500
v -0.047385 0.240167 -0.177489
v -0.142155 0.240167 -0.177489
v -0.064770 0.076650 -0.090100
v -0.074057 0.076650 -0.090100
v -0.079770 0.050670 -0.090100
v -0.084414 0.058712 -0.090100
v -0.109770 0.050670 -0.090100
v -0.105126 0.058712 -0.090100
v -0.115483 0.076650 -0.090100
v -0.124770 0.076650 -0.090100
v -0.079770 0.102631 -0.090100
v -0.084414 0.094588 -0.090100
v -0.109770 0.102631 -0.090100
v -0.105126 0.094588 -0.090100
v -0.079770 0.050670 -0.035100
v -0.074444 0.059894 -0.079448
v -0.070096 0.067426 -0.079448
v -0.070096 0.067426 -0.045752
v -0.074444 0.059894 -0.045752
v -0.064770 0.076650 -0.035100
v -0.109770 0.050670 -0.035100
v -0.124770 0.076650 -0.035100
v -0.105126 0.058712 -0.075100
v -0.115483 0.076650 -0.075100
v -0.079770 0.102631 -0.035100
v -0.105126 0.094588 -0.075100
v -0.057105 0.059926 -0.045752
v -0.061454 0.052394 -0.045752
v -0.109770 0.102631 -0.035100
v -0.057105 0.059926 -0.079448
v -0.084414 0.058712 -0.075100
v -0.074057 0.076650 -0.075100
v -0.061454 0.052394 -0.079448
v -0.084414 0.094588 -0.075100
vn 0.5190 -0.7419 0.4244
vn 0.8945 0.1178 0.4312
vn 0.4949 0.3328 0.8027
vn -0.5703 0.3325 0.7511
vn -0.3848 -0.8198 0.4240
vn -0.8960 -0.1108 0.4300
vn -0.5773 0.5774 0.5774
vn -0.7071 -0.0000 0.7071
vn 0.7071 -0.0000 0.7071
vn 0.5774 0.5773 0.5773
vn -0.0000 -0.0000 -1.0000
vn 0.9232 -0.0000 -0.3844
vn 0.7850 0.5063 -0.3569
vn -0.3083 -0.7911 -0.5283
vn 0.5432 -0.6765 -0.4972
vn -0.3744 -0.6485 -0.6628
vn -0.4928 -0.8535 -0.1695
vn -0.9853 -0.0145 -0.1700
vn -0.7436 -0.0320 -0.6679
vn -0.8579 0.4913 -0.1506
vn -0.4776 0.2701 -0.8360
vn 0.3864 -0.6008 -0.6998
vn 0.7021 -0.0378 -0.7110
vn 0.9858 -0.0000 -0.1677
vn 0.5043 0.2998 -0.8098
vn 0.8562 0.4943 -0.1505
vn 0.0035 0.9886 -0.1506
vn -0.0000 0.9886 -0.1505
vn -0.0513 0.9794 -0.1954
vn -0.8944 -0.4472 -0.0000
vn -1.0000 -0.0000 -0.0000
vn -0.7071 0.7071 -0.0000
vn -0.9045 -0.3015 0.3015
vn -0.6422 -0.3148 -0.6989
vn -0.6492 -0.7052 -0.2848
vn 0.8944 -0.4472 -0.0000
vn -0.0000 -1.0000 -0.0000
vn 0.7071 0.7071 -0.0000
vn 0.8660 -0.5000 -0.0000
vn 0.4389 -0.8028 -0.4036
vn 0.4629 -0.7669 -0.4445
vn -0.4654 -0.6847 -0.5608
vn -0.5260 -0.7764 -0.3473
vn -0.8660 -0.5000 -0.0000
vn -0.0000 -0.0000 1.0000
vn 0.6476 -0.2516 -0.7192
vn 0.9045 -0.3015 0.3015
vn 0.5773 -0.5773 0.5774
vn 0.7071 -0.0000 -0.7071
vn 1.0000 -0.0000 -0.0000
vn 0.5455 -0.7657 -0.3410
vn -0.5774 -0.5774 0.5774
vn 0.5774 -0.5773 0.5774
vn 0.4801 -0.8606 -0.1700
vn 0.5773 0.5774 -0.5773
vn -0.5774 0.5773 -0.5774
vn -0.5773 0.5774 0.5773
vn 0.8944 -0.0000 0.4472
vn 0.5774 0.5774 0.5774
vn -0.8944 -0.0000 0.4472
vn -0.7071 -0.0000 -0.7071
vn -0.8997 -0.1028 -0.4242
vn -0.8120 0.4688 -0.3478
vn 0.0112 0.9373 -0.3483
vn -0.0000 0.9376 -0.3478
vn -0.1085 0.8925 -0.4379
vn 0.8660 0.5000 -0.0000
vn 0.5000 0.8660 -0.0000
vn -0.0000 1.0000 -0.0000
vn -0.8660 0.5000 -0.0000
vn -0.5000 -0.8660 -0.0000
vt -2.362205 0.000000
vt 0.000000 4.091459
vt -2.362205 8.182918
vt -7.086614 8.182918
vt -7.086614 0.000000
vt -9.448819 4.091459
vt -7.086614 11.389380
vt -2.362205 11.389380
vt 2.530854 7.890808
vt 0.337299 4.091459
vt 2.530854 0.292110
vt 6.917964 0.292110
vt 6.917964 7.890808
vt 9.111520 4.091459
vt -3.543307 -0.711538
vt -3.711957 0.128301
vt -8.099067 0.128301
vt -8.267716 -0.711538
vt 2.362205 -0.000000
vt 7.086614 -0.000000
vt 6.917964 0.839839
vt 2.530854 0.839839
vt 1.012453 1.551377
vt -3.374657 1.551377
vt -3.543307 0.711538
vt 3.850394 1.491550
vt 3.711957 -0.101403
vt 8.099067 -0.101403
vt 7.960630 1.491550
vt -0.874016 0.875681
vt -1.012453 -0.717272
vt 3.374657 -0.717272
vt 3.236220 0.875681
vt 0.874016 2.723287
vt -3.236220 2.723287
vt -3.374657 1.130334
vt -7.960630 2.107419
vt -8.099067 0.514466
vt -3.711957 0.514466
vt -6.917964 -0.409337
vt -2.530854 -0.409337
vt -2.669291 1.183616
vt -6.779528 1.183616
vt 11.389380 0.000000
vt 8.182918 3.070323
vt 8.182918 1.346854
vt 9.056342 3.937008
vt 11.389380 3.937008
vt 2.933573 9.494573
vt 3.515368 11.944880
vt 2.350313 10.529190
vt 2.362205 3.070323
vt 7.086614 3.070323
vt 7.086614 8.459955
vt 2.362205 1.346854
vt 7.086614 1.346854
vt -2.362205 3.937008
vt -7.086614 3.937008
vt -5.568213 0.787402
vt -5.291338 2.362205
vt -5.905512 3.070323
vt -5.905512 -0.000000
vt 10.629920 3.070323
vt 10.015750 2.362205
vt 10.292620 0.787402
vt 2.669291 6.483781
vt 6.779528 6.483781
vt 7.086614 7.369410
vt 2.362205 7.369410
vt -2.362205 9.056342
vt -3.515368 11.944880
vt -8.182918 8.459955
vt -2.933573 8.459955
vt -9.056342 11.944880
vt -8.182918 0.000000
vt -8.182918 1.346854
vt -9.056342 3.937008
vt -11.389380 0.000000
vt -11.389380 3.937008
vt 2.362205 9.623573
vt 7.086614 9.623573
vt 7.086614 11.457020
vt 2.362205 8.459955
vt 7.086614 9.494573
vt 2.362205 9.494573
vt -7.086614 2.933573
vt -7.086614 2.350313
vt -2.362205 2.350313
vt 6.779528 2.415353
vt 2.669291 2.415353
vt 2.530854 0.822400
vt 2.362205 9.056342
vt 2.362205 3.515368
vt 7.086614 3.515368
vt 3.109974 9.056342
vt 2.669291 0.531890
vt 6.779528 7.651028
vt 2.669291 7.651028
vt 6.779528 0.531890
vt 8.834645 4.091459
vt -2.362205 11.944880
vt -7.086614 11.944880
vt -2.362205 11.972640
vt -7.086614 11.972640
vt -11.972640 11.944880
vt -11.972640 3.937008
vt 11.972640 11.944880
vt 9.056342 11.944880
vt 2.362205 11.972640
vt 7.086614 11.972640
vt 3.711957 -1.294775
vt 3.543307 -2.134614
vt 8.267716 -2.134614
vt 8.099067 -1.294775
vt -1.012453 -2.717851
vt -1.181102 -3.557690
vt 3.543307 -3.557690
vt 3.374657 -2.717851
vt 1.181102 0.711538
vt -7.086614 -2.846152
vt -2.362205 -2.846152
vt -2.530854 -2.006313
vt -6.917964 -2.006313
vt 1.012453 1.130334
vt -3.850394 2.107419
vt 8.182918 0.000000
vt 8.182918 8.459955
vt 2.933573 8.459955
vt 2.350313 9.494573
vt 2.362205 0.000000
vt 7.086614 0.000000
vt -5.905512 1.346854
vt 10.629920 -0.000000
vt 10.629920 1.346854
vt -7.086614 9.056342
vt -2.362205 2.933573
vt -2.350313 9.494573
vt -2.350313 10.529190
vt -2.933573 9.494573
vt -8.182918 3.070323
vt 2.362205 11.457020
vt 7.086614 10.529190
vt 2.362205 10.529190
vt 6.917964 0.822400
vt 6.338844 9.056342
vt 7.086614 9.056342
vt 0.614173 4.091459
vt 11.972640 3.937008
vt -0.664586 0.000000
vt -1.030224 0.000000
vt -0.439673 -1.022865
vt -0.256854 -0.706213
vt 0.741430 -1.022865
vt 0.558611 -0.706213
vt 0.966344 0.000000
vt 1.331981 0.000000
vt -0.439673 1.022865
vt -0.256854 0.706213
vt 0.741430 1.022865
vt 0.558611 0.706213
vt 0.246640 1.746004
vt 0.665990 0.000000
vt 0.665990 2.165354
vt -0.515112 2.165354
vt -0.095762 1.746004
vt -0.095762 0.419350
vt 0.246640 0.419350
vt -0.515112 0.000000
vt 0.332293 1.574803
vt 0.332293 2.165354
vt -0.483172 2.165354
vt -0.483172 1.574803
vt 0.515112 0.000000
vt 0.515112 2.165354
vt -0.665990 2.165354
vt -0.665990 0.000000
vt 0.483172 1.574803
vt 0.483172 2.165354
vt -0.332293 2.165354
vt -0.332293 1.574803
vt 1.160780 -0.954972
vt 1.331981 -0.658444
vt 0.820549 -0.363168
vt 0.649348 -0.659697
vt 0.439673 -1.022865
vt 1.030224 0.000000
vt 0.439673 1.022865
vt -0.741430 1.022865
vt -0.741430 -1.022865
vt -1.331981 0.000000
vt 0.892200 0.419350
vt 1.482751 0.419350
vt 1.482751 1.746004
vt 0.892200 1.746004
vt -0.558611 1.574803
vt 0.256854 1.574803
vt 0.256854 2.165354
vt -0.558611 2.165354
vt -0.820549 -0.363168
vt -1.331981 -0.658444
vt -1.160780 -0.954972
vt -0.649348 -0.659697
vt -0.741430 0.000000
vt 0.439673 0.000000
vt 0.439673 2.165354
vt -0.741430 2.165354
vt -1.482751 0.419350
vt -0.892200 0.419350
vt -0.892200 1.746004
vt -1.482751 1.746004
vt -0.439673 0.000000
vt 0.741430 0.000000
vt 0.741430 2.165354
vt -0.439673 2.165354
vt -0.256854 1.574803
vt 0.558611 1.574803
vt 0.558611 2.165354
vt -0.256854 2.165354
s 1
usemtl metalMedium.004
f 2/1/1 1/2/2 3/3/3
f 3/3/3 4/4/4 2/1/1
f 4/4/4 5/5/5 2/1/1
f 4/4/4 6/6/6 5/5/5
f 7/7/7 4/4/8 3/3/9
f 3/3/9 8/8/10 7/7/7
f 10/9/11 9/10/11 11/11/11
f 11/11/11 12/12/11 10/9/11
f 12/12/11 13/13/11 10/9/11
f 12/12/11 14/14/11 13/13/11
f 1/15/2 9/16/12 10/17/13
f 10/17/13 3/18/3 1/15/2
f 2/19/1 5/20/5 12/21/14
f 12/21/14 11/22/15 2/19/1
f 11/23/15 9/24/12 1/25/2
f 15/26/16 12/27/17 14/28/18
f 14/28/18 16/29/19 15/26/16
f 16/30/19 14/31/18 13/32/20
f 13/32/20 17/33/21 16/30/19
f 18/34/22 19/35/23 9/36/24
f 20/37/25 10/38/26 9/39/24
f 13/40/27 10/41/28 20/42/29
f 20/42/29 17/43/28 13/40/27
f 7/44/7 22/45/30 21/46/31
f 7/44/7 23/47/31 22/45/30
f 7/44/7 25/48/32 23/47/31
f 28/49/33 27/50/34 30/51/35
f 32/52/36 22/53/30 24/54/33
f 22/53/37 32/52/37 34/55/37
f 34/55/37 21/56/37 22/53/37
f 35/57/38 25/58/32 7/5/7
f 10/59/39 20/60/40 32/61/41
f 32/61/41 3/62/39 10/59/39
f 22/63/42 17/64/43 13/65/44
f 20/66/40 17/67/43 22/68/42
f 22/68/42 32/69/41 20/66/40
f 36/70/45 35/8/45 25/7/45
f 40/71/46 33/72/47 37/73/48
f 42/74/49 3/75/9 34/76/50
f 36/77/50 8/78/10 3/75/9
f 36/77/50 35/79/38 8/78/10
f 38/80/51 30/81/35 27/82/34
f 37/83/48 29/54/52 28/84/33
f 28/84/33 41/85/47 37/83/48
f 28/86/33 31/87/52 39/88/53
f 15/89/16 18/90/22 11/91/54
f 42/92/49 40/93/46 27/94/34
f 27/94/34 43/95/11 42/92/49
f 12/111/14 5/112/5 6/113/6
f 6/113/6 14/114/62 12/111/14
f 14/115/62 6/116/6 4/117/4
f 4/117/4 13/118/63 14/115/62
f 1/25/2 2/119/1 11/23/15
f 4/120/64 3/121/65 10/122/66
f 10/122/66 13/123/65 4/120/64
f 9/36/24 11/124/54 18/34/22
f 9/39/24 19/125/23 20/37/25
f 21/46/31 4/126/8 7/44/7
f 23/47/31 24/127/33 22/45/30
f 24/127/33 23/47/31 26/108/61
f 24/127/33 26/108/61 27/50/34
f 24/127/33 27/50/34 28/49/33
f 28/49/33 29/128/52 24/127/33
f 30/51/35 31/129/52 28/49/33
f 24/54/33 33/83/47 32/52/36
f 21/56/37 34/55/37 3/130/37
f 3/130/37 4/131/37 21/56/37
f 7/5/7 8/1/10 35/57/38
s 0
f 32/61/39 34/132/39 3/62/39
s 1
f 13/65/44 4/133/44 22/63/42
s 0
f 4/133/44 21/134/44 22/63/44
s 1
f 25/7/45 23/135/45 36/70/45
f 37/136/48 33/3/47 24/4/33
f 24/4/33 29/86/52 37/136/48
f 39/137/53 38/138/51 40/71/46
f 40/71/46 41/139/47 39/137/53
f 40/71/46 37/73/48 41/139/47
f 40/71/46 42/74/49 33/72/47
f 42/74/49 32/140/36 33/72/47
f 42/74/49 34/76/50 32/140/36
f 42/74/49 36/77/50 3/75/9
f 27/82/34 40/141/46 38/80/51
f 39/85/53 31/84/52 30/142/35
f 30/142/35 38/143/51 39/85/53
f 39/88/53 41/136/47 28/86/33
f 11/91/54 12/144/17 15/89/16
f 27/94/34 44/145/11 43/95/11
f 27/94/34 26/146/61 44/145/11
usemtl metal.005
f 18/96/22 17/97/21 20/98/25
f 15/99/16 16/100/19 17/97/21
f 47/101/55 48/102/56 46/58/57
f 35/8/58 45/103/59 46/104/57
f 36/77/50 42/74/49 47/105/55
f 47/105/55 35/79/58 36/77/50
f 47/105/55 45/106/59 35/79/58
f 25/48/60 48/107/56 26/108/61
f 47/109/55 42/92/49 43/95/11
f 43/95/11 48/110/56 47/109/55
f 20/98/25 19/147/23 18/96/22
f 18/96/22 15/99/16 17/97/21
f 46/58/57 45/57/59 47/101/55
f 46/104/57 25/7/60 35/8/58
f 26/108/61 23/47/31 25/48/60
f 25/48/60 46/148/57 48/107/56
f 43/95/11 44/145/11 48/110/56
f 44/145/11 26/146/61 48/110/56
usemtl carpetWhite.003
f 50/149/11 49/150/11 51/151/11
f 51/151/11 52/152/11 50/149/11
f 51/151/11 53/153/11 52/152/11
f 53/153/11 54/154/11 52/152/11
f 53/153/11 55/155/11 54/154/11
f 53/153/11 56/156/11 55/155/11
f 57/157/11 49/150/11 50/149/11
f 50/149/11 58/158/11 57/157/11
f 58/158/11 59/159/11 57/157/11
f 55/155/11 56/156/11 59/159/11
f 58/158/11 60/160/11 59/159/11
f 60/160/11 55/155/11 59/159/11
f 62/161/39 61/162/39 51/163/39
f 51/163/39 49/164/39 62/161/39
f 49/164/39 63/165/39 62/161/39
f 49/164/39 64/166/39 63/165/39
f 61/162/39 62/161/39 65/167/39
f 65/167/39 66/168/39 61/162/39
f 65/167/39 64/166/39 66/168/39
f 64/166/39 49/164/39 66/168/39
f 53/164/44 67/168/44 68/162/44
f 68/162/44 56/163/44 53/164/44
f 69/169/67 54/170/67 55/171/67
f 55/171/67 70/172/67 69/169/67
f 66/173/67 49/174/67 57/175/67
f 57/175/67 71/176/67 66/173/67
f 70/177/39 55/178/39 60/179/39
f 60/179/39 72/180/39 70/177/39
f 74/181/45 73/182/45 64/183/45
f 64/183/45 65/184/45 74/181/45
f 61/185/45 66/186/45 71/187/45
f 71/187/45 75/188/45 61/185/45
f 75/188/45 67/189/45 61/185/45
f 75/188/45 68/190/45 67/189/45
f 64/191/68 73/192/68 76/193/68
f 76/193/68 63/194/68 64/191/68
f 69/195/69 77/196/69 52/197/69
f 52/197/69 54/198/69 69/195/69
f 52/171/70 77/172/70 78/169/70
f 78/169/70 50/170/70 52/171/70
f 63/199/11 76/200/11 79/201/11
f 79/201/11 62/202/11 63/199/11
f 75/203/69 71/204/69 57/205/69
f 57/205/69 59/206/69 75/203/69
f 74/167/39 79/161/39 76/165/39
f 76/165/39 73/166/39 74/167/39
f 56/175/70 68/176/70 75/173/70
f 75/173/70 59/174/70 56/175/70
f 80/158/11 78/149/11 77/152/11
f 77/152/11 72/160/11 80/158/11
f 77/152/11 69/154/11 72/160/11
f 69/154/11 70/155/11 72/160/11
f 74/207/71 65/208/71 62/209/71
f 62/209/71 79/210/71 74/207/71
f 50/179/44 78/180/44 80/177/44
f 80/177/44 58/178/44 50/179/44
f 61/211/37 67/212/37 53/213/37
f 53/213/37 51/214/37 61/211/37
f 80/215/37 72/216/37 60/217/37
f 60/217/37 58/218/37 80/215/37
