# Blender 4.3.2
# www.blender.org
mtllib rocks.mtl
o rocks.003
v 0.307767 0.421084 0.000000
v 0.362119 0.218239 0.000000
v 0.104923 0.475436 0.000000
v 0.213627 0.069747 0.000000
v -0.043570 0.326943 0.000000
v 0.010782 0.124099 0.000000
v 0.292868 0.236795 -0.297356
v 0.257072 0.370389 -0.297356
v 0.195071 0.138998 -0.297356
v 0.123479 0.406185 -0.297356
v 0.061478 0.174794 -0.297356
v 0.025681 0.308388 -0.297356
v 0.033056 0.146373 -0.091494
v -0.013143 0.318791 -0.091494
v 0.205474 0.100174 -0.091494
v 0.113076 0.445009 -0.091494
v 0.331692 0.226392 -0.091494
v 0.285493 0.398810 -0.091494
v 0.340350 0.141007 0.000000
v 0.340350 -0.158993 0.000000
v 0.080543 0.291007 0.000000
v 0.080543 -0.308993 0.000000
v -0.179265 0.141007 0.000000
v -0.179265 -0.158993 0.000000
v 0.251652 -0.107783 -0.212397
v 0.251652 0.089797 -0.212397
v 0.080543 -0.206573 -0.212397
v 0.080543 0.188587 -0.212397
v -0.090567 -0.107783 -0.212397
v -0.090567 0.089797 -0.212397
v -0.140294 -0.136493 -0.065353
v -0.140294 0.118507 -0.065353
v 0.080543 -0.263993 -0.065353
v 0.080543 0.246007 -0.065353
v 0.301379 -0.136493 -0.065353
v 0.301379 0.118507 -0.065353
v 0.428688 -0.191990 0.000000
v 0.384658 -0.412334 0.000000
v 0.259879 -0.043687 0.000000
v 0.171820 -0.484376 0.000000
v 0.047040 -0.115729 0.000000
v 0.003011 -0.336073 0.000000
v 0.327027 -0.361704 -0.451930
v 0.356025 -0.216585 -0.451930
v 0.186852 -0.409150 -0.451930
v 0.244847 -0.118913 -0.451930
v 0.075674 -0.311478 -0.451930
v 0.104672 -0.166360 -0.451930
v 0.034937 -0.325267 -0.139055
v 0.072362 -0.137975 -0.139055
v 0.178425 -0.451324 -0.139055
v 0.253274 -0.076739 -0.139055
v 0.359337 -0.390089 -0.139055
v 0.396762 -0.202796 -0.139055
v 0.081579 0.073994 -0.000000
v 0.112417 -0.224417 -0.000000
v -0.192271 0.196493 -0.000000
v -0.130595 -0.400329 -0.000000
v -0.435283 0.020581 -0.000000
v -0.404445 -0.277830 -0.000000
v 0.018925 -0.182596 -0.091331
v -0.001385 0.013937 -0.091331
v -0.141123 -0.298451 -0.091331
v -0.181743 0.094615 -0.091331
v -0.321481 -0.217773 -0.091331
v -0.341791 -0.021240 -0.091331
v -0.367994 -0.251443 -0.028102
v -0.394206 0.002206 -0.028102
v -0.135221 -0.355567 -0.028102
v -0.187645 0.151731 -0.028102
v 0.071340 -0.206042 -0.028102
v 0.045128 0.047607 -0.028102
vn -0.2266 0.8455 0.4835
vn 0.8455 -0.2266 0.4835
vn 0.6190 0.6190 0.4835
vn 0.2266 -0.8455 0.4835
vn -0.8455 0.2266 0.4835
vn -0.6190 -0.6190 0.4835
vn 0.1894 -0.7070 -0.6814
vn 0.5175 0.5175 -0.6814
vn 0.7070 -0.1894 -0.6814
vn -0.1894 0.7070 -0.6814
vn -0.5175 -0.5175 -0.6814
vn -0.7069 0.1894 -0.6814
vn -0.6386 -0.7310 -0.2404
vn 0.2538 -0.9472 -0.1959
vn -0.3147 0.9183 -0.2401
vn -0.9474 0.2538 -0.1950
vn 0.9472 -0.2538 -0.1959
vn 0.6380 0.7317 -0.2401
vn -0.0000 0.9257 0.3782
vn 0.8017 -0.4629 0.3782
vn 0.8017 0.4629 0.3782
vn -0.0000 -0.9257 0.3782
vn -0.8017 0.4629 0.3782
vn -0.8017 -0.4629 0.3782
vn -0.0000 0.6666 -0.7455
vn -0.5773 -0.3333 -0.7455
vn -0.5772 0.3333 -0.7455
vn -0.8120 -0.3337 -0.4787
vn -0.7974 0.3223 -0.5101
vn -0.0000 -0.9269 -0.3754
vn -0.1207 0.8698 -0.4785
vn 0.8136 -0.3304 -0.4785
vn 0.6929 0.5394 -0.4785
vn 0.5772 -0.3333 -0.7455
vn 0.5773 0.3333 -0.7455
vn -0.0000 -0.6666 -0.7455
vn 0.1674 0.8379 0.5196
vn 0.6419 -0.5639 0.5196
vn 0.8093 0.2739 0.5196
vn -0.1674 -0.8379 0.5196
vn -0.6419 0.5639 0.5196
vn -0.8093 -0.2739 0.5196
vn -0.1471 -0.7360 -0.6608
vn 0.7109 0.2406 -0.6608
vn 0.5639 -0.4954 -0.6608
vn 0.1471 0.7360 -0.6608
vn -0.7109 -0.2406 -0.6608
vn 0.7696 -0.6083 -0.1943
vn 0.9381 0.3175 -0.1386
vn -0.1506 -0.9752 -0.1622
vn 0.2086 0.9492 -0.2358
vn -0.7175 0.6553 -0.2362
vn -0.5638 0.4954 -0.6608
vn -0.9441 -0.2664 -0.1943
vn -0.1003 0.9707 0.2183
vn 0.8908 -0.3985 0.2183
vn 0.7905 0.5722 0.2183
vn 0.1003 -0.9707 0.2183
vn -0.8908 0.3985 0.2183
vn -0.7905 -0.5722 0.2183
vn 0.4086 0.2957 -0.8635
vn 0.0518 -0.5017 -0.8635
vn -0.0518 0.5017 -0.8635
vn -0.5821 -0.4213 -0.6955
vn -0.5639 0.0908 -0.8208
vn 0.0746 -0.7221 -0.6878
vn -0.2057 0.5583 -0.8037
vn 0.5864 -0.1010 -0.8037
vn 0.5880 0.4256 -0.6878
vn 0.4604 -0.2060 -0.8635
vn -0.4604 0.2059 -0.8635
vn -0.4086 -0.2957 -0.8635
vt 0.843750 0.025000
vt 0.843750 0.225000
vt 0.843750 0.086538
s 1
usemtl colormap.027
f 3/1/1 2/1/2 1/1/3
f 2/1/2 3/1/1 4/1/4
f 4/1/4 3/1/1 5/1/5
f 4/1/4 5/1/5 6/1/6
f 9/2/7 8/2/8 7/2/9
f 8/2/8 9/2/7 10/2/10
f 10/2/10 9/2/7 11/2/11
f 10/2/10 11/2/11 12/2/12
f 13/3/13 4/1/4 6/1/6
f 4/1/4 13/3/13 15/3/14
f 16/3/15 5/1/5 3/1/1
f 5/1/5 16/3/15 14/3/16
f 2/1/2 15/3/14 17/3/17
f 18/3/18 3/1/1 1/1/3
f 7/2/9 18/3/18 17/3/17
f 18/3/18 7/2/9 8/2/8
f 8/2/8 16/3/15 18/3/18
f 16/3/15 8/2/8 10/2/10
f 11/2/11 14/3/16 12/2/12
f 9/2/7 17/3/17 15/3/14
f 17/3/17 9/2/7 7/2/9
f 11/2/11 15/3/14 13/3/13
f 15/3/14 11/2/11 9/2/7
f 21/1/19 20/1/20 19/1/21
f 20/1/20 21/1/19 22/1/22
f 22/1/22 21/1/19 23/1/23
f 22/1/22 23/1/23 24/1/24
f 28/2/25 29/2/26 30/2/27
f 31/3/28 23/1/23 32/3/29
f 22/1/22 31/3/28 33/3/30
f 34/3/31 23/1/23 21/1/19
f 35/3/32 19/1/21 20/1/20
f 36/3/33 21/1/19 19/1/21
f 21/1/19 36/3/33 34/3/31
f 25/2/34 36/3/33 35/3/32
f 34/3/31 26/2/35 28/2/25
f 28/2/25 32/3/29 34/3/31
f 32/3/29 29/2/26 31/3/28
f 27/2/36 35/3/32 33/3/30
f 35/3/32 27/2/36 25/2/34
f 29/2/26 33/3/30 31/3/28
f 33/3/30 29/2/26 27/2/36
f 39/1/37 38/1/38 37/1/39
f 38/1/38 39/1/37 40/1/40
f 40/1/40 39/1/37 41/1/41
f 40/1/40 41/1/41 42/1/42
f 45/2/43 44/2/44 43/2/45
f 46/2/46 45/2/43 47/2/47
f 37/1/39 53/3/48 54/3/49
f 51/3/50 38/1/38 40/1/40
f 38/1/38 51/3/50 53/3/48
f 54/3/49 39/1/37 37/1/39
f 43/2/45 54/3/49 53/3/48
f 52/3/51 44/2/44 46/2/46
f 50/3/52 46/2/46 48/2/53
f 50/3/52 47/2/47 49/3/54
f 47/2/47 50/3/52 48/2/53
f 45/2/43 53/3/48 51/3/50
f 53/3/48 45/2/43 43/2/45
f 47/2/47 51/3/50 49/3/54
f 51/3/50 47/2/47 45/2/43
f 57/1/55 56/1/56 55/1/57
f 56/1/56 57/1/55 58/1/58
f 58/1/58 57/1/55 59/1/59
f 58/1/58 59/1/59 60/1/60
f 62/2/61 63/2/62 64/2/63
f 59/1/59 67/3/64 60/1/60
f 67/3/64 59/1/59 68/3/65
f 67/3/64 58/1/58 60/1/60
f 58/1/58 67/3/64 69/3/66
f 70/3/67 59/1/59 57/1/55
f 59/1/59 70/3/67 68/3/65
f 71/3/68 55/1/57 56/1/56
f 55/1/57 71/3/68 72/3/69
f 72/3/69 57/1/55 55/1/57
f 61/2/70 72/3/69 71/3/68
f 62/2/61 70/3/67 72/3/69
f 70/3/67 62/2/61 64/2/63
f 64/2/63 68/3/65 70/3/67
f 68/3/65 64/2/63 66/2/71
f 68/3/65 65/2/72 67/3/64
f 65/2/72 68/3/65 66/2/71
f 63/2/62 71/3/68 69/3/66
f 71/3/68 63/2/62 61/2/70
f 65/2/72 69/3/66 67/3/64
f 69/3/66 65/2/72 63/2/62
f 5/1/5 13/3/13 6/1/6
f 13/3/13 5/1/5 14/3/16
f 17/3/17 1/1/3 2/1/2
f 1/1/3 17/3/17 18/3/18
f 15/3/14 2/1/2 4/1/4
f 3/1/1 18/3/18 16/3/15
f 10/2/10 14/3/16 16/3/15
f 14/3/16 10/2/10 12/2/12
f 14/3/16 11/2/11 13/3/13
f 27/2/36 26/2/35 25/2/34
f 26/2/35 27/2/36 28/2/25
f 28/2/25 27/2/36 29/2/26
f 23/1/23 31/3/28 24/1/24
f 31/3/28 22/1/22 24/1/24
f 23/1/23 34/3/31 32/3/29
f 19/1/21 35/3/32 36/3/33
f 33/3/30 20/1/20 22/1/22
f 20/1/20 33/3/30 35/3/32
f 36/3/33 25/2/34 26/2/35
f 26/2/35 34/3/31 36/3/33
f 32/3/29 28/2/25 30/2/27
f 29/2/26 32/3/29 30/2/27
f 44/2/44 45/2/43 46/2/46
f 46/2/46 47/2/47 48/2/53
f 41/1/41 49/3/54 42/1/42
f 49/3/54 41/1/41 50/3/52
f 49/3/54 40/1/40 42/1/42
f 40/1/40 49/3/54 51/3/50
f 52/3/51 41/1/41 39/1/37
f 41/1/41 52/3/51 50/3/52
f 53/3/48 37/1/39 38/1/38
f 39/1/37 54/3/49 52/3/51
f 54/3/49 43/2/45 44/2/44
f 44/2/44 52/3/51 54/3/49
f 46/2/46 50/3/52 52/3/51
f 63/2/62 62/2/61 61/2/70
f 64/2/63 63/2/62 65/2/72
f 64/2/63 65/2/72 66/2/71
f 69/3/66 56/1/56 58/1/58
f 56/1/56 69/3/66 71/3/68
f 57/1/55 72/3/69 70/3/67
f 72/3/69 61/2/70 62/2/61
