# Blender 4.3.2
# www.blender.org
mtllib @player.001.mtl
o @player
v 0.181446 0.314274 -0.855000
v 0.000000 0.362893 -0.855000
v 0.181446 0.314274 -1.000000
v 0.000000 0.362893 -1.000000
v 0.314274 0.181446 -1.000000
v 0.314274 0.181446 -0.855000
v 0.291188 0.000000 -0.710000
v 0.252176 -0.145594 -0.710000
v 0.220400 0.000000 -0.647500
v 0.190872 -0.110200 -0.647500
v 0.145594 -0.252176 -0.710000
v 0.110200 -0.190872 -0.647500
v 0.000000 -0.291188 -0.710000
v 0.000000 -0.220400 -0.647500
v -0.110200 0.190872 -0.647500
v -0.190872 0.110200 -0.647500
v -0.145594 0.252176 -0.710000
v -0.252176 0.145594 -0.710000
v 0.000000 0.290000 0.000000
v -0.145000 0.251147 0.000000
v 0.000000 0.290000 -0.190000
v -0.145000 0.251147 -0.190000
v -0.110200 -0.190872 -0.647500
v -0.145594 -0.252176 -0.710000
v -0.190872 -0.110200 -0.647500
v -0.252176 -0.145594 -0.710000
v 0.252176 0.145594 -0.710000
v 0.190872 0.110200 -0.647500
v 0.145594 0.252176 -0.710000
v 0.110200 0.190872 -0.647500
v -0.251147 -0.145000 0.000000
v -0.251147 -0.145000 -0.190000
v -0.290000 0.000000 0.000000
v -0.290000 0.000000 -0.190000
v 0.000000 -0.290000 0.000000
v 0.145000 -0.251147 0.000000
v 0.000000 -0.290000 -0.190000
v 0.145000 -0.251147 -0.190000
v 0.000000 0.291188 -0.710000
v 0.000000 0.220400 -0.647500
v 0.362893 0.000000 -1.000000
v 0.362893 0.000000 -0.855000
v -0.252176 0.145594 -0.855000
v -0.145594 0.252176 -0.855000
v 0.291188 0.000000 -0.855000
v 0.252176 0.145594 -0.855000
v 0.251147 -0.145000 -0.190000
v 0.251147 -0.145000 0.000000
v 0.290000 0.000000 -0.190000
v 0.290000 0.000000 0.000000
v -0.220400 0.000000 -0.647500
v -0.291188 0.000000 -0.710000
v -0.145000 -0.251147 0.000000
v -0.145000 -0.251147 -0.190000
v 0.314274 -0.181446 -1.000000
v 0.314274 -0.181446 -0.855000
v 0.000000 0.220400 -0.335000
v -0.110200 0.190872 -0.335000
v 0.252176 -0.145594 -0.855000
v 0.181446 -0.314274 -0.855000
v 0.145594 0.252176 -0.855000
v 0.145594 -0.252176 -0.855000
v 0.000000 0.291188 -0.855000
v -0.181446 0.314274 -0.855000
v 0.000000 -0.362893 -0.855000
v 0.000000 -0.291188 -0.855000
v -0.145594 -0.252176 -0.855000
v -0.181446 -0.314274 -0.855000
v -0.252176 -0.145594 -0.855000
v -0.314274 0.181446 -0.855000
v -0.314274 -0.181446 -0.855000
v -0.291188 0.000000 -0.855000
v -0.362893 0.000000 -0.855000
v -0.251147 0.145000 0.000000
v -0.251147 0.145000 -0.190000
v -0.362893 0.000000 -1.000000
v -0.314274 0.181446 -1.000000
v 0.181446 -0.314274 -1.000000
v -0.181446 0.314274 -1.000000
v -0.190872 -0.110200 -0.335000
v -0.220400 0.000000 -0.335000
v 0.145000 0.251147 0.000000
v 0.145000 0.251147 -0.190000
v -0.314274 -0.181446 -1.000000
v 0.190872 0.110200 -0.335000
v 0.251147 0.145000 -0.190000
v 0.110200 0.190872 -0.335000
v 0.110200 -0.190872 -0.335000
v 0.190872 -0.110200 -0.335000
v -0.190872 0.110200 -0.335000
v 0.000000 -0.220400 -0.335000
v 0.251147 0.145000 0.000000
v -0.110200 -0.190872 -0.335000
v -0.181446 -0.314274 -1.000000
v 0.000000 -0.362893 -1.000000
v 0.220400 0.000000 -0.335000
vn 0.2375 0.7791 -0.5801
vn 0.1452 0.7323 0.6653
vn 0.4197 0.7270 0.5435
vn -0.0000 0.8607 -0.5091
vn 0.7315 0.4224 0.5352
vn 0.5481 0.5062 -0.6658
vn 0.7499 0.0494 0.6597
vn 0.8708 -0.1956 0.4510
vn 0.8381 -0.4839 0.2520
vn 0.6747 -0.3293 0.6606
vn 0.4841 -0.8385 0.2501
vn 0.5552 -0.7424 0.3749
vn -0.0000 -0.9694 0.2454
vn -0.6752 0.3268 0.6613
vn -0.6554 0.6058 0.4511
vn -0.4847 0.8395 0.2454
vn -0.2412 0.9663 0.0898
vn -0.2110 0.7155 0.6660
vn -0.0000 0.8767 0.4811
vn -0.4927 0.8534 0.1704
vn -0.7046 -0.6166 0.3513
vn -0.2756 -0.4774 0.8343
vn -0.6074 -0.6539 0.4511
vn 0.7051 0.6156 0.3519
vn 0.2775 0.4806 0.8319
vn 0.6083 0.6530 0.4511
vn 0.7499 -0.0494 0.6597
vn 0.7470 0.5482 0.3760
vn -0.8364 -0.1933 0.5130
vn -0.8526 -0.4922 0.1757
vn -0.7020 -0.2555 0.6647
vn -0.8984 -0.3803 -0.2195
vn 0.2412 -0.9663 0.0898
vn 0.1578 -0.7293 0.6657
vn -0.0000 -0.8494 0.5277
vn 0.4927 -0.8534 0.1704
vn -0.1806 0.9184 0.3519
vn 0.7974 0.2265 0.5593
vn 0.5442 0.2202 0.8096
vn 0.6156 0.1125 0.7800
vn 0.4178 0.6247 0.6597
vn 0.9661 -0.2418 0.0906
vn 0.7415 -0.4281 0.5165
vn 0.9682 -0.1198 -0.2195
vn -0.5344 -0.5203 0.6661
vn 0.7974 -0.2265 -0.5593
vn 0.7431 -0.4290 0.5135
vn 0.7108 -0.2270 -0.6657
vn 0.6201 -0.3580 0.6981
vn 0.2179 0.6157 0.7573
vn 0.1208 0.6137 0.7803
vn -0.2459 0.5991 0.7619
vn -0.3066 0.5311 0.7899
vn -0.4827 0.3990 0.7796
vn 0.1319 -0.7061 0.6957
vn 0.2371 -0.5811 0.7786
vn -0.0000 -0.7279 0.6857
vn -0.2293 -0.6090 0.7593
vn -0.2165 -0.7139 0.6659
vn -0.5875 -0.3392 0.7347
vn -0.5908 -0.2058 0.7801
vn -0.6421 -0.1143 0.7580
vn -0.6880 0.2389 0.6853
vn -0.7060 -0.2430 0.6652
vn -0.7158 0.6924 0.0905
vn -0.1198 -0.9682 -0.2195
vn -0.8949 -0.0000 -0.4463
vn -0.7208 0.1917 -0.6661
vn -0.8511 -0.4914 -0.1851
vn 0.5095 -0.5449 -0.6659
vn -0.7499 -0.0494 0.6597
vn -0.8708 0.1956 0.4510
vn -0.5554 -0.0000 0.8316
vn -0.9377 -0.3434 -0.0527
vn -0.9399 -0.2449 -0.2379
vn 0.1211 0.9680 -0.2196
vn 0.6404 0.7663 -0.0527
vn 0.7101 0.4100 -0.5724
vn 0.6915 0.6820 -0.2379
vn 0.6821 -0.6915 -0.2379
vn 0.8659 -0.4999 0.0146
vn -0.9365 0.2578 -0.2379
vn 0.1717 -0.9838 -0.0525
vn 0.8962 -0.0000 0.4436
vn 0.7108 0.2270 0.6657
vn 0.4948 0.5589 0.6654
vn -0.2562 -0.7650 -0.5909
vn -0.0000 -0.8607 -0.5091
vn -0.7911 0.2785 0.5446
vn 0.9999 -0.0000 0.0172
vn -0.0000 0.9999 0.0156
vn -0.2579 0.9364 -0.2379
vn -0.6820 -0.6915 -0.2379
vn -0.2513 0.7034 -0.6649
vn -0.6645 -0.1978 -0.7206
vn 0.5100 -0.5445 0.6659
vt 0.218750 0.225000
vt 0.218750 0.196000
vt 0.218750 0.167000
vt 0.218750 0.154500
vt 0.218750 0.063000
vt 0.218750 0.025000
vt 0.218750 0.092000
vt 0.218750 0.404500
vt 0.218750 0.342000
vt 0.093750 0.225000
vt 0.968750 0.275000
s 1
usemtl colormap
f 3/1/1 2/2/2 1/2/3
f 2/2/2 3/1/1 4/1/4
f 3/1/1 6/2/5 5/1/6
f 6/2/5 3/1/1 1/2/3
f 8/3/7 9/4/8 10/4/9
f 11/3/10 10/4/9 12/4/11
f 12/4/11 13/3/12 11/3/10
f 13/3/12 12/4/11 14/4/13
f 17/3/14 16/4/15 15/4/16
f 21/5/17 20/6/18 19/6/19
f 20/6/18 21/5/17 22/5/20
f 25/4/21 24/3/22 23/4/23
f 28/4/24 29/3/25 30/4/26
f 27/3/27 9/4/8 7/3/28
f 33/6/29 32/5/30 31/6/31
f 32/5/30 33/6/29 34/5/32
f 37/5/33 36/6/34 35/6/35
f 36/6/34 37/5/33 38/5/36
f 40/4/37 17/3/14 15/4/16
f 42/2/38 5/1/6 6/2/5
f 46/2/39 7/3/28 45/2/40
f 7/3/28 46/2/39 27/3/27
f 39/3/41 30/4/26 29/3/25
f 30/4/26 39/3/41 40/4/37
f 49/5/42 48/6/43 47/5/44
f 32/5/30 53/6/45 31/6/31
f 41/1/46 56/2/47 55/1/48
f 56/2/47 41/1/46 42/2/38
f 6/2/5 56/2/47 42/2/38
f 56/2/47 6/2/5 45/2/40
f 6/2/5 46/2/39 45/2/40
f 56/2/47 45/2/40 59/2/49
f 61/2/50 2/2/2 63/2/51
f 44/2/52 2/2/2 64/2/53
f 44/2/52 64/2/53 43/2/54
f 65/2/55 62/2/56 66/2/57
f 65/2/55 66/2/57 67/2/58
f 65/2/55 67/2/58 68/2/59
f 71/2/60 69/2/61 72/2/62
f 71/2/60 72/2/62 70/2/63
f 71/2/60 70/2/63 73/2/64
f 75/5/65 20/6/18 22/5/20
f 66/2/57 11/3/10 13/3/12
f 35/6/35 54/5/66 37/5/33
f 70/2/63 76/1/67 73/2/64
f 76/1/67 70/2/63 77/1/68
f 69/2/61 24/3/22 26/3/69
f 24/3/22 69/2/61 67/2/58
f 56/2/47 78/1/70 55/1/48
f 61/2/50 39/3/41 29/3/25
f 39/3/41 61/2/50 63/2/51
f 27/3/27 61/2/50 29/3/25
f 18/3/71 51/4/72 16/4/15
f 51/4/72 18/3/71 52/3/73
f 69/2/61 52/3/73 72/2/62
f 80/7/74 34/5/32 81/7/75
f 36/6/34 47/5/44 48/6/43
f 64/2/53 77/1/68 70/2/63
f 19/6/19 83/5/76 21/5/17
f 63/2/51 17/3/14 39/3/41
f 87/7/77 86/5/78 85/7/79
f 86/5/78 87/7/77 83/5/76
f 47/5/44 88/7/80 89/7/81
f 75/5/65 81/7/75 34/5/32
f 81/7/75 75/5/65 90/7/82
f 91/7/83 38/5/36 37/5/33
f 38/5/36 91/7/83 88/7/80
f 86/5/78 50/6/84 49/5/42
f 50/6/84 86/5/78 92/6/85
f 59/2/49 11/3/10 62/2/56
f 11/3/10 59/2/49 8/3/7
f 86/5/78 82/6/86 92/6/85
f 82/6/86 86/5/78 83/5/76
f 94/1/87 65/2/55 68/2/59
f 65/2/55 94/1/87 95/1/88
f 49/5/42 85/7/79 86/5/78
f 72/2/62 18/3/71 43/2/54
f 74/6/89 34/5/32 33/6/29
f 34/5/32 74/6/89 75/5/65
f 49/5/42 89/7/81 96/7/90
f 13/3/12 23/4/23 24/3/22
f 21/5/17 87/7/77 57/7/91
f 25/8/21 81/9/75 51/8/72
f 40/8/37 58/9/92 57/9/91
f 58/9/92 40/8/37 15/8/16
f 12/8/11 89/9/81 88/9/80
f 25/8/21 93/9/93 80/9/74
f 93/9/93 25/8/21 23/8/23
f 91/9/83 23/8/23 14/8/13
f 57/9/91 30/8/26 40/8/37
f 28/8/24 96/9/90 9/8/8
f 15/8/16 90/9/82 58/9/92
f 9/8/8 89/9/81 10/8/9
f 89/9/81 9/8/8 96/9/90
f 55/10/48 5/10/6 41/10/46
f 5/10/6 55/10/48 78/10/70
f 4/10/4 95/10/88 94/10/87
f 4/10/4 94/10/87 79/10/94
f 79/10/94 94/10/87 84/10/95
f 79/10/94 84/10/95 77/10/68
f 77/10/68 84/10/95 76/10/67
f 48/11/43 92/11/85 82/11/86
f 36/11/34 82/11/86 35/11/35
f 9/4/8 8/3/7 7/3/28
f 10/4/9 11/3/10 8/3/7
f 16/4/15 17/3/14 18/3/71
f 24/3/22 25/4/21 26/3/69
f 29/3/25 28/4/24 27/3/27
f 9/4/8 27/3/27 28/4/24
f 17/3/14 40/4/37 39/3/41
f 5/1/6 42/2/38 41/1/46
f 17/3/14 43/2/54 18/3/71
f 43/2/54 17/3/14 44/2/52
f 48/6/43 49/5/42 50/6/84
f 51/4/72 26/3/69 25/4/21
f 26/3/69 51/4/72 52/3/73
f 53/6/45 32/5/30 54/5/66
f 57/7/91 22/5/20 21/5/17
f 22/5/20 57/7/91 58/7/92
f 46/2/39 6/2/5 1/2/3
f 56/2/47 59/2/49 60/2/96
f 46/2/39 1/2/3 61/2/50
f 60/2/96 59/2/49 62/2/56
f 61/2/50 1/2/3 2/2/2
f 63/2/51 2/2/2 44/2/52
f 60/2/96 62/2/56 65/2/55
f 68/2/59 67/2/58 69/2/61
f 43/2/54 64/2/53 70/2/63
f 68/2/59 69/2/61 71/2/60
f 43/2/54 70/2/63 72/2/62
f 20/6/18 75/5/65 74/6/89
f 11/3/10 66/2/57 62/2/56
f 54/5/66 35/6/35 53/6/45
f 78/1/70 56/2/47 60/2/96
f 45/2/40 8/3/7 59/2/49
f 8/3/7 45/2/40 7/3/28
f 4/1/4 64/2/53 2/2/2
f 64/2/53 4/1/4 79/1/94
f 61/2/50 27/3/27 46/2/39
f 52/3/73 69/2/61 26/3/69
f 34/5/32 80/7/74 32/5/30
f 47/5/44 36/6/34 38/5/36
f 77/1/68 64/2/53 79/1/94
f 83/5/76 19/6/19 82/6/86
f 73/2/64 84/1/95 71/2/60
f 84/1/95 73/2/64 76/1/67
f 17/3/14 63/2/51 44/2/52
f 67/2/58 13/3/12 24/3/22
f 13/3/12 67/2/58 66/2/57
f 88/7/80 47/5/44 38/5/36
f 80/7/74 54/5/66 32/5/30
f 54/5/66 80/7/74 93/7/93
f 85/7/79 49/5/42 96/7/90
f 18/3/71 72/2/62 52/3/73
f 89/7/81 49/5/42 47/5/44
f 84/1/95 68/2/59 71/2/60
f 68/2/59 84/1/95 94/1/87
f 93/7/93 37/5/33 54/5/66
f 37/5/33 93/7/93 91/7/83
f 95/1/88 60/2/96 65/2/55
f 60/2/96 95/1/88 78/1/70
f 75/5/65 58/7/92 90/7/82
f 58/7/92 75/5/65 22/5/20
f 23/4/23 13/3/12 14/4/13
f 87/7/77 21/5/17 83/5/76
f 90/9/82 51/8/72 81/9/75
f 51/8/72 90/9/82 16/8/15
f 81/9/75 25/8/21 80/9/74
f 14/8/13 88/9/80 91/9/83
f 88/9/80 14/8/13 12/8/11
f 89/9/81 12/8/11 10/8/9
f 23/8/23 91/9/83 93/9/93
f 30/8/26 57/9/91 87/9/77
f 96/9/90 28/8/24 85/9/79
f 90/9/82 15/8/16 16/8/15
f 30/8/26 85/9/79 28/8/24
f 85/9/79 30/8/26 87/9/77
f 5/10/6 78/10/70 3/10/1
f 3/10/1 78/10/70 95/10/88
f 3/10/1 95/10/88 4/10/4
f 92/11/85 48/11/43 50/11/84
f 48/11/43 82/11/86 36/11/34
f 35/11/35 82/11/86 19/11/19
f 35/11/35 19/11/19 20/11/18
f 35/11/35 20/11/18 53/11/45
f 53/11/45 20/11/18 31/11/31
f 31/11/31 20/11/18 74/11/89
f 31/11/31 74/11/89 33/11/29
