# Blender 4.3.2
# www.blender.org
mtllib washer.mtl
o washer
v -0.390000 0.350000 0.000000
v -0.053509 0.350000 -0.053509
v 0.000000 0.350000 0.000000
v 0.000000 0.350000 -0.470000
v -0.053509 0.350000 -0.416491
v -0.336491 0.350000 -0.416491
v -0.336491 0.350000 -0.053509
v -0.390000 0.350000 -0.470000
v -0.092690 0.000000 -0.123545
v -0.161353 0.000000 -0.100204
v -0.092690 0.000000 -0.083545
v -0.195000 0.000000 -0.095775
v -0.130000 0.000000 -0.113192
v -0.103076 0.000000 -0.133851
v -0.022690 0.000000 -0.123545
v 0.000000 0.000000 -0.062553
v -0.228647 0.000000 -0.100204
v -0.390000 0.000000 -0.062553
v -0.260000 0.000000 -0.113192
v -0.286924 0.000000 -0.133851
v -0.307583 0.000000 -0.160775
v -0.320570 0.000000 -0.192128
v -0.390000 0.000000 -0.388997
v -0.325000 0.000000 -0.225775
v -0.320570 0.000000 -0.259421
v -0.307583 0.000000 -0.290775
v -0.286924 0.000000 -0.317699
v -0.260000 0.000000 -0.338358
v -0.228647 0.000000 -0.351345
v -0.195000 0.000000 -0.355775
v 0.000000 0.000000 -0.388997
v -0.022690 0.000000 -0.083545
v -0.069430 0.000000 -0.192128
v -0.082417 0.000000 -0.160775
v -0.065000 0.000000 -0.225775
v -0.069430 0.000000 -0.259421
v -0.082417 0.000000 -0.290775
v -0.103076 0.000000 -0.317699
v -0.130000 0.000000 -0.338358
v -0.161353 0.000000 -0.351345
v -0.390000 0.020000 0.000000
v 0.000000 0.020000 0.000000
v -0.390000 0.020000 -0.062553
v 0.000000 0.020000 -0.062553
v -0.092690 0.010000 -0.083545
v -0.022690 0.010000 -0.083545
v -0.092690 0.010000 -0.123545
v -0.022690 0.010000 -0.123545
v -0.073318 0.330000 -0.078918
v -0.316682 0.330000 -0.078918
v -0.073318 0.330000 -0.391082
v -0.316682 0.330000 -0.391082
v 0.000000 0.042511 -0.470000
v -0.390000 0.042511 -0.470000
v 0.000000 0.019195 -0.470000
v -0.390000 0.019195 -0.470000
v -0.373066 0.003905 -0.405475
v -0.373066 0.015291 -0.453522
v -0.249199 0.015291 -0.453522
v -0.232265 0.015291 -0.453522
v -0.016934 0.015291 -0.453522
v -0.016934 0.003905 -0.405475
v -0.249199 0.003905 -0.405475
v -0.232265 0.003905 -0.405475
v -0.195000 0.270000 -0.095775
v -0.161353 0.270000 -0.100204
v -0.228647 0.270000 -0.100204
v -0.130000 0.270000 -0.113192
v -0.260000 0.270000 -0.113192
v -0.103076 0.270000 -0.133851
v -0.286924 0.270000 -0.133851
v -0.082417 0.270000 -0.160775
v -0.307583 0.270000 -0.160775
v -0.069430 0.270000 -0.192128
v -0.320570 0.270000 -0.192128
v -0.065000 0.270000 -0.225775
v -0.325000 0.270000 -0.225775
v -0.320570 0.270000 -0.259421
v -0.069430 0.270000 -0.259421
v -0.082417 0.270000 -0.290775
v -0.307583 0.270000 -0.290775
v -0.103076 0.270000 -0.317699
v -0.286924 0.270000 -0.317699
v -0.130000 0.270000 -0.338358
v -0.260000 0.270000 -0.338358
v -0.228647 0.270000 -0.351345
v -0.161353 0.270000 -0.351345
v -0.195000 0.270000 -0.355775
v -0.172959 0.020000 -0.308034
v -0.195000 0.020000 -0.310936
v -0.172959 -0.030000 -0.308034
v -0.195000 -0.030000 -0.310936
v -0.152419 0.020000 -0.299527
v -0.152419 -0.030000 -0.299527
v -0.277259 -0.040000 -0.203733
v -0.277259 -0.040000 -0.247816
v -0.297259 -0.030000 -0.203733
v -0.297259 -0.030000 -0.247816
v -0.217041 0.020000 -0.308034
v -0.217041 -0.030000 -0.308034
v -0.268752 0.020000 -0.268355
v -0.268752 -0.030000 -0.268355
v -0.255218 0.020000 -0.285993
v -0.255218 -0.030000 -0.285993
v -0.237581 0.020000 -0.299527
v -0.237581 -0.030000 -0.299527
v -0.260000 -0.010000 -0.113192
v -0.228647 -0.010000 -0.100204
v -0.252200 -0.030000 -0.126702
v -0.224609 -0.030000 -0.115273
v -0.130000 -0.010000 -0.338358
v -0.161353 -0.010000 -0.351345
v -0.137800 -0.030000 -0.324848
v -0.165391 -0.030000 -0.336277
v -0.260000 -0.010000 -0.338358
v -0.286924 -0.010000 -0.317699
v -0.252200 -0.030000 -0.324848
v -0.275893 -0.030000 -0.306668
v -0.305502 -0.030000 -0.255384
v -0.294073 -0.030000 -0.282975
v -0.320570 -0.010000 -0.259421
v -0.307583 -0.010000 -0.290775
v -0.195000 -0.010000 -0.355775
v -0.228647 -0.010000 -0.351345
v -0.195000 -0.030000 -0.340175
v -0.224609 -0.030000 -0.336277
v -0.195000 -0.010000 -0.095775
v -0.161353 -0.010000 -0.100204
v -0.195000 -0.030000 -0.111375
v -0.165391 -0.030000 -0.115273
v -0.084498 -0.030000 -0.255384
v -0.069430 -0.010000 -0.259421
v -0.095927 -0.030000 -0.282975
v -0.082417 -0.010000 -0.290775
v -0.286924 -0.010000 -0.133851
v -0.275893 -0.030000 -0.144882
v -0.307583 -0.010000 -0.160775
v -0.294073 -0.030000 -0.168575
v -0.240161 -0.030000 -0.203733
v -0.277259 -0.030000 -0.203733
v -0.240161 -0.040000 -0.203733
v -0.240161 -0.030000 -0.247816
v -0.240161 -0.040000 -0.247816
v -0.103076 -0.010000 -0.133851
v -0.082417 -0.010000 -0.160775
v -0.114107 -0.030000 -0.144882
v -0.095927 -0.030000 -0.168575
v -0.320570 -0.010000 -0.192128
v -0.305502 -0.030000 -0.196166
v -0.255218 0.020000 -0.165557
v -0.237581 0.020000 -0.152023
v -0.255218 -0.030000 -0.165557
v -0.237581 -0.030000 -0.152023
v -0.134782 0.020000 -0.285993
v -0.134782 -0.030000 -0.285993
v -0.172959 0.020000 -0.143515
v -0.152419 0.020000 -0.152023
v -0.172959 -0.030000 -0.143515
v -0.152419 -0.030000 -0.152023
v -0.121248 -0.030000 -0.183194
v -0.121248 0.020000 -0.183194
v -0.112741 -0.030000 -0.203733
v -0.112741 0.020000 -0.203734
v -0.309400 -0.030000 -0.225775
v -0.325000 -0.010000 -0.225775
v -0.112741 -0.030000 -0.247816
v -0.112741 0.020000 -0.247816
v -0.121248 -0.030000 -0.268355
v -0.121248 0.020000 -0.268355
v -0.109839 -0.030000 -0.225775
v -0.109839 0.020000 -0.225775
v -0.069430 -0.010000 -0.192128
v -0.084498 -0.030000 -0.196166
v -0.268752 0.020000 -0.183194
v -0.268752 -0.030000 -0.183194
v -0.277259 0.020000 -0.203734
v -0.134782 -0.030000 -0.165557
v -0.134782 0.020000 -0.165557
v -0.080600 -0.030000 -0.225775
v -0.137800 -0.030000 -0.126702
v -0.195000 -0.030000 -0.140614
v -0.217041 -0.030000 -0.143515
v -0.277259 -0.030000 -0.247816
v -0.114107 -0.030000 -0.306668
v -0.065000 -0.010000 -0.225775
v -0.217041 0.020000 -0.143515
v -0.195000 0.020000 -0.140614
v -0.103076 -0.010000 -0.317699
v -0.130000 -0.010000 -0.113192
v -0.277259 0.020000 -0.247816
v -0.065000 0.020000 -0.225775
v -0.069430 0.020000 -0.192128
v -0.069430 0.020000 -0.259421
v -0.082417 0.020000 -0.290775
v -0.082417 0.020000 -0.160775
v -0.103076 0.020000 -0.317699
v -0.103076 0.020000 -0.133851
v -0.130000 0.020000 -0.338358
v -0.161353 0.020000 -0.351345
v -0.195000 0.020000 -0.355775
v -0.228647 0.020000 -0.351345
v -0.260000 0.020000 -0.338358
v -0.286924 0.020000 -0.317699
v -0.286924 0.020000 -0.133851
v -0.260000 0.020000 -0.113192
v -0.228647 0.020000 -0.100204
v -0.195000 0.020000 -0.095775
v -0.161353 0.020000 -0.100204
v -0.130000 0.020000 -0.113192
v -0.307583 0.020000 -0.290775
v -0.307583 0.020000 -0.160775
v -0.320570 0.020000 -0.259421
v -0.320570 0.020000 -0.192128
v -0.325000 0.020000 -0.225775
vn 0.5773 0.5774 0.5773
vn 0.5773 0.5773 -0.5774
vn -0.0964 0.9901 -0.1025
vn -0.0964 0.9901 0.1025
vn 0.0964 0.9901 0.1025
vn -0.5773 0.5773 0.5774
vn 0.0964 0.9901 -0.1025
vn -0.5773 0.5774 -0.5773
vn -0.0979 -0.7457 -0.6590
vn 0.3015 -0.9045 0.3015
vn 0.3015 -0.9045 -0.3015
vn 0.0760 -0.7432 -0.6647
vn -0.2472 -0.7641 -0.5959
vn -0.5095 -0.7500 -0.4218
vn -0.3015 -0.9045 0.3015
vn 0.5774 -0.5773 0.5774
vn 0.2458 -0.7432 -0.6222
vn -0.5774 -0.5773 0.5774
vn 0.4124 -0.7472 -0.5212
vn 0.5607 -0.7254 -0.3993
vn 0.5656 -0.7853 -0.2518
vn 0.6292 -0.7700 -0.1061
vn -0.6819 -0.7265 -0.0849
vn 0.6184 -0.7834 0.0620
vn 0.5796 -0.7844 0.2210
vn 0.5009 -0.7853 0.3640
vn 0.4290 -0.7889 0.4399
vn 0.2452 -0.7472 0.6177
vn 0.0792 -0.7471 0.6600
vn -0.0762 -0.7432 0.6647
vn -0.3015 -0.9045 -0.3015
vn 0.6819 -0.7265 -0.0849
vn -0.5937 -0.7760 -0.2129
vn -0.5899 -0.7702 -0.2426
vn -0.6053 -0.7954 -0.0304
vn -0.5794 -0.8002 0.1549
vn -0.5018 -0.7931 0.3453
vn -0.4124 -0.7472 0.5212
vn -0.0798 -0.7395 0.6684
vn 0.9045 -0.3015 0.3015
vn -0.9045 -0.3015 0.3015
vn 0.5773 -0.5773 0.5774
vn -0.5774 -0.5774 0.5774
vn -0.5773 -0.5774 -0.5774
vn 0.5774 -0.5774 -0.5774
vn 0.5773 -0.5774 0.5774
vn 0.3094 0.9181 -0.2478
vn -0.3094 0.9181 -0.2478
vn -0.3094 0.9181 0.2478
vn 0.3094 0.9181 0.2478
vn -0.7071 -0.0000 -0.7071
vn 0.7071 -0.0000 -0.7071
vn -0.5906 -0.5005 -0.6330
vn 0.5906 -0.5005 -0.6330
vn -0.0000 -0.9731 -0.2306
vn -0.0000 -0.9731 -0.2305
vn 0.2387 -0.6770 -0.6963
vn -0.4123 -0.6662 -0.6214
vn -0.2457 -0.6576 -0.7121
vn 0.4099 -0.6736 -0.6150
vn -0.5568 -0.6746 -0.4846
vn 0.7234 -0.6540 -0.2215
vn 0.7539 -0.6555 0.0437
vn -0.7547 -0.6559 -0.0166
vn 0.7249 -0.6555 0.2117
vn -0.7319 -0.6437 0.2237
vn -0.6415 -0.6533 0.4021
vn 0.6592 -0.6456 0.3855
vn -0.5307 -0.6510 0.5428
vn 0.5623 -0.6568 0.5024
vn -0.3365 -0.6692 0.6625
vn 0.4203 -0.6618 0.6208
vn 0.2364 -0.6596 0.7134
vn -0.1402 -0.6613 0.7369
vn 0.0642 -0.6539 0.7539
vn -0.6924 -0.7037 -0.1593
vn -0.6013 -0.6996 -0.3861
vn -0.0368 -0.7223 -0.6906
vn 0.6016 -0.7041 -0.3771
vn 0.4874 -0.6871 -0.5389
vn -0.3967 -0.8080 0.4356
vn 0.2588 -0.0000 -0.9659
vn 0.0184 -0.1215 -0.9924
vn -0.0097 -0.8770 -0.4803
vn -0.0000 -0.0000 1.0000
vn -0.3476 -0.1251 0.9293
vn -0.2194 0.1178 0.9685
vn -0.3910 0.0253 0.9200
vn -0.4845 0.6278 0.6092
vn -0.2020 -0.6052 -0.7700
vn -0.2298 -0.9732 -0.0000
vn -0.4472 -0.8944 -0.0000
vn -0.4289 -0.8578 -0.2830
vn -0.0651 -0.9539 -0.2931
vn 0.3476 0.1251 0.9293
vn 0.3741 0.0253 0.9271
vn 0.9007 0.0924 0.4246
vn 0.7155 0.0583 0.6962
vn 0.8076 0.1251 0.5763
vn 0.7071 -0.0000 0.7071
vn -0.5000 -0.0000 -0.8660
vn 0.4113 -0.1251 0.9029
vn 0.5297 0.1178 0.8400
vn 0.2034 0.6375 -0.7431
vn 0.2675 0.6897 -0.6729
vn 0.3942 0.6150 -0.6829
vn 0.2041 0.6150 -0.7616
vn 0.2073 -0.6037 -0.7698
vn 0.4131 -0.5271 -0.7426
vn 0.2719 -0.7742 -0.5716
vn 0.2041 -0.6150 -0.7616
vn -0.3943 -0.6150 -0.6828
vn -0.5575 -0.6150 -0.5576
vn 0.5575 0.6150 0.5576
vn 0.3943 0.6150 0.6828
vn 0.4577 0.8370 0.2998
vn 0.7140 0.6836 0.1514
vn 0.4596 0.8706 0.1757
vn 0.6665 0.5856 0.4614
vn 0.3176 0.4947 0.8089
vn 0.0984 0.6092 0.7869
vn 0.0386 0.6836 0.7288
vn 0.1890 0.5336 0.8243
vn -0.0842 0.6897 0.7192
vn -0.2040 0.6150 0.7616
vn -0.2259 0.6836 -0.6940
vn -0.1048 0.6897 -0.7165
vn -0.0000 0.6150 -0.7885
vn -0.1890 0.5336 -0.8243
vn 0.8242 -0.5271 -0.2069
vn 0.4300 -0.8857 -0.1748
vn 0.5891 -0.7592 -0.2768
vn 0.6829 -0.6150 -0.3942
vn -0.5510 -0.6286 0.5489
vn -0.5576 -0.6150 0.5575
vn -0.7426 -0.5271 0.4131
vn -0.5230 -0.7709 0.3636
vn -0.0000 -0.0000 -1.0000
vn 0.6942 -0.0000 0.7198
vn -1.0000 -0.0000 -0.0000
vn -0.7071 0.7071 -0.0000
vn -0.3037 0.9528 -0.0000
vn 1.0000 -0.0000 -0.0000
vn 0.8470 -0.2159 0.4857
vn 0.6352 -0.4393 0.6352
vn 0.5103 -0.6935 0.5086
vn -0.5576 0.6150 -0.5575
vn -0.6828 0.6150 -0.3943
vn -0.8242 -0.5271 0.2069
vn -0.4284 -0.9010 0.0677
vn -0.5000 -0.0000 0.8660
vn -0.7071 -0.0000 0.7071
vn 0.1664 0.8526 -0.4953
vn 0.5763 -0.1251 -0.8076
vn -0.6195 0.1289 0.7744
vn -0.2297 0.9034 0.3622
vn 0.2588 -0.0000 0.9659
vn 0.5000 -0.0000 0.8660
vn -0.3665 0.6485 -0.6671
vn -0.1636 -0.1251 -0.9786
vn -0.3102 0.7093 -0.6329
vn 0.8660 -0.0000 0.5000
vn 0.9659 -0.0000 0.2588
vn -0.9661 0.1174 -0.2299
vn -0.3556 0.9325 -0.0626
vn -0.7050 0.6836 -0.1889
vn 0.7266 0.6871 -0.0001
vn 0.7239 0.6899 -0.0000
vn -0.9832 0.0087 0.1824
vn -0.8713 -0.0583 0.4873
vn -0.9371 0.0924 0.3366
vn -0.4341 0.8873 0.1559
vn -0.9970 0.0077 -0.0775
vn -0.9923 0.0924 0.0826
vn 0.8242 -0.5271 0.2069
vn 0.6829 -0.6150 0.3942
vn 0.2836 -0.9443 0.1672
vn 0.4310 -0.8994 0.0728
vn -0.0363 -0.9863 -0.1611
vn -0.1782 -0.9034 -0.3901
vn -0.3942 -0.6150 -0.6829
vn 0.3654 0.0859 0.9269
vn -0.8502 -0.1216 0.5122
vn -0.8687 0.1216 0.4803
vn -0.9808 -0.0000 0.1951
vn 0.9808 -0.0000 -0.1951
vn 0.8660 -0.0000 -0.5000
vn -0.8660 -0.0000 -0.5000
vn 0.3398 -0.9404 0.0117
vn -0.0000 -1.0000 -0.0000
vn 0.3036 -0.8616 0.4067
vn 0.0363 -0.9863 0.1611
vn 0.2700 -0.9294 -0.2518
vn -0.0000 1.0000 -0.0000
vn 0.4318 0.8409 0.3263
vn -0.4836 0.7681 0.4196
vn -0.3269 0.9240 0.1984
vn 0.8660 -0.0034 -0.5001
vn 0.7072 0.0034 -0.7071
vn -0.5575 -0.6150 0.5576
vn -0.3943 -0.6150 0.6828
vn 0.3943 0.6150 -0.6828
vn 0.5575 0.6150 -0.5576
vn 0.7972 -0.6037 -0.0010
vn -0.2588 -0.0000 0.9659
vn -0.0184 -0.1215 0.9924
vn -0.0001 -0.6590 0.7521
vn 0.0480 -0.3156 0.9477
vn -0.2439 -0.4068 0.8803
vn -0.1999 -0.6286 0.7516
vn -0.0000 -0.6150 0.7885
vn -0.6652 0.6375 0.3888
vn -0.5576 0.6150 0.5575
vn 0.4502 -0.3913 0.8026
vn -0.3942 0.6150 -0.6829
vn 0.7885 -0.6150 -0.0000
vn -0.7616 0.6150 -0.2040
vn -0.7885 0.6150 -0.0000
vn -0.6195 -0.1289 -0.7744
vn -0.5109 -0.0583 -0.8576
vn -0.7885 -0.6150 -0.0000
vn 0.7616 0.6150 -0.2040
vn 0.6864 0.3196 0.6532
vn 0.1306 0.8442 -0.5198
vn 0.0986 -0.8172 0.5679
vn 0.5575 -0.6150 -0.5576
vn -0.9687 -0.1837 -0.1669
vn -0.9660 -0.0391 -0.2555
vn -0.2852 -0.9534 -0.0984
vn 0.9808 -0.0000 0.1951
vn 0.2467 0.7818 -0.5726
vn 0.1939 0.8414 -0.5045
vn -0.5673 0.7131 -0.4118
vn -0.3629 0.8780 0.3122
vn -0.5795 -0.7933 -0.1868
vn -0.5850 -0.7994 0.1368
vn -0.4740 -0.8717 0.1242
vn -0.4630 -0.8737 -0.1493
vn -0.2809 -0.8760 0.3921
vn -0.5896 -0.3633 0.7214
vn -0.1456 -0.5955 0.7901
vn -0.0142 -0.9752 0.2211
vn 0.4777 -0.3854 0.7895
vn 0.1791 -0.9556 0.2339
vn -0.5741 0.7678 -0.2845
vn -0.2139 0.9537 0.2116
vn -0.9764 0.0444 -0.2116
vn -0.6832 0.7290 0.0420
vn -0.9800 0.1509 0.1295
vn -0.2576 0.0175 -0.9661
vn -0.0014 0.1312 -0.9914
vn 0.0158 -0.1370 -0.9904
vn -0.2588 -0.0000 -0.9659
vn -0.8592 -0.1312 -0.4945
vn -0.9659 -0.0000 -0.2588
vn -0.9998 -0.0175 -0.0012
vn -0.9659 -0.0000 0.2588
vn 0.9659 -0.0000 -0.2588
vn -0.8660 -0.0000 0.5000
vn 0.5000 -0.0000 -0.8660
vn 0.0014 0.1312 0.9914
vn 0.2716 0.1370 0.9526
vn 0.2411 -0.1370 0.9608
vn 0.4989 0.0175 0.8665
vn 0.6873 0.1229 0.7159
vn -0.9705 -0.1141 -0.2123
vn -0.9390 0.0970 0.3300
vn 0.8579 -0.1312 -0.4969
vn 0.8656 0.1370 -0.4816
vn 0.7078 -0.0175 -0.7061
vn -0.6144 0.1298 0.7783
vn -0.3071 -0.1238 0.9436
vn -0.9808 -0.0173 0.1943
vn -0.9808 -0.0000 0.1950
vt 0.000000 0.000000
vt 0.000000 18.503941
vt -2.106645 2.106645
vt -2.106645 16.397289
vt -13.247690 16.397289
vt -15.354330 0.000000
vt -13.247690 2.106645
vt -15.354330 18.503941
vt 6.352501 3.945057
vt 3.649227 4.863979
vt 3.649227 3.289176
vt 7.677166 3.770662
vt 5.118110 4.456358
vt 4.058115 5.269722
vt 0.893322 4.863979
vt 0.000000 2.462713
vt 9.001830 3.945057
vt 15.354330 2.462713
vt 10.236220 4.456358
vt 11.296220 5.269722
vt 12.109580 6.329717
vt 12.620880 7.564108
vt 15.354330 15.314830
vt 12.795280 8.888772
vt 12.620880 10.213440
vt 12.109580 11.447830
vt 11.296220 12.507820
vt 10.236220 13.321190
vt 9.001830 13.832490
vt 7.677166 14.006880
vt 0.893322 3.289176
vt 0.000000 15.314830
vt 2.733450 7.564108
vt 3.244752 6.329717
vt 2.559055 8.888772
vt 2.733450 10.213440
vt 3.244752 11.447830
vt 5.118110 13.321190
vt 6.352501 13.832490
vt 0.000000 0.787402
vt -15.354330 0.787402
vt 0.000000 13.779530
vt -15.354330 13.779530
vt 3.649227 0.000000
vt 3.649227 0.393701
vt 0.893322 0.393701
vt -0.393701 4.863979
vt -0.393701 3.289176
vt 0.000000 3.289176
vt 0.393701 3.289176
vt 0.393701 4.863979
vt 0.000000 4.863979
vt -12.467810 3.106991
vt -2.886518 3.106991
vt -2.886518 15.396950
vt -12.467810 15.396950
vt -18.004471 3.106991
vt -18.004471 15.396950
vt -19.112711 16.397289
vt -19.112711 2.106645
vt 15.354330 1.673656
vt 15.354330 13.779530
vt -1.673656 18.503941
vt -0.787402 2.462713
vt -0.787402 0.000000
vt -13.779530 0.000000
vt 13.779530 -0.000000
vt 13.779530 18.503941
vt 1.673656 18.503941
vt 0.787402 2.462713
vt -0.000000 15.314830
vt 15.354330 0.755720
vt 0.000000 1.673656
vt -0.755720 18.503941
vt 15.354330 18.179560
vt 0.666703 17.512859
vt 9.144302 17.512859
vt 0.000000 14.902130
vt 14.687630 15.568840
vt 0.666703 15.568840
vt 0.000000 18.179560
vt 9.811005 15.568840
vt 9.144302 15.568840
vt 9.811005 17.512859
vt 4.058115 12.507820
vt -10.629920 -1.347611
vt 0.000000 -1.347611
vt 0.000000 -0.011516
vt 0.000000 -3.023143
vt -10.629920 -3.023143
vt -10.629920 -4.359238
vt 0.000000 -4.359238
vt -10.629920 -7.119316
vt 0.000000 -7.119316
vt 0.000000 -5.783221
vt 0.000000 8.103656
vt 10.629920 8.103656
vt 10.629920 9.439752
vt 0.000000 9.439752
vt 0.000000 11.818130
vt 0.000000 10.482030
vt 10.629920 10.482030
vt 10.629920 9.146751
vt 0.000000 8.478703
vt 0.000000 7.142609
vt 10.629920 7.142609
vt 10.629920 4.606183
vt 10.629920 5.942278
vt 0.000000 5.942278
vt 0.000000 3.046422
vt 0.000000 1.710328
vt 10.629920 1.710328
vt 10.629920 -4.359238
vt 10.629920 -3.023143
vt -10.629920 9.439752
vt -10.629920 8.103656
vt 0.000000 11.162410
vt -10.629920 11.162410
vt -10.629920 9.826314
vt -10.629920 10.833800
vt 0.000000 10.833800
vt 0.000000 12.169890
vt 0.000000 11.057450
vt 0.000000 12.393550
vt -10.629920 12.393550
vt -10.629920 11.057450
vt -10.629920 11.818130
vt -10.629920 10.482850
vt -10.629920 9.146751
vt 0.000000 9.146751
vt 14.687630 17.512859
vt 15.354330 0.000000
vt 0.893322 0.000000
vt -0.893322 0.000000
vt -0.893322 0.393701
vt -3.649227 0.393701
vt -3.649227 0.000000
vt -13.247690 -6.867407
vt -2.106645 -6.867407
vt -2.886518 -5.594344
vt -12.467810 -5.594344
vt 7.199596 15.396950
vt 7.199596 3.106991
vt 8.307839 2.106645
vt 8.307839 16.397289
vt -12.467810 20.134331
vt -2.886518 20.134331
vt -2.106645 21.407391
vt -13.247690 21.407391
vt -13.779530 18.503941
vt 0.787402 -0.000000
vt 0.000000 2.462713
vt 0.000000 0.755720
vt 0.755720 18.503941
vt 15.354330 14.902130
vt -10.629920 3.046422
vt -10.629920 1.710328
vt -10.629920 -0.011516
vt -10.629920 -5.783221
vt 0.000000 9.826314
vt 10.629920 9.826314
vt 10.629920 11.162410
vt 10.629920 10.833800
vt 10.629920 12.169890
vt 10.629920 11.057450
vt 10.629920 12.393550
vt 10.629920 11.818130
vt 10.629920 8.478703
vt 0.000000 4.606183
vt 10.629920 3.046422
vt 10.629920 -0.011516
vt 10.629920 -1.347611
vt 10.629920 -5.783221
vt 10.629920 -7.119316
vt -10.629920 12.169890
vt -10.629920 10.482030
vt 0.000000 10.482850
vt -10.629920 8.478703
vt -10.629920 7.142609
vt -10.629920 5.942278
vt -10.629920 4.606183
vt -4.636695 0.787402
vt -5.511953 0.787402
vt -5.511953 -1.181102
vt -4.636695 -1.181102
vt -5.166146 -1.181102
vt -4.290888 0.787402
vt -4.290888 -1.181102
vt -5.166146 0.787402
vt 0.867770 -6.946229
vt -0.867770 -6.946229
vt -0.867770 -7.826571
vt 0.867770 -7.826571
vt -3.553337 0.787402
vt -2.678079 -1.181102
vt -3.553337 -1.181102
vt -2.678079 0.787402
vt -3.622841 0.787402
vt -4.498099 0.787402
vt -4.498099 -1.181102
vt -3.622841 -1.181102
vt 4.060470 -4.302362
vt 5.316399 -3.306981
vt 5.396565 -4.302362
vt 4.140635 -3.306981
vt -5.396565 -1.906017
vt -4.060470 -1.906017
vt -4.140635 -0.910636
vt -5.316399 -0.910636
vt -3.472588 -4.014826
vt -4.648352 -4.014826
vt -4.728517 -5.010207
vt -3.392422 -5.010207
vt -1.370734 -5.001453
vt -2.626663 -5.996834
vt -2.546498 -5.001453
vt -1.290569 -5.996834
vt -5.742372 -3.512864
vt -4.486443 -2.517483
vt -4.406277 -3.512864
vt -5.662206 -2.517483
vt -5.742372 -2.695516
vt -4.486443 -1.700134
vt -4.406277 -2.695516
vt -5.662206 -1.700134
vt 4.406277 -2.695516
vt 5.662206 -1.700134
vt 5.742372 -2.695516
vt 4.486443 -1.700134
vt -1.290569 -0.211545
vt -1.370734 0.783836
vt -2.546498 0.783836
vt -2.626663 -0.211545
vt 2.527826 -4.592779
vt 2.447661 -5.588160
vt 3.783756 -5.588160
vt 3.703590 -4.592779
vt -6.896112 1.181102
vt -8.356671 1.181102
vt -9.144073 0.787402
vt -8.356671 0.787402
vt -6.896112 0.787402
vt 0.867770 0.787402
vt 0.867770 1.181102
vt -0.867770 1.181102
vt -0.867770 0.787402
vt 2.447661 -0.620220
vt 3.783756 -0.620220
vt 3.703590 0.375161
vt 2.527826 0.375161
vt 1.370734 -5.001453
vt 1.290569 -5.996834
vt 2.626663 -5.996834
vt 2.546498 -5.001453
vt 3.622841 -1.181102
vt 4.498099 -1.181102
vt 4.498099 0.787402
vt 3.622841 0.787402
vt 5.166146 0.787402
vt 4.290888 0.787402
vt 4.290888 -1.181102
vt 5.166146 -1.181102
vt 2.396245 -1.181102
vt 2.396245 0.787402
vt 1.520987 0.787402
vt 1.520987 -1.181102
vt -0.080166 -5.212999
vt -1.336095 -6.208380
vt -1.255929 -5.212999
vt -0.000000 -6.208380
vt -1.520987 -1.181102
vt -2.396245 0.787402
vt -1.520987 0.787402
vt -2.396245 -1.181102
vt -0.230419 -1.181102
vt -1.105676 0.787402
vt -0.230419 0.787402
vt -1.105676 -1.181102
vt 1.290569 -0.211545
vt 2.626663 -0.211545
vt 2.546498 0.783836
vt 1.370734 0.783836
vt -4.140635 -3.306981
vt -5.316399 -3.306981
vt -5.396565 -4.302362
vt -4.060470 -4.302362
vt 1.105676 -1.181102
vt 0.230419 0.787402
vt 1.105676 0.787402
vt 0.230419 -1.181102
vt 3.553337 -1.181102
vt 3.553337 0.787402
vt 2.678079 0.787402
vt 2.678079 -1.181102
vt 0.767641 1.165705
vt 0.614173 -0.000000
vt 0.767641 -1.165705
vt 1.217586 -2.251969
vt 1.217586 2.251969
vt 1.933346 -3.184764
vt 1.765305 -0.000000
vt 2.866142 -3.900524
vt 2.747319 -2.370791
vt 2.214496 -1.676403
vt 3.441708 -2.903615
vt 3.952405 -4.350469
vt 4.250340 -3.238561
vt 5.118110 -4.503937
vt 5.118110 -3.352805
vt 6.283815 -4.350469
vt 5.985880 -3.238561
vt 7.370079 -3.900524
vt 6.794513 -2.903615
vt 7.488902 -2.370791
vt 9.018634 -2.251969
vt 9.144073 -0.867770
vt 8.356671 -0.867770
vt 9.468579 -1.165705
vt 9.144073 0.867770
vt 8.356671 0.867770
vt 9.018634 2.251969
vt 7.488902 2.370791
vt 8.021725 1.676403
vt 8.302875 3.184764
vt 6.794513 2.903615
vt 7.370079 3.900524
vt 6.283815 4.350469
vt 5.985880 3.238561
vt 5.118110 4.503937
vt 4.250340 3.238561
vt 5.118110 3.352805
vt 3.952405 4.350469
vt 2.214496 1.676403
vt 2.747319 2.370791
vt 2.866142 3.900524
vt 1.933346 3.184764
vt 1.879549 0.867770
vt 1.879549 -0.867770
vt 8.302875 -3.184764
vt 8.021725 -1.676403
vt 9.468579 1.165705
vt 3.441708 2.903615
vt 9.622047 -0.000000
vt 4.648352 -4.014826
vt 3.472588 -4.014826
vt 3.392422 -5.010207
vt 4.728517 -5.010207
vt -0.080166 0.995381
vt -1.255929 0.995381
vt -1.336095 0.000000
vt 5.511953 0.787402
vt 4.636695 0.787402
vt 4.636695 -1.181102
vt 5.511953 -1.181102
vt 4.406277 -3.512864
vt 5.742372 -3.512864
vt 5.662206 -2.517483
vt 4.486443 -2.517483
vt -2.447661 -0.620220
vt -3.703590 0.375161
vt -2.527826 0.375161
vt -3.783756 -0.620220
vt 5.316399 -0.910636
vt 4.140635 -0.910636
vt 4.060470 -1.906017
vt 5.396565 -1.906017
vt -6.896112 -0.867770
vt -6.896112 0.867770
vt -8.356671 0.867770
vt -8.356671 -0.867770
vt 1.336095 0.000000
vt 1.255929 0.995381
vt 0.080166 0.995381
vt 0.080166 -5.212999
vt 0.000000 -6.208380
vt 1.336095 -6.208380
vt 1.255929 -5.212999
vt -2.527826 -4.592779
vt -3.783756 -5.588160
vt -3.703590 -4.592779
vt -2.447661 -5.588160
vt -4.728517 -1.198173
vt -3.392422 -1.198173
vt -3.472588 -0.202791
vt -4.648352 -0.202791
vt 3.392422 -1.198173
vt 4.728517 -1.198173
vt 4.648352 -0.202791
vt 3.472588 -0.202791
vt -2.559055 4.432414
vt -2.214496 1.676403
vt -1.879549 0.867770
vt -2.747319 2.370791
vt -3.793446 4.943715
vt -3.441708 2.903615
vt -6.442775 4.943715
vt -7.677166 4.432414
vt -6.794513 2.903615
vt -8.737161 3.619051
vt -8.737161 -3.619051
vt -8.021725 -1.676403
vt -7.677166 -4.432414
vt -6.794513 -2.903615
vt -7.488902 -2.370791
vt -6.442775 -4.943715
vt -5.985880 -3.238561
vt -5.118110 -3.352805
vt -5.118110 -5.118110
vt -3.441708 -2.903615
vt -4.250340 -3.238561
vt -3.793446 -4.943715
vt -1.879549 -0.867770
vt -2.214496 -1.676403
vt -2.559055 -4.432414
vt -1.499060 -3.619051
vt -1.765305 -0.000000
vt -0.174395 -1.324664
vt -0.174395 1.324664
vt -0.685697 2.559055
vt -0.685697 -2.559055
vt -1.499060 3.619051
vt -4.250340 3.238561
vt -5.118110 5.118110
vt -5.118110 3.352805
vt -5.985880 3.238561
vt -7.488902 2.370791
vt -8.021725 1.676403
vt -2.747319 -2.370791
vt -9.550524 2.559055
vt -9.550524 -2.559055
vt -10.061820 1.324664
vt -10.236220 0.000000
vt -10.061820 -1.324664
vt -5.742372 -1.181102
vt -4.406277 -1.181102
vt -4.406277 0.000000
vt -5.742372 0.000000
vt -5.396565 -1.181102
vt -4.060470 0.000000
vt -4.060470 -1.181102
vt -5.396565 0.000000
vt -3.392422 0.000000
vt -4.728517 0.000000
vt -4.728517 -1.181102
vt -3.392422 -1.181102
vt -3.783756 0.000000
vt -3.783756 -1.181102
vt -2.447661 -1.181102
vt -2.447661 0.000000
vt -1.290569 -1.181102
vt -1.290569 0.000000
vt -2.626663 0.000000
vt -2.626663 -1.181102
vt -1.336095 0.000000
vt -1.336095 -1.181102
vt -0.000000 -1.181102
vt -0.000000 0.000000
vt 0.000000 0.000000
vt 0.000000 -1.181102
vt 1.336095 -1.181102
vt 1.336095 0.000000
vt 1.290569 0.000000
vt 1.290569 -1.181102
vt 2.626663 -1.181102
vt 2.626663 0.000000
vt 2.447661 0.000000
vt 2.447661 -1.181102
vt 3.783756 -1.181102
vt 3.783756 0.000000
vt 4.728517 0.000000
vt 3.392422 0.000000
vt 3.392422 -1.181102
vt 4.728517 -1.181102
vt 5.396565 0.000000
vt 4.060470 0.000000
vt 4.060470 -1.181102
vt 5.396565 -1.181102
vt 5.742372 0.000000
vt 4.406277 0.000000
vt 4.406277 -1.181102
vt 5.742372 -1.181102
vt 0.000000 -1.181102
vt -0.867770 -1.181102
vt 0.867770 -1.181102
s 1
usemtl metalLight.003
f 3/1/1 4/2/2 2/3/3
f 4/2/2 5/4/4 2/3/3
f 4/2/2 6/5/5 5/4/4
f 1/6/6 2/3/3 7/7/7
f 7/7/7 6/5/5 8/8/8
f 6/5/5 4/2/2 8/8/8
f 10/9/9 9/10/10 11/11/11
f 11/11/11 12/12/12 10/9/9
f 10/9/9 13/13/13 9/10/10
f 13/13/13 14/14/14 9/10/10
f 14/14/14 15/15/15 9/10/10
f 12/12/12 11/11/11 16/16/16
f 17/17/17 12/12/12 16/16/16
f 17/17/17 16/16/16 18/18/18
f 18/18/18 19/19/19 17/17/17
f 18/18/18 20/20/20 19/19/19
f 18/18/18 21/21/21 20/20/20
f 18/18/18 22/22/22 21/21/21
f 18/18/18 23/23/23 22/22/22
f 23/23/23 24/24/24 22/22/22
f 23/23/23 25/25/25 24/24/24
f 23/23/23 26/26/26 25/25/25
f 23/23/23 27/27/27 26/26/26
f 23/23/23 28/28/28 27/27/27
f 23/23/23 29/29/29 28/28/28
f 23/23/23 30/30/30 29/29/29
f 32/31/31 31/32/32 16/16/16
f 15/15/15 33/33/33 31/32/32
f 15/15/15 14/14/14 34/34/34
f 33/33/33 35/35/35 31/32/32
f 35/35/35 36/36/36 31/32/32
f 36/36/36 37/37/37 31/32/32
f 39/38/38 40/39/39 31/32/32
f 16/1/16 44/40/40 43/41/41
f 43/41/41 18/6/18 16/1/16
f 42/40/42 3/42/1 1/43/6
f 1/43/6 41/41/43 42/40/42
f 46/31/44 45/11/45 47/10/46
f 47/10/46 48/15/43 46/31/44
f 11/44/11 45/45/45 46/46/44
f 47/47/46 45/48/45 11/49/11
f 46/50/44 48/51/43 15/52/15
f 50/53/47 49/54/48 51/55/49
f 51/55/49 52/56/50 50/53/47
f 50/57/47 52/58/50 6/59/5
f 6/59/5 7/60/7 50/57/47
f 54/61/51 8/62/8 4/42/2
f 16/16/16 31/32/32 53/63/52
f 53/63/52 44/64/40 16/16/16
f 53/63/52 42/65/42 44/64/40
f 53/63/52 3/66/1 42/65/42
f 1/67/6 8/68/8 54/69/51
f 43/70/41 54/69/51 23/71/23
f 2/3/3 1/6/6 3/1/1
f 7/7/7 8/8/8 1/6/6
f 30/30/30 23/23/23 31/32/32
f 16/16/16 11/11/11 32/31/31
f 32/31/31 15/15/15 31/32/32
f 15/15/15 34/34/34 33/33/33
f 37/37/37 38/85/81 31/32/32
f 38/85/81 39/38/38 31/32/32
f 40/39/39 30/30/30 31/32/32
f 42/1/42 41/132/43 43/18/41
f 43/18/41 44/16/40 42/1/42
f 46/46/44 32/133/31 11/44/11
f 11/49/11 9/52/10 47/47/46
f 15/134/15 48/135/43 47/136/46
f 47/136/46 9/137/10 15/134/15
f 15/52/15 32/49/31 46/50/44
f 7/138/7 2/139/3 49/140/48
f 49/140/48 50/141/47 7/138/7
f 51/142/49 49/143/48 2/144/3
f 2/144/3 5/145/4 51/142/49
f 52/146/50 51/147/49 5/148/4
f 5/148/4 6/149/5 52/146/50
f 4/42/2 53/73/52 54/61/51
f 53/63/52 4/150/2 3/66/1
f 43/70/41 41/151/43 1/67/6
f 1/67/6 54/69/51 43/70/41
f 23/71/23 18/152/18 43/70/41
usemtl metalMedium.009
f 56/72/53 54/61/51 53/73/52
f 31/32/32 55/74/54 53/63/52
f 56/75/53 61/76/55 60/77/55
f 31/78/32 57/79/55 62/80/55
f 62/80/55 55/81/54 31/78/32
f 62/80/55 61/76/55 55/81/54
s 0
f 57/79/56 63/82/56 62/80/56
f 63/82/56 64/83/56 62/80/56
s 1
f 64/83/55 63/82/55 59/84/55
f 67/17/57 68/13/58 66/9/59
f 67/17/57 69/19/60 68/13/58
f 69/19/60 70/14/61 68/13/58
f 75/22/62 77/24/63 76/35/64
f 77/24/63 78/25/65 76/35/64
f 78/25/65 79/36/66 76/35/64
f 78/25/65 80/37/67 79/36/66
f 78/25/65 81/26/68 80/37/67
f 81/26/68 82/85/69 80/37/67
f 81/26/68 83/27/70 82/85/69
f 83/27/70 84/38/71 82/85/69
f 85/28/72 86/29/73 84/38/71
f 86/29/73 87/39/74 84/38/71
f 86/29/73 88/30/75 87/39/74
f 83/86/70 27/87/27 28/88/28
f 29/89/29 86/90/73 85/91/72
f 85/91/72 28/92/28 29/89/29
f 86/93/73 29/94/29 30/95/30
f 40/96/39 87/97/74 88/98/75
f 88/98/75 30/99/30 40/96/39
f 37/100/37 36/101/36 79/102/66
f 76/103/64 79/102/66 36/101/36
f 35/104/35 33/105/33 74/106/76
f 72/107/77 74/108/76 33/109/33
f 34/110/34 14/111/14 70/112/61
f 10/92/9 66/113/59 68/114/58
f 17/99/17 67/115/57 65/116/78
f 19/117/19 69/118/60 67/119/57
f 69/120/60 19/121/19 20/122/20
f 20/123/20 21/124/21 73/125/79
f 73/125/79 71/126/80 20/123/20
f 21/101/21 22/100/22 75/127/62
f 77/128/63 75/129/62 22/130/22
f 53/73/52 55/153/54 56/72/53
f 56/154/53 23/71/23 54/69/51
f 57/79/55 31/78/32 23/155/23
f 23/155/23 56/75/53 57/79/55
f 56/75/53 58/131/55 57/79/55
f 56/75/53 59/84/55 58/131/55
f 56/75/53 60/77/55 59/84/55
f 61/76/55 56/75/53 55/81/54
f 59/84/55 60/77/55 64/83/55
f 66/9/59 65/12/78 67/17/57
f 69/19/60 71/20/80 70/14/61
f 71/20/80 72/34/77 70/14/61
f 71/20/80 73/21/79 72/34/77
f 73/21/79 74/33/76 72/34/77
f 73/21/79 75/22/62 74/33/76
f 75/22/62 76/35/64 74/33/76
f 83/27/70 85/28/72 84/38/71
f 26/111/26 27/110/27 83/156/70
f 83/156/70 81/157/68 26/111/26
f 28/88/28 85/158/72 83/86/70
f 30/95/30 88/159/75 86/93/73
f 39/160/38 84/161/71 87/162/74
f 87/162/74 40/117/39 39/160/38
f 38/121/81 82/163/69 84/164/71
f 84/164/71 39/122/38 38/121/81
f 38/124/81 37/123/37 80/165/67
f 80/165/67 82/166/69 38/124/81
f 79/102/66 80/167/67 37/100/37
f 36/101/36 35/130/35 76/103/64
f 74/106/76 76/168/64 35/104/35
f 33/109/33 34/169/34 72/107/77
f 70/112/61 72/170/77 34/110/34
f 70/171/61 14/88/14 13/87/13
f 13/87/13 68/172/58 70/171/61
f 68/114/58 13/89/13 10/92/9
f 66/173/59 10/95/9 12/94/12
f 12/94/12 65/174/78 66/173/59
f 65/116/78 12/96/12 17/99/17
f 67/119/57 17/160/17 19/117/19
f 20/122/20 71/175/80 69/120/60
f 75/127/62 73/176/79 21/101/21
f 22/130/22 24/177/24 77/128/63
f 24/105/24 25/104/25 78/178/65
f 78/178/65 77/179/63 24/105/24
f 25/169/25 26/109/26 81/180/68
f 81/180/68 78/181/65 25/169/25
usemtl metalDark.005
f 62/80/55 64/83/55 60/77/55
f 63/82/55 57/79/55 58/131/55
f 58/131/55 59/84/55 63/82/55
f 60/77/55 61/76/55 62/80/55
usemtl metal.017
f 91/182/82 92/183/83 90/184/84
f 90/184/85 91/182/86 89/185/87
f 89/186/87 94/187/88 93/188/89
f 94/187/88 89/186/87 91/189/86
f 96/190/90 95/191/91 97/192/92
f 97/192/92 98/193/93 96/190/90
f 99/184/94 90/185/84 92/182/83
f 92/182/85 99/184/95 100/183/96
f 102/194/97 103/195/98 101/196/99
f 103/195/98 102/194/97 104/197/100
f 106/198/101 104/199/51 103/200/51
f 103/200/100 106/198/102 105/201/103
f 108/202/104 109/203/105 107/204/106
f 109/203/105 108/202/104 110/205/107
f 112/206/108 111/207/109 113/208/110
f 113/208/110 114/209/111 112/206/108
f 117/210/112 118/211/113 116/212/113
f 116/212/114 117/210/115 115/213/115
f 120/214/116 121/215/117 119/216/118
f 121/215/117 120/214/116 122/217/119
f 124/218/120 125/219/121 123/220/122
f 125/219/121 124/218/120 126/221/123
f 123/222/122 114/223/124 112/224/125
f 114/223/124 123/222/122 125/225/121
f 128/226/126 129/227/127 127/228/128
f 129/227/127 128/226/126 130/229/129
f 132/230/130 131/231/131 133/232/132
f 133/232/132 134/233/133 132/230/130
f 136/234/134 135/235/135 137/236/136
f 137/236/136 138/237/137 136/234/134
f 141/238/138 95/239/138 97/240/138
f 140/241/85 141/238/139 139/242/100
f 141/238/139 140/241/85 97/240/85
f 142/243/140 143/244/141 141/245/142
f 141/245/139 142/243/143 139/246/100
f 145/247/144 144/248/145 146/249/146
f 146/249/147 145/247/148 147/250/148
f 138/251/137 137/252/136 148/253/149
f 148/253/149 149/254/150 138/251/137
f 151/255/151 150/256/152 152/257/152
f 152/257/52 151/255/153 153/258/154
f 93/200/89 155/198/155 154/201/156
f 155/198/155 93/200/89 94/199/88
f 158/259/157 159/260/158 157/261/158
f 157/261/159 158/259/160 156/262/161
f 161/263/162 160/264/162 162/265/163
f 162/265/164 161/263/165 163/266/166
f 119/267/118 165/268/167 164/269/168
f 165/268/167 119/267/118 121/270/117
f 167/271/169 168/272/170 166/273/171
f 168/272/170 167/271/169 169/274/172
f 171/275/173 166/276/171 170/277/174
f 166/276/171 171/275/173 167/278/169
f 172/279/175 145/280/176 147/281/177
f 147/281/177 173/282/178 172/279/175
f 126/283/179 117/284/180 115/285/181
f 115/285/182 126/283/123 124/286/120
f 163/287/166 170/288/174 162/289/164
f 170/288/174 163/287/166 171/290/173
f 175/265/183 174/266/184 176/263/185
f 176/263/186 175/265/187 140/264/186
f 178/291/100 177/292/100 160/293/162
f 160/293/188 178/291/51 161/294/188
f 131/295/131 179/296/189 173/297/178
f 173/297/178 147/298/177 131/295/131
f 147/298/177 133/299/132 131/295/131
f 147/298/177 146/300/190 133/299/132
f 146/300/190 170/301/190 133/299/132
f 180/302/191 177/303/190 160/304/190
f 180/302/191 159/305/190 177/303/190
f 180/302/191 130/306/192 159/305/190
f 130/306/192 158/307/190 159/305/190
f 130/306/192 129/308/190 158/307/190
f 129/308/190 181/309/190 158/307/190
f 110/310/190 182/311/190 181/309/190
f 110/310/190 109/312/190 153/313/190
f 109/312/190 152/314/190 153/313/190
f 138/315/137 97/316/190 140/317/190
f 138/315/137 149/318/150 97/316/190
f 149/318/150 98/319/190 97/316/190
f 183/320/190 98/319/190 120/321/190
f 104/322/190 102/323/190 118/324/190
f 106/325/190 104/322/190 117/326/180
f 106/325/190 117/326/180 126/327/179
f 100/328/190 106/325/190 126/327/179
f 100/328/190 126/327/179 125/329/190
f 91/330/190 92/331/190 125/329/190
f 91/330/190 125/329/190 114/332/190
f 168/333/190 155/334/190 113/335/110
f 168/333/190 113/335/110 184/336/193
f 166/337/190 168/333/190 184/336/193
f 146/300/194 170/301/194 162/338/194
f 146/300/194 162/338/194 160/304/194
f 146/300/194 160/304/194 180/302/194
f 129/308/194 181/309/194 110/310/194
f 110/310/194 182/311/194 153/313/194
f 109/312/194 152/314/194 136/339/194
f 136/339/194 152/314/194 175/340/194
f 136/339/194 175/340/194 140/317/194
f 136/339/194 140/317/194 138/315/194
f 98/319/194 119/341/118 149/318/194
f 98/319/194 120/321/116 119/341/118
f 183/320/194 118/324/195 120/321/116
f 102/323/194 118/324/195 183/320/194
f 104/322/194 117/326/194 118/324/194
f 92/331/194 125/329/194 100/328/194
f 94/342/194 114/332/194 91/330/194
f 94/342/194 113/335/194 114/332/194
f 155/334/194 113/335/194 94/342/194
f 170/301/194 184/336/196 166/337/194
f 184/336/196 170/301/194 133/299/197
f 149/318/190 164/343/190 119/341/190
f 174/291/184 175/292/183 152/293/152
f 152/293/52 174/291/187 150/294/52
f 169/195/198 168/197/187 155/194/199
f 155/194/199 154/196/52 169/195/198
f 136/344/200 109/345/201 107/346/201
f 107/346/202 136/344/203 135/347/203
f 185/1/204 179/348/189 131/349/131
f 131/349/131 132/350/130 185/1/204
f 182/351/205 181/352/206 187/353/207
f 187/353/138 182/351/82 186/354/82
f 127/355/208 108/356/209 110/357/210
f 110/357/210 129/358/211 127/355/208
f 134/359/212 184/360/196 133/361/197
f 184/360/196 134/359/212 188/362/213
f 130/363/192 180/364/191 189/365/214
f 189/365/215 130/363/129 128/366/126
f 141/367/142 143/368/141 96/369/194
f 96/369/90 141/367/190 95/370/91
f 185/1/216 172/371/175 173/372/178
f 173/372/217 185/1/218 179/373/218
f 178/255/219 159/257/220 157/256/101
f 159/257/220 178/255/219 177/258/51
f 183/241/138 142/242/138 143/238/138
f 143/238/138 98/240/93 183/241/138
f 143/238/138 96/239/90 98/240/93
f 149/374/150 148/375/149 165/376/221
f 165/376/167 149/374/222 164/377/168
f 118/378/195 122/379/119 120/380/116
f 122/379/119 118/378/195 116/381/223
f 153/259/151 182/260/205 186/261/205
f 186/261/224 153/259/154 151/262/153
f 156/353/225 187/354/207 181/351/206
f 181/351/138 156/353/161 158/352/160
f 111/382/109 188/383/226 184/384/193
f 184/384/193 113/385/110 111/382/109
f 144/386/145 189/387/214 180/388/191
f 180/388/191 146/389/146 144/386/145
f 183/272/227 190/274/228 101/271/229
f 101/271/99 183/272/230 102/273/97
f 105/186/103 100/187/96 99/188/95
f 100/187/96 105/186/103 106/189/102
f 139/367/194 142/368/194 183/369/194
f 183/369/194 140/370/194 139/367/194
f 198/390/231 169/391/172 167/392/169
f 198/390/231 154/393/156 169/391/172
f 198/390/231 199/394/232 154/393/156
f 199/394/232 93/395/89 154/393/156
f 201/396/194 202/397/194 105/398/194
f 203/399/233 176/370/194 190/369/194
f 176/370/194 203/399/233 204/400/234
f 174/401/194 176/370/194 204/400/234
f 174/401/194 204/400/234 205/402/194
f 151/403/153 150/404/194 205/402/194
f 151/403/153 205/402/194 206/405/194
f 186/406/224 151/403/153 206/405/194
f 187/407/194 206/405/194 207/408/194
f 157/409/159 156/410/161 208/411/194
f 163/412/166 161/413/165 209/414/194
f 163/412/166 209/414/194 197/415/194
f 197/415/194 171/416/173 163/412/166
f 192/417/235 193/418/236 191/1/237
f 193/418/236 192/417/235 194/419/190
f 194/419/190 192/417/235 195/420/238
f 194/419/190 195/420/238 196/421/239
f 196/421/239 195/420/238 197/415/190
f 196/421/239 197/415/190 171/416/190
f 196/421/239 171/416/190 167/392/190
f 196/421/239 167/392/190 198/390/240
f 199/394/241 93/395/190 89/422/190
f 199/394/241 89/422/190 200/423/242
f 200/423/242 89/422/190 90/424/84
f 200/423/242 90/424/84 201/396/190
f 201/396/190 90/424/84 99/425/94
f 201/396/190 99/425/94 105/398/190
f 202/397/243 105/398/190 103/426/190
f 202/397/243 103/426/190 101/427/229
f 202/397/243 101/427/229 203/399/244
f 203/399/244 101/427/229 190/369/228
f 150/404/190 205/402/190 174/401/190
f 187/407/190 206/405/190 186/406/190
f 156/410/225 207/408/190 187/407/207
f 156/410/225 208/411/190 207/408/190
f 178/428/190 208/411/190 157/409/190
f 178/428/190 209/414/190 208/411/190
f 161/413/190 209/414/190 178/428/190
f 203/399/233 210/429/245 204/400/234
f 210/429/245 211/430/246 204/400/234
f 210/429/245 212/431/194 211/430/246
f 212/431/247 214/432/248 213/433/249
f 212/431/190 211/430/190 213/433/190
f 201/434/250 200/435/251 123/436/252
f 123/436/252 124/437/253 201/434/250
f 202/438/243 124/439/120 201/440/157
f 124/439/120 202/438/243 115/441/182
f 115/442/101 116/443/51 203/444/51
f 203/444/244 115/442/182 202/445/243
f 122/446/254 210/447/245 203/448/233
f 203/448/100 122/446/119 116/449/223
f 210/450/245 122/451/254 121/452/255
f 121/452/163 210/450/162 212/453/163
f 165/454/256 214/455/248 212/456/247
f 212/456/247 121/457/255 165/454/256
f 148/458/257 213/459/249 214/460/248
f 214/460/143 148/458/258 165/461/143
f 137/462/259 211/463/259 213/464/257
f 213/464/258 137/462/187 148/465/258
f 135/466/152 204/467/234 211/468/246
f 211/468/187 135/466/52 137/469/187
f 135/470/152 107/471/151 205/472/151
f 205/472/260 135/470/52 204/473/52
f 107/474/151 108/475/205 206/476/205
f 206/476/82 107/474/260 205/477/260
f 108/478/209 127/479/208 207/480/261
f 207/480/138 108/478/82 206/481/82
f 208/480/262 207/481/261 127/478/208
f 127/478/208 128/479/263 208/480/262
f 209/476/264 208/477/262 128/474/263
f 128/474/263 189/475/158 209/476/264
f 189/470/214 144/471/145 197/472/265
f 197/472/51 189/470/101 209/473/101
f 197/468/265 144/469/145 145/466/144
f 145/466/144 195/467/162 197/468/265
f 195/464/238 172/462/266 145/465/188
f 172/462/266 195/464/238 192/463/235
f 185/1/143 191/482/143 192/460/163
f 192/460/235 185/1/140 172/461/266
f 191/482/237 132/454/267 185/1/140
f 132/454/267 191/482/237 193/455/236
f 134/452/268 194/453/269 193/450/258
f 193/450/236 134/452/259 132/451/267
f 194/448/269 134/449/268 188/446/270
f 188/446/270 196/447/52 194/448/269
f 198/444/240 188/442/271 196/445/239
f 188/442/271 198/444/240 111/443/151
f 199/438/232 198/440/231 111/439/260
f 111/439/151 199/438/241 112/441/272
f 112/436/82 123/437/252 200/434/251
f 200/434/242 112/436/272 199/435/241
usemtl glass.003
f 162/412/194 170/416/194 166/392/194
f 155/393/194 177/428/194 160/413/194
f 155/393/194 159/409/194 177/428/194
f 155/393/194 94/395/194 159/409/194
f 92/424/194 181/407/194 158/410/194
f 92/424/194 100/425/194 181/407/194
f 100/425/194 182/406/194 181/407/194
f 106/398/194 153/403/194 182/406/194
f 106/398/194 142/368/194 153/403/194
f 104/426/194 102/427/194 183/369/194
f 153/403/194 142/368/194 139/367/194
f 139/367/194 152/404/194 153/403/194
f 139/367/194 140/370/194 152/404/194
f 166/392/190 162/412/190 168/391/190
f 168/391/190 162/412/190 160/413/190
f 168/391/190 160/413/190 155/393/190
f 94/395/190 159/409/190 91/422/190
f 91/422/190 159/409/190 158/410/190
f 91/422/190 158/410/190 92/424/190
f 100/425/190 182/406/190 106/398/190
f 106/398/190 142/368/190 104/426/190
f 104/426/190 142/368/190 183/369/190
f 140/370/190 152/404/190 175/401/190
usemtl _defaultMat.002
f 183/187/190 140/189/190 97/186/190
f 97/187/190 98/189/190 183/186/190
f 140/246/273 176/483/274 190/484/228
f 190/484/228 183/243/227 140/246/273
