# Blender 4.3.2
# www.blender.org
mtllib bathroomMirror.mtl
o bathroomMirror
v -0.090867 0.048800 -0.434625
v -0.210473 0.048800 -0.434625
v -0.090867 0.024400 -0.434625
v -0.210473 0.024400 -0.434625
v 0.000000 0.048800 -0.000000
v -0.000000 0.024400 -0.000000
v -0.301340 0.048800 -0.000000
v -0.301340 0.024400 -0.000000
v -0.037200 0.024400 -0.035770
v -0.037200 0.024400 -0.381240
v -0.037200 0.036600 -0.035770
v -0.037200 0.036600 -0.381240
v -0.000000 0.048800 -0.407626
v -0.301340 0.048800 -0.407626
v -0.096484 0.036600 -0.398855
v -0.096484 0.024400 -0.398855
v -0.204856 0.036600 -0.398855
v -0.204856 0.024400 -0.398855
v -0.301340 0.024400 -0.035770
v -0.264140 0.024400 -0.035770
v -0.301340 0.024400 -0.407626
v -0.264140 0.024400 -0.381240
v -0.000000 0.024400 -0.407626
v -0.000000 0.024400 -0.035770
v -0.000000 0.024400 -0.020000
v -0.301340 0.024400 -0.020000
v -0.264140 0.036600 -0.035770
v -0.264140 0.036600 -0.381240
v -0.301340 -0.095600 -0.020000
v -0.000000 -0.095600 -0.020000
v -0.301340 -0.095600 -0.035770
v -0.000000 -0.095600 -0.035770
vn 0.0227 0.6798 -0.7331
vn 0.1154 0.5973 -0.7937
vn -0.0212 -0.6654 -0.7462
vn -0.1154 -0.5973 -0.7937
vn 0.5773 -0.5774 0.5774
vn 0.5774 0.5773 0.5773
vn -0.5774 0.5774 0.5773
vn -0.5774 -0.5774 0.5774
vn -0.3965 -0.8691 0.2958
vn -0.5773 -0.5773 -0.5774
vn -0.5774 -0.5774 -0.5773
vn -0.6447 -0.5941 0.4810
vn 0.6447 0.5941 -0.4810
vn -0.6447 0.5941 -0.4810
vn -0.0917 -0.7380 0.6686
vn -0.0213 -0.7319 0.6811
vn 0.1773 -0.6720 0.7190
vn 0.5773 -0.5774 -0.5773
vn -0.0000 -1.0000 -0.0000
vn -0.6447 -0.5941 -0.4810
vn 0.3965 -0.8691 0.2958
vn 0.8944 -0.4472 -0.0000
vn 0.6447 -0.5941 -0.4810
vn -0.8944 -0.4472 -0.0000
vn -1.0000 -0.0000 -0.0000
vn 0.5774 -0.5773 -0.5774
vn 0.6447 -0.5941 0.4810
vn 0.1017 -0.6733 0.7323
vn -0.0000 -0.0000 -1.0000
vn 0.7071 -0.0000 -0.7071
vn 0.7071 -0.0000 0.7071
vn 0.7967 -0.0000 0.6044
vn -0.0000 -0.0000 1.0000
vn -0.0000 1.0000 -0.0000
vn 1.0000 -0.0000 -0.0000
vt 8.286342 1.921260
vt 3.577438 1.921260
vt 3.577438 0.960630
vt 8.286342 0.960630
vt -0.000000 0.960630
vt 0.000000 1.921260
vt -11.863780 1.921260
vt -11.863780 0.960630
vt 0.960630 15.009460
vt 0.960630 1.408256
vt 1.440945 1.408256
vt 1.440945 15.009460
vt -0.000000 16.048250
vt -11.863780 16.048250
vt -11.863780 0.000000
vt -3.577438 17.111219
vt -8.286342 17.111219
vt 1.440945 8.113820
vt 0.960630 8.113820
vt 0.960630 5.678985
vt -3.798570 0.960630
vt -3.798570 1.440945
vt -8.065209 1.440945
vt 10.399190 1.408256
vt 11.863780 1.408256
vt 11.863780 16.048250
vt 10.399190 15.009460
vt 0.000000 1.408256
vt 1.464586 1.408256
vt 1.464586 15.009460
vt 8.286342 17.111219
vt 0.000000 16.048250
vt 3.577438 17.111219
vt 11.863780 0.787402
vt 0.000000 0.787402
vt 0.000000 0.000000
vt 1.921260 0.000000
vt 1.921260 16.048250
vt 0.960630 16.048250
vt 0.960630 0.787402
vt -1.921260 8.302953
vt -1.921260 4.570934
vt -0.960630 4.570934
vt -0.960630 8.302953
vt 10.399190 1.440945
vt 1.464586 1.440945
vt 1.464586 0.960630
vt -1.440945 1.408256
vt -0.960630 1.408256
vt -0.960630 15.009460
vt -1.440945 15.009460
vt -0.960630 16.048250
vt -1.921260 16.048250
vt -0.960630 -3.258558
vt -1.440945 -3.258558
vt -1.440945 -5.693394
vt -0.960630 -5.693394
vt 8.065209 15.702960
vt 3.798570 15.702960
vt 0.000000 0.960630
vt 0.000000 -3.763780
vt 11.863780 -3.763780
vt 10.399190 0.960630
vt 11.863780 0.960630
vt -0.960630 0.787402
vt 3.763780 0.787402
vt 3.763780 1.408256
vt -0.000000 -3.763780
vt -0.000000 0.000000
vt 1.440945 5.678985
vt -8.065209 0.960630
vt 11.863780 0.000000
vt 0.960630 0.000000
vt -1.921260 0.000000
vt -0.960630 0.000000
vt 1.921260 -6.801445
vt 1.921260 -3.069425
vt 0.960630 -3.069425
vt 0.960630 -6.801445
vt 0.000000 0.787402
vt 0.000000 1.408256
vt -3.763780 0.787402
vt -3.763780 1.408256
vt -11.863780 -3.763780
s 1
usemtl wood.024
f 2/1/1 1/2/2 3/3/3
f 3/3/3 4/4/4 2/1/1
f 6/5/5 5/6/6 7/7/7
f 7/7/7 8/8/8 6/5/5
f 10/9/9 9/10/10 11/11/11
f 11/11/11 12/12/12 10/9/9
f 13/13/13 14/14/14 7/15/7
f 13/13/13 1/16/2 14/14/14
f 1/16/2 2/17/1 14/14/14
f 15/18/15 16/19/16 10/20/9
f 16/21/16 15/22/15 17/23/17
f 20/24/18 19/25/19 21/26/20
f 21/26/20 22/27/21 20/24/18
f 24/28/22 9/29/10 10/30/9
s 0
f 20/24/19 9/29/19 24/28/19
s 1
f 21/26/20 4/31/4 23/32/23
f 4/31/4 3/33/3 23/32/23
f 26/34/24 25/35/22 6/36/5
f 7/37/7 14/38/14 21/39/20
s 0
f 19/10/25 26/40/25 21/39/25
s 1
f 1/41/2 13/42/13 23/43/23
f 23/43/23 3/44/3 1/41/2
f 27/45/26 11/46/11 9/47/10
f 27/48/26 20/49/18 22/50/21
f 22/50/21 28/51/27 27/48/26
f 24/49/22 23/52/23 13/53/13
f 18/54/28 17/55/17 28/56/27
f 28/56/27 22/57/21 18/54/28
f 7/15/7 5/69/6 13/13/13
f 10/20/9 12/70/12 15/18/15
f 17/23/17 18/71/28 16/21/16
f 21/26/20 18/58/28 22/27/21
f 21/26/20 16/59/16 18/58/28
f 16/59/16 21/26/20 23/32/23
f 10/30/9 16/59/16 23/32/23
f 10/30/9 23/32/23 24/28/22
s 0
f 19/25/19 20/24/19 24/28/19
s 1
f 19/25/19 24/28/19 25/35/19
f 25/35/19 26/34/19 19/25/19
f 6/36/5 8/72/8 26/34/24
f 26/40/24 8/73/8 7/37/7
f 7/37/7 21/39/20 26/40/24
f 9/47/10 20/63/18 27/45/26
f 24/49/22 13/53/13 5/74/6
f 25/65/22 24/49/22 5/74/6
f 5/74/6 6/75/5 25/65/22
f 14/76/14 2/77/1 4/78/4
f 4/78/4 21/79/20 14/76/14
usemtl metal.019
f 11/29/11 27/24/26 28/27/27
f 28/27/27 12/30/12 11/29/11
f 28/27/27 17/58/17 12/30/12
f 17/58/17 15/59/15 12/30/12
usemtl glass.006
f 9/47/29 24/60/30 32/61/30
f 32/61/30 31/62/29 9/47/29
f 31/62/29 20/63/29 9/47/29
f 31/62/29 19/64/29 20/63/29
f 25/65/31 30/66/32 32/67/30
f 32/67/30 24/49/30 25/65/31
f 30/68/32 25/5/31 26/8/33
f 30/80/19 29/34/19 31/25/19
f 31/25/34 30/80/34 32/81/34
f 29/82/25 26/40/25 19/10/25
f 19/10/35 29/82/35 31/83/35
f 26/8/29 30/68/29 29/84/29
