# Blender 4.3.2
# www.blender.org
mtllib table.mtl
o table
v -0.048503 0.197900 -0.048503
v -0.048503 0.197900 -0.097007
v -0.792984 0.197900 -0.048503
v -0.792984 0.197900 -0.097007
v -0.792984 0.249473 -0.048503
v -0.792984 0.249473 -0.097007
v -0.048503 0.249473 -0.048503
v -0.048503 0.249473 -0.097007
v -0.048503 0.447373 -0.278230
v -0.048503 0.395800 -0.278230
v -0.792984 0.447373 -0.278230
v -0.792984 0.395800 -0.278230
v -0.792984 0.000000 -0.278230
v -0.048503 0.000000 -0.278230
v -0.048503 0.051573 -0.278230
v -0.000000 0.395800 -0.278230
v -0.000000 0.051573 -0.278230
v -0.792984 0.051573 -0.278230
v -0.841488 0.395800 -0.278230
v -0.841488 0.051573 -0.278230
v -0.024252 0.395800 -0.048503
v -0.024252 0.051573 -0.048503
v -0.048503 0.395800 -0.048503
v -0.048503 0.051573 -0.048503
v -0.817236 0.395800 -0.048503
v -0.792984 0.395800 -0.048503
v -0.817236 0.051573 -0.048503
v -0.792984 0.051573 -0.048503
v -0.024252 0.051573 -0.097007
v -0.024252 0.395800 -0.097007
v -0.048503 0.051573 -0.097007
v -0.048503 0.395800 -0.097007
v -0.817236 0.395800 -0.097007
v -0.792984 0.395800 -0.097007
v -0.817236 0.051573 -0.097007
v -0.792984 0.051573 -0.097007
v -0.792984 0.000000 -0.000000
v -0.792984 0.051573 -0.000000
v -0.841488 0.395800 -0.000000
v -0.841488 0.447373 -0.000000
v -0.841488 0.447373 -0.326734
v -0.841488 0.000000 -0.326734
v -0.841488 0.051573 -0.000000
v -0.841488 0.000000 -0.000000
v -0.792984 0.447373 -0.000000
v -0.792984 0.395800 -0.000000
v -0.000000 0.051573 -0.000000
v -0.000000 0.000000 -0.000000
v -0.048503 0.051573 0.000000
v -0.048503 0.000000 0.000000
v -0.000000 0.447373 -0.000000
v -0.000000 0.395800 -0.000000
v -0.048503 0.447373 -0.000000
v -0.048503 0.395800 -0.000000
v -0.000000 0.000000 -0.326734
v 0.000000 0.447373 -0.326734
vn -0.5773 -0.5774 -0.5773
vn -0.3015 -0.3015 0.9045
vn 0.3015 -0.3015 0.9045
vn 0.3015 -0.3015 -0.9045
vn -0.3015 0.3015 0.9045
vn -0.5773 0.5773 -0.5774
vn 0.3015 0.3015 -0.9045
vn -0.4472 -0.0000 0.8944
vn -0.3015 0.9045 0.3015
vn 0.3015 0.9045 0.3015
vn 0.9045 -0.3015 0.3015
vn -0.0000 -0.7071 0.7071
vn -0.0000 0.7071 0.7071
vn 0.9045 0.3015 0.3015
vn -0.0000 -0.0000 1.0000
vn -0.9045 -0.3015 0.3015
vn 0.3015 -0.9045 0.3015
vn -0.5773 -0.5774 0.5773
vn -0.5773 0.5774 0.5773
vn 0.3015 0.3015 0.9045
vn -0.3015 -0.9045 0.3015
vn 1.0000 -0.0000 -0.0000
vn 0.5774 0.5774 0.5774
vn 0.5773 -0.5773 0.5774
vn 0.5774 0.5773 -0.5774
vn 0.5773 0.5774 0.5773
vn -0.5773 0.5773 0.5774
vn -0.5774 0.5774 -0.5773
vn -0.9045 0.3015 0.3015
vn -0.5774 -0.5774 -0.5773
vn 0.9045 -0.3015 -0.3015
vn -0.3015 -0.9045 -0.3015
vn -0.3015 0.9045 -0.3015
vn 0.3015 -0.9045 -0.3015
vn 0.5774 0.5773 0.5774
vn -0.5774 -0.5774 0.5774
vn 0.5773 0.5774 -0.5773
vn 0.5774 -0.5774 -0.5773
vn 0.5773 0.5773 0.5774
vn 0.3015 0.9045 -0.3015
vn -0.0000 -0.7071 -0.7071
vn -1.0000 -0.0000 -0.0000
vn -0.0000 0.7071 -0.7071
vn -0.0000 -0.0000 -0.0000
vn -0.0000 -0.0000 -1.0000
vn -0.5774 -0.5773 0.5774
vn 0.5774 0.5773 0.5773
vt 1.909586 3.819173
vt 1.909586 1.909586
vt 31.219860 1.909586
vt 31.219860 3.819173
vt -1.909586 1.909586
vt -1.909586 3.819173
vt -31.219860 3.819173
vt -1.909586 15.582680
vt -1.909586 17.613119
vt -31.219860 17.613119
vt -0.000000 15.582680
vt -1.909586 2.030446
vt -0.000000 2.030446
vt -31.219860 15.582680
vt -31.219860 2.030446
vt -31.219860 0.000000
vt -33.129452 15.582680
vt -0.954793 2.030446
vt -0.954793 15.582680
vt -1.909586 9.821785
vt -1.909586 7.791339
vt -31.219860 7.791339
vt -31.219860 9.821785
vt -32.174660 15.582680
vt -2.030446 10.953960
vt -2.030446 0.000000
vt 0.000000 0.000000
vt -2.030446 3.819173
vt -7.791339 3.819173
vt -2.030446 1.909586
vt 15.582680 10.953960
vt 17.613119 0.000000
vt 17.613119 12.863540
vt 2.030446 10.953960
vt -0.000000 12.863540
vt 2.030446 0.000000
vt -15.582680 3.819173
vt -15.582680 10.953960
vt -17.613119 10.953960
vt -15.582680 1.909586
vt 15.582680 3.819173
vt 2.030446 3.819173
vt 2.030446 1.909586
vt 33.129452 10.953960
vt 31.219860 10.953960
vt -0.000000 15.582680
vt -0.000000 17.613119
vt -17.613119 12.863540
vt -15.582680 0.000000
vt -0.000000 12.863540
vt -2.030446 0.000000
vt -1.909586 -0.000000
vt -0.000000 0.000000
vt -0.954793 1.909586
vt -0.000000 10.953960
vt -0.954793 3.819173
vt -33.129452 0.000000
vt -31.219860 0.000000
vt -31.219860 1.909586
vt -32.174660 1.909586
vt -32.174660 3.819173
vt -33.129452 10.953960
vt 0.954793 1.909586
vt -0.000000 0.000000
vt -0.000000 10.953960
vt 0.954793 3.819173
vt 0.000000 10.953960
vt 0.000000 0.000000
vt 2.030446 0.000000
vt 9.821785 1.909586
vt 15.582680 1.909586
vt 15.582680 0.000000
vt 17.613119 0.000000
vt 17.613119 10.953960
vt 33.129452 17.613119
vt -0.000000 17.613119
vt 0.000000 0.000000
vt 33.129452 0.000000
vt -0.000000 12.863540
vt -33.129452 12.863540
vt -1.909586 10.953960
vt -31.219860 10.953960
vt -33.129452 0.000000
vt -1.909586 0.000000
vt -33.129452 2.030446
vt -32.174660 2.030446
vt 0.954793 15.582680
vt 0.954793 2.030446
vt 1.909586 2.030446
vt 1.909586 15.582680
vt 1.909586 7.791339
vt 1.909586 9.821785
vt 31.219860 7.791339
vt 31.219860 9.821785
vt 32.174660 15.582680
vt 31.219860 15.582680
vt 32.174660 2.030446
vt 31.219860 2.030446
vt 0.000000 10.953960
vt -7.791339 1.909586
vt 15.582680 0.000000
vt -0.000000 0.000000
vt -17.613119 0.000000
vt -15.582680 0.000000
vt -9.821785 1.909586
vt -9.821785 3.819173
vt -33.129452 17.613119
vt -0.000000 0.000000
vt -0.000000 2.030446
vt -1.909586 0.000000
vt 32.174660 1.909586
vt 31.219860 0.000000
vt 33.129452 0.000000
vt 32.174660 3.819173
vt -17.613119 0.000000
vt -0.000000 0.000000
vt 1.909586 0.000000
vt 1.909586 10.953960
vt 7.791339 1.909586
vt 7.791339 3.819173
vt -31.219860 0.000000
vt -33.129452 0.000000
vt 9.821785 3.819173
vt 31.219860 0.000000
vt 33.129452 0.000000
vt 33.129452 12.863540
vt 0.000000 12.863540
vt 0.000000 0.000000
vt 1.909586 0.000000
vt -1.909586 0.000000
vt -0.000000 0.000000
vt -31.219860 0.000000
s 1
usemtl wood.012
f 2/1/1 1/2/2 3/3/3
f 3/3/3 4/4/4 2/1/1
f 7/5/5 8/6/6 6/7/7
f 10/8/8 9/9/9 11/10/10
f 16/11/11 10/8/12 15/12/13
f 15/12/13 17/13/14 16/11/11
s 0
f 12/14/15 18/15/15 13/16/15
s 1
f 18/15/13 12/14/3 19/17/16
f 22/18/10 21/19/17 23/8/18
f 7/20/5 1/21/2 22/18/10
f 1/21/2 24/12/19 22/18/10
f 3/22/3 1/21/2 7/20/5
f 7/20/5 5/23/20 3/22/3
f 5/23/20 26/14/11 25/24/21
f 18/25/22 38/26/23 37/27/24
s 0
f 18/25/22 36/28/22 38/26/22
s 1
f 36/28/25 4/29/4 28/30/26
f 19/31/16 40/32/27 41/33/28
f 20/34/29 41/33/28 42/35/30
f 43/36/27 20/34/29 42/35/30
f 34/37/31 12/38/3 11/39/10
f 11/39/10 26/40/11 34/37/31
f 33/41/32 35/42/33 27/43/9
f 19/44/16 12/45/3 34/4/31
f 30/37/34 21/40/17 22/30/10
f 52/46/24 51/47/35 53/9/27
f 53/9/27 54/8/36 52/46/24
f 56/48/37 16/38/11 17/25/14
f 56/48/37 52/49/24 16/38/11
f 55/50/38 17/25/14 47/51/39
f 24/5/19 49/52/27 47/53/39
f 47/53/39 22/54/10 24/5/19
f 17/55/14 29/56/40 22/54/10
f 43/57/27 38/58/23 28/59/26
f 27/60/9 35/61/33 20/62/29
f 23/2/18 21/63/17 52/64/24
f 16/65/11 52/64/24 21/63/17
f 21/63/17 30/66/34 16/65/11
f 30/66/34 32/1/41 16/65/11
f 14/67/21 50/68/36 49/69/27
f 7/70/5 23/71/18 32/41/42
s 0
f 23/71/42 10/31/42 32/41/42
f 23/71/42 54/72/42 10/31/42
s 1
f 53/73/27 9/74/9 10/31/8
f 41/75/28 56/76/37 55/77/38
f 55/77/38 42/78/30 41/75/28
f 56/79/37 41/80/28 9/81/9
f 11/82/10 41/80/28 40/83/27
f 6/7/7 5/59/20 7/5/5
f 10/8/8 11/10/10 12/14/3
f 10/8/8 12/14/3 13/16/17
f 10/8/8 13/16/17 14/84/21
s 0
f 10/8/15 14/84/15 15/12/15
s 1
f 19/17/16 20/85/29 18/15/13
f 23/8/18 7/20/5 22/18/10
f 25/24/21 3/22/3 5/23/20
f 25/24/21 27/86/9 3/22/3
f 28/15/26 3/22/3 27/86/9
f 30/87/34 29/88/40 31/89/43
f 31/89/43 32/90/41 30/87/34
s 0
f 31/89/44 2/91/44 32/90/44
f 2/91/45 8/92/45 32/90/45
s 1
f 2/91/1 4/93/4 8/92/6
f 4/93/4 6/94/7 8/92/6
f 6/94/7 4/93/4 33/95/32
f 33/95/32 34/96/31 6/94/7
f 4/93/4 35/97/33 33/95/32
f 4/93/4 36/98/25 35/97/33
f 37/27/24 13/99/17 18/25/22
s 0
f 36/28/22 28/30/22 38/26/22
s 1
f 4/29/4 3/100/3 28/30/26
f 19/31/16 39/101/46 40/32/27
f 20/34/29 19/31/16 41/33/28
f 42/35/30 44/102/36 43/36/27
f 26/40/11 11/39/10 45/103/47
f 45/103/47 46/104/24 26/40/11
f 34/37/31 26/40/11 5/105/20
f 5/105/20 6/106/7 34/37/31
f 46/14/24 45/10/47 40/107/27
f 40/107/27 39/17/46 46/14/24
f 27/43/9 25/71/21 33/41/32
f 48/108/24 47/109/39 49/12/27
f 49/12/27 50/110/36 48/108/24
f 25/111/21 46/112/24 39/113/46
f 39/113/46 19/44/16 25/111/21
f 19/44/16 33/114/32 25/111/21
f 19/44/16 34/4/31 33/114/32
f 46/112/24 25/111/21 26/3/11
f 22/30/10 29/28/40 30/37/34
f 17/25/14 55/50/38 56/48/37
f 56/48/37 51/115/35 52/49/24
f 47/51/39 48/116/24 55/50/38
f 47/53/39 17/55/14 22/54/10
f 17/55/14 15/81/13 29/56/40
f 31/6/43 29/56/40 15/81/13
f 28/59/26 27/60/9 43/57/27
f 20/62/29 43/57/27 27/60/9
f 35/61/33 36/7/25 20/62/29
f 36/7/25 18/82/13 20/62/29
f 52/64/24 54/117/36 23/2/18
f 32/1/41 10/118/12 16/65/11
f 31/42/42 24/43/19 1/119/2
f 1/119/2 2/120/1 31/42/42
s 0
f 24/43/42 31/42/42 15/34/42
f 49/69/42 24/43/42 15/34/42
s 1
f 49/69/27 15/34/42 14/67/21
f 37/121/24 38/15/23 43/85/27
f 43/85/27 44/122/36 37/121/24
f 32/41/42 8/123/6 7/70/5
f 54/72/36 53/73/27 10/31/8
f 37/124/24 44/125/36 42/126/30
f 42/126/30 13/45/17 37/124/24
f 13/45/17 42/126/30 55/127/38
f 14/118/21 13/45/17 55/127/38
f 14/118/21 55/127/38 48/128/24
f 48/128/24 50/129/36 14/118/21
f 9/81/9 53/130/27 51/131/35
f 51/131/35 56/79/37 9/81/9
f 11/82/10 9/81/9 41/80/28
f 40/83/27 45/132/47 11/82/10
