# Blender 4.3.2
# www.blender.org
mtllib cash-register.mtl
o cash-register.001
v 0.000000 -0.350000 -0.150000
v 0.000000 -0.350000 0.000000
v 0.000000 0.400000 -0.150000
v 0.000000 0.400000 0.000000
v -0.400000 -0.350000 0.000000
v -0.400000 -0.350000 -0.150000
v -0.400000 0.350000 0.000000
v -0.400000 0.350000 -0.150000
v -0.350000 -0.400000 0.000000
v -0.050000 -0.400000 0.000000
v -0.350000 -0.400000 -0.150000
v -0.050000 -0.400000 -0.150000
v -0.350000 0.400000 0.000000
v -0.350000 0.400000 -0.150000
v 0.400000 0.000000 -0.250000
v 0.400000 0.000000 0.000000
v 0.400000 0.300000 -0.250000
v 0.400000 0.300000 0.000000
v 0.000000 0.000000 0.000000
v 0.000000 0.000000 -0.250000
v 0.000000 0.400000 -0.250000
v 0.300000 0.400000 0.000000
v 0.300000 0.400000 -0.250000
v 0.370711 0.370711 0.000000
v 0.370711 0.370711 -0.250000
v 0.275487 0.257939 -0.344900
v 0.323783 0.244998 -0.344900
v 0.275487 0.257939 -0.569900
v 0.323783 0.244998 -0.569900
v 0.332934 0.279149 -0.359545
v 0.284637 0.292090 -0.359545
v 0.336724 0.293294 -0.519900
v 0.288428 0.306235 -0.519900
v 0.332934 0.279149 -0.555255
v 0.284637 0.292090 -0.555255
v 0.336724 0.293294 -0.394900
v 0.288428 0.306235 -0.394900
v 0.000000 0.350000 -0.150000
v 0.000000 -0.350000 -0.250000
v 0.000000 0.350000 -0.250000
v -0.400000 -0.350000 -0.250000
v -0.400000 0.350000 -0.250000
v -0.400000 -0.400000 -0.200000
v -0.400000 -0.385355 -0.235355
v -0.400000 -0.385355 -0.164645
v -0.400000 0.385355 -0.164645
v -0.400000 0.385355 -0.235355
v -0.400000 0.400000 -0.200000
v 0.000000 -0.400000 -0.200000
v 0.000000 -0.385355 -0.164645
v 0.000000 -0.385355 -0.235355
v 0.000000 0.385355 -0.235355
v 0.000000 0.385355 -0.164645
v 0.000000 0.400000 -0.200000
v 0.208773 0.221463 -0.494900
v 0.363321 0.180052 -0.494900
v 0.184625 0.227933 -0.519900
v 0.387469 0.173581 -0.519900
v 0.184625 0.227933 -0.569900
v 0.387469 0.173581 -0.569900
v 0.208773 0.221463 -0.594900
v 0.363321 0.180052 -0.594900
v 0.450000 0.309946 -0.250000
v 0.450000 0.000000 -0.250000
v 0.408979 0.408979 -0.250000
v 0.400000 -0.050000 -0.250000
v 0.309946 0.450000 -0.250000
v 0.000000 -0.050000 -0.250000
v 0.000000 0.450000 -0.250000
v -0.050000 0.400000 -0.250000
v -0.050000 0.000000 -0.250000
v 0.450000 0.000000 -0.300000
v 0.450000 0.309946 -0.300000
v 0.400000 -0.050000 -0.300000
v 0.408979 0.408979 -0.300000
v 0.309946 0.450000 -0.300000
v 0.000000 -0.050000 -0.300000
v 0.000000 0.450000 -0.300000
v -0.050000 0.000000 -0.300000
v -0.050000 0.400000 -0.300000
v 0.222361 0.272174 -0.494900
v 0.198213 0.278644 -0.519900
v 0.376909 0.230763 -0.594900
v 0.222361 0.272174 -0.594900
v 0.376909 0.230763 -0.494900
v 0.198213 0.278644 -0.569900
v 0.401057 0.224292 -0.569900
v 0.401057 0.224292 -0.519900
v 0.198213 0.278645 -0.300000
v 0.153308 0.111056 -0.300000
v 0.151365 0.291197 -0.300000
v 0.106460 0.123609 -0.300000
v 0.120747 0.273520 -0.300000
v 0.088782 0.154228 -0.300000
v 0.153308 0.111056 -0.350000
v 0.198213 0.278645 -0.350000
v 0.106460 0.123609 -0.350000
v 0.088782 0.154228 -0.350000
v 0.120747 0.273520 -0.350000
v 0.151365 0.291197 -0.350000
v 0.346705 0.021448 -0.372450
v 0.387469 0.173581 -0.444900
v 0.143861 0.075800 -0.372450
v 0.184625 0.227933 -0.444900
v 0.143861 0.075800 -0.300000
v 0.346705 0.021448 -0.300000
v 0.401057 0.224293 -0.300000
v 0.401057 0.224293 -0.444900
v 0.198213 0.278645 -0.444900
v 0.198213 0.278645 -0.300000
v 0.158931 0.425356 -0.300000
v 0.008246 0.384980 -0.300000
v 0.166517 0.397045 -0.349378
v 0.015832 0.356669 -0.349378
v 0.029304 0.306393 -0.300000
v 0.179988 0.346768 -0.300000
v 0.021718 0.334703 -0.349378
v 0.172402 0.375079 -0.349378
v 0.169460 0.386062 -0.357312
v 0.018775 0.345686 -0.357312
vn 0.5773 0.5773 -0.5774
vn 0.8201 -0.3548 0.4489
vn 0.7482 0.0891 -0.6574
vn 0.7071 0.7071 -0.0000
vn -0.8198 0.3556 0.4488
vn -0.7512 -0.0039 -0.6601
vn -0.8614 -0.2711 0.4295
vn -0.7482 -0.0891 -0.6574
vn 0.0274 -0.8361 -0.5479
vn 0.3099 -0.8427 0.4403
vn -0.3431 -0.8287 0.4423
vn 0.3419 -0.8254 -0.4493
vn -0.3069 0.8437 0.4405
vn -0.3360 0.8112 -0.4786
vn -0.7071 0.7071 -0.0000
vn -0.5774 -0.5774 -0.5773
vn -0.7071 -0.7071 -0.0000
vn -0.5774 0.5774 -0.5774
vn 0.0233 0.7927 -0.6091
vn 0.1471 0.9665 0.2105
vn 0.5662 0.7544 -0.3322
vn 0.6342 0.6342 0.4423
vn 0.6593 0.0396 -0.7508
vn -0.6596 -0.3000 -0.6892
vn 0.4212 -0.5896 0.6892
vn -0.6596 -0.3000 0.6892
vn 0.4212 -0.5896 -0.6892
vn -0.3213 0.5491 0.7715
vn 0.6062 0.4879 0.6281
vn 0.6351 0.6307 -0.4459
vn -0.3191 0.9336 -0.1630
vn 0.8272 0.4874 -0.2795
vn -0.4652 0.8030 -0.3726
vn 0.8221 0.4706 0.3204
vn -0.2867 0.9434 0.1665
vn -0.6336 -0.0322 -0.7730
vn 0.6727 0.0212 -0.7396
vn 0.5617 -0.1614 -0.8114
vn -0.7973 -0.5280 -0.2926
vn -0.6728 -0.0141 0.7397
vn -0.6727 0.0212 0.7396
vn -0.7540 0.1649 -0.6358
vn -0.7973 0.5280 0.2926
vn -0.7142 0.6221 -0.3208
vn -0.6576 0.6583 -0.3663
vn 0.7142 -0.6221 -0.3208
vn 0.6600 -0.6964 0.2817
vn 0.6576 -0.6583 -0.3663
vn 0.7540 0.1649 0.6358
vn 0.7973 0.5280 -0.2926
vn 0.7142 0.6221 0.3208
vn 0.6576 0.6583 0.3663
vn -0.4144 -0.6435 0.6435
vn -0.2914 -0.9556 0.0441
vn -0.7272 -0.5679 0.3856
vn -0.1703 -0.6377 0.7512
vn -0.7417 -0.4819 0.4665
vn 0.3332 -0.7725 0.5405
vn -0.6771 -0.6803 -0.2806
vn 0.5526 -0.8288 -0.0881
vn -0.1781 -0.6575 -0.7321
vn 0.4014 -0.7882 -0.4665
vn 0.7373 -0.0048 0.6755
vn 0.6081 0.3675 0.7037
vn 0.5338 -0.5285 0.6601
vn 0.1942 0.6405 0.7430
vn -0.1190 -0.7459 0.6554
vn -0.3838 0.4358 0.8141
vn -0.7358 0.0054 0.6772
vn 0.7307 0.0061 -0.6827
vn 0.3516 -0.5795 -0.7352
vn 0.7101 0.2469 -0.6595
vn 0.2658 0.6905 -0.6728
vn -0.3754 -0.4742 -0.7964
vn -0.0879 0.7483 -0.6575
vn -0.7358 -0.0054 -0.6772
vn -0.4703 0.5884 -0.6578
vn 0.7486 0.0835 -0.6578
vn 0.7393 -0.0350 0.6725
vn 0.1445 0.5809 0.8010
vn 0.0846 0.6580 0.7483
vn -0.7257 0.6834 0.0788
vn 0.7414 0.4820 0.4668
vn 0.8110 0.2282 -0.5387
vn 0.6836 0.5002 -0.5316
vn -0.2797 0.3725 -0.8849
vn -0.5526 0.8288 -0.0881
vn -0.1261 0.5691 0.8125
vn 0.4082 -0.7071 0.5773
vn 0.7071 0.4082 0.5774
vn -0.2245 -0.7172 0.6597
vn 0.7071 0.4083 -0.5773
vn -0.3257 -0.8034 -0.4985
vn -0.8357 -0.3603 -0.4145
vn -0.9318 -0.1227 0.3417
vn 0.4082 -0.7071 -0.5774
vn -0.2688 0.5988 -0.7545
vn -0.3482 0.6660 -0.6597
vn -0.3722 -0.8582 -0.3534
vn 0.4083 -0.7071 0.5774
vn -0.7071 -0.4082 0.5774
vn 0.5979 -0.3262 -0.7322
vn 0.7071 0.4083 0.5774
vn -0.6809 0.0165 -0.7322
vn -0.4082 0.7071 -0.5774
vn -0.4082 0.7071 0.5774
vn -0.2226 0.8306 0.5104
vn -0.3757 0.6392 0.6710
vn -0.0002 0.7443 0.6679
vn 0.1921 -0.7169 0.6701
vn -0.0000 -0.0000 1.0000
vn 0.2766 0.1493 0.9493
vn 0.7071 -0.7071 -0.0000
vn 0.5774 -0.5774 -0.5774
vn 0.9679 0.1491 0.2023
vn 0.6727 -0.0212 0.7396
vn -0.4703 -0.5884 0.6578
vn -0.7091 0.1474 0.6895
vn -0.0770 -0.8420 -0.5339
vn -0.2021 0.7145 -0.6698
vn -0.2226 0.8306 -0.5104
vn -0.1921 0.7170 -0.6701
vn -0.0000 -0.0000 -1.0000
vn -0.1921 0.7169 -0.6701
vt 0.218750 0.225000
vt 0.218750 0.025000
vt 0.218750 0.038017
vt 0.218750 0.211983
vt 0.218750 0.180556
vt 0.218750 0.069444
vt 0.093750 0.225000
vt 0.093750 0.195711
vt 0.093750 0.025000
vt 0.093750 0.054289
vt 0.093750 0.125000
vt 0.093750 0.075000
vt 0.093750 0.175000
vt 0.468750 0.025000
vt 0.468750 0.225000
vt 0.468750 0.075000
vt 0.468750 0.175000
vt 0.468750 0.125000
vt 0.343750 0.325000
vt 0.343750 0.411156
vt 0.343750 0.425000
s 1
usemtl colormap.001
f 3/1/1 2/2/2 1/1/3
f 2/2/2 3/1/1 4/2/4
f 7/2/5 6/1/6 5/2/7
f 6/1/6 7/2/5 8/1/8
f 11/1/9 10/2/10 9/2/11
f 10/2/10 11/1/9 12/1/12
f 3/1/1 13/2/13 4/2/4
f 13/2/13 3/1/1 14/1/14
f 1/1/3 10/2/10 12/1/12
f 13/2/13 8/1/8 7/2/5
f 8/1/8 13/2/13 14/1/14
f 3/1/1 12/1/12 14/1/14
f 14/1/14 12/1/12 11/1/9
f 14/1/14 11/1/9 6/1/6
f 14/1/14 6/1/6 8/1/8
f 4/1/15 20/2/16 19/1/17
f 20/2/16 4/1/15 21/2/18
f 23/2/19 4/1/15 22/1/20
f 25/2/21 22/1/20 24/1/22
f 17/2/23 20/2/16 25/2/21
f 25/2/21 20/2/16 23/2/19
f 23/2/19 20/2/16 21/2/18
f 28/1/24 27/2/25 26/2/26
f 27/2/25 28/1/24 29/1/27
f 31/3/28 27/2/25 30/3/29
f 27/2/25 31/3/28 26/2/26
f 34/4/30 33/5/31 32/5/32
f 33/5/31 34/4/30 35/4/33
f 34/4/30 27/2/25 29/1/27
f 27/2/25 34/4/30 30/3/29
f 30/3/29 34/4/30 32/5/32
f 30/3/29 32/5/32 36/6/34
f 32/5/32 37/6/35 36/6/34
f 37/6/35 32/5/32 33/5/31
f 36/6/34 31/3/28 30/3/29
f 31/3/28 36/6/34 37/6/35
f 35/4/33 26/2/26 31/3/28
f 35/4/33 31/3/28 33/5/31
f 33/5/31 31/3/28 37/6/35
f 28/1/24 34/4/30 29/1/27
f 34/4/30 28/1/24 35/4/33
f 41/7/36 40/7/37 39/7/38
f 44/8/39 6/9/40 41/7/36
f 41/7/36 6/9/40 8/9/41
f 42/7/42 8/9/41 46/10/43
f 47/8/44 46/10/43 48/11/45
f 51/8/46 50/10/47 49/11/48
f 50/10/47 51/8/46 39/7/38
f 38/9/49 40/7/37 52/8/50
f 53/10/51 52/8/50 54/11/52
f 52/8/50 48/11/45 54/11/52
f 48/11/45 52/8/50 47/8/44
f 54/11/52 46/10/43 53/10/51
f 46/10/43 54/11/52 48/11/45
f 38/9/49 46/10/43 8/9/41
f 49/11/48 44/8/39 51/8/46
f 44/8/39 39/7/38 51/8/46
f 50/10/47 6/9/40 45/10/53
f 43/11/54 50/10/47 45/10/53
f 50/10/47 43/11/54 49/11/48
f 57/12/55 56/9/56 55/9/57
f 56/9/56 57/12/55 58/12/58
f 58/12/58 57/12/55 59/13/59
f 58/12/58 59/13/59 60/13/60
f 60/13/60 59/13/59 61/7/61
f 60/13/60 61/7/61 62/7/62
f 64/14/63 65/14/64 66/14/65
f 66/14/65 65/14/64 67/14/66
f 66/14/65 67/14/66 68/14/67
f 68/14/67 67/14/66 69/14/68
f 68/14/67 69/14/68 70/14/69
f 73/15/70 74/15/71 75/15/72
f 75/15/72 74/15/71 76/15/73
f 76/15/73 77/15/74 78/15/75
f 78/15/75 77/15/74 79/15/76
f 78/15/75 79/15/76 80/15/77
f 73/15/70 64/14/63 72/15/78
f 64/14/63 73/15/70 63/14/79
f 79/15/76 70/14/69 80/15/77
f 76/15/73 69/14/68 67/14/66
f 69/14/68 76/15/73 78/15/75
f 80/15/77 69/14/68 78/15/75
f 66/14/65 72/15/78 64/14/63
f 81/14/80 56/14/56 85/14/81
f 56/14/56 81/14/80 55/14/57
f 82/16/82 59/17/59 57/16/55
f 85/14/81 58/16/58 88/16/83
f 58/16/58 85/14/81 56/14/56
f 87/17/84 62/15/62 83/15/85
f 59/17/59 84/15/86 61/15/61
f 88/16/83 81/14/80 85/14/81
f 81/14/80 88/16/83 82/16/82
f 82/16/82 88/16/83 87/17/84
f 82/16/82 87/17/84 86/17/87
f 86/17/87 87/17/84 83/15/85
f 86/17/87 83/15/85 84/15/86
f 91/14/88 90/14/89 89/14/90
f 90/14/89 91/14/88 92/14/91
f 90/14/89 96/15/92 89/14/90
f 97/15/93 90/14/89 92/14/91
f 98/15/94 92/14/91 94/14/95
f 92/14/91 98/15/94 97/15/93
f 96/15/92 91/14/88 89/14/90
f 97/15/93 96/15/92 95/15/96
f 100/15/97 98/15/94 99/15/98
f 103/18/99 106/14/100 105/14/101
f 106/14/100 102/15/102 107/14/103
f 107/14/103 102/15/102 108/15/92
f 104/15/104 108/15/92 102/15/102
f 108/15/92 104/15/104 109/15/105
f 108/15/92 110/14/106 107/14/103
f 110/14/106 108/15/92 109/15/105
f 110/14/106 103/18/99 105/14/101
f 103/18/99 110/14/106 104/15/104
f 104/15/104 110/14/106 109/15/105
f 106/14/100 110/14/106 105/14/101
f 115/19/107 116/19/107 117/20/108
f 118/20/109 117/20/108 116/19/107
f 114/20/110 120/21/111 113/20/110
f 118/20/109 119/21/112 117/20/108
f 120/21/111 117/20/108 119/21/112
f 10/2/10 1/1/3 2/2/2
f 5/2/7 11/1/9 9/2/11
f 11/1/9 5/2/7 6/1/6
f 12/1/12 3/1/1 1/1/3
f 17/2/23 16/1/113 15/2/114
f 16/1/113 17/2/23 18/1/115
f 20/2/16 16/1/113 19/1/17
f 16/1/113 20/2/16 15/2/114
f 4/1/15 23/2/19 21/2/18
f 22/1/20 25/2/21 23/2/19
f 25/2/21 18/1/115 17/2/23
f 18/1/115 25/2/21 24/1/22
f 20/2/16 17/2/23 15/2/114
f 26/2/26 35/4/33 28/1/24
f 8/9/41 1/9/116 38/9/49
f 1/9/116 8/9/41 6/9/40
f 40/7/37 41/7/36 42/7/42
f 45/10/53 44/8/39 43/11/54
f 44/8/39 45/10/53 6/9/40
f 41/7/36 8/9/41 42/7/42
f 42/7/42 46/10/43 47/8/44
f 50/10/47 39/7/38 1/9/116
f 1/9/116 39/7/38 40/7/37
f 1/9/116 40/7/37 38/9/49
f 38/9/49 52/8/50 53/10/51
f 42/7/42 52/8/50 40/7/37
f 52/8/50 42/7/42 47/8/44
f 46/10/43 38/9/49 53/10/51
f 44/8/39 49/11/48 43/11/54
f 39/7/38 44/8/39 41/7/36
f 6/9/40 50/10/47 1/9/116
f 65/14/64 64/14/63 63/14/79
f 68/14/67 70/14/69 71/14/117
f 74/15/71 73/15/70 72/15/78
f 76/15/73 74/15/71 77/15/74
f 75/15/72 67/14/66 65/14/64
f 67/14/66 75/15/72 76/15/73
f 75/15/72 63/14/79 73/15/70
f 63/14/79 75/15/72 65/14/64
f 70/14/69 79/15/76 71/14/117
f 77/15/74 66/14/65 68/14/67
f 66/14/65 77/15/74 74/15/71
f 69/14/68 80/15/77 70/14/69
f 71/14/117 77/15/74 68/14/67
f 77/15/74 71/14/117 79/15/76
f 72/15/78 66/14/65 74/15/71
f 82/16/82 55/14/57 81/14/80
f 55/14/57 82/16/82 57/16/55
f 61/15/61 83/15/85 62/15/62
f 83/15/85 61/15/61 84/15/86
f 59/17/59 82/16/82 86/17/87
f 87/17/84 58/16/58 60/17/60
f 58/16/58 87/17/84 88/16/83
f 62/15/62 87/17/84 60/17/60
f 84/15/86 59/17/59 86/17/87
f 92/14/91 91/14/88 93/14/118
f 92/14/91 93/14/118 94/14/95
f 96/15/92 90/14/89 95/15/96
f 90/14/89 97/15/93 95/15/96
f 93/14/118 98/15/94 94/14/95
f 98/15/94 93/14/118 99/15/98
f 91/14/88 96/15/92 100/15/97
f 96/15/92 97/15/93 100/15/97
f 100/15/97 97/15/93 98/15/94
f 100/15/97 93/14/118 91/14/88
f 93/14/118 100/15/97 99/15/98
f 103/18/99 102/15/102 101/18/119
f 102/15/102 103/18/99 104/15/104
f 106/14/100 103/18/99 101/18/119
f 102/15/102 106/14/100 101/18/119
f 110/14/106 106/14/100 107/14/103
f 113/20/120 112/19/121 111/19/121
f 112/19/121 113/20/120 114/20/122
f 120/21/123 113/20/124 119/21/123
