# Blender 4.3.2
# www.blender.org
mtllib bottle-return.mtl
o bottle-return.001
v -0.150000 -0.268750 -0.100000
v -0.150000 -0.268750 -0.350000
v -0.150000 -0.218750 -0.100000
v -0.150000 -0.218750 -0.350000
v 0.100000 -0.268750 -0.400000
v 0.100000 -0.218750 -0.400000
v -0.100000 -0.268750 -0.400000
v -0.100000 -0.218750 -0.400000
v 0.100000 -0.218750 -0.050000
v 0.100000 -0.268750 -0.050000
v -0.100000 -0.218750 -0.050000
v -0.100000 -0.268750 -0.050000
v 0.150000 -0.268750 -0.350000
v 0.150000 -0.268750 -0.100000
v 0.150000 -0.218750 -0.350000
v 0.150000 -0.218750 -0.100000
v 0.000000 0.162272 -0.750000
v 0.100000 0.162272 -0.723205
v -0.100000 0.162272 -0.723205
v 0.173205 0.162272 -0.650000
v -0.173205 0.162272 -0.650000
v -0.200000 0.162272 -0.550000
v 0.200000 0.162272 -0.550000
v -0.100000 0.162272 -0.291527
v -0.100000 0.162272 -0.100000
v -0.100000 0.162272 -0.050000
v -0.200000 0.162272 0.000000
v 0.100000 0.162272 -0.291527
v 0.100000 0.162272 -0.100000
v 0.100000 0.162272 -0.050000
v 0.200000 0.162272 0.000000
v 0.200000 -0.218750 0.000000
v -0.200000 -0.218750 0.000000
v 0.100000 0.212272 -0.050000
v -0.100000 0.212272 -0.050000
v 0.100000 0.212272 -0.100000
v -0.100000 0.212272 -0.100000
v -0.025000 -0.093750 -0.736602
v 0.025000 -0.093750 -0.736602
v -0.025000 -0.093750 -0.936602
v 0.025000 -0.093750 -0.936602
v 0.025000 -0.043750 -0.936602
v 0.025000 -0.043750 -0.736602
v -0.025000 -0.043750 -0.736602
v -0.025000 -0.043750 -0.936602
v 0.119172 -0.141229 -0.990319
v 0.084310 -0.168263 -1.006993
v 0.125153 -0.097521 -1.006993
v 0.096273 -0.080847 -1.040341
v 0.055430 -0.151589 -1.040341
v 0.061411 -0.107881 -1.057015
v 0.149938 -0.158992 -1.025844
v 0.155919 -0.115283 -1.042518
v 0.115076 -0.186026 -1.042518
v 0.086196 -0.169351 -1.075866
v 0.127039 -0.098609 -1.075866
v 0.092177 -0.125643 -1.092540
v -0.200000 0.062272 0.000000
v -0.150000 0.062272 0.000000
v -0.200000 0.062272 -0.550000
v -0.150000 0.062272 -0.543417
v -0.128376 0.062272 -0.624118
v -0.173205 0.062272 -0.650000
v -0.074118 0.062272 -0.678376
v -0.100000 0.062272 -0.723205
v 0.000000 0.062272 -0.698236
v 0.100000 0.062272 -0.723205
v 0.000000 0.062272 -0.750000
v 0.074118 0.062272 -0.678376
v 0.173205 0.062272 -0.650000
v 0.128376 0.062272 -0.624118
v 0.200000 0.062272 -0.550000
v 0.150000 0.062272 -0.543417
v 0.200000 0.062272 0.000000
v 0.150000 0.062272 0.000000
v 0.225000 0.187272 -0.553291
v 0.225000 0.187272 0.000000
v 0.200000 0.212272 -0.550000
v 0.200000 0.212272 0.000000
v 0.150000 0.212272 0.000000
v 0.150000 0.212272 -0.543417
v 0.128376 0.212272 -0.624118
v 0.173205 0.212272 -0.650000
v 0.074118 0.212272 -0.678376
v 0.100000 0.212272 -0.723205
v 0.000000 0.212272 -0.698236
v -0.100000 0.212272 -0.723205
v 0.000000 0.212272 -0.750000
v -0.074118 0.212272 -0.678376
v -0.173205 0.212272 -0.650000
v -0.128376 0.212272 -0.624118
v -0.200000 0.212272 -0.550000
v -0.150000 0.212272 -0.543417
v -0.200000 0.212272 0.000000
v -0.150000 0.212272 0.000000
v -0.112941 0.187272 -0.745619
v 0.000000 0.187272 -0.775882
v -0.225000 0.087272 -0.553291
v -0.195619 0.087272 -0.662941
v -0.112941 0.087272 -0.745619
v 0.000000 0.087272 -0.775882
v 0.112941 0.087272 -0.745619
v 0.225000 0.087272 -0.553291
v 0.225000 0.087272 0.000000
v 0.195619 0.087272 -0.662941
v 0.195619 0.187272 -0.662941
v 0.112941 0.187272 -0.745619
v -0.225000 0.187272 -0.553291
v -0.195619 0.187272 -0.662941
v -0.225000 0.087272 0.000000
v -0.225000 0.187272 0.000000
v -0.119000 0.162272 -0.531000
v -0.084146 0.162272 -0.615146
v -0.100000 0.212272 -0.531000
v -0.070711 0.212272 -0.601711
v 0.000000 0.212272 -0.589455
v -0.000000 0.187272 -0.580102
v -0.041334 0.212272 -0.572334
v -0.034720 0.187272 -0.565720
v 0.041334 0.212272 -0.489666
v 0.000000 0.212272 -0.472545
v 0.034720 0.187272 -0.496280
v -0.000000 0.187272 -0.481898
v 0.084146 0.162272 -0.615146
v 0.119000 0.162272 -0.531000
v 0.070711 0.212272 -0.601711
v 0.100000 0.212272 -0.531000
v -0.084146 0.162272 -0.446854
v -0.070711 0.212272 -0.460289
v 0.041334 0.212272 -0.572334
v 0.034720 0.187272 -0.565720
v 0.000000 0.212272 -0.431000
v 0.000000 0.162272 -0.412000
v 0.000000 0.162272 -0.650000
v 0.000000 0.212272 -0.631000
v -0.049102 0.187272 -0.531000
v -0.034720 0.187272 -0.496280
v -0.058455 0.212272 -0.531000
v -0.041334 0.212272 -0.489666
v 0.049102 0.187272 -0.531000
v 0.058455 0.212272 -0.531000
v 0.070711 0.212272 -0.460289
v 0.084146 0.162272 -0.446854
v -0.179128 -0.070405 -0.834969
v -0.076372 -0.129732 -0.953621
v -0.166268 0.023570 -0.870819
v -0.063512 -0.035756 -0.989471
v 0.111150 -0.136597 -0.999582
v 0.073571 -0.114901 -0.927959
v 0.115470 -0.105030 -1.011625
v 0.080422 -0.064834 -0.947059
v -0.041803 -0.132989 -0.973378
v -0.031061 -0.054492 -1.003324
v 0.010065 -0.162935 -0.913487
v 0.072674 -0.114383 -0.883542
v 0.033637 -0.145868 -0.947059
v 0.094612 -0.092988 -1.035709
v 0.047340 -0.045734 -0.985259
v 0.069434 -0.112512 -1.047752
v 0.007406 -0.076701 -1.004359
v -0.029218 0.045844 -0.763268
v -0.091313 0.081695 -0.834969
v 0.073538 -0.013482 -0.881920
v 0.011443 0.022368 -0.953621
v 0.085972 -0.156122 -1.011625
v 0.000555 -0.126768 -0.985259
v 0.065114 -0.144079 -1.035709
v 0.083416 -0.035886 -0.913487
v 0.031549 -0.005941 -0.973378
v -0.014277 -0.165582 -0.881920
v 0.060677 -0.107457 -0.846070
v -0.117033 -0.106256 -0.763268
v -0.042079 -0.048131 -0.727418
v -0.076021 -0.028534 -0.720790
v -0.133954 -0.073459 -0.748499
v -0.181947 -0.045750 -0.803917
v -0.172007 0.026883 -0.831626
v -0.066081 0.044099 -0.748499
v -0.114074 0.071808 -0.803917
v -0.200000 -0.218750 -0.550000
v 0.200000 -0.218750 -0.550000
v -0.173205 -0.218750 -0.650000
v 0.173205 -0.218750 -0.650000
v -0.100000 -0.218750 -0.723205
v 0.100000 -0.218750 -0.723205
v 0.000000 -0.218750 -0.750000
v 0.100000 -0.037728 -0.100000
v -0.100000 -0.037728 -0.100000
v 0.100000 -0.037728 -0.291527
v -0.100000 -0.037728 -0.291527
vn -0.7780 -0.6270 -0.0389
vn -0.8335 0.4497 0.3211
vn -0.8437 0.4433 -0.3027
vn 0.0323 -0.6073 -0.7939
vn 0.3578 0.4486 -0.8190
vn -0.0835 -0.6578 -0.7486
vn -0.3432 0.4423 -0.8286
vn -0.3578 0.4486 0.8190
vn 0.3606 -0.3347 0.8706
vn 0.3433 0.4423 0.8286
vn 0.0835 -0.6578 0.7486
vn 0.8335 0.4497 -0.3211
vn 0.7507 -0.6597 0.0356
vn 0.8241 -0.4521 -0.3413
vn 0.8437 0.4433 0.3027
vn -0.5580 -0.7284 0.3976
vn -0.6907 0.7130 -0.1205
vn 0.5101 0.7442 -0.4313
vn -0.7233 0.6661 -0.1822
vn 0.7164 0.6814 -0.1497
vn -0.3015 0.9045 0.3015
vn -0.0000 -0.0000 -0.0000
vn -0.5774 0.5773 0.5774
vn 0.3015 0.9045 0.3015
vn 0.5774 0.5773 0.5774
vn 0.5773 -0.5773 0.5774
vn -0.9042 -0.3020 -0.3020
vn -0.6550 0.5343 0.5343
vn 0.9838 0.1268 -0.1269
vn -0.0000 0.7071 -0.7071
vn -0.3956 0.3957 0.8288
vn -0.3956 -0.3957 -0.8288
vn -0.3535 -0.3536 0.8660
vn 0.0298 0.4343 0.9003
vn -0.1820 -0.3057 0.9346
vn 0.1911 0.4445 0.8752
vn 0.6821 -0.3938 0.6161
vn -0.2997 -0.8852 -0.3558
vn -0.8877 -0.4424 -0.1277
vn 0.0607 -0.9900 0.1277
vn -0.9252 0.0348 -0.3780
vn 0.6396 -0.7687 -0.0009
vn -0.0983 -0.9223 -0.3737
vn 0.4464 -0.8326 0.3280
vn 0.0775 -0.9333 -0.3507
vn 0.1777 -0.7599 0.6252
vn -0.2461 -0.9326 -0.2638
vn -0.1401 -0.7979 0.5863
vn 0.2587 -0.8946 -0.3645
vn 0.4103 -0.8626 -0.2959
vn -0.4849 -0.7330 0.4770
vn -0.0281 -0.9995 0.0162
vn -0.5443 -0.8217 0.1688
vn 0.0896 -0.9200 -0.3816
vn -0.7071 0.7071 -0.0000
vn -0.0269 0.9996 0.0035
vn -0.6005 0.7875 0.1387
vn -0.4182 0.8214 0.3878
vn -0.0281 0.9995 0.0162
vn -0.4031 0.7887 0.4643
vn -0.2461 0.9326 -0.2638
vn 0.1513 0.7609 0.6310
vn 0.2587 0.8946 -0.3645
vn -0.4103 0.8626 -0.2959
vn 0.0625 0.5060 -0.8603
vn -0.5274 0.3616 -0.7688
vn -0.7043 -0.4783 -0.5245
vn -0.5124 -0.8062 -0.2958
vn 0.0705 -0.5069 -0.8591
vn -0.0672 -0.5066 -0.8596
vn 0.5274 -0.3616 -0.7688
vn -0.7173 -0.6868 0.1172
vn 0.8582 -0.3782 0.3472
vn 0.3455 -0.8385 0.4213
vn 0.7961 -0.4355 0.4202
vn 0.4553 0.6891 0.5638
vn 0.3684 0.5069 -0.7793
vn 0.5896 0.6608 0.4643
vn 0.7060 0.7076 0.0291
vn -0.8739 0.0713 -0.4809
vn -0.8519 -0.1802 -0.4918
vn 0.4057 -0.3621 -0.8392
vn 0.8415 0.3615 -0.4015
vn -0.6848 0.6122 -0.3954
vn -0.8751 -0.2478 0.4156
vn -0.3432 -0.8286 0.4423
vn -0.3455 0.8385 0.4213
vn -0.7961 0.4356 0.4201
vn 0.7071 -0.7071 -0.0000
vn 0.7071 0.7071 -0.0000
vn -0.6721 0.7132 -0.1991
vn -0.7055 -0.0669 -0.7055
vn -0.9967 -0.0627 -0.0507
vn -0.5384 0.6483 -0.5384
vn 0.5382 0.7896 0.2945
vn -0.0000 0.8781 0.4784
vn -0.1866 0.8396 0.5102
vn 0.4137 0.8388 0.3540
vn -0.3633 0.8558 -0.3684
vn 0.1866 0.8396 -0.5102
vn -0.4468 0.7750 -0.4468
vn 0.2075 0.7269 -0.6547
vn -0.3747 0.8480 0.3747
vn -0.5008 0.8362 0.2237
vn -0.5749 0.8135 0.0877
vn -0.6319 0.7750 -0.0000
vn -0.0508 -0.0627 -0.9967
vn 0.5629 0.6051 -0.5629
vn 0.7057 -0.0635 -0.7057
vn 0.3214 0.7819 -0.5342
vn -0.2347 0.8322 0.5023
vn 0.2712 0.8417 0.4669
vn 0.1872 0.9643 -0.1872
vn 0.4986 0.8518 0.1609
vn 0.2212 0.9752 -0.0000
vn -0.0000 -0.0669 0.9978
vn 0.6689 -0.0627 0.7407
vn -0.0000 0.5360 0.8442
vn 0.9967 -0.0627 0.0507
vn 0.5749 0.8135 -0.0877
vn -0.5613 -0.0177 -0.8274
vn -0.9395 -0.3422 0.0170
vn -0.9122 0.1052 -0.3959
vn 0.9472 0.1097 -0.3012
vn 0.8244 -0.4759 -0.3064
vn 0.8635 -0.4985 -0.0762
vn 0.9712 -0.1980 0.1325
vn -0.2808 -0.4528 -0.8462
vn -0.7314 -0.5776 -0.3624
vn 0.4836 -0.7949 0.3665
vn 0.4945 -0.8687 0.0291
vn 0.5109 -0.6940 -0.5073
vn 0.0598 -0.0345 -0.9976
vn 0.6025 0.1099 -0.7905
vn 0.5473 0.3352 -0.7669
vn 0.8132 0.2157 -0.5405
vn 0.4565 -0.8790 0.1379
vn -0.3936 -0.6613 0.6386
vn -0.7343 -0.6635 0.1430
vn -0.0197 -0.6537 0.7565
vn 0.4959 0.4022 0.7696
vn -0.4744 -0.4669 0.7463
vn -0.2701 -0.8149 0.5129
vn -0.8713 0.4836 -0.0835
vn -0.7622 0.4400 -0.4749
vn -0.0250 0.3993 -0.9165
vn -0.0068 0.7243 -0.6895
vn 0.9383 -0.1144 0.3263
vn -0.2717 -0.2054 -0.9402
vn 0.2639 -0.1523 -0.9524
vn 0.0532 0.9348 0.3512
vn 0.0148 0.5204 0.8538
vn 0.5533 0.6458 0.5262
vn -0.5550 0.7297 -0.3994
vn 0.3786 -0.8752 -0.3012
vn 0.6687 -0.7313 -0.1342
vn -0.5117 -0.7434 -0.4308
vn 0.7034 -0.6649 -0.2513
vn -0.1934 -0.7219 -0.6644
vn 0.1853 -0.6935 -0.6962
vn 0.2478 -0.6651 -0.7045
vn -0.7313 -0.6820 -0.0113
vn -0.5774 -0.5774 0.5774
vn 0.5307 0.6661 -0.5241
vn -0.4183 0.5477 -0.7246
vn -0.5774 0.5774 0.5774
vn 0.5774 0.5774 -0.5773
vn -0.5774 0.5774 -0.5774
vn 0.5774 0.5774 0.5774
vn 0.4595 0.6820 -0.5690
vn -0.2478 0.6651 -0.7045
vn -0.7026 -0.1130 -0.7026
vn 0.3956 -0.3957 0.8288
vn 0.3535 -0.3536 -0.8660
vn 0.3956 0.3957 -0.8288
vn 0.3535 0.3536 0.8660
vn -0.3535 0.3536 -0.8660
vn -0.4820 0.7460 0.4596
vn 0.9872 -0.1592 -0.0047
vn 0.7471 0.4305 -0.5064
vn 0.2894 0.3877 -0.8752
vn -0.7071 -0.7071 -0.0000
vn 0.8751 0.2478 0.4156
vn 0.6495 0.7556 -0.0855
vn 0.3432 0.8286 0.4423
vn -0.0896 0.9200 -0.3816
vn -0.7057 -0.0635 0.7057
vn -0.0166 -0.6416 -0.7669
vt 0.468750 0.196429
vt 0.468750 0.053571
vt 0.468750 0.225000
vt 0.468750 0.025000
vt 0.468750 0.171667
vt 0.468750 0.198333
vt 0.468750 0.038333
vt 0.468750 0.051667
vt 0.468750 0.102740
vt 0.468750 0.075000
vt 0.468750 0.175000
vt 0.218750 0.415077
vt 0.218750 0.416774
vt 0.218750 0.435880
vt 0.218750 0.442551
vt 0.218750 0.449866
vt 0.218750 0.461421
vt 0.218750 0.454985
vt 0.218750 0.468328
vt 0.218750 0.275000
vt 0.218750 0.467199
vt 0.218750 0.475000
vt 0.218750 0.417623
vt 0.218750 0.445887
vt 0.218750 0.375000
vt 0.218750 0.445711
vt 0.218750 0.434421
vt 0.218750 0.409734
vt 0.218750 0.416262
vt 0.218750 0.424121
vt 0.218750 0.404177
vt 0.218750 0.345823
vt 0.218750 0.325878
vt 0.218750 0.340266
vt 0.218750 0.333738
vt 0.218750 0.459034
vt 0.218750 0.315579
vt 0.218750 0.304289
vt 0.218750 0.290966
vt 0.218750 0.366771
vt 0.218750 0.417421
vt 0.218750 0.344842
vt 0.218750 0.452901
vt 0.218750 0.401724
vt 0.218750 0.445535
vt 0.218750 0.413407
vt 0.218750 0.447824
vt 0.218750 0.429506
vt 0.218750 0.374554
vt 0.218750 0.392871
vt 0.218750 0.436774
vt 0.218750 0.467634
vt 0.218750 0.351633
vt 0.218750 0.373562
vt 0.218750 0.300983
vt 0.218750 0.279054
vt 0.218750 0.291949
vt 0.218750 0.325848
vt 0.218750 0.342797
vt 0.218750 0.439350
vt 0.218750 0.448457
vt 0.218750 0.171667
vt 0.218750 0.198333
vt 0.218750 0.217855
vt 0.218750 0.225000
vt 0.218750 0.025000
vt 0.093750 0.102740
vt 0.093750 0.051667
vt 0.093750 0.095823
vt 0.093750 0.125000
vt 0.093750 0.154177
vt 0.093750 0.166262
vt 0.468750 0.217855
vt 0.093750 0.083738
s 1
usemtl colormap
f 2/1/1 3/2/2 4/1/3
f 7/3/4 6/3/5 5/3/6
f 6/3/5 7/3/4 8/3/7
f 11/4/8 10/4/9 9/4/10
f 10/4/9 11/4/8 12/4/11
f 15/1/12 14/2/13 13/1/14
f 14/2/13 15/1/12 16/2/15
f 16/2/15 10/4/9 14/2/13
f 10/4/9 16/2/15 9/4/10
f 5/3/6 15/1/12 13/1/14
f 4/1/3 7/3/4 2/1/1
f 7/3/4 4/1/3 8/3/7
f 1/2/16 10/4/9 12/4/11
f 10/4/9 1/2/16 14/2/13
f 14/2/13 1/2/16 2/1/1
f 14/2/13 2/1/1 13/1/14
f 13/1/14 2/1/1 7/3/4
f 13/1/14 7/3/4 5/3/6
f 22/5/17 20/6/18 21/6/19
f 22/5/17 23/5/20 20/6/18
f 22/5/17 26/7/21 25/8/22
f 27/4/23 26/7/21 22/5/17
f 28/9/21 23/5/20 24/9/24
f 31/4/25 30/7/24 27/4/23
f 27/4/23 32/4/26 31/4/25
f 35/7/27 25/8/22 26/7/21
f 35/7/27 30/7/24 34/7/28
f 36/8/29 30/7/24 29/8/30
f 30/7/24 36/8/29 34/7/28
f 44/3/31 40/4/32 38/3/33
f 48/10/34 47/10/35 46/10/36
f 47/10/35 52/11/37 46/10/36
f 55/11/38 47/10/35 50/10/39
f 47/10/35 55/11/38 54/11/40
f 51/10/41 55/11/38 50/10/39
f 61/12/42 60/13/43 62/14/44
f 62/14/44 63/15/45 64/16/46
f 67/17/47 66/18/48 65/17/49
f 67/17/47 65/17/49 68/19/50
f 67/17/47 69/16/51 66/18/48
f 70/15/52 71/14/53 69/16/51
f 72/13/54 71/14/53 70/15/52
f 80/20/55 78/13/56 81/12/57
f 81/12/57 78/13/56 82/14/58
f 82/14/58 78/13/56 83/15/59
f 84/16/60 85/17/61 86/18/62
f 87/17/63 85/17/61 88/19/64
f 96/21/65 88/19/64 97/22/66
f 98/23/67 63/15/45 60/13/43
f 63/15/45 98/23/67 99/24/68
f 100/21/69 68/19/50 65/17/49
f 65/17/49 99/24/68 100/21/69
f 102/21/70 68/19/50 101/22/71
f 73/12/72 80/20/55 81/12/57
f 103/23/73 74/20/74 72/13/54
f 74/20/74 103/23/73 104/20/75
f 89/16/76 66/18/48 86/18/62
f 66/18/48 89/16/76 64/16/46
f 106/24/77 85/17/61 83/15/59
f 91/14/78 61/12/42 62/14/44
f 61/12/42 91/14/78 93/12/79
f 91/14/78 64/16/46 89/16/76
f 86/18/62 69/16/51 84/16/60
f 69/16/51 86/18/62 66/18/48
f 108/23/80 99/24/68 98/23/67
f 99/24/68 108/23/80 109/24/81
f 102/21/70 106/24/77 105/24/82
f 106/24/77 102/21/70 107/21/83
f 108/23/80 90/15/84 109/24/81
f 109/24/81 100/21/69 99/24/68
f 107/21/83 88/19/64 85/17/61
f 88/19/64 107/21/83 97/22/66
f 110/20/85 60/13/43 58/20/86
f 60/13/43 110/20/85 98/23/67
f 103/23/73 70/15/52 105/24/82
f 67/17/47 105/24/82 70/15/52
f 107/21/83 101/22/71 97/22/66
f 94/20/87 108/23/80 111/20/88
f 111/20/88 98/23/67 110/20/85
f 59/20/89 93/12/79 95/20/90
f 81/12/57 71/14/53 73/12/72
f 71/14/53 81/12/57 82/14/58
f 114/25/91 113/26/92 112/25/93
f 113/26/92 114/25/91 115/27/94
f 118/28/95 117/29/96 116/30/97
f 117/29/96 118/28/95 119/31/98
f 122/32/99 121/33/100 120/34/101
f 121/33/100 122/32/99 123/35/102
f 116/30/97 131/31/103 130/28/104
f 120/34/101 140/25/105 122/32/99
f 140/25/105 120/34/101 141/25/106
f 134/22/107 126/27/108 124/26/109
f 126/27/108 134/22/107 135/36/110
f 129/37/111 142/37/112 121/33/100
f 121/33/100 142/37/112 120/34/101
f 139/34/113 129/37/111 121/33/100
f 120/34/101 142/37/112 127/25/114
f 114/25/91 139/34/113 138/25/115
f 114/25/91 138/25/115 118/28/95
f 141/25/106 127/25/114 126/27/108
f 114/25/91 118/28/95 115/27/94
f 141/25/106 126/27/108 130/28/104
f 115/27/94 118/28/95 116/30/97
f 130/28/104 126/27/108 116/30/97
f 115/27/94 116/30/97 126/27/108
f 115/27/94 126/27/108 135/36/110
f 142/37/112 133/20/116 143/38/117
f 133/20/116 142/37/112 132/39/118
f 141/25/106 131/31/103 140/25/105
f 131/31/103 141/25/106 130/28/104
f 127/25/114 143/38/117 125/25/119
f 143/38/117 127/25/114 142/37/112
f 118/28/95 136/25/120 119/31/98
f 146/40/121 145/41/122 144/42/123
f 150/43/124 149/44/125 148/45/126
f 149/44/125 150/43/124 151/46/127
f 145/41/122 153/47/128 152/48/129
f 156/46/130 155/49/131 154/50/132
f 155/49/131 156/46/130 149/44/125
f 159/22/133 158/51/134 157/52/135
f 169/48/136 151/46/127 158/51/134
f 171/53/137 154/50/132 155/49/131
f 144/42/123 170/54/138 172/55/139
f 172/55/139 171/53/137 173/56/140
f 163/54/141 173/56/140 171/53/137
f 174/20/142 172/55/139 173/56/140
f 172/55/139 174/20/142 175/57/143
f 176/58/144 146/40/121 144/42/123
f 146/40/121 176/58/144 177/59/145
f 164/41/146 153/47/128 147/60/147
f 168/50/148 171/53/137 155/49/131
f 159/22/133 166/51/149 160/61/150
f 161/55/151 179/58/152 178/57/153
f 149/44/125 168/50/148 155/49/131
f 168/50/148 149/44/125 151/46/127
f 146/40/121 179/58/152 162/42/154
f 156/46/130 152/48/129 166/51/149
f 165/43/155 149/44/125 156/46/130
f 149/44/125 165/43/155 148/45/126
f 181/62/156 182/63/157 183/63/158
f 183/63/158 182/63/157 184/64/159
f 185/64/160 184/64/159 186/65/161
f 27/66/23 180/62/162 33/66/163
f 20/63/18 185/64/160 18/64/164
f 184/64/159 21/63/19 19/64/165
f 22/62/17 182/63/157 180/62/162
f 182/63/157 22/62/17 21/63/19
f 189/67/166 188/68/167 187/68/168
f 188/68/167 189/67/166 190/67/169
f 188/68/167 29/68/30 187/68/168
f 189/67/166 29/68/30 28/67/21
f 188/68/167 24/67/24 25/68/22
f 137/69/170 140/70/105 136/70/120
f 136/70/120 140/70/105 131/71/103
f 119/71/98 131/71/103 117/72/96
f 3/2/2 2/1/1 1/2/16
f 15/1/12 5/3/6 6/3/5
f 3/2/2 12/4/11 11/4/8
f 12/4/11 3/2/2 1/2/16
f 19/73/165 18/73/164 17/3/171
f 19/73/165 20/6/18 18/73/164
f 21/6/19 20/6/18 19/73/165
f 22/5/17 24/9/24 23/5/20
f 22/5/17 25/8/22 24/9/24
f 29/8/30 23/5/20 28/9/21
f 26/7/21 27/4/23 30/7/24
f 30/7/24 23/5/20 29/8/30
f 30/7/24 31/4/25 23/5/20
f 32/4/26 27/4/23 33/4/163
f 36/8/29 35/7/27 34/7/28
f 35/7/27 36/8/29 37/8/172
f 25/8/22 35/7/27 37/8/172
f 30/7/24 35/7/27 26/7/21
f 40/4/32 39/3/173 38/3/33
f 39/3/173 40/4/32 41/4/174
f 42/4/175 39/3/173 41/4/174
f 39/3/173 42/4/175 43/3/176
f 42/4/175 44/3/31 43/3/176
f 44/3/31 42/4/175 45/4/177
f 40/4/32 44/3/31 45/4/177
f 47/10/35 48/10/34 49/10/178
f 47/10/35 49/10/178 50/10/39
f 50/10/39 49/10/178 51/10/41
f 54/11/40 53/11/179 52/11/37
f 53/11/179 54/11/40 55/11/38
f 53/11/179 55/11/38 56/11/180
f 56/11/180 55/11/38 57/11/181
f 53/11/179 46/10/36 52/11/37
f 46/10/36 53/11/179 48/10/34
f 52/11/37 47/10/35 54/11/40
f 55/11/38 51/10/41 57/11/181
f 49/10/178 57/11/181 51/10/41
f 57/11/181 49/10/178 56/11/180
f 53/11/179 49/10/178 48/10/34
f 49/10/178 53/11/179 56/11/180
f 60/13/43 59/20/89 58/20/86
f 59/20/89 60/13/43 61/12/42
f 62/14/44 60/13/43 63/15/45
f 64/16/46 63/15/45 65/17/49
f 64/16/46 65/17/49 66/18/48
f 70/15/52 69/16/51 67/17/47
f 72/13/54 73/12/72 71/14/53
f 74/20/74 73/12/72 72/13/54
f 73/12/72 74/20/74 75/20/182
f 78/13/56 77/20/183 76/23/184
f 77/20/183 78/13/56 79/20/185
f 78/13/56 80/20/55 79/20/185
f 82/14/58 83/15/59 84/16/60
f 84/16/60 83/15/59 85/17/61
f 86/18/62 85/17/61 87/17/63
f 87/17/63 89/16/76 86/18/62
f 90/15/84 89/16/76 87/17/63
f 90/15/84 91/14/78 89/16/76
f 92/13/186 91/14/78 90/15/84
f 92/13/186 93/12/79 91/14/78
f 94/20/87 93/12/79 92/13/186
f 93/12/79 94/20/87 95/20/90
f 88/19/64 96/21/65 87/17/63
f 68/19/50 100/21/69 101/22/71
f 99/24/68 65/17/49 63/15/45
f 68/19/50 102/21/70 67/17/47
f 80/20/55 73/12/72 75/20/182
f 106/24/77 103/23/73 105/24/82
f 103/23/73 106/24/77 76/23/184
f 85/17/61 106/24/77 107/21/83
f 76/23/184 104/20/75 103/23/73
f 104/20/75 76/23/184 77/20/183
f 82/14/58 69/16/51 71/14/53
f 69/16/51 82/14/58 84/16/60
f 64/16/46 91/14/78 62/14/44
f 90/15/84 108/23/80 92/13/186
f 100/21/69 109/24/81 96/21/65
f 100/21/69 97/22/66 101/22/71
f 97/22/66 100/21/69 96/21/65
f 76/23/184 83/15/59 78/13/56
f 83/15/59 76/23/184 106/24/77
f 70/15/52 103/23/73 72/13/54
f 105/24/82 67/17/47 102/21/70
f 101/22/71 107/21/83 102/21/70
f 108/23/80 94/20/87 92/13/186
f 98/23/67 111/20/88 108/23/80
f 87/17/63 109/24/81 90/15/84
f 109/24/81 87/17/63 96/21/65
f 93/12/79 59/20/89 61/12/42
f 126/27/108 125/25/119 124/26/109
f 125/25/119 126/27/108 127/25/114
f 129/37/111 112/25/93 128/38/187
f 112/25/93 129/37/111 114/25/91
f 131/31/103 116/30/97 117/29/96
f 129/37/111 133/20/116 132/39/118
f 133/20/116 129/37/111 128/38/187
f 113/26/92 135/36/110 134/22/107
f 135/36/110 113/26/92 115/27/94
f 138/25/115 137/32/170 136/25/120
f 137/32/170 138/25/115 139/34/113
f 142/37/112 129/37/111 132/39/118
f 120/34/101 127/25/114 141/25/106
f 129/37/111 139/34/113 114/25/91
f 123/35/102 139/34/113 121/33/100
f 139/34/113 123/35/102 137/32/170
f 136/25/120 118/28/95 138/25/115
f 145/41/122 146/40/121 147/60/147
f 153/47/128 145/41/122 147/60/147
f 158/51/134 159/22/133 160/61/150
f 163/54/141 162/42/154 161/55/151
f 162/42/154 163/54/141 164/41/146
f 166/51/149 165/43/155 156/46/130
f 165/43/155 166/51/149 167/52/188
f 168/50/148 164/41/146 163/54/141
f 164/41/146 168/50/148 169/48/136
f 151/46/127 169/48/136 168/50/148
f 154/50/132 171/53/137 170/54/138
f 170/54/138 144/42/123 145/41/122
f 171/53/137 172/55/139 170/54/138
f 173/56/140 163/54/141 161/55/151
f 162/42/154 147/60/147 146/40/121
f 147/60/147 162/42/154 164/41/146
f 152/48/129 160/61/150 166/51/149
f 160/61/150 152/48/129 153/47/128
f 153/47/128 164/41/146 169/48/136
f 145/41/122 154/50/132 170/54/138
f 154/50/132 145/41/122 152/48/129
f 160/61/150 169/48/136 158/51/134
f 169/48/136 160/61/150 153/47/128
f 176/58/144 172/55/139 175/57/143
f 172/55/139 176/58/144 144/42/123
f 171/53/137 168/50/148 163/54/141
f 166/51/149 159/22/133 167/52/188
f 179/58/152 161/55/151 162/42/154
f 150/43/124 158/51/134 151/46/127
f 158/51/134 150/43/124 157/52/135
f 179/58/152 146/40/121 177/59/145
f 152/48/129 156/46/130 154/50/132
f 161/55/151 174/20/142 173/56/140
f 174/20/142 161/55/151 178/57/153
f 178/57/153 175/57/143 174/20/142
f 175/57/143 178/57/153 179/58/152
f 175/57/143 179/58/152 176/58/144
f 176/58/144 179/58/152 177/59/145
f 180/62/162 32/66/26 33/66/163
f 32/66/26 180/62/162 181/62/156
f 181/62/156 180/62/162 182/63/157
f 183/63/158 184/64/159 185/64/160
f 180/62/162 27/66/23 22/62/17
f 23/62/20 32/66/26 181/62/156
f 32/66/26 23/62/20 31/66/25
f 20/63/18 181/62/156 183/63/158
f 181/62/156 20/63/18 23/62/20
f 185/64/160 20/63/18 183/63/158
f 186/65/161 18/64/164 185/64/160
f 18/64/164 186/65/161 17/65/171
f 184/64/159 17/65/171 186/65/161
f 17/65/171 184/64/159 19/64/165
f 21/63/19 184/64/159 182/63/157
f 29/68/30 188/68/167 36/68/29
f 36/68/29 188/68/167 37/68/172
s 0
f 37/68/22 188/68/22 25/68/22
s 1
f 29/68/30 189/67/166 187/68/168
f 24/67/24 189/67/166 28/67/21
f 189/67/166 24/67/24 190/67/169
f 24/67/24 188/68/167 190/67/169
f 122/69/99 137/69/170 123/74/102
f 137/69/170 122/69/99 140/70/105
f 136/70/120 131/71/103 119/71/98
