# Blender 4.3.2
# www.blender.org
mtllib lightpost-all.mtl
o lightpost-all.008
v 0.070500 -0.070500 -0.047000
v 0.070500 0.070500 -0.047000
v 0.051465 -0.051465 -0.225600
v 0.051465 0.051465 -0.225600
v 0.030961 0.030961 -1.228700
v -0.030961 0.030961 -1.228700
v 0.022115 0.022115 -1.318700
v -0.022115 0.022115 -1.318700
v -0.070500 0.070500 -0.047000
v -0.051465 0.051465 -0.225600
v 0.022115 -0.022115 -1.318700
v -0.022115 -0.022115 -1.318700
v -0.030961 -0.030961 -1.228700
v 0.030961 -0.030961 -1.228700
v 0.064676 0.064676 0.000000
v -0.064676 0.064676 0.000000
v -0.064676 -0.064676 0.000000
v 0.064676 -0.064676 0.000000
v -0.070500 -0.070500 -0.047000
v -0.051465 -0.051465 -0.225600
v 0.017692 -0.017692 -1.228700
v 0.033172 0.033172 -0.225600
v 0.033172 -0.033172 -0.225600
v 0.017692 0.017692 -1.228700
v -0.033172 0.033172 -0.225600
v -0.017692 -0.017692 -1.228700
v -0.033172 -0.033172 -0.225600
v -0.017692 0.017692 -1.228700
v 0.264174 0.031021 -1.300953
v 0.211782 0.031021 -1.300953
v 0.264174 -0.031021 -1.300953
v 0.211782 -0.031021 -1.300953
v 0.264174 -0.031021 -1.250953
v 0.264174 -0.016362 -1.250953
v 0.264174 0.016362 -1.250953
v 0.264174 0.031021 -1.250953
v 0.264174 0.016362 -1.233366
v 0.264174 -0.016362 -1.233366
v 0.211782 -0.031021 -1.250953
v 0.211782 0.031021 -1.250953
v 0.211782 0.016362 -1.250953
v 0.211782 -0.016362 -1.250953
v 0.211782 -0.016362 -1.233366
v 0.211782 0.016362 -1.233366
v -0.212447 0.031021 -1.300953
v -0.264840 0.031021 -1.300953
v -0.212447 -0.031021 -1.300953
v -0.264839 -0.031021 -1.300953
v -0.212447 -0.031021 -1.250953
v -0.212447 -0.016362 -1.250953
v -0.212447 0.016362 -1.250953
v -0.212447 0.031021 -1.250953
v -0.212447 0.016362 -1.233366
v -0.212447 -0.016362 -1.233366
v -0.264839 -0.031021 -1.250953
v -0.264840 0.031021 -1.250953
v -0.264840 0.016362 -1.250953
v -0.264839 -0.016362 -1.250953
v -0.264839 -0.016362 -1.233366
v -0.264840 0.016362 -1.233366
v 0.030688 -0.264507 -1.300953
v 0.030688 -0.212115 -1.300953
v -0.031354 -0.264507 -1.300953
v -0.031354 -0.212115 -1.300953
v -0.031354 -0.264507 -1.250953
v -0.016695 -0.264507 -1.250953
v 0.016029 -0.264507 -1.250953
v 0.030688 -0.264507 -1.250953
v 0.016029 -0.264507 -1.233366
v -0.016695 -0.264507 -1.233366
v -0.031354 -0.212115 -1.250953
v 0.030688 -0.212115 -1.250953
v 0.016029 -0.212115 -1.250953
v -0.016695 -0.212115 -1.250953
v -0.016695 -0.212115 -1.233366
v 0.016029 -0.212115 -1.233366
v 0.030688 0.212115 -1.300953
v 0.030688 0.264507 -1.300953
v -0.031354 0.212115 -1.300953
v -0.031354 0.264507 -1.300953
v -0.031354 0.212115 -1.250953
v -0.016695 0.212115 -1.250953
v 0.016029 0.212115 -1.250953
v 0.030688 0.212115 -1.250953
v 0.016029 0.212115 -1.233366
v -0.016695 0.212115 -1.233366
v -0.031354 0.264507 -1.250953
v 0.030688 0.264507 -1.250953
v 0.016029 0.264507 -1.250953
v -0.016695 0.264507 -1.250953
v -0.016695 0.264507 -1.233366
v 0.016029 0.264507 -1.233366
v 0.310934 -0.072956 -0.958653
v 0.310934 0.072956 -0.958653
v 0.310934 -0.072956 -0.995253
v 0.310934 0.072956 -0.995253
v 0.249515 -0.016362 -1.250953
v 0.226441 -0.016362 -1.250953
v 0.249515 -0.021537 -1.245778
v 0.226441 -0.021537 -1.245778
v 0.290910 -0.052932 -1.202653
v 0.290910 0.052932 -1.202653
v 0.285617 -0.047639 -1.220953
v 0.285617 0.047639 -1.220953
v 0.168987 0.068991 -1.013553
v 0.168987 0.068991 -1.202653
v 0.190338 0.068991 -1.013553
v 0.190338 0.068991 -1.082178
v 0.190338 0.068991 -1.103528
v 0.285619 0.068991 -1.082178
v 0.285619 0.068991 -1.103528
v 0.190338 0.068991 -1.172153
v 0.285619 0.068991 -1.172153
v 0.306969 0.068991 -1.202653
v 0.306969 0.068991 -1.013553
v 0.285619 0.068991 -1.013553
v 0.165022 0.072956 -0.995253
v 0.165022 0.072956 -0.958653
v 0.285619 -0.048316 -1.013553
v 0.190338 -0.048316 -1.013553
v 0.285619 -0.068991 -1.013553
v 0.190338 -0.068991 -1.013553
v 0.285619 0.048316 -1.013553
v 0.190338 0.048316 -1.013553
v 0.185046 -0.052932 -1.202653
v 0.190339 -0.047639 -1.220953
v 0.185046 0.052932 -1.202653
v 0.190339 0.047639 -1.220953
v 0.165022 -0.072956 -0.958653
v 0.306969 -0.068991 -1.013553
v 0.165022 -0.072956 -0.995253
v 0.168987 -0.068991 -1.013553
v 0.226441 0.021537 -1.220953
v 0.226441 0.011187 -1.220953
v 0.226441 0.021537 -1.245778
v 0.226441 -0.021537 -1.220953
v 0.226441 0.016362 -1.250953
v 0.249515 -0.021537 -1.220953
v 0.189662 0.047640 -1.013553
v 0.168987 0.047640 -1.013553
v 0.189662 -0.047640 -1.013553
v 0.168987 -0.047640 -1.013553
v 0.249515 0.021537 -1.245778
v 0.249515 0.021537 -1.220953
v 0.306969 -0.068991 -1.202653
v 0.285619 -0.068991 -1.082178
v 0.285619 -0.068991 -1.103528
v 0.190338 -0.068991 -1.082178
v 0.285619 -0.068991 -1.172153
v 0.168987 -0.068991 -1.202653
v 0.190338 -0.068991 -1.172153
v 0.190338 -0.068991 -1.103528
v 0.306969 -0.047640 -1.013553
v 0.306969 0.047640 -1.013553
v 0.249515 0.011187 -1.220953
v 0.249515 0.016362 -1.250953
v 0.286294 0.047640 -1.013553
v 0.286294 -0.047640 -1.013553
v 0.306969 -0.047640 -1.082178
v 0.306969 -0.047640 -1.103528
v 0.306969 0.047640 -1.082178
v 0.306969 -0.047640 -1.172153
v 0.306969 0.047640 -1.172153
v 0.306969 0.047640 -1.103528
v 0.168987 0.047640 -1.082178
v 0.168987 0.047640 -1.103528
v 0.168987 -0.047640 -1.082178
v 0.168987 0.047640 -1.172153
v 0.168987 -0.047640 -1.172153
v 0.168987 -0.047640 -1.103528
v 0.190338 -0.048316 -1.172153
v 0.190338 0.048316 -1.172153
v 0.285619 0.048316 -1.172153
v 0.285619 -0.048316 -1.172153
v 0.189662 0.047640 -1.172153
v 0.286294 -0.047640 -1.172153
v 0.286294 0.047640 -1.172153
v 0.189662 -0.047640 -1.172153
v -0.117448 0.013271 -1.277356
v -0.117448 -0.013271 -1.277356
v -0.128828 0.013271 -1.276784
v -0.128828 -0.013271 -1.276784
v -0.022447 0.013271 -1.288028
v -0.053120 0.013271 -1.288028
v -0.022447 -0.013271 -1.288028
v -0.053120 -0.013271 -1.288028
v -0.062818 0.013271 -1.263337
v -0.053120 0.013271 -1.257356
v -0.062818 -0.013271 -1.263337
v -0.053120 -0.013271 -1.257356
v -0.151130 0.013271 -1.272240
v -0.151130 -0.013271 -1.272240
v -0.161828 0.013271 -1.268315
v -0.161828 -0.013271 -1.268315
v -0.094802 0.013271 -1.305745
v -0.106068 0.013271 -1.307456
v -0.094802 -0.013271 -1.305745
v -0.106068 -0.013271 -1.307456
v -0.094802 0.013271 -1.275073
v -0.094802 -0.013271 -1.275073
v -0.106068 0.013271 -1.276784
v -0.106068 -0.013271 -1.276784
v -0.117448 0.013271 -1.308029
v -0.128828 0.013271 -1.307456
v -0.117448 -0.013271 -1.308029
v -0.128828 -0.013271 -1.307456
v -0.083765 0.013271 -1.272240
v -0.083765 -0.013271 -1.272240
v -0.140094 0.013271 -1.275073
v -0.140094 -0.013271 -1.275073
v -0.073068 0.013271 -1.268315
v -0.073068 -0.013271 -1.268315
v -0.151130 0.013271 -1.302913
v -0.161828 0.013271 -1.298988
v -0.151130 -0.013271 -1.302913
v -0.161828 -0.013271 -1.298988
v -0.140094 0.013271 -1.305745
v -0.140094 -0.013271 -1.305745
v -0.172076 0.013271 -1.294010
v -0.181775 0.013271 -1.288028
v -0.172076 -0.013271 -1.294010
v -0.181775 -0.013271 -1.288028
v -0.212447 0.013271 -1.288028
v -0.212447 -0.013271 -1.288028
v -0.181775 0.013271 -1.257356
v -0.172076 0.013271 -1.263337
v -0.181775 -0.013271 -1.257356
v -0.172076 -0.013271 -1.263337
v -0.073068 0.013271 -1.298988
v -0.083765 0.013271 -1.302913
v -0.073068 -0.013271 -1.298988
v -0.083765 -0.013271 -1.302913
v -0.062818 0.013271 -1.294010
v -0.062818 -0.013271 -1.294010
v -0.212447 0.013271 -1.257356
v -0.212447 -0.013271 -1.257356
v -0.022448 0.013271 -1.257356
v -0.022448 -0.013271 -1.257356
v 0.116783 0.013271 -1.277356
v 0.116783 -0.013271 -1.277356
v 0.105402 0.013271 -1.276784
v 0.105402 -0.013271 -1.276784
v 0.211783 0.013271 -1.288028
v 0.181110 0.013271 -1.288028
v 0.211783 -0.013271 -1.288028
v 0.181110 -0.013271 -1.288028
v 0.171412 0.013271 -1.263337
v 0.181110 0.013271 -1.257356
v 0.171412 -0.013271 -1.263337
v 0.181110 -0.013271 -1.257356
v 0.083100 0.013271 -1.272240
v 0.083100 -0.013271 -1.272240
v 0.072403 0.013271 -1.268315
v 0.072403 -0.013271 -1.268315
v 0.139428 0.013271 -1.305745
v 0.128163 0.013271 -1.307456
v 0.139428 -0.013271 -1.305745
v 0.128163 -0.013271 -1.307456
v 0.139428 0.013271 -1.275073
v 0.139428 -0.013271 -1.275073
v 0.128163 0.013271 -1.276784
v 0.128163 -0.013271 -1.276784
v 0.116783 0.013271 -1.308029
v 0.105402 0.013271 -1.307456
v 0.116783 -0.013271 -1.308029
v 0.105402 -0.013271 -1.307456
v 0.150465 0.013271 -1.272240
v 0.150465 -0.013271 -1.272240
v 0.094137 0.013271 -1.275073
v 0.094137 -0.013271 -1.275073
v 0.161162 0.013271 -1.268315
v 0.161162 -0.013271 -1.268315
v 0.083100 0.013271 -1.302913
v 0.072403 0.013271 -1.298988
v 0.083100 -0.013271 -1.302913
v 0.072403 -0.013271 -1.298988
v 0.094137 0.013271 -1.305745
v 0.094137 -0.013271 -1.305745
v 0.062154 0.013271 -1.294010
v 0.052455 0.013271 -1.288028
v 0.062154 -0.013271 -1.294010
v 0.052455 -0.013271 -1.288028
v 0.021783 0.013271 -1.288028
v 0.021783 -0.013271 -1.288028
v 0.052455 0.013271 -1.257356
v 0.062154 0.013271 -1.263337
v 0.052455 -0.013271 -1.257356
v 0.062154 -0.013271 -1.263337
v 0.161162 0.013271 -1.298988
v 0.150465 0.013271 -1.302913
v 0.161162 -0.013271 -1.298988
v 0.150465 -0.013271 -1.302913
v 0.171412 0.013271 -1.294010
v 0.171412 -0.013271 -1.294010
v 0.021783 0.013271 -1.257356
v 0.021783 -0.013271 -1.257356
v 0.211782 0.013271 -1.257356
v 0.211782 -0.013271 -1.257356
v -0.165687 -0.072956 -0.958653
v -0.165688 0.072956 -0.958653
v -0.165687 -0.072956 -0.995253
v -0.165688 0.072956 -0.995253
v -0.227106 -0.016362 -1.250953
v -0.250180 -0.016362 -1.250953
v -0.227106 -0.021537 -1.245778
v -0.250180 -0.021537 -1.245778
v -0.185711 -0.052932 -1.202653
v -0.185711 0.052932 -1.202653
v -0.191004 -0.047639 -1.220953
v -0.191004 0.047639 -1.220953
v -0.307635 0.068991 -1.013553
v -0.307635 0.068991 -1.202653
v -0.286284 0.068991 -1.013553
v -0.286284 0.068991 -1.082178
v -0.286284 0.068991 -1.103528
v -0.191003 0.068991 -1.082178
v -0.191003 0.068991 -1.103528
v -0.286284 0.068991 -1.172153
v -0.191003 0.068991 -1.172153
v -0.169653 0.068991 -1.202653
v -0.169653 0.068991 -1.013553
v -0.191003 0.068991 -1.013553
v -0.311599 0.072956 -0.995253
v -0.311599 0.072956 -0.958653
v -0.191003 -0.048316 -1.013553
v -0.286284 -0.048316 -1.013553
v -0.191003 -0.068991 -1.013553
v -0.286284 -0.068991 -1.013553
v -0.191003 0.048316 -1.013553
v -0.286284 0.048316 -1.013553
v -0.291576 -0.052932 -1.202653
v -0.286283 -0.047639 -1.220953
v -0.291576 0.052932 -1.202653
v -0.286283 0.047639 -1.220953
v -0.311599 -0.072956 -0.958653
v -0.169652 -0.068991 -1.013553
v -0.311599 -0.072956 -0.995253
v -0.307634 -0.068991 -1.013553
v -0.250180 0.021537 -1.220953
v -0.250180 0.011187 -1.220953
v -0.250180 0.021537 -1.245778
v -0.250180 -0.021537 -1.220953
v -0.250180 0.016362 -1.250953
v -0.227106 -0.021537 -1.220953
v -0.286959 0.047640 -1.013553
v -0.307635 0.047640 -1.013553
v -0.286959 -0.047640 -1.013553
v -0.307634 -0.047640 -1.013553
v -0.227106 0.021537 -1.245778
v -0.227106 0.021537 -1.220953
v -0.169652 -0.068991 -1.202653
v -0.191003 -0.068991 -1.082178
v -0.191003 -0.068991 -1.103528
v -0.286284 -0.068991 -1.082178
v -0.191003 -0.068991 -1.172153
v -0.307634 -0.068991 -1.202653
v -0.286284 -0.068991 -1.172153
v -0.286284 -0.068991 -1.103528
v -0.169652 -0.047640 -1.013553
v -0.169653 0.047640 -1.013553
v -0.227106 0.011187 -1.220953
v -0.227106 0.016362 -1.250953
v -0.190327 0.047640 -1.013553
v -0.190327 -0.047640 -1.013553
v -0.169652 -0.047640 -1.082178
v -0.169652 -0.047640 -1.103528
v -0.169653 0.047640 -1.082178
v -0.169652 -0.047640 -1.172153
v -0.169653 0.047640 -1.172153
v -0.169653 0.047640 -1.103528
v -0.307635 0.047640 -1.082178
v -0.307635 0.047640 -1.103528
v -0.307634 -0.047640 -1.082178
v -0.307635 0.047640 -1.172153
v -0.307634 -0.047640 -1.172153
v -0.307634 -0.047640 -1.103528
v -0.286284 -0.048316 -1.172153
v -0.286284 0.048316 -1.172153
v -0.191003 0.048316 -1.172153
v -0.191003 -0.048316 -1.172153
v -0.286959 0.047640 -1.172153
v -0.190327 -0.047640 -1.172153
v -0.190327 0.047640 -1.172153
v -0.286959 -0.047640 -1.172153
v -0.073289 0.165355 -0.958653
v 0.072623 0.165355 -0.958653
v -0.073289 0.165355 -0.995253
v 0.072623 0.165355 -0.995253
v -0.016695 0.226774 -1.250953
v -0.016695 0.249848 -1.250953
v -0.021870 0.226774 -1.245778
v -0.021870 0.249848 -1.245778
v -0.053265 0.185379 -1.202653
v 0.052599 0.185379 -1.202653
v -0.047972 0.190672 -1.220953
v 0.047307 0.190672 -1.220953
v 0.068658 0.307302 -1.013553
v 0.068658 0.307302 -1.202653
v 0.068658 0.285951 -1.013553
v 0.068658 0.285951 -1.082178
v 0.068658 0.285951 -1.103528
v 0.068658 0.190670 -1.082178
v 0.068658 0.190670 -1.103528
v 0.068658 0.285951 -1.172153
v 0.068658 0.190670 -1.172153
v 0.068658 0.169320 -1.202653
v 0.068658 0.169320 -1.013553
v 0.068658 0.190670 -1.013553
v 0.072623 0.311267 -0.995253
v 0.072623 0.311267 -0.958653
v -0.048649 0.190670 -1.013553
v -0.048649 0.285951 -1.013553
v -0.069324 0.190670 -1.013553
v -0.069324 0.285951 -1.013553
v 0.047983 0.190670 -1.013553
v 0.047983 0.285951 -1.013553
v -0.053265 0.291243 -1.202653
v -0.047972 0.285950 -1.220953
v 0.052599 0.291243 -1.202653
v 0.047307 0.285950 -1.220953
v -0.073289 0.311267 -0.958653
v -0.069324 0.169320 -1.013553
v -0.073289 0.311267 -0.995253
v -0.069324 0.307302 -1.013553
v 0.021205 0.249848 -1.220953
v 0.010854 0.249848 -1.220953
v 0.021205 0.249848 -1.245778
v -0.021870 0.249848 -1.220953
v 0.016029 0.249848 -1.250953
v -0.021870 0.226774 -1.220953
v 0.047308 0.286627 -1.013553
v 0.047308 0.307302 -1.013553
v -0.047973 0.286627 -1.013553
v -0.047973 0.307302 -1.013553
v 0.021205 0.226774 -1.245778
v 0.021205 0.226774 -1.220953
v -0.069324 0.169320 -1.202653
v -0.069324 0.190670 -1.082178
v -0.069324 0.190670 -1.103528
v -0.069324 0.285951 -1.082178
v -0.069324 0.190670 -1.172153
v -0.069324 0.307302 -1.202653
v -0.069324 0.285951 -1.172153
v -0.069324 0.285951 -1.103528
v -0.047973 0.169320 -1.013553
v 0.047308 0.169320 -1.013553
v 0.010854 0.226774 -1.220953
v 0.016029 0.226774 -1.250953
v 0.047308 0.189995 -1.013553
v -0.047973 0.189995 -1.013553
v -0.047973 0.169320 -1.082178
v -0.047973 0.169320 -1.103528
v 0.047308 0.169320 -1.082178
v -0.047973 0.169320 -1.172153
v 0.047308 0.169320 -1.172153
v 0.047308 0.169320 -1.103528
v 0.047308 0.307302 -1.082178
v 0.047308 0.307302 -1.103528
v -0.047973 0.307302 -1.082178
v 0.047308 0.307302 -1.172153
v -0.047973 0.307302 -1.172153
v -0.047973 0.307302 -1.103528
v -0.048649 0.285951 -1.172153
v 0.047983 0.285951 -1.172153
v 0.047983 0.190670 -1.172153
v -0.048649 0.190670 -1.172153
v 0.047308 0.286627 -1.172153
v -0.047973 0.189995 -1.172153
v 0.047308 0.189995 -1.172153
v -0.047973 0.286627 -1.172153
v 0.012938 0.117115 -1.277356
v -0.013604 0.117115 -1.277356
v 0.012938 0.128496 -1.276784
v -0.013604 0.128496 -1.276784
v 0.012938 0.022115 -1.288028
v 0.012938 0.052788 -1.288028
v -0.013604 0.022115 -1.288028
v -0.013604 0.052788 -1.288028
v 0.012938 0.062486 -1.263337
v 0.012938 0.052788 -1.257356
v -0.013604 0.062486 -1.263337
v -0.013604 0.052788 -1.257356
v 0.012938 0.150798 -1.272240
v -0.013604 0.150798 -1.272240
v 0.012938 0.161495 -1.268315
v -0.013604 0.161495 -1.268315
v 0.012938 0.094470 -1.305745
v 0.012938 0.105735 -1.307456
v -0.013604 0.094470 -1.305745
v -0.013604 0.105735 -1.307456
v 0.012938 0.094470 -1.275073
v -0.013604 0.094470 -1.275073
v 0.012938 0.105735 -1.276784
v -0.013604 0.105735 -1.276784
v 0.012938 0.117115 -1.308029
v 0.012938 0.128496 -1.307456
v -0.013604 0.117115 -1.308029
v -0.013604 0.128496 -1.307456
v 0.012938 0.083433 -1.272240
v -0.013604 0.083433 -1.272240
v 0.012938 0.139761 -1.275073
v -0.013604 0.139761 -1.275073
v 0.012938 0.072736 -1.268315
v -0.013604 0.072736 -1.268315
v 0.012938 0.150798 -1.302913
v 0.012938 0.161495 -1.298988
v -0.013604 0.150798 -1.302913
v -0.013604 0.161495 -1.298988
v 0.012938 0.139761 -1.305745
v -0.013604 0.139761 -1.305745
v 0.012938 0.171744 -1.294010
v 0.012938 0.181443 -1.288028
v -0.013604 0.171744 -1.294010
v -0.013604 0.181443 -1.288028
v 0.012938 0.212115 -1.288028
v -0.013604 0.212115 -1.288028
v 0.012938 0.181443 -1.257356
v 0.012938 0.171744 -1.263337
v -0.013604 0.181443 -1.257356
v -0.013604 0.171744 -1.263337
v 0.012938 0.072736 -1.298988
v 0.012938 0.083433 -1.302913
v -0.013604 0.072736 -1.298988
v -0.013604 0.083433 -1.302913
v 0.012938 0.062486 -1.294010
v -0.013604 0.062486 -1.294010
v 0.012938 0.212115 -1.257356
v -0.013604 0.212115 -1.257356
v 0.012938 0.022116 -1.257356
v -0.013604 0.022116 -1.257356
v 0.012938 -0.117116 -1.277356
v -0.013604 -0.117116 -1.277356
v 0.012938 -0.105735 -1.276784
v -0.013604 -0.105735 -1.276784
v 0.012938 -0.212116 -1.288028
v 0.012938 -0.181443 -1.288028
v -0.013604 -0.212116 -1.288028
v -0.013604 -0.181443 -1.288028
v 0.012938 -0.171745 -1.263337
v 0.012938 -0.181443 -1.257356
v -0.013604 -0.171745 -1.263337
v -0.013604 -0.181443 -1.257356
v 0.012938 -0.083433 -1.272240
v -0.013604 -0.083433 -1.272240
v 0.012938 -0.072736 -1.268315
v -0.013604 -0.072736 -1.268315
v 0.012938 -0.139761 -1.305745
v 0.012938 -0.128496 -1.307456
v -0.013604 -0.139761 -1.305745
v -0.013604 -0.128496 -1.307456
v 0.012938 -0.139761 -1.275073
v -0.013604 -0.139761 -1.275073
v 0.012938 -0.128496 -1.276784
v -0.013604 -0.128496 -1.276784
v 0.012938 -0.117116 -1.308029
v 0.012938 -0.105735 -1.307456
v -0.013604 -0.117116 -1.308029
v -0.013604 -0.105735 -1.307456
v 0.012938 -0.150798 -1.272240
v -0.013604 -0.150798 -1.272240
v 0.012938 -0.094470 -1.275073
v -0.013604 -0.094470 -1.275073
v 0.012938 -0.161495 -1.268315
v -0.013604 -0.161495 -1.268315
v 0.012938 -0.083433 -1.302913
v 0.012938 -0.072736 -1.298988
v -0.013604 -0.083433 -1.302913
v -0.013604 -0.072736 -1.298988
v 0.012938 -0.094470 -1.305745
v -0.013604 -0.094470 -1.305745
v 0.012938 -0.062487 -1.294010
v 0.012938 -0.052788 -1.288028
v -0.013604 -0.062487 -1.294010
v -0.013604 -0.052788 -1.288028
v 0.012938 -0.022116 -1.288028
v -0.013604 -0.022116 -1.288028
v 0.012938 -0.052788 -1.257356
v 0.012938 -0.062487 -1.263337
v -0.013604 -0.052788 -1.257356
v -0.013604 -0.062487 -1.263337
v 0.012938 -0.161495 -1.298988
v 0.012938 -0.150798 -1.302913
v -0.013604 -0.161495 -1.298988
v -0.013604 -0.150798 -1.302913
v 0.012938 -0.171745 -1.294010
v -0.013604 -0.171745 -1.294010
v 0.012938 -0.022116 -1.257356
v -0.013604 -0.022116 -1.257356
v 0.012938 -0.212115 -1.257356
v -0.013604 -0.212115 -1.257356
v -0.073289 -0.311267 -0.958653
v 0.072623 -0.311267 -0.958653
v -0.073289 -0.311267 -0.995253
v 0.072623 -0.311267 -0.995253
v -0.016695 -0.249848 -1.250953
v -0.016695 -0.226774 -1.250953
v -0.021870 -0.249848 -1.245778
v -0.021870 -0.226774 -1.245778
v -0.053265 -0.291243 -1.202653
v 0.052599 -0.291243 -1.202653
v -0.047972 -0.285950 -1.220953
v 0.047307 -0.285950 -1.220953
v 0.068658 -0.169320 -1.013553
v 0.068658 -0.169320 -1.202653
v 0.068658 -0.190670 -1.013553
v 0.068658 -0.190670 -1.082178
v 0.068658 -0.190670 -1.103528
v 0.068658 -0.285951 -1.082178
v 0.068658 -0.285951 -1.103528
v 0.068658 -0.190670 -1.172153
v 0.068658 -0.285951 -1.172153
v 0.068658 -0.307302 -1.202653
v 0.068658 -0.307302 -1.013553
v 0.068658 -0.285951 -1.013553
v 0.072623 -0.165355 -0.995253
v 0.072623 -0.165355 -0.958653
v -0.048649 -0.285951 -1.013553
v -0.048649 -0.190670 -1.013553
v -0.069324 -0.285951 -1.013553
v -0.069324 -0.190670 -1.013553
v 0.047983 -0.285951 -1.013553
v 0.047983 -0.190670 -1.013553
v -0.053265 -0.185379 -1.202653
v -0.047972 -0.190672 -1.220953
v 0.052599 -0.185379 -1.202653
v 0.047307 -0.190672 -1.220953
v -0.073289 -0.165355 -0.958653
v -0.069324 -0.307302 -1.013553
v -0.073289 -0.165355 -0.995253
v -0.069324 -0.169320 -1.013553
v 0.021205 -0.226774 -1.220953
v 0.010854 -0.226774 -1.220953
v 0.021205 -0.226774 -1.245778
v -0.021870 -0.226774 -1.220953
v 0.016029 -0.226774 -1.250953
v -0.021870 -0.249848 -1.220953
v 0.047308 -0.189995 -1.013553
v 0.047308 -0.169320 -1.013553
v -0.047973 -0.189995 -1.013553
v -0.047973 -0.169320 -1.013553
v 0.021205 -0.249848 -1.245778
v 0.021205 -0.249848 -1.220953
v -0.069324 -0.307302 -1.202653
v -0.069324 -0.285951 -1.082178
v -0.069324 -0.285951 -1.103528
v -0.069324 -0.190670 -1.082178
v -0.069324 -0.285951 -1.172153
v -0.069324 -0.169320 -1.202653
v -0.069324 -0.190670 -1.172153
v -0.069324 -0.190670 -1.103528
v -0.047973 -0.307302 -1.013553
v 0.047308 -0.307302 -1.013553
v 0.010854 -0.249848 -1.220953
v 0.016029 -0.249848 -1.250953
v 0.047308 -0.286627 -1.013553
v -0.047973 -0.286627 -1.013553
v -0.047973 -0.307302 -1.082178
v -0.047973 -0.307302 -1.103528
v 0.047308 -0.307302 -1.082178
v -0.047973 -0.307302 -1.172153
v 0.047308 -0.307302 -1.172153
v 0.047308 -0.307302 -1.103528
v 0.047308 -0.169320 -1.082178
v 0.047308 -0.169320 -1.103528
v -0.047973 -0.169320 -1.082178
v 0.047308 -0.169320 -1.172153
v -0.047973 -0.169320 -1.172153
v -0.047973 -0.169320 -1.103528
v -0.048649 -0.190670 -1.172153
v 0.047983 -0.190670 -1.172153
v 0.047983 -0.285951 -1.172153
v -0.048649 -0.285951 -1.172153
v 0.047308 -0.189995 -1.172153
v -0.047973 -0.286627 -1.172153
v 0.047308 -0.286627 -1.172153
v -0.047973 -0.189995 -1.172153
vn 0.2937 0.9554 -0.0296
vn 0.7369 -0.0000 -0.6760
vn 0.6365 0.6365 -0.4356
vn -1.0000 -0.0000 -0.0079
vn -0.9944 -0.0000 0.1060
vn 0.5500 0.5500 -0.6285
vn -0.6014 0.6014 0.5261
vn 0.6013 0.6014 0.5260
vn -0.5500 0.5500 -0.6285
vn -0.6552 0.7451 -0.1248
vn -0.0000 0.9944 -0.1060
vn -0.5500 -0.5500 -0.6285
vn 0.5500 -0.5500 -0.6285
vn 0.6014 -0.6013 0.5261
vn -0.6014 -0.6014 0.5260
vn -0.6414 -0.7663 0.0388
vn -0.0000 -0.9924 0.1230
vn -0.6310 -0.6310 0.4513
vn -0.0000 0.8608 0.5090
vn -0.5424 0.5424 0.6415
vn -0.3826 -0.9135 -0.1381
vn 0.6900 -0.0000 0.7238
vn 1.0000 -0.0000 -0.0079
vn 0.7369 -0.0000 0.6760
vn 0.0227 -0.9997 0.0056
vn -0.0000 -0.9944 -0.1060
vn 1.0000 -0.0000 0.0079
vn 0.9924 -0.0000 0.1230
vn -0.7069 0.7069 0.0218
vn -0.4773 -0.4773 0.7378
vn -0.7069 -0.7069 0.0218
vn 0.4773 0.4773 0.7378
vn 0.7069 0.7069 0.0218
vn 0.2966 -0.2966 0.9078
vn 0.7069 -0.7069 0.0218
vn -0.0000 -0.0000 1.0000
vn -0.5773 0.5774 -0.5774
vn 0.5773 -0.5774 -0.5774
vn -0.5774 -0.5774 -0.5774
vn -0.5774 -0.5774 0.5773
vn 0.5774 -0.5774 0.5774
vn -0.9045 0.3015 0.3015
vn -0.5774 0.5774 0.5774
vn -0.9045 -0.3015 0.3015
vn -0.5774 -0.5773 0.5774
vn 0.5774 0.5774 0.5773
vn 0.5774 0.5774 -0.5774
vn 0.9045 -0.3015 0.3015
vn 0.5774 0.5773 0.5774
vn 0.9045 0.3015 0.3015
vn -0.5773 -0.5774 -0.5774
vn -0.5774 0.5773 0.5774
vn -0.5774 -0.5773 -0.5774
vn 0.5774 0.5773 -0.5774
vn 0.5774 -0.5774 -0.5774
vn -0.5774 0.5774 -0.5774
vn -0.3015 -0.9045 0.3015
vn -0.5774 -0.5774 0.5774
vn 0.3015 -0.9045 0.3015
vn 0.5774 -0.5774 0.5773
vn 0.5773 -0.5774 0.5774
vn 0.3015 0.9045 0.3015
vn -0.3015 0.9045 0.3015
vn -0.5773 0.5774 0.5774
vn 0.5774 0.5774 0.5774
vn -0.5774 0.5774 0.5773
vn 0.5773 0.5773 0.5774
vn 0.7904 -0.5921 -0.1571
vn 0.7071 0.7071 0.0046
vn 0.4089 -0.7967 -0.4450
vn -0.2873 -0.3665 -0.8849
vn 0.6601 -0.5340 -0.5283
vn -0.6575 -0.5914 -0.4668
vn 0.2917 0.8617 -0.4152
vn -0.5773 0.5773 -0.5774
vn -0.6981 0.6981 -0.1590
vn 0.7071 0.7071 -0.0000
vn -0.0000 1.0000 -0.0000
vn 0.5773 0.5774 -0.5774
vn 0.6981 0.6981 -0.1590
vn -0.5858 0.7949 -0.1580
vn -0.2917 0.8617 -0.4152
vn -0.2917 -0.8617 -0.4152
vn 0.5773 -0.5774 -0.5773
vn 0.2917 -0.8617 -0.4152
vn -0.5773 0.5774 -0.5773
vn 0.1866 -0.1847 -0.9649
vn 0.6667 -0.6667 -0.3332
vn -0.1088 -0.2226 -0.9688
vn -0.1667 -0.5556 -0.8146
vn -0.6331 0.0068 -0.7741
vn 0.0280 -0.0280 -0.9992
vn -0.0879 0.6420 -0.7617
vn 0.0022 0.0022 -1.0000
vn -0.5856 -0.7892 -0.1850
vn 0.6981 -0.6981 -0.1589
vn -0.6981 -0.6981 -0.1590
vn -0.7193 0.6936 -0.0393
vn -0.7071 -0.0000 -0.7071
vn -0.3015 0.3015 -0.9045
vn -0.3015 -0.3015 -0.9045
vn -0.6817 -0.0027 -0.7316
vn 0.3015 -0.3015 -0.9045
vn -0.5774 0.5774 -0.5773
vn -0.0000 -0.7071 -0.7071
vn -0.5773 -0.5773 0.5774
vn -0.9773 -0.0000 -0.2118
vn -0.0000 -0.0000 -0.0000
vn -0.7071 -0.7071 -0.0000
vn 0.5773 -0.5773 -0.5774
vn 0.9773 -0.0000 -0.2118
vn 0.7071 -0.0000 -0.7071
vn 0.3015 0.3015 -0.9045
vn 0.7366 0.5554 -0.3859
vn 0.6575 0.5918 -0.4664
vn 0.5774 0.5774 -0.5773
vn 0.5774 0.5773 -0.5773
vn 1.0000 -0.0000 -0.0000
vn -1.0000 -0.0000 -0.0000
vn 0.7071 -0.7071 -0.0000
vn 0.5773 0.5774 0.5774
vn -0.5773 -0.5774 0.5774
vn -0.0000 -1.0000 -0.0000
vn 0.0887 0.6986 0.7100
vn -0.0000 -0.6916 0.7223
vn -0.0070 0.7012 0.7130
vn 0.1019 -0.7127 0.6940
vn 0.5774 -0.5773 -0.5774
vn 0.1728 0.7740 -0.6092
vn 0.1728 -0.7740 -0.6092
vn -0.2072 0.6505 0.7307
vn -0.3019 -0.7171 0.6282
vn -0.2072 -0.6505 0.7307
vn 0.2991 0.6954 0.6534
vn 0.2144 -0.6919 0.6895
vn 0.1821 0.7177 0.6721
vn 0.2851 -0.7015 0.6531
vn 0.1302 -0.6751 -0.7261
vn 0.1050 0.6964 -0.7099
vn 0.1478 0.6719 -0.7258
vn 0.0744 -0.6716 -0.7371
vn -0.0525 0.6955 0.7167
vn -0.1442 -0.6916 0.7078
vn -0.1492 0.7013 0.6971
vn -0.0567 0.6751 -0.7355
vn -0.0333 -0.6964 -0.7169
vn -0.0743 -0.6718 -0.7370
vn -0.2318 0.6956 0.6800
vn -0.2119 -0.7005 0.6815
vn 0.1016 0.7171 0.6895
vn -0.2811 -0.6954 0.6614
vn -0.3028 0.7128 0.6326
vn -0.2725 0.6752 -0.6855
vn -0.2443 -0.6964 -0.6748
vn -0.2896 -0.6721 -0.6815
vn -0.1640 -0.6753 -0.7190
vn -0.1809 0.6964 -0.6944
vn -0.1479 0.6716 -0.7260
vn -0.1728 0.7740 -0.6092
vn -0.3737 -0.6964 -0.6126
vn -0.1728 -0.7740 -0.6092
vn -0.0000 0.7071 -0.7071
vn -0.3491 0.7017 0.6211
vn -0.0716 -0.7004 0.7101
vn 0.2072 -0.6506 0.7307
vn 0.3065 0.7174 0.6256
vn 0.2072 0.6506 0.7306
vn 0.3212 -0.7034 0.6341
vn 0.2725 -0.6752 -0.6854
vn 0.2443 0.6964 -0.6748
vn 0.2896 0.6721 -0.6814
vn 0.2200 -0.6716 -0.7075
vn 0.0333 0.6964 -0.7169
vn 0.3399 -0.6752 -0.6546
vn 0.3565 0.6723 -0.6488
vn -0.3161 0.6964 -0.6443
vn 0.5773 0.5774 0.5773
vn -0.0000 0.7071 0.7071
vn 0.1634 -0.7118 0.6831
vn -0.0000 -0.7071 0.7071
vn 0.1024 -0.7174 0.6891
vn -0.3287 -0.6955 0.6389
vn -0.3166 0.7130 0.6256
vn -0.1627 -0.6954 0.7000
vn -0.0724 0.6917 0.7186
vn -0.0442 -0.7177 0.6949
vn -0.0174 -0.6751 -0.7375
vn -0.0388 0.6964 -0.7166
vn -0.0000 0.6716 -0.7409
vn -0.2426 0.7171 0.6533
vn -0.1161 0.7129 0.6916
vn 0.1492 -0.7013 0.6971
vn 0.1640 0.6753 -0.7190
vn 0.1479 -0.6716 -0.7260
vn 0.3697 0.6757 -0.6378
vn 0.3567 -0.6717 -0.6492
vn 0.0745 0.7192 -0.6908
vn -0.1309 0.7189 -0.6827
vn -0.3397 0.7190 -0.6063
vn 0.1051 -0.6964 -0.7099
vn -0.1479 -0.7184 -0.6797
vn 0.2954 -0.7092 0.6402
vn -0.3167 -0.6964 -0.6440
vn -0.3103 -0.4952 -0.8115
vn 0.3923 -0.8498 -0.3520
vn 0.6262 -0.0555 -0.7777
vn 0.2230 -0.0907 -0.9706
vn -0.0107 0.0107 -0.9999
vn 0.6938 0.6938 -0.1932
vn -0.8614 0.3417 0.3758
vn 0.5594 0.5594 0.6117
vn 0.6788 0.6788 -0.2800
vn 0.5774 -0.5773 0.5774
vn 0.7779 -0.2996 -0.5524
vn 0.5921 -0.7904 -0.1571
vn -0.7826 0.5015 -0.3689
vn -0.6773 -0.7105 -0.1908
vn -0.5560 -0.5560 0.6178
vn -0.3038 0.0516 -0.9513
vn 0.6330 -0.4458 0.6330
vn 0.7044 0.7044 0.0877
vn 0.6575 0.7483 -0.0881
vn 0.6817 0.0027 -0.7316
vn -0.0555 -0.6262 -0.7777
vn -0.0907 -0.2230 -0.9706
vn 0.0107 0.0107 -0.9999
vn 0.5773 0.5773 -0.5774
vn 0.7879 0.5875 -0.1843
vn 0.6981 -0.6981 -0.1590
vn 0.8617 0.2917 -0.4152
vn 0.8617 -0.2917 -0.4152
vn 0.5773 -0.5773 0.5774
vn 0.7917 -0.5904 -0.1574
vn -0.1847 -0.1866 -0.9649
vn -0.0000 0.5634 -0.8262
vn -0.6343 0.6343 -0.4420
vn -0.5773 0.5773 0.5774
vn -0.6981 -0.6981 -0.1589
vn -0.7876 0.5863 -0.1895
vn -0.8617 0.2917 -0.4152
vn -0.8617 -0.2917 -0.4152
vn 0.6936 0.7193 -0.0393
vn -0.7483 0.6575 -0.0881
vn -0.7510 -0.6599 -0.0229
vn 0.6981 0.6981 -0.1589
vn -0.0000 0.9773 -0.2117
vn -0.5773 -0.5773 -0.5774
vn -0.7071 0.7071 -0.0000
vn -0.0000 -0.9773 -0.2117
vn 0.7483 -0.6575 -0.0881
vn 0.0027 -0.6817 -0.7316
vn 0.5774 -0.5774 -0.5773
vn -0.5774 0.5773 -0.5774
vn 0.3559 0.3674 -0.8593
vn -0.0887 -0.6575 -0.7482
vn 0.0887 0.6575 -0.7482
vn -0.0958 -0.5608 -0.8224
vn -0.1330 0.2219 -0.9659
vn -0.6954 0.0197 0.7184
vn 0.6954 -0.0721 0.7150
vn -0.7127 -0.1019 0.6940
vn -0.6955 0.3287 0.6389
vn 0.6505 0.2072 0.7307
vn 0.7130 0.3166 0.6256
vn -0.6505 0.2072 0.7307
vn 0.6954 -0.2991 0.6534
vn -0.6919 -0.2144 0.6895
vn 0.7011 -0.2050 0.6829
vn -0.6751 -0.1302 -0.7261
vn 0.6964 -0.1050 -0.7099
vn 0.6719 -0.1479 -0.7258
vn 0.6955 0.0525 0.7167
vn -0.6916 0.1442 0.7078
vn 0.7013 0.1492 0.6971
vn -0.7011 0.0645 0.7101
vn -0.6751 0.0174 -0.7375
vn 0.6964 0.0388 -0.7166
vn 0.6716 -0.0000 -0.7409
vn -0.6718 0.0743 -0.7370
vn 0.7171 0.2426 0.6533
vn -0.7128 0.2315 0.6621
vn -0.6959 0.2871 0.6583
vn 0.7174 0.3018 0.6279
vn 0.6752 0.2725 -0.6854
vn -0.6964 0.2442 -0.6748
vn -0.6721 0.2896 -0.6814
vn 0.6954 -0.1627 0.7000
vn -0.7013 -0.1492 0.6971
vn 0.6752 0.2024 -0.7094
vn -0.6964 0.1755 -0.6958
vn 0.6964 0.1104 -0.7091
vn -0.6757 0.3697 -0.6378
vn 0.7740 0.1728 -0.6092
vn 0.6718 0.3567 -0.6492
vn -0.7740 0.1728 -0.6092
vn 0.6754 -0.2352 -0.6989
vn -0.6964 -0.2498 -0.6727
vn -0.6717 -0.2199 -0.7075
vn -0.6969 -0.3371 0.6330
vn 0.7030 -0.3635 0.6112
vn -0.7130 -0.2522 0.6543
vn 0.7071 -0.0000 0.7071
vn -0.6506 -0.2072 0.7307
vn 0.6506 -0.2072 0.7306
vn -0.7071 -0.0000 0.7071
vn -0.7740 -0.1728 -0.6092
vn 0.6964 -0.3737 -0.6127
vn 0.7740 -0.1728 -0.6092
vn 0.5774 -0.5773 0.5773
vn 0.7109 -0.2978 -0.6371
vn 0.7351 -0.0088 0.6779
vn -0.7143 -0.3549 -0.6032
vn -0.6964 -0.1051 -0.7099
vn -0.7171 0.3019 0.6282
vn -0.6954 0.1241 0.7079
vn 0.7129 0.1161 0.6916
vn 0.7128 0.3029 0.6326
vn -0.6754 0.2352 -0.6989
vn 0.6964 0.2498 -0.6727
vn 0.6717 0.2199 -0.7075
vn -0.6959 -0.0653 0.7151
vn 0.7174 -0.0371 0.6957
vn -0.6719 0.1479 -0.7258
vn -0.6954 -0.0197 0.7184
vn 0.7171 0.1076 0.6886
vn 0.7128 -0.0244 0.7009
vn 0.7008 -0.3250 0.6351
vn -0.7034 -0.3212 0.6341
vn -0.6752 -0.2725 -0.6854
vn 0.6964 -0.2442 -0.6748
vn 0.6721 -0.2896 -0.6814
vn -0.6751 -0.0567 -0.7355
vn 0.6718 -0.0743 -0.7370
vn 0.6964 -0.1755 -0.6958
vn -0.6752 -0.3399 -0.6546
vn 0.6723 -0.3565 -0.6488
vn 0.6964 0.3161 -0.6442
vn -0.6723 0.3565 -0.6488
vn 0.7347 0.3191 0.5987
vn 0.7351 -0.2097 0.6447
vn 0.7171 -0.3072 0.6256
vn -0.6964 -0.1758 -0.6958
vn -0.7174 0.0442 0.6953
vn -0.7421 -0.2133 0.6354
vn -0.7146 -0.2960 0.6339
vn -0.5981 -0.7940 -0.1087
vn 0.7071 -0.7071 0.0046
vn -0.7967 -0.4089 -0.4450
vn -0.3665 0.2873 -0.8849
vn -0.5340 -0.6601 -0.5283
vn -0.5914 0.6575 -0.4668
vn 0.7864 0.5882 -0.1888
vn -0.5774 -0.5773 -0.5773
vn 0.0674 -0.0674 -0.9954
vn -0.5556 0.1667 -0.8146
vn 0.0068 0.6331 -0.7741
vn -0.0280 -0.0280 -0.9992
vn 0.5608 0.0958 -0.8224
vn -0.7892 0.5856 -0.1850
vn -0.0027 0.6817 -0.7316
vn 0.5554 -0.7366 -0.3859
vn 0.5918 -0.6575 -0.4664
vn -0.0000 1.0000 -0.0079
vn -0.0000 0.9924 -0.1230
vn -0.2031 -0.0000 -0.9792
vn -0.0000 -0.0000 -1.0000
vn -0.8608 -0.0000 -0.5090
vn -0.2200 0.6716 -0.7075
vn -0.7129 -0.1161 0.6916
vt 0.843750 0.032128
vt 0.843750 0.059216
vt 0.843750 0.225000
vt 0.843750 0.211350
vt 0.843750 0.025000
vt 0.843750 0.077043
vt 0.593750 0.275000
vt 0.593750 0.300043
vt 0.593750 0.471459
vt 0.593750 0.475000
vt 0.593750 0.312564
vt 0.593750 0.441952
vt 0.593750 0.374128
vt 0.593750 0.359519
vt 0.593750 0.421083
vt 0.593750 0.454473
vt 0.593750 0.351680
vt 0.593750 0.353938
vt 0.593750 0.396059
vt 0.593750 0.298606
vt 0.593750 0.318254
vt 0.593750 0.333745
vt 0.593750 0.465985
vt 0.593750 0.472738
vt 0.593750 0.344927
vt 0.593750 0.439316
vt 0.593750 0.454808
vt 0.593750 0.419669
vt 0.718750 0.312564
vt 0.718750 0.421083
s 1
usemtl colormap.024
f 2/1/1 3/2/2 4/2/3
f 1/1/4 2/1/4 3/2/5
f 7/3/6 6/4/7 5/4/8
f 6/4/7 7/3/6 8/3/9
f 4/2/3 9/1/10 2/1/1
f 9/1/10 4/2/3 10/2/11
f 12/3/12 7/3/6 11/3/13
f 7/3/6 12/3/12 8/3/9
f 12/3/12 14/4/14 13/4/15
f 14/4/14 12/3/12 11/3/13
f 19/1/16 18/5/17 17/5/18
f 17/5/18 15/5/19 16/5/20
f 9/1/10 20/2/21 19/1/16
f 10/2/22 9/1/23 20/2/24
f 20/2/21 1/1/25 19/1/16
f 1/1/25 20/2/21 3/2/26
f 5/4/8 11/3/13 7/3/6
f 6/4/7 12/3/12 13/4/15
f 12/3/12 6/4/7 8/3/9
f 2/1/27 18/5/28 1/1/27
f 23/2/29 22/2/30 21/4/29
f 24/4/31 21/4/29 22/2/30
f 27/2/32 26/4/33 25/2/34
f 28/4/35 25/2/34 26/4/33
f 27/2/32 23/2/29 26/4/33
f 21/4/29 26/4/33 23/2/29
f 22/2/30 25/2/34 24/4/31
f 28/4/35 24/4/31 25/2/34
f 25/2/34 20/2/24 27/2/32
f 10/2/22 22/2/30 4/2/36
f 13/4/15 21/4/36 26/4/36
f 13/4/15 26/4/36 28/4/36
f 24/4/36 6/4/7 28/4/36
f 28/4/36 6/4/7 13/4/15
f 30/3/37 31/3/38 32/3/39
f 39/6/40 31/3/38 33/6/41
f 31/3/38 39/6/40 32/3/39
f 30/3/37 41/6/42 40/6/43
f 41/6/42 30/3/37 42/6/44
f 42/6/44 30/3/37 39/6/40
f 39/6/40 30/3/37 32/3/39
f 43/5/45 41/6/42 42/6/44
f 41/6/42 43/5/45 44/5/43
f 30/3/37 36/6/46 29/3/47
f 36/6/46 30/3/37 40/6/43
f 39/6/40 34/6/48 42/6/44
f 34/6/48 39/6/40 33/6/41
f 43/5/45 37/5/49 44/5/43
f 37/5/49 43/5/45 38/5/41
f 34/6/48 43/5/45 42/6/44
f 41/6/42 37/5/49 35/6/50
f 37/5/49 41/6/42 44/5/43
f 41/6/42 36/6/46 40/6/43
f 36/6/46 41/6/42 35/6/50
f 47/3/38 46/3/37 45/3/47
f 46/3/37 47/3/38 48/3/51
f 47/3/38 50/6/48 49/6/41
f 50/6/48 47/3/38 51/6/50
f 51/6/50 47/3/38 52/6/46
f 52/6/46 47/3/38 45/3/47
f 53/5/49 50/6/48 51/6/50
f 50/6/48 53/5/49 54/5/41
f 55/6/40 47/3/38 49/6/41
f 47/3/38 55/6/40 48/3/51
f 46/3/37 57/6/42 56/6/43
f 57/6/42 46/3/37 58/6/44
f 58/6/44 46/3/37 55/6/40
f 55/6/40 46/3/37 48/3/51
f 59/5/45 57/6/42 58/6/44
f 57/6/42 59/5/45 60/5/52
f 46/3/37 52/6/46 45/3/47
f 55/6/40 50/6/48 58/6/44
f 50/6/48 55/6/40 49/6/41
f 59/5/45 53/5/49 60/5/52
f 53/5/49 59/5/45 54/5/41
f 59/5/45 50/6/48 54/5/41
f 50/6/48 59/5/45 58/6/44
f 57/6/42 53/5/49 51/6/50
f 63/3/53 62/3/54 61/3/55
f 62/3/54 63/3/53 64/3/56
f 63/3/53 66/6/57 65/6/58
f 66/6/57 63/3/53 67/6/59
f 68/6/60 63/3/53 61/3/55
f 69/5/61 66/6/57 67/6/59
f 66/6/57 69/5/61 70/5/58
f 73/6/62 62/3/54 74/6/63
f 75/5/64 73/6/62 74/6/63
f 73/6/62 75/5/64 76/5/65
f 62/3/54 68/6/60 61/3/55
f 68/6/60 62/3/54 72/6/65
f 71/6/66 66/6/57 74/6/63
f 66/6/57 71/6/66 65/6/58
f 75/5/64 69/5/61 76/5/65
f 75/5/64 66/6/57 70/5/58
f 66/6/57 75/5/64 74/6/63
f 73/6/62 69/5/61 67/6/59
f 69/5/61 73/6/62 76/5/65
f 73/6/62 68/6/60 72/6/65
f 68/6/60 73/6/62 67/6/59
f 78/3/54 79/3/53 80/3/56
f 85/5/61 82/6/57 83/6/59
f 82/6/57 85/5/61 86/5/58
f 79/3/53 87/6/66 80/3/56
f 91/5/64 89/6/62 90/6/63
f 84/6/60 78/3/54 88/6/65
f 87/6/66 82/6/57 90/6/63
f 82/6/57 91/5/64 90/6/63
f 89/6/62 85/5/61 83/6/59
f 85/5/61 89/6/62 92/5/65
f 84/6/60 89/6/62 83/6/59
f 94/7/67 95/8/68 96/8/69
f 99/9/70 98/10/71 97/10/72
f 98/10/71 99/9/70 100/9/73
f 107/11/74 106/12/75 105/11/76
f 109/13/77 106/12/75 108/14/77
f 110/14/78 109/13/78 108/14/78
f 112/15/62 106/12/75 109/13/77
f 113/15/63 106/12/75 112/15/62
f 114/12/79 113/15/63 115/11/80
s 0
f 116/11/78 111/13/78 110/14/78
s 1
f 115/11/80 117/8/81 96/8/69
f 117/8/81 116/11/82 107/11/74
f 94/7/67 117/8/81 118/7/43
f 121/11/83 120/11/84 119/11/51
f 120/11/84 121/11/83 122/11/85
f 123/11/86 107/11/74 116/11/82
f 107/11/74 123/11/86 124/11/79
f 125/12/87 103/16/88 101/12/89
f 103/16/88 125/12/87 126/16/90
f 128/16/91 125/12/87 127/12/92
f 125/12/87 128/16/91 126/16/90
f 104/16/93 127/12/92 102/12/94
f 131/8/95 130/11/96 95/8/68
f 130/11/96 131/8/95 121/11/83
f 121/11/83 131/8/95 122/11/85
f 122/11/85 131/8/95 132/11/97
f 135/9/98 134/16/99 133/16/100
f 134/16/99 135/9/98 136/16/101
f 136/16/101 135/9/98 100/9/73
f 100/9/73 135/9/98 137/10/102
f 136/16/101 99/9/70 138/16/103
f 99/9/70 136/16/101 100/9/73
f 141/11/104 140/11/105 139/11/51
f 95/8/68 129/7/106 131/8/95
s 0
f 132/11/107 105/11/107 140/11/107
f 132/11/108 140/11/108 142/11/108
s 1
f 147/13/109 145/12/110 146/14/109
f 130/11/96 96/8/69 95/8/68
f 96/8/69 130/11/96 115/11/80
s 0
f 115/11/111 130/11/111 153/11/111
s 1
f 99/9/70 155/16/112 138/16/103
f 155/16/112 99/9/70 144/16/113
f 143/9/114 97/10/72 156/10/115
f 154/11/105 158/11/116 157/11/38
f 158/11/116 154/11/105 153/11/117
f 153/11/117 145/12/110 159/14/77
f 162/15/50 145/12/110 163/15/48
f 114/12/79 163/15/48 145/12/110
f 161/14/118 160/13/118 164/13/118
f 114/12/79 161/14/118 164/13/118
f 115/11/80 161/14/118 114/12/79
f 161/14/118 115/11/80 154/11/118
f 150/12/51 170/13/119 169/15/42
f 167/14/119 166/13/119 170/13/119
f 150/12/51 167/14/119 170/13/119
f 132/11/97 167/14/119 150/12/51
f 167/14/119 132/11/97 142/11/119
f 137/10/102 97/10/72 98/10/71
f 135/9/98 156/10/115 137/10/102
f 148/14/120 120/11/84 122/11/85
f 120/11/84 148/14/120 171/15/61
f 171/15/61 148/14/120 152/13/120
f 124/11/79 108/14/77 107/11/74
f 108/14/77 124/11/79 172/15/121
f 108/14/77 172/15/121 109/13/77
f 109/13/77 172/15/121 112/15/62
f 172/15/121 113/15/63 112/15/62
f 113/15/63 172/15/121 173/15/64
f 151/15/59 174/15/122 171/15/61
f 174/15/122 151/15/59 149/15/57
s 0
f 168/15/123 165/14/123 166/13/123
s 1
f 159/14/77 176/15/49 153/11/117
f 153/11/117 176/15/49 158/11/116
s 0
f 164/13/123 154/11/123 163/15/123
s 1
f 163/15/48 157/11/38 177/15/41
f 119/11/51 146/14/109 121/11/83
f 146/14/109 174/15/122 147/13/109
f 169/15/42 175/15/40 168/15/44
f 175/15/40 169/15/42 178/15/66
f 110/14/119 123/11/86 116/11/82
f 123/11/86 110/14/119 173/15/64
s 0
f 142/11/78 170/13/78 167/14/78
s 1
f 176/15/49 163/15/48 177/15/41
f 163/15/48 176/15/49 162/15/50
f 128/16/91 133/16/100 126/16/90
f 126/16/90 136/16/101 103/16/88
f 133/16/100 128/16/91 144/16/113
f 104/16/93 144/16/113 128/16/91
f 138/16/103 103/16/88 136/16/101
f 144/16/113 103/16/88 155/16/112
f 155/16/112 103/16/88 138/16/103
f 150/12/51 127/12/92 125/12/87
f 106/12/75 127/12/92 150/12/51
f 127/12/92 106/12/75 102/12/94
f 181/17/124 180/18/125 179/18/126
f 180/18/125 181/17/124 182/17/127
f 185/19/128 184/19/129 183/19/117
f 184/19/129 185/19/128 186/19/130
f 188/7/131 189/20/132 190/7/133
f 193/21/134 192/22/135 191/22/136
f 192/22/135 193/21/134 194/21/137
f 197/23/138 196/24/139 195/23/140
f 196/24/139 197/23/138 198/24/141
f 201/17/142 200/25/143 199/25/144
f 204/24/145 205/10/146 206/24/147
f 207/22/148 200/25/143 208/22/149
f 192/22/135 209/25/150 191/22/136
f 207/22/148 212/21/151 211/21/152
f 212/21/151 207/22/148 208/22/149
f 214/26/153 215/27/154 216/26/155
f 218/23/156 213/27/157 217/23/158
f 217/23/158 206/24/147 218/23/156
f 220/19/159 221/28/160 222/19/161
f 222/19/161 223/19/162 220/19/159
f 211/21/152 189/20/132 187/20/163
f 201/17/142 180/18/125 202/17/164
f 227/7/165 226/20/166 225/7/167
f 226/20/166 227/7/165 228/20/168
f 231/26/169 230/27/170 229/26/171
f 230/27/170 231/26/169 232/27/172
f 198/24/141 203/10/173 196/24/139
f 203/10/173 198/24/141 205/10/146
f 232/27/172 195/23/140 230/27/170
f 195/23/140 232/27/172 197/23/138
f 234/28/174 229/26/171 233/28/175
f 193/21/134 228/20/168 194/21/137
f 216/26/155 219/28/176 214/26/153
f 219/28/176 216/26/155 221/28/160
f 188/7/131 238/7/61 237/7/177
f 238/7/61 188/7/131 190/7/133
f 184/19/129 237/7/177 183/19/117
f 237/7/177 184/19/129 188/7/131
f 187/20/163 233/28/175 229/26/171
f 211/21/152 230/27/170 207/22/148
f 207/22/148 230/27/170 195/23/140
f 207/22/148 195/23/140 199/25/144
f 199/25/144 195/23/140 196/24/139
f 225/7/167 220/19/159 223/19/162
f 225/7/167 223/19/162 235/7/178
f 238/7/61 186/19/130 185/19/128
f 186/19/130 238/7/61 190/7/133
f 186/19/130 190/7/133 189/20/132
f 186/19/130 189/20/132 234/28/174
f 234/28/174 212/21/151 231/26/169
f 231/26/169 212/21/151 208/22/149
f 231/26/169 208/22/149 232/27/172
f 197/23/138 202/17/164 198/24/141
f 198/24/141 180/18/125 205/10/146
f 205/10/146 182/17/127 206/24/147
f 206/24/147 182/17/127 210/25/179
f 206/24/147 210/25/179 218/23/156
f 221/28/160 227/7/165 222/19/161
f 222/19/161 236/7/180 224/19/105
f 237/7/177 185/19/128 183/19/117
f 241/17/124 240/18/125 239/18/126
f 240/18/125 241/17/124 242/17/181
f 244/19/129 245/19/128 246/19/130
f 249/20/182 248/7/131 247/20/183
f 248/7/131 249/20/182 250/7/133
f 253/21/134 252/22/135 251/22/136
f 260/25/184 261/17/185 262/17/186
f 265/10/187 264/24/188 263/10/189
f 264/24/188 265/10/187 266/24/147
f 260/25/184 267/22/190 259/25/191
f 267/22/190 260/25/184 268/22/149
f 252/22/135 269/25/150 251/22/136
f 267/22/190 272/21/151 271/21/152
f 274/26/153 275/27/154 276/26/155
f 269/25/150 242/17/181 241/17/124
f 242/17/181 269/25/150 270/25/192
f 271/21/152 249/20/182 247/20/183
f 249/20/182 271/21/152 272/21/151
f 240/18/125 261/17/185 239/18/126
f 287/7/165 286/20/166 285/7/167
f 286/20/166 287/7/165 288/20/168
f 291/26/169 290/27/170 289/26/171
f 290/27/170 291/26/169 292/27/172
f 255/23/193 292/27/172 257/23/194
f 287/7/165 295/7/178 296/7/180
f 293/28/195 246/19/130 294/28/196
f 244/19/129 297/7/177 243/19/117
f 297/7/177 244/19/129 248/7/131
f 267/22/190 290/27/170 255/23/193
f 259/25/191 256/24/197 261/17/185
f 261/17/185 256/24/197 263/10/189
f 261/17/185 263/10/189 239/18/126
f 239/18/126 263/10/189 264/24/188
f 241/17/124 264/24/188 277/23/198
f 241/17/124 277/23/198 269/25/150
f 253/21/134 274/26/153 279/28/199
f 253/21/134 279/28/199 286/20/166
f 286/20/166 279/28/199 280/19/159
f 286/20/166 280/19/159 285/7/167
f 285/7/167 280/19/159 283/19/162
f 285/7/167 283/19/162 295/7/178
f 246/19/130 298/7/61 250/7/133
f 246/19/130 250/7/133 249/20/182
f 246/19/130 249/20/182 294/28/196
f 294/28/196 249/20/182 272/21/151
f 294/28/196 272/21/151 291/26/169
f 291/26/169 272/21/151 268/22/149
f 291/26/169 268/22/149 292/27/172
f 292/27/172 268/22/149 260/25/184
f 257/23/194 262/17/186 258/24/200
f 258/24/200 262/17/186 240/18/125
f 258/24/200 240/18/125 265/10/187
f 265/10/187 240/18/125 242/17/181
f 278/23/201 270/25/192 252/22/135
f 278/23/201 252/22/135 275/27/154
f 275/27/154 252/22/135 254/21/202
f 275/27/154 254/21/202 276/26/155
f 276/26/155 254/21/202 288/20/168
f 276/26/155 288/20/168 281/28/203
f 281/28/203 288/20/168 287/7/165
f 281/28/203 287/7/165 282/19/161
f 282/19/161 287/7/165 296/7/180
f 282/19/161 296/7/180 284/19/105
f 245/19/128 297/7/177 298/7/61
f 304/10/204 305/9/205 306/9/73
f 309/16/206 308/12/207 307/12/208
f 308/12/207 309/16/206 310/16/209
f 313/11/74 312/12/75 311/11/210
f 315/13/77 312/12/75 314/14/77
f 315/13/78 316/14/78 317/13/78
f 320/12/79 319/15/63 321/11/211
f 321/11/211 323/8/81 302/8/212
f 323/8/81 313/11/74 311/11/210
f 323/8/81 300/7/67 302/8/212
f 300/7/67 323/8/81 324/7/52
f 331/12/87 309/16/206 307/12/208
f 309/16/206 331/12/87 332/16/90
f 334/16/91 331/12/87 333/12/92
f 333/12/92 310/16/209 334/16/91
f 335/7/106 300/7/67 324/7/52
f 300/7/67 335/7/106 299/7/213
f 337/8/95 336/11/214 301/8/215
f 323/8/81 335/7/106 324/7/52
f 335/7/106 323/8/81 337/8/95
f 342/16/101 341/9/216 306/9/73
f 306/9/73 341/9/216 343/10/102
f 306/9/73 343/10/102 304/10/204
f 342/16/101 305/9/205 344/16/103
f 301/8/215 335/7/106 337/8/95
f 311/11/210 337/8/95 323/8/81
f 337/8/95 311/11/210 338/11/217
f 338/11/217 346/11/218 348/11/219
f 327/11/83 351/12/110 336/11/214
f 351/12/110 327/11/83 352/14/109
f 353/13/109 351/12/110 352/14/109
f 336/11/214 302/8/212 301/8/215
f 302/8/212 336/11/214 321/11/211
f 321/11/211 359/11/220 360/11/221
f 350/16/113 305/9/205 349/9/222
f 349/9/222 305/9/205 303/10/223
f 349/9/222 303/10/223 362/10/115
f 360/11/221 364/11/116 363/11/38
f 364/11/116 360/11/221 359/11/220
f 366/13/118 367/14/118 365/14/118
f 366/13/77 351/12/110 368/15/50
f 368/15/50 351/12/110 369/15/48
f 320/12/79 369/15/48 351/12/110
f 320/12/79 370/13/118 369/15/48
f 367/14/118 321/11/211 360/11/221
f 312/12/75 346/11/218 311/11/210
f 346/11/218 312/12/75 371/14/119
f 371/14/119 312/12/75 372/13/119
f 372/13/119 373/14/119 371/14/119
f 372/13/119 312/12/75 374/15/44
f 373/14/119 372/13/119 376/13/119
f 373/14/119 338/11/217 348/11/219
f 326/11/84 354/14/120 377/15/61
f 377/15/61 354/14/120 358/13/120
f 377/15/61 358/13/120 357/15/59
f 330/11/79 314/14/77 313/11/74
f 314/14/77 330/11/79 378/15/121
f 314/14/77 378/15/121 315/13/77
f 315/13/77 378/15/121 318/15/62
f 380/15/122 357/15/59 355/15/57
f 346/11/218 381/15/40 345/11/39
f 381/15/40 346/11/218 374/15/44
s 0
f 374/15/123 346/11/123 371/14/123
s 1
f 382/15/49 366/13/77 368/15/50
f 325/11/51 352/14/109 327/11/83
f 352/14/109 325/11/51 380/15/122
f 352/14/109 380/15/122 353/13/109
f 375/15/42 381/15/40 374/15/44
f 381/15/40 375/15/42 384/15/43
f 316/14/119 329/11/86 322/11/82
f 329/11/86 316/14/119 379/15/64
f 379/15/64 316/14/119 317/13/119
f 375/15/42 347/11/104 384/15/43
f 347/11/104 375/15/42 348/11/219
f 350/16/113 310/16/209 309/16/206
f 344/16/103 309/16/206 342/16/101
f 308/12/207 351/12/110 307/12/208
f 307/12/208 351/12/110 331/12/87
f 356/12/51 331/12/87 351/12/110
f 320/12/79 308/12/207 312/12/75
f 395/16/224 394/12/225 393/12/226
f 401/13/120 398/12/227 400/14/120
s 0
f 408/11/118 405/15/118 403/13/118
s 1
f 409/8/228 407/11/229 408/11/230
f 409/8/228 408/11/230 399/11/231
f 409/8/228 386/7/232 388/8/233
f 386/7/232 409/8/228 410/7/65
f 417/12/234 395/16/224 393/12/226
f 417/12/234 420/16/235 418/16/236
f 421/7/237 386/7/232 410/7/65
f 386/7/232 421/7/237 385/7/58
f 422/11/238 423/8/239 413/11/240
f 413/11/240 423/8/239 414/11/241
f 414/11/241 423/8/239 424/11/76
f 409/8/228 421/7/237 410/7/65
f 421/7/237 409/8/228 423/8/239
f 427/9/242 426/16/162 425/16/113
f 426/16/162 427/9/242 428/16/100
f 428/16/100 427/9/242 392/9/243
f 428/16/100 391/9/244 430/16/101
f 433/11/116 432/11/99 431/11/56
f 432/11/99 433/11/116 434/11/112
f 397/11/245 423/8/239 409/8/228
s 0
f 424/11/246 397/11/246 432/11/246
s 1
f 436/16/103 427/9/242 425/16/113
f 437/12/247 413/11/240 438/14/248
f 439/13/248 437/12/247 438/14/248
f 440/14/119 439/13/119 438/14/119
f 424/11/76 440/14/109 414/11/241
f 388/8/233 422/11/238 407/11/229
s 0
f 407/11/249 445/11/249 446/11/249
s 1
f 436/16/103 391/9/244 435/9/250
f 435/9/250 391/9/244 389/10/251
f 446/11/99 450/11/252 449/11/53
f 450/11/252 446/11/99 445/11/84
f 452/13/123 453/14/123 451/14/123
f 454/15/59 437/12/247 455/15/57
f 398/12/227 432/11/78 397/11/245
f 432/11/78 398/12/227 457/14/78
f 457/14/78 398/12/227 458/13/78
f 458/13/78 459/14/78 457/14/78
f 458/13/78 398/12/227 460/15/63
f 460/15/63 398/12/227 461/15/62
f 442/12/253 461/15/62 398/12/227
f 442/12/253 462/13/78 461/15/62
f 459/14/78 458/13/78 462/13/78
f 442/12/253 459/14/78 462/13/78
f 424/11/76 459/14/78 442/12/253
f 389/10/251 429/10/254 448/10/255
f 429/10/254 389/10/251 390/10/256
f 427/9/242 448/10/255 429/10/254
f 416/11/128 400/14/120 399/11/231
f 405/15/50 464/15/213 465/15/49
f 443/15/44 466/15/52 463/15/45
f 466/15/52 443/15/44 441/15/42
f 432/11/99 467/15/66 431/11/56
f 467/15/66 432/11/99 460/15/63
s 0
f 460/15/119 432/11/119 457/14/119
s 1
f 468/15/61 452/13/120 454/15/59
f 445/11/84 468/15/61 450/11/252
s 0
f 456/13/119 446/11/119 455/15/119
s 1
f 455/15/57 449/11/53 469/15/58
f 438/14/248 466/15/52 439/13/248
f 439/13/248 466/15/52 441/15/42
f 467/15/66 461/15/62 470/15/65
f 402/14/78 415/11/117 408/11/230
f 415/11/117 402/14/78 465/15/49
s 0
f 434/11/118 462/13/118 459/14/118
s 1
f 468/15/61 455/15/57 469/15/58
f 455/15/57 468/15/61 454/15/59
f 418/16/236 425/16/113 426/16/162
f 420/16/235 425/16/113 418/16/236
f 436/16/103 396/16/257 395/16/224
f 394/12/225 437/12/247 393/12/226
f 394/12/225 406/12/128 437/12/247
f 442/12/253 417/12/234 437/12/247
f 442/12/253 419/12/258 417/12/234
f 419/12/258 398/12/227 394/12/225
f 472/18/259 473/17/260 474/17/261
f 481/20/262 480/7/263 479/20/264
f 480/7/263 481/20/262 482/7/265
f 485/21/266 484/22/267 483/22/268
f 489/23/269 488/24/270 487/23/271
f 493/17/272 492/25/273 491/25/274
f 492/25/273 493/17/272 494/17/275
f 497/10/276 496/24/277 495/10/278
f 496/24/277 497/10/276 498/24/279
f 492/25/273 499/22/280 491/25/274
f 499/22/280 492/25/273 500/22/281
f 499/22/280 504/21/282 503/21/283
f 504/21/282 499/22/280 500/22/281
f 506/26/284 507/27/285 508/26/286
f 501/25/287 474/17/261 473/17/260
f 474/17/261 501/25/287 502/25/288
f 505/27/289 510/23/290 507/27/285
f 498/24/279 509/23/291 496/24/277
f 509/23/291 498/24/279 510/23/290
f 513/28/292 512/19/293 511/28/294
f 512/19/293 513/28/292 514/19/295
f 515/19/112 514/19/295 516/19/99
f 503/21/283 481/20/262 479/20/264
f 493/17/272 472/18/259 494/17/275
f 522/27/296 523/26/297 524/27/298
f 524/27/298 487/23/271 522/27/296
f 520/20/299 485/21/266 518/20/300
f 485/21/266 520/20/299 486/21/301
f 527/7/302 519/7/303 517/7/304
f 519/7/303 527/7/302 528/7/305
f 511/28/294 508/26/286 513/28/292
f 530/7/45 480/7/263 482/7/265
f 478/19/306 525/28/307 476/19/308
f 476/19/308 529/7/309 475/19/84
f 529/7/309 476/19/308 480/7/263
f 480/7/263 476/19/308 525/28/307
f 480/7/263 525/28/307 479/20/264
f 479/20/264 525/28/307 521/26/310
f 479/20/264 521/26/310 503/21/283
f 503/21/283 521/26/310 522/27/296
f 503/21/283 522/27/296 499/22/280
f 493/17/272 495/10/278 471/18/311
f 471/18/311 495/10/278 496/24/277
f 501/25/287 509/23/291 505/27/289
f 501/25/287 505/27/289 483/22/268
f 483/22/268 505/27/289 506/26/284
f 485/21/266 506/26/284 511/28/294
f 485/21/266 511/28/294 518/20/300
f 518/20/300 512/19/293 517/7/304
f 517/7/304 512/19/293 515/19/112
f 517/7/304 515/19/112 527/7/302
f 530/7/45 478/19/306 477/19/51
f 478/19/306 530/7/45 482/7/265
f 478/19/306 482/7/265 481/20/262
f 526/28/312 481/20/262 504/21/282
f 523/26/297 504/21/282 500/22/281
f 524/27/298 492/25/273 489/23/269
f 489/23/269 494/17/275 490/24/313
f 490/24/313 494/17/275 472/18/259
f 497/10/276 472/18/259 474/17/261
f 497/10/276 474/17/261 498/24/279
f 498/24/279 474/17/261 502/25/288
f 498/24/279 502/25/288 510/23/290
f 510/23/290 502/25/288 484/22/267
f 510/23/290 484/22/267 507/27/285
f 507/27/285 486/21/301 508/26/286
f 508/26/286 486/21/301 520/20/299
f 508/26/286 520/20/299 513/28/292
f 513/28/292 520/20/299 519/7/303
f 477/19/51 529/7/309 530/7/45
f 529/7/309 477/19/51 475/19/84
f 537/19/51 536/19/308 535/19/84
f 536/19/308 537/19/51 538/19/306
f 540/7/263 541/20/314 542/7/265
f 557/10/276 556/24/277 555/10/278
f 556/24/277 557/10/276 558/24/279
f 552/25/315 559/22/280 551/25/316
f 559/22/280 552/25/315 560/22/281
f 559/22/280 564/21/282 563/21/317
f 564/21/282 559/22/280 560/22/281
f 567/27/318 566/26/319 565/27/320
f 566/26/319 567/27/318 568/26/286
f 561/25/287 534/17/321 533/17/322
f 558/24/279 569/23/291 556/24/277
f 569/23/291 558/24/279 570/23/323
f 575/19/112 574/19/295 576/19/99
f 532/18/324 553/17/325 531/18/326
f 579/7/303 578/20/327 577/7/304
f 578/20/327 579/7/303 580/20/328
f 583/26/329 582/27/330 581/26/331
f 582/27/330 583/26/329 584/27/298
f 550/24/332 555/10/278 548/24/333
f 555/10/278 550/24/332 557/10/276
f 584/27/298 547/23/334 582/27/330
f 586/28/335 581/26/331 585/28/336
f 581/26/331 586/28/335 583/26/329
f 587/7/302 579/7/303 577/7/304
f 579/7/303 587/7/302 588/7/305
f 568/26/286 571/28/337 566/26/319
f 571/28/337 568/26/286 573/28/338
f 540/7/263 590/7/45 589/7/309
f 590/7/45 540/7/263 542/7/265
f 538/19/306 585/28/336 536/19/308
f 589/7/309 536/19/308 540/7/263
f 540/7/263 536/19/308 585/28/336
f 540/7/263 585/28/336 539/20/339
f 539/20/339 585/28/336 581/26/331
f 539/20/339 581/26/331 563/21/317
f 563/21/317 581/26/331 582/27/330
f 563/21/317 582/27/330 559/22/280
f 559/22/280 547/23/334 551/25/316
f 551/25/316 548/24/333 553/17/325
f 553/17/325 548/24/333 555/10/278
f 553/17/325 555/10/278 531/18/326
f 531/18/326 556/24/277 533/17/322
f 533/17/322 556/24/277 569/23/291
f 533/17/322 569/23/291 561/25/287
f 561/25/287 569/23/291 565/27/320
f 561/25/287 565/27/320 543/22/340
f 543/22/340 565/27/320 566/26/319
f 543/22/340 566/26/319 545/21/341
f 545/21/341 566/26/319 571/28/337
f 578/20/327 571/28/337 572/19/293
f 578/20/327 572/19/293 577/7/304
f 577/7/304 572/19/293 575/19/112
f 577/7/304 575/19/112 587/7/302
f 590/7/45 538/19/306 537/19/51
f 586/28/335 564/21/282 583/26/329
f 583/26/329 564/21/282 560/22/281
f 584/27/298 552/25/315 549/23/342
f 549/23/342 552/25/315 554/17/343
f 549/23/342 554/17/343 550/24/332
f 550/24/332 554/17/343 532/18/324
f 550/24/332 532/18/324 557/10/276
f 557/10/276 532/18/324 534/17/321
f 557/10/276 534/17/321 558/24/279
f 570/23/323 544/22/344 567/27/318
f 567/27/318 546/21/345 568/26/286
f 568/26/286 546/21/345 580/20/328
f 573/28/338 580/20/328 579/7/303
f 573/28/338 579/7/303 574/19/295
f 574/19/295 579/7/303 588/7/305
f 574/19/295 588/7/305 576/19/99
f 537/19/51 589/7/309 590/7/45
f 589/7/309 537/19/51 535/19/84
f 593/8/346 592/7/232 591/7/58
f 592/7/232 593/8/346 594/8/347
f 597/9/348 596/10/349 595/10/350
f 596/10/349 597/9/348 598/9/351
f 601/16/224 600/12/225 599/12/226
f 605/11/231 604/12/227 603/11/245
f 606/14/120 604/12/227 605/11/231
f 607/13/120 604/12/227 606/14/120
f 611/15/50 604/12/227 610/15/48
s 0
f 614/11/118 611/15/118 609/13/118
s 1
f 615/8/352 614/11/230 605/11/231
f 619/11/240 618/11/353 617/11/253
f 618/11/353 619/11/240 620/11/241
f 605/11/231 621/11/117 622/11/128
f 601/16/224 623/12/354 624/16/355
f 626/16/356 623/12/354 625/12/357
f 625/12/357 602/16/358 626/16/356
f 627/7/237 592/7/232 616/7/65
f 592/7/232 627/7/237 591/7/58
f 629/8/359 628/11/238 593/8/346
f 628/11/238 629/8/359 619/11/240
f 619/11/240 629/8/359 620/11/241
f 620/11/241 629/8/359 630/11/76
f 615/8/352 627/7/237 616/7/65
f 627/7/237 615/8/352 629/8/359
f 633/9/242 632/16/162 631/16/113
f 634/16/100 633/9/242 598/9/351
f 598/9/351 633/9/242 635/10/360
f 598/9/351 635/10/360 596/10/349
f 634/16/100 597/9/348 636/16/101
f 597/9/348 634/16/100 598/9/351
f 603/11/245 629/8/359 615/8/352
f 629/8/359 603/11/245 630/11/76
s 0
f 630/11/246 603/11/246 638/11/246
f 630/11/246 638/11/246 640/11/246
s 1
f 619/11/240 643/12/247 628/11/238
f 643/12/247 619/11/240 644/14/248
f 648/12/253 647/15/42 649/15/44
f 628/11/238 594/8/347 593/8/346
s 0
f 613/11/249 628/11/249 651/11/249
f 613/11/249 651/11/249 652/11/249
s 1
f 641/9/361 595/10/350 654/10/362
f 657/14/120 643/12/247 658/13/120
f 658/13/123 659/14/123 657/14/123
f 659/14/123 658/13/123 662/13/123
f 659/14/123 613/11/229 652/11/123
f 638/11/78 604/12/227 663/14/78
f 664/13/78 604/12/227 666/15/63
f 665/14/78 664/13/78 668/13/78
f 630/11/76 665/14/78 648/12/253
f 665/14/78 630/11/76 640/11/78
f 646/14/109 618/11/353 620/11/241
f 669/15/45 646/14/109 650/13/109
f 669/15/45 650/13/109 649/15/44
f 670/15/213 611/15/50 610/15/48
f 611/15/50 670/15/213 671/15/49
f 649/15/44 672/15/52 669/15/45
f 673/15/66 638/11/99 666/15/63
s 0
f 666/15/119 638/11/119 663/14/119
f 666/15/119 663/14/119 664/13/119
s 1
f 674/15/61 658/13/120 660/15/59
f 658/13/120 674/15/61 657/14/120
f 651/11/84 674/15/61 656/11/252
s 0
f 652/11/119 662/13/119 659/14/119
s 1
f 661/15/57 655/11/53 675/15/58
f 644/14/248 617/11/253 672/15/52
f 645/13/248 672/15/52 647/15/42
f 667/15/62 673/15/66 666/15/63
f 608/14/78 621/11/117 614/11/230
f 621/11/117 608/14/78 671/15/49
f 667/15/62 639/11/116 676/15/65
f 639/11/116 667/15/62 640/11/112
s 0
f 640/11/118 667/15/118 668/13/118
s 1
f 661/15/57 674/15/61 660/15/59
f 624/16/355 631/16/113 632/16/162
f 624/16/355 632/16/162 634/16/100
f 626/16/356 631/16/113 624/16/355
f 642/16/103 602/16/358 601/16/224
f 600/12/225 643/12/247 599/12/226
f 599/12/226 643/12/247 623/12/354
f 648/12/253 623/12/354 643/12/247
f 612/12/128 600/12/225 604/12/227
f 157/29/38 176/30/49 177/30/41
f 172/30/121 123/29/86 173/30/64
f 381/30/40 347/29/104 345/29/39
f 380/30/122 326/29/84 377/30/61
f 382/30/49 363/29/38 364/29/116
f 329/29/86 378/30/121 330/29/79
f 412/29/353 466/30/52 411/29/253
f 468/30/61 449/29/53 450/29/252
f 449/29/53 468/30/61 469/30/58
f 464/30/213 415/29/117 465/30/49
f 415/29/117 464/30/213 416/29/128
f 618/29/353 672/30/52 617/29/253
f 674/30/61 655/29/53 656/29/252
f 655/29/53 674/30/61 675/30/58
f 670/30/213 621/29/117 671/30/49
f 2/1/1 16/5/20 15/5/19
f 16/5/20 2/1/1 9/1/10
f 1/1/363 19/1/363 18/5/364
f 18/5/365 17/5/366 15/5/367
f 11/3/13 5/4/8 14/4/14
f 17/5/18 9/1/10 19/1/16
f 9/1/10 17/5/18 16/5/20
f 15/5/367 2/1/4 18/5/365
f 20/2/36 3/2/36 23/2/36
f 20/2/24 25/2/34 10/2/22
f 25/2/34 22/2/30 10/2/22
f 3/2/2 23/2/366 4/2/3
f 22/2/366 4/2/3 23/2/366
f 23/2/366 20/2/366 27/2/366
f 14/4/14 21/4/36 13/4/15
f 21/4/36 14/4/14 5/4/8
f 5/4/8 24/4/36 21/4/36
f 24/4/36 5/4/8 6/4/7
f 31/3/38 30/3/37 29/3/47
f 31/3/38 34/6/48 33/6/41
f 34/6/48 31/3/38 35/6/50
f 35/6/50 31/3/38 36/6/46
f 36/6/46 31/3/38 29/3/47
f 37/5/49 34/6/48 35/6/50
f 34/6/48 37/5/49 38/5/41
f 43/5/45 34/6/48 38/5/41
f 52/6/46 46/3/37 56/6/43
f 53/5/49 57/6/42 60/5/52
f 57/6/42 52/6/46 56/6/43
f 52/6/46 57/6/42 51/6/50
f 67/6/59 63/3/53 68/6/60
f 71/6/66 63/3/53 65/6/58
f 63/3/53 71/6/66 64/3/56
f 62/3/54 73/6/62 72/6/65
f 74/6/63 62/3/54 71/6/66
f 71/6/66 62/3/54 64/3/56
f 69/5/61 75/5/64 70/5/58
f 79/3/53 78/3/54 77/3/55
f 79/3/53 82/6/57 81/6/58
f 82/6/57 79/3/53 83/6/59
f 83/6/59 79/3/53 84/6/60
f 84/6/60 79/3/53 77/3/55
f 87/6/66 79/3/53 81/6/58
f 78/3/54 89/6/62 88/6/65
f 89/6/62 78/3/54 90/6/63
f 90/6/63 78/3/54 87/6/66
f 87/6/66 78/3/54 80/3/56
f 89/6/62 91/5/64 92/5/65
f 78/3/54 84/6/60 77/3/55
f 82/6/57 87/6/66 81/6/58
f 91/5/64 85/5/61 92/5/65
f 85/5/61 91/5/64 86/5/58
f 91/5/64 82/6/57 86/5/58
f 89/6/62 84/6/60 88/6/65
f 95/8/68 94/7/67 93/7/41
f 103/16/88 102/12/94 101/12/89
f 102/12/94 103/16/88 104/16/93
f 108/14/77 106/12/75 107/11/74
f 109/13/78 110/14/78 111/13/78
f 113/15/63 114/12/79 106/12/75
f 113/15/63 116/11/82 115/11/80
s 0
f 116/11/78 113/15/78 111/13/78
s 1
f 117/8/81 115/11/80 116/11/82
f 117/8/81 107/11/74 105/11/76
f 117/8/81 94/7/67 96/8/69
f 127/12/92 104/16/93 128/16/91
f 129/7/106 94/7/67 118/7/43
f 94/7/67 129/7/106 93/7/41
f 117/8/81 129/7/106 118/7/43
f 129/7/106 117/8/81 131/8/95
f 100/9/73 137/10/102 98/10/71
f 140/11/105 141/11/104 142/11/162
f 129/7/106 95/8/68 93/7/41
f 105/11/76 131/8/95 117/8/81
f 131/8/95 105/11/76 132/11/97
f 135/9/98 144/16/113 143/9/114
f 144/16/113 135/9/98 133/16/100
f 121/11/83 145/12/110 130/11/96
f 145/12/110 121/11/83 146/14/109
f 148/14/123 147/13/123 146/14/123
f 149/15/57 145/12/110 147/13/109
f 145/12/110 149/15/57 150/12/51
f 150/12/51 149/15/57 151/15/59
f 150/12/51 151/15/59 132/11/97
f 132/11/97 148/14/120 122/11/85
f 147/13/123 148/14/123 152/13/123
f 152/13/120 132/11/97 151/15/59
f 148/14/120 132/11/97 152/13/120
s 0
f 115/11/111 153/11/111 154/11/111
s 1
f 144/16/113 99/9/70 143/9/114
f 143/9/114 99/9/70 97/10/72
f 145/12/110 153/11/117 130/11/96
f 159/14/77 145/12/110 160/13/77
f 160/13/118 161/14/118 159/14/118
f 160/13/77 145/12/110 162/15/50
f 114/12/79 164/13/118 163/15/48
f 106/12/75 140/11/119 105/11/76
f 140/11/119 106/12/75 165/14/119
f 165/14/119 106/12/75 166/13/119
f 166/13/119 167/14/119 165/14/119
f 166/13/119 106/12/75 168/15/44
f 168/15/44 106/12/75 169/15/42
f 150/12/51 169/15/42 106/12/75
f 97/10/72 137/10/102 156/10/115
f 156/10/115 135/9/98 143/9/114
f 171/15/61 152/13/120 151/15/59
f 140/11/105 175/15/40 139/11/51
f 175/15/40 140/11/105 168/15/44
s 0
f 168/15/123 140/11/123 165/14/123
s 1
f 176/15/49 160/13/77 162/15/50
f 160/13/77 176/15/49 159/14/77
s 0
f 154/11/123 164/13/123 161/14/123
s 1
f 163/15/48 154/11/105 157/11/38
f 146/14/109 119/11/51 174/15/122
f 147/13/109 174/15/122 149/15/57
f 173/15/64 110/14/119 111/13/119
f 173/15/64 111/13/119 113/15/63
f 169/15/42 141/11/104 178/15/66
f 141/11/104 169/15/42 142/11/162
s 0
f 142/11/78 169/15/78 170/13/78
s 1
f 126/16/90 133/16/100 134/16/99
f 126/16/90 134/16/99 136/16/101
f 144/16/113 104/16/93 103/16/88
f 102/12/94 145/12/110 101/12/89
f 101/12/89 145/12/110 125/12/87
f 102/12/94 114/12/79 145/12/110
f 150/12/51 125/12/87 145/12/110
f 114/12/79 102/12/94 106/12/75
f 189/20/132 188/7/131 187/20/163
f 200/25/143 201/17/142 202/17/164
f 205/10/146 204/24/145 203/10/173
f 200/25/143 207/22/148 199/25/144
f 209/25/150 192/22/135 210/25/179
f 215/27/154 214/26/153 213/27/157
f 209/25/150 182/17/127 181/17/124
f 182/17/127 209/25/150 210/25/179
f 213/27/157 218/23/156 215/27/154
f 206/24/147 217/23/158 204/24/145
f 221/28/160 220/19/159 219/28/176
f 223/19/162 222/19/161 224/19/105
f 189/20/132 211/21/152 212/21/151
f 180/18/125 201/17/142 179/18/126
f 229/26/171 234/28/174 231/26/169
f 228/20/168 193/21/134 226/20/166
f 235/7/178 227/7/165 225/7/167
f 227/7/165 235/7/178 236/7/180
f 186/19/130 233/28/175 184/19/129
f 233/28/175 186/19/130 234/28/174
f 188/7/131 184/19/129 233/28/175
f 188/7/131 233/28/175 187/20/163
f 187/20/163 229/26/171 211/21/152
f 211/21/152 229/26/171 230/27/170
f 199/25/144 196/24/139 201/17/142
f 201/17/142 196/24/139 203/10/173
f 201/17/142 203/10/173 179/18/126
f 179/18/126 203/10/173 204/24/145
f 179/18/126 204/24/145 181/17/124
f 181/17/124 204/24/145 217/23/158
f 181/17/124 217/23/158 209/25/150
f 209/25/150 217/23/158 213/27/157
f 209/25/150 213/27/157 191/22/136
f 191/22/136 213/27/157 214/26/153
f 191/22/136 214/26/153 193/21/134
f 193/21/134 214/26/153 219/28/176
f 193/21/134 219/28/176 226/20/166
f 226/20/166 219/28/176 220/19/159
f 226/20/166 220/19/159 225/7/167
f 234/28/174 189/20/132 212/21/151
f 232/27/172 208/22/149 200/25/143
f 232/27/172 200/25/143 197/23/138
f 197/23/138 200/25/143 202/17/164
f 198/24/141 202/17/164 180/18/125
f 205/10/146 180/18/125 182/17/127
f 218/23/156 210/25/179 192/22/135
f 218/23/156 192/22/135 215/27/154
f 215/27/154 192/22/135 194/21/137
f 215/27/154 194/21/137 216/26/155
f 216/26/155 194/21/137 228/20/168
f 216/26/155 228/20/168 221/28/160
f 221/28/160 228/20/168 227/7/165
f 222/19/161 227/7/165 236/7/180
f 185/19/128 237/7/177 238/7/61
f 245/19/128 244/19/129 243/19/117
f 252/22/135 253/21/134 254/21/202
f 257/23/194 256/24/197 255/23/193
f 256/24/197 257/23/194 258/24/200
f 261/17/185 260/25/184 259/25/191
f 269/25/150 252/22/135 270/25/192
f 272/21/151 267/22/190 268/22/149
f 275/27/154 274/26/153 273/27/368
f 278/23/201 273/27/368 277/23/198
f 273/27/368 278/23/201 275/27/154
f 266/24/147 277/23/198 264/24/188
f 277/23/198 266/24/147 278/23/201
f 281/28/203 280/19/159 279/28/199
f 280/19/159 281/28/203 282/19/161
f 282/19/161 283/19/162 280/19/159
f 283/19/162 282/19/161 284/19/105
f 261/17/185 240/18/125 262/17/186
f 258/24/200 263/10/189 256/24/197
f 263/10/189 258/24/200 265/10/187
f 292/27/172 255/23/193 290/27/170
f 294/28/196 289/26/171 293/28/195
f 289/26/171 294/28/196 291/26/169
f 288/20/168 253/21/134 286/20/166
f 253/21/134 288/20/168 254/21/202
f 295/7/178 287/7/165 285/7/167
f 276/26/155 279/28/199 274/26/153
f 279/28/199 276/26/155 281/28/203
f 248/7/131 298/7/61 297/7/177
f 298/7/61 248/7/131 250/7/133
f 246/19/130 293/28/195 244/19/129
f 248/7/131 244/19/129 293/28/195
f 248/7/131 293/28/195 247/20/183
f 247/20/183 293/28/195 289/26/171
f 247/20/183 289/26/171 271/21/152
f 271/21/152 289/26/171 290/27/170
f 271/21/152 290/27/170 267/22/190
f 267/22/190 255/23/193 259/25/191
f 259/25/191 255/23/193 256/24/197
f 239/18/126 264/24/188 241/17/124
f 269/25/150 277/23/198 273/27/368
f 269/25/150 273/27/368 251/22/136
f 251/22/136 273/27/368 274/26/153
f 251/22/136 274/26/153 253/21/134
f 298/7/61 246/19/130 245/19/128
f 292/27/172 260/25/184 257/23/194
f 257/23/194 260/25/184 262/17/186
f 265/10/187 242/17/181 266/24/147
f 266/24/147 242/17/181 270/25/192
f 266/24/147 270/25/192 278/23/201
f 297/7/177 245/19/128 243/19/117
f 301/8/215 300/7/67 299/7/213
f 300/7/67 301/8/215 302/8/212
f 305/9/205 304/10/204 303/10/223
f 314/14/77 312/12/75 313/11/74
f 316/14/78 315/13/78 314/14/78
f 318/15/62 312/12/75 315/13/77
f 319/15/63 312/12/75 318/15/62
f 319/15/63 320/12/79 312/12/75
f 319/15/63 322/11/82 321/11/211
s 0
f 322/11/78 319/15/78 317/13/78
f 322/11/78 317/13/78 316/14/78
s 1
f 323/8/81 321/11/211 322/11/82
f 323/8/81 322/11/82 313/11/74
f 327/11/83 326/11/84 325/11/51
f 326/11/84 327/11/83 328/11/85
f 329/11/86 313/11/74 322/11/82
f 313/11/74 329/11/86 330/11/79
f 331/12/87 334/16/91 332/16/90
f 310/16/209 333/12/92 308/12/207
f 336/11/214 337/8/95 327/11/83
f 327/11/83 337/8/95 328/11/85
f 328/11/85 337/8/95 338/11/217
f 341/9/216 340/16/99 339/16/100
f 340/16/99 341/9/216 342/16/101
f 305/9/205 342/16/101 306/9/73
f 347/11/104 346/11/218 345/11/39
f 346/11/218 347/11/104 348/11/219
f 335/7/106 301/8/215 299/7/213
f 338/11/217 311/11/210 346/11/218
f 341/9/216 350/16/113 349/9/222
f 350/16/113 341/9/216 339/16/100
f 354/14/123 353/13/123 352/14/123
f 355/15/57 351/12/110 353/13/109
f 351/12/110 355/15/57 356/12/51
f 356/12/51 355/15/57 357/15/59
f 356/12/51 357/15/59 338/11/217
f 338/11/217 354/14/120 328/11/85
f 353/13/123 354/14/123 358/13/123
f 358/13/120 338/11/217 357/15/59
f 354/14/120 338/11/217 358/13/120
f 321/11/211 336/11/214 359/11/220
f 305/9/205 361/16/112 344/16/103
f 361/16/112 305/9/205 350/16/113
f 351/12/110 359/11/220 336/11/214
f 359/11/220 351/12/110 365/14/77
f 365/14/77 351/12/110 366/13/77
f 367/14/118 366/13/118 370/13/118
f 320/12/79 367/14/118 370/13/118
f 321/11/211 367/14/118 320/12/79
f 374/15/44 312/12/75 375/15/42
f 356/12/51 375/15/42 312/12/75
f 356/12/51 376/13/119 375/15/42
f 356/12/51 373/14/119 376/13/119
f 338/11/217 373/14/119 356/12/51
f 303/10/223 343/10/102 362/10/115
f 343/10/102 303/10/223 304/10/204
f 362/10/115 341/9/216 349/9/222
f 341/9/216 362/10/115 343/10/102
f 354/14/120 326/11/84 328/11/85
f 378/15/121 319/15/63 318/15/62
f 319/15/63 378/15/121 379/15/64
f 357/15/59 380/15/122 377/15/61
s 0
f 374/15/123 371/14/123 372/13/123
s 1
f 366/13/77 382/15/49 365/14/77
f 365/14/77 382/15/49 359/11/220
f 359/11/220 382/15/49 364/11/116
s 0
f 360/11/123 370/13/123 367/14/123
f 370/13/123 360/11/123 369/15/123
s 1
f 369/15/48 360/11/221 363/11/38
f 369/15/48 363/11/38 383/15/41
f 353/13/109 380/15/122 355/15/57
f 379/15/64 317/13/119 319/15/63
s 0
f 348/11/78 375/15/78 376/13/78
f 348/11/78 376/13/78 373/14/78
s 1
f 382/15/49 369/15/48 383/15/41
f 369/15/48 382/15/49 368/15/50
f 332/16/90 339/16/100 340/16/99
f 332/16/90 340/16/99 342/16/101
f 334/16/91 339/16/100 332/16/90
f 332/16/90 342/16/101 309/16/206
f 339/16/100 334/16/91 350/16/113
f 310/16/209 350/16/113 334/16/91
f 350/16/113 309/16/206 361/16/112
f 361/16/112 309/16/206 344/16/103
f 308/12/207 320/12/79 351/12/110
f 356/12/51 333/12/92 331/12/87
f 312/12/75 333/12/92 356/12/51
f 333/12/92 312/12/75 308/12/207
f 387/8/346 386/7/232 385/7/58
f 386/7/232 387/8/346 388/8/233
f 391/9/244 390/10/256 389/10/251
f 390/10/256 391/9/244 392/9/243
f 394/12/225 395/16/224 396/16/257
f 399/11/231 398/12/227 397/11/245
f 400/14/120 398/12/227 399/11/231
f 402/14/118 401/13/118 400/14/118
f 401/13/118 402/14/118 403/13/118
f 404/15/48 398/12/227 401/13/120
f 405/15/50 398/12/227 404/15/48
f 405/15/50 406/12/128 398/12/227
f 406/12/128 405/15/50 407/11/229
f 405/15/50 408/11/230 407/11/229
s 0
f 408/11/118 403/13/118 402/14/118
s 1
f 407/11/229 409/8/228 388/8/233
f 409/8/228 399/11/231 397/11/245
f 413/11/240 412/11/353 411/11/253
f 412/11/353 413/11/240 414/11/241
f 415/11/117 399/11/231 408/11/230
f 399/11/231 415/11/117 416/11/128
f 395/16/224 417/12/234 418/16/236
f 420/16/235 417/12/234 419/12/258
f 396/16/257 419/12/258 394/12/225
f 419/12/258 396/16/257 420/16/235
f 423/8/239 422/11/238 387/8/346
f 392/9/243 427/9/242 429/10/254
f 392/9/243 429/10/254 390/10/256
f 391/9/244 428/16/100 392/9/243
f 421/7/237 387/8/346 385/7/58
f 387/8/346 421/7/237 423/8/239
f 423/8/239 397/11/245 424/11/76
s 0
f 424/11/246 432/11/246 434/11/246
s 1
f 427/9/242 436/16/103 435/9/250
f 413/11/240 437/12/247 422/11/238
f 441/15/42 437/12/247 439/13/248
f 437/12/247 441/15/42 442/12/253
f 442/12/253 441/15/42 443/15/44
f 442/12/253 443/15/44 424/11/76
f 439/13/119 440/14/119 444/13/119
f 444/13/109 424/11/76 443/15/44
f 440/14/109 424/11/76 444/13/109
f 422/11/238 388/8/233 387/8/346
s 0
f 407/11/249 422/11/249 445/11/249
s 1
f 391/9/244 447/16/105 430/16/101
f 447/16/105 391/9/244 436/16/103
f 435/9/250 389/10/251 448/10/255
f 437/12/247 445/11/84 422/11/238
f 445/11/84 437/12/247 451/14/120
f 451/14/120 437/12/247 452/13/120
f 452/13/120 437/12/247 454/15/59
f 406/12/128 455/15/57 437/12/247
f 406/12/128 456/13/123 455/15/57
f 453/14/123 452/13/123 456/13/123
f 406/12/128 453/14/123 456/13/123
f 407/11/229 453/14/123 406/12/128
f 453/14/123 407/11/229 446/11/123
f 459/14/78 424/11/76 434/11/78
f 448/10/255 427/9/242 435/9/250
f 440/14/109 412/11/353 414/11/241
f 412/11/353 440/14/109 463/15/45
f 463/15/45 440/14/109 444/13/109
f 463/15/45 444/13/109 443/15/44
f 400/14/120 416/11/128 464/15/213
f 400/14/120 464/15/213 401/13/120
f 401/13/120 464/15/213 404/15/48
f 464/15/213 405/15/50 404/15/48
s 0
f 460/15/119 457/14/119 458/13/119
s 1
f 452/13/120 468/15/61 451/14/120
f 451/14/120 468/15/61 445/11/84
s 0
f 446/11/119 456/13/119 453/14/119
s 1
f 455/15/57 446/11/99 449/11/53
f 411/11/253 438/14/248 413/11/240
f 438/14/248 411/11/253 466/15/52
f 461/15/62 467/15/66 460/15/63
f 465/15/49 402/14/78 403/13/78
f 465/15/49 403/13/78 405/15/50
f 461/15/62 433/11/116 470/15/65
f 433/11/116 461/15/62 434/11/112
s 0
f 434/11/118 461/15/118 462/13/118
s 1
f 418/16/236 426/16/162 428/16/100
f 418/16/236 428/16/100 395/16/224
f 425/16/113 420/16/235 436/16/103
f 396/16/257 436/16/103 420/16/235
f 430/16/101 395/16/224 428/16/100
f 436/16/103 395/16/224 447/16/105
f 447/16/105 395/16/224 430/16/101
f 393/12/226 437/12/247 417/12/234
f 406/12/128 394/12/225 398/12/227
f 398/12/227 419/12/258 442/12/253
f 473/17/260 472/18/259 471/18/311
f 477/19/51 476/19/308 475/19/84
f 476/19/308 477/19/51 478/19/306
f 484/22/267 485/21/266 486/21/301
f 488/24/270 489/23/269 490/24/313
f 484/22/267 501/25/287 483/22/268
f 501/25/287 484/22/267 502/25/288
f 507/27/285 506/26/284 505/27/289
f 510/23/290 505/27/289 509/23/291
f 514/19/295 515/19/112 512/19/293
f 481/20/262 503/21/283 504/21/282
f 472/18/259 493/17/272 471/18/311
f 519/7/303 518/20/300 517/7/304
f 518/20/300 519/7/303 520/20/299
f 523/26/297 522/27/296 521/26/310
f 490/24/313 495/10/278 488/24/270
f 495/10/278 490/24/313 497/10/276
f 487/23/271 524/27/298 489/23/269
f 526/28/312 521/26/310 525/28/307
f 521/26/310 526/28/312 523/26/297
f 508/26/286 511/28/294 506/26/284
f 480/7/263 530/7/45 529/7/309
f 525/28/307 478/19/306 526/28/312
f 499/22/280 522/27/296 487/23/271
f 499/22/280 487/23/271 491/25/274
f 491/25/274 487/23/271 488/24/270
f 491/25/274 488/24/270 493/17/272
f 493/17/272 488/24/270 495/10/278
f 471/18/311 496/24/277 473/17/260
f 473/17/260 496/24/277 509/23/291
f 473/17/260 509/23/291 501/25/287
f 483/22/268 506/26/284 485/21/266
f 518/20/300 511/28/294 512/19/293
f 478/19/306 481/20/262 526/28/312
f 526/28/312 504/21/282 523/26/297
f 523/26/297 500/22/281 524/27/298
f 524/27/298 500/22/281 492/25/273
f 489/23/269 492/25/273 494/17/275
f 490/24/313 472/18/259 497/10/276
f 507/27/285 484/22/267 486/21/301
f 513/28/292 519/7/303 514/19/295
f 514/19/295 519/7/303 528/7/305
f 514/19/295 528/7/305 516/19/99
f 533/17/322 532/18/324 531/18/326
f 532/18/324 533/17/322 534/17/321
f 541/20/314 540/7/263 539/20/339
f 545/21/341 544/22/344 543/22/340
f 544/22/344 545/21/341 546/21/345
f 549/23/342 548/24/333 547/23/334
f 548/24/333 549/23/342 550/24/332
f 553/17/325 552/25/315 551/25/316
f 552/25/315 553/17/325 554/17/343
f 544/22/344 561/25/287 543/22/340
f 561/25/287 544/22/344 562/25/369
f 534/17/321 561/25/287 562/25/369
f 570/23/323 565/27/320 569/23/291
f 565/27/320 570/23/323 567/27/318
f 573/28/338 572/19/293 571/28/337
f 572/19/293 573/28/338 574/19/295
f 574/19/295 575/19/112 572/19/293
f 563/21/317 541/20/314 539/20/339
f 541/20/314 563/21/317 564/21/282
f 553/17/325 532/18/324 554/17/343
f 547/23/334 584/27/298 549/23/342
f 580/20/328 545/21/341 578/20/327
f 545/21/341 580/20/328 546/21/345
f 585/28/336 538/19/306 586/28/335
f 536/19/308 589/7/309 535/19/84
f 559/22/280 582/27/330 547/23/334
f 551/25/316 547/23/334 548/24/333
f 531/18/326 555/10/278 556/24/277
f 545/21/341 571/28/337 578/20/327
f 538/19/306 590/7/45 542/7/265
f 538/19/306 542/7/265 541/20/314
f 538/19/306 541/20/314 586/28/335
f 586/28/335 541/20/314 564/21/282
f 583/26/329 560/22/281 584/27/298
f 584/27/298 560/22/281 552/25/315
f 558/24/279 534/17/321 562/25/369
f 558/24/279 562/25/369 570/23/323
f 570/23/323 562/25/369 544/22/344
f 567/27/318 544/22/344 546/21/345
f 568/26/286 580/20/328 573/28/338
f 600/12/225 601/16/224 602/16/358
f 608/14/118 607/13/118 606/14/118
f 607/13/118 608/14/118 609/13/118
f 610/15/48 604/12/227 607/13/120
f 611/15/50 612/12/128 604/12/227
f 612/12/128 611/15/50 613/11/229
f 611/15/50 614/11/230 613/11/229
s 0
f 614/11/118 609/13/118 608/14/118
s 1
f 613/11/229 615/8/352 594/8/347
f 615/8/352 613/11/229 614/11/230
f 615/8/352 605/11/231 603/11/245
f 615/8/352 592/7/232 594/8/347
f 592/7/232 615/8/352 616/7/65
f 621/11/117 605/11/231 614/11/230
f 623/12/354 601/16/224 599/12/226
f 623/12/354 626/16/356 624/16/355
f 602/16/358 625/12/357 600/12/225
f 632/16/162 633/9/242 634/16/100
f 639/11/116 638/11/99 637/11/56
f 638/11/99 639/11/116 640/11/112
f 627/7/237 593/8/346 591/7/58
f 593/8/346 627/7/237 629/8/359
f 633/9/242 642/16/103 641/9/361
f 642/16/103 633/9/242 631/16/113
f 645/13/248 643/12/247 644/14/248
f 646/14/119 645/13/119 644/14/119
f 647/15/42 643/12/247 645/13/248
f 643/12/247 647/15/42 648/12/253
f 648/12/253 649/15/44 630/11/76
f 630/11/76 646/14/109 620/11/241
f 645/13/119 646/14/119 650/13/119
f 650/13/109 630/11/76 649/15/44
f 646/14/109 630/11/76 650/13/109
f 594/8/347 628/11/238 613/11/229
f 597/9/348 653/16/105 636/16/101
f 653/16/105 597/9/348 642/16/103
f 642/16/103 597/9/348 641/9/361
f 641/9/361 597/9/348 595/10/350
f 652/11/99 656/11/252 655/11/53
f 656/11/252 652/11/99 651/11/84
f 643/12/247 651/11/84 628/11/238
f 651/11/84 643/12/247 657/14/120
f 658/13/120 643/12/247 660/15/59
f 660/15/59 643/12/247 661/15/57
f 612/12/128 661/15/57 643/12/247
f 612/12/128 662/13/123 661/15/57
f 612/12/128 659/14/123 662/13/123
f 613/11/229 659/14/123 612/12/128
f 604/12/227 638/11/78 603/11/245
f 663/14/78 604/12/227 664/13/78
f 664/13/78 665/14/78 663/14/78
f 666/15/63 604/12/227 667/15/62
f 648/12/253 667/15/62 604/12/227
f 648/12/253 668/13/78 667/15/62
f 648/12/253 665/14/78 668/13/78
f 595/10/350 635/10/360 654/10/362
f 635/10/360 595/10/350 596/10/349
f 654/10/362 633/9/242 641/9/361
f 633/9/242 654/10/362 635/10/360
f 618/11/353 646/14/109 669/15/45
f 622/11/128 606/14/120 605/11/231
f 606/14/120 622/11/128 670/15/213
f 606/14/120 670/15/213 607/13/120
f 607/13/120 670/15/213 610/15/48
f 672/15/52 649/15/44 647/15/42
f 638/11/99 673/15/66 637/11/56
f 657/14/120 674/15/61 651/11/84
s 0
f 662/13/119 652/11/119 661/15/119
s 1
f 661/15/57 652/11/99 655/11/53
f 617/11/253 644/14/248 619/11/240
f 644/14/248 672/15/52 645/13/248
f 673/15/66 667/15/62 676/15/65
f 671/15/49 608/14/78 609/13/78
f 671/15/49 609/13/78 611/15/50
s 0
f 640/11/118 668/13/118 665/14/118
s 1
f 674/15/61 661/15/57 675/15/58
f 624/16/355 634/16/100 601/16/224
f 631/16/113 626/16/356 642/16/103
f 602/16/358 642/16/103 626/16/356
f 636/16/101 601/16/224 634/16/100
f 642/16/103 601/16/224 653/16/105
f 653/16/105 601/16/224 636/16/101
f 600/12/225 612/12/128 643/12/247
f 648/12/253 625/12/357 623/12/354
f 604/12/227 625/12/357 648/12/253
f 625/12/357 604/12/227 600/12/225
f 175/30/40 141/29/104 139/29/51
f 141/29/104 175/30/40 178/30/66
f 120/29/84 174/30/122 119/29/51
f 174/30/122 120/29/84 171/30/61
f 176/30/49 157/29/38 158/29/116
f 123/29/86 172/30/121 124/29/79
f 347/29/104 381/30/40 384/30/43
f 326/29/84 380/30/122 325/29/51
f 363/29/38 382/30/49 383/30/41
f 378/30/121 329/29/86 379/30/64
f 467/30/66 433/29/116 431/29/56
f 433/29/116 467/30/66 470/30/65
f 466/30/52 412/29/353 463/30/45
f 673/30/66 639/29/116 637/29/56
f 639/29/116 673/30/66 676/30/65
f 672/30/52 618/29/353 669/30/45
f 621/29/117 670/30/213 622/29/128
