# Blender 4.3.2
# www.blender.org
mtllib conveyor-bars-high.mtl
o conveyor-bars-high
v -0.500000 -0.500000 -0.300000
v 0.500000 -0.500000 -0.300000
v -0.500000 -0.500000 -0.400000
v 0.500000 -0.500000 -0.400000
v 0.500000 -0.400000 -0.400000
v -0.500000 -0.400000 -0.400000
v 0.500000 -0.400000 0.000000
v 0.500000 -0.500000 0.000000
v -0.500000 -0.400000 0.000000
v -0.500000 -0.500000 0.000000
v -0.500000 -0.500000 -0.100000
v 0.500000 -0.500000 -0.100000
v 0.500000 -0.450000 -0.275000
v 0.500000 -0.450000 -0.125000
v -0.500000 -0.450000 -0.275000
v -0.500000 -0.450000 -0.125000
v 0.500000 0.500000 -0.300000
v -0.500000 0.500000 -0.300000
v 0.500000 0.500000 -0.400000
v -0.500000 0.500000 -0.400000
v 0.500000 0.500000 -0.000000
v 0.500000 0.400000 -0.000000
v -0.500000 0.500000 -0.000000
v -0.500000 0.400000 -0.000000
v 0.500000 0.400000 -0.400000
v -0.500000 0.400000 -0.400000
v 0.500000 0.500000 -0.100000
v -0.500000 0.500000 -0.100000
v 0.500000 0.450000 -0.125000
v -0.500000 0.450000 -0.125000
v 0.500000 0.450000 -0.275000
v -0.500000 0.450000 -0.275000
v 0.312500 -0.400000 -0.100000
v 0.437500 -0.400000 -0.100000
v 0.250000 -0.400000 -0.162500
v 0.312500 -0.400000 -0.162500
v 0.437500 -0.400000 -0.162500
v 0.500000 -0.400000 -0.162500
v 0.437500 -0.400000 -0.287500
v 0.500000 -0.400000 -0.287500
v 0.312500 -0.400000 -0.287500
v 0.312500 -0.400000 -0.350000
v 0.437500 -0.400000 -0.350000
v 0.250000 -0.400000 -0.287500
v 0.187500 -0.400000 -0.287500
v 0.187500 -0.400000 -0.162500
v 0.187500 -0.400000 -0.100000
v 0.062500 -0.400000 -0.162500
v 0.062500 -0.400000 -0.350000
v 0.187500 -0.400000 -0.350000
v 0.062500 -0.400000 -0.287500
v -0.000000 -0.400000 -0.287500
v -0.000000 -0.400000 -0.162500
v 0.062500 -0.400000 -0.100000
v -0.062500 -0.400000 -0.287500
v -0.062500 -0.400000 -0.162500
v -0.062500 -0.400000 -0.100000
v -0.187500 -0.400000 -0.162500
v -0.187500 -0.400000 -0.350000
v -0.062500 -0.400000 -0.350000
v -0.187500 -0.400000 -0.287500
v -0.250000 -0.400000 -0.287500
v -0.250000 -0.400000 -0.162500
v -0.187500 -0.400000 -0.100000
v -0.312500 -0.400000 -0.287500
v -0.312500 -0.400000 -0.162500
v -0.312500 -0.400000 -0.100000
v -0.437500 -0.400000 -0.162500
v -0.437500 -0.400000 -0.350000
v -0.312500 -0.400000 -0.350000
v -0.437500 -0.400000 -0.287500
v -0.500000 -0.400000 -0.287500
v -0.500000 -0.400000 -0.162500
v -0.437500 -0.400000 -0.100000
v 0.437500 0.400000 -0.350000
v 0.312500 0.400000 -0.350000
v 0.250000 0.400000 -0.287500
v 0.500000 0.400000 -0.287500
v 0.500000 0.400000 -0.162500
v 0.312500 0.400000 -0.100000
v 0.250000 0.400000 -0.162500
v 0.437500 0.400000 -0.100000
v 0.437500 0.400000 -0.162500
v 0.312500 0.400000 -0.162500
v 0.437500 0.400000 -0.287500
v 0.312500 0.400000 -0.287500
v 0.187500 0.400000 -0.287500
v 0.187500 0.400000 -0.350000
v 0.187500 0.400000 -0.162500
v 0.062500 0.400000 -0.287500
v 0.062500 0.400000 -0.100000
v 0.187500 0.400000 -0.100000
v 0.062500 0.400000 -0.162500
v -0.000000 0.400000 -0.162500
v -0.000000 0.400000 -0.287500
v 0.062500 0.400000 -0.350000
v -0.062500 0.400000 -0.287500
v -0.062500 0.400000 -0.350000
v -0.062500 0.400000 -0.162500
v -0.187500 0.400000 -0.287500
v -0.187500 0.400000 -0.100000
v -0.062500 0.400000 -0.100000
v -0.187500 0.400000 -0.162500
v -0.250000 0.400000 -0.162500
v -0.250000 0.400000 -0.287500
v -0.187500 0.400000 -0.350000
v -0.312500 0.400000 -0.287500
v -0.312500 0.400000 -0.350000
v -0.312500 0.400000 -0.162500
v -0.437500 0.400000 -0.287500
v -0.437500 0.400000 -0.100000
v -0.312500 0.400000 -0.100000
v -0.437500 0.400000 -0.162500
v -0.500000 0.400000 -0.162500
v -0.500000 0.400000 -0.287500
v -0.437500 0.400000 -0.350000
vn -0.0000 -1.0000 -0.0000
vn -0.0000 -0.8507 0.5257
vn -0.0000 -0.0000 -1.0000
vn -0.0000 -0.0000 1.0000
vn -0.0000 1.0000 -0.0000
vn -0.0000 -0.8507 -0.5257
vn 1.0000 -0.0000 -0.0000
vn -0.0000 -0.4472 0.8944
vn -1.0000 -0.0000 -0.0000
vn -0.0000 -0.4472 -0.8944
vn -0.0000 0.8507 0.5257
vn -0.0000 0.4472 -0.8944
vn -0.0000 0.8506 -0.5257
vn -0.0000 0.8507 -0.5257
vn -0.0000 0.4472 0.8944
vn -0.3827 -0.0000 -0.9239
vn 0.3827 -0.0000 -0.9239
vn -0.7071 -0.0000 -0.7071
vn 0.9239 -0.0000 -0.3827
vn 0.9239 -0.0000 0.3827
vn -0.7071 -0.0000 0.7071
vn -0.3827 -0.0000 0.9239
vn 0.3827 -0.0000 0.9239
vn 0.7071 -0.0000 0.7071
vn -0.9239 -0.0000 0.3827
vn 0.7071 -0.0000 -0.7071
vn -0.9239 -0.0000 -0.3827
vt 0.343750 0.225000
vt 0.343750 0.175000
vt 0.343750 0.025000
vt 0.343750 0.075000
vt 0.343750 0.162500
vt 0.343750 0.087500
vt 0.218750 0.162500
vt 0.218750 0.087500
vt 0.218750 0.075000
vt 0.218750 0.025000
vt 0.218750 0.175000
vt 0.218750 0.225000
vt 0.093750 0.025000
vt 0.093750 0.225000
s 1
usemtl colormap.001
f 3/1/1 2/2/2 1/2/2
f 2/2/2 3/1/1 4/1/1
f 3/1/3 5/1/3 4/1/3
f 5/1/3 3/1/3 6/1/3
f 9/3/4 8/3/4 7/3/4
f 8/3/4 9/3/4 10/3/4
f 5/1/5 9/3/5 7/3/5
f 9/3/5 5/1/5 6/1/5
f 11/4/6 8/3/1 10/3/1
f 8/3/1 11/4/6 12/4/6
f 5/1/7 2/2/7 4/1/7
f 2/2/7 5/1/7 13/5/7
f 13/5/7 5/1/7 14/6/7
f 7/3/7 14/6/7 5/1/7
f 8/3/7 14/6/7 7/3/7
f 14/6/7 8/3/7 12/4/7
f 15/5/8 2/2/2 13/5/8
f 2/2/2 15/5/8 1/2/2
f 9/3/9 11/4/9 10/3/9
f 11/4/9 9/3/9 16/6/9
f 16/6/9 9/3/9 15/5/9
f 6/1/9 15/5/9 9/3/9
f 3/1/9 15/5/9 6/1/9
f 15/5/9 3/1/9 1/2/9
f 11/4/6 14/6/10 12/4/6
f 14/6/10 11/4/6 16/6/10
f 19/1/5 18/2/11 17/2/11
f 18/2/11 19/1/5 20/1/5
f 23/3/4 22/3/4 21/3/4
f 22/3/4 23/3/4 24/3/4
f 25/1/3 20/1/3 19/1/3
f 20/1/3 25/1/3 26/1/3
f 29/6/12 28/4/13 27/4/14
f 28/4/13 29/6/12 30/6/12
f 31/5/7 19/1/7 17/2/7
f 31/5/7 25/1/7 19/1/7
f 25/1/7 31/5/7 22/3/7
f 29/6/7 22/3/7 31/5/7
f 22/3/7 29/6/7 21/3/7
f 21/3/7 29/6/7 27/4/7
f 26/1/1 22/3/1 24/3/1
f 22/3/1 26/1/1 25/1/1
f 30/6/9 23/3/9 28/4/9
f 30/6/9 24/3/9 23/3/9
f 24/3/9 30/6/9 26/1/9
f 32/5/9 26/1/9 30/6/9
f 26/1/9 32/5/9 20/1/9
f 20/1/9 32/5/9 18/2/9
f 18/2/11 31/5/15 17/2/11
f 31/5/15 18/2/11 32/5/15
f 27/4/14 23/3/5 21/3/5
f 23/3/5 27/4/14 28/4/13
f 15/7/1 14/8/1 16/8/1
f 14/8/1 15/7/1 13/7/1
f 31/7/5 30/8/5 29/8/5
f 30/8/5 31/7/5 32/7/5
f 35/9/1 34/10/1 33/10/1
f 34/10/1 35/9/1 36/9/1
f 34/10/1 36/9/1 37/9/1
f 37/9/1 38/9/1 34/10/1
f 38/9/1 37/9/1 39/11/1
f 38/9/1 39/11/1 40/11/1
f 36/9/1 35/9/1 41/11/1
f 39/11/1 42/12/1 40/11/1
f 41/11/1 42/12/1 39/11/1
f 40/11/1 42/12/1 43/12/1
f 41/11/1 44/11/1 42/12/1
f 41/11/1 35/9/1 44/11/1
f 35/9/1 45/11/1 44/11/1
f 35/9/1 46/9/1 45/11/1
f 46/9/1 35/9/1 47/10/1
f 47/10/1 48/9/1 46/9/1
f 45/11/1 49/12/1 44/11/1
f 44/11/1 49/12/1 50/12/1
f 51/11/1 49/12/1 45/11/1
f 51/11/1 52/11/1 49/12/1
f 47/10/1 53/9/1 48/9/1
f 48/9/1 53/9/1 51/11/1
f 51/11/1 53/9/1 52/11/1
f 53/9/1 47/10/1 54/10/1
f 53/9/1 55/11/1 52/11/1
f 53/9/1 56/9/1 55/11/1
f 56/9/1 53/9/1 57/10/1
f 57/10/1 58/9/1 56/9/1
f 55/11/1 59/12/1 52/11/1
f 52/11/1 59/12/1 60/12/1
f 61/11/1 59/12/1 55/11/1
f 61/11/1 62/11/1 59/12/1
f 57/10/1 63/9/1 58/9/1
f 58/9/1 63/9/1 61/11/1
f 61/11/1 63/9/1 62/11/1
f 63/9/1 57/10/1 64/10/1
f 63/9/1 65/11/1 62/11/1
f 63/9/1 66/9/1 65/11/1
f 66/9/1 63/9/1 67/10/1
f 67/10/1 68/9/1 66/9/1
f 65/11/1 69/12/1 62/11/1
f 62/11/1 69/12/1 70/12/1
f 71/11/1 69/12/1 65/11/1
f 71/11/1 72/11/1 69/12/1
f 71/11/1 73/9/1 72/11/1
f 68/9/1 73/9/1 71/11/1
f 67/10/1 73/9/1 68/9/1
f 73/9/1 67/10/1 74/10/1
f 42/12/16 75/12/17 43/12/17
f 75/12/17 42/12/16 76/12/16
f 44/11/18 76/12/16 42/12/16
f 76/12/16 44/11/18 77/11/18
f 78/11/19 38/9/20 40/11/19
f 38/9/20 78/11/19 79/9/20
f 75/12/17 40/11/19 43/12/17
f 40/11/19 75/12/17 78/11/19
f 81/9/21 33/10/22 80/10/22
f 33/10/22 81/9/21 35/9/21
f 79/9/5 80/10/5 82/10/5
f 80/10/5 79/9/5 83/9/5
f 84/9/5 80/10/5 83/9/5
f 83/9/5 79/9/5 85/11/5
f 85/11/5 79/9/5 78/11/5
f 80/10/5 84/9/5 81/9/5
f 85/11/5 78/11/5 75/12/5
f 85/11/5 75/12/5 86/11/5
f 81/9/5 84/9/5 86/11/5
f 86/11/5 75/12/5 77/11/5
f 81/9/5 86/11/5 77/11/5
f 77/11/5 75/12/5 76/12/5
f 87/11/5 81/9/5 77/11/5
f 87/11/5 77/11/5 88/12/5
f 89/9/5 81/9/5 87/11/5
f 87/11/5 88/12/5 90/11/5
f 91/10/5 81/9/5 89/9/5
f 81/9/5 91/10/5 92/10/5
f 93/9/5 91/10/5 89/9/5
f 91/10/5 93/9/5 94/9/5
f 94/9/5 93/9/5 90/11/5
f 90/11/5 88/12/5 95/11/5
f 94/9/5 90/11/5 95/11/5
f 95/11/5 88/12/5 96/12/5
f 97/11/5 94/9/5 95/11/5
f 97/11/5 95/11/5 98/12/5
f 99/9/5 94/9/5 97/11/5
f 97/11/5 98/12/5 100/11/5
f 101/10/5 94/9/5 99/9/5
f 94/9/5 101/10/5 102/10/5
f 103/9/5 101/10/5 99/9/5
f 101/10/5 103/9/5 104/9/5
f 104/9/5 103/9/5 100/11/5
f 100/11/5 98/12/5 105/11/5
f 104/9/5 100/11/5 105/11/5
f 105/11/5 98/12/5 106/12/5
f 107/11/5 104/9/5 105/11/5
f 107/11/5 105/11/5 108/12/5
f 109/9/5 104/9/5 107/11/5
f 107/11/5 108/12/5 110/11/5
f 111/10/5 104/9/5 109/9/5
f 104/9/5 111/10/5 112/10/5
f 113/9/5 111/10/5 109/9/5
f 111/10/5 113/9/5 114/9/5
f 114/9/5 113/9/5 110/11/5
f 114/9/5 110/11/5 115/11/5
f 110/11/5 108/12/5 115/11/5
f 115/11/5 108/12/5 116/12/5
f 101/10/22 57/10/23 102/10/23
f 57/10/23 101/10/22 64/10/22
f 102/10/23 53/9/24 94/9/24
f 53/9/24 102/10/23 57/10/23
f 105/11/18 59/12/16 62/11/18
f 59/12/16 105/11/18 106/12/16
f 59/12/16 98/12/17 60/12/17
f 98/12/17 59/12/16 106/12/16
f 111/10/22 73/9/25 74/10/22
f 73/9/25 111/10/22 114/9/25
f 91/10/22 53/9/21 54/10/22
f 53/9/21 91/10/22 94/9/21
f 98/12/17 52/11/26 60/12/17
f 52/11/26 98/12/17 95/11/26
f 108/12/17 62/11/26 70/12/17
f 62/11/26 108/12/17 105/11/26
f 92/10/23 35/9/24 81/9/24
f 35/9/24 92/10/23 47/10/23
f 111/10/22 67/10/23 112/10/23
f 67/10/23 111/10/22 74/10/22
f 79/9/20 34/10/23 38/9/20
f 34/10/23 79/9/20 82/10/23
f 88/12/17 44/11/26 50/12/17
f 44/11/26 88/12/17 77/11/26
f 115/11/27 69/12/16 72/11/27
f 69/12/16 115/11/27 116/12/16
f 49/12/16 88/12/17 50/12/17
f 88/12/17 49/12/16 96/12/16
f 69/12/16 108/12/17 70/12/17
f 108/12/17 69/12/16 116/12/16
f 80/10/22 34/10/23 82/10/23
f 34/10/23 80/10/22 33/10/22
f 104/9/21 64/10/22 101/10/22
f 64/10/22 104/9/21 63/9/21
f 91/10/22 47/10/23 92/10/23
f 47/10/23 91/10/22 54/10/22
f 112/10/23 63/9/24 104/9/24
f 63/9/24 112/10/23 67/10/23
f 95/11/18 49/12/16 52/11/18
f 49/12/16 95/11/18 96/12/16
f 114/9/25 72/11/27 73/9/25
f 72/11/27 114/9/25 115/11/27
f 36/13/1 39/14/1 37/13/1
f 39/14/1 36/13/1 41/14/1
f 107/14/5 113/13/5 109/13/5
f 113/13/5 107/14/5 110/14/5
f 97/14/5 103/13/5 99/13/5
f 103/13/5 97/14/5 100/14/5
f 48/13/1 45/14/1 46/13/1
f 45/14/1 48/13/1 51/14/1
f 58/13/1 55/14/1 56/13/1
f 55/14/1 58/13/1 61/14/1
f 68/13/1 65/14/1 66/13/1
f 65/14/1 68/13/1 71/14/1
f 85/14/5 84/13/5 83/13/5
f 84/13/5 85/14/5 86/14/5
f 87/14/5 93/13/5 89/13/5
f 93/13/5 87/14/5 90/14/5
