# Blender 4.3.2
# www.blender.org
mtllib gravestone-cross.mtl
o gravestone-cross.001
v -0.051232 0.000000 -0.742227
v -0.061799 0.000000 -0.752757
v -0.051232 0.000000 -0.786049
v -0.075688 0.000000 -0.776264
v -0.078809 0.000000 -0.786049
v 0.091736 0.061475 -0.254243
v 0.045868 0.061475 -0.211333
v 0.079810 0.031475 -0.269706
v 0.039905 0.031475 -0.232373
v 0.061799 -0.030737 -0.913273
v 0.061799 0.000000 -0.913273
v 0.051232 -0.030737 -0.923803
v 0.051232 0.000000 -0.923803
v 0.220769 0.145632 0.000000
v -0.220769 0.145632 0.000000
v 0.220769 0.145632 -0.118326
v -0.220769 0.145632 -0.118326
v 0.075688 -0.030737 -0.776264
v 0.061799 -0.030737 -0.752757
v 0.075688 0.000000 -0.776264
v 0.061799 0.000000 -0.752757
v -0.075688 -0.030737 -0.889766
v -0.061799 -0.030737 -0.913273
v -0.075688 0.000000 -0.889766
v -0.061799 0.000000 -0.913273
v 0.075688 -0.030737 -0.889766
v 0.078809 -0.030737 -0.879981
v 0.075688 0.000000 -0.889766
v 0.078809 0.000000 -0.879981
v -0.036585 0.031475 -0.513991
v -0.079810 0.031475 -0.269706
v -0.042052 0.061475 -0.535031
v -0.091736 0.061475 -0.254243
v -0.180374 -0.093172 -0.118326
v 0.180374 -0.093172 -0.118326
v -0.180374 -0.093172 -0.163836
v 0.180374 -0.093172 -0.163836
v 0.051232 -0.030737 -0.954345
v 0.051232 0.030737 -0.954345
v 0.051232 0.000000 -0.879981
v 0.051232 0.030737 -0.879981
v -0.049664 0.061475 -0.211333
v -0.043208 0.031475 -0.232373
v -0.051232 -0.030737 -0.954345
v -0.051232 -0.030737 -0.923803
v -0.078809 -0.030737 -0.879981
v 0.118979 -0.030737 -0.879981
v -0.118979 -0.030737 -0.879981
v 0.118979 -0.030737 -0.786049
v 0.078809 -0.030737 -0.786049
v -0.078809 -0.030737 -0.786049
v -0.118979 -0.030737 -0.786049
v -0.075688 -0.030737 -0.776264
v -0.061799 -0.030737 -0.752757
v 0.051232 -0.030737 -0.742227
v -0.051232 -0.030737 -0.742227
v 0.051232 -0.030737 -0.582528
v -0.051232 -0.030737 -0.582528
v -0.051232 0.030737 -0.954345
v 0.081883 -0.061475 -0.582528
v 0.155968 -0.061475 -0.163836
v 0.081883 0.061475 -0.582528
v 0.155968 0.061475 -0.163836
v -0.220769 -0.145632 0.000000
v 0.220769 -0.145632 0.000000
v -0.220769 -0.145632 -0.118326
v 0.220769 -0.145632 -0.118326
v 0.180374 0.093172 -0.163836
v 0.180374 0.093172 -0.118326
v -0.051232 0.030737 -0.879981
v -0.118979 0.030737 -0.879981
v 0.118979 0.030737 -0.879981
v -0.118979 0.030737 -0.786049
v -0.051232 0.030737 -0.786049
v 0.051232 0.030737 -0.786049
v 0.118979 0.030737 -0.786049
v -0.051232 0.030737 -0.582528
v 0.051232 0.030737 -0.582528
v -0.180374 0.093172 -0.118326
v -0.180374 0.093172 -0.163836
v 0.078809 0.000000 -0.786049
v -0.051232 0.000000 -0.923803
v 0.042052 0.061475 -0.535031
v 0.036585 0.031475 -0.513991
v 0.051232 0.000000 -0.786049
v 0.051232 0.000000 -0.742227
v -0.078809 0.000000 -0.879981
v -0.051232 0.000000 -0.879981
v -0.155968 -0.061475 -0.163836
v -0.081883 -0.061475 -0.582528
v -0.155968 0.061475 -0.163836
v -0.081883 0.061475 -0.582528
vn -0.5774 0.5773 0.5773
vn -0.5033 0.6826 0.5299
vn -0.9737 0.1317 0.1861
vn -0.6238 0.6850 0.3763
vn -0.2698 0.2275 0.9356
vn -0.6155 0.7778 -0.1273
vn 0.0001 0.8983 -0.4394
vn -0.3381 0.9303 -0.1426
vn -0.0466 0.8033 -0.5937
vn 0.5487 -0.8044 -0.2278
vn 0.6441 0.5786 -0.5003
vn 0.5358 -0.6824 -0.4972
vn 0.9737 0.1317 -0.1861
vn 0.5773 0.5773 -0.5774
vn -0.5773 0.5773 0.5774
vn 0.5774 0.5774 0.5774
vn -0.5773 0.5773 -0.5774
vn 0.6684 0.6418 0.3760
vn 0.6307 -0.6827 0.3691
vn 0.7116 -0.6261 0.3188
vn 0.6199 0.6195 0.4815
vn -0.6685 0.6446 -0.3710
vn -0.6307 -0.6827 -0.3691
vn -0.7116 -0.6261 -0.3188
vn 0.7180 0.6335 -0.2882
vn 0.5282 -0.4454 -0.7229
vn 0.7108 -0.6272 -0.3184
vn 0.2698 0.2275 -0.9356
vn 0.1617 0.9604 0.2268
vn 0.6170 0.7784 -0.1154
vn 0.4693 0.7814 0.4114
vn 0.3491 0.9268 -0.1385
vn -0.5773 -0.5774 -0.5774
vn 0.3015 -0.3015 -0.9045
vn -0.3015 -0.3015 -0.9045
vn 0.5773 0.5774 -0.5774
vn 0.3364 0.8890 -0.3107
vn 0.3607 0.8242 -0.4366
vn -0.5487 -0.8044 -0.2278
vn -0.5774 -0.5773 -0.5773
vn -0.0000 -1.0000 -0.0000
vn 0.5774 -0.5773 0.5774
vn -0.5774 -0.5773 -0.5774
vn 0.5774 -0.5774 -0.5774
vn 0.2945 -0.8665 0.4030
vn -0.2945 -0.8665 0.4030
vn -0.5774 -0.5774 0.5774
vn -0.6144 -0.6824 0.3961
vn -0.6114 -0.7191 0.3303
vn 0.5487 -0.8044 0.2278
vn -0.5486 -0.8044 0.2278
vn -0.5774 0.5773 -0.5773
vn 0.3015 0.3015 -0.9045
vn -0.0000 1.0000 -0.0000
vn 0.5774 0.5773 -0.5774
vn 0.3015 0.9045 0.3015
vn -0.3015 0.3015 -0.9045
vn -0.3015 0.9045 0.3015
vn 0.2698 0.2275 0.9357
vn -0.9737 0.1317 -0.1861
vn 0.5773 -0.5773 0.5774
vn 0.5773 -0.5773 -0.5774
vn 0.5774 0.5773 0.5774
vn -0.5773 -0.5773 -0.5774
vn 0.9737 0.1317 0.1861
vn -0.2698 0.2275 -0.9357
vn -0.5282 -0.4454 -0.7229
vn -0.5774 0.5774 -0.5774
vn -0.4693 0.7814 0.4114
vn -0.6333 0.6827 -0.3645
vn -0.5201 -0.5871 -0.6203
vn 0.2862 -0.2583 -0.9227
vn -0.2862 -0.2583 -0.9227
vn 0.5201 -0.5871 -0.6203
vn -0.5201 0.5871 -0.6203
vn 0.2862 0.2583 -0.9227
vn -0.2862 0.2583 -0.9227
vn 0.5201 0.5871 -0.6203
vn -0.1617 0.9604 0.2268
vt 0.843750 0.189731
vt 0.843750 0.182754
vt 0.843750 0.180547
vt 0.843750 0.187680
vt 0.843750 0.081522
vt 0.843750 0.069289
vt 0.843750 0.078281
vt 0.843750 0.073698
vt 0.843750 0.218599
vt 0.843750 0.216393
vt 0.843750 0.049797
vt 0.843750 0.025000
vt 0.843750 0.211466
vt 0.843750 0.209416
vt 0.843750 0.137125
vt 0.843750 0.132716
vt 0.843750 0.059335
vt 0.843750 0.225000
vt 0.843750 0.147079
vt 0.093750 0.081522
vt 0.093750 0.073698
vt 0.093750 0.132716
s 1
usemtl colormap.009
f 3/1/1 2/2/2 1/3/3
f 2/2/2 3/1/1 4/4/4
f 4/4/4 3/1/1 5/1/5
f 8/5/6 7/6/7 6/7/8
f 7/6/7 8/5/6 9/8/9
f 12/9/10 11/10/11 10/10/12
f 11/10/11 12/9/10 13/9/13
f 16/11/14 15/12/15 14/12/16
f 15/12/15 16/11/14 17/11/17
f 20/4/18 19/2/19 18/4/20
f 19/2/19 20/4/18 21/2/21
f 24/13/22 23/10/23 22/13/24
f 28/13/25 27/14/26 26/13/27
f 27/14/26 28/13/25 29/14/28
f 32/15/29 31/5/30 30/16/31
f 31/5/30 32/15/29 33/7/32
f 36/17/33 35/11/34 34/11/35
f 40/14/14 39/18/36 41/14/14
f 9/8/9 42/6/37 7/6/7
f 42/6/37 9/8/9 43/8/38
f 12/9/10 45/9/39 44/18/40
f 26/13/27 23/10/23 10/10/12
s 0
f 47/14/41 48/14/41 46/14/41
s 1
f 49/1/42 48/14/43 47/14/44
f 50/1/45 48/14/43 49/1/42
f 48/14/43 51/1/46 52/1/47
f 18/4/20 51/1/46 50/1/45
f 19/2/19 54/2/48 53/4/49
f 55/3/50 56/3/51 54/2/48
f 56/3/51 57/19/34 58/19/35
f 44/18/40 39/18/36 38/18/44
f 39/18/36 44/18/40 59/18/52
f 4/4/4 51/1/46 53/4/49
f 51/1/46 4/4/4 5/1/5
f 35/11/34 68/17/36 69/11/53
f 70/14/17 39/18/36 59/18/52
f 39/18/36 70/14/17 41/14/14
s 0
f 71/14/54 41/14/54 70/14/54
f 71/14/54 72/14/54 41/14/54
s 1
f 72/14/55 75/1/56 76/1/16
f 77/19/57 75/1/56 74/1/58
f 75/1/56 77/19/57 78/19/53
f 79/11/57 36/17/33 34/11/35
f 18/4/20 81/1/59 20/4/18
f 23/10/23 82/9/60 45/9/39
f 5/1/5 73/1/1 51/1/46
f 1/3/3 77/19/57 3/1/1
f 3/1/1 77/19/57 74/1/58
f 16/11/14 65/12/61 67/11/62
f 65/12/61 16/11/14 14/12/16
f 2/2/2 56/3/51 1/3/3
f 75/1/56 49/1/42 76/1/16
f 49/1/42 75/1/56 81/1/59
f 81/1/59 75/1/56 85/1/63
f 49/1/42 72/14/55 76/1/16
f 15/12/15 66/11/64 64/12/47
f 66/11/64 15/12/15 17/11/17
f 75/1/56 86/3/65 85/1/63
f 78/19/53 86/3/65 75/1/56
f 27/14/26 72/14/55 47/14/44
f 72/14/55 29/14/28 41/14/14
f 48/14/43 87/14/66 46/14/67
f 71/14/17 87/14/66 48/14/43
f 15/12/15 65/12/61 14/12/16
f 28/13/25 40/14/14 29/14/28
f 40/14/14 28/13/25 13/9/13
f 22/13/24 87/14/66 24/13/22
f 21/2/21 85/1/63 86/3/65
f 85/1/63 21/2/21 20/4/18
f 85/1/63 20/4/18 81/1/59
f 70/14/17 82/9/60 88/14/68
f 59/18/52 82/9/60 70/14/17
f 82/9/60 44/18/40 45/9/39
f 73/1/1 48/14/43 52/1/47
f 48/14/43 73/1/1 71/14/17
f 6/7/8 84/16/69 8/5/6
f 11/10/11 26/13/27 10/10/12
f 19/2/19 86/3/65 55/3/50
f 82/9/60 87/14/66 88/14/68
f 87/14/66 82/9/60 24/13/22
f 24/13/22 82/9/60 25/10/70
f 90/19/71 61/17/72 89/17/73
f 61/17/72 90/19/71 60/19/74
f 34/11/35 66/11/64 79/11/57
f 35/11/34 67/11/62 66/11/64
f 17/11/17 69/11/53 79/11/57
f 57/19/34 90/19/71 58/19/35
f 58/19/35 90/19/71 77/19/57
f 92/19/75 77/19/57 90/19/71
f 63/17/76 68/17/36 61/17/72
f 68/17/36 63/17/76 80/17/17
f 80/17/17 63/17/76 91/17/77
f 33/7/32 91/17/77 42/6/37
f 91/17/77 33/7/32 92/19/75
f 92/19/75 33/7/32 32/15/29
f 92/19/75 32/15/29 62/19/78
f 8/20/6 43/21/38 9/21/9
f 31/20/30 8/20/6 84/22/69
f 23/10/23 24/13/22 25/10/70
f 35/11/34 36/17/33 37/17/62
f 39/18/36 12/9/10 38/18/44
f 12/9/10 39/18/36 13/9/13
f 13/9/13 39/18/36 40/14/14
f 12/9/10 44/18/40 38/18/44
f 10/10/12 45/9/39 12/9/10
f 10/10/12 23/10/23 45/9/39
f 26/13/27 22/13/24 23/10/23
f 27/14/26 22/13/24 26/13/27
f 22/13/24 27/14/26 46/14/67
s 0
f 47/14/41 46/14/41 27/14/41
s 1
f 51/1/46 48/14/43 50/1/45
f 18/4/20 53/4/49 51/1/46
f 19/2/19 53/4/49 18/4/20
f 55/3/50 54/2/48 19/2/19
f 57/19/34 56/3/51 55/3/50
f 62/19/78 61/17/72 60/19/74
f 61/17/72 62/19/78 63/17/76
f 66/11/64 65/12/61 64/12/47
f 65/12/61 66/11/64 67/11/62
f 68/17/36 35/11/34 37/17/62
f 73/1/1 72/14/55 71/14/17
f 74/1/58 72/14/55 73/1/1
f 75/1/56 72/14/55 74/1/58
f 36/17/33 79/11/57 80/17/17
f 81/1/59 18/4/20 50/1/45
f 82/9/60 23/10/23 25/10/70
f 73/1/1 3/1/1 74/1/58
f 3/1/1 73/1/1 5/1/5
f 51/1/46 73/1/1 52/1/47
f 77/19/57 56/3/51 58/19/35
f 56/3/51 77/19/57 1/3/3
f 32/15/29 84/16/69 83/15/79
f 84/16/69 32/15/29 30/16/31
f 56/3/51 2/2/2 54/2/48
f 50/1/45 49/1/42 81/1/59
f 72/14/55 49/1/42 47/14/44
f 57/19/34 86/3/65 78/19/53
f 86/3/65 57/19/34 55/3/50
f 72/14/55 27/14/26 29/14/28
f 41/14/14 29/14/28 40/14/14
f 70/14/17 87/14/66 71/14/17
f 87/14/66 70/14/17 88/14/68
f 2/2/2 53/4/49 54/2/48
f 53/4/49 2/2/2 4/4/4
f 65/12/61 15/12/15 64/12/47
f 13/9/13 28/13/25 11/10/11
f 87/14/66 22/13/24 46/14/67
f 91/17/77 90/19/71 89/17/73
f 90/19/71 91/17/77 92/19/75
f 68/17/36 79/11/57 69/11/53
f 79/11/57 68/17/36 80/17/17
f 44/18/40 82/9/60 59/18/52
f 33/7/32 43/8/38 31/5/30
f 43/8/38 33/7/32 42/6/37
f 84/16/69 6/7/8 83/15/79
f 26/13/27 11/10/11 28/13/25
f 86/3/65 19/2/19 21/2/21
f 35/11/34 66/11/64 34/11/35
f 17/11/17 79/11/57 66/11/64
f 67/11/62 35/11/34 16/11/14
f 16/11/14 69/11/53 17/11/17
f 69/11/53 16/11/14 35/11/34
f 57/19/34 60/19/74 90/19/71
f 60/19/74 57/19/34 62/19/78
f 92/19/75 78/19/53 77/19/57
f 62/19/78 78/19/53 92/19/75
f 78/19/53 62/19/78 57/19/34
f 37/17/62 61/17/72 68/17/36
f 61/17/72 37/17/62 36/17/33
f 61/17/72 36/17/33 89/17/73
f 89/17/73 36/17/33 91/17/77
f 80/17/17 91/17/77 36/17/33
f 42/6/37 91/17/77 7/6/7
f 63/17/76 7/6/7 91/17/77
f 7/6/7 63/17/76 6/7/8
f 6/7/8 63/17/76 62/19/78
f 83/15/79 62/19/78 32/15/29
f 6/7/8 62/19/78 83/15/79
f 43/21/38 8/20/6 31/20/30
f 31/20/30 84/22/69 30/22/31
