# Blender 4.3.2
# www.blender.org
mtllib robot-arm-a.mtl
o robot-arm-a.002
v 0.500000 0.000000 0.000000
v 0.353553 -0.353553 0.000000
v 0.353553 0.353553 0.000000
v 0.000000 0.500000 0.000000
v 0.000000 -0.500000 0.000000
v -0.353553 0.353553 0.000000
v -0.353553 -0.353553 0.000000
v -0.500000 0.000000 0.000000
v 0.400000 0.000000 -0.300000
v 0.282843 0.282843 -0.300000
v 0.282843 -0.282843 -0.300000
v 0.000000 -0.400000 -0.300000
v 0.000000 0.400000 -0.300000
v -0.282843 -0.282843 -0.300000
v -0.282843 0.282843 -0.300000
v -0.400000 0.000000 -0.300000
v -0.100000 0.200000 -0.500000
v -0.200000 0.200000 -0.500000
v -0.100000 0.141421 -0.641421
v -0.200000 0.141421 -0.641421
v -0.100000 0.000000 -0.700000
v -0.200000 0.000000 -0.700000
v -0.100000 -0.141421 -0.641421
v -0.200000 -0.141421 -0.641421
v -0.200000 -0.200000 -0.500000
v -0.100000 -0.200000 -0.500000
v 0.100000 -0.200000 -0.500000
v 0.200000 -0.200000 -0.500000
v 0.100000 -0.141421 -0.641421
v 0.200000 -0.141421 -0.641421
v 0.200000 0.000000 -0.700000
v 0.100000 0.000000 -0.700000
v 0.200000 0.141421 -0.641421
v 0.100000 0.141421 -0.641421
v 0.200000 0.200000 -0.500000
v 0.100000 0.200000 -0.500000
v 0.100000 0.200000 -0.400000
v 0.200000 0.200000 -0.300000
v -0.200000 0.200000 -0.300000
v -0.100000 0.200000 -0.400000
v 0.200000 -0.200000 -0.300000
v -0.200000 -0.200000 -0.300000
v -0.100000 -0.200000 -0.400000
v 0.100000 -0.200000 -0.400000
v 0.100000 -0.200000 -0.800000
v 0.100000 -0.200000 -0.600000
v 0.100000 0.200000 -0.800000
v 0.100000 -0.141421 -0.458579
v 0.100000 0.000000 -0.400000
v 0.100000 0.141421 -0.458579
v 0.100000 0.200000 -0.600000
v -0.100000 -0.200000 -0.800000
v -0.100000 0.200000 -0.800000
v -0.100000 -0.200000 -0.600000
v -0.100000 -0.141421 -0.458579
v -0.100000 0.000000 -0.400000
v -0.100000 0.141421 -0.458579
v -0.100000 0.200000 -0.600000
v -0.100000 -0.141421 -0.458579
v 0.100000 -0.141421 -0.458579
v 0.100000 -0.000000 -0.400000
v -0.100000 -0.000000 -0.400000
v 0.100000 0.141421 -0.458579
v -0.100000 0.141421 -0.458579
v -0.200000 -0.150000 -1.100000
v -0.200000 0.150000 -1.100000
v -0.200000 -0.150000 -0.800000
v -0.200000 0.150000 -0.800000
v -0.150000 -0.200000 -1.100000
v -0.150000 -0.200000 -0.800000
v 0.150000 0.200000 -0.800000
v 0.150000 0.200000 -1.100000
v -0.150000 0.200000 -0.800000
v -0.150000 0.200000 -1.100000
v 0.200000 -0.150000 -1.100000
v 0.200000 0.150000 -1.100000
v 0.150000 -0.200000 -1.100000
v 0.150000 -0.200000 -0.800000
v 0.200000 -0.150000 -0.800000
v 0.200000 0.150000 -0.800000
v 0.150000 -0.000000 -1.200000
v 0.150000 -0.000000 -1.100000
v 0.106066 0.106066 -1.200000
v 0.106066 0.106066 -1.100000
v 0.000000 0.150000 -1.100000
v 0.000000 0.150000 -1.200000
v -0.106066 0.106066 -1.100000
v -0.106066 0.106066 -1.200000
v -0.150000 -0.000000 -1.100000
v -0.150000 -0.000000 -1.200000
v -0.106066 -0.106066 -1.100000
v -0.106066 -0.106066 -1.200000
v 0.000000 -0.150000 -1.100000
v 0.000000 -0.150000 -1.200000
v 0.106066 -0.106066 -1.100000
v 0.106066 -0.106066 -1.200000
v -0.100000 0.200000 -1.400000
v -0.200000 0.200000 -1.400000
v -0.100000 0.141421 -1.541421
v -0.200000 0.141421 -1.541421
v -0.100000 -0.000000 -1.600000
v -0.200000 -0.000000 -1.600000
v -0.100000 -0.141421 -1.541421
v -0.200000 -0.141421 -1.541421
v -0.200000 -0.200000 -1.400000
v -0.100000 -0.200000 -1.400000
v 0.100000 -0.200000 -1.400000
v 0.200000 -0.200000 -1.400000
v 0.100000 -0.141421 -1.541421
v 0.200000 -0.141421 -1.541421
v 0.200000 -0.000000 -1.600000
v 0.100000 -0.000000 -1.600000
v 0.200000 0.141421 -1.541421
v 0.100000 0.141421 -1.541421
v 0.200000 0.200000 -1.400000
v 0.100000 0.200000 -1.400000
v 0.200000 0.150000 -1.200000
v 0.200000 -0.150000 -1.200000
v -0.200000 0.150000 -1.200000
v -0.200000 -0.150000 -1.200000
v -0.100000 -0.200000 -1.300000
v -0.200000 -0.200000 -1.250000
v 0.200000 -0.200000 -1.250000
v 0.100000 -0.200000 -1.300000
v 0.100000 0.200000 -1.300000
v 0.200000 0.200000 -1.250000
v -0.200000 0.200000 -1.250000
v -0.100000 0.200000 -1.300000
v 0.200000 -0.150000 -2.000000
v 0.200000 0.150000 -2.000000
v 0.150000 -0.200000 -2.000000
v 0.150000 0.200000 -2.000000
v -0.150000 -0.200000 -2.000000
v -0.150000 0.200000 -2.000000
v -0.200000 -0.150000 -2.000000
v -0.200000 0.150000 -2.000000
v -0.150000 -0.200000 -1.700000
v -0.200000 -0.150000 -1.700000
v -0.200000 0.150000 -1.700000
v -0.150000 0.200000 -1.700000
v 0.150000 0.200000 -1.700000
v 0.100000 0.200000 -1.700000
v -0.100000 0.200000 -1.700000
v 0.200000 0.150000 -1.700000
v 0.200000 -0.150000 -1.700000
v 0.150000 -0.200000 -1.700000
v 0.100000 -0.200000 -1.700000
v -0.100000 -0.200000 -1.700000
v 0.100000 -0.200000 -1.500000
v 0.100000 -0.141421 -1.358579
v 0.100000 0.000000 -1.300000
v 0.100000 0.141421 -1.358579
v 0.100000 0.200000 -1.500000
v -0.100000 -0.200000 -1.500000
v -0.100000 -0.141421 -1.358579
v -0.100000 0.000000 -1.300000
v -0.100000 0.141421 -1.358579
v -0.100000 0.200000 -1.500000
v 0.100000 -0.000000 -1.300000
v -0.100000 -0.000000 -1.300000
v 0.150000 -0.000000 -2.100000
v 0.150000 -0.000000 -2.000000
v 0.106066 0.106066 -2.100000
v 0.106066 0.106066 -2.000000
v 0.000000 0.150000 -2.000000
v 0.000000 0.150000 -2.100000
v -0.106066 0.106066 -2.000000
v -0.106066 0.106066 -2.100000
v -0.150000 -0.000000 -2.000000
v -0.150000 -0.000000 -2.100000
v -0.106066 -0.106066 -2.000000
v -0.106066 -0.106066 -2.100000
v 0.000000 -0.150000 -2.000000
v 0.000000 -0.150000 -2.100000
v 0.106066 -0.106066 -2.000000
v 0.106066 -0.106066 -2.100000
v -0.100000 0.200000 -2.300000
v -0.200000 0.200000 -2.300000
v -0.100000 0.141421 -2.441422
v -0.200000 0.141421 -2.441422
v -0.100000 -0.000000 -2.500000
v -0.200000 -0.000000 -2.500000
v -0.100000 -0.141421 -2.441422
v -0.200000 -0.141421 -2.441422
v -0.200000 -0.200000 -2.300000
v -0.100000 -0.200000 -2.300000
v 0.100000 -0.200000 -2.300000
v 0.200000 -0.200000 -2.300000
v 0.100000 -0.141421 -2.441422
v 0.200000 -0.141421 -2.441422
v 0.200000 -0.000000 -2.500000
v 0.100000 -0.000000 -2.500000
v 0.200000 0.141421 -2.441422
v 0.100000 0.141421 -2.441422
v 0.200000 0.200000 -2.300000
v 0.100000 0.200000 -2.300000
v 0.200000 0.150000 -2.100000
v 0.200000 -0.150000 -2.100000
v -0.200000 0.150000 -2.100000
v -0.200000 -0.150000 -2.100000
v -0.100000 -0.200000 -2.200000
v -0.200000 -0.200000 -2.150000
v 0.200000 -0.200000 -2.150000
v 0.100000 -0.200000 -2.200000
v 0.100000 0.200000 -2.200000
v 0.200000 0.200000 -2.150000
v -0.200000 0.200000 -2.150000
v -0.100000 0.200000 -2.200000
v 0.100000 -0.000000 -2.200000
v 0.100000 -0.141421 -2.258579
v -0.100000 -0.000000 -2.200000
v -0.100000 -0.141421 -2.258579
v -0.100000 -0.200000 -2.400000
v 0.100000 -0.200000 -2.400000
v -0.100000 -0.200000 -2.600000
v 0.100000 -0.200000 -2.600000
v 0.100000 0.141421 -2.258579
v -0.100000 0.141421 -2.258579
v 0.100000 0.200000 -2.400000
v -0.100000 0.200000 -2.400000
v 0.100000 0.200000 -2.600000
v -0.100000 0.200000 -2.600000
v -0.200000 -0.250000 -2.600000
v -0.150000 -0.250000 -2.600000
v -0.200000 -0.250000 -2.800000
v 0.150000 -0.250000 -2.600000
v 0.200000 -0.250000 -2.600000
v 0.200000 -0.250000 -2.800000
v 0.200000 0.250000 -2.600000
v 0.150000 0.250000 -2.600000
v 0.200000 0.250000 -2.800000
v -0.150000 0.250000 -2.600000
v -0.200000 0.250000 -2.600000
v -0.200000 0.250000 -2.800000
v -0.250000 -0.200000 -2.600000
v -0.250000 -0.200000 -2.800000
v 0.250000 -0.200000 -2.600000
v 0.250000 -0.200000 -2.800000
v 0.250000 0.200000 -2.600000
v 0.250000 0.200000 -2.800000
v -0.250000 0.200000 -2.600000
v -0.250000 0.200000 -2.800000
v 0.250000 -0.100000 -2.700000
v 0.250000 0.100000 -2.700000
v -0.250000 -0.100000 -2.700000
v -0.250000 0.100000 -2.700000
v 0.250000 -0.100000 -2.800000
v -0.250000 -0.100000 -2.800000
v 0.250000 0.100000 -2.800000
v -0.250000 0.100000 -2.800000
v 0.150000 -0.100000 -3.200000
v 0.150000 0.100000 -3.200000
v 0.000000 -0.100000 -3.200000
v 0.000000 0.100000 -3.200000
v 0.350000 -0.100000 -2.850000
v 0.350000 0.100000 -2.850000
v 0.250000 -0.100000 -2.700000
v 0.129815 -0.100000 -2.700000
v 0.250000 0.100000 -2.700000
v 0.129815 0.100000 -2.700000
v 0.000000 -0.100000 -3.100000
v 0.000000 0.100000 -3.100000
v 0.091968 -0.100000 -3.100000
v 0.091968 0.100000 -3.100000
v 0.232513 -0.100000 -2.854046
v 0.232513 0.100000 -2.854046
v -0.129815 0.100000 -2.700000
v -0.129815 -0.100000 -2.700000
v -0.250000 0.100000 -2.700000
v -0.250000 -0.100000 -2.700000
v -0.150000 -0.100000 -3.200000
v -0.150000 0.100000 -3.200000
v -0.350000 -0.100000 -2.850000
v -0.350000 0.100000 -2.850000
v -0.091968 0.100000 -3.100000
v -0.232513 0.100000 -2.854046
v -0.232513 -0.100000 -2.854046
v -0.091968 -0.100000 -3.100000
vn 0.7114 -0.3809 0.5907
vn 0.3995 0.7448 0.5345
vn 0.1705 0.7250 0.6673
vn 0.2635 -0.8025 0.5353
vn -0.6329 0.3631 0.6838
vn -0.3995 -0.7448 0.5345
vn -0.7600 -0.3679 0.5357
vn 0.5221 -0.2036 -0.8283
vn 0.5954 0.2234 -0.7717
vn 0.5687 -0.2864 -0.7711
vn 0.1186 -0.4857 -0.8660
vn 0.2335 0.5913 -0.7719
vn -0.4197 -0.2308 -0.8778
vn -0.2661 0.5776 -0.7717
vn -0.5482 0.3302 -0.7684
vn 0.8835 -0.3608 0.2987
vn -0.0000 0.7071 -0.7071
vn -0.0000 0.9808 -0.1951
vn -0.0000 -0.0000 -1.0000
vn -0.0000 -0.7071 -0.7071
vn -0.0000 -0.9808 -0.1951
vn -0.0000 1.0000 -0.0000
vn 1.0000 -0.0000 -0.0000
vn -1.0000 -0.0000 -0.0000
vn -0.0000 -1.0000 -0.0000
vn -0.0000 -0.9808 0.1951
vn -0.0000 -0.7071 0.7071
vn -0.0000 -0.0000 1.0000
vn -0.0000 0.7071 0.7071
vn -0.0000 0.9808 0.1951
vn -0.9239 -0.3827 -0.0000
vn -0.9239 0.3827 -0.0000
vn -0.7071 -0.7071 -0.0000
vn -0.7071 0.7071 -0.0000
vn 0.7071 -0.7071 -0.0000
vn 0.9239 -0.3827 -0.0000
vn 0.9239 0.3827 -0.0000
vn 0.7071 0.7071 -0.0000
vn -0.0000 0.3827 0.9239
vn -0.0000 -0.3827 0.9239
vn -0.0000 -0.9239 0.3827
vn -0.0000 0.9239 0.3827
vn 0.5019 -0.0000 -0.8649
vn 0.9994 -0.0000 0.0344
vn 0.8321 -0.0000 0.5547
vn 0.8320 -0.0000 0.5547
vn -0.8320 -0.0000 -0.5547
vn -0.8682 -0.0000 0.4961
vn -0.5019 -0.0000 -0.8649
vn -0.9994 -0.0000 0.0344
vn -0.8321 -0.0000 0.5547
vn 0.8320 -0.0000 -0.5547
vn 0.8682 -0.0000 0.4961
vt 0.343750 0.025000
vt 0.343750 0.225000
vt 0.343750 0.195711
vt 0.343750 0.125000
vt 0.343750 0.075000
vt 0.218750 0.195711
vt 0.218750 0.075000
vt 0.218750 0.125000
vt 0.218750 0.225000
vt 0.343750 0.105000
vt 0.343750 0.054289
vt 0.218750 0.105000
vt 0.093750 0.225000
vt 0.093750 0.025000
vt 0.343750 0.050000
vt 0.218750 0.025000
vt 0.218750 0.085000
vt 0.218750 0.185000
vt 0.343750 0.185000
vt 0.343750 0.086619
vt 0.343750 0.085000
s 1
usemtl colormap.016
f 2/1/1 3/1/2 4/1/3
f 2/1/1 4/1/3 5/1/4
f 5/1/4 4/1/3 6/1/5
f 5/1/4 6/1/5 7/1/6
f 7/1/6 6/1/5 8/1/7
f 11/2/8 10/2/9 9/2/10
f 10/2/9 11/2/8 12/2/11
f 10/2/9 12/2/11 13/2/12
f 13/2/12 12/2/11 14/2/13
f 13/2/12 14/2/13 15/2/14
f 15/2/14 14/2/13 16/2/15
f 14/2/13 5/1/4 7/1/6
f 5/1/4 14/2/13 12/2/11
f 12/2/11 2/1/1 5/1/4
f 1/1/16 11/2/8 9/2/10
f 10/2/9 4/1/3 3/1/2
f 13/2/12 6/1/5 4/1/3
f 6/1/5 13/2/12 15/2/14
f 6/1/5 16/2/15 8/1/7
f 16/2/15 6/1/5 15/2/14
f 8/1/7 14/2/13 7/1/6
f 14/2/13 8/1/7 16/2/15
f 10/2/9 1/1/16 9/2/10
f 3/1/2 2/1/1 1/1/16
f 2/1/1 12/2/11 11/2/8
f 11/2/8 1/1/16 2/1/1
f 4/1/3 10/2/9 13/2/12
f 1/1/16 10/2/9 3/1/2
f 19/3/17 18/4/18 17/4/18
f 18/4/18 19/3/17 20/3/17
f 22/2/19 19/3/17 21/2/19
f 19/3/17 22/2/19 20/3/17
f 24/3/20 21/2/19 23/3/20
f 21/2/19 24/3/20 22/2/19
f 24/3/20 26/4/21 25/4/21
f 26/4/21 24/3/20 23/3/20
f 29/3/20 28/4/21 27/4/21
f 28/4/21 29/3/20 30/3/20
f 29/3/20 31/2/19 30/3/20
f 31/2/19 29/3/20 32/2/19
f 32/2/19 33/3/17 31/2/19
f 33/3/17 32/2/19 34/3/17
f 33/3/17 36/4/18 35/4/18
f 36/4/18 33/3/17 34/3/17
f 37/5/22 35/4/18 36/4/18
f 37/5/22 38/1/22 35/4/18
f 38/1/22 37/5/22 39/1/22
f 40/5/22 39/1/22 37/5/22
f 39/1/22 40/5/22 18/4/18
f 18/4/18 40/5/22 17/4/18
f 30/3/23 41/1/23 28/4/23
f 41/1/23 30/3/23 38/1/23
f 38/1/23 30/3/23 31/2/23
f 38/1/23 31/2/23 33/3/23
f 38/1/23 33/3/23 35/4/23
f 39/1/24 25/4/24 42/1/24
f 25/4/24 39/1/24 24/3/24
f 24/3/24 39/1/24 22/2/24
f 22/2/24 39/1/24 20/3/24
f 20/3/24 39/1/24 18/4/24
f 43/5/25 25/4/21 26/4/21
f 43/5/25 42/1/25 25/4/21
f 42/1/25 43/5/25 41/1/25
f 44/5/25 41/1/25 43/5/25
f 41/1/25 44/5/25 28/4/21
f 28/4/21 44/5/25 27/4/21
f 23/6/23 43/7/23 26/8/23
f 43/7/23 23/6/23 40/7/23
f 40/7/23 23/6/23 21/9/23
f 40/7/23 21/9/23 19/6/23
f 40/7/23 19/6/23 17/8/23
f 37/7/24 27/8/24 44/7/24
f 27/8/24 37/7/24 29/6/24
f 29/6/24 37/7/24 32/9/24
f 32/9/24 37/7/24 34/6/24
f 34/6/24 37/7/24 36/8/24
f 43/7/19 37/7/19 44/7/19
f 37/7/19 43/7/19 40/7/19
f 47/10/23 46/1/23 45/10/23
f 46/1/23 47/10/23 48/1/23
f 48/1/23 47/10/23 49/1/23
f 49/1/23 47/10/23 50/1/23
f 50/1/23 47/10/23 51/1/23
f 54/1/24 53/10/24 52/10/24
f 53/10/24 54/1/24 55/1/24
f 53/10/24 55/1/24 56/1/24
f 53/10/24 56/1/24 57/1/24
f 53/10/24 57/1/24 58/1/24
f 54/4/26 60/11/27 59/11/27
f 60/11/27 54/4/26 46/4/26
f 62/1/28 60/11/27 61/1/28
f 60/11/27 62/1/28 59/11/27
f 64/11/29 61/1/28 63/11/29
f 61/1/28 64/11/29 62/1/28
f 52/2/25 46/4/26 54/4/26
f 46/4/26 52/2/25 45/2/25
f 51/4/30 64/11/29 63/11/29
f 64/11/29 51/4/30 58/4/30
f 47/2/22 58/4/30 51/4/30
f 58/4/30 47/2/22 53/2/22
f 67/12/31 66/9/32 65/9/31
f 66/9/32 67/12/31 68/12/32
f 70/12/33 65/9/31 69/9/33
f 65/9/31 70/12/33 67/12/31
f 72/9/22 47/12/22 71/12/22
f 47/12/22 72/9/22 53/12/22
f 53/12/22 72/9/22 73/12/22
f 73/12/22 72/9/22 74/9/22
f 68/12/32 74/9/34 66/9/32
f 74/9/34 68/12/32 73/12/34
f 77/9/19 76/9/19 75/9/19
f 76/9/19 77/9/19 72/9/19
f 72/9/19 77/9/19 69/9/19
f 72/9/19 69/9/19 74/9/19
f 74/9/19 69/9/19 65/9/19
f 74/9/19 65/9/19 66/9/19
f 77/9/35 79/12/36 78/12/35
f 79/12/36 77/9/35 75/9/36
f 76/9/37 71/12/38 80/12/37
f 71/12/38 76/9/37 72/9/38
f 76/9/37 79/12/36 75/9/36
f 79/12/36 76/9/37 80/12/37
f 69/9/25 52/12/25 70/12/25
f 52/12/25 69/9/25 45/12/25
f 45/12/25 69/9/25 78/12/25
f 78/12/25 69/9/25 77/9/25
f 73/12/28 52/12/28 53/12/28
f 52/12/28 73/12/28 70/12/28
f 70/12/28 73/12/28 68/12/28
f 70/12/28 68/12/28 67/12/28
f 71/12/28 79/12/28 80/12/28
f 79/12/28 71/12/28 78/12/28
f 78/12/28 71/12/28 47/12/28
f 78/12/28 47/12/28 45/12/28
f 83/13/38 82/14/23 81/13/23
f 82/14/23 83/13/38 84/14/38
f 83/13/38 85/14/22 84/14/38
f 85/14/22 83/13/38 86/13/22
f 86/13/22 87/14/34 85/14/22
f 87/14/34 86/13/22 88/13/34
f 87/14/34 90/13/24 89/14/24
f 90/13/24 87/14/34 88/13/34
f 89/14/24 92/13/33 91/14/33
f 92/13/33 89/14/24 90/13/24
f 92/13/33 93/14/25 91/14/33
f 93/14/25 92/13/33 94/13/25
f 94/13/25 95/14/35 93/14/25
f 95/14/35 94/13/25 96/13/35
f 81/13/23 95/14/35 96/13/35
f 95/14/35 81/13/23 82/14/23
f 99/3/17 98/4/18 97/4/18
f 98/4/18 99/3/17 100/3/17
f 102/2/19 99/3/17 101/2/19
f 99/3/17 102/2/19 100/3/17
f 104/3/20 101/2/19 103/3/20
f 101/2/19 104/3/20 102/2/19
f 104/3/20 106/4/21 105/4/21
f 106/4/21 104/3/20 103/3/20
f 109/3/20 108/4/21 107/4/21
f 108/4/21 109/3/20 110/3/20
f 109/3/20 111/2/19 110/3/20
f 111/2/19 109/3/20 112/2/19
f 112/2/19 113/3/17 111/2/19
f 113/3/17 112/2/19 114/3/17
f 113/3/17 116/4/18 115/4/18
f 116/4/18 113/3/17 114/3/17
f 119/1/39 118/1/40 117/1/39
f 118/1/40 119/1/39 120/1/40
f 121/5/25 105/4/21 106/4/21
f 121/5/25 122/15/41 105/4/21
f 122/15/41 121/5/25 123/15/41
f 124/5/25 123/15/41 121/5/25
f 123/15/41 124/5/25 108/4/21
f 108/4/21 124/5/25 107/4/21
f 120/1/40 123/15/41 118/1/40
f 123/15/41 120/1/40 122/15/41
f 125/5/22 115/4/18 116/4/18
f 125/5/22 126/15/42 115/4/18
f 126/15/42 125/5/22 127/15/42
f 128/5/22 127/15/42 125/5/22
f 127/15/42 128/5/22 98/4/18
f 98/4/18 128/5/22 97/4/18
f 127/15/42 117/1/39 126/15/42
f 117/1/39 127/15/42 119/1/39
f 110/3/23 123/15/23 108/4/23
f 123/15/23 110/3/23 118/1/23
f 118/1/23 110/3/23 117/1/23
f 117/1/23 110/3/23 111/2/23
f 117/1/23 111/2/23 113/3/23
f 117/1/23 113/3/23 115/4/23
f 117/1/23 115/4/23 126/15/23
f 120/1/24 105/4/24 122/15/24
f 105/4/24 120/1/24 104/3/24
f 104/3/24 120/1/24 119/1/24
f 104/3/24 119/1/24 102/2/24
f 102/2/24 119/1/24 100/3/24
f 100/3/24 119/1/24 98/4/24
f 98/4/24 119/1/24 127/15/24
f 103/6/23 121/7/23 106/8/23
f 121/7/23 103/6/23 128/7/23
f 128/7/23 103/6/23 101/9/23
f 128/7/23 101/9/23 99/6/23
f 128/7/23 99/6/23 97/8/23
f 125/7/24 107/8/24 124/7/24
f 107/8/24 125/7/24 109/6/24
f 109/6/24 125/7/24 112/9/24
f 112/9/24 125/7/24 114/6/24
f 114/6/24 125/7/24 116/8/24
f 121/7/19 125/7/19 124/7/19
f 125/7/19 121/7/19 128/7/19
f 131/9/19 130/9/19 129/9/19
f 130/9/19 131/9/19 132/9/19
f 132/9/19 131/9/19 133/9/19
f 132/9/19 133/9/19 134/9/19
f 134/9/19 133/9/19 135/9/19
f 134/9/19 135/9/19 136/9/19
f 137/12/33 135/9/31 133/9/33
f 135/9/31 137/12/33 138/12/31
f 140/12/34 136/9/32 139/12/32
f 136/9/32 140/12/34 134/9/34
f 132/9/22 142/12/22 141/12/22
f 142/12/22 132/9/22 143/12/22
f 143/12/22 132/9/22 140/12/22
f 140/12/22 132/9/22 134/9/22
f 141/12/28 145/12/28 144/12/28
f 145/12/28 141/12/28 146/12/28
f 146/12/28 141/12/28 142/12/28
f 146/12/28 142/12/28 147/12/28
f 130/9/37 145/12/36 129/9/36
f 145/12/36 130/9/37 144/12/37
f 140/12/28 148/12/28 143/12/28
f 148/12/28 140/12/28 137/12/28
f 137/12/28 140/12/28 139/12/28
f 137/12/28 139/12/28 138/12/28
f 131/9/35 145/12/36 146/12/35
f 145/12/36 131/9/35 129/9/36
f 138/12/31 136/9/32 135/9/31
f 136/9/32 138/12/31 139/12/32
f 130/9/37 141/12/38 144/12/37
f 141/12/38 130/9/37 132/9/38
f 133/9/25 148/12/25 137/12/25
f 148/12/25 133/9/25 147/12/25
f 147/12/25 133/9/25 146/12/25
f 146/12/25 133/9/25 131/9/25
f 142/10/23 149/1/23 147/10/23
f 149/1/23 142/10/23 150/1/23
f 150/1/23 142/10/23 151/1/23
f 151/1/23 142/10/23 152/1/23
f 152/1/23 142/10/23 153/1/23
f 154/1/24 143/10/24 148/10/24
f 143/10/24 154/1/24 155/1/24
f 143/10/24 155/1/24 156/1/24
f 143/10/24 156/1/24 157/1/24
f 143/10/24 157/1/24 158/1/24
f 153/4/30 157/11/29 152/11/29
f 157/11/29 153/4/30 158/4/30
f 160/1/28 150/11/27 159/1/28
f 150/11/27 160/1/28 155/11/27
f 142/2/22 158/4/30 153/4/30
f 158/4/30 142/2/22 143/2/22
f 157/11/29 159/1/28 152/11/29
f 159/1/28 157/11/29 160/1/28
f 154/4/26 150/11/27 155/11/27
f 150/11/27 154/4/26 149/4/26
f 148/2/25 149/4/26 154/4/26
f 149/4/26 148/2/25 147/2/25
f 163/13/38 162/14/23 161/13/23
f 162/14/23 163/13/38 164/14/38
f 163/13/38 165/14/22 164/14/38
f 165/14/22 163/13/38 166/13/22
f 166/13/22 167/14/34 165/14/22
f 167/14/34 166/13/22 168/13/34
f 167/14/34 170/13/24 169/14/24
f 170/13/24 167/14/34 168/13/34
f 169/14/24 172/13/33 171/14/33
f 172/13/33 169/14/24 170/13/24
f 172/13/33 173/14/25 171/14/33
f 173/14/25 172/13/33 174/13/25
f 174/13/25 175/14/35 173/14/25
f 175/14/35 174/13/25 176/13/35
f 161/13/23 175/14/35 176/13/35
f 175/14/35 161/13/23 162/14/23
f 179/3/17 178/4/18 177/4/18
f 178/4/18 179/3/17 180/3/17
f 182/2/19 179/3/17 181/2/19
f 179/3/17 182/2/19 180/3/17
f 184/3/20 181/2/19 183/3/20
f 181/2/19 184/3/20 182/2/19
f 184/3/20 186/4/21 185/4/21
f 186/4/21 184/3/20 183/3/20
f 189/3/20 188/4/21 187/4/21
f 188/4/21 189/3/20 190/3/20
f 189/3/20 191/2/19 190/3/20
f 191/2/19 189/3/20 192/2/19
f 192/2/19 193/3/17 191/2/19
f 193/3/17 192/2/19 194/3/17
f 193/3/17 196/4/18 195/4/18
f 196/4/18 193/3/17 194/3/17
f 199/1/39 198/1/40 197/1/39
f 198/1/40 199/1/39 200/1/40
f 201/5/25 185/4/21 186/4/21
f 201/5/25 202/15/41 185/4/21
f 202/15/41 201/5/25 203/15/41
f 204/5/25 203/15/41 201/5/25
f 203/15/41 204/5/25 188/4/21
f 188/4/21 204/5/25 187/4/21
f 202/15/41 198/1/40 200/1/40
f 198/1/40 202/15/41 203/15/41
f 205/5/22 195/4/18 196/4/18
f 205/5/22 206/15/42 195/4/18
f 206/15/42 205/5/22 207/15/42
f 208/5/22 207/15/42 205/5/22
f 207/15/42 208/5/22 178/4/18
f 178/4/18 208/5/22 177/4/18
f 206/15/42 199/1/39 197/1/39
f 199/1/39 206/15/42 207/15/42
f 200/1/24 185/4/24 202/15/24
f 185/4/24 200/1/24 184/3/24
f 184/3/24 200/1/24 199/1/24
f 184/3/24 199/1/24 182/2/24
f 182/2/24 199/1/24 180/3/24
f 180/3/24 199/1/24 178/4/24
f 178/4/24 199/1/24 207/15/24
f 190/3/23 203/15/23 188/4/23
f 203/15/23 190/3/23 198/1/23
f 198/1/23 190/3/23 197/1/23
f 197/1/23 190/3/23 191/2/23
f 197/1/23 191/2/23 193/3/23
f 197/1/23 193/3/23 195/4/23
f 197/1/23 195/4/23 206/15/23
f 183/6/23 201/7/23 186/8/23
f 201/7/23 183/6/23 208/7/23
f 208/7/23 183/6/23 181/9/23
f 208/7/23 181/9/23 179/6/23
f 208/7/23 179/6/23 177/8/23
f 205/7/24 187/8/24 204/7/24
f 187/8/24 205/7/24 189/6/24
f 189/6/24 205/7/24 192/9/24
f 192/9/24 205/7/24 194/6/24
f 194/6/24 205/7/24 196/8/24
f 201/7/19 205/7/19 204/7/19
f 205/7/19 201/7/19 208/7/19
f 211/1/28 210/11/27 209/1/28
f 210/11/27 211/1/28 212/11/27
f 215/2/25 214/4/26 213/4/26
f 214/4/26 215/2/25 216/2/25
f 218/11/29 209/1/28 217/11/29
f 209/1/28 218/11/29 211/1/28
f 219/4/30 218/11/29 217/11/29
f 218/11/29 219/4/30 220/4/30
f 221/2/22 220/4/30 219/4/30
f 220/4/30 221/2/22 222/2/22
f 213/4/26 210/11/27 212/11/27
f 210/11/27 213/4/26 214/4/26
f 221/2/23 214/4/23 216/2/23
f 214/4/23 221/2/23 210/11/23
f 210/11/23 221/2/23 209/1/23
f 209/1/23 221/2/23 217/11/23
f 217/11/23 221/2/23 219/4/23
f 213/4/24 222/2/24 215/2/24
f 222/2/24 213/4/24 212/11/24
f 222/2/24 212/11/24 211/1/24
f 222/2/24 211/1/24 218/11/24
f 222/2/24 218/11/24 220/4/24
f 225/9/25 224/16/25 223/16/25
f 224/16/25 225/9/25 226/16/25
f 226/16/25 225/9/25 227/16/25
f 227/16/25 225/9/25 228/9/25
f 231/9/22 230/16/22 229/16/22
f 230/16/22 231/9/22 232/16/22
f 232/16/22 231/9/22 233/16/22
f 233/16/22 231/9/22 234/9/22
f 235/16/33 225/9/33 223/16/33
f 225/9/33 235/16/33 236/9/33
f 228/9/35 237/16/35 227/16/35
f 237/16/35 228/9/35 238/9/35
f 240/9/38 229/16/38 239/16/38
f 229/16/38 240/9/38 231/9/38
f 233/16/34 242/9/34 241/16/34
f 242/9/34 233/16/34 234/9/34
f 229/16/28 237/16/28 239/16/28
f 237/16/28 229/16/28 227/16/28
f 227/16/28 229/16/28 230/16/28
f 227/16/28 230/16/28 226/16/28
f 226/16/28 230/16/28 232/16/28
f 226/16/28 232/16/28 224/16/28
f 224/16/28 232/16/28 233/16/28
f 224/16/28 233/16/28 223/16/28
f 223/16/28 233/16/28 241/16/28
f 223/16/28 241/16/28 235/16/28
f 245/8/19 244/8/19 243/8/19
f 244/8/19 245/8/19 246/8/19
f 228/9/19 247/9/19 238/9/19
f 247/9/19 228/9/19 248/9/19
f 248/9/19 228/9/19 225/9/19
f 248/9/19 225/9/19 236/9/19
f 250/9/19 240/9/19 249/9/19
f 240/9/19 250/9/19 231/9/19
f 231/9/19 250/9/19 234/9/19
f 234/9/19 250/9/19 242/9/19
f 250/9/25 244/8/25 246/8/25
f 244/8/25 250/9/25 249/9/25
f 240/9/23 244/8/23 249/9/23
f 239/16/23 244/8/23 240/9/23
f 239/16/23 243/8/23 244/8/23
f 237/16/23 243/8/23 239/16/23
f 237/16/23 247/9/23 243/8/23
f 247/9/23 237/16/23 238/9/23
f 247/9/22 245/8/22 243/8/22
f 245/8/22 247/9/22 248/9/22
f 235/16/24 248/9/24 236/9/24
f 248/9/24 235/16/24 245/8/24
f 245/8/24 235/16/24 241/16/24
f 245/8/24 241/16/24 246/8/24
f 246/8/24 241/16/24 242/9/24
f 242/9/24 250/9/24 246/8/24
f 253/9/19 252/9/43 251/9/43
f 252/9/43 253/9/19 254/9/19
f 252/9/43 255/17/44 251/9/43
f 255/17/44 252/9/43 256/17/44
f 259/16/28 258/16/28 257/16/28
f 258/16/28 259/16/28 260/16/28
f 255/17/44 259/16/45 257/16/46
f 259/16/45 255/17/44 256/17/44
f 262/18/24 253/9/24 261/18/24
f 253/9/24 262/18/24 254/9/24
f 264/19/28 261/19/28 263/19/28
f 261/19/28 264/19/28 262/19/28
f 253/2/25 263/19/25 261/19/25
f 251/2/25 263/19/25 253/2/25
f 251/2/25 265/20/25 263/19/25
f 255/21/25 265/20/25 251/2/25
f 257/1/25 265/20/25 255/21/25
f 265/20/25 257/1/25 258/1/25
f 256/21/22 260/1/22 259/1/22
f 260/1/22 256/21/22 266/20/22
f 266/20/22 256/21/22 252/2/22
f 266/20/22 252/2/22 264/19/22
f 264/19/22 252/2/22 262/19/22
f 262/19/22 252/2/22 254/2/22
f 260/1/47 265/20/47 258/1/47
f 265/20/47 260/1/47 266/20/47
f 265/20/48 264/19/48 263/19/48
f 264/19/48 265/20/48 266/20/48
f 269/16/28 268/16/28 267/16/28
f 268/16/28 269/16/28 270/16/28
f 271/9/49 254/9/19 253/9/19
f 254/9/19 271/9/49 272/9/49
f 274/17/50 271/9/49 273/17/50
f 271/9/49 274/17/50 272/9/49
f 270/16/51 274/17/50 273/17/50
f 274/17/50 270/16/51 269/16/51
f 254/9/23 261/18/23 253/9/23
f 261/18/23 254/9/23 262/18/23
f 254/2/22 275/19/22 262/19/22
f 272/2/22 275/19/22 254/2/22
f 272/2/22 276/20/22 275/19/22
f 274/21/22 276/20/22 272/2/22
f 269/1/22 276/20/22 274/21/22
f 276/20/22 269/1/22 267/1/22
f 273/21/25 268/1/25 270/1/25
f 268/1/25 273/21/25 277/20/25
f 277/20/25 273/21/25 271/2/25
f 277/20/25 271/2/25 278/19/25
f 278/19/25 271/2/25 261/19/25
f 261/19/25 271/2/25 253/2/25
f 276/20/52 268/1/52 277/20/52
f 268/1/52 276/20/52 267/1/52
f 275/19/53 277/20/53 278/19/53
f 277/20/53 275/19/53 276/20/53
f 275/19/28 261/19/28 262/19/28
f 261/19/28 275/19/28 278/19/28
