# Blender 4.3.2
# www.blender.org
mtllib cross-wood.mtl
o cross-wood.002
v -0.215000 -0.215000 0.000000
v 0.215000 -0.215000 0.000000
v -0.215000 -0.215000 -0.050000
v 0.215000 -0.215000 -0.050000
v 0.215000 0.215000 -0.050000
v 0.215000 0.215000 0.000000
v -0.215000 0.215000 0.000000
v -0.215000 0.215000 -0.050000
v -0.172025 -0.172025 -0.050000
v -0.172025 -0.172025 -0.310000
v -0.172025 0.172025 -0.050000
v -0.172025 0.172025 -0.310000
v 0.172025 0.172025 -0.050000
v 0.172025 0.172025 -0.310000
v 0.172025 -0.172025 -0.310000
v 0.172025 -0.172025 -0.050000
v 0.215000 0.215000 -0.335000
v -0.215000 0.215000 -0.335000
v -0.215000 -0.215000 -0.335000
v -0.215000 -0.215000 -0.410000
v -0.215000 0.215000 -0.410000
v 0.215000 -0.215000 -0.335000
v 0.215000 -0.215000 -0.410000
v 0.215000 0.215000 -0.410000
v -0.140797 -0.140797 -0.410000
v -0.140797 -0.140797 -0.380000
v -0.140797 0.140797 -0.410000
v -0.140797 0.140797 -0.380000
v 0.140797 0.140797 -0.380000
v 0.140797 0.140797 -0.410000
v 0.140797 -0.140797 -0.380000
v 0.140797 -0.140797 -0.410000
v 0.038400 -0.028400 -1.064800
v -0.038400 -0.028400 -1.064800
v 0.038400 -0.028400 -0.958000
v -0.038400 -0.028400 -0.958000
v 0.145200 -0.028400 -0.958000
v -0.145200 -0.028400 -0.958000
v 0.145200 -0.028400 -0.881200
v 0.038400 -0.028400 -0.881200
v -0.038400 -0.028400 -0.881200
v -0.145200 -0.028400 -0.881200
v 0.038400 -0.028400 -0.380000
v -0.038400 -0.028400 -0.380000
v -0.038400 0.028400 -0.881200
v -0.145200 0.028400 -0.881200
v 0.038400 0.028400 -1.064800
v -0.038400 0.028400 -1.064800
v 0.145200 0.028400 -0.881200
v 0.038400 0.028400 -0.881200
v 0.038400 0.028400 -0.380000
v 0.145200 0.028400 -0.958000
v 0.038400 0.028400 -0.958000
v -0.038400 0.028400 -0.958000
v -0.145200 0.028400 -0.958000
v -0.038400 0.028400 -0.380000
vn -0.5773 -0.5773 -0.5774
vn 0.5773 -0.5773 0.5774
vn -0.5774 -0.5774 0.5774
vn 0.5773 -0.5773 -0.5774
vn 0.5773 0.5773 -0.5774
vn 0.5774 0.5774 0.5774
vn -0.5773 0.5773 0.5774
vn -0.5773 0.5773 -0.5774
vn -0.3015 0.3015 -0.9045
vn -0.4934 -0.4934 0.7163
vn -0.3015 -0.3015 -0.9045
vn 0.4934 0.4934 0.7163
vn 0.3015 0.3015 -0.9045
vn -0.4934 0.4934 0.7163
vn 0.3015 -0.3015 -0.9045
vn 0.4934 -0.4934 0.7163
vn -0.6264 0.6264 0.4640
vn 0.6264 0.6264 0.4640
vn -0.5774 -0.5774 -0.5773
vn -0.6264 -0.6264 0.4640
vn 0.6264 -0.6264 0.4640
vn 0.5774 0.5774 -0.5773
vn 0.5773 -0.5774 -0.5773
vn -0.5773 -0.5774 -0.5774
vn 0.5774 -0.5774 -0.5774
vn -0.5774 -0.5774 -0.5774
vn -0.0000 -1.0000 -0.0000
vn 0.5774 -0.5773 0.5773
vn -0.5774 -0.5773 -0.5773
vn 0.3015 -0.9045 0.3015
vn -0.3015 -0.9045 0.3015
vn -0.5774 0.5773 0.5773
vn 0.5773 0.5774 -0.5774
vn -0.5773 0.5774 -0.5773
vn 0.5774 0.5773 -0.5773
vn -0.0000 1.0000 -0.0000
vn 0.3015 0.9045 0.3015
vn -0.3015 0.9045 0.3015
vn -0.5774 0.5774 -0.5774
vn 0.5774 0.5774 -0.5774
vt 0.843750 0.034391
vt 0.843750 0.025000
vt 0.843750 0.083227
vt 0.843750 0.087923
vt 0.843750 0.102010
vt 0.843750 0.096375
vt 0.093750 0.454940
vt 0.093750 0.475000
vt 0.093750 0.440515
vt 0.093750 0.346375
vt 0.093750 0.096375
s 1
usemtl colormap.017
f 3/1/1 2/2/2 1/2/3
f 2/2/2 3/1/1 4/1/4
f 5/1/5 2/2/2 4/1/4
f 2/2/2 5/1/5 6/2/6
f 7/2/7 3/1/1 1/2/3
f 3/1/1 7/2/7 8/1/8
f 5/1/5 7/2/7 6/2/6
f 7/2/7 5/1/5 8/1/8
f 11/1/9 10/3/10 9/1/11
f 14/3/12 11/1/9 13/1/13
f 11/1/9 14/3/12 12/3/14
f 14/3/12 16/1/15 15/3/16
f 16/1/15 14/3/12 13/1/13
f 18/4/17 14/3/12 17/4/18
f 14/3/12 18/4/17 12/3/14
f 18/4/17 20/5/19 19/4/20
f 20/5/19 18/4/17 21/5/8
f 15/3/16 19/4/20 22/4/21
f 19/4/20 15/3/16 10/3/10
f 20/5/19 22/4/21 19/4/20
f 22/4/21 20/5/19 23/5/4
f 24/5/5 18/4/17 17/4/18
f 18/4/17 24/5/5 21/5/8
f 24/5/5 22/4/21 23/5/4
f 22/4/21 24/5/5 17/4/18
f 18/4/17 10/3/10 12/3/14
f 14/3/12 22/4/21 17/4/18
f 22/4/21 14/3/12 15/3/16
f 7/2/7 2/2/2 6/2/6
f 2/2/2 7/2/7 1/2/3
f 26/6/22 27/5/15 28/6/4
f 29/6/19 32/5/9 31/6/8
f 32/5/9 29/6/19 30/5/11
f 32/5/9 26/6/22 31/6/8
f 26/6/22 32/5/9 25/5/13
f 5/1/5 13/1/13 8/1/8
f 32/5/9 20/5/19 25/5/13
f 25/5/13 20/5/19 27/5/15
f 32/5/9 23/5/4 20/5/19
f 23/5/4 32/5/9 24/5/5
f 21/5/8 30/5/11 27/5/15
f 24/5/5 30/5/11 21/5/8
f 30/5/11 24/5/5 32/5/9
f 35/7/23 34/8/24 33/8/25
f 34/8/24 35/7/23 36/7/26
s 0
f 37/7/27 36/7/27 35/7/27
f 37/7/27 38/7/27 36/7/27
s 1
f 39/9/28 38/7/29 37/7/25
f 40/9/30 38/7/29 39/9/28
f 41/9/31 38/7/29 40/9/30
f 41/9/31 43/10/15 44/10/11
f 41/9/31 46/9/32 42/9/3
f 34/8/24 47/8/33 33/8/25
f 38/7/29 54/7/34 36/7/26
f 54/7/34 34/8/24 36/7/26
f 39/9/28 52/7/35 49/9/6
s 0
f 55/7/36 52/7/36 53/7/36
s 1
f 52/7/35 50/9/37 49/9/6
f 56/10/9 41/9/31 44/10/11
f 41/9/31 56/10/9 45/9/38
f 28/11/4 56/11/9 26/11/22
f 29/11/19 51/11/13 28/11/4
f 10/3/10 11/1/9 12/3/14
f 10/3/10 18/4/17 19/4/20
f 10/3/10 16/1/15 9/1/11
f 16/1/15 10/3/10 15/3/16
f 27/5/15 26/6/22 25/5/13
f 27/5/15 29/6/19 28/6/4
f 29/6/19 27/5/15 30/5/11
f 16/1/15 3/1/1 9/1/11
f 9/1/11 3/1/1 11/1/9
f 16/1/15 4/1/4 3/1/1
f 8/1/8 11/1/9 3/1/1
f 4/1/4 16/1/15 5/1/5
f 8/1/8 13/1/13 11/1/9
f 13/1/13 5/1/5 16/1/15
f 21/5/8 27/5/15 20/5/19
f 38/7/29 41/9/31 42/9/3
f 43/10/15 41/9/31 40/9/30
f 46/9/32 41/9/31 45/9/38
f 47/8/33 34/8/24 48/8/39
f 50/9/37 39/9/28 49/9/6
f 39/9/28 50/9/37 40/9/30
f 50/9/37 43/10/15 40/9/30
f 43/10/15 50/9/37 51/10/13
f 35/7/23 52/7/35 37/7/25
f 52/7/35 35/7/23 53/7/40
f 54/7/34 38/7/29 55/7/39
f 34/8/24 54/7/34 48/8/39
f 52/7/35 39/9/28 37/7/25
f 54/7/34 47/8/33 48/8/39
f 47/8/33 54/7/34 53/7/40
s 0
f 55/7/36 53/7/36 54/7/36
s 1
f 46/9/32 52/7/35 55/7/39
f 45/9/38 52/7/35 46/9/32
f 50/9/37 52/7/35 45/9/38
f 56/10/9 50/9/37 45/9/38
f 50/9/37 56/10/9 51/10/13
f 47/8/33 35/7/23 33/8/25
f 35/7/23 47/8/33 53/7/40
f 46/9/32 38/7/29 42/9/3
f 38/7/29 46/9/32 55/7/39
f 43/11/15 26/11/22 44/11/11
f 44/11/11 26/11/22 56/11/9
f 43/11/15 31/11/8 26/11/22
f 31/11/8 43/11/15 29/11/19
f 28/11/4 51/11/13 56/11/9
f 51/11/13 29/11/19 43/11/15
