# Blender 4.3.2
# www.blender.org
mtllib structure-doorway-wide.mtl
o structure-doorway-wide.001
v -0.900000 0.300000 -1.600000
v -0.900000 0.300000 -0.000000
v -0.900000 1.500000 -1.600000
v -0.900000 1.500000 -0.000000
v 1.000000 0.300000 -1.600000
v 1.000000 0.300000 -0.000000
v 1.000000 0.600000 -1.600000
v 1.000000 1.500000 -0.000000
v 1.000000 1.500000 -1.600000
v 0.900000 0.300000 -0.000000
v 0.900000 0.300000 -1.600000
v 0.900000 1.500000 -0.000000
v 0.900000 1.500000 -1.600000
v 0.900000 0.300000 -1.700000
v 0.900000 0.600000 -1.700000
v 0.900000 1.500000 -1.700000
v -1.000000 0.300000 -0.000000
v -1.000000 0.300000 -1.600000
v -1.000000 1.500000 -0.000000
v -1.000000 0.600000 -1.600000
v -1.000000 1.500000 -1.600000
v 1.000000 0.500000 -3.000000
v 1.000000 1.500000 -3.000000
v -1.000000 0.500000 -3.000000
v -1.000000 1.500000 -3.000000
v -1.000000 0.600000 -2.700000
v 1.000000 0.600000 -2.700000
v -1.000000 0.600000 -2.800000
v 1.000000 0.600000 -2.800000
v -0.900000 0.300000 -1.700000
v -0.900000 0.600000 -1.700000
v -0.900000 1.500000 -1.700000
v 1.000000 0.500000 -2.800000
v -1.000000 0.500000 -2.800000
v -0.900000 0.600000 -1.700000
v -1.000000 0.600000 -2.700000
v 0.900000 0.600000 -1.700000
v 1.000000 0.600000 -2.700000
v 1.000000 -0.500000 -0.000000
v 1.000000 1.500000 -0.000000
v -1.000000 -0.500000 -0.000000
v -1.000000 1.500000 -0.000000
vn 0.3015 0.9045 0.3015
vn 0.7071 -0.7071 -0.0000
vn 0.3015 -0.9045 0.3015
vn 0.7071 0.7071 -0.0000
vn 0.9239 -0.0000 -0.3827
vn 0.7173 -0.6303 -0.2971
vn 0.7173 0.6303 -0.2971
vn -0.7071 0.7071 -0.0000
vn -0.5774 -0.5773 0.5773
vn -0.7071 -0.7071 -0.0000
vn -0.5774 0.5774 0.5774
vn 0.3827 -0.0000 -0.9239
vn 0.2971 -0.6303 -0.7173
vn 0.2971 0.6303 -0.7173
vn -0.9239 -0.0000 -0.3827
vn -0.7173 0.6303 -0.2971
vn -0.0000 -0.7071 -0.7071
vn -0.0000 -0.0000 -1.0000
vn -0.0000 -1.0000 -0.0000
vn -0.0000 -0.7071 0.7071
vn -0.7173 -0.6303 -0.2971
vn -0.2971 -0.6303 -0.7173
vn -0.3827 -0.0000 -0.9239
vn -0.0000 1.0000 -0.0000
vn -0.2971 0.6303 -0.7173
vt 0.218750 0.131667
vt 0.218750 0.025000
vt 0.218750 0.138333
vt 0.218750 0.225000
vt 0.218750 0.205000
vt 0.218750 0.211667
vt 0.343750 0.225000
vt 0.343750 0.043182
vt 0.343750 0.025000
vt 0.281250 0.125000
s 1
usemtl colormap.012
f 3/1/1 2/2/2 1/1/3
f 2/2/2 3/1/1 4/2/4
f 7/1/5 6/2/2 5/1/6
f 8/2/4 7/1/5 9/1/7
f 12/2/8 11/1/9 10/2/10
f 11/1/9 12/2/8 13/1/11
f 15/3/12 5/1/6 14/3/13
f 9/1/7 15/3/12 16/3/14
f 20/1/15 19/2/8 21/1/16
f 24/4/17 23/4/18 22/4/17
f 27/5/19 28/6/20 29/6/20
f 18/1/21 2/2/2 17/2/10
f 2/2/2 18/1/21 1/1/3
f 1/1/3 18/1/21 30/3/22
f 14/3/13 1/1/3 30/3/22
f 5/1/6 1/1/3 14/3/13
f 5/1/6 10/2/10 11/1/9
f 10/2/10 5/1/6 6/2/2
f 21/1/16 31/3/23 20/1/15
f 28/6/20 33/6/20 29/6/20
f 33/6/20 28/6/20 34/6/20
f 12/2/8 9/1/7 13/1/11
s 0
f 13/1/24 9/1/24 3/1/24
s 1
f 32/3/25 3/1/1 16/3/14
f 21/1/16 3/1/1 32/3/25
f 21/1/16 4/2/4 3/1/1
f 36/7/19 35/8/19 20/9/19
f 35/8/19 36/7/19 37/8/19
f 38/7/19 37/8/19 36/7/19
f 41/10/18 40/10/18 39/10/18
f 40/10/18 41/10/18 42/10/18
f 6/2/2 7/1/5 8/2/4
f 5/1/6 15/3/12 7/1/5
f 15/3/12 9/1/7 7/1/5
f 3/1/1 11/1/9 13/1/11
f 11/1/9 3/1/1 1/1/3
f 19/2/8 18/1/21 17/2/10
f 18/1/21 19/2/8 20/1/15
f 23/4/18 24/4/17 25/4/18
f 28/6/20 27/5/19 26/5/19
s 0
f 5/1/19 11/1/19 1/1/19
s 1
f 20/1/15 30/3/22 18/1/21
f 30/3/22 20/1/15 31/3/23
f 31/3/23 21/1/16 32/3/25
f 30/3/22 15/3/12 14/3/13
f 15/3/12 30/3/22 31/3/23
f 32/3/25 15/3/12 31/3/23
f 15/3/12 32/3/25 16/3/14
f 24/4/17 33/6/20 34/6/20
f 33/6/20 24/4/17 22/4/17
f 9/1/7 12/2/8 8/2/4
f 3/1/1 9/1/7 16/3/14
f 4/2/4 21/1/16 19/2/8
f 37/8/19 38/7/19 7/9/19
