# Blender 4.3.2
# www.blender.org
mtllib shopping-basket.mtl
o shopping-basket
v 0.150000 0.025000 -0.100000
v 0.175000 0.025000 -0.125000
v 0.150000 -0.025000 -0.100000
v 0.175000 -0.025000 -0.125000
v 0.175000 0.025000 -0.225000
v 0.175000 -0.025000 -0.225000
v 0.150000 -0.025000 -0.250000
v 0.150000 0.025000 -0.250000
v -0.150000 -0.025000 -0.100000
v -0.125000 -0.025000 -0.100000
v -0.175000 -0.025000 -0.125000
v -0.125000 -0.025000 -0.200000
v -0.175000 -0.025000 -0.225000
v -0.150000 -0.025000 -0.250000
v 0.125000 -0.025000 -0.200000
v 0.125000 -0.025000 -0.100000
v -0.150000 0.025000 -0.100000
v -0.175000 0.025000 -0.125000
v -0.175000 0.025000 -0.225000
v -0.150000 0.025000 -0.250000
v 0.125000 0.025000 -0.200000
v -0.125000 0.025000 -0.200000
v 0.125000 0.025000 -0.100000
v -0.125000 0.025000 -0.100000
v 0.150000 -0.125000 -0.050000
v 0.150000 -0.100000 -0.050000
v 0.150000 -0.125000 -0.100000
v 0.150000 -0.100000 -0.100000
v 0.100000 -0.175000 -0.050000
v 0.100000 -0.175000 -0.100000
v 0.075000 -0.175000 -0.050000
v 0.075000 -0.175000 -0.100000
v 0.075000 -0.125000 -0.050000
v 0.075000 -0.125000 -0.100000
v 0.090054 -0.125000 -0.100000
v 0.090054 -0.125000 -0.050000
v 0.100000 -0.100000 -0.100000
v 0.100000 -0.100000 -0.050000
v 0.100000 -0.115054 -0.050000
v 0.100000 -0.115054 -0.100000
v 0.135355 -0.160355 -0.050000
v 0.135355 -0.160355 -0.100000
v -0.100000 -0.175000 -0.050000
v -0.075000 -0.175000 -0.050000
v -0.100000 -0.175000 -0.100000
v -0.075000 -0.175000 -0.100000
v -0.150000 -0.125000 -0.050000
v -0.150000 -0.125000 -0.100000
v -0.150000 -0.100000 -0.050000
v -0.150000 -0.100000 -0.100000
v -0.100000 -0.100000 -0.050000
v -0.100000 -0.100000 -0.100000
v -0.100000 -0.115054 -0.100000
v -0.100000 -0.115054 -0.050000
v -0.075000 -0.125000 -0.100000
v -0.075000 -0.125000 -0.050000
v -0.090054 -0.125000 -0.050000
v -0.090054 -0.125000 -0.100000
v -0.135355 -0.160355 -0.050000
v -0.135355 -0.160355 -0.100000
v 0.100000 0.175000 -0.050000
v 0.075000 0.175000 -0.050000
v 0.100000 0.175000 -0.100000
v 0.075000 0.175000 -0.100000
v 0.150000 0.125000 -0.050000
v 0.150000 0.125000 -0.100000
v 0.150000 0.100000 -0.050000
v 0.150000 0.100000 -0.100000
v 0.100000 0.100000 -0.050000
v 0.100000 0.100000 -0.100000
v 0.100000 0.115054 -0.100000
v 0.100000 0.115054 -0.050000
v 0.075000 0.125000 -0.100000
v 0.075000 0.125000 -0.050000
v 0.090054 0.125000 -0.050000
v 0.090054 0.125000 -0.100000
v 0.135355 0.160355 -0.050000
v 0.135355 0.160355 -0.100000
v -0.150000 0.125000 -0.050000
v -0.150000 0.100000 -0.050000
v -0.150000 0.125000 -0.100000
v -0.150000 0.100000 -0.100000
v -0.100000 0.175000 -0.050000
v -0.100000 0.175000 -0.100000
v -0.075000 0.175000 -0.050000
v -0.075000 0.175000 -0.100000
v -0.075000 0.125000 -0.050000
v -0.075000 0.125000 -0.100000
v -0.090054 0.125000 -0.100000
v -0.090054 0.125000 -0.050000
v -0.100000 0.100000 -0.100000
v -0.100000 0.100000 -0.050000
v -0.100000 0.115054 -0.050000
v -0.100000 0.115054 -0.100000
v -0.135355 0.160355 -0.050000
v -0.135355 0.160355 -0.100000
v -0.150000 -0.125000 0.000000
v -0.150000 0.125000 0.000000
v -0.135355 -0.160355 0.000000
v -0.135355 0.160355 0.000000
v -0.100000 -0.175000 0.000000
v -0.100000 -0.115054 0.000000
v -0.100000 0.175000 0.000000
v -0.090054 -0.125000 0.000000
v 0.090054 -0.125000 0.000000
v 0.100000 -0.175000 0.000000
v 0.100000 -0.115054 0.000000
v -0.100000 0.115054 0.000000
v -0.090054 0.125000 0.000000
v 0.090054 0.125000 0.000000
v 0.135355 -0.160355 0.000000
v 0.100000 0.175000 0.000000
v 0.100000 0.115054 0.000000
v 0.135355 0.160355 0.000000
v 0.150000 -0.125000 0.000000
v 0.150000 0.125000 0.000000
v 0.150000 -0.125000 -0.050000
v 0.100000 0.175000 -0.050000
v 0.100000 0.115054 -0.050000
v 0.100000 -0.115054 -0.050000
v 0.100000 -0.175000 -0.050000
v -0.100000 0.175000 -0.050000
v -0.100000 -0.175000 -0.050000
v -0.100000 0.115054 -0.050000
v -0.100000 -0.115054 -0.050000
v -0.100000 -0.175000 -0.100000
v -0.100000 -0.115054 -0.100000
v -0.100000 0.175000 -0.100000
v 0.100000 -0.175000 -0.100000
v 0.100000 -0.115054 -0.100000
v -0.100000 0.115054 -0.100000
v 0.100000 0.175000 -0.100000
v 0.100000 0.115054 -0.100000
v 0.150000 -0.125000 -0.100000
v 0.150000 0.125000 -0.150000
v 0.135355 0.160355 -0.150000
v 0.150000 -0.125000 -0.150000
v 0.135355 -0.160355 -0.150000
v 0.100000 0.175000 -0.150000
v 0.100000 0.115054 -0.150000
v 0.100000 -0.115054 -0.150000
v 0.090054 0.125000 -0.150000
v 0.100000 -0.175000 -0.150000
v 0.090054 -0.125000 -0.150000
v -0.100000 0.175000 -0.150000
v -0.100000 -0.175000 -0.150000
v -0.090054 0.125000 -0.150000
v -0.100000 0.115054 -0.150000
v -0.090054 -0.125000 -0.150000
v -0.100000 -0.115054 -0.150000
v -0.135355 0.160355 -0.150000
v -0.135355 -0.160355 -0.150000
v -0.150000 0.125000 -0.150000
v -0.150000 -0.125000 -0.150000
vn 0.2971 -0.6303 0.7173
vn 0.5197 0.6600 0.5425
vn 0.2971 0.6303 0.7173
vn 0.8616 -0.3610 0.3569
vn 0.7501 0.6591 -0.0543
vn 0.8003 -0.4996 -0.3315
vn 0.2971 -0.6303 -0.7173
vn 0.2971 0.6303 -0.7173
vn -0.5315 -0.7057 0.4685
vn 0.5773 -0.5773 0.5774
vn -0.2971 -0.6303 0.7173
vn 0.3015 -0.9045 0.3015
vn -0.5482 -0.8134 -0.1947
vn -0.2971 -0.6303 -0.7173
vn -0.3015 -0.9045 0.3015
vn -0.5774 -0.5774 0.5774
vn -0.2971 0.6303 0.7173
vn -0.8432 0.4087 0.3493
vn -0.8481 0.3967 -0.3513
vn -0.2971 0.6303 -0.7173
vn 0.3015 0.9045 0.3015
vn -0.3015 0.9045 0.3015
vn -0.5773 0.5774 0.5773
vn 0.5774 0.5773 0.5773
vn 0.9517 -0.2273 -0.2064
vn 0.7071 0.7071 -0.0000
vn 0.9648 -0.1606 0.2084
vn -0.7071 -0.7071 -0.0000
vn 0.2273 -0.9517 -0.2064
vn 0.1606 -0.9648 0.2084
vn -0.7071 0.7071 -0.0000
vn -0.0500 0.9987 0.0006
vn -0.3624 0.8748 0.3214
vn -0.7861 0.5686 -0.2424
vn 0.6350 -0.6351 -0.4398
vn 0.6342 -0.6342 0.4423
vn -0.9581 0.1529 0.2421
vn 0.9987 0.0500 0.0006
vn 0.8749 0.3624 0.3214
vn -0.9648 -0.1606 0.2084
vn -0.6350 -0.6351 -0.4398
vn -0.6342 -0.6342 0.4423
vn -0.9517 -0.2272 -0.2064
vn -0.1606 -0.9648 0.2084
vn 0.1529 0.9581 0.2421
vn 0.2273 0.9517 -0.2064
vn 0.9517 0.2272 -0.2064
vn 0.7071 -0.7071 -0.0000
vn -0.9987 -0.0500 0.0006
vn -0.8749 -0.3624 0.3214
vn -0.5686 -0.7861 -0.2424
vn -0.1529 -0.9581 0.2421
vn 0.9648 0.1606 0.2084
vn 0.6350 0.6351 -0.4398
vn 0.6342 0.6342 0.4423
vn -0.9517 0.2273 -0.2064
vn -0.9648 0.1606 0.2084
vn -0.2273 0.9517 -0.2064
vn -0.1606 0.9648 0.2084
vn 0.0500 -0.9987 0.0006
vn 0.3624 -0.8748 0.3214
vn 0.7861 -0.5686 -0.2423
vn 0.9581 -0.1529 0.2421
vn -0.6351 0.6350 -0.4398
vn -0.6342 0.6342 0.4423
vn -0.0000 -0.0000 1.0000
vn -0.6048 0.3079 0.7345
vn -0.1604 -0.6604 0.7336
vn -0.1621 0.6512 0.7414
vn 0.1645 -0.6379 0.7523
vn 0.0303 0.7394 0.6726
vn 0.6196 -0.3317 0.7113
vn 0.3750 0.6540 0.6570
vn 0.6950 0.2852 -0.6601
vn 0.5860 -0.4153 -0.6958
vn 0.2524 0.6957 -0.6725
vn -0.5220 -0.0107 -0.8529
vn -0.4964 0.4745 -0.7269
vn -0.0568 -0.5286 -0.8470
vn 0.1271 -0.6388 -0.7588
vn -0.0246 0.5016 -0.8647
vn -0.0500 -0.7268 -0.6850
vn -0.1625 0.6494 -0.7429
vn 0.2433 -0.2645 -0.9332
vn 0.2215 0.3458 -0.9118
vn 0.5492 0.4257 -0.7191
vn -0.6401 0.4019 -0.6548
vn -0.6950 -0.2852 -0.6601
vn -0.6835 0.2828 -0.6729
vn -0.6710 -0.3121 -0.6726
vn 0.8190 -0.1629 -0.5502
vn 0.6858 -0.2775 0.6729
vn -0.6283 -0.6283 0.4587
vn -0.7708 -0.2967 0.5637
vn -0.7537 0.0077 0.6572
vn -0.1529 0.9581 -0.2421
vn -0.8749 0.3624 -0.3214
vn -0.9972 -0.0733 -0.0143
vn -0.6585 -0.7515 -0.0409
vn 0.3623 -0.8749 -0.3214
vn 0.9972 0.0733 -0.0143
vn 0.9575 -0.0998 -0.2707
vn 0.7485 -0.6589 -0.0741
vn 0.6585 0.7515 -0.0409
vn -0.0000 -0.0000 -1.0000
vn -0.6540 -0.3750 0.6570
vn -0.6858 0.2775 0.6729
vn -0.6673 -0.3204 0.6723
vn -0.1745 -0.6611 0.7297
vn -0.6813 0.3172 0.6597
vn 0.5050 0.4172 0.7556
vn -0.0514 0.6740 0.7369
vn -0.3751 0.3737 0.8483
vn 0.1276 -0.6416 0.7564
vn -0.4706 -0.4830 0.7384
vn 0.2215 -0.3458 0.9118
vn 0.4603 -0.3949 0.7951
vn -0.4051 0.1692 0.8985
vn -0.5714 -0.0230 0.8203
vn 0.7364 -0.0062 0.6765
vn 0.6540 0.3750 0.6570
vn 0.6419 0.2737 -0.7163
vn 0.6835 -0.2828 -0.6729
vn 0.5977 -0.4147 -0.6861
vn -0.5635 -0.0355 -0.8253
vn -0.2414 -0.3932 -0.8872
vn -0.0004 0.5787 -0.8155
vn -0.5901 0.3958 -0.7037
vn -0.6318 -0.2735 -0.7253
vn -0.7571 0.0295 -0.6527
vn -0.7398 0.0003 -0.6729
vn 0.6673 0.3204 0.6723
vn -0.5487 -0.4328 -0.7153
vn 0.7650 -0.6204 0.1728
vn -0.2273 -0.9517 -0.2064
vn 0.5686 0.7861 -0.2424
vn 0.1606 0.9648 0.2084
vn 0.6710 0.3121 -0.6726
vn 0.7394 -0.0315 -0.6726
vt 0.593750 0.025000
vt 0.593750 0.058333
vt 0.593750 0.191667
vt 0.593750 0.225000
vt 0.593750 0.158333
vt 0.156250 0.375000
vt 0.218750 0.325000
vt 0.218750 0.425000
vt 0.468750 0.075000
s 1
usemtl colormap.014
f 3/1/1 2/2/2 1/1/3
f 2/2/2 3/1/1 4/2/4
f 4/2/4 5/3/5 2/2/2
f 5/3/5 4/2/4 6/3/6
f 7/4/7 5/3/5 6/3/6
f 5/3/5 7/4/7 8/4/8
f 11/2/9 10/1/10 9/1/11
f 10/1/10 11/2/9 12/5/12
f 12/5/12 11/2/9 13/3/13
f 6/3/6 12/5/12 13/3/13
f 6/3/6 13/3/13 14/4/14
f 6/3/6 14/4/14 7/4/7
f 6/3/6 15/5/15 12/5/12
f 3/1/1 15/5/15 4/2/4
f 15/5/15 3/1/1 16/1/16
f 11/2/9 17/1/17 18/2/18
f 18/2/18 13/3/13 11/2/9
f 13/3/13 18/2/18 19/3/19
f 14/4/14 19/3/19 20/4/20
f 22/5/21 15/5/15 21/5/22
f 15/5/15 22/5/21 12/5/12
f 14/4/14 8/4/8 7/4/7
f 1/1/3 21/5/22 23/1/23
f 21/5/22 1/1/3 2/2/2
f 22/5/21 5/3/5 19/3/19
f 19/3/19 5/3/5 20/4/20
f 18/2/18 22/5/21 19/3/19
f 18/2/18 24/1/24 22/5/21
f 23/1/23 3/1/1 1/1/3
f 3/1/1 23/1/23 16/1/16
f 9/1/11 24/1/24 17/1/17
f 27/6/25 26/6/26 25/6/27
f 31/6/28 30/6/29 29/6/30
f 30/6/29 31/6/28 32/6/28
f 34/6/31 31/6/28 33/6/31
f 31/6/28 34/6/31 32/6/28
f 34/6/31 36/6/32 35/6/33
f 26/6/26 37/6/31 38/6/31
f 37/6/31 39/6/34 38/6/31
f 29/6/30 42/6/35 41/6/36
f 42/6/35 25/6/27 41/6/36
f 40/6/37 36/6/32 39/6/34
f 36/6/32 40/6/37 35/6/33
f 52/6/26 49/6/31 51/6/26
f 49/6/31 52/6/26 50/6/31
f 52/6/26 54/6/38 53/6/39
f 54/6/38 52/6/26 51/6/26
f 47/6/40 60/6/41 59/6/42
f 60/6/41 47/6/40 48/6/43
f 60/6/41 43/6/44 59/6/42
f 54/6/38 58/6/45 53/6/39
f 62/6/31 63/6/46 64/6/31
f 66/6/47 67/6/48 68/6/48
f 67/6/48 70/6/28 68/6/48
f 70/6/28 72/6/49 71/6/50
f 72/6/49 70/6/28 69/6/28
f 73/6/28 62/6/31 64/6/31
f 62/6/31 73/6/28 74/6/28
f 73/6/28 75/6/51 74/6/28
f 75/6/51 73/6/28 76/6/52
f 65/6/53 78/6/54 77/6/55
f 72/6/49 76/6/52 71/6/50
f 81/6/56 80/6/28 79/6/57
f 80/6/28 81/6/56 82/6/28
f 85/6/26 84/6/58 83/6/59
f 84/6/58 85/6/26 86/6/26
f 88/6/48 85/6/26 87/6/48
f 88/6/48 90/6/60 89/6/61
f 90/6/60 88/6/48 87/6/48
f 91/6/48 80/6/28 82/6/28
f 80/6/28 91/6/48 92/6/48
f 91/6/48 93/6/62 92/6/48
f 93/6/62 91/6/48 94/6/63
f 83/6/59 96/6/64 95/6/65
f 96/6/64 83/6/59 84/6/58
f 96/6/64 79/6/57 95/6/65
f 90/6/60 94/6/63 89/6/61
f 102/7/66 100/7/67 101/7/68
f 102/7/66 103/7/69 100/7/67
f 101/7/68 104/7/66 102/7/66
f 106/7/70 107/7/66 105/7/66
f 110/7/66 103/7/69 109/7/66
f 110/7/66 112/7/71 103/7/69
f 112/7/71 110/7/66 113/7/66
f 111/7/72 114/7/73 112/7/71
f 77/8/74 41/8/75 118/8/76
f 118/8/76 41/8/75 119/8/77
f 41/8/75 120/8/78 119/8/77
f 118/8/76 119/8/77 75/8/79
f 120/8/78 121/8/80 36/8/81
f 36/8/81 121/8/80 123/8/82
f 122/8/83 75/8/79 90/8/84
f 36/8/81 123/8/82 57/8/85
f 122/8/83 125/8/86 95/8/87
f 95/8/87 59/8/88 79/8/89
f 79/8/89 59/8/88 47/8/90
f 111/7/72 117/8/91 115/7/92
f 123/8/82 106/7/70 101/7/68
f 59/8/88 101/7/68 99/7/93
f 101/7/68 59/8/88 123/8/82
f 97/7/94 59/8/88 99/7/93
f 59/8/88 97/7/94 47/8/90
f 98/7/95 47/8/90 97/7/94
f 47/8/90 98/7/95 79/8/89
f 100/7/67 79/8/89 98/7/95
f 122/8/83 100/7/67 103/7/69
f 118/8/76 103/7/69 112/7/71
f 77/8/74 112/7/71 114/7/73
f 112/7/71 77/8/74 118/8/76
f 120/8/78 105/7/96 107/7/97
f 120/8/78 113/7/98 119/8/77
f 119/8/77 110/7/99 75/8/79
f 90/8/84 110/7/99 109/7/100
f 102/7/101 124/8/102 108/7/103
f 104/7/104 125/8/86 102/7/101
f 108/7/105 104/7/105 102/7/105
f 60/7/106 81/7/107 48/7/108
f 126/7/109 96/7/110 60/7/106
f 127/7/111 96/7/110 126/7/109
f 126/7/109 58/7/112 127/7/111
f 126/7/109 35/7/113 58/7/112
f 129/7/114 35/7/113 126/7/109
f 76/7/115 128/7/69 89/7/116
f 42/7/117 130/7/118 129/7/114
f 76/7/115 132/7/71 128/7/69
f 132/7/71 76/7/115 133/7/119
f 42/7/117 133/7/119 130/7/118
f 134/7/120 78/7/121 42/7/117
f 136/8/122 137/8/123 138/8/124
f 136/8/122 138/8/124 139/8/76
f 141/8/125 143/8/80 144/8/81
f 139/8/76 142/8/126 145/8/83
f 144/8/81 143/8/80 146/8/82
f 145/8/83 142/8/126 147/8/84
f 145/8/83 147/8/84 148/8/102
s 0
f 145/8/105 148/8/105 150/8/105
s 1
f 149/8/127 146/8/82 150/8/86
f 151/8/128 146/8/82 152/8/129
f 137/8/123 42/7/117 138/8/124
f 42/7/117 143/8/80 138/8/124
f 146/8/82 129/7/114 126/7/109
f 129/7/114 146/8/82 143/8/80
f 152/8/129 126/7/109 60/7/106
f 154/8/130 81/7/107 153/8/131
f 128/7/69 139/8/76 145/8/83
f 132/7/71 136/8/122 139/8/76
f 66/7/132 136/8/122 78/7/121
f 141/8/125 35/7/113 130/7/118
f 35/7/113 141/8/125 144/8/81
f 133/7/119 141/8/125 130/7/118
f 141/8/125 133/7/119 140/8/133
f 76/7/115 140/8/133 133/7/119
f 140/8/133 76/7/115 142/8/126
f 76/7/115 147/8/84 142/8/126
f 148/8/102 127/7/111 150/8/86
f 127/7/111 148/8/102 131/7/134
f 58/7/112 150/8/86 127/7/111
f 58/7/112 144/8/81 149/8/127
f 113/9/66 110/9/66 107/9/66
f 105/9/66 107/9/66 110/9/66
f 109/9/66 105/9/66 110/9/66
f 104/9/66 105/9/66 109/9/66
f 4/2/4 15/5/15 6/3/6
f 17/1/17 11/2/9 9/1/11
f 19/3/19 14/4/14 13/3/13
f 8/4/8 14/4/14 20/4/20
f 21/5/22 2/2/2 5/3/5
f 21/5/22 5/3/5 22/5/21
f 20/4/20 5/3/5 8/4/8
f 24/1/24 18/2/18 17/1/17
f 23/1/23 15/5/15 16/1/16
f 15/5/15 23/1/23 21/5/22
f 22/5/21 10/1/10 12/5/12
f 10/1/10 22/5/21 24/1/24
f 24/1/24 9/1/11 10/1/10
f 26/6/26 27/6/25 28/6/26
f 36/6/32 34/6/31 33/6/31
f 37/6/31 26/6/26 28/6/26
f 39/6/34 37/6/31 40/6/37
f 42/6/35 29/6/30 30/6/29
f 25/6/27 42/6/35 27/6/25
f 45/6/135 44/6/48 43/6/44
f 44/6/48 45/6/135 46/6/48
f 49/6/31 48/6/43 47/6/40
f 48/6/43 49/6/31 50/6/31
f 55/6/26 44/6/48 46/6/48
f 44/6/48 55/6/26 56/6/26
f 55/6/26 57/6/136 56/6/26
f 57/6/136 55/6/26 58/6/45
f 43/6/44 60/6/41 45/6/135
f 58/6/45 54/6/38 57/6/136
f 63/6/46 62/6/31 61/6/137
f 67/6/48 66/6/47 65/6/53
f 70/6/28 67/6/48 69/6/28
f 78/6/54 65/6/53 66/6/47
f 78/6/54 61/6/137 77/6/55
f 61/6/137 78/6/54 63/6/46
f 76/6/52 72/6/49 75/6/51
f 85/6/26 88/6/48 86/6/26
f 79/6/57 96/6/64 81/6/56
f 94/6/63 90/6/60 93/6/62
f 99/7/93 98/7/95 97/7/94
f 99/7/93 100/7/67 98/7/95
f 101/7/68 100/7/67 99/7/93
f 101/7/68 105/7/66 104/7/66
f 106/7/70 105/7/66 101/7/68
s 0
f 108/7/66 103/7/66 102/7/66
s 1
f 109/7/66 103/7/69 108/7/66
f 111/7/72 107/7/66 106/7/70
f 111/7/72 113/7/66 107/7/66
f 111/7/72 112/7/71 113/7/66
f 115/7/92 114/7/73 111/7/72
f 114/7/73 115/7/92 116/7/132
f 117/8/91 77/8/74 65/8/138
f 77/8/74 117/8/91 41/8/75
f 120/8/78 41/8/75 121/8/80
f 118/8/76 75/8/79 122/8/83
f 122/8/83 90/8/84 124/8/102
s 0
f 122/8/105 124/8/105 125/8/105
s 1
f 57/8/85 123/8/82 125/8/86
f 95/8/87 125/8/86 123/8/82
f 95/8/87 123/8/82 59/8/88
f 65/8/138 115/7/92 117/8/91
f 115/7/92 65/8/138 116/7/132
f 117/8/91 111/7/72 41/8/75
f 121/8/80 111/7/72 106/7/70
f 111/7/72 121/8/80 41/8/75
f 106/7/70 123/8/82 121/8/80
f 79/8/89 100/7/67 95/8/87
f 100/7/67 122/8/83 95/8/87
f 103/7/69 118/8/76 122/8/83
f 77/8/74 116/7/132 65/8/138
f 116/7/132 77/8/74 114/7/73
f 105/7/96 120/8/78 36/8/81
f 113/7/98 120/8/78 107/7/97
f 110/7/99 119/8/77 113/7/98
f 110/7/99 90/8/84 75/8/79
f 90/8/84 108/7/103 124/8/102
f 108/7/103 90/8/84 109/7/100
f 124/8/102 102/7/101 125/8/86
f 125/8/86 104/7/104 57/8/85
f 36/8/81 104/7/104 105/7/96
f 104/7/104 36/8/81 57/8/85
f 109/7/105 104/7/105 108/7/105
f 60/7/106 96/7/110 81/7/107
f 127/7/111 128/7/69 96/7/110
f 129/7/114 130/7/118 35/7/113
s 0
f 131/7/66 128/7/66 127/7/66
s 1
f 89/7/116 128/7/69 131/7/134
f 42/7/117 132/7/71 133/7/119
f 42/7/117 78/7/121 132/7/71
f 78/7/121 134/7/120 66/7/132
f 137/8/123 136/8/122 135/8/139
f 139/8/76 138/8/124 140/8/133
f 138/8/124 141/8/125 140/8/133
f 139/8/76 140/8/133 142/8/126
f 141/8/125 138/8/124 143/8/80
f 144/8/81 146/8/82 149/8/127
f 145/8/83 150/8/86 151/8/128
f 151/8/128 150/8/86 146/8/82
f 151/8/128 152/8/129 153/8/131
f 153/8/131 152/8/129 154/8/130
f 135/8/139 134/7/120 137/8/123
f 134/7/120 135/8/139 66/7/132
f 42/7/117 137/8/123 134/7/120
f 143/8/80 42/7/117 129/7/114
f 126/7/109 152/8/129 146/8/82
f 48/7/108 152/8/129 60/7/106
f 152/8/129 48/7/108 154/8/130
f 81/7/107 154/8/130 48/7/108
f 96/7/110 153/8/131 81/7/107
f 153/8/131 96/7/110 151/8/128
f 145/8/83 96/7/110 128/7/69
f 96/7/110 145/8/83 151/8/128
f 139/8/76 128/7/69 132/7/71
f 136/8/122 132/7/71 78/7/121
f 136/8/122 66/7/132 135/8/139
f 147/8/84 76/7/115 89/7/116
f 147/8/84 131/7/134 148/8/102
f 131/7/134 147/8/84 89/7/116
f 150/8/86 58/7/112 149/8/127
f 144/8/81 58/7/112 35/7/113
