# Blender 4.3.2
# www.blender.org
mtllib cupcake.mtl
o cupcake.002
v 0.121032 0.000000 -0.075200
v 0.083891 0.048434 -0.075200
v 0.083891 -0.048434 -0.075200
v 0.060516 -0.104817 -0.075200
v 0.060516 0.104817 -0.075200
v 0.000000 -0.096869 -0.075200
v 0.000000 0.096869 -0.075200
v -0.060516 -0.104817 -0.075200
v -0.060516 0.104817 -0.075200
v -0.083891 -0.048434 -0.075200
v -0.083891 0.048434 -0.075200
v -0.121032 0.000000 -0.075200
v 0.097688 0.056400 0.000000
v 0.070469 0.122056 0.000000
v 0.123086 0.071064 -0.178600
v 0.088791 0.153790 -0.178600
v -0.000000 0.112800 0.000000
v 0.000000 0.142128 -0.178600
v -0.140938 -0.000000 0.000000
v -0.177581 0.000000 -0.178600
v -0.097688 0.056400 0.000000
v -0.123086 0.071064 -0.178600
v -0.000000 -0.112800 0.000000
v 0.070469 -0.122056 0.000000
v 0.000000 -0.142128 -0.178600
v 0.088791 -0.153790 -0.178600
v -0.123086 -0.071064 -0.178600
v -0.097688 -0.056400 0.000000
v -0.098695 -0.056982 -0.178600
v -0.142391 0.000000 -0.178600
v -0.098695 0.056982 -0.178600
v 0.123086 -0.071064 -0.178600
v 0.097688 -0.056400 0.000000
v 0.098695 -0.056982 -0.178600
v 0.071196 -0.123314 -0.178600
v 0.000000 -0.113963 -0.178600
v 0.140938 -0.000000 0.000000
v -0.070469 0.122056 0.000000
v -0.070469 -0.122056 0.000000
v 0.098695 0.056982 -0.178600
v 0.071196 0.123314 -0.178600
v 0.000000 0.113963 -0.178600
v -0.071196 0.123314 -0.178600
v -0.071196 -0.123314 -0.178600
v 0.142391 0.000000 -0.178600
v 0.177581 0.000000 -0.178600
v -0.088791 -0.153790 -0.178600
v -0.088791 0.153790 -0.178600
v 0.000000 0.142128 -0.178600
v -0.088791 0.153790 -0.178600
v 0.000000 0.113963 -0.178600
v -0.071196 0.123314 -0.178600
v -0.098695 0.056982 -0.178600
v 0.142391 0.000000 -0.178600
v 0.177581 0.000000 -0.178600
v 0.000000 -0.142128 -0.178600
v 0.000000 -0.113963 -0.178600
v -0.088791 -0.153790 -0.178600
v -0.071196 -0.123314 -0.178600
v -0.098695 -0.056982 -0.178600
v -0.014400 0.014400 -0.308600
v -0.028800 0.014400 -0.323000
v -0.014400 0.028800 -0.323000
v 0.014400 0.014400 -0.366200
v 0.028800 0.014400 -0.351800
v 0.014400 0.028800 -0.351800
v -0.014400 -0.014400 -0.308600
v -0.014400 -0.028800 -0.323000
v -0.028800 -0.014400 -0.323000
v 0.014400 -0.014400 -0.366200
v 0.014400 -0.028800 -0.351800
v 0.028800 -0.014400 -0.351800
v 0.028800 -0.014400 -0.323000
v 0.014400 -0.028800 -0.323000
v 0.014400 -0.014400 -0.308600
v 0.028800 0.014400 -0.323000
v 0.014400 0.014400 -0.308600
v 0.014400 0.028800 -0.323000
v -0.028800 0.014400 -0.351800
v -0.014400 0.014400 -0.366200
v -0.014400 0.028800 -0.351800
v -0.028800 -0.014400 -0.351800
v -0.014400 -0.028800 -0.351800
v -0.014400 -0.014400 -0.366200
v 0.002614 -0.002614 -0.366200
v 0.002614 0.002614 -0.366200
v -0.002614 -0.002614 -0.366200
v -0.002614 0.002614 -0.366200
v 0.004668 -0.004668 -0.423800
v 0.004668 0.004668 -0.423800
v -0.004668 -0.004668 -0.423800
v -0.004668 0.004668 -0.423800
v 0.046088 -0.116714 -0.258600
v 0.076179 -0.131946 -0.208600
v 0.078034 -0.098271 -0.258600
v -0.046088 0.116714 -0.258600
v -0.076179 0.131946 -0.208600
v -0.078034 0.098271 -0.258600
v -0.152358 0.000000 -0.208600
v -0.124122 -0.018444 -0.258600
v -0.124122 0.018444 -0.258600
v -0.078034 -0.098271 -0.258600
v -0.076179 -0.131946 -0.208600
v -0.046088 -0.116714 -0.258600
v 0.078034 0.098271 -0.258600
v 0.076179 0.131946 -0.208600
v 0.046088 0.116714 -0.258600
v 0.124122 -0.018444 -0.258600
v 0.152358 0.000000 -0.208600
v 0.124122 0.018444 -0.258600
v 0.142391 0.000000 -0.178600
v -0.142391 0.000000 -0.178600
v 0.052802 -0.030485 -0.308600
v 0.052802 0.030485 -0.308600
v -0.052802 -0.030485 -0.308600
v -0.000000 0.060970 -0.308600
v -0.052802 0.030485 -0.308600
v -0.000000 -0.060970 -0.308600
vn -0.5194 0.3662 -0.7721
vn -0.5063 -0.3417 -0.7918
vn -0.9042 0.0845 -0.4187
vn -0.1826 0.7030 -0.6874
vn -0.2314 -0.7810 -0.5800
vn 0.0170 0.6481 -0.7614
vn 0.0476 -0.6088 -0.7919
vn 0.3691 0.7818 -0.5026
vn 0.4604 -0.7271 -0.5094
vn 0.5275 0.3552 -0.7717
vn 0.5539 -0.2565 -0.7921
vn 0.8343 0.2395 -0.4965
vn 0.3723 0.6449 0.6674
vn 0.6348 0.3665 -0.6802
vn 0.4282 0.7416 -0.5164
vn -0.0000 0.6138 0.7894
vn -0.5316 0.3069 0.7894
vn -0.8564 -0.0000 -0.5164
vn -0.7447 -0.0000 0.6674
vn -0.8090 0.4671 -0.3567
vn 0.3723 -0.6449 0.6674
vn -0.0000 -0.9342 -0.3567
vn 0.4282 -0.7417 -0.5163
vn -0.5316 -0.3069 0.7895
vn -0.8090 -0.4671 -0.3567
vn 0.5556 -0.2474 -0.7938
vn 0.7084 0.3415 -0.6177
vn -0.5393 0.4026 -0.7397
vn 0.6348 -0.3665 -0.6802
vn -0.0335 0.6468 -0.7619
vn -0.0934 0.7996 -0.5932
vn 0.5316 -0.3069 0.7894
vn 0.5316 0.3069 0.7895
vn -0.3723 -0.6449 0.6674
vn -0.3723 0.6449 0.6674
vn -0.5315 -0.4128 -0.7397
vn -0.0747 -0.1294 -0.9888
vn -0.0000 0.9342 -0.3567
vn -0.0707 -0.7884 -0.6111
vn 0.7411 -0.3108 -0.5952
vn 0.5327 -0.5919 -0.6048
vn 0.3909 0.6770 -0.6236
vn 0.9796 -0.0000 0.2010
vn 0.7447 -0.0000 0.6674
vn -0.4898 -0.8483 0.2010
vn -0.4898 0.8484 0.2010
vn -0.0000 -0.6138 0.7894
vn -0.0000 -0.0000 -1.0000
vn -0.7790 -0.1654 -0.6048
vn -0.3416 0.8756 0.3416
vn -0.8756 0.3416 0.3416
vn -0.3416 0.3416 0.8756
vn 0.3416 0.8756 -0.3416
vn 0.8756 0.3416 -0.3416
vn 0.3416 0.3416 -0.8756
vn -0.8756 -0.3416 0.3416
vn -0.3416 -0.8756 0.3416
vn -0.3416 -0.3416 0.8756
vn 0.8756 -0.3416 -0.3416
vn 0.3416 -0.8756 -0.3416
vn 0.3416 -0.3416 -0.8756
vn 0.3416 -0.3416 0.8756
vn 0.3416 -0.8756 0.3416
vn 0.8756 -0.3416 0.3416
vn 0.3416 0.8756 0.3416
vn 0.3416 0.3416 0.8756
vn 0.8756 0.3416 0.3416
vn -0.3416 0.8756 -0.3416
vn -0.3416 0.3416 -0.8756
vn -0.8756 0.3416 -0.3416
vn -0.3416 -0.3416 -0.8756
vn -0.3416 -0.8756 -0.3416
vn -0.8756 -0.3416 -0.3416
vn 0.7062 0.7062 0.0504
vn -0.7062 0.7062 0.0504
vn 0.7062 -0.7062 0.0504
vn -0.7062 -0.7062 0.0504
vn 0.7034 -0.6013 -0.3789
vn 0.4998 -0.8657 -0.0293
vn 0.1690 -0.9099 -0.3789
vn -0.7034 0.6013 -0.3789
vn -0.4998 0.8657 -0.0293
vn -0.1690 0.9099 -0.3789
vn -0.8725 0.3085 -0.3789
vn -0.8725 -0.3085 -0.3789
vn -0.9996 -0.0000 -0.0293
vn -0.1691 -0.9099 -0.3789
vn -0.4998 -0.8656 -0.0293
vn -0.7034 -0.6013 -0.3789
vn 0.1691 0.9099 -0.3789
vn 0.4998 0.8656 -0.0293
vn 0.7034 0.6013 -0.3789
vn 0.8725 0.3085 -0.3789
vn 0.9996 -0.0000 -0.0293
vn 0.8725 -0.3085 -0.3789
vn -0.4745 0.8219 0.3153
vn 0.4745 0.8218 0.3153
vn 0.9490 -0.0000 0.3153
vn -0.9490 -0.0000 0.3153
vn -0.4745 -0.8218 0.3153
vn 0.4745 -0.8219 0.3153
vn 0.3291 -0.1900 -0.9250
vn 0.5837 -0.1265 -0.8021
vn 0.4014 -0.4422 -0.8021
vn 0.3291 0.1900 -0.9250
vn 0.4014 0.4422 -0.8021
vn 0.5837 0.1265 -0.8021
vn -0.5837 -0.1265 -0.8021
vn -0.3291 -0.1900 -0.9250
vn -0.4014 -0.4422 -0.8021
vn -0.1823 0.5687 -0.8021
vn 0.1823 0.5687 -0.8021
vn -0.0000 0.3800 -0.9250
vn -0.5837 0.1265 -0.8021
vn -0.4014 0.4422 -0.8021
vn -0.3291 0.1900 -0.9250
vn -0.1823 -0.5687 -0.8021
vn -0.0000 -0.3800 -0.9250
vn 0.1823 -0.5687 -0.8021
vt 0.968750 0.109210
vt 0.968750 0.025000
vt 0.968750 0.225000
vt 0.093750 0.225000
vt 0.093750 0.025000
vt 0.968750 0.300000
vt 0.968750 0.275000
vt 0.968750 0.350000
vt 0.968750 0.375000
vt 0.593750 0.475000
vt 0.593750 0.375000
vt 0.093750 0.475000
vt 0.093750 0.350000
vt 0.093750 0.275000
vt 0.218750 0.475000
vt 0.218750 0.275000
s 1
usemtl colormap.034
f 3/1/1 2/1/2 1/1/3
f 2/1/2 3/1/1 4/1/4
f 2/1/2 4/1/4 5/1/5
f 5/1/5 4/1/4 6/1/6
f 5/1/5 6/1/6 7/1/7
f 7/1/7 6/1/6 8/1/8
f 7/1/7 8/1/8 9/1/9
f 9/1/9 8/1/8 10/1/10
f 9/1/9 10/1/10 11/1/11
f 11/1/11 10/1/10 12/1/12
f 14/2/13 15/3/14 16/3/15
f 16/3/15 17/2/16 14/2/13
f 21/2/17 20/3/18 19/2/19
f 20/3/18 21/2/17 22/3/20
f 24/2/21 25/3/22 26/3/23
f 28/2/24 20/3/18 27/3/25
f 20/3/18 28/2/24 19/2/19
f 27/3/25 30/3/26 29/3/27
f 30/3/26 27/3/25 20/3/18
f 22/3/20 30/3/26 20/3/18
f 26/3/23 34/3/28 32/3/29
f 34/3/28 26/3/23 35/3/30
f 35/3/30 25/3/22 36/3/31
f 33/2/32 13/2/33 14/2/13
f 24/2/21 14/2/13 17/2/16
f 39/2/34 38/2/35 21/2/17
f 39/2/34 21/2/17 28/2/24
f 40/3/36 16/3/15 15/3/14
f 16/3/15 40/3/36 41/3/37
f 16/3/15 41/3/37 18/3/38
f 18/3/38 41/3/37 42/3/39
f 12/1/12 31/3/40 11/1/11
f 31/3/40 12/1/12 30/3/26
f 9/1/9 31/3/40 43/3/41
f 10/1/10 30/3/26 12/1/12
f 30/3/26 10/1/10 29/3/27
f 8/1/8 36/3/31 44/3/42
f 6/1/6 35/3/30 36/3/31
f 40/3/36 1/1/3 2/1/2
f 5/1/5 40/3/36 2/1/2
f 46/4/43 13/5/33 37/5/44
f 13/5/33 46/4/43 15/4/14
f 39/5/34 27/4/25 47/4/45
f 27/4/25 39/5/34 28/5/24
f 22/4/20 38/5/35 48/4/46
f 33/5/32 46/4/43 37/5/44
f 38/5/35 18/4/38 48/4/46
f 47/4/45 23/5/47 39/5/34
f 51/5/48 50/5/48 49/5/48
f 50/5/48 51/5/48 52/5/48
f 50/5/48 52/5/48 53/5/48
f 50/5/48 53/5/48 22/5/48
f 54/5/48 32/5/29 34/5/28
f 32/5/29 54/5/48 55/5/48
f 58/5/48 57/5/48 56/5/48
f 57/5/48 58/5/48 59/5/48
f 59/5/48 58/5/48 60/5/48
f 15/3/14 14/2/13 13/2/33
f 17/2/16 16/3/15 18/3/38
f 25/3/22 24/2/21 23/2/47
f 30/3/26 22/3/20 31/3/40
f 32/3/29 24/2/21 26/3/23
f 24/2/21 32/3/29 33/2/32
f 35/3/30 26/3/23 25/3/22
f 13/2/33 33/2/32 37/2/44
f 33/2/32 14/2/13 24/2/21
f 24/2/21 17/2/16 23/2/47
f 23/2/47 17/2/16 38/2/35
f 23/2/47 38/2/35 39/2/34
f 28/2/24 21/2/17 19/2/19
f 31/3/40 9/1/9 11/1/11
f 43/3/41 7/1/7 9/1/9
f 7/1/7 43/3/41 42/3/39
f 8/1/8 29/3/27 10/1/10
f 29/3/27 8/1/8 44/3/42
f 36/3/31 8/1/8 6/1/6
f 35/3/30 6/1/6 4/1/4
f 4/1/4 34/3/28 35/3/30
f 34/3/28 4/1/4 3/1/1
f 3/1/1 45/3/49 34/3/28
f 45/3/49 3/1/1 1/1/3
f 42/3/39 5/1/5 7/1/7
f 5/1/5 42/3/39 41/3/37
f 1/1/3 40/3/36 45/3/49
f 40/3/36 5/1/5 41/3/37
f 38/5/35 22/4/20 21/5/17
f 46/4/43 33/5/32 32/4/29
f 18/4/38 38/5/35 17/5/16
f 23/5/47 47/4/45 25/4/22
f 54/5/48 15/5/14 55/5/48
f 15/5/14 54/5/48 40/5/36
f 60/5/48 58/5/48 27/5/48
f 63/6/50 62/6/51 61/7/52
f 66/8/53 65/8/54 64/9/55
f 69/6/56 68/6/57 67/7/58
f 72/8/59 71/8/60 70/9/61
f 75/7/62 74/6/63 73/6/64
f 78/6/65 77/7/66 76/6/67
f 81/8/68 80/9/69 79/8/70
f 84/9/71 83/8/72 82/8/73
f 83/8/72 74/6/63 68/6/57
f 74/6/63 83/8/72 71/8/60
f 66/8/53 63/6/50 78/6/65
f 63/6/50 66/8/53 81/8/68
f 67/7/58 74/6/63 75/7/62
f 74/6/63 67/7/58 68/6/57
f 61/7/52 75/7/62 77/7/66
f 75/7/62 61/7/52 67/7/58
f 76/6/67 75/7/62 73/6/64
f 75/7/62 76/6/67 77/7/66
f 65/8/54 73/6/64 72/8/59
f 73/6/64 65/8/54 76/6/67
f 62/6/51 82/8/73 69/6/56
f 82/8/73 62/6/51 79/8/70
f 63/6/50 77/7/66 78/6/65
f 77/7/66 63/6/50 61/7/52
f 80/9/69 66/8/53 64/9/55
f 66/8/53 80/9/69 81/8/68
f 72/8/59 74/6/63 71/8/60
f 74/6/63 72/8/59 73/6/64
f 83/8/72 70/9/61 71/8/60
f 70/9/61 83/8/72 84/9/71
f 61/7/52 69/6/56 67/7/58
f 69/6/56 61/7/52 62/6/51
f 64/9/55 72/8/59 70/9/61
f 72/8/59 64/9/55 65/8/54
f 66/8/53 76/6/67 65/8/54
f 76/6/67 66/8/53 78/6/65
f 79/8/70 84/9/71 82/8/73
f 84/9/71 79/8/70 80/9/69
f 69/6/56 83/8/72 68/6/57
f 83/8/72 69/6/56 82/8/73
f 63/6/50 79/8/70 62/6/51
f 79/8/70 63/6/50 81/8/68
f 70/9/61 85/9/48 64/9/55
f 85/9/48 70/9/61 84/9/71
f 86/9/48 64/9/55 85/9/48
f 85/9/48 84/9/71 87/9/48
f 64/9/55 86/9/48 80/9/69
f 87/9/48 84/9/71 88/9/48
f 80/9/69 86/9/48 88/9/48
f 80/9/69 88/9/48 84/9/71
f 91/10/48 90/10/48 89/10/48
f 90/10/48 91/10/48 92/10/48
f 90/10/74 88/11/75 86/11/74
f 88/11/75 90/10/74 92/10/75
f 90/10/74 85/11/76 89/10/76
f 85/11/76 90/10/74 86/11/74
f 91/10/77 85/11/76 87/11/77
f 85/11/76 91/10/77 89/10/76
f 87/11/77 92/10/75 91/10/77
f 92/10/75 87/11/77 88/11/75
f 95/12/78 94/13/79 93/12/80
f 98/12/81 97/13/82 96/12/83
f 101/12/84 100/12/85 99/13/86
f 104/12/87 103/13/88 102/12/89
f 107/12/90 106/13/91 105/12/92
f 110/12/93 109/13/94 108/12/95
f 106/13/91 43/14/96 41/14/97
f 43/14/96 106/13/91 97/13/82
f 109/13/94 41/14/97 111/14/98
f 41/14/97 109/13/94 106/13/91
f 97/13/82 101/12/84 99/13/86
f 101/12/84 97/13/82 98/12/81
f 95/12/78 109/13/94 94/13/79
f 109/13/94 95/12/78 108/12/95
f 43/14/96 99/13/86 112/14/99
f 99/13/86 43/14/96 97/13/82
f 107/12/90 97/13/82 106/13/91
f 97/13/82 107/12/90 96/12/83
f 104/12/87 94/13/79 103/13/88
f 94/13/79 104/12/87 93/12/80
f 110/12/93 106/13/91 109/13/94
f 106/13/91 110/12/93 105/12/92
f 44/14/100 99/13/86 103/13/88
f 99/13/86 44/14/100 112/14/99
f 103/13/88 35/14/101 44/14/100
f 35/14/101 103/13/88 94/13/79
f 99/13/86 102/12/89 103/13/88
f 102/12/89 99/13/86 100/12/85
f 109/13/94 35/14/101 94/13/79
f 35/14/101 109/13/94 111/14/98
f 113/15/102 108/16/103 95/16/104
f 114/15/105 105/16/106 110/16/107
f 100/16/108 115/15/109 102/16/110
f 96/16/111 107/16/112 116/15/113
f 101/16/114 98/16/115 117/15/116
f 104/16/117 118/15/118 93/16/119
f 118/15/118 114/15/105 113/15/102
f 114/15/105 118/15/118 116/15/113
f 116/15/113 118/15/118 115/15/109
f 116/15/113 115/15/109 117/15/116
f 114/15/105 107/16/112 105/16/106
f 107/16/112 114/15/105 116/15/113
f 117/15/116 96/16/111 116/15/113
f 96/16/111 117/15/116 98/16/115
f 93/16/119 113/15/102 95/16/104
f 113/15/102 93/16/119 118/15/118
f 100/16/108 117/15/116 115/15/109
f 117/15/116 100/16/108 101/16/114
f 113/15/102 110/16/107 108/16/103
f 110/16/107 113/15/102 114/15/105
f 104/16/117 115/15/109 118/15/118
f 115/15/109 104/16/117 102/16/110
