# Blender 4.3.2
# www.blender.org
mtllib carton.mtl
o carton.004
v -0.115000 -0.115000 0.000000
v 0.115000 -0.115000 0.000000
v -0.115000 -0.115000 -0.126383
v 0.115000 -0.115000 -0.126383
v 0.115000 0.115000 0.000000
v -0.115000 0.115000 0.000000
v 0.115000 0.115000 -0.126383
v -0.115000 0.115000 -0.126383
v 0.115000 0.115000 -0.293617
v 0.115000 0.115000 -0.420000
v 0.115000 0.075263 -0.293617
v 0.115000 0.075263 -0.325000
v 0.115000 -0.000000 -0.380000
v 0.115000 -0.115000 -0.420000
v 0.115000 -0.075263 -0.325000
v 0.115000 -0.115000 -0.293617
v 0.115000 -0.075263 -0.293617
v 0.115000 -0.075263 -0.095000
v 0.115000 -0.075263 -0.126383
v 0.115000 -0.000000 -0.040000
v 0.115000 0.075263 -0.095000
v 0.115000 0.075263 -0.126383
v -0.115000 0.115000 -0.293617
v -0.115000 0.115000 -0.420000
v -0.115000 -0.115000 -0.293617
v -0.115000 -0.115000 -0.420000
v 0.057500 -0.045500 -0.485000
v 0.087460 -0.040495 -0.511503
v 0.031392 -0.022750 -0.514514
v 0.064224 -0.020248 -0.537770
v 0.087460 0.040495 -0.511503
v 0.064224 0.020248 -0.537770
v 0.110696 0.020248 -0.485236
v 0.110696 -0.000000 -0.485236
v 0.064224 -0.000000 -0.537770
v 0.110696 -0.020248 -0.485236
v 0.031392 0.022750 -0.514514
v 0.083608 -0.022750 -0.455486
v 0.083608 -0.000000 -0.455486
v 0.083608 0.022750 -0.455486
v 0.057500 0.045500 -0.485000
v 0.000000 -0.095000 -0.450000
v 0.000000 -0.115000 -0.550000
v 0.000000 0.095000 -0.450000
v 0.000000 0.115000 -0.550000
v 0.083608 -0.022750 -0.455486
v 0.083608 -0.000000 -0.455486
v 0.083608 0.022750 -0.455486
v 0.115000 0.115000 -0.293617
v -0.115000 0.115000 -0.293617
v 0.115000 -0.075263 -0.293617
v 0.115000 -0.115000 -0.293617
v 0.115000 0.075263 -0.293617
v -0.115000 -0.115000 -0.293617
v 0.000000 -0.115000 -0.570273
v 0.000000 -0.094727 -0.590546
v 0.000000 0.094727 -0.590546
v 0.000000 0.115000 -0.570273
vn -0.7071 -0.7071 -0.0000
vn 0.5773 -0.5773 0.5774
vn -0.5774 -0.5774 0.5774
vn 0.7071 -0.7071 -0.0000
vn -0.5773 0.5773 0.5774
vn 0.5773 0.5774 0.5774
vn 0.7071 0.7071 -0.0000
vn -0.7071 0.7071 -0.0000
vn 1.0000 -0.0000 -0.0000
vn 0.7030 0.6477 -0.2936
vn 0.7030 -0.6477 -0.2936
vn -0.7030 -0.6477 -0.2936
vn -0.7030 0.6477 -0.2936
vn 0.5562 -0.2944 -0.7772
vn 0.1452 -0.9810 -0.1285
vn 0.8357 -0.3705 -0.4054
vn 0.0633 -0.0451 -0.9970
vn 0.9978 -0.0314 0.0588
vn 0.0633 0.0315 -0.9975
vn 0.8343 0.5387 -0.1169
vn 0.7490 -0.0000 -0.6626
vn 0.9961 0.0653 0.0587
vn 0.7394 -0.0000 0.6733
vn 0.1348 -0.4363 0.8896
vn 0.1117 0.5054 0.8556
vn -0.0000 -0.0000 -0.0000
vn 0.8065 0.3963 -0.4388
vn -0.0000 -0.6225 -0.7826
vn -0.0000 -0.9916 -0.1297
vn -0.0000 0.6225 -0.7826
vn -0.0000 0.9916 -0.1297
vn 0.2202 0.4656 -0.8572
vn -1.0000 -0.0000 -0.0000
vt 0.343750 0.567802
vt 0.343750 0.525000
vt 0.343750 0.624439
vt 0.343750 0.667241
vt 0.343750 0.635068
vt 0.343750 0.653694
vt 0.343750 0.557174
vt 0.343750 0.538547
vt 0.343750 0.725000
vt 0.968750 0.211268
vt 0.968750 0.167241
vt 0.968750 0.177401
vt 0.968750 0.199250
vt 0.968750 0.189255
vt 0.968750 0.179259
vt 0.968750 0.149593
vt 0.968750 0.100407
vt 0.968750 0.175000
vt 0.968750 0.075000
vt 0.968750 0.158824
vt 0.968750 0.091176
vt 0.968750 0.218134
vt 0.968750 0.225000
s 1
usemtl colormap.033
f 3/1/1 2/2/2 1/2/3
f 2/2/2 3/1/1 4/1/4
f 6/2/5 2/2/2 5/2/6
f 2/2/2 6/2/5 1/2/3
f 7/1/7 6/2/5 5/2/6
f 6/2/5 7/1/7 8/1/8
f 6/2/5 3/1/1 1/2/3
f 3/1/1 6/2/5 8/1/8
f 11/3/9 10/4/10 9/3/7
f 12/5/9 10/4/10 11/3/9
f 15/5/9 14/4/11 13/6/9
f 14/4/11 15/5/9 16/3/4
f 17/3/9 16/3/4 15/5/9
f 19/1/9 18/7/9 4/1/4
f 18/7/9 2/2/2 4/1/4
f 5/2/6 20/8/9 21/7/9
f 26/4/12 23/3/8 24/4/13
f 26/4/12 16/3/4 25/3/1
f 29/2/14 28/9/15 27/2/16
f 28/9/15 29/2/14 30/9/17
f 33/9/18 32/9/19 31/9/20
f 32/9/19 33/9/18 34/9/21
f 36/9/22 39/2/23 38/2/24
f 39/2/23 36/9/22 40/2/25
f 40/2/25 36/9/22 33/9/18
s 0
f 33/9/26 36/9/26 34/9/26
s 1
f 33/9/18 41/2/27 40/2/25
f 43/10/28 14/11/11 42/12/29
f 45/10/30 44/12/31 10/11/10
f 45/10/30 24/11/13 44/12/31
f 44/12/31 24/11/13 10/11/10
f 29/13/14 43/10/28 45/10/30
f 37/13/32 45/10/30 41/14/27
f 14/11/11 46/15/21 10/11/10
f 10/11/10 41/14/27 45/10/30
f 10/11/10 46/15/21 47/15/21
f 10/11/10 48/15/21 41/14/27
f 10/11/10 47/15/21 48/15/21
f 49/16/7 8/17/8 7/17/7
f 8/17/8 49/16/7 50/16/8
f 51/16/9 13/18/9 19/17/9
f 4/17/4 51/16/9 19/17/9
f 20/19/9 19/17/9 13/18/9
f 20/19/9 13/18/9 12/20/9
f 20/19/9 12/20/9 53/16/9
f 20/19/9 53/16/9 21/21/9
s 0
f 21/21/9 53/16/9 22/17/9
s 1
f 22/17/9 53/16/9 49/16/7
f 22/17/9 49/16/7 7/17/7
f 4/17/4 54/16/1 52/16/4
f 55/22/33 43/10/33 56/23/33
f 45/10/33 56/23/33 43/10/33
f 57/23/33 56/23/33 45/10/33
f 58/22/33 57/23/33 45/10/33
f 13/6/9 10/4/10 12/5/9
f 13/6/9 14/4/11 10/4/10
f 20/8/9 2/2/2 18/7/9
f 2/2/2 20/8/9 5/2/6
f 5/2/6 21/7/9 22/1/9
f 5/2/6 22/1/9 7/1/7
f 10/4/10 23/3/8 9/3/7
f 23/3/8 10/4/10 24/4/13
f 23/3/8 26/4/12 25/3/1
f 16/3/4 26/4/12 14/4/11
f 32/9/19 34/9/21 35/9/21
f 35/9/21 34/9/21 36/9/22
f 35/9/21 36/9/22 30/9/17
f 30/9/17 36/9/22 28/9/15
f 32/9/19 29/2/14 37/2/32
f 29/2/14 32/9/19 30/9/17
s 0
f 30/9/26 32/9/26 35/9/26
s 1
f 27/2/16 36/9/22 38/2/24
f 36/9/22 27/2/16 28/9/15
f 41/2/27 33/9/18 31/9/20
f 31/9/20 37/2/32 41/2/27
f 37/2/32 31/9/20 32/9/19
f 42/12/29 14/11/11 26/11/12
f 43/10/28 42/12/29 26/11/12
f 24/11/13 43/10/28 26/11/12
f 43/10/28 24/11/13 45/10/30
f 43/10/28 29/13/14 14/11/11
f 14/11/11 29/13/14 27/14/16
f 29/13/14 45/10/30 37/13/32
f 46/15/21 14/11/11 27/14/16
f 13/18/9 51/16/9 15/20/9
f 51/16/9 4/17/4 52/16/4
f 19/17/9 20/19/9 18/21/9
f 54/16/1 4/17/4 3/17/1
f 8/17/8 54/16/1 3/17/1
f 54/16/1 8/17/8 50/16/8
