# Blender 4.3.2
# www.blender.org
mtllib display-fruit.mtl
o display-fruit
v 0.080540 -0.000000 -0.406500
v 0.056950 0.056950 -0.406500
v 0.056950 -0.056950 -0.406500
v 0.000000 -0.080540 -0.406500
v 0.000000 0.080540 -0.406500
v -0.056950 -0.056950 -0.406500
v -0.056950 0.056950 -0.406500
v -0.080540 -0.000000 -0.406500
v 0.165426 -0.165426 -0.300000
v 0.233948 -0.000000 -0.300000
v 0.129846 -0.129846 -0.371000
v 0.183630 0.000000 -0.371000
v -0.165426 -0.165426 -0.300000
v 0.000000 -0.233948 -0.300000
v -0.129846 -0.129846 -0.371000
v 0.000000 -0.183630 -0.371000
v 0.000000 0.233948 -0.300000
v -0.165426 0.165426 -0.300000
v 0.000000 0.183630 -0.371000
v -0.129846 0.129846 -0.371000
v 0.165426 0.165426 -0.300000
v 0.129846 0.129846 -0.371000
v -0.233948 -0.000000 -0.300000
v -0.183630 0.000000 -0.371000
v 0.095428 -0.058465 -0.378566
v 0.120726 -0.079468 -0.411446
v 0.109224 -0.087232 -0.349576
v 0.134522 -0.108235 -0.382456
v 0.037134 -0.174065 -0.349576
v 0.016416 -0.132417 -0.326359
v 0.073196 -0.158677 -0.331659
v 0.040457 -0.122158 -0.314414
v -0.007476 -0.137029 -0.407556
v -0.013324 -0.107727 -0.365012
v 0.006320 -0.165796 -0.378566
v -0.004127 -0.126905 -0.345685
v 0.098494 -0.179680 -0.364539
v 0.062432 -0.195068 -0.382456
v 0.028552 -0.065585 -0.425472
v 0.001016 -0.098752 -0.425472
v 0.053850 -0.086588 -0.458353
v 0.026314 -0.119755 -0.458353
v 0.100732 -0.125510 -0.331659
v 0.126030 -0.146513 -0.364539
v 0.017822 -0.158032 -0.440436
v 0.064614 -0.050196 -0.407556
v 0.034736 -0.049838 -0.365012
v 0.055278 -0.055351 -0.345685
v 0.010694 -0.060097 -0.376956
v -0.007663 -0.082208 -0.376956
v 0.122237 -0.103386 -0.427886
v 0.132584 -0.124961 -0.406144
v 0.105563 -0.178545 -0.392706
v 0.126215 -0.153669 -0.392706
v 0.064476 -0.074529 -0.326359
v 0.051428 -0.133601 -0.463066
v 0.072080 -0.108726 -0.463066
v 0.058814 -0.100047 -0.314414
v 0.031618 -0.186799 -0.411446
v 0.089912 -0.071199 -0.440436
v 0.055406 -0.183884 -0.427886
v 0.078516 -0.190086 -0.406144
v 0.045059 -0.162309 -0.449629
v 0.099126 -0.097184 -0.449629
v 0.059932 0.167188 -0.318854
v 0.076912 0.181061 -0.359860
v 0.099962 0.165052 -0.303002
v 0.116942 0.178925 -0.344007
v 0.139433 0.061015 -0.321855
v 0.104084 0.061101 -0.283733
v 0.149096 0.099433 -0.304856
v 0.110527 0.086713 -0.272400
v 0.068690 0.040729 -0.358011
v 0.056922 0.047576 -0.307837
v 0.108720 0.038592 -0.342159
v 0.083609 0.046152 -0.297269
v 0.166076 0.113306 -0.345862
v 0.156412 0.074888 -0.362861
v 0.019556 0.106347 -0.356157
v 0.034632 0.066609 -0.363358
v 0.036535 0.120220 -0.397162
v 0.051612 0.080482 -0.404364
v 0.134020 0.139172 -0.297655
v 0.151000 0.153045 -0.338661
v 0.085669 0.054602 -0.399017
v 0.029220 0.144765 -0.339158
v 0.030609 0.116934 -0.295268
v 0.051084 0.131882 -0.281732
v 0.024167 0.091322 -0.306601
v 0.034217 0.064829 -0.311402
v 0.091500 0.171923 -0.383276
v 0.121523 0.170321 -0.371387
v 0.147066 0.150911 -0.367377
v 0.158373 0.121107 -0.372778
v 0.077771 0.130458 -0.271164
v 0.072525 0.096488 -0.416654
v 0.061218 0.126292 -0.411253
v 0.100476 0.113205 -0.267599
v 0.125700 0.052465 -0.383165
v 0.046199 0.158638 -0.380164
v 0.128091 0.075476 -0.400755
v 0.151125 0.092294 -0.385527
v 0.098068 0.077078 -0.412644
v 0.068465 0.155106 -0.398504
v 0.186092 0.048523 -0.296946
v 0.223421 0.046721 -0.324615
v 0.200748 0.014465 -0.274955
v 0.238077 0.012663 -0.302624
v 0.160025 -0.078756 -0.323824
v 0.122996 -0.053733 -0.297263
v 0.184638 -0.064197 -0.291567
v 0.139404 -0.044027 -0.275758
v 0.121099 -0.032648 -0.379342
v 0.097045 -0.022994 -0.334275
v 0.135755 -0.066706 -0.357351
v 0.106816 -0.045699 -0.319615
v 0.221966 -0.066000 -0.319236
v 0.197353 -0.080559 -0.351493
v 0.137210 0.046014 -0.362730
v 0.121655 0.010407 -0.381397
v 0.174538 0.044212 -0.390399
v 0.158983 0.008605 -0.409066
v 0.200192 -0.028590 -0.272901
v 0.237521 -0.030392 -0.300570
v 0.158428 -0.034451 -0.407011
v 0.161823 0.060573 -0.330473
v 0.124194 0.039154 -0.301696
v 0.140374 0.031120 -0.279344
v 0.107786 0.029448 -0.323201
v 0.097416 0.005709 -0.335645
v 0.235793 0.031416 -0.346000
v 0.246785 0.005873 -0.329507
v 0.234702 -0.053124 -0.341966
v 0.246368 -0.026418 -0.327966
v 0.150145 0.008415 -0.264684
v 0.187465 0.002829 -0.409338
v 0.199131 0.029535 -0.395339
v 0.149774 -0.020288 -0.263314
v 0.173084 -0.068508 -0.385020
v 0.199151 0.058771 -0.358142
v 0.198040 -0.055005 -0.391304
v 0.216242 -0.064043 -0.366159
v 0.187048 -0.029462 -0.407797
v 0.217591 0.040454 -0.371146
v -0.178513 -0.101013 -0.325093
v -0.195987 -0.107209 -0.367737
v -0.204819 -0.067374 -0.319201
v -0.222293 -0.073570 -0.361845
v -0.151244 0.025421 -0.354638
v -0.131822 0.008589 -0.309446
v -0.187966 0.010766 -0.337461
v -0.156303 -0.001180 -0.297995
v -0.085985 -0.019951 -0.374786
v -0.088316 -0.021659 -0.322878
v -0.112291 0.013688 -0.368895
v -0.105853 0.000767 -0.318951
v -0.205440 0.004570 -0.380105
v -0.168718 0.019225 -0.397282
v -0.102838 -0.098091 -0.356527
v -0.082374 -0.062647 -0.370062
v -0.120312 -0.104287 -0.399171
v -0.099848 -0.068843 -0.412706
v -0.208430 -0.024678 -0.323925
v -0.225904 -0.030874 -0.366569
v -0.103459 -0.026147 -0.417430
v -0.139560 -0.112746 -0.339350
v -0.124033 -0.083522 -0.299254
v -0.150002 -0.075700 -0.289749
v -0.099552 -0.073752 -0.310705
v -0.085909 -0.050122 -0.319729
v -0.196447 -0.095969 -0.394534
v -0.216176 -0.070740 -0.390115
v -0.203536 -0.012135 -0.403810
v -0.218884 -0.038718 -0.393658
v -0.167539 -0.053274 -0.285821
v -0.124342 -0.067195 -0.428261
v -0.139690 -0.093778 -0.418110
v -0.169946 -0.024810 -0.288971
v -0.129765 0.007492 -0.411539
v -0.157034 -0.118942 -0.381994
v -0.146780 -0.009944 -0.427386
v -0.175995 -0.001144 -0.416693
v -0.127050 -0.035173 -0.431804
v -0.167232 -0.104769 -0.405227
v -0.024149 0.093712 -0.363503
v -0.016704 0.106965 -0.421049
v 0.030537 0.094641 -0.356213
v 0.037983 0.107895 -0.413759
v 0.081059 -0.038525 -0.380346
v 0.048952 -0.035133 -0.322157
v 0.095560 0.012915 -0.366622
v 0.058619 -0.000840 -0.313008
v -0.016387 -0.071821 -0.400622
v -0.016012 -0.057330 -0.335675
v 0.038299 -0.070891 -0.393332
v 0.020446 -0.056711 -0.330815
v 0.103005 0.026168 -0.424168
v 0.088505 -0.025271 -0.437892
v -0.081410 0.009906 -0.390213
v -0.062112 -0.040959 -0.399431
v -0.073964 0.023160 -0.447759
v -0.054666 -0.027705 -0.456977
v 0.076262 0.063780 -0.357405
v 0.083708 0.077033 -0.414950
v -0.008941 -0.058567 -0.458168
v -0.066909 0.061346 -0.376489
v -0.049693 0.031447 -0.319586
v -0.021187 0.053025 -0.310928
v -0.046495 -0.036756 -0.334880
v -0.059360 -0.002846 -0.328735
v -0.005175 0.093017 -0.453550
v 0.035840 0.093714 -0.448083
v 0.084607 0.032419 -0.455890
v 0.070134 0.070568 -0.448977
v 0.015271 0.053644 -0.306069
v -0.033647 -0.007986 -0.480496
v -0.048120 0.030162 -0.473583
v 0.045754 0.033070 -0.306863
v 0.045745 -0.057637 -0.450878
v -0.059464 0.074599 -0.434035
v 0.041662 -0.030435 -0.475923
v 0.073732 -0.006161 -0.466183
v 0.000647 -0.031133 -0.481390
v -0.037245 0.068742 -0.463291
v -0.156455 0.079898 -0.327798
v -0.162570 0.090489 -0.373438
v -0.164852 0.121515 -0.317015
v -0.170967 0.132106 -0.362655
v -0.065538 0.178854 -0.317015
v -0.069269 0.147091 -0.274969
v -0.108663 0.182673 -0.310352
v -0.098019 0.149637 -0.270527
v -0.025299 0.109157 -0.338580
v -0.042443 0.100626 -0.289346
v -0.033696 0.150773 -0.327798
v -0.048041 0.128370 -0.282158
v -0.114777 0.193264 -0.355992
v -0.071653 0.189445 -0.362655
v -0.081488 0.047999 -0.345244
v -0.043554 0.069900 -0.345244
v -0.087603 0.058590 -0.390884
v -0.049668 0.080491 -0.390884
v -0.146598 0.160772 -0.310352
v -0.152712 0.171362 -0.355992
v -0.031413 0.119748 -0.384220
v -0.124613 0.051818 -0.338580
v -0.108652 0.062400 -0.289346
v -0.129881 0.081120 -0.282158
v -0.079903 0.059854 -0.293788
v -0.054613 0.074455 -0.293788
v -0.150282 0.104644 -0.396258
v -0.156580 0.135856 -0.388171
v -0.114438 0.181725 -0.383173
v -0.142889 0.165299 -0.383173
v -0.135479 0.108865 -0.274969
v -0.065606 0.097146 -0.409342
v -0.094057 0.080719 -0.409342
v -0.123309 0.135035 -0.270527
v -0.039811 0.161364 -0.373438
v -0.130727 0.062409 -0.384220
v -0.058213 0.157800 -0.396258
v -0.082094 0.178861 -0.388171
v -0.051915 0.126588 -0.404344
v -0.126400 0.083584 -0.404344
v -0.000000 0.299596 -0.250000
v -0.211846 0.211846 -0.250000
v 0.000000 0.300000 -0.300000
v -0.212132 0.212132 -0.300000
v -0.000000 -0.299596 -0.250000
v 0.211846 -0.211846 -0.250000
v 0.000000 -0.300000 -0.300000
v 0.212132 -0.212132 -0.300000
v 0.300000 0.000000 -0.300000
v 0.299596 0.000000 -0.250000
v 0.212132 0.212132 -0.300000
v 0.211846 0.211846 -0.250000
v -0.212132 -0.212132 -0.300000
v -0.300000 0.000000 -0.300000
v -0.211846 -0.211846 -0.250000
v -0.299596 0.000000 -0.250000
v 0.087887 -0.152869 -0.422707
v 0.097726 -0.141018 -0.422707
v 0.107658 -0.174289 -0.446422
v 0.122417 -0.156512 -0.446422
v 0.089756 -0.134401 -0.433066
v 0.079917 -0.146252 -0.433066
v 0.110462 -0.146586 -0.461960
v 0.095703 -0.164363 -0.461960
v 0.118808 0.118412 -0.390072
v 0.113421 0.132611 -0.387499
v 0.136898 0.126867 -0.421905
v 0.128818 0.148166 -0.418045
v 0.100782 0.128987 -0.393959
v 0.106169 0.114788 -0.396532
v 0.109859 0.142729 -0.427735
v 0.117940 0.121430 -0.431595
v 0.224855 0.100000 -0.150852
v 0.162721 0.100000 -0.167501
v 0.237796 0.100000 -0.199148
v 0.175662 0.100000 -0.215797
v 0.299931 -0.050000 -0.182499
v 0.286990 -0.050000 -0.134203
v 0.299931 0.050000 -0.182499
v 0.286990 0.050000 -0.134203
v 0.162721 -0.100000 -0.167501
v 0.224855 -0.100000 -0.150852
v 0.175662 -0.100000 -0.215797
v 0.237796 -0.100000 -0.199148
v -0.224855 0.100000 -0.150852
v -0.162721 0.100000 -0.167501
v -0.237796 0.100000 -0.199148
v -0.175662 0.100000 -0.215797
v -0.299931 -0.050000 -0.182499
v -0.286990 -0.050000 -0.134203
v -0.299931 0.050000 -0.182499
v -0.286990 0.050000 -0.134203
v -0.162721 -0.100000 -0.167501
v -0.224855 -0.100000 -0.150852
v -0.175662 -0.100000 -0.215797
v -0.237796 -0.100000 -0.199148
v 0.217615 -0.022275 -0.367028
v 0.223173 -0.009552 -0.360358
v 0.247827 -0.028957 -0.388351
v 0.256164 -0.009872 -0.378346
v 0.216218 -0.001314 -0.370277
v 0.210660 -0.014037 -0.376947
v 0.245732 0.002484 -0.393224
v 0.237395 -0.016601 -0.403229
v -0.173787 -0.042571 -0.411578
v -0.181099 -0.055236 -0.406742
v -0.188853 -0.042335 -0.446003
v -0.199821 -0.061333 -0.438748
v -0.169440 -0.063342 -0.410341
v -0.162127 -0.050677 -0.415178
v -0.182332 -0.073492 -0.444147
v -0.171364 -0.054494 -0.451402
v 0.030396 0.025177 -0.464572
v 0.023501 0.043352 -0.461278
v 0.042429 0.032723 -0.510527
v 0.032086 0.059986 -0.505586
v 0.006091 0.037404 -0.464901
v 0.012986 0.019229 -0.468195
v 0.005971 0.051063 -0.511020
v 0.016314 0.023801 -0.515961
v -0.101065 0.141361 -0.394331
v -0.114619 0.133535 -0.394331
v -0.104365 0.154903 -0.429880
v -0.124697 0.143165 -0.429880
v -0.107430 0.121083 -0.398184
v -0.093875 0.128909 -0.398184
v -0.113913 0.124486 -0.435659
v -0.093581 0.136225 -0.435659
v 0.195652 0.000000 0.000000
v 0.238653 0.000000 -0.250000
v 0.138347 0.138347 0.000000
v 0.168753 0.168753 -0.250000
v 0.168753 -0.168753 -0.250000
v 0.138347 -0.138347 0.000000
v 0.000000 -0.195652 0.000000
v -0.138347 -0.138347 0.000000
v 0.000000 -0.238653 -0.250000
v -0.168753 -0.168753 -0.250000
v -0.238653 0.000000 -0.250000
v -0.195652 0.000000 0.000000
v -0.168753 0.168753 -0.250000
v -0.138347 0.138347 0.000000
v 0.000000 0.195652 0.000000
v 0.000000 0.238653 -0.250000
vn 0.1459 0.0619 -0.9874
vn 0.2242 -0.0503 -0.9732
vn 0.1262 -0.1868 -0.9743
vn 0.0827 -0.0085 -0.9965
vn 0.1968 0.1218 -0.9729
vn -0.0657 0.0498 -0.9966
vn 0.0467 0.2228 -0.9737
vn -0.1262 0.1868 -0.9743
vn 0.7721 -0.1298 -0.6221
vn 0.3131 -0.1209 -0.9420
vn 0.1536 -0.1536 -0.9761
vn -0.1269 -0.7740 -0.6203
vn -0.1385 -0.3058 -0.9420
vn -0.1562 -0.1562 -0.9753
vn -0.0000 -0.9251 -0.3796
vn -0.4550 0.6376 -0.6217
vn -0.0990 0.3220 -0.9415
vn -0.0000 0.1922 -0.9814
vn 0.6380 0.4529 -0.6228
vn 0.3142 0.1183 -0.9420
vn 0.6539 0.6539 -0.3806
vn -0.2737 -0.0942 -0.9572
vn -0.1573 0.1573 -0.9749
vn 0.7477 0.5902 0.3044
vn 0.9384 0.2448 0.2438
vn 0.8153 0.5565 -0.1601
vn -0.2081 -0.3924 0.8960
vn -0.5017 -0.3865 0.7739
vn 0.0591 -0.6322 0.7725
vn -0.3838 -0.0893 0.9191
vn -0.9284 -0.2618 0.2638
vn -0.9811 0.0528 0.1864
vn -0.8286 -0.5582 0.0426
vn -0.9022 0.0548 0.4278
vn 0.1925 -0.5516 0.8116
vn 0.4086 -0.8179 0.4050
vn -0.6160 0.4448 -0.6502
vn -0.5555 0.6495 -0.5191
vn -0.1901 0.5493 -0.8137
vn -0.8136 0.2828 -0.5081
vn 0.7813 0.1649 0.6020
vn 0.8186 -0.2882 0.4968
vn -0.1227 0.9452 0.3027
vn 0.1976 0.9696 -0.1440
vn -0.1805 0.9775 0.1090
vn -0.5067 0.8286 0.2382
vn 0.8346 0.2048 -0.5113
vn 0.8680 -0.1260 -0.4803
vn 0.7498 -0.6413 -0.1626
vn -0.9551 0.2909 0.0553
vn 0.1787 0.6901 0.7013
vn 0.0120 0.6842 0.7292
vn -0.1289 0.3700 0.9200
vn 0.1538 -0.6903 -0.7070
vn 0.2835 -0.8300 -0.4803
vn 0.0689 -0.6407 -0.7647
vn 0.1604 -0.4191 -0.8937
vn 0.3589 -0.1290 -0.9244
vn 0.7198 0.0296 -0.6935
vn -0.6232 -0.5387 -0.5669
vn -0.1640 -0.5742 -0.8021
vn 0.5342 0.2668 -0.8021
vn 0.8805 -0.3279 -0.3422
vn -0.0224 0.9796 0.1997
vn -0.4206 0.8351 0.3545
vn -0.0157 0.8428 0.5380
vn -0.1523 0.9854 -0.0759
vn 0.3857 -0.4971 0.7773
vn 0.5057 -0.2230 0.8334
vn 0.2264 -0.4144 0.8815
vn 0.9368 -0.3112 0.1602
vn 0.8248 -0.1143 0.5537
vn 0.9979 -0.0312 0.0564
vn -0.8690 -0.3163 -0.3804
vn -0.9647 -0.1728 -0.1988
vn -0.8233 0.1151 -0.5558
vn -0.7735 -0.5714 -0.2742
vn 0.4254 0.7464 0.5118
vn 0.7762 0.5738 0.2613
vn -0.2990 -0.9350 -0.1906
vn -0.6656 -0.7019 -0.2536
vn -0.8121 -0.3361 0.4771
vn -0.9170 -0.1746 0.3587
vn -0.9357 0.1622 0.3132
vn -0.8326 0.2494 0.4945
vn 0.0225 0.8525 -0.5223
vn 0.3207 0.7278 -0.6061
vn -0.2422 0.4524 0.8583
vn -0.3017 0.3010 0.9046
vn -0.1586 -0.0910 -0.9831
vn -0.1214 0.1704 -0.9779
vn -0.2701 -0.7911 0.5489
vn 0.0719 -0.6837 0.7262
vn -0.0077 0.1754 0.9845
vn 0.6051 -0.7933 0.0673
vn 0.4227 -0.8315 -0.3605
vn -0.9395 0.2706 -0.2098
vn 0.6322 -0.0846 -0.7702
vn 0.0406 -0.0816 -0.9958
vn 0.6766 0.1986 -0.7091
vn 0.7504 0.3636 -0.5520
vn 0.0855 0.6403 -0.7633
vn -0.2829 -0.7294 0.6229
vn -0.5281 -0.7377 0.4206
vn 0.0648 -0.8476 0.5267
vn -0.5416 -0.4983 0.6770
vn 0.1550 -0.7622 0.6286
vn 0.5291 -0.8099 0.2534
vn -0.5060 -0.0305 -0.8620
vn -0.7336 -0.3209 -0.5990
vn -0.7566 0.1152 -0.6437
vn -0.3104 -0.2553 -0.9157
vn -0.7598 0.6278 0.1691
vn -0.4271 0.8695 -0.2483
vn -0.7649 0.6434 -0.0305
vn 0.8284 0.5536 0.0859
vn 0.8297 0.5425 -0.1312
vn 0.7739 0.3801 0.5065
vn 0.9525 0.2377 -0.1905
vn 0.9180 -0.3799 -0.1142
vn 0.6049 -0.7154 0.3498
vn -0.9839 0.0518 -0.1709
vn -0.9996 0.0044 0.0269
vn -0.2039 0.4021 0.8926
vn -0.2159 0.6714 0.7090
vn -0.3628 0.3530 0.8624
vn 0.2389 0.7123 0.6600
vn 0.0577 0.3289 -0.9426
vn 0.2301 0.1557 -0.9606
vn 0.4825 0.2890 -0.8269
vn -0.7686 0.5641 0.3019
vn 0.0264 -0.0077 0.9996
vn -0.1465 -0.1756 0.9735
vn -0.2631 0.9217 -0.2850
vn -0.6518 -0.7467 0.1327
vn -0.7981 -0.5993 0.0618
vn 0.9234 -0.3317 -0.1934
vn 0.6360 -0.5247 -0.5658
vn 0.6129 -0.6628 -0.4301
vn 0.3629 -0.3727 -0.8540
vn -0.2840 -0.4038 -0.8697
vn 0.5882 0.4162 -0.6934
vn -0.7364 -0.6186 0.2739
vn -0.3818 -0.7737 0.5055
vn -0.6722 -0.4476 0.5898
vn -0.6281 -0.7773 0.0373
vn 0.0406 0.7789 0.6258
vn -0.2477 0.6959 0.6741
vn 0.0431 0.6205 0.7831
vn 0.7520 0.6188 0.2271
vn 0.8762 0.3381 0.3435
vn 0.6753 0.7256 -0.1326
vn -0.3997 0.9125 -0.0865
vn -0.5126 0.7905 0.3351
vn -0.6388 0.7481 -0.1799
vn -0.8867 -0.0751 0.4561
vn -0.9648 0.2355 0.1171
vn 0.9523 -0.0059 -0.3051
vn 0.7944 -0.2954 -0.5307
vn 0.7231 0.2056 -0.6594
vn 0.2079 -0.5779 0.7892
vn 0.2977 -0.6974 0.6519
vn 0.8565 -0.2688 0.4407
vn 0.9195 -0.3865 -0.0713
vn 0.5909 -0.5161 0.6201
vn -0.5996 -0.6643 -0.4463
vn -0.6945 -0.3871 -0.6065
vn -0.7622 0.2260 -0.6066
vn -0.8793 0.0800 -0.4694
vn 0.1622 -0.3972 -0.9033
vn 0.1362 -0.6261 -0.7678
vn 0.0404 -0.4337 -0.9002
vn -0.3992 0.0172 0.9167
vn -0.1242 0.9023 -0.4129
vn 0.4368 -0.8988 0.0359
vn 0.6049 0.7090 0.3626
vn -0.0479 0.1788 -0.9827
vn -0.2601 0.3653 -0.8938
vn 0.0573 0.1352 -0.9892
vn -0.1102 -0.5609 -0.8206
vn 0.7285 -0.3063 0.6127
vn 0.5319 -0.5646 0.6311
vn 0.9305 -0.1904 0.3129
vn 0.4480 -0.3423 0.8259
vn -0.1213 -0.8444 0.5218
vn 0.1964 -0.8607 0.4697
vn -0.1134 -0.7421 0.6606
vn 0.9393 -0.0326 0.3416
vn -0.9161 -0.3801 -0.1272
vn -0.9731 -0.2228 0.0592
vn -0.9382 0.0333 -0.3446
vn -0.7839 -0.6204 -0.0259
vn 0.4924 0.8066 0.3271
vn 0.6167 0.6368 0.4628
vn 0.7833 0.6216 0.0126
vn 0.2299 0.8630 0.4498
vn -0.5794 0.3216 0.7489
vn -0.7350 0.6161 0.2833
vn -0.7294 0.3029 0.6133
vn -0.3463 0.5515 0.7589
vn -0.1511 0.7978 -0.5837
vn 0.2151 0.9745 -0.0633
vn 0.1246 0.6753 -0.7269
vn 0.5682 0.3484 -0.7455
vn 0.6062 0.5549 -0.5698
vn -0.0700 0.5477 0.8338
vn -0.4185 -0.2207 -0.8810
vn -0.4207 -0.6374 0.6455
vn -0.6274 -0.3856 0.6765
vn 0.2321 0.1295 0.9640
vn 0.6465 -0.7628 -0.0144
vn 0.7827 -0.5940 0.1858
vn -0.9759 0.2181 0.0039
vn 0.4082 -0.1481 -0.9008
vn 0.1187 -0.1935 -0.9739
vn -0.0853 -0.4656 -0.8809
vn -0.3748 0.2946 -0.8791
vn -0.4941 0.1681 -0.8530
vn -0.2291 -0.8610 -0.4542
vn -0.9820 -0.1876 -0.0237
vn -0.8173 -0.5367 0.2096
vn -0.9346 -0.1258 0.3327
vn -0.8995 -0.3400 -0.2745
vn 0.1134 0.6733 0.7306
vn 0.4018 0.5397 0.7398
vn 0.0008 0.8958 0.4444
vn 0.1452 0.3763 0.9151
vn -0.1585 0.8775 0.4526
vn -0.1446 0.9872 -0.0677
vn 0.4698 -0.8053 -0.3616
vn 0.6007 -0.5948 -0.5343
vn 0.7379 -0.6739 -0.0367
vn -0.9073 0.3196 0.2734
vn -0.7374 0.6750 0.0233
vn 0.9889 -0.1344 0.0641
vn 0.8402 -0.5422 -0.0015
vn -0.3352 -0.7170 0.6112
vn -0.2482 -0.8437 0.4760
vn -0.5703 -0.5248 0.6320
vn 0.4212 -0.8401 0.3419
vn 0.3361 -0.6898 0.6412
vn 0.2273 -0.8331 0.5043
vn -0.6918 -0.1833 -0.6985
vn -0.3679 0.5983 -0.7118
vn -0.5777 0.5920 -0.5620
vn 0.6267 -0.3946 0.6720
vn -0.6027 -0.2463 0.7590
vn -0.2599 0.0455 0.9646
vn 0.6449 0.7463 0.1645
vn 0.8150 0.5375 -0.2166
vn 0.0718 -0.8496 -0.5225
vn 0.1666 0.5668 -0.8068
vn 0.3140 -0.0323 -0.9489
vn 0.2446 0.0164 -0.9695
vn -0.0367 -0.1964 -0.9798
vn -0.5728 0.3489 -0.7417
vn -0.4403 -0.1031 -0.8919
vn 0.2879 0.6361 -0.7159
vn -0.2216 0.7486 -0.6249
vn -0.2905 0.6899 0.6630
vn -0.0000 0.9136 0.4066
vn -0.6314 0.6314 -0.4502
vn 0.2579 -0.7398 -0.6214
vn 0.2905 -0.6899 0.6630
vn -0.0000 -0.9136 0.4066
vn 0.6314 -0.6314 -0.4502
vn 0.7020 0.3651 0.6115
vn 0.6565 0.6565 -0.3715
vn 0.6731 0.3289 0.6623
vn -0.7228 -0.3003 0.6224
vn -0.6788 -0.3290 -0.6564
vn -0.6355 -0.6355 -0.4384
vn 0.5468 -0.0000 -0.8373
vn 0.1142 -0.7204 0.6841
vn -0.1583 0.5006 0.8511
vn -0.4146 0.0952 0.9050
vn 0.7204 0.3035 0.6236
vn -0.2849 0.8198 -0.4968
vn -0.8357 0.2168 0.5046
vn -0.4785 0.7468 0.4619
vn -0.9602 -0.0785 -0.2680
vn 0.8162 -0.2409 0.5252
vn -0.1833 0.0608 0.9812
vn 0.0557 -0.3558 0.9329
vn -0.9971 0.0524 -0.0547
vn -0.3726 -0.6581 0.6543
vn -0.6654 -0.0949 0.7404
vn -0.4140 -0.8612 -0.2949
vn 0.8633 0.4464 -0.2353
vn 0.9567 -0.0241 -0.2900
vn 0.7722 -0.4248 0.4725
vn 0.8953 0.0398 -0.4436
vn 0.5535 -0.0398 0.8319
vn 0.1830 -0.7071 -0.6830
vn -0.1472 -0.7495 0.6454
vn -0.1830 -0.7071 0.6830
vn 0.3970 -0.8414 -0.3666
vn 0.2894 0.6756 0.6781
vn 0.3965 0.8439 -0.3615
vn -0.1830 0.7071 0.6830
vn 0.1830 0.7071 -0.6830
vn -0.1830 0.7071 -0.6830
vn -0.1830 -0.7071 -0.6830
vn -0.1952 0.7495 -0.6325
vn -0.4907 -0.5576 -0.6695
vn -0.5710 0.6270 -0.5300
vn -0.8953 0.0398 -0.4436
vn 0.1830 -0.7071 0.6830
vn 0.1830 0.7071 0.6830
vn 0.1472 -0.7495 0.6454
vn -0.0902 0.5576 0.8252
vn -0.2295 -0.6270 0.7444
vn -0.5535 -0.0398 0.8319
vn 0.1627 -0.8837 0.4388
vn -0.4938 0.1072 0.8629
vn -0.6221 -0.3319 0.7091
vn 0.4312 0.1889 0.8823
vn -0.9554 -0.1578 0.2496
vn 0.1184 0.2792 -0.9529
vn -0.8030 -0.1646 -0.5728
vn -0.4288 0.8907 0.1512
vn -0.0218 0.0485 0.9986
vn 0.1368 0.4841 0.8643
vn -0.8131 -0.1605 0.5595
vn 0.6718 0.3146 0.6706
vn 0.4151 -0.3851 -0.8242
vn 0.9700 0.2193 -0.1050
vn 0.9652 -0.1887 0.1810
vn 0.0552 0.1502 0.9871
vn 0.2982 -0.2611 0.9181
vn -0.9926 0.0969 0.0738
vn -0.1672 -0.6029 0.7801
vn -0.4613 -0.0439 0.8861
vn -0.4296 -0.9019 0.0443
vn 0.8107 0.2987 -0.5035
vn 0.0085 0.9479 0.3185
vn -0.2676 -0.1047 0.9578
vn 0.1041 0.2029 0.9737
vn -0.9127 0.1935 0.3599
vn 0.0572 -0.9966 -0.0588
vn 0.5301 -0.1841 0.8277
vn 0.0176 -0.5684 0.8226
vn 0.9487 -0.2957 0.1122
vn 0.0763 -0.9609 -0.2663
vn 0.7334 -0.6255 -0.2663
vn -0.0000 -0.8764 0.4816
vn 0.6235 0.3038 0.7204
vn 0.5760 0.2348 0.7830
vn 0.6490 -0.2434 0.7208
vn -0.1335 0.5413 0.8302
vn -0.2481 -0.6471 0.7209
vn -0.5679 0.2850 0.7722
vn -0.6808 0.6807 -0.2705
vn 0.6794 0.6794 -0.2771
vn -0.0763 0.9609 -0.2663
vn -0.9250 -0.0000 0.3800
vn -0.9609 0.0763 -0.2663
vn -0.6794 -0.6794 -0.2771
vn 0.9627 -0.0000 -0.2705
vn -0.4648 -0.4396 -0.7686
vn 0.2893 -0.2079 -0.9344
vn -0.1131 -0.5346 0.8375
vn -0.0875 0.1782 0.9801
vn 0.0670 -0.2885 -0.9551
vn 0.6714 -0.0946 0.7351
vn -0.9383 -0.0000 0.3457
vn -0.7736 0.4104 0.4829
vn 0.4354 -0.2479 0.8654
vt 0.593750 0.475000
vt 0.593750 0.457534
vt 0.593750 0.422601
vt 0.593750 0.399640
vt 0.593750 0.331304
vt 0.593750 0.386582
vt 0.593750 0.323234
vt 0.593750 0.280380
vt 0.593750 0.275000
vt 0.593750 0.344363
vt 0.593750 0.297792
vt 0.593750 0.357422
vt 0.593750 0.289086
vt 0.593750 0.378511
vt 0.593750 0.420770
vt 0.593750 0.365493
vt 0.593750 0.303173
vt 0.593750 0.427279
vt 0.593750 0.417485
vt 0.593750 0.411431
vt 0.593750 0.437073
vt 0.593750 0.443126
vt 0.593750 0.412699
vt 0.718750 0.172602
vt 0.718750 0.148001
vt 0.718750 0.218001
vt 0.718750 0.174946
vt 0.718750 0.225000
vt 0.718750 0.179612
vt 0.718750 0.025000
s 1
usemtl colormap.345
f 3/1/1 2/1/2 1/1/3
f 2/1/2 3/1/1 4/1/4
f 2/1/2 4/1/4 5/1/5
f 5/1/5 4/1/4 6/1/6
f 5/1/5 6/1/6 7/1/7
f 7/1/7 6/1/6 8/1/8
f 11/2/9 10/3/10 9/3/11
f 15/2/12 14/3/13 13/3/14
f 14/3/13 15/2/12 16/2/15
f 19/2/16 18/3/17 17/3/18
f 12/2/19 21/3/20 10/3/10
f 21/3/20 12/2/19 22/2/21
f 16/2/15 9/3/11 14/3/13
f 9/3/11 16/2/15 11/2/9
f 23/3/22 15/2/12 13/3/14
f 15/2/12 8/1/8 6/1/6
f 8/1/8 20/2/23 7/1/7
f 16/2/15 6/1/6 4/1/4
f 3/1/1 16/2/15 4/1/4
f 26/4/24 27/5/25 28/6/26
f 31/7/27 30/8/28 29/5/29
f 30/8/28 31/7/27 32/9/30
f 35/10/31 34/11/32 33/12/33
f 34/11/32 35/10/31 36/13/34
f 29/5/29 37/14/35 31/7/27
f 37/14/35 29/5/29 38/6/36
f 41/15/37 40/16/38 39/16/39
f 40/16/38 41/15/37 42/15/40
f 44/14/41 27/5/25 43/7/42
f 27/5/25 44/14/41 28/6/26
f 47/11/43 25/10/44 46/12/45
f 46/12/45 49/17/46 47/11/43
f 49/17/46 46/12/45 39/16/39
f 28/6/26 51/18/47 26/4/24
f 51/18/47 28/6/26 52/19/48
f 53/20/49 44/14/41 37/14/35
f 50/17/50 33/12/33 34/11/32
f 33/12/33 50/17/50 40/16/38
f 55/8/51 25/10/44 48/13/52
f 25/10/44 55/8/51 27/5/25
f 30/8/28 34/11/32 36/13/34
f 34/11/32 30/8/28 32/9/30
f 34/11/32 32/9/30 50/17/50
f 50/17/50 32/9/30 49/17/46
f 49/17/46 32/9/30 58/9/53
f 49/17/46 58/9/53 55/8/51
f 55/8/51 43/7/42 27/5/25
f 32/9/30 43/7/42 58/9/53
f 30/8/28 35/10/31 29/5/29
f 63/21/54 62/19/55 61/18/56
f 62/19/55 63/21/54 56/22/57
f 62/19/55 56/22/57 53/20/49
f 53/20/49 56/22/57 57/22/58
f 52/19/48 64/21/59 51/18/47
f 38/6/36 61/18/56 62/19/55
f 53/20/49 38/6/36 62/19/55
f 63/21/54 59/4/60 45/23/61
f 59/4/60 63/21/54 61/18/56
f 41/15/37 64/21/59 57/22/58
f 64/21/59 41/15/37 60/23/62
f 28/6/26 54/20/63 52/19/48
f 45/23/61 35/10/31 33/12/33
f 35/10/31 45/23/61 59/4/60
f 26/4/24 64/21/59 60/23/62
f 25/10/44 60/23/62 46/12/45
f 60/23/62 25/10/44 26/4/24
f 42/15/40 63/21/54 45/23/61
f 63/21/54 42/15/40 56/22/57
f 67/5/64 66/4/65 65/10/66
f 66/4/65 67/5/64 68/6/67
f 70/8/68 71/7/69 72/9/70
f 69/5/71 77/14/72 71/7/69
f 77/14/72 69/5/71 78/6/73
f 81/15/74 80/16/75 79/16/76
f 80/16/75 81/15/74 82/15/77
f 84/14/78 67/5/64 83/7/79
f 67/5/64 84/14/78 68/6/67
f 80/16/75 85/23/80 73/12/81
f 85/23/80 80/16/75 82/15/77
f 79/16/76 90/17/82 89/17/83
f 90/17/82 79/16/76 80/16/75
f 86/12/84 89/17/83 87/11/85
f 89/17/83 86/12/84 79/16/76
f 68/6/67 91/18/86 66/4/65
f 91/18/86 68/6/67 92/19/87
f 73/12/81 90/17/82 80/16/75
f 95/8/88 65/10/66 88/13/89
f 65/10/66 95/8/88 67/5/64
f 81/15/74 96/22/90 82/15/77
f 96/22/90 81/15/74 97/22/91
f 70/8/68 74/11/92 76/13/93
f 74/11/92 70/8/68 72/9/70
f 74/11/92 72/9/70 90/17/82
f 89/17/83 98/9/94 95/8/88
f 89/17/83 95/8/88 87/11/85
f 87/11/85 95/8/88 88/13/89
f 83/7/79 95/8/88 98/9/94
f 99/4/95 69/5/71 75/10/96
f 100/23/97 79/16/76 86/12/84
f 72/9/70 83/7/79 98/9/94
f 83/7/79 72/9/70 71/7/69
f 75/10/96 70/8/68 76/13/93
f 77/14/72 83/7/79 71/7/69
f 83/7/79 77/14/72 84/14/78
f 102/19/98 103/21/99 96/22/90
f 94/20/100 96/22/90 93/20/101
f 93/20/101 96/22/90 97/22/91
f 93/20/101 97/22/91 92/19/87
f 92/19/87 97/22/91 104/21/102
f 94/20/100 78/6/73 102/19/98
f 81/15/74 104/21/102 97/22/91
f 104/21/102 81/15/74 100/23/97
f 85/23/80 75/10/96 73/12/81
f 104/21/102 66/4/65 91/18/86
f 103/21/99 82/15/77 96/22/90
f 111/7/103 110/8/104 109/5/105
f 110/8/104 111/7/103 112/9/106
f 109/5/105 117/14/107 111/7/103
f 117/14/107 109/5/105 118/6/108
f 120/16/109 125/23/110 113/12/111
f 125/23/110 120/16/109 122/15/112
f 129/17/113 126/12/114 119/16/115
f 108/6/116 131/18/117 106/4/118
f 131/18/117 108/6/116 132/19/119
f 133/20/120 124/14/121 117/14/107
f 130/17/122 113/12/111 114/11/123
f 113/12/111 130/17/122 120/16/109
f 135/8/124 105/10/125 128/13/126
f 105/10/125 135/8/124 107/5/127
f 121/15/128 136/22/129 122/15/112
f 136/22/129 121/15/128 137/22/130
f 130/17/122 112/9/106 129/17/113
f 129/17/113 135/8/124 127/11/131
f 127/11/131 135/8/124 128/13/126
f 123/7/132 135/8/124 138/9/133
f 135/8/124 123/7/132 107/5/127
f 140/23/134 119/16/115 126/12/114
f 112/9/106 123/7/132 138/9/133
f 115/10/135 110/8/104 116/13/136
f 123/7/132 117/14/107 124/14/121
f 133/20/120 137/22/130 134/20/137
f 118/6/108 141/18/138 142/19/139
f 118/6/108 133/20/120 117/14/107
f 143/21/140 139/4/141 125/23/110
f 121/15/128 144/21/142 137/22/130
f 134/20/137 108/6/116 124/14/121
f 106/4/118 144/21/142 140/23/134
f 144/21/142 106/4/118 131/18/117
f 122/15/112 143/21/140 125/23/110
f 147/5/143 146/4/144 145/10/145
f 146/4/144 147/5/143 148/6/146
f 150/8/147 151/7/148 152/9/149
f 155/10/150 154/11/151 153/12/152
f 149/5/153 157/14/154 151/7/148
f 157/14/154 149/5/153 158/6/155
f 164/14/156 147/5/143 163/7/157
f 147/5/143 164/14/156 148/6/146
f 165/23/158 160/16/159 162/15/160
f 167/11/161 145/10/145 166/12/162
f 170/17/163 159/16/164 160/16/159
f 169/17/165 166/12/162 159/16/164
f 148/6/146 171/18/166 146/4/144
f 171/18/166 148/6/146 172/19/167
f 173/20/168 164/14/156 157/14/154
f 164/14/156 173/20/168 174/20/169
f 170/17/163 153/12/152 154/11/151
f 153/12/152 170/17/163 160/16/159
f 176/22/170 161/15/171 177/22/172
f 175/8/173 163/7/157 147/5/143
f 149/5/153 179/4/174 158/6/155
f 180/23/175 159/16/164 166/12/162
f 155/10/150 150/8/147 156/13/176
f 150/8/147 155/10/150 149/5/153
f 183/21/177 182/19/178 181/18/179
f 182/19/178 183/21/177 176/22/170
f 182/19/178 176/22/170 173/20/168
f 173/20/168 176/22/170 177/22/172
f 181/18/179 158/6/155 179/4/174
f 183/21/177 179/4/174 165/23/158
f 161/15/171 184/21/180 177/22/172
f 165/23/158 155/10/150 153/12/152
f 155/10/150 165/23/158 179/4/174
f 145/10/145 180/23/175 166/12/162
f 180/23/175 145/10/145 146/4/144
f 162/15/160 183/21/177 165/23/158
f 183/21/177 162/15/160 176/22/170
f 191/7/181 190/8/182 189/5/183
f 190/8/182 191/7/181 192/9/184
f 194/11/185 195/10/186 196/13/187
f 189/5/183 197/14/188 191/7/181
f 201/15/189 200/16/190 199/16/191
f 200/16/190 201/15/189 202/15/192
f 204/14/193 187/5/194 203/7/195
f 187/5/194 204/14/193 188/6/196
f 207/11/197 185/10/198 206/12/199
f 185/10/198 207/11/197 208/13/200
f 188/6/196 211/18/201 186/4/202
f 211/18/201 188/6/196 212/19/203
f 204/14/193 213/20/204 214/20/205
f 215/8/206 185/10/198 208/13/200
f 201/15/189 216/22/207 202/15/192
f 190/8/182 194/11/185 196/13/187
f 194/11/185 190/8/182 209/17/208
f 209/17/208 190/8/182 192/9/184
f 209/17/208 192/9/184 210/17/209
f 210/17/209 192/9/184 218/9/210
f 207/11/197 215/8/206 208/13/200
f 203/7/195 215/8/206 218/9/210
f 219/4/211 189/5/183 195/10/186
f 189/5/183 219/4/211 198/6/212
f 220/23/213 199/16/191 206/12/199
f 199/16/191 220/23/213 201/15/189
f 203/7/195 192/9/184 191/7/181
f 195/10/186 190/8/182 196/13/187
f 190/8/182 195/10/186 189/5/183
f 197/14/188 203/7/195 191/7/181
f 222/19/214 223/21/215 213/20/204
f 198/6/212 213/20/204 197/14/188
f 213/20/204 198/6/212 222/19/214
f 223/21/215 219/4/211 205/23/216
f 201/15/189 224/21/217 217/22/218
f 205/23/216 195/10/186 193/12/219
f 195/10/186 205/23/216 219/4/211
f 186/4/202 224/21/217 220/23/213
f 224/21/217 186/4/202 211/18/201
f 185/10/198 220/23/213 206/12/199
f 227/5/220 226/4/221 225/10/222
f 226/4/221 227/5/220 228/6/223
f 231/7/224 230/8/225 229/5/226
f 230/8/225 231/7/224 232/9/227
f 229/5/226 237/14/228 231/7/224
f 237/14/228 229/5/226 238/6/229
f 240/16/230 241/15/231 242/15/232
f 244/14/233 227/5/220 243/7/234
f 240/16/230 245/23/235 233/12/236
f 245/23/235 240/16/230 242/15/232
f 247/11/237 225/10/222 246/12/238
f 225/10/222 247/11/237 248/13/239
f 239/16/240 250/17/241 249/17/242
f 250/17/241 239/16/240 240/16/230
f 249/17/242 246/12/238 239/16/240
f 228/6/223 251/18/243 226/4/221
f 244/14/233 253/20/244 254/20/245
f 250/17/241 233/12/236 234/11/246
f 233/12/236 250/17/241 240/16/230
f 255/8/247 225/10/222 248/13/239
f 234/11/246 230/8/225 232/9/227
f 234/11/246 232/9/227 250/17/241
f 249/17/242 232/9/227 258/9/248
f 249/17/242 258/9/248 255/8/247
f 259/4/249 229/5/226 235/10/250
f 229/5/226 259/4/249 238/6/229
f 239/16/240 260/23/251 241/15/231
f 237/14/228 243/7/234 231/7/224
f 243/7/234 237/14/228 244/14/233
f 262/19/252 263/21/253 256/22/254
f 262/19/252 256/22/254 253/20/244
f 253/20/244 256/22/254 257/22/255
f 253/20/244 257/22/255 254/20/245
f 254/20/245 257/22/255 252/19/256
f 252/19/256 257/22/255 264/21/257
f 252/19/256 264/21/257 251/18/243
f 261/18/258 238/6/229 259/4/249
f 253/20/244 238/6/229 262/19/252
f 263/21/253 259/4/249 245/23/235
f 259/4/249 263/21/253 261/18/258
f 241/15/231 264/21/257 257/22/255
f 245/23/235 235/10/250 233/12/236
f 225/10/222 260/23/251 246/12/238
f 267/24/259 266/25/260 265/25/261
f 266/25/260 267/24/259 268/24/262
f 271/24/263 270/25/264 269/25/265
f 270/25/264 271/24/263 272/24/266
f 274/25/267 275/24/268 276/25/269
f 279/25/270 278/24/271 277/24/272
f 275/24/268 265/25/261 276/25/269
f 265/25/261 275/24/268 267/24/259
f 270/25/264 276/25/269 265/25/261
f 267/24/259 21/24/20 17/24/18
f 275/24/268 21/24/20 267/24/259
f 267/24/259 18/24/17 268/24/262
f 275/24/268 10/24/10 21/24/20
f 10/24/10 275/24/268 273/24/273
f 272/24/266 10/24/10 273/24/273
f 9/24/11 272/24/266 271/24/263
f 9/24/11 271/24/263 14/24/13
f 268/24/262 18/24/17 23/24/22
f 14/24/13 271/24/263 277/24/272
f 13/24/14 277/24/272 23/24/22
f 283/26/274 282/27/275 281/27/276
f 282/27/275 283/26/274 284/26/277
f 287/28/278 286/29/279 285/29/280
f 286/29/279 287/28/278 288/28/281
f 287/28/278 283/26/274 288/28/281
f 283/26/274 287/28/278 284/26/277
f 288/28/281 281/27/276 286/29/279
f 281/27/276 288/28/281 283/26/274
f 282/27/275 287/28/278 285/29/280
f 287/28/278 282/27/275 284/26/277
f 291/26/282 290/27/283 289/27/284
f 295/28/285 294/29/286 293/29/287
f 294/29/286 295/28/285 296/28/288
f 296/28/288 292/26/289 291/26/282
f 292/26/289 296/28/288 295/28/285
f 296/28/288 289/27/284 294/29/286
f 289/27/284 296/28/288 291/26/282
f 290/27/283 295/28/285 293/29/287
f 295/28/285 290/27/283 292/26/289
f 303/28/290 302/30/291 301/28/292
f 302/30/291 303/28/290 304/30/293
f 307/28/294 306/30/295 305/30/296
f 306/30/295 307/28/294 308/28/297
f 297/30/298 303/28/290 299/28/299
f 306/30/295 298/30/300 305/30/296
f 308/28/297 303/28/290 301/28/292
f 303/28/290 308/28/297 299/28/299
f 299/28/299 308/28/297 307/28/294
f 299/28/299 307/28/294 300/28/301
f 312/28/302 319/28/303 311/28/304
f 319/28/303 320/28/305 311/28/304
f 311/28/304 320/28/305 315/28/306
f 313/28/307 315/28/306 320/28/305
f 317/30/308 310/30/309 318/30/310
f 310/30/309 309/30/311 318/30/310
f 318/30/310 309/30/311 314/30/312
f 316/30/313 314/30/312 309/30/311
f 313/28/307 320/28/305 314/30/312
f 318/30/310 314/30/312 320/28/305
f 311/28/304 315/28/306 309/30/311
f 316/30/313 309/30/311 315/28/306
f 320/28/305 319/28/303 318/30/310
f 317/30/308 318/30/310 319/28/303
f 316/30/313 315/28/306 314/30/312
f 313/28/307 314/30/312 315/28/306
f 312/28/302 311/28/304 310/30/309
f 309/30/311 310/30/309 311/28/304
f 323/26/314 322/27/315 321/27/316
f 322/27/315 323/26/314 324/26/317
f 326/29/318 327/28/319 328/28/320
f 327/28/319 323/26/314 328/28/320
f 328/28/320 321/27/316 326/29/318
f 321/27/316 328/28/320 323/26/314
f 327/28/319 322/27/315 324/26/317
f 331/26/321 330/27/322 329/27/323
f 330/27/322 331/26/321 332/26/324
f 334/29/325 335/28/326 336/28/327
f 335/28/326 331/26/321 336/28/327
f 331/26/321 335/28/326 332/26/324
f 336/28/327 329/27/323 334/29/325
f 329/27/323 336/28/327 331/26/321
f 335/28/326 330/27/322 332/26/324
f 339/26/328 338/27/329 337/27/330
f 343/28/331 342/29/332 341/29/333
f 342/29/332 343/28/331 344/28/334
f 343/28/331 339/26/328 344/28/334
f 339/26/328 343/28/331 340/26/335
f 344/28/334 337/27/330 342/29/332
f 338/27/329 343/28/331 341/29/333
f 343/28/331 338/27/329 340/26/335
f 347/26/336 346/27/337 345/27/338
f 346/27/337 347/26/336 348/26/339
f 351/28/340 350/29/341 349/29/342
f 350/29/341 351/28/340 352/28/343
f 351/28/340 347/26/336 352/28/343
f 361/30/344 357/30/345 359/28/346
f 353/28/347 355/28/348 358/28/349
f 358/28/349 355/28/348 359/28/346
f 359/28/346 367/28/350 360/28/351
f 367/28/350 366/28/352 360/28/351
f 366/28/352 367/28/350 365/30/353
f 356/30/354 368/30/355 355/28/348
f 364/28/356 363/30/357 360/28/351
f 362/30/358 360/28/351 363/30/357
f 366/28/352 365/30/353 364/28/356
f 362/30/358 361/30/344 360/28/351
f 359/28/346 360/28/351 361/30/344
f 353/28/347 358/28/349 354/30/359
f 357/30/345 354/30/359 358/28/349
f 356/30/354 355/28/348 354/30/359
f 353/28/347 354/30/359 355/28/348
f 10/3/10 11/2/9 12/2/19
f 18/3/17 19/2/16 20/2/23
f 15/2/12 23/3/22 24/2/360
f 18/3/17 24/2/360 23/3/22
f 24/2/360 18/3/17 20/2/23
f 22/2/21 17/3/18 21/3/20
f 17/3/18 22/2/21 19/2/16
f 11/2/9 1/1/3 12/2/19
f 1/1/3 11/2/9 3/1/1
f 8/1/8 15/2/12 24/2/360
f 20/2/23 8/1/8 24/2/360
f 6/1/6 16/2/15 15/2/12
f 7/1/7 19/2/16 5/1/5
f 19/2/16 7/1/7 20/2/23
f 1/1/3 22/2/21 12/2/19
f 22/2/21 1/1/3 2/1/2
f 2/1/2 19/2/16 22/2/21
f 19/2/16 2/1/2 5/1/5
f 16/2/15 3/1/1 11/2/9
f 27/5/25 26/4/24 25/10/44
f 40/16/38 45/23/61 33/12/33
f 45/23/61 40/16/38 42/15/40
f 25/10/44 47/11/43 48/13/52
f 39/16/39 50/17/50 49/17/46
f 50/17/50 39/16/39 40/16/38
f 44/14/41 53/20/49 54/20/63
f 41/15/37 56/22/57 42/15/40
f 56/22/57 41/15/37 57/22/58
f 49/17/46 55/8/51 47/11/43
f 47/11/43 55/8/51 48/13/52
f 43/7/42 55/8/51 58/9/53
f 59/4/60 29/5/29 35/10/31
f 29/5/29 59/4/60 38/6/36
f 60/23/62 39/16/39 46/12/45
f 39/16/39 60/23/62 41/15/37
f 43/7/42 32/9/30 31/7/27
f 35/10/31 30/8/28 36/13/34
f 37/14/35 43/7/42 31/7/27
f 43/7/42 37/14/35 44/14/41
f 53/20/49 57/22/58 54/20/63
f 54/20/63 57/22/58 52/19/48
f 52/19/48 57/22/58 64/21/59
f 61/18/56 38/6/36 59/4/60
f 38/6/36 53/20/49 37/14/35
f 54/20/63 28/6/26 44/14/41
f 64/21/59 26/4/24 51/18/47
f 71/7/69 70/8/68 69/5/71
f 75/10/96 74/11/92 73/12/81
f 74/11/92 75/10/96 76/13/93
f 87/11/85 65/10/66 86/12/84
f 65/10/66 87/11/85 88/13/89
f 77/14/72 93/20/101 84/14/78
f 93/20/101 77/14/72 94/20/100
f 90/17/82 73/12/81 74/11/92
f 90/17/82 72/9/70 89/17/83
f 89/17/83 72/9/70 98/9/94
f 95/8/88 83/7/79 67/5/64
f 69/5/71 99/4/95 78/6/73
f 79/16/76 100/23/97 81/15/74
f 70/8/68 75/10/96 69/5/71
f 103/21/99 102/19/98 101/18/361
f 102/19/98 96/22/90 94/20/100
f 92/19/87 104/21/102 91/18/86
f 101/18/361 78/6/73 99/4/95
f 78/6/73 101/18/361 102/19/98
f 78/6/73 94/20/100 77/14/72
f 103/21/99 99/4/95 85/23/80
f 99/4/95 103/21/99 101/18/361
f 93/20/101 68/6/67 84/14/78
f 68/6/67 93/20/101 92/19/87
f 75/10/96 85/23/80 99/4/95
f 66/4/65 104/21/102 100/23/97
f 65/10/66 100/23/97 86/12/84
f 100/23/97 65/10/66 66/4/65
f 82/15/77 103/21/99 85/23/80
f 107/5/127 106/4/118 105/10/125
f 106/4/118 107/5/127 108/6/116
f 115/10/135 114/11/123 113/12/111
f 114/11/123 115/10/135 116/13/136
f 121/15/128 120/16/109 119/16/115
f 120/16/109 121/15/128 122/15/112
f 124/14/121 107/5/127 123/7/132
f 107/5/127 124/14/121 108/6/116
f 127/11/131 105/10/125 126/12/114
f 105/10/125 127/11/131 128/13/126
f 119/16/115 130/17/122 129/17/113
f 130/17/122 119/16/115 120/16/109
f 126/12/114 129/17/113 127/11/131
f 124/14/121 133/20/120 134/20/137
f 110/8/104 114/11/123 116/13/136
f 114/11/123 110/8/104 112/9/106
f 114/11/123 112/9/106 130/17/122
f 129/17/113 112/9/106 138/9/133
f 129/17/113 138/9/133 135/8/124
f 139/4/141 109/5/105 115/10/135
f 109/5/105 139/4/141 118/6/108
f 119/16/115 140/23/134 121/15/128
f 123/7/132 112/9/106 111/7/103
f 110/8/104 115/10/135 109/5/105
f 117/14/107 123/7/132 111/7/103
f 143/21/140 142/19/139 141/18/138
f 142/19/139 143/21/140 133/20/120
f 133/20/120 143/21/140 136/22/129
f 133/20/120 136/22/129 137/22/130
f 134/20/137 137/22/130 132/19/119
f 132/19/119 137/22/130 144/21/142
f 132/19/119 144/21/142 131/18/117
f 141/18/138 118/6/108 139/4/141
f 133/20/120 118/6/108 142/19/139
f 139/4/141 143/21/140 141/18/138
f 144/21/142 121/15/128 140/23/134
f 108/6/116 134/20/137 132/19/119
f 125/23/110 115/10/135 113/12/111
f 115/10/135 125/23/110 139/4/141
f 105/10/125 140/23/134 126/12/114
f 140/23/134 105/10/125 106/4/118
f 143/21/140 122/15/112 136/22/129
f 151/7/148 150/8/147 149/5/153
f 154/11/151 155/10/150 156/13/176
f 161/15/171 160/16/159 159/16/164
f 160/16/159 161/15/171 162/15/160
f 160/16/159 165/23/158 153/12/152
f 145/10/145 167/11/161 168/13/362
f 159/16/164 170/17/163 169/17/165
f 166/12/162 169/17/165 167/11/161
f 175/8/173 145/10/145 168/13/362
f 145/10/145 175/8/173 147/5/143
f 161/15/171 176/22/170 162/15/160
f 150/8/147 154/11/151 156/13/176
f 154/11/151 150/8/147 152/9/149
f 154/11/151 152/9/149 170/17/163
f 170/17/163 152/9/149 169/17/165
f 169/17/165 152/9/149 178/9/363
f 169/17/165 178/9/363 167/11/161
f 167/11/161 178/9/363 175/8/173
f 167/11/161 175/8/173 168/13/362
f 163/7/157 175/8/173 178/9/363
f 179/4/174 149/5/153 155/10/150
f 159/16/164 180/23/175 161/15/171
f 151/7/148 178/9/363 152/9/149
f 178/9/363 151/7/148 163/7/157
f 157/14/154 163/7/157 151/7/148
f 163/7/157 157/14/154 164/14/156
f 173/20/168 177/22/172 174/20/169
f 174/20/169 177/22/172 172/19/167
f 172/19/167 177/22/172 184/21/180
f 172/19/167 184/21/180 171/18/166
f 158/6/155 181/18/179 182/19/178
f 158/6/155 173/20/168 157/14/154
f 173/20/168 158/6/155 182/19/178
f 179/4/174 183/21/177 181/18/179
f 184/21/180 161/15/171 180/23/175
f 174/20/169 148/6/146 164/14/156
f 148/6/146 174/20/169 172/19/167
f 146/4/144 184/21/180 180/23/175
f 184/21/180 146/4/144 171/18/166
f 187/5/194 186/4/202 185/10/198
f 186/4/202 187/5/194 188/6/196
f 195/10/186 194/11/185 193/12/219
f 197/14/188 189/5/183 198/6/212
f 200/16/190 205/23/216 193/12/219
f 205/23/216 200/16/190 202/15/192
f 210/17/209 200/16/190 209/17/208
f 200/16/190 210/17/209 199/16/191
f 206/12/199 210/17/209 207/11/197
f 210/17/209 206/12/199 199/16/191
f 213/20/204 204/14/193 197/14/188
f 209/17/208 193/12/219 194/11/185
f 193/12/219 209/17/208 200/16/190
f 185/10/198 215/8/206 187/5/194
f 216/22/207 201/15/189 217/22/218
f 210/17/209 218/9/210 207/11/197
f 207/11/197 218/9/210 215/8/206
f 215/8/206 203/7/195 187/5/194
f 192/9/184 203/7/195 218/9/210
f 203/7/195 197/14/188 204/14/193
f 223/21/215 222/19/214 221/18/364
f 213/20/204 223/21/215 216/22/207
f 213/20/204 216/22/207 217/22/218
f 213/20/204 217/22/218 214/20/205
f 214/20/205 217/22/218 212/19/203
f 212/19/203 217/22/218 224/21/217
f 212/19/203 224/21/217 211/18/201
f 221/18/364 198/6/212 219/4/211
f 198/6/212 221/18/364 222/19/214
f 219/4/211 223/21/215 221/18/364
f 224/21/217 201/15/189 220/23/213
f 214/20/205 188/6/196 204/14/193
f 188/6/196 214/20/205 212/19/203
f 220/23/213 185/10/198 186/4/202
f 202/15/192 223/21/215 205/23/216
f 223/21/215 202/15/192 216/22/207
f 235/10/250 234/11/246 233/12/236
f 234/11/246 235/10/250 236/13/365
f 241/15/231 240/16/230 239/16/240
f 227/5/220 244/14/233 228/6/223
f 246/12/238 249/17/242 247/11/237
f 251/18/243 228/6/223 252/19/256
f 253/20/244 244/14/233 237/14/228
f 225/10/222 255/8/247 227/5/220
f 241/15/231 256/22/254 242/15/232
f 256/22/254 241/15/231 257/22/255
f 230/8/225 234/11/246 236/13/365
f 250/17/241 232/9/227 249/17/242
f 249/17/242 255/8/247 247/11/237
f 247/11/237 255/8/247 248/13/239
f 243/7/234 255/8/247 258/9/248
f 255/8/247 243/7/234 227/5/220
f 260/23/251 239/16/240 246/12/238
f 232/9/227 243/7/234 258/9/248
f 243/7/234 232/9/227 231/7/224
f 235/10/250 230/8/225 236/13/365
f 230/8/225 235/10/250 229/5/226
f 263/21/253 262/19/252 261/18/258
f 238/6/229 261/18/258 262/19/252
f 238/6/229 253/20/244 237/14/228
f 264/21/257 241/15/231 260/23/251
f 254/20/245 228/6/223 244/14/233
f 228/6/223 254/20/245 252/19/256
f 235/10/250 245/23/235 259/4/249
f 226/4/221 264/21/257 260/23/251
f 264/21/257 226/4/221 251/18/243
f 260/23/251 225/10/222 226/4/221
f 242/15/232 263/21/253 245/23/235
f 263/21/253 242/15/232 256/22/254
f 275/24/268 274/25/267 273/24/273
f 278/24/271 279/25/270 280/25/366
f 273/24/273 270/25/264 272/24/266
f 270/25/264 273/24/273 274/25/267
f 266/25/260 278/24/271 280/25/366
f 278/24/271 266/25/260 268/24/262
f 277/24/272 269/25/265 279/25/270
f 269/25/265 277/24/272 271/24/263
f 276/25/269 270/25/264 274/25/267
f 270/25/264 265/25/261 269/25/265
f 269/25/265 265/25/261 266/25/260
f 269/25/265 266/25/260 279/25/270
f 279/25/270 266/25/260 280/25/366
f 267/24/259 17/24/18 18/24/17
f 10/24/10 272/24/266 9/24/11
f 268/24/262 23/24/22 278/24/271
f 23/24/22 277/24/272 278/24/271
f 14/24/13 277/24/272 13/24/14
f 290/27/283 291/26/282 292/26/289
f 299/28/299 298/30/300 297/30/298
f 298/30/300 299/28/299 300/28/301
f 303/28/290 297/30/298 304/30/293
f 308/28/297 302/30/291 306/30/295
f 302/30/291 308/28/297 301/28/292
f 297/30/298 302/30/291 304/30/293
f 302/30/291 297/30/298 306/30/295
f 306/30/295 297/30/298 298/30/300
f 327/28/319 326/29/318 325/29/367
f 323/26/314 327/28/319 324/26/317
f 322/27/315 327/28/319 325/29/367
f 335/28/326 334/29/325 333/29/368
f 330/27/322 335/28/326 333/29/368
f 338/27/329 339/26/328 340/26/335
f 337/27/330 344/28/334 339/26/328
f 347/26/336 351/28/340 348/26/339
f 352/28/343 345/27/338 350/29/341
f 345/27/338 352/28/343 347/26/336
f 346/27/337 351/28/340 349/29/342
f 351/28/340 346/27/337 348/26/339
f 358/28/349 359/28/346 357/30/345
f 355/28/348 367/28/350 359/28/346
f 364/28/356 360/28/351 366/28/352
f 368/30/355 365/30/353 367/28/350
f 367/28/350 355/28/348 368/30/355
f 363/30/357 364/28/356 365/30/353
