# Blender 4.3.2
# www.blender.org
mtllib conveyor-sides.mtl
o conveyor-sides
v 0.500000 -0.450000 -0.200000
v 0.500000 -0.400000 -0.200000
v -0.500000 -0.450000 -0.200000
v -0.500000 -0.400000 -0.200000
v 0.500000 0.500000 -0.000000
v 0.500000 0.400000 -0.000000
v -0.500000 0.500000 -0.000000
v -0.500000 0.400000 -0.000000
v -0.500000 0.400000 -0.200000
v 0.500000 0.400000 -0.200000
v 0.500000 0.500000 -0.150000
v -0.500000 0.500000 -0.150000
v 0.500000 -0.400000 0.000000
v 0.500000 -0.500000 0.000000
v -0.500000 -0.400000 0.000000
v -0.500000 -0.500000 0.000000
v 0.500000 -0.500000 -0.150000
v -0.500000 -0.500000 -0.150000
v 0.500000 0.450000 -0.200000
v -0.500000 0.450000 -0.200000
v 0.400000 -0.400000 -0.400000
v 0.500000 -0.400000 -0.300000
v 0.400000 0.400000 -0.400000
v 0.500000 0.400000 -0.300000
v 0.400000 0.400000 -0.000000
v 0.400000 -0.400000 -0.000000
v -0.400000 0.400000 0.000000
v -0.400000 -0.400000 0.000000
v -0.500000 -0.400000 -0.100000
v -0.358579 -0.400000 -0.100000
v 0.500000 -0.400000 -0.100000
v -0.400000 -0.400000 -0.141421
v 0.358579 -0.400000 -0.100000
v 0.400000 -0.400000 -0.141421
v -0.500000 -0.400000 -0.300000
v -0.400000 -0.400000 -0.258579
v -0.358579 -0.400000 -0.300000
v 0.400000 -0.400000 -0.258579
v 0.358579 -0.400000 -0.300000
v -0.400000 -0.400000 -0.400000
v -0.500000 0.400000 -0.100000
v -0.500000 0.400000 -0.300000
v 0.500000 0.400000 -0.100000
v -0.358579 0.400000 -0.100000
v -0.400000 0.400000 -0.141421
v 0.358579 0.400000 -0.100000
v 0.400000 0.400000 -0.141421
v -0.400000 0.400000 -0.258579
v -0.358579 0.400000 -0.300000
v 0.400000 0.400000 -0.258579
v 0.358579 0.400000 -0.300000
v -0.400000 0.400000 -0.400000
v -0.400000 0.400000 -0.258579
v 0.400000 0.400000 -0.258579
v -0.400000 -0.400000 -0.258579
v 0.400000 -0.400000 -0.258579
vn -0.0000 -0.3827 -0.9239
vn -0.0000 -0.0000 -1.0000
vn -0.0000 -0.0000 1.0000
vn -0.0000 -1.0000 -0.0000
vn -0.0000 0.9239 -0.3827
vn -0.0000 1.0000 -0.0000
vn 1.0000 -0.0000 -0.0000
vn -1.0000 -0.0000 -0.0000
vn -0.0000 0.3827 -0.9239
vn -0.0000 -0.9239 -0.3827
vn 0.3827 -0.0000 -0.9239
vn 0.9239 -0.0000 -0.3827
vn -0.3827 -0.0000 0.9239
vn 0.3827 -0.0000 0.9239
vn -0.9239 -0.0000 0.3827
vn -0.9239 -0.0000 -0.3827
vn 0.9239 -0.0000 0.3827
vn -0.3827 -0.0000 -0.9239
vt 0.343750 0.225000
vt 0.343750 0.025000
vt 0.343750 0.175000
vt 0.218750 0.225000
vt 0.218750 0.175000
vt 0.218750 0.025000
vt 0.218750 0.075000
vt 0.218750 0.095711
vt 0.218750 0.154289
vt 0.093750 0.025000
vt 0.093750 0.066421
vt 0.093750 0.183579
vt 0.093750 0.225000
s 1
usemtl colormap.006
f 3/1/1 2/1/2 1/1/1
f 2/1/2 3/1/1 4/1/2
f 7/2/3 6/2/3 5/2/3
f 6/2/3 7/2/3 8/2/3
f 9/1/4 6/2/4 8/2/4
f 6/2/4 9/1/4 10/1/4
f 11/3/5 7/2/6 5/2/6
f 7/2/6 11/3/5 12/3/5
f 15/2/3 14/2/3 13/2/3
f 14/2/3 15/2/3 16/2/3
f 1/1/7 14/2/7 17/3/7
f 14/2/7 1/1/7 13/2/7
f 13/2/7 1/1/7 2/1/7
f 15/2/8 18/3/8 16/2/8
f 18/3/8 15/2/8 3/1/8
f 3/1/8 15/2/8 4/1/8
f 10/1/2 20/1/9 19/1/9
f 20/1/9 10/1/2 9/1/2
f 3/1/1 17/3/10 18/3/10
f 17/3/10 3/1/1 1/1/1
f 19/1/9 12/3/5 11/3/5
f 12/3/5 19/1/9 20/1/9
f 18/3/10 14/2/4 16/2/4
f 14/2/4 18/3/10 17/3/10
f 7/2/8 9/1/8 8/2/8
f 9/1/8 7/2/8 20/1/8
f 20/1/8 7/2/8 12/3/8
f 19/1/7 6/2/7 10/1/7
f 6/2/7 19/1/7 5/2/7
f 5/2/7 19/1/7 11/3/7
f 2/1/6 15/2/6 13/2/6
f 15/2/6 2/1/6 4/1/6
f 23/4/11 22/5/12 21/4/11
f 22/5/12 23/4/11 24/5/12
f 27/6/13 26/6/14 25/6/14
f 26/6/14 27/6/13 28/6/13
f 29/7/4 26/6/4 28/6/4
f 26/6/4 29/7/4 30/7/4
f 30/7/4 31/7/4 26/6/4
f 30/7/4 29/7/4 32/8/4
s 0
f 31/7/4 30/7/4 33/7/4
s 1
f 31/7/4 33/7/4 34/8/4
f 32/8/4 29/7/4 35/5/4
f 31/7/4 34/8/4 22/5/4
f 32/8/4 35/5/4 36/9/4
f 36/9/4 35/5/4 37/5/4
f 22/5/4 34/8/4 38/9/4
s 0
f 37/5/4 35/5/4 39/5/4
s 1
f 22/5/4 38/9/4 39/5/4
f 39/5/4 35/5/4 40/4/4
f 39/5/4 40/4/4 22/5/4
f 22/5/4 40/4/4 21/4/4
f 41/7/15 35/5/16 29/7/15
f 35/5/16 41/7/15 42/5/16
f 24/5/12 31/7/17 22/5/12
f 31/7/17 24/5/12 43/7/17
f 25/6/6 41/7/6 27/6/6
f 41/7/6 25/6/6 44/7/6
f 43/7/6 44/7/6 25/6/6
f 41/7/6 44/7/6 45/8/6
s 0
f 44/7/6 43/7/6 46/7/6
s 1
f 46/7/6 43/7/6 47/8/6
f 41/7/6 45/8/6 42/5/6
f 47/8/6 43/7/6 24/5/6
f 42/5/6 45/8/6 48/9/6
f 42/5/6 48/9/6 49/5/6
f 47/8/6 24/5/6 50/9/6
s 0
f 42/5/6 49/5/6 51/5/6
s 1
f 50/9/6 24/5/6 51/5/6
f 42/5/6 51/5/6 52/4/6
f 52/4/6 51/5/6 24/5/6
f 52/4/6 24/5/6 23/4/6
f 40/4/18 23/4/11 21/4/11
f 23/4/11 40/4/18 52/4/18
f 42/5/16 40/4/18 35/5/16
f 40/4/18 42/5/16 52/4/18
f 43/7/17 26/6/14 31/7/17
f 26/6/14 43/7/17 25/6/14
f 27/6/13 29/7/15 28/6/13
f 29/7/15 27/6/13 41/7/15
f 46/10/6 45/11/6 44/10/6
f 45/11/6 46/10/6 47/11/6
f 45/11/6 47/11/6 53/12/6
f 53/12/6 47/11/6 54/12/6
f 53/12/6 54/12/6 49/13/6
f 49/13/6 54/12/6 51/13/6
f 32/11/4 33/10/4 30/10/4
f 33/10/4 32/11/4 34/11/4
f 34/11/4 32/11/4 55/12/4
f 34/11/4 55/12/4 56/12/4
f 56/12/4 55/12/4 37/13/4
f 56/12/4 37/13/4 39/13/4
