# Blender 4.3.2
# www.blender.org
mtllib character-zombie.mtl
o character-zombie
v 0.130000 -0.100000 -0.483184
v 0.130000 0.100000 -0.483184
v -0.130000 -0.100000 -0.483184
v -0.130000 0.100000 -0.483184
v 0.130000 -0.100000 -0.284202
v 0.130000 0.100000 -0.284202
v -0.130000 -0.100000 -0.284202
v -0.130000 0.100000 -0.284202
v 0.130000 0.100000 -0.223184
v 0.130000 -0.100000 -0.223184
v -0.130000 0.100000 -0.223184
v -0.130000 -0.100000 -0.223184
v 0.233184 0.058296 -0.398184
v 0.100000 0.058296 -0.398184
v 0.233184 0.058296 -0.509776
v 0.100000 0.058296 -0.453980
v 0.155796 0.058296 -0.509776
v 0.155796 -0.053296 -0.509776
v 0.100000 -0.053296 -0.453980
v 0.262066 -0.053296 -0.509776
v 0.262066 -0.053296 -0.398184
v 0.100000 -0.053296 -0.398184
v 0.416004 -0.001547 -0.450617
v 0.392899 0.087727 -0.450617
v 0.369536 -0.013574 -0.498617
v 0.346430 0.075699 -0.498617
v 0.416004 -0.001547 -0.409343
v 0.392899 0.087727 -0.409343
v 0.228198 -0.050155 -0.409343
v 0.228198 -0.050155 -0.498617
v 0.205092 0.039119 -0.498617
v 0.205092 0.039119 -0.409343
v -0.392899 0.087727 -0.409343
v -0.392899 0.087727 -0.450617
v -0.205092 0.039119 -0.409343
v -0.205092 0.039119 -0.498617
v -0.346430 0.075699 -0.498617
v -0.369536 -0.013574 -0.498617
v -0.416004 -0.001547 -0.450617
v -0.416004 -0.001547 -0.409343
v -0.228198 -0.050155 -0.409343
v -0.228198 -0.050155 -0.498617
v -0.262066 -0.053296 -0.398184
v -0.262066 -0.053296 -0.509776
v -0.233184 0.058296 -0.398184
v -0.233184 0.058296 -0.509776
v -0.100000 -0.053296 -0.453980
v -0.100000 0.058296 -0.453980
v -0.155796 -0.053296 -0.509776
v -0.155796 0.058296 -0.509776
v -0.100000 -0.053296 -0.398184
v -0.100000 0.058296 -0.398184
v 0.130000 0.130000 -0.483184
v 0.130000 -0.130000 -0.483184
v -0.130000 0.130000 -0.483184
v -0.130000 -0.130000 -0.483184
v 0.130000 0.020000 -0.588184
v 0.130000 0.020000 -0.543184
v 0.130000 0.065000 -0.588184
v 0.130000 -0.020000 -0.543184
v 0.130000 0.130000 -0.678184
v 0.130000 0.065000 -0.678184
v 0.130000 -0.020000 -0.568184
v 0.130000 -0.130000 -0.568184
v -0.130000 -0.130000 -0.568184
v -0.130000 -0.020000 -0.543184
v -0.130000 -0.020000 -0.568184
v -0.130000 0.020000 -0.543184
v -0.130000 0.020000 -0.588184
v -0.130000 0.065000 -0.588184
v -0.130000 0.065000 -0.678184
v -0.130000 0.130000 -0.678184
v 0.190000 -0.020000 -0.621934
v 0.190000 -0.020000 -0.554434
v 0.190000 0.020000 -0.621934
v 0.190000 0.020000 -0.554434
v 0.130000 -0.020000 -0.633184
v 0.130000 0.020000 -0.633184
v -0.130000 -0.020000 -0.633184
v -0.130000 0.020000 -0.633184
v -0.190000 -0.020000 -0.621934
v -0.190000 0.020000 -0.621934
v -0.190000 0.020000 -0.554434
v -0.190000 -0.020000 -0.554434
v 0.092483 0.130000 -0.625979
v 0.092483 0.130000 -0.565843
v 0.032347 0.130000 -0.625979
v -0.032347 0.130000 -0.625979
v -0.032347 0.130000 -0.565843
v 0.032347 0.130000 -0.565843
v -0.092483 0.130000 -0.625979
v -0.092483 0.130000 -0.565843
v -0.034830 0.130000 -0.538326
v -0.034830 0.130000 -0.514051
v 0.034830 0.130000 -0.538326
v 0.034830 0.130000 -0.514051
v 0.130000 -0.130000 -0.743184
v 0.130000 -0.130000 -0.568184
v 0.130000 -0.000000 -0.743184
v 0.130000 -0.020000 -0.633184
v 0.130000 -0.020000 -0.568184
v 0.130000 0.020000 -0.633184
v 0.130000 0.130000 -0.743184
v 0.130000 0.065000 -0.678184
v 0.130000 0.130000 -0.678184
v 0.130000 0.020000 -0.588184
v 0.130000 0.065000 -0.588184
v -0.130000 -0.000000 -0.743184
v -0.104000 0.050000 -0.793184
v -0.130000 0.130000 -0.743184
v -0.104000 0.130000 -0.793184
v 0.104000 0.050000 -0.793184
v 0.104000 0.130000 -0.793184
v -0.130000 -0.130000 -0.568184
v -0.130000 -0.130000 -0.743184
v -0.130000 0.020000 -0.588184
v -0.130000 0.020000 -0.633184
v -0.130000 0.065000 -0.588184
v -0.130000 0.065000 -0.678184
v -0.130000 0.130000 -0.678184
v -0.130000 -0.020000 -0.633184
v -0.130000 -0.020000 -0.568184
v -0.092483 0.130000 -0.565843
v -0.092483 0.130000 -0.625979
v -0.032347 0.130000 -0.565843
v -0.032347 0.130000 -0.625979
v 0.032347 0.130000 -0.565843
v 0.032347 0.130000 -0.625979
v 0.092483 0.130000 -0.565843
v 0.092483 0.130000 -0.625979
v -0.034830 0.130000 -0.514051
v -0.034830 0.130000 -0.538326
v 0.034830 0.130000 -0.514051
v 0.034830 0.130000 -0.538326
v -0.018408 -0.075796 -0.000000
v -0.018408 0.100000 -0.000000
v -0.018408 -0.072706 -0.034484
v -0.018408 0.055796 -0.068968
v -0.018408 0.100000 -0.068968
v -0.130000 -0.075796 -0.000000
v -0.130000 -0.072706 -0.034484
v -0.130000 0.100000 -0.000000
v -0.130000 0.055796 -0.068968
v -0.130000 0.100000 -0.068968
v -0.018408 0.065796 -0.128834
v -0.130000 0.065796 -0.128834
v -0.018408 0.055796 -0.223184
v -0.130000 0.055796 -0.223184
v -0.018408 -0.055796 -0.223184
v -0.130000 -0.055796 -0.223184
v -0.130000 -0.072706 -0.034484
v -0.130000 -0.054251 -0.128834
v -0.130000 0.055796 -0.068968
v -0.018408 -0.054251 -0.128834
v -0.018408 0.055796 -0.068968
v -0.018408 -0.072706 -0.034484
v 0.018408 -0.075796 -0.000000
v 0.018408 -0.072706 -0.034484
v 0.018408 0.100000 -0.000000
v 0.018408 0.055796 -0.068968
v 0.018408 0.100000 -0.068968
v 0.130000 0.055796 -0.068968
v 0.130000 0.100000 -0.068968
v 0.130000 0.100000 -0.000000
v 0.130000 -0.075796 -0.000000
v 0.130000 -0.072706 -0.034484
v 0.130000 0.065796 -0.128834
v 0.018408 0.065796 -0.128834
v 0.130000 0.055796 -0.223184
v 0.018408 0.055796 -0.223184
v 0.130000 -0.055796 -0.223184
v 0.018408 -0.055796 -0.223184
v 0.018408 -0.072706 -0.034484
v 0.018408 -0.054251 -0.128834
v 0.018408 0.055796 -0.068968
v 0.130000 -0.054251 -0.128834
v 0.130000 0.055796 -0.068968
v 0.130000 -0.072706 -0.034484
vn -0.0000 -0.0000 -1.0000
vn 1.0000 -0.0000 -0.0000
vn -1.0000 -0.0000 -0.0000
vn -0.0000 -1.0000 -0.0000
vn -0.0000 1.0000 -0.0000
vn -0.0000 -0.0000 1.0000
vn -0.9239 -0.0000 -0.3827
vn -0.3827 -0.0000 -0.9239
vn 0.9681 0.2506 -0.0000
vn 0.3705 0.0959 -0.9239
vn 0.8944 0.2315 -0.3827
vn 0.2506 -0.9681 -0.0000
vn -0.2506 0.9681 -0.0000
vn 0.2506 0.9681 -0.0000
vn -0.3705 0.0959 -0.9239
vn -0.8944 0.2315 -0.3827
vn -0.9681 0.2506 -0.0000
vn -0.2506 -0.9681 -0.0000
vn -0.3704 0.0959 -0.9239
vn 0.3827 -0.0000 -0.9239
vn 0.9239 -0.0000 -0.3827
vn 0.7695 -0.0000 -0.6386
vn 0.7695 -0.0000 0.6386
vn 0.1843 -0.0000 0.9829
vn 0.1843 -0.0000 -0.9829
vn -0.7695 -0.0000 -0.6386
vn -0.1843 -0.0000 -0.9829
vn -0.7695 -0.0000 0.6386
vn -0.1843 -0.0000 0.9829
vn 0.9950 -0.0000 -0.0997
vn 0.9714 -0.0000 -0.2375
vn -0.9714 -0.0000 -0.2375
vn -0.8872 -0.0000 -0.4614
vn -0.9950 -0.0000 -0.0997
vn -0.0000 -0.4209 -0.9071
vn 0.8872 -0.0000 -0.4614
vn -0.0000 -0.3339 -0.9426
vn 0.0001 0.7071 -0.7071
vn -0.0000 0.7071 -0.7071
vn -0.0000 -0.9960 -0.0893
vn -0.0000 0.9944 -0.1054
vn -0.0000 0.9996 0.0300
vn -0.0000 0.9863 0.1648
vn -0.0000 -0.9961 -0.0883
vn -0.0000 -0.9814 -0.1920
vn -0.0000 -0.9999 0.0164
vt 0.843750 0.225000
vt 0.843750 0.071937
vt 0.093750 0.275000
vt 0.093750 0.475000
vt 0.843750 0.025000
vt 0.843750 0.096129
vt 0.593750 0.449226
vt 0.593750 0.338361
vt 0.593750 0.275000
vt 0.593750 0.382692
vt 0.593750 0.336538
vt 0.593750 0.475000
vt 0.593750 0.362179
vt 0.593750 0.417308
vt 0.593750 0.348077
vt 0.593750 0.428846
vt 0.593750 0.359778
vt 0.593750 0.421456
vt 0.593750 0.331556
vt 0.593750 0.306659
vt 0.093750 0.430556
vt 0.093750 0.332778
vt 0.093750 0.372778
vt 0.093750 0.292778
vt 0.656250 0.375000
vt 0.781250 0.125000
vt 0.093750 0.375000
vt 0.093750 0.311549
s 1
usemtl colormap.019
f 3/1/1 2/1/1 1/1/1
f 2/1/1 3/1/1 4/1/1
f 2/1/2 5/2/2 1/1/2
f 5/2/2 2/1/2 6/2/2
f 8/2/3 3/1/3 7/2/3
f 3/1/3 8/2/3 4/1/3
f 3/1/4 5/2/4 7/2/4
f 5/2/4 3/1/4 1/1/4
f 2/1/5 8/2/5 6/2/5
f 8/2/5 2/1/5 4/1/5
f 11/3/6 10/3/6 9/3/6
f 10/3/6 11/3/6 12/3/6
f 6/4/2 10/3/2 5/4/2
f 10/3/2 6/4/2 9/3/2
f 11/3/3 7/4/3 12/3/3
f 7/4/3 11/3/3 8/4/3
f 6/4/5 11/3/5 9/3/5
f 11/3/5 6/4/5 8/4/5
f 7/4/4 10/3/4 12/3/4
f 10/3/4 7/4/4 5/4/4
f 15/1/5 14/5/5 13/5/5
f 14/5/5 15/1/5 16/6/5
f 16/6/5 15/1/5 17/1/5
f 19/6/7 17/1/8 18/1/8
f 17/1/8 19/6/7 16/6/7
f 18/1/8 15/1/1 20/1/1
f 15/1/1 18/1/8 17/1/8
f 22/5/4 20/1/4 21/5/4
f 20/1/4 22/5/4 19/6/4
f 20/1/4 19/6/4 18/1/4
f 14/5/3 19/6/7 22/5/3
f 19/6/7 14/5/3 16/6/7
f 15/1/9 21/5/9 20/1/9
f 21/5/9 15/1/9 13/5/9
f 13/5/6 22/5/6 21/5/6
f 22/5/6 13/5/6 14/5/6
f 25/7/10 24/8/11 23/8/11
f 24/8/11 25/7/10 26/7/10
f 24/8/11 27/9/9 23/8/11
f 27/9/9 24/8/11 28/9/9
f 29/9/12 23/8/12 27/9/12
f 23/8/12 29/9/12 30/7/12
f 23/8/12 30/7/12 25/7/12
f 30/7/1 26/7/10 25/7/10
f 26/7/10 30/7/1 31/7/1
f 28/9/6 29/9/6 27/9/6
f 29/9/6 28/9/6 32/9/6
f 24/8/13 32/9/13 28/9/13
f 32/9/13 24/8/13 31/7/13
f 31/7/13 24/8/13 26/7/13
f 35/9/14 34/8/14 33/9/14
f 34/8/14 35/9/14 36/7/14
f 34/8/14 36/7/14 37/7/14
f 38/7/15 34/8/16 37/7/15
f 34/8/16 38/7/15 39/8/16
f 40/9/17 34/8/16 39/8/16
f 34/8/16 40/9/17 33/9/17
f 33/9/6 41/9/6 35/9/6
f 41/9/6 33/9/6 40/9/6
f 39/8/18 41/9/18 40/9/18
f 41/9/18 39/8/18 42/7/18
f 42/7/18 39/8/18 38/7/18
f 42/7/1 37/7/19 36/7/1
f 37/7/15 42/7/1 38/7/15
f 45/5/17 44/1/17 43/5/17
f 44/1/17 45/5/17 46/1/17
f 49/1/20 48/6/21 47/6/21
f 48/6/21 49/1/20 50/1/20
f 44/1/4 51/5/4 43/5/4
f 51/5/4 44/1/4 47/6/4
f 47/6/4 44/1/4 49/1/4
f 47/6/21 52/5/2 51/5/2
f 52/5/2 47/6/21 48/6/21
f 52/5/5 46/1/5 45/5/5
f 46/1/5 52/5/5 48/6/5
f 46/1/5 48/6/5 50/1/5
f 45/5/6 51/5/6 52/5/6
f 51/5/6 45/5/6 43/5/6
f 44/1/1 50/1/20 49/1/20
f 50/1/20 44/1/1 46/1/1
f 55/9/6 54/9/6 53/9/6
f 54/9/6 55/9/6 56/9/6
f 59/10/2 58/11/2 57/10/2
f 53/9/2 58/11/2 59/10/2
f 53/9/2 60/11/2 58/11/2
f 53/9/2 59/10/2 61/12/2
f 61/12/2 59/10/2 62/12/2
f 54/9/2 60/11/2 53/9/2
f 54/9/2 63/13/2 60/11/2
f 63/13/2 54/9/2 64/13/2
f 65/13/4 54/9/4 56/9/4
f 54/9/4 65/13/4 64/13/4
f 55/9/3 65/13/3 56/9/3
f 65/13/3 55/9/3 66/11/3
f 67/13/3 65/13/3 66/11/3
f 66/11/3 55/9/3 68/11/3
f 68/11/3 55/9/3 69/10/3
f 69/10/3 55/9/3 70/10/3
f 70/10/3 55/9/3 71/12/3
f 71/12/3 55/9/3 72/12/3
f 75/14/22 74/15/23 73/14/22
f 74/15/23 75/14/22 76/15/23
f 63/13/4 74/15/4 60/11/4
f 74/15/4 63/13/4 73/14/4
f 73/14/4 63/13/4 77/16/4
f 58/11/24 74/15/23 76/15/23
f 74/15/23 58/11/24 60/11/24
f 77/16/25 75/14/22 73/14/22
f 75/14/22 77/16/25 78/16/25
f 76/15/5 57/10/5 58/11/5
f 57/10/5 76/15/5 75/14/5
f 57/10/5 75/14/5 78/16/5
f 81/14/26 80/16/27 79/16/27
f 80/16/27 81/14/26 82/14/26
f 69/10/5 83/15/5 68/11/5
f 83/15/5 69/10/5 82/14/5
f 82/14/5 69/10/5 80/16/5
f 84/15/4 67/13/4 66/11/4
f 67/13/4 84/15/4 81/14/4
f 67/13/4 81/14/4 79/16/4
f 83/15/28 81/14/26 84/15/28
f 81/14/26 83/15/28 82/14/26
f 83/15/28 66/11/29 68/11/29
f 66/11/29 83/15/28 84/15/28
f 86/17/5 61/12/5 85/18/5
f 85/18/5 61/12/5 87/18/5
f 87/18/5 61/12/5 88/18/5
f 89/17/5 87/18/5 88/18/5
f 89/17/5 90/17/5 87/18/5
f 88/18/5 61/12/5 91/18/5
s 0
f 92/17/5 90/17/5 89/17/5
s 1
f 72/12/5 91/18/5 61/12/5
f 72/12/5 92/17/5 91/18/5
f 86/17/5 53/9/5 61/12/5
f 55/9/5 92/17/5 72/12/5
f 92/17/5 93/19/5 90/17/5
f 90/17/5 93/19/5 86/17/5
f 92/17/5 94/20/5 93/19/5
f 92/17/5 55/9/5 94/20/5
f 95/19/5 86/17/5 93/19/5
f 94/20/5 55/9/5 96/20/5
f 53/9/5 96/20/5 55/9/5
f 96/20/5 53/9/5 86/17/5
f 96/20/5 86/17/5 95/19/5
f 99/21/30 98/3/2 97/21/2
f 98/3/2 99/21/30 100/22/2
f 101/3/2 98/3/2 100/22/2
f 100/22/2 99/21/30 102/22/2
f 102/22/2 99/21/30 103/21/31
f 102/22/2 103/21/31 104/23/2
f 104/23/2 103/21/31 105/23/2
f 102/22/2 104/23/2 106/24/2
f 107/24/2 106/24/2 104/23/2
f 110/21/32 109/4/33 108/21/34
f 109/4/33 110/21/32 111/4/33
f 109/4/35 113/4/1 112/4/35
f 113/4/1 109/4/35 111/4/1
f 115/21/4 98/3/4 114/3/4
f 98/3/4 115/21/4 97/21/4
f 112/4/36 103/21/31 99/21/30
f 103/21/31 112/4/36 113/4/36
f 115/21/1 99/21/37 97/21/1
f 99/21/37 115/21/1 108/21/37
f 118/24/3 117/22/3 116/24/3
f 119/23/3 117/22/3 118/24/3
f 110/21/32 117/22/3 119/23/3
f 110/21/32 119/23/3 120/23/3
f 108/21/34 117/22/3 110/21/32
f 108/21/34 121/22/3 117/22/3
f 115/21/3 121/22/3 108/21/34
f 115/21/3 122/3/3 121/22/3
f 122/3/3 115/21/3 114/3/3
f 103/21/5 120/23/5 105/23/5
f 120/23/5 103/21/5 110/21/5
f 110/21/5 103/21/5 113/4/5
f 110/21/5 113/4/5 111/4/5
f 108/21/37 112/4/35 99/21/37
f 112/4/35 108/21/37 109/4/35
f 125/25/5 124/25/5 123/25/5
f 124/25/5 125/25/5 126/25/5
f 129/25/5 128/25/5 127/25/5
f 128/25/5 129/25/5 130/25/5
f 133/26/5 132/26/5 131/26/5
f 132/26/5 133/26/5 134/26/5
f 137/1/2 136/1/2 135/1/2
f 136/1/2 137/1/2 138/1/2
f 136/1/2 138/1/2 139/1/2
f 142/1/3 141/1/3 140/1/3
f 141/1/3 142/1/3 143/1/3
f 143/1/3 142/1/3 144/1/3
f 139/1/38 142/1/5 136/1/5
f 142/1/5 139/1/38 144/1/39
f 143/1/1 139/1/39 138/1/1
f 139/1/38 143/1/1 144/1/39
f 141/1/40 135/1/40 140/1/40
f 135/1/40 141/1/40 137/1/40
f 142/1/6 135/1/6 136/1/6
f 135/1/6 142/1/6 140/1/6
f 147/4/41 146/27/42 145/27/42
f 146/27/42 147/4/41 148/4/41
f 150/4/1 147/4/1 149/4/1
f 147/4/1 150/4/1 148/4/1
f 153/28/3 152/27/3 151/3/3
f 148/4/3 152/27/3 153/28/3
f 148/4/3 153/28/3 146/27/3
f 152/27/3 148/4/3 150/4/3
f 147/4/2 154/27/2 149/4/2
f 155/28/2 154/27/2 147/4/2
f 155/28/2 147/4/2 145/27/2
f 154/27/2 155/28/2 156/3/2
f 145/27/42 153/28/43 155/28/43
f 153/28/43 145/27/42 146/27/42
f 152/27/44 156/3/45 151/3/45
f 156/3/45 152/27/44 154/27/44
f 150/4/46 154/27/44 152/27/44
f 154/27/44 150/4/46 149/4/46
f 159/1/3 158/1/3 157/1/3
f 158/1/3 159/1/3 160/1/3
f 160/1/3 159/1/3 161/1/3
f 160/1/1 163/1/39 162/1/1
f 163/1/38 160/1/1 161/1/39
f 159/1/6 165/1/6 164/1/6
f 165/1/6 159/1/6 157/1/6
f 166/1/2 164/1/2 165/1/2
f 164/1/2 166/1/2 162/1/2
f 164/1/2 162/1/2 163/1/2
f 158/1/40 165/1/40 157/1/40
f 165/1/40 158/1/40 166/1/40
f 163/1/38 159/1/5 164/1/5
f 159/1/5 163/1/38 161/1/39
f 169/4/41 168/27/42 167/27/42
f 168/27/42 169/4/41 170/4/41
f 172/4/1 169/4/1 171/4/1
f 169/4/1 172/4/1 170/4/1
f 175/28/3 174/27/3 173/3/3
f 170/4/3 174/27/3 175/28/3
f 170/4/3 175/28/3 168/27/3
f 174/27/3 170/4/3 172/4/3
f 169/4/2 176/27/2 171/4/2
f 177/28/2 176/27/2 169/4/2
f 177/28/2 169/4/2 167/27/2
f 176/27/2 177/28/2 178/3/2
f 167/27/42 175/28/43 177/28/43
f 175/28/43 167/27/42 168/27/42
f 174/27/44 178/3/45 173/3/45
f 178/3/45 174/27/44 176/27/44
f 172/4/46 176/27/44 174/27/44
f 176/27/44 172/4/46 171/4/46
