# Blender 4.3.2
# www.blender.org
mtllib door-wide-half.mtl
o door-wide-half
v -0.900000 0.400000 -0.819806
v 0.900000 0.400000 -0.819806
v -0.900000 0.400000 -1.051591
v 0.900000 0.400000 -1.051591
v -0.900000 0.400000 -1.283376
v 0.900000 0.400000 -1.283376
v -0.900000 0.509808 -1.484107
v 0.900000 0.509808 -1.484107
v -0.117887 0.400000 -0.519442
v -0.900000 0.400000 -0.588021
v -0.117887 0.400000 -0.424815
v 0.117887 0.400000 -0.519442
v -0.900000 0.400000 -0.356236
v 0.900000 0.400000 -0.588021
v 0.900000 0.400000 -0.356236
v 0.117887 0.400000 -0.424815
v 0.900000 0.700000 -1.600000
v -0.900000 0.700000 -1.600000
v -0.900000 0.400000 -0.819806
v 0.900000 0.400000 -0.819806
v -0.900000 0.400000 -1.283376
v 0.900000 0.400000 -1.283376
v 0.117887 0.400000 -0.424815
v -0.117887 0.400000 -0.424815
vn -0.0000 -1.0000 -0.0000
vn -0.0000 -0.7234 -0.6904
vn -0.0000 -0.8773 -0.4799
vn -0.0000 -0.5204 -0.8540
vt 0.218750 0.416714
vt 0.218750 0.385478
vt 0.218750 0.475000
vt 0.218750 0.447949
vt 0.218750 0.332249
vt 0.218750 0.354242
vt 0.218750 0.345001
vt 0.218750 0.323007
vt 0.218750 0.363548
vt 0.218750 0.375000
vt 0.218750 0.297904
vt 0.218750 0.275000
vt 0.343750 0.025000
vt 0.218750 0.343712
vt 0.218750 0.320808
s 1
usemtl colormap.015
f 3/1/1 2/2/1 1/2/1
f 2/2/1 3/1/1 4/1/1
f 7/3/2 6/4/3 5/4/3
f 6/4/3 7/3/2 8/3/2
f 11/5/1 10/6/1 9/7/1
f 9/7/1 10/6/1 12/7/1
f 11/5/1 13/8/1 10/6/1
f 14/6/1 12/7/1 10/6/1
f 13/8/1 11/5/1 15/8/1
f 14/6/1 16/5/1 12/7/1
f 15/8/1 16/5/1 14/6/1
f 16/5/1 15/8/1 11/5/1
f 7/9/2 17/10/4 8/9/2
f 17/10/4 7/9/2 18/10/4
f 19/11/1 14/12/1 10/12/1
f 14/12/1 19/11/1 20/11/1
f 24/13/1 12/13/1 23/13/1
f 12/13/1 24/13/1 9/13/1
f 21/14/1 4/15/1 3/15/1
f 4/15/1 21/14/1 22/14/1
