# Blender 4.3.2
# www.blender.org
mtllib trunk.mtl
o trunk.002
v 0.003801 -0.223074 -0.064800
v 0.196988 -0.111537 -0.064800
v 0.003801 -0.191844 -0.267300
v 0.169942 -0.095922 -0.267300
v -0.128012 -0.076102 -0.372600
v -0.128012 0.076102 -0.372600
v -0.162341 -0.095922 -0.372600
v -0.162341 0.095922 -0.372600
v 0.169942 0.095922 -0.283500
v 0.135613 0.076102 -0.283500
v 0.169942 0.095922 -0.364500
v 0.135613 0.076102 -0.364500
v 0.169942 -0.095922 -0.324000
v 0.135613 -0.076102 -0.324000
v 0.003801 -0.191844 -0.324000
v 0.003801 -0.152205 -0.324000
v -0.189387 -0.111537 -0.064800
v -0.162341 -0.095922 -0.267300
v -0.189387 0.111537 -0.064800
v -0.162341 0.095922 -0.267300
v -0.162341 -0.095922 -0.291600
v 0.003801 -0.191844 -0.291600
v 0.003801 -0.152205 -0.291600
v -0.128012 -0.076102 -0.291600
v 0.169942 0.095922 -0.267300
v 0.003801 0.191844 -0.267300
v 0.003801 0.191844 -0.283500
v 0.242304 0.137700 0.000000
v 0.242304 -0.137700 0.000000
v 0.003801 0.275400 0.000000
v 0.003801 -0.275400 0.000000
v -0.234703 0.137700 0.000000
v -0.234703 -0.137700 0.000000
v 0.196988 0.111537 -0.064800
v 0.003801 0.223074 -0.064800
v 0.003801 0.152205 -0.307800
v 0.003801 0.191844 -0.307800
v -0.128012 0.076102 -0.307800
v -0.162341 0.095922 -0.307800
v -0.128012 0.076102 -0.267300
v 0.003801 0.152205 -0.267300
v 0.003801 0.152205 -0.283500
v -0.128012 -0.076102 -0.267300
v 0.135613 0.076102 -0.267300
v 0.135613 -0.076102 -0.267300
v 0.135613 -0.076102 -0.364500
v 0.003801 -0.152205 -0.267300
v 0.169942 -0.095922 -0.364500
v -0.085930 0.051805 -0.267300
v 0.003801 0.103611 -0.267300
v -0.085930 -0.051805 -0.267300
v 0.093531 0.051805 -0.267300
v 0.003801 -0.103611 -0.267300
v 0.093531 -0.051805 -0.267300
v -0.180722 0.040887 -0.129679
v -0.251037 0.024532 -0.153879
v -0.171006 0.035278 -0.202421
v -0.245208 0.021167 -0.197523
v -0.251037 -0.024532 -0.153879
v -0.245208 -0.021167 -0.197523
v -0.171006 -0.035278 -0.202421
v -0.180722 -0.040887 -0.129679
v -0.060832 0.165903 -0.193541
v -0.093029 0.204847 -0.191728
v -0.107560 0.138925 -0.193541
v -0.125739 0.185962 -0.191728
v -0.060832 0.174383 -0.138559
v -0.093029 0.210783 -0.153240
v -0.130879 0.188930 -0.153240
v -0.114904 0.143164 -0.138559
v 0.093531 -0.051805 -0.267300
v 0.093531 0.051805 -0.267300
v 0.003801 -0.103611 -0.267300
v 0.003801 0.103611 -0.267300
v -0.085930 -0.051805 -0.267300
v -0.085930 0.051805 -0.267300
vn 0.0324 -0.9994 -0.0069
vn 0.6022 -0.6373 -0.4808
vn -0.0000 -0.7546 -0.6562
vn 0.8660 -0.5000 0.0012
vn -0.4160 -0.7206 -0.5547
vn 0.6862 0.3962 -0.6100
vn 0.6862 -0.3962 -0.6100
vn -0.4160 0.7206 -0.5547
vn 0.4160 0.7206 -0.5547
vn -0.6000 -0.0000 -0.8000
vn -0.0000 0.9333 -0.3592
vn -0.6862 0.3962 -0.6100
vn -0.4161 -0.7206 -0.5547
vn -0.9138 -0.0000 -0.4061
vn 0.7330 -0.6348 -0.2443
vn -0.7449 0.2578 -0.6154
vn -0.8966 -0.4410 -0.0399
vn -0.8526 -0.2053 -0.4806
vn -0.8553 0.4938 -0.1568
vn -0.7330 -0.6348 -0.2443
vn -0.1833 -0.9522 -0.2443
vn -0.0000 0.9373 0.3485
vn 0.8117 -0.4687 0.3485
vn 0.8117 0.4687 0.3485
vn -0.0000 -0.9373 0.3485
vn -0.8117 0.4687 0.3485
vn 0.6314 0.6621 -0.4036
vn 0.6000 -0.0000 -0.8000
vn -0.0000 -0.7924 -0.6100
vn 0.9138 -0.0000 -0.4061
vn 1.0000 -0.0000 -0.0000
vn 0.4569 -0.7914 -0.4061
vn -0.6862 -0.3962 -0.6100
vn -1.0000 -0.0000 -0.0000
vn -0.8117 -0.4687 0.3485
vn -0.2577 0.8779 -0.4036
vn 0.4160 -0.7206 -0.5547
vn 0.1832 0.9522 -0.2443
vn -0.0276 0.9881 -0.1514
vn -0.9977 -0.0000 -0.0678
vn -0.7413 0.5357 0.4044
vn -0.1732 0.6559 -0.7347
vn -0.6047 0.4957 -0.6234
vn -0.6047 -0.4957 -0.6234
vn -0.7413 -0.5357 0.4044
vn -0.3720 -0.7035 0.6055
vn -0.3720 0.7035 0.6055
vn -0.1732 -0.6559 -0.7347
vn -0.6383 -0.2182 -0.7382
vn 0.1399 0.7628 -0.6313
vn 0.5049 0.4517 -0.7356
vn -0.7329 0.2555 -0.6305
vn 0.4500 0.6465 0.6161
vn 0.1067 0.9026 0.4170
vn -0.8373 0.3537 0.4168
vn -0.7803 -0.0731 0.6211
vn -0.0000 -0.0000 -1.0000
vn -0.4569 0.7914 -0.4061
vn 0.8237 0.5596 -0.0917
vn -0.0000 0.7924 -0.6100
vn 0.9977 -0.0000 -0.0678
vt 0.093750 0.418478
vt 0.093750 0.309783
vt 0.093750 0.475000
vt 0.093750 0.470652
vt 0.093750 0.427174
vt 0.093750 0.448913
vt 0.093750 0.431522
vt 0.093750 0.275000
vt 0.093750 0.440217
vt 0.093750 0.358268
vt 0.093750 0.425000
vt 0.093750 0.418267
vt 0.093750 0.325000
vt 0.093750 0.421701
vt 0.093750 0.351701
vt 0.343750 0.375000
s 1
usemtl colormap.029
f 3/1/1 2/2/2 1/2/3
f 2/2/2 3/1/1 4/1/4
f 7/3/5 6/3/6 5/3/7
f 6/3/6 7/3/5 8/3/8
f 11/4/9 10/5/10 9/5/11
f 10/5/10 11/4/9 12/4/12
f 15/6/13 14/6/14 13/6/15
f 14/6/14 15/6/13 16/6/12
f 19/2/16 18/1/17 17/2/18
f 18/1/17 19/2/16 20/1/19
f 1/2/3 18/1/17 3/1/1
f 21/7/20 3/1/1 18/1/17
f 3/1/1 21/7/20 22/7/21
f 13/6/15 22/7/21 15/6/13
f 30/8/22 29/8/23 28/8/24
f 29/8/23 30/8/22 31/8/25
f 31/8/25 30/8/22 32/8/26
f 34/2/27 30/8/22 28/8/24
f 37/9/9 38/9/28 39/9/11
f 38/9/28 41/1/29 40/1/7
f 24/7/30 6/3/6 43/1/6
s 0
f 40/1/31 6/3/31 38/9/31
s 1
f 42/5/32 44/1/33 41/1/29
f 44/1/33 42/5/32 10/5/10
f 14/6/14 44/1/33 46/4/33
f 46/4/33 44/1/33 12/4/12
s 0
f 12/4/34 44/1/34 10/5/34
s 1
f 24/7/30 7/3/5 5/3/7
f 32/8/26 17/2/18 33/8/35
f 2/2/2 28/8/24 29/8/23
f 28/8/24 2/2/2 34/2/27
f 4/1/4 34/2/27 2/2/2
f 35/2/36 32/8/26 30/8/22
f 32/8/26 35/2/36 19/2/16
f 46/4/33 13/6/15 14/6/14
f 13/6/15 46/4/33 48/4/37
f 46/4/33 11/4/9 48/4/37
f 11/4/9 46/4/33 12/4/12
f 27/5/38 20/1/19 26/1/39
f 20/1/19 27/5/38 39/9/11
f 39/9/11 27/5/38 37/9/9
f 1/2/3 29/8/23 31/8/25
f 37/9/9 42/5/32 36/9/7
f 42/5/32 37/9/9 27/5/38
f 6/3/6 39/9/11 38/9/28
f 20/1/19 21/7/20 18/1/17
s 0
f 8/3/34 20/1/40 39/9/34
s 1
f 56/10/41 57/11/42 58/12/43
f 56/10/41 60/12/44 59/10/45
f 57/11/42 60/12/44 58/12/43
f 56/10/41 62/13/46 55/13/47
f 62/13/46 56/10/41 59/10/45
f 59/10/45 61/11/48 62/13/46
f 61/11/48 59/10/45 60/12/44
f 65/11/49 64/14/50 63/11/51
f 64/14/50 65/11/49 66/14/52
f 64/14/50 67/13/53 63/11/51
f 67/13/53 64/14/50 68/15/54
f 64/14/50 69/15/55 68/15/54
f 69/15/55 64/14/50 66/14/52
f 68/15/54 70/13/56 67/13/53
f 70/13/56 68/15/54 69/15/55
f 70/13/56 66/14/52 65/11/49
f 66/14/52 70/13/56 69/15/55
f 73/16/57 72/16/57 71/16/57
f 72/16/57 73/16/57 74/16/57
f 74/16/57 73/16/57 75/16/57
f 74/16/57 75/16/57 76/16/57
f 18/1/17 1/2/3 17/2/18
f 22/7/21 4/1/4 3/1/1
f 4/1/4 22/7/21 13/6/15
f 21/7/20 23/7/58 22/7/21
f 23/7/58 21/7/20 24/7/30
f 9/5/11 26/1/39 25/1/59
f 26/1/39 9/5/11 27/5/38
f 31/8/25 32/8/26 33/8/35
f 30/8/22 34/2/27 35/2/36
f 38/9/28 37/9/9 36/9/7
f 41/1/29 38/9/28 42/5/32
f 42/5/32 38/9/28 36/9/7
f 6/3/6 24/7/30 5/3/7
f 43/1/6 6/3/6 40/1/7
f 44/1/33 14/6/14 45/1/12
f 7/3/5 24/7/30 21/7/20
f 17/2/18 32/8/26 19/2/16
f 26/1/39 19/2/16 35/2/36
f 19/2/16 26/1/39 20/1/19
f 25/1/59 35/2/36 34/2/27
f 35/2/36 25/1/59 26/1/39
f 23/7/58 15/6/13 22/7/21
f 15/6/13 23/7/58 16/6/12
f 34/2/27 4/1/4 25/1/59
f 23/7/58 43/1/6 47/1/60
f 43/1/6 23/7/58 24/7/30
f 10/5/10 27/5/38 9/5/11
f 27/5/38 10/5/10 42/5/32
f 11/4/9 13/6/15 48/4/37
f 13/6/15 11/4/9 4/1/4
f 4/1/4 11/4/9 25/1/59
s 0
f 25/1/61 11/4/31 9/5/31
s 1
f 29/8/23 1/2/3 2/2/2
f 17/2/18 31/8/25 33/8/35
f 31/8/25 17/2/18 1/2/3
f 14/6/14 47/1/60 45/1/12
f 47/1/60 14/6/14 23/7/58
f 23/7/58 14/6/14 16/6/12
f 39/9/11 6/3/6 8/3/8
f 21/7/20 20/1/19 7/3/5
f 7/3/5 20/1/19 8/3/8
f 41/1/29 49/1/57 40/1/7
f 40/1/7 49/1/57 43/1/6
f 41/1/29 50/1/57 49/1/57
f 51/1/57 43/1/6 49/1/57
f 41/1/29 52/1/57 50/1/57
f 53/1/57 43/1/6 51/1/57
f 44/1/33 52/1/57 41/1/29
f 53/1/57 47/1/60 43/1/6
f 52/1/57 44/1/33 54/1/57
f 54/1/57 47/1/60 53/1/57
f 45/1/12 54/1/57 44/1/33
f 54/1/57 45/1/12 47/1/60
f 57/11/42 56/10/41 55/13/47
f 60/12/44 56/10/41 58/12/43
f 60/12/44 57/11/42 61/11/48
