# Blender 4.3.2
# www.blender.org
mtllib kitchenCabinetUpper.mtl
o kitchenCabinetUpper.002
v 0.000000 0.210000 0.000000
v 0.000000 0.000000 0.000000
v -0.430000 0.210000 0.000000
v -0.430000 0.000000 0.000000
v 0.000000 0.000000 -0.390000
v 0.000000 0.210000 -0.390000
v -0.430000 0.000000 -0.390000
v -0.430000 0.210000 -0.390000
v -0.403156 0.000000 -0.026844
v -0.403156 0.000000 -0.363156
v -0.026844 0.000000 -0.363156
v -0.026844 0.000000 -0.026844
v -0.403156 0.190000 -0.208422
v -0.026844 0.190000 -0.208422
v -0.403156 0.190000 -0.363156
v -0.026844 0.190000 -0.363156
v -0.026844 0.190000 -0.026844
v -0.403156 0.190000 -0.026844
v -0.026844 0.190000 -0.181578
v -0.026844 0.020000 -0.181578
v -0.403156 0.190000 -0.181578
v -0.403156 0.020000 -0.181578
v -0.026844 0.020000 -0.208422
v -0.403156 0.020000 -0.208422
v -0.026844 0.020000 -0.026844
v -0.403156 0.020000 -0.026844
v -0.026844 0.020000 -0.363156
v -0.403156 0.020000 -0.363156
v -0.047186 0.000000 -0.047186
v -0.362814 0.000000 -0.067186
v -0.382814 0.000000 -0.047186
v -0.382814 0.000000 -0.342814
v -0.362814 0.000000 -0.087186
v -0.282814 0.000000 -0.087186
v -0.282814 0.000000 -0.067186
v -0.047186 0.000000 -0.342814
v -0.282814 -0.010000 -0.087186
v -0.362814 -0.010000 -0.087186
v -0.362814 -0.010000 -0.067186
v -0.282814 -0.010000 -0.067186
vn 0.5773 -0.5774 0.5773
vn 0.5774 0.5774 0.5774
vn -0.5773 0.5774 0.5773
vn -0.5773 -0.5774 0.5773
vn 0.5773 0.5774 -0.5773
vn 0.5773 -0.5774 -0.5773
vn -0.5773 -0.5774 -0.5773
vn -0.5774 0.5774 -0.5774
vn -0.0000 -1.0000 -0.0000
vn 0.5774 -0.5773 0.5773
vn -0.5774 -0.5773 0.5773
vn -0.5774 -0.5773 -0.5773
vn 0.7071 -0.0000 -0.7071
vn 0.5774 -0.5773 -0.5773
vn -0.7071 -0.0000 0.7071
vn 0.7071 -0.0000 0.7071
vn -0.9045 -0.3015 0.3015
vn -0.5774 -0.5774 0.5774
vn 0.9045 -0.3015 0.3015
vn -0.9045 -0.3015 -0.3015
vn 0.9045 -0.3015 -0.3015
vn 0.5774 -0.5774 -0.5774
vn -0.7071 -0.0000 -0.7071
vn -0.0000 1.0000 -0.0000
vn -1.0000 -0.0000 -0.0000
vn -0.0000 -0.0000 -1.0000
vn 1.0000 -0.0000 -0.0000
vn -0.0000 -0.0000 1.0000
vt 0.000000 0.000000
vt 0.000000 8.267716
vt -16.929131 8.267716
vt -16.929131 0.000000
vt 16.929131 0.000000
vt 16.929131 8.267716
vt 0.000000 15.354330
vt -8.267716 15.354330
vt -8.267716 0.000000
vt -16.929131 15.354330
vt 8.267716 0.000000
vt 8.267716 15.354330
vt 16.929131 15.354330
vt 15.872280 1.056858
vt 15.872280 14.297470
vt 1.056858 14.297470
vt 1.056858 1.056858
vt 1.056858 8.205594
vt 15.872280 0.000000
vt 15.872280 7.480315
vt 1.056858 7.480315
vt -1.056858 0.000000
vt -1.056858 7.480315
vt -15.872280 7.480315
vt -15.872280 0.000000
vt -1.056858 0.787402
vt -15.872280 0.787402
vt 1.056858 0.787402
vt 15.872280 0.787402
vt 15.872280 7.148736
vt 1.056858 7.148736
vt 15.872280 8.205594
vt -0.787402 7.148736
vt -7.480315 1.056858
vt 0.000000 1.056858
vt -0.787402 8.205594
vt -7.480315 7.148736
vt -7.480315 14.297470
vt -7.480315 8.205594
vt 0.787402 8.205594
vt 7.480315 14.297470
vt 0.000000 14.297470
vt 0.787402 7.148736
vt 7.480315 8.205594
vt 1.056858 0.000000
vt 7.480315 1.056858
vt 7.480315 7.148736
vt -14.815420 0.000000
vt 0.000000 13.240620
vt -14.815420 13.240620
vt -0.393701 13.240620
vt -0.393701 0.000000
vt 0.393701 0.000000
vt 0.393701 13.240620
vt 0.000000 0.393701
vt 0.000000 -0.393701
vt 14.815420 -0.393701
vt 14.815420 0.393701
vt -14.815420 0.393701
vt -14.815420 -0.393701
vt 13.227150 1.588265
vt 0.800864 0.800864
vt 14.014550 0.800864
vt 14.014550 12.439750
vt 13.227150 2.375667
vt 10.077550 2.375667
vt 10.077550 1.588265
vt 0.800864 12.439750
vt 14.815420 0.000000
vt 14.815420 13.240620
vt 13.227150 -0.393701
vt 10.077550 -0.393701
vt 10.077550 -0.787402
vt 13.227150 -0.787402
vt -0.787402 2.375667
vt -0.787402 1.588265
vt -0.393701 1.588265
vt -0.393701 2.375667
vt 0.787402 1.588265
vt 0.787402 2.375667
vt 0.393701 2.375667
vt 0.393701 1.588265
vt -10.077550 -0.787402
vt -10.077550 -0.393701
vt -13.227150 -0.393701
vt -13.227150 -0.787402
s 1
usemtl wood.021
f 2/1/1 1/2/2 3/3/3
f 3/3/3 4/4/4 2/1/1
f 6/2/5 5/1/6 7/5/7
f 7/5/7 8/6/8 6/2/5
f 2/1/1 5/7/6 6/8/5
f 6/8/5 1/9/2 2/1/1
f 6/7/5 8/10/8 3/4/3
f 7/7/7 4/1/4 3/11/3
f 3/11/3 8/12/8 7/7/7
f 4/5/4 7/13/7 9/14/9
f 7/13/7 10/15/9 9/14/9
f 7/13/7 11/16/9 10/15/9
f 2/1/1 9/14/9 12/17/9
f 12/17/9 5/7/6 2/1/1
f 12/17/9 11/16/9 5/7/6
f 15/15/10 16/16/11 14/18/12
f 9/19/13 18/20/14 17/21/12
f 11/22/15 16/23/11 15/24/10
f 15/24/10 10/25/16 11/22/15
f 20/26/17 19/23/18 21/24/10
f 21/24/10 22/27/19 20/26/17
f 14/21/12 23/28/20 24/29/21
f 24/29/21 13/20/22 14/21/12
f 17/17/12 18/14/14 21/30/10
f 20/31/17 22/30/19 24/32/21
f 24/32/21 23/18/20 20/31/17
f 22/33/19 18/34/14 9/35/13
f 9/35/13 24/36/21 22/33/19
f 22/33/19 21/37/10 18/34/14
f 15/38/10 13/39/22 24/36/21
f 23/40/20 16/41/11 11/42/15
f 11/42/15 20/43/17 23/40/20
f 23/40/20 14/44/12 16/41/11
f 20/43/17 11/42/15 12/35/23
f 3/4/3 1/1/2 6/7/5
f 9/14/9 2/1/1 4/5/4
f 11/16/9 7/13/7 5/7/6
f 14/18/12 13/32/22 15/15/10
f 17/21/12 12/45/23 9/19/13
f 21/30/10 19/31/18 17/17/12
f 24/36/21 9/35/13 10/42/16
f 10/42/16 15/38/10 24/36/21
f 12/35/23 17/46/12 20/43/17
f 17/46/12 19/47/18 20/43/17
f 26/48/24 25/1/24 27/49/24
f 27/49/24 28/50/24 26/48/24
f 10/51/25 9/52/25 26/53/25
f 26/53/25 28/54/25 10/51/25
f 27/55/26 11/56/26 10/57/26
f 10/57/26 28/58/26 27/55/26
f 12/53/27 11/54/27 27/51/27
f 27/51/27 25/52/27 12/53/27
f 12/56/28 25/55/28 26/59/28
f 26/59/28 9/60/28 12/56/28
f 30/61/9 29/62/9 31/63/9
f 31/63/9 32/64/9 30/61/9
f 32/64/9 33/65/9 30/61/9
f 32/64/9 34/66/9 33/65/9
f 29/62/9 30/61/9 35/67/9
f 35/67/9 36/68/9 29/62/9
f 35/67/9 34/66/9 36/68/9
f 34/66/9 32/64/9 36/68/9
usemtl woodDark.005
f 31/63/9 12/1/9 9/69/9
f 9/69/9 10/70/9 31/63/9
f 10/70/9 32/64/9 31/63/9
f 10/70/9 36/68/9 32/64/9
f 12/1/9 31/63/9 29/62/9
f 29/62/9 11/49/9 12/1/9
f 29/62/9 36/68/9 11/49/9
f 36/68/9 10/70/9 11/49/9
usemtl metal.014
f 33/71/26 34/72/26 37/73/26
f 37/73/26 38/74/26 33/71/26
f 38/75/25 39/76/25 30/77/25
f 30/77/25 33/78/25 38/75/25
f 40/79/27 37/80/27 34/81/27
f 34/81/27 35/82/27 40/79/27
f 40/67/9 39/61/9 38/65/9
f 38/65/9 37/66/9 40/67/9
f 40/83/28 35/84/28 30/85/28
f 30/85/28 39/86/28 40/83/28
