# Blender 4.3.2
# www.blender.org
mtllib kitchenFridgeLarge.mtl
o kitchenFridgeLarge
v 0.000000 -0.020000 -0.893156
v 0.000000 -0.020000 -0.059980
v 0.000000 0.341934 -0.893156
v 0.000000 0.000000 -0.059980
v 0.000000 0.000000 0.000000
v 0.000000 0.341934 0.000000
v -0.520000 0.000000 0.000000
v -0.520000 0.000000 -0.059980
v -0.520000 -0.020000 -0.059980
v -0.520000 0.341934 0.000000
v -0.520000 0.341934 -0.893156
v -0.000230 0.341934 -0.896660
v -0.519770 0.341934 -0.896660
v -0.000915 0.341934 -0.900104
v -0.519085 0.341934 -0.900104
v -0.002043 0.341934 -0.903429
v -0.517957 0.341934 -0.903429
v -0.003596 0.341934 -0.906578
v -0.516404 0.341934 -0.906578
v -0.005547 0.341934 -0.909497
v -0.514453 0.341934 -0.909497
v -0.007862 0.341934 -0.912138
v -0.512137 0.341934 -0.912138
v -0.010502 0.341934 -0.914453
v -0.509498 0.341934 -0.914453
v -0.013422 0.341934 -0.916403
v -0.506578 0.341934 -0.916403
v -0.016571 0.341934 -0.917956
v -0.503429 0.341934 -0.917956
v -0.019896 0.341934 -0.919085
v -0.500104 0.341934 -0.919085
v -0.023340 0.341934 -0.919770
v -0.496660 0.341934 -0.919770
v -0.026844 0.341934 -0.920000
v -0.493156 0.341934 -0.920000
v -0.026844 0.310000 -0.893156
v -0.026844 -0.020000 -0.893156
v -0.493156 0.310000 -0.893156
v -0.493156 -0.020000 -0.893156
v -0.026844 -0.020000 -0.086824
v -0.026844 0.310000 -0.086824
v -0.493156 -0.020000 -0.086824
v -0.493156 0.310000 -0.086824
v -0.520000 -0.020000 -0.893156
v -0.026844 0.010000 -0.716824
v -0.026844 0.310000 -0.716824
v -0.493156 0.010000 -0.716824
v -0.493156 0.310000 -0.716824
v -0.493156 0.010000 -0.689980
v -0.493156 0.310000 -0.689980
v -0.026844 0.010000 -0.689980
v -0.026844 0.310000 -0.689980
v -0.026844 -0.020000 -0.920000
v -0.493156 -0.020000 -0.920000
v -0.519770 -0.020000 -0.896660
v -0.000230 -0.020000 -0.896660
v -0.519085 -0.020000 -0.900104
v -0.000915 -0.020000 -0.900104
v -0.517957 -0.020000 -0.903429
v -0.002043 -0.020000 -0.903429
v -0.516404 -0.020000 -0.906578
v -0.003596 -0.020000 -0.906578
v -0.514453 -0.020000 -0.909497
v -0.005547 -0.020000 -0.909497
v -0.512137 -0.020000 -0.912138
v -0.007862 -0.020000 -0.912138
v -0.509498 -0.020000 -0.914453
v -0.010502 -0.020000 -0.914453
v -0.506578 -0.020000 -0.916403
v -0.013422 -0.020000 -0.916403
v -0.503429 -0.020000 -0.917956
v -0.016571 -0.020000 -0.917956
v -0.500104 -0.020000 -0.919085
v -0.019896 -0.020000 -0.919085
v -0.496660 -0.020000 -0.919770
v -0.023340 -0.020000 -0.919770
v -0.220000 -0.040000 -0.086824
v -0.220000 -0.040000 -0.893156
v -0.220000 -0.020000 -0.086824
v -0.220000 -0.020000 -0.893156
v -0.027015 -0.022611 -0.893156
v -0.027526 -0.025176 -0.893156
v -0.028367 -0.027654 -0.893156
v -0.029524 -0.030000 -0.893156
v -0.030977 -0.032175 -0.893156
v -0.032702 -0.034142 -0.893156
v -0.034669 -0.035867 -0.893156
v -0.036844 -0.037321 -0.893156
v -0.039191 -0.038478 -0.893156
v -0.041668 -0.039319 -0.893156
v -0.044234 -0.039829 -0.893156
v -0.046844 -0.040000 -0.893156
v -0.026844 -0.020000 -0.086824
v -0.027015 -0.022611 -0.086824
v -0.027526 -0.025176 -0.086824
v -0.028367 -0.027654 -0.086824
v -0.029524 -0.030000 -0.086824
v -0.030977 -0.032175 -0.086824
v -0.032702 -0.034142 -0.086824
v -0.034669 -0.035867 -0.086824
v -0.036844 -0.037321 -0.086824
v -0.039191 -0.038478 -0.086824
v -0.041668 -0.039319 -0.086824
v -0.044234 -0.039829 -0.086824
v -0.046844 -0.040000 -0.086824
v -0.059330 -0.020000 -0.565459
v -0.059330 -0.040000 -0.565459
v -0.095945 -0.020000 -0.565459
v -0.156969 -0.040000 -0.565459
v -0.120355 -0.020000 -0.565459
v -0.156969 -0.020000 -0.565459
v -0.095945 0.020000 -0.565459
v -0.059330 0.020000 -0.565459
v -0.156969 0.020000 -0.565459
v -0.120355 0.020000 -0.565459
v -0.059330 -0.040000 -0.414521
v -0.059330 -0.020000 -0.414521
v -0.059330 0.020000 -0.414521
v -0.156969 -0.040000 -0.414521
v -0.156969 -0.020000 -0.414521
v -0.156969 0.020000 -0.414521
v -0.120355 0.020000 -0.521563
v -0.095945 0.000000 -0.521563
v -0.095945 0.020000 -0.521563
v -0.120355 0.000000 -0.521563
v -0.187200 -0.040000 -0.338290
v -0.187200 -0.040000 -0.641690
v -0.203600 -0.040000 -0.338290
v -0.203600 -0.040000 -0.641690
v -0.203600 -0.062950 -0.516032
v -0.187200 -0.062950 -0.516032
v -0.203600 -0.060956 -0.541943
v -0.187200 -0.060956 -0.541943
v -0.203600 -0.060956 -0.438037
v -0.187200 -0.060956 -0.438037
v -0.203600 -0.062950 -0.463948
v -0.187200 -0.062950 -0.463948
v -0.203600 -0.057645 -0.412387
v -0.187200 -0.057645 -0.412387
v -0.203600 -0.063616 -0.489990
v -0.187200 -0.063616 -0.489990
v -0.187200 -0.057645 -0.567593
v -0.187200 -0.053031 -0.592851
v -0.187200 -0.053031 -0.387129
v -0.187200 -0.047140 -0.617592
v -0.187200 -0.047140 -0.362388
v -0.203600 -0.047140 -0.362388
v -0.203600 -0.053031 -0.387129
v -0.203600 -0.047140 -0.617592
v -0.203600 -0.057645 -0.567593
v -0.203600 -0.053031 -0.592851
v -0.252800 -0.040000 -0.338290
v -0.236400 -0.040000 -0.338290
v -0.252800 -0.047140 -0.362388
v -0.236400 -0.047140 -0.362388
v -0.252800 -0.063616 -0.489990
v -0.236400 -0.063616 -0.489990
v -0.252800 -0.062950 -0.516032
v -0.236400 -0.062950 -0.516032
v -0.252800 -0.060956 -0.541943
v -0.236400 -0.060956 -0.541943
v -0.252800 -0.062950 -0.463948
v -0.236400 -0.062950 -0.463948
v -0.252800 -0.047140 -0.617592
v -0.236400 -0.047140 -0.617592
v -0.252800 -0.040000 -0.641690
v -0.236400 -0.040000 -0.641690
v -0.252800 -0.060956 -0.438037
v -0.252800 -0.057645 -0.412387
v -0.252800 -0.057645 -0.567593
v -0.252800 -0.053031 -0.387129
v -0.252800 -0.053031 -0.592851
v -0.236400 -0.060956 -0.438037
v -0.236400 -0.053031 -0.387129
v -0.236400 -0.053031 -0.592851
v -0.236400 -0.057645 -0.412387
v -0.236400 -0.057645 -0.567593
v -0.220000 -0.040000 -0.893156
v -0.220000 -0.040000 -0.086824
v -0.220000 -0.020000 -0.893156
v -0.220000 -0.020000 -0.086824
v -0.493156 -0.020000 -0.086824
v -0.473156 -0.040000 -0.086824
v -0.475766 -0.039829 -0.086824
v -0.478332 -0.039319 -0.086824
v -0.480810 -0.038478 -0.086824
v -0.483156 -0.037321 -0.086824
v -0.485331 -0.035867 -0.086824
v -0.487298 -0.034142 -0.086824
v -0.489023 -0.032175 -0.086824
v -0.490476 -0.030000 -0.086824
v -0.491633 -0.027654 -0.086824
v -0.492474 -0.025176 -0.086824
v -0.492985 -0.022611 -0.086824
v -0.473156 -0.040000 -0.893156
v -0.475766 -0.039829 -0.893156
v -0.478332 -0.039319 -0.893156
v -0.480810 -0.038478 -0.893156
v -0.483156 -0.037321 -0.893156
v -0.485331 -0.035867 -0.893156
v -0.487298 -0.034142 -0.893156
v -0.489023 -0.032175 -0.893156
v -0.490476 -0.030000 -0.893156
v -0.491633 -0.027654 -0.893156
v -0.492474 -0.025176 -0.893156
v -0.492985 -0.022611 -0.893156
vn 0.5773 -0.5774 0.5774
vn 0.7139 -0.6998 -0.0234
vn 0.7139 0.6998 -0.0234
vn 0.9045 -0.3015 0.3015
vn 0.5774 0.5774 0.5774
vn -0.5774 -0.5774 0.5774
vn -0.9045 -0.3015 0.3015
vn -0.5773 -0.5774 0.5773
vn -0.5773 0.5773 0.5774
vn -0.7139 0.6998 -0.0234
vn 0.6837 0.7231 -0.0979
vn 0.5904 0.7159 -0.3727
vn -0.6443 0.6934 -0.3224
vn -0.6334 0.7188 -0.2867
vn 0.5447 0.6934 -0.4716
vn 0.4671 0.7122 -0.5240
vn -0.5368 0.7126 -0.4517
vn 0.4050 0.6934 -0.5959
vn 0.3222 0.7031 -0.6339
vn -0.4014 0.7061 -0.5833
vn -0.3950 0.6934 -0.6026
vn 0.2371 0.7002 -0.6734
vn -0.3125 0.6934 -0.6492
vn 0.1476 0.6974 -0.7013
vn -0.2244 0.6934 -0.6847
vn 0.0553 0.6947 -0.7171
vn 0.0234 0.6998 -0.7139
vn -0.0234 0.6998 -0.7139
vn -0.0553 0.6947 -0.7172
vn -0.5773 -0.5774 -0.5774
vn -0.3015 -0.9045 -0.3015
vn 0.3015 -0.9045 -0.3015
vn 0.5773 -0.5774 -0.5774
vn -0.5774 -0.5773 -0.5774
vn -0.9045 -0.3015 -0.3015
vn 0.9045 -0.3015 -0.3015
vn -0.5773 -0.5774 0.5774
vn -0.3015 -0.9045 0.3015
vn -0.0234 -0.6998 -0.7139
vn -0.7139 -0.6998 -0.0234
vn 0.3015 -0.9045 0.3015
vn -0.6910 -0.7163 -0.0970
vn -0.6647 -0.7214 -0.1944
vn 0.7060 -0.6934 -0.1440
vn 0.6837 -0.7230 -0.0987
vn -0.6334 -0.7190 -0.2861
vn -0.5904 -0.7160 -0.3724
vn 0.6334 -0.7189 -0.2864
vn -0.5447 -0.6934 -0.4716
vn -0.4671 -0.7122 -0.5240
vn 0.5368 -0.7126 -0.4517
vn -0.4014 -0.7062 -0.5832
vn 0.4817 -0.7057 -0.5196
vn -0.1480 -0.6934 -0.7052
vn -0.0553 -0.6947 -0.7171
vn 0.1476 -0.6973 -0.7014
vn 0.0553 -0.6947 -0.7172
vn 0.0234 -0.6998 -0.7139
vn 0.5773 -0.5774 0.5773
vn -0.2860 -0.6631 -0.6918
vn -0.3951 -0.6934 -0.6026
vn -0.5257 0.6689 -0.5257
vn 0.5774 -0.5774 -0.5774
vn 0.5774 -0.5773 0.5774
vn 0.4566 -0.6622 -0.5942
vn 0.6937 0.6607 -0.2867
vn 0.7252 0.6605 -0.1943
vn 0.3243 -0.6934 -0.6434
vn 0.2870 -0.6631 -0.6914
vn 0.6498 -0.6610 -0.3752
vn -0.7187 0.6934 -0.0505
vn -0.7060 0.6934 -0.1440
vn -1.0000 -0.0000 -0.0000
vn -0.0000 -0.0000 -1.0000
vn -0.0000 -0.0001 -1.0000
vn -0.0000 -0.0000 1.0000
vn 1.0000 -0.0000 -0.0000
vn 0.5763 0.4378 0.6901
vn 0.7071 -0.0000 0.7071
vn 0.7071 -0.0000 -0.7071
vn 0.5885 -0.0000 -0.8085
vn -0.0000 -1.0000 -0.0000
vn -0.0000 1.0000 -0.0000
vn -0.0000 0.7071 0.7071
vn 0.1305 -0.9914 -0.0000
vn 0.0654 -0.9979 -0.0000
vn 0.2588 -0.9659 -0.0000
vn 0.3827 -0.9239 -0.0000
vn 0.5000 -0.8660 -0.0000
vn 0.6088 -0.7934 -0.0000
vn 0.7071 -0.7071 -0.0000
vn 0.7934 -0.6088 -0.0000
vn 0.8660 -0.5000 -0.0000
vn 0.9239 -0.3827 -0.0000
vn 0.9659 -0.2588 -0.0000
vn 0.9914 -0.1305 -0.0000
vn 0.9979 -0.0654 -0.0000
vn -0.0000 -0.9987 -0.0512
vn -0.0000 -0.9947 -0.1024
vn -0.0000 -0.9947 0.1024
vn -0.0000 -0.9987 0.0512
vn -0.0000 -0.9881 0.1539
vn -0.0000 -0.9662 0.2580
vn -0.0000 -0.9786 0.2057
vn -0.0000 -0.9662 -0.2580
vn -0.0000 -0.9588 -0.2841
vn -0.0000 -0.9881 -0.1539
vn -0.0000 -0.9786 -0.2057
vn -0.0000 -0.9588 0.2841
vn -0.5885 -0.7358 0.3352
vn -0.4781 -0.7993 0.3642
vn -0.0000 -0.9100 0.4146
vn -0.9914 -0.1305 -0.0000
vn -0.9979 -0.0654 -0.0000
vn -0.9659 -0.2588 -0.0000
vn -0.9239 -0.3827 -0.0000
vn -0.8660 -0.5000 -0.0000
vn -0.7934 -0.6088 -0.0000
vn -0.7071 -0.7071 -0.0000
vn -0.6088 -0.7934 -0.0000
vn -0.5000 -0.8660 -0.0000
vn -0.3827 -0.9239 -0.0000
vn -0.2588 -0.9659 -0.0000
vn -0.1305 -0.9914 -0.0000
vn -0.0654 -0.9979 -0.0000
vt 0.787402 2.361418
vt 0.787402 35.163620
vt -13.461960 35.163620
vt 0.000000 2.361418
vt 0.000000 0.000000
vt -13.461960 -0.000000
vt 20.472441 0.000000
vt 20.472441 2.361418
vt 0.000000 -0.787402
vt -20.472441 0.000000
vt -20.472441 -0.787402
vt -20.472441 0.000000
vt 0.000000 0.000000
vt 0.000000 35.163620
vt -20.472441 35.163620
vt -0.009042 35.301559
vt -0.141592 35.692039
vt -20.330851 35.692039
vt -20.391991 35.568062
vt -0.218396 35.806992
vt -0.309546 35.910931
vt -20.254049 35.806992
vt -0.413484 36.002079
vt -0.528429 36.078880
vt -20.058960 36.002079
vt -19.944010 36.078880
vt -0.652416 36.140018
vt -19.820021 36.140018
vt -0.783323 36.184460
vt -19.689119 36.184460
vt -0.918910 36.211430
vt -1.056858 36.220470
vt -19.415581 36.220470
vt -19.553530 36.211430
vt 0.000000 13.461960
vt -20.472441 13.461960
vt 1.056858 12.204720
vt 1.056858 -0.787402
vt 19.415581 -0.787402
vt 19.415581 12.204720
vt 13.461960 -0.000000
vt 1.056858 0.393701
vt 19.415581 0.393701
vt 0.393701 28.221420
vt 12.204720 35.163620
vt -0.787402 35.163620
vt 0.393701 27.164570
vt -0.787402 3.418275
vt 12.204720 3.418275
vt 19.415581 13.461960
vt 1.056858 13.461960
vt 19.415581 3.418275
vt 20.472441 35.163620
vt 19.415581 35.163620
vt 20.463400 35.301559
vt 1.056858 35.163620
vt 0.000000 35.163620
vt 20.436430 35.437149
vt 0.036012 35.437149
vt 0.009042 35.301559
vt 20.391991 35.568062
vt 20.330851 35.692039
vt 0.080448 35.568062
vt 20.254049 35.806992
vt 20.162901 35.910931
vt 0.218396 35.806992
vt 20.058960 36.002079
vt 0.309546 35.910931
vt 19.689119 36.184460
vt 19.553530 36.211430
vt 0.783323 36.184460
vt 19.415581 36.220470
vt 0.918910 36.211430
vt 1.056858 36.220470
vt 1.056858 3.418275
vt 19.415581 27.164570
vt 13.461960 -7.013105
vt -0.787402 -7.013105
vt -0.787402 -7.151349
vt 13.461960 -7.151349
vt 13.461960 -12.113320
vt -0.787402 -12.113320
vt -0.787402 -12.251560
vt 13.461960 -12.251560
vt 13.461960 3.461512
vt -0.787402 3.461512
vt -0.787402 3.323268
vt 13.461960 3.323268
vt -0.787402 18.519880
vt -0.787402 18.381639
vt 13.461960 18.381639
vt 13.461960 18.519880
vt 13.461960 -17.005079
vt -0.787402 -17.005079
vt -0.787402 -17.143320
vt 13.461960 -17.143320
vt 13.461960 -1.791717
vt -0.787402 -1.791717
vt -0.787402 -1.929960
vt 13.461960 -1.929960
vt -0.787402 13.704940
vt -0.787402 13.566700
vt 13.461960 13.566700
vt 13.461960 13.704940
vt 13.461960 8.656695
vt -0.787402 8.656695
vt -0.787402 8.518452
vt 1.056858 28.221420
vt 19.415581 28.221420
vt -13.461960 23.910450
vt 0.787402 23.910450
vt 0.787402 24.048691
vt -13.461960 24.048691
vt 0.787402 27.065121
vt 0.787402 27.203360
vt -13.461960 27.203360
vt -13.461960 27.065121
vt -13.461960 35.226570
vt -13.461960 35.088329
vt 0.787402 35.088329
vt 0.787402 33.568081
vt 0.787402 33.706329
vt -13.461960 33.706329
vt -13.461960 33.568081
vt -13.461960 16.431210
vt 0.787402 16.431210
vt 0.787402 16.569460
vt -13.461960 16.569460
vt 0.787402 34.625019
vt 0.787402 34.763260
vt -13.461960 34.763260
vt -13.461960 34.625019
vt 0.787402 31.935600
vt 0.787402 32.073841
vt -13.461960 32.073841
vt -13.461960 31.935600
vt -13.461960 3.285283
vt 0.787402 3.285283
vt 0.787402 3.423527
vt -13.461960 3.423527
vt -13.461960 7.827509
vt 0.787402 7.827509
vt 0.787402 7.965753
vt -13.461960 7.965753
vt -20.463400 35.301559
vt -0.036012 35.437149
vt -20.436430 35.437149
vt -0.080448 35.568062
vt -20.162901 35.910931
vt -1.056858 -0.787402
vt -1.056858 12.204720
vt -19.415581 12.204720
vt -19.415581 -0.787402
vt 13.461960 35.163620
vt -0.787402 2.361418
vt -0.393701 28.221420
vt 0.787402 3.418275
vt -12.204720 35.163620
vt -12.204720 28.221420
vt -0.393701 27.164570
vt -12.204720 3.418275
vt -12.204720 27.164570
vt 12.204720 28.221420
vt 12.204720 27.164570
vt 1.056858 27.164570
vt -1.056858 0.393701
vt -19.415581 0.393701
vt 0.141592 35.692039
vt 0.413484 36.002079
vt 19.944010 36.078880
vt 0.528429 36.078880
vt 19.820021 36.140018
vt 0.652416 36.140018
vt -0.787402 27.125669
vt -0.787402 26.987431
vt 13.461960 26.987431
vt 13.461960 27.125669
vt -0.787402 33.887611
vt -0.787402 33.749371
vt 13.461960 33.749371
vt 13.461960 33.887611
vt -0.787402 23.019119
vt -0.787402 22.880871
vt 13.461960 22.880871
vt 13.461960 23.019119
vt -0.787402 30.769291
vt -0.787402 30.631041
vt 13.461960 30.631041
vt 13.461960 30.769291
vt 13.461960 8.518452
vt 0.787402 35.226570
vt 0.787402 29.755510
vt 0.787402 29.893761
vt -13.461960 29.893761
vt -13.461960 29.755510
vt -13.461960 20.345480
vt 0.787402 20.345480
vt 0.787402 20.483721
vt -13.461960 20.483721
vt -13.461960 12.234620
vt 0.787402 12.234620
vt 0.787402 12.372870
vt -13.461960 12.372870
vt -0.787402 15.872670
vt -0.787402 -15.872670
vt 0.000000 -15.872670
vt 0.000000 15.872670
vt 7.604560 0.000000
vt 0.006736 -0.102776
vt 0.026830 -0.203794
vt 0.059937 -0.301326
vt 0.105492 -0.393701
vt 0.162714 -0.479340
vt 0.230625 -0.556777
vt 0.308062 -0.624688
vt 0.393701 -0.681910
vt 0.486076 -0.727464
vt 0.583607 -0.760571
vt 0.684625 -0.780665
vt 0.787402 -0.787402
vt 7.604560 -0.787402
vt -0.006736 -0.102776
vt 0.000000 -0.000000
vt -7.604560 -0.000000
vt -0.026830 -0.203794
vt -0.059937 -0.301326
vt -0.105492 -0.393701
vt -0.162714 -0.479340
vt -0.230625 -0.556777
vt -0.308062 -0.624688
vt -0.393701 -0.681910
vt -0.486076 -0.727464
vt -0.583607 -0.760571
vt -0.684625 -0.780665
vt -0.787402 -0.787402
vt -7.604560 -0.787402
vt -1.278983 -0.787402
vt -1.278983 -0.000000
vt -2.720505 -0.000000
vt -5.123041 -0.787402
vt -3.681519 -0.000000
vt -5.123041 -0.000000
vt -0.787402 2.971218
vt -0.787402 -2.971218
vt -0.000000 -2.971218
vt -0.000000 2.971218
vt 1.574803 -2.971218
vt 1.574803 2.971218
vt 1.278983 -0.000000
vt 1.278983 -0.787402
vt 5.123041 -0.787402
vt 5.123041 -0.000000
vt 0.787402 -2.971218
vt 0.787402 2.971218
vt 0.000000 2.971218
vt 0.000000 -2.971218
vt -1.574803 -2.971218
vt -1.574803 2.971218
vt -2.720505 1.574803
vt -1.278983 1.574803
vt -5.123041 1.574803
vt -3.681519 1.574803
vt -2.720505 0.787402
vt -3.681519 0.787402
vt 0.787402 1.243029
vt 1.574803 1.243029
vt 5.123041 2.971218
vt 3.681519 1.243029
vt 1.278983 -2.971218
vt 3.681519 2.971218
vt 2.720505 1.243029
vt 2.720505 2.971218
vt 1.278983 2.971218
vt 5.123041 -2.971218
vt 1.278983 1.574803
vt 5.123041 1.574803
vt -1.278983 -2.971218
vt -7.604560 -15.872670
vt -1.278983 2.971218
vt -2.720505 2.971218
vt -3.681519 2.971218
vt -5.123041 2.971218
vt -5.123041 -2.971218
vt -7.604560 15.872670
vt 6.313221 -5.972441
vt 6.313221 5.972441
vt 7.604560 -15.872670
vt 0.787402 -15.872670
vt 0.787402 15.872670
vt 6.958890 -5.972441
vt 7.604560 15.872670
vt 6.958890 5.972441
vt -3.681519 1.243029
vt -2.720505 1.243029
vt 2.720505 1.574803
vt 2.720505 -0.000000
vt 3.681519 -0.000000
vt 3.681519 1.574803
vt 0.734217 -15.872670
vt 0.837214 -15.872670
vt 0.837214 15.872670
vt 0.734217 15.872670
vt 0.720773 -15.872670
vt 0.823770 -15.872670
vt 0.823770 15.872670
vt 0.720773 15.872670
vt 0.694116 -15.872670
vt 0.797113 -15.872670
vt 0.797113 15.872670
vt 0.694116 15.872670
vt 0.654701 -15.872670
vt 0.757698 -15.872670
vt 0.757698 15.872670
vt 0.654701 15.872670
vt 0.603202 -15.872670
vt 0.706199 -15.872670
vt 0.706199 15.872670
vt 0.603202 15.872670
vt 0.540501 -15.872670
vt 0.643498 -15.872670
vt 0.643498 15.872670
vt 0.540501 15.872670
vt 0.570669 -15.872670
vt 0.570669 15.872670
vt 0.467671 15.872670
vt 0.467671 -15.872670
vt 0.488955 -15.872670
vt 0.488955 15.872670
vt 0.385958 15.872670
vt 0.385958 -15.872670
vt 0.399757 -15.872670
vt 0.399757 15.872670
vt 0.296760 15.872670
vt 0.296760 -15.872670
vt 0.304601 -15.872670
vt 0.304601 15.872670
vt 0.201603 15.872670
vt 0.201603 -15.872670
vt 0.205113 -15.872670
vt 0.205113 15.872670
vt 0.102116 15.872670
vt 0.102116 -15.872670
vt 6.313221 0.892529
vt 6.958890 0.892529
vt 6.958890 1.915665
vt 6.313221 1.915665
vt 6.313221 -1.915665
vt 6.958890 -1.915665
vt 6.958890 -0.892529
vt 6.313221 -0.892529
vt 6.313221 -2.840280
vt 6.958890 -2.840280
vt 6.958890 -1.822076
vt 6.313221 -1.822076
vt 6.313221 -0.981737
vt 6.958890 -0.981737
vt 6.958890 0.043882
vt 6.313221 0.043882
vt 1.690956 -1.025284
vt 1.717165 0.000000
vt 1.690956 1.025284
vt 1.612459 2.045405
vt 1.612459 -2.045405
vt 1.482069 3.055225
vt 1.482069 -3.055225
vt 1.300445 4.049660
vt 1.300445 -4.049660
vt 1.068500 5.023700
vt 1.068500 -5.023700
vt 0.787402 5.972441
vt 0.787402 -5.972441
vt 6.313221 -4.639534
vt 6.958890 -4.639534
vt 6.958890 -3.638258
vt 6.313221 -3.638258
vt 6.313221 -3.750110
vt 6.958890 -3.750110
vt 6.958890 -2.739226
vt 6.313221 -2.739226
vt 6.313221 4.513190
vt 6.958890 4.513190
vt 6.958890 5.502698
vt 6.313221 5.502698
vt -1.690956 1.025284
vt -1.717165 0.000000
vt -1.690956 -1.025284
vt -1.612459 -2.045405
vt -1.612459 2.045405
vt -1.482069 -3.055225
vt -1.482069 3.055225
vt -1.300445 -4.049660
vt -1.300445 4.049660
vt -1.068500 -5.023700
vt -1.068500 5.023700
vt -0.787402 -5.972441
vt -0.787402 5.972441
vt 6.313221 1.822076
vt 6.958890 1.822076
vt 6.958890 2.840280
vt 6.313221 2.840280
vt 6.313221 2.739226
vt 6.958890 2.739226
vt 6.958890 3.750110
vt 6.313221 3.750110
vt 6.313221 -0.043882
vt 6.958890 -0.043882
vt 6.958890 0.981737
vt 6.313221 0.981737
vt 6.313221 3.638258
vt 6.958890 3.638258
vt 6.958890 4.639534
vt 6.313221 4.639534
vt 6.313221 -5.502698
vt 6.958890 -5.502698
vt 6.958890 -4.513190
vt 6.313221 -4.513190
vt -0.787402 1.243029
vt -1.574803 1.243029
vt 2.720505 0.804684
vt 3.681519 0.804684
vt 3.681519 2.703799
vt 2.720505 2.703799
vt -10.108500 -5.502698
vt -9.462828 -5.502698
vt -9.462828 -4.513190
vt -10.108500 -4.513190
vt -10.108500 -0.043882
vt -9.462828 -0.043882
vt -9.462828 0.981737
vt -10.108500 0.981737
vt -10.108500 0.892529
vt -9.462828 0.892529
vt -9.462828 1.915665
vt -10.108500 1.915665
vt -10.108500 -0.981737
vt -9.462828 -0.981737
vt -9.462828 0.043882
vt -10.108500 0.043882
vt -10.108500 4.513190
vt -9.462828 4.513190
vt -9.462828 5.502698
vt -10.108500 5.502698
vt -10.108500 -1.915665
vt -9.462828 -1.915665
vt -9.462828 -0.892529
vt -10.108500 -0.892529
vt -10.108500 -4.639534
vt -9.462828 -4.639534
vt -9.462828 -3.638258
vt -10.108500 -3.638258
vt -10.108500 3.638258
vt -9.462828 3.638258
vt -9.462828 4.639534
vt -10.108500 4.639534
vt -10.108500 -3.750110
vt -9.462828 -3.750110
vt -9.462828 -2.739226
vt -10.108500 -2.739226
vt -10.108500 -2.840280
vt -9.462828 -2.840280
vt -9.462828 -1.822076
vt -10.108500 -1.822076
vt -10.108500 1.822076
vt -9.462828 1.822076
vt -9.462828 2.840280
vt -10.108500 2.840280
vt -10.108500 2.739226
vt -9.462828 2.739226
vt -9.462828 3.750110
vt -10.108500 3.750110
vt 10.754170 -0.787402
vt 10.754170 0.000000
vt 0.000000 0.000000
vt -10.754170 0.000000
vt -10.754170 -0.787402
vt -9.462828 -5.972441
vt -9.462828 5.972441
vt -10.108500 5.972441
vt -10.108500 -5.972441
vt -10.754170 -15.872670
vt -10.754170 15.872670
vt 10.754170 -15.872670
vt 10.754170 15.872670
vt -0.102997 15.872670
vt -0.102997 -15.872670
vt -0.205113 15.872670
vt -0.205113 -15.872670
vt -0.304601 15.872670
vt -0.304601 -15.872670
vt -0.201603 -15.872670
vt -0.201603 15.872670
vt -0.399757 15.872670
vt -0.399757 -15.872670
vt -0.296760 -15.872670
vt -0.296760 15.872670
vt -0.488955 15.872670
vt -0.488955 -15.872670
vt -0.385958 -15.872670
vt -0.385958 15.872670
vt -0.570669 15.872670
vt -0.570669 -15.872670
vt -0.467671 -15.872670
vt -0.467671 15.872670
vt -0.643498 -15.872670
vt -0.540501 -15.872670
vt -0.540501 15.872670
vt -0.643498 15.872670
vt -0.706199 -15.872670
vt -0.603202 -15.872670
vt -0.603202 15.872670
vt -0.706199 15.872670
vt -0.757698 -15.872670
vt -0.654701 -15.872670
vt -0.654701 15.872670
vt -0.757698 15.872670
vt -0.797113 -15.872670
vt -0.694116 -15.872670
vt -0.694116 15.872670
vt -0.797113 15.872670
vt -0.823770 -15.872670
vt -0.720773 -15.872670
vt -0.720773 15.872670
vt -0.823770 15.872670
vt -0.837214 -15.872670
vt -0.734217 -15.872670
vt -0.734217 15.872670
vt -0.837214 15.872670
s 1
usemtl metalLight
f 2/1/1 1/2/2 3/3/3
f 3/3/3 4/4/4 2/1/1
f 3/3/3 5/5/1 4/4/4
f 3/3/3 6/6/5 5/5/1
f 5/5/1 7/7/6 8/8/7
f 2/9/1 4/5/4 8/10/7
f 8/10/7 9/11/8 2/9/1
f 10/12/9 6/13/5 3/14/3
f 3/14/3 11/15/10 10/12/9
f 3/14/3 12/16/11 11/15/10
f 18/17/12 19/18/13 17/19/14
f 20/20/15 22/21/16 21/22/17
f 24/23/18 26/24/19 25/25/20
f 26/24/19 27/26/21 25/25/20
f 26/24/19 28/27/22 27/26/21
f 28/27/22 29/28/23 27/26/21
f 28/27/22 30/29/24 29/28/23
f 30/29/24 31/30/25 29/28/23
f 30/29/24 32/31/26 31/30/25
f 34/32/27 35/33/28 33/34/29
f 5/5/1 6/35/5 10/36/9
f 10/36/9 7/10/6 5/5/1
f 41/37/30 40/38/31 42/39/32
f 42/39/32 43/40/33 41/37/30
f 8/4/7 7/5/6 10/41/9
f 46/37/34 45/42/35 47/43/36
f 45/44/35 36/45/37 37/46/38
f 37/46/38 51/47/7 45/44/35
f 51/47/7 37/46/38 40/48/31
f 40/48/31 41/49/30 51/47/7
f 54/39/39 35/50/28 34/51/27
f 42/52/32 2/4/1 9/8/8
f 44/53/40 39/54/41 42/52/32
f 55/55/42 37/56/38 39/54/41
f 55/55/42 1/57/2 37/56/38
f 57/58/43 58/59/44 56/60/45
f 57/58/43 59/61/46 58/59/44
f 59/61/46 61/62/47 60/63/48
f 63/64/49 65/65/50 64/66/51
f 65/65/50 67/67/52 66/68/53
f 73/69/54 75/70/55 74/71/56
f 75/70/55 54/72/39 76/73/57
f 54/72/39 53/74/58 76/73/57
f 40/75/31 37/56/38 1/57/2
f 41/75/30 43/52/33 50/76/59
f 31/77/25 73/78/54 71/79/60
f 71/79/60 29/80/23 31/77/25
f 33/81/29 75/82/55 73/83/54
f 73/83/54 31/84/25 33/81/29
f 27/85/21 69/86/61 67/87/52
f 67/87/52 25/88/20 27/85/21
f 63/89/49 61/90/47 19/91/13
f 19/91/13 21/92/17 63/89/49
f 35/93/28 54/94/39 75/95/55
f 75/95/55 33/96/29 35/93/28
f 29/97/23 71/98/60 69/99/61
f 69/99/61 27/100/21 29/97/23
f 65/101/50 63/102/49 21/103/17
f 21/103/17 23/104/62 65/101/50
f 25/105/20 67/106/52 65/107/50
f 46/108/34 48/109/63 38/54/64
f 38/54/64 36/56/37 46/108/34
f 22/110/16 66/111/53 68/112/65
f 68/112/65 24/113/18 22/110/16
f 64/114/51 66/115/53 22/116/16
f 22/116/16 20/117/15 64/114/51
f 12/118/11 3/119/3 1/120/2
f 58/121/44 60/122/48 16/123/66
f 16/123/66 14/124/67 58/121/44
f 26/125/19 70/126/68 72/127/69
f 72/127/69 28/128/22 26/125/19
f 56/129/45 58/130/44 14/131/67
f 14/131/67 12/132/11 56/129/45
f 60/133/48 62/134/70 18/135/12
f 18/135/12 16/136/66 60/133/48
f 32/137/26 76/138/57 53/139/58
f 53/139/58 34/140/27 32/137/26
f 30/141/24 74/142/56 76/143/57
f 76/143/57 32/144/26 30/141/24
f 8/8/7 4/4/4 5/5/1
f 12/16/11 13/145/71 11/15/10
f 12/16/11 14/146/67 13/145/71
f 14/146/67 15/147/72 13/145/71
f 14/146/67 16/148/66 15/147/72
f 16/148/66 17/19/14 15/147/72
f 16/148/66 18/17/12 17/19/14
f 18/17/12 20/20/15 19/18/13
f 20/20/15 21/22/17 19/18/13
f 22/21/16 23/149/62 21/22/17
f 22/21/16 24/23/18 23/149/62
f 24/23/18 25/25/20 23/149/62
f 32/31/26 33/34/29 31/30/25
f 32/31/26 34/32/27 33/34/29
f 37/150/38 36/151/37 38/152/64
f 38/152/64 39/153/41 37/150/38
f 8/4/7 10/41/9 11/154/10
f 8/4/7 11/154/10 44/46/40
f 44/46/40 9/155/8 8/4/7
f 47/43/36 48/40/63 46/37/34
f 47/156/36 42/157/32 39/2/41
f 39/2/41 38/158/64 47/156/36
f 38/158/64 48/159/63 47/156/36
f 42/157/32 47/156/36 49/160/4
f 49/160/4 43/161/33 42/157/32
f 49/160/4 50/162/59 43/161/33
f 45/44/35 46/163/34 36/45/37
f 41/49/30 52/164/6 51/47/7
f 51/165/7 49/76/4 47/109/36
f 47/109/36 45/108/35 51/165/7
f 51/166/7 52/151/6 50/152/59
f 50/152/59 49/167/4 51/166/7
f 34/51/27 53/38/58 54/39/39
f 9/8/8 44/53/40 42/52/32
f 44/53/40 55/55/42 39/54/41
f 55/55/42 56/60/45 1/57/2
f 55/55/42 57/58/43 56/60/45
f 59/61/46 60/63/48 58/59/44
f 61/62/47 62/168/70 60/63/48
f 61/62/47 63/64/49 62/168/70
f 63/64/49 64/66/51 62/168/70
f 65/65/50 66/68/53 64/66/51
f 67/67/52 68/169/65 66/68/53
f 67/67/52 69/170/61 68/169/65
f 69/170/61 70/171/68 68/169/65
f 69/170/61 71/172/60 70/171/68
f 71/172/60 72/173/69 70/171/68
f 71/172/60 73/69/54 72/173/69
f 73/69/54 74/71/56 72/173/69
f 75/70/55 76/73/57 74/71/56
f 40/75/31 1/57/2 2/4/1
f 2/4/1 42/52/32 40/75/31
f 50/76/59 52/165/6 41/75/30
f 59/174/46 57/175/43 15/176/72
f 15/176/72 17/177/14 59/174/46
f 55/178/42 44/179/40 11/180/10
f 11/180/10 13/181/71 55/178/42
f 61/182/47 59/183/46 17/184/14
f 17/184/14 19/185/13 61/182/47
f 57/186/43 55/187/42 13/188/71
f 13/188/71 15/189/72 57/186/43
f 65/107/50 23/190/62 25/105/20
f 1/120/2 56/191/45 12/118/11
f 62/192/70 64/193/51 20/194/15
f 20/194/15 18/195/12 62/192/70
f 24/196/18 68/197/65 70/198/68
f 70/198/68 26/199/19 24/196/18
f 28/200/22 72/201/69 74/202/56
f 74/202/56 30/203/24 28/200/22
f 78/204/73 77/205/73 79/206/73
f 79/206/73 80/207/73 78/204/73
f 80/208/74 37/5/74 81/209/74
f 81/209/74 82/210/74 80/208/74
f 82/210/74 83/211/74 80/208/74
f 83/211/74 84/212/74 80/208/74
f 84/212/74 85/213/74 80/208/74
f 85/213/74 86/214/75 80/208/74
f 86/214/75 87/215/74 80/208/74
f 87/215/74 88/216/74 80/208/74
f 88/216/74 89/217/74 80/208/74
f 89/217/74 90/218/74 80/208/74
f 90/218/74 91/219/74 80/208/74
f 91/219/74 92/220/74 80/208/74
f 92/220/74 78/221/74 80/208/74
f 94/222/76 93/223/76 79/224/76
f 79/224/76 95/225/76 94/222/76
f 79/224/76 96/226/76 95/225/76
f 79/224/76 97/227/76 96/226/76
f 79/224/76 98/228/76 97/227/76
f 79/224/76 99/229/76 98/228/76
f 79/224/76 100/230/76 99/229/76
f 79/224/76 101/231/76 100/230/76
f 79/224/76 102/232/76 101/231/76
f 79/224/76 103/233/76 102/232/76
f 79/224/76 104/234/76 103/233/76
f 79/224/76 105/235/76 104/234/76
f 79/224/76 77/236/76 105/235/76
f 107/237/76 106/238/76 108/239/76
f 108/239/76 109/240/76 107/237/76
f 108/239/76 110/241/76 109/240/76
f 110/241/76 111/242/76 109/240/76
f 107/243/73 116/244/73 117/245/73
f 117/245/73 106/246/73 107/243/73
f 118/247/73 113/248/73 106/246/73
f 117/249/74 116/250/74 119/251/74
f 119/251/74 120/252/74 117/249/74
f 119/253/77 109/254/77 111/255/77
f 111/255/77 120/256/77 119/253/77
f 121/257/77 120/256/77 111/255/77
f 111/255/77 114/258/77 121/257/77
f 106/238/74 112/259/74 113/260/74
f 112/259/74 106/238/74 108/239/74
f 106/246/77 118/247/78 117/245/79
f 110/241/74 114/261/74 115/262/74
f 114/261/74 110/241/74 111/242/74
f 123/263/74 122/262/80 124/259/74
f 122/262/80 123/263/74 125/264/81
f 125/265/81 115/248/77 122/266/80
f 114/267/82 122/268/82 118/269/82
f 114/267/82 115/270/82 122/268/82
f 124/271/82 112/272/82 113/273/82
f 118/269/78 114/267/83 121/274/84
f 118/269/83 124/271/83 122/268/83
f 124/271/83 118/269/83 113/273/83
f 118/275/78 120/252/76 117/249/79
f 120/252/76 118/275/78 121/276/84
f 117/277/83 79/278/83 93/206/83
f 93/206/83 37/207/83 117/277/83
f 37/207/83 106/279/83 117/277/83
f 37/207/83 108/280/83 106/279/83
f 37/207/83 110/281/83 108/280/83
f 37/207/83 111/282/83 110/281/83
f 79/278/83 117/277/83 120/283/83
f 120/283/83 80/284/83 79/278/83
f 120/283/83 111/282/83 80/284/83
f 111/282/83 37/207/83 80/284/83
f 119/274/82 126/285/82 127/286/82
f 127/286/82 109/267/82 119/274/82
f 127/286/82 107/273/82 109/267/82
f 126/285/82 119/274/82 116/269/82
f 77/287/82 126/285/82 116/269/82
f 105/288/82 77/287/82 116/269/82
f 116/269/82 92/289/82 105/288/82
f 116/269/82 107/273/82 92/289/82
f 107/273/82 127/286/82 92/289/82
f 77/287/82 128/290/82 126/285/82
f 128/290/82 77/287/82 78/291/82
f 127/286/82 78/291/82 92/289/82
f 78/291/82 129/292/82 128/290/82
f 78/291/82 127/286/82 129/292/82
f 122/293/83 124/294/83 112/280/83
f 112/280/83 115/281/83 122/293/83
f 112/295/74 108/296/74 110/297/74
f 110/297/74 115/298/74 112/295/74
f 104/299/85 105/300/86 92/301/86
f 92/301/86 91/302/85 104/299/85
f 103/303/87 104/304/85 91/305/85
f 91/305/85 90/306/87 103/303/87
f 102/307/88 103/308/87 90/309/87
f 90/309/87 89/310/88 102/307/88
f 101/311/89 102/312/88 89/313/88
f 89/313/88 88/314/89 101/311/89
f 100/315/90 101/316/89 88/317/89
f 88/317/89 87/318/90 100/315/90
f 99/319/91 100/320/90 87/321/90
f 87/321/90 86/322/91 99/319/91
f 99/323/91 86/324/91 85/325/92
f 85/325/92 98/326/92 99/323/91
f 98/327/92 85/328/92 84/329/93
f 84/329/93 97/330/93 98/327/92
f 97/331/93 84/332/93 83/333/94
f 83/333/94 96/334/94 97/331/93
f 96/335/94 83/336/94 82/337/95
f 82/337/95 95/338/95 96/335/94
f 95/339/95 82/340/95 81/341/96
f 81/341/96 94/342/96 95/339/95
f 94/342/96 81/341/96 37/207/97
f 37/207/97 93/206/97 94/342/96
f 179/288/77 178/289/77 180/207/77
f 180/207/77 181/206/77 179/288/77
f 179/471/76 181/472/76 182/473/76
f 182/473/76 183/220/76 179/471/76
f 182/473/76 184/219/76 183/220/76
f 182/473/76 185/218/76 184/219/76
f 182/473/76 186/217/76 185/218/76
f 182/473/76 187/216/76 186/217/76
f 182/473/76 188/215/76 187/216/76
f 182/473/76 189/214/76 188/215/76
f 182/473/76 190/213/76 189/214/76
f 182/473/76 191/212/76 190/213/76
f 182/473/76 192/211/76 191/212/76
f 182/473/76 193/210/76 192/211/76
f 182/473/76 194/209/76 193/210/76
f 180/474/74 178/475/74 195/235/74
f 195/235/74 39/5/74 180/474/74
f 195/235/74 196/234/74 39/5/74
f 196/234/74 197/233/74 39/5/74
f 197/233/74 198/232/74 39/5/74
f 198/232/74 199/231/74 39/5/74
f 199/231/74 200/230/74 39/5/74
f 200/230/74 201/229/74 39/5/74
f 201/229/74 202/228/74 39/5/74
f 202/228/74 203/227/74 39/5/74
f 203/227/74 204/226/74 39/5/74
f 204/226/74 205/225/74 39/5/74
f 205/225/74 206/222/74 39/5/74
f 152/476/82 183/205/82 195/204/82
f 195/204/82 166/477/82 152/476/82
f 195/204/82 167/478/82 166/477/82
f 183/205/82 152/476/82 153/479/82
f 179/480/82 183/205/82 153/479/82
f 153/479/82 178/481/82 179/480/82
f 153/479/82 167/478/82 178/481/82
f 167/478/82 195/204/82 178/481/82
f 182/206/83 181/482/83 180/483/83
f 180/483/83 39/207/83 182/206/83
f 206/484/113 194/485/113 182/206/114
f 182/206/114 39/207/114 206/484/113
f 194/485/113 206/484/113 205/486/115
f 205/486/115 193/487/115 194/485/113
f 204/488/116 192/489/116 193/490/115
f 193/490/115 205/491/115 204/488/116
f 203/492/117 191/493/117 192/494/116
f 192/494/116 204/495/116 203/492/117
f 202/496/118 190/497/118 191/498/117
f 191/498/117 203/499/117 202/496/118
f 201/500/119 189/501/119 190/502/118
f 190/502/118 202/503/118 201/500/119
f 188/504/120 189/505/119 201/506/119
f 201/506/119 200/507/120 188/504/120
f 187/508/121 188/509/120 200/510/120
f 200/510/120 199/511/121 187/508/121
f 186/512/122 187/513/121 199/514/121
f 199/514/121 198/515/122 186/512/122
f 185/516/123 186/517/122 198/518/122
f 198/518/122 197/519/123 185/516/123
f 184/520/124 185/521/123 197/522/123
f 197/522/123 196/523/124 184/520/124
f 183/524/125 184/525/124 196/526/124
f 196/526/124 195/527/125 183/524/125
usemtl metalMedium.002
f 131/343/98 130/344/98 132/345/99
f 132/345/99 133/346/99 131/343/98
f 135/347/100 134/348/100 136/349/101
f 136/349/101 137/350/101 135/347/100
f 139/351/102 138/352/102 134/353/100
f 134/353/100 135/354/100 139/351/102
f 137/355/101 136/356/101 140/357/82
f 140/357/82 141/358/82 137/355/101
f 137/359/77 141/360/77 131/361/77
f 131/361/77 133/362/77 137/359/77
f 133/362/77 135/363/77 137/359/77
f 133/362/77 142/364/77 135/363/77
f 142/364/77 139/365/77 135/363/77
f 142/364/77 143/366/77 139/365/77
f 143/366/77 144/367/77 139/365/77
f 143/366/77 145/368/77 144/367/77
f 145/368/77 146/369/77 144/367/77
f 145/368/77 127/370/77 146/369/77
f 127/370/77 126/371/77 146/369/77
f 146/372/103 147/373/103 148/374/104
f 148/374/104 144/375/104 146/372/103
f 144/376/104 148/377/104 138/378/102
f 138/378/102 139/379/102 144/376/104
f 145/380/105 149/381/105 129/382/106
f 129/382/106 127/383/106 145/380/105
f 130/384/73 140/385/73 136/386/73
f 136/386/73 134/387/73 130/384/73
f 134/387/73 132/388/73 130/384/73
f 134/387/73 138/389/73 132/388/73
f 138/389/73 150/390/73 132/388/73
f 138/389/73 148/391/73 150/390/73
f 148/391/73 151/392/73 150/390/73
f 148/391/73 147/393/73 151/392/73
f 147/393/73 149/394/73 151/392/73
f 147/393/73 128/395/73 149/394/73
f 128/395/73 129/396/73 149/394/73
f 133/397/99 132/398/99 150/399/107
f 150/399/107 142/400/107 133/397/99
f 142/401/107 150/402/107 151/403/108
f 151/403/108 143/404/108 142/401/107
f 141/405/82 140/406/82 130/407/98
f 130/407/98 131/408/98 141/405/82
f 143/409/108 151/410/108 149/411/105
f 149/411/105 145/412/105 143/409/108
f 126/413/109 128/414/109 147/415/103
f 147/415/103 146/416/103 126/413/109
f 123/417/77 108/255/77 112/258/77
f 112/258/77 124/418/77 123/417/77
f 115/248/73 110/246/110 125/265/111
f 123/419/112 125/420/111 110/421/110
f 110/421/110 108/422/112 123/419/112
f 153/423/109 152/424/109 154/425/103
f 154/425/103 155/426/103 153/423/109
f 157/427/82 156/428/82 158/429/98
f 158/429/98 159/430/98 157/427/82
f 159/431/98 158/432/98 160/433/99
f 160/433/99 161/434/99 159/431/98
f 163/435/101 162/436/101 156/437/82
f 156/437/82 157/438/82 163/435/101
f 165/439/105 164/440/105 166/441/106
f 166/441/106 167/442/106 165/439/105
f 158/384/73 156/385/73 162/386/73
f 162/386/73 168/387/73 158/384/73
f 168/387/73 160/388/73 158/384/73
f 168/387/73 169/389/73 160/388/73
f 169/389/73 170/390/73 160/388/73
f 169/389/73 171/391/73 170/390/73
f 171/391/73 172/392/73 170/390/73
f 171/391/73 164/394/73 172/392/73
f 171/391/73 154/393/73 164/394/73
f 154/393/73 152/395/73 164/394/73
f 152/395/73 166/396/73 164/394/73
f 173/443/100 168/444/100 162/445/101
f 162/445/101 163/446/101 173/443/100
f 155/447/103 154/448/103 171/449/104
f 171/449/104 174/450/104 155/447/103
f 175/451/108 172/452/108 164/453/105
f 164/453/105 165/454/105 175/451/108
f 174/455/104 171/456/104 169/457/102
f 169/457/102 176/458/102 174/455/104
f 176/459/102 169/460/102 168/461/100
f 168/461/100 173/462/100 176/459/102
f 163/359/77 157/360/77 159/361/77
f 159/361/77 161/362/77 163/359/77
f 161/362/77 173/363/77 163/359/77
f 161/362/77 177/364/77 173/363/77
f 177/364/77 176/365/77 173/363/77
f 177/364/77 175/366/77 176/365/77
f 175/366/77 174/367/77 176/365/77
f 175/366/77 165/368/77 174/367/77
f 165/368/77 155/369/77 174/367/77
f 165/368/77 167/370/77 155/369/77
f 167/370/77 153/371/77 155/369/77
f 161/463/99 160/464/99 170/465/107
f 170/465/107 177/466/107 161/463/99
f 177/467/107 170/468/107 172/469/108
f 172/469/108 175/470/108 177/467/107
