# Blender 4.3.2
# www.blender.org
mtllib fence.mtl
o fence.003
v 0.500000 -0.470000 0.000000
v 0.416667 -0.470000 0.000000
v 0.500000 -0.470000 -0.590000
v 0.416667 -0.470000 -0.518571
v 0.416667 -0.530000 0.000000
v 0.500000 -0.530000 0.000000
v 0.416667 -0.530000 -0.518571
v 0.500000 -0.530000 -0.590000
v 0.250000 -0.470000 0.000000
v 0.083333 -0.470000 0.000000
v 0.250000 -0.470000 -0.468572
v 0.083333 -0.470000 -0.468572
v 0.166667 -0.470000 -0.540000
v 0.083333 -0.530000 0.000000
v 0.250000 -0.530000 0.000000
v 0.083333 -0.530000 -0.468572
v 0.250000 -0.530000 -0.468572
v 0.166667 -0.530000 -0.540000
v -0.083333 -0.470000 0.000000
v -0.250000 -0.470000 0.000000
v -0.083333 -0.470000 -0.518571
v -0.250000 -0.470000 -0.518571
v -0.166667 -0.470000 -0.590000
v -0.250000 -0.530000 0.000000
v -0.083333 -0.530000 0.000000
v -0.250000 -0.530000 -0.518571
v -0.083333 -0.530000 -0.518571
v -0.166667 -0.530000 -0.590000
v -0.416667 -0.470000 0.000000
v -0.500000 -0.470000 0.000000
v -0.416667 -0.470000 -0.518571
v -0.500000 -0.470000 -0.590000
v -0.500000 -0.530000 0.000000
v -0.416667 -0.530000 0.000000
v -0.500000 -0.530000 -0.590000
v -0.416667 -0.530000 -0.518571
v 0.500000 -0.440000 -0.242506
v -0.500000 -0.440000 -0.242506
v 0.500000 -0.440000 -0.347494
v -0.500000 -0.440000 -0.347494
v 0.500000 -0.470000 -0.242506
v -0.500000 -0.470000 -0.242506
v -0.500000 -0.470000 -0.347494
v 0.500000 -0.470000 -0.347494
v -0.500000 -0.560000 -0.242506
v 0.500000 -0.560000 -0.242506
v -0.500000 -0.560000 -0.347494
v 0.500000 -0.560000 -0.347494
v 0.500000 -0.530000 -0.242506
v -0.500000 -0.530000 -0.242506
v -0.500000 -0.530000 -0.347494
v 0.500000 -0.530000 -0.347494
v 0.083333 -0.485000 0.000000
v -0.083333 -0.485000 0.000000
v 0.083333 -0.485000 -0.518571
v -0.083333 -0.485000 -0.518571
v -0.000000 -0.485000 -0.590000
v -0.083333 -0.515000 0.000000
v 0.083333 -0.515000 0.000000
v -0.083333 -0.515000 -0.518571
v 0.083333 -0.515000 -0.518571
v -0.000000 -0.515000 -0.590000
v -0.250000 -0.485000 0.000000
v -0.416667 -0.485000 0.000000
v -0.250000 -0.485000 -0.568571
v -0.416667 -0.485000 -0.568571
v -0.333333 -0.485000 -0.640000
v -0.416667 -0.515000 0.000000
v -0.250000 -0.515000 0.000000
v -0.416667 -0.515000 -0.568571
v -0.250000 -0.515000 -0.568571
v -0.333333 -0.515000 -0.640000
v 0.416667 -0.485000 0.000000
v 0.250000 -0.485000 0.000000
v 0.416667 -0.485000 -0.518571
v 0.250000 -0.485000 -0.518571
v 0.333333 -0.485000 -0.590000
v 0.250000 -0.515000 0.000000
v 0.416667 -0.515000 0.000000
v 0.250000 -0.515000 -0.518571
v 0.416667 -0.515000 -0.518571
v 0.333333 -0.515000 -0.590000
vn 0.8766 0.4812 -0.0000
vn -0.0000 1.0000 -0.0000
vn 0.7071 0.7071 -0.0000
vn -0.0000 -0.0000 -1.0000
vn -0.0000 0.6684 -0.7438
vn 0.7071 -0.0000 -0.7071
vn 0.9949 -0.1009 -0.0000
vn 0.8766 -0.4812 -0.0000
vn 0.6508 -0.0000 0.7593
vn 0.9071 0.0557 0.4172
vn 0.9085 -0.0000 0.4179
vn 0.5774 0.5774 -0.5774
vn 0.7885 0.5462 -0.2826
vn -0.5449 0.5929 0.5929
vn 0.5774 0.5774 0.5774
vn -0.4383 -0.7392 0.5113
vn -0.3753 -0.8169 0.4379
vn -0.0000 -1.0000 -0.0000
vn 0.7099 -0.6240 -0.3265
vn -0.4098 -0.7768 -0.4781
vn -0.2861 -0.7080 -0.6457
vn -0.6508 -0.0000 -0.7593
vn 1.0000 -0.0000 -0.0000
vn 0.6989 -0.1520 0.6989
vn -0.6508 -0.0000 0.7593
vn 0.1395 0.9768 -0.1628
vn 0.1222 0.6471 -0.7526
vn 0.3473 -0.9377 -0.0000
vn -0.1603 -0.9692 -0.1870
vn 0.5674 -0.8234 -0.0000
vn -0.1222 -0.6471 -0.7526
vn 0.9336 0.1280 0.3347
vn -0.0000 0.9293 0.3692
vn -0.0000 0.7071 0.7071
vn 0.6345 -0.7729 -0.0000
vn -0.0000 0.9166 -0.3999
vn 0.4155 0.1063 0.9034
vn 0.8565 -0.0000 -0.5162
vn 0.5773 0.5774 -0.5774
vn -0.5773 0.5774 0.5774
vn -0.5774 0.5774 -0.5774
vn 0.7071 -0.0000 0.7071
vn -0.7071 -0.0000 0.7071
vn -0.7071 -0.0000 -0.7071
vn -0.5773 -0.5774 -0.5774
vn 0.5773 -0.5774 0.5774
vn -0.5774 -0.5774 0.5774
vn 0.5774 -0.5774 -0.5774
vn -0.0365 0.9930 0.1126
vn -0.5674 0.8234 -0.0000
vn -0.0756 -0.9932 -0.0883
vn 0.0368 -0.9993 -0.0000
vn -0.3573 -0.7261 -0.5875
vn -0.0000 -0.0000 1.0000
vn 0.9222 -0.0000 -0.3866
vn -1.0000 -0.0000 -0.0000
vn 0.7358 -0.0000 -0.6772
vn 0.8817 -0.2410 -0.4055
vn -0.5932 -0.4113 -0.6921
vn -0.5642 0.5838 -0.5838
vn -0.0000 0.7071 -0.7071
vn 0.9225 -0.0000 -0.3859
vn -0.5932 0.4112 -0.6921
vn -0.4383 0.7393 -0.5113
vn 0.7071 -0.7071 -0.0000
vn 0.1827 -0.9832 -0.0000
vn -0.1827 -0.9832 -0.0000
vn -0.0000 -0.9902 0.1399
vn -0.7358 -0.0000 0.6772
vn -0.7099 0.6240 0.3265
vn -0.7402 0.1465 -0.6563
vn -0.9085 -0.0000 0.4178
vn -0.7651 -0.0000 -0.6439
vn 0.4179 -0.0000 0.9085
vn -0.2293 -0.9359 0.2675
vn -0.4383 0.7393 0.5113
vt 0.093750 0.475000
vt 0.093750 0.275000
vt 0.093750 0.450787
vt 0.093750 0.448545
vt 0.031250 0.375000
vt 0.093750 0.362893
vt 0.093750 0.375000
vt 0.093750 0.363839
s 1
usemtl colormap.034
f 3/1/1 2/2/2 1/2/3
f 2/2/2 3/1/1 4/3/2
f 1/2/4 6/2/5 2/2/6
f 3/1/1 6/2/7 8/1/8
f 6/2/7 3/1/1 1/2/3
f 8/1/9 3/1/9 7/3/10
f 4/3/11 7/3/10 3/1/9
f 5/2/12 7/3/10 2/2/6
f 4/3/11 2/2/6 7/3/10
f 11/4/13 10/2/14 9/2/15
f 13/1/16 11/4/17 12/4/18
f 17/4/19 16/4/20 18/1/21
f 14/2/2 15/2/2 16/4/2
f 16/4/20 13/1/22 18/1/21
f 12/4/23 10/2/23 16/4/23
f 10/2/14 15/2/24 9/2/15
f 15/2/24 11/4/13 9/2/15
f 13/1/16 18/1/25 11/4/17
f 20/2/2 21/3/26 22/3/2
f 22/3/2 21/3/26 23/1/27
f 25/2/28 26/3/29 27/3/30
f 27/3/30 26/3/29 28/1/31
f 24/2/3 25/2/2 26/3/32
f 26/3/29 23/1/27 28/1/31
f 22/3/11 26/3/32 23/1/9
f 21/3/23 25/2/28 27/3/30
f 31/3/2 30/2/33 29/2/34
f 30/2/33 31/3/2 32/1/2
f 34/2/35 35/1/18 36/3/30
f 33/2/12 34/2/36 35/1/37
f 33/2/12 30/2/38 34/2/36
f 31/3/23 34/2/35 36/3/30
f 36/3/25 31/3/25 35/1/37
f 39/5/39 38/5/40 37/5/15
f 38/5/40 39/5/39 40/5/41
f 38/5/40 41/5/42 37/5/15
f 41/5/42 38/5/40 42/5/43
f 38/5/40 43/5/44 42/5/43
f 43/5/44 38/5/40 40/5/41
f 43/5/44 39/5/39 44/5/6
f 39/5/39 43/5/44 40/5/41
f 39/5/39 41/5/42 44/5/6
f 47/5/45 46/5/46 45/5/47
f 46/5/46 47/5/45 48/5/48
f 50/5/43 46/5/46 49/5/42
f 46/5/46 50/5/43 45/5/47
f 50/5/43 47/5/45 45/5/47
f 47/5/45 50/5/43 51/5/44
f 47/5/45 52/5/6 48/5/48
f 52/5/6 47/5/45 51/5/44
f 52/5/6 46/5/46 48/5/48
f 46/5/46 52/5/6 49/5/42
f 55/6/2 54/2/49 53/2/34
f 54/2/49 55/6/2 56/6/50
f 56/6/50 55/6/2 57/7/2
f 60/6/51 59/2/52 58/2/18
f 59/2/52 60/6/51 61/6/19
f 61/6/19 60/6/51 62/7/53
f 54/2/49 59/2/54 53/2/34
f 55/6/55 59/2/52 61/6/19
f 60/6/51 57/7/22 62/7/53
f 60/6/56 54/2/49 56/6/50
f 58/2/6 60/6/23 54/2/57
f 65/8/2 64/2/2 63/2/2
f 71/8/58 70/8/59 72/7/53
f 63/2/44 69/2/60 64/2/4
f 68/2/61 64/2/4 69/2/60
f 63/2/44 65/8/56 69/2/60
f 72/7/53 65/8/62 71/8/58
f 70/8/59 67/7/22 72/7/53
f 64/2/56 70/8/56 68/2/56
f 66/8/23 64/2/23 70/8/23
f 75/6/2 74/2/2 73/2/2
f 76/6/63 75/6/2 77/7/64
f 76/6/65 75/6/18 74/2/66
f 80/6/67 79/2/68 78/2/47
f 79/2/68 74/2/69 78/2/47
f 81/6/70 79/2/71 75/6/72
f 73/2/44 75/6/72 79/2/71
f 80/6/22 77/7/64 82/7/22
f 77/7/64 80/6/22 76/6/63
f 74/2/69 80/6/67 78/2/47
f 6/2/7 7/3/18 8/1/8
f 5/2/12 6/2/5 7/3/10
f 5/2/12 2/2/6 6/2/5
f 10/2/14 11/4/13 12/4/2
f 15/2/24 16/4/20 17/4/19
f 13/1/22 16/4/20 12/4/22
f 10/2/14 16/4/56 14/2/43
f 15/2/24 10/2/14 14/2/43
f 11/4/13 15/2/24 17/4/19
f 18/1/21 11/4/13 17/4/19
f 21/3/26 20/2/2 19/2/2
f 24/2/3 26/3/32 20/2/23
f 22/3/11 20/2/23 26/3/32
f 25/2/54 20/2/54 24/2/54
f 19/2/44 25/2/73 20/2/4
f 19/2/44 21/3/56 25/2/73
f 21/3/26 28/1/31 23/1/27
f 27/3/25 21/3/25 28/1/25
f 30/2/33 34/2/54 29/2/34
f 29/2/56 31/3/56 34/2/56
f 32/1/74 35/1/37 31/3/25
f 33/2/12 35/1/37 30/2/38
f 32/1/74 30/2/38 35/1/37
f 41/5/42 39/5/39 37/5/15
f 58/2/6 54/2/57 59/2/4
f 53/2/56 55/6/56 59/2/56
f 62/7/53 55/6/55 61/6/19
f 57/7/25 62/7/25 55/6/25
f 56/6/9 60/6/9 57/7/9
f 64/2/2 65/8/2 66/8/2
f 67/7/16 65/8/75 66/8/18
f 68/2/61 69/2/60 70/8/2
f 71/8/2 70/8/2 69/2/60
f 65/8/62 69/2/23 71/8/58
f 67/7/16 72/7/25 65/8/75
f 67/7/22 70/8/59 66/8/22
f 81/6/70 80/6/2 79/2/71
f 82/7/76 80/6/2 81/6/70
f 73/2/44 79/2/71 74/2/4
f 81/6/70 75/6/72 82/7/76
f 77/7/25 82/7/76 75/6/72
f 76/6/65 74/2/66 80/6/23
