# Blender 4.3.2
# www.blender.org
mtllib apple.mtl
o apple
v 0.044744 0.000000 0.000000
v 0.031639 -0.031639 0.000000
v 0.031639 0.031639 0.000000
v -0.000000 0.044744 0.000000
v -0.000000 -0.044744 0.000000
v -0.031639 0.031639 0.000000
v -0.031639 -0.031639 0.000000
v -0.044744 0.000000 0.000000
v -0.000000 0.078960 -0.031960
v -0.055833 0.055833 -0.031960
v 0.055833 0.055833 -0.031960
v 0.055833 -0.055833 -0.031960
v -0.000000 -0.078960 -0.031960
v -0.055833 -0.055833 -0.031960
v -0.078960 0.000000 -0.031960
v 0.078960 0.000000 -0.031960
v 0.061627 0.000000 -0.157016
v 0.043577 0.043577 -0.157016
v 0.043577 -0.043577 -0.157016
v 0.040356 0.000000 -0.157016
v 0.028536 -0.028536 -0.157016
v 0.028536 0.028536 -0.157016
v 0.000000 -0.061627 -0.157016
v 0.000000 -0.040356 -0.157016
v -0.028536 -0.028536 -0.157016
v 0.000000 0.061627 -0.157016
v 0.000000 0.040356 -0.157016
v -0.028536 0.028536 -0.157016
v -0.043577 -0.043577 -0.157016
v -0.043577 0.043577 -0.157016
v -0.040356 0.000000 -0.157016
v -0.061627 0.000000 -0.157016
v -0.018549 0.018549 -0.147016
v -0.026232 0.000000 -0.147016
v 0.000000 -0.026232 -0.147016
v -0.018549 -0.018549 -0.147016
v -0.098147 0.000000 -0.098664
v -0.089314 0.000000 -0.134232
v -0.069401 0.069401 -0.098664
v -0.063155 0.063155 -0.134232
v -0.069401 -0.069401 -0.098664
v 0.069401 -0.069401 -0.098664
v 0.098147 0.000000 -0.098664
v -0.000000 0.098147 -0.098664
v 0.069401 0.069401 -0.098664
v -0.000000 0.089314 -0.134232
v -0.000000 -0.098147 -0.098664
v -0.063155 -0.063155 -0.134232
v -0.000000 -0.089314 -0.134232
v 0.089314 0.000000 -0.134232
v 0.063155 0.063155 -0.134232
v 0.063155 -0.063155 -0.134232
v 0.018549 0.018549 -0.147016
v 0.000000 0.026232 -0.147016
v 0.026232 0.000000 -0.147016
v 0.018549 -0.018549 -0.147016
v 0.005381 -0.005381 -0.147016
v -0.005381 -0.005381 -0.147016
v 0.005381 0.005381 -0.147016
v -0.005381 0.005381 -0.147016
v 0.000000 -0.039196 -0.161850
v 0.000000 -0.007495 -0.168885
v -0.022910 -0.015643 -0.171068
v -0.032400 -0.035314 -0.176339
v 0.032400 -0.035314 -0.176339
v 0.022910 -0.015643 -0.171068
v 0.000000 -0.094834 -0.176758
v -0.009610 -0.009610 -0.190753
v -0.009610 0.009610 -0.190753
v 0.009610 -0.009610 -0.190753
v 0.009610 0.009610 -0.190753
vn 0.3227 -0.1766 0.9299
vn 0.4869 0.1577 0.8591
vn 0.2441 0.4365 0.8660
vn 0.2061 -0.0173 0.9784
vn 0.4637 -0.2281 0.8561
vn -0.1352 -0.1540 0.9788
vn 0.1452 -0.4837 0.8631
vn -0.2441 -0.4365 0.8660
vn -0.2036 0.5706 0.7956
vn -0.4847 0.7056 0.5169
vn 0.1660 0.8393 0.5178
vn 0.4835 -0.7063 0.5170
vn 0.3561 -0.3561 0.8640
vn 0.5083 -0.0000 0.8612
vn 0.2964 0.1744 -0.9390
vn 0.4525 -0.1439 -0.8801
vn 0.2324 -0.3963 -0.8882
vn -0.2443 0.0683 -0.9673
vn -0.0000 0.0530 -0.9986
vn 0.1401 0.2838 -0.9486
vn 0.3127 0.0606 -0.9479
vn -0.2764 -0.1127 -0.9544
vn -0.0000 -0.0647 -0.9979
vn 0.2443 -0.0683 -0.9673
vn 0.2559 0.0541 -0.9652
vn 0.0338 0.0338 -0.9989
vn 0.1439 0.4525 -0.8801
vn 0.2656 -0.0897 -0.9599
vn -0.2324 0.3963 -0.8882
vn 0.4645 0.2644 -0.8452
vn 0.0758 -0.0343 -0.9965
vn -0.9322 0.2651 -0.2465
vn -0.9994 -0.0000 0.0345
vn -0.8441 0.5358 0.0184
vn -0.8458 0.1215 -0.5195
vn -0.9169 -0.3616 0.1690
vn -0.5925 -0.5925 0.5458
vn 0.9342 0.2076 -0.2902
vn 0.8514 -0.0000 -0.5245
vn 0.6850 0.5106 -0.5197
vn 0.9755 0.2192 0.0184
vn 0.8476 -0.1127 -0.5185
vn 0.4688 0.8487 -0.2449
vn -0.0000 0.9994 0.0338
vn 0.5358 -0.8441 0.0184
vn 0.5920 -0.5920 0.5470
vn 0.5194 -0.6792 -0.5185
vn -0.2878 -0.2805 -0.9157
vn -0.1534 0.1961 -0.9685
vn -0.3245 -0.0000 -0.9459
vn -0.0533 0.0515 -0.9972
vn -0.1242 -0.5130 -0.8494
vn 0.2257 0.5257 -0.8202
vn 0.4951 -0.0245 -0.8685
vn -0.0372 -0.3531 -0.9348
vn 0.2339 0.5587 -0.7957
vn 0.4819 0.4017 -0.7787
vn -0.2289 0.5684 -0.7903
vn 0.1905 0.0435 -0.9807
vn -0.0000 -0.0614 -0.9981
vn -0.0680 0.0700 -0.9952
vn 0.3316 0.1409 -0.9328
vn -0.0000 0.2588 -0.9659
vn -0.3038 -0.0762 -0.9497
vn -0.7364 -0.2023 -0.6456
vn -0.7000 -0.6999 0.1419
vn 0.6951 -0.6951 0.1833
vn 0.7452 -0.1337 -0.6533
vn -0.7047 -0.4862 0.5167
vn -0.2076 -0.9342 -0.2902
vn 0.5066 -0.1281 0.8526
vn 0.3038 0.0762 0.9497
vn 0.0029 -0.0333 0.9994
vn -0.0000 -0.2588 0.9659
vt 0.968750 0.275000
vt 0.968750 0.311163
vt 0.968750 0.452662
vt 0.968750 0.441347
vt 0.968750 0.386638
vt 0.968750 0.426882
vt 0.593750 0.468562
vt 0.593750 0.466092
vt 0.593750 0.458132
vt 0.593750 0.474526
vt 0.593750 0.475000
vt 0.093750 0.275000
vt 0.093750 0.475000
s 1
usemtl colormap
f 3/1/1 2/1/2 1/1/3
f 2/1/2 3/1/1 4/1/4
f 2/1/2 4/1/4 5/1/5
f 5/1/5 4/1/4 6/1/6
f 5/1/5 6/1/6 7/1/7
f 7/1/7 6/1/6 8/1/8
f 10/2/9 4/1/4 9/2/10
f 4/1/4 10/2/9 6/1/6
f 9/2/10 3/1/1 11/2/11
f 3/1/1 9/2/10 4/1/4
f 2/1/2 13/2/12 12/2/13
f 13/2/12 2/1/2 5/1/5
f 1/1/3 12/2/13 16/2/14
f 12/2/13 1/1/3 2/1/2
f 7/1/7 13/2/12 5/1/5
f 19/3/15 18/3/16 17/3/17
f 21/3/18 23/3/19 24/3/20
f 26/3/21 22/3/22 27/3/23
f 26/3/21 27/3/23 28/3/24
f 25/3/25 23/3/19 29/3/26
f 26/3/21 28/3/24 30/3/27
f 25/3/25 29/3/26 31/3/28
f 30/3/27 28/3/24 31/3/28
f 30/3/27 31/3/28 29/3/26
f 30/3/27 29/3/26 32/3/29
f 34/4/30 28/3/24 33/4/31
f 28/3/24 34/4/30 31/3/28
f 34/4/30 25/3/25 31/3/28
f 39/5/32 38/6/33 37/5/34
f 38/6/33 39/5/32 40/6/35
f 14/2/36 37/5/34 41/5/37
f 51/6/38 43/5/39 50/6/40
f 43/5/39 51/6/38 45/5/41
f 43/5/39 52/6/42 50/6/40
f 44/5/43 51/6/38 46/6/44
f 12/2/13 47/5/45 42/5/46
f 45/5/41 9/2/10 11/2/11
f 9/2/10 45/5/41 44/5/43
f 42/5/46 49/6/47 52/6/42
f 33/4/31 27/3/23 54/4/48
f 27/3/23 33/4/31 28/3/24
f 55/4/49 22/3/22 20/3/50
f 55/4/49 21/3/18 56/4/51
f 24/3/20 56/4/51 21/3/18
f 56/4/51 53/4/52 55/4/49
f 53/4/52 56/4/51 35/4/53
f 53/4/52 35/4/53 57/4/54
f 57/4/54 35/4/53 58/4/55
f 53/4/52 59/4/56 54/4/48
f 58/4/55 35/4/53 36/4/57
f 54/4/48 59/4/56 60/4/58
f 46/6/44 30/3/27 40/6/35
f 51/6/38 17/3/17 18/3/16
f 18/3/16 46/6/44 51/6/38
f 46/6/44 18/3/16 26/3/21
f 19/3/15 49/6/47 23/3/19
f 52/6/42 17/3/17 50/6/40
f 63/7/59 62/8/60 61/9/61
f 64/10/62 63/7/59 61/9/61
f 64/10/62 61/9/61 67/11/63
f 62/8/60 66/7/64 61/9/61
f 58/12/55 69/13/65 68/13/66
f 69/13/65 58/12/55 60/12/58
f 68/13/66 57/12/54 58/12/55
f 57/12/54 68/13/66 70/13/67
f 68/13/66 71/13/68 70/13/67
f 71/13/68 68/13/66 69/13/65
f 71/13/68 60/12/58 59/12/56
f 60/12/58 71/13/68 69/13/65
f 71/13/68 57/12/54 70/13/67
f 57/12/54 71/13/68 59/12/56
f 8/1/8 14/2/36 7/1/7
f 14/2/36 8/1/8 15/2/69
f 13/2/12 7/1/7 14/2/36
f 10/2/9 8/1/8 6/1/6
f 8/1/8 10/2/9 15/2/69
f 11/2/11 1/1/3 16/2/14
f 1/1/3 11/2/11 3/1/1
f 18/3/16 19/3/15 20/3/50
f 20/3/50 19/3/15 21/3/18
f 22/3/22 18/3/16 20/3/50
f 21/3/18 19/3/15 23/3/19
f 24/3/20 23/3/19 25/3/25
f 18/3/16 22/3/22 26/3/21
f 25/3/25 35/4/53 24/3/20
f 35/4/53 25/3/25 36/4/57
f 25/3/25 34/4/30 36/4/57
f 37/5/34 14/2/36 15/2/69
f 43/5/39 12/2/13 42/5/46
f 12/2/13 43/5/39 16/2/14
f 44/5/43 10/2/9 9/2/10
f 10/2/9 44/5/43 39/5/32
f 45/5/41 16/2/14 43/5/39
f 16/2/14 45/5/41 11/2/11
f 46/6/44 39/5/32 44/5/43
f 39/5/32 46/6/44 40/6/35
f 48/6/70 47/5/45 41/5/37
f 47/5/45 48/6/70 49/6/47
f 15/2/69 39/5/32 37/5/34
f 39/5/32 15/2/69 10/2/9
f 52/6/42 43/5/39 42/5/46
f 41/5/37 13/2/12 14/2/36
f 13/2/12 41/5/37 47/5/45
f 37/5/34 48/6/70 41/5/37
f 48/6/70 37/5/34 38/6/33
f 51/6/38 44/5/43 45/5/41
f 47/5/45 12/2/13 13/2/12
f 49/6/47 42/5/46 47/5/45
f 53/4/52 27/3/23 22/3/22
f 27/3/23 53/4/52 54/4/48
f 22/3/22 55/4/49 53/4/52
f 21/3/18 55/4/49 20/3/50
f 56/4/51 24/3/20 35/4/53
f 59/4/56 53/4/52 57/4/54
f 58/4/55 36/4/57 60/4/58
f 54/4/48 60/4/58 33/4/31
f 33/4/31 60/4/58 36/4/57
f 33/4/31 36/4/57 34/4/30
f 30/3/27 46/6/44 26/3/21
f 17/3/17 51/6/38 50/6/40
f 49/6/47 29/3/26 23/3/19
f 29/3/26 49/6/47 48/6/70
f 48/6/70 32/3/29 29/3/26
f 32/3/29 48/6/70 38/6/33
f 49/6/47 19/3/15 52/6/42
f 32/3/29 40/6/35 30/3/27
f 40/6/35 32/3/29 38/6/33
f 17/3/17 52/6/42 19/3/15
f 65/10/71 66/7/72 61/9/73
f 67/11/74 65/10/71 61/9/73
