# Blender 4.3.2
# www.blender.org
mtllib watermelon.mtl
o watermelon.001
v 0.000000 0.011915 -0.476100
v -0.008425 0.008425 -0.476100
v 0.000000 0.000000 -0.476100
v -0.043751 0.043751 -0.455400
v -0.008425 0.008425 -0.455400
v 0.000000 0.061873 -0.455400
v 0.000000 0.011915 -0.455400
v -0.043751 0.043751 -0.000000
v 0.000000 0.061873 -0.000000
v 0.000000 0.000000 -0.000000
v -0.121530 0.121530 -0.400438
v -0.000000 0.171870 -0.400438
v 0.000000 0.000000 -0.427931
v 0.000000 0.027469 -0.427931
v 0.000000 0.055393 -0.427931
v 0.000000 0.151974 -0.379672
v -0.000000 0.215392 -0.321921
v -0.000000 0.188832 -0.313177
v -0.000000 0.227700 -0.227700
v -0.000000 0.199998 -0.227700
v -0.000000 0.188832 -0.142223
v -0.000000 0.215392 -0.133479
v 0.000000 0.151974 -0.075728
v -0.000000 0.171870 -0.054962
v 0.000000 0.055393 -0.027469
v 0.000000 0.000000 -0.027469
v 0.000000 0.027469 -0.027469
v -0.161008 0.161008 -0.227700
v -0.152305 0.152305 -0.321921
v -0.152305 0.152305 -0.133479
v -0.121530 0.121530 -0.054962
v -0.039168 0.039168 -0.027469
v -0.019423 0.019423 -0.027469
v -0.107462 0.107462 -0.075728
v -0.133524 0.133524 -0.142223
v -0.141420 0.141420 -0.227700
v -0.133524 0.133524 -0.313177
v -0.107462 0.107462 -0.379672
v -0.039168 0.039168 -0.427931
v -0.019423 0.019423 -0.427931
v -0.040354 0.040354 -0.049319
v 0.000000 0.000000 -0.049319
v -0.097835 0.097835 -0.089937
v -0.020878 0.020878 -0.120356
v -0.120673 0.120673 -0.148206
v -0.013410 0.013410 -0.145855
v -0.038909 0.038909 -0.130918
v 0.000000 0.000000 -0.406081
v -0.031440 0.031440 -0.156417
v -0.068435 0.068435 -0.172675
v -0.128016 0.128016 -0.227700
v -0.075904 0.075904 -0.198174
v -0.050404 0.050404 -0.183237
v -0.057873 0.057873 -0.208736
v -0.013410 0.013410 -0.309545
v -0.057873 0.057873 -0.246664
v -0.075904 0.075904 -0.257226
v -0.120673 0.120673 -0.307194
v -0.050404 0.050404 -0.272163
v -0.068435 0.068435 -0.282725
v -0.031440 0.031440 -0.298983
v -0.038909 0.038909 -0.324482
v -0.097835 0.097835 -0.365463
v -0.020878 0.020878 -0.335044
v -0.040354 0.040354 -0.406081
v 0.000000 0.057069 -0.049319
v 0.000000 0.138359 -0.089937
v 0.000000 0.029526 -0.120356
v 0.000000 0.170657 -0.148206
v 0.000000 0.018964 -0.145855
v 0.000000 0.055025 -0.130918
v 0.000000 0.044463 -0.156417
v 0.000000 0.096782 -0.172675
v -0.000000 0.181041 -0.227700
v 0.000000 0.107344 -0.198174
v 0.000000 0.071283 -0.183237
v 0.000000 0.081845 -0.208736
v 0.000000 0.018964 -0.309545
v 0.000000 0.081845 -0.246664
v 0.000000 0.107344 -0.257226
v 0.000000 0.170657 -0.307194
v 0.000000 0.071283 -0.272163
v 0.000000 0.096782 -0.282725
v 0.000000 0.044463 -0.298983
v 0.000000 0.055025 -0.324482
v 0.000000 0.138359 -0.365463
v 0.000000 0.029526 -0.335044
v 0.000000 0.057069 -0.406081
v 0.000000 -0.000000 -0.027469
v 0.000000 0.027469 -0.027469
v 0.000000 -0.000000 -0.049319
v 0.000000 0.055392 -0.027469
v 0.000000 0.057069 -0.049319
v 0.000000 0.151974 -0.075728
v 0.000000 0.138359 -0.089937
v -0.000000 0.188832 -0.142223
v 0.000000 0.170657 -0.148206
v -0.000000 0.199998 -0.227700
v -0.000000 0.181041 -0.227700
v 0.000000 0.170657 -0.307194
v -0.000000 0.188832 -0.313177
v 0.000000 0.138359 -0.365463
v 0.000000 0.151974 -0.379672
v 0.000000 0.057069 -0.406081
v 0.000000 0.055392 -0.427931
v 0.000000 -0.000000 -0.427931
v 0.000000 -0.000000 -0.406081
v 0.000000 0.027469 -0.427931
v -0.039168 0.039168 -0.027469
v -0.019423 0.019423 -0.027469
v -0.107462 0.107462 -0.075728
v -0.040354 0.040354 -0.049319
v -0.097835 0.097834 -0.089937
v -0.133524 0.133524 -0.142223
v -0.120673 0.120673 -0.148206
v -0.141420 0.141420 -0.227700
v -0.128016 0.128015 -0.227700
v -0.120673 0.120673 -0.307194
v -0.133524 0.133524 -0.313177
v -0.097835 0.097834 -0.365463
v -0.107462 0.107462 -0.379672
v -0.040354 0.040354 -0.406081
v -0.039168 0.039168 -0.427931
v -0.019423 0.019423 -0.427931
v -0.020878 0.020878 -0.120356
v -0.013410 0.013410 -0.145855
v -0.038909 0.038909 -0.130918
v -0.031440 0.031440 -0.156417
v 0.000000 0.081845 -0.246664
v 0.000000 0.107344 -0.257226
v 0.000000 0.071283 -0.272163
v 0.000000 0.096782 -0.282725
v 0.000000 0.044463 -0.298983
v 0.000000 0.055025 -0.324482
v 0.000000 0.018964 -0.309545
v 0.000000 0.029526 -0.335044
v -0.031440 0.031440 -0.298983
v -0.013410 0.013410 -0.309545
v -0.038909 0.038909 -0.324482
v -0.020878 0.020878 -0.335044
v 0.000000 0.096782 -0.172675
v 0.000000 0.107344 -0.198174
v 0.000000 0.071283 -0.183237
v 0.000000 0.081845 -0.208736
v -0.057873 0.057873 -0.246664
v -0.050404 0.050404 -0.272163
v -0.075904 0.075903 -0.257226
v -0.068435 0.068435 -0.282725
v 0.000000 0.029526 -0.120356
v 0.000000 0.055025 -0.130918
v 0.000000 0.018964 -0.145855
v 0.000000 0.044463 -0.156417
v -0.068435 0.068435 -0.172675
v -0.050404 0.050404 -0.183237
v -0.075904 0.075903 -0.198174
v -0.057873 0.057873 -0.208736
v -0.061873 0.000000 -0.000000
v -0.000000 0.000000 -0.000000
v -0.171870 0.000000 -0.054962
v -0.055393 0.000000 -0.027469
v -0.000000 0.000000 -0.027469
v -0.027469 0.000000 -0.027469
v -0.151974 0.000000 -0.075728
v -0.215392 0.000000 -0.133479
v -0.188832 0.000000 -0.142223
v -0.227700 0.000000 -0.227700
v -0.199998 0.000000 -0.227700
v -0.188832 0.000000 -0.313177
v -0.215392 0.000000 -0.321921
v -0.151974 0.000000 -0.379672
v -0.171870 0.000000 -0.400438
v -0.055393 0.000000 -0.427931
v -0.061873 0.000000 -0.455400
v -0.027469 0.000000 -0.427931
v -0.000000 0.000000 -0.427931
v -0.011915 0.000000 -0.455400
v -0.000000 0.000000 -0.476100
v -0.011915 0.000000 -0.476100
v -0.019423 0.019423 -0.427931
v -0.008425 0.008425 -0.455400
v -0.008425 0.008425 -0.476100
v -0.039168 0.039168 -0.427931
v -0.043751 0.043751 -0.455400
v -0.121530 0.121530 -0.400438
v -0.107462 0.107462 -0.379672
v -0.152305 0.152305 -0.321921
v -0.133524 0.133524 -0.313177
v -0.161008 0.161008 -0.227700
v -0.141420 0.141420 -0.227700
v -0.133524 0.133524 -0.142223
v -0.152305 0.152305 -0.133479
v -0.107462 0.107462 -0.075728
v -0.121530 0.121530 -0.054962
v -0.039168 0.039168 -0.027469
v -0.043751 0.043751 -0.000000
v -0.019423 0.019423 -0.027469
v -0.057069 0.000000 -0.049319
v -0.000000 0.000000 -0.049319
v -0.138359 0.000000 -0.089937
v -0.029526 0.000000 -0.120356
v -0.170657 0.000000 -0.148206
v -0.018964 0.000000 -0.145855
v -0.055025 0.000000 -0.130918
v -0.000000 0.000000 -0.406081
v -0.044463 0.000000 -0.156417
v -0.096782 0.000000 -0.172675
v -0.181041 0.000000 -0.227700
v -0.107344 0.000000 -0.198174
v -0.071283 0.000000 -0.183237
v -0.081845 0.000000 -0.208736
v -0.018964 0.000000 -0.309545
v -0.081845 0.000000 -0.246664
v -0.107344 0.000000 -0.257226
v -0.170657 0.000000 -0.307194
v -0.071283 0.000000 -0.272163
v -0.096782 0.000000 -0.282725
v -0.044463 0.000000 -0.298983
v -0.055025 0.000000 -0.324482
v -0.138359 0.000000 -0.365463
v -0.029526 0.000000 -0.335044
v -0.057069 0.000000 -0.406081
v -0.040354 0.040354 -0.049319
v -0.097835 0.097835 -0.089937
v -0.020878 0.020878 -0.120356
v -0.120673 0.120673 -0.148206
v -0.013410 0.013410 -0.145855
v -0.038909 0.038909 -0.130918
v -0.031440 0.031440 -0.156417
v -0.068435 0.068435 -0.172675
v -0.128016 0.128016 -0.227700
v -0.075904 0.075904 -0.198174
v -0.050404 0.050404 -0.183237
v -0.057873 0.057873 -0.208736
v -0.013410 0.013410 -0.309545
v -0.057873 0.057873 -0.246664
v -0.075904 0.075904 -0.257226
v -0.120673 0.120673 -0.307194
v -0.050404 0.050404 -0.272163
v -0.068435 0.068435 -0.282725
v -0.031440 0.031440 -0.298983
v -0.038909 0.038909 -0.324482
v -0.097835 0.097835 -0.365463
v -0.020878 0.020878 -0.335044
v -0.040354 0.040354 -0.406081
v -0.029526 0.000000 -0.120356
v -0.018964 0.000000 -0.145855
v -0.055025 0.000000 -0.130918
v -0.044463 0.000000 -0.156417
v -0.057873 0.057873 -0.246664
v -0.075904 0.075904 -0.257226
v -0.050405 0.050405 -0.272163
v -0.068435 0.068435 -0.282725
v -0.031440 0.031440 -0.298983
v -0.038909 0.038909 -0.324482
v -0.013410 0.013410 -0.309545
v -0.020878 0.020878 -0.335044
v -0.044463 0.000000 -0.298983
v -0.018964 0.000000 -0.309545
v -0.055025 0.000000 -0.324482
v -0.029526 0.000000 -0.335044
v -0.068435 0.068435 -0.172675
v -0.075904 0.075904 -0.198174
v -0.050405 0.050405 -0.183237
v -0.057873 0.057873 -0.208736
v -0.081845 0.000000 -0.246664
v -0.071283 0.000000 -0.272163
v -0.107344 0.000000 -0.257226
v -0.096782 0.000000 -0.282725
v -0.020878 0.020878 -0.120356
v -0.038909 0.038909 -0.130918
v -0.013410 0.013410 -0.145855
v -0.031440 0.031440 -0.156417
v -0.096782 0.000000 -0.172675
v -0.071283 0.000000 -0.183237
v -0.107344 0.000000 -0.198174
v -0.081845 0.000000 -0.208736
v 0.000000 -0.000000 -0.027469
v -0.019423 0.019423 -0.027469
v 0.000000 -0.000000 -0.049319
v -0.039168 0.039168 -0.027469
v -0.040354 0.040354 -0.049319
v -0.107462 0.107462 -0.075728
v -0.097835 0.097834 -0.089937
v -0.133524 0.133524 -0.142223
v -0.120673 0.120673 -0.148206
v -0.141420 0.141420 -0.227700
v -0.128016 0.128015 -0.227700
v -0.120673 0.120673 -0.307194
v -0.133524 0.133524 -0.313177
v -0.097835 0.097834 -0.365463
v -0.107462 0.107462 -0.379672
v -0.040354 0.040354 -0.406081
v -0.039168 0.039168 -0.427931
v 0.000000 -0.000000 -0.427931
v 0.000000 -0.000000 -0.406081
v -0.019423 0.019423 -0.427931
v -0.055393 -0.000000 -0.027469
v -0.027469 -0.000000 -0.027469
v -0.151974 -0.000000 -0.075728
v -0.057069 -0.000000 -0.049319
v -0.138359 -0.000000 -0.089937
v -0.188832 -0.000000 -0.142223
v -0.170657 -0.000000 -0.148206
v -0.199998 -0.000000 -0.227700
v -0.181041 -0.000000 -0.227700
v -0.170657 -0.000000 -0.307194
v -0.188832 -0.000000 -0.313177
v -0.138359 -0.000000 -0.365463
v -0.151974 -0.000000 -0.379672
v -0.057069 -0.000000 -0.406081
v -0.055393 -0.000000 -0.427931
v -0.027469 -0.000000 -0.427931
v 0.000000 -0.061873 -0.000000
v -0.043751 -0.043751 -0.000000
v 0.000000 -0.000000 -0.000000
v -0.000000 -0.171870 -0.400438
v 0.000000 -0.061873 -0.455400
v -0.121530 -0.121530 -0.400438
v -0.043751 -0.043751 -0.455400
v -0.152305 -0.152305 -0.321921
v -0.000000 -0.215392 -0.321921
v -0.152305 -0.152305 -0.133479
v -0.121530 -0.121530 -0.054962
v -0.000000 -0.215392 -0.133479
v -0.000000 -0.171870 -0.054962
v -0.161008 -0.161008 -0.227700
v -0.000000 -0.227700 -0.227700
v -0.008425 -0.008425 -0.476100
v 0.000000 -0.011915 -0.476100
v 0.000000 -0.000000 -0.476100
v 0.000000 -0.011915 -0.455400
v -0.008425 -0.008425 -0.455400
v 0.000000 -0.000000 -0.427931
v -0.019423 -0.019423 -0.427931
v -0.039168 -0.039168 -0.427931
v -0.107462 -0.107462 -0.379672
v -0.133524 -0.133524 -0.313177
v -0.141420 -0.141420 -0.227700
v -0.133524 -0.133524 -0.142223
v -0.107462 -0.107462 -0.075728
v -0.039168 -0.039168 -0.027469
v 0.000000 -0.000000 -0.027469
v -0.019423 -0.019423 -0.027469
v 0.000000 -0.055393 -0.027469
v 0.000000 -0.027469 -0.027469
v -0.000000 -0.151974 -0.075728
v -0.000000 -0.188832 -0.142223
v -0.000000 -0.199998 -0.227700
v -0.000000 -0.188832 -0.313177
v -0.000000 -0.151974 -0.379672
v 0.000000 -0.055393 -0.427931
v 0.000000 -0.027469 -0.427931
v 0.000000 -0.057069 -0.049319
v 0.000000 -0.000000 -0.049319
v 0.000000 -0.138359 -0.089937
v 0.000000 -0.029526 -0.120356
v -0.000000 -0.170657 -0.148206
v 0.000000 -0.018964 -0.145855
v 0.000000 -0.055025 -0.130918
v 0.000000 -0.000000 -0.406081
v 0.000000 -0.044463 -0.156417
v 0.000000 -0.096782 -0.172675
v -0.000000 -0.181041 -0.227700
v 0.000000 -0.107344 -0.198174
v 0.000000 -0.071283 -0.183237
v 0.000000 -0.081845 -0.208736
v 0.000000 -0.018964 -0.309545
v 0.000000 -0.081845 -0.246664
v 0.000000 -0.107344 -0.257226
v -0.000000 -0.170657 -0.307194
v 0.000000 -0.071283 -0.272163
v 0.000000 -0.096782 -0.282725
v 0.000000 -0.044463 -0.298983
v 0.000000 -0.055025 -0.324482
v 0.000000 -0.138359 -0.365463
v 0.000000 -0.029526 -0.335044
v 0.000000 -0.057069 -0.406081
v -0.040354 -0.040354 -0.049319
v -0.097835 -0.097835 -0.089937
v -0.020878 -0.020878 -0.120356
v -0.120673 -0.120673 -0.148206
v -0.013410 -0.013410 -0.145855
v -0.038909 -0.038909 -0.130918
v -0.031440 -0.031440 -0.156417
v -0.068435 -0.068435 -0.172675
v -0.128016 -0.128016 -0.227700
v -0.075904 -0.075904 -0.198174
v -0.050404 -0.050404 -0.183237
v -0.057873 -0.057873 -0.208736
v -0.013410 -0.013410 -0.309545
v -0.057873 -0.057873 -0.246664
v -0.075904 -0.075904 -0.257226
v -0.120673 -0.120673 -0.307194
v -0.050404 -0.050404 -0.272163
v -0.068435 -0.068435 -0.282725
v -0.031440 -0.031440 -0.298983
v -0.038909 -0.038909 -0.324482
v -0.097835 -0.097835 -0.365463
v -0.020878 -0.020878 -0.335044
v -0.040354 -0.040354 -0.406081
v -0.000000 -0.029526 -0.120356
v -0.000000 -0.018964 -0.145855
v -0.000000 -0.055025 -0.130918
v -0.000000 -0.044463 -0.156417
v -0.057873 -0.057873 -0.246664
v -0.075904 -0.075904 -0.257226
v -0.050405 -0.050404 -0.272163
v -0.068435 -0.068435 -0.282725
v -0.031440 -0.031440 -0.298983
v -0.038909 -0.038909 -0.324482
v -0.013410 -0.013410 -0.309545
v -0.020878 -0.020878 -0.335044
v -0.000000 -0.044463 -0.298983
v -0.000000 -0.018964 -0.309545
v -0.000000 -0.055025 -0.324482
v -0.000000 -0.029526 -0.335044
v -0.068435 -0.068435 -0.172675
v -0.075904 -0.075904 -0.198174
v -0.050405 -0.050404 -0.183237
v -0.057873 -0.057873 -0.208736
v -0.000000 -0.081845 -0.246664
v -0.000000 -0.071283 -0.272163
v -0.000000 -0.107344 -0.257226
v -0.000000 -0.096782 -0.282725
v -0.020878 -0.020878 -0.120356
v -0.038909 -0.038909 -0.130918
v -0.013410 -0.013410 -0.145855
v -0.031440 -0.031440 -0.156417
v -0.000000 -0.096782 -0.172675
v -0.000000 -0.071283 -0.183237
v -0.000000 -0.107344 -0.198174
v -0.000000 -0.081845 -0.208736
v 0.000000 0.000000 -0.027469
v -0.019423 -0.019423 -0.027469
v 0.000000 0.000000 -0.049319
v -0.039168 -0.039168 -0.027469
v -0.040354 -0.040354 -0.049319
v -0.107462 -0.107462 -0.075728
v -0.097835 -0.097834 -0.089937
v -0.133524 -0.133524 -0.142223
v -0.120673 -0.120673 -0.148206
v -0.141420 -0.141420 -0.227700
v -0.128016 -0.128015 -0.227700
v -0.120673 -0.120673 -0.307194
v -0.133524 -0.133524 -0.313177
v -0.097835 -0.097834 -0.365463
v -0.107462 -0.107462 -0.379672
v -0.040354 -0.040354 -0.406081
v -0.039168 -0.039168 -0.427931
v 0.000000 0.000000 -0.427931
v 0.000000 0.000000 -0.406081
v -0.019423 -0.019423 -0.427931
v 0.000000 -0.055392 -0.027469
v 0.000000 -0.027469 -0.027469
v -0.000000 -0.151974 -0.075728
v 0.000000 -0.057069 -0.049319
v -0.000000 -0.138359 -0.089937
v -0.000000 -0.188832 -0.142223
v -0.000000 -0.170657 -0.148206
v -0.000000 -0.199998 -0.227700
v -0.000000 -0.181041 -0.227700
v -0.000000 -0.170657 -0.307194
v -0.000000 -0.188832 -0.313177
v -0.000000 -0.138359 -0.365463
v -0.000000 -0.151974 -0.379672
v 0.000000 -0.057069 -0.406081
v 0.000000 -0.055392 -0.427931
v 0.000000 -0.027469 -0.427931
v 0.043751 0.043751 -0.000000
v 0.061873 0.000000 -0.000000
v 0.000000 0.000000 -0.000000
v 0.121530 0.121530 -0.400438
v 0.043751 0.043751 -0.455400
v 0.171870 -0.000000 -0.400438
v 0.061873 0.000000 -0.455400
v 0.215392 0.000000 -0.133479
v 0.171870 -0.000000 -0.054962
v 0.152305 0.152305 -0.133479
v 0.121530 0.121530 -0.054962
v 0.215392 0.000000 -0.321921
v 0.152305 0.152305 -0.321921
v 0.000000 0.000000 -0.427931
v 0.027469 0.000000 -0.427931
v 0.000000 0.000000 -0.476100
v 0.011915 0.000000 -0.455400
v 0.011915 0.000000 -0.476100
v 0.055393 0.000000 -0.427931
v 0.151974 -0.000000 -0.379672
v 0.188832 -0.000000 -0.313177
v 0.227700 -0.000000 -0.227700
v 0.199998 -0.000000 -0.227700
v 0.188832 -0.000000 -0.142223
v 0.151974 -0.000000 -0.075728
v 0.055393 0.000000 -0.027469
v 0.000000 0.000000 -0.027469
v 0.027469 0.000000 -0.027469
v 0.161008 0.161008 -0.227700
v 0.039168 0.039168 -0.027469
v 0.019423 0.019423 -0.027469
v 0.107462 0.107462 -0.075728
v 0.133524 0.133524 -0.142223
v 0.141420 0.141420 -0.227700
v 0.133524 0.133524 -0.313177
v 0.107462 0.107462 -0.379672
v 0.039168 0.039168 -0.427931
v 0.019423 0.019423 -0.427931
v 0.008425 0.008425 -0.455400
v 0.008425 0.008425 -0.476100
v 0.040354 0.040354 -0.049319
v 0.000000 0.000000 -0.049319
v 0.097835 0.097835 -0.089937
v 0.020878 0.020878 -0.120356
v 0.120673 0.120673 -0.148206
v 0.013410 0.013410 -0.145855
v 0.038909 0.038909 -0.130918
v 0.000000 0.000000 -0.406081
v 0.031440 0.031440 -0.156417
v 0.068435 0.068435 -0.172675
v 0.128016 0.128016 -0.227700
v 0.075904 0.075904 -0.198174
v 0.050404 0.050404 -0.183237
v 0.057873 0.057873 -0.208736
v 0.013410 0.013410 -0.309545
v 0.057873 0.057873 -0.246664
v 0.075904 0.075904 -0.257226
v 0.120673 0.120673 -0.307194
v 0.050404 0.050404 -0.272163
v 0.068435 0.068435 -0.282725
v 0.031440 0.031440 -0.298983
v 0.038909 0.038909 -0.324482
v 0.097835 0.097835 -0.365463
v 0.020878 0.020878 -0.335044
v 0.040354 0.040354 -0.406081
v 0.057069 0.000000 -0.049319
v 0.138359 0.000000 -0.089937
v 0.029526 0.000000 -0.120356
v 0.170657 -0.000000 -0.148206
v 0.018964 0.000000 -0.145855
v 0.055025 0.000000 -0.130918
v 0.044463 0.000000 -0.156417
v 0.096782 0.000000 -0.172675
v 0.181041 -0.000000 -0.227700
v 0.107344 0.000000 -0.198174
v 0.071283 0.000000 -0.183237
v 0.081845 0.000000 -0.208736
v 0.018964 0.000000 -0.309545
v 0.081845 0.000000 -0.246664
v 0.107344 0.000000 -0.257226
v 0.170657 -0.000000 -0.307194
v 0.071283 0.000000 -0.272163
v 0.096782 0.000000 -0.282725
v 0.044463 0.000000 -0.298983
v 0.055025 0.000000 -0.324482
v 0.138359 0.000000 -0.365463
v 0.029526 0.000000 -0.335044
v 0.057069 0.000000 -0.406081
v -0.000000 0.000000 -0.027469
v 0.027469 0.000000 -0.027469
v -0.000000 0.000000 -0.049319
v 0.055393 0.000000 -0.027469
v 0.057069 -0.000000 -0.049319
v 0.151974 -0.000000 -0.075728
v 0.138359 -0.000000 -0.089937
v 0.188832 -0.000000 -0.142223
v 0.170657 -0.000000 -0.148206
v 0.199998 -0.000000 -0.227700
v 0.181041 -0.000000 -0.227700
v 0.170657 -0.000000 -0.307194
v 0.188832 -0.000000 -0.313177
v 0.138359 -0.000000 -0.365463
v 0.151974 -0.000000 -0.379672
v 0.057069 -0.000000 -0.406081
v 0.055393 0.000000 -0.427931
v -0.000000 0.000000 -0.427931
v -0.000000 0.000000 -0.406081
v 0.027469 0.000000 -0.427931
v 0.039168 0.039168 -0.027469
v 0.019423 0.019423 -0.027469
v 0.107462 0.107462 -0.075728
v 0.040354 0.040354 -0.049319
v 0.097835 0.097835 -0.089937
v 0.133524 0.133524 -0.142223
v 0.120673 0.120673 -0.148206
v 0.141420 0.141420 -0.227700
v 0.128016 0.128016 -0.227700
v 0.120673 0.120673 -0.307194
v 0.133524 0.133524 -0.313177
v 0.097835 0.097835 -0.365463
v 0.107462 0.107462 -0.379672
v 0.040354 0.040354 -0.406081
v 0.039168 0.039168 -0.427931
v 0.019423 0.019423 -0.427931
v 0.020878 0.020878 -0.120356
v 0.013410 0.013410 -0.145855
v 0.038909 0.038909 -0.130918
v 0.031440 0.031440 -0.156417
v 0.081845 0.000000 -0.246664
v 0.107344 0.000000 -0.257226
v 0.071283 0.000000 -0.272163
v 0.096782 0.000000 -0.282725
v 0.044463 0.000000 -0.298983
v 0.055025 0.000000 -0.324482
v 0.018964 0.000000 -0.309545
v 0.029526 0.000000 -0.335044
v 0.031440 0.031440 -0.298983
v 0.013410 0.013410 -0.309545
v 0.038909 0.038909 -0.324482
v 0.020878 0.020878 -0.335044
v 0.096782 0.000000 -0.172675
v 0.107344 0.000000 -0.198174
v 0.071283 0.000000 -0.183237
v 0.081845 0.000000 -0.208736
v 0.057873 0.057873 -0.246664
v 0.050404 0.050405 -0.272163
v 0.075904 0.075904 -0.257226
v 0.068435 0.068435 -0.282725
v 0.029526 0.000000 -0.120356
v 0.055025 0.000000 -0.130918
v 0.018964 0.000000 -0.145855
v 0.044463 0.000000 -0.156417
v 0.068435 0.068435 -0.172675
v 0.050404 0.050405 -0.183237
v 0.075904 0.075904 -0.198174
v 0.057873 0.057873 -0.208736
v 0.000000 0.061873 -0.000000
v 0.043751 0.043751 -0.000000
v 0.161008 0.161008 -0.227700
v -0.000000 0.227700 -0.227700
v 0.152305 0.152305 -0.321921
v 0.152305 0.152305 -0.133479
v -0.000000 0.171870 -0.054962
v 0.121530 0.121530 -0.054962
v 0.121530 0.121530 -0.400438
v -0.000000 0.171870 -0.400438
v 0.000000 0.061873 -0.455400
v 0.043751 0.043751 -0.455400
v 0.008425 0.008425 -0.476100
v 0.000000 0.011915 -0.476100
v 0.000000 0.011915 -0.455400
v 0.008425 0.008425 -0.455400
v 0.019423 0.019423 -0.427931
v 0.039168 0.039168 -0.427931
v 0.107462 0.107462 -0.379672
v 0.133524 0.133524 -0.313177
v 0.141420 0.141420 -0.227700
v 0.133524 0.133524 -0.142223
v 0.107462 0.107462 -0.075728
v 0.039168 0.039168 -0.027469
v 0.019423 0.019423 -0.027469
v 0.000000 0.055393 -0.027469
v 0.000000 0.027469 -0.027469
v -0.000000 0.151974 -0.075728
v -0.000000 0.188832 -0.142223
v -0.000000 0.188832 -0.313177
v -0.000000 0.151974 -0.379672
v 0.000000 0.055393 -0.427931
v 0.000000 0.027469 -0.427931
v 0.000000 0.057069 -0.049319
v 0.000000 0.138359 -0.089937
v 0.000000 0.029526 -0.120356
v -0.000000 0.170657 -0.148206
v 0.000000 0.018964 -0.145855
v 0.000000 0.055025 -0.130918
v 0.000000 0.044463 -0.156417
v 0.000000 0.096782 -0.172675
v -0.000000 0.181041 -0.227700
v 0.000000 0.107344 -0.198174
v 0.000000 0.071283 -0.183237
v 0.000000 0.081845 -0.208736
v 0.000000 0.018964 -0.309545
v 0.000000 0.081845 -0.246664
v 0.000000 0.107344 -0.257226
v -0.000000 0.170657 -0.307194
v 0.000000 0.071283 -0.272163
v 0.000000 0.096782 -0.282725
v 0.000000 0.044463 -0.298983
v 0.000000 0.055025 -0.324482
v 0.000000 0.138359 -0.365463
v 0.000000 0.029526 -0.335044
v 0.000000 0.057069 -0.406081
v 0.040354 0.040354 -0.049319
v 0.097835 0.097835 -0.089937
v 0.020878 0.020878 -0.120356
v 0.120673 0.120673 -0.148206
v 0.013410 0.013410 -0.145855
v 0.038909 0.038909 -0.130918
v 0.031440 0.031440 -0.156417
v 0.068435 0.068435 -0.172675
v 0.128016 0.128016 -0.227700
v 0.075904 0.075904 -0.198174
v 0.050405 0.050404 -0.183237
v 0.057873 0.057873 -0.208736
v 0.013410 0.013410 -0.309545
v 0.057873 0.057873 -0.246664
v 0.075904 0.075904 -0.257226
v 0.120673 0.120673 -0.307194
v 0.050405 0.050404 -0.272163
v 0.068435 0.068435 -0.282725
v 0.031440 0.031440 -0.298983
v 0.038909 0.038909 -0.324482
v 0.097835 0.097835 -0.365463
v 0.020878 0.020878 -0.335044
v 0.040354 0.040354 -0.406081
v 0.000000 -0.000000 -0.027469
v 0.019423 0.019423 -0.027469
v 0.000000 -0.000000 -0.049319
v 0.039168 0.039168 -0.027469
v 0.040354 0.040354 -0.049319
v 0.107462 0.107462 -0.075728
v 0.097835 0.097834 -0.089937
v 0.133524 0.133524 -0.142223
v 0.120673 0.120673 -0.148206
v 0.141420 0.141420 -0.227700
v 0.128016 0.128015 -0.227700
v 0.120673 0.120673 -0.307194
v 0.133524 0.133524 -0.313177
v 0.097835 0.097834 -0.365463
v 0.107462 0.107462 -0.379672
v 0.040354 0.040354 -0.406081
v 0.039168 0.039168 -0.427931
v 0.000000 -0.000000 -0.427931
v 0.000000 -0.000000 -0.406081
v 0.019423 0.019423 -0.427931
v 0.000000 0.055392 -0.027469
v 0.000000 0.151974 -0.075728
v 0.000000 0.057069 -0.049319
v 0.000000 0.138359 -0.089937
v 0.000000 0.188832 -0.142223
v -0.000000 0.199998 -0.227700
v 0.000000 0.181041 -0.227700
v 0.000000 0.188832 -0.313177
v 0.000000 0.138359 -0.365463
v 0.000000 0.151974 -0.379672
v 0.000000 0.057069 -0.406081
v 0.000000 0.055392 -0.427931
v 0.000000 0.029526 -0.120356
v 0.000000 0.018964 -0.145855
v 0.000000 0.055025 -0.130918
v 0.000000 0.044463 -0.156417
v 0.057873 0.057873 -0.246664
v 0.075904 0.075904 -0.257226
v 0.050405 0.050404 -0.272163
v 0.068435 0.068435 -0.282725
v 0.031440 0.031440 -0.298983
v 0.038909 0.038909 -0.324482
v 0.013410 0.013410 -0.309545
v 0.020878 0.020878 -0.335044
v 0.000000 0.044463 -0.298983
v 0.000000 0.018964 -0.309545
v 0.000000 0.055025 -0.324482
v 0.000000 0.029526 -0.335044
v 0.068435 0.068435 -0.172675
v 0.075904 0.075904 -0.198174
v 0.050405 0.050404 -0.183237
v 0.057873 0.057873 -0.208736
v 0.000000 0.071283 -0.272163
v 0.000000 0.096782 -0.282725
v 0.020878 0.020878 -0.120356
v 0.038909 0.038909 -0.130918
v 0.013410 0.013410 -0.145855
v 0.031440 0.031440 -0.156417
v 0.000000 0.096782 -0.172675
v 0.000000 0.071283 -0.183237
v 0.000000 0.107344 -0.198174
v 0.000000 0.081845 -0.208736
v 0.043751 -0.043751 -0.000000
v -0.000000 -0.061873 -0.000000
v -0.000000 0.000000 -0.000000
v 0.121530 -0.121530 -0.400438
v 0.043751 -0.043751 -0.455400
v 0.000000 -0.171870 -0.400438
v -0.000000 -0.061873 -0.455400
v 0.000000 -0.227700 -0.227700
v 0.161008 -0.161008 -0.227700
v 0.000000 -0.215392 -0.321921
v 0.152305 -0.152305 -0.321921
v -0.000000 0.000000 -0.427931
v -0.000000 -0.027469 -0.427931
v -0.000000 0.000000 -0.476100
v -0.000000 -0.011915 -0.455400
v -0.000000 -0.011915 -0.476100
v -0.000000 -0.055393 -0.427931
v 0.000000 -0.151974 -0.379672
v 0.000000 -0.188832 -0.313177
v 0.000000 -0.199998 -0.227700
v 0.000000 -0.188832 -0.142223
v 0.000000 -0.215392 -0.133479
v 0.000000 -0.151974 -0.075728
v 0.000000 -0.171870 -0.054962
v -0.000000 -0.055393 -0.027469
v -0.000000 0.000000 -0.027469
v -0.000000 -0.027469 -0.027469
v 0.152305 -0.152305 -0.133479
v 0.121530 -0.121530 -0.054962
v 0.039168 -0.039168 -0.027469
v 0.019423 -0.019423 -0.027469
v 0.107462 -0.107462 -0.075728
v 0.133524 -0.133524 -0.142223
v 0.141420 -0.141420 -0.227700
v 0.133524 -0.133524 -0.313177
v 0.107462 -0.107462 -0.379672
v 0.039168 -0.039168 -0.427931
v 0.019423 -0.019423 -0.427931
v 0.008425 -0.008425 -0.455400
v 0.008425 -0.008425 -0.476100
v 0.040354 -0.040354 -0.049319
v -0.000000 0.000000 -0.049319
v 0.097835 -0.097835 -0.089937
v 0.020878 -0.020878 -0.120356
v 0.120673 -0.120673 -0.148206
v 0.013410 -0.013410 -0.145855
v 0.038909 -0.038909 -0.130918
v -0.000000 0.000000 -0.406081
v 0.031440 -0.031440 -0.156417
v 0.068435 -0.068435 -0.172675
v 0.128016 -0.128016 -0.227700
v 0.075904 -0.075904 -0.198174
v 0.050404 -0.050404 -0.183237
v 0.057873 -0.057873 -0.208736
v 0.013410 -0.013410 -0.309545
v 0.057873 -0.057873 -0.246664
v 0.075904 -0.075904 -0.257226
v 0.120673 -0.120673 -0.307194
v 0.050404 -0.050404 -0.272163
v 0.068435 -0.068435 -0.282725
v 0.031440 -0.031440 -0.298983
v 0.038909 -0.038909 -0.324482
v 0.097835 -0.097835 -0.365463
v 0.020878 -0.020878 -0.335044
v 0.040354 -0.040354 -0.406081
v -0.000000 -0.057069 -0.049319
v -0.000000 -0.138359 -0.089937
v -0.000000 -0.029526 -0.120356
v 0.000000 -0.170657 -0.148206
v -0.000000 -0.018964 -0.145855
v -0.000000 -0.055025 -0.130918
v -0.000000 -0.044463 -0.156417
v -0.000000 -0.096782 -0.172675
v 0.000000 -0.181041 -0.227700
v -0.000000 -0.107344 -0.198174
v -0.000000 -0.071283 -0.183237
v -0.000000 -0.081845 -0.208736
v -0.000000 -0.018964 -0.309545
v -0.000000 -0.081845 -0.246664
v -0.000000 -0.107344 -0.257226
v 0.000000 -0.170657 -0.307194
v -0.000000 -0.071283 -0.272163
v -0.000000 -0.096782 -0.282725
v -0.000000 -0.044463 -0.298983
v -0.000000 -0.055025 -0.324482
v -0.000000 -0.138359 -0.365463
v -0.000000 -0.029526 -0.335044
v -0.000000 -0.057069 -0.406081
v 0.020878 -0.020878 -0.120356
v 0.013410 -0.013410 -0.145855
v 0.038909 -0.038909 -0.130918
v 0.031440 -0.031440 -0.156417
v 0.000000 -0.081845 -0.246664
v 0.000000 -0.107344 -0.257226
v 0.000000 -0.071283 -0.272163
v 0.000000 -0.096782 -0.282725
v 0.000000 -0.044463 -0.298983
v 0.000000 -0.055025 -0.324482
v 0.000000 -0.018964 -0.309545
v 0.000000 -0.029526 -0.335044
v 0.031440 -0.031440 -0.298983
v 0.013410 -0.013410 -0.309545
v 0.038909 -0.038909 -0.324482
v 0.020878 -0.020878 -0.335044
v 0.000000 -0.096782 -0.172675
v 0.000000 -0.107344 -0.198174
v 0.000000 -0.071283 -0.183237
v 0.000000 -0.081845 -0.208736
v 0.057873 -0.057873 -0.246664
v 0.050404 -0.050404 -0.272163
v 0.075904 -0.075903 -0.257226
v 0.068435 -0.068435 -0.282725
v 0.000000 -0.029526 -0.120356
v 0.000000 -0.055025 -0.130918
v 0.000000 -0.018964 -0.145855
v 0.000000 -0.044463 -0.156417
v 0.068435 -0.068435 -0.172675
v 0.050404 -0.050404 -0.183237
v 0.075904 -0.075903 -0.198174
v 0.057873 -0.057873 -0.208736
v -0.000000 0.000000 -0.027469
v -0.000000 -0.027469 -0.027469
v -0.000000 0.000000 -0.049319
v -0.000000 -0.055392 -0.027469
v -0.000000 -0.057069 -0.049319
v -0.000000 -0.151974 -0.075728
v -0.000000 -0.138359 -0.089937
v 0.000000 -0.188832 -0.142223
v -0.000000 -0.170657 -0.148206
v 0.000000 -0.199998 -0.227700
v -0.000000 -0.181041 -0.227700
v -0.000000 -0.170657 -0.307194
v 0.000000 -0.188832 -0.313177
v -0.000000 -0.138359 -0.365463
v -0.000000 -0.151974 -0.379672
v -0.000000 -0.057069 -0.406081
v -0.000000 -0.055392 -0.427931
v -0.000000 0.000000 -0.427931
v -0.000000 0.000000 -0.406081
v -0.000000 -0.027469 -0.427931
v 0.039168 -0.039168 -0.027469
v 0.019423 -0.019423 -0.027469
v 0.107462 -0.107462 -0.075728
v 0.040354 -0.040354 -0.049319
v 0.097835 -0.097834 -0.089937
v 0.133524 -0.133524 -0.142223
v 0.120673 -0.120673 -0.148206
v 0.141420 -0.141420 -0.227700
v 0.128016 -0.128015 -0.227700
v 0.120673 -0.120673 -0.307194
v 0.133524 -0.133524 -0.313177
v 0.097835 -0.097834 -0.365463
v 0.107462 -0.107462 -0.379672
v 0.040354 -0.040354 -0.406081
v 0.039168 -0.039168 -0.427931
v 0.019423 -0.019423 -0.427931
v 0.061873 -0.000000 -0.000000
v 0.043751 -0.043751 -0.000000
v 0.000000 -0.000000 -0.000000
v 0.161008 -0.161008 -0.227700
v 0.215392 -0.000000 -0.133479
v 0.215392 -0.000000 -0.321921
v 0.171870 -0.000000 -0.054962
v 0.121530 -0.121530 -0.054962
v 0.121530 -0.121530 -0.400438
v 0.171870 -0.000000 -0.400438
v 0.061873 -0.000000 -0.455400
v 0.043751 -0.043751 -0.455400
v 0.000000 -0.000000 -0.427931
v 0.019423 -0.019423 -0.427931
v 0.000000 -0.000000 -0.476100
v 0.008425 -0.008425 -0.455400
v 0.008425 -0.008425 -0.476100
v 0.039168 -0.039168 -0.427931
v 0.107462 -0.107462 -0.379672
v 0.133524 -0.133524 -0.313177
v 0.141420 -0.141420 -0.227700
v 0.133524 -0.133524 -0.142223
v 0.107462 -0.107462 -0.075728
v 0.039168 -0.039168 -0.027469
v 0.000000 -0.000000 -0.027469
v 0.019423 -0.019423 -0.027469
v 0.055393 -0.000000 -0.027469
v 0.027469 -0.000000 -0.027469
v 0.151974 -0.000000 -0.075728
v 0.188832 -0.000000 -0.142223
v 0.199998 -0.000000 -0.227700
v 0.188832 -0.000000 -0.313177
v 0.151974 -0.000000 -0.379672
v 0.055393 -0.000000 -0.427931
v 0.027469 -0.000000 -0.427931
v 0.011915 -0.000000 -0.455400
v 0.011915 -0.000000 -0.476100
v 0.040354 -0.040354 -0.049319
v 0.097835 -0.097835 -0.089937
v 0.000000 -0.000000 -0.049319
v 0.020878 -0.020878 -0.120356
v 0.120673 -0.120673 -0.148206
v 0.013410 -0.013410 -0.145855
v 0.038909 -0.038909 -0.130918
v 0.000000 -0.000000 -0.406081
v 0.031440 -0.031440 -0.156417
v 0.068435 -0.068435 -0.172675
v 0.128016 -0.128016 -0.227700
v 0.075904 -0.075904 -0.198174
v 0.050404 -0.050404 -0.183237
v 0.057873 -0.057873 -0.208736
v 0.013410 -0.013410 -0.309545
v 0.057873 -0.057873 -0.246664
v 0.075904 -0.075904 -0.257226
v 0.120673 -0.120673 -0.307194
v 0.050404 -0.050404 -0.272163
v 0.068435 -0.068435 -0.282725
v 0.031440 -0.031440 -0.298983
v 0.038909 -0.038909 -0.324482
v 0.097835 -0.097835 -0.365463
v 0.020878 -0.020878 -0.335044
v 0.040354 -0.040354 -0.406081
v 0.057069 -0.000000 -0.049319
v 0.138359 -0.000000 -0.089937
v 0.029526 -0.000000 -0.120356
v 0.170657 -0.000000 -0.148206
v 0.018964 -0.000000 -0.145855
v 0.055025 -0.000000 -0.130918
v 0.044463 -0.000000 -0.156417
v 0.096782 -0.000000 -0.172675
v 0.181041 -0.000000 -0.227700
v 0.107344 -0.000000 -0.198174
v 0.071283 -0.000000 -0.183237
v 0.081845 -0.000000 -0.208736
v 0.018964 -0.000000 -0.309545
v 0.081845 -0.000000 -0.246664
v 0.107344 -0.000000 -0.257226
v 0.170657 -0.000000 -0.307194
v 0.071283 -0.000000 -0.272163
v 0.096782 -0.000000 -0.282725
v 0.044463 -0.000000 -0.298983
v 0.055025 -0.000000 -0.324482
v 0.138359 -0.000000 -0.365463
v 0.029526 -0.000000 -0.335044
v 0.057069 -0.000000 -0.406081
v 0.029526 -0.000000 -0.120356
v 0.018964 -0.000000 -0.145855
v 0.055025 -0.000000 -0.130918
v 0.044463 -0.000000 -0.156417
v 0.057873 -0.057873 -0.246664
v 0.075904 -0.075904 -0.257226
v 0.050405 -0.050405 -0.272163
v 0.068435 -0.068435 -0.282725
v 0.031440 -0.031440 -0.298983
v 0.038909 -0.038909 -0.324482
v 0.013410 -0.013410 -0.309545
v 0.020878 -0.020878 -0.335044
v 0.044463 -0.000000 -0.298983
v 0.018964 -0.000000 -0.309545
v 0.055025 -0.000000 -0.324482
v 0.029526 -0.000000 -0.335044
v 0.068435 -0.068435 -0.172675
v 0.075904 -0.075904 -0.198174
v 0.050405 -0.050405 -0.183237
v 0.057873 -0.057873 -0.208736
v 0.081845 -0.000000 -0.246664
v 0.071283 -0.000000 -0.272163
v 0.107344 -0.000000 -0.257226
v 0.096782 -0.000000 -0.282725
v 0.020878 -0.020878 -0.120356
v 0.038909 -0.038909 -0.130918
v 0.013410 -0.013410 -0.145855
v 0.031440 -0.031440 -0.156417
v 0.096782 -0.000000 -0.172675
v 0.071283 -0.000000 -0.183237
v 0.107344 -0.000000 -0.198174
v 0.081845 -0.000000 -0.208736
v -0.000000 0.000000 -0.027469
v 0.019423 -0.019423 -0.027469
v -0.000000 0.000000 -0.049319
v 0.039168 -0.039168 -0.027469
v 0.040354 -0.040354 -0.049319
v 0.107462 -0.107462 -0.075728
v 0.097835 -0.097834 -0.089937
v 0.133524 -0.133524 -0.142223
v 0.120673 -0.120673 -0.148206
v 0.141420 -0.141420 -0.227700
v 0.128016 -0.128015 -0.227700
v 0.120673 -0.120673 -0.307194
v 0.133524 -0.133524 -0.313177
v 0.097835 -0.097834 -0.365463
v 0.107462 -0.107462 -0.379672
v 0.040354 -0.040354 -0.406081
v 0.039168 -0.039168 -0.427931
v -0.000000 0.000000 -0.427931
v -0.000000 0.000000 -0.406081
v 0.019423 -0.019423 -0.427931
v 0.055393 0.000000 -0.027469
v 0.027469 0.000000 -0.027469
v 0.151974 0.000000 -0.075728
v 0.057069 0.000000 -0.049319
v 0.138359 0.000000 -0.089937
v 0.188832 0.000000 -0.142223
v 0.170657 0.000000 -0.148206
v 0.199998 0.000000 -0.227700
v 0.181041 0.000000 -0.227700
v 0.170657 0.000000 -0.307194
v 0.188832 0.000000 -0.313177
v 0.138359 0.000000 -0.365463
v 0.151974 0.000000 -0.379672
v 0.057069 0.000000 -0.406081
v 0.055393 0.000000 -0.427931
v 0.027469 0.000000 -0.427931
v -0.057069 -0.000000 -0.049319
v -0.138359 0.000000 -0.089937
v 0.000000 -0.000000 -0.049319
v -0.029526 -0.000000 -0.120356
v -0.170657 0.000000 -0.148206
v -0.018964 -0.000000 -0.145855
v -0.055025 -0.000000 -0.130918
v 0.000000 -0.000000 -0.406081
v -0.044463 -0.000000 -0.156417
v -0.096782 -0.000000 -0.172675
v -0.181041 0.000000 -0.227700
v -0.107344 -0.000000 -0.198174
v -0.071283 -0.000000 -0.183237
v -0.081845 -0.000000 -0.208736
v -0.018964 -0.000000 -0.309545
v -0.081845 -0.000000 -0.246664
v -0.107344 -0.000000 -0.257226
v -0.170657 0.000000 -0.307194
v -0.071283 -0.000000 -0.272163
v -0.096782 -0.000000 -0.282725
v -0.044463 -0.000000 -0.298983
v -0.055025 -0.000000 -0.324482
v -0.138359 0.000000 -0.365463
v -0.029526 -0.000000 -0.335044
v -0.057069 -0.000000 -0.406081
v -0.040354 -0.040354 -0.049319
v -0.097835 -0.097835 -0.089937
v -0.020878 -0.020878 -0.120356
v -0.120673 -0.120673 -0.148206
v -0.013410 -0.013410 -0.145855
v -0.038909 -0.038909 -0.130918
v -0.031440 -0.031440 -0.156417
v -0.068435 -0.068435 -0.172675
v -0.128016 -0.128016 -0.227700
v -0.050404 -0.050405 -0.183237
v -0.057873 -0.057873 -0.208736
v -0.013410 -0.013410 -0.309545
v -0.057873 -0.057873 -0.246664
v -0.120673 -0.120673 -0.307194
v -0.050404 -0.050405 -0.272163
v -0.068435 -0.068435 -0.282725
v -0.031440 -0.031440 -0.298983
v -0.038909 -0.038909 -0.324482
v -0.097835 -0.097835 -0.365463
v -0.020878 -0.020878 -0.335044
v -0.040354 -0.040354 -0.406081
v -0.043751 -0.043751 -0.000000
v -0.061873 -0.000000 -0.000000
v 0.000000 -0.000000 -0.000000
v -0.215392 0.000000 -0.133479
v -0.152305 -0.152305 -0.133479
v -0.121530 -0.121530 -0.054962
v -0.039168 -0.039168 -0.027469
v 0.000000 -0.000000 -0.027469
v -0.019423 -0.019423 -0.027469
v -0.141420 -0.141420 -0.227700
v -0.152305 -0.152305 -0.321921
v -0.121530 -0.121530 -0.400438
v -0.039168 -0.039168 -0.427931
v -0.043751 -0.043751 -0.455400
v -0.019423 -0.019423 -0.427931
v 0.000000 -0.000000 -0.427931
v -0.008425 -0.008425 -0.455400
v 0.000000 -0.000000 -0.476100
v -0.008425 -0.008425 -0.476100
v -0.215392 0.000000 -0.321921
v -0.227700 0.000000 -0.227700
v -0.027469 -0.000000 -0.427931
v -0.011915 -0.000000 -0.455400
v -0.011915 -0.000000 -0.476100
v -0.055393 -0.000000 -0.427931
v -0.061873 -0.000000 -0.455400
v -0.151974 0.000000 -0.379672
v -0.188832 0.000000 -0.313177
v -0.199998 0.000000 -0.227700
v -0.188832 0.000000 -0.142223
v -0.151974 0.000000 -0.075728
v -0.055393 -0.000000 -0.027469
v -0.027469 -0.000000 -0.027469
v 0.000000 -0.000000 -0.027469
v -0.027469 -0.000000 -0.027469
v 0.000000 -0.000000 -0.049319
v -0.055393 -0.000000 -0.027469
v -0.057069 -0.000000 -0.049319
v -0.151974 0.000000 -0.075728
v -0.138359 0.000000 -0.089937
v -0.188832 0.000000 -0.142223
v -0.199998 0.000000 -0.227700
v -0.181041 0.000000 -0.227700
v -0.188832 0.000000 -0.313177
v -0.138359 0.000000 -0.365463
v -0.151974 0.000000 -0.379672
v -0.057069 -0.000000 -0.406081
v -0.055393 -0.000000 -0.427931
v 0.000000 -0.000000 -0.427931
v 0.000000 -0.000000 -0.406081
v -0.027469 -0.000000 -0.427931
v -0.039168 -0.039168 -0.027469
v -0.019423 -0.019423 -0.027469
v -0.107462 -0.107462 -0.075728
v -0.040354 -0.040354 -0.049319
v -0.097835 -0.097835 -0.089937
v -0.133524 -0.133524 -0.142223
v -0.120673 -0.120673 -0.148206
v -0.120673 -0.120673 -0.307194
v -0.133524 -0.133524 -0.313177
v -0.097835 -0.097835 -0.365463
v -0.107462 -0.107462 -0.379672
v -0.040354 -0.040354 -0.406081
v -0.039168 -0.039168 -0.427931
v -0.019423 -0.019423 -0.427931
v -0.020878 -0.020878 -0.120356
v -0.013410 -0.013410 -0.145855
v -0.038909 -0.038909 -0.130918
v -0.031440 -0.031440 -0.156417
v -0.081845 -0.000000 -0.246664
v -0.107344 -0.000000 -0.257226
v -0.071283 -0.000000 -0.272163
v -0.096782 -0.000000 -0.282725
v -0.044463 -0.000000 -0.298983
v -0.055025 -0.000000 -0.324482
v -0.018964 -0.000000 -0.309545
v -0.029526 -0.000000 -0.335044
v -0.031440 -0.031440 -0.298983
v -0.013410 -0.013410 -0.309545
v -0.038909 -0.038909 -0.324482
v -0.020878 -0.020878 -0.335044
v -0.096782 -0.000000 -0.172675
v -0.107344 -0.000000 -0.198174
v -0.071283 -0.000000 -0.183237
v -0.081845 -0.000000 -0.208736
v -0.057873 -0.057873 -0.246664
v -0.050404 -0.050405 -0.272163
v -0.075904 -0.075904 -0.257226
v -0.068435 -0.068435 -0.282725
v -0.029526 -0.000000 -0.120356
v -0.055025 -0.000000 -0.130918
v -0.018964 -0.000000 -0.145855
v -0.044463 -0.000000 -0.156417
v -0.068435 -0.068435 -0.172675
v -0.050404 -0.050405 -0.183237
v -0.075904 -0.075904 -0.198174
v -0.057873 -0.057873 -0.208736
vn -0.0000 -0.0000 -1.0000
vn -0.3827 0.9239 -0.0000
vn -0.0000 -0.0000 1.0000
vn -0.1162 0.2805 0.9528
vn -0.2881 0.6956 -0.6582
vn -0.1821 0.4395 -0.8796
vn 1.0000 -0.0000 -0.0000
vn -0.3675 0.8872 -0.2789
vn -0.3675 0.8872 0.2789
vn -0.2881 0.6956 0.6582
vn -0.7071 -0.7071 -0.0000
vn -0.0000 -1.0000 -0.0000
vn 0.7071 0.7071 -0.0000
vn 0.7070 0.7072 -0.0000
vn 0.7071 0.7071 0.0001
vn -0.9239 0.3827 -0.0000
vn -0.2805 0.1162 0.9528
vn -0.6956 0.2881 -0.6582
vn -0.8872 0.3675 -0.2789
vn -0.4395 0.1821 -0.8796
vn -0.4395 0.1820 -0.8796
vn -0.8872 0.3675 0.2789
vn -0.6956 0.2881 0.6582
vn 0.7072 0.7070 -0.0000
vn -0.1162 -0.2805 0.9528
vn -0.2881 -0.6956 -0.6582
vn -0.1821 -0.4395 -0.8796
vn -0.3675 -0.8872 -0.2789
vn -0.3675 -0.8872 0.2789
vn -0.2881 -0.6956 0.6582
vn -0.3827 -0.9239 -0.0000
vn -0.7071 0.7071 -0.0000
vn -0.7070 0.7072 -0.0000
vn -0.7071 0.7071 -0.0001
vn -0.7071 0.7071 -0.0003
vn -0.7072 0.7070 -0.0000
vn 0.2805 0.1162 0.9528
vn 0.6956 0.2881 -0.6582
vn 0.4395 0.1821 -0.8796
vn 0.8872 0.3675 0.2789
vn 0.6956 0.2881 0.6582
vn 0.8872 0.3675 -0.2789
vn 0.9239 0.3827 -0.0000
vn 0.1162 0.2805 0.9528
vn 0.3675 0.8872 -0.2789
vn 0.3827 0.9239 -0.0000
vn 0.3675 0.8872 0.2789
vn 0.2881 0.6956 0.6582
vn 0.2881 0.6956 -0.6582
vn 0.1821 0.4395 -0.8796
vn 0.7071 -0.7071 -0.0000
vn 0.7071 -0.7071 0.0001
vn -1.0000 -0.0000 -0.0000
vn 0.1162 -0.2805 0.9528
vn 0.2881 -0.6956 -0.6582
vn 0.1821 -0.4395 -0.8796
vn 0.3675 -0.8872 -0.2789
vn 0.3827 -0.9239 -0.0000
vn 0.3675 -0.8872 0.2789
vn 0.2881 -0.6956 0.6582
vn 0.2805 -0.1162 0.9528
vn 0.9239 -0.3827 -0.0000
vn 0.8872 -0.3675 0.2789
vn 0.8872 -0.3675 -0.2789
vn 0.6956 -0.2881 0.6582
vn 0.6956 -0.2881 -0.6582
vn 0.4395 -0.1821 -0.8796
vn 0.4395 -0.1820 -0.8796
vn -0.7070 -0.7072 -0.0000
vn -0.7071 -0.7071 0.0001
vn -0.0000 1.0000 -0.0000
vn -0.7072 -0.7070 -0.0000
vn -0.2805 -0.1162 0.9528
vn -0.8872 -0.3675 0.2789
vn -0.6956 -0.2881 0.6582
vn -0.6956 -0.2881 -0.6582
vn -0.8872 -0.3675 -0.2789
vn -0.9239 -0.3827 -0.0000
vn -0.4395 -0.1820 -0.8796
vt 0.093750 0.475000
vt 0.093750 0.466304
vt 0.593750 0.275000
vt 0.593750 0.443216
vt 0.593750 0.466304
vt 0.593750 0.475000
vt 0.593750 0.454765
vt 0.593750 0.434493
vt 0.593750 0.410232
vt 0.593750 0.406559
vt 0.593750 0.370652
vt 0.593750 0.334745
vt 0.593750 0.331072
vt 0.593750 0.306812
vt 0.593750 0.298088
vt 0.593750 0.286539
vt 0.968750 0.312781
vt 0.968750 0.295718
vt 0.968750 0.325559
vt 0.968750 0.337258
vt 0.968750 0.336271
vt 0.968750 0.329996
vt 0.968750 0.445586
vt 0.968750 0.340708
vt 0.968750 0.347537
vt 0.968750 0.370652
vt 0.968750 0.358249
vt 0.968750 0.351974
vt 0.968750 0.362686
vt 0.968750 0.405033
vt 0.968750 0.378619
vt 0.968750 0.383056
vt 0.968750 0.404046
vt 0.968750 0.389330
vt 0.968750 0.393767
vt 0.968750 0.400597
vt 0.968750 0.411308
vt 0.968750 0.428524
vt 0.968750 0.415745
vt 0.718750 0.285913
vt 0.718750 0.275000
vt 0.718750 0.299102
vt 0.718750 0.306198
vt 0.718750 0.332311
vt 0.718750 0.335299
vt 0.718750 0.375000
vt 0.718750 0.414701
vt 0.718750 0.417689
vt 0.718750 0.443802
vt 0.718750 0.450898
vt 0.718750 0.464087
vt 0.718750 0.475000
vt 0.218750 0.034839
vt 0.218750 0.048755
vt 0.218750 0.025000
vt 0.218750 0.058594
vt 0.218750 0.166421
vt 0.218750 0.152506
vt 0.218750 0.142667
vt 0.218750 0.176261
vt 0.218750 0.201245
vt 0.218750 0.215161
vt 0.218750 0.191406
vt 0.218750 0.225000
vt 0.218750 0.083579
vt 0.218750 0.097494
vt 0.218750 0.073739
vt 0.218750 0.107333
vt 0.343750 0.025000
vt 0.343750 0.193216
vt 0.343750 0.160232
vt 0.343750 0.216304
vt 0.343750 0.120652
vt 0.343750 0.081072
vt 0.343750 0.048088
s 1
usemtl colormap.037
f 3/1/1 2/1/1 1/1/1
f 6/2/1 5/2/1 4/2/1
f 5/2/1 6/2/1 7/2/1
f 2/1/2 7/2/2 1/1/2
f 7/2/2 2/1/2 5/2/2
f 10/3/3 9/3/4 8/3/4
f 12/4/5 4/5/6 11/4/5
f 4/5/6 12/4/5 6/5/6
f 3/6/7 14/7/7 13/7/7
f 14/7/7 3/6/7 7/5/7
f 7/5/7 3/6/7 1/6/7
f 14/7/7 7/5/7 15/7/7
f 6/5/7 15/7/7 7/5/7
f 12/4/7 15/7/7 6/5/7
f 12/4/7 16/8/7 15/7/7
f 17/9/7 16/8/7 12/4/7
f 17/9/7 18/10/7 16/8/7
f 19/11/7 18/10/7 17/9/7
f 19/11/7 20/11/7 18/10/7
f 19/11/7 21/12/7 20/11/7
f 22/13/7 21/12/7 19/11/7
f 22/13/7 23/14/7 21/12/7
f 24/15/7 23/14/7 22/13/7
f 24/15/7 25/16/7 23/14/7
f 9/3/7 25/16/7 24/15/7
f 9/3/7 26/16/7 25/16/7
f 25/16/7 26/16/7 27/16/7
f 26/16/7 9/3/7 10/3/7
f 17/9/8 28/11/2 19/11/2
f 28/11/2 17/9/8 29/9/8
f 28/11/2 22/13/9 19/11/2
f 22/13/9 28/11/2 30/13/9
f 30/13/9 24/15/10 22/13/9
f 24/15/10 30/13/9 31/15/10
f 8/3/4 24/15/10 31/15/10
f 24/15/10 8/3/4 9/3/4
f 12/4/5 29/9/8 17/9/8
f 29/9/8 12/4/5 11/4/5
f 31/15/11 10/3/11 8/3/11
f 10/3/11 31/15/11 32/16/11
f 32/16/11 26/16/11 10/3/11
f 26/16/11 32/16/11 33/16/11
f 32/16/11 31/15/11 34/14/11
f 34/14/11 31/15/11 30/13/11
f 34/14/11 30/13/11 35/12/11
f 35/12/11 30/13/11 28/11/11
f 35/12/11 28/11/11 36/11/11
f 36/11/11 28/11/11 37/10/11
f 37/10/11 28/11/11 29/9/11
f 37/10/11 29/9/11 38/8/11
f 38/8/11 29/9/11 11/4/11
f 38/8/11 11/4/11 39/7/11
f 39/7/11 11/4/11 4/5/11
f 39/7/11 4/5/11 40/7/11
f 40/7/11 4/5/11 13/7/11
f 13/7/11 4/5/11 5/5/11
f 13/7/11 5/5/11 3/6/11
f 3/6/11 5/5/11 2/6/11
f 43/17/11 42/18/11 41/18/11
f 42/18/11 43/17/11 44/19/11
f 45/20/11 44/19/11 43/17/11
f 42/18/11 44/19/11 46/21/11
f 44/19/11 45/20/11 47/22/11
f 42/18/11 46/21/11 48/23/11
f 47/22/11 45/20/11 49/24/11
f 48/23/11 46/21/11 49/24/11
f 49/24/11 45/20/11 50/25/11
f 50/25/11 45/20/11 51/26/11
f 50/25/11 51/26/11 52/27/11
f 53/28/11 49/24/11 50/25/11
f 52/27/11 51/26/11 54/29/11
f 55/30/11 49/24/11 53/28/11
f 55/30/11 53/28/11 54/29/11
f 48/23/11 49/24/11 55/30/11
f 56/31/11 54/29/11 51/26/11
f 55/30/11 54/29/11 56/31/11
f 51/26/11 57/32/11 56/31/11
f 57/32/11 51/26/11 58/33/11
f 55/30/11 56/31/11 59/34/11
f 57/32/11 58/33/11 60/35/11
f 55/30/11 59/34/11 61/36/11
f 61/36/11 59/34/11 60/35/11
f 60/35/11 58/33/11 61/36/11
f 61/36/11 58/33/11 62/37/11
f 62/37/11 58/33/11 63/38/11
f 48/23/11 55/30/11 64/39/11
f 62/37/11 63/38/11 64/39/11
f 48/23/11 64/39/11 63/38/11
f 48/23/11 63/38/11 65/23/11
f 42/18/7 67/17/7 66/18/7
f 67/17/7 42/18/7 68/19/7
f 68/19/7 69/20/7 67/17/7
f 68/19/7 42/18/7 70/21/7
f 69/20/7 68/19/7 71/22/7
f 70/21/7 42/18/7 48/23/7
f 69/20/7 71/22/7 72/24/7
f 70/21/7 48/23/7 72/24/7
f 69/20/7 72/24/7 73/25/7
f 69/20/7 73/25/7 74/26/7
f 74/26/7 73/25/7 75/27/7
f 72/24/7 76/28/7 73/25/7
f 74/26/7 75/27/7 77/29/7
f 72/24/7 78/30/7 76/28/7
f 76/28/7 78/30/7 77/29/7
f 72/24/7 48/23/7 78/30/7
f 77/29/7 79/31/7 74/26/7
f 77/29/7 78/30/7 79/31/7
f 80/32/7 74/26/7 79/31/7
f 74/26/7 80/32/7 81/33/7
f 79/31/7 78/30/7 82/34/7
f 81/33/7 80/32/7 83/35/7
f 82/34/7 78/30/7 84/36/7
f 82/34/7 84/36/7 83/35/7
f 81/33/7 83/35/7 84/36/7
f 81/33/7 84/36/7 85/37/7
f 81/33/7 85/37/7 86/38/7
f 78/30/7 48/23/7 87/39/7
f 86/38/7 85/37/7 87/39/7
f 87/39/7 48/23/7 86/38/7
f 86/38/7 48/23/7 88/23/7
f 91/40/7 90/41/7 89/41/7
f 90/41/7 91/40/7 92/41/7
f 92/41/7 91/40/7 93/40/7
f 93/40/7 94/42/7 92/41/7
f 94/42/7 93/40/7 95/43/7
f 94/42/7 95/43/7 96/44/7
f 96/44/7 95/43/7 97/45/7
f 96/44/7 97/45/7 98/46/7
f 98/46/7 97/45/7 99/46/7
f 98/46/7 99/46/7 100/47/7
f 98/46/7 100/47/7 101/48/7
f 101/48/7 100/47/7 102/49/7
f 101/48/7 102/49/7 103/50/7
f 103/50/7 102/49/7 104/51/7
f 103/50/7 104/51/7 105/52/7
f 105/52/7 104/51/7 106/52/7
f 106/52/7 104/51/7 107/51/7
f 105/52/7 106/52/7 108/52/7
f 111/42/11 110/41/11 109/41/11
f 110/41/11 111/42/11 89/41/11
f 89/41/11 111/42/11 112/40/11
f 91/40/11 89/41/11 112/40/11
f 112/40/11 111/42/11 113/43/11
f 113/43/11 111/42/11 114/44/11
f 113/43/11 114/44/11 115/45/11
f 115/45/11 114/44/11 116/46/11
f 115/45/11 116/46/11 117/46/11
f 117/46/11 116/46/11 118/47/11
f 118/47/11 116/46/11 119/48/11
f 118/47/11 119/48/11 120/49/11
f 120/49/11 119/48/11 121/50/11
f 120/49/11 121/50/11 122/51/11
f 122/51/11 121/50/11 123/52/11
f 122/51/11 123/52/11 107/51/11
f 107/51/11 123/52/11 106/52/11
f 106/52/11 123/52/11 124/52/11
f 127/53/11 126/54/11 125/55/11
f 126/54/11 127/53/11 128/56/11
f 131/57/7 130/58/7 129/59/7
f 130/58/7 131/57/7 132/60/7
f 135/61/7 134/62/7 133/63/7
f 134/62/7 135/61/7 136/64/7
f 139/62/11 138/61/11 137/63/11
f 138/61/11 139/62/11 140/64/11
f 143/65/7 142/66/7 141/67/7
f 142/66/7 143/65/7 144/68/7
f 147/58/11 146/57/11 145/59/11
f 146/57/11 147/58/11 148/60/11
f 151/54/7 150/53/7 149/55/7
f 150/53/7 151/54/7 152/56/7
f 155/66/11 154/65/11 153/67/11
f 154/65/11 155/66/11 156/68/11
f 159/15/12 158/3/12 157/3/12
f 158/3/12 159/15/12 160/16/12
f 160/16/12 161/16/12 158/3/12
s 0
f 161/16/12 160/16/12 162/16/12
s 1
f 160/16/12 159/15/12 163/14/12
f 163/14/12 159/15/12 164/13/12
f 163/14/12 164/13/12 165/12/12
f 165/12/12 164/13/12 166/11/12
f 165/12/12 166/11/12 167/11/12
f 167/11/12 166/11/12 168/10/12
f 168/10/12 166/11/12 169/9/12
f 168/10/12 169/9/12 170/8/12
f 170/8/12 169/9/12 171/4/12
f 170/8/12 171/4/12 172/7/12
f 172/7/12 171/4/12 173/5/12
f 172/7/12 173/5/12 174/7/12
f 174/7/12 173/5/12 175/7/12
f 175/7/12 173/5/12 176/5/12
f 175/7/12 176/5/12 177/6/12
f 177/6/12 176/5/12 178/6/12
f 177/6/13 179/7/13 175/7/13
f 179/7/13 177/6/13 180/5/14
f 180/5/14 177/6/13 181/6/13
f 179/7/13 180/5/14 182/7/13
f 183/5/13 182/7/13 180/5/14
f 184/4/13 182/7/13 183/5/13
f 184/4/13 185/8/13 182/7/13
f 186/9/13 185/8/13 184/4/13
f 186/9/13 187/10/13 185/8/13
f 188/11/13 187/10/13 186/9/13
f 188/11/13 189/11/13 187/10/13
f 188/11/13 190/12/13 189/11/13
f 191/13/13 190/12/13 188/11/13
f 191/13/13 192/14/13 190/12/13
f 193/15/13 192/14/13 191/13/13
f 193/15/13 194/16/13 192/14/13
f 195/3/13 194/16/13 193/15/13
f 195/3/13 161/16/13 194/16/13
s 0
f 194/16/13 161/16/15 196/16/13
s 1
f 161/16/13 195/3/13 158/3/13
f 177/1/1 178/1/1 181/1/1
f 178/1/16 180/2/16 181/1/16
f 180/2/16 178/1/16 176/2/16
f 183/2/1 176/2/1 173/2/1
f 176/2/1 183/2/1 180/2/1
f 158/69/3 195/69/17 157/69/17
f 184/70/18 169/71/19 186/71/19
f 169/71/19 184/70/18 171/70/18
f 184/70/18 173/72/20 171/70/18
f 173/72/20 184/70/18 183/72/21
f 186/71/19 166/73/16 188/73/16
f 166/73/16 186/71/19 169/71/19
f 164/74/22 193/75/23 191/74/22
f 193/75/23 164/74/22 159/75/23
f 166/73/16 191/74/22 188/73/16
f 191/74/22 166/73/16 164/74/22
f 157/69/17 193/75/23 159/75/23
f 193/75/23 157/69/17 195/69/17
f 199/17/12 198/18/12 197/18/12
f 198/18/12 199/17/12 200/19/12
f 201/20/12 200/19/12 199/17/12
f 198/18/12 200/19/12 202/21/12
f 200/19/12 201/20/12 203/22/12
f 198/18/12 202/21/12 204/23/12
f 203/22/12 201/20/12 205/24/12
f 204/23/12 202/21/12 205/24/12
f 205/24/12 201/20/12 206/25/12
f 206/25/12 201/20/12 207/26/12
f 206/25/12 207/26/12 208/27/12
f 209/28/12 205/24/12 206/25/12
f 208/27/12 207/26/12 210/29/12
f 211/30/12 205/24/12 209/28/12
f 211/30/12 209/28/12 210/29/12
f 204/23/12 205/24/12 211/30/12
f 212/31/12 210/29/12 207/26/12
f 211/30/12 210/29/12 212/31/12
f 207/26/12 213/32/12 212/31/12
f 213/32/12 207/26/12 214/33/12
f 211/30/12 212/31/12 215/34/12
f 213/32/12 214/33/12 216/35/12
f 211/30/12 215/34/12 217/36/12
f 217/36/12 215/34/12 216/35/12
f 216/35/12 214/33/12 217/36/12
f 217/36/12 214/33/12 218/37/12
f 218/37/12 214/33/12 219/38/12
f 204/23/12 211/30/12 220/39/12
f 218/37/12 219/38/12 220/39/12
f 204/23/12 220/39/12 219/38/12
f 204/23/12 219/38/12 221/23/12
f 198/18/13 223/17/13 222/18/13
f 223/17/13 198/18/13 224/19/13
f 224/19/13 225/20/13 223/17/13
f 224/19/13 198/18/13 226/21/13
f 225/20/13 224/19/13 227/22/13
f 226/21/13 198/18/13 204/23/13
f 225/20/13 227/22/13 228/24/13
f 226/21/13 204/23/13 228/24/13
f 225/20/13 228/24/13 229/25/13
f 225/20/13 229/25/13 230/26/13
f 230/26/13 229/25/13 231/27/13
f 228/24/13 232/28/13 229/25/13
f 230/26/13 231/27/13 233/29/13
f 228/24/13 234/30/13 232/28/13
f 232/28/13 234/30/13 233/29/13
f 228/24/13 204/23/13 234/30/13
f 233/29/13 235/31/13 230/26/13
f 233/29/13 234/30/13 235/31/13
f 236/32/13 230/26/13 235/31/13
f 230/26/13 236/32/13 237/33/13
f 235/31/13 234/30/13 238/34/13
f 237/33/13 236/32/13 239/35/13
f 238/34/13 234/30/13 240/36/13
f 238/34/13 240/36/13 239/35/13
f 237/33/13 239/35/13 240/36/13
f 237/33/13 240/36/13 241/37/13
f 237/33/13 241/37/13 242/38/13
f 234/30/13 204/23/13 243/39/13
f 242/38/13 241/37/13 243/39/13
f 243/39/13 204/23/13 242/38/13
f 242/38/13 204/23/13 244/23/13
f 247/53/12 246/54/12 245/55/12
f 246/54/12 247/53/12 248/56/12
f 251/57/13 250/58/13 249/59/13
f 250/58/13 251/57/13 252/60/13
f 255/61/13 254/62/13 253/63/13
f 254/62/13 255/61/13 256/64/13
f 259/62/12 258/61/12 257/63/12
f 258/61/12 259/62/12 260/64/12
f 263/65/13 262/66/13 261/67/13
f 262/66/13 263/65/13 264/68/13
f 267/58/12 266/57/12 265/59/12
f 266/57/12 267/58/12 268/60/12
f 271/54/13 270/53/13 269/55/13
f 270/53/13 271/54/13 272/56/13
f 275/66/12 274/65/12 273/67/12
f 274/65/12 275/66/12 276/68/12
f 279/40/13 278/41/13 277/41/13
f 278/41/13 279/40/13 280/41/13
f 280/41/13 279/40/13 281/40/13
f 281/40/13 282/42/13 280/41/13
f 282/42/13 281/40/13 283/43/13
f 282/42/13 283/43/13 284/44/13
f 284/44/13 283/43/13 285/45/13
f 284/44/13 285/45/13 286/46/13
f 286/46/13 285/45/13 287/46/13
f 286/46/13 287/46/13 288/47/13
f 286/46/13 288/47/13 289/48/13
f 289/48/13 288/47/13 290/49/13
f 289/48/13 290/49/13 291/50/13
f 291/50/13 290/49/13 292/51/13
f 291/50/13 292/51/13 293/52/24
f 293/52/24 292/51/13 294/52/13
f 294/52/13 292/51/13 295/51/13
f 293/52/24 294/52/13 296/52/24
f 299/42/12 298/41/12 297/41/12
f 298/41/12 299/42/12 277/41/12
f 277/41/12 299/42/12 300/40/12
f 279/40/12 277/41/12 300/40/12
f 300/40/12 299/42/12 301/43/12
f 301/43/12 299/42/12 302/44/12
f 301/43/12 302/44/12 303/45/12
f 303/45/12 302/44/12 304/46/12
f 303/45/12 304/46/12 305/46/12
f 305/46/12 304/46/12 306/47/12
f 306/47/12 304/46/12 307/48/12
f 306/47/12 307/48/12 308/49/12
f 308/49/12 307/48/12 309/50/12
f 308/49/12 309/50/12 310/51/12
f 310/51/12 309/50/12 311/52/12
f 310/51/12 311/52/12 295/51/12
f 295/51/12 311/52/12 294/52/12
s 0
f 294/52/12 311/52/12 312/52/12
s 1
f 315/69/3 314/69/25 313/69/25
f 318/70/26 317/72/27 316/70/26
f 317/72/27 318/70/26 319/72/27
f 318/70/26 321/71/28 320/71/28
f 321/71/28 318/70/26 316/70/26
f 324/74/29 323/75/30 322/74/29
f 323/75/30 324/74/29 325/75/30
f 320/71/28 327/73/31 326/73/31
f 327/73/31 320/71/28 321/71/28
f 313/69/25 323/75/30 325/75/30
f 323/75/30 313/69/25 314/69/25
f 327/73/31 322/74/29 326/73/31
f 322/74/29 327/73/31 324/74/29
f 330/1/1 329/1/1 328/1/1
f 319/2/1 331/2/1 317/2/1
f 331/2/1 319/2/1 332/2/1
f 329/1/31 332/2/31 328/1/31
f 332/2/31 329/1/31 331/2/31
f 330/6/32 334/7/32 333/7/32
f 334/7/32 330/6/32 332/5/33
f 332/5/33 330/6/32 328/6/32
f 334/7/32 332/5/33 335/7/32
f 319/5/32 335/7/32 332/5/33
f 318/4/32 335/7/32 319/5/32
f 318/4/32 336/8/32 335/7/32
f 320/9/32 336/8/32 318/4/32
f 320/9/32 337/10/32 336/8/32
f 326/11/32 337/10/32 320/9/32
f 326/11/32 338/11/32 337/10/32
f 326/11/32 339/12/32 338/11/32
f 322/13/32 339/12/32 326/11/32
f 322/13/32 340/14/32 339/12/32
f 323/15/32 340/14/32 322/13/32
f 323/15/32 341/16/34 340/14/32
f 314/3/32 341/16/34 323/15/32
f 314/3/32 342/16/35 341/16/34
f 341/16/34 342/16/35 343/16/32
f 342/16/35 314/3/32 315/3/32
f 325/15/7 315/3/7 313/3/7
f 315/3/7 325/15/7 344/16/7
f 344/16/7 342/16/7 315/3/7
f 342/16/7 344/16/7 345/16/7
f 344/16/7 325/15/7 346/14/7
f 346/14/7 325/15/7 324/13/7
f 346/14/7 324/13/7 347/12/7
f 347/12/7 324/13/7 327/11/7
f 347/12/7 327/11/7 348/11/7
f 348/11/7 327/11/7 349/10/7
f 349/10/7 327/11/7 321/9/7
f 349/10/7 321/9/7 350/8/7
f 350/8/7 321/9/7 316/4/7
f 350/8/7 316/4/7 351/7/7
f 351/7/7 316/4/7 317/5/7
f 351/7/7 317/5/7 352/7/7
f 352/7/7 317/5/7 333/7/7
f 333/7/7 317/5/7 331/5/7
f 333/7/7 331/5/7 330/6/7
f 330/6/7 331/5/7 329/6/7
f 355/17/7 354/18/7 353/18/7
f 354/18/7 355/17/7 356/19/7
f 357/20/7 356/19/7 355/17/7
f 354/18/7 356/19/7 358/21/7
f 356/19/7 357/20/7 359/22/7
f 354/18/7 358/21/7 360/23/7
f 359/22/7 357/20/7 361/24/7
f 360/23/7 358/21/7 361/24/7
f 361/24/7 357/20/7 362/25/7
f 362/25/7 357/20/7 363/26/7
f 362/25/7 363/26/7 364/27/7
f 365/28/7 361/24/7 362/25/7
f 364/27/7 363/26/7 366/29/7
f 367/30/7 361/24/7 365/28/7
f 367/30/7 365/28/7 366/29/7
f 360/23/7 361/24/7 367/30/7
f 368/31/7 366/29/7 363/26/7
f 367/30/7 366/29/7 368/31/7
f 363/26/7 369/32/7 368/31/7
f 369/32/7 363/26/7 370/33/7
f 367/30/7 368/31/7 371/34/7
f 369/32/7 370/33/7 372/35/7
f 367/30/7 371/34/7 373/36/7
f 373/36/7 371/34/7 372/35/7
f 372/35/7 370/33/7 373/36/7
f 373/36/7 370/33/7 374/37/7
f 374/37/7 370/33/7 375/38/7
f 360/23/7 367/30/7 376/39/7
f 374/37/7 375/38/7 376/39/7
f 360/23/7 376/39/7 375/38/7
f 360/23/7 375/38/7 377/23/7
f 354/18/32 379/17/32 378/18/32
f 379/17/32 354/18/32 380/19/32
f 380/19/32 381/20/32 379/17/32
f 380/19/32 354/18/32 382/21/32
f 381/20/32 380/19/32 383/22/32
f 382/21/32 354/18/32 360/23/32
f 381/20/32 383/22/32 384/24/32
f 382/21/32 360/23/32 384/24/32
f 381/20/32 384/24/32 385/25/32
f 381/20/32 385/25/32 386/26/32
f 386/26/32 385/25/32 387/27/32
f 384/24/32 388/28/32 385/25/32
f 386/26/32 387/27/32 389/29/32
f 384/24/32 390/30/32 388/28/32
f 388/28/32 390/30/32 389/29/32
f 384/24/32 360/23/32 390/30/32
f 389/29/32 391/31/32 386/26/32
f 389/29/32 390/30/32 391/31/32
f 392/32/32 386/26/32 391/31/32
f 386/26/32 392/32/32 393/33/32
f 391/31/32 390/30/32 394/34/32
f 393/33/32 392/32/32 395/35/32
f 394/34/32 390/30/32 396/36/32
f 394/34/32 396/36/32 395/35/32
f 393/33/32 395/35/32 396/36/32
f 393/33/32 396/36/32 397/37/32
f 393/33/32 397/37/32 398/38/32
f 390/30/32 360/23/32 399/39/32
f 398/38/32 397/37/32 399/39/32
f 399/39/32 360/23/32 398/38/32
f 398/38/32 360/23/32 400/23/32
f 403/53/7 402/54/7 401/55/7
f 402/54/7 403/53/7 404/56/7
f 407/57/32 406/58/32 405/59/32
f 406/58/32 407/57/32 408/60/32
f 411/61/32 410/62/32 409/63/32
f 410/62/32 411/61/32 412/64/32
f 415/62/7 414/61/7 413/63/7
f 414/61/7 415/62/7 416/64/7
f 419/65/32 418/66/32 417/67/32
f 418/66/32 419/65/32 420/68/32
f 423/58/7 422/57/7 421/59/7
f 422/57/7 423/58/7 424/60/7
f 427/54/32 426/53/32 425/55/32
f 426/53/32 427/54/32 428/56/32
f 431/66/7 430/65/7 429/67/7
f 430/65/7 431/66/7 432/68/7
f 435/40/32 434/41/32 433/41/32
f 434/41/32 435/40/32 436/41/32
f 436/41/32 435/40/32 437/40/32
f 437/40/32 438/42/32 436/41/32
f 438/42/32 437/40/32 439/43/32
f 438/42/32 439/43/32 440/44/32
f 440/44/32 439/43/32 441/45/32
f 440/44/32 441/45/32 442/46/32
f 442/46/32 441/45/32 443/46/32
f 442/46/32 443/46/32 444/47/32
f 442/46/32 444/47/32 445/48/32
f 445/48/32 444/47/32 446/49/32
f 445/48/32 446/49/32 447/50/32
f 447/50/32 446/49/32 448/51/32
f 447/50/32 448/51/32 449/52/32
f 449/52/32 448/51/32 450/52/32
f 450/52/32 448/51/32 451/51/32
f 449/52/32 450/52/32 452/52/36
f 455/42/7 454/41/7 453/41/7
f 454/41/7 455/42/7 433/41/7
f 433/41/7 455/42/7 456/40/7
f 435/40/7 433/41/7 456/40/7
f 456/40/7 455/42/7 457/43/7
f 457/43/7 455/42/7 458/44/7
f 457/43/7 458/44/7 459/45/7
f 459/45/7 458/44/7 460/46/7
f 459/45/7 460/46/7 461/46/7
f 461/46/7 460/46/7 462/47/7
f 462/47/7 460/46/7 463/48/7
f 462/47/7 463/48/7 464/49/7
f 464/49/7 463/48/7 465/50/7
f 464/49/7 465/50/7 466/51/7
f 466/51/7 465/50/7 467/52/7
f 466/51/7 467/52/7 451/51/7
f 451/51/7 467/52/7 450/52/7
f 450/52/7 467/52/7 468/52/7
f 471/3/3 470/3/37 469/3/37
f 474/4/38 473/5/39 472/4/38
f 473/5/39 474/4/38 475/5/39
f 478/13/40 477/15/41 476/13/40
f 477/15/41 478/13/40 479/15/41
f 474/4/38 481/9/42 480/9/42
f 481/9/42 474/4/38 472/4/38
f 484/6/12 483/7/12 482/7/12
f 483/7/12 484/6/12 485/5/12
f 485/5/12 484/6/12 486/6/12
f 483/7/12 485/5/12 487/7/12
f 475/5/12 487/7/12 485/5/12
f 474/4/12 487/7/12 475/5/12
f 474/4/12 488/8/12 487/7/12
f 480/9/12 488/8/12 474/4/12
f 480/9/12 489/10/12 488/8/12
f 490/11/12 489/10/12 480/9/12
f 490/11/12 491/11/12 489/10/12
f 490/11/12 492/12/12 491/11/12
f 476/13/12 492/12/12 490/11/12
f 476/13/12 493/14/12 492/12/12
f 477/15/12 493/14/12 476/13/12
f 477/15/12 494/16/12 493/14/12
f 470/3/12 494/16/12 477/15/12
f 470/3/12 495/16/12 494/16/12
f 494/16/12 495/16/12 496/16/12
f 495/16/12 470/3/12 471/3/12
f 469/3/37 477/15/41 479/15/41
f 477/15/41 469/3/37 470/3/37
f 480/9/42 497/11/43 490/11/43
f 497/11/43 480/9/42 481/9/42
f 479/15/32 471/3/32 469/3/32
f 471/3/32 479/15/32 498/16/32
f 498/16/32 495/16/32 471/3/32
f 495/16/32 498/16/32 499/16/32
f 498/16/32 479/15/32 500/14/32
f 500/14/32 479/15/32 478/13/32
f 500/14/32 478/13/32 501/12/32
f 501/12/32 478/13/32 497/11/32
f 501/12/32 497/11/32 502/11/32
f 502/11/32 497/11/32 503/10/32
f 503/10/32 497/11/32 481/9/32
f 503/10/32 481/9/32 504/8/32
f 504/8/32 481/9/32 472/4/32
f 504/8/32 472/4/32 505/7/32
f 505/7/32 472/4/32 473/5/32
f 505/7/32 473/5/32 506/7/32
f 506/7/32 473/5/32 482/7/32
f 482/7/32 473/5/32 507/5/32
f 482/7/32 507/5/32 484/6/32
f 484/6/32 507/5/32 508/6/32
f 497/11/43 476/13/40 490/11/43
f 476/13/40 497/11/43 478/13/40
f 511/17/32 510/18/32 509/18/32
f 510/18/32 511/17/32 512/19/32
f 513/20/32 512/19/32 511/17/32
f 510/18/32 512/19/32 514/21/32
f 512/19/32 513/20/32 515/22/32
f 510/18/32 514/21/32 516/23/32
f 515/22/32 513/20/32 517/24/32
f 516/23/32 514/21/32 517/24/32
f 517/24/32 513/20/32 518/25/32
f 518/25/32 513/20/32 519/26/32
f 518/25/32 519/26/32 520/27/32
f 521/28/32 517/24/32 518/25/32
f 520/27/32 519/26/32 522/29/32
f 523/30/32 517/24/32 521/28/32
f 523/30/32 521/28/32 522/29/32
f 516/23/32 517/24/32 523/30/32
f 524/31/32 522/29/32 519/26/32
f 523/30/32 522/29/32 524/31/32
f 519/26/32 525/32/32 524/31/32
f 525/32/32 519/26/32 526/33/32
f 523/30/32 524/31/32 527/34/32
f 525/32/32 526/33/32 528/35/32
f 523/30/32 527/34/32 529/36/32
f 529/36/32 527/34/32 528/35/32
f 528/35/32 526/33/32 529/36/32
f 529/36/32 526/33/32 530/37/32
f 530/37/32 526/33/32 531/38/32
f 516/23/32 523/30/32 532/39/32
f 530/37/32 531/38/32 532/39/32
f 516/23/32 532/39/32 531/38/32
f 516/23/32 531/38/32 533/23/32
f 510/18/12 535/17/12 534/18/12
f 535/17/12 510/18/12 536/19/12
f 536/19/12 537/20/12 535/17/12
f 536/19/12 510/18/12 538/21/12
f 537/20/12 536/19/12 539/22/12
f 538/21/12 510/18/12 516/23/12
f 537/20/12 539/22/12 540/24/12
f 538/21/12 516/23/12 540/24/12
f 537/20/12 540/24/12 541/25/12
f 537/20/12 541/25/12 542/26/12
f 542/26/12 541/25/12 543/27/12
f 540/24/12 544/28/12 541/25/12
f 542/26/12 543/27/12 545/29/12
f 540/24/12 546/30/12 544/28/12
f 544/28/12 546/30/12 545/29/12
f 540/24/12 516/23/12 546/30/12
f 545/29/12 547/31/12 542/26/12
f 545/29/12 546/30/12 547/31/12
f 548/32/12 542/26/12 547/31/12
f 542/26/12 548/32/12 549/33/12
f 547/31/12 546/30/12 550/34/12
f 549/33/12 548/32/12 551/35/12
f 550/34/12 546/30/12 552/36/12
f 550/34/12 552/36/12 551/35/12
f 549/33/12 551/35/12 552/36/12
f 549/33/12 552/36/12 553/37/12
f 549/33/12 553/37/12 554/38/12
f 546/30/12 516/23/12 555/39/12
f 554/38/12 553/37/12 555/39/12
f 555/39/12 516/23/12 554/38/12
f 554/38/12 516/23/12 556/23/12
f 484/1/1 508/1/1 486/1/1
f 508/1/43 485/2/43 486/1/43
f 485/2/43 508/1/43 507/2/43
f 475/2/1 507/2/1 473/2/1
f 507/2/1 475/2/1 485/2/1
f 559/40/12 558/41/12 557/41/12
f 558/41/12 559/40/12 560/41/12
f 560/41/12 559/40/12 561/40/12
f 561/40/12 562/42/12 560/41/12
f 562/42/12 561/40/12 563/43/12
f 562/42/12 563/43/12 564/44/12
f 564/44/12 563/43/12 565/45/12
f 564/44/12 565/45/12 566/46/12
f 566/46/12 565/45/12 567/46/12
f 566/46/12 567/46/12 568/47/12
f 566/46/12 568/47/12 569/48/12
f 569/48/12 568/47/12 570/49/12
f 569/48/12 570/49/12 571/50/12
f 571/50/12 570/49/12 572/51/12
f 571/50/12 572/51/12 573/52/12
f 573/52/12 572/51/12 574/52/12
f 574/52/12 572/51/12 575/51/12
f 573/52/12 574/52/12 576/52/12
f 579/42/32 578/41/32 577/41/32
f 578/41/32 579/42/32 557/41/32
f 557/41/32 579/42/32 580/40/32
f 559/40/32 557/41/32 580/40/32
f 580/40/32 579/42/32 581/43/32
f 581/43/32 579/42/32 582/44/32
f 581/43/32 582/44/32 583/45/32
f 583/45/32 582/44/32 584/46/32
f 583/45/32 584/46/32 585/46/32
f 585/46/32 584/46/32 586/47/32
f 586/47/32 584/46/32 587/48/32
f 586/47/32 587/48/32 588/49/32
f 588/49/32 587/48/32 589/50/32
f 588/49/32 589/50/32 590/51/32
f 590/51/32 589/50/32 591/52/32
f 590/51/32 591/52/32 575/51/32
f 575/51/32 591/52/32 574/52/32
f 574/52/34 591/52/32 592/52/36
f 595/53/32 594/54/32 593/55/32
f 594/54/32 595/53/32 596/56/32
f 599/57/12 598/58/12 597/59/12
f 598/58/12 599/57/12 600/60/12
f 603/61/12 602/62/12 601/63/12
f 602/62/12 603/61/12 604/64/12
f 607/62/32 606/61/32 605/63/32
f 606/61/32 607/62/32 608/64/32
f 611/65/12 610/66/12 609/67/12
f 610/66/12 611/65/12 612/68/12
f 615/58/32 614/57/32 613/59/32
f 614/57/32 615/58/32 616/60/32
f 619/54/12 618/53/12 617/55/12
f 618/53/12 619/54/12 620/56/12
f 623/66/32 622/65/32 621/67/32
f 622/65/32 623/66/32 624/68/32
f 315/69/3 626/69/44 625/69/44
f 629/71/45 628/73/46 627/73/46
f 628/73/46 629/71/45 17/71/45
f 628/73/46 630/74/47 627/73/46
f 630/74/47 628/73/46 22/74/47
f 625/69/44 632/75/48 631/75/48
f 632/75/48 625/69/44 626/69/44
f 22/74/47 632/75/48 630/74/47
f 632/75/48 22/74/47 631/75/48
f 633/70/49 17/71/45 629/71/45
f 17/71/45 633/70/49 634/70/49
f 633/70/49 635/72/50 634/70/49
f 635/72/50 633/70/49 636/72/50
f 330/1/1 638/1/1 637/1/1
f 636/2/1 639/2/1 635/2/1
f 639/2/1 636/2/1 640/2/1
f 638/1/46 640/2/46 637/1/46
f 640/2/46 638/1/46 639/2/46
f 330/6/51 641/7/51 333/7/51
f 641/7/51 330/6/51 640/5/51
f 640/5/51 330/6/51 637/6/51
f 641/7/51 640/5/51 642/7/51
f 636/5/51 642/7/51 640/5/51
f 633/4/51 642/7/51 636/5/51
f 633/4/51 643/8/51 642/7/51
f 629/9/51 643/8/51 633/4/51
f 629/9/51 644/10/51 643/8/51
f 627/11/51 644/10/51 629/9/51
f 627/11/51 645/11/51 644/10/51
f 627/11/51 646/12/51 645/11/51
f 630/13/51 646/12/51 627/11/51
f 630/13/51 647/14/51 646/12/51
f 632/15/51 647/14/51 630/13/51
f 632/15/51 648/16/51 647/14/51
f 626/3/51 648/16/51 632/15/51
f 626/3/51 342/16/51 648/16/51
f 648/16/51 342/16/51 649/16/52
f 342/16/51 626/3/51 315/3/51
f 631/15/53 315/3/53 625/3/53
f 315/3/53 631/15/53 650/16/53
f 650/16/53 342/16/53 315/3/53
f 342/16/53 650/16/53 651/16/53
f 650/16/53 631/15/53 652/14/53
f 652/14/53 631/15/53 22/13/53
f 652/14/53 22/13/53 653/12/53
f 653/12/53 22/13/53 628/11/53
f 653/12/53 628/11/53 20/11/53
f 20/11/53 628/11/53 654/10/53
f 654/10/53 628/11/53 17/9/53
f 654/10/53 17/9/53 655/8/53
f 655/8/53 17/9/53 634/4/53
f 655/8/53 634/4/53 656/7/53
f 656/7/53 634/4/53 635/5/53
f 656/7/53 635/5/53 657/7/53
f 657/7/53 635/5/53 333/7/53
f 333/7/53 635/5/53 639/5/53
f 333/7/53 639/5/53 330/6/53
f 330/6/53 639/5/53 638/6/53
f 659/17/53 354/18/53 658/18/53
f 354/18/53 659/17/53 660/19/53
f 661/20/53 660/19/53 659/17/53
f 354/18/53 660/19/53 662/21/53
f 660/19/53 661/20/53 663/22/53
f 354/18/53 662/21/53 360/23/53
f 663/22/53 661/20/53 664/24/53
f 360/23/53 662/21/53 664/24/53
f 664/24/53 661/20/53 665/25/53
f 665/25/53 661/20/53 666/26/53
f 665/25/53 666/26/53 667/27/53
f 668/28/53 664/24/53 665/25/53
f 667/27/53 666/26/53 669/29/53
f 670/30/53 664/24/53 668/28/53
f 670/30/53 668/28/53 669/29/53
f 360/23/53 664/24/53 670/30/53
f 671/31/53 669/29/53 666/26/53
f 670/30/53 669/29/53 671/31/53
f 666/26/53 672/32/53 671/31/53
f 672/32/53 666/26/53 673/33/53
f 670/30/53 671/31/53 674/34/53
f 672/32/53 673/33/53 675/35/53
f 670/30/53 674/34/53 676/36/53
f 676/36/53 674/34/53 675/35/53
f 675/35/53 673/33/53 676/36/53
f 676/36/53 673/33/53 677/37/53
f 677/37/53 673/33/53 678/38/53
f 360/23/53 670/30/53 679/39/53
f 677/37/53 678/38/53 679/39/53
f 360/23/53 679/39/53 678/38/53
f 360/23/53 678/38/53 680/23/53
f 354/18/51 682/17/51 681/18/51
f 682/17/51 354/18/51 683/19/51
f 683/19/51 684/20/51 682/17/51
f 683/19/51 354/18/51 685/21/51
f 684/20/51 683/19/51 686/22/51
f 685/21/51 354/18/51 360/23/51
f 684/20/51 686/22/51 687/24/51
f 685/21/51 360/23/51 687/24/51
f 684/20/51 687/24/51 688/25/51
f 684/20/51 688/25/51 689/26/51
f 689/26/51 688/25/51 690/27/51
f 687/24/51 691/28/51 688/25/51
f 689/26/51 690/27/51 692/29/51
f 687/24/51 693/30/51 691/28/51
f 691/28/51 693/30/51 692/29/51
f 687/24/51 360/23/51 693/30/51
f 692/29/51 694/31/51 689/26/51
f 692/29/51 693/30/51 694/31/51
f 695/32/51 689/26/51 694/31/51
f 689/26/51 695/32/51 696/33/51
f 694/31/51 693/30/51 697/34/51
f 696/33/51 695/32/51 698/35/51
f 697/34/51 693/30/51 699/36/51
f 697/34/51 699/36/51 698/35/51
f 696/33/51 698/35/51 699/36/51
f 696/33/51 699/36/51 700/37/51
f 696/33/51 700/37/51 701/38/51
f 693/30/51 360/23/51 702/39/51
f 701/38/51 700/37/51 702/39/51
f 702/39/51 360/23/51 701/38/51
f 701/38/51 360/23/51 703/23/51
f 706/40/51 705/41/51 704/41/51
f 705/41/51 706/40/51 707/41/51
f 707/41/51 706/40/51 708/40/51
f 708/40/51 709/42/51 707/41/51
f 709/42/51 708/40/51 710/43/51
f 709/42/51 710/43/51 711/44/51
f 711/44/51 710/43/51 712/45/51
f 711/44/51 712/45/51 713/46/51
f 713/46/51 712/45/51 714/46/51
f 713/46/51 714/46/51 715/47/51
f 713/46/51 715/47/51 716/48/51
f 716/48/51 715/47/51 717/49/51
f 716/48/51 717/49/51 718/50/51
f 718/50/51 717/49/51 719/51/51
f 718/50/51 719/51/51 720/52/51
f 720/52/51 719/51/51 721/52/51
f 721/52/51 719/51/51 722/51/51
f 720/52/51 721/52/51 723/52/51
f 725/42/53 90/41/53 724/41/53
f 90/41/53 725/42/53 704/41/53
f 704/41/53 725/42/53 726/40/53
f 706/40/53 704/41/53 726/40/53
f 726/40/53 725/42/53 727/43/53
f 727/43/53 725/42/53 728/44/53
f 727/43/53 728/44/53 97/45/53
f 97/45/53 728/44/53 729/46/53
f 97/45/53 729/46/53 730/46/53
f 730/46/53 729/46/53 100/47/53
f 100/47/53 729/46/53 731/48/53
f 100/47/53 731/48/53 732/49/53
f 732/49/53 731/48/53 733/50/53
f 732/49/53 733/50/53 734/51/53
f 734/51/53 733/50/53 735/52/53
f 734/51/53 735/52/53 722/51/53
f 722/51/53 735/52/53 721/52/53
f 721/52/53 735/52/53 108/52/53
f 738/53/53 737/54/53 736/55/53
f 737/54/53 738/53/53 739/56/53
f 742/57/51 741/58/51 740/59/51
f 741/58/51 742/57/51 743/60/51
f 746/61/51 745/62/51 744/63/51
f 745/62/51 746/61/51 747/64/51
f 750/62/53 749/61/53 748/63/53
f 749/61/53 750/62/53 751/64/53
f 754/65/51 753/66/51 752/67/51
f 753/66/51 754/65/51 755/68/51
f 672/58/53 756/57/53 671/59/53
f 756/57/53 672/58/53 757/60/53
f 760/54/51 759/53/51 758/55/51
f 759/53/51 760/54/51 761/56/51
f 764/66/53 763/65/53 762/67/53
f 763/65/53 764/66/53 765/68/53
f 768/3/3 767/3/54 766/3/54
f 771/4/55 770/5/56 769/4/55
f 770/5/56 771/4/55 772/5/56
f 775/9/57 774/11/58 773/11/58
f 774/11/58 775/9/57 776/9/57
f 771/4/55 776/9/57 775/9/57
f 776/9/57 771/4/55 769/4/55
f 779/6/53 778/7/53 777/7/53
f 778/7/53 779/6/53 780/5/53
f 780/5/53 779/6/53 781/6/53
f 778/7/53 780/5/53 782/7/53
f 772/5/53 782/7/53 780/5/53
f 771/4/53 782/7/53 772/5/53
f 771/4/53 783/8/53 782/7/53
f 775/9/53 783/8/53 771/4/53
f 775/9/53 784/10/53 783/8/53
f 773/11/53 784/10/53 775/9/53
f 773/11/53 785/11/53 784/10/53
f 773/11/53 786/12/53 785/11/53
f 787/13/53 786/12/53 773/11/53
f 787/13/53 788/14/53 786/12/53
f 789/15/53 788/14/53 787/13/53
f 789/15/53 790/16/53 788/14/53
f 767/3/53 790/16/53 789/15/53
f 767/3/53 791/16/53 790/16/53
f 790/16/53 791/16/53 792/16/53
f 791/16/53 767/3/53 768/3/53
f 793/13/59 789/15/60 787/13/59
f 789/15/60 793/13/59 794/15/60
f 794/15/13 768/3/13 766/3/13
f 768/3/13 794/15/13 795/16/13
f 795/16/13 791/16/13 768/3/13
f 791/16/15 795/16/13 796/16/15
f 795/16/13 794/15/13 797/14/13
f 797/14/13 794/15/13 793/13/13
f 797/14/13 793/13/13 798/12/13
f 798/12/13 793/13/13 774/11/13
f 798/12/13 774/11/13 799/11/13
f 799/11/13 774/11/13 800/10/13
f 800/10/13 774/11/13 776/9/13
f 800/10/13 776/9/13 801/8/13
f 801/8/13 776/9/13 769/4/13
f 801/8/13 769/4/13 802/7/13
f 802/7/13 769/4/13 770/5/13
f 802/7/13 770/5/13 803/7/13
f 803/7/13 770/5/13 777/7/13
f 777/7/13 770/5/13 804/5/13
f 777/7/13 804/5/13 779/6/13
f 779/6/13 804/5/13 805/6/13
f 766/3/54 789/15/60 794/15/60
f 789/15/60 766/3/54 767/3/54
f 774/11/58 787/13/59 773/11/58
f 787/13/59 774/11/58 793/13/59
f 808/17/13 807/18/13 806/18/13
f 807/18/13 808/17/13 809/19/13
f 810/20/13 809/19/13 808/17/13
f 807/18/13 809/19/13 811/21/13
f 809/19/13 810/20/13 812/22/13
f 807/18/13 811/21/13 813/23/13
f 812/22/13 810/20/13 814/24/13
f 813/23/13 811/21/13 814/24/13
f 814/24/13 810/20/13 815/25/13
f 815/25/13 810/20/13 816/26/13
f 815/25/13 816/26/13 817/27/13
f 818/28/13 814/24/13 815/25/13
f 817/27/13 816/26/13 819/29/13
f 820/30/13 814/24/13 818/28/13
f 820/30/13 818/28/13 819/29/13
f 813/23/13 814/24/13 820/30/13
f 821/31/13 819/29/13 816/26/13
f 820/30/13 819/29/13 821/31/13
f 816/26/13 822/32/13 821/31/13
f 822/32/13 816/26/13 823/33/13
f 820/30/13 821/31/13 824/34/13
f 822/32/13 823/33/13 825/35/13
f 820/30/13 824/34/13 826/36/13
f 826/36/13 824/34/13 825/35/13
f 825/35/13 823/33/13 826/36/13
f 826/36/13 823/33/13 827/37/13
f 827/37/13 823/33/13 828/38/13
f 813/23/13 820/30/13 829/39/13
f 827/37/13 828/38/13 829/39/13
f 813/23/13 829/39/13 828/38/13
f 813/23/13 828/38/13 830/23/13
f 807/18/53 832/17/53 831/18/53
f 832/17/53 807/18/53 833/19/53
f 833/19/53 834/20/53 832/17/53
f 833/19/53 807/18/53 835/21/53
f 834/20/53 833/19/53 836/22/53
f 835/21/53 807/18/53 813/23/53
f 834/20/53 836/22/53 837/24/53
f 835/21/53 813/23/53 837/24/53
f 834/20/53 837/24/53 838/25/53
f 834/20/53 838/25/53 839/26/53
f 839/26/53 838/25/53 840/27/53
f 837/24/53 841/28/53 838/25/53
f 839/26/53 840/27/53 842/29/53
f 837/24/53 843/30/53 841/28/53
f 841/28/53 843/30/53 842/29/53
f 837/24/53 813/23/53 843/30/53
f 842/29/53 844/31/53 839/26/53
f 842/29/53 843/30/53 844/31/53
f 845/32/53 839/26/53 844/31/53
f 839/26/53 845/32/53 846/33/53
f 844/31/53 843/30/53 847/34/53
f 846/33/53 845/32/53 848/35/53
f 847/34/53 843/30/53 849/36/53
f 847/34/53 849/36/53 848/35/53
f 846/33/53 848/35/53 849/36/53
f 846/33/53 849/36/53 850/37/53
f 846/33/53 850/37/53 851/38/53
f 843/30/53 813/23/53 852/39/53
f 851/38/53 850/37/53 852/39/53
f 852/39/53 813/23/53 851/38/53
f 851/38/53 813/23/53 853/23/53
f 779/1/1 805/1/1 781/1/1
f 805/1/58 780/2/58 781/1/58
f 780/2/58 805/1/58 804/2/58
f 772/2/1 804/2/1 770/2/1
f 804/2/1 772/2/1 780/2/1
f 856/53/13 855/54/13 854/55/13
f 855/54/13 856/53/13 857/56/13
f 860/57/53 859/58/53 858/59/53
f 859/58/53 860/57/53 861/60/53
f 864/61/53 863/62/53 862/63/53
f 863/62/53 864/61/53 865/64/53
f 868/62/13 867/61/13 866/63/13
f 867/61/13 868/62/13 869/64/13
f 872/65/53 871/66/53 870/67/53
f 871/66/53 872/65/53 873/68/53
f 876/58/13 875/57/13 874/59/13
f 875/57/13 876/58/13 877/60/13
f 880/54/53 879/53/53 878/55/53
f 879/53/53 880/54/53 881/56/53
f 884/66/13 883/65/13 882/67/13
f 883/65/13 884/66/13 885/68/13
f 888/40/53 887/41/53 886/41/53
f 887/41/53 888/40/53 889/41/53
f 889/41/53 888/40/53 890/40/53
f 890/40/53 891/42/53 889/41/53
f 891/42/53 890/40/53 892/43/53
f 891/42/53 892/43/53 893/44/53
f 893/44/53 892/43/53 894/45/53
f 893/44/53 894/45/53 895/46/53
f 895/46/53 894/45/53 896/46/53
f 895/46/53 896/46/53 897/47/53
f 895/46/53 897/47/53 898/48/53
f 898/48/53 897/47/53 899/49/53
f 898/48/53 899/49/53 900/50/53
f 900/50/53 899/49/53 901/51/53
f 900/50/53 901/51/53 902/52/53
f 902/52/53 901/51/53 903/52/53
f 903/52/53 901/51/53 904/51/53
f 902/52/53 903/52/53 905/52/53
f 908/42/13 907/41/13 906/41/13
f 907/41/13 908/42/13 886/41/13
f 886/41/13 908/42/13 909/40/13
f 888/40/13 886/41/13 909/40/13
f 909/40/13 908/42/13 910/43/13
f 910/43/13 908/42/13 911/44/13
f 910/43/13 911/44/13 912/45/13
f 912/45/13 911/44/13 913/46/13
f 912/45/13 913/46/13 914/46/13
f 914/46/13 913/46/13 915/47/13
f 915/47/13 913/46/13 916/48/13
f 915/47/13 916/48/13 917/49/13
f 917/49/13 916/48/13 918/50/13
f 917/49/13 918/50/13 919/51/13
f 919/51/13 918/50/13 920/52/13
f 919/51/13 920/52/13 904/51/13
f 904/51/13 920/52/13 903/52/13
f 903/52/13 920/52/13 921/52/13
f 924/69/3 923/69/61 922/69/61
f 490/73/62 793/74/63 925/73/62
f 793/74/63 490/73/62 926/74/63
f 776/71/64 490/73/62 925/73/62
f 490/73/62 776/71/64 927/71/64
f 922/69/61 929/75/65 928/75/65
f 929/75/65 922/69/61 923/69/61
f 926/74/63 929/75/65 793/74/63
f 929/75/65 926/74/63 928/75/65
f 930/70/66 927/71/64 776/71/64
f 927/71/64 930/70/66 931/70/66
f 930/70/66 932/72/67 931/70/66
f 932/72/67 930/70/66 933/72/68
f 936/6/11 935/7/11 934/7/11
f 935/7/11 936/6/11 937/5/69
f 937/5/69 936/6/11 938/6/11
f 935/7/11 937/5/69 939/7/11
f 933/5/11 939/7/11 937/5/69
f 930/4/11 939/7/11 933/5/11
f 930/4/11 940/8/11 939/7/11
f 776/9/11 940/8/11 930/4/11
f 776/9/11 941/10/11 940/8/11
f 925/11/11 941/10/11 776/9/11
f 925/11/11 942/11/11 941/10/11
f 925/11/11 943/12/11 942/11/11
f 793/13/11 943/12/11 925/11/11
f 793/13/11 944/14/11 943/12/11
f 929/15/11 944/14/11 793/13/11
f 929/15/11 945/16/11 944/14/11
f 923/3/11 945/16/11 929/15/11
f 923/3/11 946/16/11 945/16/11
s 0
f 945/16/11 946/16/70 947/16/11
s 1
f 946/16/11 923/3/11 924/3/11
f 928/15/71 924/3/71 922/3/71
f 924/3/71 928/15/71 948/16/71
f 948/16/71 946/16/71 924/3/71
s 0
f 946/16/71 948/16/71 949/16/71
s 1
f 948/16/71 928/15/71 950/14/71
f 950/14/71 928/15/71 926/13/71
f 950/14/71 926/13/71 951/12/71
f 951/12/71 926/13/71 490/11/71
f 951/12/71 490/11/71 952/11/71
f 952/11/71 490/11/71 953/10/71
f 953/10/71 490/11/71 927/9/71
f 953/10/71 927/9/71 954/8/71
f 954/8/71 927/9/71 931/4/71
f 954/8/71 931/4/71 955/7/71
f 955/7/71 931/4/71 932/5/71
f 955/7/71 932/5/71 956/7/71
f 956/7/71 932/5/71 934/7/71
f 934/7/71 932/5/71 957/5/71
f 934/7/71 957/5/71 936/6/71
f 936/6/71 957/5/71 958/6/71
f 936/1/1 958/1/1 938/1/1
f 958/1/62 937/2/62 938/1/62
f 937/2/62 958/1/62 957/2/62
f 933/2/1 957/2/1 932/2/1
f 957/2/1 933/2/1 937/2/1
f 961/18/11 960/17/11 959/18/11
f 960/17/11 961/18/11 962/19/11
f 962/19/11 963/20/11 960/17/11
f 962/19/11 961/18/11 964/21/11
f 963/20/11 962/19/11 965/22/11
f 964/21/11 961/18/11 966/23/11
f 963/20/11 965/22/11 967/24/11
f 964/21/11 966/23/11 967/24/11
f 963/20/11 967/24/11 968/25/11
f 963/20/11 968/25/11 969/26/11
f 969/26/11 968/25/11 970/27/11
f 967/24/11 971/28/11 968/25/11
f 969/26/11 970/27/11 972/29/11
f 967/24/11 973/30/11 971/28/11
f 971/28/11 973/30/11 972/29/11
f 967/24/11 966/23/11 973/30/11
f 972/29/11 974/31/11 969/26/11
f 972/29/11 973/30/11 974/31/11
f 975/32/11 969/26/11 974/31/11
f 969/26/11 975/32/11 976/33/11
f 974/31/11 973/30/11 977/34/11
f 976/33/11 975/32/11 978/35/11
f 977/34/11 973/30/11 979/36/11
f 977/34/11 979/36/11 978/35/11
f 976/33/11 978/35/11 979/36/11
f 976/33/11 979/36/11 980/37/11
f 976/33/11 980/37/11 981/38/11
f 973/30/11 966/23/11 982/39/11
f 981/38/11 980/37/11 982/39/11
f 982/39/11 966/23/11 981/38/11
f 981/38/11 966/23/11 983/23/11
f 985/17/71 961/18/71 984/18/71
f 961/18/71 985/17/71 986/19/71
f 987/20/71 986/19/71 985/17/71
f 961/18/71 986/19/71 988/21/71
f 986/19/71 987/20/71 989/22/71
f 961/18/71 988/21/71 966/23/71
f 989/22/71 987/20/71 990/24/71
f 966/23/71 988/21/71 990/24/71
f 990/24/71 987/20/71 991/25/71
f 991/25/71 987/20/71 992/26/71
f 991/25/71 992/26/71 993/27/71
f 994/28/71 990/24/71 991/25/71
f 993/27/71 992/26/71 995/29/71
f 996/30/71 990/24/71 994/28/71
f 996/30/71 994/28/71 995/29/71
f 966/23/71 990/24/71 996/30/71
f 997/31/71 995/29/71 992/26/71
f 996/30/71 995/29/71 997/31/71
f 992/26/71 998/32/71 997/31/71
f 998/32/71 992/26/71 999/33/71
f 996/30/71 997/31/71 1000/34/71
f 998/32/71 999/33/71 1001/35/71
f 996/30/71 1000/34/71 1002/36/71
f 1002/36/71 1000/34/71 1001/35/71
f 1001/35/71 999/33/71 1002/36/71
f 1002/36/71 999/33/71 1003/37/71
f 1003/37/71 999/33/71 1004/38/71
f 966/23/71 996/30/71 1005/39/71
f 1003/37/71 1004/38/71 1005/39/71
f 966/23/71 1005/39/71 1004/38/71
f 966/23/71 1004/38/71 1006/23/71
f 1009/53/71 1008/54/71 1007/55/71
f 1008/54/71 1009/53/71 1010/56/71
f 1013/57/11 1012/58/11 1011/59/11
f 1012/58/11 1013/57/11 1014/60/11
f 1017/61/11 1016/62/11 1015/63/11
f 1016/62/11 1017/61/11 1018/64/11
f 1021/62/71 1020/61/71 1019/63/71
f 1020/61/71 1021/62/71 1022/64/71
f 1025/65/11 1024/66/11 1023/67/11
f 1024/66/11 1025/65/11 1026/68/11
f 1029/58/71 1028/57/71 1027/59/71
f 1028/57/71 1029/58/71 1030/60/71
f 1033/54/11 1032/53/11 1031/55/11
f 1032/53/11 1033/54/11 1034/56/11
f 1037/66/71 1036/65/71 1035/67/71
f 1036/65/71 1037/66/71 1038/68/71
f 1041/40/11 1040/41/11 1039/41/11
f 1040/41/11 1041/40/11 1042/41/11
f 1042/41/11 1041/40/11 1043/40/11
f 1043/40/11 1044/42/11 1042/41/11
f 1044/42/11 1043/40/11 1045/43/11
f 1044/42/11 1045/43/11 1046/44/11
f 1046/44/11 1045/43/11 1047/45/11
f 1046/44/11 1047/45/11 1048/46/11
f 1048/46/11 1047/45/11 1049/46/11
f 1048/46/11 1049/46/11 1050/47/11
f 1048/46/11 1050/47/11 1051/48/11
f 1051/48/11 1050/47/11 1052/49/11
f 1051/48/11 1052/49/11 1053/50/11
f 1053/50/11 1052/49/11 1054/51/11
f 1053/50/11 1054/51/11 1055/52/72
f 1055/52/72 1054/51/11 1056/52/11
f 1056/52/11 1054/51/11 1057/51/11
f 1055/52/72 1056/52/11 1058/52/72
f 1061/42/71 1060/41/71 1059/41/71
f 1060/41/71 1061/42/71 1039/41/71
f 1039/41/71 1061/42/71 1062/40/71
f 1041/40/71 1039/41/71 1062/40/71
f 1062/40/71 1061/42/71 1063/43/71
f 1063/43/71 1061/42/71 1064/44/71
f 1063/43/71 1064/44/71 1065/45/71
f 1065/45/71 1064/44/71 1066/46/71
f 1065/45/71 1066/46/71 1067/46/71
f 1067/46/71 1066/46/71 1068/47/71
f 1068/47/71 1066/46/71 1069/48/71
f 1068/47/71 1069/48/71 1070/49/71
f 1070/49/71 1069/48/71 1071/50/71
f 1070/49/71 1071/50/71 1072/51/71
f 1072/51/71 1071/50/71 1073/52/71
f 1072/51/71 1073/52/71 1057/51/71
f 1057/51/71 1073/52/71 1056/52/71
s 0
f 1056/52/71 1073/52/71 1074/52/71
s 1
f 1077/18/71 1076/17/71 1075/18/71
f 1076/17/71 1077/18/71 1078/19/71
f 1078/19/71 1079/20/71 1076/17/71
f 1078/19/71 1077/18/71 1080/21/71
f 1079/20/71 1078/19/71 1081/22/71
f 1080/21/71 1077/18/71 1082/23/71
f 1079/20/71 1081/22/71 1083/24/71
f 1080/21/71 1082/23/71 1083/24/71
f 1079/20/71 1083/24/71 1084/25/71
f 1079/20/71 1084/25/71 1085/26/71
f 1085/26/71 1084/25/71 1086/27/71
f 1083/24/71 1087/28/71 1084/25/71
f 1085/26/71 1086/27/71 1088/29/71
f 1083/24/71 1089/30/71 1087/28/71
f 1087/28/71 1089/30/71 1088/29/71
f 1083/24/71 1082/23/71 1089/30/71
f 1088/29/71 1090/31/71 1085/26/71
f 1088/29/71 1089/30/71 1090/31/71
f 1091/32/71 1085/26/71 1090/31/71
f 1085/26/71 1091/32/71 1092/33/71
f 1090/31/71 1089/30/71 1093/34/71
f 1092/33/71 1091/32/71 1094/35/71
f 1093/34/71 1089/30/71 1095/36/71
f 1093/34/71 1095/36/71 1094/35/71
f 1092/33/71 1094/35/71 1095/36/71
f 1092/33/71 1095/36/71 1096/37/71
f 1092/33/71 1096/37/71 1097/38/71
f 1089/30/71 1082/23/71 1098/39/71
f 1097/38/71 1096/37/71 1098/39/71
f 1098/39/71 1082/23/71 1097/38/71
f 1097/38/71 1082/23/71 1099/23/71
f 1101/17/51 1077/18/51 1100/18/51
f 1077/18/51 1101/17/51 1102/19/51
f 1103/20/51 1102/19/51 1101/17/51
f 1077/18/51 1102/19/51 1104/21/51
f 1102/19/51 1103/20/51 1105/22/51
f 1077/18/51 1104/21/51 1082/23/51
f 1105/22/51 1103/20/51 1106/24/51
f 1082/23/51 1104/21/51 1106/24/51
f 1106/24/51 1103/20/51 1107/25/51
f 1107/25/51 1103/20/51 1108/26/51
f 1107/25/51 1108/26/51 387/27/51
f 1109/28/51 1106/24/51 1107/25/51
f 387/27/51 1108/26/51 1110/29/51
f 1111/30/51 1106/24/51 1109/28/51
f 1111/30/51 1109/28/51 1110/29/51
f 1082/23/51 1106/24/51 1111/30/51
f 1112/31/51 1110/29/51 1108/26/51
f 1111/30/51 1110/29/51 1112/31/51
f 1108/26/51 392/32/51 1112/31/51
f 392/32/51 1108/26/51 1113/33/51
f 1111/30/51 1112/31/51 1114/34/51
f 392/32/51 1113/33/51 1115/35/51
f 1111/30/51 1114/34/51 1116/36/51
f 1116/36/51 1114/34/51 1115/35/51
f 1115/35/51 1113/33/51 1116/36/51
f 1116/36/51 1113/33/51 1117/37/51
f 1117/37/51 1113/33/51 1118/38/51
f 1082/23/51 1111/30/51 1119/39/51
f 1117/37/51 1118/38/51 1119/39/51
f 1082/23/51 1119/39/51 1118/38/51
f 1082/23/51 1118/38/51 1120/23/51
f 1123/3/3 1122/3/73 1121/3/73
f 1125/13/74 159/15/75 1124/13/74
f 159/15/75 1125/13/74 1126/15/75
f 1121/3/73 159/15/75 1126/15/75
f 159/15/75 1121/3/73 1122/3/73
f 1126/15/51 1123/3/51 1121/3/51
f 1123/3/51 1126/15/51 1127/16/51
f 1127/16/51 1128/16/51 1123/3/51
f 1128/16/51 1127/16/51 1129/16/51
f 1127/16/51 1126/15/51 340/14/51
f 340/14/51 1126/15/51 1125/13/51
f 340/14/51 1125/13/51 339/12/51
f 339/12/51 1125/13/51 326/11/51
f 339/12/51 326/11/51 1130/11/51
f 1130/11/51 326/11/51 337/10/51
f 337/10/51 326/11/51 1131/9/51
f 337/10/51 1131/9/51 336/8/51
f 336/8/51 1131/9/51 1132/4/51
f 336/8/51 1132/4/51 1133/7/51
f 1133/7/51 1132/4/51 1134/5/51
f 1133/7/51 1134/5/51 1135/7/51
f 1135/7/51 1134/5/51 1136/7/51
f 1136/7/51 1134/5/51 1137/5/51
f 1136/7/51 1137/5/51 1138/6/51
f 1138/6/51 1137/5/51 1139/6/51
f 171/4/76 1131/9/77 1140/9/77
f 1131/9/77 171/4/76 1132/4/76
f 326/11/78 1124/13/74 1141/11/78
f 1124/13/74 326/11/78 1125/13/74
f 1138/6/71 1142/7/71 1136/7/71
f 1142/7/71 1138/6/71 1143/5/71
f 1143/5/71 1138/6/71 1144/6/71
f 1142/7/71 1143/5/71 1145/7/71
f 1146/5/71 1145/7/71 1143/5/71
f 171/4/71 1145/7/71 1146/5/71
f 171/4/71 1147/8/71 1145/7/71
f 1140/9/71 1147/8/71 171/4/71
f 1140/9/71 1148/10/71 1147/8/71
f 1141/11/71 1148/10/71 1140/9/71
f 1141/11/71 1149/11/71 1148/10/71
f 1141/11/71 1150/12/71 1149/11/71
f 1124/13/71 1150/12/71 1141/11/71
f 1124/13/71 1151/14/71 1150/12/71
f 159/15/71 1151/14/71 1124/13/71
f 159/15/71 1152/16/71 1151/14/71
f 1122/3/71 1152/16/71 159/15/71
f 1122/3/71 1128/16/71 1152/16/71
f 1152/16/71 1128/16/71 1153/16/71
f 1128/16/71 1122/3/71 1123/3/71
f 171/4/76 1134/5/79 1132/4/76
f 1134/5/79 171/4/76 1146/5/79
f 1140/9/77 326/11/78 1141/11/78
f 326/11/78 1140/9/77 1131/9/77
f 1138/1/1 1139/1/1 1144/1/1
f 1139/1/78 1143/2/78 1144/1/78
f 1143/2/78 1139/1/78 1137/2/78
f 1146/2/1 1137/2/1 1134/2/1
f 1137/2/1 1146/2/1 1143/2/1
f 1156/40/71 1155/41/71 1154/41/71
f 1155/41/71 1156/40/71 1157/41/71
f 1157/41/71 1156/40/71 1158/40/71
f 1158/40/71 1159/42/71 1157/41/71
f 1159/42/71 1158/40/71 1160/43/71
f 1159/42/71 1160/43/71 1161/44/71
f 1161/44/71 1160/43/71 1079/45/71
f 1161/44/71 1079/45/71 1162/46/71
f 1162/46/71 1079/45/71 1163/46/71
f 1162/46/71 1163/46/71 1092/47/71
f 1162/46/71 1092/47/71 1164/48/71
f 1164/48/71 1092/47/71 1165/49/71
f 1164/48/71 1165/49/71 1166/50/71
f 1166/50/71 1165/49/71 1167/51/71
f 1166/50/71 1167/51/71 1168/52/71
f 1168/52/71 1167/51/71 1169/52/71
f 1169/52/71 1167/51/71 1170/51/71
s 0
f 1168/52/71 1169/52/71 1171/52/71
s 1
f 1174/42/51 1173/41/51 1172/41/51
f 1173/41/51 1174/42/51 1154/41/51
f 1154/41/51 1174/42/51 1175/40/51
f 1156/40/51 1154/41/51 1175/40/51
f 1175/40/51 1174/42/51 1176/43/51
f 1176/43/51 1174/42/51 1177/44/51
f 1176/43/51 1177/44/51 1178/45/51
f 1178/45/51 1177/44/51 1130/46/51
f 1178/45/51 1130/46/51 386/46/51
f 386/46/51 1130/46/51 1179/47/51
f 1179/47/51 1130/46/51 1180/48/51
f 1179/47/51 1180/48/51 1181/49/51
f 1181/49/51 1180/48/51 1182/50/51
f 1181/49/51 1182/50/51 1183/51/51
f 1183/51/51 1182/50/51 1184/52/51
f 1183/51/51 1184/52/51 1170/51/51
f 1170/51/51 1184/52/51 1169/52/51
f 1169/52/51 1184/52/51 1185/52/51
f 1188/53/51 1187/54/51 1186/55/51
f 1187/54/51 1188/53/51 1189/56/51
f 1192/57/71 1191/58/71 1190/59/71
f 1191/58/71 1192/57/71 1193/60/71
f 1196/61/71 1195/62/71 1194/63/71
f 1195/62/71 1196/61/71 1197/64/71
f 1200/62/51 1199/61/51 1198/63/51
f 1199/61/51 1200/62/51 1201/64/51
f 1204/65/71 1203/66/71 1202/67/71
f 1203/66/71 1204/65/71 1205/68/71
f 1208/58/51 1207/57/51 1206/59/51
f 1207/57/51 1208/58/51 1209/60/51
f 1212/54/71 1211/53/71 1210/55/71
f 1211/53/71 1212/54/71 1213/56/71
f 1216/66/51 1215/65/51 1214/67/51
f 1215/65/51 1216/66/51 1217/68/51
