# Blender 4.3.2
# www.blender.org
mtllib wall.901.mtl
o wall.903
v 0.500000 0.300000 -0.000000
v 0.500000 0.300000 -0.150000
v 0.500000 -0.300000 0.000000
v 0.500000 0.250000 -0.200000
v 0.500000 0.250000 -0.600000
v 0.500000 0.250000 -1.000000
v 0.500000 -0.250000 -0.200000
v 0.500000 -0.300000 -0.150000
v 0.500000 -0.250000 -1.000000
v -0.500000 -0.250000 -1.000000
v -0.500000 0.250000 -1.000000
v -0.500000 -0.250000 -0.200000
v -0.500000 -0.300000 0.000000
v -0.500000 -0.300000 -0.150000
v -0.500000 0.250000 -0.600000
v -0.500000 0.250000 -0.200000
v -0.500000 0.300000 -0.000000
v -0.500000 0.300000 -0.150000
v 1.500000 0.300000 -0.000000
v 1.500000 0.300000 -0.150000
v 1.500000 -0.300000 0.000000
v 1.500000 0.250000 -0.200000
v 1.500000 0.250000 -0.600000
v 1.500000 0.250000 -1.000000
v 1.500000 -0.250000 -0.200000
v 1.500000 -0.300000 -0.150000
v 1.500000 -0.250000 -1.000000
v 0.500000 -0.250000 -1.000000
v 0.500000 0.250000 -1.000000
v 0.500000 -0.250000 -0.200000
v 0.500000 -0.300000 0.000000
v 0.500000 -0.300000 -0.150000
v 0.500000 0.250000 -0.600000
v 0.500000 0.250000 -0.200000
v 0.500000 0.300000 -0.000000
v 0.500000 0.300000 -0.150000
v 2.500000 0.300000 -0.000000
v 2.500000 0.300000 -0.150000
v 2.500000 -0.300000 0.000000
v 2.500000 0.250000 -0.200000
v 2.500000 0.250000 -0.600000
v 2.500000 0.250000 -1.000000
v 2.500000 -0.250000 -0.200000
v 2.500000 -0.300000 -0.150000
v 2.500000 -0.250000 -1.000000
v 1.500000 -0.250000 -1.000000
v 1.500000 0.250000 -1.000000
v 1.500000 -0.250000 -0.200000
v 1.500000 -0.300000 0.000000
v 1.500000 -0.300000 -0.150000
v 1.500000 0.250000 -0.600000
v 1.500000 0.250000 -0.200000
v 1.500000 0.300000 -0.000000
v 1.500000 0.300000 -0.150000
v 3.500000 0.300000 -0.000000
v 3.500000 0.300000 -0.150000
v 3.500000 -0.300000 0.000000
v 3.500000 0.250000 -0.200000
v 3.500000 0.250000 -0.600000
v 3.500000 0.250000 -1.000000
v 3.500000 -0.250000 -0.200000
v 3.500000 -0.300000 -0.150000
v 3.500000 -0.250000 -1.000000
v 2.500000 -0.250000 -1.000000
v 2.500000 0.250000 -1.000000
v 2.500000 -0.250000 -0.200000
v 2.500000 -0.300000 0.000000
v 2.500000 -0.300000 -0.150000
v 2.500000 0.250000 -0.600000
v 2.500000 0.250000 -0.200000
v 2.500000 0.300000 -0.000000
v 2.500000 0.300000 -0.150000
v 4.500000 0.300000 -0.000000
v 4.500000 0.300000 -0.150000
v 4.500000 -0.300000 0.000000
v 4.500000 0.250000 -0.200000
v 4.500000 0.250000 -0.600000
v 4.500000 0.250000 -1.000000
v 4.500000 -0.250000 -0.200000
v 4.500000 -0.300000 -0.150000
v 4.500000 -0.250000 -1.000000
v 3.500000 -0.250000 -1.000000
v 3.500000 0.250000 -1.000000
v 3.500000 -0.250000 -0.200000
v 3.500000 -0.300000 0.000000
v 3.500000 -0.300000 -0.150000
v 3.500000 0.250000 -0.600000
v 3.500000 0.250000 -0.200000
v 3.500000 0.300000 -0.000000
v 3.500000 0.300000 -0.150000
v 5.500000 0.300000 -0.000000
v 5.500000 0.300000 -0.150000
v 5.500000 -0.300000 0.000000
v 5.500000 0.250000 -0.200000
v 5.500000 0.250000 -0.600000
v 5.500000 0.250000 -1.000000
v 5.500000 -0.250000 -0.200000
v 5.500000 -0.300000 -0.150000
v 5.500000 -0.250000 -1.000000
v 4.500000 -0.250000 -1.000000
v 4.500000 0.250000 -1.000000
v 4.500000 -0.250000 -0.200000
v 4.500000 -0.300000 0.000000
v 4.500000 -0.300000 -0.150000
v 4.500000 0.250000 -0.600000
v 4.500000 0.250000 -0.200000
v 4.500000 0.300000 -0.000000
v 4.500000 0.300000 -0.150000
v 6.500000 0.300000 -0.000000
v 6.500000 0.300000 -0.150000
v 6.500000 -0.300000 0.000000
v 6.500000 0.250000 -0.200000
v 6.500000 0.250000 -0.600000
v 6.500000 0.250000 -1.000000
v 6.500000 -0.250000 -0.200000
v 6.500000 -0.300000 -0.150000
v 6.500000 -0.250000 -1.000000
v 5.500000 -0.250000 -1.000000
v 5.500000 0.250000 -1.000000
v 5.500000 -0.250000 -0.200000
v 5.500000 -0.300000 0.000000
v 5.500000 -0.300000 -0.150000
v 5.500000 0.250000 -0.600000
v 5.500000 0.250000 -0.200000
v 5.500000 0.300000 -0.000000
v 5.500000 0.300000 -0.150000
v 7.500000 0.300000 -0.000000
v 7.500000 0.300000 -0.150000
v 7.500000 -0.300000 0.000000
v 7.500000 0.250000 -0.200000
v 7.500000 0.250000 -0.600000
v 7.500000 0.250000 -1.000000
v 7.500000 -0.250000 -0.200000
v 7.500000 -0.300000 -0.150000
v 7.500000 -0.250000 -1.000000
v 6.500000 -0.250000 -1.000000
v 6.500000 0.250000 -1.000000
v 6.500000 -0.250000 -0.200000
v 6.500000 -0.300000 0.000000
v 6.500000 -0.300000 -0.150000
v 6.500000 0.250000 -0.600000
v 6.500000 0.250000 -0.200000
v 6.500000 0.300000 -0.000000
v 6.500000 0.300000 -0.150000
v 8.500000 0.300000 -0.000000
v 8.500000 0.300000 -0.150000
v 8.500000 -0.300000 0.000000
v 8.500000 0.250000 -0.200000
v 8.500000 0.250000 -0.600000
v 8.500000 0.250000 -1.000000
v 8.500000 -0.250000 -0.200000
v 8.500000 -0.300000 -0.150000
v 8.500000 -0.250000 -1.000000
v 7.500000 -0.250000 -1.000000
v 7.500000 0.250000 -1.000000
v 7.500000 -0.250000 -0.200000
v 7.500000 -0.300000 0.000000
v 7.500000 -0.300000 -0.150000
v 7.500000 0.250000 -0.600000
v 7.500000 0.250000 -0.200000
v 7.500000 0.300000 -0.000000
v 7.500000 0.300000 -0.150000
v 0.500000 0.300000 -1.000000
v 0.500000 0.300000 -1.150000
v 0.500000 -0.300000 -1.000000
v 0.500000 0.250000 -1.200000
v 0.500000 0.250000 -1.600000
v 0.500000 0.250000 -2.000000
v 0.500000 -0.250000 -1.200000
v 0.500000 -0.300000 -1.150000
v 0.500000 -0.250000 -2.000000
v -0.500000 -0.250000 -2.000000
v -0.500000 0.250000 -2.000000
v -0.500000 -0.250000 -1.200000
v -0.500000 -0.300000 -1.000000
v -0.500000 -0.300000 -1.150000
v -0.500000 0.250000 -1.600000
v -0.500000 0.250000 -1.200000
v -0.500000 0.300000 -1.000000
v -0.500000 0.300000 -1.150000
v 1.500000 0.300000 -1.000000
v 1.500000 0.300000 -1.150000
v 1.500000 -0.300000 -1.000000
v 1.500000 0.250000 -1.200000
v 1.500000 0.250000 -1.600000
v 1.500000 0.250000 -2.000000
v 1.500000 -0.250000 -1.200000
v 1.500000 -0.300000 -1.150000
v 1.500000 -0.250000 -2.000000
v 0.500000 -0.250000 -2.000000
v 0.500000 0.250000 -2.000000
v 0.500000 -0.250000 -1.200000
v 0.500000 -0.300000 -1.000000
v 0.500000 -0.300000 -1.150000
v 0.500000 0.250000 -1.600000
v 0.500000 0.250000 -1.200000
v 0.500000 0.300000 -1.000000
v 0.500000 0.300000 -1.150000
v 2.500000 0.300000 -1.000000
v 2.500000 0.300000 -1.150000
v 2.500000 -0.300000 -1.000000
v 2.500000 0.250000 -1.200000
v 2.500000 0.250000 -1.600000
v 2.500000 0.250000 -2.000000
v 2.500000 -0.250000 -1.200000
v 2.500000 -0.300000 -1.150000
v 2.500000 -0.250000 -2.000000
v 1.500000 -0.250000 -2.000000
v 1.500000 0.250000 -2.000000
v 1.500000 -0.250000 -1.200000
v 1.500000 -0.300000 -1.000000
v 1.500000 -0.300000 -1.150000
v 1.500000 0.250000 -1.600000
v 1.500000 0.250000 -1.200000
v 1.500000 0.300000 -1.000000
v 1.500000 0.300000 -1.150000
v 3.500000 0.300000 -1.000000
v 3.500000 0.300000 -1.150000
v 3.500000 -0.300000 -1.000000
v 3.500000 0.250000 -1.200000
v 3.500000 0.250000 -1.600000
v 3.500000 0.250000 -2.000000
v 3.500000 -0.250000 -1.200000
v 3.500000 -0.300000 -1.150000
v 3.500000 -0.250000 -2.000000
v 2.500000 -0.250000 -2.000000
v 2.500000 0.250000 -2.000000
v 2.500000 -0.250000 -1.200000
v 2.500000 -0.300000 -1.000000
v 2.500000 -0.300000 -1.150000
v 2.500000 0.250000 -1.600000
v 2.500000 0.250000 -1.200000
v 2.500000 0.300000 -1.000000
v 2.500000 0.300000 -1.150000
v 4.500000 0.300000 -1.000000
v 4.500000 0.300000 -1.150000
v 4.500000 -0.300000 -1.000000
v 4.500000 0.250000 -1.200000
v 4.500000 0.250000 -1.600000
v 4.500000 0.250000 -2.000000
v 4.500000 -0.250000 -1.200000
v 4.500000 -0.300000 -1.150000
v 4.500000 -0.250000 -2.000000
v 3.500000 -0.250000 -2.000000
v 3.500000 0.250000 -2.000000
v 3.500000 -0.250000 -1.200000
v 3.500000 -0.300000 -1.000000
v 3.500000 -0.300000 -1.150000
v 3.500000 0.250000 -1.600000
v 3.500000 0.250000 -1.200000
v 3.500000 0.300000 -1.000000
v 3.500000 0.300000 -1.150000
v 5.500000 0.300000 -1.000000
v 5.500000 0.300000 -1.150000
v 5.500000 -0.300000 -1.000000
v 5.500000 0.250000 -1.200000
v 5.500000 0.250000 -1.600000
v 5.500000 0.250000 -2.000000
v 5.500000 -0.250000 -1.200000
v 5.500000 -0.300000 -1.150000
v 5.500000 -0.250000 -2.000000
v 4.500000 -0.250000 -2.000000
v 4.500000 0.250000 -2.000000
v 4.500000 -0.250000 -1.200000
v 4.500000 -0.300000 -1.000000
v 4.500000 -0.300000 -1.150000
v 4.500000 0.250000 -1.600000
v 4.500000 0.250000 -1.200000
v 4.500000 0.300000 -1.000000
v 4.500000 0.300000 -1.150000
v 6.500000 0.300000 -1.000000
v 6.500000 0.300000 -1.150000
v 6.500000 -0.300000 -1.000000
v 6.500000 0.250000 -1.200000
v 6.500000 0.250000 -1.600000
v 6.500000 0.250000 -2.000000
v 6.500000 -0.250000 -1.200000
v 6.500000 -0.300000 -1.150000
v 6.500000 -0.250000 -2.000000
v 5.500000 -0.250000 -2.000000
v 5.500000 0.250000 -2.000000
v 5.500000 -0.250000 -1.200000
v 5.500000 -0.300000 -1.000000
v 5.500000 -0.300000 -1.150000
v 5.500000 0.250000 -1.600000
v 5.500000 0.250000 -1.200000
v 5.500000 0.300000 -1.000000
v 5.500000 0.300000 -1.150000
v 7.500000 0.300000 -1.000000
v 7.500000 0.300000 -1.150000
v 7.500000 -0.300000 -1.000000
v 7.500000 0.250000 -1.200000
v 7.500000 0.250000 -1.600000
v 7.500000 0.250000 -2.000000
v 7.500000 -0.250000 -1.200000
v 7.500000 -0.300000 -1.150000
v 7.500000 -0.250000 -2.000000
v 6.500000 -0.250000 -2.000000
v 6.500000 0.250000 -2.000000
v 6.500000 -0.250000 -1.200000
v 6.500000 -0.300000 -1.000000
v 6.500000 -0.300000 -1.150000
v 6.500000 0.250000 -1.600000
v 6.500000 0.250000 -1.200000
v 6.500000 0.300000 -1.000000
v 6.500000 0.300000 -1.150000
v 8.500000 0.300000 -1.000000
v 8.500000 0.300000 -1.150000
v 8.500000 -0.300000 -1.000000
v 8.500000 0.250000 -1.200000
v 8.500000 0.250000 -1.600000
v 8.500000 0.250000 -2.000000
v 8.500000 -0.250000 -1.200000
v 8.500000 -0.300000 -1.150000
v 8.500000 -0.250000 -2.000000
v 7.500000 -0.250000 -2.000000
v 7.500000 0.250000 -2.000000
v 7.500000 -0.250000 -1.200000
v 7.500000 -0.300000 -1.000000
v 7.500000 -0.300000 -1.150000
v 7.500000 0.250000 -1.600000
v 7.500000 0.250000 -1.200000
v 7.500000 0.300000 -1.000000
v 7.500000 0.300000 -1.150000
v 0.500000 0.300000 -2.000000
v 0.500000 0.300000 -2.150000
v 0.500000 -0.300000 -2.000000
v 0.500000 0.250000 -2.200000
v 0.500000 0.250000 -2.600000
v 0.500000 0.250000 -3.000000
v 0.500000 -0.250000 -2.200000
v 0.500000 -0.300000 -2.150000
v 0.500000 -0.250000 -3.000000
v -0.500000 -0.250000 -3.000000
v -0.500000 0.250000 -3.000000
v -0.500000 -0.250000 -2.200000
v -0.500000 -0.300000 -2.000000
v -0.500000 -0.300000 -2.150000
v -0.500000 0.250000 -2.600000
v -0.500000 0.250000 -2.200000
v -0.500000 0.300000 -2.000000
v -0.500000 0.300000 -2.150000
v 1.500000 0.300000 -2.000000
v 1.500000 0.300000 -2.150000
v 1.500000 -0.300000 -2.000000
v 1.500000 0.250000 -2.200000
v 1.500000 0.250000 -2.600000
v 1.500000 0.250000 -3.000000
v 1.500000 -0.250000 -2.200000
v 1.500000 -0.300000 -2.150000
v 1.500000 -0.250000 -3.000000
v 0.500000 -0.250000 -3.000000
v 0.500000 0.250000 -3.000000
v 0.500000 -0.250000 -2.200000
v 0.500000 -0.300000 -2.000000
v 0.500000 -0.300000 -2.150000
v 0.500000 0.250000 -2.600000
v 0.500000 0.250000 -2.200000
v 0.500000 0.300000 -2.000000
v 0.500000 0.300000 -2.150000
v 2.500000 0.300000 -2.000000
v 2.500000 0.300000 -2.150000
v 2.500000 -0.300000 -2.000000
v 2.500000 0.250000 -2.200000
v 2.500000 0.250000 -2.600000
v 2.500000 0.250000 -3.000000
v 2.500000 -0.250000 -2.200000
v 2.500000 -0.300000 -2.150000
v 2.500000 -0.250000 -3.000000
v 1.500000 -0.250000 -3.000000
v 1.500000 0.250000 -3.000000
v 1.500000 -0.250000 -2.200000
v 1.500000 -0.300000 -2.000000
v 1.500000 -0.300000 -2.150000
v 1.500000 0.250000 -2.600000
v 1.500000 0.250000 -2.200000
v 1.500000 0.300000 -2.000000
v 1.500000 0.300000 -2.150000
v 3.500000 0.300000 -2.000000
v 3.500000 0.300000 -2.150000
v 3.500000 -0.300000 -2.000000
v 3.500000 0.250000 -2.200000
v 3.500000 0.250000 -2.600000
v 3.500000 0.250000 -3.000000
v 3.500000 -0.250000 -2.200000
v 3.500000 -0.300000 -2.150000
v 3.500000 -0.250000 -3.000000
v 2.500000 -0.250000 -3.000000
v 2.500000 0.250000 -3.000000
v 2.500000 -0.250000 -2.200000
v 2.500000 -0.300000 -2.000000
v 2.500000 -0.300000 -2.150000
v 2.500000 0.250000 -2.600000
v 2.500000 0.250000 -2.200000
v 2.500000 0.300000 -2.000000
v 2.500000 0.300000 -2.150000
v 4.500000 0.300000 -2.000000
v 4.500000 0.300000 -2.150000
v 4.500000 -0.300000 -2.000000
v 4.500000 0.250000 -2.200000
v 4.500000 0.250000 -2.600000
v 4.500000 0.250000 -3.000000
v 4.500000 -0.250000 -2.200000
v 4.500000 -0.300000 -2.150000
v 4.500000 -0.250000 -3.000000
v 3.500000 -0.250000 -3.000000
v 3.500000 0.250000 -3.000000
v 3.500000 -0.250000 -2.200000
v 3.500000 -0.300000 -2.000000
v 3.500000 -0.300000 -2.150000
v 3.500000 0.250000 -2.600000
v 3.500000 0.250000 -2.200000
v 3.500000 0.300000 -2.000000
v 3.500000 0.300000 -2.150000
v 5.500000 0.300000 -2.000000
v 5.500000 0.300000 -2.150000
v 5.500000 -0.300000 -2.000000
v 5.500000 0.250000 -2.200000
v 5.500000 0.250000 -2.600000
v 5.500000 0.250000 -3.000000
v 5.500000 -0.250000 -2.200000
v 5.500000 -0.300000 -2.150000
v 5.500000 -0.250000 -3.000000
v 4.500000 -0.250000 -3.000000
v 4.500000 0.250000 -3.000000
v 4.500000 -0.250000 -2.200000
v 4.500000 -0.300000 -2.000000
v 4.500000 -0.300000 -2.150000
v 4.500000 0.250000 -2.600000
v 4.500000 0.250000 -2.200000
v 4.500000 0.300000 -2.000000
v 4.500000 0.300000 -2.150000
v 6.500000 0.300000 -2.000000
v 6.500000 0.300000 -2.150000
v 6.500000 -0.300000 -2.000000
v 6.500000 0.250000 -2.200000
v 6.500000 0.250000 -2.600000
v 6.500000 0.250000 -3.000000
v 6.500000 -0.250000 -2.200000
v 6.500000 -0.300000 -2.150000
v 6.500000 -0.250000 -3.000000
v 5.500000 -0.250000 -3.000000
v 5.500000 0.250000 -3.000000
v 5.500000 -0.250000 -2.200000
v 5.500000 -0.300000 -2.000000
v 5.500000 -0.300000 -2.150000
v 5.500000 0.250000 -2.600000
v 5.500000 0.250000 -2.200000
v 5.500000 0.300000 -2.000000
v 5.500000 0.300000 -2.150000
v 7.500000 0.300000 -2.000000
v 7.500000 0.300000 -2.150000
v 7.500000 -0.300000 -2.000000
v 7.500000 0.250000 -2.200000
v 7.500000 0.250000 -2.600000
v 7.500000 0.250000 -3.000000
v 7.500000 -0.250000 -2.200000
v 7.500000 -0.300000 -2.150000
v 7.500000 -0.250000 -3.000000
v 6.500000 -0.250000 -3.000000
v 6.500000 0.250000 -3.000000
v 6.500000 -0.250000 -2.200000
v 6.500000 -0.300000 -2.000000
v 6.500000 -0.300000 -2.150000
v 6.500000 0.250000 -2.600000
v 6.500000 0.250000 -2.200000
v 6.500000 0.300000 -2.000000
v 6.500000 0.300000 -2.150000
v 8.500000 0.300000 -2.000000
v 8.500000 0.300000 -2.150000
v 8.500000 -0.300000 -2.000000
v 8.500000 0.250000 -2.200000
v 8.500000 0.250000 -2.600000
v 8.500000 0.250000 -3.000000
v 8.500000 -0.250000 -2.200000
v 8.500000 -0.300000 -2.150000
v 8.500000 -0.250000 -3.000000
v 7.500000 -0.250000 -3.000000
v 7.500000 0.250000 -3.000000
v 7.500000 -0.250000 -2.200000
v 7.500000 -0.300000 -2.000000
v 7.500000 -0.300000 -2.150000
v 7.500000 0.250000 -2.600000
v 7.500000 0.250000 -2.200000
v 7.500000 0.300000 -2.000000
v 7.500000 0.300000 -2.150000
v 0.500000 0.300000 -3.000000
v 0.500000 0.300000 -3.150000
v 0.500000 -0.300000 -3.000000
v 0.500000 0.250000 -3.200000
v 0.500000 0.250000 -3.600000
v 0.500000 0.250000 -4.000000
v 0.500000 -0.250000 -3.200000
v 0.500000 -0.300000 -3.150000
v 0.500000 -0.250000 -4.000000
v -0.500000 -0.250000 -4.000000
v -0.500000 0.250000 -4.000000
v -0.500000 -0.250000 -3.200000
v -0.500000 -0.300000 -3.000000
v -0.500000 -0.300000 -3.150000
v -0.500000 0.250000 -3.600000
v -0.500000 0.250000 -3.200000
v -0.500000 0.300000 -3.000000
v -0.500000 0.300000 -3.150000
v 1.500000 0.300000 -3.000000
v 1.500000 0.300000 -3.150000
v 1.500000 -0.300000 -3.000000
v 1.500000 0.250000 -3.200000
v 1.500000 0.250000 -3.600000
v 1.500000 0.250000 -4.000000
v 1.500000 -0.250000 -3.200000
v 1.500000 -0.300000 -3.150000
v 1.500000 -0.250000 -4.000000
v 0.500000 -0.250000 -4.000000
v 0.500000 0.250000 -4.000000
v 0.500000 -0.250000 -3.200000
v 0.500000 -0.300000 -3.000000
v 0.500000 -0.300000 -3.150000
v 0.500000 0.250000 -3.600000
v 0.500000 0.250000 -3.200000
v 0.500000 0.300000 -3.000000
v 0.500000 0.300000 -3.150000
v 2.500000 0.300000 -3.000000
v 2.500000 0.300000 -3.150000
v 2.500000 -0.300000 -3.000000
v 2.500000 0.250000 -3.200000
v 2.500000 0.250000 -3.600000
v 2.500000 0.250000 -4.000000
v 2.500000 -0.250000 -3.200000
v 2.500000 -0.300000 -3.150000
v 2.500000 -0.250000 -4.000000
v 1.500000 -0.250000 -4.000000
v 1.500000 0.250000 -4.000000
v 1.500000 -0.250000 -3.200000
v 1.500000 -0.300000 -3.000000
v 1.500000 -0.300000 -3.150000
v 1.500000 0.250000 -3.600000
v 1.500000 0.250000 -3.200000
v 1.500000 0.300000 -3.000000
v 1.500000 0.300000 -3.150000
v 3.500000 0.300000 -3.000000
v 3.500000 0.300000 -3.150000
v 3.500000 -0.300000 -3.000000
v 3.500000 0.250000 -3.200000
v 3.500000 0.250000 -3.600000
v 3.500000 0.250000 -4.000000
v 3.500000 -0.250000 -3.200000
v 3.500000 -0.300000 -3.150000
v 3.500000 -0.250000 -4.000000
v 2.500000 -0.250000 -4.000000
v 2.500000 0.250000 -4.000000
v 2.500000 -0.250000 -3.200000
v 2.500000 -0.300000 -3.000000
v 2.500000 -0.300000 -3.150000
v 2.500000 0.250000 -3.600000
v 2.500000 0.250000 -3.200000
v 2.500000 0.300000 -3.000000
v 2.500000 0.300000 -3.150000
v 4.500000 0.300000 -3.000000
v 4.500000 0.300000 -3.150000
v 4.500000 -0.300000 -3.000000
v 4.500000 0.250000 -3.200000
v 4.500000 0.250000 -3.600000
v 4.500000 0.250000 -4.000000
v 4.500000 -0.250000 -3.200000
v 4.500000 -0.300000 -3.150000
v 4.500000 -0.250000 -4.000000
v 3.500000 -0.250000 -4.000000
v 3.500000 0.250000 -4.000000
v 3.500000 -0.250000 -3.200000
v 3.500000 -0.300000 -3.000000
v 3.500000 -0.300000 -3.150000
v 3.500000 0.250000 -3.600000
v 3.500000 0.250000 -3.200000
v 3.500000 0.300000 -3.000000
v 3.500000 0.300000 -3.150000
v 5.500000 0.300000 -3.000000
v 5.500000 0.300000 -3.150000
v 5.500000 -0.300000 -3.000000
v 5.500000 0.250000 -3.200000
v 5.500000 0.250000 -3.600000
v 5.500000 0.250000 -4.000000
v 5.500000 -0.250000 -3.200000
v 5.500000 -0.300000 -3.150000
v 5.500000 -0.250000 -4.000000
v 4.500000 -0.250000 -4.000000
v 4.500000 0.250000 -4.000000
v 4.500000 -0.250000 -3.200000
v 4.500000 -0.300000 -3.000000
v 4.500000 -0.300000 -3.150000
v 4.500000 0.250000 -3.600000
v 4.500000 0.250000 -3.200000
v 4.500000 0.300000 -3.000000
v 4.500000 0.300000 -3.150000
v 6.500000 0.300000 -3.000000
v 6.500000 0.300000 -3.150000
v 6.500000 -0.300000 -3.000000
v 6.500000 0.250000 -3.200000
v 6.500000 0.250000 -3.600000
v 6.500000 0.250000 -4.000000
v 6.500000 -0.250000 -3.200000
v 6.500000 -0.300000 -3.150000
v 6.500000 -0.250000 -4.000000
v 5.500000 -0.250000 -4.000000
v 5.500000 0.250000 -4.000000
v 5.500000 -0.250000 -3.200000
v 5.500000 -0.300000 -3.000000
v 5.500000 -0.300000 -3.150000
v 5.500000 0.250000 -3.600000
v 5.500000 0.250000 -3.200000
v 5.500000 0.300000 -3.000000
v 5.500000 0.300000 -3.150000
v 7.500000 0.300000 -3.000000
v 7.500000 0.300000 -3.150000
v 7.500000 -0.300000 -3.000000
v 7.500000 0.250000 -3.200000
v 7.500000 0.250000 -3.600000
v 7.500000 0.250000 -4.000000
v 7.500000 -0.250000 -3.200000
v 7.500000 -0.300000 -3.150000
v 7.500000 -0.250000 -4.000000
v 6.500000 -0.250000 -4.000000
v 6.500000 0.250000 -4.000000
v 6.500000 -0.250000 -3.200000
v 6.500000 -0.300000 -3.000000
v 6.500000 -0.300000 -3.150000
v 6.500000 0.250000 -3.600000
v 6.500000 0.250000 -3.200000
v 6.500000 0.300000 -3.000000
v 6.500000 0.300000 -3.150000
v 8.500000 0.300000 -3.000000
v 8.500000 0.300000 -3.150000
v 8.500000 -0.300000 -3.000000
v 8.500000 0.250000 -3.200000
v 8.500000 0.250000 -3.600000
v 8.500000 0.250000 -4.000000
v 8.500000 -0.250000 -3.200000
v 8.500000 -0.300000 -3.150000
v 8.500000 -0.250000 -4.000000
v 7.500000 -0.250000 -4.000000
v 7.500000 0.250000 -4.000000
v 7.500000 -0.250000 -3.200000
v 7.500000 -0.300000 -3.000000
v 7.500000 -0.300000 -3.150000
v 7.500000 0.250000 -3.600000
v 7.500000 0.250000 -3.200000
v 7.500000 0.300000 -3.000000
v 7.500000 0.300000 -3.150000
v 0.500000 0.300000 -4.000000
v 0.500000 0.300000 -4.150000
v 0.500000 -0.300000 -4.000000
v 0.500000 0.250000 -4.200000
v 0.500000 0.250000 -4.600000
v 0.500000 0.250000 -5.000000
v 0.500000 -0.250000 -4.200000
v 0.500000 -0.300000 -4.150000
v 0.500000 -0.250000 -5.000000
v -0.500000 -0.250000 -5.000000
v -0.500000 0.250000 -5.000000
v -0.500000 -0.250000 -4.200000
v -0.500000 -0.300000 -4.000000
v -0.500000 -0.300000 -4.150000
v -0.500000 0.250000 -4.600000
v -0.500000 0.250000 -4.200000
v -0.500000 0.300000 -4.000000
v -0.500000 0.300000 -4.150000
v 1.500000 0.300000 -4.000000
v 1.500000 0.300000 -4.150000
v 1.500000 -0.300000 -4.000000
v 1.500000 0.250000 -4.200000
v 1.500000 0.250000 -4.600000
v 1.500000 0.250000 -5.000000
v 1.500000 -0.250000 -4.200000
v 1.500000 -0.300000 -4.150000
v 1.500000 -0.250000 -5.000000
v 0.500000 -0.250000 -5.000000
v 0.500000 0.250000 -5.000000
v 0.500000 -0.250000 -4.200000
v 0.500000 -0.300000 -4.000000
v 0.500000 -0.300000 -4.150000
v 0.500000 0.250000 -4.600000
v 0.500000 0.250000 -4.200000
v 0.500000 0.300000 -4.000000
v 0.500000 0.300000 -4.150000
v 2.500000 0.300000 -4.000000
v 2.500000 0.300000 -4.150000
v 2.500000 -0.300000 -4.000000
v 2.500000 0.250000 -4.200000
v 2.500000 0.250000 -4.600000
v 2.500000 0.250000 -5.000000
v 2.500000 -0.250000 -4.200000
v 2.500000 -0.300000 -4.150000
v 2.500000 -0.250000 -5.000000
v 1.500000 -0.250000 -5.000000
v 1.500000 0.250000 -5.000000
v 1.500000 -0.250000 -4.200000
v 1.500000 -0.300000 -4.000000
v 1.500000 -0.300000 -4.150000
v 1.500000 0.250000 -4.600000
v 1.500000 0.250000 -4.200000
v 1.500000 0.300000 -4.000000
v 1.500000 0.300000 -4.150000
v 3.500000 0.300000 -4.000000
v 3.500000 0.300000 -4.150000
v 3.500000 -0.300000 -4.000000
v 3.500000 0.250000 -4.200000
v 3.500000 0.250000 -4.600000
v 3.500000 0.250000 -5.000000
v 3.500000 -0.250000 -4.200000
v 3.500000 -0.300000 -4.150000
v 3.500000 -0.250000 -5.000000
v 2.500000 -0.250000 -5.000000
v 2.500000 0.250000 -5.000000
v 2.500000 -0.250000 -4.200000
v 2.500000 -0.300000 -4.000000
v 2.500000 -0.300000 -4.150000
v 2.500000 0.250000 -4.600000
v 2.500000 0.250000 -4.200000
v 2.500000 0.300000 -4.000000
v 2.500000 0.300000 -4.150000
v 4.500000 0.300000 -4.000000
v 4.500000 0.300000 -4.150000
v 4.500000 -0.300000 -4.000000
v 4.500000 0.250000 -4.200000
v 4.500000 0.250000 -4.600000
v 4.500000 0.250000 -5.000000
v 4.500000 -0.250000 -4.200000
v 4.500000 -0.300000 -4.150000
v 4.500000 -0.250000 -5.000000
v 3.500000 -0.250000 -5.000000
v 3.500000 0.250000 -5.000000
v 3.500000 -0.250000 -4.200000
v 3.500000 -0.300000 -4.000000
v 3.500000 -0.300000 -4.150000
v 3.500000 0.250000 -4.600000
v 3.500000 0.250000 -4.200000
v 3.500000 0.300000 -4.000000
v 3.500000 0.300000 -4.150000
v 5.500000 0.300000 -4.000000
v 5.500000 0.300000 -4.150000
v 5.500000 -0.300000 -4.000000
v 5.500000 0.250000 -4.200000
v 5.500000 0.250000 -4.600000
v 5.500000 0.250000 -5.000000
v 5.500000 -0.250000 -4.200000
v 5.500000 -0.300000 -4.150000
v 5.500000 -0.250000 -5.000000
v 4.500000 -0.250000 -5.000000
v 4.500000 0.250000 -5.000000
v 4.500000 -0.250000 -4.200000
v 4.500000 -0.300000 -4.000000
v 4.500000 -0.300000 -4.150000
v 4.500000 0.250000 -4.600000
v 4.500000 0.250000 -4.200000
v 4.500000 0.300000 -4.000000
v 4.500000 0.300000 -4.150000
v 6.500000 0.300000 -4.000000
v 6.500000 0.300000 -4.150000
v 6.500000 -0.300000 -4.000000
v 6.500000 0.250000 -4.200000
v 6.500000 0.250000 -4.600000
v 6.500000 0.250000 -5.000000
v 6.500000 -0.250000 -4.200000
v 6.500000 -0.300000 -4.150000
v 6.500000 -0.250000 -5.000000
v 5.500000 -0.250000 -5.000000
v 5.500000 0.250000 -5.000000
v 5.500000 -0.250000 -4.200000
v 5.500000 -0.300000 -4.000000
v 5.500000 -0.300000 -4.150000
v 5.500000 0.250000 -4.600000
v 5.500000 0.250000 -4.200000
v 5.500000 0.300000 -4.000000
v 5.500000 0.300000 -4.150000
v 7.500000 0.300000 -4.000000
v 7.500000 0.300000 -4.150000
v 7.500000 -0.300000 -4.000000
v 7.500000 0.250000 -4.200000
v 7.500000 0.250000 -4.600000
v 7.500000 0.250000 -5.000000
v 7.500000 -0.250000 -4.200000
v 7.500000 -0.300000 -4.150000
v 7.500000 -0.250000 -5.000000
v 6.500000 -0.250000 -5.000000
v 6.500000 0.250000 -5.000000
v 6.500000 -0.250000 -4.200000
v 6.500000 -0.300000 -4.000000
v 6.500000 -0.300000 -4.150000
v 6.500000 0.250000 -4.600000
v 6.500000 0.250000 -4.200000
v 6.500000 0.300000 -4.000000
v 6.500000 0.300000 -4.150000
v 8.500000 0.300000 -4.000000
v 8.500000 0.300000 -4.150000
v 8.500000 -0.300000 -4.000000
v 8.500000 0.250000 -4.200000
v 8.500000 0.250000 -4.600000
v 8.500000 0.250000 -5.000000
v 8.500000 -0.250000 -4.200000
v 8.500000 -0.300000 -4.150000
v 8.500000 -0.250000 -5.000000
v 7.500000 -0.250000 -5.000000
v 7.500000 0.250000 -5.000000
v 7.500000 -0.250000 -4.200000
v 7.500000 -0.300000 -4.000000
v 7.500000 -0.300000 -4.150000
v 7.500000 0.250000 -4.600000
v 7.500000 0.250000 -4.200000
v 7.500000 0.300000 -4.000000
v 7.500000 0.300000 -4.150000
v 0.500000 0.300000 -5.000000
v 0.500000 0.300000 -5.150000
v 0.500000 -0.300000 -5.000000
v 0.500000 0.250000 -5.200000
v 0.500000 0.250000 -5.600000
v 0.500000 0.250000 -6.000000
v 0.500000 -0.250000 -5.200000
v 0.500000 -0.300000 -5.150000
v 0.500000 -0.250000 -6.000000
v -0.500000 -0.250000 -6.000000
v -0.500000 0.250000 -6.000000
v -0.500000 -0.250000 -5.200000
v -0.500000 -0.300000 -5.000000
v -0.500000 -0.300000 -5.150000
v -0.500000 0.250000 -5.600000
v -0.500000 0.250000 -5.200000
v -0.500000 0.300000 -5.000000
v -0.500000 0.300000 -5.150000
v 1.500000 0.300000 -5.000000
v 1.500000 0.300000 -5.150000
v 1.500000 -0.300000 -5.000000
v 1.500000 0.250000 -5.200000
v 1.500000 0.250000 -5.600000
v 1.500000 0.250000 -6.000000
v 1.500000 -0.250000 -5.200000
v 1.500000 -0.300000 -5.150000
v 1.500000 -0.250000 -6.000000
v 0.500000 -0.250000 -6.000000
v 0.500000 0.250000 -6.000000
v 0.500000 -0.250000 -5.200000
v 0.500000 -0.300000 -5.000000
v 0.500000 -0.300000 -5.150000
v 0.500000 0.250000 -5.600000
v 0.500000 0.250000 -5.200000
v 0.500000 0.300000 -5.000000
v 0.500000 0.300000 -5.150000
v 2.500000 0.300000 -5.000000
v 2.500000 0.300000 -5.150000
v 2.500000 -0.300000 -5.000000
v 2.500000 0.250000 -5.200000
v 2.500000 0.250000 -5.600000
v 2.500000 0.250000 -6.000000
v 2.500000 -0.250000 -5.200000
v 2.500000 -0.300000 -5.150000
v 2.500000 -0.250000 -6.000000
v 1.500000 -0.250000 -6.000000
v 1.500000 0.250000 -6.000000
v 1.500000 -0.250000 -5.200000
v 1.500000 -0.300000 -5.000000
v 1.500000 -0.300000 -5.150000
v 1.500000 0.250000 -5.600000
v 1.500000 0.250000 -5.200000
v 1.500000 0.300000 -5.000000
v 1.500000 0.300000 -5.150000
v 3.500000 0.300000 -5.000000
v 3.500000 0.300000 -5.150000
v 3.500000 -0.300000 -5.000000
v 3.500000 0.250000 -5.200000
v 3.500000 0.250000 -5.600000
v 3.500000 0.250000 -6.000000
v 3.500000 -0.250000 -5.200000
v 3.500000 -0.300000 -5.150000
v 3.500000 -0.250000 -6.000000
v 2.500000 -0.250000 -6.000000
v 2.500000 0.250000 -6.000000
v 2.500000 -0.250000 -5.200000
v 2.500000 -0.300000 -5.000000
v 2.500000 -0.300000 -5.150000
v 2.500000 0.250000 -5.600000
v 2.500000 0.250000 -5.200000
v 2.500000 0.300000 -5.000000
v 2.500000 0.300000 -5.150000
v 4.500000 0.300000 -5.000000
v 4.500000 0.300000 -5.150000
v 4.500000 -0.300000 -5.000000
v 4.500000 0.250000 -5.200000
v 4.500000 0.250000 -5.600000
v 4.500000 0.250000 -6.000000
v 4.500000 -0.250000 -5.200000
v 4.500000 -0.300000 -5.150000
v 4.500000 -0.250000 -6.000000
v 3.500000 -0.250000 -6.000000
v 3.500000 0.250000 -6.000000
v 3.500000 -0.250000 -5.200000
v 3.500000 -0.300000 -5.000000
v 3.500000 -0.300000 -5.150000
v 3.500000 0.250000 -5.600000
v 3.500000 0.250000 -5.200000
v 3.500000 0.300000 -5.000000
v 3.500000 0.300000 -5.150000
v 5.500000 0.300000 -5.000000
v 5.500000 0.300000 -5.150000
v 5.500000 -0.300000 -5.000000
v 5.500000 0.250000 -5.200000
v 5.500000 0.250000 -5.600000
v 5.500000 0.250000 -6.000000
v 5.500000 -0.250000 -5.200000
v 5.500000 -0.300000 -5.150000
v 5.500000 -0.250000 -6.000000
v 4.500000 -0.250000 -6.000000
v 4.500000 0.250000 -6.000000
v 4.500000 -0.250000 -5.200000
v 4.500000 -0.300000 -5.000000
v 4.500000 -0.300000 -5.150000
v 4.500000 0.250000 -5.600000
v 4.500000 0.250000 -5.200000
v 4.500000 0.300000 -5.000000
v 4.500000 0.300000 -5.150000
v 6.500000 0.300000 -5.000000
v 6.500000 0.300000 -5.150000
v 6.500000 -0.300000 -5.000000
v 6.500000 0.250000 -5.200000
v 6.500000 0.250000 -5.600000
v 6.500000 0.250000 -6.000000
v 6.500000 -0.250000 -5.200000
v 6.500000 -0.300000 -5.150000
v 6.500000 -0.250000 -6.000000
v 5.500000 -0.250000 -6.000000
v 5.500000 0.250000 -6.000000
v 5.500000 -0.250000 -5.200000
v 5.500000 -0.300000 -5.000000
v 5.500000 -0.300000 -5.150000
v 5.500000 0.250000 -5.600000
v 5.500000 0.250000 -5.200000
v 5.500000 0.300000 -5.000000
v 5.500000 0.300000 -5.150000
v 7.500000 0.300000 -5.000000
v 7.500000 0.300000 -5.150000
v 7.500000 -0.300000 -5.000000
v 7.500000 0.250000 -5.200000
v 7.500000 0.250000 -5.600000
v 7.500000 0.250000 -6.000000
v 7.500000 -0.250000 -5.200000
v 7.500000 -0.300000 -5.150000
v 7.500000 -0.250000 -6.000000
v 6.500000 -0.250000 -6.000000
v 6.500000 0.250000 -6.000000
v 6.500000 -0.250000 -5.200000
v 6.500000 -0.300000 -5.000000
v 6.500000 -0.300000 -5.150000
v 6.500000 0.250000 -5.600000
v 6.500000 0.250000 -5.200000
v 6.500000 0.300000 -5.000000
v 6.500000 0.300000 -5.150000
v 8.500000 0.300000 -5.000000
v 8.500000 0.300000 -5.150000
v 8.500000 -0.300000 -5.000000
v 8.500000 0.250000 -5.200000
v 8.500000 0.250000 -5.600000
v 8.500000 0.250000 -6.000000
v 8.500000 -0.250000 -5.200000
v 8.500000 -0.300000 -5.150000
v 8.500000 -0.250000 -6.000000
v 7.500000 -0.250000 -6.000000
v 7.500000 0.250000 -6.000000
v 7.500000 -0.250000 -5.200000
v 7.500000 -0.300000 -5.000000
v 7.500000 -0.300000 -5.150000
v 7.500000 0.250000 -5.600000
v 7.500000 0.250000 -5.200000
v 7.500000 0.300000 -5.000000
v 7.500000 0.300000 -5.150000
v 0.500000 0.300000 -6.000000
v 0.500000 0.300000 -6.150000
v 0.500000 -0.300000 -6.000000
v 0.500000 0.250000 -6.200000
v 0.500000 0.250000 -6.600000
v 0.500000 0.250000 -7.000000
v 0.500000 -0.250000 -6.200000
v 0.500000 -0.300000 -6.150000
v 0.500000 -0.250000 -7.000000
v -0.500000 -0.250000 -7.000000
v -0.500000 0.250000 -7.000000
v -0.500000 -0.250000 -6.200000
v -0.500000 -0.300000 -6.000000
v -0.500000 -0.300000 -6.150000
v -0.500000 0.250000 -6.600000
v -0.500000 0.250000 -6.200000
v -0.500000 0.300000 -6.000000
v -0.500000 0.300000 -6.150000
v 1.500000 0.300000 -6.000000
v 1.500000 0.300000 -6.150000
v 1.500000 -0.300000 -6.000000
v 1.500000 0.250000 -6.200000
v 1.500000 0.250000 -6.600000
v 1.500000 0.250000 -7.000000
v 1.500000 -0.250000 -6.200000
v 1.500000 -0.300000 -6.150000
v 1.500000 -0.250000 -7.000000
v 0.500000 -0.250000 -7.000000
v 0.500000 0.250000 -7.000000
v 0.500000 -0.250000 -6.200000
v 0.500000 -0.300000 -6.000000
v 0.500000 -0.300000 -6.150000
v 0.500000 0.250000 -6.600000
v 0.500000 0.250000 -6.200000
v 0.500000 0.300000 -6.000000
v 0.500000 0.300000 -6.150000
v 2.500000 0.300000 -6.000000
v 2.500000 0.300000 -6.150000
v 2.500000 -0.300000 -6.000000
v 2.500000 0.250000 -6.200000
v 2.500000 0.250000 -6.600000
v 2.500000 0.250000 -7.000000
v 2.500000 -0.250000 -6.200000
v 2.500000 -0.300000 -6.150000
v 2.500000 -0.250000 -7.000000
v 1.500000 -0.250000 -7.000000
v 1.500000 0.250000 -7.000000
v 1.500000 -0.250000 -6.200000
v 1.500000 -0.300000 -6.000000
v 1.500000 -0.300000 -6.150000
v 1.500000 0.250000 -6.600000
v 1.500000 0.250000 -6.200000
v 1.500000 0.300000 -6.000000
v 1.500000 0.300000 -6.150000
v 3.500000 0.300000 -6.000000
v 3.500000 0.300000 -6.150000
v 3.500000 -0.300000 -6.000000
v 3.500000 0.250000 -6.200000
v 3.500000 0.250000 -6.600000
v 3.500000 0.250000 -7.000000
v 3.500000 -0.250000 -6.200000
v 3.500000 -0.300000 -6.150000
v 3.500000 -0.250000 -7.000000
v 2.500000 -0.250000 -7.000000
v 2.500000 0.250000 -7.000000
v 2.500000 -0.250000 -6.200000
v 2.500000 -0.300000 -6.000000
v 2.500000 -0.300000 -6.150000
v 2.500000 0.250000 -6.600000
v 2.500000 0.250000 -6.200000
v 2.500000 0.300000 -6.000000
v 2.500000 0.300000 -6.150000
v 4.500000 0.300000 -6.000000
v 4.500000 0.300000 -6.150000
v 4.500000 -0.300000 -6.000000
v 4.500000 0.250000 -6.200000
v 4.500000 0.250000 -6.600000
v 4.500000 0.250000 -7.000000
v 4.500000 -0.250000 -6.200000
v 4.500000 -0.300000 -6.150000
v 4.500000 -0.250000 -7.000000
v 3.500000 -0.250000 -7.000000
v 3.500000 0.250000 -7.000000
v 3.500000 -0.250000 -6.200000
v 3.500000 -0.300000 -6.000000
v 3.500000 -0.300000 -6.150000
v 3.500000 0.250000 -6.600000
v 3.500000 0.250000 -6.200000
v 3.500000 0.300000 -6.000000
v 3.500000 0.300000 -6.150000
v 5.500000 0.300000 -6.000000
v 5.500000 0.300000 -6.150000
v 5.500000 -0.300000 -6.000000
v 5.500000 0.250000 -6.200000
v 5.500000 0.250000 -6.600000
v 5.500000 0.250000 -7.000000
v 5.500000 -0.250000 -6.200000
v 5.500000 -0.300000 -6.150000
v 5.500000 -0.250000 -7.000000
v 4.500000 -0.250000 -7.000000
v 4.500000 0.250000 -7.000000
v 4.500000 -0.250000 -6.200000
v 4.500000 -0.300000 -6.000000
v 4.500000 -0.300000 -6.150000
v 4.500000 0.250000 -6.600000
v 4.500000 0.250000 -6.200000
v 4.500000 0.300000 -6.000000
v 4.500000 0.300000 -6.150000
v 6.500000 0.300000 -6.000000
v 6.500000 0.300000 -6.150000
v 6.500000 -0.300000 -6.000000
v 6.500000 0.250000 -6.200000
v 6.500000 0.250000 -6.600000
v 6.500000 0.250000 -7.000000
v 6.500000 -0.250000 -6.200000
v 6.500000 -0.300000 -6.150000
v 6.500000 -0.250000 -7.000000
v 5.500000 -0.250000 -7.000000
v 5.500000 0.250000 -7.000000
v 5.500000 -0.250000 -6.200000
v 5.500000 -0.300000 -6.000000
v 5.500000 -0.300000 -6.150000
v 5.500000 0.250000 -6.600000
v 5.500000 0.250000 -6.200000
v 5.500000 0.300000 -6.000000
v 5.500000 0.300000 -6.150000
v 7.500000 0.300000 -6.000000
v 7.500000 0.300000 -6.150000
v 7.500000 -0.300000 -6.000000
v 7.500000 0.250000 -6.200000
v 7.500000 0.250000 -6.600000
v 7.500000 0.250000 -7.000000
v 7.500000 -0.250000 -6.200000
v 7.500000 -0.300000 -6.150000
v 7.500000 -0.250000 -7.000000
v 6.500000 -0.250000 -7.000000
v 6.500000 0.250000 -7.000000
v 6.500000 -0.250000 -6.200000
v 6.500000 -0.300000 -6.000000
v 6.500000 -0.300000 -6.150000
v 6.500000 0.250000 -6.600000
v 6.500000 0.250000 -6.200000
v 6.500000 0.300000 -6.000000
v 6.500000 0.300000 -6.150000
v 8.500000 0.300000 -6.000000
v 8.500000 0.300000 -6.150000
v 8.500000 -0.300000 -6.000000
v 8.500000 0.250000 -6.200000
v 8.500000 0.250000 -6.600000
v 8.500000 0.250000 -7.000000
v 8.500000 -0.250000 -6.200000
v 8.500000 -0.300000 -6.150000
v 8.500000 -0.250000 -7.000000
v 7.500000 -0.250000 -7.000000
v 7.500000 0.250000 -7.000000
v 7.500000 -0.250000 -6.200000
v 7.500000 -0.300000 -6.000000
v 7.500000 -0.300000 -6.150000
v 7.500000 0.250000 -6.600000
v 7.500000 0.250000 -6.200000
v 7.500000 0.300000 -6.000000
v 7.500000 0.300000 -6.150000
vn 0.5773 -0.5774 0.5774
vn 0.6599 0.7511 0.0199
vn 0.5774 0.5773 0.5773
vn 0.8042 0.5491 -0.2275
vn 0.7071 0.7071 -0.0000
vn 0.5774 0.5773 -0.5774
vn 0.8042 -0.5491 -0.2275
vn 0.6597 -0.5087 -0.5532
vn -0.8042 0.5491 -0.2275
vn -0.5773 0.5774 0.5774
vn -0.6575 0.4675 -0.5908
vn -0.5773 -0.5774 -0.5773
vn -0.8042 -0.5491 -0.2275
vn 0.5774 -0.5774 -0.5773
vn -0.7071 0.7071 -0.0000
vn -0.5774 0.5774 -0.5773
vn -0.6552 -0.4417 -0.6129
vn -0.5773 -0.5774 0.5774
vn 0.8042 0.5491 -0.2274
vn -0.5773 0.5774 -0.5773
vt 0.093750 0.025000
vt 0.093750 0.055000
vt 0.093750 0.065000
vt 0.093750 0.145000
vt 0.093750 0.225000
vt 0.218750 0.225000
vt 0.218750 0.065000
vt 0.218750 0.145000
vt 0.218750 0.175000
vt 0.468750 0.225000
vt 0.468750 0.175000
vt 0.218750 0.475000
vt 0.218750 0.275000
vt 0.218750 0.025000
vt 0.468750 0.025000
s 1
usemtl colormap.026
f 3/1/1 2/2/2 1/1/3
f 2/2/2 3/1/1 4/3/4
f 4/3/4 3/1/1 5/4/5
f 5/4/5 3/1/1 6/5/6
f 6/5/6 3/1/1 7/3/7
f 7/3/7 3/1/1 8/2/8
f 16/3/9 17/1/10 18/2/11
f 10/6/12 7/7/7 12/7/13
f 7/7/7 10/6/12 9/6/14
f 15/8/15 6/6/6 11/6/16
f 2/9/2 16/6/9 18/9/11
f 7/10/7 14/11/17 12/10/13
f 5/12/5 16/13/9 4/13/4
f 9/5/14 6/5/6 7/3/7
f 11/5/16 9/5/14 10/5/12
f 9/5/14 11/5/16 6/5/6
f 10/5/12 12/3/13 11/5/16
f 13/1/18 11/5/16 12/3/13
f 13/1/18 12/3/13 14/2/17
f 13/1/18 15/4/15 11/5/16
f 13/1/18 16/3/9 15/4/15
f 17/1/10 16/3/9 13/1/18
f 13/14/18 1/14/3 17/14/10
f 1/14/3 13/14/18 3/14/1
f 6/6/6 15/8/15 5/8/5
f 1/14/3 18/9/11 17/14/10
f 18/9/11 1/14/3 2/9/2
f 16/6/9 2/9/2 4/6/4
f 14/11/17 3/15/1 13/15/18
f 3/15/1 14/11/17 8/11/8
f 14/11/17 7/10/7 8/11/8
f 16/13/9 5/12/5 15/12/15
f 21/1/1 20/2/2 19/1/3
f 20/2/2 21/1/1 22/3/4
f 22/3/4 21/1/1 23/4/5
f 23/4/5 21/1/1 24/5/6
f 24/5/6 21/1/1 25/3/7
f 25/3/7 21/1/1 26/2/8
f 34/3/9 35/1/10 36/2/11
f 28/6/12 25/7/7 30/7/13
f 25/7/7 28/6/12 27/6/14
f 33/8/15 24/6/6 29/6/16
f 20/9/2 34/6/9 36/9/11
f 25/10/7 32/11/17 30/10/13
f 23/12/5 34/13/9 22/13/4
f 27/5/14 24/5/6 25/3/7
f 29/5/16 27/5/14 28/5/12
f 27/5/14 29/5/16 24/5/6
f 28/5/12 30/3/13 29/5/16
f 31/1/18 29/5/16 30/3/13
f 31/1/18 30/3/13 32/2/17
f 31/1/18 33/4/15 29/5/16
f 31/1/18 34/3/9 33/4/15
f 35/1/10 34/3/9 31/1/18
f 31/14/18 19/14/3 35/14/10
f 19/14/3 31/14/18 21/14/1
f 24/6/6 33/8/15 23/8/5
f 19/14/3 36/9/11 35/14/10
f 36/9/11 19/14/3 20/9/2
f 34/6/9 20/9/2 22/6/4
f 32/11/17 21/15/1 31/15/18
f 21/15/1 32/11/17 26/11/8
f 32/11/17 25/10/7 26/11/8
f 34/13/9 23/12/5 33/12/15
f 39/1/1 38/2/2 37/1/3
f 38/2/2 39/1/1 40/3/4
f 40/3/4 39/1/1 41/4/5
f 41/4/5 39/1/1 42/5/6
f 42/5/6 39/1/1 43/3/7
f 43/3/7 39/1/1 44/2/8
f 52/3/9 53/1/10 54/2/11
f 46/6/12 43/7/7 48/7/13
f 43/7/7 46/6/12 45/6/14
f 51/8/15 42/6/6 47/6/16
f 38/9/2 52/6/9 54/9/11
f 43/10/7 50/11/17 48/10/13
f 41/12/5 52/13/9 40/13/4
f 45/5/14 42/5/6 43/3/7
f 47/5/16 45/5/14 46/5/12
f 45/5/14 47/5/16 42/5/6
f 46/5/12 48/3/13 47/5/16
f 49/1/18 47/5/16 48/3/13
f 49/1/18 48/3/13 50/2/17
f 49/1/18 51/4/15 47/5/16
f 49/1/18 52/3/9 51/4/15
f 53/1/10 52/3/9 49/1/18
f 49/14/18 37/14/3 53/14/10
f 37/14/3 49/14/18 39/14/1
f 42/6/6 51/8/15 41/8/5
f 37/14/3 54/9/11 53/14/10
f 54/9/11 37/14/3 38/9/2
f 52/6/9 38/9/2 40/6/4
f 50/11/17 39/15/1 49/15/18
f 39/15/1 50/11/17 44/11/8
f 50/11/17 43/10/7 44/11/8
f 52/13/9 41/12/5 51/12/15
f 57/1/1 56/2/2 55/1/3
f 56/2/2 57/1/1 58/3/4
f 58/3/4 57/1/1 59/4/5
f 59/4/5 57/1/1 60/5/6
f 60/5/6 57/1/1 61/3/7
f 61/3/7 57/1/1 62/2/8
f 70/3/9 71/1/10 72/2/11
f 64/6/12 61/7/7 66/7/13
f 61/7/7 64/6/12 63/6/14
f 69/8/15 60/6/6 65/6/16
f 56/9/2 70/6/9 72/9/11
f 61/10/7 68/11/17 66/10/13
f 59/12/5 70/13/9 58/13/4
f 63/5/14 60/5/6 61/3/7
f 65/5/16 63/5/14 64/5/12
f 63/5/14 65/5/16 60/5/6
f 64/5/12 66/3/13 65/5/16
f 67/1/18 65/5/16 66/3/13
f 67/1/18 66/3/13 68/2/17
f 67/1/18 69/4/15 65/5/16
f 67/1/18 70/3/9 69/4/15
f 71/1/10 70/3/9 67/1/18
f 67/14/18 55/14/3 71/14/10
f 55/14/3 67/14/18 57/14/1
f 60/6/6 69/8/15 59/8/5
f 55/14/3 72/9/11 71/14/10
f 72/9/11 55/14/3 56/9/2
f 70/6/9 56/9/2 58/6/4
f 68/11/17 57/15/1 67/15/18
f 57/15/1 68/11/17 62/11/8
f 68/11/17 61/10/7 62/11/8
f 70/13/9 59/12/5 69/12/15
f 75/1/1 74/2/2 73/1/3
f 74/2/2 75/1/1 76/3/4
f 76/3/4 75/1/1 77/4/5
f 77/4/5 75/1/1 78/5/6
f 78/5/6 75/1/1 79/3/7
f 79/3/7 75/1/1 80/2/8
f 88/3/9 89/1/10 90/2/11
f 82/6/12 79/7/7 84/7/13
f 79/7/7 82/6/12 81/6/14
f 87/8/15 78/6/6 83/6/16
f 74/9/2 88/6/9 90/9/11
f 79/10/7 86/11/17 84/10/13
f 77/12/5 88/13/9 76/13/4
f 81/5/14 78/5/6 79/3/7
f 83/5/16 81/5/14 82/5/12
f 81/5/14 83/5/16 78/5/6
f 82/5/12 84/3/13 83/5/16
f 85/1/18 83/5/16 84/3/13
f 85/1/18 84/3/13 86/2/17
f 85/1/18 87/4/15 83/5/16
f 85/1/18 88/3/9 87/4/15
f 89/1/10 88/3/9 85/1/18
f 85/14/18 73/14/3 89/14/10
f 73/14/3 85/14/18 75/14/1
f 78/6/6 87/8/15 77/8/5
f 73/14/3 90/9/11 89/14/10
f 90/9/11 73/14/3 74/9/2
f 88/6/9 74/9/2 76/6/4
f 86/11/17 75/15/1 85/15/18
f 75/15/1 86/11/17 80/11/8
f 86/11/17 79/10/7 80/11/8
f 88/13/9 77/12/5 87/12/15
f 93/1/1 92/2/2 91/1/3
f 92/2/2 93/1/1 94/3/4
f 94/3/4 93/1/1 95/4/5
f 95/4/5 93/1/1 96/5/6
f 96/5/6 93/1/1 97/3/7
f 97/3/7 93/1/1 98/2/8
f 106/3/9 107/1/10 108/2/11
f 100/6/12 97/7/7 102/7/13
f 97/7/7 100/6/12 99/6/14
f 105/8/15 96/6/6 101/6/16
f 92/9/2 106/6/9 108/9/11
f 97/10/7 104/11/17 102/10/13
f 95/12/5 106/13/9 94/13/4
f 99/5/14 96/5/6 97/3/7
f 101/5/16 99/5/14 100/5/12
f 99/5/14 101/5/16 96/5/6
f 100/5/12 102/3/13 101/5/16
f 103/1/18 101/5/16 102/3/13
f 103/1/18 102/3/13 104/2/17
f 103/1/18 105/4/15 101/5/16
f 103/1/18 106/3/9 105/4/15
f 107/1/10 106/3/9 103/1/18
f 103/14/18 91/14/3 107/14/10
f 91/14/3 103/14/18 93/14/1
f 96/6/6 105/8/15 95/8/5
f 91/14/3 108/9/11 107/14/10
f 108/9/11 91/14/3 92/9/2
f 106/6/9 92/9/2 94/6/4
f 104/11/17 93/15/1 103/15/18
f 93/15/1 104/11/17 98/11/8
f 104/11/17 97/10/7 98/11/8
f 106/13/9 95/12/5 105/12/15
f 111/1/1 110/2/2 109/1/3
f 110/2/2 111/1/1 112/3/4
f 112/3/4 111/1/1 113/4/5
f 113/4/5 111/1/1 114/5/6
f 114/5/6 111/1/1 115/3/7
f 115/3/7 111/1/1 116/2/8
f 124/3/9 125/1/10 126/2/11
f 118/6/12 115/7/7 120/7/13
f 115/7/7 118/6/12 117/6/14
f 123/8/15 114/6/6 119/6/16
f 110/9/2 124/6/9 126/9/11
f 115/10/7 122/11/17 120/10/13
f 113/12/5 124/13/9 112/13/4
f 117/5/14 114/5/6 115/3/7
f 119/5/16 117/5/14 118/5/12
f 117/5/14 119/5/16 114/5/6
f 118/5/12 120/3/13 119/5/16
f 121/1/18 119/5/16 120/3/13
f 121/1/18 120/3/13 122/2/17
f 121/1/18 123/4/15 119/5/16
f 121/1/18 124/3/9 123/4/15
f 125/1/10 124/3/9 121/1/18
f 121/14/18 109/14/3 125/14/10
f 109/14/3 121/14/18 111/14/1
f 114/6/6 123/8/15 113/8/5
f 109/14/3 126/9/11 125/14/10
f 126/9/11 109/14/3 110/9/2
f 124/6/9 110/9/2 112/6/4
f 122/11/17 111/15/1 121/15/18
f 111/15/1 122/11/17 116/11/8
f 122/11/17 115/10/7 116/11/8
f 124/13/9 113/12/5 123/12/15
f 129/1/1 128/2/2 127/1/3
f 128/2/2 129/1/1 130/3/4
f 130/3/4 129/1/1 131/4/5
f 131/4/5 129/1/1 132/5/6
f 132/5/6 129/1/1 133/3/7
f 133/3/7 129/1/1 134/2/8
f 142/3/9 143/1/10 144/2/11
f 136/6/12 133/7/7 138/7/13
f 133/7/7 136/6/12 135/6/14
f 141/8/15 132/6/6 137/6/16
f 128/9/2 142/6/9 144/9/11
f 133/10/7 140/11/17 138/10/13
f 131/12/5 142/13/9 130/13/4
f 135/5/14 132/5/6 133/3/7
f 137/5/16 135/5/14 136/5/12
f 135/5/14 137/5/16 132/5/6
f 136/5/12 138/3/13 137/5/16
f 139/1/18 137/5/16 138/3/13
f 139/1/18 138/3/13 140/2/17
f 139/1/18 141/4/15 137/5/16
f 139/1/18 142/3/9 141/4/15
f 143/1/10 142/3/9 139/1/18
f 139/14/18 127/14/3 143/14/10
f 127/14/3 139/14/18 129/14/1
f 132/6/6 141/8/15 131/8/5
f 127/14/3 144/9/11 143/14/10
f 144/9/11 127/14/3 128/9/2
f 142/6/9 128/9/2 130/6/4
f 140/11/17 129/15/1 139/15/18
f 129/15/1 140/11/17 134/11/8
f 140/11/17 133/10/7 134/11/8
f 142/13/9 131/12/5 141/12/15
f 147/1/1 146/2/2 145/1/3
f 146/2/2 147/1/1 148/3/4
f 148/3/4 147/1/1 149/4/5
f 149/4/5 147/1/1 150/5/6
f 150/5/6 147/1/1 151/3/7
f 151/3/7 147/1/1 152/2/8
f 160/3/9 161/1/10 162/2/11
f 154/6/12 151/7/7 156/7/13
f 151/7/7 154/6/12 153/6/14
f 159/8/15 150/6/6 155/6/16
f 146/9/2 160/6/9 162/9/11
f 151/10/7 158/11/17 156/10/13
f 149/12/5 160/13/9 148/13/4
f 153/5/14 150/5/6 151/3/7
f 155/5/16 153/5/14 154/5/12
f 153/5/14 155/5/16 150/5/6
f 154/5/12 156/3/13 155/5/16
f 157/1/18 155/5/16 156/3/13
f 157/1/18 156/3/13 158/2/17
f 157/1/18 159/4/15 155/5/16
f 157/1/18 160/3/9 159/4/15
f 161/1/10 160/3/9 157/1/18
f 157/14/18 145/14/3 161/14/10
f 145/14/3 157/14/18 147/14/1
f 150/6/6 159/8/15 149/8/5
f 145/14/3 162/9/11 161/14/10
f 162/9/11 145/14/3 146/9/2
f 160/6/9 146/9/2 148/6/4
f 158/11/17 147/15/1 157/15/18
f 147/15/1 158/11/17 152/11/8
f 158/11/17 151/10/7 152/11/8
f 160/13/9 149/12/5 159/12/15
f 165/1/1 164/2/2 163/1/3
f 164/2/2 165/1/1 166/3/4
f 166/3/4 165/1/1 167/4/5
f 167/4/5 165/1/1 168/5/6
f 168/5/6 165/1/1 169/3/7
f 169/3/7 165/1/1 170/2/8
f 178/3/9 179/1/10 180/2/11
f 172/6/12 169/7/7 174/7/13
f 169/7/7 172/6/12 171/6/14
f 177/8/15 168/6/6 173/6/16
f 164/9/2 178/6/9 180/9/11
f 169/10/7 176/11/17 174/10/13
f 167/12/5 178/13/9 166/13/4
f 171/5/14 168/5/6 169/3/7
f 173/5/16 171/5/14 172/5/12
f 171/5/14 173/5/16 168/5/6
f 172/5/12 174/3/13 173/5/16
f 175/1/18 173/5/16 174/3/13
f 175/1/18 174/3/13 176/2/17
f 175/1/18 177/4/15 173/5/16
f 175/1/18 178/3/9 177/4/15
f 179/1/10 178/3/9 175/1/18
f 175/14/18 163/14/3 179/14/10
f 163/14/3 175/14/18 165/14/1
f 168/6/6 177/8/15 167/8/5
f 163/14/3 180/9/11 179/14/10
f 180/9/11 163/14/3 164/9/2
f 178/6/9 164/9/2 166/6/4
f 176/11/17 165/15/1 175/15/18
f 165/15/1 176/11/17 170/11/8
f 176/11/17 169/10/7 170/11/8
f 178/13/9 167/12/5 177/12/15
f 183/1/1 182/2/2 181/1/3
f 182/2/2 183/1/1 184/3/4
f 184/3/4 183/1/1 185/4/5
f 185/4/5 183/1/1 186/5/6
f 186/5/6 183/1/1 187/3/7
f 187/3/7 183/1/1 188/2/8
f 196/3/9 197/1/10 198/2/11
f 190/6/12 187/7/7 192/7/13
f 187/7/7 190/6/12 189/6/14
f 195/8/15 186/6/6 191/6/16
f 182/9/2 196/6/9 198/9/11
f 187/10/7 194/11/17 192/10/13
f 185/12/5 196/13/9 184/13/4
f 189/5/14 186/5/6 187/3/7
f 191/5/16 189/5/14 190/5/12
f 189/5/14 191/5/16 186/5/6
f 190/5/12 192/3/13 191/5/16
f 193/1/18 191/5/16 192/3/13
f 193/1/18 192/3/13 194/2/17
f 193/1/18 195/4/15 191/5/16
f 193/1/18 196/3/9 195/4/15
f 197/1/10 196/3/9 193/1/18
f 193/14/18 181/14/3 197/14/10
f 181/14/3 193/14/18 183/14/1
f 186/6/6 195/8/15 185/8/5
f 181/14/3 198/9/11 197/14/10
f 198/9/11 181/14/3 182/9/2
f 196/6/9 182/9/2 184/6/4
f 194/11/17 183/15/1 193/15/18
f 183/15/1 194/11/17 188/11/8
f 194/11/17 187/10/7 188/11/8
f 196/13/9 185/12/5 195/12/15
f 201/1/1 200/2/2 199/1/3
f 200/2/2 201/1/1 202/3/4
f 202/3/4 201/1/1 203/4/5
f 203/4/5 201/1/1 204/5/6
f 204/5/6 201/1/1 205/3/7
f 205/3/7 201/1/1 206/2/8
f 214/3/9 215/1/10 216/2/11
f 208/6/12 205/7/7 210/7/13
f 205/7/7 208/6/12 207/6/14
f 213/8/15 204/6/6 209/6/16
f 200/9/2 214/6/9 216/9/11
f 205/10/7 212/11/17 210/10/13
f 203/12/5 214/13/9 202/13/4
f 207/5/14 204/5/6 205/3/7
f 209/5/16 207/5/14 208/5/12
f 207/5/14 209/5/16 204/5/6
f 208/5/12 210/3/13 209/5/16
f 211/1/18 209/5/16 210/3/13
f 211/1/18 210/3/13 212/2/17
f 211/1/18 213/4/15 209/5/16
f 211/1/18 214/3/9 213/4/15
f 215/1/10 214/3/9 211/1/18
f 211/14/18 199/14/3 215/14/10
f 199/14/3 211/14/18 201/14/1
f 204/6/6 213/8/15 203/8/5
f 199/14/3 216/9/11 215/14/10
f 216/9/11 199/14/3 200/9/2
f 214/6/9 200/9/2 202/6/4
f 212/11/17 201/15/1 211/15/18
f 201/15/1 212/11/17 206/11/8
f 212/11/17 205/10/7 206/11/8
f 214/13/9 203/12/5 213/12/15
f 219/1/1 218/2/2 217/1/3
f 218/2/2 219/1/1 220/3/4
f 220/3/4 219/1/1 221/4/5
f 221/4/5 219/1/1 222/5/6
f 222/5/6 219/1/1 223/3/7
f 223/3/7 219/1/1 224/2/8
f 232/3/9 233/1/10 234/2/11
f 226/6/12 223/7/7 228/7/13
f 223/7/7 226/6/12 225/6/14
f 231/8/15 222/6/6 227/6/16
f 218/9/2 232/6/9 234/9/11
f 223/10/7 230/11/17 228/10/13
f 221/12/5 232/13/9 220/13/4
f 225/5/14 222/5/6 223/3/7
f 227/5/16 225/5/14 226/5/12
f 225/5/14 227/5/16 222/5/6
f 226/5/12 228/3/13 227/5/16
f 229/1/18 227/5/16 228/3/13
f 229/1/18 228/3/13 230/2/17
f 229/1/18 231/4/15 227/5/16
f 229/1/18 232/3/9 231/4/15
f 233/1/10 232/3/9 229/1/18
f 229/14/18 217/14/3 233/14/10
f 217/14/3 229/14/18 219/14/1
f 222/6/6 231/8/15 221/8/5
f 217/14/3 234/9/11 233/14/10
f 234/9/11 217/14/3 218/9/2
f 232/6/9 218/9/2 220/6/4
f 230/11/17 219/15/1 229/15/18
f 219/15/1 230/11/17 224/11/8
f 230/11/17 223/10/7 224/11/8
f 232/13/9 221/12/5 231/12/15
f 237/1/1 236/2/2 235/1/3
f 236/2/2 237/1/1 238/3/19
f 238/3/19 237/1/1 239/4/5
f 239/4/5 237/1/1 240/5/6
f 240/5/6 237/1/1 241/3/7
f 241/3/7 237/1/1 242/2/8
f 250/3/9 251/1/10 252/2/11
f 244/6/12 241/7/7 246/7/13
f 241/7/7 244/6/12 243/6/14
f 249/8/15 240/6/6 245/6/16
f 236/9/2 250/6/9 252/9/11
f 241/10/7 248/11/17 246/10/13
f 239/12/5 250/13/9 238/13/19
f 243/5/14 240/5/6 241/3/7
f 245/5/16 243/5/14 244/5/12
f 243/5/14 245/5/16 240/5/6
f 244/5/12 246/3/13 245/5/16
f 247/1/18 245/5/16 246/3/13
f 247/1/18 246/3/13 248/2/17
f 247/1/18 249/4/15 245/5/16
f 247/1/18 250/3/9 249/4/15
f 251/1/10 250/3/9 247/1/18
f 247/14/18 235/14/3 251/14/10
f 235/14/3 247/14/18 237/14/1
f 240/6/6 249/8/15 239/8/5
f 235/14/3 252/9/11 251/14/10
f 252/9/11 235/14/3 236/9/2
f 250/6/9 236/9/2 238/6/19
f 248/11/17 237/15/1 247/15/18
f 237/15/1 248/11/17 242/11/8
f 248/11/17 241/10/7 242/11/8
f 250/13/9 239/12/5 249/12/15
f 255/1/1 254/2/2 253/1/3
f 254/2/2 255/1/1 256/3/4
f 256/3/4 255/1/1 257/4/5
f 257/4/5 255/1/1 258/5/6
f 258/5/6 255/1/1 259/3/7
f 259/3/7 255/1/1 260/2/8
f 268/3/9 269/1/10 270/2/11
f 262/6/12 259/7/7 264/7/13
f 259/7/7 262/6/12 261/6/14
f 267/8/15 258/6/6 263/6/16
f 254/9/2 268/6/9 270/9/11
f 259/10/7 266/11/17 264/10/13
f 257/12/5 268/13/9 256/13/4
f 261/5/14 258/5/6 259/3/7
f 263/5/16 261/5/14 262/5/12
f 261/5/14 263/5/16 258/5/6
f 262/5/12 264/3/13 263/5/16
f 265/1/18 263/5/16 264/3/13
f 265/1/18 264/3/13 266/2/17
f 265/1/18 267/4/15 263/5/16
f 265/1/18 268/3/9 267/4/15
f 269/1/10 268/3/9 265/1/18
f 265/14/18 253/14/3 269/14/10
f 253/14/3 265/14/18 255/14/1
f 258/6/6 267/8/15 257/8/5
f 253/14/3 270/9/11 269/14/10
f 270/9/11 253/14/3 254/9/2
f 268/6/9 254/9/2 256/6/4
f 266/11/17 255/15/1 265/15/18
f 255/15/1 266/11/17 260/11/8
f 266/11/17 259/10/7 260/11/8
f 268/13/9 257/12/5 267/12/15
f 273/1/1 272/2/2 271/1/3
f 272/2/2 273/1/1 274/3/4
f 274/3/4 273/1/1 275/4/5
f 275/4/5 273/1/1 276/5/6
f 276/5/6 273/1/1 277/3/7
f 277/3/7 273/1/1 278/2/8
f 286/3/9 287/1/10 288/2/11
f 280/6/12 277/7/7 282/7/13
f 277/7/7 280/6/12 279/6/14
f 285/8/15 276/6/6 281/6/16
f 272/9/2 286/6/9 288/9/11
f 277/10/7 284/11/17 282/10/13
f 275/12/5 286/13/9 274/13/4
f 279/5/14 276/5/6 277/3/7
f 281/5/16 279/5/14 280/5/12
f 279/5/14 281/5/16 276/5/6
f 280/5/12 282/3/13 281/5/16
f 283/1/18 281/5/16 282/3/13
f 283/1/18 282/3/13 284/2/17
f 283/1/18 285/4/15 281/5/16
f 283/1/18 286/3/9 285/4/15
f 287/1/10 286/3/9 283/1/18
f 283/14/18 271/14/3 287/14/10
f 271/14/3 283/14/18 273/14/1
f 276/6/6 285/8/15 275/8/5
f 271/14/3 288/9/11 287/14/10
f 288/9/11 271/14/3 272/9/2
f 286/6/9 272/9/2 274/6/4
f 284/11/17 273/15/1 283/15/18
f 273/15/1 284/11/17 278/11/8
f 284/11/17 277/10/7 278/11/8
f 286/13/9 275/12/5 285/12/15
f 291/1/1 290/2/2 289/1/3
f 290/2/2 291/1/1 292/3/4
f 292/3/4 291/1/1 293/4/5
f 293/4/5 291/1/1 294/5/6
f 294/5/6 291/1/1 295/3/7
f 295/3/7 291/1/1 296/2/8
f 304/3/9 305/1/10 306/2/11
f 298/6/12 295/7/7 300/7/13
f 295/7/7 298/6/12 297/6/14
f 303/8/15 294/6/6 299/6/16
f 290/9/2 304/6/9 306/9/11
f 295/10/7 302/11/17 300/10/13
f 293/12/5 304/13/9 292/13/4
f 297/5/14 294/5/6 295/3/7
f 299/5/16 297/5/14 298/5/12
f 297/5/14 299/5/16 294/5/6
f 298/5/12 300/3/13 299/5/16
f 301/1/18 299/5/16 300/3/13
f 301/1/18 300/3/13 302/2/17
f 301/1/18 303/4/15 299/5/16
f 301/1/18 304/3/9 303/4/15
f 305/1/10 304/3/9 301/1/18
f 301/14/18 289/14/3 305/14/10
f 289/14/3 301/14/18 291/14/1
f 294/6/6 303/8/15 293/8/5
f 289/14/3 306/9/11 305/14/10
f 306/9/11 289/14/3 290/9/2
f 304/6/9 290/9/2 292/6/4
f 302/11/17 291/15/1 301/15/18
f 291/15/1 302/11/17 296/11/8
f 302/11/17 295/10/7 296/11/8
f 304/13/9 293/12/5 303/12/15
f 309/1/1 308/2/2 307/1/3
f 308/2/2 309/1/1 310/3/4
f 310/3/4 309/1/1 311/4/5
f 311/4/5 309/1/1 312/5/6
f 312/5/6 309/1/1 313/3/7
f 313/3/7 309/1/1 314/2/8
f 322/3/9 323/1/10 324/2/11
f 316/6/12 313/7/7 318/7/13
f 313/7/7 316/6/12 315/6/14
f 321/8/15 312/6/6 317/6/16
f 308/9/2 322/6/9 324/9/11
f 313/10/7 320/11/17 318/10/13
f 311/12/5 322/13/9 310/13/4
f 315/5/14 312/5/6 313/3/7
f 317/5/16 315/5/14 316/5/12
f 315/5/14 317/5/16 312/5/6
f 316/5/12 318/3/13 317/5/16
f 319/1/18 317/5/16 318/3/13
f 319/1/18 318/3/13 320/2/17
f 319/1/18 321/4/15 317/5/16
f 319/1/18 322/3/9 321/4/15
f 323/1/10 322/3/9 319/1/18
f 319/14/18 307/14/3 323/14/10
f 307/14/3 319/14/18 309/14/1
f 312/6/6 321/8/15 311/8/5
f 307/14/3 324/9/11 323/14/10
f 324/9/11 307/14/3 308/9/2
f 322/6/9 308/9/2 310/6/4
f 320/11/17 309/15/1 319/15/18
f 309/15/1 320/11/17 314/11/8
f 320/11/17 313/10/7 314/11/8
f 322/13/9 311/12/5 321/12/15
f 327/1/1 326/2/2 325/1/3
f 326/2/2 327/1/1 328/3/4
f 328/3/4 327/1/1 329/4/5
f 329/4/5 327/1/1 330/5/6
f 330/5/6 327/1/1 331/3/7
f 331/3/7 327/1/1 332/2/8
f 340/3/9 341/1/10 342/2/11
f 334/6/12 331/7/7 336/7/13
f 331/7/7 334/6/12 333/6/14
f 339/8/15 330/6/6 335/6/16
f 326/9/2 340/6/9 342/9/11
f 331/10/7 338/11/17 336/10/13
f 329/12/5 340/13/9 328/13/4
f 333/5/14 330/5/6 331/3/7
f 335/5/16 333/5/14 334/5/12
f 333/5/14 335/5/16 330/5/6
f 334/5/12 336/3/13 335/5/16
f 337/1/18 335/5/16 336/3/13
f 337/1/18 336/3/13 338/2/17
f 337/1/18 339/4/15 335/5/16
f 337/1/18 340/3/9 339/4/15
f 341/1/10 340/3/9 337/1/18
f 337/14/18 325/14/3 341/14/10
f 325/14/3 337/14/18 327/14/1
f 330/6/6 339/8/15 329/8/5
f 325/14/3 342/9/11 341/14/10
f 342/9/11 325/14/3 326/9/2
f 340/6/9 326/9/2 328/6/4
f 338/11/17 327/15/1 337/15/18
f 327/15/1 338/11/17 332/11/8
f 338/11/17 331/10/7 332/11/8
f 340/13/9 329/12/5 339/12/15
f 345/1/1 344/2/2 343/1/3
f 344/2/2 345/1/1 346/3/4
f 346/3/4 345/1/1 347/4/5
f 347/4/5 345/1/1 348/5/6
f 348/5/6 345/1/1 349/3/7
f 349/3/7 345/1/1 350/2/8
f 358/3/9 359/1/10 360/2/11
f 352/6/12 349/7/7 354/7/13
f 349/7/7 352/6/12 351/6/14
f 357/8/15 348/6/6 353/6/16
f 344/9/2 358/6/9 360/9/11
f 349/10/7 356/11/17 354/10/13
f 347/12/5 358/13/9 346/13/4
f 351/5/14 348/5/6 349/3/7
f 353/5/16 351/5/14 352/5/12
f 351/5/14 353/5/16 348/5/6
f 352/5/12 354/3/13 353/5/16
f 355/1/18 353/5/16 354/3/13
f 355/1/18 354/3/13 356/2/17
f 355/1/18 357/4/15 353/5/16
f 355/1/18 358/3/9 357/4/15
f 359/1/10 358/3/9 355/1/18
f 355/14/18 343/14/3 359/14/10
f 343/14/3 355/14/18 345/14/1
f 348/6/6 357/8/15 347/8/5
f 343/14/3 360/9/11 359/14/10
f 360/9/11 343/14/3 344/9/2
f 358/6/9 344/9/2 346/6/4
f 356/11/17 345/15/1 355/15/18
f 345/15/1 356/11/17 350/11/8
f 356/11/17 349/10/7 350/11/8
f 358/13/9 347/12/5 357/12/15
f 363/1/1 362/2/2 361/1/3
f 362/2/2 363/1/1 364/3/4
f 364/3/4 363/1/1 365/4/5
f 365/4/5 363/1/1 366/5/6
f 366/5/6 363/1/1 367/3/7
f 367/3/7 363/1/1 368/2/8
f 376/3/9 377/1/10 378/2/11
f 370/6/12 367/7/7 372/7/13
f 367/7/7 370/6/12 369/6/14
f 375/8/15 366/6/6 371/6/16
f 362/9/2 376/6/9 378/9/11
f 367/10/7 374/11/17 372/10/13
f 365/12/5 376/13/9 364/13/4
f 369/5/14 366/5/6 367/3/7
f 371/5/16 369/5/14 370/5/12
f 369/5/14 371/5/16 366/5/6
f 370/5/12 372/3/13 371/5/16
f 373/1/18 371/5/16 372/3/13
f 373/1/18 372/3/13 374/2/17
f 373/1/18 375/4/15 371/5/16
f 373/1/18 376/3/9 375/4/15
f 377/1/10 376/3/9 373/1/18
f 373/14/18 361/14/3 377/14/10
f 361/14/3 373/14/18 363/14/1
f 366/6/6 375/8/15 365/8/5
f 361/14/3 378/9/11 377/14/10
f 378/9/11 361/14/3 362/9/2
f 376/6/9 362/9/2 364/6/4
f 374/11/17 363/15/1 373/15/18
f 363/15/1 374/11/17 368/11/8
f 374/11/17 367/10/7 368/11/8
f 376/13/9 365/12/5 375/12/15
f 381/1/1 380/2/2 379/1/3
f 380/2/2 381/1/1 382/3/4
f 382/3/4 381/1/1 383/4/5
f 383/4/5 381/1/1 384/5/6
f 384/5/6 381/1/1 385/3/7
f 385/3/7 381/1/1 386/2/8
f 394/3/9 395/1/10 396/2/11
f 388/6/12 385/7/7 390/7/13
f 385/7/7 388/6/12 387/6/14
f 393/8/15 384/6/6 389/6/16
f 380/9/2 394/6/9 396/9/11
f 385/10/7 392/11/17 390/10/13
f 383/12/5 394/13/9 382/13/4
f 387/5/14 384/5/6 385/3/7
f 389/5/16 387/5/14 388/5/12
f 387/5/14 389/5/16 384/5/6
f 388/5/12 390/3/13 389/5/16
f 391/1/18 389/5/16 390/3/13
f 391/1/18 390/3/13 392/2/17
f 391/1/18 393/4/15 389/5/16
f 391/1/18 394/3/9 393/4/15
f 395/1/10 394/3/9 391/1/18
f 391/14/18 379/14/3 395/14/10
f 379/14/3 391/14/18 381/14/1
f 384/6/6 393/8/15 383/8/5
f 379/14/3 396/9/11 395/14/10
f 396/9/11 379/14/3 380/9/2
f 394/6/9 380/9/2 382/6/4
f 392/11/17 381/15/1 391/15/18
f 381/15/1 392/11/17 386/11/8
f 392/11/17 385/10/7 386/11/8
f 394/13/9 383/12/5 393/12/15
f 399/1/1 398/2/2 397/1/3
f 398/2/2 399/1/1 400/3/4
f 400/3/4 399/1/1 401/4/5
f 401/4/5 399/1/1 402/5/6
f 402/5/6 399/1/1 403/3/7
f 403/3/7 399/1/1 404/2/8
f 412/3/9 413/1/10 414/2/11
f 406/6/12 403/7/7 408/7/13
f 403/7/7 406/6/12 405/6/14
f 411/8/15 402/6/6 407/6/16
f 398/9/2 412/6/9 414/9/11
f 403/10/7 410/11/17 408/10/13
f 401/12/5 412/13/9 400/13/4
f 405/5/14 402/5/6 403/3/7
f 407/5/16 405/5/14 406/5/12
f 405/5/14 407/5/16 402/5/6
f 406/5/12 408/3/13 407/5/16
f 409/1/18 407/5/16 408/3/13
f 409/1/18 408/3/13 410/2/17
f 409/1/18 411/4/15 407/5/16
f 409/1/18 412/3/9 411/4/15
f 413/1/10 412/3/9 409/1/18
f 409/14/18 397/14/3 413/14/10
f 397/14/3 409/14/18 399/14/1
f 402/6/6 411/8/15 401/8/5
f 397/14/3 414/9/11 413/14/10
f 414/9/11 397/14/3 398/9/2
f 412/6/9 398/9/2 400/6/4
f 410/11/17 399/15/1 409/15/18
f 399/15/1 410/11/17 404/11/8
f 410/11/17 403/10/7 404/11/8
f 412/13/9 401/12/5 411/12/15
f 417/1/1 416/2/2 415/1/3
f 416/2/2 417/1/1 418/3/4
f 418/3/4 417/1/1 419/4/5
f 419/4/5 417/1/1 420/5/6
f 420/5/6 417/1/1 421/3/7
f 421/3/7 417/1/1 422/2/8
f 430/3/9 431/1/10 432/2/11
f 424/6/12 421/7/7 426/7/13
f 421/7/7 424/6/12 423/6/14
f 429/8/15 420/6/6 425/6/16
f 416/9/2 430/6/9 432/9/11
f 421/10/7 428/11/17 426/10/13
f 419/12/5 430/13/9 418/13/4
f 423/5/14 420/5/6 421/3/7
f 425/5/16 423/5/14 424/5/12
f 423/5/14 425/5/16 420/5/6
f 424/5/12 426/3/13 425/5/16
f 427/1/18 425/5/16 426/3/13
f 427/1/18 426/3/13 428/2/17
f 427/1/18 429/4/15 425/5/16
f 427/1/18 430/3/9 429/4/15
f 431/1/10 430/3/9 427/1/18
f 427/14/18 415/14/3 431/14/10
f 415/14/3 427/14/18 417/14/1
f 420/6/6 429/8/15 419/8/5
f 415/14/3 432/9/11 431/14/10
f 432/9/11 415/14/3 416/9/2
f 430/6/9 416/9/2 418/6/4
f 428/11/17 417/15/1 427/15/18
f 417/15/1 428/11/17 422/11/8
f 428/11/17 421/10/7 422/11/8
f 430/13/9 419/12/5 429/12/15
f 435/1/1 434/2/2 433/1/3
f 434/2/2 435/1/1 436/3/4
f 436/3/4 435/1/1 437/4/5
f 437/4/5 435/1/1 438/5/6
f 438/5/6 435/1/1 439/3/7
f 439/3/7 435/1/1 440/2/8
f 448/3/9 449/1/10 450/2/11
f 442/6/12 439/7/7 444/7/13
f 439/7/7 442/6/12 441/6/14
f 447/8/15 438/6/6 443/6/16
f 434/9/2 448/6/9 450/9/11
f 439/10/7 446/11/17 444/10/13
f 437/12/5 448/13/9 436/13/4
f 441/5/14 438/5/6 439/3/7
f 443/5/16 441/5/14 442/5/12
f 441/5/14 443/5/16 438/5/6
f 442/5/12 444/3/13 443/5/16
f 445/1/18 443/5/16 444/3/13
f 445/1/18 444/3/13 446/2/17
f 445/1/18 447/4/15 443/5/16
f 445/1/18 448/3/9 447/4/15
f 449/1/10 448/3/9 445/1/18
f 445/14/18 433/14/3 449/14/10
f 433/14/3 445/14/18 435/14/1
f 438/6/6 447/8/15 437/8/5
f 433/14/3 450/9/11 449/14/10
f 450/9/11 433/14/3 434/9/2
f 448/6/9 434/9/2 436/6/4
f 446/11/17 435/15/1 445/15/18
f 435/15/1 446/11/17 440/11/8
f 446/11/17 439/10/7 440/11/8
f 448/13/9 437/12/5 447/12/15
f 453/1/1 452/2/2 451/1/3
f 452/2/2 453/1/1 454/3/4
f 454/3/4 453/1/1 455/4/5
f 455/4/5 453/1/1 456/5/6
f 456/5/6 453/1/1 457/3/7
f 457/3/7 453/1/1 458/2/8
f 466/3/9 467/1/10 468/2/11
f 460/6/12 457/7/7 462/7/13
f 457/7/7 460/6/12 459/6/14
f 465/8/15 456/6/6 461/6/16
f 452/9/2 466/6/9 468/9/11
f 457/10/7 464/11/17 462/10/13
f 455/12/5 466/13/9 454/13/4
f 459/5/14 456/5/6 457/3/7
f 461/5/16 459/5/14 460/5/12
f 459/5/14 461/5/16 456/5/6
f 460/5/12 462/3/13 461/5/16
f 463/1/18 461/5/16 462/3/13
f 463/1/18 462/3/13 464/2/17
f 463/1/18 465/4/15 461/5/16
f 463/1/18 466/3/9 465/4/15
f 467/1/10 466/3/9 463/1/18
f 463/14/18 451/14/3 467/14/10
f 451/14/3 463/14/18 453/14/1
f 456/6/6 465/8/15 455/8/5
f 451/14/3 468/9/11 467/14/10
f 468/9/11 451/14/3 452/9/2
f 466/6/9 452/9/2 454/6/4
f 464/11/17 453/15/1 463/15/18
f 453/15/1 464/11/17 458/11/8
f 464/11/17 457/10/7 458/11/8
f 466/13/9 455/12/5 465/12/15
f 471/1/1 470/2/2 469/1/3
f 470/2/2 471/1/1 472/3/4
f 472/3/4 471/1/1 473/4/5
f 473/4/5 471/1/1 474/5/6
f 474/5/6 471/1/1 475/3/7
f 475/3/7 471/1/1 476/2/8
f 484/3/9 485/1/10 486/2/11
f 478/6/12 475/7/7 480/7/13
f 475/7/7 478/6/12 477/6/14
f 483/8/15 474/6/6 479/6/16
f 470/9/2 484/6/9 486/9/11
f 475/10/7 482/11/17 480/10/13
f 473/12/5 484/13/9 472/13/4
f 477/5/14 474/5/6 475/3/7
f 479/5/16 477/5/14 478/5/12
f 477/5/14 479/5/16 474/5/6
f 478/5/12 480/3/13 479/5/16
f 481/1/18 479/5/16 480/3/13
f 481/1/18 480/3/13 482/2/17
f 481/1/18 483/4/15 479/5/16
f 481/1/18 484/3/9 483/4/15
f 485/1/10 484/3/9 481/1/18
f 481/14/18 469/14/3 485/14/10
f 469/14/3 481/14/18 471/14/1
f 474/6/6 483/8/15 473/8/5
f 469/14/3 486/9/11 485/14/10
f 486/9/11 469/14/3 470/9/2
f 484/6/9 470/9/2 472/6/4
f 482/11/17 471/15/1 481/15/18
f 471/15/1 482/11/17 476/11/8
f 482/11/17 475/10/7 476/11/8
f 484/13/9 473/12/5 483/12/15
f 489/1/1 488/2/2 487/1/3
f 488/2/2 489/1/1 490/3/4
f 490/3/4 489/1/1 491/4/5
f 491/4/5 489/1/1 492/5/6
f 492/5/6 489/1/1 493/3/7
f 493/3/7 489/1/1 494/2/8
f 502/3/9 503/1/10 504/2/11
f 496/6/12 493/7/7 498/7/13
f 493/7/7 496/6/12 495/6/14
f 501/8/15 492/6/6 497/6/16
f 488/9/2 502/6/9 504/9/11
f 493/10/7 500/11/17 498/10/13
f 491/12/5 502/13/9 490/13/4
f 495/5/14 492/5/6 493/3/7
f 497/5/16 495/5/14 496/5/12
f 495/5/14 497/5/16 492/5/6
f 496/5/12 498/3/13 497/5/16
f 499/1/18 497/5/16 498/3/13
f 499/1/18 498/3/13 500/2/17
f 499/1/18 501/4/15 497/5/16
f 499/1/18 502/3/9 501/4/15
f 503/1/10 502/3/9 499/1/18
f 499/14/18 487/14/3 503/14/10
f 487/14/3 499/14/18 489/14/1
f 492/6/6 501/8/15 491/8/5
f 487/14/3 504/9/11 503/14/10
f 504/9/11 487/14/3 488/9/2
f 502/6/9 488/9/2 490/6/4
f 500/11/17 489/15/1 499/15/18
f 489/15/1 500/11/17 494/11/8
f 500/11/17 493/10/7 494/11/8
f 502/13/9 491/12/5 501/12/15
f 507/1/1 506/2/2 505/1/3
f 506/2/2 507/1/1 508/3/4
f 508/3/4 507/1/1 509/4/5
f 509/4/5 507/1/1 510/5/6
f 510/5/6 507/1/1 511/3/7
f 511/3/7 507/1/1 512/2/8
f 520/3/9 521/1/10 522/2/11
f 514/6/12 511/7/7 516/7/13
f 511/7/7 514/6/12 513/6/14
f 519/8/15 510/6/6 515/6/16
f 506/9/2 520/6/9 522/9/11
f 511/10/7 518/11/17 516/10/13
f 509/12/5 520/13/9 508/13/4
f 513/5/14 510/5/6 511/3/7
f 515/5/16 513/5/14 514/5/12
f 513/5/14 515/5/16 510/5/6
f 514/5/12 516/3/13 515/5/16
f 517/1/18 515/5/16 516/3/13
f 517/1/18 516/3/13 518/2/17
f 517/1/18 519/4/15 515/5/16
f 517/1/18 520/3/9 519/4/15
f 521/1/10 520/3/9 517/1/18
f 517/14/18 505/14/3 521/14/10
f 505/14/3 517/14/18 507/14/1
f 510/6/6 519/8/15 509/8/5
f 505/14/3 522/9/11 521/14/10
f 522/9/11 505/14/3 506/9/2
f 520/6/9 506/9/2 508/6/4
f 518/11/17 507/15/1 517/15/18
f 507/15/1 518/11/17 512/11/8
f 518/11/17 511/10/7 512/11/8
f 520/13/9 509/12/5 519/12/15
f 525/1/1 524/2/2 523/1/3
f 524/2/2 525/1/1 526/3/4
f 526/3/4 525/1/1 527/4/5
f 527/4/5 525/1/1 528/5/6
f 528/5/6 525/1/1 529/3/7
f 529/3/7 525/1/1 530/2/8
f 538/3/9 539/1/10 540/2/11
f 532/6/12 529/7/7 534/7/13
f 529/7/7 532/6/12 531/6/14
f 537/8/15 528/6/6 533/6/16
f 524/9/2 538/6/9 540/9/11
f 529/10/7 536/11/17 534/10/13
f 527/12/5 538/13/9 526/13/4
f 531/5/14 528/5/6 529/3/7
f 533/5/16 531/5/14 532/5/12
f 531/5/14 533/5/16 528/5/6
f 532/5/12 534/3/13 533/5/16
f 535/1/18 533/5/16 534/3/13
f 535/1/18 534/3/13 536/2/17
f 535/1/18 537/4/15 533/5/16
f 535/1/18 538/3/9 537/4/15
f 539/1/10 538/3/9 535/1/18
f 535/14/18 523/14/3 539/14/10
f 523/14/3 535/14/18 525/14/1
f 528/6/6 537/8/15 527/8/5
f 523/14/3 540/9/11 539/14/10
f 540/9/11 523/14/3 524/9/2
f 538/6/9 524/9/2 526/6/4
f 536/11/17 525/15/1 535/15/18
f 525/15/1 536/11/17 530/11/8
f 536/11/17 529/10/7 530/11/8
f 538/13/9 527/12/5 537/12/15
f 543/1/1 542/2/2 541/1/3
f 542/2/2 543/1/1 544/3/4
f 544/3/4 543/1/1 545/4/5
f 545/4/5 543/1/1 546/5/6
f 546/5/6 543/1/1 547/3/7
f 547/3/7 543/1/1 548/2/8
f 556/3/9 557/1/10 558/2/11
f 550/6/12 547/7/7 552/7/13
f 547/7/7 550/6/12 549/6/14
f 555/8/15 546/6/6 551/6/16
f 542/9/2 556/6/9 558/9/11
f 547/10/7 554/11/17 552/10/13
f 545/12/5 556/13/9 544/13/4
f 549/5/14 546/5/6 547/3/7
f 551/5/16 549/5/14 550/5/12
f 549/5/14 551/5/16 546/5/6
f 550/5/12 552/3/13 551/5/16
f 553/1/18 551/5/16 552/3/13
f 553/1/18 552/3/13 554/2/17
f 553/1/18 555/4/15 551/5/16
f 553/1/18 556/3/9 555/4/15
f 557/1/10 556/3/9 553/1/18
f 553/14/18 541/14/3 557/14/10
f 541/14/3 553/14/18 543/14/1
f 546/6/6 555/8/15 545/8/5
f 541/14/3 558/9/11 557/14/10
f 558/9/11 541/14/3 542/9/2
f 556/6/9 542/9/2 544/6/4
f 554/11/17 543/15/1 553/15/18
f 543/15/1 554/11/17 548/11/8
f 554/11/17 547/10/7 548/11/8
f 556/13/9 545/12/5 555/12/15
f 561/1/1 560/2/2 559/1/3
f 560/2/2 561/1/1 562/3/4
f 562/3/4 561/1/1 563/4/5
f 563/4/5 561/1/1 564/5/6
f 564/5/6 561/1/1 565/3/7
f 565/3/7 561/1/1 566/2/8
f 574/3/9 575/1/10 576/2/11
f 568/6/12 565/7/7 570/7/13
f 565/7/7 568/6/12 567/6/14
f 573/8/15 564/6/6 569/6/16
f 560/9/2 574/6/9 576/9/11
f 565/10/7 572/11/17 570/10/13
f 563/12/5 574/13/9 562/13/4
f 567/5/14 564/5/6 565/3/7
f 569/5/16 567/5/14 568/5/12
f 567/5/14 569/5/16 564/5/6
f 568/5/12 570/3/13 569/5/16
f 571/1/18 569/5/16 570/3/13
f 571/1/18 570/3/13 572/2/17
f 571/1/18 573/4/15 569/5/16
f 571/1/18 574/3/9 573/4/15
f 575/1/10 574/3/9 571/1/18
f 571/14/18 559/14/3 575/14/10
f 559/14/3 571/14/18 561/14/1
f 564/6/6 573/8/15 563/8/5
f 559/14/3 576/9/11 575/14/10
f 576/9/11 559/14/3 560/9/2
f 574/6/9 560/9/2 562/6/4
f 572/11/17 561/15/1 571/15/18
f 561/15/1 572/11/17 566/11/8
f 572/11/17 565/10/7 566/11/8
f 574/13/9 563/12/5 573/12/15
f 579/1/1 578/2/2 577/1/3
f 578/2/2 579/1/1 580/3/4
f 580/3/4 579/1/1 581/4/5
f 581/4/5 579/1/1 582/5/6
f 582/5/6 579/1/1 583/3/7
f 583/3/7 579/1/1 584/2/8
f 592/3/9 593/1/10 594/2/11
f 586/6/12 583/7/7 588/7/13
f 583/7/7 586/6/12 585/6/14
f 591/8/15 582/6/6 587/6/16
f 578/9/2 592/6/9 594/9/11
f 583/10/7 590/11/17 588/10/13
f 581/12/5 592/13/9 580/13/4
f 585/5/14 582/5/6 583/3/7
f 587/5/16 585/5/14 586/5/12
f 585/5/14 587/5/16 582/5/6
f 586/5/12 588/3/13 587/5/16
f 589/1/18 587/5/16 588/3/13
f 589/1/18 588/3/13 590/2/17
f 589/1/18 591/4/15 587/5/16
f 589/1/18 592/3/9 591/4/15
f 593/1/10 592/3/9 589/1/18
f 589/14/18 577/14/3 593/14/10
f 577/14/3 589/14/18 579/14/1
f 582/6/6 591/8/15 581/8/5
f 577/14/3 594/9/11 593/14/10
f 594/9/11 577/14/3 578/9/2
f 592/6/9 578/9/2 580/6/4
f 590/11/17 579/15/1 589/15/18
f 579/15/1 590/11/17 584/11/8
f 590/11/17 583/10/7 584/11/8
f 592/13/9 581/12/5 591/12/15
f 597/1/1 596/2/2 595/1/3
f 596/2/2 597/1/1 598/3/4
f 598/3/4 597/1/1 599/4/5
f 599/4/5 597/1/1 600/5/6
f 600/5/6 597/1/1 601/3/7
f 601/3/7 597/1/1 602/2/8
f 610/3/9 611/1/10 612/2/11
f 604/6/12 601/7/7 606/7/13
f 601/7/7 604/6/12 603/6/14
f 609/8/15 600/6/6 605/6/16
f 596/9/2 610/6/9 612/9/11
f 601/10/7 608/11/17 606/10/13
f 599/12/5 610/13/9 598/13/4
f 603/5/14 600/5/6 601/3/7
f 605/5/16 603/5/14 604/5/12
f 603/5/14 605/5/16 600/5/6
f 604/5/12 606/3/13 605/5/16
f 607/1/18 605/5/16 606/3/13
f 607/1/18 606/3/13 608/2/17
f 607/1/18 609/4/15 605/5/16
f 607/1/18 610/3/9 609/4/15
f 611/1/10 610/3/9 607/1/18
f 607/14/18 595/14/3 611/14/10
f 595/14/3 607/14/18 597/14/1
f 600/6/6 609/8/15 599/8/5
f 595/14/3 612/9/11 611/14/10
f 612/9/11 595/14/3 596/9/2
f 610/6/9 596/9/2 598/6/4
f 608/11/17 597/15/1 607/15/18
f 597/15/1 608/11/17 602/11/8
f 608/11/17 601/10/7 602/11/8
f 610/13/9 599/12/5 609/12/15
f 615/1/1 614/2/2 613/1/3
f 614/2/2 615/1/1 616/3/4
f 616/3/4 615/1/1 617/4/5
f 617/4/5 615/1/1 618/5/6
f 618/5/6 615/1/1 619/3/7
f 619/3/7 615/1/1 620/2/8
f 628/3/9 629/1/10 630/2/11
f 622/6/12 619/7/7 624/7/13
f 619/7/7 622/6/12 621/6/14
f 627/8/15 618/6/6 623/6/16
f 614/9/2 628/6/9 630/9/11
f 619/10/7 626/11/17 624/10/13
f 617/12/5 628/13/9 616/13/4
f 621/5/14 618/5/6 619/3/7
f 623/5/16 621/5/14 622/5/12
f 621/5/14 623/5/16 618/5/6
f 622/5/12 624/3/13 623/5/16
f 625/1/18 623/5/16 624/3/13
f 625/1/18 624/3/13 626/2/17
f 625/1/18 627/4/15 623/5/16
f 625/1/18 628/3/9 627/4/15
f 629/1/10 628/3/9 625/1/18
f 625/14/18 613/14/3 629/14/10
f 613/14/3 625/14/18 615/14/1
f 618/6/6 627/8/15 617/8/5
f 613/14/3 630/9/11 629/14/10
f 630/9/11 613/14/3 614/9/2
f 628/6/9 614/9/2 616/6/4
f 626/11/17 615/15/1 625/15/18
f 615/15/1 626/11/17 620/11/8
f 626/11/17 619/10/7 620/11/8
f 628/13/9 617/12/5 627/12/15
f 633/1/1 632/2/2 631/1/3
f 632/2/2 633/1/1 634/3/4
f 634/3/4 633/1/1 635/4/5
f 635/4/5 633/1/1 636/5/6
f 636/5/6 633/1/1 637/3/7
f 637/3/7 633/1/1 638/2/8
f 646/3/9 647/1/10 648/2/11
f 640/6/12 637/7/7 642/7/13
f 637/7/7 640/6/12 639/6/14
f 645/8/15 636/6/6 641/6/16
f 632/9/2 646/6/9 648/9/11
f 637/10/7 644/11/17 642/10/13
f 635/12/5 646/13/9 634/13/4
f 639/5/14 636/5/6 637/3/7
f 641/5/16 639/5/14 640/5/12
f 639/5/14 641/5/16 636/5/6
f 640/5/12 642/3/13 641/5/16
f 643/1/18 641/5/16 642/3/13
f 643/1/18 642/3/13 644/2/17
f 643/1/18 645/4/15 641/5/16
f 643/1/18 646/3/9 645/4/15
f 647/1/10 646/3/9 643/1/18
f 643/14/18 631/14/3 647/14/10
f 631/14/3 643/14/18 633/14/1
f 636/6/6 645/8/15 635/8/5
f 631/14/3 648/9/11 647/14/10
f 648/9/11 631/14/3 632/9/2
f 646/6/9 632/9/2 634/6/4
f 644/11/17 633/15/1 643/15/18
f 633/15/1 644/11/17 638/11/8
f 644/11/17 637/10/7 638/11/8
f 646/13/9 635/12/5 645/12/15
f 651/1/1 650/2/2 649/1/3
f 650/2/2 651/1/1 652/3/4
f 652/3/4 651/1/1 653/4/5
f 653/4/5 651/1/1 654/5/6
f 654/5/6 651/1/1 655/3/7
f 655/3/7 651/1/1 656/2/8
f 664/3/9 665/1/10 666/2/11
f 658/6/12 655/7/7 660/7/13
f 655/7/7 658/6/12 657/6/14
f 663/8/15 654/6/6 659/6/20
f 650/9/2 664/6/9 666/9/11
f 655/10/7 662/11/17 660/10/13
f 653/12/5 664/13/9 652/13/4
f 657/5/14 654/5/6 655/3/7
f 659/5/20 657/5/14 658/5/12
f 657/5/14 659/5/20 654/5/6
f 658/5/12 660/3/13 659/5/20
f 661/1/18 659/5/20 660/3/13
f 661/1/18 660/3/13 662/2/17
f 661/1/18 663/4/15 659/5/20
f 661/1/18 664/3/9 663/4/15
f 665/1/10 664/3/9 661/1/18
f 661/14/18 649/14/3 665/14/10
f 649/14/3 661/14/18 651/14/1
f 654/6/6 663/8/15 653/8/5
f 649/14/3 666/9/11 665/14/10
f 666/9/11 649/14/3 650/9/2
f 664/6/9 650/9/2 652/6/4
f 662/11/17 651/15/1 661/15/18
f 651/15/1 662/11/17 656/11/8
f 662/11/17 655/10/7 656/11/8
f 664/13/9 653/12/5 663/12/15
f 669/1/1 668/2/2 667/1/3
f 668/2/2 669/1/1 670/3/4
f 670/3/4 669/1/1 671/4/5
f 671/4/5 669/1/1 672/5/6
f 672/5/6 669/1/1 673/3/7
f 673/3/7 669/1/1 674/2/8
f 682/3/9 683/1/10 684/2/11
f 676/6/12 673/7/7 678/7/13
f 673/7/7 676/6/12 675/6/14
f 681/8/15 672/6/6 677/6/20
f 668/9/2 682/6/9 684/9/11
f 673/10/7 680/11/17 678/10/13
f 671/12/5 682/13/9 670/13/4
f 675/5/14 672/5/6 673/3/7
f 677/5/20 675/5/14 676/5/12
f 675/5/14 677/5/20 672/5/6
f 676/5/12 678/3/13 677/5/20
f 679/1/18 677/5/20 678/3/13
f 679/1/18 678/3/13 680/2/17
f 679/1/18 681/4/15 677/5/20
f 679/1/18 682/3/9 681/4/15
f 683/1/10 682/3/9 679/1/18
f 679/14/18 667/14/3 683/14/10
f 667/14/3 679/14/18 669/14/1
f 672/6/6 681/8/15 671/8/5
f 667/14/3 684/9/11 683/14/10
f 684/9/11 667/14/3 668/9/2
f 682/6/9 668/9/2 670/6/4
f 680/11/17 669/15/1 679/15/18
f 669/15/1 680/11/17 674/11/8
f 680/11/17 673/10/7 674/11/8
f 682/13/9 671/12/5 681/12/15
f 687/1/1 686/2/2 685/1/3
f 686/2/2 687/1/1 688/3/4
f 688/3/4 687/1/1 689/4/5
f 689/4/5 687/1/1 690/5/6
f 690/5/6 687/1/1 691/3/7
f 691/3/7 687/1/1 692/2/8
f 700/3/9 701/1/10 702/2/11
f 694/6/12 691/7/7 696/7/13
f 691/7/7 694/6/12 693/6/14
f 699/8/15 690/6/6 695/6/20
f 686/9/2 700/6/9 702/9/11
f 691/10/7 698/11/17 696/10/13
f 689/12/5 700/13/9 688/13/4
f 693/5/14 690/5/6 691/3/7
f 695/5/20 693/5/14 694/5/12
f 693/5/14 695/5/20 690/5/6
f 694/5/12 696/3/13 695/5/20
f 697/1/18 695/5/20 696/3/13
f 697/1/18 696/3/13 698/2/17
f 697/1/18 699/4/15 695/5/20
f 697/1/18 700/3/9 699/4/15
f 701/1/10 700/3/9 697/1/18
f 697/14/18 685/14/3 701/14/10
f 685/14/3 697/14/18 687/14/1
f 690/6/6 699/8/15 689/8/5
f 685/14/3 702/9/11 701/14/10
f 702/9/11 685/14/3 686/9/2
f 700/6/9 686/9/2 688/6/4
f 698/11/17 687/15/1 697/15/18
f 687/15/1 698/11/17 692/11/8
f 698/11/17 691/10/7 692/11/8
f 700/13/9 689/12/5 699/12/15
f 705/1/1 704/2/2 703/1/3
f 704/2/2 705/1/1 706/3/4
f 706/3/4 705/1/1 707/4/5
f 707/4/5 705/1/1 708/5/6
f 708/5/6 705/1/1 709/3/7
f 709/3/7 705/1/1 710/2/8
f 718/3/9 719/1/10 720/2/11
f 712/6/12 709/7/7 714/7/13
f 709/7/7 712/6/12 711/6/14
f 717/8/15 708/6/6 713/6/20
f 704/9/2 718/6/9 720/9/11
f 709/10/7 716/11/17 714/10/13
f 707/12/5 718/13/9 706/13/4
f 711/5/14 708/5/6 709/3/7
f 713/5/20 711/5/14 712/5/12
f 711/5/14 713/5/20 708/5/6
f 712/5/12 714/3/13 713/5/20
f 715/1/18 713/5/20 714/3/13
f 715/1/18 714/3/13 716/2/17
f 715/1/18 717/4/15 713/5/20
f 715/1/18 718/3/9 717/4/15
f 719/1/10 718/3/9 715/1/18
f 715/14/18 703/14/3 719/14/10
f 703/14/3 715/14/18 705/14/1
f 708/6/6 717/8/15 707/8/5
f 703/14/3 720/9/11 719/14/10
f 720/9/11 703/14/3 704/9/2
f 718/6/9 704/9/2 706/6/4
f 716/11/17 705/15/1 715/15/18
f 705/15/1 716/11/17 710/11/8
f 716/11/17 709/10/7 710/11/8
f 718/13/9 707/12/5 717/12/15
f 723/1/1 722/2/2 721/1/3
f 722/2/2 723/1/1 724/3/4
f 724/3/4 723/1/1 725/4/5
f 725/4/5 723/1/1 726/5/6
f 726/5/6 723/1/1 727/3/7
f 727/3/7 723/1/1 728/2/8
f 736/3/9 737/1/10 738/2/11
f 730/6/12 727/7/7 732/7/13
f 727/7/7 730/6/12 729/6/14
f 735/8/15 726/6/6 731/6/20
f 722/9/2 736/6/9 738/9/11
f 727/10/7 734/11/17 732/10/13
f 725/12/5 736/13/9 724/13/4
f 729/5/14 726/5/6 727/3/7
f 731/5/20 729/5/14 730/5/12
f 729/5/14 731/5/20 726/5/6
f 730/5/12 732/3/13 731/5/20
f 733/1/18 731/5/20 732/3/13
f 733/1/18 732/3/13 734/2/17
f 733/1/18 735/4/15 731/5/20
f 733/1/18 736/3/9 735/4/15
f 737/1/10 736/3/9 733/1/18
f 733/14/18 721/14/3 737/14/10
f 721/14/3 733/14/18 723/14/1
f 726/6/6 735/8/15 725/8/5
f 721/14/3 738/9/11 737/14/10
f 738/9/11 721/14/3 722/9/2
f 736/6/9 722/9/2 724/6/4
f 734/11/17 723/15/1 733/15/18
f 723/15/1 734/11/17 728/11/8
f 734/11/17 727/10/7 728/11/8
f 736/13/9 725/12/5 735/12/15
f 741/1/1 740/2/2 739/1/3
f 740/2/2 741/1/1 742/3/4
f 742/3/4 741/1/1 743/4/5
f 743/4/5 741/1/1 744/5/6
f 744/5/6 741/1/1 745/3/7
f 745/3/7 741/1/1 746/2/8
f 754/3/9 755/1/10 756/2/11
f 748/6/12 745/7/7 750/7/13
f 745/7/7 748/6/12 747/6/14
f 753/8/15 744/6/6 749/6/20
f 740/9/2 754/6/9 756/9/11
f 745/10/7 752/11/17 750/10/13
f 743/12/5 754/13/9 742/13/4
f 747/5/14 744/5/6 745/3/7
f 749/5/20 747/5/14 748/5/12
f 747/5/14 749/5/20 744/5/6
f 748/5/12 750/3/13 749/5/20
f 751/1/18 749/5/20 750/3/13
f 751/1/18 750/3/13 752/2/17
f 751/1/18 753/4/15 749/5/20
f 751/1/18 754/3/9 753/4/15
f 755/1/10 754/3/9 751/1/18
f 751/14/18 739/14/3 755/14/10
f 739/14/3 751/14/18 741/14/1
f 744/6/6 753/8/15 743/8/5
f 739/14/3 756/9/11 755/14/10
f 756/9/11 739/14/3 740/9/2
f 754/6/9 740/9/2 742/6/4
f 752/11/17 741/15/1 751/15/18
f 741/15/1 752/11/17 746/11/8
f 752/11/17 745/10/7 746/11/8
f 754/13/9 743/12/5 753/12/15
f 759/1/1 758/2/2 757/1/3
f 758/2/2 759/1/1 760/3/4
f 760/3/4 759/1/1 761/4/5
f 761/4/5 759/1/1 762/5/6
f 762/5/6 759/1/1 763/3/7
f 763/3/7 759/1/1 764/2/8
f 772/3/9 773/1/10 774/2/11
f 766/6/12 763/7/7 768/7/13
f 763/7/7 766/6/12 765/6/14
f 771/8/15 762/6/6 767/6/20
f 758/9/2 772/6/9 774/9/11
f 763/10/7 770/11/17 768/10/13
f 761/12/5 772/13/9 760/13/4
f 765/5/14 762/5/6 763/3/7
f 767/5/20 765/5/14 766/5/12
f 765/5/14 767/5/20 762/5/6
f 766/5/12 768/3/13 767/5/20
f 769/1/18 767/5/20 768/3/13
f 769/1/18 768/3/13 770/2/17
f 769/1/18 771/4/15 767/5/20
f 769/1/18 772/3/9 771/4/15
f 773/1/10 772/3/9 769/1/18
f 769/14/18 757/14/3 773/14/10
f 757/14/3 769/14/18 759/14/1
f 762/6/6 771/8/15 761/8/5
f 757/14/3 774/9/11 773/14/10
f 774/9/11 757/14/3 758/9/2
f 772/6/9 758/9/2 760/6/4
f 770/11/17 759/15/1 769/15/18
f 759/15/1 770/11/17 764/11/8
f 770/11/17 763/10/7 764/11/8
f 772/13/9 761/12/5 771/12/15
f 777/1/1 776/2/2 775/1/3
f 776/2/2 777/1/1 778/3/4
f 778/3/4 777/1/1 779/4/5
f 779/4/5 777/1/1 780/5/6
f 780/5/6 777/1/1 781/3/7
f 781/3/7 777/1/1 782/2/8
f 790/3/9 791/1/10 792/2/11
f 784/6/12 781/7/7 786/7/13
f 781/7/7 784/6/12 783/6/14
f 789/8/15 780/6/6 785/6/20
f 776/9/2 790/6/9 792/9/11
f 781/10/7 788/11/17 786/10/13
f 779/12/5 790/13/9 778/13/4
f 783/5/14 780/5/6 781/3/7
f 785/5/20 783/5/14 784/5/12
f 783/5/14 785/5/20 780/5/6
f 784/5/12 786/3/13 785/5/20
f 787/1/18 785/5/20 786/3/13
f 787/1/18 786/3/13 788/2/17
f 787/1/18 789/4/15 785/5/20
f 787/1/18 790/3/9 789/4/15
f 791/1/10 790/3/9 787/1/18
f 787/14/18 775/14/3 791/14/10
f 775/14/3 787/14/18 777/14/1
f 780/6/6 789/8/15 779/8/5
f 775/14/3 792/9/11 791/14/10
f 792/9/11 775/14/3 776/9/2
f 790/6/9 776/9/2 778/6/4
f 788/11/17 777/15/1 787/15/18
f 777/15/1 788/11/17 782/11/8
f 788/11/17 781/10/7 782/11/8
f 790/13/9 779/12/5 789/12/15
f 795/1/1 794/2/2 793/1/3
f 794/2/2 795/1/1 796/3/4
f 796/3/4 795/1/1 797/4/5
f 797/4/5 795/1/1 798/5/6
f 798/5/6 795/1/1 799/3/7
f 799/3/7 795/1/1 800/2/8
f 808/3/9 809/1/10 810/2/11
f 802/6/12 799/7/7 804/7/13
f 799/7/7 802/6/12 801/6/14
f 807/8/15 798/6/6 803/6/20
f 794/9/2 808/6/9 810/9/11
f 799/10/7 806/11/17 804/10/13
f 797/12/5 808/13/9 796/13/4
f 801/5/14 798/5/6 799/3/7
f 803/5/20 801/5/14 802/5/12
f 801/5/14 803/5/20 798/5/6
f 802/5/12 804/3/13 803/5/20
f 805/1/18 803/5/20 804/3/13
f 805/1/18 804/3/13 806/2/17
f 805/1/18 807/4/15 803/5/20
f 805/1/18 808/3/9 807/4/15
f 809/1/10 808/3/9 805/1/18
f 805/14/18 793/14/3 809/14/10
f 793/14/3 805/14/18 795/14/1
f 798/6/6 807/8/15 797/8/5
f 793/14/3 810/9/11 809/14/10
f 810/9/11 793/14/3 794/9/2
f 808/6/9 794/9/2 796/6/4
f 806/11/17 795/15/1 805/15/18
f 795/15/1 806/11/17 800/11/8
f 806/11/17 799/10/7 800/11/8
f 808/13/9 797/12/5 807/12/15
f 813/1/1 812/2/2 811/1/3
f 812/2/2 813/1/1 814/3/4
f 814/3/4 813/1/1 815/4/5
f 815/4/5 813/1/1 816/5/6
f 816/5/6 813/1/1 817/3/7
f 817/3/7 813/1/1 818/2/8
f 826/3/9 827/1/10 828/2/11
f 820/6/12 817/7/7 822/7/13
f 817/7/7 820/6/12 819/6/14
f 825/8/15 816/6/6 821/6/20
f 812/9/2 826/6/9 828/9/11
f 817/10/7 824/11/17 822/10/13
f 815/12/5 826/13/9 814/13/4
f 819/5/14 816/5/6 817/3/7
f 821/5/20 819/5/14 820/5/12
f 819/5/14 821/5/20 816/5/6
f 820/5/12 822/3/13 821/5/20
f 823/1/18 821/5/20 822/3/13
f 823/1/18 822/3/13 824/2/17
f 823/1/18 825/4/15 821/5/20
f 823/1/18 826/3/9 825/4/15
f 827/1/10 826/3/9 823/1/18
f 823/14/18 811/14/3 827/14/10
f 811/14/3 823/14/18 813/14/1
f 816/6/6 825/8/15 815/8/5
f 811/14/3 828/9/11 827/14/10
f 828/9/11 811/14/3 812/9/2
f 826/6/9 812/9/2 814/6/4
f 824/11/17 813/15/1 823/15/18
f 813/15/1 824/11/17 818/11/8
f 824/11/17 817/10/7 818/11/8
f 826/13/9 815/12/5 825/12/15
f 831/1/1 830/2/2 829/1/3
f 830/2/2 831/1/1 832/3/4
f 832/3/4 831/1/1 833/4/5
f 833/4/5 831/1/1 834/5/6
f 834/5/6 831/1/1 835/3/7
f 835/3/7 831/1/1 836/2/8
f 844/3/9 845/1/10 846/2/11
f 838/6/12 835/7/7 840/7/13
f 835/7/7 838/6/12 837/6/14
f 843/8/15 834/6/6 839/6/20
f 830/9/2 844/6/9 846/9/11
f 835/10/7 842/11/17 840/10/13
f 833/12/5 844/13/9 832/13/4
f 837/5/14 834/5/6 835/3/7
f 839/5/20 837/5/14 838/5/12
f 837/5/14 839/5/20 834/5/6
f 838/5/12 840/3/13 839/5/20
f 841/1/18 839/5/20 840/3/13
f 841/1/18 840/3/13 842/2/17
f 841/1/18 843/4/15 839/5/20
f 841/1/18 844/3/9 843/4/15
f 845/1/10 844/3/9 841/1/18
f 841/14/18 829/14/3 845/14/10
f 829/14/3 841/14/18 831/14/1
f 834/6/6 843/8/15 833/8/5
f 829/14/3 846/9/11 845/14/10
f 846/9/11 829/14/3 830/9/2
f 844/6/9 830/9/2 832/6/4
f 842/11/17 831/15/1 841/15/18
f 831/15/1 842/11/17 836/11/8
f 842/11/17 835/10/7 836/11/8
f 844/13/9 833/12/5 843/12/15
f 849/1/1 848/2/2 847/1/3
f 848/2/2 849/1/1 850/3/4
f 850/3/4 849/1/1 851/4/5
f 851/4/5 849/1/1 852/5/6
f 852/5/6 849/1/1 853/3/7
f 853/3/7 849/1/1 854/2/8
f 862/3/9 863/1/10 864/2/11
f 856/6/12 853/7/7 858/7/13
f 853/7/7 856/6/12 855/6/14
f 861/8/15 852/6/6 857/6/20
f 848/9/2 862/6/9 864/9/11
f 853/10/7 860/11/17 858/10/13
f 851/12/5 862/13/9 850/13/4
f 855/5/14 852/5/6 853/3/7
f 857/5/20 855/5/14 856/5/12
f 855/5/14 857/5/20 852/5/6
f 856/5/12 858/3/13 857/5/20
f 859/1/18 857/5/20 858/3/13
f 859/1/18 858/3/13 860/2/17
f 859/1/18 861/4/15 857/5/20
f 859/1/18 862/3/9 861/4/15
f 863/1/10 862/3/9 859/1/18
f 859/14/18 847/14/3 863/14/10
f 847/14/3 859/14/18 849/14/1
f 852/6/6 861/8/15 851/8/5
f 847/14/3 864/9/11 863/14/10
f 864/9/11 847/14/3 848/9/2
f 862/6/9 848/9/2 850/6/4
f 860/11/17 849/15/1 859/15/18
f 849/15/1 860/11/17 854/11/8
f 860/11/17 853/10/7 854/11/8
f 862/13/9 851/12/5 861/12/15
f 867/1/1 866/2/2 865/1/3
f 866/2/2 867/1/1 868/3/4
f 868/3/4 867/1/1 869/4/5
f 869/4/5 867/1/1 870/5/6
f 870/5/6 867/1/1 871/3/7
f 871/3/7 867/1/1 872/2/8
f 880/3/9 881/1/10 882/2/11
f 874/6/12 871/7/7 876/7/13
f 871/7/7 874/6/12 873/6/14
f 879/8/15 870/6/6 875/6/20
f 866/9/2 880/6/9 882/9/11
f 871/10/7 878/11/17 876/10/13
f 869/12/5 880/13/9 868/13/4
f 873/5/14 870/5/6 871/3/7
f 875/5/20 873/5/14 874/5/12
f 873/5/14 875/5/20 870/5/6
f 874/5/12 876/3/13 875/5/20
f 877/1/18 875/5/20 876/3/13
f 877/1/18 876/3/13 878/2/17
f 877/1/18 879/4/15 875/5/20
f 877/1/18 880/3/9 879/4/15
f 881/1/10 880/3/9 877/1/18
f 877/14/18 865/14/3 881/14/10
f 865/14/3 877/14/18 867/14/1
f 870/6/6 879/8/15 869/8/5
f 865/14/3 882/9/11 881/14/10
f 882/9/11 865/14/3 866/9/2
f 880/6/9 866/9/2 868/6/4
f 878/11/17 867/15/1 877/15/18
f 867/15/1 878/11/17 872/11/8
f 878/11/17 871/10/7 872/11/8
f 880/13/9 869/12/5 879/12/15
f 885/1/1 884/2/2 883/1/3
f 884/2/2 885/1/1 886/3/4
f 886/3/4 885/1/1 887/4/5
f 887/4/5 885/1/1 888/5/6
f 888/5/6 885/1/1 889/3/7
f 889/3/7 885/1/1 890/2/8
f 898/3/9 899/1/10 900/2/11
f 892/6/12 889/7/7 894/7/13
f 889/7/7 892/6/12 891/6/14
f 897/8/15 888/6/6 893/6/20
f 884/9/2 898/6/9 900/9/11
f 889/10/7 896/11/17 894/10/13
f 887/12/5 898/13/9 886/13/4
f 891/5/14 888/5/6 889/3/7
f 893/5/20 891/5/14 892/5/12
f 891/5/14 893/5/20 888/5/6
f 892/5/12 894/3/13 893/5/20
f 895/1/18 893/5/20 894/3/13
f 895/1/18 894/3/13 896/2/17
f 895/1/18 897/4/15 893/5/20
f 895/1/18 898/3/9 897/4/15
f 899/1/10 898/3/9 895/1/18
f 895/14/18 883/14/3 899/14/10
f 883/14/3 895/14/18 885/14/1
f 888/6/6 897/8/15 887/8/5
f 883/14/3 900/9/11 899/14/10
f 900/9/11 883/14/3 884/9/2
f 898/6/9 884/9/2 886/6/4
f 896/11/17 885/15/1 895/15/18
f 885/15/1 896/11/17 890/11/8
f 896/11/17 889/10/7 890/11/8
f 898/13/9 887/12/5 897/12/15
f 903/1/1 902/2/2 901/1/3
f 902/2/2 903/1/1 904/3/4
f 904/3/4 903/1/1 905/4/5
f 905/4/5 903/1/1 906/5/6
f 906/5/6 903/1/1 907/3/7
f 907/3/7 903/1/1 908/2/8
f 916/3/9 917/1/10 918/2/11
f 910/6/12 907/7/7 912/7/13
f 907/7/7 910/6/12 909/6/14
f 915/8/15 906/6/6 911/6/20
f 902/9/2 916/6/9 918/9/11
f 907/10/7 914/11/17 912/10/13
f 905/12/5 916/13/9 904/13/4
f 909/5/14 906/5/6 907/3/7
f 911/5/20 909/5/14 910/5/12
f 909/5/14 911/5/20 906/5/6
f 910/5/12 912/3/13 911/5/20
f 913/1/18 911/5/20 912/3/13
f 913/1/18 912/3/13 914/2/17
f 913/1/18 915/4/15 911/5/20
f 913/1/18 916/3/9 915/4/15
f 917/1/10 916/3/9 913/1/18
f 913/14/18 901/14/3 917/14/10
f 901/14/3 913/14/18 903/14/1
f 906/6/6 915/8/15 905/8/5
f 901/14/3 918/9/11 917/14/10
f 918/9/11 901/14/3 902/9/2
f 916/6/9 902/9/2 904/6/4
f 914/11/17 903/15/1 913/15/18
f 903/15/1 914/11/17 908/11/8
f 914/11/17 907/10/7 908/11/8
f 916/13/9 905/12/5 915/12/15
f 921/1/1 920/2/2 919/1/3
f 920/2/2 921/1/1 922/3/4
f 922/3/4 921/1/1 923/4/5
f 923/4/5 921/1/1 924/5/6
f 924/5/6 921/1/1 925/3/7
f 925/3/7 921/1/1 926/2/8
f 934/3/9 935/1/10 936/2/11
f 928/6/12 925/7/7 930/7/13
f 925/7/7 928/6/12 927/6/14
f 933/8/15 924/6/6 929/6/20
f 920/9/2 934/6/9 936/9/11
f 925/10/7 932/11/17 930/10/13
f 923/12/5 934/13/9 922/13/4
f 927/5/14 924/5/6 925/3/7
f 929/5/20 927/5/14 928/5/12
f 927/5/14 929/5/20 924/5/6
f 928/5/12 930/3/13 929/5/20
f 931/1/18 929/5/20 930/3/13
f 931/1/18 930/3/13 932/2/17
f 931/1/18 933/4/15 929/5/20
f 931/1/18 934/3/9 933/4/15
f 935/1/10 934/3/9 931/1/18
f 931/14/18 919/14/3 935/14/10
f 919/14/3 931/14/18 921/14/1
f 924/6/6 933/8/15 923/8/5
f 919/14/3 936/9/11 935/14/10
f 936/9/11 919/14/3 920/9/2
f 934/6/9 920/9/2 922/6/4
f 932/11/17 921/15/1 931/15/18
f 921/15/1 932/11/17 926/11/8
f 932/11/17 925/10/7 926/11/8
f 934/13/9 923/12/5 933/12/15
f 939/1/1 938/2/2 937/1/3
f 938/2/2 939/1/1 940/3/4
f 940/3/4 939/1/1 941/4/5
f 941/4/5 939/1/1 942/5/6
f 942/5/6 939/1/1 943/3/7
f 943/3/7 939/1/1 944/2/8
f 952/3/9 953/1/10 954/2/11
f 946/6/12 943/7/7 948/7/13
f 943/7/7 946/6/12 945/6/14
f 951/8/15 942/6/6 947/6/20
f 938/9/2 952/6/9 954/9/11
f 943/10/7 950/11/17 948/10/13
f 941/12/5 952/13/9 940/13/4
f 945/5/14 942/5/6 943/3/7
f 947/5/20 945/5/14 946/5/12
f 945/5/14 947/5/20 942/5/6
f 946/5/12 948/3/13 947/5/20
f 949/1/18 947/5/20 948/3/13
f 949/1/18 948/3/13 950/2/17
f 949/1/18 951/4/15 947/5/20
f 949/1/18 952/3/9 951/4/15
f 953/1/10 952/3/9 949/1/18
f 949/14/18 937/14/3 953/14/10
f 937/14/3 949/14/18 939/14/1
f 942/6/6 951/8/15 941/8/5
f 937/14/3 954/9/11 953/14/10
f 954/9/11 937/14/3 938/9/2
f 952/6/9 938/9/2 940/6/4
f 950/11/17 939/15/1 949/15/18
f 939/15/1 950/11/17 944/11/8
f 950/11/17 943/10/7 944/11/8
f 952/13/9 941/12/5 951/12/15
f 957/1/1 956/2/2 955/1/3
f 956/2/2 957/1/1 958/3/4
f 958/3/4 957/1/1 959/4/5
f 959/4/5 957/1/1 960/5/6
f 960/5/6 957/1/1 961/3/7
f 961/3/7 957/1/1 962/2/8
f 970/3/9 971/1/10 972/2/11
f 964/6/12 961/7/7 966/7/13
f 961/7/7 964/6/12 963/6/14
f 969/8/15 960/6/6 965/6/20
f 956/9/2 970/6/9 972/9/11
f 961/10/7 968/11/17 966/10/13
f 959/12/5 970/13/9 958/13/4
f 963/5/14 960/5/6 961/3/7
f 965/5/20 963/5/14 964/5/12
f 963/5/14 965/5/20 960/5/6
f 964/5/12 966/3/13 965/5/20
f 967/1/18 965/5/20 966/3/13
f 967/1/18 966/3/13 968/2/17
f 967/1/18 969/4/15 965/5/20
f 967/1/18 970/3/9 969/4/15
f 971/1/10 970/3/9 967/1/18
f 967/14/18 955/14/3 971/14/10
f 955/14/3 967/14/18 957/14/1
f 960/6/6 969/8/15 959/8/5
f 955/14/3 972/9/11 971/14/10
f 972/9/11 955/14/3 956/9/2
f 970/6/9 956/9/2 958/6/4
f 968/11/17 957/15/1 967/15/18
f 957/15/1 968/11/17 962/11/8
f 968/11/17 961/10/7 962/11/8
f 970/13/9 959/12/5 969/12/15
f 975/1/1 974/2/2 973/1/3
f 974/2/2 975/1/1 976/3/4
f 976/3/4 975/1/1 977/4/5
f 977/4/5 975/1/1 978/5/6
f 978/5/6 975/1/1 979/3/7
f 979/3/7 975/1/1 980/2/8
f 988/3/9 989/1/10 990/2/11
f 982/6/12 979/7/7 984/7/13
f 979/7/7 982/6/12 981/6/14
f 987/8/15 978/6/6 983/6/20
f 974/9/2 988/6/9 990/9/11
f 979/10/7 986/11/17 984/10/13
f 977/12/5 988/13/9 976/13/4
f 981/5/14 978/5/6 979/3/7
f 983/5/20 981/5/14 982/5/12
f 981/5/14 983/5/20 978/5/6
f 982/5/12 984/3/13 983/5/20
f 985/1/18 983/5/20 984/3/13
f 985/1/18 984/3/13 986/2/17
f 985/1/18 987/4/15 983/5/20
f 985/1/18 988/3/9 987/4/15
f 989/1/10 988/3/9 985/1/18
f 985/14/18 973/14/3 989/14/10
f 973/14/3 985/14/18 975/14/1
f 978/6/6 987/8/15 977/8/5
f 973/14/3 990/9/11 989/14/10
f 990/9/11 973/14/3 974/9/2
f 988/6/9 974/9/2 976/6/4
f 986/11/17 975/15/1 985/15/18
f 975/15/1 986/11/17 980/11/8
f 986/11/17 979/10/7 980/11/8
f 988/13/9 977/12/5 987/12/15
f 993/1/1 992/2/2 991/1/3
f 992/2/2 993/1/1 994/3/4
f 994/3/4 993/1/1 995/4/5
f 995/4/5 993/1/1 996/5/6
f 996/5/6 993/1/1 997/3/7
f 997/3/7 993/1/1 998/2/8
f 1006/3/9 1007/1/10 1008/2/11
f 1000/6/12 997/7/7 1002/7/13
f 997/7/7 1000/6/12 999/6/14
f 1005/8/15 996/6/6 1001/6/20
f 992/9/2 1006/6/9 1008/9/11
f 997/10/7 1004/11/17 1002/10/13
f 995/12/5 1006/13/9 994/13/4
f 999/5/14 996/5/6 997/3/7
f 1001/5/20 999/5/14 1000/5/12
f 999/5/14 1001/5/20 996/5/6
f 1000/5/12 1002/3/13 1001/5/20
f 1003/1/18 1001/5/20 1002/3/13
f 1003/1/18 1002/3/13 1004/2/17
f 1003/1/18 1005/4/15 1001/5/20
f 1003/1/18 1006/3/9 1005/4/15
f 1007/1/10 1006/3/9 1003/1/18
f 1003/14/18 991/14/3 1007/14/10
f 991/14/3 1003/14/18 993/14/1
f 996/6/6 1005/8/15 995/8/5
f 991/14/3 1008/9/11 1007/14/10
f 1008/9/11 991/14/3 992/9/2
f 1006/6/9 992/9/2 994/6/4
f 1004/11/17 993/15/1 1003/15/18
f 993/15/1 1004/11/17 998/11/8
f 1004/11/17 997/10/7 998/11/8
f 1006/13/9 995/12/5 1005/12/15
f 1011/1/1 1010/2/2 1009/1/3
f 1010/2/2 1011/1/1 1012/3/4
f 1012/3/4 1011/1/1 1013/4/5
f 1013/4/5 1011/1/1 1014/5/6
f 1014/5/6 1011/1/1 1015/3/7
f 1015/3/7 1011/1/1 1016/2/8
f 1024/3/9 1025/1/10 1026/2/11
f 1018/6/12 1015/7/7 1020/7/13
f 1015/7/7 1018/6/12 1017/6/14
f 1023/8/15 1014/6/6 1019/6/20
f 1010/9/2 1024/6/9 1026/9/11
f 1015/10/7 1022/11/17 1020/10/13
f 1013/12/5 1024/13/9 1012/13/4
f 1017/5/14 1014/5/6 1015/3/7
f 1019/5/20 1017/5/14 1018/5/12
f 1017/5/14 1019/5/20 1014/5/6
f 1018/5/12 1020/3/13 1019/5/20
f 1021/1/18 1019/5/20 1020/3/13
f 1021/1/18 1020/3/13 1022/2/17
f 1021/1/18 1023/4/15 1019/5/20
f 1021/1/18 1024/3/9 1023/4/15
f 1025/1/10 1024/3/9 1021/1/18
f 1021/14/18 1009/14/3 1025/14/10
f 1009/14/3 1021/14/18 1011/14/1
f 1014/6/6 1023/8/15 1013/8/5
f 1009/14/3 1026/9/11 1025/14/10
f 1026/9/11 1009/14/3 1010/9/2
f 1024/6/9 1010/9/2 1012/6/4
f 1022/11/17 1011/15/1 1021/15/18
f 1011/15/1 1022/11/17 1016/11/8
f 1022/11/17 1015/10/7 1016/11/8
f 1024/13/9 1013/12/5 1023/12/15
f 1029/1/1 1028/2/2 1027/1/3
f 1028/2/2 1029/1/1 1030/3/4
f 1030/3/4 1029/1/1 1031/4/5
f 1031/4/5 1029/1/1 1032/5/6
f 1032/5/6 1029/1/1 1033/3/7
f 1033/3/7 1029/1/1 1034/2/8
f 1042/3/9 1043/1/10 1044/2/11
f 1036/6/12 1033/7/7 1038/7/13
f 1033/7/7 1036/6/12 1035/6/14
f 1041/8/15 1032/6/6 1037/6/20
f 1028/9/2 1042/6/9 1044/9/11
f 1033/10/7 1040/11/17 1038/10/13
f 1031/12/5 1042/13/9 1030/13/4
f 1035/5/14 1032/5/6 1033/3/7
f 1037/5/20 1035/5/14 1036/5/12
f 1035/5/14 1037/5/20 1032/5/6
f 1036/5/12 1038/3/13 1037/5/20
f 1039/1/18 1037/5/20 1038/3/13
f 1039/1/18 1038/3/13 1040/2/17
f 1039/1/18 1041/4/15 1037/5/20
f 1039/1/18 1042/3/9 1041/4/15
f 1043/1/10 1042/3/9 1039/1/18
f 1039/14/18 1027/14/3 1043/14/10
f 1027/14/3 1039/14/18 1029/14/1
f 1032/6/6 1041/8/15 1031/8/5
f 1027/14/3 1044/9/11 1043/14/10
f 1044/9/11 1027/14/3 1028/9/2
f 1042/6/9 1028/9/2 1030/6/4
f 1040/11/17 1029/15/1 1039/15/18
f 1029/15/1 1040/11/17 1034/11/8
f 1040/11/17 1033/10/7 1034/11/8
f 1042/13/9 1031/12/5 1041/12/15
f 1047/1/1 1046/2/2 1045/1/3
f 1046/2/2 1047/1/1 1048/3/4
f 1048/3/4 1047/1/1 1049/4/5
f 1049/4/5 1047/1/1 1050/5/6
f 1050/5/6 1047/1/1 1051/3/7
f 1051/3/7 1047/1/1 1052/2/8
f 1060/3/9 1061/1/10 1062/2/11
f 1054/6/12 1051/7/7 1056/7/13
f 1051/7/7 1054/6/12 1053/6/14
f 1059/8/15 1050/6/6 1055/6/20
f 1046/9/2 1060/6/9 1062/9/11
f 1051/10/7 1058/11/17 1056/10/13
f 1049/12/5 1060/13/9 1048/13/4
f 1053/5/14 1050/5/6 1051/3/7
f 1055/5/20 1053/5/14 1054/5/12
f 1053/5/14 1055/5/20 1050/5/6
f 1054/5/12 1056/3/13 1055/5/20
f 1057/1/18 1055/5/20 1056/3/13
f 1057/1/18 1056/3/13 1058/2/17
f 1057/1/18 1059/4/15 1055/5/20
f 1057/1/18 1060/3/9 1059/4/15
f 1061/1/10 1060/3/9 1057/1/18
f 1057/14/18 1045/14/3 1061/14/10
f 1045/14/3 1057/14/18 1047/14/1
f 1050/6/6 1059/8/15 1049/8/5
f 1045/14/3 1062/9/11 1061/14/10
f 1062/9/11 1045/14/3 1046/9/2
f 1060/6/9 1046/9/2 1048/6/4
f 1058/11/17 1047/15/1 1057/15/18
f 1047/15/1 1058/11/17 1052/11/8
f 1058/11/17 1051/10/7 1052/11/8
f 1060/13/9 1049/12/5 1059/12/15
f 1065/1/1 1064/2/2 1063/1/3
f 1064/2/2 1065/1/1 1066/3/4
f 1066/3/4 1065/1/1 1067/4/5
f 1067/4/5 1065/1/1 1068/5/6
f 1068/5/6 1065/1/1 1069/3/7
f 1069/3/7 1065/1/1 1070/2/8
f 1078/3/9 1079/1/10 1080/2/11
f 1072/6/12 1069/7/7 1074/7/13
f 1069/7/7 1072/6/12 1071/6/14
f 1077/8/15 1068/6/6 1073/6/20
f 1064/9/2 1078/6/9 1080/9/11
f 1069/10/7 1076/11/17 1074/10/13
f 1067/12/5 1078/13/9 1066/13/4
f 1071/5/14 1068/5/6 1069/3/7
f 1073/5/20 1071/5/14 1072/5/12
f 1071/5/14 1073/5/20 1068/5/6
f 1072/5/12 1074/3/13 1073/5/20
f 1075/1/18 1073/5/20 1074/3/13
f 1075/1/18 1074/3/13 1076/2/17
f 1075/1/18 1077/4/15 1073/5/20
f 1075/1/18 1078/3/9 1077/4/15
f 1079/1/10 1078/3/9 1075/1/18
f 1075/14/18 1063/14/3 1079/14/10
f 1063/14/3 1075/14/18 1065/14/1
f 1068/6/6 1077/8/15 1067/8/5
f 1063/14/3 1080/9/11 1079/14/10
f 1080/9/11 1063/14/3 1064/9/2
f 1078/6/9 1064/9/2 1066/6/4
f 1076/11/17 1065/15/1 1075/15/18
f 1065/15/1 1076/11/17 1070/11/8
f 1076/11/17 1069/10/7 1070/11/8
f 1078/13/9 1067/12/5 1077/12/15
f 1083/1/1 1082/2/2 1081/1/3
f 1082/2/2 1083/1/1 1084/3/4
f 1084/3/4 1083/1/1 1085/4/5
f 1085/4/5 1083/1/1 1086/5/6
f 1086/5/6 1083/1/1 1087/3/7
f 1087/3/7 1083/1/1 1088/2/8
f 1096/3/9 1097/1/10 1098/2/11
f 1090/6/12 1087/7/7 1092/7/13
f 1087/7/7 1090/6/12 1089/6/14
f 1095/8/15 1086/6/6 1091/6/20
f 1082/9/2 1096/6/9 1098/9/11
f 1087/10/7 1094/11/17 1092/10/13
f 1085/12/5 1096/13/9 1084/13/4
f 1089/5/14 1086/5/6 1087/3/7
f 1091/5/20 1089/5/14 1090/5/12
f 1089/5/14 1091/5/20 1086/5/6
f 1090/5/12 1092/3/13 1091/5/20
f 1093/1/18 1091/5/20 1092/3/13
f 1093/1/18 1092/3/13 1094/2/17
f 1093/1/18 1095/4/15 1091/5/20
f 1093/1/18 1096/3/9 1095/4/15
f 1097/1/10 1096/3/9 1093/1/18
f 1093/14/18 1081/14/3 1097/14/10
f 1081/14/3 1093/14/18 1083/14/1
f 1086/6/6 1095/8/15 1085/8/5
f 1081/14/3 1098/9/11 1097/14/10
f 1098/9/11 1081/14/3 1082/9/2
f 1096/6/9 1082/9/2 1084/6/4
f 1094/11/17 1083/15/1 1093/15/18
f 1083/15/1 1094/11/17 1088/11/8
f 1094/11/17 1087/10/7 1088/11/8
f 1096/13/9 1085/12/5 1095/12/15
f 1101/1/1 1100/2/2 1099/1/3
f 1100/2/2 1101/1/1 1102/3/4
f 1102/3/4 1101/1/1 1103/4/5
f 1103/4/5 1101/1/1 1104/5/6
f 1104/5/6 1101/1/1 1105/3/7
f 1105/3/7 1101/1/1 1106/2/8
f 1114/3/9 1115/1/10 1116/2/11
f 1108/6/12 1105/7/7 1110/7/13
f 1105/7/7 1108/6/12 1107/6/14
f 1113/8/15 1104/6/6 1109/6/20
f 1100/9/2 1114/6/9 1116/9/11
f 1105/10/7 1112/11/17 1110/10/13
f 1103/12/5 1114/13/9 1102/13/4
f 1107/5/14 1104/5/6 1105/3/7
f 1109/5/20 1107/5/14 1108/5/12
f 1107/5/14 1109/5/20 1104/5/6
f 1108/5/12 1110/3/13 1109/5/20
f 1111/1/18 1109/5/20 1110/3/13
f 1111/1/18 1110/3/13 1112/2/17
f 1111/1/18 1113/4/15 1109/5/20
f 1111/1/18 1114/3/9 1113/4/15
f 1115/1/10 1114/3/9 1111/1/18
f 1111/14/18 1099/14/3 1115/14/10
f 1099/14/3 1111/14/18 1101/14/1
f 1104/6/6 1113/8/15 1103/8/5
f 1099/14/3 1116/9/11 1115/14/10
f 1116/9/11 1099/14/3 1100/9/2
f 1114/6/9 1100/9/2 1102/6/4
f 1112/11/17 1101/15/1 1111/15/18
f 1101/15/1 1112/11/17 1106/11/8
f 1112/11/17 1105/10/7 1106/11/8
f 1114/13/9 1103/12/5 1113/12/15
f 1119/1/1 1118/2/2 1117/1/3
f 1118/2/2 1119/1/1 1120/3/4
f 1120/3/4 1119/1/1 1121/4/5
f 1121/4/5 1119/1/1 1122/5/6
f 1122/5/6 1119/1/1 1123/3/7
f 1123/3/7 1119/1/1 1124/2/8
f 1132/3/9 1133/1/10 1134/2/11
f 1126/6/12 1123/7/7 1128/7/13
f 1123/7/7 1126/6/12 1125/6/14
f 1131/8/15 1122/6/6 1127/6/20
f 1118/9/2 1132/6/9 1134/9/11
f 1123/10/7 1130/11/17 1128/10/13
f 1121/12/5 1132/13/9 1120/13/4
f 1125/5/14 1122/5/6 1123/3/7
f 1127/5/20 1125/5/14 1126/5/12
f 1125/5/14 1127/5/20 1122/5/6
f 1126/5/12 1128/3/13 1127/5/20
f 1129/1/18 1127/5/20 1128/3/13
f 1129/1/18 1128/3/13 1130/2/17
f 1129/1/18 1131/4/15 1127/5/20
f 1129/1/18 1132/3/9 1131/4/15
f 1133/1/10 1132/3/9 1129/1/18
f 1129/14/18 1117/14/3 1133/14/10
f 1117/14/3 1129/14/18 1119/14/1
f 1122/6/6 1131/8/15 1121/8/5
f 1117/14/3 1134/9/11 1133/14/10
f 1134/9/11 1117/14/3 1118/9/2
f 1132/6/9 1118/9/2 1120/6/4
f 1130/11/17 1119/15/1 1129/15/18
f 1119/15/1 1130/11/17 1124/11/8
f 1130/11/17 1123/10/7 1124/11/8
f 1132/13/9 1121/12/5 1131/12/15
