# Blender 4.3.2
# www.blender.org
mtllib bottle-ketchup.mtl
o bottle-ketchup.003
v -0.072053 -0.041600 -0.020800
v -0.072053 -0.041600 -0.280800
v -0.072053 0.041600 -0.020800
v -0.072053 0.041600 -0.280800
v 0.000000 0.083200 -0.020800
v 0.000000 0.083200 -0.280800
v 0.059536 0.034373 0.000000
v 0.000000 0.068747 0.000000
v 0.059536 0.034373 -0.020800
v 0.000000 0.068747 -0.020800
v 0.072053 -0.041600 -0.280800
v 0.072053 -0.041600 -0.020800
v 0.072053 0.041600 -0.280800
v 0.072053 0.041600 -0.020800
v -0.059536 0.034373 0.000000
v -0.059536 0.034373 -0.020800
v 0.006989 -0.006989 -0.393120
v 0.006989 0.006989 -0.393120
v -0.006989 -0.006989 -0.393120
v -0.006989 0.006989 -0.393120
v -0.059536 -0.034373 0.000000
v -0.059536 -0.034373 -0.020800
v 0.059536 -0.034373 0.000000
v 0.000000 -0.068747 0.000000
v 0.000000 -0.068747 -0.020800
v 0.059536 -0.034373 -0.020800
v 0.000000 -0.083200 -0.020800
v 0.000000 -0.083200 -0.280800
v 0.064127 -0.037024 -0.297440
v 0.064127 0.037024 -0.297440
v 0.000000 -0.074048 -0.297440
v 0.049236 0.028427 -0.297440
v 0.000000 0.056853 -0.297440
v 0.049236 0.028427 -0.324480
v 0.000000 0.056853 -0.324480
v -0.049236 -0.028427 -0.297440
v 0.000000 -0.056853 -0.297440
v -0.049236 -0.028427 -0.324480
v 0.000000 -0.056853 -0.324480
v -0.049236 0.028427 -0.297440
v -0.049236 0.028427 -0.324480
v 0.000000 0.074048 -0.297440
v -0.064127 -0.037024 -0.297440
v 0.049236 -0.028427 -0.324480
v 0.049236 -0.028427 -0.297440
v -0.064127 0.037024 -0.297440
v 0.012480 -0.012480 -0.324480
v -0.012480 -0.012480 -0.324480
v 0.012480 0.012480 -0.324480
v -0.012480 0.012480 -0.324480
vn -0.9025 0.3463 0.2562
vn -0.7999 -0.4618 0.3833
vn -0.7420 -0.1201 0.6596
vn -0.9582 -0.1120 -0.2633
vn -0.1659 0.9193 0.3569
vn -0.0000 0.9577 0.2877
vn 0.2546 0.3832 0.8879
vn 0.3371 0.6677 0.6638
vn 0.8491 0.4902 0.1968
vn -0.0000 0.3304 0.9439
vn 0.8782 0.3145 0.3602
vn 0.8422 -0.4862 0.2332
vn 0.9584 0.1104 -0.2634
vn 0.7466 0.0462 0.6636
vn -0.3639 0.7369 0.5697
vn -0.3282 0.1895 0.9254
vn -0.5553 -0.5553 -0.6191
vn 0.5553 0.5553 -0.6191
vn 0.5553 -0.5553 -0.6191
vn -0.4559 -0.0008 0.8900
vn 0.7457 0.0678 0.6629
vn 0.3371 -0.6677 0.6638
vn -0.2881 -0.6927 0.6613
vn 0.1659 -0.9193 0.3569
vn 0.6183 0.0371 -0.7851
vn 0.7081 0.4088 -0.5757
vn 0.2864 -0.5378 -0.7929
vn 0.2091 0.3878 -0.8977
vn 0.4035 0.6295 -0.6640
vn -0.0000 0.9592 -0.2828
vn -0.4388 -0.7262 -0.5292
vn -0.2094 -0.4447 -0.8708
vn -0.3024 -0.1746 -0.9371
vn -0.4449 0.0385 -0.8948
vn -0.2912 -0.4760 -0.8298
vn 0.2835 -0.1637 -0.9449
vn 0.7464 0.0506 -0.6635
vn 0.4883 0.0892 -0.8681
vn -0.5578 0.0145 -0.8298
vn 0.2155 -0.6136 -0.7597
vn 0.2764 -0.2764 -0.9204
vn -0.2764 -0.2764 -0.9204
vn 0.2764 0.2764 -0.9204
vn -0.2764 0.2764 -0.9204
vn -0.4261 0.3214 -0.8457
vn -0.2294 0.5107 -0.8286
vn -0.5553 0.5553 -0.6191
vn 0.3207 -0.3787 0.8682
vn -0.0000 -0.7514 0.6599
vn -0.7464 0.0506 0.6635
vt 0.968750 0.285582
vt 0.968750 0.417857
vt 0.968750 0.275000
vt 0.968750 0.475000
vt 0.968750 0.426323
vt 0.968750 0.440079
s 1
usemtl colormap.020
f 3/1/1 2/2/2 1/1/3
f 2/2/2 3/1/1 4/2/4
f 6/2/5 3/1/1 5/1/6
f 3/1/1 6/2/5 4/2/4
f 9/1/7 8/3/8 7/3/9
f 8/3/8 9/1/7 10/1/10
f 13/2/11 12/1/12 11/2/13
f 12/1/12 13/2/11 14/1/14
f 13/2/11 5/1/6 14/1/14
f 5/1/6 13/2/11 6/2/5
f 15/3/15 10/1/10 16/1/16
f 19/4/17 18/4/18 17/4/19
f 22/1/20 15/3/15 16/1/16
f 8/3/8 23/3/21 7/3/9
f 23/3/21 8/3/8 24/3/22
f 24/3/22 8/3/8 15/3/15
f 2/2/2 27/1/23 1/1/3
f 28/2/24 12/1/12 27/1/23
f 12/1/12 28/2/24 11/2/13
f 29/5/25 13/2/11 11/2/13
f 13/2/11 29/5/25 30/5/26
f 31/5/27 11/2/13 28/2/24
f 11/2/13 31/5/27 29/5/25
f 33/5/28 34/6/29 35/6/30
f 38/6/31 37/5/32 36/5/33
f 40/5/34 38/6/31 36/5/33
f 28/2/24 43/5/35 31/5/27
f 34/6/29 45/5/36 44/6/37
f 45/5/36 34/6/29 32/5/38
f 43/5/35 4/2/4 46/5/39
f 39/6/40 34/6/29 44/6/37
f 34/6/29 39/6/40 47/6/41
f 47/6/41 39/6/40 48/6/42
f 49/6/43 34/6/29 47/6/41
f 48/6/42 38/6/31 50/6/44
f 41/6/45 50/6/44 38/6/31
f 39/6/40 45/5/36 37/5/32
f 4/2/4 42/5/46 46/5/39
f 17/4/19 49/6/43 47/6/41
f 49/6/43 17/4/19 18/4/18
f 18/4/18 50/6/44 49/6/43
f 50/6/44 18/4/18 20/4/47
f 27/1/23 26/1/48 25/1/49
f 12/1/12 26/1/48 27/1/23
f 16/1/16 3/1/1 1/1/3
f 10/1/10 3/1/1 16/1/16
f 10/1/10 5/1/6 3/1/1
f 26/1/48 12/1/12 9/1/7
f 9/1/7 5/1/6 10/1/10
f 36/5/33 43/5/35 40/5/34
f 42/5/46 32/5/38 33/5/28
f 37/5/32 43/5/35 36/5/33
f 30/5/26 32/5/38 42/5/46
f 37/5/32 31/5/27 43/5/35
f 45/5/36 29/5/25 31/5/27
f 10/1/10 15/3/15 8/3/8
f 18/4/18 19/4/17 20/4/47
f 15/3/15 22/1/20 21/3/50
f 24/3/22 15/3/15 21/3/50
f 22/1/20 24/3/22 21/3/50
f 24/3/22 22/1/20 25/1/49
f 9/1/7 23/3/21 26/1/48
f 23/3/21 9/1/7 7/3/9
f 25/1/49 23/3/21 24/3/22
f 23/3/21 25/1/49 26/1/48
f 27/1/23 2/2/2 28/2/24
f 34/6/29 33/5/28 32/5/38
f 37/5/32 38/6/31 39/6/40
f 38/6/31 40/5/34 41/6/45
f 30/5/26 6/2/5 13/2/11
f 6/2/5 30/5/26 42/5/46
f 43/5/35 28/2/24 2/2/2
f 4/2/4 43/5/35 2/2/2
f 48/6/42 39/6/40 38/6/31
f 34/6/29 49/6/43 35/6/30
f 35/6/30 49/6/43 50/6/44
f 35/6/30 50/6/44 41/6/45
f 45/5/36 39/6/40 44/6/37
f 35/6/30 40/5/34 33/5/28
f 40/5/34 35/6/30 41/6/45
f 42/5/46 4/2/4 6/2/5
f 19/4/17 47/6/41 48/6/42
f 47/6/41 19/4/17 17/4/19
f 50/6/44 19/4/17 48/6/42
f 19/4/17 50/6/44 20/4/47
f 27/1/23 25/1/49 22/1/20
f 27/1/23 22/1/20 1/1/3
f 1/1/3 22/1/20 16/1/16
f 14/1/14 9/1/7 12/1/12
f 9/1/7 14/1/14 5/1/6
f 42/5/46 40/5/34 46/5/39
f 46/5/39 40/5/34 43/5/35
f 42/5/46 33/5/28 40/5/34
f 32/5/38 30/5/26 45/5/36
f 45/5/36 31/5/27 37/5/32
f 29/5/25 45/5/36 30/5/26
