# Blender 4.3.2
# www.blender.org
mtllib floorFull.217.mtl
o floorFull.217
v 17.000000 10.000000 -0.050000
v 17.000000 10.000000 0.000000
v 17.000000 11.000000 -0.050000
v 16.000000 10.000000 -0.050000
v 16.000000 11.000000 -0.050000
v 16.000000 10.000000 0.000000
v 16.000000 11.000000 0.000000
v 17.000000 11.000000 0.000000
vn -0.5773 -0.5773 -0.5774
vn 0.5774 -0.5774 -0.5774
vn 0.5773 -0.5773 0.5774
vn 0.5773 0.5773 -0.5774
vn -0.5774 0.5774 -0.5774
vn -0.5773 0.5773 0.5774
vn -0.5774 -0.5774 0.5774
vn 0.5774 0.5774 0.5774
vt 39.370079 1.968504
vt 0.000000 1.968504
vt 0.000000 0.000000
vt -39.370079 1.968504
vt 0.000000 39.370079
vt 39.370079 0.000000
vt 39.370079 39.370079
vt -39.370079 39.370079
vt -39.370079 0.000000
s 1
usemtl wood
f 4/1/1 1/2/2 2/3/3
f 2/3/3 1/2/2 3/4/4
f 3/5/4 1/3/2 4/6/1
f 4/6/1 5/7/5 3/5/4
f 7/6/6 5/1/5 4/2/1
f 2/3/3 6/6/7 4/1/1
f 4/2/1 6/3/7 7/6/6
f 7/8/6 6/9/7 2/3/3
f 2/3/3 8/5/8 7/8/6
f 7/9/6 8/3/8 3/2/4
f 3/2/4 5/4/5 7/9/6
f 3/4/4 8/9/8 2/3/3
