# Blender 4.3.2
# www.blender.org
mtllib shelf-end.mtl
o shelf-end
v -0.350000 -0.301109 -0.800000
v -0.400000 -0.301109 -0.750000
v -0.350000 -0.401109 -0.800000
v -0.400000 -0.401109 -0.750000
v 0.400000 -0.401109 -0.750000
v 0.400000 -0.401109 0.000000
v 0.400000 -0.301109 -0.750000
v 0.400000 -0.301109 -0.000000
v 0.350000 -0.401109 -0.800000
v 0.350000 -0.301109 -0.800000
v -0.400000 -0.401109 -0.000000
v -0.400000 -0.301109 -0.000000
v 0.400000 -0.001109 -0.000000
v 0.300000 -0.001109 -0.000000
v 0.400000 -0.001109 -0.050000
v 0.300000 -0.001109 -0.050000
v 0.400000 -0.301109 -0.100000
v 0.300000 -0.301109 -0.100000
v 0.300000 -0.301109 -0.000000
v 0.400000 -0.301109 -0.000000
v 0.350000 -0.030399 -0.550000
v -0.350000 -0.030399 -0.550000
v 0.350000 -0.065754 -0.585355
v -0.350000 -0.065754 -0.585355
v 0.350000 -0.301109 -0.500000
v 0.350000 -0.301109 -0.550000
v -0.350000 -0.301109 -0.500000
v -0.350000 -0.301109 -0.550000
v 0.350000 -0.101109 -0.550000
v -0.350000 -0.101109 -0.550000
v 0.350000 -0.065754 -0.514645
v 0.350000 -0.101109 -0.500000
v -0.350000 -0.065754 -0.514645
v -0.350000 -0.101109 -0.500000
v -0.300000 -0.001109 -0.000000
v -0.400000 -0.001109 -0.000000
v -0.300000 -0.001109 -0.050000
v -0.400000 -0.001109 -0.050000
v -0.300000 -0.301109 -0.100000
v -0.400000 -0.301109 -0.100000
v -0.300000 -0.301109 -0.000000
v 0.350000 -0.030399 -0.175000
v -0.350000 -0.030399 -0.175000
v 0.350000 -0.065754 -0.210355
v -0.350000 -0.065754 -0.210355
v 0.350000 -0.301109 -0.125000
v 0.350000 -0.301109 -0.175000
v -0.350000 -0.301109 -0.125000
v -0.350000 -0.301109 -0.175000
v 0.350000 -0.101109 -0.175000
v -0.350000 -0.101109 -0.175000
v 0.350000 -0.065754 -0.139645
v 0.350000 -0.101109 -0.125000
v -0.350000 -0.065754 -0.139645
v -0.350000 -0.101109 -0.125000
v 0.271939 -0.201109 -0.550000
v 0.252022 -0.249193 -0.550000
v 0.252022 -0.153026 -0.550000
v 0.203939 -0.133109 -0.550000
v 0.203939 -0.269109 -0.550000
v 0.155856 -0.153026 -0.550000
v 0.155856 -0.249193 -0.550000
v 0.135939 -0.201109 -0.550000
v 0.155856 -0.249193 -0.686000
v 0.203939 -0.269109 -0.686000
v 0.252022 -0.249193 -0.686000
v 0.203939 -0.133109 -0.686000
v 0.155856 -0.153026 -0.686000
v 0.203939 -0.163030 -0.754000
v 0.177012 -0.174183 -0.754000
v 0.177012 -0.228036 -0.754000
v 0.203939 -0.239190 -0.754000
v 0.252022 -0.153026 -0.686000
v 0.230866 -0.174183 -0.754000
v 0.135939 -0.201109 -0.686000
v 0.165859 -0.201109 -0.754000
v 0.271939 -0.201109 -0.686000
v 0.230866 -0.228036 -0.754000
v 0.242019 -0.201109 -0.754000
v 0.160528 -0.201109 -0.822000
v 0.173243 -0.170413 -0.822000
v 0.203939 -0.244521 -0.822000
v 0.234635 -0.231806 -0.822000
v 0.247350 -0.201109 -0.822000
v 0.234635 -0.170413 -0.822000
v 0.203939 -0.157698 -0.822000
v 0.173243 -0.231806 -0.822000
v 0.068000 -0.201109 -0.550000
v 0.048083 -0.249193 -0.550000
v 0.048083 -0.153026 -0.550000
v -0.000000 -0.133109 -0.550000
v -0.000000 -0.269109 -0.550000
v -0.048083 -0.153026 -0.550000
v -0.048083 -0.249193 -0.550000
v -0.068000 -0.201109 -0.550000
v -0.048083 -0.249193 -0.686000
v -0.000000 -0.269109 -0.686000
v 0.048083 -0.249193 -0.686000
v -0.000000 -0.133109 -0.686000
v -0.048083 -0.153026 -0.686000
v -0.000000 -0.163030 -0.754000
v -0.026927 -0.174183 -0.754000
v -0.026927 -0.228036 -0.754000
v -0.000000 -0.239190 -0.754000
v 0.048083 -0.153026 -0.686000
v 0.026927 -0.174183 -0.754000
v -0.068000 -0.201109 -0.686000
v -0.038080 -0.201109 -0.754000
v 0.068000 -0.201109 -0.686000
v 0.026927 -0.228036 -0.754000
v 0.038080 -0.201109 -0.754000
v -0.043411 -0.201109 -0.822000
v -0.030696 -0.170413 -0.822000
v -0.000000 -0.244521 -0.822000
v 0.030696 -0.231806 -0.822000
v 0.043411 -0.201109 -0.822000
v 0.030696 -0.170413 -0.822000
v -0.000000 -0.157698 -0.822000
v -0.030696 -0.231806 -0.822000
v -0.135939 -0.201109 -0.550000
v -0.155856 -0.249193 -0.550000
v -0.155856 -0.153026 -0.550000
v -0.203939 -0.133109 -0.550000
v -0.203939 -0.269109 -0.550000
v -0.252022 -0.153026 -0.550000
v -0.252022 -0.249193 -0.550000
v -0.271939 -0.201109 -0.550000
v -0.252022 -0.249193 -0.686000
v -0.203939 -0.269109 -0.686000
v -0.155856 -0.249193 -0.686000
v -0.203939 -0.133109 -0.686000
v -0.252022 -0.153026 -0.686000
v -0.203939 -0.163030 -0.754000
v -0.230866 -0.174183 -0.754000
v -0.230866 -0.228036 -0.754000
v -0.203939 -0.239190 -0.754000
v -0.155856 -0.153026 -0.686000
v -0.177012 -0.174183 -0.754000
v -0.271939 -0.201109 -0.686000
v -0.242019 -0.201109 -0.754000
v -0.135939 -0.201109 -0.686000
v -0.177012 -0.228036 -0.754000
v -0.165859 -0.201109 -0.754000
v -0.247350 -0.201109 -0.822000
v -0.234635 -0.170413 -0.822000
v -0.203939 -0.244521 -0.822000
v -0.173243 -0.231806 -0.822000
v -0.160528 -0.201109 -0.822000
v -0.173243 -0.170413 -0.822000
v -0.203939 -0.157698 -0.822000
v -0.234635 -0.231806 -0.822000
v 0.203939 -0.162526 -0.392325
v 0.126970 -0.124140 -0.372246
v 0.203939 -0.124140 -0.434255
v 0.280908 -0.124140 -0.372246
v 0.126970 -0.278079 -0.372246
v 0.203939 -0.239693 -0.392325
v 0.203939 -0.278079 -0.434255
v 0.280908 -0.278079 -0.372246
v 0.280908 -0.124140 -0.175000
v 0.280908 -0.278079 -0.175000
v 0.126970 -0.124140 -0.175000
v 0.126970 -0.278079 -0.175000
v 0.203939 -0.278079 -0.447824
v 0.203939 -0.264510 -0.461393
v 0.203939 -0.137709 -0.461393
v 0.203939 -0.124140 -0.447824
v -0.000000 -0.162526 -0.392325
v -0.076969 -0.124140 -0.372246
v -0.000000 -0.124140 -0.434255
v 0.076969 -0.124140 -0.372246
v -0.076970 -0.278079 -0.372246
v -0.000000 -0.239693 -0.392325
v -0.000000 -0.278079 -0.434255
v 0.076969 -0.278079 -0.372246
v 0.076969 -0.124140 -0.175000
v 0.076969 -0.278079 -0.175000
v -0.076969 -0.124140 -0.175000
v -0.076970 -0.278079 -0.175000
v -0.000000 -0.278079 -0.447824
v -0.000000 -0.264510 -0.461393
v -0.000000 -0.137709 -0.461393
v -0.000000 -0.124140 -0.447824
v -0.203939 -0.162526 -0.392325
v -0.280908 -0.124140 -0.372246
v -0.203939 -0.124140 -0.434255
v -0.126970 -0.124140 -0.372246
v -0.280908 -0.278079 -0.372246
v -0.203939 -0.239693 -0.392325
v -0.203939 -0.278079 -0.434255
v -0.126970 -0.278079 -0.372246
v -0.126970 -0.124140 -0.175000
v -0.126970 -0.278079 -0.175000
v -0.280908 -0.124140 -0.175000
v -0.280908 -0.278079 -0.175000
v -0.203939 -0.278079 -0.447824
v -0.203939 -0.264510 -0.461393
v -0.203939 -0.137709 -0.461393
v -0.203939 -0.124140 -0.447824
v 0.325000 -0.376110 -1.050000
v 0.325000 -0.326109 -1.050000
v -0.325000 -0.376110 -1.050000
v -0.325000 -0.326109 -1.050000
v -0.325000 -0.376110 -0.800000
v -0.325000 -0.326109 -0.800000
v 0.325000 -0.376110 -0.800000
v 0.325000 -0.326109 -0.800000
vn -0.5948 -0.3821 -0.7073
vn -0.5282 0.6601 -0.5342
vn -0.3646 0.3038 -0.8802
vn -0.8246 -0.4509 -0.3416
vn 0.7689 0.6383 -0.0383
vn 0.5773 -0.5773 0.5774
vn 0.8475 -0.3981 -0.3510
vn 0.5774 0.5774 0.5774
vn 0.5377 0.4410 -0.7186
vn 0.3546 -0.3760 -0.8561
vn -0.5773 0.5774 0.5773
vn -0.5773 -0.5774 0.5773
vn 0.0288 0.9319 -0.3616
vn -0.5773 0.5773 0.5774
vn 0.5774 0.5774 0.5773
vn -0.6668 0.1225 -0.7351
vn -0.6857 0.0306 -0.7273
vn 0.5773 -0.0000 -0.8165
vn -0.5773 0.8165 -0.0000
vn 0.5774 0.8165 -0.0000
vn 0.5774 -0.5774 -0.5773
vn 0.5773 -0.5774 0.5773
vn -0.5773 -0.5774 -0.5774
vn 0.8042 -0.2275 -0.5491
vn -0.5774 -0.0000 -0.8165
vn -0.8042 -0.2275 -0.5491
vn -0.5620 0.4516 0.6930
vn 0.6728 0.2700 0.6888
vn 0.5432 0.4665 0.6981
vn -0.5646 0.1610 0.8095
vn -0.6857 0.7224 0.0893
vn 0.6669 0.1225 -0.7351
vn -0.7071 -0.0000 0.7071
vn 0.7071 -0.0000 0.7071
vn 0.5620 0.1707 0.8093
vn -0.6728 0.2961 0.6780
vn 0.6729 0.2756 0.6865
vn -0.0000 -0.0000 1.0000
vn -0.7071 -0.7071 -0.0000
vn -0.0000 -1.0000 -0.0000
vn 0.7071 -0.7071 -0.0000
vn -0.0000 0.9153 -0.4027
vn -0.6472 0.6472 -0.4027
vn -0.6472 -0.6472 -0.4027
vn -0.0000 -0.9153 -0.4027
vn 0.6472 0.6472 -0.4027
vn -0.9153 -0.0000 -0.4027
vn 0.7071 0.7071 -0.0000
vn 1.0000 -0.0000 -0.0000
vn -0.0000 1.0000 -0.0000
vn 0.6472 -0.6472 -0.4027
vn 0.9153 -0.0000 -0.4027
vn -1.0000 -0.0000 -0.0000
vn -0.7071 0.7071 -0.0000
vn -0.7049 0.7049 0.0782
vn -0.9969 -0.0000 0.0782
vn -0.0000 -0.9969 0.0782
vn 0.7049 -0.7049 0.0782
vn -0.0000 -0.0000 -1.0000
vn -0.7050 -0.7049 0.0782
vn -0.7049 -0.7049 0.0782
vn 0.7050 0.7049 0.0782
vn -0.0000 0.9969 0.0782
vn 0.7049 0.7049 0.0782
vn 0.9969 -0.0000 0.0782
vn 0.4779 0.6479 0.5932
vn -0.0000 0.4635 -0.8861
vn -0.4779 0.6479 0.5932
vn 0.4779 -0.6479 0.5932
vn -0.4779 -0.6479 0.5932
vn -0.0000 -0.4635 -0.8861
vn -0.6274 -0.0000 -0.7787
vn 0.6274 -0.0000 -0.7787
vt 0.218750 0.225000
vt 0.218750 0.212500
vt 0.218750 0.025000
vt 0.468750 0.212500
vt 0.468750 0.025000
vt 0.468750 0.225000
vt 0.468750 0.125000
vt 0.468750 0.142157
vt 0.468750 0.025000
vt 0.468750 0.059315
vt 0.468750 0.059315
vt 0.843750 0.275000
vt 0.843750 0.375000
vt 0.843750 0.425000
vt 0.718750 0.175000
vt 0.718750 0.225000
vt 0.593750 0.206049
vt 0.593750 0.162745
vt 0.593750 0.176767
vt 0.593750 0.025000
vt 0.093750 0.525000
vt 0.093750 0.662745
vt 0.593750 0.215524
vt 0.593750 0.225000
vt 0.218750 0.025000
vt 0.218750 0.475000
vt 0.218750 0.275000
s 1
usemtl colormap.013
f 3/1/1 2/2/2 1/1/3
f 2/2/2 3/1/1 4/2/4
f 7/2/5 6/3/6 5/2/7
f 6/3/6 7/2/5 8/3/8
f 10/1/9 5/2/7 9/1/10
f 5/2/7 10/1/9 7/2/5
f 9/1/10 1/1/3 10/1/9
f 7/4/5 12/5/11 8/5/8
f 11/5/12 5/4/7 6/5/6
f 5/4/7 11/5/12 4/4/4
f 5/4/7 4/4/4 9/6/10
f 9/6/10 4/4/4 3/6/1
f 12/5/11 6/5/6 8/5/8
f 6/5/6 12/5/11 11/5/12
f 15/7/13 14/5/14 13/5/15
f 18/6/16 14/5/14 16/7/17
f 23/6/18 22/8/19 21/8/20
f 27/9/12 26/8/21 25/5/22
f 26/8/21 27/9/12 28/8/23
f 29/8/24 24/6/25 23/6/18
f 24/6/25 29/8/24 30/8/26
f 33/10/27 32/5/28 31/11/29
f 32/5/28 33/10/27 34/9/30
f 29/8/24 25/5/22 26/8/21
f 25/5/22 29/8/24 32/5/28
f 32/5/28 23/6/18 31/11/29
f 31/11/29 23/6/18 21/8/20
f 34/9/30 25/5/22 32/5/28
f 25/5/22 34/9/30 27/9/12
f 34/9/30 28/8/23 27/9/12
f 28/8/23 34/9/30 30/8/26
f 30/8/26 34/9/30 33/10/27
f 30/8/26 33/10/27 24/6/25
f 24/6/25 33/10/27 22/8/19
f 22/8/19 31/11/29 21/8/20
f 31/11/29 22/8/19 33/10/27
f 26/8/21 30/8/26 29/8/24
f 30/8/26 26/8/21 28/8/23
f 37/7/13 36/5/14 35/5/15
f 36/5/14 37/7/13 38/7/31
f 40/6/16 37/7/13 39/6/32
f 37/7/13 40/6/16 38/7/31
f 36/5/14 40/6/16 12/5/33
f 40/6/16 36/5/14 38/7/31
f 41/5/34 37/7/13 35/5/15
f 35/5/15 12/5/33 41/5/34
f 12/5/33 35/5/15 36/5/14
f 44/6/18 43/8/19 42/8/20
f 43/8/19 44/6/18 45/6/25
f 48/9/12 47/8/21 46/5/22
f 50/8/24 45/6/25 44/6/18
f 53/5/35 54/10/36 55/9/30
f 46/5/22 50/8/24 53/5/35
f 53/5/35 44/6/18 52/11/37
f 52/11/37 44/6/18 42/8/20
f 55/9/30 46/5/22 53/5/35
f 46/5/22 55/9/30 48/9/12
f 55/9/30 49/8/23 48/9/12
f 49/8/23 55/9/30 51/8/26
f 51/8/26 55/9/30 54/10/36
f 51/8/26 54/10/36 45/6/25
f 45/6/25 54/10/36 43/8/19
f 43/8/19 52/11/37 42/8/20
f 52/11/37 43/8/19 54/10/36
f 47/8/21 51/8/26 50/8/24
f 1/1/3 9/1/10 3/1/1
f 11/3/12 2/2/2 4/2/4
f 2/2/2 11/3/12 12/3/11
f 12/5/11 7/4/5 2/4/2
f 2/4/2 7/4/5 10/6/9
f 2/4/2 10/6/9 1/6/3
f 14/5/14 15/7/13 16/7/17
f 18/6/16 15/7/13 17/6/32
f 15/7/13 18/6/16 16/7/17
f 14/5/14 18/6/16 19/5/33
f 15/7/13 20/5/34 17/6/32
f 20/5/34 15/7/13 13/5/15
f 13/5/15 19/5/33 20/5/34
f 19/5/33 13/5/15 14/5/14
f 22/8/19 23/6/18 24/6/25
f 32/5/28 29/8/24 23/6/18
f 37/7/13 41/5/34 39/6/32
f 47/8/21 48/9/12 49/8/23
f 45/6/25 50/8/24 51/8/26
f 54/10/36 53/5/35 52/11/37
f 50/8/24 46/5/22 47/8/21
f 53/5/35 50/8/24 44/6/18
f 51/8/26 47/8/21 49/8/23
f 58/12/38 57/12/38 56/12/38
f 57/12/38 58/12/38 59/12/38
f 57/12/38 59/12/38 60/12/38
f 60/12/38 59/12/38 61/12/38
f 60/12/38 61/12/38 62/12/38
f 62/12/38 61/12/38 63/12/38
f 64/13/39 60/12/40 62/12/39
f 60/12/40 64/13/39 65/13/40
f 65/13/40 57/12/41 60/12/40
f 57/12/41 65/13/40 66/13/41
f 69/14/42 68/13/43 67/13/42
f 68/13/43 69/14/42 70/14/43
f 71/14/44 65/13/45 64/13/44
f 65/13/45 71/14/44 72/14/45
f 74/14/46 67/13/42 73/13/46
f 67/13/42 74/14/46 69/14/42
f 68/13/43 76/14/47 75/13/47
f 76/14/47 68/13/43 70/14/43
f 73/13/48 56/12/49 77/13/49
f 56/12/49 73/13/48 58/12/48
f 73/13/48 59/12/50 58/12/48
f 59/12/50 73/13/48 67/13/50
f 78/14/51 77/13/52 66/13/51
f 77/13/52 78/14/51 79/14/52
f 63/12/53 64/13/39 62/12/39
f 64/13/39 63/12/53 75/13/53
f 74/14/46 77/13/52 79/14/52
f 77/13/52 74/14/46 73/13/46
f 61/12/54 75/13/53 63/12/53
f 75/13/53 61/12/54 68/13/54
f 72/14/45 66/13/51 65/13/45
f 66/13/51 72/14/45 78/14/51
f 77/13/49 57/12/41 66/13/41
f 57/12/41 77/13/49 56/12/49
f 67/13/50 61/12/54 59/12/50
f 61/12/54 67/13/50 68/13/54
f 75/13/47 71/14/44 64/13/44
f 71/14/44 75/13/47 76/14/47
f 70/15/55 80/16/56 76/15/56
f 80/16/56 70/15/55 81/16/55
f 82/16/57 78/15/58 72/15/57
f 78/15/58 82/16/57 83/16/58
f 83/16/59 85/16/59 84/16/59
f 85/16/59 83/16/59 82/16/59
f 85/16/59 82/16/59 86/16/59
f 86/16/59 82/16/59 87/16/59
f 86/16/59 87/16/59 81/16/59
f 81/16/59 87/16/59 80/16/59
f 87/16/60 72/15/57 71/15/61
f 72/15/57 87/16/60 82/16/57
f 85/16/62 69/15/63 74/15/64
f 69/15/63 85/16/62 86/16/63
f 71/15/61 80/16/56 87/16/60
f 80/16/56 71/15/61 76/15/56
f 86/16/63 70/15/55 69/15/63
f 70/15/55 86/16/63 81/16/55
f 84/16/65 78/15/58 83/16/58
f 78/15/58 84/16/65 79/15/65
f 84/16/65 74/15/64 79/15/65
f 74/15/64 84/16/65 85/16/62
f 90/12/38 89/12/38 88/12/38
f 89/12/38 90/12/38 91/12/38
f 89/12/38 91/12/38 92/12/38
f 92/12/38 91/12/38 93/12/38
f 92/12/38 93/12/38 94/12/38
f 94/12/38 93/12/38 95/12/38
f 96/13/39 92/12/40 94/12/39
f 92/12/40 96/13/39 97/13/40
f 97/13/40 89/12/41 92/12/40
f 89/12/41 97/13/40 98/13/41
f 101/14/42 100/13/43 99/13/42
f 100/13/43 101/14/42 102/14/43
f 103/14/44 97/13/45 96/13/44
f 97/13/45 103/14/44 104/14/45
f 106/14/46 99/13/42 105/13/46
f 99/13/42 106/14/46 101/14/42
f 100/13/43 108/14/47 107/13/47
f 108/14/47 100/13/43 102/14/43
f 105/13/48 88/12/49 109/13/49
f 88/12/49 105/13/48 90/12/48
f 105/13/48 91/12/50 90/12/48
f 91/12/50 105/13/48 99/13/50
f 110/14/51 109/13/52 98/13/51
f 109/13/52 110/14/51 111/14/52
f 95/12/53 96/13/39 94/12/39
f 96/13/39 95/12/53 107/13/53
f 106/14/46 109/13/52 111/14/52
f 109/13/52 106/14/46 105/13/46
f 93/12/54 107/13/53 95/12/53
f 107/13/53 93/12/54 100/13/54
f 104/14/45 98/13/51 97/13/45
f 98/13/51 104/14/45 110/14/51
f 109/13/49 89/12/41 98/13/41
f 89/12/41 109/13/49 88/12/49
f 99/13/50 93/12/54 91/12/50
f 93/12/54 99/13/50 100/13/54
f 107/13/47 103/14/44 96/13/44
f 103/14/44 107/13/47 108/14/47
f 102/15/55 112/16/56 108/15/56
f 112/16/56 102/15/55 113/16/55
f 114/16/57 110/15/58 104/15/57
f 110/15/58 114/16/57 115/16/58
f 115/16/59 117/16/59 116/16/59
f 117/16/59 115/16/59 114/16/59
f 117/16/59 114/16/59 118/16/59
f 118/16/59 114/16/59 119/16/59
f 118/16/59 119/16/59 113/16/59
f 113/16/59 119/16/59 112/16/59
f 119/16/60 104/15/57 103/15/61
f 104/15/57 119/16/60 114/16/57
f 117/16/62 101/15/63 106/15/64
f 101/15/63 117/16/62 118/16/63
f 103/15/61 112/16/56 119/16/60
f 112/16/56 103/15/61 108/15/56
f 118/16/63 102/15/55 101/15/63
f 102/15/55 118/16/63 113/16/55
f 116/16/65 110/15/58 115/16/58
f 110/15/58 116/16/65 111/15/65
f 116/16/65 106/15/64 111/15/65
f 106/15/64 116/16/65 117/16/62
f 122/12/38 121/12/38 120/12/38
f 121/12/38 122/12/38 123/12/38
f 121/12/38 123/12/38 124/12/38
f 124/12/38 123/12/38 125/12/38
f 124/12/38 125/12/38 126/12/38
f 126/12/38 125/12/38 127/12/38
f 128/13/39 124/12/40 126/12/39
f 124/12/40 128/13/39 129/13/40
f 129/13/40 121/12/41 124/12/40
f 121/12/41 129/13/40 130/13/41
f 133/14/42 132/13/43 131/13/42
f 132/13/43 133/14/42 134/14/43
f 135/14/44 129/13/45 128/13/44
f 129/13/45 135/14/44 136/14/45
f 138/14/46 131/13/42 137/13/46
f 131/13/42 138/14/46 133/14/42
f 132/13/43 140/14/47 139/13/47
f 140/14/47 132/13/43 134/14/43
f 137/13/48 120/12/49 141/13/49
f 120/12/49 137/13/48 122/12/48
f 137/13/48 123/12/50 122/12/48
f 123/12/50 137/13/48 131/13/50
f 142/14/51 141/13/52 130/13/51
f 141/13/52 142/14/51 143/14/52
f 127/12/53 128/13/39 126/12/39
f 128/13/39 127/12/53 139/13/53
f 138/14/46 141/13/52 143/14/52
f 141/13/52 138/14/46 137/13/46
f 125/12/54 139/13/53 127/12/53
f 139/13/53 125/12/54 132/13/54
f 136/14/45 130/13/51 129/13/45
f 130/13/51 136/14/45 142/14/51
f 141/13/49 121/12/41 130/13/41
f 121/12/41 141/13/49 120/12/49
f 131/13/50 125/12/54 123/12/50
f 125/12/54 131/13/50 132/13/54
f 139/13/47 135/14/44 128/13/44
f 135/14/44 139/13/47 140/14/47
f 134/15/55 144/16/56 140/15/56
f 144/16/56 134/15/55 145/16/55
f 146/16/57 142/15/58 136/15/57
f 142/15/58 146/16/57 147/16/58
f 147/16/59 149/16/59 148/16/59
f 149/16/59 147/16/59 146/16/59
f 149/16/59 146/16/59 150/16/59
f 150/16/59 146/16/59 151/16/59
f 150/16/59 151/16/59 145/16/59
f 145/16/59 151/16/59 144/16/59
f 151/16/60 136/15/57 135/15/61
f 136/15/57 151/16/60 146/16/57
f 149/16/62 133/15/63 138/15/64
f 133/15/63 149/16/62 150/16/63
f 135/15/61 144/16/56 151/16/60
f 144/16/56 135/15/61 140/15/56
f 150/16/63 134/15/55 133/15/63
f 134/15/55 150/16/63 145/16/55
f 148/16/65 142/15/58 147/16/58
f 142/15/58 148/16/65 143/15/65
f 148/16/65 138/15/64 143/15/65
f 138/15/64 148/16/65 149/16/62
f 154/17/66 153/18/66 152/19/66
f 153/18/67 155/18/67 152/19/67
f 154/17/68 152/19/68 155/18/68
f 158/17/69 157/19/69 156/18/69
f 158/17/70 159/18/70 157/19/70
f 156/18/71 157/19/71 159/18/71
f 162/20/38 161/20/38 160/20/38
f 161/20/38 162/20/38 163/20/38
f 158/17/72 153/18/72 154/17/72
f 153/18/72 158/17/72 156/18/72
f 159/18/73 154/17/73 155/18/73
f 154/17/73 159/18/73 158/17/73
f 162/21/53 156/22/53 163/21/53
f 156/22/53 162/21/53 153/22/53
f 155/22/49 161/21/49 159/22/49
f 161/21/49 155/22/49 160/21/49
f 156/22/40 161/21/40 163/21/40
f 161/21/40 156/22/40 159/22/40
f 155/22/50 162/21/50 160/21/50
f 162/21/50 155/22/50 153/22/50
f 154/17/53 164/23/53 158/17/53
f 164/23/53 154/17/53 165/24/53
f 165/24/53 154/17/53 166/24/53
f 166/24/53 154/17/53 167/23/53
f 170/17/66 169/18/66 168/19/66
f 169/18/67 171/18/67 168/19/67
f 170/17/68 168/19/68 171/18/68
f 174/17/69 173/19/69 172/18/69
f 174/17/70 175/18/70 173/19/70
f 172/18/71 173/19/71 175/18/71
f 178/20/38 177/20/38 176/20/38
f 177/20/38 178/20/38 179/20/38
f 174/17/72 169/18/72 170/17/72
f 169/18/72 174/17/72 172/18/72
f 175/18/73 170/17/73 171/18/73
f 170/17/73 175/18/73 174/17/73
f 178/21/53 172/22/53 179/21/53
f 172/22/53 178/21/53 169/22/53
f 171/22/49 177/21/49 175/22/49
f 177/21/49 171/22/49 176/21/49
f 172/22/40 177/21/40 179/21/40
f 177/21/40 172/22/40 175/22/40
f 171/22/50 178/21/50 176/21/50
f 178/21/50 171/22/50 169/22/50
f 170/17/53 180/23/53 174/17/53
f 180/23/53 170/17/53 181/24/53
f 181/24/53 170/17/53 182/24/53
f 182/24/53 170/17/53 183/23/53
f 186/17/66 185/18/66 184/19/66
f 185/18/67 187/18/67 184/19/67
f 186/17/68 184/19/68 187/18/68
f 190/17/69 189/19/69 188/18/69
f 190/17/70 191/18/70 189/19/70
f 188/18/71 189/19/71 191/18/71
f 194/20/38 193/20/38 192/20/38
f 193/20/38 194/20/38 195/20/38
f 190/17/72 185/18/72 186/17/72
f 185/18/72 190/17/72 188/18/72
f 191/18/73 186/17/73 187/18/73
f 186/17/73 191/18/73 190/17/73
f 194/21/53 188/22/53 195/21/53
f 188/22/53 194/21/53 185/22/53
f 187/22/49 193/21/49 191/22/49
f 193/21/49 187/22/49 192/21/49
f 188/22/40 193/21/40 195/21/40
f 193/21/40 188/22/40 191/22/40
f 187/22/50 194/21/50 192/21/50
f 194/21/50 187/22/50 185/22/50
f 186/17/53 196/23/53 190/17/53
f 196/23/53 186/17/53 197/24/53
f 197/24/53 186/17/53 198/24/53
f 198/24/53 186/17/53 199/23/53
f 202/1/59 201/1/59 200/1/59
f 201/1/59 202/1/59 203/1/59
f 204/25/53 203/1/53 202/1/53
f 203/1/53 204/25/53 205/25/53
f 201/1/49 206/3/49 200/1/49
f 206/3/49 201/1/49 207/25/49
f 201/26/50 205/27/50 207/27/50
f 205/27/50 201/26/50 203/26/50
f 204/27/40 200/26/40 206/27/40
f 200/26/40 204/27/40 202/26/40
