# Blender 4.3.2
# www.blender.org
mtllib coffin-old.mtl
o coffin-old.001
v -0.184451 0.149889 -0.175612
v -0.209892 0.036411 -0.205200
v -0.205678 0.154648 -0.175612
v -0.231120 0.041170 -0.205200
v 0.080305 -0.500000 -0.205200
v 0.047623 -0.500000 -0.167359
v 0.080305 -0.478246 -0.205200
v 0.047623 -0.478246 -0.167359
v -0.229796 -0.310046 -0.137273
v -0.247847 -0.322187 -0.137273
v -0.255923 -0.271201 -0.205200
v -0.273974 -0.283342 -0.205200
v 0.001804 -0.478246 -0.205200
v 0.001804 -0.500000 -0.205200
v 0.169349 0.316686 -0.171801
v 0.148122 0.311927 -0.171801
v 0.154902 0.381123 -0.126643
v 0.133675 0.376364 -0.126643
v 0.116665 -0.478246 -0.205200
v 0.116665 -0.478246 -0.186500
v 0.097021 -0.478246 -0.186500
v 0.097021 -0.478246 -0.035200
v -0.093795 -0.478246 -0.186500
v -0.093795 -0.478246 -0.035200
v -0.116665 -0.478246 -0.205200
v -0.116665 -0.478246 -0.186500
v 0.252947 -0.275626 -0.186500
v 0.266399 -0.215626 -0.186500
v 0.273125 -0.245626 -0.186500
v 0.236399 -0.215626 -0.186500
v 0.236399 -0.275626 -0.186500
v 0.194919 0.202636 -0.144622
v 0.173692 0.197877 -0.144622
v 0.055532 0.478246 -0.035200
v 0.055532 0.454455 -0.186500
v 0.055532 0.454455 -0.035200
v 0.055532 0.478246 -0.186500
v -0.252947 -0.275626 -0.186500
v -0.236399 -0.275626 -0.035200
v -0.252947 -0.275626 -0.035200
v -0.236399 -0.275626 -0.186500
v -0.153795 -0.423042 -0.035200
v -0.153795 -0.423042 -0.186500
v -0.188315 -0.371718 -0.166465
v -0.170670 -0.397952 -0.205200
v -0.208495 -0.341715 -0.183570
v -0.273125 -0.245626 -0.186500
v -0.273125 -0.245626 -0.205200
v -0.296400 -0.250000 -0.205200
v 0.110833 0.478246 -0.186500
v 0.110833 0.478246 -0.205200
v -0.055532 0.478246 -0.186500
v -0.110833 0.478246 -0.186500
v -0.110833 0.478246 -0.205200
v -0.055532 0.478246 -0.035200
v 0.116167 0.454455 -0.035200
v 0.116167 0.454455 -0.186500
v -0.266399 -0.215626 -0.035200
v -0.266399 -0.215626 -0.186500
v -0.237748 -0.087834 -0.035200
v -0.237748 -0.087834 -0.186500
v -0.220247 -0.009772 -0.186500
v -0.116167 0.454455 -0.035200
v -0.220247 -0.009772 -0.035200
v -0.160363 0.257328 -0.205200
v -0.116167 0.454455 -0.186500
v 0.128250 -0.500000 0.000000
v 0.128250 -0.500000 -0.205200
v 0.296400 -0.250000 0.000000
v 0.296400 -0.250000 -0.205200
v 0.273125 -0.245626 -0.205200
v 0.212325 0.125000 -0.205200
v 0.191098 0.120241 -0.205200
v 0.208475 -0.094397 -0.186500
v 0.220247 -0.009772 -0.186500
v 0.237748 -0.087834 -0.186500
v 0.190973 -0.016335 -0.186500
v 0.128250 0.500000 0.000000
v -0.128250 -0.500000 0.000000
v -0.128250 0.500000 0.000000
v -0.296400 -0.250000 0.000000
v 0.142834 0.434953 -0.205200
v 0.121606 0.430194 -0.205200
v -0.206366 -0.383859 -0.166465
v -0.226546 -0.353856 -0.183570
v -0.236399 -0.215626 -0.186500
v -0.128250 -0.500000 -0.205200
v -0.188721 -0.410093 -0.205200
v -0.128250 0.500000 -0.205200
v 0.128250 0.500000 -0.205200
v -0.236399 -0.215626 -0.035200
v 0.190973 -0.016335 -0.035200
v 0.220247 -0.009772 -0.035200
v 0.097021 -0.418246 -0.186500
v 0.157021 -0.418246 -0.186500
v 0.252947 -0.275626 -0.035200
v 0.236399 -0.275626 -0.035200
v -0.181590 0.262088 -0.205200
v 0.236399 -0.215626 -0.035200
v 0.237748 -0.087834 -0.035200
v 0.208475 -0.094397 -0.035200
v 0.157021 -0.418246 -0.035200
v -0.055532 0.454455 -0.186500
v 0.266399 -0.215626 -0.035200
v 0.097021 -0.418246 -0.035200
v -0.055532 0.454455 -0.035200
v -0.093795 -0.423042 -0.035200
v -0.190973 -0.016335 -0.035200
v -0.208475 -0.094397 -0.035200
v -0.093795 -0.423042 -0.186500
v -0.190973 -0.016335 -0.186500
v -0.208475 -0.094397 -0.186500
vn -0.0255 -0.1139 0.9932
vn 0.9720 -0.2303 0.0475
vn 0.0242 -0.1357 0.9905
vn 0.7492 -0.1723 -0.6395
vn 0.9772 -0.2026 -0.0631
vn -0.0049 -0.0220 -0.9997
vn 0.0254 -0.6346 -0.7724
vn 0.7155 0.0397 -0.6975
vn -0.3630 -0.8622 -0.3534
vn -0.6368 -0.0000 0.7710
vn 0.2006 0.2044 0.9581
vn 0.0820 -0.2126 0.9737
vn 0.3436 -0.8420 -0.4160
vn 0.6368 -0.0000 -0.7710
vn 0.0521 -0.9966 -0.0631
vn -0.0000 -1.0000 -0.0000
vn 0.3516 -0.5348 0.7683
vn -0.0000 -0.1220 0.9925
vn -0.0000 -0.3157 0.9489
vn -0.3773 0.7085 -0.5964
vn -0.0000 1.0000 -0.0000
vn -0.5513 0.8343 -0.0000
vn -0.0000 0.5876 -0.8091
vn -0.0000 0.4000 -0.9165
vn 0.4780 -0.3061 0.8233
vn 0.9263 -0.1087 0.3609
vn 0.4023 -0.2706 0.8746
vn -0.0000 -0.7700 0.6381
vn 0.9105 0.1091 -0.3988
vn 0.0495 -0.2210 -0.9740
vn 0.5559 0.2756 -0.7842
vn -0.0404 0.1801 -0.9828
vn 0.7561 -0.0000 0.6545
vn 1.0000 -0.0000 -0.0000
vn 0.7071 -0.0000 0.7071
vn -0.3008 0.9537 -0.0000
vn -0.7071 0.7071 -0.0000
vn -0.4418 0.8971 -0.0000
vn -0.8298 -0.5581 -0.0000
vn 0.3242 -0.7047 0.6312
vn -0.6585 -0.7271 0.1944
vn 0.7199 0.6927 -0.0449
vn 0.3010 0.8609 -0.4102
vn 0.4852 0.3264 -0.8112
vn 0.8262 0.5557 -0.0922
vn 0.5097 -0.6476 -0.5664
vn -0.0000 -0.0000 1.0000
vn 0.6666 0.4484 0.5955
vn 0.7578 0.5097 0.4075
vn -0.7839 0.1757 -0.5955
vn -0.9754 0.2187 -0.0275
vn -0.0000 -0.0000 -1.0000
vn -0.0000 -0.6593 -0.7519
vn -0.0000 -0.8944 -0.4472
vn -0.0000 -0.3301 -0.9440
vn 0.1316 -0.3534 -0.9262
vn -0.9655 0.2603 -0.0000
vn -0.9758 0.2188 -0.0000
vn -0.1511 0.7238 0.6732
vn -0.4255 0.0954 0.8999
vn -0.6433 0.1442 0.7519
vn 0.9758 -0.2188 -0.0000
vn 0.9705 -0.2176 -0.1034
vn 0.3251 0.6243 0.7103
vn -0.0000 0.3760 0.9266
vn -0.8254 -0.1850 0.5334
vn -0.7490 0.1553 0.6441
vn 0.8167 0.4921 0.3015
vn 0.9689 0.2172 0.1186
vn -0.1732 0.7725 0.6109
vn -0.1622 0.6709 0.7236
vn -0.0000 -0.5877 0.8091
vn -0.0000 0.6593 0.7518
vn -0.5456 0.1223 0.8290
vn -0.6810 0.2194 0.6986
vn -0.1790 0.7985 0.5747
vn -0.9822 0.0456 0.1822
vn -0.1119 0.4994 0.8591
vn -0.2387 0.3548 0.9040
vn 0.2387 -0.3548 -0.9040
vn 0.6809 0.4580 -0.5715
vn -0.0000 0.7288 -0.6848
vn -0.0000 0.6781 -0.7349
vn -0.9758 -0.2188 -0.0000
vn -0.9964 0.0849 -0.0000
vn 0.9758 0.2188 -0.0000
vn -0.1325 0.5911 -0.7956
vn -1.0000 -0.0000 -0.0000
vn 0.8447 -0.5353 -0.0000
vn 0.2188 -0.9758 -0.0000
vn 0.4976 -0.8674 -0.0000
vn -0.0000 -0.8487 0.5288
vn 0.6157 -0.6157 0.4917
vn 0.9094 0.0038 0.4158
vn 0.9349 0.1994 0.2937
vn -0.9567 -0.2145 0.1969
vn 0.8566 -0.1920 0.4789
vn 0.9742 -0.2184 0.0565
vn 0.8298 0.5581 -0.0000
vn -0.1550 0.6913 0.7058
vn 0.4371 0.6897 0.5773
vn -0.8286 0.5573 -0.0535
vn -0.9174 0.2070 -0.3398
vn -0.8298 0.5581 -0.0000
vn 0.4324 -0.6428 0.6323
vn 0.6432 -0.5150 0.5666
vn -0.0000 -0.6581 0.7529
vn 0.4063 -0.4063 0.8184
vn -0.8365 -0.5301 0.1389
vn -0.9953 -0.0000 -0.0968
vn -0.4743 -0.0000 -0.8803
vn -0.7234 0.4261 -0.5432
vn -0.2188 -0.9758 -0.0000
vn -0.9869 -0.1613 -0.0000
vn 0.9571 -0.0113 0.2895
vn 0.9847 0.1376 0.1065
vn -0.6602 -0.6277 -0.4124
vn -0.3761 -0.9266 -0.0000
vn -0.3246 0.0728 0.9430
vn -0.0000 -0.7071 -0.7071
vn 0.9659 -0.2165 -0.1422
vn 0.7648 0.1437 -0.6280
vn -0.9394 -0.2106 -0.2706
vn -0.4822 -0.1081 -0.8694
vn 0.9917 -0.0000 -0.1289
vn 0.4522 -0.0000 -0.8919
vn 0.8236 -0.5672 -0.0000
vn -0.0758 -0.6564 -0.7506
vn 0.4699 -0.7415 -0.4789
vn 0.4045 -0.4045 -0.8202
vn 0.7071 -0.7071 -0.0000
vn 0.7806 0.6250 -0.0000
vn 0.4416 0.8972 -0.0000
vn -0.1235 0.5508 -0.8255
vn 0.1094 0.0736 -0.9913
vn 0.9612 0.1807 -0.2083
vn 0.7584 -0.3255 -0.5647
vn 0.7025 -0.1575 -0.6941
vn -0.8234 0.5538 0.1234
vn 0.3706 -0.6960 0.6150
vn 0.4342 -0.9008 -0.0000
vn 0.2063 -0.1388 0.9686
vn -0.8199 0.5515 -0.1539
vn 0.1325 -0.5911 0.7956
vn -0.0568 -0.2532 -0.9657
vn 0.8298 -0.5581 -0.0000
vn -0.4324 0.6428 -0.6323
vn 0.1444 0.6441 0.7512
vn 0.7561 -0.0000 -0.6545
vn -0.9856 -0.0000 -0.1688
vn -0.5907 -0.5497 -0.5907
vn 0.2188 0.9758 -0.0000
vn -0.0000 0.6049 -0.7963
vt 0.093750 0.475000
vt 0.093750 0.446162
vt 0.093750 0.408794
vt 0.093750 0.438118
vt 0.093750 0.456774
vt 0.093750 0.309308
vt 0.093750 0.415957
vt 0.093750 0.442447
vt 0.093750 0.437247
vt 0.093750 0.453918
vt 0.093750 0.275000
vt 0.093750 0.398434
vt 0.218750 0.456774
vt 0.218750 0.309308
s 1
usemtl colormap.018
f 2/1/1 3/2/2 4/1/3
f 1/2/4 2/1/5 3/2/6
f 12/1/7 11/1/8 10/3/9
f 13/1/10 6/4/11 8/4/12
f 14/1/13 13/1/14 6/4/15
f 21/5/16 8/4/12 7/1/17
f 22/6/16 23/5/16 8/4/16
f 13/1/18 23/5/16 25/1/19
f 19/1/20 7/1/21 20/5/22
f 22/6/21 21/5/21 8/4/21
f 26/5/23 23/5/24 25/1/21
f 29/5/25 28/5/26 27/5/27
f 30/5/28 27/5/27 28/5/26
f 32/7/29 33/7/30 15/8/31
f 16/8/32 15/8/31 33/7/30
f 36/6/33 35/5/34 34/6/35
f 37/5/34 34/6/35 35/5/34
f 40/6/36 39/6/37 38/5/38
f 41/5/37 38/5/38 39/6/37
f 43/5/39 40/6/39 44/9/39
f 46/10/40 40/6/36 9/3/41
f 42/6/42 43/5/43 40/6/44
f 11/1/8 38/5/45 9/3/46
f 4/1/3 48/1/47 2/1/1
f 48/1/47 49/1/48 12/1/49
f 49/1/50 4/1/51 48/1/52
f 55/6/21 37/5/21 52/5/21
f 50/5/53 37/5/54 51/1/55
f 52/5/16 51/1/55 37/5/54
f 34/6/16 55/6/16 37/5/16
f 54/1/56 51/1/55 53/5/16
f 61/5/57 59/5/58 60/6/59
f 2/1/58 59/5/58 61/5/57
f 63/6/58 62/5/58 64/6/58
f 65/1/58 63/6/58 66/5/58
f 54/1/58 66/5/60 53/5/61
f 2/1/5 63/6/62 62/5/63
f 5/1/64 19/1/47 7/1/17
f 68/1/65 19/1/47 5/1/64
f 72/1/66 71/1/47 70/1/67
f 71/1/47 72/1/66 73/1/47
f 76/5/68 75/5/69 74/5/70
f 80/11/71 79/11/72 78/11/73
f 81/11/74 79/11/72 80/11/71
f 82/1/75 18/12/76 17/12/77
f 18/12/76 82/1/75 83/1/78
f 46/10/79 84/9/79 44/9/79
f 85/10/80 46/10/80 84/9/80
f 59/5/47 38/5/47 86/5/47
f 25/1/19 14/1/47 13/1/18
f 14/1/47 25/1/19 87/1/47
f 88/1/52 45/1/81 87/1/52
f 90/1/82 89/1/83 78/11/73
f 78/11/84 70/1/67 69/11/85
f 15/8/31 78/11/86 32/7/29
f 72/1/87 73/1/87 32/7/87
f 41/5/37 39/6/37 86/5/88
f 77/5/89 75/5/90 92/6/91
f 95/5/92 94/5/93 20/5/47
f 85/10/94 9/3/41 10/3/95
f 9/3/41 85/10/94 46/10/40
f 97/6/21 96/6/21 31/5/21
f 90/1/96 83/1/78 82/1/75
f 89/1/83 90/1/82 51/1/55
f 54/1/56 89/1/83 51/1/55
f 80/11/62 4/1/3 3/2/2
f 80/11/62 98/1/97 89/1/98
f 80/11/71 4/1/51 81/11/74
f 79/11/99 84/9/99 81/11/99
f 81/11/99 84/9/99 85/10/94
f 81/11/99 85/10/94 10/3/95
f 101/6/100 100/6/101 74/5/70
f 102/6/102 27/5/103 95/5/104
f 6/4/11 68/1/65 5/1/64
f 77/5/89 92/6/91 74/5/86
f 44/9/105 88/1/105 45/1/105
f 104/6/106 99/6/107 28/5/26
f 105/6/108 56/6/47 36/6/47
f 105/6/108 36/6/47 22/6/35
f 22/6/35 36/6/47 24/6/47
f 63/6/47 107/6/47 106/6/47
f 39/6/47 42/6/47 108/6/109
f 91/6/47 60/6/59 58/6/47
f 97/6/110 101/6/52 99/6/111
f 96/6/112 102/6/102 97/6/52
f 93/6/52 92/6/52 56/6/52
f 42/6/52 63/6/52 107/6/52
f 108/6/52 63/6/52 42/6/52
f 40/6/44 39/6/52 42/6/42
f 91/6/52 109/6/52 39/6/52
f 102/6/16 105/6/108 95/5/92
f 94/5/93 95/5/92 105/6/108
f 108/6/109 64/6/113 111/5/114
f 107/6/16 42/6/16 110/5/16
f 56/6/86 16/8/86 18/12/86
f 56/6/86 33/7/115 16/8/86
f 93/6/86 33/7/115 56/6/86
f 93/6/86 73/1/116 33/7/115
f 76/5/68 73/1/86 75/5/69
f 100/6/101 104/6/106 76/5/68
f 29/5/25 73/1/86 28/5/26
f 57/5/117 83/1/84 56/6/118
f 71/1/84 29/5/84 73/1/84
f 108/6/109 111/5/114 109/6/119
f 35/13/120 56/14/118 36/14/16
f 56/14/118 35/13/120 57/13/117
f 75/13/52 74/13/52 77/13/52
f 38/13/52 86/13/52 41/13/52
f 59/13/121 38/13/45 47/13/122
f 92/14/123 74/13/84 101/14/124
f 24/14/125 110/13/34 107/14/126
f 109/14/127 61/13/128 112/13/129
f 66/13/16 106/14/130 63/14/16
f 106/14/130 66/13/16 103/13/131
f 58/14/132 86/13/21 59/13/133
f 62/13/63 112/13/129 61/13/128
f 111/13/62 109/14/127 112/13/129
f 7/1/17 6/4/11 5/1/64
f 6/4/11 7/1/17 8/4/12
f 9/3/46 10/3/9 11/1/8
f 15/8/31 16/8/32 17/12/134
f 18/12/134 17/12/134 16/8/32
f 21/5/16 7/1/17 20/5/16
f 24/6/21 22/6/21 23/5/21
f 13/1/21 23/5/21 8/4/21
f 43/5/39 25/1/39 26/5/39
f 9/3/41 40/6/36 38/5/38
f 45/1/81 44/9/99 43/5/99
f 45/1/81 43/5/99 25/1/135
f 46/10/99 40/6/99 44/9/99
f 47/5/122 38/5/45 11/1/8
f 48/1/136 47/5/122 11/1/8
f 48/1/136 11/1/8 12/1/7
f 53/5/16 51/1/55 52/5/16
f 58/6/132 59/5/133 60/6/62
f 62/5/63 61/5/128 2/1/5
f 2/1/62 59/5/121 48/1/136
f 47/5/122 48/1/136 59/5/121
f 1/2/4 63/6/62 2/1/5
f 65/1/137 63/6/62 1/2/4
f 54/1/56 66/5/62 65/1/138
f 68/1/139 69/11/85 70/1/67
f 67/11/140 68/1/141 69/11/142
f 71/1/47 68/1/139 70/1/67
f 19/1/20 71/1/143 68/1/52
f 69/11/142 78/11/73 67/11/140
f 79/11/72 67/11/140 78/11/73
f 45/1/81 25/1/135 87/1/52
f 80/11/71 78/11/73 89/1/83
f 70/1/67 32/7/84 72/1/66
f 15/8/84 78/11/84 17/12/77
f 17/12/77 78/11/84 82/1/75
f 82/1/75 78/11/84 90/1/96
f 32/7/29 78/11/86 70/1/86
f 73/1/116 32/7/144 33/7/115
f 91/6/88 86/5/88 39/6/37
f 93/6/90 92/6/91 75/5/90
f 65/1/47 89/1/98 98/1/97
f 51/1/55 90/1/82 83/1/52
f 65/1/138 89/1/83 54/1/56
f 65/1/137 1/2/4 98/1/145
f 3/2/6 98/1/145 1/2/4
f 80/11/62 3/2/2 98/1/97
f 49/1/50 81/11/74 4/1/51
f 88/1/99 79/11/99 87/1/99
f 79/11/99 88/1/99 84/9/99
f 81/11/99 12/1/49 49/1/48
f 12/1/7 10/3/9 81/11/39
f 76/5/68 74/5/70 100/6/101
f 27/5/27 71/1/146 29/5/25
f 19/1/20 20/5/22 71/1/143
f 95/5/104 71/1/143 20/5/22
f 27/5/103 71/1/143 95/5/104
f 27/5/103 102/6/102 96/6/112
f 67/11/140 79/11/72 68/1/141
f 6/4/15 68/1/141 79/11/72
f 79/11/72 87/1/16 6/4/15
f 14/1/13 6/4/15 87/1/16
f 103/5/47 52/5/47 66/5/60
f 53/5/61 66/5/60 52/5/47
f 84/9/147 44/9/147 88/1/147
f 30/5/28 28/5/26 99/6/107
f 100/6/101 99/6/107 104/6/106
f 99/6/107 100/6/101 101/6/100
f 102/6/47 97/6/47 101/6/47
f 92/6/47 56/6/47 102/6/47
f 55/6/47 36/6/33 34/6/35
f 39/6/47 108/6/109 109/6/119
f 60/6/59 91/6/47 109/6/148
f 92/6/123 101/6/124 102/6/52
f 105/6/52 56/6/52 102/6/52
f 106/6/130 36/6/52 24/6/125
f 107/6/126 106/6/130 24/6/125
f 55/6/149 36/6/52 106/6/130
f 64/6/52 63/6/52 108/6/52
f 22/6/35 21/5/34 105/6/108
f 94/5/93 105/6/108 21/5/34
f 23/5/88 24/6/88 110/5/88
f 60/6/59 109/6/148 61/5/57
f 57/5/86 51/1/86 50/5/86
f 51/1/86 57/5/86 83/1/86
f 28/5/26 73/1/86 76/5/68
f 28/5/26 76/5/68 104/6/106
f 83/1/84 18/12/84 56/6/118
f 93/6/84 73/1/84 75/5/84
f 111/5/47 62/5/47 112/5/47
f 30/13/150 27/13/103 31/13/151
f 94/13/52 20/13/52 21/13/52
f 96/14/112 31/13/151 27/13/103
f 99/14/111 31/13/151 97/14/110
f 31/13/151 99/14/111 30/13/150
f 52/13/34 106/14/130 103/13/131
f 106/14/130 52/13/34 55/14/149
f 35/13/120 50/13/53 57/13/117
f 50/13/53 35/13/120 37/13/54
f 64/14/152 111/13/152 62/13/152
f 26/13/23 110/13/153 23/13/24
f 110/13/153 26/13/23 43/13/43
f 42/14/42 110/13/153 43/13/43
f 86/13/21 58/14/132 91/14/21
