# Blender 4.3.2
# www.blender.org
mtllib kitchenSink.mtl
o kitchenSink.001
v -0.403156 0.020000 -0.085086
v -0.403156 0.040000 -0.237543
v -0.403156 0.020000 -0.363156
v -0.403156 0.400000 -0.363156
v -0.403156 0.400000 -0.237543
v -0.403156 0.040000 -0.210699
v -0.403156 0.400000 -0.085086
v -0.403156 0.400000 -0.210699
v -0.430000 0.040000 0.000000
v 0.000000 0.040000 0.000000
v -0.430000 0.040000 -0.058242
v 0.000000 0.040000 -0.058242
v -0.430000 0.450000 0.000000
v -0.430000 0.450000 -0.390000
v -0.430000 0.020000 -0.390000
v -0.430000 0.020000 -0.058242
v -0.026844 0.400000 -0.085086
v -0.026844 0.400000 -0.210699
v -0.026844 0.040000 -0.237543
v -0.026844 0.400000 -0.237543
v -0.026844 0.020000 -0.085086
v 0.000000 0.450000 0.000000
v 0.000000 0.450000 -0.390000
v -0.000000 0.020000 -0.058242
v -0.026844 0.040000 -0.210699
v -0.026844 0.020000 -0.363156
v -0.026844 0.400000 -0.363156
v -0.000000 0.020000 -0.390000
v -0.053809 0.326196 -0.363156
v -0.053809 0.093804 -0.363156
v -0.376191 0.326196 -0.363156
v -0.376191 0.093804 -0.363156
v 0.000000 0.000000 -0.390000
v -0.430000 0.000000 -0.390000
v -0.430000 0.000000 -0.420000
v -0.430000 0.420000 -0.420000
v -0.430000 0.420000 -0.450000
v -0.430000 0.450000 -0.450000
v 0.000000 0.450000 -0.450000
v -0.000000 0.420000 -0.450000
v 0.000000 0.000000 -0.420000
v -0.000000 0.420000 -0.420000
v -0.068316 0.093804 -0.320000
v -0.068316 0.326196 -0.320000
v -0.376191 0.326196 -0.420000
v -0.053809 0.326196 -0.420000
v -0.361683 0.326196 -0.320000
v -0.361683 0.093804 -0.320000
v -0.053809 0.093804 -0.420000
v -0.376191 0.093804 -0.420000
v -0.215000 0.180000 -0.320000
v -0.189019 0.225000 -0.320000
v -0.189019 0.195000 -0.320000
v -0.215000 0.240000 -0.320000
v -0.240981 0.195000 -0.320000
v -0.240981 0.225000 -0.320000
v -0.203212 0.361665 -0.420000
v -0.233212 0.361665 -0.420000
v -0.233212 0.391665 -0.420000
v -0.203212 0.391665 -0.420000
v -0.203212 0.382878 -0.481213
v -0.233212 0.382878 -0.481213
v -0.203212 0.379927 -0.483801
v -0.233212 0.379927 -0.483801
v -0.203212 0.376664 -0.485981
v -0.233212 0.376664 -0.485981
v -0.233212 0.361665 -0.440000
v -0.233212 0.391665 -0.440000
v -0.233212 0.271665 -0.460000
v -0.233212 0.271921 -0.463916
v -0.233212 0.361665 -0.460000
v -0.233212 0.272687 -0.467765
v -0.233212 0.273948 -0.471480
v -0.233212 0.275684 -0.475000
v -0.233212 0.277864 -0.478263
v -0.233212 0.280451 -0.481213
v -0.233212 0.283402 -0.483801
v -0.233212 0.286664 -0.485981
v -0.233212 0.290184 -0.487716
v -0.233212 0.293900 -0.488978
v -0.233212 0.297749 -0.489743
v -0.233212 0.301665 -0.490000
v -0.233212 0.361665 -0.490000
v -0.233212 0.391665 -0.460000
v -0.233212 0.365580 -0.489743
v -0.233212 0.369429 -0.488978
v -0.233212 0.373145 -0.487716
v -0.233212 0.385465 -0.478263
v -0.233212 0.387645 -0.475000
v -0.233212 0.389381 -0.471480
v -0.233212 0.390642 -0.467765
v -0.233212 0.391408 -0.463916
v -0.203212 0.369429 -0.488978
v -0.203212 0.365580 -0.489743
v -0.203212 0.391408 -0.463916
v -0.203212 0.390642 -0.467765
v -0.203212 0.373145 -0.487716
v -0.203212 0.391665 -0.440000
v -0.263212 0.391665 -0.460000
v -0.263212 0.391665 -0.440000
v -0.173212 0.391665 -0.440000
v -0.173212 0.391665 -0.460000
v -0.203212 0.391665 -0.460000
v -0.203212 0.271665 -0.460000
v -0.203212 0.361665 -0.460000
v -0.203212 0.301665 -0.490000
v -0.203212 0.361665 -0.490000
v -0.203212 0.389381 -0.471480
v -0.203212 0.387645 -0.475000
v -0.203212 0.385465 -0.478263
v -0.203212 0.271921 -0.463916
v -0.203212 0.272687 -0.467765
v -0.203212 0.273948 -0.471480
v -0.203212 0.275684 -0.475000
v -0.203212 0.277864 -0.478263
v -0.203212 0.280451 -0.481213
v -0.203212 0.283402 -0.483801
v -0.203212 0.286664 -0.485981
v -0.203212 0.290184 -0.487716
v -0.203212 0.293900 -0.488978
v -0.203212 0.297749 -0.489743
v -0.263212 0.361665 -0.460000
v -0.263212 0.361665 -0.440000
v -0.173212 0.361665 -0.440000
v -0.173212 0.361665 -0.460000
v -0.203212 0.361665 -0.440000
v -0.026844 0.040000 -0.085086
v -0.403156 0.040000 -0.085086
v -0.026844 0.040000 -0.363156
v -0.403156 0.040000 -0.363156
v -0.026844 0.020000 -0.085086
v -0.403156 0.020000 -0.085086
v -0.026844 0.020000 -0.363156
v -0.403156 0.020000 -0.363156
v -0.047186 0.020000 -0.105428
v -0.357814 0.020000 -0.302814
v -0.382814 0.020000 -0.105428
v -0.382814 0.020000 -0.342814
v -0.357814 0.020000 -0.322814
v -0.277814 0.020000 -0.322814
v -0.277814 0.020000 -0.302814
v -0.047186 0.020000 -0.342814
v -0.357814 0.000000 -0.302814
v -0.277814 0.000000 -0.302814
v -0.357814 0.000000 -0.312814
v -0.277814 0.000000 -0.312814
v -0.357814 0.010000 -0.322814
v -0.277814 0.010000 -0.322814
vn 0.3015 -0.9045 0.3015
vn 0.5774 -0.5774 0.5773
vn 0.9045 -0.3015 -0.3015
vn 0.5774 -0.5774 -0.5774
vn 0.3015 -0.9045 -0.3015
vn 0.9045 -0.3015 0.3015
vn 0.5773 -0.5774 -0.5774
vn 0.5773 -0.5773 0.5774
vn 0.5774 -0.5773 0.5774
vn -0.5774 -0.5774 0.5774
vn -0.9045 -0.3015 0.3015
vn -0.5773 0.5774 0.5774
vn -0.7071 0.7071 -0.0000
vn -0.5773 -0.5774 0.5773
vn -0.5773 -0.5773 -0.5774
vn -0.9045 -0.3015 -0.3015
vn -0.3015 -0.9045 -0.3015
vn 0.5774 0.5774 0.5774
vn 0.7071 0.7071 -0.0000
vn -0.3015 -0.9045 0.3015
vn -0.0000 -0.0000 1.0000
vn -0.5773 -0.5773 0.5774
vn -0.5774 -0.5774 -0.5773
vn 0.5774 0.5773 -0.5773
vn -0.5773 0.5773 -0.5774
vn 0.5773 -0.5773 -0.5774
vn -0.5773 -0.5774 -0.5774
vn 0.5774 -0.5774 -0.5773
vn 0.9479 -0.0000 0.3186
vn -0.7071 -0.7071 -0.0000
vn 0.7071 -0.7071 -0.0000
vn 0.3015 -0.3015 -0.9045
vn -0.0000 -1.0000 -0.0000
vn -0.7425 -0.6216 -0.2496
vn -0.5850 -0.7868 -0.1967
vn -0.0000 1.0000 -0.0000
vn 0.7425 0.6216 -0.2496
vn 0.5680 0.7230 -0.3932
vn -0.3015 0.3015 -0.9045
vn -0.3015 -0.3015 -0.9045
vn 0.3015 0.3015 -0.9045
vn -0.0000 0.7699 -0.6382
vn -0.0000 -0.0000 -1.0000
vn -0.6512 0.5366 -0.5366
vn 0.6934 0.4815 -0.5360
vn 0.6517 0.4697 -0.5955
vn -0.6934 0.4688 -0.5472
vn 0.6640 0.3739 -0.6476
vn -0.6516 0.3880 -0.6518
vn -0.3015 0.9045 0.3015
vn -0.8944 -0.0000 0.4472
vn -0.6934 -0.7075 -0.1365
vn -0.7333 -0.6731 -0.0960
vn -0.6998 0.0234 -0.7139
vn -0.6998 -0.0234 -0.7139
vn -0.6919 0.7205 -0.0472
vn -0.6934 0.0445 -0.7191
vn -0.6934 0.1311 -0.7085
vn -0.6934 0.2391 -0.6797
vn -0.6934 0.5408 -0.4761
vn -0.6934 0.5984 -0.4012
vn 0.6514 0.2810 -0.7048
vn 0.3015 0.9045 0.3015
vn -0.5774 0.5773 -0.5774
vn 0.5774 0.5773 0.5774
vn 0.5774 0.5774 -0.5774
vn -0.0000 0.8944 -0.4472
vn -0.5740 -0.5977 0.5597
vn 0.5740 -0.5977 0.5598
vn 0.8944 -0.0000 0.4472
vn 0.6998 0.0234 -0.7139
vn 0.6998 -0.0234 -0.7139
vn -0.6935 0.6826 -0.2307
vn -0.6574 0.7279 -0.1950
vn 0.6579 0.7251 -0.2032
vn 0.6572 0.6963 -0.2884
vn 0.6935 0.0515 -0.7187
vn 0.6934 -0.6809 -0.2355
vn 0.7262 -0.6278 -0.2801
vn 0.7243 -0.5848 -0.3652
vn 0.6934 -0.4724 -0.5440
vn 0.7171 -0.3949 -0.5743
vn 0.7144 -0.3154 -0.6246
vn 0.6934 -0.2290 -0.6832
vn 0.7089 -0.1400 -0.6912
vn 0.6919 0.7205 -0.0472
vn 0.6934 0.2243 -0.6847
vn 0.6999 0.5942 -0.3964
vn 0.6934 0.7198 -0.0326
vn 0.6570 0.6529 -0.3769
vn -0.5774 -0.5773 -0.5774
vn -0.5773 0.5773 0.5774
vn -0.6934 0.7198 -0.0326
vn -0.0000 -0.8944 -0.4472
vn -0.6554 -0.6942 -0.2975
vn -0.6549 -0.6544 -0.3778
vn -0.6934 -0.2290 -0.6832
vn -0.6560 -0.1954 -0.7290
vn -0.6935 -0.3160 -0.6475
vn -0.6560 -0.4523 -0.6043
vn -0.6558 -0.5273 -0.5402
vn 0.6551 -0.5994 -0.4600
vn -0.6557 -0.5934 -0.4669
vn 0.6623 -0.7428 -0.0978
vn -0.9479 -0.0000 -0.3186
vn 0.9479 -0.0000 -0.3186
vn -0.6934 -0.1427 -0.7062
vn 0.7062 -0.0475 -0.7064
vn -1.0000 -0.0000 -0.0000
vn 1.0000 -0.0000 -0.0000
vn -0.0000 -0.7071 -0.7071
vt -0.787402 14.297470
vt -15.748030 14.297470
vt -1.574803 9.352088
vt -15.748030 9.352088
vt -0.787402 3.349844
vt -1.574803 8.295230
vt -15.748030 3.349844
vt -15.748030 8.295230
vt 0.000000 0.000000
vt 16.929131 0.000000
vt 16.929131 2.292987
vt 0.000000 2.292987
vt 1.574803 2.292987
vt 1.574803 0.000000
vt 17.716539 0.000000
vt 17.716539 15.354330
vt 0.787402 15.354330
vt 0.787402 2.292987
vt 15.872280 8.295230
vt 1.056858 8.295230
vt 1.056858 3.349844
vt 1.056858 15.748030
vt 1.056858 1.574803
vt 15.872280 1.574803
vt 15.872280 15.748030
vt 1.056858 0.787402
vt 15.872280 0.787402
vt -16.929131 0.000000
vt 0.000000 15.354330
vt 15.872280 9.352088
vt 1.056858 9.352088
vt 1.574803 8.295230
vt 0.787402 14.297470
vt 0.787402 3.349844
vt 15.748030 3.349844
vt 15.748030 8.295230
vt 1.574803 9.352088
vt 15.748030 9.352088
vt 15.748030 14.297470
vt 0.000000 1.574803
vt 0.000000 17.716539
vt -16.929131 17.716539
vt -16.929131 1.574803
vt 15.872280 14.297470
vt -0.787402 2.292987
vt -0.787402 15.354330
vt -17.716539 15.354330
vt -1.574803 2.292987
vt -1.574803 0.000000
vt -17.716539 0.000000
vt 15.872280 3.349844
vt 0.000000 2.292987
vt 16.929131 15.354330
vt 1.056858 14.297470
vt 0.000000 15.354330
vt -2.118477 12.842360
vt -1.056858 0.787402
vt -1.056858 15.748030
vt -2.118477 3.693070
vt -15.872280 0.787402
vt -0.000000 0.787402
vt 16.535431 16.535431
vt 0.000000 16.535431
vt -16.929131 15.354330
vt 16.929131 17.716539
vt 0.000000 16.535431
vt 16.929131 16.535431
vt -16.535431 16.535431
vt -16.535431 17.716539
vt -17.716539 17.716539
vt 3.693070 12.877220
vt 12.842360 11.084750
vt 3.693070 11.084750
vt 2.118477 14.297470
vt 14.810660 14.297470
vt 14.810660 16.535431
vt 2.689625 12.598420
vt 0.000000 17.716539
vt -2.118477 14.297470
vt -14.810660 14.297470
vt -14.239510 12.598420
vt -2.118477 16.535431
vt 8.464567 7.086614
vt 7.441702 8.858268
vt 8.464567 9.448819
vt 14.239510 3.693070
vt 7.441702 7.677166
vt 9.487432 7.677166
vt 9.487432 8.858268
vt 2.689625 12.842360
vt 14.239510 12.842360
vt 8.000472 14.238760
vt 2.118477 12.842360
vt 14.810660 12.842360
vt 8.000472 15.419860
vt 9.181575 15.419860
vt 2.118477 3.693070
vt 14.810660 3.693070
vt 14.239510 12.598420
vt 2.689625 3.693070
vt -9.181575 1.158394
vt -8.000472 1.158394
vt -8.000472 1.312890
vt -9.181575 1.312890
vt -8.000472 -1.854835
vt -8.000472 -1.700340
vt -9.181575 -1.700340
vt 15.419860 17.322830
vt 14.238760 17.322830
vt 14.238760 16.535431
vt 15.419860 16.535431
vt 14.238760 18.110241
vt 10.735700 18.415930
vt 10.705560 18.264400
vt 14.238760 19.291340
vt 11.876550 19.291340
vt 15.419860 18.110241
vt 14.392920 19.281231
vt 14.544450 19.251089
vt 14.690750 19.201429
vt 14.829310 19.133101
vt 14.957770 19.047270
vt 15.175790 18.829250
vt 15.073930 18.945400
vt 15.261620 18.700790
vt -9.181575 -7.584518
vt -9.181575 -7.739014
vt -8.000472 -7.739014
vt -8.000472 17.322830
vt -9.181575 17.322830
vt -9.181575 16.535431
vt -10.362680 18.110241
vt -6.819370 17.322830
vt -6.819370 18.110241
vt -9.181575 18.110241
vt -9.181575 10.695450
vt -8.000472 10.695450
vt -8.000472 14.238760
vt -9.181575 14.238760
vt 8.000472 11.876550
vt 9.181575 11.876550
vt 9.181575 14.238760
vt -9.181575 12.649480
vt -9.181575 12.494980
vt -8.000472 12.494980
vt -8.000472 12.649480
vt -9.181575 -13.101060
vt -8.000472 -13.101060
vt -8.000472 -12.946560
vt -9.181575 -12.946560
vt -10.735700 18.415930
vt -10.785360 18.562229
vt -14.238760 18.110241
vt -10.853690 18.700790
vt -11.041390 18.945400
vt -11.157550 19.047270
vt -11.286000 19.133101
vt -11.424570 19.201429
vt -11.570860 19.251089
vt -14.238760 19.291340
vt -14.392920 19.281231
vt -15.419860 18.110241
vt -14.544450 19.251089
vt -14.690750 19.201429
vt -14.829310 19.133101
vt -14.957770 19.047270
vt -15.073930 18.945400
vt -15.175790 18.829250
vt -15.329960 18.562229
vt -15.379620 18.415930
vt -15.409760 18.264400
vt -9.181575 10.022180
vt -9.181575 9.867687
vt -8.000472 9.867687
vt -8.000472 10.022180
vt 10.362680 15.419860
vt 10.362680 14.238760
vt -9.181575 17.217449
vt -9.181575 17.062950
vt -8.000472 17.062950
vt -9.181575 15.419860
vt -10.362680 15.419860
vt -10.362680 14.238760
vt -15.419860 17.322830
vt 6.819370 15.419860
vt 6.819370 14.238760
vt 10.362680 18.110241
vt 6.819370 17.322830
vt 8.000472 17.322830
vt 8.000472 18.110241
vt 6.819370 18.110241
vt 9.181575 17.322830
vt 8.000472 16.535431
vt 9.181575 16.535431
vt -14.238760 16.535431
vt -14.238760 17.322830
vt -15.419860 16.535431
vt 8.000472 21.572689
vt 8.000472 21.418200
vt 9.181575 21.418200
vt 9.181575 21.572689
vt 9.181575 16.990360
vt 9.181575 17.144859
vt 8.000472 17.144859
vt 9.181575 18.584459
vt 9.181575 18.738960
vt 8.000472 18.738960
vt 8.000472 20.013750
vt 8.000472 19.859249
vt 9.181575 19.859249
vt 9.181575 20.013750
vt 8.000472 20.947420
vt 8.000472 20.792931
vt 9.181575 20.792931
vt 8.000472 21.524000
vt 8.000472 21.369499
vt 9.181575 21.369499
vt 9.181575 21.524000
vt 8.000472 21.043970
vt 8.000472 20.889469
vt 9.181575 20.889469
vt 9.181575 21.043970
vt 8.000472 20.156500
vt 8.000472 20.002010
vt 9.181575 20.002010
vt 8.000472 18.770981
vt 9.181575 18.770981
vt 9.181575 18.925470
vt -8.000472 -10.354790
vt -9.181575 -10.354790
vt -9.181575 -10.509280
vt -16.929131 0.787402
vt -1.056858 1.574803
vt -15.872280 15.748030
vt -15.872280 1.574803
vt -14.810660 12.842360
vt -14.810660 3.693070
vt 16.535431 17.716539
vt 17.716539 17.716539
vt 12.842360 12.877220
vt 2.118477 16.535431
vt -2.689625 12.598420
vt -14.810660 16.535431
vt -3.693070 14.297470
vt -3.693070 16.535431
vt -12.842360 16.535431
vt -12.842360 14.297470
vt 3.693070 16.535431
vt 3.693070 14.297470
vt 12.842360 14.297470
vt 12.842360 16.535431
vt -3.693070 16.478979
vt -3.693070 18.271460
vt -12.842360 18.271460
vt -12.842360 16.478979
vt -9.181575 -1.854835
vt 10.695450 18.110241
vt 10.785360 18.562229
vt 10.853690 18.700790
vt 10.939520 18.829250
vt 11.041390 18.945400
vt 11.157550 19.047270
vt 11.286000 19.133101
vt 11.424570 19.201429
vt 11.570860 19.251089
vt 11.722390 19.281231
vt 15.329960 18.562229
vt 15.379620 18.415930
vt 15.409760 18.264400
vt -8.000472 -10.509280
vt -9.181575 15.061660
vt -9.181575 14.907160
vt -8.000472 14.907160
vt -8.000472 15.061660
vt -8.000472 -7.584518
vt -8.000472 16.535431
vt -10.362680 17.322830
vt -8.000472 18.110241
vt -9.181575 7.224728
vt -9.181575 7.070232
vt -8.000472 7.070232
vt -8.000472 7.224728
vt -10.695450 18.110241
vt -10.705560 18.264400
vt -10.939520 18.829250
vt -11.722390 19.281231
vt -11.876550 19.291340
vt -15.261620 18.700790
vt -8.000472 17.217449
vt -9.181575 -4.837650
vt -8.000472 -4.837650
vt -8.000472 -4.683155
vt -9.181575 -4.683155
vt -6.819370 14.238760
vt -6.819370 15.419860
vt -8.000472 15.419860
vt 10.362680 17.322830
vt 9.181575 18.110241
vt -9.181575 4.304978
vt -9.181575 4.150482
vt -8.000472 4.150482
vt -8.000472 4.304978
vt 8.000472 21.733620
vt 8.000472 21.579121
vt 9.181575 21.579121
vt 9.181575 21.733620
vt 8.000472 15.258730
vt 8.000472 15.104230
vt 9.181575 15.104230
vt 9.181575 15.258730
vt 8.000472 13.112840
vt 8.000472 12.958340
vt 9.181575 12.958340
vt 9.181575 13.112840
vt 8.000472 16.990360
vt 8.000472 18.584459
vt 9.181575 20.947420
vt 9.181575 20.156500
vt 8.000472 18.925470
vt -14.815420 0.000000
vt 0.000000 10.947630
vt -14.815420 10.947630
vt 0.000000 -0.393701
vt 0.000000 0.393701
vt -14.815420 0.393701
vt -14.815420 -0.393701
vt 14.815420 -0.393701
vt 14.815420 0.393701
vt -0.393701 10.947630
vt -0.393701 0.000000
vt 0.393701 0.000000
vt 0.393701 10.947630
vt 13.030300 8.571962
vt 0.800864 0.800864
vt 14.014550 0.800864
vt 14.014550 10.146770
vt 13.030300 9.359364
vt 9.880697 9.359364
vt 9.880697 8.571962
vt 0.800864 10.146770
vt 14.815420 0.000000
vt 14.815420 10.947630
vt 13.030300 8.965663
vt 9.880697 8.965663
vt -9.880697 -1.181102
vt -9.880697 -0.393701
vt -13.030300 -0.393701
vt -13.030300 -1.181102
vt -1.181102 8.965663
vt -1.181102 8.571962
vt -0.393701 8.571962
vt -0.787402 9.359364
vt -0.393701 9.359364
vt 9.880697 -0.393701
vt 9.880697 -0.787402
vt 13.030300 -0.787402
vt 13.030300 -0.393701
vt 1.181102 8.571962
vt 1.181102 8.965663
vt 0.787402 9.359364
vt 0.393701 8.571962
vt 0.393701 9.359364
vt 9.880697 5.504516
vt 13.030300 5.504516
vt 13.030300 6.061293
vt 9.880697 6.061293
s 1
usemtl wood.003
f 3/1/1 4/2/2 2/3/3
f 4/2/2 5/4/4 2/3/3
f 1/5/5 2/3/3 6/6/6
f 6/6/6 7/7/7 1/5/5
f 6/6/6 8/8/8 7/7/7
f 10/9/9 9/10/10 11/11/11
f 11/11/11 12/12/6 10/9/9
f 11/13/11 9/14/10 13/15/12
f 11/13/11 13/15/12 14/16/13
f 15/17/11 16/18/14 11/13/11
f 8/19/8 18/20/10 17/21/15
f 20/22/15 19/23/16 2/24/3
f 2/24/3 5/25/4 20/22/15
f 17/22/15 21/26/17 1/27/5
f 13/28/12 22/9/18 23/29/19
f 25/20/11 6/19/6 2/30/3
f 2/30/3 19/31/16 25/20/11
f 25/32/11 26/33/20 21/34/17
f 21/34/17 17/35/15 25/32/11
f 17/35/15 18/36/10 25/32/11
f 26/33/20 25/32/11 19/37/16
f 19/37/16 20/38/15 27/39/14
f 10/40/9 22/41/18 13/42/12
f 13/42/12 9/43/10 10/40/9
f 20/31/15 5/30/4 4/44/2
f 24/45/2 28/46/6 23/47/19
f 23/47/19 12/48/6 24/45/2
f 23/47/19 10/49/9 12/48/6
f 23/47/19 22/50/18 10/49/9
f 1/51/5 24/52/2 16/11/14
f 16/11/14 15/53/11 1/51/5
f 15/53/11 26/54/20 3/44/1
f 24/52/2 1/51/5 21/21/17
f 21/21/17 26/54/20 28/55/6
f 26/54/20 15/53/11 28/55/6
f 29/56/21 26/57/20 27/58/14
f 29/56/21 30/59/21 26/57/20
f 3/60/1 26/57/20 30/59/21
f 2/3/3 1/5/5 3/1/1
f 11/13/11 14/16/13 15/17/11
f 17/21/15 7/51/7 8/19/8
f 1/27/5 7/25/7 17/22/15
f 23/29/19 14/64/13 13/28/12
f 24/61/2 12/40/6 11/43/11
f 11/43/11 16/232/14 24/61/2
f 25/233/11 18/58/10 8/234/8
f 8/234/8 6/235/6 25/233/11
f 19/37/16 27/39/14 26/33/20
f 4/44/2 27/54/14 20/31/15
f 15/53/11 3/44/1 1/51/5
f 21/21/17 28/55/6 24/52/2
f 27/58/14 4/234/2 29/56/21
f 4/234/2 31/236/21 29/56/21
f 4/234/2 32/237/21 31/236/21
f 4/234/2 3/60/1 32/237/21
f 30/59/21 32/237/21 3/60/1
f 128/320/36 127/9/36 129/321/36
f 129/321/36 130/322/36 128/320/36
f 131/323/21 127/324/21 128/325/21
f 128/325/21 132/326/21 131/323/21
f 129/324/43 133/323/43 134/327/43
f 134/327/43 130/328/43 129/324/43
f 134/329/109 132/330/109 128/331/109
f 128/331/109 130/332/109 134/329/109
f 131/331/110 133/332/110 129/329/110
f 129/329/110 127/330/110 131/331/110
f 136/333/33 135/334/33 137/335/33
f 137/335/33 138/336/33 136/333/33
f 138/336/33 139/337/33 136/333/33
f 138/336/33 140/338/33 139/337/33
f 135/334/33 136/333/33 141/339/33
f 141/339/33 142/340/33 135/334/33
f 141/339/33 140/338/33 142/340/33
f 140/338/33 138/336/33 142/340/33
usemtl metal.003
f 34/28/22 33/9/2 28/61/6
f 15/17/11 36/62/16 35/63/23
f 39/41/24 38/42/25 14/64/13
f 38/65/25 39/41/24 40/66/26
f 40/66/26 37/67/27 38/65/25
f 33/29/2 34/53/22 35/67/23
f 42/68/3 40/69/26 39/70/24
f 42/68/3 39/70/24 23/47/19
f 42/68/3 23/47/19 28/46/6
f 42/68/3 28/46/6 33/29/2
f 33/29/2 41/63/28 42/68/3
f 30/71/29 44/72/29 43/73/29
f 29/74/30 31/75/31 45/76/32
f 31/75/33 29/74/34 44/77/35
f 42/66/3 36/67/16 37/65/27
f 37/65/27 40/78/26 42/66/3
f 30/79/36 32/80/37 48/81/38
f 32/80/19 30/79/13 49/82/39
f 51/83/21 52/84/21 54/85/21
f 48/86/21 53/87/21 51/83/21
f 48/86/21 51/83/21 55/88/21
f 48/86/21 55/88/21 56/89/21
f 44/90/21 52/84/21 53/87/21
f 52/84/21 47/91/21 54/85/21
f 57/92/32 46/93/40 45/94/32
f 46/93/40 57/92/32 60/95/41
f 42/66/3 46/93/40 60/95/41
f 59/96/39 45/94/32 36/67/16
f 41/9/28 35/10/23 49/97/39
f 45/94/32 35/10/23 36/67/16
f 35/10/23 50/98/41 49/97/39
f 44/77/36 31/75/36 47/99/36
f 43/100/42 48/86/38 53/87/43
f 28/61/6 15/232/11 34/28/22
f 35/63/23 34/29/22 15/17/11
f 15/17/11 14/16/13 36/62/16
f 14/16/13 37/238/27 36/62/16
f 14/16/13 38/239/25 37/238/27
f 14/64/13 23/29/19 39/41/24
f 35/67/23 41/63/28 33/29/2
f 44/72/35 29/240/34 30/71/105
f 45/76/32 46/241/40 29/74/30
f 48/81/38 43/242/42 30/79/36
f 49/82/39 50/243/41 32/80/19
f 54/85/21 47/91/21 56/89/21
f 56/89/21 47/91/21 48/86/21
f 45/94/32 58/142/40 57/92/32
f 45/94/32 59/96/39 58/142/40
f 60/95/41 36/67/16 42/66/3
f 60/95/41 59/96/39 36/67/16
f 42/66/3 49/97/39 46/93/40
f 49/97/39 42/66/3 41/9/28
f 35/10/23 45/94/32 50/98/41
f 32/244/19 50/245/41 45/246/32
f 45/246/32 31/247/31 32/244/19
f 49/248/39 30/249/13 29/250/30
f 29/250/30 46/251/40 49/248/39
f 48/252/38 32/253/37 31/254/106
f 31/254/106 47/255/106 48/252/38
f 53/87/43 44/90/43 43/100/42
f 52/84/43 47/91/43 44/90/43
f 144/339/33 143/333/33 145/343/33
f 145/343/33 146/344/33 144/339/33
f 144/345/21 141/346/21 136/347/21
f 136/347/21 143/348/21 144/345/21
f 145/349/109 143/350/109 136/351/109
f 136/351/109 147/352/109 145/349/109
f 136/351/109 139/353/109 147/352/109
f 140/354/43 148/355/43 147/356/43
f 147/356/43 139/357/43 140/354/43
f 144/358/110 146/359/110 148/360/110
f 148/360/110 141/361/110 144/358/110
f 148/360/110 140/362/110 141/361/110
f 146/363/111 145/364/111 147/365/111
f 147/365/111 148/366/111 146/363/111
usemtl metalDark
f 52/84/43 53/87/43 51/83/43
f 51/83/43 55/88/43 54/85/43
f 55/88/43 56/89/43 54/85/43
usemtl metalLight.001
f 62/101/44 61/102/45 63/103/46
f 63/103/46 64/104/47 62/101/44
f 63/105/46 65/106/48 66/107/49
f 68/108/50 67/109/20 58/110/40
f 58/110/40 59/111/39 68/108/50
f 71/112/51 72/113/52 70/114/53
f 71/112/51 83/115/54 82/116/55
f 84/117/56 85/118/57 83/115/54
f 84/117/56 86/119/58 85/118/57
f 84/117/56 87/120/59 86/119/58
f 84/117/56 66/121/49 87/120/59
f 84/117/56 64/122/47 66/121/49
f 84/117/56 88/123/60 62/124/44
f 84/117/56 89/125/61 88/123/60
f 86/126/58 87/127/59 97/128/62
f 98/129/63 68/130/50 59/131/39
f 68/130/50 98/129/63 99/132/64
f 98/129/63 101/133/65 99/132/64
f 101/133/65 102/134/66 84/135/67
f 69/136/68 104/137/69 105/138/70
f 105/138/70 71/139/51 69/136/68
f 107/92/71 106/140/72 82/141/55
f 82/141/55 83/142/54 107/92/71
f 90/143/73 91/144/74 96/145/75
f 96/145/75 108/146/76 90/143/73
f 85/147/57 94/148/77 107/149/71
f 107/149/71 83/150/54 85/147/57
f 112/151/78 113/152/79 105/153/70
f 113/152/79 114/154/80 105/153/70
f 116/155/81 117/156/82 105/153/70
f 117/156/82 118/157/83 105/153/70
f 119/158/84 120/159/85 105/153/70
f 107/160/71 94/161/77 105/153/70
f 94/161/77 103/162/86 105/153/70
f 93/163/87 97/164/62 103/162/86
f 97/164/62 65/165/48 103/162/86
f 65/165/48 63/166/46 103/162/86
f 61/167/45 110/168/88 103/162/86
f 108/169/76 96/170/75 103/162/86
f 96/170/75 95/171/89 103/162/86
f 89/172/61 90/173/73 108/174/76
f 108/174/76 109/175/90 89/172/61
f 99/176/64 84/96/67 71/142/43
f 71/142/43 122/177/91 99/176/64
f 100/108/92 99/117/64 122/112/91
f 92/178/93 84/179/56 103/180/86
f 67/139/20 68/181/50 100/182/92
f 100/182/92 123/183/10 67/139/20
f 125/153/26 102/162/66 101/184/65
f 103/95/43 102/185/66 125/186/26
f 125/186/26 105/92/94 103/95/43
f 122/187/91 124/188/8 126/189/1
f 105/190/94 125/191/26 124/188/8
f 67/192/20 126/189/1 57/193/32
f 57/193/32 58/194/40 67/192/20
f 57/195/32 126/196/1 98/184/63
f 98/184/63 60/197/41 57/195/32
f 114/198/80 113/199/79 73/200/95
f 73/200/95 74/201/96 114/198/80
f 79/202/97 80/203/98 120/204/85
f 78/205/99 79/206/97 119/207/84
f 118/208/83 117/209/82 77/210/100
f 77/210/100 78/211/99 118/208/83
f 117/212/82 116/213/81 76/214/101
f 116/215/81 115/216/102 75/217/103
f 75/217/103 76/218/101 116/215/81
f 113/219/79 112/220/78 72/221/52
f 72/221/52 73/222/95 113/219/79
f 112/223/78 111/224/104 70/225/53
f 104/226/69 69/227/68 70/228/53
f 66/107/49 64/256/47 63/105/46
f 70/114/53 69/257/68 71/112/51
f 71/112/51 73/258/95 72/113/52
f 71/112/51 74/259/96 73/258/95
f 71/112/51 75/260/103 74/259/96
f 71/112/51 76/261/101 75/260/103
f 71/112/51 77/262/100 76/261/101
f 71/112/51 78/263/99 77/262/100
f 71/112/51 79/264/97 78/263/99
f 71/112/51 80/265/98 79/264/97
f 71/112/51 81/266/107 80/265/98
f 71/112/51 82/116/55 81/266/107
f 71/112/51 84/117/56 83/115/54
f 84/117/56 62/124/44 64/122/47
f 84/117/56 90/267/73 89/125/61
f 84/117/56 91/268/74 90/267/73
f 84/117/56 92/269/93 91/268/74
f 86/231/58 93/270/87 94/229/77
f 94/229/77 85/230/57 86/231/58
f 91/271/74 92/272/93 95/273/89
f 95/273/89 96/274/75 91/271/74
f 97/128/62 93/275/87 86/126/58
f 59/131/39 60/276/41 98/129/63
f 99/132/64 100/277/92 68/130/50
f 101/133/65 84/135/67 99/132/64
s 0
f 102/134/36 103/278/36 84/135/36
s 1
f 88/279/60 89/280/61 109/281/90
f 109/281/90 110/282/88 88/279/60
f 105/153/70 104/283/69 111/284/104
f 111/284/104 112/151/78 105/153/70
f 114/154/80 115/285/102 105/153/70
f 115/285/102 116/155/81 105/153/70
f 118/157/83 119/158/84 105/153/70
f 120/159/85 121/286/108 105/153/70
f 121/286/108 106/287/72 105/153/70
f 106/287/72 107/160/71 105/153/70
f 94/161/77 93/163/87 103/162/86
f 63/166/46 61/167/45 103/162/86
f 110/168/88 109/288/90 103/162/86
f 109/288/90 108/169/76 103/162/86
f 122/112/91 123/109/10 100/108/92
f 103/180/86 95/289/89 92/178/93
f 66/290/49 65/291/48 97/292/62
f 97/292/62 87/293/59 66/290/49
f 101/184/65 124/196/8 125/153/26
f 124/294/8 101/295/65 98/296/63
f 98/296/63 126/138/1 124/294/8
f 67/192/20 123/297/10 122/187/91
f 122/187/91 126/189/1 67/192/20
f 122/187/91 105/190/94 124/188/8
s 0
f 122/187/33 71/298/33 105/190/33
s 1
f 62/299/44 88/300/60 110/301/88
f 110/301/88 61/302/45 62/299/44
f 115/303/102 114/304/80 74/305/96
f 74/305/96 75/306/103 115/303/102
f 121/307/108 120/308/85 80/309/98
f 80/309/98 81/310/107 121/307/108
f 106/311/72 121/312/108 81/313/107
f 81/313/107 82/314/55 106/311/72
f 120/204/85 119/315/84 79/202/97
f 119/207/84 118/316/83 78/205/99
f 76/214/101 77/317/100 117/212/82
f 70/225/53 72/318/52 112/223/78
f 70/228/53 111/319/104 104/226/69
usemtl _defaultMat.001
f 105/229/21 103/230/21 84/231/21
f 84/229/21 71/230/21 105/231/21
usemtl woodDark.002
f 137/335/33 131/9/33 132/341/33
f 132/341/33 134/342/33 137/335/33
f 134/342/33 138/336/33 137/335/33
f 134/342/33 142/340/33 138/336/33
f 131/9/33 137/335/33 135/334/33
f 135/334/33 133/321/33 131/9/33
f 135/334/33 142/340/33 133/321/33
f 142/340/33 134/342/33 133/321/33
