# Blender 4.3.2
# www.blender.org
mtllib box-small.mtl
o box-small.011
v -0.250000 -0.250000 0.000000
v 0.250000 -0.250000 0.000000
v -0.250000 -0.250000 -0.500000
v 0.250000 -0.250000 -0.500000
v 0.250000 -0.062500 -0.500000
v -0.250000 -0.062500 -0.500000
v 0.250000 0.062500 -0.500000
v 0.250000 0.062500 -0.250000
v 0.250000 0.250000 -0.500000
v 0.250000 0.250000 0.000000
v 0.250000 -0.062500 -0.250000
v -0.250000 0.250000 0.000000
v -0.250000 0.062500 -0.500000
v -0.250000 0.250000 -0.500000
v -0.250000 0.062500 -0.250000
v -0.250000 -0.062500 -0.250000
vn -0.5774 -0.5774 -0.5773
vn 0.5773 -0.5774 0.5774
vn -0.5774 -0.5773 0.5773
vn 0.5774 -0.5774 -0.5774
vn 0.7071 -0.0000 -0.7071
vn -0.7071 -0.0000 -0.7071
vn 0.5774 0.5774 -0.5773
vn 1.0000 -0.0000 -0.0000
vn 0.5774 0.5773 0.5773
vn -0.5773 0.5774 0.5774
vn -0.5774 0.5774 -0.5774
vn -1.0000 -0.0000 -0.0000
vt 0.593750 0.225000
vt 0.593750 0.025000
vt 0.593750 0.125000
vt 0.843750 0.025000
vt 0.843750 0.225000
s 1
usemtl colormap.014
f 3/1/1 2/2/2 1/2/3
f 2/2/2 3/1/1 4/1/4
f 3/1/1 5/1/5 4/1/4
f 5/1/5 3/1/1 6/1/6
f 9/1/7 8/3/8 7/1/5
f 10/2/9 8/3/8 9/1/7
f 10/2/9 11/3/8 8/3/8
f 12/2/10 2/2/2 10/2/9
f 13/1/6 9/1/7 7/1/5
f 9/1/7 13/1/6 14/1/11
f 13/1/6 12/2/10 14/1/11
f 15/3/12 12/2/10 13/1/6
f 16/3/12 12/2/10 15/3/12
f 1/2/3 16/3/12 3/1/1
f 9/1/7 12/2/10 10/2/9
f 12/2/10 9/1/7 14/1/11
f 15/4/12 6/5/6 16/4/12
f 6/5/6 15/4/12 13/5/6
f 6/5/6 7/5/5 5/5/5
f 7/5/5 11/4/8 5/5/5
f 11/4/8 7/5/5 8/4/8
f 2/2/2 11/3/8 10/2/9
f 2/2/2 5/1/5 11/3/8
f 5/1/5 2/2/2 4/1/4
f 2/2/2 12/2/10 1/2/3
f 16/3/12 1/2/3 12/2/10
f 6/1/6 3/1/1 16/3/12
f 7/5/5 6/5/6 13/5/6
