# Blender 4.3.2
# www.blender.org
mtllib broccoli.mtl
o broccoli
v 0.187590 -0.101923 -0.183063
v 0.101923 -0.187590 -0.183063
v 0.158040 -0.082229 -0.146894
v 0.082229 -0.158040 -0.146894
v 0.135348 -0.078143 -0.320453
v 0.135348 0.078143 -0.320453
v 0.067674 -0.039071 -0.421668
v 0.067674 0.039071 -0.421668
v 0.000000 -0.156286 -0.320453
v 0.000000 -0.078143 -0.421668
v -0.123624 -0.000000 -0.266021
v -0.131469 0.058596 -0.302444
v -0.164731 -0.000000 -0.240078
v -0.147461 0.061794 -0.294610
v -0.135348 -0.078143 -0.320453
v -0.067674 -0.039071 -0.421668
v -0.135348 0.078143 -0.320453
v -0.067674 0.039071 -0.421668
v -0.131469 -0.058596 -0.302444
v -0.147461 -0.061794 -0.294610
v 0.187590 0.101923 -0.183063
v 0.158040 0.082229 -0.146894
v 0.101923 0.187590 -0.183063
v 0.082229 0.158040 -0.146894
v -0.187590 0.101923 -0.183063
v -0.158170 0.115336 -0.268380
v -0.101923 0.187590 -0.183063
v -0.115336 0.158170 -0.268380
v 0.000000 0.078143 -0.421668
v -0.167205 -0.000000 -0.232995
v 0.000000 0.156286 -0.320453
v 0.115336 -0.158170 -0.268380
v 0.000000 -0.167205 -0.232995
v 0.000000 -0.164731 -0.240078
v 0.061794 -0.147461 -0.294610
v 0.158170 -0.115336 -0.268380
v 0.147461 -0.061794 -0.294610
v 0.167205 -0.000000 -0.232995
v 0.164731 -0.000000 -0.240078
v 0.147461 0.061794 -0.294610
v 0.123624 0.000000 -0.266021
v 0.131469 0.058596 -0.302444
v 0.130132 -0.075132 -0.296239
v 0.131469 -0.058596 -0.302444
v 0.130132 0.075132 -0.296239
v 0.056415 -0.120565 -0.307786
v -0.141595 -0.000000 -0.187177
v -0.158040 0.082229 -0.146894
v 0.000000 -0.140154 -0.255589
v -0.061794 -0.147461 -0.294610
v -0.056415 -0.120565 -0.307786
v 0.000000 0.140154 -0.255589
v -0.056415 0.120565 -0.307786
v -0.130132 0.075132 -0.296239
v -0.130132 -0.075132 -0.296239
v -0.000000 0.167205 -0.232995
v -0.000000 0.164731 -0.240078
v -0.061794 0.147461 -0.294610
v 0.115336 0.158170 -0.268380
v 0.061794 0.147461 -0.294610
v 0.056415 0.120565 -0.307786
v 0.158170 0.115336 -0.268380
v 0.141595 -0.000000 -0.187177
v -0.082229 0.158040 -0.146894
v -0.000000 0.141595 -0.187177
v -0.082229 -0.158040 -0.146894
v 0.000000 -0.141595 -0.187177
v -0.101923 -0.187590 -0.183063
v -0.158040 -0.082229 -0.146894
v -0.187590 -0.101923 -0.183063
v -0.115336 -0.158170 -0.268380
v -0.158170 -0.115336 -0.268380
v 0.000000 -0.000000 -0.244983
v 0.000000 -0.027068 -0.233933
v -0.027743 -0.027743 -0.222331
v 0.027743 -0.027743 -0.222331
v 0.018626 -0.030162 -0.180756
v -0.018626 -0.030162 -0.180756
v 0.019747 -0.032656 -0.137887
v 0.040679 -0.040679 0.000000
v -0.019747 -0.032656 -0.137887
v -0.040679 -0.040679 0.000000
v -0.032787 -0.019498 -0.135631
v -0.084205 -0.014498 -0.204688
v -0.032787 0.019498 -0.135631
v -0.087585 -0.000000 -0.209227
v -0.084205 0.014498 -0.204688
v 0.014005 -0.115262 -0.192210
v -0.000000 -0.120626 -0.195738
v -0.014005 -0.115262 -0.192210
v -0.029678 0.017233 -0.189069
v -0.055319 0.015063 -0.216250
v 0.032787 -0.019498 -0.135631
v 0.032787 0.019498 -0.135631
v 0.084205 -0.014498 -0.204688
v 0.087585 -0.000000 -0.209227
v 0.084205 0.014498 -0.204688
v 0.019747 0.032656 -0.137887
v -0.019747 0.032656 -0.137887
v 0.014005 0.115262 -0.192210
v -0.000000 0.120626 -0.195738
v -0.014005 0.115262 -0.192210
v 0.040679 0.040679 0.000000
v -0.040679 0.040679 0.000000
v 0.018626 0.030162 -0.180756
v 0.015368 0.080285 -0.205933
v -0.018626 0.030162 -0.180756
v -0.015368 0.080285 -0.205933
v -0.000000 0.027068 -0.233933
v 0.027743 0.027743 -0.222331
v -0.027743 0.027743 -0.222331
v 0.029678 0.017233 -0.189069
v 0.055319 0.015063 -0.216250
v 0.029678 -0.017233 -0.189069
v 0.055319 -0.015063 -0.216250
v -0.029678 -0.017233 -0.189069
v -0.055319 -0.015063 -0.216250
v -0.015368 -0.080285 -0.205933
v 0.015368 -0.080285 -0.205933
v -0.000000 0.087175 -0.209394
v 0.059507 -0.000000 -0.220690
v -0.059507 -0.000000 -0.220690
v -0.000000 -0.087175 -0.209394
v 0.027068 -0.000000 -0.233933
v -0.027068 -0.000000 -0.233933
vn 0.1680 -0.3544 0.9199
vn 0.8970 -0.3490 0.2711
vn 0.4454 0.0939 0.8904
vn -0.0234 -0.5893 0.8076
vn 0.8270 0.1886 -0.5296
vn 0.9160 -0.3502 -0.1958
vn 0.4347 -0.2510 -0.8649
vn 0.8252 0.4764 -0.3035
vn 0.5995 -0.6187 -0.5077
vn -0.0000 -0.5044 -0.8635
vn -0.9707 -0.2337 -0.0563
vn -0.6406 0.3208 -0.6977
vn -0.1107 -0.1610 -0.9807
vn -0.9737 0.2111 -0.0862
vn -0.8593 -0.0000 -0.5115
vn -0.7897 0.5039 -0.3500
vn 0.7427 0.2965 0.6005
vn 0.7607 0.0782 0.6444
vn 0.3648 0.8902 0.2730
vn 0.0655 0.1904 0.9795
vn -0.7413 0.5618 -0.3672
vn -0.9518 0.3005 0.0614
vn -0.3667 0.8893 0.2732
vn -0.8159 0.2860 -0.5026
vn 0.5823 0.1773 -0.7934
vn -0.4467 0.4065 -0.7970
vn 0.0945 0.5788 -0.8100
vn -0.8825 0.4327 0.1843
vn 0.7531 0.6278 -0.1967
vn -0.2155 -0.8972 -0.3855
vn -0.0000 -0.8894 -0.4571
vn 0.3735 -0.7583 -0.5343
vn 0.4661 -0.7503 -0.4688
vn 0.8100 0.4966 -0.3118
vn 0.8894 -0.4209 0.1782
vn 0.9965 -0.0000 -0.0836
vn 0.8593 -0.0000 -0.5115
vn 0.7884 -0.5195 -0.3293
vn 0.9970 0.0021 -0.0775
vn 0.9287 -0.0628 -0.3656
vn 0.6842 0.3532 -0.6381
vn 0.3169 -0.8000 -0.5094
vn 0.7684 -0.3781 -0.5163
vn 0.5175 -0.8482 -0.1130
vn -0.4860 -0.5674 0.6647
vn -0.3170 -0.0000 0.9484
vn -0.1376 -0.7504 -0.6465
vn 0.1628 -0.0961 -0.9820
vn -0.2675 -0.9432 -0.1972
vn -0.2237 0.9620 -0.1565
vn -0.0000 0.6681 -0.7441
vn -0.1718 0.9820 -0.0790
vn -0.5334 0.6076 -0.5885
vn -0.6750 -0.3897 0.6265
vn -0.6803 -0.3819 -0.6256
vn -0.4069 0.8998 -0.1573
vn -0.3954 0.7473 -0.5341
vn -0.4868 0.7477 -0.4516
vn -0.2142 0.8973 -0.3861
vn -0.4958 0.7901 -0.3604
vn 0.6234 -0.1507 -0.7673
vn 0.5175 0.8482 -0.1130
vn 0.3170 -0.0000 0.9484
vn -0.0000 0.3170 0.9484
vn 0.4410 0.3324 0.8337
vn 0.6145 -0.7383 0.2781
vn -0.0000 -0.3170 0.9484
vn -0.2338 -0.9308 0.2809
vn 0.0226 -0.6682 0.7436
vn -0.8249 0.0204 -0.5650
vn -0.9517 -0.3021 0.0557
vn 0.2190 -0.8793 -0.4229
vn -0.0000 -0.0000 1.0000
vn 0.7047 -0.7047 -0.0820
vn -0.7047 -0.7047 -0.0820
vn -0.0000 -0.9983 -0.0581
vn 0.4073 -0.8450 -0.3466
vn -0.4073 -0.8450 -0.3466
vn 0.5920 -0.5920 0.5469
vn 0.2061 -0.9765 -0.0624
vn -0.2127 -0.9665 -0.1433
vn -0.5920 -0.5920 0.5469
vn -0.9931 -0.0592 -0.1012
vn -0.6903 -0.5463 0.4744
vn -0.9923 0.0746 0.0988
vn -0.8021 -0.0000 0.5972
vn -0.6903 0.5463 0.4744
vn 0.4195 -0.5190 0.7448
vn -0.0000 -0.5495 0.8355
vn -0.8017 0.5107 -0.3105
vn -0.5920 0.5920 0.5469
vn -0.7047 0.7047 -0.0820
vn -0.1759 0.9721 -0.1553
vn -0.4073 0.8450 -0.3466
vn 0.2060 0.9767 -0.0602
vn 0.7047 0.7047 -0.0820
vn 0.4073 0.8450 -0.3466
vn 0.5920 0.5920 0.5469
vn 0.8017 -0.5107 -0.3105
vn 0.6903 -0.5463 0.4744
vn 0.9899 -0.1083 -0.0910
vn -0.4962 -0.6927 -0.5234
vn -0.8017 -0.5107 -0.3105
vn -0.7374 0.2643 -0.6216
vn -0.4195 -0.5190 0.7448
vn 0.7374 0.2643 -0.6216
vn 0.7374 -0.2643 -0.6216
vn -0.0000 -0.4489 -0.8936
vn -0.7374 -0.2643 -0.6216
vn 0.8017 0.5107 -0.3105
vn -0.7274 -0.0000 -0.6862
vn 0.4962 -0.6927 -0.5234
vn 0.7274 -0.0000 -0.6862
vn -0.0000 0.4489 -0.8936
vn 0.9238 0.1468 0.3535
vn 0.9983 -0.0000 -0.0581
vn -0.9983 -0.0000 -0.0581
vn 0.4962 0.6927 -0.5234
vn 0.8021 -0.0000 0.5972
vn 0.6903 0.5463 0.4744
vn 0.4195 0.5190 0.7448
vn -0.0000 0.5495 0.8355
vn -0.4195 0.5190 0.7448
vn -0.0000 0.9983 -0.0581
vn -0.4962 0.6927 -0.5234
vt 0.343750 0.094673
vt 0.343750 0.111828
vt 0.343750 0.225000
vt 0.343750 0.176993
vt 0.343750 0.168452
vt 0.343750 0.138871
vt 0.343750 0.164735
vt 0.343750 0.151176
vt 0.343750 0.152294
vt 0.343750 0.135511
vt 0.343750 0.165508
vt 0.343750 0.170985
vt 0.343750 0.113780
vt 0.343750 0.146227
vt 0.343750 0.141197
vt 0.593750 0.379959
vt 0.593750 0.375000
vt 0.593750 0.397732
vt 0.593750 0.475000
vt 0.593750 0.416057
vt 0.593750 0.417022
vt 0.593750 0.387501
vt 0.593750 0.385561
vt 0.593750 0.392835
vt 0.593750 0.391327
vt 0.593750 0.394178
vt 0.593750 0.382559
vt 0.593750 0.386969
vt 0.593750 0.385490
vt 0.593750 0.380661
s 1
usemtl colormap.940
f 3/1/1 2/2/2 1/2/3
f 2/2/2 3/1/1 4/1/4
f 7/3/5 6/4/6 5/4/7
f 6/4/6 7/3/5 8/3/8
f 10/3/9 5/4/7 9/4/10
f 5/4/7 10/3/9 7/3/5
f 12/5/11 13/6/12 14/7/13
f 19/5/14 13/6/12 11/8/15
f 13/6/12 19/5/14 20/7/16
f 23/2/17 22/1/18 21/2/19
f 22/1/18 23/2/17 24/1/20
f 27/2/21 26/9/22 25/2/23
f 26/9/22 27/2/21 28/9/24
f 10/3/9 8/3/8 7/3/5
f 8/3/8 10/3/9 29/3/25
f 29/3/25 16/3/26 18/3/27
f 25/2/23 13/6/12 30/10/28
f 13/6/12 25/2/23 14/7/13
f 14/7/13 25/2/23 26/9/22
f 8/3/8 31/4/29 6/4/6
f 31/4/29 8/3/8 29/3/25
f 32/9/30 33/10/31 34/6/32
f 32/9/30 34/6/32 35/7/33
f 1/2/3 37/7/34 38/10/35
f 38/10/35 37/7/34 39/6/36
f 41/8/37 40/7/38 39/6/36
f 40/7/38 41/8/37 42/5/39
f 44/5/40 5/4/7 6/4/6
f 44/5/40 6/4/6 41/8/37
f 41/8/37 6/4/6 42/5/39
f 42/5/39 6/4/6 45/11/41
f 32/9/30 37/7/34 36/9/42
f 37/7/34 32/9/30 43/11/43
f 37/7/34 43/11/43 44/5/40
f 46/12/44 32/9/30 35/7/33
f 48/1/45 30/10/28 47/13/46
f 49/14/47 50/7/48 51/12/49
f 31/4/29 53/12/50 52/14/51
f 17/4/52 53/12/50 31/4/29
f 53/12/50 17/4/52 54/11/53
f 9/4/10 16/3/26 10/3/9
f 19/5/14 15/4/54 55/11/55
f 15/4/54 19/5/14 17/4/52
f 17/4/52 19/5/14 11/8/15
f 17/4/52 11/8/15 12/5/11
f 17/4/52 12/5/11 54/11/53
f 56/10/56 28/9/24 27/2/21
f 28/9/24 56/10/56 57/6/57
f 28/9/24 57/6/57 58/7/58
f 59/9/59 56/10/56 23/2/17
f 56/10/56 59/9/59 57/6/57
f 57/6/57 59/9/59 60/7/60
f 40/7/38 59/9/59 62/9/61
f 59/9/59 45/11/41 61/12/62
f 38/10/35 3/1/1 1/2/3
f 3/1/1 38/10/35 63/13/63
f 29/3/25 17/4/52 31/4/29
f 17/4/52 29/3/25 18/3/27
f 65/13/64 27/2/21 64/1/65
f 27/2/21 48/1/45 64/1/65
f 62/9/61 23/2/17 21/2/19
f 23/2/17 62/9/61 59/9/59
f 9/4/10 46/12/44 49/14/47
f 5/4/7 46/12/44 9/4/10
f 46/12/44 5/4/7 43/11/43
f 68/2/66 67/13/67 66/1/68
f 58/7/58 54/11/53 28/9/24
f 28/9/24 54/11/53 26/9/22
f 69/1/69 68/2/66 66/1/68
f 67/13/67 2/2/2 4/1/4
f 70/2/70 20/7/16 72/9/71
f 20/7/16 30/10/28 13/6/12
f 40/7/38 38/10/35 39/6/36
f 38/10/35 22/1/18 63/13/63
f 50/7/48 55/11/55 51/12/49
f 31/4/29 61/12/62 6/4/6
f 9/4/10 51/12/49 15/4/54
f 51/12/49 9/4/10 49/14/47
f 33/10/31 71/9/72 34/6/32
f 34/6/32 71/9/72 50/7/48
f 57/6/57 53/12/50 58/7/58
f 69/1/69 30/10/28 70/2/70
f 65/13/64 47/13/46 73/15/73
f 47/13/46 65/13/64 64/1/65
f 47/13/46 64/1/65 48/1/45
f 4/1/4 73/15/73 67/13/67
f 47/13/46 67/13/67 73/15/73
f 67/13/67 47/13/46 66/1/68
f 66/1/68 47/13/46 69/1/69
f 76/16/74 75/16/75 74/17/76
f 76/16/74 77/18/77 75/16/75
f 78/18/78 75/16/75 77/18/77
f 80/19/79 79/20/80 76/16/74
f 81/20/81 75/16/75 78/18/78
f 79/20/80 80/19/79 81/20/81
f 81/20/81 82/19/82 75/16/75
f 85/21/83 84/22/84 83/21/85
f 86/23/86 85/21/83 87/22/87
f 81/20/81 88/24/88 79/20/80
f 88/24/88 81/20/81 89/25/89
f 91/26/90 87/22/87 85/21/83
f 80/19/79 104/19/91 82/19/82
f 111/16/92 99/20/93 107/18/94
f 98/20/95 110/16/96 105/18/97
f 99/20/93 104/19/91 98/20/95
f 98/20/95 103/19/98 110/16/96
f 114/26/99 95/22/100 93/21/101
f 95/22/100 114/26/99 115/27/102
f 84/22/84 116/26/103 83/21/85
f 81/20/81 118/28/104 90/24/105
f 118/28/104 81/20/81 78/18/78
f 79/20/80 119/28/106 77/18/77
f 107/18/94 106/28/107 105/18/97
f 120/29/108 107/18/94 108/28/109
f 115/27/102 112/26/110 121/30/111
f 117/27/112 91/26/90 116/26/103
f 91/26/90 117/27/112 122/30/113
f 119/28/106 78/18/78 77/18/77
f 78/18/78 119/28/106 123/29/114
f 80/19/79 93/21/101 103/19/98
f 103/19/98 93/21/101 94/21/115
f 76/16/74 114/26/99 93/21/101
f 112/26/110 110/16/96 94/21/115
f 114/26/99 124/17/116 112/26/110
f 82/19/82 83/21/85 75/16/75
f 83/21/85 82/19/82 104/19/91
f 116/26/103 75/16/75 83/21/85
f 83/21/85 104/19/91 85/21/83
f 125/17/117 116/26/103 91/26/90
f 125/17/117 91/26/90 111/16/92
f 13/6/12 12/5/11 11/8/15
f 17/4/52 16/3/26 15/4/54
f 16/3/26 17/4/52 18/3/27
f 29/3/25 10/3/9 16/3/26
f 33/10/31 32/9/30 2/2/2
f 37/7/34 1/2/3 36/9/42
f 5/4/7 44/5/40 43/11/43
f 43/11/43 32/9/30 46/12/44
f 32/9/30 1/2/3 2/2/2
f 1/2/3 32/9/30 36/9/42
f 30/10/28 48/1/45 25/2/23
f 50/7/48 49/14/47 34/6/32
f 16/3/26 9/4/10 15/4/54
f 37/7/34 41/8/37 39/6/36
f 41/8/37 37/7/34 44/5/40
f 61/12/62 57/6/57 60/7/60
f 57/6/57 61/12/62 52/14/51
f 59/9/59 40/7/38 45/11/41
f 45/11/41 40/7/38 42/5/39
f 59/9/59 61/12/62 60/7/60
f 27/2/21 65/13/64 56/10/56
f 48/1/45 27/2/21 25/2/23
f 67/13/67 68/2/66 33/10/31
f 54/11/53 58/7/58 53/12/50
f 26/9/22 54/11/53 12/5/11
f 26/9/22 12/5/11 14/7/13
f 68/2/66 69/1/69 70/2/70
f 34/6/32 46/12/44 35/7/33
f 46/12/44 34/6/32 49/14/47
f 2/2/2 67/13/67 33/10/31
f 70/2/70 71/9/72 68/2/66
f 71/9/72 70/2/70 72/9/71
f 20/7/16 70/2/70 30/10/28
f 38/10/35 40/7/38 21/2/19
f 21/2/19 40/7/38 62/9/61
f 22/1/18 38/10/35 21/2/19
f 55/11/55 50/7/48 71/9/72
f 55/11/55 71/9/72 72/9/71
f 55/11/55 72/9/71 19/5/14
f 19/5/14 72/9/71 20/7/16
f 6/4/6 61/12/62 45/11/41
f 61/12/62 31/4/29 52/14/51
f 15/4/54 51/12/49 55/11/55
f 71/9/72 33/10/31 68/2/66
f 53/12/50 57/6/57 52/14/51
f 30/10/28 69/1/69 47/13/46
f 23/2/17 65/13/64 24/1/20
f 65/13/64 23/2/17 56/10/56
f 24/1/20 63/13/63 22/1/18
f 63/13/63 24/1/20 73/15/73
f 73/15/73 24/1/20 65/13/64
f 63/13/63 4/1/4 3/1/1
f 4/1/4 63/13/63 73/15/73
f 76/16/74 79/20/80 77/18/77
f 82/19/82 81/20/81 80/19/79
f 84/22/84 85/21/83 86/23/86
f 89/25/89 81/20/81 90/24/105
f 87/22/87 91/26/90 92/27/118
f 95/22/100 94/21/115 93/21/101
f 94/21/115 95/22/100 96/23/119
f 94/21/115 96/23/119 97/22/120
f 100/24/121 99/20/93 98/20/95
f 99/20/93 100/24/121 101/25/122
f 99/20/93 101/25/122 102/24/123
f 104/19/91 80/19/79 103/19/98
f 106/28/107 98/20/95 105/18/97
f 98/20/95 106/28/107 100/24/121
f 99/20/93 108/28/109 107/18/94
f 108/28/109 99/20/93 102/24/123
f 111/16/92 110/16/96 109/17/124
f 105/18/97 110/16/96 111/16/92
f 111/16/92 107/18/94 105/18/97
f 104/19/91 99/20/93 111/16/92
f 103/19/98 98/20/95 104/19/91
f 97/22/120 112/26/110 94/21/115
f 112/26/110 97/22/120 113/27/125
f 116/26/103 84/22/84 117/27/112
f 119/28/106 79/20/80 88/24/88
f 106/28/107 107/18/94 120/29/108
f 112/26/110 115/27/102 114/26/99
f 121/30/111 112/26/110 113/27/125
f 91/26/90 122/30/113 92/27/118
f 78/18/78 123/29/114 118/28/104
f 93/21/101 80/19/79 76/16/74
f 103/19/98 94/21/115 110/16/96
f 114/26/99 76/16/74 124/17/116
f 112/26/110 124/17/116 110/16/96
f 75/16/75 116/26/103 125/17/117
f 85/21/83 104/19/91 111/16/92
f 111/16/92 91/26/90 85/21/83
