# Blender 4.3.2
# www.blender.org
mtllib pear.mtl
o pear
v 0.000000 -0.039196 -0.241850
v -0.022910 -0.015643 -0.251068
v -0.032400 -0.035314 -0.256339
v 0.000000 -0.094834 -0.256758
v 0.032400 -0.035314 -0.256339
v 0.022910 -0.015643 -0.251068
v 0.000000 -0.007495 -0.248885
v 0.044744 0.000000 0.000000
v 0.031639 -0.031639 0.000000
v 0.031639 0.031639 0.000000
v -0.000000 0.044744 0.000000
v -0.000000 -0.044744 0.000000
v -0.031639 0.031639 0.000000
v -0.031639 -0.031639 0.000000
v -0.044744 0.000000 0.000000
v -0.000000 0.078960 -0.031960
v -0.055833 0.055833 -0.031960
v 0.055833 0.055833 -0.031960
v 0.055833 -0.055833 -0.031960
v -0.000000 -0.078960 -0.031960
v -0.055833 -0.055833 -0.031960
v -0.078960 0.000000 -0.031960
v 0.078960 0.000000 -0.031960
v 0.069401 -0.069401 -0.068591
v 0.098147 0.000000 -0.068591
v 0.063155 -0.063155 -0.120634
v 0.089314 0.000000 -0.120634
v -0.069401 -0.069401 -0.068591
v -0.063155 -0.063155 -0.120634
v -0.098147 0.000000 -0.068591
v -0.089314 0.000000 -0.120634
v 0.069401 0.069401 -0.068591
v -0.000000 0.098147 -0.068591
v 0.063155 0.063155 -0.120634
v -0.000000 0.089314 -0.120634
v -0.000000 -0.098147 -0.068591
v -0.000000 -0.089314 -0.120634
v -0.069401 0.069401 -0.068591
v -0.063155 0.063155 -0.120634
v 0.000000 0.051766 -0.157016
v -0.036604 0.036604 -0.157016
v 0.036604 0.036604 -0.157016
v -0.051766 0.000000 -0.157016
v 0.051766 0.000000 -0.157016
v 0.036604 -0.036604 -0.157016
v 0.000000 -0.051766 -0.157016
v -0.036604 -0.036604 -0.157016
v 0.019534 0.000000 -0.227016
v 0.013813 0.013813 -0.227016
v 0.013813 -0.013813 -0.227016
v 0.000000 -0.019534 -0.227016
v 0.005381 -0.005381 -0.227016
v -0.005381 -0.005381 -0.227016
v 0.005381 0.005381 -0.227016
v 0.000000 0.019534 -0.227016
v -0.013813 -0.013813 -0.227016
v -0.005381 0.005381 -0.227016
v -0.013813 0.013813 -0.227016
v -0.019534 0.000000 -0.227016
v -0.027253 -0.027253 -0.204316
v -0.038541 0.000000 -0.204316
v -0.027253 0.027253 -0.204316
v 0.038541 0.000000 -0.204316
v 0.027253 0.027253 -0.204316
v 0.000000 0.038541 -0.204316
v 0.027253 -0.027253 -0.204316
v 0.000000 -0.038541 -0.204316
v 0.009610 -0.009610 -0.270753
v 0.009610 0.009610 -0.270753
v -0.009610 -0.009610 -0.270753
v -0.009610 0.009610 -0.270753
vn 0.3316 0.1409 -0.9328
vn 0.1905 0.0435 -0.9807
vn 0.3189 0.0610 -0.9458
vn -0.0000 -0.1303 -0.9915
vn -0.1905 0.0435 -0.9807
vn -0.3316 0.1409 -0.9328
vn -0.0000 -0.0614 -0.9981
vn 0.3227 -0.1766 0.9299
vn 0.4869 0.1577 0.8591
vn 0.2441 0.4365 0.8660
vn -0.0000 -0.0580 0.9983
vn 0.4637 -0.2281 0.8561
vn -0.1352 -0.1540 0.9788
vn 0.1452 -0.4837 0.8631
vn -0.2441 -0.4365 0.8660
vn -0.2337 0.5243 0.8189
vn -0.3956 0.6831 0.6139
vn 0.2127 0.7597 0.6145
vn 0.5220 -0.2249 0.8228
vn -0.2055 -0.5360 0.8189
vn -0.2033 -0.7628 0.6139
vn -0.4973 -0.0000 0.8676
vn 0.9502 -0.2811 -0.1343
vn 0.8016 -0.5779 0.1533
vn 0.6328 -0.6328 -0.4462
vn 0.9944 -0.0000 0.1055
vn -0.8592 -0.4631 -0.2173
vn -0.7016 -0.7016 0.1245
vn -0.9733 -0.1706 0.1537
vn -0.7150 -0.5312 -0.4544
vn 0.5311 -0.7152 -0.4545
vn -0.9356 0.2758 -0.2203
vn -0.8793 0.1396 -0.4554
vn 0.9523 0.2759 -0.1301
vn 0.9740 0.1666 0.1536
vn -0.5736 -0.8046 0.1535
vn -0.4576 0.7590 0.4631
vn 0.9793 -0.0000 0.2026
vn -0.3646 0.8762 -0.3151
vn -0.0000 0.5213 -0.8534
vn -0.4101 0.7128 -0.5689
vn 0.2258 0.7902 -0.5697
vn -0.8783 0.3548 -0.3205
vn 0.8779 0.3583 -0.3178
vn 0.6997 -0.6997 -0.1444
vn 0.4101 -0.7128 -0.5689
vn -0.2258 -0.7902 -0.5697
vn 0.3672 -0.2536 -0.8949
vn -0.1830 -0.5490 -0.8156
vn 0.2500 0.0422 -0.9673
vn 0.1641 -0.6202 -0.7671
vn -0.0352 -0.3532 -0.9349
vn 0.4843 0.4843 -0.7287
vn 0.5362 0.2463 -0.8074
vn 0.0602 0.0602 -0.9964
vn -0.2037 0.5628 -0.8011
vn 0.2007 0.5525 -0.8090
vn -0.2717 0.4978 -0.8237
vn -0.9482 0.3059 -0.0854
vn -0.8543 0.2196 -0.4711
vn 0.8907 0.4482 -0.0757
vn 0.7599 0.4479 -0.4712
vn -0.4482 -0.8907 -0.0757
vn 0.4564 -0.7551 -0.4706
vn 0.7070 -0.7070 0.0203
vn -0.0000 0.5857 -0.8105
vn 0.8833 -0.0000 -0.4688
vn 0.1660 0.1660 -0.9721
vn -0.7509 0.0526 -0.6583
vn 0.2024 0.7364 -0.6456
vn 0.7486 0.0943 -0.6563
vt 0.593750 0.474674
vt 0.593750 0.470568
vt 0.593750 0.463387
vt 0.593750 0.475000
vt 0.593750 0.468867
vt 0.593750 0.275000
vt 0.593750 0.299895
vt 0.593750 0.368967
vt 0.593750 0.328429
vt 0.593750 0.397307
vt 0.593750 0.451833
vt 0.593750 0.434151
vt 0.093750 0.475000
vt 0.093750 0.275000
s 1
usemtl colormap.021
f 3/1/1 2/2/2 1/3/3
f 3/1/1 1/3/3 4/4/4
f 1/3/3 6/2/5 5/1/6
f 2/2/2 7/5/7 1/3/3
f 1/3/3 5/1/6 4/4/4
f 7/5/7 6/2/5 1/3/3
f 10/6/8 9/6/9 8/6/10
f 9/6/9 11/6/11 12/6/12
f 12/6/12 11/6/11 13/6/13
f 12/6/12 13/6/13 14/6/14
f 14/6/14 13/6/13 15/6/15
f 17/7/16 11/6/11 16/7/17
f 11/6/11 17/7/16 13/6/13
f 16/7/17 10/6/8 18/7/18
f 10/6/8 16/7/17 11/6/11
f 19/7/19 8/6/10 9/6/9
f 20/7/20 14/6/14 21/7/21
f 17/7/16 15/6/15 13/6/13
f 15/6/15 17/7/16 22/7/22
f 8/6/10 18/7/18 10/6/8
f 26/8/23 25/9/24 24/9/25
f 25/9/24 26/8/23 27/8/26
f 30/9/27 29/8/28 28/9/29
f 29/8/28 30/9/27 31/8/30
f 24/9/25 37/8/31 26/8/23
f 38/9/32 31/8/30 30/9/27
f 31/8/30 38/9/32 39/8/33
f 34/8/34 25/9/24 27/8/26
f 25/9/24 34/8/34 32/9/35
f 29/8/28 36/9/36 28/9/29
f 25/9/24 19/7/19 24/9/25
f 21/7/21 30/9/27 28/9/29
f 30/9/27 21/7/21 22/7/22
f 33/9/37 17/7/16 16/7/17
f 22/7/22 38/9/32 30/9/27
f 38/9/32 22/7/22 17/7/16
f 32/9/35 23/7/38 25/9/24
f 23/7/38 32/9/35 18/7/18
f 36/9/36 19/7/19 20/7/20
f 19/7/19 36/9/36 24/9/25
f 16/7/17 32/9/35 33/9/37
f 28/9/29 20/7/20 21/7/21
f 20/7/20 28/9/29 36/9/36
f 41/10/39 35/8/40 40/10/41
f 35/8/40 41/10/39 39/8/33
f 35/8/40 42/10/42 40/10/41
f 43/10/43 39/8/33 41/10/39
f 39/8/33 43/10/43 31/8/30
f 44/10/44 34/8/34 27/8/26
f 34/8/34 44/10/44 42/10/42
f 37/8/31 45/10/45 26/8/23
f 45/10/45 37/8/31 46/10/46
f 37/8/31 47/10/47 46/10/46
f 47/10/47 37/8/31 29/8/28
f 49/11/48 50/11/49 51/11/50
f 52/11/51 51/11/50 53/11/52
f 54/11/53 49/11/48 52/11/51
f 49/11/48 54/11/53 55/11/54
f 53/11/52 51/11/50 56/11/55
f 55/11/54 54/11/53 57/11/56
f 53/11/52 56/11/55 57/11/56
f 55/11/54 57/11/56 58/11/57
f 58/11/57 56/11/55 59/11/58
f 61/12/59 41/10/39 62/12/60
f 64/12/61 44/10/44 63/12/62
f 44/10/44 64/12/61 42/10/42
f 60/12/63 46/10/46 47/10/47
f 45/10/45 67/12/64 66/12/65
f 61/12/59 56/11/55 60/12/63
f 56/11/55 61/12/59 59/11/58
f 56/11/55 67/12/64 60/12/63
f 67/12/64 56/11/55 51/11/50
f 55/11/54 62/12/60 65/12/66
f 49/11/48 65/12/66 64/12/61
f 65/12/66 49/11/48 55/11/54
f 66/12/65 51/11/50 50/11/49
f 50/11/49 63/12/62 66/12/65
f 63/12/62 50/11/49 48/11/67
f 69/13/68 70/13/69 71/13/70
f 69/13/68 52/14/51 68/13/71
f 52/14/51 69/13/68 54/14/53
f 53/14/52 71/13/70 70/13/69
f 9/6/9 10/6/8 11/6/11
f 9/6/9 20/7/20 19/7/19
f 20/7/20 9/6/9 12/6/12
f 15/6/15 21/7/21 14/6/14
f 21/7/21 15/6/15 22/7/22
f 8/6/10 19/7/19 23/7/38
f 14/6/14 20/7/20 12/6/12
f 18/7/18 8/6/10 23/7/38
f 34/8/34 33/9/37 32/9/35
f 33/9/37 34/8/34 35/8/40
f 37/8/31 24/9/25 36/9/36
f 35/8/40 38/9/32 33/9/37
f 38/9/32 35/8/40 39/8/33
f 36/9/36 29/8/28 37/8/31
f 19/7/19 25/9/24 23/7/38
f 17/7/16 33/9/37 38/9/32
f 32/9/35 16/7/17 18/7/18
f 42/10/42 35/8/40 34/8/34
f 26/8/23 44/10/44 27/8/26
f 44/10/44 26/8/23 45/10/45
f 29/8/28 43/10/43 47/10/47
f 43/10/43 29/8/28 31/8/30
f 50/11/49 49/11/48 48/11/67
f 49/11/48 51/11/50 52/11/51
f 58/11/57 57/11/56 56/11/55
f 43/10/43 60/12/63 47/10/47
f 60/12/63 43/10/43 61/12/59
f 41/10/39 61/12/59 43/10/43
f 64/12/61 40/10/41 42/10/42
f 40/10/41 64/12/61 65/12/66
f 65/12/66 41/10/39 40/10/41
f 41/10/39 65/12/66 62/12/60
f 66/12/65 44/10/44 45/10/45
f 44/10/44 66/12/65 63/12/62
f 46/10/46 60/12/63 67/12/64
f 67/12/64 45/10/45 46/10/46
f 49/11/48 63/12/62 48/11/67
f 63/12/62 49/11/48 64/12/61
f 62/12/60 55/11/54 58/11/57
f 61/12/59 58/11/57 59/11/58
f 58/11/57 61/12/59 62/12/60
f 51/11/50 66/12/65 67/12/64
f 70/13/69 69/13/68 68/13/71
f 70/13/69 52/14/51 53/14/52
f 52/14/51 70/13/69 68/13/71
f 69/13/68 57/14/56 54/14/53
f 57/14/56 69/13/68 71/13/70
f 71/13/70 53/14/52 57/14/56
